M48
; DRILL file {KiCad (6.0.7)} date Fri Mar 24 16:40:45 2023
; FORMAT={-:-/ absolute / metric / decimal}
; #@! TF.CreationDate,2023-03-24T16:40:45-04:00
; #@! TF.GenerationSoftware,Kicad,Pcbnew,(6.0.7)
; #@! TF.FileFunction,MixedPlating,1,2
FMAT,2
METRIC
; #@! TA.AperFunction,Plated,PTH,ViaDrill
T1C0.400
; #@! TA.AperFunction,Plated,PTH,ComponentDrill
T2C0.700
; #@! TA.AperFunction,Plated,PTH,ComponentDrill
T3C0.750
; #@! TA.AperFunction,Plated,PTH,ComponentDrill
T4C0.800
; #@! TA.AperFunction,Plated,PTH,ComponentDrill
T5C0.900
; #@! TA.AperFunction,Plated,PTH,ComponentDrill
T6C1.000
; #@! TA.AperFunction,Plated,PTH,ComponentDrill
T7C1.100
; #@! TA.AperFunction,Plated,PTH,ComponentDrill
T8C1.200
; #@! TA.AperFunction,Plated,PTH,ComponentDrill
T9C1.500
; #@! TA.AperFunction,Plated,PTH,ComponentDrill
T10C1.700
; #@! TA.AperFunction,Plated,PTH,ComponentDrill
T11C3.200
%
G90
G05
T1
X23.05Y-125.222
X56.822Y-126.733
X56.896Y-45.316
X108.521Y-76.772
X122.687Y-123.2
X130.302Y-53.784
X144.97Y-118.745
X145.225Y-109.537
X145.351Y-177.101
X146.24Y-133.804
X146.431Y-125.412
X154.432Y-105.229
X180.975Y-121.158
X194.564Y-124.079
X199.326Y-104.331
X201.761Y-121.793
X210.957Y-60.97
X217.043Y-115.633
X229.298Y-90.932
X234.823Y-84.645
X235.394Y-121.856
X249.364Y-100.965
X260.858Y-115.633
X271.335Y-112.204
T2
X51.529Y-71.421
X51.529Y-79.041
X56.609Y-71.421
X56.609Y-79.041
X61.689Y-71.421
X61.689Y-79.041
X69.309Y-71.421
X69.309Y-79.041
X94.678Y-57.912
X94.678Y-62.992
X94.678Y-68.072
X94.678Y-75.692
X102.298Y-57.912
X102.298Y-62.992
X102.298Y-68.072
X102.298Y-75.692
X129.937Y-158.654
X129.937Y-163.734
X129.937Y-168.814
X129.937Y-176.434
X137.557Y-158.654
X137.557Y-163.734
X137.557Y-168.814
X137.557Y-176.434
X226.076Y-60.356
X226.076Y-65.436
X226.076Y-70.516
X226.076Y-78.136
X233.696Y-60.356
X233.696Y-65.436
X233.696Y-70.516
X233.696Y-78.136
T3
X49.636Y-57.317
X49.636Y-58.587
X49.636Y-59.857
X74.072Y-82.555
X75.342Y-82.555
X76.612Y-82.555
T4
X26.67Y-92.827
X26.67Y-95.327
X37.338Y-92.322
X37.338Y-94.822
X40.567Y-58.904
X42.799Y-130.619
X42.799Y-133.159
X42.799Y-135.7
X43.067Y-58.904
X50.736Y-134.871
X50.736Y-137.411
X50.736Y-139.951
X50.736Y-142.492
X52.06Y-122.91
X52.06Y-125.41
X58.356Y-134.871
X58.356Y-137.411
X58.356Y-139.951
X58.356Y-142.492
X58.991Y-49.189
X58.991Y-51.689
X67.882Y-53.126
X67.882Y-55.626
X68.199Y-44.386
X68.834Y-139.763
X70.739Y-44.386
X71.374Y-139.763
X73.279Y-44.386
X73.914Y-139.763
X74.072Y-71.485
X74.072Y-79.105
X94.805Y-79.248
X101.478Y-114.945
X101.478Y-122.565
X102.425Y-79.248
X104.018Y-114.945
X104.018Y-122.565
X106.558Y-114.945
X106.558Y-122.565
X106.87Y-130.427
X106.87Y-133.927
X109.098Y-114.945
X109.098Y-122.565
X111.506Y-67.754
X111.638Y-114.945
X111.638Y-122.565
X113.212Y-108.023
X114.006Y-67.754
X114.178Y-114.945
X114.178Y-122.565
X115.633Y-131.889
X115.633Y-134.389
X115.712Y-108.023
X116.718Y-114.945
X116.718Y-122.565
X123.2Y-68.526
X123.2Y-71.066
X123.2Y-73.606
X123.2Y-76.147
X123.761Y-108.648
X123.761Y-111.188
X123.761Y-113.728
X125.476Y-59.486
X125.476Y-61.986
X129.921Y-180.467
X130.82Y-68.526
X130.82Y-71.066
X130.82Y-73.606
X130.82Y-76.147
X133.15Y-125.994
X135.65Y-125.994
X137.541Y-180.467
X141.083Y-129.867
X142.567Y-105.855
X143.583Y-129.867
X145.107Y-105.855
X147.647Y-105.855
X148.844Y-171.45
X148.844Y-179.07
X151.765Y-74.703
X151.765Y-79.582
X158.75Y-129.105
X158.877Y-74.722
X158.877Y-79.602
X161.25Y-129.105
X161.481Y-109.905
X161.481Y-112.405
X166.243Y-74.766
X166.243Y-79.646
X166.37Y-117.538
X166.37Y-120.038
X172.339Y-116.977
X172.339Y-124.597
X173.228Y-74.786
X173.228Y-79.666
X179.705Y-173.418
X185.356Y-101.459
X185.356Y-103.959
X187.325Y-173.418
X188.236Y-122.609
X188.236Y-125.109
X204.035Y-75.638
X204.035Y-78.178
X204.035Y-80.718
X204.035Y-83.258
X204.416Y-66.662
X204.416Y-69.162
X210.778Y-113.473
X210.778Y-116.973
X211.655Y-75.638
X211.655Y-78.178
X211.655Y-80.718
X211.655Y-83.258
X221.424Y-107.315
X223.964Y-107.315
X226.123Y-81.597
X226.504Y-107.315
X233.489Y-107.315
X233.489Y-109.855
X233.489Y-112.395
X233.489Y-114.935
X233.743Y-81.597
X241.109Y-107.315
X241.109Y-109.855
X241.109Y-112.395
X241.109Y-114.935
X253.047Y-103.237
X253.047Y-105.737
X256.858Y-136.408
X256.858Y-144.028
X260.146Y-120.968
X262.646Y-120.968
X267.272Y-137.541
X267.272Y-140.081
X267.272Y-142.621
X283.909Y-174.048
X283.909Y-177.548
X287.02Y-114.427
X289.52Y-114.427
X290.245Y-96.837
X292.745Y-96.837
T5
X50.863Y-102.484
X50.863Y-105.024
X57.394Y-102.42
X57.394Y-104.96
X62.357Y-102.425
X62.357Y-104.965
T6
X25.845Y-60.497
X25.845Y-63.037
X47.576Y-90.297
X50.116Y-90.297
X52.656Y-90.297
X63.309Y-145.606
X63.309Y-148.145
X70.838Y-89.281
X73.379Y-89.281
X77.233Y-130.429
X77.279Y-97.409
X79.773Y-130.429
X79.819Y-97.409
X82.313Y-130.429
X82.359Y-63.246
X82.359Y-65.786
X82.359Y-97.409
X84.853Y-130.429
X84.899Y-97.409
X97.605Y-133.921
X100.144Y-133.921
X105.918Y-159.258
X108.331Y-56.896
X108.331Y-59.436
X114.173Y-57.213
X114.173Y-59.753
X117.729Y-85.979
X117.729Y-88.519
X136.462Y-69.596
X139.001Y-69.596
X152.209Y-175.709
X152.209Y-178.249
X152.59Y-145.859
X152.908Y-186.626
X172.148Y-127.962
X172.148Y-130.502
X189.992Y-74.93
X191.008Y-173.863
X191.008Y-176.403
X192.532Y-74.93
X193.25Y-101.917
X195.79Y-101.917
X199.072Y-159.448
X215.837Y-158.115
X216.115Y-80.602
X216.115Y-83.141
X218.224Y-53.764
X218.224Y-56.304
X222.796Y-150.411
X222.796Y-152.951
X234.84Y-174.815
X234.886Y-141.796
X237.38Y-174.815
X237.426Y-141.796
X239.92Y-174.815
X239.966Y-141.796
X242.46Y-174.815
X242.506Y-141.796
X248.602Y-111.125
X248.602Y-113.665
X248.602Y-116.205
X250.952Y-94.297
X250.998Y-61.277
X253.047Y-118.872
X253.047Y-121.412
X253.492Y-94.297
X253.538Y-61.277
X253.873Y-131.889
X255.206Y-183.261
X256.032Y-94.297
X256.078Y-61.277
X258.572Y-94.297
X258.618Y-61.277
X266.04Y-90.658
X266.04Y-93.198
X268.013Y-125.882
X270.553Y-125.882
X275.59Y-145.288
X275.59Y-147.828
X275.839Y-168.148
X278.379Y-168.148
X282.765Y-121.031
X285.305Y-121.031
X290.449Y-168.465
T7
X29.21Y-86.67
X31.75Y-86.67
X34.29Y-86.67
X51.308Y-84.836
X61.468Y-84.836
X282.646Y-148.399
X282.646Y-150.939
X282.646Y-153.48
X287.726Y-148.399
X287.726Y-150.939
X287.726Y-153.48
T8
X90.233Y-92.442
X94.551Y-89.14
X99.885Y-88.886
X129.986Y-82.63
X129.986Y-92.63
X144.463Y-150.939
X144.463Y-166.939
X145.986Y-82.63
X145.986Y-92.63
X154.463Y-150.939
X154.463Y-166.939
X162.624Y-153.115
X162.624Y-163.115
X178.624Y-153.115
X178.624Y-163.115
X178.754Y-82.185
X178.754Y-92.185
X194.754Y-82.185
X194.754Y-92.185
X246.253Y-55.88
X251.587Y-55.626
X255.905Y-52.324
X261.613Y-156.781
X262.366Y-166.347
X262.366Y-179.347
X268.366Y-166.347
X268.366Y-179.347
X276.613Y-156.781
T9
X116.332Y-179.26
X150.304Y-56.388
X217.995Y-95.504
T10
X113.792Y-176.72
X113.792Y-181.8
X118.872Y-176.72
X118.872Y-181.8
X147.764Y-53.848
X147.764Y-58.928
X152.844Y-53.848
X152.844Y-58.928
X215.456Y-92.964
X215.456Y-98.044
X220.535Y-92.964
X220.535Y-98.044
T11
X21.907Y-39.116
X21.907Y-190.5
X115.506Y-165.163
X189.611Y-165.036
X209.677Y-158.052
X295.846Y-39.116
X295.846Y-157.861
X295.846Y-190.5
T6
X26.91Y-107.851G85X26.91Y-110.051
G05
X31.41Y-113.751G85X29.21Y-113.751
G05
X33.21Y-107.651G85X33.21Y-110.251
G05
T0
M30
