%TF.GenerationSoftware,KiCad,Pcbnew,(6.0.7)*%
%TF.CreationDate,2023-03-17T20:48:43-04:00*%
%TF.ProjectId,Phoenix612 Complete v1.1,50686f65-6e69-4783-9631-3220436f6d70,rev?*%
%TF.SameCoordinates,Original*%
%TF.FileFunction,Drillmap*%
%TF.FilePolarity,Positive*%
%FSLAX45Y45*%
G04 Gerber Fmt 4.5, Leading zero omitted, Abs format (unit mm)*
G04 Created by KiCad (PCBNEW (6.0.7)) date 2023-03-17 20:48:43*
%MOMM*%
%LPD*%
G01*
G04 APERTURE LIST*
%ADD10C,0.150000*%
%ADD11C,0.200000*%
%ADD12C,0.040000*%
%ADD13C,0.070000*%
%ADD14C,0.075000*%
%ADD15C,0.080000*%
%ADD16C,0.090000*%
%ADD17C,0.100000*%
%ADD18C,0.110000*%
%ADD19C,0.111760*%
%ADD20C,0.120000*%
%ADD21C,0.170000*%
%ADD22C,0.320000*%
G04 APERTURE END LIST*
D10*
X1828800Y-3549650D02*
X29946600Y-3549650D01*
X29946600Y-3549650D02*
X29946600Y-19411950D01*
X29946600Y-19411950D02*
X1828800Y-19411950D01*
X1828800Y-19411950D02*
X1828800Y-3549650D01*
D11*
D12*
X2285050Y-12502200D02*
X2325050Y-12542200D01*
X2325050Y-12502200D02*
X2285050Y-12542200D01*
X5662250Y-12653350D02*
X5702250Y-12693350D01*
X5702250Y-12653350D02*
X5662250Y-12693350D01*
X5669600Y-4511550D02*
X5709600Y-4551550D01*
X5709600Y-4511550D02*
X5669600Y-4551550D01*
X10832150Y-7657150D02*
X10872150Y-7697150D01*
X10872150Y-7657150D02*
X10832150Y-7697150D01*
X12248700Y-12300000D02*
X12288700Y-12340000D01*
X12288700Y-12300000D02*
X12248700Y-12340000D01*
X13010200Y-5358450D02*
X13050200Y-5398450D01*
X13050200Y-5358450D02*
X13010200Y-5398450D01*
X14477050Y-11854500D02*
X14517050Y-11894500D01*
X14517050Y-11854500D02*
X14477050Y-11894500D01*
X14515150Y-17690150D02*
X14555150Y-17730150D01*
X14555150Y-17690150D02*
X14515150Y-17730150D01*
X14604050Y-13360415D02*
X14644050Y-13400415D01*
X14644050Y-13360415D02*
X14604050Y-13400415D01*
X14623100Y-12521250D02*
X14663100Y-12561250D01*
X14663100Y-12521250D02*
X14623100Y-12561250D01*
X14629450Y-11251250D02*
X14669450Y-11291250D01*
X14669450Y-11251250D02*
X14629450Y-11291250D01*
X15423200Y-10502915D02*
X15463200Y-10542915D01*
X15463200Y-10502915D02*
X15423200Y-10542915D01*
X18077500Y-12095800D02*
X18117500Y-12135800D01*
X18117500Y-12095800D02*
X18077500Y-12135800D01*
X19436400Y-12387900D02*
X19476400Y-12427900D01*
X19476400Y-12387900D02*
X19436400Y-12427900D01*
X19912650Y-10413050D02*
X19952650Y-10453050D01*
X19952650Y-10413050D02*
X19912650Y-10453050D01*
X20156100Y-12159300D02*
X20196100Y-12199300D01*
X20196100Y-12159300D02*
X20156100Y-12199300D01*
X21075700Y-6077000D02*
X21115700Y-6117000D01*
X21115700Y-6077000D02*
X21075700Y-6117000D01*
X21690650Y-11981500D02*
X21730650Y-12021500D01*
X21730650Y-11981500D02*
X21690650Y-12021500D01*
X22909850Y-9073200D02*
X22949850Y-9113200D01*
X22949850Y-9073200D02*
X22909850Y-9113200D01*
X23462300Y-8444550D02*
X23502300Y-8484550D01*
X23502300Y-8444550D02*
X23462300Y-8484550D01*
X24656100Y-12108500D02*
X24696100Y-12148500D01*
X24696100Y-12108500D02*
X24656100Y-12148500D01*
X24960900Y-10489250D02*
X25000900Y-10529250D01*
X25000900Y-10489250D02*
X24960900Y-10529250D01*
X26065800Y-11543350D02*
X26105800Y-11583350D01*
X26105800Y-11543350D02*
X26065800Y-11583350D01*
X27113550Y-11200450D02*
X27153550Y-11240450D01*
X27153550Y-11200450D02*
X27113550Y-11240450D01*
D13*
X5187950Y-7142150D02*
G75*
G03*
X5187950Y-7142150I-35000J0D01*
G01*
X5187950Y-7904150D02*
G75*
G03*
X5187950Y-7904150I-35000J0D01*
G01*
X5695950Y-7142150D02*
G75*
G03*
X5695950Y-7142150I-35000J0D01*
G01*
X5695950Y-7904150D02*
G75*
G03*
X5695950Y-7904150I-35000J0D01*
G01*
X6203950Y-7142150D02*
G75*
G03*
X6203950Y-7142150I-35000J0D01*
G01*
X6203950Y-7904150D02*
G75*
G03*
X6203950Y-7904150I-35000J0D01*
G01*
X6965950Y-7142150D02*
G75*
G03*
X6965950Y-7142150I-35000J0D01*
G01*
X6965950Y-7904150D02*
G75*
G03*
X6965950Y-7904150I-35000J0D01*
G01*
X9502850Y-5791200D02*
G75*
G03*
X9502850Y-5791200I-35000J0D01*
G01*
X9502850Y-6299200D02*
G75*
G03*
X9502850Y-6299200I-35000J0D01*
G01*
X9502850Y-6807200D02*
G75*
G03*
X9502850Y-6807200I-35000J0D01*
G01*
X9502850Y-7569200D02*
G75*
G03*
X9502850Y-7569200I-35000J0D01*
G01*
X10264850Y-5791200D02*
G75*
G03*
X10264850Y-5791200I-35000J0D01*
G01*
X10264850Y-6299200D02*
G75*
G03*
X10264850Y-6299200I-35000J0D01*
G01*
X10264850Y-6807200D02*
G75*
G03*
X10264850Y-6807200I-35000J0D01*
G01*
X10264850Y-7569200D02*
G75*
G03*
X10264850Y-7569200I-35000J0D01*
G01*
X13028700Y-15865400D02*
G75*
G03*
X13028700Y-15865400I-35000J0D01*
G01*
X13028700Y-16373400D02*
G75*
G03*
X13028700Y-16373400I-35000J0D01*
G01*
X13028700Y-16881400D02*
G75*
G03*
X13028700Y-16881400I-35000J0D01*
G01*
X13028700Y-17643400D02*
G75*
G03*
X13028700Y-17643400I-35000J0D01*
G01*
X13790700Y-15865400D02*
G75*
G03*
X13790700Y-15865400I-35000J0D01*
G01*
X13790700Y-16373400D02*
G75*
G03*
X13790700Y-16373400I-35000J0D01*
G01*
X13790700Y-16881400D02*
G75*
G03*
X13790700Y-16881400I-35000J0D01*
G01*
X13790700Y-17643400D02*
G75*
G03*
X13790700Y-17643400I-35000J0D01*
G01*
X22642600Y-6035600D02*
G75*
G03*
X22642600Y-6035600I-35000J0D01*
G01*
X22642600Y-6543600D02*
G75*
G03*
X22642600Y-6543600I-35000J0D01*
G01*
X22642600Y-7051600D02*
G75*
G03*
X22642600Y-7051600I-35000J0D01*
G01*
X22642600Y-7813600D02*
G75*
G03*
X22642600Y-7813600I-35000J0D01*
G01*
X23404600Y-6035600D02*
G75*
G03*
X23404600Y-6035600I-35000J0D01*
G01*
X23404600Y-6543600D02*
G75*
G03*
X23404600Y-6543600I-35000J0D01*
G01*
X23404600Y-7051600D02*
G75*
G03*
X23404600Y-7051600I-35000J0D01*
G01*
X23404600Y-7813600D02*
G75*
G03*
X23404600Y-7813600I-35000J0D01*
G01*
D14*
X4963600Y-5694200D02*
X4963600Y-5769200D01*
X4926100Y-5731700D02*
X5001100Y-5731700D01*
X4963600Y-5821200D02*
X4963600Y-5896200D01*
X4926100Y-5858700D02*
X5001100Y-5858700D01*
X4963600Y-5948200D02*
X4963600Y-6023200D01*
X4926100Y-5985700D02*
X5001100Y-5985700D01*
X7407200Y-8218000D02*
X7407200Y-8293000D01*
X7369700Y-8255500D02*
X7444700Y-8255500D01*
X7534200Y-8218000D02*
X7534200Y-8293000D01*
X7496700Y-8255500D02*
X7571700Y-8255500D01*
X7661200Y-8218000D02*
X7661200Y-8293000D01*
X7623700Y-8255500D02*
X7698700Y-8255500D01*
D15*
X2695285Y-9311019D02*
X2695285Y-9254450D01*
X2638716Y-9254450D01*
X2638716Y-9311019D01*
X2695285Y-9311019D01*
X2695285Y-9561019D02*
X2695285Y-9504450D01*
X2638716Y-9504450D01*
X2638716Y-9561019D01*
X2695285Y-9561019D01*
X3762084Y-9260435D02*
X3762084Y-9203866D01*
X3705515Y-9203866D01*
X3705515Y-9260435D01*
X3762084Y-9260435D01*
X3762084Y-9510435D02*
X3762084Y-9453866D01*
X3705515Y-9453866D01*
X3705515Y-9510435D01*
X3762084Y-9510435D01*
X4084969Y-5918734D02*
X4084969Y-5862165D01*
X4028400Y-5862165D01*
X4028400Y-5918734D01*
X4084969Y-5918734D01*
X4313535Y-13101684D02*
X4313535Y-13045115D01*
X4256966Y-13045115D01*
X4256966Y-13101684D01*
X4313535Y-13101684D01*
X4313535Y-13355684D02*
X4313535Y-13299115D01*
X4256966Y-13299115D01*
X4256966Y-13355684D01*
X4313535Y-13355684D01*
X4313535Y-13609684D02*
X4313535Y-13553115D01*
X4256966Y-13553115D01*
X4256966Y-13609684D01*
X4313535Y-13609684D01*
X4334969Y-5918734D02*
X4334969Y-5862165D01*
X4278400Y-5862165D01*
X4278400Y-5918734D01*
X4334969Y-5918734D01*
X5101935Y-13515434D02*
X5101935Y-13458865D01*
X5045366Y-13458865D01*
X5045366Y-13515434D01*
X5101935Y-13515434D01*
X5101935Y-13769434D02*
X5101935Y-13712865D01*
X5045366Y-13712865D01*
X5045366Y-13769434D01*
X5101935Y-13769434D01*
X5101935Y-14023434D02*
X5101935Y-13966865D01*
X5045366Y-13966865D01*
X5045366Y-14023434D01*
X5101935Y-14023434D01*
X5101935Y-14277434D02*
X5101935Y-14220865D01*
X5045366Y-14220865D01*
X5045366Y-14277434D01*
X5101935Y-14277434D01*
X5234285Y-12319250D02*
X5234285Y-12262681D01*
X5177716Y-12262681D01*
X5177716Y-12319250D01*
X5234285Y-12319250D01*
X5234285Y-12569250D02*
X5234285Y-12512681D01*
X5177716Y-12512681D01*
X5177716Y-12569250D01*
X5234285Y-12569250D01*
X5863934Y-13515434D02*
X5863934Y-13458865D01*
X5807365Y-13458865D01*
X5807365Y-13515434D01*
X5863934Y-13515434D01*
X5863934Y-13769434D02*
X5863934Y-13712865D01*
X5807365Y-13712865D01*
X5807365Y-13769434D01*
X5863934Y-13769434D01*
X5863934Y-14023434D02*
X5863934Y-13966865D01*
X5807365Y-13966865D01*
X5807365Y-14023434D01*
X5863934Y-14023434D01*
X5863934Y-14277434D02*
X5863934Y-14220865D01*
X5807365Y-14220865D01*
X5807365Y-14277434D01*
X5863934Y-14277434D01*
X5927434Y-4947185D02*
X5927434Y-4890616D01*
X5870865Y-4890616D01*
X5870865Y-4947185D01*
X5927434Y-4947185D01*
X5927434Y-5197185D02*
X5927434Y-5140616D01*
X5870865Y-5140616D01*
X5870865Y-5197185D01*
X5927434Y-5197185D01*
X6816434Y-5340885D02*
X6816434Y-5284316D01*
X6759865Y-5284316D01*
X6759865Y-5340885D01*
X6816434Y-5340885D01*
X6816434Y-5590885D02*
X6816434Y-5534316D01*
X6759865Y-5534316D01*
X6759865Y-5590885D01*
X6816434Y-5590885D01*
X6854534Y-4470935D02*
X6854534Y-4414366D01*
X6797965Y-4414366D01*
X6797965Y-4470935D01*
X6854534Y-4470935D01*
X6910684Y-14004634D02*
X6910684Y-13948065D01*
X6854115Y-13948065D01*
X6854115Y-14004634D01*
X6910684Y-14004634D01*
X7108534Y-4470935D02*
X7108534Y-4414366D01*
X7051965Y-4414366D01*
X7051965Y-4470935D01*
X7108534Y-4470935D01*
X7164684Y-14004634D02*
X7164684Y-13948065D01*
X7108115Y-13948065D01*
X7108115Y-14004634D01*
X7164684Y-14004634D01*
X7362534Y-4470935D02*
X7362534Y-4414366D01*
X7305965Y-4414366D01*
X7305965Y-4470935D01*
X7362534Y-4470935D01*
X7418684Y-14004634D02*
X7418684Y-13948065D01*
X7362115Y-13948065D01*
X7362115Y-14004634D01*
X7418684Y-14004634D01*
X7435484Y-7176784D02*
X7435484Y-7120215D01*
X7378915Y-7120215D01*
X7378915Y-7176784D01*
X7435484Y-7176784D01*
X7435484Y-7938784D02*
X7435484Y-7882215D01*
X7378915Y-7882215D01*
X7378915Y-7938784D01*
X7435484Y-7938784D01*
X9508835Y-7953084D02*
X9508835Y-7896515D01*
X9452266Y-7896515D01*
X9452266Y-7953084D01*
X9508835Y-7953084D01*
X10176085Y-11522784D02*
X10176085Y-11466215D01*
X10119516Y-11466215D01*
X10119516Y-11522784D01*
X10176085Y-11522784D01*
X10176085Y-12284784D02*
X10176085Y-12228215D01*
X10119516Y-12228215D01*
X10119516Y-12284784D01*
X10176085Y-12284784D01*
X10270835Y-7953084D02*
X10270835Y-7896515D01*
X10214266Y-7896515D01*
X10214266Y-7953084D01*
X10270835Y-7953084D01*
X10430085Y-11522784D02*
X10430085Y-11466215D01*
X10373516Y-11466215D01*
X10373516Y-11522784D01*
X10430085Y-11522784D01*
X10430085Y-12284784D02*
X10430085Y-12228215D01*
X10373516Y-12228215D01*
X10373516Y-12284784D01*
X10430085Y-12284784D01*
X10684085Y-11522784D02*
X10684085Y-11466215D01*
X10627516Y-11466215D01*
X10627516Y-11522784D01*
X10684085Y-11522784D01*
X10684085Y-12284784D02*
X10684085Y-12228215D01*
X10627516Y-12228215D01*
X10627516Y-12284784D01*
X10684085Y-12284784D01*
X10715335Y-13071019D02*
X10715335Y-13014450D01*
X10658766Y-13014450D01*
X10658766Y-13071019D01*
X10715335Y-13071019D01*
X10715335Y-13421019D02*
X10715335Y-13364450D01*
X10658766Y-13364450D01*
X10658766Y-13421019D01*
X10715335Y-13421019D01*
X10938085Y-11522784D02*
X10938085Y-11466215D01*
X10881516Y-11466215D01*
X10881516Y-11522784D01*
X10938085Y-11522784D01*
X10938085Y-12284784D02*
X10938085Y-12228215D01*
X10881516Y-12228215D01*
X10881516Y-12284784D01*
X10938085Y-12284784D01*
X11178885Y-6803734D02*
X11178885Y-6747165D01*
X11122316Y-6747165D01*
X11122316Y-6803734D01*
X11178885Y-6803734D01*
X11192084Y-11522784D02*
X11192084Y-11466215D01*
X11135516Y-11466215D01*
X11135516Y-11522784D01*
X11192084Y-11522784D01*
X11192084Y-12284784D02*
X11192084Y-12228215D01*
X11135516Y-12228215D01*
X11135516Y-12284784D01*
X11192084Y-12284784D01*
X11349450Y-10830635D02*
X11349450Y-10774066D01*
X11292881Y-10774066D01*
X11292881Y-10830635D01*
X11349450Y-10830635D01*
X11428884Y-6803734D02*
X11428884Y-6747165D01*
X11372315Y-6747165D01*
X11372315Y-6803734D01*
X11428884Y-6803734D01*
X11446084Y-11522784D02*
X11446084Y-11466215D01*
X11389515Y-11466215D01*
X11389515Y-11522784D01*
X11446084Y-11522784D01*
X11446084Y-12284784D02*
X11446084Y-12228215D01*
X11389515Y-12228215D01*
X11389515Y-12284784D01*
X11446084Y-12284784D01*
X11591634Y-13217234D02*
X11591634Y-13160665D01*
X11535065Y-13160665D01*
X11535065Y-13217234D01*
X11591634Y-13217234D01*
X11591634Y-13467234D02*
X11591634Y-13410665D01*
X11535065Y-13410665D01*
X11535065Y-13467234D01*
X11591634Y-13467234D01*
X11599450Y-10830635D02*
X11599450Y-10774066D01*
X11542881Y-10774066D01*
X11542881Y-10830635D01*
X11599450Y-10830635D01*
X11700084Y-11522784D02*
X11700084Y-11466215D01*
X11643515Y-11466215D01*
X11643515Y-11522784D01*
X11700084Y-11522784D01*
X11700084Y-12284784D02*
X11700084Y-12228215D01*
X11643515Y-12228215D01*
X11643515Y-12284784D01*
X11700084Y-12284784D01*
X12348284Y-6880934D02*
X12348284Y-6824365D01*
X12291715Y-6824365D01*
X12291715Y-6880934D01*
X12348284Y-6880934D01*
X12348284Y-7134934D02*
X12348284Y-7078365D01*
X12291715Y-7078365D01*
X12291715Y-7134934D01*
X12348284Y-7134934D01*
X12348284Y-7388934D02*
X12348284Y-7332365D01*
X12291715Y-7332365D01*
X12291715Y-7388934D01*
X12348284Y-7388934D01*
X12348284Y-7642934D02*
X12348284Y-7586365D01*
X12291715Y-7586365D01*
X12291715Y-7642934D01*
X12348284Y-7642934D01*
X12410784Y-10899485D02*
X12410784Y-10842916D01*
X12354215Y-10842916D01*
X12354215Y-10899485D01*
X12410784Y-10899485D01*
X12410784Y-11153485D02*
X12410784Y-11096916D01*
X12354215Y-11096916D01*
X12354215Y-11153485D01*
X12410784Y-11153485D01*
X12410784Y-11407484D02*
X12410784Y-11350915D01*
X12354215Y-11350915D01*
X12354215Y-11407484D01*
X12410784Y-11407484D01*
X12575884Y-5976850D02*
X12575884Y-5920281D01*
X12519315Y-5920281D01*
X12519315Y-5976850D01*
X12575884Y-5976850D01*
X12575884Y-6226850D02*
X12575884Y-6170281D01*
X12519315Y-6170281D01*
X12519315Y-6226850D01*
X12575884Y-6226850D01*
X13020384Y-18074985D02*
X13020384Y-18018416D01*
X12963815Y-18018416D01*
X12963815Y-18074985D01*
X13020384Y-18074985D01*
X13110284Y-6880934D02*
X13110284Y-6824365D01*
X13053715Y-6824365D01*
X13053715Y-6880934D01*
X13110284Y-6880934D01*
X13110284Y-7134934D02*
X13110284Y-7078365D01*
X13053715Y-7078365D01*
X13053715Y-7134934D01*
X13110284Y-7134934D01*
X13110284Y-7388934D02*
X13110284Y-7332365D01*
X13053715Y-7332365D01*
X13053715Y-7388934D01*
X13110284Y-7388934D01*
X13110284Y-7642934D02*
X13110284Y-7586365D01*
X13053715Y-7586365D01*
X13053715Y-7642934D01*
X13110284Y-7642934D01*
X13343269Y-12627650D02*
X13343269Y-12571081D01*
X13286700Y-12571081D01*
X13286700Y-12627650D01*
X13343269Y-12627650D01*
X13593269Y-12627650D02*
X13593269Y-12571081D01*
X13536700Y-12571081D01*
X13536700Y-12627650D01*
X13593269Y-12627650D01*
X13782384Y-18074985D02*
X13782384Y-18018416D01*
X13725815Y-18018416D01*
X13725815Y-18074985D01*
X13782384Y-18074985D01*
X14136600Y-13015000D02*
X14136600Y-12958431D01*
X14080031Y-12958431D01*
X14080031Y-13015000D01*
X14136600Y-13015000D01*
X14283034Y-10614700D02*
X14283034Y-10558131D01*
X14226465Y-10558131D01*
X14226465Y-10614700D01*
X14283034Y-10614700D01*
X14386600Y-13015000D02*
X14386600Y-12958431D01*
X14330031Y-12958431D01*
X14330031Y-13015000D01*
X14386600Y-13015000D01*
X14537034Y-10614700D02*
X14537034Y-10558131D01*
X14480465Y-10558131D01*
X14480465Y-10614700D01*
X14537034Y-10614700D01*
X14791034Y-10614700D02*
X14791034Y-10558131D01*
X14734465Y-10558131D01*
X14734465Y-10614700D01*
X14791034Y-10614700D01*
X14912684Y-17173285D02*
X14912684Y-17116716D01*
X14856115Y-17116716D01*
X14856115Y-17173285D01*
X14912684Y-17173285D01*
X14912684Y-17935285D02*
X14912684Y-17878716D01*
X14856115Y-17878716D01*
X14856115Y-17935285D01*
X14912684Y-17935285D01*
X15204784Y-7498534D02*
X15204784Y-7441965D01*
X15148215Y-7441965D01*
X15148215Y-7498534D01*
X15204784Y-7498534D01*
X15204784Y-7986534D02*
X15204784Y-7929965D01*
X15148215Y-7929965D01*
X15148215Y-7986534D01*
X15204784Y-7986534D01*
X15903284Y-12938800D02*
X15903284Y-12882231D01*
X15846715Y-12882231D01*
X15846715Y-12938800D01*
X15903284Y-12938800D01*
X15915984Y-7500534D02*
X15915984Y-7443965D01*
X15859415Y-7443965D01*
X15859415Y-7500534D01*
X15915984Y-7500534D01*
X15915984Y-7988534D02*
X15915984Y-7931965D01*
X15859415Y-7931965D01*
X15859415Y-7988534D01*
X15915984Y-7988534D01*
X16153284Y-12938800D02*
X16153284Y-12882231D01*
X16096715Y-12882231D01*
X16096715Y-12938800D01*
X16153284Y-12938800D01*
X16176334Y-11018750D02*
X16176334Y-10962181D01*
X16119765Y-10962181D01*
X16119765Y-11018750D01*
X16176334Y-11018750D01*
X16176334Y-11268750D02*
X16176334Y-11212181D01*
X16119765Y-11212181D01*
X16119765Y-11268750D01*
X16176334Y-11268750D01*
X16652584Y-7504884D02*
X16652584Y-7448315D01*
X16596015Y-7448315D01*
X16596015Y-7504884D01*
X16652584Y-7504884D01*
X16652584Y-7992884D02*
X16652584Y-7936315D01*
X16596015Y-7936315D01*
X16596015Y-7992884D01*
X16652584Y-7992884D01*
X16665284Y-11782134D02*
X16665284Y-11725565D01*
X16608715Y-11725565D01*
X16608715Y-11782134D01*
X16665284Y-11782134D01*
X16665284Y-12032134D02*
X16665284Y-11975565D01*
X16608715Y-11975565D01*
X16608715Y-12032134D01*
X16665284Y-12032134D01*
X17262185Y-11725950D02*
X17262185Y-11669381D01*
X17205616Y-11669381D01*
X17205616Y-11725950D01*
X17262185Y-11725950D01*
X17262185Y-12487950D02*
X17262185Y-12431381D01*
X17205616Y-12431381D01*
X17205616Y-12487950D01*
X17262185Y-12487950D01*
X17351085Y-7506884D02*
X17351085Y-7450315D01*
X17294516Y-7450315D01*
X17294516Y-7506884D01*
X17351085Y-7506884D01*
X17351085Y-7994884D02*
X17351085Y-7938315D01*
X17294516Y-7938315D01*
X17294516Y-7994884D01*
X17351085Y-7994884D01*
X17998785Y-17370135D02*
X17998785Y-17313566D01*
X17942216Y-17313566D01*
X17942216Y-17370135D01*
X17998785Y-17370135D01*
X18563935Y-10174200D02*
X18563935Y-10117631D01*
X18507366Y-10117631D01*
X18507366Y-10174200D01*
X18563935Y-10174200D01*
X18563935Y-10424200D02*
X18563935Y-10367631D01*
X18507366Y-10367631D01*
X18507366Y-10424200D01*
X18563935Y-10424200D01*
X18760785Y-17370135D02*
X18760785Y-17313566D01*
X18704216Y-17313566D01*
X18704216Y-17370135D01*
X18760785Y-17370135D01*
X18851835Y-12289169D02*
X18851835Y-12232600D01*
X18795266Y-12232600D01*
X18795266Y-12289169D01*
X18851835Y-12289169D01*
X18851835Y-12539169D02*
X18851835Y-12482600D01*
X18795266Y-12482600D01*
X18795266Y-12539169D01*
X18851835Y-12539169D01*
X20431835Y-7592134D02*
X20431835Y-7535565D01*
X20375266Y-7535565D01*
X20375266Y-7592134D01*
X20431835Y-7592134D01*
X20431835Y-7846134D02*
X20431835Y-7789565D01*
X20375266Y-7789565D01*
X20375266Y-7846134D01*
X20431835Y-7846134D01*
X20431835Y-8100134D02*
X20431835Y-8043565D01*
X20375266Y-8043565D01*
X20375266Y-8100134D01*
X20431835Y-8100134D01*
X20431835Y-8354134D02*
X20431835Y-8297565D01*
X20375266Y-8297565D01*
X20375266Y-8354134D01*
X20431835Y-8354134D01*
X20469935Y-6694434D02*
X20469935Y-6637865D01*
X20413366Y-6637865D01*
X20413366Y-6694434D01*
X20469935Y-6694434D01*
X20469935Y-6944434D02*
X20469935Y-6887865D01*
X20413366Y-6887865D01*
X20413366Y-6944434D01*
X20469935Y-6944434D01*
X21106085Y-11375569D02*
X21106085Y-11319000D01*
X21049516Y-11319000D01*
X21049516Y-11375569D01*
X21106085Y-11375569D01*
X21106085Y-11725569D02*
X21106085Y-11669000D01*
X21049516Y-11669000D01*
X21049516Y-11725569D01*
X21106085Y-11725569D01*
X21193835Y-7592134D02*
X21193835Y-7535565D01*
X21137266Y-7535565D01*
X21137266Y-7592134D01*
X21193835Y-7592134D01*
X21193835Y-7846134D02*
X21193835Y-7789565D01*
X21137266Y-7789565D01*
X21137266Y-7846134D01*
X21193835Y-7846134D01*
X21193835Y-8100134D02*
X21193835Y-8043565D01*
X21137266Y-8043565D01*
X21137266Y-8100134D01*
X21193835Y-8100134D01*
X21193835Y-8354134D02*
X21193835Y-8297565D01*
X21137266Y-8297565D01*
X21137266Y-8354134D01*
X21193835Y-8354134D01*
X22177085Y-10766135D02*
X22177085Y-10709566D01*
X22120516Y-10709566D01*
X22120516Y-10766135D01*
X22177085Y-10766135D01*
X22431084Y-10766135D02*
X22431084Y-10709566D01*
X22374515Y-10709566D01*
X22374515Y-10766135D01*
X22431084Y-10766135D01*
X22640634Y-8188034D02*
X22640634Y-8131465D01*
X22584065Y-8131465D01*
X22584065Y-8188034D01*
X22640634Y-8188034D01*
X22685084Y-10766135D02*
X22685084Y-10709566D01*
X22628515Y-10709566D01*
X22628515Y-10766135D01*
X22685084Y-10766135D01*
X23377234Y-10759785D02*
X23377234Y-10703216D01*
X23320665Y-10703216D01*
X23320665Y-10759785D01*
X23377234Y-10759785D01*
X23377234Y-11013785D02*
X23377234Y-10957216D01*
X23320665Y-10957216D01*
X23320665Y-11013785D01*
X23377234Y-11013785D01*
X23377234Y-11267784D02*
X23377234Y-11211215D01*
X23320665Y-11211215D01*
X23320665Y-11267784D01*
X23377234Y-11267784D01*
X23377234Y-11521784D02*
X23377234Y-11465215D01*
X23320665Y-11465215D01*
X23320665Y-11521784D01*
X23377234Y-11521784D01*
X23402634Y-8188034D02*
X23402634Y-8131465D01*
X23346065Y-8131465D01*
X23346065Y-8188034D01*
X23402634Y-8188034D01*
X24139234Y-10759785D02*
X24139234Y-10703216D01*
X24082665Y-10703216D01*
X24082665Y-10759785D01*
X24139234Y-10759785D01*
X24139234Y-11013785D02*
X24139234Y-10957216D01*
X24082665Y-10957216D01*
X24082665Y-11013785D01*
X24139234Y-11013785D01*
X24139234Y-11267784D02*
X24139234Y-11211215D01*
X24082665Y-11211215D01*
X24082665Y-11267784D01*
X24139234Y-11267784D01*
X24139234Y-11521784D02*
X24139234Y-11465215D01*
X24082665Y-11465215D01*
X24082665Y-11521784D01*
X24139234Y-11521784D01*
X25053634Y-11229684D02*
X25053634Y-11173116D01*
X24997065Y-11173116D01*
X24997065Y-11229684D01*
X25053634Y-11229684D01*
X25053634Y-11479684D02*
X25053634Y-11423115D01*
X24997065Y-11423115D01*
X24997065Y-11479684D01*
X25053634Y-11479684D01*
X25714034Y-13669084D02*
X25714034Y-13612515D01*
X25657465Y-13612515D01*
X25657465Y-13669084D01*
X25714034Y-13669084D01*
X25714034Y-14431084D02*
X25714034Y-14374515D01*
X25657465Y-14374515D01*
X25657465Y-14431084D01*
X25714034Y-14431084D01*
X26042850Y-12125034D02*
X26042850Y-12068465D01*
X25986281Y-12068465D01*
X25986281Y-12125034D01*
X26042850Y-12125034D01*
X26292850Y-12125034D02*
X26292850Y-12068465D01*
X26236281Y-12068465D01*
X26236281Y-12125034D01*
X26292850Y-12125034D01*
X26755434Y-13769684D02*
X26755434Y-13713115D01*
X26698865Y-13713115D01*
X26698865Y-13769684D01*
X26755434Y-13769684D01*
X26755434Y-14023684D02*
X26755434Y-13967115D01*
X26698865Y-13967115D01*
X26698865Y-14023684D01*
X26755434Y-14023684D01*
X26755434Y-14277684D02*
X26755434Y-14221115D01*
X26698865Y-14221115D01*
X26698865Y-14277684D01*
X26755434Y-14277684D01*
X28419134Y-17433050D02*
X28419134Y-17376481D01*
X28362565Y-17376481D01*
X28362565Y-17433050D01*
X28419134Y-17433050D01*
X28419134Y-17783050D02*
X28419134Y-17726481D01*
X28362565Y-17726481D01*
X28362565Y-17783050D01*
X28419134Y-17783050D01*
X28730284Y-11470984D02*
X28730284Y-11414415D01*
X28673715Y-11414415D01*
X28673715Y-11470984D01*
X28730284Y-11470984D01*
X28980284Y-11470984D02*
X28980284Y-11414415D01*
X28923715Y-11414415D01*
X28923715Y-11470984D01*
X28980284Y-11470984D01*
X29052750Y-9712035D02*
X29052750Y-9655466D01*
X28996181Y-9655466D01*
X28996181Y-9712035D01*
X29052750Y-9712035D01*
X29302750Y-9712035D02*
X29302750Y-9655466D01*
X29246181Y-9655466D01*
X29246181Y-9712035D01*
X29302750Y-9712035D01*
D16*
X5086350Y-10293400D02*
X5131350Y-10248400D01*
X5086350Y-10203400D01*
X5041350Y-10248400D01*
X5086350Y-10293400D01*
X5086350Y-10547400D02*
X5131350Y-10502400D01*
X5086350Y-10457400D01*
X5041350Y-10502400D01*
X5086350Y-10547400D01*
X5739435Y-10287050D02*
X5784435Y-10242050D01*
X5739435Y-10197050D01*
X5694435Y-10242050D01*
X5739435Y-10287050D01*
X5739435Y-10541050D02*
X5784435Y-10496050D01*
X5739435Y-10451050D01*
X5694435Y-10496050D01*
X5739435Y-10541050D01*
X6235700Y-10287550D02*
X6280700Y-10242550D01*
X6235700Y-10197550D01*
X6190700Y-10242550D01*
X6235700Y-10287550D01*
X6235700Y-10541550D02*
X6280700Y-10496550D01*
X6235700Y-10451550D01*
X6190700Y-10496550D01*
X6235700Y-10541550D01*
D17*
X2534450Y-5999700D02*
X2634450Y-6099700D01*
X2634450Y-5999700D02*
X2534450Y-6099700D01*
X2634450Y-6049700D02*
G75*
G03*
X2634450Y-6049700I-50000J0D01*
G01*
X2534450Y-6253700D02*
X2634450Y-6353700D01*
X2634450Y-6253700D02*
X2534450Y-6353700D01*
X2634450Y-6303700D02*
G75*
G03*
X2634450Y-6303700I-50000J0D01*
G01*
X2641050Y-10845100D02*
X2741050Y-10945100D01*
X2741050Y-10845100D02*
X2641050Y-10945100D01*
X2741050Y-10895100D02*
G75*
G03*
X2741050Y-10895100I-50000J0D01*
G01*
D11*
X2641050Y-10785100D02*
X2641050Y-11005100D01*
X2741050Y-10785100D02*
X2741050Y-11005100D01*
X2641050Y-11005100D02*
G75*
G03*
X2741050Y-11005100I50000J0D01*
G01*
X2741050Y-10785100D02*
G75*
G03*
X2641050Y-10785100I-50000J0D01*
G01*
D17*
X2981050Y-11325100D02*
X3081050Y-11425100D01*
X3081050Y-11325100D02*
X2981050Y-11425100D01*
X3081050Y-11375100D02*
G75*
G03*
X3081050Y-11375100I-50000J0D01*
G01*
D11*
X3141050Y-11325100D02*
X2921050Y-11325100D01*
X3141050Y-11425100D02*
X2921050Y-11425100D01*
X2921050Y-11325100D02*
G75*
G03*
X2921050Y-11425100I0J-50000D01*
G01*
X3141050Y-11425100D02*
G75*
G03*
X3141050Y-11325100I0J50000D01*
G01*
D17*
X3271050Y-10845100D02*
X3371050Y-10945100D01*
X3371050Y-10845100D02*
X3271050Y-10945100D01*
X3371050Y-10895100D02*
G75*
G03*
X3371050Y-10895100I-50000J0D01*
G01*
D11*
X3271050Y-10765100D02*
X3271050Y-11025100D01*
X3371050Y-10765100D02*
X3371050Y-11025100D01*
X3271050Y-11025100D02*
G75*
G03*
X3371050Y-11025100I50000J0D01*
G01*
X3371050Y-10765100D02*
G75*
G03*
X3271050Y-10765100I-50000J0D01*
G01*
D17*
X4707650Y-8979700D02*
X4807650Y-9079700D01*
X4807650Y-8979700D02*
X4707650Y-9079700D01*
X4807650Y-9029700D02*
G75*
G03*
X4807650Y-9029700I-50000J0D01*
G01*
X4961650Y-8979700D02*
X5061650Y-9079700D01*
X5061650Y-8979700D02*
X4961650Y-9079700D01*
X5061650Y-9029700D02*
G75*
G03*
X5061650Y-9029700I-50000J0D01*
G01*
X5215650Y-8979700D02*
X5315650Y-9079700D01*
X5315650Y-8979700D02*
X5215650Y-9079700D01*
X5315650Y-9029700D02*
G75*
G03*
X5315650Y-9029700I-50000J0D01*
G01*
X6280950Y-14510550D02*
X6380950Y-14610550D01*
X6380950Y-14510550D02*
X6280950Y-14610550D01*
X6380950Y-14560550D02*
G75*
G03*
X6380950Y-14560550I-50000J0D01*
G01*
X6280950Y-14764550D02*
X6380950Y-14864550D01*
X6380950Y-14764550D02*
X6280950Y-14864550D01*
X6380950Y-14814550D02*
G75*
G03*
X6380950Y-14814550I-50000J0D01*
G01*
X7033850Y-8878100D02*
X7133850Y-8978100D01*
X7133850Y-8878100D02*
X7033850Y-8978100D01*
X7133850Y-8928100D02*
G75*
G03*
X7133850Y-8928100I-50000J0D01*
G01*
X7287850Y-8878100D02*
X7387850Y-8978100D01*
X7387850Y-8878100D02*
X7287850Y-8978100D01*
X7387850Y-8928100D02*
G75*
G03*
X7387850Y-8928100I-50000J0D01*
G01*
X7673350Y-12992900D02*
X7773350Y-13092900D01*
X7773350Y-12992900D02*
X7673350Y-13092900D01*
X7773350Y-13042900D02*
G75*
G03*
X7773350Y-13042900I-50000J0D01*
G01*
X7677950Y-9690900D02*
X7777950Y-9790900D01*
X7777950Y-9690900D02*
X7677950Y-9790900D01*
X7777950Y-9740900D02*
G75*
G03*
X7777950Y-9740900I-50000J0D01*
G01*
X7927350Y-12992900D02*
X8027350Y-13092900D01*
X8027350Y-12992900D02*
X7927350Y-13092900D01*
X8027350Y-13042900D02*
G75*
G03*
X8027350Y-13042900I-50000J0D01*
G01*
X7931950Y-9690900D02*
X8031950Y-9790900D01*
X8031950Y-9690900D02*
X7931950Y-9790900D01*
X8031950Y-9740900D02*
G75*
G03*
X8031950Y-9740900I-50000J0D01*
G01*
X8181350Y-12992900D02*
X8281350Y-13092900D01*
X8281350Y-12992900D02*
X8181350Y-13092900D01*
X8281350Y-13042900D02*
G75*
G03*
X8281350Y-13042900I-50000J0D01*
G01*
X8185950Y-6274600D02*
X8285950Y-6374600D01*
X8285950Y-6274600D02*
X8185950Y-6374600D01*
X8285950Y-6324600D02*
G75*
G03*
X8285950Y-6324600I-50000J0D01*
G01*
X8185950Y-6528600D02*
X8285950Y-6628600D01*
X8285950Y-6528600D02*
X8185950Y-6628600D01*
X8285950Y-6578600D02*
G75*
G03*
X8285950Y-6578600I-50000J0D01*
G01*
X8185950Y-9690900D02*
X8285950Y-9790900D01*
X8285950Y-9690900D02*
X8185950Y-9790900D01*
X8285950Y-9740900D02*
G75*
G03*
X8285950Y-9740900I-50000J0D01*
G01*
X8435350Y-12992900D02*
X8535350Y-13092900D01*
X8535350Y-12992900D02*
X8435350Y-13092900D01*
X8535350Y-13042900D02*
G75*
G03*
X8535350Y-13042900I-50000J0D01*
G01*
X8439950Y-9690900D02*
X8539950Y-9790900D01*
X8539950Y-9690900D02*
X8439950Y-9790900D01*
X8539950Y-9740900D02*
G75*
G03*
X8539950Y-9740900I-50000J0D01*
G01*
X9710450Y-13342150D02*
X9810450Y-13442150D01*
X9810450Y-13342150D02*
X9710450Y-13442150D01*
X9810450Y-13392150D02*
G75*
G03*
X9810450Y-13392150I-50000J0D01*
G01*
X9964450Y-13342150D02*
X10064450Y-13442150D01*
X10064450Y-13342150D02*
X9964450Y-13442150D01*
X10064450Y-13392150D02*
G75*
G03*
X10064450Y-13392150I-50000J0D01*
G01*
X10541800Y-15875800D02*
X10641800Y-15975800D01*
X10641800Y-15875800D02*
X10541800Y-15975800D01*
X10641800Y-15925800D02*
G75*
G03*
X10641800Y-15925800I-50000J0D01*
G01*
X10783100Y-5639600D02*
X10883100Y-5739600D01*
X10883100Y-5639600D02*
X10783100Y-5739600D01*
X10883100Y-5689600D02*
G75*
G03*
X10883100Y-5689600I-50000J0D01*
G01*
X10783100Y-5893600D02*
X10883100Y-5993600D01*
X10883100Y-5893600D02*
X10783100Y-5993600D01*
X10883100Y-5943600D02*
G75*
G03*
X10883100Y-5943600I-50000J0D01*
G01*
X11367300Y-5671350D02*
X11467300Y-5771350D01*
X11467300Y-5671350D02*
X11367300Y-5771350D01*
X11467300Y-5721350D02*
G75*
G03*
X11467300Y-5721350I-50000J0D01*
G01*
X11367300Y-5925350D02*
X11467300Y-6025350D01*
X11467300Y-5925350D02*
X11367300Y-6025350D01*
X11467300Y-5975350D02*
G75*
G03*
X11467300Y-5975350I-50000J0D01*
G01*
X11722900Y-8547900D02*
X11822900Y-8647900D01*
X11822900Y-8547900D02*
X11722900Y-8647900D01*
X11822900Y-8597900D02*
G75*
G03*
X11822900Y-8597900I-50000J0D01*
G01*
X11722900Y-8801900D02*
X11822900Y-8901900D01*
X11822900Y-8801900D02*
X11722900Y-8901900D01*
X11822900Y-8851900D02*
G75*
G03*
X11822900Y-8851900I-50000J0D01*
G01*
X13596150Y-6909600D02*
X13696150Y-7009600D01*
X13696150Y-6909600D02*
X13596150Y-7009600D01*
X13696150Y-6959600D02*
G75*
G03*
X13696150Y-6959600I-50000J0D01*
G01*
X13850150Y-6909600D02*
X13950150Y-7009600D01*
X13950150Y-6909600D02*
X13850150Y-7009600D01*
X13950150Y-6959600D02*
G75*
G03*
X13950150Y-6959600I-50000J0D01*
G01*
X15170950Y-17520950D02*
X15270950Y-17620950D01*
X15270950Y-17520950D02*
X15170950Y-17620950D01*
X15270950Y-17570950D02*
G75*
G03*
X15270950Y-17570950I-50000J0D01*
G01*
X15170950Y-17774950D02*
X15270950Y-17874950D01*
X15270950Y-17774950D02*
X15170950Y-17874950D01*
X15270950Y-17824950D02*
G75*
G03*
X15270950Y-17824950I-50000J0D01*
G01*
X15209050Y-14535950D02*
X15309050Y-14635950D01*
X15309050Y-14535950D02*
X15209050Y-14635950D01*
X15309050Y-14585950D02*
G75*
G03*
X15309050Y-14585950I-50000J0D01*
G01*
X15240800Y-18612650D02*
X15340800Y-18712650D01*
X15340800Y-18612650D02*
X15240800Y-18712650D01*
X15340800Y-18662650D02*
G75*
G03*
X15340800Y-18662650I-50000J0D01*
G01*
X17164850Y-12746215D02*
X17264850Y-12846215D01*
X17264850Y-12746215D02*
X17164850Y-12846215D01*
X17264850Y-12796215D02*
G75*
G03*
X17264850Y-12796215I-50000J0D01*
G01*
X17164850Y-13000215D02*
X17264850Y-13100215D01*
X17264850Y-13000215D02*
X17164850Y-13100215D01*
X17264850Y-13050215D02*
G75*
G03*
X17264850Y-13050215I-50000J0D01*
G01*
X18949200Y-7443000D02*
X19049200Y-7543000D01*
X19049200Y-7443000D02*
X18949200Y-7543000D01*
X19049200Y-7493000D02*
G75*
G03*
X19049200Y-7493000I-50000J0D01*
G01*
X19050800Y-17336300D02*
X19150800Y-17436300D01*
X19150800Y-17336300D02*
X19050800Y-17436300D01*
X19150800Y-17386300D02*
G75*
G03*
X19150800Y-17386300I-50000J0D01*
G01*
X19050800Y-17590300D02*
X19150800Y-17690300D01*
X19150800Y-17590300D02*
X19050800Y-17690300D01*
X19150800Y-17640300D02*
G75*
G03*
X19150800Y-17640300I-50000J0D01*
G01*
X19203200Y-7443000D02*
X19303200Y-7543000D01*
X19303200Y-7443000D02*
X19203200Y-7543000D01*
X19303200Y-7493000D02*
G75*
G03*
X19303200Y-7493000I-50000J0D01*
G01*
X19275050Y-10141750D02*
X19375050Y-10241750D01*
X19375050Y-10141750D02*
X19275050Y-10241750D01*
X19375050Y-10191750D02*
G75*
G03*
X19375050Y-10191750I-50000J0D01*
G01*
X19529050Y-10141750D02*
X19629050Y-10241750D01*
X19629050Y-10141750D02*
X19529050Y-10241750D01*
X19629050Y-10191750D02*
G75*
G03*
X19629050Y-10191750I-50000J0D01*
G01*
X19857250Y-15894850D02*
X19957250Y-15994850D01*
X19957250Y-15894850D02*
X19857250Y-15994850D01*
X19957250Y-15944850D02*
G75*
G03*
X19957250Y-15944850I-50000J0D01*
G01*
X21533650Y-15761500D02*
X21633650Y-15861500D01*
X21633650Y-15761500D02*
X21533650Y-15861500D01*
X21633650Y-15811500D02*
G75*
G03*
X21633650Y-15811500I-50000J0D01*
G01*
X21561550Y-8010150D02*
X21661550Y-8110150D01*
X21661550Y-8010150D02*
X21561550Y-8110150D01*
X21661550Y-8060150D02*
G75*
G03*
X21661550Y-8060150I-50000J0D01*
G01*
X21561550Y-8264150D02*
X21661550Y-8364150D01*
X21661550Y-8264150D02*
X21561550Y-8364150D01*
X21661550Y-8314150D02*
G75*
G03*
X21661550Y-8314150I-50000J0D01*
G01*
X21772450Y-5326450D02*
X21872450Y-5426450D01*
X21872450Y-5326450D02*
X21772450Y-5426450D01*
X21872450Y-5376450D02*
G75*
G03*
X21872450Y-5376450I-50000J0D01*
G01*
X21772450Y-5580450D02*
X21872450Y-5680450D01*
X21872450Y-5580450D02*
X21772450Y-5680450D01*
X21872450Y-5630450D02*
G75*
G03*
X21872450Y-5630450I-50000J0D01*
G01*
X22229650Y-14991150D02*
X22329650Y-15091150D01*
X22329650Y-14991150D02*
X22229650Y-15091150D01*
X22329650Y-15041150D02*
G75*
G03*
X22329650Y-15041150I-50000J0D01*
G01*
X22229650Y-15245150D02*
X22329650Y-15345150D01*
X22329650Y-15245150D02*
X22229650Y-15345150D01*
X22329650Y-15295150D02*
G75*
G03*
X22329650Y-15295150I-50000J0D01*
G01*
X23434050Y-17431550D02*
X23534050Y-17531550D01*
X23534050Y-17431550D02*
X23434050Y-17531550D01*
X23534050Y-17481550D02*
G75*
G03*
X23534050Y-17481550I-50000J0D01*
G01*
X23438650Y-14129550D02*
X23538650Y-14229550D01*
X23538650Y-14129550D02*
X23438650Y-14229550D01*
X23538650Y-14179550D02*
G75*
G03*
X23538650Y-14179550I-50000J0D01*
G01*
X23688050Y-17431550D02*
X23788050Y-17531550D01*
X23788050Y-17431550D02*
X23688050Y-17531550D01*
X23788050Y-17481550D02*
G75*
G03*
X23788050Y-17481550I-50000J0D01*
G01*
X23692650Y-14129550D02*
X23792650Y-14229550D01*
X23792650Y-14129550D02*
X23692650Y-14229550D01*
X23792650Y-14179550D02*
G75*
G03*
X23792650Y-14179550I-50000J0D01*
G01*
X23942050Y-17431550D02*
X24042050Y-17531550D01*
X24042050Y-17431550D02*
X23942050Y-17531550D01*
X24042050Y-17481550D02*
G75*
G03*
X24042050Y-17481550I-50000J0D01*
G01*
X23946650Y-14129550D02*
X24046650Y-14229550D01*
X24046650Y-14129550D02*
X23946650Y-14229550D01*
X24046650Y-14179550D02*
G75*
G03*
X24046650Y-14179550I-50000J0D01*
G01*
X24196050Y-17431550D02*
X24296050Y-17531550D01*
X24296050Y-17431550D02*
X24196050Y-17531550D01*
X24296050Y-17481550D02*
G75*
G03*
X24296050Y-17481550I-50000J0D01*
G01*
X24200650Y-14129550D02*
X24300650Y-14229550D01*
X24300650Y-14129550D02*
X24200650Y-14229550D01*
X24300650Y-14179550D02*
G75*
G03*
X24300650Y-14179550I-50000J0D01*
G01*
X24257800Y-9767100D02*
X24357800Y-9867100D01*
X24357800Y-9767100D02*
X24257800Y-9867100D01*
X24357800Y-9817100D02*
G75*
G03*
X24357800Y-9817100I-50000J0D01*
G01*
X24262400Y-6465100D02*
X24362400Y-6565100D01*
X24362400Y-6465100D02*
X24262400Y-6565100D01*
X24362400Y-6515100D02*
G75*
G03*
X24362400Y-6515100I-50000J0D01*
G01*
X24511800Y-9767100D02*
X24611800Y-9867100D01*
X24611800Y-9767100D02*
X24511800Y-9867100D01*
X24611800Y-9817100D02*
G75*
G03*
X24611800Y-9817100I-50000J0D01*
G01*
X24516400Y-6465100D02*
X24616400Y-6565100D01*
X24616400Y-6465100D02*
X24516400Y-6565100D01*
X24616400Y-6515100D02*
G75*
G03*
X24616400Y-6515100I-50000J0D01*
G01*
X24765800Y-9767100D02*
X24865800Y-9867100D01*
X24865800Y-9767100D02*
X24765800Y-9867100D01*
X24865800Y-9817100D02*
G75*
G03*
X24865800Y-9817100I-50000J0D01*
G01*
X24770400Y-6465100D02*
X24870400Y-6565100D01*
X24870400Y-6465100D02*
X24770400Y-6565100D01*
X24870400Y-6515100D02*
G75*
G03*
X24870400Y-6515100I-50000J0D01*
G01*
X25019800Y-9767100D02*
X25119800Y-9867100D01*
X25119800Y-9767100D02*
X25019800Y-9867100D01*
X25119800Y-9817100D02*
G75*
G03*
X25119800Y-9817100I-50000J0D01*
G01*
X25024400Y-6465100D02*
X25124400Y-6565100D01*
X25124400Y-6465100D02*
X25024400Y-6565100D01*
X25124400Y-6515100D02*
G75*
G03*
X25124400Y-6515100I-50000J0D01*
G01*
X25208300Y-12455650D02*
X25308300Y-12555650D01*
X25308300Y-12455650D02*
X25208300Y-12555650D01*
X25308300Y-12505650D02*
G75*
G03*
X25308300Y-12505650I-50000J0D01*
G01*
X25337300Y-13138950D02*
X25437300Y-13238950D01*
X25437300Y-13138950D02*
X25337300Y-13238950D01*
X25437300Y-13188950D02*
G75*
G03*
X25437300Y-13188950I-50000J0D01*
G01*
X25462300Y-12455650D02*
X25562300Y-12555650D01*
X25562300Y-12455650D02*
X25462300Y-12555650D01*
X25562300Y-12505650D02*
G75*
G03*
X25562300Y-12505650I-50000J0D01*
G01*
X25470650Y-18276100D02*
X25570650Y-18376100D01*
X25570650Y-18276100D02*
X25470650Y-18376100D01*
X25570650Y-18326100D02*
G75*
G03*
X25570650Y-18326100I-50000J0D01*
G01*
X25938050Y-8990400D02*
X26038050Y-9090400D01*
X26038050Y-8990400D02*
X25938050Y-9090400D01*
X26038050Y-9040400D02*
G75*
G03*
X26038050Y-9040400I-50000J0D01*
G01*
X25938050Y-9244400D02*
X26038050Y-9344400D01*
X26038050Y-9244400D02*
X25938050Y-9344400D01*
X26038050Y-9294400D02*
G75*
G03*
X26038050Y-9294400I-50000J0D01*
G01*
X26751350Y-12538200D02*
X26851350Y-12638200D01*
X26851350Y-12538200D02*
X26751350Y-12638200D01*
X26851350Y-12588200D02*
G75*
G03*
X26851350Y-12588200I-50000J0D01*
G01*
X27005350Y-12538200D02*
X27105350Y-12638200D01*
X27105350Y-12538200D02*
X27005350Y-12638200D01*
X27105350Y-12588200D02*
G75*
G03*
X27105350Y-12588200I-50000J0D01*
G01*
X27533900Y-16764800D02*
X27633900Y-16864800D01*
X27633900Y-16764800D02*
X27533900Y-16864800D01*
X27633900Y-16814800D02*
G75*
G03*
X27633900Y-16814800I-50000J0D01*
G01*
X27746450Y-14195050D02*
X27846450Y-14295050D01*
X27846450Y-14195050D02*
X27746450Y-14295050D01*
X27846450Y-14245050D02*
G75*
G03*
X27846450Y-14245050I-50000J0D01*
G01*
X27746450Y-14449050D02*
X27846450Y-14549050D01*
X27846450Y-14449050D02*
X27746450Y-14549050D01*
X27846450Y-14499050D02*
G75*
G03*
X27846450Y-14499050I-50000J0D01*
G01*
X27787900Y-16764800D02*
X27887900Y-16864800D01*
X27887900Y-16764800D02*
X27787900Y-16864800D01*
X27887900Y-16814800D02*
G75*
G03*
X27887900Y-16814800I-50000J0D01*
G01*
X28226550Y-12053100D02*
X28326550Y-12153100D01*
X28326550Y-12053100D02*
X28226550Y-12153100D01*
X28326550Y-12103100D02*
G75*
G03*
X28326550Y-12103100I-50000J0D01*
G01*
X28480550Y-12053100D02*
X28580550Y-12153100D01*
X28580550Y-12053100D02*
X28480550Y-12153100D01*
X28580550Y-12103100D02*
G75*
G03*
X28580550Y-12103100I-50000J0D01*
G01*
X28994900Y-16796550D02*
X29094900Y-16896550D01*
X29094900Y-16796550D02*
X28994900Y-16896550D01*
X29094900Y-16846550D02*
G75*
G03*
X29094900Y-16846550I-50000J0D01*
G01*
D18*
X2866000Y-8612000D02*
X2976000Y-8722000D01*
X2976000Y-8612000D02*
X2866000Y-8722000D01*
X2921000Y-8612000D02*
X2921000Y-8722000D01*
X2866000Y-8667000D02*
X2976000Y-8667000D01*
X3120000Y-8612000D02*
X3230000Y-8722000D01*
X3230000Y-8612000D02*
X3120000Y-8722000D01*
X3175000Y-8612000D02*
X3175000Y-8722000D01*
X3120000Y-8667000D02*
X3230000Y-8667000D01*
X3374000Y-8612000D02*
X3484000Y-8722000D01*
X3484000Y-8612000D02*
X3374000Y-8722000D01*
X3429000Y-8612000D02*
X3429000Y-8722000D01*
X3374000Y-8667000D02*
X3484000Y-8667000D01*
X5075800Y-8428600D02*
X5185800Y-8538600D01*
X5185800Y-8428600D02*
X5075800Y-8538600D01*
X5130800Y-8428600D02*
X5130800Y-8538600D01*
X5075800Y-8483600D02*
X5185800Y-8483600D01*
X6091800Y-8428600D02*
X6201800Y-8538600D01*
X6201800Y-8428600D02*
X6091800Y-8538600D01*
X6146800Y-8428600D02*
X6146800Y-8538600D01*
X6091800Y-8483600D02*
X6201800Y-8483600D01*
X28717600Y-14784950D02*
X28827600Y-14894950D01*
X28827600Y-14784950D02*
X28717600Y-14894950D01*
X28772600Y-14784950D02*
X28772600Y-14894950D01*
X28717600Y-14839950D02*
X28827600Y-14839950D01*
X28717600Y-15038950D02*
X28827600Y-15148950D01*
X28827600Y-15038950D02*
X28717600Y-15148950D01*
X28772600Y-15038950D02*
X28772600Y-15148950D01*
X28717600Y-15093950D02*
X28827600Y-15093950D01*
X28717600Y-15292950D02*
X28827600Y-15402950D01*
X28827600Y-15292950D02*
X28717600Y-15402950D01*
X28772600Y-15292950D02*
X28772600Y-15402950D01*
X28717600Y-15347950D02*
X28827600Y-15347950D01*
D19*
X28347670Y-14777720D02*
X28459430Y-14889480D01*
X28459430Y-14777720D02*
X28347670Y-14889480D01*
X28443063Y-14873113D02*
X28443063Y-14794086D01*
X28364036Y-14794086D01*
X28364036Y-14873113D01*
X28443063Y-14873113D01*
X28347670Y-15031720D02*
X28459430Y-15143480D01*
X28459430Y-15031720D02*
X28347670Y-15143480D01*
X28443063Y-15127113D02*
X28443063Y-15048086D01*
X28364036Y-15048086D01*
X28364036Y-15127113D01*
X28443063Y-15127113D01*
X28347670Y-15285720D02*
X28459430Y-15397480D01*
X28459430Y-15285720D02*
X28347670Y-15397480D01*
X28443063Y-15381113D02*
X28443063Y-15302086D01*
X28364036Y-15302086D01*
X28364036Y-15381113D01*
X28443063Y-15381113D01*
D20*
X8963350Y-9184200D02*
X9083350Y-9304200D01*
X9083350Y-9184200D02*
X8963350Y-9304200D01*
X9023350Y-9304200D02*
X9083350Y-9244200D01*
X9023350Y-9184200D01*
X8963350Y-9244200D01*
X9023350Y-9304200D01*
X9395150Y-8854000D02*
X9515150Y-8974000D01*
X9515150Y-8854000D02*
X9395150Y-8974000D01*
X9455150Y-8974000D02*
X9515150Y-8914000D01*
X9455150Y-8854000D01*
X9395150Y-8914000D01*
X9455150Y-8974000D01*
X9928550Y-8828600D02*
X10048550Y-8948600D01*
X10048550Y-8828600D02*
X9928550Y-8948600D01*
X9988550Y-8948600D02*
X10048550Y-8888600D01*
X9988550Y-8828600D01*
X9928550Y-8888600D01*
X9988550Y-8948600D01*
X12938550Y-8203000D02*
X13058550Y-8323000D01*
X13058550Y-8203000D02*
X12938550Y-8323000D01*
X12998550Y-8323000D02*
X13058550Y-8263000D01*
X12998550Y-8203000D01*
X12938550Y-8263000D01*
X12998550Y-8323000D01*
X12938550Y-9203000D02*
X13058550Y-9323000D01*
X13058550Y-9203000D02*
X12938550Y-9323000D01*
X12998550Y-9323000D02*
X13058550Y-9263000D01*
X12998550Y-9203000D01*
X12938550Y-9263000D01*
X12998550Y-9323000D01*
X14386250Y-15033950D02*
X14506250Y-15153950D01*
X14506250Y-15033950D02*
X14386250Y-15153950D01*
X14446250Y-15153950D02*
X14506250Y-15093950D01*
X14446250Y-15033950D01*
X14386250Y-15093950D01*
X14446250Y-15153950D01*
X14386250Y-16633950D02*
X14506250Y-16753950D01*
X14506250Y-16633950D02*
X14386250Y-16753950D01*
X14446250Y-16753950D02*
X14506250Y-16693950D01*
X14446250Y-16633950D01*
X14386250Y-16693950D01*
X14446250Y-16753950D01*
X14538550Y-8203000D02*
X14658550Y-8323000D01*
X14658550Y-8203000D02*
X14538550Y-8323000D01*
X14598550Y-8323000D02*
X14658550Y-8263000D01*
X14598550Y-8203000D01*
X14538550Y-8263000D01*
X14598550Y-8323000D01*
X14538550Y-9203000D02*
X14658550Y-9323000D01*
X14658550Y-9203000D02*
X14538550Y-9323000D01*
X14598550Y-9323000D02*
X14658550Y-9263000D01*
X14598550Y-9203000D01*
X14538550Y-9263000D01*
X14598550Y-9323000D01*
X15386250Y-15033950D02*
X15506250Y-15153950D01*
X15506250Y-15033950D02*
X15386250Y-15153950D01*
X15446250Y-15153950D02*
X15506250Y-15093950D01*
X15446250Y-15033950D01*
X15386250Y-15093950D01*
X15446250Y-15153950D01*
X15386250Y-16633950D02*
X15506250Y-16753950D01*
X15506250Y-16633950D02*
X15386250Y-16753950D01*
X15446250Y-16753950D02*
X15506250Y-16693950D01*
X15446250Y-16633950D01*
X15386250Y-16693950D01*
X15446250Y-16753950D01*
X16202450Y-15251500D02*
X16322450Y-15371500D01*
X16322450Y-15251500D02*
X16202450Y-15371500D01*
X16262450Y-15371500D02*
X16322450Y-15311500D01*
X16262450Y-15251500D01*
X16202450Y-15311500D01*
X16262450Y-15371500D01*
X16202450Y-16251500D02*
X16322450Y-16371500D01*
X16322450Y-16251500D02*
X16202450Y-16371500D01*
X16262450Y-16371500D02*
X16322450Y-16311500D01*
X16262450Y-16251500D01*
X16202450Y-16311500D01*
X16262450Y-16371500D01*
X17802450Y-15251500D02*
X17922450Y-15371500D01*
X17922450Y-15251500D02*
X17802450Y-15371500D01*
X17862450Y-15371500D02*
X17922450Y-15311500D01*
X17862450Y-15251500D01*
X17802450Y-15311500D01*
X17862450Y-15371500D01*
X17802450Y-16251500D02*
X17922450Y-16371500D01*
X17922450Y-16251500D02*
X17802450Y-16371500D01*
X17862450Y-16371500D02*
X17922450Y-16311500D01*
X17862450Y-16251500D01*
X17802450Y-16311500D01*
X17862450Y-16371500D01*
X17815350Y-8158550D02*
X17935350Y-8278550D01*
X17935350Y-8158550D02*
X17815350Y-8278550D01*
X17875350Y-8278550D02*
X17935350Y-8218550D01*
X17875350Y-8158550D01*
X17815350Y-8218550D01*
X17875350Y-8278550D01*
X17815350Y-9158550D02*
X17935350Y-9278550D01*
X17935350Y-9158550D02*
X17815350Y-9278550D01*
X17875350Y-9278550D02*
X17935350Y-9218550D01*
X17875350Y-9158550D01*
X17815350Y-9218550D01*
X17875350Y-9278550D01*
X19415350Y-8158550D02*
X19535350Y-8278550D01*
X19535350Y-8158550D02*
X19415350Y-8278550D01*
X19475350Y-8278550D02*
X19535350Y-8218550D01*
X19475350Y-8158550D01*
X19415350Y-8218550D01*
X19475350Y-8278550D01*
X19415350Y-9158550D02*
X19535350Y-9278550D01*
X19535350Y-9158550D02*
X19415350Y-9278550D01*
X19475350Y-9278550D02*
X19535350Y-9218550D01*
X19475350Y-9158550D01*
X19415350Y-9218550D01*
X19475350Y-9278550D01*
X25246150Y-4581850D02*
X25366150Y-4701850D01*
X25366150Y-4581850D02*
X25246150Y-4701850D01*
X25306150Y-4701850D02*
X25366150Y-4641850D01*
X25306150Y-4581850D01*
X25246150Y-4641850D01*
X25306150Y-4701850D01*
X25576350Y-5013650D02*
X25696350Y-5133650D01*
X25696350Y-5013650D02*
X25576350Y-5133650D01*
X25636350Y-5133650D02*
X25696350Y-5073650D01*
X25636350Y-5013650D01*
X25576350Y-5073650D01*
X25636350Y-5133650D01*
X25601750Y-5547050D02*
X25721750Y-5667050D01*
X25721750Y-5547050D02*
X25601750Y-5667050D01*
X25661750Y-5667050D02*
X25721750Y-5607050D01*
X25661750Y-5547050D01*
X25601750Y-5607050D01*
X25661750Y-5667050D01*
X26101300Y-15618150D02*
X26221300Y-15738150D01*
X26221300Y-15618150D02*
X26101300Y-15738150D01*
X26161300Y-15738150D02*
X26221300Y-15678150D01*
X26161300Y-15618150D01*
X26101300Y-15678150D01*
X26161300Y-15738150D01*
X26176650Y-16574700D02*
X26296650Y-16694700D01*
X26296650Y-16574700D02*
X26176650Y-16694700D01*
X26236650Y-16694700D02*
X26296650Y-16634700D01*
X26236650Y-16574700D01*
X26176650Y-16634700D01*
X26236650Y-16694700D01*
X26176650Y-17874700D02*
X26296650Y-17994700D01*
X26296650Y-17874700D02*
X26176650Y-17994700D01*
X26236650Y-17994700D02*
X26296650Y-17934700D01*
X26236650Y-17874700D01*
X26176650Y-17934700D01*
X26236650Y-17994700D01*
X26776650Y-16574700D02*
X26896650Y-16694700D01*
X26896650Y-16574700D02*
X26776650Y-16694700D01*
X26836650Y-16694700D02*
X26896650Y-16634700D01*
X26836650Y-16574700D01*
X26776650Y-16634700D01*
X26836650Y-16694700D01*
X26776650Y-17874700D02*
X26896650Y-17994700D01*
X26896650Y-17874700D02*
X26776650Y-17994700D01*
X26836650Y-17994700D02*
X26896650Y-17934700D01*
X26836650Y-17874700D01*
X26776650Y-17934700D01*
X26836650Y-17994700D01*
X27601300Y-15618150D02*
X27721300Y-15738150D01*
X27721300Y-15618150D02*
X27601300Y-15738150D01*
X27661300Y-15738150D02*
X27721300Y-15678150D01*
X27661300Y-15618150D01*
X27601300Y-15678150D01*
X27661300Y-15738150D01*
D10*
X11633200Y-17851050D02*
X11633200Y-18001050D01*
X11558200Y-17926050D02*
X11708200Y-17926050D01*
X11708200Y-17926050D02*
G75*
G03*
X11708200Y-17926050I-75000J0D01*
G01*
X15030450Y-5563800D02*
X15030450Y-5713800D01*
X14955450Y-5638800D02*
X15105450Y-5638800D01*
X15105450Y-5638800D02*
G75*
G03*
X15105450Y-5638800I-75000J0D01*
G01*
X21799550Y-9475400D02*
X21799550Y-9625400D01*
X21724550Y-9550400D02*
X21874550Y-9550400D01*
X21874550Y-9550400D02*
G75*
G03*
X21874550Y-9550400I-75000J0D01*
G01*
D21*
X11439305Y-17732155D02*
X11439305Y-17611945D01*
X11319095Y-17611945D01*
X11319095Y-17732155D01*
X11439305Y-17732155D01*
X11464200Y-17672050D02*
G75*
G03*
X11464200Y-17672050I-85000J0D01*
G01*
X11439305Y-18240155D02*
X11439305Y-18119945D01*
X11319095Y-18119945D01*
X11319095Y-18240155D01*
X11439305Y-18240155D01*
X11464200Y-18180050D02*
G75*
G03*
X11464200Y-18180050I-85000J0D01*
G01*
X11947305Y-17732155D02*
X11947305Y-17611945D01*
X11827095Y-17611945D01*
X11827095Y-17732155D01*
X11947305Y-17732155D01*
X11972200Y-17672050D02*
G75*
G03*
X11972200Y-17672050I-85000J0D01*
G01*
X11947305Y-18240155D02*
X11947305Y-18119945D01*
X11827095Y-18119945D01*
X11827095Y-18240155D01*
X11947305Y-18240155D01*
X11972200Y-18180050D02*
G75*
G03*
X11972200Y-18180050I-85000J0D01*
G01*
X14836555Y-5444905D02*
X14836555Y-5324695D01*
X14716345Y-5324695D01*
X14716345Y-5444905D01*
X14836555Y-5444905D01*
X14861450Y-5384800D02*
G75*
G03*
X14861450Y-5384800I-85000J0D01*
G01*
X14836555Y-5952905D02*
X14836555Y-5832695D01*
X14716345Y-5832695D01*
X14716345Y-5952905D01*
X14836555Y-5952905D01*
X14861450Y-5892800D02*
G75*
G03*
X14861450Y-5892800I-85000J0D01*
G01*
X15344555Y-5444905D02*
X15344555Y-5324695D01*
X15224345Y-5324695D01*
X15224345Y-5444905D01*
X15344555Y-5444905D01*
X15369450Y-5384800D02*
G75*
G03*
X15369450Y-5384800I-85000J0D01*
G01*
X15344555Y-5952905D02*
X15344555Y-5832695D01*
X15224345Y-5832695D01*
X15224345Y-5952905D01*
X15344555Y-5952905D01*
X15369450Y-5892800D02*
G75*
G03*
X15369450Y-5892800I-85000J0D01*
G01*
X21605655Y-9356505D02*
X21605655Y-9236295D01*
X21485445Y-9236295D01*
X21485445Y-9356505D01*
X21605655Y-9356505D01*
X21630550Y-9296400D02*
G75*
G03*
X21630550Y-9296400I-85000J0D01*
G01*
X21605655Y-9864505D02*
X21605655Y-9744295D01*
X21485445Y-9744295D01*
X21485445Y-9864505D01*
X21605655Y-9864505D01*
X21630550Y-9804400D02*
G75*
G03*
X21630550Y-9804400I-85000J0D01*
G01*
X22113655Y-9356505D02*
X22113655Y-9236295D01*
X21993445Y-9236295D01*
X21993445Y-9356505D01*
X22113655Y-9356505D01*
X22138550Y-9296400D02*
G75*
G03*
X22138550Y-9296400I-85000J0D01*
G01*
X22113655Y-9864505D02*
X22113655Y-9744295D01*
X21993445Y-9744295D01*
X21993445Y-9864505D01*
X22113655Y-9864505D01*
X22138550Y-9804400D02*
G75*
G03*
X22138550Y-9804400I-85000J0D01*
G01*
D22*
X2190750Y-4071600D02*
X2350750Y-3911600D01*
X2190750Y-3751600D01*
X2030750Y-3911600D01*
X2190750Y-4071600D01*
X2350750Y-3911600D02*
G75*
G03*
X2350750Y-3911600I-160000J0D01*
G01*
X2190750Y-19210000D02*
X2350750Y-19050000D01*
X2190750Y-18890000D01*
X2030750Y-19050000D01*
X2190750Y-19210000D01*
X2350750Y-19050000D02*
G75*
G03*
X2350750Y-19050000I-160000J0D01*
G01*
X11550650Y-16676350D02*
X11710650Y-16516350D01*
X11550650Y-16356350D01*
X11390650Y-16516350D01*
X11550650Y-16676350D01*
X11710650Y-16516350D02*
G75*
G03*
X11710650Y-16516350I-160000J0D01*
G01*
X18961100Y-16663650D02*
X19121100Y-16503650D01*
X18961100Y-16343650D01*
X18801100Y-16503650D01*
X18961100Y-16663650D01*
X19121100Y-16503650D02*
G75*
G03*
X19121100Y-16503650I-160000J0D01*
G01*
X20967700Y-15965150D02*
X21127700Y-15805150D01*
X20967700Y-15645150D01*
X20807700Y-15805150D01*
X20967700Y-15965150D01*
X21127700Y-15805150D02*
G75*
G03*
X21127700Y-15805150I-160000J0D01*
G01*
X29584650Y-4071600D02*
X29744650Y-3911600D01*
X29584650Y-3751600D01*
X29424650Y-3911600D01*
X29584650Y-4071600D01*
X29744650Y-3911600D02*
G75*
G03*
X29744650Y-3911600I-160000J0D01*
G01*
X29584650Y-15946100D02*
X29744650Y-15786100D01*
X29584650Y-15626100D01*
X29424650Y-15786100D01*
X29584650Y-15946100D01*
X29744650Y-15786100D02*
G75*
G03*
X29744650Y-15786100I-160000J0D01*
G01*
X29584650Y-19210000D02*
X29744650Y-19050000D01*
X29584650Y-18890000D01*
X29424650Y-19050000D01*
X29584650Y-19210000D01*
X29744650Y-19050000D02*
G75*
G03*
X29744650Y-19050000I-160000J0D01*
G01*
D11*
X2078919Y-19729926D02*
X2078919Y-19529926D01*
X2126538Y-19529926D01*
X2155110Y-19539450D01*
X2174157Y-19558498D01*
X2183681Y-19577545D01*
X2193205Y-19615640D01*
X2193205Y-19644212D01*
X2183681Y-19682307D01*
X2174157Y-19701355D01*
X2155110Y-19720402D01*
X2126538Y-19729926D01*
X2078919Y-19729926D01*
X2278919Y-19729926D02*
X2278919Y-19596593D01*
X2278919Y-19634688D02*
X2288443Y-19615640D01*
X2297967Y-19606117D01*
X2317014Y-19596593D01*
X2336062Y-19596593D01*
X2402729Y-19729926D02*
X2402729Y-19596593D01*
X2402729Y-19529926D02*
X2393205Y-19539450D01*
X2402729Y-19548974D01*
X2412252Y-19539450D01*
X2402729Y-19529926D01*
X2402729Y-19548974D01*
X2526538Y-19729926D02*
X2507490Y-19720402D01*
X2497967Y-19701355D01*
X2497967Y-19529926D01*
X2631300Y-19729926D02*
X2612252Y-19720402D01*
X2602729Y-19701355D01*
X2602729Y-19529926D01*
X2859871Y-19729926D02*
X2859871Y-19529926D01*
X2926538Y-19672783D01*
X2993205Y-19529926D01*
X2993205Y-19729926D01*
X3174157Y-19729926D02*
X3174157Y-19625164D01*
X3164633Y-19606117D01*
X3145586Y-19596593D01*
X3107490Y-19596593D01*
X3088443Y-19606117D01*
X3174157Y-19720402D02*
X3155109Y-19729926D01*
X3107490Y-19729926D01*
X3088443Y-19720402D01*
X3078919Y-19701355D01*
X3078919Y-19682307D01*
X3088443Y-19663260D01*
X3107490Y-19653736D01*
X3155109Y-19653736D01*
X3174157Y-19644212D01*
X3269395Y-19596593D02*
X3269395Y-19796593D01*
X3269395Y-19606117D02*
X3288443Y-19596593D01*
X3326538Y-19596593D01*
X3345586Y-19606117D01*
X3355109Y-19615640D01*
X3364633Y-19634688D01*
X3364633Y-19691831D01*
X3355109Y-19710879D01*
X3345586Y-19720402D01*
X3326538Y-19729926D01*
X3288443Y-19729926D01*
X3269395Y-19720402D01*
X3450348Y-19710879D02*
X3459871Y-19720402D01*
X3450348Y-19729926D01*
X3440824Y-19720402D01*
X3450348Y-19710879D01*
X3450348Y-19729926D01*
X3450348Y-19606117D02*
X3459871Y-19615640D01*
X3450348Y-19625164D01*
X3440824Y-19615640D01*
X3450348Y-19606117D01*
X3450348Y-19625164D01*
D12*
X1781300Y-20039450D02*
X1821300Y-20079450D01*
X1821300Y-20039450D02*
X1781300Y-20079450D01*
D11*
X2117014Y-19949926D02*
X2136062Y-19949926D01*
X2155110Y-19959450D01*
X2164633Y-19968974D01*
X2174157Y-19988021D01*
X2183681Y-20026117D01*
X2183681Y-20073736D01*
X2174157Y-20111831D01*
X2164633Y-20130879D01*
X2155110Y-20140402D01*
X2136062Y-20149926D01*
X2117014Y-20149926D01*
X2097967Y-20140402D01*
X2088443Y-20130879D01*
X2078919Y-20111831D01*
X2069395Y-20073736D01*
X2069395Y-20026117D01*
X2078919Y-19988021D01*
X2088443Y-19968974D01*
X2097967Y-19959450D01*
X2117014Y-19949926D01*
X2269395Y-20130879D02*
X2278919Y-20140402D01*
X2269395Y-20149926D01*
X2259871Y-20140402D01*
X2269395Y-20130879D01*
X2269395Y-20149926D01*
X2450348Y-20016593D02*
X2450348Y-20149926D01*
X2402729Y-19940402D02*
X2355110Y-20083260D01*
X2478919Y-20083260D01*
X2593205Y-19949926D02*
X2612252Y-19949926D01*
X2631300Y-19959450D01*
X2640824Y-19968974D01*
X2650348Y-19988021D01*
X2659871Y-20026117D01*
X2659871Y-20073736D01*
X2650348Y-20111831D01*
X2640824Y-20130879D01*
X2631300Y-20140402D01*
X2612252Y-20149926D01*
X2593205Y-20149926D01*
X2574157Y-20140402D01*
X2564633Y-20130879D01*
X2555110Y-20111831D01*
X2545586Y-20073736D01*
X2545586Y-20026117D01*
X2555110Y-19988021D01*
X2564633Y-19968974D01*
X2574157Y-19959450D01*
X2593205Y-19949926D01*
X2783681Y-19949926D02*
X2802728Y-19949926D01*
X2821776Y-19959450D01*
X2831300Y-19968974D01*
X2840824Y-19988021D01*
X2850348Y-20026117D01*
X2850348Y-20073736D01*
X2840824Y-20111831D01*
X2831300Y-20130879D01*
X2821776Y-20140402D01*
X2802728Y-20149926D01*
X2783681Y-20149926D01*
X2764633Y-20140402D01*
X2755110Y-20130879D01*
X2745586Y-20111831D01*
X2736062Y-20073736D01*
X2736062Y-20026117D01*
X2745586Y-19988021D01*
X2755110Y-19968974D01*
X2764633Y-19959450D01*
X2783681Y-19949926D01*
X2936062Y-20149926D02*
X2936062Y-20016593D01*
X2936062Y-20035640D02*
X2945586Y-20026117D01*
X2964633Y-20016593D01*
X2993205Y-20016593D01*
X3012252Y-20026117D01*
X3021776Y-20045164D01*
X3021776Y-20149926D01*
X3021776Y-20045164D02*
X3031300Y-20026117D01*
X3050348Y-20016593D01*
X3078919Y-20016593D01*
X3097967Y-20026117D01*
X3107490Y-20045164D01*
X3107490Y-20149926D01*
X3202728Y-20149926D02*
X3202728Y-20016593D01*
X3202728Y-20035640D02*
X3212252Y-20026117D01*
X3231300Y-20016593D01*
X3259871Y-20016593D01*
X3278919Y-20026117D01*
X3288443Y-20045164D01*
X3288443Y-20149926D01*
X3288443Y-20045164D02*
X3297967Y-20026117D01*
X3317014Y-20016593D01*
X3345586Y-20016593D01*
X3364633Y-20026117D01*
X3374157Y-20045164D01*
X3374157Y-20149926D01*
X3764633Y-19940402D02*
X3593205Y-20197545D01*
X4021776Y-19949926D02*
X4040824Y-19949926D01*
X4059871Y-19959450D01*
X4069395Y-19968974D01*
X4078919Y-19988021D01*
X4088443Y-20026117D01*
X4088443Y-20073736D01*
X4078919Y-20111831D01*
X4069395Y-20130879D01*
X4059871Y-20140402D01*
X4040824Y-20149926D01*
X4021776Y-20149926D01*
X4002728Y-20140402D01*
X3993205Y-20130879D01*
X3983681Y-20111831D01*
X3974157Y-20073736D01*
X3974157Y-20026117D01*
X3983681Y-19988021D01*
X3993205Y-19968974D01*
X4002728Y-19959450D01*
X4021776Y-19949926D01*
X4174157Y-20130879D02*
X4183681Y-20140402D01*
X4174157Y-20149926D01*
X4164633Y-20140402D01*
X4174157Y-20130879D01*
X4174157Y-20149926D01*
X4307490Y-19949926D02*
X4326538Y-19949926D01*
X4345586Y-19959450D01*
X4355110Y-19968974D01*
X4364633Y-19988021D01*
X4374157Y-20026117D01*
X4374157Y-20073736D01*
X4364633Y-20111831D01*
X4355110Y-20130879D01*
X4345586Y-20140402D01*
X4326538Y-20149926D01*
X4307490Y-20149926D01*
X4288443Y-20140402D01*
X4278919Y-20130879D01*
X4269395Y-20111831D01*
X4259871Y-20073736D01*
X4259871Y-20026117D01*
X4269395Y-19988021D01*
X4278919Y-19968974D01*
X4288443Y-19959450D01*
X4307490Y-19949926D01*
X4564633Y-20149926D02*
X4450348Y-20149926D01*
X4507490Y-20149926D02*
X4507490Y-19949926D01*
X4488443Y-19978498D01*
X4469395Y-19997545D01*
X4450348Y-20007069D01*
X4745586Y-19949926D02*
X4650348Y-19949926D01*
X4640824Y-20045164D01*
X4650348Y-20035640D01*
X4669395Y-20026117D01*
X4717014Y-20026117D01*
X4736062Y-20035640D01*
X4745586Y-20045164D01*
X4755110Y-20064212D01*
X4755110Y-20111831D01*
X4745586Y-20130879D01*
X4736062Y-20140402D01*
X4717014Y-20149926D01*
X4669395Y-20149926D01*
X4650348Y-20140402D01*
X4640824Y-20130879D01*
X4821776Y-19949926D02*
X4955110Y-19949926D01*
X4869395Y-20149926D01*
X5021776Y-19949926D02*
X5021776Y-19988021D01*
X5097967Y-19949926D02*
X5097967Y-19988021D01*
X5393205Y-20226117D02*
X5383681Y-20216593D01*
X5364633Y-20188021D01*
X5355110Y-20168974D01*
X5345586Y-20140402D01*
X5336062Y-20092783D01*
X5336062Y-20054688D01*
X5345586Y-20007069D01*
X5355110Y-19978498D01*
X5364633Y-19959450D01*
X5383681Y-19930879D01*
X5393205Y-19921355D01*
X5459871Y-19968974D02*
X5469395Y-19959450D01*
X5488443Y-19949926D01*
X5536062Y-19949926D01*
X5555110Y-19959450D01*
X5564633Y-19968974D01*
X5574157Y-19988021D01*
X5574157Y-20007069D01*
X5564633Y-20035640D01*
X5450348Y-20149926D01*
X5574157Y-20149926D01*
X5745586Y-20016593D02*
X5745586Y-20149926D01*
X5697967Y-19940402D02*
X5650348Y-20083260D01*
X5774157Y-20083260D01*
X6002728Y-20149926D02*
X6002728Y-19949926D01*
X6088443Y-20149926D02*
X6088443Y-20045164D01*
X6078919Y-20026117D01*
X6059871Y-20016593D01*
X6031300Y-20016593D01*
X6012252Y-20026117D01*
X6002728Y-20035640D01*
X6212252Y-20149926D02*
X6193205Y-20140402D01*
X6183681Y-20130879D01*
X6174157Y-20111831D01*
X6174157Y-20054688D01*
X6183681Y-20035640D01*
X6193205Y-20026117D01*
X6212252Y-20016593D01*
X6240824Y-20016593D01*
X6259871Y-20026117D01*
X6269395Y-20035640D01*
X6278919Y-20054688D01*
X6278919Y-20111831D01*
X6269395Y-20130879D01*
X6259871Y-20140402D01*
X6240824Y-20149926D01*
X6212252Y-20149926D01*
X6393205Y-20149926D02*
X6374157Y-20140402D01*
X6364633Y-20121355D01*
X6364633Y-19949926D01*
X6545586Y-20140402D02*
X6526538Y-20149926D01*
X6488443Y-20149926D01*
X6469395Y-20140402D01*
X6459871Y-20121355D01*
X6459871Y-20045164D01*
X6469395Y-20026117D01*
X6488443Y-20016593D01*
X6526538Y-20016593D01*
X6545586Y-20026117D01*
X6555109Y-20045164D01*
X6555109Y-20064212D01*
X6459871Y-20083260D01*
X6631300Y-20140402D02*
X6650348Y-20149926D01*
X6688443Y-20149926D01*
X6707490Y-20140402D01*
X6717014Y-20121355D01*
X6717014Y-20111831D01*
X6707490Y-20092783D01*
X6688443Y-20083260D01*
X6659871Y-20083260D01*
X6640824Y-20073736D01*
X6631300Y-20054688D01*
X6631300Y-20045164D01*
X6640824Y-20026117D01*
X6659871Y-20016593D01*
X6688443Y-20016593D01*
X6707490Y-20026117D01*
X6783681Y-20226117D02*
X6793205Y-20216593D01*
X6812252Y-20188021D01*
X6821776Y-20168974D01*
X6831300Y-20140402D01*
X6840824Y-20092783D01*
X6840824Y-20054688D01*
X6831300Y-20007069D01*
X6821776Y-19978498D01*
X6812252Y-19959450D01*
X6793205Y-19930879D01*
X6783681Y-19921355D01*
D13*
X1821300Y-20323450D02*
G75*
G03*
X1821300Y-20323450I-35000J0D01*
G01*
D11*
X2117014Y-20213926D02*
X2136062Y-20213926D01*
X2155110Y-20223450D01*
X2164633Y-20232974D01*
X2174157Y-20252021D01*
X2183681Y-20290117D01*
X2183681Y-20337736D01*
X2174157Y-20375831D01*
X2164633Y-20394879D01*
X2155110Y-20404402D01*
X2136062Y-20413926D01*
X2117014Y-20413926D01*
X2097967Y-20404402D01*
X2088443Y-20394879D01*
X2078919Y-20375831D01*
X2069395Y-20337736D01*
X2069395Y-20290117D01*
X2078919Y-20252021D01*
X2088443Y-20232974D01*
X2097967Y-20223450D01*
X2117014Y-20213926D01*
X2269395Y-20394879D02*
X2278919Y-20404402D01*
X2269395Y-20413926D01*
X2259871Y-20404402D01*
X2269395Y-20394879D01*
X2269395Y-20413926D01*
X2345586Y-20213926D02*
X2478919Y-20213926D01*
X2393205Y-20413926D01*
X2593205Y-20213926D02*
X2612252Y-20213926D01*
X2631300Y-20223450D01*
X2640824Y-20232974D01*
X2650348Y-20252021D01*
X2659871Y-20290117D01*
X2659871Y-20337736D01*
X2650348Y-20375831D01*
X2640824Y-20394879D01*
X2631300Y-20404402D01*
X2612252Y-20413926D01*
X2593205Y-20413926D01*
X2574157Y-20404402D01*
X2564633Y-20394879D01*
X2555110Y-20375831D01*
X2545586Y-20337736D01*
X2545586Y-20290117D01*
X2555110Y-20252021D01*
X2564633Y-20232974D01*
X2574157Y-20223450D01*
X2593205Y-20213926D01*
X2783681Y-20213926D02*
X2802728Y-20213926D01*
X2821776Y-20223450D01*
X2831300Y-20232974D01*
X2840824Y-20252021D01*
X2850348Y-20290117D01*
X2850348Y-20337736D01*
X2840824Y-20375831D01*
X2831300Y-20394879D01*
X2821776Y-20404402D01*
X2802728Y-20413926D01*
X2783681Y-20413926D01*
X2764633Y-20404402D01*
X2755110Y-20394879D01*
X2745586Y-20375831D01*
X2736062Y-20337736D01*
X2736062Y-20290117D01*
X2745586Y-20252021D01*
X2755110Y-20232974D01*
X2764633Y-20223450D01*
X2783681Y-20213926D01*
X2936062Y-20413926D02*
X2936062Y-20280593D01*
X2936062Y-20299640D02*
X2945586Y-20290117D01*
X2964633Y-20280593D01*
X2993205Y-20280593D01*
X3012252Y-20290117D01*
X3021776Y-20309164D01*
X3021776Y-20413926D01*
X3021776Y-20309164D02*
X3031300Y-20290117D01*
X3050348Y-20280593D01*
X3078919Y-20280593D01*
X3097967Y-20290117D01*
X3107490Y-20309164D01*
X3107490Y-20413926D01*
X3202728Y-20413926D02*
X3202728Y-20280593D01*
X3202728Y-20299640D02*
X3212252Y-20290117D01*
X3231300Y-20280593D01*
X3259871Y-20280593D01*
X3278919Y-20290117D01*
X3288443Y-20309164D01*
X3288443Y-20413926D01*
X3288443Y-20309164D02*
X3297967Y-20290117D01*
X3317014Y-20280593D01*
X3345586Y-20280593D01*
X3364633Y-20290117D01*
X3374157Y-20309164D01*
X3374157Y-20413926D01*
X3764633Y-20204402D02*
X3593205Y-20461545D01*
X4021776Y-20213926D02*
X4040824Y-20213926D01*
X4059871Y-20223450D01*
X4069395Y-20232974D01*
X4078919Y-20252021D01*
X4088443Y-20290117D01*
X4088443Y-20337736D01*
X4078919Y-20375831D01*
X4069395Y-20394879D01*
X4059871Y-20404402D01*
X4040824Y-20413926D01*
X4021776Y-20413926D01*
X4002728Y-20404402D01*
X3993205Y-20394879D01*
X3983681Y-20375831D01*
X3974157Y-20337736D01*
X3974157Y-20290117D01*
X3983681Y-20252021D01*
X3993205Y-20232974D01*
X4002728Y-20223450D01*
X4021776Y-20213926D01*
X4174157Y-20394879D02*
X4183681Y-20404402D01*
X4174157Y-20413926D01*
X4164633Y-20404402D01*
X4174157Y-20394879D01*
X4174157Y-20413926D01*
X4307490Y-20213926D02*
X4326538Y-20213926D01*
X4345586Y-20223450D01*
X4355110Y-20232974D01*
X4364633Y-20252021D01*
X4374157Y-20290117D01*
X4374157Y-20337736D01*
X4364633Y-20375831D01*
X4355110Y-20394879D01*
X4345586Y-20404402D01*
X4326538Y-20413926D01*
X4307490Y-20413926D01*
X4288443Y-20404402D01*
X4278919Y-20394879D01*
X4269395Y-20375831D01*
X4259871Y-20337736D01*
X4259871Y-20290117D01*
X4269395Y-20252021D01*
X4278919Y-20232974D01*
X4288443Y-20223450D01*
X4307490Y-20213926D01*
X4450348Y-20232974D02*
X4459871Y-20223450D01*
X4478919Y-20213926D01*
X4526538Y-20213926D01*
X4545586Y-20223450D01*
X4555110Y-20232974D01*
X4564633Y-20252021D01*
X4564633Y-20271069D01*
X4555110Y-20299640D01*
X4440824Y-20413926D01*
X4564633Y-20413926D01*
X4631300Y-20213926D02*
X4764633Y-20213926D01*
X4678919Y-20413926D01*
X4926538Y-20213926D02*
X4888443Y-20213926D01*
X4869395Y-20223450D01*
X4859871Y-20232974D01*
X4840824Y-20261545D01*
X4831300Y-20299640D01*
X4831300Y-20375831D01*
X4840824Y-20394879D01*
X4850348Y-20404402D01*
X4869395Y-20413926D01*
X4907490Y-20413926D01*
X4926538Y-20404402D01*
X4936062Y-20394879D01*
X4945586Y-20375831D01*
X4945586Y-20328212D01*
X4936062Y-20309164D01*
X4926538Y-20299640D01*
X4907490Y-20290117D01*
X4869395Y-20290117D01*
X4850348Y-20299640D01*
X4840824Y-20309164D01*
X4831300Y-20328212D01*
X5021776Y-20213926D02*
X5021776Y-20252021D01*
X5097967Y-20213926D02*
X5097967Y-20252021D01*
X5393205Y-20490117D02*
X5383681Y-20480593D01*
X5364633Y-20452021D01*
X5355110Y-20432974D01*
X5345586Y-20404402D01*
X5336062Y-20356783D01*
X5336062Y-20318688D01*
X5345586Y-20271069D01*
X5355110Y-20242498D01*
X5364633Y-20223450D01*
X5383681Y-20194879D01*
X5393205Y-20185355D01*
X5450348Y-20213926D02*
X5574157Y-20213926D01*
X5507490Y-20290117D01*
X5536062Y-20290117D01*
X5555110Y-20299640D01*
X5564633Y-20309164D01*
X5574157Y-20328212D01*
X5574157Y-20375831D01*
X5564633Y-20394879D01*
X5555110Y-20404402D01*
X5536062Y-20413926D01*
X5478919Y-20413926D01*
X5459871Y-20404402D01*
X5450348Y-20394879D01*
X5650348Y-20232974D02*
X5659871Y-20223450D01*
X5678919Y-20213926D01*
X5726538Y-20213926D01*
X5745586Y-20223450D01*
X5755109Y-20232974D01*
X5764633Y-20252021D01*
X5764633Y-20271069D01*
X5755109Y-20299640D01*
X5640824Y-20413926D01*
X5764633Y-20413926D01*
X6002728Y-20413926D02*
X6002728Y-20213926D01*
X6088443Y-20413926D02*
X6088443Y-20309164D01*
X6078919Y-20290117D01*
X6059871Y-20280593D01*
X6031300Y-20280593D01*
X6012252Y-20290117D01*
X6002728Y-20299640D01*
X6212252Y-20413926D02*
X6193205Y-20404402D01*
X6183681Y-20394879D01*
X6174157Y-20375831D01*
X6174157Y-20318688D01*
X6183681Y-20299640D01*
X6193205Y-20290117D01*
X6212252Y-20280593D01*
X6240824Y-20280593D01*
X6259871Y-20290117D01*
X6269395Y-20299640D01*
X6278919Y-20318688D01*
X6278919Y-20375831D01*
X6269395Y-20394879D01*
X6259871Y-20404402D01*
X6240824Y-20413926D01*
X6212252Y-20413926D01*
X6393205Y-20413926D02*
X6374157Y-20404402D01*
X6364633Y-20385355D01*
X6364633Y-20213926D01*
X6545586Y-20404402D02*
X6526538Y-20413926D01*
X6488443Y-20413926D01*
X6469395Y-20404402D01*
X6459871Y-20385355D01*
X6459871Y-20309164D01*
X6469395Y-20290117D01*
X6488443Y-20280593D01*
X6526538Y-20280593D01*
X6545586Y-20290117D01*
X6555109Y-20309164D01*
X6555109Y-20328212D01*
X6459871Y-20347260D01*
X6631300Y-20404402D02*
X6650348Y-20413926D01*
X6688443Y-20413926D01*
X6707490Y-20404402D01*
X6717014Y-20385355D01*
X6717014Y-20375831D01*
X6707490Y-20356783D01*
X6688443Y-20347260D01*
X6659871Y-20347260D01*
X6640824Y-20337736D01*
X6631300Y-20318688D01*
X6631300Y-20309164D01*
X6640824Y-20290117D01*
X6659871Y-20280593D01*
X6688443Y-20280593D01*
X6707490Y-20290117D01*
X6783681Y-20490117D02*
X6793205Y-20480593D01*
X6812252Y-20452021D01*
X6821776Y-20432974D01*
X6831300Y-20404402D01*
X6840824Y-20356783D01*
X6840824Y-20318688D01*
X6831300Y-20271069D01*
X6821776Y-20242498D01*
X6812252Y-20223450D01*
X6793205Y-20194879D01*
X6783681Y-20185355D01*
D14*
X1783800Y-20549950D02*
X1783800Y-20624950D01*
X1746300Y-20587450D02*
X1821300Y-20587450D01*
D11*
X2117014Y-20477926D02*
X2136062Y-20477926D01*
X2155110Y-20487450D01*
X2164633Y-20496974D01*
X2174157Y-20516021D01*
X2183681Y-20554117D01*
X2183681Y-20601736D01*
X2174157Y-20639831D01*
X2164633Y-20658879D01*
X2155110Y-20668402D01*
X2136062Y-20677926D01*
X2117014Y-20677926D01*
X2097967Y-20668402D01*
X2088443Y-20658879D01*
X2078919Y-20639831D01*
X2069395Y-20601736D01*
X2069395Y-20554117D01*
X2078919Y-20516021D01*
X2088443Y-20496974D01*
X2097967Y-20487450D01*
X2117014Y-20477926D01*
X2269395Y-20658879D02*
X2278919Y-20668402D01*
X2269395Y-20677926D01*
X2259871Y-20668402D01*
X2269395Y-20658879D01*
X2269395Y-20677926D01*
X2345586Y-20477926D02*
X2478919Y-20477926D01*
X2393205Y-20677926D01*
X2650348Y-20477926D02*
X2555110Y-20477926D01*
X2545586Y-20573164D01*
X2555110Y-20563640D01*
X2574157Y-20554117D01*
X2621776Y-20554117D01*
X2640824Y-20563640D01*
X2650348Y-20573164D01*
X2659871Y-20592212D01*
X2659871Y-20639831D01*
X2650348Y-20658879D01*
X2640824Y-20668402D01*
X2621776Y-20677926D01*
X2574157Y-20677926D01*
X2555110Y-20668402D01*
X2545586Y-20658879D01*
X2783681Y-20477926D02*
X2802728Y-20477926D01*
X2821776Y-20487450D01*
X2831300Y-20496974D01*
X2840824Y-20516021D01*
X2850348Y-20554117D01*
X2850348Y-20601736D01*
X2840824Y-20639831D01*
X2831300Y-20658879D01*
X2821776Y-20668402D01*
X2802728Y-20677926D01*
X2783681Y-20677926D01*
X2764633Y-20668402D01*
X2755110Y-20658879D01*
X2745586Y-20639831D01*
X2736062Y-20601736D01*
X2736062Y-20554117D01*
X2745586Y-20516021D01*
X2755110Y-20496974D01*
X2764633Y-20487450D01*
X2783681Y-20477926D01*
X2936062Y-20677926D02*
X2936062Y-20544593D01*
X2936062Y-20563640D02*
X2945586Y-20554117D01*
X2964633Y-20544593D01*
X2993205Y-20544593D01*
X3012252Y-20554117D01*
X3021776Y-20573164D01*
X3021776Y-20677926D01*
X3021776Y-20573164D02*
X3031300Y-20554117D01*
X3050348Y-20544593D01*
X3078919Y-20544593D01*
X3097967Y-20554117D01*
X3107490Y-20573164D01*
X3107490Y-20677926D01*
X3202728Y-20677926D02*
X3202728Y-20544593D01*
X3202728Y-20563640D02*
X3212252Y-20554117D01*
X3231300Y-20544593D01*
X3259871Y-20544593D01*
X3278919Y-20554117D01*
X3288443Y-20573164D01*
X3288443Y-20677926D01*
X3288443Y-20573164D02*
X3297967Y-20554117D01*
X3317014Y-20544593D01*
X3345586Y-20544593D01*
X3364633Y-20554117D01*
X3374157Y-20573164D01*
X3374157Y-20677926D01*
X3764633Y-20468402D02*
X3593205Y-20725545D01*
X4021776Y-20477926D02*
X4040824Y-20477926D01*
X4059871Y-20487450D01*
X4069395Y-20496974D01*
X4078919Y-20516021D01*
X4088443Y-20554117D01*
X4088443Y-20601736D01*
X4078919Y-20639831D01*
X4069395Y-20658879D01*
X4059871Y-20668402D01*
X4040824Y-20677926D01*
X4021776Y-20677926D01*
X4002728Y-20668402D01*
X3993205Y-20658879D01*
X3983681Y-20639831D01*
X3974157Y-20601736D01*
X3974157Y-20554117D01*
X3983681Y-20516021D01*
X3993205Y-20496974D01*
X4002728Y-20487450D01*
X4021776Y-20477926D01*
X4174157Y-20658879D02*
X4183681Y-20668402D01*
X4174157Y-20677926D01*
X4164633Y-20668402D01*
X4174157Y-20658879D01*
X4174157Y-20677926D01*
X4307490Y-20477926D02*
X4326538Y-20477926D01*
X4345586Y-20487450D01*
X4355110Y-20496974D01*
X4364633Y-20516021D01*
X4374157Y-20554117D01*
X4374157Y-20601736D01*
X4364633Y-20639831D01*
X4355110Y-20658879D01*
X4345586Y-20668402D01*
X4326538Y-20677926D01*
X4307490Y-20677926D01*
X4288443Y-20668402D01*
X4278919Y-20658879D01*
X4269395Y-20639831D01*
X4259871Y-20601736D01*
X4259871Y-20554117D01*
X4269395Y-20516021D01*
X4278919Y-20496974D01*
X4288443Y-20487450D01*
X4307490Y-20477926D01*
X4450348Y-20496974D02*
X4459871Y-20487450D01*
X4478919Y-20477926D01*
X4526538Y-20477926D01*
X4545586Y-20487450D01*
X4555110Y-20496974D01*
X4564633Y-20516021D01*
X4564633Y-20535069D01*
X4555110Y-20563640D01*
X4440824Y-20677926D01*
X4564633Y-20677926D01*
X4659871Y-20677926D02*
X4697967Y-20677926D01*
X4717014Y-20668402D01*
X4726538Y-20658879D01*
X4745586Y-20630307D01*
X4755110Y-20592212D01*
X4755110Y-20516021D01*
X4745586Y-20496974D01*
X4736062Y-20487450D01*
X4717014Y-20477926D01*
X4678919Y-20477926D01*
X4659871Y-20487450D01*
X4650348Y-20496974D01*
X4640824Y-20516021D01*
X4640824Y-20563640D01*
X4650348Y-20582688D01*
X4659871Y-20592212D01*
X4678919Y-20601736D01*
X4717014Y-20601736D01*
X4736062Y-20592212D01*
X4745586Y-20582688D01*
X4755110Y-20563640D01*
X4936062Y-20477926D02*
X4840824Y-20477926D01*
X4831300Y-20573164D01*
X4840824Y-20563640D01*
X4859871Y-20554117D01*
X4907490Y-20554117D01*
X4926538Y-20563640D01*
X4936062Y-20573164D01*
X4945586Y-20592212D01*
X4945586Y-20639831D01*
X4936062Y-20658879D01*
X4926538Y-20668402D01*
X4907490Y-20677926D01*
X4859871Y-20677926D01*
X4840824Y-20668402D01*
X4831300Y-20658879D01*
X5021776Y-20477926D02*
X5021776Y-20516021D01*
X5097967Y-20477926D02*
X5097967Y-20516021D01*
X5393205Y-20754117D02*
X5383681Y-20744593D01*
X5364633Y-20716021D01*
X5355110Y-20696974D01*
X5345586Y-20668402D01*
X5336062Y-20620783D01*
X5336062Y-20582688D01*
X5345586Y-20535069D01*
X5355110Y-20506498D01*
X5364633Y-20487450D01*
X5383681Y-20458879D01*
X5393205Y-20449355D01*
X5555110Y-20477926D02*
X5517014Y-20477926D01*
X5497967Y-20487450D01*
X5488443Y-20496974D01*
X5469395Y-20525545D01*
X5459871Y-20563640D01*
X5459871Y-20639831D01*
X5469395Y-20658879D01*
X5478919Y-20668402D01*
X5497967Y-20677926D01*
X5536062Y-20677926D01*
X5555110Y-20668402D01*
X5564633Y-20658879D01*
X5574157Y-20639831D01*
X5574157Y-20592212D01*
X5564633Y-20573164D01*
X5555110Y-20563640D01*
X5536062Y-20554117D01*
X5497967Y-20554117D01*
X5478919Y-20563640D01*
X5469395Y-20573164D01*
X5459871Y-20592212D01*
X5812252Y-20677926D02*
X5812252Y-20477926D01*
X5897967Y-20677926D02*
X5897967Y-20573164D01*
X5888443Y-20554117D01*
X5869395Y-20544593D01*
X5840824Y-20544593D01*
X5821776Y-20554117D01*
X5812252Y-20563640D01*
X6021776Y-20677926D02*
X6002728Y-20668402D01*
X5993205Y-20658879D01*
X5983681Y-20639831D01*
X5983681Y-20582688D01*
X5993205Y-20563640D01*
X6002728Y-20554117D01*
X6021776Y-20544593D01*
X6050348Y-20544593D01*
X6069395Y-20554117D01*
X6078919Y-20563640D01*
X6088443Y-20582688D01*
X6088443Y-20639831D01*
X6078919Y-20658879D01*
X6069395Y-20668402D01*
X6050348Y-20677926D01*
X6021776Y-20677926D01*
X6202728Y-20677926D02*
X6183681Y-20668402D01*
X6174157Y-20649355D01*
X6174157Y-20477926D01*
X6355109Y-20668402D02*
X6336062Y-20677926D01*
X6297967Y-20677926D01*
X6278919Y-20668402D01*
X6269395Y-20649355D01*
X6269395Y-20573164D01*
X6278919Y-20554117D01*
X6297967Y-20544593D01*
X6336062Y-20544593D01*
X6355109Y-20554117D01*
X6364633Y-20573164D01*
X6364633Y-20592212D01*
X6269395Y-20611260D01*
X6440824Y-20668402D02*
X6459871Y-20677926D01*
X6497967Y-20677926D01*
X6517014Y-20668402D01*
X6526538Y-20649355D01*
X6526538Y-20639831D01*
X6517014Y-20620783D01*
X6497967Y-20611260D01*
X6469395Y-20611260D01*
X6450348Y-20601736D01*
X6440824Y-20582688D01*
X6440824Y-20573164D01*
X6450348Y-20554117D01*
X6469395Y-20544593D01*
X6497967Y-20544593D01*
X6517014Y-20554117D01*
X6593205Y-20754117D02*
X6602728Y-20744593D01*
X6621776Y-20716021D01*
X6631300Y-20696974D01*
X6640824Y-20668402D01*
X6650348Y-20620783D01*
X6650348Y-20582688D01*
X6640824Y-20535069D01*
X6631300Y-20506498D01*
X6621776Y-20487450D01*
X6602728Y-20458879D01*
X6593205Y-20449355D01*
D15*
X1809584Y-20879735D02*
X1809584Y-20823166D01*
X1753015Y-20823166D01*
X1753015Y-20879735D01*
X1809584Y-20879735D01*
D11*
X2117014Y-20741926D02*
X2136062Y-20741926D01*
X2155110Y-20751450D01*
X2164633Y-20760974D01*
X2174157Y-20780021D01*
X2183681Y-20818117D01*
X2183681Y-20865736D01*
X2174157Y-20903831D01*
X2164633Y-20922879D01*
X2155110Y-20932402D01*
X2136062Y-20941926D01*
X2117014Y-20941926D01*
X2097967Y-20932402D01*
X2088443Y-20922879D01*
X2078919Y-20903831D01*
X2069395Y-20865736D01*
X2069395Y-20818117D01*
X2078919Y-20780021D01*
X2088443Y-20760974D01*
X2097967Y-20751450D01*
X2117014Y-20741926D01*
X2269395Y-20922879D02*
X2278919Y-20932402D01*
X2269395Y-20941926D01*
X2259871Y-20932402D01*
X2269395Y-20922879D01*
X2269395Y-20941926D01*
X2393205Y-20827640D02*
X2374157Y-20818117D01*
X2364633Y-20808593D01*
X2355110Y-20789545D01*
X2355110Y-20780021D01*
X2364633Y-20760974D01*
X2374157Y-20751450D01*
X2393205Y-20741926D01*
X2431300Y-20741926D01*
X2450348Y-20751450D01*
X2459871Y-20760974D01*
X2469395Y-20780021D01*
X2469395Y-20789545D01*
X2459871Y-20808593D01*
X2450348Y-20818117D01*
X2431300Y-20827640D01*
X2393205Y-20827640D01*
X2374157Y-20837164D01*
X2364633Y-20846688D01*
X2355110Y-20865736D01*
X2355110Y-20903831D01*
X2364633Y-20922879D01*
X2374157Y-20932402D01*
X2393205Y-20941926D01*
X2431300Y-20941926D01*
X2450348Y-20932402D01*
X2459871Y-20922879D01*
X2469395Y-20903831D01*
X2469395Y-20865736D01*
X2459871Y-20846688D01*
X2450348Y-20837164D01*
X2431300Y-20827640D01*
X2593205Y-20741926D02*
X2612252Y-20741926D01*
X2631300Y-20751450D01*
X2640824Y-20760974D01*
X2650348Y-20780021D01*
X2659871Y-20818117D01*
X2659871Y-20865736D01*
X2650348Y-20903831D01*
X2640824Y-20922879D01*
X2631300Y-20932402D01*
X2612252Y-20941926D01*
X2593205Y-20941926D01*
X2574157Y-20932402D01*
X2564633Y-20922879D01*
X2555110Y-20903831D01*
X2545586Y-20865736D01*
X2545586Y-20818117D01*
X2555110Y-20780021D01*
X2564633Y-20760974D01*
X2574157Y-20751450D01*
X2593205Y-20741926D01*
X2783681Y-20741926D02*
X2802728Y-20741926D01*
X2821776Y-20751450D01*
X2831300Y-20760974D01*
X2840824Y-20780021D01*
X2850348Y-20818117D01*
X2850348Y-20865736D01*
X2840824Y-20903831D01*
X2831300Y-20922879D01*
X2821776Y-20932402D01*
X2802728Y-20941926D01*
X2783681Y-20941926D01*
X2764633Y-20932402D01*
X2755110Y-20922879D01*
X2745586Y-20903831D01*
X2736062Y-20865736D01*
X2736062Y-20818117D01*
X2745586Y-20780021D01*
X2755110Y-20760974D01*
X2764633Y-20751450D01*
X2783681Y-20741926D01*
X2936062Y-20941926D02*
X2936062Y-20808593D01*
X2936062Y-20827640D02*
X2945586Y-20818117D01*
X2964633Y-20808593D01*
X2993205Y-20808593D01*
X3012252Y-20818117D01*
X3021776Y-20837164D01*
X3021776Y-20941926D01*
X3021776Y-20837164D02*
X3031300Y-20818117D01*
X3050348Y-20808593D01*
X3078919Y-20808593D01*
X3097967Y-20818117D01*
X3107490Y-20837164D01*
X3107490Y-20941926D01*
X3202728Y-20941926D02*
X3202728Y-20808593D01*
X3202728Y-20827640D02*
X3212252Y-20818117D01*
X3231300Y-20808593D01*
X3259871Y-20808593D01*
X3278919Y-20818117D01*
X3288443Y-20837164D01*
X3288443Y-20941926D01*
X3288443Y-20837164D02*
X3297967Y-20818117D01*
X3317014Y-20808593D01*
X3345586Y-20808593D01*
X3364633Y-20818117D01*
X3374157Y-20837164D01*
X3374157Y-20941926D01*
X3764633Y-20732402D02*
X3593205Y-20989545D01*
X4021776Y-20741926D02*
X4040824Y-20741926D01*
X4059871Y-20751450D01*
X4069395Y-20760974D01*
X4078919Y-20780021D01*
X4088443Y-20818117D01*
X4088443Y-20865736D01*
X4078919Y-20903831D01*
X4069395Y-20922879D01*
X4059871Y-20932402D01*
X4040824Y-20941926D01*
X4021776Y-20941926D01*
X4002728Y-20932402D01*
X3993205Y-20922879D01*
X3983681Y-20903831D01*
X3974157Y-20865736D01*
X3974157Y-20818117D01*
X3983681Y-20780021D01*
X3993205Y-20760974D01*
X4002728Y-20751450D01*
X4021776Y-20741926D01*
X4174157Y-20922879D02*
X4183681Y-20932402D01*
X4174157Y-20941926D01*
X4164633Y-20932402D01*
X4174157Y-20922879D01*
X4174157Y-20941926D01*
X4307490Y-20741926D02*
X4326538Y-20741926D01*
X4345586Y-20751450D01*
X4355110Y-20760974D01*
X4364633Y-20780021D01*
X4374157Y-20818117D01*
X4374157Y-20865736D01*
X4364633Y-20903831D01*
X4355110Y-20922879D01*
X4345586Y-20932402D01*
X4326538Y-20941926D01*
X4307490Y-20941926D01*
X4288443Y-20932402D01*
X4278919Y-20922879D01*
X4269395Y-20903831D01*
X4259871Y-20865736D01*
X4259871Y-20818117D01*
X4269395Y-20780021D01*
X4278919Y-20760974D01*
X4288443Y-20751450D01*
X4307490Y-20741926D01*
X4440824Y-20741926D02*
X4564633Y-20741926D01*
X4497967Y-20818117D01*
X4526538Y-20818117D01*
X4545586Y-20827640D01*
X4555110Y-20837164D01*
X4564633Y-20856212D01*
X4564633Y-20903831D01*
X4555110Y-20922879D01*
X4545586Y-20932402D01*
X4526538Y-20941926D01*
X4469395Y-20941926D01*
X4450348Y-20932402D01*
X4440824Y-20922879D01*
X4755110Y-20941926D02*
X4640824Y-20941926D01*
X4697967Y-20941926D02*
X4697967Y-20741926D01*
X4678919Y-20770498D01*
X4659871Y-20789545D01*
X4640824Y-20799069D01*
X4936062Y-20741926D02*
X4840824Y-20741926D01*
X4831300Y-20837164D01*
X4840824Y-20827640D01*
X4859871Y-20818117D01*
X4907490Y-20818117D01*
X4926538Y-20827640D01*
X4936062Y-20837164D01*
X4945586Y-20856212D01*
X4945586Y-20903831D01*
X4936062Y-20922879D01*
X4926538Y-20932402D01*
X4907490Y-20941926D01*
X4859871Y-20941926D01*
X4840824Y-20932402D01*
X4831300Y-20922879D01*
X5021776Y-20741926D02*
X5021776Y-20780021D01*
X5097967Y-20741926D02*
X5097967Y-20780021D01*
X5393205Y-21018117D02*
X5383681Y-21008593D01*
X5364633Y-20980021D01*
X5355110Y-20960974D01*
X5345586Y-20932402D01*
X5336062Y-20884783D01*
X5336062Y-20846688D01*
X5345586Y-20799069D01*
X5355110Y-20770498D01*
X5364633Y-20751450D01*
X5383681Y-20722879D01*
X5393205Y-20713355D01*
X5574157Y-20941926D02*
X5459871Y-20941926D01*
X5517014Y-20941926D02*
X5517014Y-20741926D01*
X5497967Y-20770498D01*
X5478919Y-20789545D01*
X5459871Y-20799069D01*
X5745586Y-20808593D02*
X5745586Y-20941926D01*
X5697967Y-20732402D02*
X5650348Y-20875260D01*
X5774157Y-20875260D01*
X5955109Y-20941926D02*
X5840824Y-20941926D01*
X5897967Y-20941926D02*
X5897967Y-20741926D01*
X5878919Y-20770498D01*
X5859871Y-20789545D01*
X5840824Y-20799069D01*
X6193205Y-20941926D02*
X6193205Y-20741926D01*
X6278919Y-20941926D02*
X6278919Y-20837164D01*
X6269395Y-20818117D01*
X6250348Y-20808593D01*
X6221776Y-20808593D01*
X6202728Y-20818117D01*
X6193205Y-20827640D01*
X6402728Y-20941926D02*
X6383681Y-20932402D01*
X6374157Y-20922879D01*
X6364633Y-20903831D01*
X6364633Y-20846688D01*
X6374157Y-20827640D01*
X6383681Y-20818117D01*
X6402728Y-20808593D01*
X6431300Y-20808593D01*
X6450348Y-20818117D01*
X6459871Y-20827640D01*
X6469395Y-20846688D01*
X6469395Y-20903831D01*
X6459871Y-20922879D01*
X6450348Y-20932402D01*
X6431300Y-20941926D01*
X6402728Y-20941926D01*
X6583681Y-20941926D02*
X6564633Y-20932402D01*
X6555109Y-20913355D01*
X6555109Y-20741926D01*
X6736062Y-20932402D02*
X6717014Y-20941926D01*
X6678919Y-20941926D01*
X6659871Y-20932402D01*
X6650348Y-20913355D01*
X6650348Y-20837164D01*
X6659871Y-20818117D01*
X6678919Y-20808593D01*
X6717014Y-20808593D01*
X6736062Y-20818117D01*
X6745586Y-20837164D01*
X6745586Y-20856212D01*
X6650348Y-20875260D01*
X6821776Y-20932402D02*
X6840824Y-20941926D01*
X6878919Y-20941926D01*
X6897967Y-20932402D01*
X6907490Y-20913355D01*
X6907490Y-20903831D01*
X6897967Y-20884783D01*
X6878919Y-20875260D01*
X6850348Y-20875260D01*
X6831300Y-20865736D01*
X6821776Y-20846688D01*
X6821776Y-20837164D01*
X6831300Y-20818117D01*
X6850348Y-20808593D01*
X6878919Y-20808593D01*
X6897967Y-20818117D01*
X6974157Y-21018117D02*
X6983681Y-21008593D01*
X7002728Y-20980021D01*
X7012252Y-20960974D01*
X7021776Y-20932402D01*
X7031300Y-20884783D01*
X7031300Y-20846688D01*
X7021776Y-20799069D01*
X7012252Y-20770498D01*
X7002728Y-20751450D01*
X6983681Y-20722879D01*
X6974157Y-20713355D01*
D16*
X1776300Y-21160450D02*
X1821300Y-21115450D01*
X1776300Y-21070450D01*
X1731300Y-21115450D01*
X1776300Y-21160450D01*
D11*
X2117014Y-21005926D02*
X2136062Y-21005926D01*
X2155110Y-21015450D01*
X2164633Y-21024974D01*
X2174157Y-21044021D01*
X2183681Y-21082117D01*
X2183681Y-21129736D01*
X2174157Y-21167831D01*
X2164633Y-21186879D01*
X2155110Y-21196402D01*
X2136062Y-21205926D01*
X2117014Y-21205926D01*
X2097967Y-21196402D01*
X2088443Y-21186879D01*
X2078919Y-21167831D01*
X2069395Y-21129736D01*
X2069395Y-21082117D01*
X2078919Y-21044021D01*
X2088443Y-21024974D01*
X2097967Y-21015450D01*
X2117014Y-21005926D01*
X2269395Y-21186879D02*
X2278919Y-21196402D01*
X2269395Y-21205926D01*
X2259871Y-21196402D01*
X2269395Y-21186879D01*
X2269395Y-21205926D01*
X2374157Y-21205926D02*
X2412252Y-21205926D01*
X2431300Y-21196402D01*
X2440824Y-21186879D01*
X2459871Y-21158307D01*
X2469395Y-21120212D01*
X2469395Y-21044021D01*
X2459871Y-21024974D01*
X2450348Y-21015450D01*
X2431300Y-21005926D01*
X2393205Y-21005926D01*
X2374157Y-21015450D01*
X2364633Y-21024974D01*
X2355110Y-21044021D01*
X2355110Y-21091640D01*
X2364633Y-21110688D01*
X2374157Y-21120212D01*
X2393205Y-21129736D01*
X2431300Y-21129736D01*
X2450348Y-21120212D01*
X2459871Y-21110688D01*
X2469395Y-21091640D01*
X2593205Y-21005926D02*
X2612252Y-21005926D01*
X2631300Y-21015450D01*
X2640824Y-21024974D01*
X2650348Y-21044021D01*
X2659871Y-21082117D01*
X2659871Y-21129736D01*
X2650348Y-21167831D01*
X2640824Y-21186879D01*
X2631300Y-21196402D01*
X2612252Y-21205926D01*
X2593205Y-21205926D01*
X2574157Y-21196402D01*
X2564633Y-21186879D01*
X2555110Y-21167831D01*
X2545586Y-21129736D01*
X2545586Y-21082117D01*
X2555110Y-21044021D01*
X2564633Y-21024974D01*
X2574157Y-21015450D01*
X2593205Y-21005926D01*
X2783681Y-21005926D02*
X2802728Y-21005926D01*
X2821776Y-21015450D01*
X2831300Y-21024974D01*
X2840824Y-21044021D01*
X2850348Y-21082117D01*
X2850348Y-21129736D01*
X2840824Y-21167831D01*
X2831300Y-21186879D01*
X2821776Y-21196402D01*
X2802728Y-21205926D01*
X2783681Y-21205926D01*
X2764633Y-21196402D01*
X2755110Y-21186879D01*
X2745586Y-21167831D01*
X2736062Y-21129736D01*
X2736062Y-21082117D01*
X2745586Y-21044021D01*
X2755110Y-21024974D01*
X2764633Y-21015450D01*
X2783681Y-21005926D01*
X2936062Y-21205926D02*
X2936062Y-21072593D01*
X2936062Y-21091640D02*
X2945586Y-21082117D01*
X2964633Y-21072593D01*
X2993205Y-21072593D01*
X3012252Y-21082117D01*
X3021776Y-21101164D01*
X3021776Y-21205926D01*
X3021776Y-21101164D02*
X3031300Y-21082117D01*
X3050348Y-21072593D01*
X3078919Y-21072593D01*
X3097967Y-21082117D01*
X3107490Y-21101164D01*
X3107490Y-21205926D01*
X3202728Y-21205926D02*
X3202728Y-21072593D01*
X3202728Y-21091640D02*
X3212252Y-21082117D01*
X3231300Y-21072593D01*
X3259871Y-21072593D01*
X3278919Y-21082117D01*
X3288443Y-21101164D01*
X3288443Y-21205926D01*
X3288443Y-21101164D02*
X3297967Y-21082117D01*
X3317014Y-21072593D01*
X3345586Y-21072593D01*
X3364633Y-21082117D01*
X3374157Y-21101164D01*
X3374157Y-21205926D01*
X3764633Y-20996402D02*
X3593205Y-21253545D01*
X4021776Y-21005926D02*
X4040824Y-21005926D01*
X4059871Y-21015450D01*
X4069395Y-21024974D01*
X4078919Y-21044021D01*
X4088443Y-21082117D01*
X4088443Y-21129736D01*
X4078919Y-21167831D01*
X4069395Y-21186879D01*
X4059871Y-21196402D01*
X4040824Y-21205926D01*
X4021776Y-21205926D01*
X4002728Y-21196402D01*
X3993205Y-21186879D01*
X3983681Y-21167831D01*
X3974157Y-21129736D01*
X3974157Y-21082117D01*
X3983681Y-21044021D01*
X3993205Y-21024974D01*
X4002728Y-21015450D01*
X4021776Y-21005926D01*
X4174157Y-21186879D02*
X4183681Y-21196402D01*
X4174157Y-21205926D01*
X4164633Y-21196402D01*
X4174157Y-21186879D01*
X4174157Y-21205926D01*
X4307490Y-21005926D02*
X4326538Y-21005926D01*
X4345586Y-21015450D01*
X4355110Y-21024974D01*
X4364633Y-21044021D01*
X4374157Y-21082117D01*
X4374157Y-21129736D01*
X4364633Y-21167831D01*
X4355110Y-21186879D01*
X4345586Y-21196402D01*
X4326538Y-21205926D01*
X4307490Y-21205926D01*
X4288443Y-21196402D01*
X4278919Y-21186879D01*
X4269395Y-21167831D01*
X4259871Y-21129736D01*
X4259871Y-21082117D01*
X4269395Y-21044021D01*
X4278919Y-21024974D01*
X4288443Y-21015450D01*
X4307490Y-21005926D01*
X4440824Y-21005926D02*
X4564633Y-21005926D01*
X4497967Y-21082117D01*
X4526538Y-21082117D01*
X4545586Y-21091640D01*
X4555110Y-21101164D01*
X4564633Y-21120212D01*
X4564633Y-21167831D01*
X4555110Y-21186879D01*
X4545586Y-21196402D01*
X4526538Y-21205926D01*
X4469395Y-21205926D01*
X4450348Y-21196402D01*
X4440824Y-21186879D01*
X4745586Y-21005926D02*
X4650348Y-21005926D01*
X4640824Y-21101164D01*
X4650348Y-21091640D01*
X4669395Y-21082117D01*
X4717014Y-21082117D01*
X4736062Y-21091640D01*
X4745586Y-21101164D01*
X4755110Y-21120212D01*
X4755110Y-21167831D01*
X4745586Y-21186879D01*
X4736062Y-21196402D01*
X4717014Y-21205926D01*
X4669395Y-21205926D01*
X4650348Y-21196402D01*
X4640824Y-21186879D01*
X4926538Y-21072593D02*
X4926538Y-21205926D01*
X4878919Y-20996402D02*
X4831300Y-21139260D01*
X4955110Y-21139260D01*
X5021776Y-21005926D02*
X5021776Y-21044021D01*
X5097967Y-21005926D02*
X5097967Y-21044021D01*
X5393205Y-21282117D02*
X5383681Y-21272593D01*
X5364633Y-21244021D01*
X5355110Y-21224974D01*
X5345586Y-21196402D01*
X5336062Y-21148783D01*
X5336062Y-21110688D01*
X5345586Y-21063069D01*
X5355110Y-21034498D01*
X5364633Y-21015450D01*
X5383681Y-20986879D01*
X5393205Y-20977355D01*
X5555110Y-21005926D02*
X5517014Y-21005926D01*
X5497967Y-21015450D01*
X5488443Y-21024974D01*
X5469395Y-21053545D01*
X5459871Y-21091640D01*
X5459871Y-21167831D01*
X5469395Y-21186879D01*
X5478919Y-21196402D01*
X5497967Y-21205926D01*
X5536062Y-21205926D01*
X5555110Y-21196402D01*
X5564633Y-21186879D01*
X5574157Y-21167831D01*
X5574157Y-21120212D01*
X5564633Y-21101164D01*
X5555110Y-21091640D01*
X5536062Y-21082117D01*
X5497967Y-21082117D01*
X5478919Y-21091640D01*
X5469395Y-21101164D01*
X5459871Y-21120212D01*
X5812252Y-21205926D02*
X5812252Y-21005926D01*
X5897967Y-21205926D02*
X5897967Y-21101164D01*
X5888443Y-21082117D01*
X5869395Y-21072593D01*
X5840824Y-21072593D01*
X5821776Y-21082117D01*
X5812252Y-21091640D01*
X6021776Y-21205926D02*
X6002728Y-21196402D01*
X5993205Y-21186879D01*
X5983681Y-21167831D01*
X5983681Y-21110688D01*
X5993205Y-21091640D01*
X6002728Y-21082117D01*
X6021776Y-21072593D01*
X6050348Y-21072593D01*
X6069395Y-21082117D01*
X6078919Y-21091640D01*
X6088443Y-21110688D01*
X6088443Y-21167831D01*
X6078919Y-21186879D01*
X6069395Y-21196402D01*
X6050348Y-21205926D01*
X6021776Y-21205926D01*
X6202728Y-21205926D02*
X6183681Y-21196402D01*
X6174157Y-21177355D01*
X6174157Y-21005926D01*
X6355109Y-21196402D02*
X6336062Y-21205926D01*
X6297967Y-21205926D01*
X6278919Y-21196402D01*
X6269395Y-21177355D01*
X6269395Y-21101164D01*
X6278919Y-21082117D01*
X6297967Y-21072593D01*
X6336062Y-21072593D01*
X6355109Y-21082117D01*
X6364633Y-21101164D01*
X6364633Y-21120212D01*
X6269395Y-21139260D01*
X6440824Y-21196402D02*
X6459871Y-21205926D01*
X6497967Y-21205926D01*
X6517014Y-21196402D01*
X6526538Y-21177355D01*
X6526538Y-21167831D01*
X6517014Y-21148783D01*
X6497967Y-21139260D01*
X6469395Y-21139260D01*
X6450348Y-21129736D01*
X6440824Y-21110688D01*
X6440824Y-21101164D01*
X6450348Y-21082117D01*
X6469395Y-21072593D01*
X6497967Y-21072593D01*
X6517014Y-21082117D01*
X6593205Y-21282117D02*
X6602728Y-21272593D01*
X6621776Y-21244021D01*
X6631300Y-21224974D01*
X6640824Y-21196402D01*
X6650348Y-21148783D01*
X6650348Y-21110688D01*
X6640824Y-21063069D01*
X6631300Y-21034498D01*
X6621776Y-21015450D01*
X6602728Y-20986879D01*
X6593205Y-20977355D01*
D17*
X1721300Y-21329450D02*
X1821300Y-21429450D01*
X1821300Y-21329450D02*
X1721300Y-21429450D01*
X1821300Y-21379450D02*
G75*
G03*
X1821300Y-21379450I-50000J0D01*
G01*
D11*
X2183681Y-21469926D02*
X2069395Y-21469926D01*
X2126538Y-21469926D02*
X2126538Y-21269926D01*
X2107490Y-21298498D01*
X2088443Y-21317545D01*
X2069395Y-21327069D01*
X2269395Y-21450879D02*
X2278919Y-21460402D01*
X2269395Y-21469926D01*
X2259871Y-21460402D01*
X2269395Y-21450879D01*
X2269395Y-21469926D01*
X2402729Y-21269926D02*
X2421776Y-21269926D01*
X2440824Y-21279450D01*
X2450348Y-21288974D01*
X2459871Y-21308021D01*
X2469395Y-21346117D01*
X2469395Y-21393736D01*
X2459871Y-21431831D01*
X2450348Y-21450879D01*
X2440824Y-21460402D01*
X2421776Y-21469926D01*
X2402729Y-21469926D01*
X2383681Y-21460402D01*
X2374157Y-21450879D01*
X2364633Y-21431831D01*
X2355110Y-21393736D01*
X2355110Y-21346117D01*
X2364633Y-21308021D01*
X2374157Y-21288974D01*
X2383681Y-21279450D01*
X2402729Y-21269926D01*
X2593205Y-21269926D02*
X2612252Y-21269926D01*
X2631300Y-21279450D01*
X2640824Y-21288974D01*
X2650348Y-21308021D01*
X2659871Y-21346117D01*
X2659871Y-21393736D01*
X2650348Y-21431831D01*
X2640824Y-21450879D01*
X2631300Y-21460402D01*
X2612252Y-21469926D01*
X2593205Y-21469926D01*
X2574157Y-21460402D01*
X2564633Y-21450879D01*
X2555110Y-21431831D01*
X2545586Y-21393736D01*
X2545586Y-21346117D01*
X2555110Y-21308021D01*
X2564633Y-21288974D01*
X2574157Y-21279450D01*
X2593205Y-21269926D01*
X2783681Y-21269926D02*
X2802728Y-21269926D01*
X2821776Y-21279450D01*
X2831300Y-21288974D01*
X2840824Y-21308021D01*
X2850348Y-21346117D01*
X2850348Y-21393736D01*
X2840824Y-21431831D01*
X2831300Y-21450879D01*
X2821776Y-21460402D01*
X2802728Y-21469926D01*
X2783681Y-21469926D01*
X2764633Y-21460402D01*
X2755110Y-21450879D01*
X2745586Y-21431831D01*
X2736062Y-21393736D01*
X2736062Y-21346117D01*
X2745586Y-21308021D01*
X2755110Y-21288974D01*
X2764633Y-21279450D01*
X2783681Y-21269926D01*
X2936062Y-21469926D02*
X2936062Y-21336593D01*
X2936062Y-21355640D02*
X2945586Y-21346117D01*
X2964633Y-21336593D01*
X2993205Y-21336593D01*
X3012252Y-21346117D01*
X3021776Y-21365164D01*
X3021776Y-21469926D01*
X3021776Y-21365164D02*
X3031300Y-21346117D01*
X3050348Y-21336593D01*
X3078919Y-21336593D01*
X3097967Y-21346117D01*
X3107490Y-21365164D01*
X3107490Y-21469926D01*
X3202728Y-21469926D02*
X3202728Y-21336593D01*
X3202728Y-21355640D02*
X3212252Y-21346117D01*
X3231300Y-21336593D01*
X3259871Y-21336593D01*
X3278919Y-21346117D01*
X3288443Y-21365164D01*
X3288443Y-21469926D01*
X3288443Y-21365164D02*
X3297967Y-21346117D01*
X3317014Y-21336593D01*
X3345586Y-21336593D01*
X3364633Y-21346117D01*
X3374157Y-21365164D01*
X3374157Y-21469926D01*
X3764633Y-21260402D02*
X3593205Y-21517545D01*
X4021776Y-21269926D02*
X4040824Y-21269926D01*
X4059871Y-21279450D01*
X4069395Y-21288974D01*
X4078919Y-21308021D01*
X4088443Y-21346117D01*
X4088443Y-21393736D01*
X4078919Y-21431831D01*
X4069395Y-21450879D01*
X4059871Y-21460402D01*
X4040824Y-21469926D01*
X4021776Y-21469926D01*
X4002728Y-21460402D01*
X3993205Y-21450879D01*
X3983681Y-21431831D01*
X3974157Y-21393736D01*
X3974157Y-21346117D01*
X3983681Y-21308021D01*
X3993205Y-21288974D01*
X4002728Y-21279450D01*
X4021776Y-21269926D01*
X4174157Y-21450879D02*
X4183681Y-21460402D01*
X4174157Y-21469926D01*
X4164633Y-21460402D01*
X4174157Y-21450879D01*
X4174157Y-21469926D01*
X4307490Y-21269926D02*
X4326538Y-21269926D01*
X4345586Y-21279450D01*
X4355110Y-21288974D01*
X4364633Y-21308021D01*
X4374157Y-21346117D01*
X4374157Y-21393736D01*
X4364633Y-21431831D01*
X4355110Y-21450879D01*
X4345586Y-21460402D01*
X4326538Y-21469926D01*
X4307490Y-21469926D01*
X4288443Y-21460402D01*
X4278919Y-21450879D01*
X4269395Y-21431831D01*
X4259871Y-21393736D01*
X4259871Y-21346117D01*
X4269395Y-21308021D01*
X4278919Y-21288974D01*
X4288443Y-21279450D01*
X4307490Y-21269926D01*
X4440824Y-21269926D02*
X4564633Y-21269926D01*
X4497967Y-21346117D01*
X4526538Y-21346117D01*
X4545586Y-21355640D01*
X4555110Y-21365164D01*
X4564633Y-21384212D01*
X4564633Y-21431831D01*
X4555110Y-21450879D01*
X4545586Y-21460402D01*
X4526538Y-21469926D01*
X4469395Y-21469926D01*
X4450348Y-21460402D01*
X4440824Y-21450879D01*
X4659871Y-21469926D02*
X4697967Y-21469926D01*
X4717014Y-21460402D01*
X4726538Y-21450879D01*
X4745586Y-21422307D01*
X4755110Y-21384212D01*
X4755110Y-21308021D01*
X4745586Y-21288974D01*
X4736062Y-21279450D01*
X4717014Y-21269926D01*
X4678919Y-21269926D01*
X4659871Y-21279450D01*
X4650348Y-21288974D01*
X4640824Y-21308021D01*
X4640824Y-21355640D01*
X4650348Y-21374688D01*
X4659871Y-21384212D01*
X4678919Y-21393736D01*
X4717014Y-21393736D01*
X4736062Y-21384212D01*
X4745586Y-21374688D01*
X4755110Y-21355640D01*
X4926538Y-21336593D02*
X4926538Y-21469926D01*
X4878919Y-21260402D02*
X4831300Y-21403260D01*
X4955110Y-21403260D01*
X5021776Y-21269926D02*
X5021776Y-21308021D01*
X5097967Y-21269926D02*
X5097967Y-21308021D01*
X5393205Y-21546117D02*
X5383681Y-21536593D01*
X5364633Y-21508021D01*
X5355110Y-21488974D01*
X5345586Y-21460402D01*
X5336062Y-21412783D01*
X5336062Y-21374688D01*
X5345586Y-21327069D01*
X5355110Y-21298498D01*
X5364633Y-21279450D01*
X5383681Y-21250879D01*
X5393205Y-21241355D01*
X5497967Y-21355640D02*
X5478919Y-21346117D01*
X5469395Y-21336593D01*
X5459871Y-21317545D01*
X5459871Y-21308021D01*
X5469395Y-21288974D01*
X5478919Y-21279450D01*
X5497967Y-21269926D01*
X5536062Y-21269926D01*
X5555110Y-21279450D01*
X5564633Y-21288974D01*
X5574157Y-21308021D01*
X5574157Y-21317545D01*
X5564633Y-21336593D01*
X5555110Y-21346117D01*
X5536062Y-21355640D01*
X5497967Y-21355640D01*
X5478919Y-21365164D01*
X5469395Y-21374688D01*
X5459871Y-21393736D01*
X5459871Y-21431831D01*
X5469395Y-21450879D01*
X5478919Y-21460402D01*
X5497967Y-21469926D01*
X5536062Y-21469926D01*
X5555110Y-21460402D01*
X5564633Y-21450879D01*
X5574157Y-21431831D01*
X5574157Y-21393736D01*
X5564633Y-21374688D01*
X5555110Y-21365164D01*
X5536062Y-21355640D01*
X5764633Y-21469926D02*
X5650348Y-21469926D01*
X5707490Y-21469926D02*
X5707490Y-21269926D01*
X5688443Y-21298498D01*
X5669395Y-21317545D01*
X5650348Y-21327069D01*
X6002728Y-21469926D02*
X6002728Y-21269926D01*
X6088443Y-21469926D02*
X6088443Y-21365164D01*
X6078919Y-21346117D01*
X6059871Y-21336593D01*
X6031300Y-21336593D01*
X6012252Y-21346117D01*
X6002728Y-21355640D01*
X6212252Y-21469926D02*
X6193205Y-21460402D01*
X6183681Y-21450879D01*
X6174157Y-21431831D01*
X6174157Y-21374688D01*
X6183681Y-21355640D01*
X6193205Y-21346117D01*
X6212252Y-21336593D01*
X6240824Y-21336593D01*
X6259871Y-21346117D01*
X6269395Y-21355640D01*
X6278919Y-21374688D01*
X6278919Y-21431831D01*
X6269395Y-21450879D01*
X6259871Y-21460402D01*
X6240824Y-21469926D01*
X6212252Y-21469926D01*
X6393205Y-21469926D02*
X6374157Y-21460402D01*
X6364633Y-21441355D01*
X6364633Y-21269926D01*
X6545586Y-21460402D02*
X6526538Y-21469926D01*
X6488443Y-21469926D01*
X6469395Y-21460402D01*
X6459871Y-21441355D01*
X6459871Y-21365164D01*
X6469395Y-21346117D01*
X6488443Y-21336593D01*
X6526538Y-21336593D01*
X6545586Y-21346117D01*
X6555109Y-21365164D01*
X6555109Y-21384212D01*
X6459871Y-21403260D01*
X6631300Y-21460402D02*
X6650348Y-21469926D01*
X6688443Y-21469926D01*
X6707490Y-21460402D01*
X6717014Y-21441355D01*
X6717014Y-21431831D01*
X6707490Y-21412783D01*
X6688443Y-21403260D01*
X6659871Y-21403260D01*
X6640824Y-21393736D01*
X6631300Y-21374688D01*
X6631300Y-21365164D01*
X6640824Y-21346117D01*
X6659871Y-21336593D01*
X6688443Y-21336593D01*
X6707490Y-21346117D01*
X6955109Y-21393736D02*
X7107490Y-21393736D01*
X7031300Y-21469926D02*
X7031300Y-21317545D01*
X7336062Y-21269926D02*
X7459871Y-21269926D01*
X7393205Y-21346117D01*
X7421776Y-21346117D01*
X7440824Y-21355640D01*
X7450348Y-21365164D01*
X7459871Y-21384212D01*
X7459871Y-21431831D01*
X7450348Y-21450879D01*
X7440824Y-21460402D01*
X7421776Y-21469926D01*
X7364633Y-21469926D01*
X7345586Y-21460402D01*
X7336062Y-21450879D01*
X7688443Y-21460402D02*
X7707490Y-21469926D01*
X7745586Y-21469926D01*
X7764633Y-21460402D01*
X7774157Y-21441355D01*
X7774157Y-21431831D01*
X7764633Y-21412783D01*
X7745586Y-21403260D01*
X7717014Y-21403260D01*
X7697967Y-21393736D01*
X7688443Y-21374688D01*
X7688443Y-21365164D01*
X7697967Y-21346117D01*
X7717014Y-21336593D01*
X7745586Y-21336593D01*
X7764633Y-21346117D01*
X7888443Y-21469926D02*
X7869395Y-21460402D01*
X7859871Y-21441355D01*
X7859871Y-21269926D01*
X7993205Y-21469926D02*
X7974157Y-21460402D01*
X7964633Y-21450879D01*
X7955109Y-21431831D01*
X7955109Y-21374688D01*
X7964633Y-21355640D01*
X7974157Y-21346117D01*
X7993205Y-21336593D01*
X8021776Y-21336593D01*
X8040824Y-21346117D01*
X8050348Y-21355640D01*
X8059871Y-21374688D01*
X8059871Y-21431831D01*
X8050348Y-21450879D01*
X8040824Y-21460402D01*
X8021776Y-21469926D01*
X7993205Y-21469926D01*
X8117014Y-21336593D02*
X8193205Y-21336593D01*
X8145586Y-21269926D02*
X8145586Y-21441355D01*
X8155109Y-21460402D01*
X8174157Y-21469926D01*
X8193205Y-21469926D01*
X8250348Y-21460402D02*
X8269395Y-21469926D01*
X8307490Y-21469926D01*
X8326538Y-21460402D01*
X8336062Y-21441355D01*
X8336062Y-21431831D01*
X8326538Y-21412783D01*
X8307490Y-21403260D01*
X8278919Y-21403260D01*
X8259871Y-21393736D01*
X8250348Y-21374688D01*
X8250348Y-21365164D01*
X8259871Y-21346117D01*
X8278919Y-21336593D01*
X8307490Y-21336593D01*
X8326538Y-21346117D01*
X8402729Y-21546117D02*
X8412252Y-21536593D01*
X8431300Y-21508021D01*
X8440824Y-21488974D01*
X8450348Y-21460402D01*
X8459871Y-21412783D01*
X8459871Y-21374688D01*
X8450348Y-21327069D01*
X8440824Y-21298498D01*
X8431300Y-21279450D01*
X8412252Y-21250879D01*
X8402729Y-21241355D01*
D18*
X1711300Y-21588450D02*
X1821300Y-21698450D01*
X1821300Y-21588450D02*
X1711300Y-21698450D01*
X1766300Y-21588450D02*
X1766300Y-21698450D01*
X1711300Y-21643450D02*
X1821300Y-21643450D01*
D11*
X2183681Y-21733926D02*
X2069395Y-21733926D01*
X2126538Y-21733926D02*
X2126538Y-21533926D01*
X2107490Y-21562498D01*
X2088443Y-21581545D01*
X2069395Y-21591069D01*
X2269395Y-21714879D02*
X2278919Y-21724402D01*
X2269395Y-21733926D01*
X2259871Y-21724402D01*
X2269395Y-21714879D01*
X2269395Y-21733926D01*
X2469395Y-21733926D02*
X2355110Y-21733926D01*
X2412252Y-21733926D02*
X2412252Y-21533926D01*
X2393205Y-21562498D01*
X2374157Y-21581545D01*
X2355110Y-21591069D01*
X2593205Y-21533926D02*
X2612252Y-21533926D01*
X2631300Y-21543450D01*
X2640824Y-21552974D01*
X2650348Y-21572021D01*
X2659871Y-21610117D01*
X2659871Y-21657736D01*
X2650348Y-21695831D01*
X2640824Y-21714879D01*
X2631300Y-21724402D01*
X2612252Y-21733926D01*
X2593205Y-21733926D01*
X2574157Y-21724402D01*
X2564633Y-21714879D01*
X2555110Y-21695831D01*
X2545586Y-21657736D01*
X2545586Y-21610117D01*
X2555110Y-21572021D01*
X2564633Y-21552974D01*
X2574157Y-21543450D01*
X2593205Y-21533926D01*
X2783681Y-21533926D02*
X2802728Y-21533926D01*
X2821776Y-21543450D01*
X2831300Y-21552974D01*
X2840824Y-21572021D01*
X2850348Y-21610117D01*
X2850348Y-21657736D01*
X2840824Y-21695831D01*
X2831300Y-21714879D01*
X2821776Y-21724402D01*
X2802728Y-21733926D01*
X2783681Y-21733926D01*
X2764633Y-21724402D01*
X2755110Y-21714879D01*
X2745586Y-21695831D01*
X2736062Y-21657736D01*
X2736062Y-21610117D01*
X2745586Y-21572021D01*
X2755110Y-21552974D01*
X2764633Y-21543450D01*
X2783681Y-21533926D01*
X2936062Y-21733926D02*
X2936062Y-21600593D01*
X2936062Y-21619640D02*
X2945586Y-21610117D01*
X2964633Y-21600593D01*
X2993205Y-21600593D01*
X3012252Y-21610117D01*
X3021776Y-21629164D01*
X3021776Y-21733926D01*
X3021776Y-21629164D02*
X3031300Y-21610117D01*
X3050348Y-21600593D01*
X3078919Y-21600593D01*
X3097967Y-21610117D01*
X3107490Y-21629164D01*
X3107490Y-21733926D01*
X3202728Y-21733926D02*
X3202728Y-21600593D01*
X3202728Y-21619640D02*
X3212252Y-21610117D01*
X3231300Y-21600593D01*
X3259871Y-21600593D01*
X3278919Y-21610117D01*
X3288443Y-21629164D01*
X3288443Y-21733926D01*
X3288443Y-21629164D02*
X3297967Y-21610117D01*
X3317014Y-21600593D01*
X3345586Y-21600593D01*
X3364633Y-21610117D01*
X3374157Y-21629164D01*
X3374157Y-21733926D01*
X3764633Y-21524402D02*
X3593205Y-21781545D01*
X4021776Y-21533926D02*
X4040824Y-21533926D01*
X4059871Y-21543450D01*
X4069395Y-21552974D01*
X4078919Y-21572021D01*
X4088443Y-21610117D01*
X4088443Y-21657736D01*
X4078919Y-21695831D01*
X4069395Y-21714879D01*
X4059871Y-21724402D01*
X4040824Y-21733926D01*
X4021776Y-21733926D01*
X4002728Y-21724402D01*
X3993205Y-21714879D01*
X3983681Y-21695831D01*
X3974157Y-21657736D01*
X3974157Y-21610117D01*
X3983681Y-21572021D01*
X3993205Y-21552974D01*
X4002728Y-21543450D01*
X4021776Y-21533926D01*
X4174157Y-21714879D02*
X4183681Y-21724402D01*
X4174157Y-21733926D01*
X4164633Y-21724402D01*
X4174157Y-21714879D01*
X4174157Y-21733926D01*
X4307490Y-21533926D02*
X4326538Y-21533926D01*
X4345586Y-21543450D01*
X4355110Y-21552974D01*
X4364633Y-21572021D01*
X4374157Y-21610117D01*
X4374157Y-21657736D01*
X4364633Y-21695831D01*
X4355110Y-21714879D01*
X4345586Y-21724402D01*
X4326538Y-21733926D01*
X4307490Y-21733926D01*
X4288443Y-21724402D01*
X4278919Y-21714879D01*
X4269395Y-21695831D01*
X4259871Y-21657736D01*
X4259871Y-21610117D01*
X4269395Y-21572021D01*
X4278919Y-21552974D01*
X4288443Y-21543450D01*
X4307490Y-21533926D01*
X4545586Y-21600593D02*
X4545586Y-21733926D01*
X4497967Y-21524402D02*
X4450348Y-21667260D01*
X4574157Y-21667260D01*
X4631300Y-21533926D02*
X4755110Y-21533926D01*
X4688443Y-21610117D01*
X4717014Y-21610117D01*
X4736062Y-21619640D01*
X4745586Y-21629164D01*
X4755110Y-21648212D01*
X4755110Y-21695831D01*
X4745586Y-21714879D01*
X4736062Y-21724402D01*
X4717014Y-21733926D01*
X4659871Y-21733926D01*
X4640824Y-21724402D01*
X4631300Y-21714879D01*
X4821776Y-21533926D02*
X4945586Y-21533926D01*
X4878919Y-21610117D01*
X4907490Y-21610117D01*
X4926538Y-21619640D01*
X4936062Y-21629164D01*
X4945586Y-21648212D01*
X4945586Y-21695831D01*
X4936062Y-21714879D01*
X4926538Y-21724402D01*
X4907490Y-21733926D01*
X4850348Y-21733926D01*
X4831300Y-21724402D01*
X4821776Y-21714879D01*
X5021776Y-21533926D02*
X5021776Y-21572021D01*
X5097967Y-21533926D02*
X5097967Y-21572021D01*
X5393205Y-21810117D02*
X5383681Y-21800593D01*
X5364633Y-21772021D01*
X5355110Y-21752974D01*
X5345586Y-21724402D01*
X5336062Y-21676783D01*
X5336062Y-21638688D01*
X5345586Y-21591069D01*
X5355110Y-21562498D01*
X5364633Y-21543450D01*
X5383681Y-21514879D01*
X5393205Y-21505355D01*
X5497967Y-21619640D02*
X5478919Y-21610117D01*
X5469395Y-21600593D01*
X5459871Y-21581545D01*
X5459871Y-21572021D01*
X5469395Y-21552974D01*
X5478919Y-21543450D01*
X5497967Y-21533926D01*
X5536062Y-21533926D01*
X5555110Y-21543450D01*
X5564633Y-21552974D01*
X5574157Y-21572021D01*
X5574157Y-21581545D01*
X5564633Y-21600593D01*
X5555110Y-21610117D01*
X5536062Y-21619640D01*
X5497967Y-21619640D01*
X5478919Y-21629164D01*
X5469395Y-21638688D01*
X5459871Y-21657736D01*
X5459871Y-21695831D01*
X5469395Y-21714879D01*
X5478919Y-21724402D01*
X5497967Y-21733926D01*
X5536062Y-21733926D01*
X5555110Y-21724402D01*
X5564633Y-21714879D01*
X5574157Y-21695831D01*
X5574157Y-21657736D01*
X5564633Y-21638688D01*
X5555110Y-21629164D01*
X5536062Y-21619640D01*
X5812252Y-21733926D02*
X5812252Y-21533926D01*
X5897967Y-21733926D02*
X5897967Y-21629164D01*
X5888443Y-21610117D01*
X5869395Y-21600593D01*
X5840824Y-21600593D01*
X5821776Y-21610117D01*
X5812252Y-21619640D01*
X6021776Y-21733926D02*
X6002728Y-21724402D01*
X5993205Y-21714879D01*
X5983681Y-21695831D01*
X5983681Y-21638688D01*
X5993205Y-21619640D01*
X6002728Y-21610117D01*
X6021776Y-21600593D01*
X6050348Y-21600593D01*
X6069395Y-21610117D01*
X6078919Y-21619640D01*
X6088443Y-21638688D01*
X6088443Y-21695831D01*
X6078919Y-21714879D01*
X6069395Y-21724402D01*
X6050348Y-21733926D01*
X6021776Y-21733926D01*
X6202728Y-21733926D02*
X6183681Y-21724402D01*
X6174157Y-21705355D01*
X6174157Y-21533926D01*
X6355109Y-21724402D02*
X6336062Y-21733926D01*
X6297967Y-21733926D01*
X6278919Y-21724402D01*
X6269395Y-21705355D01*
X6269395Y-21629164D01*
X6278919Y-21610117D01*
X6297967Y-21600593D01*
X6336062Y-21600593D01*
X6355109Y-21610117D01*
X6364633Y-21629164D01*
X6364633Y-21648212D01*
X6269395Y-21667260D01*
X6440824Y-21724402D02*
X6459871Y-21733926D01*
X6497967Y-21733926D01*
X6517014Y-21724402D01*
X6526538Y-21705355D01*
X6526538Y-21695831D01*
X6517014Y-21676783D01*
X6497967Y-21667260D01*
X6469395Y-21667260D01*
X6450348Y-21657736D01*
X6440824Y-21638688D01*
X6440824Y-21629164D01*
X6450348Y-21610117D01*
X6469395Y-21600593D01*
X6497967Y-21600593D01*
X6517014Y-21610117D01*
X6593205Y-21810117D02*
X6602728Y-21800593D01*
X6621776Y-21772021D01*
X6631300Y-21752974D01*
X6640824Y-21724402D01*
X6650348Y-21676783D01*
X6650348Y-21638688D01*
X6640824Y-21591069D01*
X6631300Y-21562498D01*
X6621776Y-21543450D01*
X6602728Y-21514879D01*
X6593205Y-21505355D01*
D19*
X1709540Y-21851570D02*
X1821300Y-21963330D01*
X1821300Y-21851570D02*
X1709540Y-21963330D01*
X1804933Y-21946964D02*
X1804933Y-21867937D01*
X1725906Y-21867937D01*
X1725906Y-21946964D01*
X1804933Y-21946964D01*
D11*
X2183681Y-21997926D02*
X2069395Y-21997926D01*
X2126538Y-21997926D02*
X2126538Y-21797926D01*
X2107490Y-21826498D01*
X2088443Y-21845545D01*
X2069395Y-21855069D01*
X2269395Y-21978879D02*
X2278919Y-21988402D01*
X2269395Y-21997926D01*
X2259871Y-21988402D01*
X2269395Y-21978879D01*
X2269395Y-21997926D01*
X2469395Y-21997926D02*
X2355110Y-21997926D01*
X2412252Y-21997926D02*
X2412252Y-21797926D01*
X2393205Y-21826498D01*
X2374157Y-21845545D01*
X2355110Y-21855069D01*
X2659871Y-21997926D02*
X2545586Y-21997926D01*
X2602729Y-21997926D02*
X2602729Y-21797926D01*
X2583681Y-21826498D01*
X2564633Y-21845545D01*
X2545586Y-21855069D01*
X2774157Y-21883640D02*
X2755110Y-21874117D01*
X2745586Y-21864593D01*
X2736062Y-21845545D01*
X2736062Y-21836021D01*
X2745586Y-21816974D01*
X2755110Y-21807450D01*
X2774157Y-21797926D01*
X2812252Y-21797926D01*
X2831300Y-21807450D01*
X2840824Y-21816974D01*
X2850348Y-21836021D01*
X2850348Y-21845545D01*
X2840824Y-21864593D01*
X2831300Y-21874117D01*
X2812252Y-21883640D01*
X2774157Y-21883640D01*
X2755110Y-21893164D01*
X2745586Y-21902688D01*
X2736062Y-21921736D01*
X2736062Y-21959831D01*
X2745586Y-21978879D01*
X2755110Y-21988402D01*
X2774157Y-21997926D01*
X2812252Y-21997926D01*
X2831300Y-21988402D01*
X2840824Y-21978879D01*
X2850348Y-21959831D01*
X2850348Y-21921736D01*
X2840824Y-21902688D01*
X2831300Y-21893164D01*
X2812252Y-21883640D01*
X2936062Y-21997926D02*
X2936062Y-21864593D01*
X2936062Y-21883640D02*
X2945586Y-21874117D01*
X2964633Y-21864593D01*
X2993205Y-21864593D01*
X3012252Y-21874117D01*
X3021776Y-21893164D01*
X3021776Y-21997926D01*
X3021776Y-21893164D02*
X3031300Y-21874117D01*
X3050348Y-21864593D01*
X3078919Y-21864593D01*
X3097967Y-21874117D01*
X3107490Y-21893164D01*
X3107490Y-21997926D01*
X3202728Y-21997926D02*
X3202728Y-21864593D01*
X3202728Y-21883640D02*
X3212252Y-21874117D01*
X3231300Y-21864593D01*
X3259871Y-21864593D01*
X3278919Y-21874117D01*
X3288443Y-21893164D01*
X3288443Y-21997926D01*
X3288443Y-21893164D02*
X3297967Y-21874117D01*
X3317014Y-21864593D01*
X3345586Y-21864593D01*
X3364633Y-21874117D01*
X3374157Y-21893164D01*
X3374157Y-21997926D01*
X3764633Y-21788402D02*
X3593205Y-22045545D01*
X4021776Y-21797926D02*
X4040824Y-21797926D01*
X4059871Y-21807450D01*
X4069395Y-21816974D01*
X4078919Y-21836021D01*
X4088443Y-21874117D01*
X4088443Y-21921736D01*
X4078919Y-21959831D01*
X4069395Y-21978879D01*
X4059871Y-21988402D01*
X4040824Y-21997926D01*
X4021776Y-21997926D01*
X4002728Y-21988402D01*
X3993205Y-21978879D01*
X3983681Y-21959831D01*
X3974157Y-21921736D01*
X3974157Y-21874117D01*
X3983681Y-21836021D01*
X3993205Y-21816974D01*
X4002728Y-21807450D01*
X4021776Y-21797926D01*
X4174157Y-21978879D02*
X4183681Y-21988402D01*
X4174157Y-21997926D01*
X4164633Y-21988402D01*
X4174157Y-21978879D01*
X4174157Y-21997926D01*
X4307490Y-21797926D02*
X4326538Y-21797926D01*
X4345586Y-21807450D01*
X4355110Y-21816974D01*
X4364633Y-21836021D01*
X4374157Y-21874117D01*
X4374157Y-21921736D01*
X4364633Y-21959831D01*
X4355110Y-21978879D01*
X4345586Y-21988402D01*
X4326538Y-21997926D01*
X4307490Y-21997926D01*
X4288443Y-21988402D01*
X4278919Y-21978879D01*
X4269395Y-21959831D01*
X4259871Y-21921736D01*
X4259871Y-21874117D01*
X4269395Y-21836021D01*
X4278919Y-21816974D01*
X4288443Y-21807450D01*
X4307490Y-21797926D01*
X4545586Y-21864593D02*
X4545586Y-21997926D01*
X4497967Y-21788402D02*
X4450348Y-21931260D01*
X4574157Y-21931260D01*
X4736062Y-21864593D02*
X4736062Y-21997926D01*
X4688443Y-21788402D02*
X4640824Y-21931260D01*
X4764633Y-21931260D01*
X4878919Y-21797926D02*
X4897967Y-21797926D01*
X4917014Y-21807450D01*
X4926538Y-21816974D01*
X4936062Y-21836021D01*
X4945586Y-21874117D01*
X4945586Y-21921736D01*
X4936062Y-21959831D01*
X4926538Y-21978879D01*
X4917014Y-21988402D01*
X4897967Y-21997926D01*
X4878919Y-21997926D01*
X4859871Y-21988402D01*
X4850348Y-21978879D01*
X4840824Y-21959831D01*
X4831300Y-21921736D01*
X4831300Y-21874117D01*
X4840824Y-21836021D01*
X4850348Y-21816974D01*
X4859871Y-21807450D01*
X4878919Y-21797926D01*
X5021776Y-21797926D02*
X5021776Y-21836021D01*
X5097967Y-21797926D02*
X5097967Y-21836021D01*
X5393205Y-22074117D02*
X5383681Y-22064593D01*
X5364633Y-22036021D01*
X5355110Y-22016974D01*
X5345586Y-21988402D01*
X5336062Y-21940783D01*
X5336062Y-21902688D01*
X5345586Y-21855069D01*
X5355110Y-21826498D01*
X5364633Y-21807450D01*
X5383681Y-21778879D01*
X5393205Y-21769355D01*
X5450348Y-21797926D02*
X5574157Y-21797926D01*
X5507490Y-21874117D01*
X5536062Y-21874117D01*
X5555110Y-21883640D01*
X5564633Y-21893164D01*
X5574157Y-21912212D01*
X5574157Y-21959831D01*
X5564633Y-21978879D01*
X5555110Y-21988402D01*
X5536062Y-21997926D01*
X5478919Y-21997926D01*
X5459871Y-21988402D01*
X5450348Y-21978879D01*
X5812252Y-21997926D02*
X5812252Y-21797926D01*
X5897967Y-21997926D02*
X5897967Y-21893164D01*
X5888443Y-21874117D01*
X5869395Y-21864593D01*
X5840824Y-21864593D01*
X5821776Y-21874117D01*
X5812252Y-21883640D01*
X6021776Y-21997926D02*
X6002728Y-21988402D01*
X5993205Y-21978879D01*
X5983681Y-21959831D01*
X5983681Y-21902688D01*
X5993205Y-21883640D01*
X6002728Y-21874117D01*
X6021776Y-21864593D01*
X6050348Y-21864593D01*
X6069395Y-21874117D01*
X6078919Y-21883640D01*
X6088443Y-21902688D01*
X6088443Y-21959831D01*
X6078919Y-21978879D01*
X6069395Y-21988402D01*
X6050348Y-21997926D01*
X6021776Y-21997926D01*
X6202728Y-21997926D02*
X6183681Y-21988402D01*
X6174157Y-21969355D01*
X6174157Y-21797926D01*
X6355109Y-21988402D02*
X6336062Y-21997926D01*
X6297967Y-21997926D01*
X6278919Y-21988402D01*
X6269395Y-21969355D01*
X6269395Y-21893164D01*
X6278919Y-21874117D01*
X6297967Y-21864593D01*
X6336062Y-21864593D01*
X6355109Y-21874117D01*
X6364633Y-21893164D01*
X6364633Y-21912212D01*
X6269395Y-21931260D01*
X6440824Y-21988402D02*
X6459871Y-21997926D01*
X6497967Y-21997926D01*
X6517014Y-21988402D01*
X6526538Y-21969355D01*
X6526538Y-21959831D01*
X6517014Y-21940783D01*
X6497967Y-21931260D01*
X6469395Y-21931260D01*
X6450348Y-21921736D01*
X6440824Y-21902688D01*
X6440824Y-21893164D01*
X6450348Y-21874117D01*
X6469395Y-21864593D01*
X6497967Y-21864593D01*
X6517014Y-21874117D01*
X6593205Y-22074117D02*
X6602728Y-22064593D01*
X6621776Y-22036021D01*
X6631300Y-22016974D01*
X6640824Y-21988402D01*
X6650348Y-21940783D01*
X6650348Y-21902688D01*
X6640824Y-21855069D01*
X6631300Y-21826498D01*
X6621776Y-21807450D01*
X6602728Y-21778879D01*
X6593205Y-21769355D01*
D20*
X1701300Y-22111450D02*
X1821300Y-22231450D01*
X1821300Y-22111450D02*
X1701300Y-22231450D01*
X1761300Y-22231450D02*
X1821300Y-22171450D01*
X1761300Y-22111450D01*
X1701300Y-22171450D01*
X1761300Y-22231450D01*
D11*
X2183681Y-22261926D02*
X2069395Y-22261926D01*
X2126538Y-22261926D02*
X2126538Y-22061926D01*
X2107490Y-22090498D01*
X2088443Y-22109545D01*
X2069395Y-22119069D01*
X2269395Y-22242879D02*
X2278919Y-22252402D01*
X2269395Y-22261926D01*
X2259871Y-22252402D01*
X2269395Y-22242879D01*
X2269395Y-22261926D01*
X2355110Y-22080974D02*
X2364633Y-22071450D01*
X2383681Y-22061926D01*
X2431300Y-22061926D01*
X2450348Y-22071450D01*
X2459871Y-22080974D01*
X2469395Y-22100021D01*
X2469395Y-22119069D01*
X2459871Y-22147640D01*
X2345586Y-22261926D01*
X2469395Y-22261926D01*
X2593205Y-22061926D02*
X2612252Y-22061926D01*
X2631300Y-22071450D01*
X2640824Y-22080974D01*
X2650348Y-22100021D01*
X2659871Y-22138117D01*
X2659871Y-22185736D01*
X2650348Y-22223831D01*
X2640824Y-22242879D01*
X2631300Y-22252402D01*
X2612252Y-22261926D01*
X2593205Y-22261926D01*
X2574157Y-22252402D01*
X2564633Y-22242879D01*
X2555110Y-22223831D01*
X2545586Y-22185736D01*
X2545586Y-22138117D01*
X2555110Y-22100021D01*
X2564633Y-22080974D01*
X2574157Y-22071450D01*
X2593205Y-22061926D01*
X2783681Y-22061926D02*
X2802728Y-22061926D01*
X2821776Y-22071450D01*
X2831300Y-22080974D01*
X2840824Y-22100021D01*
X2850348Y-22138117D01*
X2850348Y-22185736D01*
X2840824Y-22223831D01*
X2831300Y-22242879D01*
X2821776Y-22252402D01*
X2802728Y-22261926D01*
X2783681Y-22261926D01*
X2764633Y-22252402D01*
X2755110Y-22242879D01*
X2745586Y-22223831D01*
X2736062Y-22185736D01*
X2736062Y-22138117D01*
X2745586Y-22100021D01*
X2755110Y-22080974D01*
X2764633Y-22071450D01*
X2783681Y-22061926D01*
X2936062Y-22261926D02*
X2936062Y-22128593D01*
X2936062Y-22147640D02*
X2945586Y-22138117D01*
X2964633Y-22128593D01*
X2993205Y-22128593D01*
X3012252Y-22138117D01*
X3021776Y-22157164D01*
X3021776Y-22261926D01*
X3021776Y-22157164D02*
X3031300Y-22138117D01*
X3050348Y-22128593D01*
X3078919Y-22128593D01*
X3097967Y-22138117D01*
X3107490Y-22157164D01*
X3107490Y-22261926D01*
X3202728Y-22261926D02*
X3202728Y-22128593D01*
X3202728Y-22147640D02*
X3212252Y-22138117D01*
X3231300Y-22128593D01*
X3259871Y-22128593D01*
X3278919Y-22138117D01*
X3288443Y-22157164D01*
X3288443Y-22261926D01*
X3288443Y-22157164D02*
X3297967Y-22138117D01*
X3317014Y-22128593D01*
X3345586Y-22128593D01*
X3364633Y-22138117D01*
X3374157Y-22157164D01*
X3374157Y-22261926D01*
X3764633Y-22052402D02*
X3593205Y-22309545D01*
X4021776Y-22061926D02*
X4040824Y-22061926D01*
X4059871Y-22071450D01*
X4069395Y-22080974D01*
X4078919Y-22100021D01*
X4088443Y-22138117D01*
X4088443Y-22185736D01*
X4078919Y-22223831D01*
X4069395Y-22242879D01*
X4059871Y-22252402D01*
X4040824Y-22261926D01*
X4021776Y-22261926D01*
X4002728Y-22252402D01*
X3993205Y-22242879D01*
X3983681Y-22223831D01*
X3974157Y-22185736D01*
X3974157Y-22138117D01*
X3983681Y-22100021D01*
X3993205Y-22080974D01*
X4002728Y-22071450D01*
X4021776Y-22061926D01*
X4174157Y-22242879D02*
X4183681Y-22252402D01*
X4174157Y-22261926D01*
X4164633Y-22252402D01*
X4174157Y-22242879D01*
X4174157Y-22261926D01*
X4307490Y-22061926D02*
X4326538Y-22061926D01*
X4345586Y-22071450D01*
X4355110Y-22080974D01*
X4364633Y-22100021D01*
X4374157Y-22138117D01*
X4374157Y-22185736D01*
X4364633Y-22223831D01*
X4355110Y-22242879D01*
X4345586Y-22252402D01*
X4326538Y-22261926D01*
X4307490Y-22261926D01*
X4288443Y-22252402D01*
X4278919Y-22242879D01*
X4269395Y-22223831D01*
X4259871Y-22185736D01*
X4259871Y-22138117D01*
X4269395Y-22100021D01*
X4278919Y-22080974D01*
X4288443Y-22071450D01*
X4307490Y-22061926D01*
X4545586Y-22128593D02*
X4545586Y-22261926D01*
X4497967Y-22052402D02*
X4450348Y-22195260D01*
X4574157Y-22195260D01*
X4631300Y-22061926D02*
X4764633Y-22061926D01*
X4678919Y-22261926D01*
X4831300Y-22080974D02*
X4840824Y-22071450D01*
X4859871Y-22061926D01*
X4907490Y-22061926D01*
X4926538Y-22071450D01*
X4936062Y-22080974D01*
X4945586Y-22100021D01*
X4945586Y-22119069D01*
X4936062Y-22147640D01*
X4821776Y-22261926D01*
X4945586Y-22261926D01*
X5021776Y-22061926D02*
X5021776Y-22100021D01*
X5097967Y-22061926D02*
X5097967Y-22100021D01*
X5393205Y-22338117D02*
X5383681Y-22328593D01*
X5364633Y-22300021D01*
X5355110Y-22280974D01*
X5345586Y-22252402D01*
X5336062Y-22204783D01*
X5336062Y-22166688D01*
X5345586Y-22119069D01*
X5355110Y-22090498D01*
X5364633Y-22071450D01*
X5383681Y-22042879D01*
X5393205Y-22033355D01*
X5459871Y-22080974D02*
X5469395Y-22071450D01*
X5488443Y-22061926D01*
X5536062Y-22061926D01*
X5555110Y-22071450D01*
X5564633Y-22080974D01*
X5574157Y-22100021D01*
X5574157Y-22119069D01*
X5564633Y-22147640D01*
X5450348Y-22261926D01*
X5574157Y-22261926D01*
X5688443Y-22147640D02*
X5669395Y-22138117D01*
X5659871Y-22128593D01*
X5650348Y-22109545D01*
X5650348Y-22100021D01*
X5659871Y-22080974D01*
X5669395Y-22071450D01*
X5688443Y-22061926D01*
X5726538Y-22061926D01*
X5745586Y-22071450D01*
X5755109Y-22080974D01*
X5764633Y-22100021D01*
X5764633Y-22109545D01*
X5755109Y-22128593D01*
X5745586Y-22138117D01*
X5726538Y-22147640D01*
X5688443Y-22147640D01*
X5669395Y-22157164D01*
X5659871Y-22166688D01*
X5650348Y-22185736D01*
X5650348Y-22223831D01*
X5659871Y-22242879D01*
X5669395Y-22252402D01*
X5688443Y-22261926D01*
X5726538Y-22261926D01*
X5745586Y-22252402D01*
X5755109Y-22242879D01*
X5764633Y-22223831D01*
X5764633Y-22185736D01*
X5755109Y-22166688D01*
X5745586Y-22157164D01*
X5726538Y-22147640D01*
X6002728Y-22261926D02*
X6002728Y-22061926D01*
X6088443Y-22261926D02*
X6088443Y-22157164D01*
X6078919Y-22138117D01*
X6059871Y-22128593D01*
X6031300Y-22128593D01*
X6012252Y-22138117D01*
X6002728Y-22147640D01*
X6212252Y-22261926D02*
X6193205Y-22252402D01*
X6183681Y-22242879D01*
X6174157Y-22223831D01*
X6174157Y-22166688D01*
X6183681Y-22147640D01*
X6193205Y-22138117D01*
X6212252Y-22128593D01*
X6240824Y-22128593D01*
X6259871Y-22138117D01*
X6269395Y-22147640D01*
X6278919Y-22166688D01*
X6278919Y-22223831D01*
X6269395Y-22242879D01*
X6259871Y-22252402D01*
X6240824Y-22261926D01*
X6212252Y-22261926D01*
X6393205Y-22261926D02*
X6374157Y-22252402D01*
X6364633Y-22233355D01*
X6364633Y-22061926D01*
X6545586Y-22252402D02*
X6526538Y-22261926D01*
X6488443Y-22261926D01*
X6469395Y-22252402D01*
X6459871Y-22233355D01*
X6459871Y-22157164D01*
X6469395Y-22138117D01*
X6488443Y-22128593D01*
X6526538Y-22128593D01*
X6545586Y-22138117D01*
X6555109Y-22157164D01*
X6555109Y-22176212D01*
X6459871Y-22195260D01*
X6631300Y-22252402D02*
X6650348Y-22261926D01*
X6688443Y-22261926D01*
X6707490Y-22252402D01*
X6717014Y-22233355D01*
X6717014Y-22223831D01*
X6707490Y-22204783D01*
X6688443Y-22195260D01*
X6659871Y-22195260D01*
X6640824Y-22185736D01*
X6631300Y-22166688D01*
X6631300Y-22157164D01*
X6640824Y-22138117D01*
X6659871Y-22128593D01*
X6688443Y-22128593D01*
X6707490Y-22138117D01*
X6783681Y-22338117D02*
X6793205Y-22328593D01*
X6812252Y-22300021D01*
X6821776Y-22280974D01*
X6831300Y-22252402D01*
X6840824Y-22204783D01*
X6840824Y-22166688D01*
X6831300Y-22119069D01*
X6821776Y-22090498D01*
X6812252Y-22071450D01*
X6793205Y-22042879D01*
X6783681Y-22033355D01*
D10*
X1746300Y-22360450D02*
X1746300Y-22510450D01*
X1671300Y-22435450D02*
X1821300Y-22435450D01*
X1821300Y-22435450D02*
G75*
G03*
X1821300Y-22435450I-75000J0D01*
G01*
D11*
X2183681Y-22525926D02*
X2069395Y-22525926D01*
X2126538Y-22525926D02*
X2126538Y-22325926D01*
X2107490Y-22354498D01*
X2088443Y-22373545D01*
X2069395Y-22383069D01*
X2269395Y-22506878D02*
X2278919Y-22516402D01*
X2269395Y-22525926D01*
X2259871Y-22516402D01*
X2269395Y-22506878D01*
X2269395Y-22525926D01*
X2459871Y-22325926D02*
X2364633Y-22325926D01*
X2355110Y-22421164D01*
X2364633Y-22411640D01*
X2383681Y-22402117D01*
X2431300Y-22402117D01*
X2450348Y-22411640D01*
X2459871Y-22421164D01*
X2469395Y-22440212D01*
X2469395Y-22487831D01*
X2459871Y-22506878D01*
X2450348Y-22516402D01*
X2431300Y-22525926D01*
X2383681Y-22525926D01*
X2364633Y-22516402D01*
X2355110Y-22506878D01*
X2593205Y-22325926D02*
X2612252Y-22325926D01*
X2631300Y-22335450D01*
X2640824Y-22344974D01*
X2650348Y-22364021D01*
X2659871Y-22402117D01*
X2659871Y-22449736D01*
X2650348Y-22487831D01*
X2640824Y-22506878D01*
X2631300Y-22516402D01*
X2612252Y-22525926D01*
X2593205Y-22525926D01*
X2574157Y-22516402D01*
X2564633Y-22506878D01*
X2555110Y-22487831D01*
X2545586Y-22449736D01*
X2545586Y-22402117D01*
X2555110Y-22364021D01*
X2564633Y-22344974D01*
X2574157Y-22335450D01*
X2593205Y-22325926D01*
X2783681Y-22325926D02*
X2802728Y-22325926D01*
X2821776Y-22335450D01*
X2831300Y-22344974D01*
X2840824Y-22364021D01*
X2850348Y-22402117D01*
X2850348Y-22449736D01*
X2840824Y-22487831D01*
X2831300Y-22506878D01*
X2821776Y-22516402D01*
X2802728Y-22525926D01*
X2783681Y-22525926D01*
X2764633Y-22516402D01*
X2755110Y-22506878D01*
X2745586Y-22487831D01*
X2736062Y-22449736D01*
X2736062Y-22402117D01*
X2745586Y-22364021D01*
X2755110Y-22344974D01*
X2764633Y-22335450D01*
X2783681Y-22325926D01*
X2936062Y-22525926D02*
X2936062Y-22392593D01*
X2936062Y-22411640D02*
X2945586Y-22402117D01*
X2964633Y-22392593D01*
X2993205Y-22392593D01*
X3012252Y-22402117D01*
X3021776Y-22421164D01*
X3021776Y-22525926D01*
X3021776Y-22421164D02*
X3031300Y-22402117D01*
X3050348Y-22392593D01*
X3078919Y-22392593D01*
X3097967Y-22402117D01*
X3107490Y-22421164D01*
X3107490Y-22525926D01*
X3202728Y-22525926D02*
X3202728Y-22392593D01*
X3202728Y-22411640D02*
X3212252Y-22402117D01*
X3231300Y-22392593D01*
X3259871Y-22392593D01*
X3278919Y-22402117D01*
X3288443Y-22421164D01*
X3288443Y-22525926D01*
X3288443Y-22421164D02*
X3297967Y-22402117D01*
X3317014Y-22392593D01*
X3345586Y-22392593D01*
X3364633Y-22402117D01*
X3374157Y-22421164D01*
X3374157Y-22525926D01*
X3764633Y-22316402D02*
X3593205Y-22573545D01*
X4021776Y-22325926D02*
X4040824Y-22325926D01*
X4059871Y-22335450D01*
X4069395Y-22344974D01*
X4078919Y-22364021D01*
X4088443Y-22402117D01*
X4088443Y-22449736D01*
X4078919Y-22487831D01*
X4069395Y-22506878D01*
X4059871Y-22516402D01*
X4040824Y-22525926D01*
X4021776Y-22525926D01*
X4002728Y-22516402D01*
X3993205Y-22506878D01*
X3983681Y-22487831D01*
X3974157Y-22449736D01*
X3974157Y-22402117D01*
X3983681Y-22364021D01*
X3993205Y-22344974D01*
X4002728Y-22335450D01*
X4021776Y-22325926D01*
X4174157Y-22506878D02*
X4183681Y-22516402D01*
X4174157Y-22525926D01*
X4164633Y-22516402D01*
X4174157Y-22506878D01*
X4174157Y-22525926D01*
X4307490Y-22325926D02*
X4326538Y-22325926D01*
X4345586Y-22335450D01*
X4355110Y-22344974D01*
X4364633Y-22364021D01*
X4374157Y-22402117D01*
X4374157Y-22449736D01*
X4364633Y-22487831D01*
X4355110Y-22506878D01*
X4345586Y-22516402D01*
X4326538Y-22525926D01*
X4307490Y-22525926D01*
X4288443Y-22516402D01*
X4278919Y-22506878D01*
X4269395Y-22487831D01*
X4259871Y-22449736D01*
X4259871Y-22402117D01*
X4269395Y-22364021D01*
X4278919Y-22344974D01*
X4288443Y-22335450D01*
X4307490Y-22325926D01*
X4555110Y-22325926D02*
X4459871Y-22325926D01*
X4450348Y-22421164D01*
X4459871Y-22411640D01*
X4478919Y-22402117D01*
X4526538Y-22402117D01*
X4545586Y-22411640D01*
X4555110Y-22421164D01*
X4564633Y-22440212D01*
X4564633Y-22487831D01*
X4555110Y-22506878D01*
X4545586Y-22516402D01*
X4526538Y-22525926D01*
X4478919Y-22525926D01*
X4459871Y-22516402D01*
X4450348Y-22506878D01*
X4659871Y-22525926D02*
X4697967Y-22525926D01*
X4717014Y-22516402D01*
X4726538Y-22506878D01*
X4745586Y-22478307D01*
X4755110Y-22440212D01*
X4755110Y-22364021D01*
X4745586Y-22344974D01*
X4736062Y-22335450D01*
X4717014Y-22325926D01*
X4678919Y-22325926D01*
X4659871Y-22335450D01*
X4650348Y-22344974D01*
X4640824Y-22364021D01*
X4640824Y-22411640D01*
X4650348Y-22430688D01*
X4659871Y-22440212D01*
X4678919Y-22449736D01*
X4717014Y-22449736D01*
X4736062Y-22440212D01*
X4745586Y-22430688D01*
X4755110Y-22411640D01*
X4945586Y-22525926D02*
X4831300Y-22525926D01*
X4888443Y-22525926D02*
X4888443Y-22325926D01*
X4869395Y-22354498D01*
X4850348Y-22373545D01*
X4831300Y-22383069D01*
X5021776Y-22325926D02*
X5021776Y-22364021D01*
X5097967Y-22325926D02*
X5097967Y-22364021D01*
X5393205Y-22602117D02*
X5383681Y-22592593D01*
X5364633Y-22564021D01*
X5355110Y-22544974D01*
X5345586Y-22516402D01*
X5336062Y-22468783D01*
X5336062Y-22430688D01*
X5345586Y-22383069D01*
X5355110Y-22354498D01*
X5364633Y-22335450D01*
X5383681Y-22306879D01*
X5393205Y-22297355D01*
X5450348Y-22325926D02*
X5574157Y-22325926D01*
X5507490Y-22402117D01*
X5536062Y-22402117D01*
X5555110Y-22411640D01*
X5564633Y-22421164D01*
X5574157Y-22440212D01*
X5574157Y-22487831D01*
X5564633Y-22506878D01*
X5555110Y-22516402D01*
X5536062Y-22525926D01*
X5478919Y-22525926D01*
X5459871Y-22516402D01*
X5450348Y-22506878D01*
X5812252Y-22525926D02*
X5812252Y-22325926D01*
X5897967Y-22525926D02*
X5897967Y-22421164D01*
X5888443Y-22402117D01*
X5869395Y-22392593D01*
X5840824Y-22392593D01*
X5821776Y-22402117D01*
X5812252Y-22411640D01*
X6021776Y-22525926D02*
X6002728Y-22516402D01*
X5993205Y-22506878D01*
X5983681Y-22487831D01*
X5983681Y-22430688D01*
X5993205Y-22411640D01*
X6002728Y-22402117D01*
X6021776Y-22392593D01*
X6050348Y-22392593D01*
X6069395Y-22402117D01*
X6078919Y-22411640D01*
X6088443Y-22430688D01*
X6088443Y-22487831D01*
X6078919Y-22506878D01*
X6069395Y-22516402D01*
X6050348Y-22525926D01*
X6021776Y-22525926D01*
X6202728Y-22525926D02*
X6183681Y-22516402D01*
X6174157Y-22497355D01*
X6174157Y-22325926D01*
X6355109Y-22516402D02*
X6336062Y-22525926D01*
X6297967Y-22525926D01*
X6278919Y-22516402D01*
X6269395Y-22497355D01*
X6269395Y-22421164D01*
X6278919Y-22402117D01*
X6297967Y-22392593D01*
X6336062Y-22392593D01*
X6355109Y-22402117D01*
X6364633Y-22421164D01*
X6364633Y-22440212D01*
X6269395Y-22459259D01*
X6440824Y-22516402D02*
X6459871Y-22525926D01*
X6497967Y-22525926D01*
X6517014Y-22516402D01*
X6526538Y-22497355D01*
X6526538Y-22487831D01*
X6517014Y-22468783D01*
X6497967Y-22459259D01*
X6469395Y-22459259D01*
X6450348Y-22449736D01*
X6440824Y-22430688D01*
X6440824Y-22421164D01*
X6450348Y-22402117D01*
X6469395Y-22392593D01*
X6497967Y-22392593D01*
X6517014Y-22402117D01*
X6593205Y-22602117D02*
X6602728Y-22592593D01*
X6621776Y-22564021D01*
X6631300Y-22544974D01*
X6640824Y-22516402D01*
X6650348Y-22468783D01*
X6650348Y-22430688D01*
X6640824Y-22383069D01*
X6631300Y-22354498D01*
X6621776Y-22335450D01*
X6602728Y-22306879D01*
X6593205Y-22297355D01*
D21*
X1796405Y-22765555D02*
X1796405Y-22645345D01*
X1676195Y-22645345D01*
X1676195Y-22765555D01*
X1796405Y-22765555D01*
X1821300Y-22705450D02*
G75*
G03*
X1821300Y-22705450I-85000J0D01*
G01*
D11*
X2183681Y-22795926D02*
X2069395Y-22795926D01*
X2126538Y-22795926D02*
X2126538Y-22595926D01*
X2107490Y-22624498D01*
X2088443Y-22643545D01*
X2069395Y-22653069D01*
X2269395Y-22776878D02*
X2278919Y-22786402D01*
X2269395Y-22795926D01*
X2259871Y-22786402D01*
X2269395Y-22776878D01*
X2269395Y-22795926D01*
X2345586Y-22595926D02*
X2478919Y-22595926D01*
X2393205Y-22795926D01*
X2593205Y-22595926D02*
X2612252Y-22595926D01*
X2631300Y-22605450D01*
X2640824Y-22614974D01*
X2650348Y-22634021D01*
X2659871Y-22672117D01*
X2659871Y-22719736D01*
X2650348Y-22757831D01*
X2640824Y-22776878D01*
X2631300Y-22786402D01*
X2612252Y-22795926D01*
X2593205Y-22795926D01*
X2574157Y-22786402D01*
X2564633Y-22776878D01*
X2555110Y-22757831D01*
X2545586Y-22719736D01*
X2545586Y-22672117D01*
X2555110Y-22634021D01*
X2564633Y-22614974D01*
X2574157Y-22605450D01*
X2593205Y-22595926D01*
X2783681Y-22595926D02*
X2802728Y-22595926D01*
X2821776Y-22605450D01*
X2831300Y-22614974D01*
X2840824Y-22634021D01*
X2850348Y-22672117D01*
X2850348Y-22719736D01*
X2840824Y-22757831D01*
X2831300Y-22776878D01*
X2821776Y-22786402D01*
X2802728Y-22795926D01*
X2783681Y-22795926D01*
X2764633Y-22786402D01*
X2755110Y-22776878D01*
X2745586Y-22757831D01*
X2736062Y-22719736D01*
X2736062Y-22672117D01*
X2745586Y-22634021D01*
X2755110Y-22614974D01*
X2764633Y-22605450D01*
X2783681Y-22595926D01*
X2936062Y-22795926D02*
X2936062Y-22662593D01*
X2936062Y-22681640D02*
X2945586Y-22672117D01*
X2964633Y-22662593D01*
X2993205Y-22662593D01*
X3012252Y-22672117D01*
X3021776Y-22691164D01*
X3021776Y-22795926D01*
X3021776Y-22691164D02*
X3031300Y-22672117D01*
X3050348Y-22662593D01*
X3078919Y-22662593D01*
X3097967Y-22672117D01*
X3107490Y-22691164D01*
X3107490Y-22795926D01*
X3202728Y-22795926D02*
X3202728Y-22662593D01*
X3202728Y-22681640D02*
X3212252Y-22672117D01*
X3231300Y-22662593D01*
X3259871Y-22662593D01*
X3278919Y-22672117D01*
X3288443Y-22691164D01*
X3288443Y-22795926D01*
X3288443Y-22691164D02*
X3297967Y-22672117D01*
X3317014Y-22662593D01*
X3345586Y-22662593D01*
X3364633Y-22672117D01*
X3374157Y-22691164D01*
X3374157Y-22795926D01*
X3764633Y-22586402D02*
X3593205Y-22843545D01*
X4021776Y-22595926D02*
X4040824Y-22595926D01*
X4059871Y-22605450D01*
X4069395Y-22614974D01*
X4078919Y-22634021D01*
X4088443Y-22672117D01*
X4088443Y-22719736D01*
X4078919Y-22757831D01*
X4069395Y-22776878D01*
X4059871Y-22786402D01*
X4040824Y-22795926D01*
X4021776Y-22795926D01*
X4002728Y-22786402D01*
X3993205Y-22776878D01*
X3983681Y-22757831D01*
X3974157Y-22719736D01*
X3974157Y-22672117D01*
X3983681Y-22634021D01*
X3993205Y-22614974D01*
X4002728Y-22605450D01*
X4021776Y-22595926D01*
X4174157Y-22776878D02*
X4183681Y-22786402D01*
X4174157Y-22795926D01*
X4164633Y-22786402D01*
X4174157Y-22776878D01*
X4174157Y-22795926D01*
X4307490Y-22595926D02*
X4326538Y-22595926D01*
X4345586Y-22605450D01*
X4355110Y-22614974D01*
X4364633Y-22634021D01*
X4374157Y-22672117D01*
X4374157Y-22719736D01*
X4364633Y-22757831D01*
X4355110Y-22776878D01*
X4345586Y-22786402D01*
X4326538Y-22795926D01*
X4307490Y-22795926D01*
X4288443Y-22786402D01*
X4278919Y-22776878D01*
X4269395Y-22757831D01*
X4259871Y-22719736D01*
X4259871Y-22672117D01*
X4269395Y-22634021D01*
X4278919Y-22614974D01*
X4288443Y-22605450D01*
X4307490Y-22595926D01*
X4545586Y-22595926D02*
X4507490Y-22595926D01*
X4488443Y-22605450D01*
X4478919Y-22614974D01*
X4459871Y-22643545D01*
X4450348Y-22681640D01*
X4450348Y-22757831D01*
X4459871Y-22776878D01*
X4469395Y-22786402D01*
X4488443Y-22795926D01*
X4526538Y-22795926D01*
X4545586Y-22786402D01*
X4555110Y-22776878D01*
X4564633Y-22757831D01*
X4564633Y-22710212D01*
X4555110Y-22691164D01*
X4545586Y-22681640D01*
X4526538Y-22672117D01*
X4488443Y-22672117D01*
X4469395Y-22681640D01*
X4459871Y-22691164D01*
X4450348Y-22710212D01*
X4736062Y-22595926D02*
X4697967Y-22595926D01*
X4678919Y-22605450D01*
X4669395Y-22614974D01*
X4650348Y-22643545D01*
X4640824Y-22681640D01*
X4640824Y-22757831D01*
X4650348Y-22776878D01*
X4659871Y-22786402D01*
X4678919Y-22795926D01*
X4717014Y-22795926D01*
X4736062Y-22786402D01*
X4745586Y-22776878D01*
X4755110Y-22757831D01*
X4755110Y-22710212D01*
X4745586Y-22691164D01*
X4736062Y-22681640D01*
X4717014Y-22672117D01*
X4678919Y-22672117D01*
X4659871Y-22681640D01*
X4650348Y-22691164D01*
X4640824Y-22710212D01*
X4850348Y-22795926D02*
X4888443Y-22795926D01*
X4907490Y-22786402D01*
X4917014Y-22776878D01*
X4936062Y-22748307D01*
X4945586Y-22710212D01*
X4945586Y-22634021D01*
X4936062Y-22614974D01*
X4926538Y-22605450D01*
X4907490Y-22595926D01*
X4869395Y-22595926D01*
X4850348Y-22605450D01*
X4840824Y-22614974D01*
X4831300Y-22634021D01*
X4831300Y-22681640D01*
X4840824Y-22700688D01*
X4850348Y-22710212D01*
X4869395Y-22719736D01*
X4907490Y-22719736D01*
X4926538Y-22710212D01*
X4936062Y-22700688D01*
X4945586Y-22681640D01*
X5021776Y-22595926D02*
X5021776Y-22634021D01*
X5097967Y-22595926D02*
X5097967Y-22634021D01*
X5393205Y-22872117D02*
X5383681Y-22862593D01*
X5364633Y-22834021D01*
X5355110Y-22814974D01*
X5345586Y-22786402D01*
X5336062Y-22738783D01*
X5336062Y-22700688D01*
X5345586Y-22653069D01*
X5355110Y-22624498D01*
X5364633Y-22605450D01*
X5383681Y-22576878D01*
X5393205Y-22567355D01*
X5574157Y-22795926D02*
X5459871Y-22795926D01*
X5517014Y-22795926D02*
X5517014Y-22595926D01*
X5497967Y-22624498D01*
X5478919Y-22643545D01*
X5459871Y-22653069D01*
X5650348Y-22614974D02*
X5659871Y-22605450D01*
X5678919Y-22595926D01*
X5726538Y-22595926D01*
X5745586Y-22605450D01*
X5755109Y-22614974D01*
X5764633Y-22634021D01*
X5764633Y-22653069D01*
X5755109Y-22681640D01*
X5640824Y-22795926D01*
X5764633Y-22795926D01*
X6002728Y-22795926D02*
X6002728Y-22595926D01*
X6088443Y-22795926D02*
X6088443Y-22691164D01*
X6078919Y-22672117D01*
X6059871Y-22662593D01*
X6031300Y-22662593D01*
X6012252Y-22672117D01*
X6002728Y-22681640D01*
X6212252Y-22795926D02*
X6193205Y-22786402D01*
X6183681Y-22776878D01*
X6174157Y-22757831D01*
X6174157Y-22700688D01*
X6183681Y-22681640D01*
X6193205Y-22672117D01*
X6212252Y-22662593D01*
X6240824Y-22662593D01*
X6259871Y-22672117D01*
X6269395Y-22681640D01*
X6278919Y-22700688D01*
X6278919Y-22757831D01*
X6269395Y-22776878D01*
X6259871Y-22786402D01*
X6240824Y-22795926D01*
X6212252Y-22795926D01*
X6393205Y-22795926D02*
X6374157Y-22786402D01*
X6364633Y-22767355D01*
X6364633Y-22595926D01*
X6545586Y-22786402D02*
X6526538Y-22795926D01*
X6488443Y-22795926D01*
X6469395Y-22786402D01*
X6459871Y-22767355D01*
X6459871Y-22691164D01*
X6469395Y-22672117D01*
X6488443Y-22662593D01*
X6526538Y-22662593D01*
X6545586Y-22672117D01*
X6555109Y-22691164D01*
X6555109Y-22710212D01*
X6459871Y-22729259D01*
X6631300Y-22786402D02*
X6650348Y-22795926D01*
X6688443Y-22795926D01*
X6707490Y-22786402D01*
X6717014Y-22767355D01*
X6717014Y-22757831D01*
X6707490Y-22738783D01*
X6688443Y-22729259D01*
X6659871Y-22729259D01*
X6640824Y-22719736D01*
X6631300Y-22700688D01*
X6631300Y-22691164D01*
X6640824Y-22672117D01*
X6659871Y-22662593D01*
X6688443Y-22662593D01*
X6707490Y-22672117D01*
X6783681Y-22872117D02*
X6793205Y-22862593D01*
X6812252Y-22834021D01*
X6821776Y-22814974D01*
X6831300Y-22786402D01*
X6840824Y-22738783D01*
X6840824Y-22700688D01*
X6831300Y-22653069D01*
X6821776Y-22624498D01*
X6812252Y-22605450D01*
X6793205Y-22576878D01*
X6783681Y-22567355D01*
X1721300Y-23095450D02*
X1821300Y-22995450D01*
X1721300Y-22895450D01*
X1621300Y-22995450D01*
X1721300Y-23095450D01*
X1821300Y-22995450D02*
G75*
G03*
X1821300Y-22995450I-100000J0D01*
G01*
X2059871Y-22885926D02*
X2183681Y-22885926D01*
X2117014Y-22962117D01*
X2145586Y-22962117D01*
X2164633Y-22971640D01*
X2174157Y-22981164D01*
X2183681Y-23000212D01*
X2183681Y-23047831D01*
X2174157Y-23066878D01*
X2164633Y-23076402D01*
X2145586Y-23085926D01*
X2088443Y-23085926D01*
X2069395Y-23076402D01*
X2059871Y-23066878D01*
X2269395Y-23066878D02*
X2278919Y-23076402D01*
X2269395Y-23085926D01*
X2259871Y-23076402D01*
X2269395Y-23066878D01*
X2269395Y-23085926D01*
X2355110Y-22904974D02*
X2364633Y-22895450D01*
X2383681Y-22885926D01*
X2431300Y-22885926D01*
X2450348Y-22895450D01*
X2459871Y-22904974D01*
X2469395Y-22924021D01*
X2469395Y-22943069D01*
X2459871Y-22971640D01*
X2345586Y-23085926D01*
X2469395Y-23085926D01*
X2593205Y-22885926D02*
X2612252Y-22885926D01*
X2631300Y-22895450D01*
X2640824Y-22904974D01*
X2650348Y-22924021D01*
X2659871Y-22962117D01*
X2659871Y-23009736D01*
X2650348Y-23047831D01*
X2640824Y-23066878D01*
X2631300Y-23076402D01*
X2612252Y-23085926D01*
X2593205Y-23085926D01*
X2574157Y-23076402D01*
X2564633Y-23066878D01*
X2555110Y-23047831D01*
X2545586Y-23009736D01*
X2545586Y-22962117D01*
X2555110Y-22924021D01*
X2564633Y-22904974D01*
X2574157Y-22895450D01*
X2593205Y-22885926D01*
X2783681Y-22885926D02*
X2802728Y-22885926D01*
X2821776Y-22895450D01*
X2831300Y-22904974D01*
X2840824Y-22924021D01*
X2850348Y-22962117D01*
X2850348Y-23009736D01*
X2840824Y-23047831D01*
X2831300Y-23066878D01*
X2821776Y-23076402D01*
X2802728Y-23085926D01*
X2783681Y-23085926D01*
X2764633Y-23076402D01*
X2755110Y-23066878D01*
X2745586Y-23047831D01*
X2736062Y-23009736D01*
X2736062Y-22962117D01*
X2745586Y-22924021D01*
X2755110Y-22904974D01*
X2764633Y-22895450D01*
X2783681Y-22885926D01*
X2936062Y-23085926D02*
X2936062Y-22952593D01*
X2936062Y-22971640D02*
X2945586Y-22962117D01*
X2964633Y-22952593D01*
X2993205Y-22952593D01*
X3012252Y-22962117D01*
X3021776Y-22981164D01*
X3021776Y-23085926D01*
X3021776Y-22981164D02*
X3031300Y-22962117D01*
X3050348Y-22952593D01*
X3078919Y-22952593D01*
X3097967Y-22962117D01*
X3107490Y-22981164D01*
X3107490Y-23085926D01*
X3202728Y-23085926D02*
X3202728Y-22952593D01*
X3202728Y-22971640D02*
X3212252Y-22962117D01*
X3231300Y-22952593D01*
X3259871Y-22952593D01*
X3278919Y-22962117D01*
X3288443Y-22981164D01*
X3288443Y-23085926D01*
X3288443Y-22981164D02*
X3297967Y-22962117D01*
X3317014Y-22952593D01*
X3345586Y-22952593D01*
X3364633Y-22962117D01*
X3374157Y-22981164D01*
X3374157Y-23085926D01*
X3764633Y-22876402D02*
X3593205Y-23133545D01*
X4021776Y-22885926D02*
X4040824Y-22885926D01*
X4059871Y-22895450D01*
X4069395Y-22904974D01*
X4078919Y-22924021D01*
X4088443Y-22962117D01*
X4088443Y-23009736D01*
X4078919Y-23047831D01*
X4069395Y-23066878D01*
X4059871Y-23076402D01*
X4040824Y-23085926D01*
X4021776Y-23085926D01*
X4002728Y-23076402D01*
X3993205Y-23066878D01*
X3983681Y-23047831D01*
X3974157Y-23009736D01*
X3974157Y-22962117D01*
X3983681Y-22924021D01*
X3993205Y-22904974D01*
X4002728Y-22895450D01*
X4021776Y-22885926D01*
X4174157Y-23066878D02*
X4183681Y-23076402D01*
X4174157Y-23085926D01*
X4164633Y-23076402D01*
X4174157Y-23066878D01*
X4174157Y-23085926D01*
X4374157Y-23085926D02*
X4259871Y-23085926D01*
X4317014Y-23085926D02*
X4317014Y-22885926D01*
X4297967Y-22914498D01*
X4278919Y-22933545D01*
X4259871Y-22943069D01*
X4450348Y-22904974D02*
X4459871Y-22895450D01*
X4478919Y-22885926D01*
X4526538Y-22885926D01*
X4545586Y-22895450D01*
X4555110Y-22904974D01*
X4564633Y-22924021D01*
X4564633Y-22943069D01*
X4555110Y-22971640D01*
X4440824Y-23085926D01*
X4564633Y-23085926D01*
X4736062Y-22885926D02*
X4697967Y-22885926D01*
X4678919Y-22895450D01*
X4669395Y-22904974D01*
X4650348Y-22933545D01*
X4640824Y-22971640D01*
X4640824Y-23047831D01*
X4650348Y-23066878D01*
X4659871Y-23076402D01*
X4678919Y-23085926D01*
X4717014Y-23085926D01*
X4736062Y-23076402D01*
X4745586Y-23066878D01*
X4755110Y-23047831D01*
X4755110Y-23000212D01*
X4745586Y-22981164D01*
X4736062Y-22971640D01*
X4717014Y-22962117D01*
X4678919Y-22962117D01*
X4659871Y-22971640D01*
X4650348Y-22981164D01*
X4640824Y-23000212D01*
X4878919Y-22885926D02*
X4897967Y-22885926D01*
X4917014Y-22895450D01*
X4926538Y-22904974D01*
X4936062Y-22924021D01*
X4945586Y-22962117D01*
X4945586Y-23009736D01*
X4936062Y-23047831D01*
X4926538Y-23066878D01*
X4917014Y-23076402D01*
X4897967Y-23085926D01*
X4878919Y-23085926D01*
X4859871Y-23076402D01*
X4850348Y-23066878D01*
X4840824Y-23047831D01*
X4831300Y-23009736D01*
X4831300Y-22962117D01*
X4840824Y-22924021D01*
X4850348Y-22904974D01*
X4859871Y-22895450D01*
X4878919Y-22885926D01*
X5021776Y-22885926D02*
X5021776Y-22924021D01*
X5097967Y-22885926D02*
X5097967Y-22924021D01*
X5393205Y-23162117D02*
X5383681Y-23152593D01*
X5364633Y-23124021D01*
X5355110Y-23104974D01*
X5345586Y-23076402D01*
X5336062Y-23028783D01*
X5336062Y-22990688D01*
X5345586Y-22943069D01*
X5355110Y-22914498D01*
X5364633Y-22895450D01*
X5383681Y-22866878D01*
X5393205Y-22857355D01*
X5497967Y-22971640D02*
X5478919Y-22962117D01*
X5469395Y-22952593D01*
X5459871Y-22933545D01*
X5459871Y-22924021D01*
X5469395Y-22904974D01*
X5478919Y-22895450D01*
X5497967Y-22885926D01*
X5536062Y-22885926D01*
X5555110Y-22895450D01*
X5564633Y-22904974D01*
X5574157Y-22924021D01*
X5574157Y-22933545D01*
X5564633Y-22952593D01*
X5555110Y-22962117D01*
X5536062Y-22971640D01*
X5497967Y-22971640D01*
X5478919Y-22981164D01*
X5469395Y-22990688D01*
X5459871Y-23009736D01*
X5459871Y-23047831D01*
X5469395Y-23066878D01*
X5478919Y-23076402D01*
X5497967Y-23085926D01*
X5536062Y-23085926D01*
X5555110Y-23076402D01*
X5564633Y-23066878D01*
X5574157Y-23047831D01*
X5574157Y-23009736D01*
X5564633Y-22990688D01*
X5555110Y-22981164D01*
X5536062Y-22971640D01*
X5812252Y-23085926D02*
X5812252Y-22885926D01*
X5897967Y-23085926D02*
X5897967Y-22981164D01*
X5888443Y-22962117D01*
X5869395Y-22952593D01*
X5840824Y-22952593D01*
X5821776Y-22962117D01*
X5812252Y-22971640D01*
X6021776Y-23085926D02*
X6002728Y-23076402D01*
X5993205Y-23066878D01*
X5983681Y-23047831D01*
X5983681Y-22990688D01*
X5993205Y-22971640D01*
X6002728Y-22962117D01*
X6021776Y-22952593D01*
X6050348Y-22952593D01*
X6069395Y-22962117D01*
X6078919Y-22971640D01*
X6088443Y-22990688D01*
X6088443Y-23047831D01*
X6078919Y-23066878D01*
X6069395Y-23076402D01*
X6050348Y-23085926D01*
X6021776Y-23085926D01*
X6202728Y-23085926D02*
X6183681Y-23076402D01*
X6174157Y-23057355D01*
X6174157Y-22885926D01*
X6355109Y-23076402D02*
X6336062Y-23085926D01*
X6297967Y-23085926D01*
X6278919Y-23076402D01*
X6269395Y-23057355D01*
X6269395Y-22981164D01*
X6278919Y-22962117D01*
X6297967Y-22952593D01*
X6336062Y-22952593D01*
X6355109Y-22962117D01*
X6364633Y-22981164D01*
X6364633Y-23000212D01*
X6269395Y-23019259D01*
X6440824Y-23076402D02*
X6459871Y-23085926D01*
X6497967Y-23085926D01*
X6517014Y-23076402D01*
X6526538Y-23057355D01*
X6526538Y-23047831D01*
X6517014Y-23028783D01*
X6497967Y-23019259D01*
X6469395Y-23019259D01*
X6450348Y-23009736D01*
X6440824Y-22990688D01*
X6440824Y-22981164D01*
X6450348Y-22962117D01*
X6469395Y-22952593D01*
X6497967Y-22952593D01*
X6517014Y-22962117D01*
X6593205Y-23162117D02*
X6602728Y-23152593D01*
X6621776Y-23124021D01*
X6631300Y-23104974D01*
X6640824Y-23076402D01*
X6650348Y-23028783D01*
X6650348Y-22990688D01*
X6640824Y-22943069D01*
X6631300Y-22914498D01*
X6621776Y-22895450D01*
X6602728Y-22866878D01*
X6593205Y-22857355D01*
M02*
