%TF.GenerationSoftware,KiCad,Pcbnew,(6.0.7)*%
%TF.CreationDate,2023-02-24T18:17:55-05:00*%
%TF.ProjectId,Phoenix612 Complete v1.1,50686f65-6e69-4783-9631-3220436f6d70,rev?*%
%TF.SameCoordinates,Original*%
%TF.FileFunction,Soldermask,Bot*%
%TF.FilePolarity,Negative*%
%FSLAX46Y46*%
G04 Gerber Fmt 4.6, Leading zero omitted, Abs format (unit mm)*
G04 Created by KiCad (PCBNEW (6.0.7)) date 2023-02-24 18:17:55*
%MOMM*%
%LPD*%
G01*
G04 APERTURE LIST*
%ADD10R,1.800000X1.800000*%
%ADD11C,1.800000*%
%ADD12R,1.600000X1.600000*%
%ADD13C,1.600000*%
%ADD14C,1.440000*%
%ADD15R,1.700000X1.700000*%
%ADD16O,1.700000X1.700000*%
%ADD17C,1.500000*%
%ADD18R,0.850000X0.850000*%
%ADD19O,1.600000X1.600000*%
%ADD20C,3.000000*%
%ADD21R,1.400000X1.400000*%
%ADD22C,1.400000*%
%ADD23R,2.000000X1.905000*%
%ADD24O,2.000000X1.905000*%
%ADD25C,2.050000*%
%ADD26C,2.250000*%
%ADD27R,1.050000X1.500000*%
%ADD28O,1.050000X1.500000*%
%ADD29R,1.905000X2.000000*%
%ADD30O,1.905000X2.000000*%
%ADD31R,2.200000X2.200000*%
%ADD32O,2.200000X2.200000*%
%ADD33C,2.400000*%
%ADD34R,1.500000X1.050000*%
%ADD35O,1.500000X1.050000*%
G04 APERTURE END LIST*
D10*
%TO.C,D4*%
X50863500Y-105024000D03*
D11*
X50863500Y-102484000D03*
%TD*%
D12*
%TO.C,C44*%
X210778000Y-113472849D03*
D13*
X210778000Y-116972849D03*
%TD*%
D14*
%TO.C,RV4*%
X68262500Y-44426500D03*
X70802500Y-44426500D03*
X73342500Y-44426500D03*
%TD*%
D12*
%TO.C,C56*%
X250253500Y-112014000D03*
D13*
X250253500Y-114514000D03*
%TD*%
D15*
%TO.C,U11*%
X255270000Y-175052000D03*
D16*
X255270000Y-172512000D03*
X255270000Y-169972000D03*
X255270000Y-167432000D03*
X222250000Y-167386000D03*
X222250000Y-169926000D03*
X222250000Y-172466000D03*
D15*
X222250000Y-175006000D03*
%TD*%
D17*
%TO.C,Y3*%
X166243000Y-74766000D03*
X166243000Y-79646000D03*
%TD*%
D13*
%TO.C,C28*%
X163171500Y-66929000D03*
X168171500Y-66929000D03*
%TD*%
D18*
%TO.C,J7*%
X215519000Y-80708500D03*
%TD*%
D15*
%TO.C,U2*%
X77233500Y-130429000D03*
D16*
X79773500Y-130429000D03*
X82313500Y-130429000D03*
X84853500Y-130429000D03*
X84899500Y-97409000D03*
X82359500Y-97409000D03*
X79819500Y-97409000D03*
D15*
X77279500Y-97409000D03*
%TD*%
D12*
%TO.C,D9*%
X137541000Y-180467000D03*
D19*
X129921000Y-180467000D03*
%TD*%
D18*
%TO.C,J4*%
X133858000Y-69088000D03*
%TD*%
D15*
%TO.C,J3*%
X73378500Y-89281000D03*
D16*
X70838500Y-89281000D03*
%TD*%
D17*
%TO.C,Y4*%
X173228000Y-79666000D03*
X173228000Y-74786000D03*
%TD*%
D12*
%TO.C,D6*%
X102425500Y-79248000D03*
D19*
X94805500Y-79248000D03*
%TD*%
D20*
%TO.C,T3*%
X268366500Y-179347000D03*
X268366500Y-166347000D03*
X262366500Y-179347000D03*
X262366500Y-166347000D03*
%TD*%
%TO.C,T4*%
X142304500Y-164004000D03*
X158304500Y-164004000D03*
X142304500Y-154004000D03*
X158304500Y-154004000D03*
%TD*%
D21*
%TO.C,K4*%
X137557000Y-176434000D03*
D22*
X137557000Y-168814000D03*
X137557000Y-163734000D03*
X137557000Y-158654000D03*
X129937000Y-158654000D03*
X129937000Y-163734000D03*
X129937000Y-168814000D03*
X129937000Y-176434000D03*
%TD*%
D17*
%TO.C,Y1*%
X151765000Y-74702500D03*
X151765000Y-79582500D03*
%TD*%
D12*
%TO.C,C72*%
X254000000Y-155565349D03*
D13*
X254000000Y-158065349D03*
%TD*%
D14*
%TO.C,RV7*%
X142547500Y-105864151D03*
X145087500Y-105864151D03*
X147627500Y-105864151D03*
%TD*%
D18*
%TO.C,J14*%
X236664500Y-95885000D03*
%TD*%
D15*
%TO.C,J20*%
X275839000Y-168148000D03*
D16*
X278379000Y-168148000D03*
%TD*%
D12*
%TO.C,C50*%
X58991500Y-49189000D03*
D13*
X58991500Y-51689000D03*
%TD*%
D15*
%TO.C,J34*%
X191008000Y-173863000D03*
D16*
X191008000Y-176403000D03*
%TD*%
D23*
%TO.C,Q3*%
X287726000Y-148399500D03*
D24*
X287726000Y-150939500D03*
X287726000Y-153479500D03*
%TD*%
D12*
%TO.C,D10*%
X148844000Y-179070000D03*
D19*
X148844000Y-171450000D03*
%TD*%
D12*
%TO.C,U8*%
X233489500Y-107315000D03*
D19*
X233489500Y-109855000D03*
X233489500Y-112395000D03*
X233489500Y-114935000D03*
X241109500Y-114935000D03*
X241109500Y-112395000D03*
X241109500Y-109855000D03*
X241109500Y-107315000D03*
%TD*%
D14*
%TO.C,RV5*%
X226568000Y-107378500D03*
X224028000Y-107378500D03*
X221488000Y-107378500D03*
%TD*%
D12*
%TO.C,U7*%
X116718000Y-114945000D03*
D19*
X114178000Y-114945000D03*
X111638000Y-114945000D03*
X109098000Y-114945000D03*
X106558000Y-114945000D03*
X104018000Y-114945000D03*
X101478000Y-114945000D03*
X101478000Y-122565000D03*
X104018000Y-122565000D03*
X106558000Y-122565000D03*
X109098000Y-122565000D03*
X111638000Y-122565000D03*
X114178000Y-122565000D03*
X116718000Y-122565000D03*
%TD*%
D12*
%TO.C,C96*%
X143583151Y-129867151D03*
D13*
X141083151Y-129867151D03*
%TD*%
D15*
%TO.C,U9*%
X250744000Y-65151000D03*
D16*
X248204000Y-65151000D03*
X245664000Y-65151000D03*
X243124000Y-65151000D03*
X243078000Y-98171000D03*
X245618000Y-98171000D03*
X248158000Y-98171000D03*
D15*
X250698000Y-98171000D03*
%TD*%
D14*
%TO.C,RV3*%
X123825000Y-108712000D03*
X123825000Y-111252000D03*
X123825000Y-113792000D03*
%TD*%
D12*
%TO.C,D11*%
X187325000Y-173418500D03*
D19*
X179705000Y-173418500D03*
%TD*%
D12*
%TO.C,C17*%
X125476000Y-61985651D03*
D13*
X125476000Y-59485651D03*
%TD*%
D12*
%TO.C,D12*%
X172339000Y-116976651D03*
D19*
X172339000Y-124596651D03*
%TD*%
D15*
%TO.C,J2*%
X48275000Y-90233500D03*
D16*
X50815000Y-90233500D03*
X53355000Y-90233500D03*
%TD*%
D25*
%TO.C,J32*%
X116332000Y-179260500D03*
D26*
X113792000Y-176720500D03*
X118872000Y-181800500D03*
X113792000Y-181800500D03*
X118872000Y-176720500D03*
%TD*%
D12*
%TO.C,C11*%
X37338000Y-92321500D03*
D13*
X37338000Y-94821500D03*
%TD*%
D25*
%TO.C,J5*%
X150368000Y-58737500D03*
D26*
X147828000Y-61277500D03*
X152908000Y-56197500D03*
X147828000Y-56197500D03*
X152908000Y-61277500D03*
%TD*%
D12*
%TO.C,C90*%
X166370000Y-117538500D03*
D13*
X166370000Y-120038500D03*
%TD*%
D12*
%TO.C,D8*%
X256857500Y-144028000D03*
D19*
X256857500Y-136408000D03*
%TD*%
D18*
%TO.C,J15*%
X255016000Y-120904000D03*
%TD*%
D12*
%TO.C,U5*%
X204035500Y-75638500D03*
D19*
X204035500Y-78178500D03*
X204035500Y-80718500D03*
X204035500Y-83258500D03*
X211655500Y-83258500D03*
X211655500Y-80718500D03*
X211655500Y-78178500D03*
X211655500Y-75638500D03*
%TD*%
D12*
%TO.C,C98*%
X161480500Y-112404651D03*
D13*
X161480500Y-109904651D03*
%TD*%
D18*
%TO.C,J16*%
X270192500Y-126809500D03*
%TD*%
D15*
%TO.C,J13*%
X25844500Y-63037000D03*
D16*
X25844500Y-60497000D03*
%TD*%
D12*
%TO.C,C46*%
X185356500Y-103959151D03*
D13*
X185356500Y-101459151D03*
%TD*%
D15*
%TO.C,J33*%
X152209500Y-178249500D03*
D16*
X152209500Y-175709500D03*
%TD*%
D12*
%TO.C,C51*%
X67881500Y-55626000D03*
D13*
X67881500Y-53126000D03*
%TD*%
%TO.C,C27*%
X158202000Y-85344000D03*
X153202000Y-85344000D03*
%TD*%
D14*
%TO.C,RV1*%
X42852500Y-135814000D03*
X42852500Y-133274000D03*
X42852500Y-130734000D03*
%TD*%
D12*
%TO.C,C66*%
X285823151Y-119761000D03*
D13*
X283323151Y-119761000D03*
%TD*%
D21*
%TO.C,K1*%
X69309500Y-71421500D03*
D22*
X61689500Y-71421500D03*
X56609500Y-71421500D03*
X51529500Y-71421500D03*
X51529500Y-79041500D03*
X56609500Y-79041500D03*
X61689500Y-79041500D03*
X69309500Y-79041500D03*
%TD*%
D18*
%TO.C,J8*%
X116459000Y-79121000D03*
%TD*%
%TO.C,J6*%
X114236500Y-60515500D03*
%TD*%
D15*
%TO.C,J12*%
X100144500Y-133921500D03*
D16*
X97604500Y-133921500D03*
%TD*%
D25*
%TO.C,J9*%
X217995500Y-95504000D03*
D26*
X220535500Y-92964000D03*
X215455500Y-92964000D03*
X220535500Y-98044000D03*
X215455500Y-98044000D03*
%TD*%
D18*
%TO.C,J19*%
X278384000Y-144843500D03*
%TD*%
D12*
%TO.C,C75*%
X283908500Y-177547651D03*
D13*
X283908500Y-174047651D03*
%TD*%
D27*
%TO.C,Q1*%
X76612000Y-82555000D03*
D28*
X75342000Y-82555000D03*
X74072000Y-82555000D03*
%TD*%
D18*
%TO.C,J18*%
X222440500Y-154686000D03*
%TD*%
D12*
%TO.C,C53*%
X40566849Y-58904500D03*
D13*
X43066849Y-58904500D03*
%TD*%
D20*
%TO.C,TR1*%
X90233500Y-92442000D03*
X94551500Y-89140000D03*
X99885500Y-88886000D03*
%TD*%
%TO.C,T1*%
X129985500Y-92630000D03*
X145985500Y-92630000D03*
X129985500Y-82630000D03*
X145985500Y-82630000D03*
%TD*%
D12*
%TO.C,C19*%
X111506000Y-67754500D03*
D13*
X114006000Y-67754500D03*
%TD*%
D12*
%TO.C,C21*%
X204416500Y-69161500D03*
D13*
X204416500Y-66661500D03*
%TD*%
D20*
%TO.C,T5*%
X166450000Y-150813500D03*
X166450000Y-166813500D03*
X176450000Y-150813500D03*
X176450000Y-166813500D03*
%TD*%
D12*
%TO.C,D5*%
X74072000Y-71485000D03*
D19*
X74072000Y-79105000D03*
%TD*%
D18*
%TO.C,J1*%
X61140500Y-145605500D03*
%TD*%
D17*
%TO.C,Y2*%
X158877000Y-79602500D03*
X158877000Y-74722500D03*
%TD*%
D12*
%TO.C,C10*%
X26670000Y-92827349D03*
D13*
X26670000Y-95327349D03*
%TD*%
D12*
%TO.C,C94*%
X133149849Y-125993651D03*
D13*
X135649849Y-125993651D03*
%TD*%
D10*
%TO.C,D3*%
X62357000Y-104965500D03*
D11*
X62357000Y-102425500D03*
%TD*%
D21*
%TO.C,K3*%
X233696000Y-78136000D03*
D22*
X233696000Y-70516000D03*
X233696000Y-65436000D03*
X233696000Y-60356000D03*
X226076000Y-60356000D03*
X226076000Y-65436000D03*
X226076000Y-70516000D03*
X226076000Y-78136000D03*
%TD*%
D29*
%TO.C,U3*%
X29210000Y-86670000D03*
D30*
X31750000Y-86670000D03*
X34290000Y-86670000D03*
%TD*%
D12*
%TO.C,U1*%
X50736500Y-134871500D03*
D19*
X50736500Y-137411500D03*
X50736500Y-139951500D03*
X50736500Y-142491500D03*
X58356500Y-142491500D03*
X58356500Y-139951500D03*
X58356500Y-137411500D03*
X58356500Y-134871500D03*
%TD*%
D20*
%TO.C,T2*%
X178753500Y-92185500D03*
X194753500Y-92185500D03*
X178753500Y-82185500D03*
X194753500Y-82185500D03*
%TD*%
D18*
%TO.C,J10*%
X192722500Y-74993500D03*
%TD*%
D20*
%TO.C,TR2*%
X253061500Y-46418500D03*
X256363500Y-50736500D03*
X256617500Y-56070500D03*
%TD*%
D18*
%TO.C,J17*%
X285251651Y-125412500D03*
%TD*%
D12*
%TO.C,C69*%
X266392151Y-121285000D03*
D13*
X263892151Y-121285000D03*
%TD*%
D12*
%TO.C,C37*%
X115711651Y-108023500D03*
D13*
X113211651Y-108023500D03*
%TD*%
D12*
%TO.C,C40*%
X106870500Y-130427349D03*
D13*
X106870500Y-133927349D03*
%TD*%
D12*
%TO.C,U4*%
X123200000Y-68526500D03*
D19*
X123200000Y-71066500D03*
X123200000Y-73606500D03*
X123200000Y-76146500D03*
X130820000Y-76146500D03*
X130820000Y-73606500D03*
X130820000Y-71066500D03*
X130820000Y-68526500D03*
%TD*%
D21*
%TO.C,K2*%
X102298500Y-75692000D03*
D22*
X102298500Y-68072000D03*
X102298500Y-62992000D03*
X102298500Y-57912000D03*
X94678500Y-57912000D03*
X94678500Y-62992000D03*
X94678500Y-68072000D03*
X94678500Y-75692000D03*
%TD*%
D14*
%TO.C,RV6*%
X267271500Y-137414000D03*
X267271500Y-139954000D03*
X267271500Y-142494000D03*
%TD*%
D12*
%TO.C,C95*%
X158750000Y-129105151D03*
D13*
X161250000Y-129105151D03*
%TD*%
D12*
%TO.C,C2*%
X52060000Y-125409651D03*
D13*
X52060000Y-122909651D03*
%TD*%
D15*
%TO.C,J47*%
X172148500Y-127962151D03*
D16*
X172148500Y-130502151D03*
%TD*%
D14*
%TO.C,RV2*%
X68824000Y-139763500D03*
X71364000Y-139763500D03*
X73904000Y-139763500D03*
%TD*%
D31*
%TO.C,D1*%
X61468000Y-84836000D03*
D32*
X51308000Y-84836000D03*
%TD*%
D18*
%TO.C,J11*%
X194119500Y-101155500D03*
%TD*%
D33*
%TO.C,L13*%
X261613000Y-156781500D03*
X276613000Y-156781500D03*
%TD*%
D13*
%TO.C,C26*%
X172299000Y-85534500D03*
X167299000Y-85534500D03*
%TD*%
D12*
%TO.C,C35*%
X115633500Y-131889500D03*
D13*
X115633500Y-134389500D03*
%TD*%
D10*
%TO.C,D2*%
X57394349Y-104960500D03*
D11*
X57394349Y-102420500D03*
%TD*%
D34*
%TO.C,Q2*%
X49636000Y-59857000D03*
D35*
X49636000Y-58587000D03*
X49636000Y-57317000D03*
%TD*%
D12*
%TO.C,D7*%
X233743500Y-81597500D03*
D19*
X226123500Y-81597500D03*
%TD*%
D12*
%TO.C,C43*%
X188235500Y-122608849D03*
D13*
X188235500Y-125108849D03*
%TD*%
M02*
