%TF.GenerationSoftware,KiCad,Pcbnew,(6.0.7)*%
%TF.CreationDate,2023-02-24T18:17:55-05:00*%
%TF.ProjectId,Phoenix612 Complete v1.1,50686f65-6e69-4783-9631-3220436f6d70,rev?*%
%TF.SameCoordinates,Original*%
%TF.FileFunction,Soldermask,Top*%
%TF.FilePolarity,Negative*%
%FSLAX46Y46*%
G04 Gerber Fmt 4.6, Leading zero omitted, Abs format (unit mm)*
G04 Created by KiCad (PCBNEW (6.0.7)) date 2023-02-24 18:17:55*
%MOMM*%
%LPD*%
G01*
G04 APERTURE LIST*
G04 Aperture macros list*
%AMRoundRect*
0 Rectangle with rounded corners*
0 $1 Rounding radius*
0 $2 $3 $4 $5 $6 $7 $8 $9 X,Y pos of 4 corners*
0 Add a 4 corners polygon primitive as box body*
4,1,4,$2,$3,$4,$5,$6,$7,$8,$9,$2,$3,0*
0 Add four circle primitives for the rounded corners*
1,1,$1+$1,$2,$3*
1,1,$1+$1,$4,$5*
1,1,$1+$1,$6,$7*
1,1,$1+$1,$8,$9*
0 Add four rect primitives between the rounded corners*
20,1,$1+$1,$2,$3,$4,$5,0*
20,1,$1+$1,$4,$5,$6,$7,0*
20,1,$1+$1,$6,$7,$8,$9,0*
20,1,$1+$1,$8,$9,$2,$3,0*%
G04 Aperture macros list end*
%ADD10R,1.800000X1.800000*%
%ADD11C,1.800000*%
%ADD12RoundRect,0.250000X0.625000X-0.312500X0.625000X0.312500X-0.625000X0.312500X-0.625000X-0.312500X0*%
%ADD13RoundRect,0.250000X0.650000X-0.325000X0.650000X0.325000X-0.650000X0.325000X-0.650000X-0.325000X0*%
%ADD14RoundRect,0.250000X0.700000X-0.275000X0.700000X0.275000X-0.700000X0.275000X-0.700000X-0.275000X0*%
%ADD15R,2.000000X2.000000*%
%ADD16R,1.600000X1.600000*%
%ADD17C,1.600000*%
%ADD18C,1.440000*%
%ADD19RoundRect,0.250000X-0.625000X0.312500X-0.625000X-0.312500X0.625000X-0.312500X0.625000X0.312500X0*%
%ADD20RoundRect,0.150000X0.675000X0.150000X-0.675000X0.150000X-0.675000X-0.150000X0.675000X-0.150000X0*%
%ADD21RoundRect,0.250000X0.325000X0.650000X-0.325000X0.650000X-0.325000X-0.650000X0.325000X-0.650000X0*%
%ADD22RoundRect,0.150000X-0.825000X-0.150000X0.825000X-0.150000X0.825000X0.150000X-0.825000X0.150000X0*%
%ADD23RoundRect,0.150000X-0.675000X-0.150000X0.675000X-0.150000X0.675000X0.150000X-0.675000X0.150000X0*%
%ADD24R,1.700000X1.700000*%
%ADD25O,1.700000X1.700000*%
%ADD26C,1.500000*%
%ADD27R,0.850000X0.850000*%
%ADD28RoundRect,0.250000X0.312500X0.625000X-0.312500X0.625000X-0.312500X-0.625000X0.312500X-0.625000X0*%
%ADD29O,1.600000X1.600000*%
%ADD30RoundRect,0.250000X-0.325000X-0.650000X0.325000X-0.650000X0.325000X0.650000X-0.325000X0.650000X0*%
%ADD31RoundRect,0.250000X-0.650000X0.325000X-0.650000X-0.325000X0.650000X-0.325000X0.650000X0.325000X0*%
%ADD32RoundRect,0.250000X-0.275000X-0.700000X0.275000X-0.700000X0.275000X0.700000X-0.275000X0.700000X0*%
%ADD33C,3.000000*%
%ADD34RoundRect,0.250000X-0.700000X0.275000X-0.700000X-0.275000X0.700000X-0.275000X0.700000X0.275000X0*%
%ADD35R,1.400000X1.400000*%
%ADD36C,1.400000*%
%ADD37RoundRect,0.250000X-0.312500X-0.625000X0.312500X-0.625000X0.312500X0.625000X-0.312500X0.625000X0*%
%ADD38RoundRect,0.250000X0.275000X0.700000X-0.275000X0.700000X-0.275000X-0.700000X0.275000X-0.700000X0*%
%ADD39R,2.000000X1.905000*%
%ADD40O,2.000000X1.905000*%
%ADD41C,2.050000*%
%ADD42C,2.250000*%
%ADD43RoundRect,0.250000X-0.412500X-0.650000X0.412500X-0.650000X0.412500X0.650000X-0.412500X0.650000X0*%
%ADD44R,1.050000X1.500000*%
%ADD45O,1.050000X1.500000*%
%ADD46R,1.905000X2.000000*%
%ADD47O,1.905000X2.000000*%
%ADD48R,2.200000X2.200000*%
%ADD49O,2.200000X2.200000*%
%ADD50C,2.400000*%
%ADD51R,1.500000X1.050000*%
%ADD52O,1.500000X1.050000*%
G04 APERTURE END LIST*
D10*
%TO.C,D4*%
X50863500Y-105024000D03*
D11*
X50863500Y-102484000D03*
%TD*%
D12*
%TO.C,R29*%
X193125000Y-116651500D03*
X193125000Y-113726500D03*
%TD*%
D13*
%TO.C,C47*%
X183515000Y-111965000D03*
X183515000Y-109015000D03*
%TD*%
D14*
%TO.C,L7*%
X183028500Y-121018500D03*
X183028500Y-117868500D03*
%TD*%
D15*
%TO.C,J26*%
X291274500Y-164084000D03*
%TD*%
D16*
%TO.C,C44*%
X210778000Y-113472849D03*
D17*
X210778000Y-116972849D03*
%TD*%
D13*
%TO.C,C81*%
X259905500Y-144169500D03*
X259905500Y-141219500D03*
%TD*%
D18*
%TO.C,RV4*%
X68262500Y-44426500D03*
X70802500Y-44426500D03*
X73342500Y-44426500D03*
%TD*%
D19*
%TO.C,R70*%
X154876500Y-121991151D03*
X154876500Y-124916151D03*
%TD*%
D16*
%TO.C,C56*%
X250253500Y-112014000D03*
D17*
X250253500Y-114514000D03*
%TD*%
D20*
%TO.C,U6*%
X191368500Y-111950500D03*
X191368500Y-110680500D03*
X191368500Y-109410500D03*
X191368500Y-108140500D03*
X186118500Y-108140500D03*
X186118500Y-109410500D03*
X186118500Y-110680500D03*
X186118500Y-111950500D03*
%TD*%
D13*
%TO.C,C92*%
X140335000Y-118759500D03*
X140335000Y-115809500D03*
%TD*%
D15*
%TO.C,J27*%
X215138000Y-165925500D03*
%TD*%
D21*
%TO.C,C15*%
X136603000Y-73660000D03*
X133653000Y-73660000D03*
%TD*%
D19*
%TO.C,R8*%
X62474000Y-137209000D03*
X62474000Y-140134000D03*
%TD*%
%TO.C,R43*%
X227711000Y-112329500D03*
X227711000Y-115254500D03*
%TD*%
D15*
%TO.C,J45*%
X130175000Y-187515500D03*
%TD*%
%TO.C,J24*%
X215201500Y-184086500D03*
%TD*%
D13*
%TO.C,C67*%
X282457651Y-109361500D03*
X282457651Y-106411500D03*
%TD*%
D22*
%TO.C,U10*%
X274394651Y-106934000D03*
X274394651Y-108204000D03*
X274394651Y-109474000D03*
X274394651Y-110744000D03*
X274394651Y-112014000D03*
X274394651Y-113284000D03*
X274394651Y-114554000D03*
X279344651Y-114554000D03*
X279344651Y-113284000D03*
X279344651Y-112014000D03*
X279344651Y-110744000D03*
X279344651Y-109474000D03*
X279344651Y-108204000D03*
X279344651Y-106934000D03*
%TD*%
D19*
%TO.C,R30*%
X188489500Y-114425000D03*
X188489500Y-117350000D03*
%TD*%
D23*
%TO.C,U12*%
X146854000Y-116205000D03*
X146854000Y-117475000D03*
X146854000Y-118745000D03*
X146854000Y-120015000D03*
X152104000Y-120015000D03*
X152104000Y-118745000D03*
X152104000Y-117475000D03*
X152104000Y-116205000D03*
%TD*%
D24*
%TO.C,U11*%
X255270000Y-175052000D03*
D25*
X255270000Y-172512000D03*
X255270000Y-169972000D03*
X255270000Y-167432000D03*
X222250000Y-167386000D03*
X222250000Y-169926000D03*
X222250000Y-172466000D03*
D24*
X222250000Y-175006000D03*
%TD*%
D19*
%TO.C,R73*%
X143700500Y-121038651D03*
X143700500Y-123963651D03*
%TD*%
D26*
%TO.C,Y3*%
X166243000Y-74766000D03*
X166243000Y-79646000D03*
%TD*%
D17*
%TO.C,C28*%
X163171500Y-66929000D03*
X168171500Y-66929000D03*
%TD*%
D27*
%TO.C,J7*%
X215519000Y-80708500D03*
%TD*%
D15*
%TO.C,J36*%
X105092500Y-167132000D03*
%TD*%
D28*
%TO.C,R14*%
X74337651Y-68500500D03*
X71412651Y-68500500D03*
%TD*%
D15*
%TO.C,J37*%
X199961500Y-145161000D03*
%TD*%
D24*
%TO.C,U2*%
X77233500Y-130429000D03*
D25*
X79773500Y-130429000D03*
X82313500Y-130429000D03*
X84853500Y-130429000D03*
X84899500Y-97409000D03*
X82359500Y-97409000D03*
X79819500Y-97409000D03*
D24*
X77279500Y-97409000D03*
%TD*%
D16*
%TO.C,D9*%
X137541000Y-180467000D03*
D29*
X129921000Y-180467000D03*
%TD*%
D13*
%TO.C,C79*%
X277876000Y-139079500D03*
X277876000Y-136129500D03*
%TD*%
D15*
%TO.C,J23*%
X290766500Y-131064000D03*
%TD*%
D27*
%TO.C,J4*%
X133858000Y-69088000D03*
%TD*%
D30*
%TO.C,C89*%
X146480000Y-110055151D03*
X149430000Y-110055151D03*
%TD*%
D21*
%TO.C,C36*%
X116986500Y-125930500D03*
X114036500Y-125930500D03*
%TD*%
D13*
%TO.C,C7*%
X68199000Y-129872000D03*
X68199000Y-126922000D03*
%TD*%
D15*
%TO.C,J25*%
X215138000Y-147574000D03*
%TD*%
D24*
%TO.C,J3*%
X73378500Y-89281000D03*
D25*
X70838500Y-89281000D03*
%TD*%
D12*
%TO.C,R24*%
X105854500Y-79694500D03*
X105854500Y-76769500D03*
%TD*%
D15*
%TO.C,J46*%
X105029000Y-187325000D03*
%TD*%
D26*
%TO.C,Y4*%
X173228000Y-79666000D03*
X173228000Y-74786000D03*
%TD*%
D31*
%TO.C,C24*%
X119253000Y-71359500D03*
X119253000Y-74309500D03*
%TD*%
D12*
%TO.C,R67*%
X143002000Y-118810500D03*
X143002000Y-115885500D03*
%TD*%
D19*
%TO.C,R42*%
X222123000Y-117155500D03*
X222123000Y-120080500D03*
%TD*%
D28*
%TO.C,R61*%
X154751500Y-171640500D03*
X151826500Y-171640500D03*
%TD*%
D30*
%TO.C,C18*%
X130922500Y-62420500D03*
X133872500Y-62420500D03*
%TD*%
D13*
%TO.C,C62*%
X214566500Y-108409000D03*
X214566500Y-105459000D03*
%TD*%
D28*
%TO.C,R9*%
X43807000Y-126352500D03*
X40882000Y-126352500D03*
%TD*%
D16*
%TO.C,D6*%
X102425500Y-79248000D03*
D29*
X94805500Y-79248000D03*
%TD*%
D32*
%TO.C,L14*%
X256362000Y-146812000D03*
X259512000Y-146812000D03*
%TD*%
D13*
%TO.C,C65*%
X267154151Y-103710000D03*
X267154151Y-100760000D03*
%TD*%
D33*
%TO.C,T3*%
X268366500Y-179347000D03*
X268366500Y-166347000D03*
X262366500Y-179347000D03*
X262366500Y-166347000D03*
%TD*%
%TO.C,T4*%
X142304500Y-164004000D03*
X158304500Y-164004000D03*
X142304500Y-154004000D03*
X158304500Y-154004000D03*
%TD*%
D12*
%TO.C,R3*%
X31867000Y-140959500D03*
X31867000Y-138034500D03*
%TD*%
D34*
%TO.C,L5*%
X122496500Y-125562000D03*
X122496500Y-128712000D03*
%TD*%
D35*
%TO.C,K4*%
X137557000Y-176434000D03*
D36*
X137557000Y-168814000D03*
X137557000Y-163734000D03*
X137557000Y-158654000D03*
X129937000Y-158654000D03*
X129937000Y-163734000D03*
X129937000Y-168814000D03*
X129937000Y-176434000D03*
%TD*%
D26*
%TO.C,Y1*%
X151765000Y-74702500D03*
X151765000Y-79582500D03*
%TD*%
D31*
%TO.C,C68*%
X282394151Y-111237500D03*
X282394151Y-114187500D03*
%TD*%
D16*
%TO.C,C72*%
X254000000Y-155565349D03*
D17*
X254000000Y-158065349D03*
%TD*%
D30*
%TO.C,C16*%
X130922500Y-65278000D03*
X133872500Y-65278000D03*
%TD*%
D18*
%TO.C,RV7*%
X142547500Y-105864151D03*
X145087500Y-105864151D03*
X147627500Y-105864151D03*
%TD*%
D37*
%TO.C,R51*%
X275153151Y-116840000D03*
X278078151Y-116840000D03*
%TD*%
D38*
%TO.C,L8*%
X54978500Y-45823500D03*
X51828500Y-45823500D03*
%TD*%
D31*
%TO.C,C82*%
X271843500Y-142299000D03*
X271843500Y-145249000D03*
%TD*%
D27*
%TO.C,J14*%
X236664500Y-95885000D03*
%TD*%
D24*
%TO.C,J20*%
X275839000Y-168148000D03*
D25*
X278379000Y-168148000D03*
%TD*%
D12*
%TO.C,R55*%
X266328651Y-113095500D03*
X266328651Y-110170500D03*
%TD*%
D16*
%TO.C,C50*%
X58991500Y-49189000D03*
D17*
X58991500Y-51689000D03*
%TD*%
D30*
%TO.C,C30*%
X197544000Y-75257500D03*
X200494000Y-75257500D03*
%TD*%
D37*
%TO.C,R21*%
X214818500Y-89154000D03*
X217743500Y-89154000D03*
%TD*%
D24*
%TO.C,J34*%
X191008000Y-173863000D03*
D25*
X191008000Y-176403000D03*
%TD*%
D34*
%TO.C,L12*%
X260867651Y-110058000D03*
X260867651Y-113208000D03*
%TD*%
D30*
%TO.C,C55*%
X241031500Y-103949500D03*
X243981500Y-103949500D03*
%TD*%
D31*
%TO.C,C61*%
X236918500Y-99109000D03*
X236918500Y-102059000D03*
%TD*%
D28*
%TO.C,R20*%
X214451500Y-66748500D03*
X211526500Y-66748500D03*
%TD*%
D39*
%TO.C,Q3*%
X287726000Y-148399500D03*
D40*
X287726000Y-150939500D03*
X287726000Y-153479500D03*
%TD*%
D15*
%TO.C,J29*%
X269113000Y-131000500D03*
%TD*%
D16*
%TO.C,D10*%
X148844000Y-179070000D03*
D29*
X148844000Y-171450000D03*
%TD*%
D19*
%TO.C,R2*%
X23167500Y-137971000D03*
X23167500Y-140896000D03*
%TD*%
D16*
%TO.C,U8*%
X233489500Y-107315000D03*
D29*
X233489500Y-109855000D03*
X233489500Y-112395000D03*
X233489500Y-114935000D03*
X241109500Y-114935000D03*
X241109500Y-112395000D03*
X241109500Y-109855000D03*
X241109500Y-107315000D03*
%TD*%
D37*
%TO.C,R23*%
X217803000Y-86487000D03*
X220728000Y-86487000D03*
%TD*%
D15*
%TO.C,J21*%
X241744500Y-131318000D03*
%TD*%
D18*
%TO.C,RV5*%
X226568000Y-107378500D03*
X224028000Y-107378500D03*
X221488000Y-107378500D03*
%TD*%
D21*
%TO.C,C78*%
X286272500Y-139700000D03*
X283322500Y-139700000D03*
%TD*%
D12*
%TO.C,R45*%
X230558500Y-109593000D03*
X230558500Y-106668000D03*
%TD*%
D31*
%TO.C,C58*%
X227711000Y-117143000D03*
X227711000Y-120093000D03*
%TD*%
D16*
%TO.C,U7*%
X116718000Y-114945000D03*
D29*
X114178000Y-114945000D03*
X111638000Y-114945000D03*
X109098000Y-114945000D03*
X106558000Y-114945000D03*
X104018000Y-114945000D03*
X101478000Y-114945000D03*
X101478000Y-122565000D03*
X104018000Y-122565000D03*
X106558000Y-122565000D03*
X109098000Y-122565000D03*
X111638000Y-122565000D03*
X114178000Y-122565000D03*
X116718000Y-122565000D03*
%TD*%
D12*
%TO.C,R41*%
X219710000Y-120080500D03*
X219710000Y-117155500D03*
%TD*%
D37*
%TO.C,R65*%
X149032500Y-123707651D03*
X151957500Y-123707651D03*
%TD*%
D19*
%TO.C,R48*%
X270392651Y-100836000D03*
X270392651Y-103761000D03*
%TD*%
%TO.C,R12*%
X62357000Y-107435000D03*
X62357000Y-110360000D03*
%TD*%
D14*
%TO.C,L11*%
X285124651Y-104318000D03*
X285124651Y-101168000D03*
%TD*%
D15*
%TO.C,J38*%
X173990000Y-145161000D03*
%TD*%
D16*
%TO.C,C96*%
X143583151Y-129867151D03*
D17*
X141083151Y-129867151D03*
%TD*%
D24*
%TO.C,U9*%
X250744000Y-65151000D03*
D25*
X248204000Y-65151000D03*
X245664000Y-65151000D03*
X243124000Y-65151000D03*
X243078000Y-98171000D03*
X245618000Y-98171000D03*
X248158000Y-98171000D03*
D24*
X250698000Y-98171000D03*
%TD*%
D31*
%TO.C,C33*%
X199644000Y-79614500D03*
X199644000Y-82564500D03*
%TD*%
D12*
%TO.C,R59*%
X254254000Y-146814000D03*
X254254000Y-143889000D03*
%TD*%
D18*
%TO.C,RV3*%
X123825000Y-108712000D03*
X123825000Y-111252000D03*
X123825000Y-113792000D03*
%TD*%
D16*
%TO.C,D11*%
X187325000Y-173418500D03*
D29*
X179705000Y-173418500D03*
%TD*%
D16*
%TO.C,C17*%
X125476000Y-61985651D03*
D17*
X125476000Y-59485651D03*
%TD*%
D16*
%TO.C,D12*%
X172339000Y-116976651D03*
D29*
X172339000Y-124596651D03*
%TD*%
D24*
%TO.C,J2*%
X48275000Y-90233500D03*
D25*
X50815000Y-90233500D03*
X53355000Y-90233500D03*
%TD*%
D13*
%TO.C,C84*%
X262699500Y-144106000D03*
X262699500Y-141156000D03*
%TD*%
%TO.C,C91*%
X172529500Y-114641651D03*
X172529500Y-111691651D03*
%TD*%
D12*
%TO.C,R64*%
X184848500Y-179072000D03*
X184848500Y-176147000D03*
%TD*%
D19*
%TO.C,R54*%
X263598151Y-110170500D03*
X263598151Y-113095500D03*
%TD*%
D41*
%TO.C,J32*%
X116332000Y-179260500D03*
D42*
X113792000Y-176720500D03*
X118872000Y-181800500D03*
X113792000Y-181800500D03*
X118872000Y-176720500D03*
%TD*%
D21*
%TO.C,C38*%
X207109500Y-108902500D03*
X204159500Y-108902500D03*
%TD*%
D16*
%TO.C,C11*%
X37338000Y-92321500D03*
D17*
X37338000Y-94821500D03*
%TD*%
D31*
%TO.C,C57*%
X244157500Y-107046500D03*
X244157500Y-109996500D03*
%TD*%
D41*
%TO.C,J5*%
X150368000Y-58737500D03*
D42*
X147828000Y-61277500D03*
X152908000Y-56197500D03*
X147828000Y-56197500D03*
X152908000Y-61277500D03*
%TD*%
D16*
%TO.C,C90*%
X166370000Y-117538500D03*
D17*
X166370000Y-120038500D03*
%TD*%
D15*
%TO.C,J44*%
X199961500Y-165544500D03*
%TD*%
D19*
%TO.C,R1*%
X23167500Y-132954500D03*
X23167500Y-135879500D03*
%TD*%
%TO.C,R13*%
X51308000Y-107689000D03*
X51308000Y-110614000D03*
%TD*%
D30*
%TO.C,C73*%
X261415000Y-146812000D03*
X264365000Y-146812000D03*
%TD*%
D37*
%TO.C,R18*%
X142428500Y-68008500D03*
X145353500Y-68008500D03*
%TD*%
D16*
%TO.C,D8*%
X256857500Y-144028000D03*
D29*
X256857500Y-136408000D03*
%TD*%
D19*
%TO.C,R35*%
X49657000Y-45504000D03*
X49657000Y-48429000D03*
%TD*%
D13*
%TO.C,C83*%
X271843500Y-140042000D03*
X271843500Y-137092000D03*
%TD*%
D27*
%TO.C,J15*%
X255016000Y-120904000D03*
%TD*%
D16*
%TO.C,U5*%
X204035500Y-75638500D03*
D29*
X204035500Y-78178500D03*
X204035500Y-80718500D03*
X204035500Y-83258500D03*
X211655500Y-83258500D03*
X211655500Y-80718500D03*
X211655500Y-78178500D03*
X211655500Y-75638500D03*
%TD*%
D15*
%TO.C,J43*%
X199771000Y-187515500D03*
%TD*%
D21*
%TO.C,C31*%
X99519000Y-81978500D03*
X96569000Y-81978500D03*
%TD*%
D16*
%TO.C,C98*%
X161480500Y-112404651D03*
D17*
X161480500Y-109904651D03*
%TD*%
D19*
%TO.C,R72*%
X152209500Y-111069151D03*
X152209500Y-113994151D03*
%TD*%
D30*
%TO.C,C64*%
X258557500Y-103695500D03*
X261507500Y-103695500D03*
%TD*%
D27*
%TO.C,J16*%
X270192500Y-126809500D03*
%TD*%
D24*
%TO.C,J13*%
X25844500Y-63037000D03*
D25*
X25844500Y-60497000D03*
%TD*%
D30*
%TO.C,C22*%
X211450500Y-69479000D03*
X214400500Y-69479000D03*
%TD*%
D16*
%TO.C,C46*%
X185356500Y-103959151D03*
D17*
X185356500Y-101459151D03*
%TD*%
D24*
%TO.C,J33*%
X152209500Y-178249500D03*
D25*
X152209500Y-175709500D03*
%TD*%
D19*
%TO.C,R36*%
X40640000Y-50393500D03*
X40640000Y-53318500D03*
%TD*%
D31*
%TO.C,C4*%
X28946000Y-138085500D03*
X28946000Y-141035500D03*
%TD*%
D16*
%TO.C,C51*%
X67881500Y-55626000D03*
D17*
X67881500Y-53126000D03*
%TD*%
D13*
%TO.C,C80*%
X280416000Y-139016000D03*
X280416000Y-136066000D03*
%TD*%
D30*
%TO.C,C1*%
X58459000Y-129083000D03*
X61409000Y-129083000D03*
%TD*%
D37*
%TO.C,R44*%
X248854500Y-121412000D03*
X251779500Y-121412000D03*
%TD*%
D15*
%TO.C,J35*%
X152273000Y-145097500D03*
%TD*%
D14*
%TO.C,L6*%
X199348000Y-120129500D03*
X199348000Y-116979500D03*
%TD*%
D34*
%TO.C,L2*%
X23114000Y-127393500D03*
X23114000Y-130543500D03*
%TD*%
D17*
%TO.C,C27*%
X158202000Y-85344000D03*
X153202000Y-85344000D03*
%TD*%
D19*
%TO.C,R37*%
X49593500Y-50393500D03*
X49593500Y-53318500D03*
%TD*%
D18*
%TO.C,RV1*%
X42852500Y-135814000D03*
X42852500Y-133274000D03*
X42852500Y-130734000D03*
%TD*%
D12*
%TO.C,R68*%
X155003500Y-119518651D03*
X155003500Y-116593651D03*
%TD*%
%TO.C,R49*%
X272805651Y-119890000D03*
X272805651Y-116965000D03*
%TD*%
D21*
%TO.C,C63*%
X275677651Y-122237500D03*
X272727651Y-122237500D03*
%TD*%
D16*
%TO.C,C66*%
X285823151Y-119761000D03*
D17*
X283323151Y-119761000D03*
%TD*%
D21*
%TO.C,C12*%
X34685500Y-81724500D03*
X31735500Y-81724500D03*
%TD*%
D35*
%TO.C,K1*%
X69309500Y-71421500D03*
D36*
X61689500Y-71421500D03*
X56609500Y-71421500D03*
X51529500Y-71421500D03*
X51529500Y-79041500D03*
X56609500Y-79041500D03*
X61689500Y-79041500D03*
X69309500Y-79041500D03*
%TD*%
D37*
%TO.C,R25*%
X231773000Y-87122000D03*
X234698000Y-87122000D03*
%TD*%
D14*
%TO.C,L9*%
X31940500Y-58320500D03*
X31940500Y-55170500D03*
%TD*%
D27*
%TO.C,J8*%
X116459000Y-79121000D03*
%TD*%
D13*
%TO.C,C6*%
X34597500Y-144210500D03*
X34597500Y-141260500D03*
%TD*%
D27*
%TO.C,J6*%
X114236500Y-60515500D03*
%TD*%
D13*
%TO.C,C74*%
X272732500Y-180100500D03*
X272732500Y-177150500D03*
%TD*%
D24*
%TO.C,J12*%
X100144500Y-133921500D03*
D25*
X97604500Y-133921500D03*
%TD*%
D41*
%TO.C,J9*%
X217995500Y-95504000D03*
D42*
X220535500Y-92964000D03*
X215455500Y-92964000D03*
X220535500Y-98044000D03*
X215455500Y-98044000D03*
%TD*%
D30*
%TO.C,C60*%
X232459000Y-54864000D03*
X235409000Y-54864000D03*
%TD*%
D28*
%TO.C,R71*%
X150814500Y-130565651D03*
X147889500Y-130565651D03*
%TD*%
D19*
%TO.C,R33*%
X201824500Y-109091000D03*
X201824500Y-112016000D03*
%TD*%
D12*
%TO.C,R7*%
X47678500Y-137340000D03*
X47678500Y-134415000D03*
%TD*%
D27*
%TO.C,J19*%
X278384000Y-144843500D03*
%TD*%
D28*
%TO.C,R16*%
X133860000Y-59563000D03*
X130935000Y-59563000D03*
%TD*%
D13*
%TO.C,C41*%
X98679000Y-123966500D03*
X98679000Y-121016500D03*
%TD*%
D31*
%TO.C,C59*%
X225044000Y-117143000D03*
X225044000Y-120093000D03*
%TD*%
D30*
%TO.C,C3*%
X58395500Y-131750000D03*
X61345500Y-131750000D03*
%TD*%
D32*
%TO.C,L3*%
X130822500Y-56578500D03*
X133972500Y-56578500D03*
%TD*%
D16*
%TO.C,C75*%
X283908500Y-177547651D03*
D17*
X283908500Y-174047651D03*
%TD*%
D43*
%TO.C,C39*%
X190906000Y-104330500D03*
X194031000Y-104330500D03*
%TD*%
D44*
%TO.C,Q1*%
X76612000Y-82555000D03*
D45*
X75342000Y-82555000D03*
X74072000Y-82555000D03*
%TD*%
D31*
%TO.C,C23*%
X178308000Y-74517500D03*
X178308000Y-77467500D03*
%TD*%
D15*
%TO.C,J22*%
X269811500Y-184023000D03*
%TD*%
D28*
%TO.C,R62*%
X161849000Y-175704500D03*
X158924000Y-175704500D03*
%TD*%
D27*
%TO.C,J18*%
X222440500Y-154686000D03*
%TD*%
D37*
%TO.C,R17*%
X142492000Y-65468500D03*
X145417000Y-65468500D03*
%TD*%
D16*
%TO.C,C53*%
X40566849Y-58904500D03*
D17*
X43066849Y-58904500D03*
%TD*%
D31*
%TO.C,C5*%
X25961500Y-138085500D03*
X25961500Y-141035500D03*
%TD*%
D33*
%TO.C,TR1*%
X90233500Y-92442000D03*
X94551500Y-89140000D03*
X99885500Y-88886000D03*
%TD*%
D37*
%TO.C,R10*%
X72568500Y-135509000D03*
X75493500Y-135509000D03*
%TD*%
D12*
%TO.C,R39*%
X77216000Y-45444500D03*
X77216000Y-42519500D03*
%TD*%
D33*
%TO.C,T1*%
X129985500Y-92630000D03*
X145985500Y-92630000D03*
X129985500Y-82630000D03*
X145985500Y-82630000D03*
%TD*%
D16*
%TO.C,C19*%
X111506000Y-67754500D03*
D17*
X114006000Y-67754500D03*
%TD*%
D37*
%TO.C,R5*%
X55677500Y-145669000D03*
X58602500Y-145669000D03*
%TD*%
D15*
%TO.C,J31*%
X291401500Y-183959500D03*
%TD*%
%TO.C,J30*%
X215011000Y-131191000D03*
%TD*%
%TO.C,J42*%
X173799500Y-187515500D03*
%TD*%
D16*
%TO.C,C21*%
X204416500Y-69161500D03*
D17*
X204416500Y-66661500D03*
%TD*%
D31*
%TO.C,C29*%
X122999500Y-79170000D03*
X122999500Y-82120000D03*
%TD*%
D19*
%TO.C,R53*%
X285124651Y-106360500D03*
X285124651Y-109285500D03*
%TD*%
D31*
%TO.C,C54*%
X32004000Y-60160000D03*
X32004000Y-63110000D03*
%TD*%
D33*
%TO.C,T5*%
X166450000Y-150813500D03*
X166450000Y-166813500D03*
X176450000Y-150813500D03*
X176450000Y-166813500D03*
%TD*%
D19*
%TO.C,R11*%
X57277000Y-107435000D03*
X57277000Y-110360000D03*
%TD*%
D31*
%TO.C,C45*%
X204809000Y-113904500D03*
X204809000Y-116854500D03*
%TD*%
D30*
%TO.C,C52*%
X74471000Y-40181651D03*
X77421000Y-40181651D03*
%TD*%
D37*
%TO.C,R4*%
X37592000Y-141224000D03*
X40517000Y-141224000D03*
%TD*%
%TO.C,R52*%
X275788151Y-104584500D03*
X278713151Y-104584500D03*
%TD*%
D16*
%TO.C,D5*%
X74072000Y-71485000D03*
D29*
X74072000Y-79105000D03*
%TD*%
D32*
%TO.C,L15*%
X147967500Y-133550151D03*
X151117500Y-133550151D03*
%TD*%
D27*
%TO.C,J1*%
X61140500Y-145605500D03*
%TD*%
D37*
%TO.C,R47*%
X278645651Y-125285500D03*
X281570651Y-125285500D03*
%TD*%
D12*
%TO.C,R58*%
X274574000Y-142188500D03*
X274574000Y-139263500D03*
%TD*%
D26*
%TO.C,Y2*%
X158877000Y-79602500D03*
X158877000Y-74722500D03*
%TD*%
D31*
%TO.C,C9*%
X77968000Y-135304000D03*
X77968000Y-138254000D03*
%TD*%
%TO.C,C77*%
X251079000Y-172564000D03*
X251079000Y-175514000D03*
%TD*%
D16*
%TO.C,C10*%
X26670000Y-92827349D03*
D17*
X26670000Y-95327349D03*
%TD*%
D16*
%TO.C,C94*%
X133149849Y-125993651D03*
D17*
X135649849Y-125993651D03*
%TD*%
D13*
%TO.C,C93*%
X160274000Y-119531151D03*
X160274000Y-116581151D03*
%TD*%
%TO.C,C71*%
X269186151Y-113108000D03*
X269186151Y-110158000D03*
%TD*%
D10*
%TO.C,D3*%
X62357000Y-104965500D03*
D11*
X62357000Y-102425500D03*
%TD*%
D35*
%TO.C,K3*%
X233696000Y-78136000D03*
D36*
X233696000Y-70516000D03*
X233696000Y-65436000D03*
X233696000Y-60356000D03*
X226076000Y-60356000D03*
X226076000Y-65436000D03*
X226076000Y-70516000D03*
X226076000Y-78136000D03*
%TD*%
D19*
%TO.C,R46*%
X217297000Y-105471500D03*
X217297000Y-108396500D03*
%TD*%
D46*
%TO.C,U3*%
X29210000Y-86670000D03*
D47*
X31750000Y-86670000D03*
X34290000Y-86670000D03*
%TD*%
D12*
%TO.C,R63*%
X179959000Y-179010500D03*
X179959000Y-176085500D03*
%TD*%
D13*
%TO.C,C76*%
X275780500Y-180100500D03*
X275780500Y-177150500D03*
%TD*%
D31*
%TO.C,C87*%
X187452000Y-176198000D03*
X187452000Y-179148000D03*
%TD*%
D21*
%TO.C,C34*%
X231662500Y-84518500D03*
X228712500Y-84518500D03*
%TD*%
D16*
%TO.C,U1*%
X50736500Y-134871500D03*
D29*
X50736500Y-137411500D03*
X50736500Y-139951500D03*
X50736500Y-142491500D03*
X58356500Y-142491500D03*
X58356500Y-139951500D03*
X58356500Y-137411500D03*
X58356500Y-134871500D03*
%TD*%
D19*
%TO.C,R15*%
X76612000Y-86596000D03*
X76612000Y-89521000D03*
%TD*%
D15*
%TO.C,J28*%
X242189000Y-184150000D03*
%TD*%
D33*
%TO.C,T2*%
X178753500Y-92185500D03*
X194753500Y-92185500D03*
X178753500Y-82185500D03*
X194753500Y-82185500D03*
%TD*%
D19*
%TO.C,R50*%
X264169651Y-100772500D03*
X264169651Y-103697500D03*
%TD*%
D32*
%TO.C,L4*%
X211414000Y-63764000D03*
X214564000Y-63764000D03*
%TD*%
D13*
%TO.C,C32*%
X215328500Y-86565000D03*
X215328500Y-83615000D03*
%TD*%
D30*
%TO.C,C97*%
X147940500Y-127898651D03*
X150890500Y-127898651D03*
%TD*%
D27*
%TO.C,J10*%
X192722500Y-74993500D03*
%TD*%
D28*
%TO.C,R28*%
X101480000Y-126248000D03*
X98555000Y-126248000D03*
%TD*%
D33*
%TO.C,TR2*%
X253061500Y-46418500D03*
X256363500Y-50736500D03*
X256617500Y-56070500D03*
%TD*%
D13*
%TO.C,C42*%
X195792000Y-116727500D03*
X195792000Y-113777500D03*
%TD*%
D15*
%TO.C,J41*%
X128460500Y-144843500D03*
%TD*%
D12*
%TO.C,R26*%
X119639000Y-128538000D03*
X119639000Y-125613000D03*
%TD*%
D27*
%TO.C,J17*%
X285251651Y-125412500D03*
%TD*%
D12*
%TO.C,R66*%
X166560500Y-127519651D03*
X166560500Y-124594651D03*
%TD*%
D16*
%TO.C,C69*%
X266392151Y-121285000D03*
D17*
X263892151Y-121285000D03*
%TD*%
D34*
%TO.C,L16*%
X152146000Y-105305151D03*
X152146000Y-108455151D03*
%TD*%
D28*
%TO.C,R69*%
X138051000Y-118491000D03*
X135126000Y-118491000D03*
%TD*%
D21*
%TO.C,C14*%
X81929500Y-89217500D03*
X78979500Y-89217500D03*
%TD*%
D16*
%TO.C,C37*%
X115711651Y-108023500D03*
D17*
X113211651Y-108023500D03*
%TD*%
D12*
%TO.C,R40*%
X37973000Y-53382000D03*
X37973000Y-50457000D03*
%TD*%
D15*
%TO.C,J39*%
X105473500Y-145097500D03*
%TD*%
D16*
%TO.C,C40*%
X106870500Y-130427349D03*
D17*
X106870500Y-133927349D03*
%TD*%
D12*
%TO.C,R56*%
X288480500Y-142940500D03*
X288480500Y-140015500D03*
%TD*%
%TO.C,R60*%
X143446500Y-180151500D03*
X143446500Y-177226500D03*
%TD*%
D30*
%TO.C,C20*%
X211641000Y-72336500D03*
X214591000Y-72336500D03*
%TD*%
D16*
%TO.C,U4*%
X123200000Y-68526500D03*
D29*
X123200000Y-71066500D03*
X123200000Y-73606500D03*
X123200000Y-76146500D03*
X130820000Y-76146500D03*
X130820000Y-73606500D03*
X130820000Y-71066500D03*
X130820000Y-68526500D03*
%TD*%
D35*
%TO.C,K2*%
X102298500Y-75692000D03*
D36*
X102298500Y-68072000D03*
X102298500Y-62992000D03*
X102298500Y-57912000D03*
X94678500Y-57912000D03*
X94678500Y-62992000D03*
X94678500Y-68072000D03*
X94678500Y-75692000D03*
%TD*%
D18*
%TO.C,RV6*%
X267271500Y-137414000D03*
X267271500Y-139954000D03*
X267271500Y-142494000D03*
%TD*%
D12*
%TO.C,R32*%
X185759000Y-117350000D03*
X185759000Y-114425000D03*
%TD*%
D13*
%TO.C,C99*%
X154813000Y-114070151D03*
X154813000Y-111120151D03*
%TD*%
D31*
%TO.C,C13*%
X76993000Y-73820000D03*
X76993000Y-76770000D03*
%TD*%
%TO.C,C70*%
X271789651Y-108380000D03*
X271789651Y-111330000D03*
%TD*%
%TO.C,C8*%
X38407500Y-126084000D03*
X38407500Y-129034000D03*
%TD*%
D16*
%TO.C,C95*%
X158750000Y-129105151D03*
D17*
X161250000Y-129105151D03*
%TD*%
D16*
%TO.C,C2*%
X52060000Y-125409651D03*
D17*
X52060000Y-122909651D03*
%TD*%
D24*
%TO.C,J47*%
X172148500Y-127962151D03*
D25*
X172148500Y-130502151D03*
%TD*%
D18*
%TO.C,RV2*%
X68824000Y-139763500D03*
X71364000Y-139763500D03*
X73904000Y-139763500D03*
%TD*%
D48*
%TO.C,D1*%
X61468000Y-84836000D03*
D49*
X51308000Y-84836000D03*
%TD*%
D31*
%TO.C,C49*%
X46609000Y-50254000D03*
X46609000Y-53204000D03*
%TD*%
D27*
%TO.C,J11*%
X194119500Y-101155500D03*
%TD*%
D50*
%TO.C,L13*%
X261613000Y-156781500D03*
X276613000Y-156781500D03*
%TD*%
D38*
%TO.C,L10*%
X249606000Y-107378500D03*
X246456000Y-107378500D03*
%TD*%
D19*
%TO.C,R19*%
X147637500Y-65149000D03*
X147637500Y-68074000D03*
%TD*%
D34*
%TO.C,L1*%
X56060500Y-128587500D03*
X56060500Y-131737500D03*
%TD*%
D17*
%TO.C,C26*%
X172299000Y-85534500D03*
X167299000Y-85534500D03*
%TD*%
D30*
%TO.C,C85*%
X158926000Y-178371500D03*
X161876000Y-178371500D03*
%TD*%
D12*
%TO.C,R6*%
X68189000Y-135130000D03*
X68189000Y-132205000D03*
%TD*%
D31*
%TO.C,C88*%
X137096500Y-104008151D03*
X137096500Y-106958151D03*
%TD*%
D16*
%TO.C,C35*%
X115633500Y-131889500D03*
D17*
X115633500Y-134389500D03*
%TD*%
D37*
%TO.C,R34*%
X201441500Y-106235500D03*
X204366500Y-106235500D03*
%TD*%
D15*
%TO.C,J40*%
X153225500Y-187452000D03*
%TD*%
D12*
%TO.C,R38*%
X53276500Y-58525500D03*
X53276500Y-55600500D03*
%TD*%
D13*
%TO.C,C25*%
X147002500Y-77291500D03*
X147002500Y-74341500D03*
%TD*%
D10*
%TO.C,D2*%
X57394349Y-104960500D03*
D11*
X57394349Y-102420500D03*
%TD*%
D28*
%TO.C,R22*%
X212282500Y-89154000D03*
X209357500Y-89154000D03*
%TD*%
D12*
%TO.C,R31*%
X201951500Y-116842000D03*
X201951500Y-113917000D03*
%TD*%
D51*
%TO.C,Q2*%
X49636000Y-59857000D03*
D52*
X49636000Y-58587000D03*
X49636000Y-57317000D03*
%TD*%
D31*
%TO.C,C48*%
X43561000Y-50317500D03*
X43561000Y-53267500D03*
%TD*%
D28*
%TO.C,R27*%
X122493500Y-119824500D03*
X119568500Y-119824500D03*
%TD*%
D16*
%TO.C,D7*%
X233743500Y-81597500D03*
D29*
X226123500Y-81597500D03*
%TD*%
D16*
%TO.C,C43*%
X188235500Y-122608849D03*
D17*
X188235500Y-125108849D03*
%TD*%
D37*
%TO.C,R57*%
X283335000Y-144018000D03*
X286260000Y-144018000D03*
%TD*%
D19*
%TO.C,R74*%
X140970000Y-121038651D03*
X140970000Y-123963651D03*
%TD*%
D13*
%TO.C,C86*%
X140652500Y-180100500D03*
X140652500Y-177150500D03*
%TD*%
M02*
