%TF.GenerationSoftware,KiCad,Pcbnew,(6.0.7)*%
%TF.CreationDate,2023-03-09T17:16:54-05:00*%
%TF.ProjectId,Phoenix612 Complete v1.1,50686f65-6e69-4783-9631-3220436f6d70,rev?*%
%TF.SameCoordinates,Original*%
%TF.FileFunction,Drillmap*%
%TF.FilePolarity,Positive*%
%FSLAX45Y45*%
G04 Gerber Fmt 4.5, Leading zero omitted, Abs format (unit mm)*
G04 Created by KiCad (PCBNEW (6.0.7)) date 2023-03-09 17:16:54*
%MOMM*%
%LPD*%
G01*
G04 APERTURE LIST*
%ADD10C,0.150000*%
%ADD11C,0.200000*%
%ADD12C,0.040000*%
%ADD13C,0.070000*%
%ADD14C,0.075000*%
%ADD15C,0.080000*%
%ADD16C,0.090000*%
%ADD17C,0.100000*%
%ADD18C,0.110000*%
%ADD19C,0.120000*%
%ADD20C,0.170000*%
G04 APERTURE END LIST*
D10*
X1828800Y-3549650D02*
X29622750Y-3549650D01*
X29622750Y-3549650D02*
X29622750Y-19024600D01*
X29622750Y-19024600D02*
X1828800Y-19024600D01*
X1828800Y-19024600D02*
X1828800Y-3549650D01*
D11*
D12*
X2285050Y-12514900D02*
X2325050Y-12554900D01*
X2325050Y-12514900D02*
X2285050Y-12554900D01*
X5662250Y-12653350D02*
X5702250Y-12693350D01*
X5702250Y-12653350D02*
X5662250Y-12693350D01*
X5669600Y-4511550D02*
X5709600Y-4551550D01*
X5709600Y-4511550D02*
X5669600Y-4551550D01*
X10768650Y-7644450D02*
X10808650Y-7684450D01*
X10808650Y-7644450D02*
X10768650Y-7684450D01*
X12248700Y-12300000D02*
X12288700Y-12340000D01*
X12288700Y-12300000D02*
X12248700Y-12340000D01*
X13061000Y-5434650D02*
X13101000Y-5474650D01*
X13101000Y-5434650D02*
X13061000Y-5474650D01*
X14496100Y-11854500D02*
X14536100Y-11894500D01*
X14536100Y-11854500D02*
X14496100Y-11894500D01*
X14515150Y-17690150D02*
X14555150Y-17730150D01*
X14555150Y-17690150D02*
X14515150Y-17730150D01*
X14604050Y-13360415D02*
X14644050Y-13400415D01*
X14644050Y-13360415D02*
X14604050Y-13400415D01*
X14718350Y-11175050D02*
X14758350Y-11215050D01*
X14758350Y-11175050D02*
X14718350Y-11215050D01*
X15423200Y-10502915D02*
X15463200Y-10542915D01*
X15463200Y-10502915D02*
X15423200Y-10542915D01*
X18077500Y-12095800D02*
X18117500Y-12135800D01*
X18117500Y-12095800D02*
X18077500Y-12135800D01*
X19436400Y-12387900D02*
X19476400Y-12427900D01*
X19476400Y-12387900D02*
X19436400Y-12427900D01*
X20156100Y-12159300D02*
X20196100Y-12199300D01*
X20196100Y-12159300D02*
X20156100Y-12199300D01*
X21075700Y-6077000D02*
X21115700Y-6117000D01*
X21115700Y-6077000D02*
X21075700Y-6117000D01*
X21747800Y-11981500D02*
X21787800Y-12021500D01*
X21787800Y-11981500D02*
X21747800Y-12021500D01*
X22738400Y-9479600D02*
X22778400Y-9519600D01*
X22778400Y-9479600D02*
X22738400Y-9519600D01*
X23462300Y-8444550D02*
X23502300Y-8484550D01*
X23502300Y-8444550D02*
X23462300Y-8484550D01*
X24656100Y-12108500D02*
X24696100Y-12148500D01*
X24696100Y-12108500D02*
X24656100Y-12148500D01*
X24960900Y-10489250D02*
X25000900Y-10529250D01*
X25000900Y-10489250D02*
X24960900Y-10529250D01*
X26065800Y-11492550D02*
X26105800Y-11532550D01*
X26105800Y-11492550D02*
X26065800Y-11532550D01*
D13*
X5187950Y-7142150D02*
G75*
G03*
X5187950Y-7142150I-35000J0D01*
G01*
X5187950Y-7904150D02*
G75*
G03*
X5187950Y-7904150I-35000J0D01*
G01*
X5695950Y-7142150D02*
G75*
G03*
X5695950Y-7142150I-35000J0D01*
G01*
X5695950Y-7904150D02*
G75*
G03*
X5695950Y-7904150I-35000J0D01*
G01*
X6203950Y-7142150D02*
G75*
G03*
X6203950Y-7142150I-35000J0D01*
G01*
X6203950Y-7904150D02*
G75*
G03*
X6203950Y-7904150I-35000J0D01*
G01*
X6965950Y-7142150D02*
G75*
G03*
X6965950Y-7142150I-35000J0D01*
G01*
X6965950Y-7904150D02*
G75*
G03*
X6965950Y-7904150I-35000J0D01*
G01*
X9502850Y-5791200D02*
G75*
G03*
X9502850Y-5791200I-35000J0D01*
G01*
X9502850Y-6299200D02*
G75*
G03*
X9502850Y-6299200I-35000J0D01*
G01*
X9502850Y-6807200D02*
G75*
G03*
X9502850Y-6807200I-35000J0D01*
G01*
X9502850Y-7569200D02*
G75*
G03*
X9502850Y-7569200I-35000J0D01*
G01*
X10264850Y-5791200D02*
G75*
G03*
X10264850Y-5791200I-35000J0D01*
G01*
X10264850Y-6299200D02*
G75*
G03*
X10264850Y-6299200I-35000J0D01*
G01*
X10264850Y-6807200D02*
G75*
G03*
X10264850Y-6807200I-35000J0D01*
G01*
X10264850Y-7569200D02*
G75*
G03*
X10264850Y-7569200I-35000J0D01*
G01*
X13028700Y-15865400D02*
G75*
G03*
X13028700Y-15865400I-35000J0D01*
G01*
X13028700Y-16373400D02*
G75*
G03*
X13028700Y-16373400I-35000J0D01*
G01*
X13028700Y-16881400D02*
G75*
G03*
X13028700Y-16881400I-35000J0D01*
G01*
X13028700Y-17643400D02*
G75*
G03*
X13028700Y-17643400I-35000J0D01*
G01*
X13790700Y-15865400D02*
G75*
G03*
X13790700Y-15865400I-35000J0D01*
G01*
X13790700Y-16373400D02*
G75*
G03*
X13790700Y-16373400I-35000J0D01*
G01*
X13790700Y-16881400D02*
G75*
G03*
X13790700Y-16881400I-35000J0D01*
G01*
X13790700Y-17643400D02*
G75*
G03*
X13790700Y-17643400I-35000J0D01*
G01*
X22642600Y-6035600D02*
G75*
G03*
X22642600Y-6035600I-35000J0D01*
G01*
X22642600Y-6543600D02*
G75*
G03*
X22642600Y-6543600I-35000J0D01*
G01*
X22642600Y-7051600D02*
G75*
G03*
X22642600Y-7051600I-35000J0D01*
G01*
X22642600Y-7813600D02*
G75*
G03*
X22642600Y-7813600I-35000J0D01*
G01*
X23404600Y-6035600D02*
G75*
G03*
X23404600Y-6035600I-35000J0D01*
G01*
X23404600Y-6543600D02*
G75*
G03*
X23404600Y-6543600I-35000J0D01*
G01*
X23404600Y-7051600D02*
G75*
G03*
X23404600Y-7051600I-35000J0D01*
G01*
X23404600Y-7813600D02*
G75*
G03*
X23404600Y-7813600I-35000J0D01*
G01*
D14*
X4963600Y-5694200D02*
X4963600Y-5769200D01*
X4926100Y-5731700D02*
X5001100Y-5731700D01*
X4963600Y-5821200D02*
X4963600Y-5896200D01*
X4926100Y-5858700D02*
X5001100Y-5858700D01*
X4963600Y-5948200D02*
X4963600Y-6023200D01*
X4926100Y-5985700D02*
X5001100Y-5985700D01*
X7407200Y-8218000D02*
X7407200Y-8293000D01*
X7369700Y-8255500D02*
X7444700Y-8255500D01*
X7534200Y-8218000D02*
X7534200Y-8293000D01*
X7496700Y-8255500D02*
X7571700Y-8255500D01*
X7661200Y-8218000D02*
X7661200Y-8293000D01*
X7623700Y-8255500D02*
X7698700Y-8255500D01*
D15*
X2695285Y-9311019D02*
X2695285Y-9254450D01*
X2638716Y-9254450D01*
X2638716Y-9311019D01*
X2695285Y-9311019D01*
X2695285Y-9561019D02*
X2695285Y-9504450D01*
X2638716Y-9504450D01*
X2638716Y-9561019D01*
X2695285Y-9561019D01*
X3762084Y-9260435D02*
X3762084Y-9203866D01*
X3705515Y-9203866D01*
X3705515Y-9260435D01*
X3762084Y-9260435D01*
X3762084Y-9510435D02*
X3762084Y-9453866D01*
X3705515Y-9453866D01*
X3705515Y-9510435D01*
X3762084Y-9510435D01*
X4084969Y-5918734D02*
X4084969Y-5862165D01*
X4028400Y-5862165D01*
X4028400Y-5918734D01*
X4084969Y-5918734D01*
X4313535Y-13101684D02*
X4313535Y-13045115D01*
X4256966Y-13045115D01*
X4256966Y-13101684D01*
X4313535Y-13101684D01*
X4313535Y-13355684D02*
X4313535Y-13299115D01*
X4256966Y-13299115D01*
X4256966Y-13355684D01*
X4313535Y-13355684D01*
X4313535Y-13609684D02*
X4313535Y-13553115D01*
X4256966Y-13553115D01*
X4256966Y-13609684D01*
X4313535Y-13609684D01*
X4334969Y-5918734D02*
X4334969Y-5862165D01*
X4278400Y-5862165D01*
X4278400Y-5918734D01*
X4334969Y-5918734D01*
X5101935Y-13515434D02*
X5101935Y-13458865D01*
X5045366Y-13458865D01*
X5045366Y-13515434D01*
X5101935Y-13515434D01*
X5101935Y-13769434D02*
X5101935Y-13712865D01*
X5045366Y-13712865D01*
X5045366Y-13769434D01*
X5101935Y-13769434D01*
X5101935Y-14023434D02*
X5101935Y-13966865D01*
X5045366Y-13966865D01*
X5045366Y-14023434D01*
X5101935Y-14023434D01*
X5101935Y-14277434D02*
X5101935Y-14220865D01*
X5045366Y-14220865D01*
X5045366Y-14277434D01*
X5101935Y-14277434D01*
X5234285Y-12319250D02*
X5234285Y-12262681D01*
X5177716Y-12262681D01*
X5177716Y-12319250D01*
X5234285Y-12319250D01*
X5234285Y-12569250D02*
X5234285Y-12512681D01*
X5177716Y-12512681D01*
X5177716Y-12569250D01*
X5234285Y-12569250D01*
X5863934Y-13515434D02*
X5863934Y-13458865D01*
X5807365Y-13458865D01*
X5807365Y-13515434D01*
X5863934Y-13515434D01*
X5863934Y-13769434D02*
X5863934Y-13712865D01*
X5807365Y-13712865D01*
X5807365Y-13769434D01*
X5863934Y-13769434D01*
X5863934Y-14023434D02*
X5863934Y-13966865D01*
X5807365Y-13966865D01*
X5807365Y-14023434D01*
X5863934Y-14023434D01*
X5863934Y-14277434D02*
X5863934Y-14220865D01*
X5807365Y-14220865D01*
X5807365Y-14277434D01*
X5863934Y-14277434D01*
X5927434Y-4947185D02*
X5927434Y-4890616D01*
X5870865Y-4890616D01*
X5870865Y-4947185D01*
X5927434Y-4947185D01*
X5927434Y-5197185D02*
X5927434Y-5140616D01*
X5870865Y-5140616D01*
X5870865Y-5197185D01*
X5927434Y-5197185D01*
X6816434Y-5340885D02*
X6816434Y-5284316D01*
X6759865Y-5284316D01*
X6759865Y-5340885D01*
X6816434Y-5340885D01*
X6816434Y-5590885D02*
X6816434Y-5534316D01*
X6759865Y-5534316D01*
X6759865Y-5590885D01*
X6816434Y-5590885D01*
X6854534Y-4470935D02*
X6854534Y-4414366D01*
X6797965Y-4414366D01*
X6797965Y-4470935D01*
X6854534Y-4470935D01*
X6910684Y-14004634D02*
X6910684Y-13948065D01*
X6854115Y-13948065D01*
X6854115Y-14004634D01*
X6910684Y-14004634D01*
X7108534Y-4470935D02*
X7108534Y-4414366D01*
X7051965Y-4414366D01*
X7051965Y-4470935D01*
X7108534Y-4470935D01*
X7164684Y-14004634D02*
X7164684Y-13948065D01*
X7108115Y-13948065D01*
X7108115Y-14004634D01*
X7164684Y-14004634D01*
X7362534Y-4470935D02*
X7362534Y-4414366D01*
X7305965Y-4414366D01*
X7305965Y-4470935D01*
X7362534Y-4470935D01*
X7418684Y-14004634D02*
X7418684Y-13948065D01*
X7362115Y-13948065D01*
X7362115Y-14004634D01*
X7418684Y-14004634D01*
X7435484Y-7176784D02*
X7435484Y-7120215D01*
X7378915Y-7120215D01*
X7378915Y-7176784D01*
X7435484Y-7176784D01*
X7435484Y-7938784D02*
X7435484Y-7882215D01*
X7378915Y-7882215D01*
X7378915Y-7938784D01*
X7435484Y-7938784D01*
X9508835Y-7953084D02*
X9508835Y-7896515D01*
X9452266Y-7896515D01*
X9452266Y-7953084D01*
X9508835Y-7953084D01*
X10176085Y-11522784D02*
X10176085Y-11466215D01*
X10119516Y-11466215D01*
X10119516Y-11522784D01*
X10176085Y-11522784D01*
X10176085Y-12284784D02*
X10176085Y-12228215D01*
X10119516Y-12228215D01*
X10119516Y-12284784D01*
X10176085Y-12284784D01*
X10270835Y-7953084D02*
X10270835Y-7896515D01*
X10214266Y-7896515D01*
X10214266Y-7953084D01*
X10270835Y-7953084D01*
X10430085Y-11522784D02*
X10430085Y-11466215D01*
X10373516Y-11466215D01*
X10373516Y-11522784D01*
X10430085Y-11522784D01*
X10430085Y-12284784D02*
X10430085Y-12228215D01*
X10373516Y-12228215D01*
X10373516Y-12284784D01*
X10430085Y-12284784D01*
X10684085Y-11522784D02*
X10684085Y-11466215D01*
X10627516Y-11466215D01*
X10627516Y-11522784D01*
X10684085Y-11522784D01*
X10684085Y-12284784D02*
X10684085Y-12228215D01*
X10627516Y-12228215D01*
X10627516Y-12284784D01*
X10684085Y-12284784D01*
X10715335Y-13071019D02*
X10715335Y-13014450D01*
X10658766Y-13014450D01*
X10658766Y-13071019D01*
X10715335Y-13071019D01*
X10715335Y-13421019D02*
X10715335Y-13364450D01*
X10658766Y-13364450D01*
X10658766Y-13421019D01*
X10715335Y-13421019D01*
X10938085Y-11522784D02*
X10938085Y-11466215D01*
X10881516Y-11466215D01*
X10881516Y-11522784D01*
X10938085Y-11522784D01*
X10938085Y-12284784D02*
X10938085Y-12228215D01*
X10881516Y-12228215D01*
X10881516Y-12284784D01*
X10938085Y-12284784D01*
X11178885Y-6803734D02*
X11178885Y-6747165D01*
X11122316Y-6747165D01*
X11122316Y-6803734D01*
X11178885Y-6803734D01*
X11192084Y-11522784D02*
X11192084Y-11466215D01*
X11135516Y-11466215D01*
X11135516Y-11522784D01*
X11192084Y-11522784D01*
X11192084Y-12284784D02*
X11192084Y-12228215D01*
X11135516Y-12228215D01*
X11135516Y-12284784D01*
X11192084Y-12284784D01*
X11349450Y-10830635D02*
X11349450Y-10774066D01*
X11292881Y-10774066D01*
X11292881Y-10830635D01*
X11349450Y-10830635D01*
X11428884Y-6803734D02*
X11428884Y-6747165D01*
X11372315Y-6747165D01*
X11372315Y-6803734D01*
X11428884Y-6803734D01*
X11446084Y-11522784D02*
X11446084Y-11466215D01*
X11389515Y-11466215D01*
X11389515Y-11522784D01*
X11446084Y-11522784D01*
X11446084Y-12284784D02*
X11446084Y-12228215D01*
X11389515Y-12228215D01*
X11389515Y-12284784D01*
X11446084Y-12284784D01*
X11591634Y-13217234D02*
X11591634Y-13160665D01*
X11535065Y-13160665D01*
X11535065Y-13217234D01*
X11591634Y-13217234D01*
X11591634Y-13467234D02*
X11591634Y-13410665D01*
X11535065Y-13410665D01*
X11535065Y-13467234D01*
X11591634Y-13467234D01*
X11599450Y-10830635D02*
X11599450Y-10774066D01*
X11542881Y-10774066D01*
X11542881Y-10830635D01*
X11599450Y-10830635D01*
X11700084Y-11522784D02*
X11700084Y-11466215D01*
X11643515Y-11466215D01*
X11643515Y-11522784D01*
X11700084Y-11522784D01*
X11700084Y-12284784D02*
X11700084Y-12228215D01*
X11643515Y-12228215D01*
X11643515Y-12284784D01*
X11700084Y-12284784D01*
X12348284Y-6880934D02*
X12348284Y-6824365D01*
X12291715Y-6824365D01*
X12291715Y-6880934D01*
X12348284Y-6880934D01*
X12348284Y-7134934D02*
X12348284Y-7078365D01*
X12291715Y-7078365D01*
X12291715Y-7134934D01*
X12348284Y-7134934D01*
X12348284Y-7388934D02*
X12348284Y-7332365D01*
X12291715Y-7332365D01*
X12291715Y-7388934D01*
X12348284Y-7388934D01*
X12348284Y-7642934D02*
X12348284Y-7586365D01*
X12291715Y-7586365D01*
X12291715Y-7642934D01*
X12348284Y-7642934D01*
X12410784Y-10899485D02*
X12410784Y-10842916D01*
X12354215Y-10842916D01*
X12354215Y-10899485D01*
X12410784Y-10899485D01*
X12410784Y-11153485D02*
X12410784Y-11096916D01*
X12354215Y-11096916D01*
X12354215Y-11153485D01*
X12410784Y-11153485D01*
X12410784Y-11407484D02*
X12410784Y-11350915D01*
X12354215Y-11350915D01*
X12354215Y-11407484D01*
X12410784Y-11407484D01*
X12575884Y-5976850D02*
X12575884Y-5920281D01*
X12519315Y-5920281D01*
X12519315Y-5976850D01*
X12575884Y-5976850D01*
X12575884Y-6226850D02*
X12575884Y-6170281D01*
X12519315Y-6170281D01*
X12519315Y-6226850D01*
X12575884Y-6226850D01*
X13020384Y-18074985D02*
X13020384Y-18018416D01*
X12963815Y-18018416D01*
X12963815Y-18074985D01*
X13020384Y-18074985D01*
X13110284Y-6880934D02*
X13110284Y-6824365D01*
X13053715Y-6824365D01*
X13053715Y-6880934D01*
X13110284Y-6880934D01*
X13110284Y-7134934D02*
X13110284Y-7078365D01*
X13053715Y-7078365D01*
X13053715Y-7134934D01*
X13110284Y-7134934D01*
X13110284Y-7388934D02*
X13110284Y-7332365D01*
X13053715Y-7332365D01*
X13053715Y-7388934D01*
X13110284Y-7388934D01*
X13110284Y-7642934D02*
X13110284Y-7586365D01*
X13053715Y-7586365D01*
X13053715Y-7642934D01*
X13110284Y-7642934D01*
X13343269Y-12627650D02*
X13343269Y-12571081D01*
X13286700Y-12571081D01*
X13286700Y-12627650D01*
X13343269Y-12627650D01*
X13593269Y-12627650D02*
X13593269Y-12571081D01*
X13536700Y-12571081D01*
X13536700Y-12627650D01*
X13593269Y-12627650D01*
X13782384Y-18074985D02*
X13782384Y-18018416D01*
X13725815Y-18018416D01*
X13725815Y-18074985D01*
X13782384Y-18074985D01*
X14136600Y-13015000D02*
X14136600Y-12958431D01*
X14080031Y-12958431D01*
X14080031Y-13015000D01*
X14136600Y-13015000D01*
X14283034Y-10614700D02*
X14283034Y-10558131D01*
X14226465Y-10558131D01*
X14226465Y-10614700D01*
X14283034Y-10614700D01*
X14386600Y-13015000D02*
X14386600Y-12958431D01*
X14330031Y-12958431D01*
X14330031Y-13015000D01*
X14386600Y-13015000D01*
X14537034Y-10614700D02*
X14537034Y-10558131D01*
X14480465Y-10558131D01*
X14480465Y-10614700D01*
X14537034Y-10614700D01*
X14791034Y-10614700D02*
X14791034Y-10558131D01*
X14734465Y-10558131D01*
X14734465Y-10614700D01*
X14791034Y-10614700D01*
X14912684Y-17173285D02*
X14912684Y-17116716D01*
X14856115Y-17116716D01*
X14856115Y-17173285D01*
X14912684Y-17173285D01*
X14912684Y-17935285D02*
X14912684Y-17878716D01*
X14856115Y-17878716D01*
X14856115Y-17935285D01*
X14912684Y-17935285D01*
X15204784Y-7498534D02*
X15204784Y-7441965D01*
X15148215Y-7441965D01*
X15148215Y-7498534D01*
X15204784Y-7498534D01*
X15204784Y-7986534D02*
X15204784Y-7929965D01*
X15148215Y-7929965D01*
X15148215Y-7986534D01*
X15204784Y-7986534D01*
X15903284Y-12938800D02*
X15903284Y-12882231D01*
X15846715Y-12882231D01*
X15846715Y-12938800D01*
X15903284Y-12938800D01*
X15915984Y-7500534D02*
X15915984Y-7443965D01*
X15859415Y-7443965D01*
X15859415Y-7500534D01*
X15915984Y-7500534D01*
X15915984Y-7988534D02*
X15915984Y-7931965D01*
X15859415Y-7931965D01*
X15859415Y-7988534D01*
X15915984Y-7988534D01*
X16153284Y-12938800D02*
X16153284Y-12882231D01*
X16096715Y-12882231D01*
X16096715Y-12938800D01*
X16153284Y-12938800D01*
X16176334Y-11018750D02*
X16176334Y-10962181D01*
X16119765Y-10962181D01*
X16119765Y-11018750D01*
X16176334Y-11018750D01*
X16176334Y-11268750D02*
X16176334Y-11212181D01*
X16119765Y-11212181D01*
X16119765Y-11268750D01*
X16176334Y-11268750D01*
X16652584Y-7504884D02*
X16652584Y-7448315D01*
X16596015Y-7448315D01*
X16596015Y-7504884D01*
X16652584Y-7504884D01*
X16652584Y-7992884D02*
X16652584Y-7936315D01*
X16596015Y-7936315D01*
X16596015Y-7992884D01*
X16652584Y-7992884D01*
X16665284Y-11782134D02*
X16665284Y-11725565D01*
X16608715Y-11725565D01*
X16608715Y-11782134D01*
X16665284Y-11782134D01*
X16665284Y-12032134D02*
X16665284Y-11975565D01*
X16608715Y-11975565D01*
X16608715Y-12032134D01*
X16665284Y-12032134D01*
X17262185Y-11725950D02*
X17262185Y-11669381D01*
X17205616Y-11669381D01*
X17205616Y-11725950D01*
X17262185Y-11725950D01*
X17262185Y-12487950D02*
X17262185Y-12431381D01*
X17205616Y-12431381D01*
X17205616Y-12487950D01*
X17262185Y-12487950D01*
X17351085Y-7506884D02*
X17351085Y-7450315D01*
X17294516Y-7450315D01*
X17294516Y-7506884D01*
X17351085Y-7506884D01*
X17351085Y-7994884D02*
X17351085Y-7938315D01*
X17294516Y-7938315D01*
X17294516Y-7994884D01*
X17351085Y-7994884D01*
X17998785Y-17370135D02*
X17998785Y-17313566D01*
X17942216Y-17313566D01*
X17942216Y-17370135D01*
X17998785Y-17370135D01*
X18563935Y-10174200D02*
X18563935Y-10117631D01*
X18507366Y-10117631D01*
X18507366Y-10174200D01*
X18563935Y-10174200D01*
X18563935Y-10424200D02*
X18563935Y-10367631D01*
X18507366Y-10367631D01*
X18507366Y-10424200D01*
X18563935Y-10424200D01*
X18760785Y-17370135D02*
X18760785Y-17313566D01*
X18704216Y-17313566D01*
X18704216Y-17370135D01*
X18760785Y-17370135D01*
X18851835Y-12289169D02*
X18851835Y-12232600D01*
X18795266Y-12232600D01*
X18795266Y-12289169D01*
X18851835Y-12289169D01*
X18851835Y-12539169D02*
X18851835Y-12482600D01*
X18795266Y-12482600D01*
X18795266Y-12539169D01*
X18851835Y-12539169D01*
X20431835Y-7592134D02*
X20431835Y-7535565D01*
X20375266Y-7535565D01*
X20375266Y-7592134D01*
X20431835Y-7592134D01*
X20431835Y-7846134D02*
X20431835Y-7789565D01*
X20375266Y-7789565D01*
X20375266Y-7846134D01*
X20431835Y-7846134D01*
X20431835Y-8100134D02*
X20431835Y-8043565D01*
X20375266Y-8043565D01*
X20375266Y-8100134D01*
X20431835Y-8100134D01*
X20431835Y-8354134D02*
X20431835Y-8297565D01*
X20375266Y-8297565D01*
X20375266Y-8354134D01*
X20431835Y-8354134D01*
X20469935Y-6694434D02*
X20469935Y-6637865D01*
X20413366Y-6637865D01*
X20413366Y-6694434D01*
X20469935Y-6694434D01*
X20469935Y-6944434D02*
X20469935Y-6887865D01*
X20413366Y-6887865D01*
X20413366Y-6944434D01*
X20469935Y-6944434D01*
X21106085Y-11375569D02*
X21106085Y-11319000D01*
X21049516Y-11319000D01*
X21049516Y-11375569D01*
X21106085Y-11375569D01*
X21106085Y-11725569D02*
X21106085Y-11669000D01*
X21049516Y-11669000D01*
X21049516Y-11725569D01*
X21106085Y-11725569D01*
X21193835Y-7592134D02*
X21193835Y-7535565D01*
X21137266Y-7535565D01*
X21137266Y-7592134D01*
X21193835Y-7592134D01*
X21193835Y-7846134D02*
X21193835Y-7789565D01*
X21137266Y-7789565D01*
X21137266Y-7846134D01*
X21193835Y-7846134D01*
X21193835Y-8100134D02*
X21193835Y-8043565D01*
X21137266Y-8043565D01*
X21137266Y-8100134D01*
X21193835Y-8100134D01*
X21193835Y-8354134D02*
X21193835Y-8297565D01*
X21137266Y-8297565D01*
X21137266Y-8354134D01*
X21193835Y-8354134D01*
X22177085Y-10766135D02*
X22177085Y-10709566D01*
X22120516Y-10709566D01*
X22120516Y-10766135D01*
X22177085Y-10766135D01*
X22431084Y-10766135D02*
X22431084Y-10709566D01*
X22374515Y-10709566D01*
X22374515Y-10766135D01*
X22431084Y-10766135D01*
X22640634Y-8188034D02*
X22640634Y-8131465D01*
X22584065Y-8131465D01*
X22584065Y-8188034D01*
X22640634Y-8188034D01*
X22685084Y-10766135D02*
X22685084Y-10709566D01*
X22628515Y-10709566D01*
X22628515Y-10766135D01*
X22685084Y-10766135D01*
X23377234Y-10759785D02*
X23377234Y-10703216D01*
X23320665Y-10703216D01*
X23320665Y-10759785D01*
X23377234Y-10759785D01*
X23377234Y-11013785D02*
X23377234Y-10957216D01*
X23320665Y-10957216D01*
X23320665Y-11013785D01*
X23377234Y-11013785D01*
X23377234Y-11267784D02*
X23377234Y-11211215D01*
X23320665Y-11211215D01*
X23320665Y-11267784D01*
X23377234Y-11267784D01*
X23377234Y-11521784D02*
X23377234Y-11465215D01*
X23320665Y-11465215D01*
X23320665Y-11521784D01*
X23377234Y-11521784D01*
X23402634Y-8188034D02*
X23402634Y-8131465D01*
X23346065Y-8131465D01*
X23346065Y-8188034D01*
X23402634Y-8188034D01*
X24139234Y-10759785D02*
X24139234Y-10703216D01*
X24082665Y-10703216D01*
X24082665Y-10759785D01*
X24139234Y-10759785D01*
X24139234Y-11013785D02*
X24139234Y-10957216D01*
X24082665Y-10957216D01*
X24082665Y-11013785D01*
X24139234Y-11013785D01*
X24139234Y-11267784D02*
X24139234Y-11211215D01*
X24082665Y-11211215D01*
X24082665Y-11267784D01*
X24139234Y-11267784D01*
X24139234Y-11521784D02*
X24139234Y-11465215D01*
X24082665Y-11465215D01*
X24082665Y-11521784D01*
X24139234Y-11521784D01*
X25053634Y-11229684D02*
X25053634Y-11173116D01*
X24997065Y-11173116D01*
X24997065Y-11229684D01*
X25053634Y-11229684D01*
X25053634Y-11479684D02*
X25053634Y-11423115D01*
X24997065Y-11423115D01*
X24997065Y-11479684D01*
X25053634Y-11479684D01*
X25428284Y-15584819D02*
X25428284Y-15528250D01*
X25371715Y-15528250D01*
X25371715Y-15584819D01*
X25428284Y-15584819D01*
X25428284Y-15834819D02*
X25428284Y-15778250D01*
X25371715Y-15778250D01*
X25371715Y-15834819D01*
X25428284Y-15834819D01*
X25714034Y-13669084D02*
X25714034Y-13612515D01*
X25657465Y-13612515D01*
X25657465Y-13669084D01*
X25714034Y-13669084D01*
X25714034Y-14431084D02*
X25714034Y-14374515D01*
X25657465Y-14374515D01*
X25657465Y-14431084D01*
X25714034Y-14431084D01*
X26315900Y-11978984D02*
X26315900Y-11922415D01*
X26259331Y-11922415D01*
X26259331Y-11978984D01*
X26315900Y-11978984D01*
X26565900Y-11978984D02*
X26565900Y-11922415D01*
X26509331Y-11922415D01*
X26509331Y-11978984D01*
X26565900Y-11978984D01*
X26755434Y-13769684D02*
X26755434Y-13713115D01*
X26698865Y-13713115D01*
X26698865Y-13769684D01*
X26755434Y-13769684D01*
X26755434Y-14023684D02*
X26755434Y-13967115D01*
X26698865Y-13967115D01*
X26698865Y-14023684D01*
X26755434Y-14023684D01*
X26755434Y-14277684D02*
X26755434Y-14221115D01*
X26698865Y-14221115D01*
X26698865Y-14277684D01*
X26755434Y-14277684D01*
X28419134Y-17433050D02*
X28419134Y-17376481D01*
X28362565Y-17376481D01*
X28362565Y-17433050D01*
X28419134Y-17433050D01*
X28419134Y-17783050D02*
X28419134Y-17726481D01*
X28362565Y-17726481D01*
X28362565Y-17783050D01*
X28419134Y-17783050D01*
X28730284Y-11470984D02*
X28730284Y-11414415D01*
X28673715Y-11414415D01*
X28673715Y-11470984D01*
X28730284Y-11470984D01*
X28980284Y-11470984D02*
X28980284Y-11414415D01*
X28923715Y-11414415D01*
X28923715Y-11470984D01*
X28980284Y-11470984D01*
D16*
X5086350Y-10293400D02*
X5131350Y-10248400D01*
X5086350Y-10203400D01*
X5041350Y-10248400D01*
X5086350Y-10293400D01*
X5086350Y-10547400D02*
X5131350Y-10502400D01*
X5086350Y-10457400D01*
X5041350Y-10502400D01*
X5086350Y-10547400D01*
X5739435Y-10287050D02*
X5784435Y-10242050D01*
X5739435Y-10197050D01*
X5694435Y-10242050D01*
X5739435Y-10287050D01*
X5739435Y-10541050D02*
X5784435Y-10496050D01*
X5739435Y-10451050D01*
X5694435Y-10496050D01*
X5739435Y-10541050D01*
X6235700Y-10287550D02*
X6280700Y-10242550D01*
X6235700Y-10197550D01*
X6190700Y-10242550D01*
X6235700Y-10287550D01*
X6235700Y-10541550D02*
X6280700Y-10496550D01*
X6235700Y-10451550D01*
X6190700Y-10496550D01*
X6235700Y-10541550D01*
D17*
X2534450Y-5999700D02*
X2634450Y-6099700D01*
X2634450Y-5999700D02*
X2534450Y-6099700D01*
X2634450Y-6049700D02*
G75*
G03*
X2634450Y-6049700I-50000J0D01*
G01*
X2534450Y-6253700D02*
X2634450Y-6353700D01*
X2634450Y-6253700D02*
X2534450Y-6353700D01*
X2634450Y-6303700D02*
G75*
G03*
X2634450Y-6303700I-50000J0D01*
G01*
X4777500Y-8973350D02*
X4877500Y-9073350D01*
X4877500Y-8973350D02*
X4777500Y-9073350D01*
X4877500Y-9023350D02*
G75*
G03*
X4877500Y-9023350I-50000J0D01*
G01*
X5031500Y-8973350D02*
X5131500Y-9073350D01*
X5131500Y-8973350D02*
X5031500Y-9073350D01*
X5131500Y-9023350D02*
G75*
G03*
X5131500Y-9023350I-50000J0D01*
G01*
X5285500Y-8973350D02*
X5385500Y-9073350D01*
X5385500Y-8973350D02*
X5285500Y-9073350D01*
X5385500Y-9023350D02*
G75*
G03*
X5385500Y-9023350I-50000J0D01*
G01*
X6280950Y-14510550D02*
X6380950Y-14610550D01*
X6380950Y-14510550D02*
X6280950Y-14610550D01*
X6380950Y-14560550D02*
G75*
G03*
X6380950Y-14560550I-50000J0D01*
G01*
X6280950Y-14764550D02*
X6380950Y-14864550D01*
X6380950Y-14764550D02*
X6280950Y-14864550D01*
X6380950Y-14814550D02*
G75*
G03*
X6380950Y-14814550I-50000J0D01*
G01*
X7033850Y-8878100D02*
X7133850Y-8978100D01*
X7133850Y-8878100D02*
X7033850Y-8978100D01*
X7133850Y-8928100D02*
G75*
G03*
X7133850Y-8928100I-50000J0D01*
G01*
X7287850Y-8878100D02*
X7387850Y-8978100D01*
X7387850Y-8878100D02*
X7287850Y-8978100D01*
X7387850Y-8928100D02*
G75*
G03*
X7387850Y-8928100I-50000J0D01*
G01*
X7673350Y-12992900D02*
X7773350Y-13092900D01*
X7773350Y-12992900D02*
X7673350Y-13092900D01*
X7773350Y-13042900D02*
G75*
G03*
X7773350Y-13042900I-50000J0D01*
G01*
X7677950Y-9690900D02*
X7777950Y-9790900D01*
X7777950Y-9690900D02*
X7677950Y-9790900D01*
X7777950Y-9740900D02*
G75*
G03*
X7777950Y-9740900I-50000J0D01*
G01*
X7927350Y-12992900D02*
X8027350Y-13092900D01*
X8027350Y-12992900D02*
X7927350Y-13092900D01*
X8027350Y-13042900D02*
G75*
G03*
X8027350Y-13042900I-50000J0D01*
G01*
X7931950Y-9690900D02*
X8031950Y-9790900D01*
X8031950Y-9690900D02*
X7931950Y-9790900D01*
X8031950Y-9740900D02*
G75*
G03*
X8031950Y-9740900I-50000J0D01*
G01*
X8181350Y-12992900D02*
X8281350Y-13092900D01*
X8281350Y-12992900D02*
X8181350Y-13092900D01*
X8281350Y-13042900D02*
G75*
G03*
X8281350Y-13042900I-50000J0D01*
G01*
X8185950Y-6274600D02*
X8285950Y-6374600D01*
X8285950Y-6274600D02*
X8185950Y-6374600D01*
X8285950Y-6324600D02*
G75*
G03*
X8285950Y-6324600I-50000J0D01*
G01*
X8185950Y-6528600D02*
X8285950Y-6628600D01*
X8285950Y-6528600D02*
X8185950Y-6628600D01*
X8285950Y-6578600D02*
G75*
G03*
X8285950Y-6578600I-50000J0D01*
G01*
X8185950Y-9690900D02*
X8285950Y-9790900D01*
X8285950Y-9690900D02*
X8185950Y-9790900D01*
X8285950Y-9740900D02*
G75*
G03*
X8285950Y-9740900I-50000J0D01*
G01*
X8435350Y-12992900D02*
X8535350Y-13092900D01*
X8535350Y-12992900D02*
X8435350Y-13092900D01*
X8535350Y-13042900D02*
G75*
G03*
X8535350Y-13042900I-50000J0D01*
G01*
X8439950Y-9690900D02*
X8539950Y-9790900D01*
X8539950Y-9690900D02*
X8439950Y-9790900D01*
X8539950Y-9740900D02*
G75*
G03*
X8539950Y-9740900I-50000J0D01*
G01*
X9710450Y-13342150D02*
X9810450Y-13442150D01*
X9810450Y-13342150D02*
X9710450Y-13442150D01*
X9810450Y-13392150D02*
G75*
G03*
X9810450Y-13392150I-50000J0D01*
G01*
X9964450Y-13342150D02*
X10064450Y-13442150D01*
X10064450Y-13342150D02*
X9964450Y-13442150D01*
X10064450Y-13392150D02*
G75*
G03*
X10064450Y-13392150I-50000J0D01*
G01*
X10783100Y-5639600D02*
X10883100Y-5739600D01*
X10883100Y-5639600D02*
X10783100Y-5739600D01*
X10883100Y-5689600D02*
G75*
G03*
X10883100Y-5689600I-50000J0D01*
G01*
X10783100Y-5893600D02*
X10883100Y-5993600D01*
X10883100Y-5893600D02*
X10783100Y-5993600D01*
X10883100Y-5943600D02*
G75*
G03*
X10883100Y-5943600I-50000J0D01*
G01*
X11367300Y-5671350D02*
X11467300Y-5771350D01*
X11467300Y-5671350D02*
X11367300Y-5771350D01*
X11467300Y-5721350D02*
G75*
G03*
X11467300Y-5721350I-50000J0D01*
G01*
X11367300Y-5925350D02*
X11467300Y-6025350D01*
X11467300Y-5925350D02*
X11367300Y-6025350D01*
X11467300Y-5975350D02*
G75*
G03*
X11467300Y-5975350I-50000J0D01*
G01*
X11722900Y-8547900D02*
X11822900Y-8647900D01*
X11822900Y-8547900D02*
X11722900Y-8647900D01*
X11822900Y-8597900D02*
G75*
G03*
X11822900Y-8597900I-50000J0D01*
G01*
X11722900Y-8801900D02*
X11822900Y-8901900D01*
X11822900Y-8801900D02*
X11722900Y-8901900D01*
X11822900Y-8851900D02*
G75*
G03*
X11822900Y-8851900I-50000J0D01*
G01*
X13596150Y-6909600D02*
X13696150Y-7009600D01*
X13696150Y-6909600D02*
X13596150Y-7009600D01*
X13696150Y-6959600D02*
G75*
G03*
X13696150Y-6959600I-50000J0D01*
G01*
X13850150Y-6909600D02*
X13950150Y-7009600D01*
X13950150Y-6909600D02*
X13850150Y-7009600D01*
X13950150Y-6959600D02*
G75*
G03*
X13950150Y-6959600I-50000J0D01*
G01*
X15170950Y-17520950D02*
X15270950Y-17620950D01*
X15270950Y-17520950D02*
X15170950Y-17620950D01*
X15270950Y-17570950D02*
G75*
G03*
X15270950Y-17570950I-50000J0D01*
G01*
X15170950Y-17774950D02*
X15270950Y-17874950D01*
X15270950Y-17774950D02*
X15170950Y-17874950D01*
X15270950Y-17824950D02*
G75*
G03*
X15270950Y-17824950I-50000J0D01*
G01*
X17164850Y-12746215D02*
X17264850Y-12846215D01*
X17264850Y-12746215D02*
X17164850Y-12846215D01*
X17264850Y-12796215D02*
G75*
G03*
X17264850Y-12796215I-50000J0D01*
G01*
X17164850Y-13000215D02*
X17264850Y-13100215D01*
X17264850Y-13000215D02*
X17164850Y-13100215D01*
X17264850Y-13050215D02*
G75*
G03*
X17264850Y-13050215I-50000J0D01*
G01*
X18949200Y-7443000D02*
X19049200Y-7543000D01*
X19049200Y-7443000D02*
X18949200Y-7543000D01*
X19049200Y-7493000D02*
G75*
G03*
X19049200Y-7493000I-50000J0D01*
G01*
X19050800Y-17336300D02*
X19150800Y-17436300D01*
X19150800Y-17336300D02*
X19050800Y-17436300D01*
X19150800Y-17386300D02*
G75*
G03*
X19150800Y-17386300I-50000J0D01*
G01*
X19050800Y-17590300D02*
X19150800Y-17690300D01*
X19150800Y-17590300D02*
X19050800Y-17690300D01*
X19150800Y-17640300D02*
G75*
G03*
X19150800Y-17640300I-50000J0D01*
G01*
X19203200Y-7443000D02*
X19303200Y-7543000D01*
X19303200Y-7443000D02*
X19203200Y-7543000D01*
X19303200Y-7493000D02*
G75*
G03*
X19303200Y-7493000I-50000J0D01*
G01*
X19275050Y-10141750D02*
X19375050Y-10241750D01*
X19375050Y-10141750D02*
X19275050Y-10241750D01*
X19375050Y-10191750D02*
G75*
G03*
X19375050Y-10191750I-50000J0D01*
G01*
X19529050Y-10141750D02*
X19629050Y-10241750D01*
X19629050Y-10141750D02*
X19529050Y-10241750D01*
X19629050Y-10191750D02*
G75*
G03*
X19629050Y-10191750I-50000J0D01*
G01*
X21561550Y-8010150D02*
X21661550Y-8110150D01*
X21661550Y-8010150D02*
X21561550Y-8110150D01*
X21661550Y-8060150D02*
G75*
G03*
X21661550Y-8060150I-50000J0D01*
G01*
X21561550Y-8264150D02*
X21661550Y-8364150D01*
X21661550Y-8264150D02*
X21561550Y-8364150D01*
X21661550Y-8314150D02*
G75*
G03*
X21661550Y-8314150I-50000J0D01*
G01*
X21772450Y-5326450D02*
X21872450Y-5426450D01*
X21872450Y-5326450D02*
X21772450Y-5426450D01*
X21872450Y-5376450D02*
G75*
G03*
X21872450Y-5376450I-50000J0D01*
G01*
X21772450Y-5580450D02*
X21872450Y-5680450D01*
X21872450Y-5580450D02*
X21772450Y-5680450D01*
X21872450Y-5630450D02*
G75*
G03*
X21872450Y-5630450I-50000J0D01*
G01*
X22175000Y-16688600D02*
X22275000Y-16788600D01*
X22275000Y-16688600D02*
X22175000Y-16788600D01*
X22275000Y-16738600D02*
G75*
G03*
X22275000Y-16738600I-50000J0D01*
G01*
X22175000Y-16942600D02*
X22275000Y-17042600D01*
X22275000Y-16942600D02*
X22175000Y-17042600D01*
X22275000Y-16992600D02*
G75*
G03*
X22275000Y-16992600I-50000J0D01*
G01*
X22175000Y-17196600D02*
X22275000Y-17296600D01*
X22275000Y-17196600D02*
X22175000Y-17296600D01*
X22275000Y-17246600D02*
G75*
G03*
X22275000Y-17246600I-50000J0D01*
G01*
X22175000Y-17450600D02*
X22275000Y-17550600D01*
X22275000Y-17450600D02*
X22175000Y-17550600D01*
X22275000Y-17500600D02*
G75*
G03*
X22275000Y-17500600I-50000J0D01*
G01*
X22200400Y-15075700D02*
X22300400Y-15175700D01*
X22300400Y-15075700D02*
X22200400Y-15175700D01*
X22300400Y-15125700D02*
G75*
G03*
X22300400Y-15125700I-50000J0D01*
G01*
X22200400Y-15329700D02*
X22300400Y-15429700D01*
X22300400Y-15329700D02*
X22200400Y-15429700D01*
X22300400Y-15379700D02*
G75*
G03*
X22300400Y-15379700I-50000J0D01*
G01*
X24257800Y-9767100D02*
X24357800Y-9867100D01*
X24357800Y-9767100D02*
X24257800Y-9867100D01*
X24357800Y-9817100D02*
G75*
G03*
X24357800Y-9817100I-50000J0D01*
G01*
X24262400Y-6465100D02*
X24362400Y-6565100D01*
X24362400Y-6465100D02*
X24262400Y-6565100D01*
X24362400Y-6515100D02*
G75*
G03*
X24362400Y-6515100I-50000J0D01*
G01*
X24511800Y-9767100D02*
X24611800Y-9867100D01*
X24611800Y-9767100D02*
X24511800Y-9867100D01*
X24611800Y-9817100D02*
G75*
G03*
X24611800Y-9817100I-50000J0D01*
G01*
X24516400Y-6465100D02*
X24616400Y-6565100D01*
X24616400Y-6465100D02*
X24516400Y-6565100D01*
X24616400Y-6515100D02*
G75*
G03*
X24616400Y-6515100I-50000J0D01*
G01*
X24765800Y-9767100D02*
X24865800Y-9867100D01*
X24865800Y-9767100D02*
X24765800Y-9867100D01*
X24865800Y-9817100D02*
G75*
G03*
X24865800Y-9817100I-50000J0D01*
G01*
X24770400Y-6465100D02*
X24870400Y-6565100D01*
X24870400Y-6465100D02*
X24770400Y-6565100D01*
X24870400Y-6515100D02*
G75*
G03*
X24870400Y-6515100I-50000J0D01*
G01*
X25019800Y-9767100D02*
X25119800Y-9867100D01*
X25119800Y-9767100D02*
X25019800Y-9867100D01*
X25119800Y-9817100D02*
G75*
G03*
X25119800Y-9817100I-50000J0D01*
G01*
X25024400Y-6465100D02*
X25124400Y-6565100D01*
X25124400Y-6465100D02*
X25024400Y-6565100D01*
X25124400Y-6515100D02*
G75*
G03*
X25124400Y-6515100I-50000J0D01*
G01*
X25208300Y-12455650D02*
X25308300Y-12555650D01*
X25308300Y-12455650D02*
X25208300Y-12555650D01*
X25308300Y-12505650D02*
G75*
G03*
X25308300Y-12505650I-50000J0D01*
G01*
X25462300Y-12455650D02*
X25562300Y-12555650D01*
X25562300Y-12455650D02*
X25462300Y-12555650D01*
X25562300Y-12505650D02*
G75*
G03*
X25562300Y-12505650I-50000J0D01*
G01*
X25477000Y-16693200D02*
X25577000Y-16793200D01*
X25577000Y-16693200D02*
X25477000Y-16793200D01*
X25577000Y-16743200D02*
G75*
G03*
X25577000Y-16743200I-50000J0D01*
G01*
X25477000Y-16947200D02*
X25577000Y-17047200D01*
X25577000Y-16947200D02*
X25477000Y-17047200D01*
X25577000Y-16997200D02*
G75*
G03*
X25577000Y-16997200I-50000J0D01*
G01*
X25477000Y-17201200D02*
X25577000Y-17301200D01*
X25577000Y-17201200D02*
X25477000Y-17301200D01*
X25577000Y-17251200D02*
G75*
G03*
X25577000Y-17251200I-50000J0D01*
G01*
X25477000Y-17455200D02*
X25577000Y-17555200D01*
X25577000Y-17455200D02*
X25477000Y-17555200D01*
X25577000Y-17505200D02*
G75*
G03*
X25577000Y-17505200I-50000J0D01*
G01*
X25938050Y-8990400D02*
X26038050Y-9090400D01*
X26038050Y-8990400D02*
X25938050Y-9090400D01*
X26038050Y-9040400D02*
G75*
G03*
X26038050Y-9040400I-50000J0D01*
G01*
X25938050Y-9244400D02*
X26038050Y-9344400D01*
X26038050Y-9244400D02*
X25938050Y-9344400D01*
X26038050Y-9294400D02*
G75*
G03*
X26038050Y-9294400I-50000J0D01*
G01*
X26751350Y-12538200D02*
X26851350Y-12638200D01*
X26851350Y-12538200D02*
X26751350Y-12638200D01*
X26851350Y-12588200D02*
G75*
G03*
X26851350Y-12588200I-50000J0D01*
G01*
X27005350Y-12538200D02*
X27105350Y-12638200D01*
X27105350Y-12538200D02*
X27005350Y-12638200D01*
X27105350Y-12588200D02*
G75*
G03*
X27105350Y-12588200I-50000J0D01*
G01*
X27533900Y-16764800D02*
X27633900Y-16864800D01*
X27633900Y-16764800D02*
X27533900Y-16864800D01*
X27633900Y-16814800D02*
G75*
G03*
X27633900Y-16814800I-50000J0D01*
G01*
X27746450Y-14195050D02*
X27846450Y-14295050D01*
X27846450Y-14195050D02*
X27746450Y-14295050D01*
X27846450Y-14245050D02*
G75*
G03*
X27846450Y-14245050I-50000J0D01*
G01*
X27746450Y-14449050D02*
X27846450Y-14549050D01*
X27846450Y-14449050D02*
X27746450Y-14549050D01*
X27846450Y-14499050D02*
G75*
G03*
X27846450Y-14499050I-50000J0D01*
G01*
X27787900Y-16764800D02*
X27887900Y-16864800D01*
X27887900Y-16764800D02*
X27787900Y-16864800D01*
X27887900Y-16814800D02*
G75*
G03*
X27887900Y-16814800I-50000J0D01*
G01*
X28226550Y-12053100D02*
X28326550Y-12153100D01*
X28326550Y-12053100D02*
X28226550Y-12153100D01*
X28326550Y-12103100D02*
G75*
G03*
X28326550Y-12103100I-50000J0D01*
G01*
X28480550Y-12053100D02*
X28580550Y-12153100D01*
X28580550Y-12053100D02*
X28480550Y-12153100D01*
X28580550Y-12103100D02*
G75*
G03*
X28580550Y-12103100I-50000J0D01*
G01*
D18*
X2866000Y-8612000D02*
X2976000Y-8722000D01*
X2976000Y-8612000D02*
X2866000Y-8722000D01*
X2921000Y-8612000D02*
X2921000Y-8722000D01*
X2866000Y-8667000D02*
X2976000Y-8667000D01*
X3120000Y-8612000D02*
X3230000Y-8722000D01*
X3230000Y-8612000D02*
X3120000Y-8722000D01*
X3175000Y-8612000D02*
X3175000Y-8722000D01*
X3120000Y-8667000D02*
X3230000Y-8667000D01*
X3374000Y-8612000D02*
X3484000Y-8722000D01*
X3484000Y-8612000D02*
X3374000Y-8722000D01*
X3429000Y-8612000D02*
X3429000Y-8722000D01*
X3374000Y-8667000D02*
X3484000Y-8667000D01*
X5075800Y-8428600D02*
X5185800Y-8538600D01*
X5185800Y-8428600D02*
X5075800Y-8538600D01*
X5130800Y-8428600D02*
X5130800Y-8538600D01*
X5075800Y-8483600D02*
X5185800Y-8483600D01*
X6091800Y-8428600D02*
X6201800Y-8538600D01*
X6201800Y-8428600D02*
X6091800Y-8538600D01*
X6146800Y-8428600D02*
X6146800Y-8538600D01*
X6091800Y-8483600D02*
X6201800Y-8483600D01*
X28717600Y-14784950D02*
X28827600Y-14894950D01*
X28827600Y-14784950D02*
X28717600Y-14894950D01*
X28772600Y-14784950D02*
X28772600Y-14894950D01*
X28717600Y-14839950D02*
X28827600Y-14839950D01*
X28717600Y-15038950D02*
X28827600Y-15148950D01*
X28827600Y-15038950D02*
X28717600Y-15148950D01*
X28772600Y-15038950D02*
X28772600Y-15148950D01*
X28717600Y-15093950D02*
X28827600Y-15093950D01*
X28717600Y-15292950D02*
X28827600Y-15402950D01*
X28827600Y-15292950D02*
X28717600Y-15402950D01*
X28772600Y-15292950D02*
X28772600Y-15402950D01*
X28717600Y-15347950D02*
X28827600Y-15347950D01*
D19*
X8963350Y-9184200D02*
X9083350Y-9304200D01*
X9083350Y-9184200D02*
X8963350Y-9304200D01*
X9065777Y-9286627D02*
X9065777Y-9201773D01*
X8980923Y-9201773D01*
X8980923Y-9286627D01*
X9065777Y-9286627D01*
X9395150Y-8854000D02*
X9515150Y-8974000D01*
X9515150Y-8854000D02*
X9395150Y-8974000D01*
X9497577Y-8956427D02*
X9497577Y-8871573D01*
X9412723Y-8871573D01*
X9412723Y-8956427D01*
X9497577Y-8956427D01*
X9928550Y-8828600D02*
X10048550Y-8948600D01*
X10048550Y-8828600D02*
X9928550Y-8948600D01*
X10030977Y-8931027D02*
X10030977Y-8846173D01*
X9946123Y-8846173D01*
X9946123Y-8931027D01*
X10030977Y-8931027D01*
X12938550Y-8203000D02*
X13058550Y-8323000D01*
X13058550Y-8203000D02*
X12938550Y-8323000D01*
X13040977Y-8305427D02*
X13040977Y-8220573D01*
X12956123Y-8220573D01*
X12956123Y-8305427D01*
X13040977Y-8305427D01*
X12938550Y-9203000D02*
X13058550Y-9323000D01*
X13058550Y-9203000D02*
X12938550Y-9323000D01*
X13040977Y-9305427D02*
X13040977Y-9220573D01*
X12956123Y-9220573D01*
X12956123Y-9305427D01*
X13040977Y-9305427D01*
X14386250Y-15033950D02*
X14506250Y-15153950D01*
X14506250Y-15033950D02*
X14386250Y-15153950D01*
X14488677Y-15136377D02*
X14488677Y-15051523D01*
X14403823Y-15051523D01*
X14403823Y-15136377D01*
X14488677Y-15136377D01*
X14386250Y-16633950D02*
X14506250Y-16753950D01*
X14506250Y-16633950D02*
X14386250Y-16753950D01*
X14488677Y-16736377D02*
X14488677Y-16651523D01*
X14403823Y-16651523D01*
X14403823Y-16736377D01*
X14488677Y-16736377D01*
X14538550Y-8203000D02*
X14658550Y-8323000D01*
X14658550Y-8203000D02*
X14538550Y-8323000D01*
X14640977Y-8305427D02*
X14640977Y-8220573D01*
X14556123Y-8220573D01*
X14556123Y-8305427D01*
X14640977Y-8305427D01*
X14538550Y-9203000D02*
X14658550Y-9323000D01*
X14658550Y-9203000D02*
X14538550Y-9323000D01*
X14640977Y-9305427D02*
X14640977Y-9220573D01*
X14556123Y-9220573D01*
X14556123Y-9305427D01*
X14640977Y-9305427D01*
X15386250Y-15033950D02*
X15506250Y-15153950D01*
X15506250Y-15033950D02*
X15386250Y-15153950D01*
X15488677Y-15136377D02*
X15488677Y-15051523D01*
X15403823Y-15051523D01*
X15403823Y-15136377D01*
X15488677Y-15136377D01*
X15386250Y-16633950D02*
X15506250Y-16753950D01*
X15506250Y-16633950D02*
X15386250Y-16753950D01*
X15488677Y-16736377D02*
X15488677Y-16651523D01*
X15403823Y-16651523D01*
X15403823Y-16736377D01*
X15488677Y-16736377D01*
X16202450Y-15251500D02*
X16322450Y-15371500D01*
X16322450Y-15251500D02*
X16202450Y-15371500D01*
X16304877Y-15353927D02*
X16304877Y-15269073D01*
X16220023Y-15269073D01*
X16220023Y-15353927D01*
X16304877Y-15353927D01*
X16202450Y-16251500D02*
X16322450Y-16371500D01*
X16322450Y-16251500D02*
X16202450Y-16371500D01*
X16304877Y-16353927D02*
X16304877Y-16269073D01*
X16220023Y-16269073D01*
X16220023Y-16353927D01*
X16304877Y-16353927D01*
X17802450Y-15251500D02*
X17922450Y-15371500D01*
X17922450Y-15251500D02*
X17802450Y-15371500D01*
X17904877Y-15353927D02*
X17904877Y-15269073D01*
X17820023Y-15269073D01*
X17820023Y-15353927D01*
X17904877Y-15353927D01*
X17802450Y-16251500D02*
X17922450Y-16371500D01*
X17922450Y-16251500D02*
X17802450Y-16371500D01*
X17904877Y-16353927D02*
X17904877Y-16269073D01*
X17820023Y-16269073D01*
X17820023Y-16353927D01*
X17904877Y-16353927D01*
X17815350Y-8158550D02*
X17935350Y-8278550D01*
X17935350Y-8158550D02*
X17815350Y-8278550D01*
X17917777Y-8260977D02*
X17917777Y-8176123D01*
X17832923Y-8176123D01*
X17832923Y-8260977D01*
X17917777Y-8260977D01*
X17815350Y-9158550D02*
X17935350Y-9278550D01*
X17935350Y-9158550D02*
X17815350Y-9278550D01*
X17917777Y-9260977D02*
X17917777Y-9176123D01*
X17832923Y-9176123D01*
X17832923Y-9260977D01*
X17917777Y-9260977D01*
X19415350Y-8158550D02*
X19535350Y-8278550D01*
X19535350Y-8158550D02*
X19415350Y-8278550D01*
X19517777Y-8260977D02*
X19517777Y-8176123D01*
X19432923Y-8176123D01*
X19432923Y-8260977D01*
X19517777Y-8260977D01*
X19415350Y-9158550D02*
X19535350Y-9278550D01*
X19535350Y-9158550D02*
X19415350Y-9278550D01*
X19517777Y-9260977D02*
X19517777Y-9176123D01*
X19432923Y-9176123D01*
X19432923Y-9260977D01*
X19517777Y-9260977D01*
X25246150Y-4581850D02*
X25366150Y-4701850D01*
X25366150Y-4581850D02*
X25246150Y-4701850D01*
X25348577Y-4684277D02*
X25348577Y-4599423D01*
X25263723Y-4599423D01*
X25263723Y-4684277D01*
X25348577Y-4684277D01*
X25576350Y-5013650D02*
X25696350Y-5133650D01*
X25696350Y-5013650D02*
X25576350Y-5133650D01*
X25678777Y-5116077D02*
X25678777Y-5031223D01*
X25593923Y-5031223D01*
X25593923Y-5116077D01*
X25678777Y-5116077D01*
X25601750Y-5547050D02*
X25721750Y-5667050D01*
X25721750Y-5547050D02*
X25601750Y-5667050D01*
X25704177Y-5649477D02*
X25704177Y-5564623D01*
X25619323Y-5564623D01*
X25619323Y-5649477D01*
X25704177Y-5649477D01*
X26101300Y-15618150D02*
X26221300Y-15738150D01*
X26221300Y-15618150D02*
X26101300Y-15738150D01*
X26203727Y-15720577D02*
X26203727Y-15635723D01*
X26118873Y-15635723D01*
X26118873Y-15720577D01*
X26203727Y-15720577D01*
X26176650Y-16574700D02*
X26296650Y-16694700D01*
X26296650Y-16574700D02*
X26176650Y-16694700D01*
X26279077Y-16677127D02*
X26279077Y-16592273D01*
X26194223Y-16592273D01*
X26194223Y-16677127D01*
X26279077Y-16677127D01*
X26176650Y-17874700D02*
X26296650Y-17994700D01*
X26296650Y-17874700D02*
X26176650Y-17994700D01*
X26279077Y-17977127D02*
X26279077Y-17892273D01*
X26194223Y-17892273D01*
X26194223Y-17977127D01*
X26279077Y-17977127D01*
X26776650Y-16574700D02*
X26896650Y-16694700D01*
X26896650Y-16574700D02*
X26776650Y-16694700D01*
X26879077Y-16677127D02*
X26879077Y-16592273D01*
X26794223Y-16592273D01*
X26794223Y-16677127D01*
X26879077Y-16677127D01*
X26776650Y-17874700D02*
X26896650Y-17994700D01*
X26896650Y-17874700D02*
X26776650Y-17994700D01*
X26879077Y-17977127D02*
X26879077Y-17892273D01*
X26794223Y-17892273D01*
X26794223Y-17977127D01*
X26879077Y-17977127D01*
X27601300Y-15618150D02*
X27721300Y-15738150D01*
X27721300Y-15618150D02*
X27601300Y-15738150D01*
X27703727Y-15720577D02*
X27703727Y-15635723D01*
X27618873Y-15635723D01*
X27618873Y-15720577D01*
X27703727Y-15720577D01*
D10*
X11558200Y-17851050D02*
X11708200Y-18001050D01*
X11708200Y-17851050D02*
X11558200Y-18001050D01*
X11633200Y-18001050D02*
X11708200Y-17926050D01*
X11633200Y-17851050D01*
X11558200Y-17926050D01*
X11633200Y-18001050D01*
X14955450Y-5563800D02*
X15105450Y-5713800D01*
X15105450Y-5563800D02*
X14955450Y-5713800D01*
X15030450Y-5713800D02*
X15105450Y-5638800D01*
X15030450Y-5563800D01*
X14955450Y-5638800D01*
X15030450Y-5713800D01*
X21724550Y-9475400D02*
X21874550Y-9625400D01*
X21874550Y-9475400D02*
X21724550Y-9625400D01*
X21799550Y-9625400D02*
X21874550Y-9550400D01*
X21799550Y-9475400D01*
X21724550Y-9550400D01*
X21799550Y-9625400D01*
D20*
X11379200Y-17587050D02*
X11379200Y-17757050D01*
X11294200Y-17672050D02*
X11464200Y-17672050D01*
X11464200Y-17672050D02*
G75*
G03*
X11464200Y-17672050I-85000J0D01*
G01*
X11379200Y-18095050D02*
X11379200Y-18265050D01*
X11294200Y-18180050D02*
X11464200Y-18180050D01*
X11464200Y-18180050D02*
G75*
G03*
X11464200Y-18180050I-85000J0D01*
G01*
X11887200Y-17587050D02*
X11887200Y-17757050D01*
X11802200Y-17672050D02*
X11972200Y-17672050D01*
X11972200Y-17672050D02*
G75*
G03*
X11972200Y-17672050I-85000J0D01*
G01*
X11887200Y-18095050D02*
X11887200Y-18265050D01*
X11802200Y-18180050D02*
X11972200Y-18180050D01*
X11972200Y-18180050D02*
G75*
G03*
X11972200Y-18180050I-85000J0D01*
G01*
X14776450Y-5299800D02*
X14776450Y-5469800D01*
X14691450Y-5384800D02*
X14861450Y-5384800D01*
X14861450Y-5384800D02*
G75*
G03*
X14861450Y-5384800I-85000J0D01*
G01*
X14776450Y-5807800D02*
X14776450Y-5977800D01*
X14691450Y-5892800D02*
X14861450Y-5892800D01*
X14861450Y-5892800D02*
G75*
G03*
X14861450Y-5892800I-85000J0D01*
G01*
X15284450Y-5299800D02*
X15284450Y-5469800D01*
X15199450Y-5384800D02*
X15369450Y-5384800D01*
X15369450Y-5384800D02*
G75*
G03*
X15369450Y-5384800I-85000J0D01*
G01*
X15284450Y-5807800D02*
X15284450Y-5977800D01*
X15199450Y-5892800D02*
X15369450Y-5892800D01*
X15369450Y-5892800D02*
G75*
G03*
X15369450Y-5892800I-85000J0D01*
G01*
X21545550Y-9211400D02*
X21545550Y-9381400D01*
X21460550Y-9296400D02*
X21630550Y-9296400D01*
X21630550Y-9296400D02*
G75*
G03*
X21630550Y-9296400I-85000J0D01*
G01*
X21545550Y-9719400D02*
X21545550Y-9889400D01*
X21460550Y-9804400D02*
X21630550Y-9804400D01*
X21630550Y-9804400D02*
G75*
G03*
X21630550Y-9804400I-85000J0D01*
G01*
X22053550Y-9211400D02*
X22053550Y-9381400D01*
X21968550Y-9296400D02*
X22138550Y-9296400D01*
X22138550Y-9296400D02*
G75*
G03*
X22138550Y-9296400I-85000J0D01*
G01*
X22053550Y-9719400D02*
X22053550Y-9889400D01*
X21968550Y-9804400D02*
X22138550Y-9804400D01*
X22138550Y-9804400D02*
G75*
G03*
X22138550Y-9804400I-85000J0D01*
G01*
D11*
X2078919Y-19342576D02*
X2078919Y-19142576D01*
X2126538Y-19142576D01*
X2155110Y-19152100D01*
X2174157Y-19171148D01*
X2183681Y-19190195D01*
X2193205Y-19228290D01*
X2193205Y-19256862D01*
X2183681Y-19294957D01*
X2174157Y-19314005D01*
X2155110Y-19333052D01*
X2126538Y-19342576D01*
X2078919Y-19342576D01*
X2278919Y-19342576D02*
X2278919Y-19209243D01*
X2278919Y-19247338D02*
X2288443Y-19228290D01*
X2297967Y-19218767D01*
X2317014Y-19209243D01*
X2336062Y-19209243D01*
X2402729Y-19342576D02*
X2402729Y-19209243D01*
X2402729Y-19142576D02*
X2393205Y-19152100D01*
X2402729Y-19161624D01*
X2412252Y-19152100D01*
X2402729Y-19142576D01*
X2402729Y-19161624D01*
X2526538Y-19342576D02*
X2507490Y-19333052D01*
X2497967Y-19314005D01*
X2497967Y-19142576D01*
X2631300Y-19342576D02*
X2612252Y-19333052D01*
X2602729Y-19314005D01*
X2602729Y-19142576D01*
X2859871Y-19342576D02*
X2859871Y-19142576D01*
X2926538Y-19285433D01*
X2993205Y-19142576D01*
X2993205Y-19342576D01*
X3174157Y-19342576D02*
X3174157Y-19237814D01*
X3164633Y-19218767D01*
X3145586Y-19209243D01*
X3107490Y-19209243D01*
X3088443Y-19218767D01*
X3174157Y-19333052D02*
X3155109Y-19342576D01*
X3107490Y-19342576D01*
X3088443Y-19333052D01*
X3078919Y-19314005D01*
X3078919Y-19294957D01*
X3088443Y-19275910D01*
X3107490Y-19266386D01*
X3155109Y-19266386D01*
X3174157Y-19256862D01*
X3269395Y-19209243D02*
X3269395Y-19409243D01*
X3269395Y-19218767D02*
X3288443Y-19209243D01*
X3326538Y-19209243D01*
X3345586Y-19218767D01*
X3355109Y-19228290D01*
X3364633Y-19247338D01*
X3364633Y-19304481D01*
X3355109Y-19323529D01*
X3345586Y-19333052D01*
X3326538Y-19342576D01*
X3288443Y-19342576D01*
X3269395Y-19333052D01*
X3450348Y-19323529D02*
X3459871Y-19333052D01*
X3450348Y-19342576D01*
X3440824Y-19333052D01*
X3450348Y-19323529D01*
X3450348Y-19342576D01*
X3450348Y-19218767D02*
X3459871Y-19228290D01*
X3450348Y-19237814D01*
X3440824Y-19228290D01*
X3450348Y-19218767D01*
X3450348Y-19237814D01*
D12*
X1781300Y-19652100D02*
X1821300Y-19692100D01*
X1821300Y-19652100D02*
X1781300Y-19692100D01*
D11*
X2117014Y-19562576D02*
X2136062Y-19562576D01*
X2155110Y-19572100D01*
X2164633Y-19581624D01*
X2174157Y-19600671D01*
X2183681Y-19638767D01*
X2183681Y-19686386D01*
X2174157Y-19724481D01*
X2164633Y-19743529D01*
X2155110Y-19753052D01*
X2136062Y-19762576D01*
X2117014Y-19762576D01*
X2097967Y-19753052D01*
X2088443Y-19743529D01*
X2078919Y-19724481D01*
X2069395Y-19686386D01*
X2069395Y-19638767D01*
X2078919Y-19600671D01*
X2088443Y-19581624D01*
X2097967Y-19572100D01*
X2117014Y-19562576D01*
X2269395Y-19743529D02*
X2278919Y-19753052D01*
X2269395Y-19762576D01*
X2259871Y-19753052D01*
X2269395Y-19743529D01*
X2269395Y-19762576D01*
X2450348Y-19629243D02*
X2450348Y-19762576D01*
X2402729Y-19553052D02*
X2355110Y-19695910D01*
X2478919Y-19695910D01*
X2593205Y-19562576D02*
X2612252Y-19562576D01*
X2631300Y-19572100D01*
X2640824Y-19581624D01*
X2650348Y-19600671D01*
X2659871Y-19638767D01*
X2659871Y-19686386D01*
X2650348Y-19724481D01*
X2640824Y-19743529D01*
X2631300Y-19753052D01*
X2612252Y-19762576D01*
X2593205Y-19762576D01*
X2574157Y-19753052D01*
X2564633Y-19743529D01*
X2555110Y-19724481D01*
X2545586Y-19686386D01*
X2545586Y-19638767D01*
X2555110Y-19600671D01*
X2564633Y-19581624D01*
X2574157Y-19572100D01*
X2593205Y-19562576D01*
X2783681Y-19562576D02*
X2802728Y-19562576D01*
X2821776Y-19572100D01*
X2831300Y-19581624D01*
X2840824Y-19600671D01*
X2850348Y-19638767D01*
X2850348Y-19686386D01*
X2840824Y-19724481D01*
X2831300Y-19743529D01*
X2821776Y-19753052D01*
X2802728Y-19762576D01*
X2783681Y-19762576D01*
X2764633Y-19753052D01*
X2755110Y-19743529D01*
X2745586Y-19724481D01*
X2736062Y-19686386D01*
X2736062Y-19638767D01*
X2745586Y-19600671D01*
X2755110Y-19581624D01*
X2764633Y-19572100D01*
X2783681Y-19562576D01*
X2936062Y-19762576D02*
X2936062Y-19629243D01*
X2936062Y-19648290D02*
X2945586Y-19638767D01*
X2964633Y-19629243D01*
X2993205Y-19629243D01*
X3012252Y-19638767D01*
X3021776Y-19657814D01*
X3021776Y-19762576D01*
X3021776Y-19657814D02*
X3031300Y-19638767D01*
X3050348Y-19629243D01*
X3078919Y-19629243D01*
X3097967Y-19638767D01*
X3107490Y-19657814D01*
X3107490Y-19762576D01*
X3202728Y-19762576D02*
X3202728Y-19629243D01*
X3202728Y-19648290D02*
X3212252Y-19638767D01*
X3231300Y-19629243D01*
X3259871Y-19629243D01*
X3278919Y-19638767D01*
X3288443Y-19657814D01*
X3288443Y-19762576D01*
X3288443Y-19657814D02*
X3297967Y-19638767D01*
X3317014Y-19629243D01*
X3345586Y-19629243D01*
X3364633Y-19638767D01*
X3374157Y-19657814D01*
X3374157Y-19762576D01*
X3764633Y-19553052D02*
X3593205Y-19810195D01*
X4021776Y-19562576D02*
X4040824Y-19562576D01*
X4059871Y-19572100D01*
X4069395Y-19581624D01*
X4078919Y-19600671D01*
X4088443Y-19638767D01*
X4088443Y-19686386D01*
X4078919Y-19724481D01*
X4069395Y-19743529D01*
X4059871Y-19753052D01*
X4040824Y-19762576D01*
X4021776Y-19762576D01*
X4002728Y-19753052D01*
X3993205Y-19743529D01*
X3983681Y-19724481D01*
X3974157Y-19686386D01*
X3974157Y-19638767D01*
X3983681Y-19600671D01*
X3993205Y-19581624D01*
X4002728Y-19572100D01*
X4021776Y-19562576D01*
X4174157Y-19743529D02*
X4183681Y-19753052D01*
X4174157Y-19762576D01*
X4164633Y-19753052D01*
X4174157Y-19743529D01*
X4174157Y-19762576D01*
X4307490Y-19562576D02*
X4326538Y-19562576D01*
X4345586Y-19572100D01*
X4355110Y-19581624D01*
X4364633Y-19600671D01*
X4374157Y-19638767D01*
X4374157Y-19686386D01*
X4364633Y-19724481D01*
X4355110Y-19743529D01*
X4345586Y-19753052D01*
X4326538Y-19762576D01*
X4307490Y-19762576D01*
X4288443Y-19753052D01*
X4278919Y-19743529D01*
X4269395Y-19724481D01*
X4259871Y-19686386D01*
X4259871Y-19638767D01*
X4269395Y-19600671D01*
X4278919Y-19581624D01*
X4288443Y-19572100D01*
X4307490Y-19562576D01*
X4564633Y-19762576D02*
X4450348Y-19762576D01*
X4507490Y-19762576D02*
X4507490Y-19562576D01*
X4488443Y-19591148D01*
X4469395Y-19610195D01*
X4450348Y-19619719D01*
X4745586Y-19562576D02*
X4650348Y-19562576D01*
X4640824Y-19657814D01*
X4650348Y-19648290D01*
X4669395Y-19638767D01*
X4717014Y-19638767D01*
X4736062Y-19648290D01*
X4745586Y-19657814D01*
X4755110Y-19676862D01*
X4755110Y-19724481D01*
X4745586Y-19743529D01*
X4736062Y-19753052D01*
X4717014Y-19762576D01*
X4669395Y-19762576D01*
X4650348Y-19753052D01*
X4640824Y-19743529D01*
X4821776Y-19562576D02*
X4955110Y-19562576D01*
X4869395Y-19762576D01*
X5021776Y-19562576D02*
X5021776Y-19600671D01*
X5097967Y-19562576D02*
X5097967Y-19600671D01*
X5393205Y-19838767D02*
X5383681Y-19829243D01*
X5364633Y-19800671D01*
X5355110Y-19781624D01*
X5345586Y-19753052D01*
X5336062Y-19705433D01*
X5336062Y-19667338D01*
X5345586Y-19619719D01*
X5355110Y-19591148D01*
X5364633Y-19572100D01*
X5383681Y-19543529D01*
X5393205Y-19534005D01*
X5459871Y-19581624D02*
X5469395Y-19572100D01*
X5488443Y-19562576D01*
X5536062Y-19562576D01*
X5555110Y-19572100D01*
X5564633Y-19581624D01*
X5574157Y-19600671D01*
X5574157Y-19619719D01*
X5564633Y-19648290D01*
X5450348Y-19762576D01*
X5574157Y-19762576D01*
X5764633Y-19762576D02*
X5650348Y-19762576D01*
X5707490Y-19762576D02*
X5707490Y-19562576D01*
X5688443Y-19591148D01*
X5669395Y-19610195D01*
X5650348Y-19619719D01*
X6002728Y-19762576D02*
X6002728Y-19562576D01*
X6088443Y-19762576D02*
X6088443Y-19657814D01*
X6078919Y-19638767D01*
X6059871Y-19629243D01*
X6031300Y-19629243D01*
X6012252Y-19638767D01*
X6002728Y-19648290D01*
X6212252Y-19762576D02*
X6193205Y-19753052D01*
X6183681Y-19743529D01*
X6174157Y-19724481D01*
X6174157Y-19667338D01*
X6183681Y-19648290D01*
X6193205Y-19638767D01*
X6212252Y-19629243D01*
X6240824Y-19629243D01*
X6259871Y-19638767D01*
X6269395Y-19648290D01*
X6278919Y-19667338D01*
X6278919Y-19724481D01*
X6269395Y-19743529D01*
X6259871Y-19753052D01*
X6240824Y-19762576D01*
X6212252Y-19762576D01*
X6393205Y-19762576D02*
X6374157Y-19753052D01*
X6364633Y-19734005D01*
X6364633Y-19562576D01*
X6545586Y-19753052D02*
X6526538Y-19762576D01*
X6488443Y-19762576D01*
X6469395Y-19753052D01*
X6459871Y-19734005D01*
X6459871Y-19657814D01*
X6469395Y-19638767D01*
X6488443Y-19629243D01*
X6526538Y-19629243D01*
X6545586Y-19638767D01*
X6555109Y-19657814D01*
X6555109Y-19676862D01*
X6459871Y-19695910D01*
X6631300Y-19753052D02*
X6650348Y-19762576D01*
X6688443Y-19762576D01*
X6707490Y-19753052D01*
X6717014Y-19734005D01*
X6717014Y-19724481D01*
X6707490Y-19705433D01*
X6688443Y-19695910D01*
X6659871Y-19695910D01*
X6640824Y-19686386D01*
X6631300Y-19667338D01*
X6631300Y-19657814D01*
X6640824Y-19638767D01*
X6659871Y-19629243D01*
X6688443Y-19629243D01*
X6707490Y-19638767D01*
X6783681Y-19838767D02*
X6793205Y-19829243D01*
X6812252Y-19800671D01*
X6821776Y-19781624D01*
X6831300Y-19753052D01*
X6840824Y-19705433D01*
X6840824Y-19667338D01*
X6831300Y-19619719D01*
X6821776Y-19591148D01*
X6812252Y-19572100D01*
X6793205Y-19543529D01*
X6783681Y-19534005D01*
D13*
X1821300Y-19936100D02*
G75*
G03*
X1821300Y-19936100I-35000J0D01*
G01*
D11*
X2117014Y-19826576D02*
X2136062Y-19826576D01*
X2155110Y-19836100D01*
X2164633Y-19845624D01*
X2174157Y-19864671D01*
X2183681Y-19902767D01*
X2183681Y-19950386D01*
X2174157Y-19988481D01*
X2164633Y-20007529D01*
X2155110Y-20017052D01*
X2136062Y-20026576D01*
X2117014Y-20026576D01*
X2097967Y-20017052D01*
X2088443Y-20007529D01*
X2078919Y-19988481D01*
X2069395Y-19950386D01*
X2069395Y-19902767D01*
X2078919Y-19864671D01*
X2088443Y-19845624D01*
X2097967Y-19836100D01*
X2117014Y-19826576D01*
X2269395Y-20007529D02*
X2278919Y-20017052D01*
X2269395Y-20026576D01*
X2259871Y-20017052D01*
X2269395Y-20007529D01*
X2269395Y-20026576D01*
X2345586Y-19826576D02*
X2478919Y-19826576D01*
X2393205Y-20026576D01*
X2593205Y-19826576D02*
X2612252Y-19826576D01*
X2631300Y-19836100D01*
X2640824Y-19845624D01*
X2650348Y-19864671D01*
X2659871Y-19902767D01*
X2659871Y-19950386D01*
X2650348Y-19988481D01*
X2640824Y-20007529D01*
X2631300Y-20017052D01*
X2612252Y-20026576D01*
X2593205Y-20026576D01*
X2574157Y-20017052D01*
X2564633Y-20007529D01*
X2555110Y-19988481D01*
X2545586Y-19950386D01*
X2545586Y-19902767D01*
X2555110Y-19864671D01*
X2564633Y-19845624D01*
X2574157Y-19836100D01*
X2593205Y-19826576D01*
X2783681Y-19826576D02*
X2802728Y-19826576D01*
X2821776Y-19836100D01*
X2831300Y-19845624D01*
X2840824Y-19864671D01*
X2850348Y-19902767D01*
X2850348Y-19950386D01*
X2840824Y-19988481D01*
X2831300Y-20007529D01*
X2821776Y-20017052D01*
X2802728Y-20026576D01*
X2783681Y-20026576D01*
X2764633Y-20017052D01*
X2755110Y-20007529D01*
X2745586Y-19988481D01*
X2736062Y-19950386D01*
X2736062Y-19902767D01*
X2745586Y-19864671D01*
X2755110Y-19845624D01*
X2764633Y-19836100D01*
X2783681Y-19826576D01*
X2936062Y-20026576D02*
X2936062Y-19893243D01*
X2936062Y-19912290D02*
X2945586Y-19902767D01*
X2964633Y-19893243D01*
X2993205Y-19893243D01*
X3012252Y-19902767D01*
X3021776Y-19921814D01*
X3021776Y-20026576D01*
X3021776Y-19921814D02*
X3031300Y-19902767D01*
X3050348Y-19893243D01*
X3078919Y-19893243D01*
X3097967Y-19902767D01*
X3107490Y-19921814D01*
X3107490Y-20026576D01*
X3202728Y-20026576D02*
X3202728Y-19893243D01*
X3202728Y-19912290D02*
X3212252Y-19902767D01*
X3231300Y-19893243D01*
X3259871Y-19893243D01*
X3278919Y-19902767D01*
X3288443Y-19921814D01*
X3288443Y-20026576D01*
X3288443Y-19921814D02*
X3297967Y-19902767D01*
X3317014Y-19893243D01*
X3345586Y-19893243D01*
X3364633Y-19902767D01*
X3374157Y-19921814D01*
X3374157Y-20026576D01*
X3764633Y-19817052D02*
X3593205Y-20074195D01*
X4021776Y-19826576D02*
X4040824Y-19826576D01*
X4059871Y-19836100D01*
X4069395Y-19845624D01*
X4078919Y-19864671D01*
X4088443Y-19902767D01*
X4088443Y-19950386D01*
X4078919Y-19988481D01*
X4069395Y-20007529D01*
X4059871Y-20017052D01*
X4040824Y-20026576D01*
X4021776Y-20026576D01*
X4002728Y-20017052D01*
X3993205Y-20007529D01*
X3983681Y-19988481D01*
X3974157Y-19950386D01*
X3974157Y-19902767D01*
X3983681Y-19864671D01*
X3993205Y-19845624D01*
X4002728Y-19836100D01*
X4021776Y-19826576D01*
X4174157Y-20007529D02*
X4183681Y-20017052D01*
X4174157Y-20026576D01*
X4164633Y-20017052D01*
X4174157Y-20007529D01*
X4174157Y-20026576D01*
X4307490Y-19826576D02*
X4326538Y-19826576D01*
X4345586Y-19836100D01*
X4355110Y-19845624D01*
X4364633Y-19864671D01*
X4374157Y-19902767D01*
X4374157Y-19950386D01*
X4364633Y-19988481D01*
X4355110Y-20007529D01*
X4345586Y-20017052D01*
X4326538Y-20026576D01*
X4307490Y-20026576D01*
X4288443Y-20017052D01*
X4278919Y-20007529D01*
X4269395Y-19988481D01*
X4259871Y-19950386D01*
X4259871Y-19902767D01*
X4269395Y-19864671D01*
X4278919Y-19845624D01*
X4288443Y-19836100D01*
X4307490Y-19826576D01*
X4450348Y-19845624D02*
X4459871Y-19836100D01*
X4478919Y-19826576D01*
X4526538Y-19826576D01*
X4545586Y-19836100D01*
X4555110Y-19845624D01*
X4564633Y-19864671D01*
X4564633Y-19883719D01*
X4555110Y-19912290D01*
X4440824Y-20026576D01*
X4564633Y-20026576D01*
X4631300Y-19826576D02*
X4764633Y-19826576D01*
X4678919Y-20026576D01*
X4926538Y-19826576D02*
X4888443Y-19826576D01*
X4869395Y-19836100D01*
X4859871Y-19845624D01*
X4840824Y-19874195D01*
X4831300Y-19912290D01*
X4831300Y-19988481D01*
X4840824Y-20007529D01*
X4850348Y-20017052D01*
X4869395Y-20026576D01*
X4907490Y-20026576D01*
X4926538Y-20017052D01*
X4936062Y-20007529D01*
X4945586Y-19988481D01*
X4945586Y-19940862D01*
X4936062Y-19921814D01*
X4926538Y-19912290D01*
X4907490Y-19902767D01*
X4869395Y-19902767D01*
X4850348Y-19912290D01*
X4840824Y-19921814D01*
X4831300Y-19940862D01*
X5021776Y-19826576D02*
X5021776Y-19864671D01*
X5097967Y-19826576D02*
X5097967Y-19864671D01*
X5393205Y-20102767D02*
X5383681Y-20093243D01*
X5364633Y-20064671D01*
X5355110Y-20045624D01*
X5345586Y-20017052D01*
X5336062Y-19969433D01*
X5336062Y-19931338D01*
X5345586Y-19883719D01*
X5355110Y-19855148D01*
X5364633Y-19836100D01*
X5383681Y-19807529D01*
X5393205Y-19798005D01*
X5450348Y-19826576D02*
X5574157Y-19826576D01*
X5507490Y-19902767D01*
X5536062Y-19902767D01*
X5555110Y-19912290D01*
X5564633Y-19921814D01*
X5574157Y-19940862D01*
X5574157Y-19988481D01*
X5564633Y-20007529D01*
X5555110Y-20017052D01*
X5536062Y-20026576D01*
X5478919Y-20026576D01*
X5459871Y-20017052D01*
X5450348Y-20007529D01*
X5650348Y-19845624D02*
X5659871Y-19836100D01*
X5678919Y-19826576D01*
X5726538Y-19826576D01*
X5745586Y-19836100D01*
X5755109Y-19845624D01*
X5764633Y-19864671D01*
X5764633Y-19883719D01*
X5755109Y-19912290D01*
X5640824Y-20026576D01*
X5764633Y-20026576D01*
X6002728Y-20026576D02*
X6002728Y-19826576D01*
X6088443Y-20026576D02*
X6088443Y-19921814D01*
X6078919Y-19902767D01*
X6059871Y-19893243D01*
X6031300Y-19893243D01*
X6012252Y-19902767D01*
X6002728Y-19912290D01*
X6212252Y-20026576D02*
X6193205Y-20017052D01*
X6183681Y-20007529D01*
X6174157Y-19988481D01*
X6174157Y-19931338D01*
X6183681Y-19912290D01*
X6193205Y-19902767D01*
X6212252Y-19893243D01*
X6240824Y-19893243D01*
X6259871Y-19902767D01*
X6269395Y-19912290D01*
X6278919Y-19931338D01*
X6278919Y-19988481D01*
X6269395Y-20007529D01*
X6259871Y-20017052D01*
X6240824Y-20026576D01*
X6212252Y-20026576D01*
X6393205Y-20026576D02*
X6374157Y-20017052D01*
X6364633Y-19998005D01*
X6364633Y-19826576D01*
X6545586Y-20017052D02*
X6526538Y-20026576D01*
X6488443Y-20026576D01*
X6469395Y-20017052D01*
X6459871Y-19998005D01*
X6459871Y-19921814D01*
X6469395Y-19902767D01*
X6488443Y-19893243D01*
X6526538Y-19893243D01*
X6545586Y-19902767D01*
X6555109Y-19921814D01*
X6555109Y-19940862D01*
X6459871Y-19959910D01*
X6631300Y-20017052D02*
X6650348Y-20026576D01*
X6688443Y-20026576D01*
X6707490Y-20017052D01*
X6717014Y-19998005D01*
X6717014Y-19988481D01*
X6707490Y-19969433D01*
X6688443Y-19959910D01*
X6659871Y-19959910D01*
X6640824Y-19950386D01*
X6631300Y-19931338D01*
X6631300Y-19921814D01*
X6640824Y-19902767D01*
X6659871Y-19893243D01*
X6688443Y-19893243D01*
X6707490Y-19902767D01*
X6783681Y-20102767D02*
X6793205Y-20093243D01*
X6812252Y-20064671D01*
X6821776Y-20045624D01*
X6831300Y-20017052D01*
X6840824Y-19969433D01*
X6840824Y-19931338D01*
X6831300Y-19883719D01*
X6821776Y-19855148D01*
X6812252Y-19836100D01*
X6793205Y-19807529D01*
X6783681Y-19798005D01*
D14*
X1783800Y-20162600D02*
X1783800Y-20237600D01*
X1746300Y-20200100D02*
X1821300Y-20200100D01*
D11*
X2117014Y-20090576D02*
X2136062Y-20090576D01*
X2155110Y-20100100D01*
X2164633Y-20109624D01*
X2174157Y-20128671D01*
X2183681Y-20166767D01*
X2183681Y-20214386D01*
X2174157Y-20252481D01*
X2164633Y-20271529D01*
X2155110Y-20281052D01*
X2136062Y-20290576D01*
X2117014Y-20290576D01*
X2097967Y-20281052D01*
X2088443Y-20271529D01*
X2078919Y-20252481D01*
X2069395Y-20214386D01*
X2069395Y-20166767D01*
X2078919Y-20128671D01*
X2088443Y-20109624D01*
X2097967Y-20100100D01*
X2117014Y-20090576D01*
X2269395Y-20271529D02*
X2278919Y-20281052D01*
X2269395Y-20290576D01*
X2259871Y-20281052D01*
X2269395Y-20271529D01*
X2269395Y-20290576D01*
X2345586Y-20090576D02*
X2478919Y-20090576D01*
X2393205Y-20290576D01*
X2650348Y-20090576D02*
X2555110Y-20090576D01*
X2545586Y-20185814D01*
X2555110Y-20176290D01*
X2574157Y-20166767D01*
X2621776Y-20166767D01*
X2640824Y-20176290D01*
X2650348Y-20185814D01*
X2659871Y-20204862D01*
X2659871Y-20252481D01*
X2650348Y-20271529D01*
X2640824Y-20281052D01*
X2621776Y-20290576D01*
X2574157Y-20290576D01*
X2555110Y-20281052D01*
X2545586Y-20271529D01*
X2783681Y-20090576D02*
X2802728Y-20090576D01*
X2821776Y-20100100D01*
X2831300Y-20109624D01*
X2840824Y-20128671D01*
X2850348Y-20166767D01*
X2850348Y-20214386D01*
X2840824Y-20252481D01*
X2831300Y-20271529D01*
X2821776Y-20281052D01*
X2802728Y-20290576D01*
X2783681Y-20290576D01*
X2764633Y-20281052D01*
X2755110Y-20271529D01*
X2745586Y-20252481D01*
X2736062Y-20214386D01*
X2736062Y-20166767D01*
X2745586Y-20128671D01*
X2755110Y-20109624D01*
X2764633Y-20100100D01*
X2783681Y-20090576D01*
X2936062Y-20290576D02*
X2936062Y-20157243D01*
X2936062Y-20176290D02*
X2945586Y-20166767D01*
X2964633Y-20157243D01*
X2993205Y-20157243D01*
X3012252Y-20166767D01*
X3021776Y-20185814D01*
X3021776Y-20290576D01*
X3021776Y-20185814D02*
X3031300Y-20166767D01*
X3050348Y-20157243D01*
X3078919Y-20157243D01*
X3097967Y-20166767D01*
X3107490Y-20185814D01*
X3107490Y-20290576D01*
X3202728Y-20290576D02*
X3202728Y-20157243D01*
X3202728Y-20176290D02*
X3212252Y-20166767D01*
X3231300Y-20157243D01*
X3259871Y-20157243D01*
X3278919Y-20166767D01*
X3288443Y-20185814D01*
X3288443Y-20290576D01*
X3288443Y-20185814D02*
X3297967Y-20166767D01*
X3317014Y-20157243D01*
X3345586Y-20157243D01*
X3364633Y-20166767D01*
X3374157Y-20185814D01*
X3374157Y-20290576D01*
X3764633Y-20081052D02*
X3593205Y-20338195D01*
X4021776Y-20090576D02*
X4040824Y-20090576D01*
X4059871Y-20100100D01*
X4069395Y-20109624D01*
X4078919Y-20128671D01*
X4088443Y-20166767D01*
X4088443Y-20214386D01*
X4078919Y-20252481D01*
X4069395Y-20271529D01*
X4059871Y-20281052D01*
X4040824Y-20290576D01*
X4021776Y-20290576D01*
X4002728Y-20281052D01*
X3993205Y-20271529D01*
X3983681Y-20252481D01*
X3974157Y-20214386D01*
X3974157Y-20166767D01*
X3983681Y-20128671D01*
X3993205Y-20109624D01*
X4002728Y-20100100D01*
X4021776Y-20090576D01*
X4174157Y-20271529D02*
X4183681Y-20281052D01*
X4174157Y-20290576D01*
X4164633Y-20281052D01*
X4174157Y-20271529D01*
X4174157Y-20290576D01*
X4307490Y-20090576D02*
X4326538Y-20090576D01*
X4345586Y-20100100D01*
X4355110Y-20109624D01*
X4364633Y-20128671D01*
X4374157Y-20166767D01*
X4374157Y-20214386D01*
X4364633Y-20252481D01*
X4355110Y-20271529D01*
X4345586Y-20281052D01*
X4326538Y-20290576D01*
X4307490Y-20290576D01*
X4288443Y-20281052D01*
X4278919Y-20271529D01*
X4269395Y-20252481D01*
X4259871Y-20214386D01*
X4259871Y-20166767D01*
X4269395Y-20128671D01*
X4278919Y-20109624D01*
X4288443Y-20100100D01*
X4307490Y-20090576D01*
X4450348Y-20109624D02*
X4459871Y-20100100D01*
X4478919Y-20090576D01*
X4526538Y-20090576D01*
X4545586Y-20100100D01*
X4555110Y-20109624D01*
X4564633Y-20128671D01*
X4564633Y-20147719D01*
X4555110Y-20176290D01*
X4440824Y-20290576D01*
X4564633Y-20290576D01*
X4659871Y-20290576D02*
X4697967Y-20290576D01*
X4717014Y-20281052D01*
X4726538Y-20271529D01*
X4745586Y-20242957D01*
X4755110Y-20204862D01*
X4755110Y-20128671D01*
X4745586Y-20109624D01*
X4736062Y-20100100D01*
X4717014Y-20090576D01*
X4678919Y-20090576D01*
X4659871Y-20100100D01*
X4650348Y-20109624D01*
X4640824Y-20128671D01*
X4640824Y-20176290D01*
X4650348Y-20195338D01*
X4659871Y-20204862D01*
X4678919Y-20214386D01*
X4717014Y-20214386D01*
X4736062Y-20204862D01*
X4745586Y-20195338D01*
X4755110Y-20176290D01*
X4936062Y-20090576D02*
X4840824Y-20090576D01*
X4831300Y-20185814D01*
X4840824Y-20176290D01*
X4859871Y-20166767D01*
X4907490Y-20166767D01*
X4926538Y-20176290D01*
X4936062Y-20185814D01*
X4945586Y-20204862D01*
X4945586Y-20252481D01*
X4936062Y-20271529D01*
X4926538Y-20281052D01*
X4907490Y-20290576D01*
X4859871Y-20290576D01*
X4840824Y-20281052D01*
X4831300Y-20271529D01*
X5021776Y-20090576D02*
X5021776Y-20128671D01*
X5097967Y-20090576D02*
X5097967Y-20128671D01*
X5393205Y-20366767D02*
X5383681Y-20357243D01*
X5364633Y-20328671D01*
X5355110Y-20309624D01*
X5345586Y-20281052D01*
X5336062Y-20233433D01*
X5336062Y-20195338D01*
X5345586Y-20147719D01*
X5355110Y-20119148D01*
X5364633Y-20100100D01*
X5383681Y-20071529D01*
X5393205Y-20062005D01*
X5555110Y-20090576D02*
X5517014Y-20090576D01*
X5497967Y-20100100D01*
X5488443Y-20109624D01*
X5469395Y-20138195D01*
X5459871Y-20176290D01*
X5459871Y-20252481D01*
X5469395Y-20271529D01*
X5478919Y-20281052D01*
X5497967Y-20290576D01*
X5536062Y-20290576D01*
X5555110Y-20281052D01*
X5564633Y-20271529D01*
X5574157Y-20252481D01*
X5574157Y-20204862D01*
X5564633Y-20185814D01*
X5555110Y-20176290D01*
X5536062Y-20166767D01*
X5497967Y-20166767D01*
X5478919Y-20176290D01*
X5469395Y-20185814D01*
X5459871Y-20204862D01*
X5812252Y-20290576D02*
X5812252Y-20090576D01*
X5897967Y-20290576D02*
X5897967Y-20185814D01*
X5888443Y-20166767D01*
X5869395Y-20157243D01*
X5840824Y-20157243D01*
X5821776Y-20166767D01*
X5812252Y-20176290D01*
X6021776Y-20290576D02*
X6002728Y-20281052D01*
X5993205Y-20271529D01*
X5983681Y-20252481D01*
X5983681Y-20195338D01*
X5993205Y-20176290D01*
X6002728Y-20166767D01*
X6021776Y-20157243D01*
X6050348Y-20157243D01*
X6069395Y-20166767D01*
X6078919Y-20176290D01*
X6088443Y-20195338D01*
X6088443Y-20252481D01*
X6078919Y-20271529D01*
X6069395Y-20281052D01*
X6050348Y-20290576D01*
X6021776Y-20290576D01*
X6202728Y-20290576D02*
X6183681Y-20281052D01*
X6174157Y-20262005D01*
X6174157Y-20090576D01*
X6355109Y-20281052D02*
X6336062Y-20290576D01*
X6297967Y-20290576D01*
X6278919Y-20281052D01*
X6269395Y-20262005D01*
X6269395Y-20185814D01*
X6278919Y-20166767D01*
X6297967Y-20157243D01*
X6336062Y-20157243D01*
X6355109Y-20166767D01*
X6364633Y-20185814D01*
X6364633Y-20204862D01*
X6269395Y-20223910D01*
X6440824Y-20281052D02*
X6459871Y-20290576D01*
X6497967Y-20290576D01*
X6517014Y-20281052D01*
X6526538Y-20262005D01*
X6526538Y-20252481D01*
X6517014Y-20233433D01*
X6497967Y-20223910D01*
X6469395Y-20223910D01*
X6450348Y-20214386D01*
X6440824Y-20195338D01*
X6440824Y-20185814D01*
X6450348Y-20166767D01*
X6469395Y-20157243D01*
X6497967Y-20157243D01*
X6517014Y-20166767D01*
X6593205Y-20366767D02*
X6602728Y-20357243D01*
X6621776Y-20328671D01*
X6631300Y-20309624D01*
X6640824Y-20281052D01*
X6650348Y-20233433D01*
X6650348Y-20195338D01*
X6640824Y-20147719D01*
X6631300Y-20119148D01*
X6621776Y-20100100D01*
X6602728Y-20071529D01*
X6593205Y-20062005D01*
D15*
X1809584Y-20492385D02*
X1809584Y-20435816D01*
X1753015Y-20435816D01*
X1753015Y-20492385D01*
X1809584Y-20492385D01*
D11*
X2117014Y-20354576D02*
X2136062Y-20354576D01*
X2155110Y-20364100D01*
X2164633Y-20373624D01*
X2174157Y-20392671D01*
X2183681Y-20430767D01*
X2183681Y-20478386D01*
X2174157Y-20516481D01*
X2164633Y-20535529D01*
X2155110Y-20545052D01*
X2136062Y-20554576D01*
X2117014Y-20554576D01*
X2097967Y-20545052D01*
X2088443Y-20535529D01*
X2078919Y-20516481D01*
X2069395Y-20478386D01*
X2069395Y-20430767D01*
X2078919Y-20392671D01*
X2088443Y-20373624D01*
X2097967Y-20364100D01*
X2117014Y-20354576D01*
X2269395Y-20535529D02*
X2278919Y-20545052D01*
X2269395Y-20554576D01*
X2259871Y-20545052D01*
X2269395Y-20535529D01*
X2269395Y-20554576D01*
X2393205Y-20440290D02*
X2374157Y-20430767D01*
X2364633Y-20421243D01*
X2355110Y-20402195D01*
X2355110Y-20392671D01*
X2364633Y-20373624D01*
X2374157Y-20364100D01*
X2393205Y-20354576D01*
X2431300Y-20354576D01*
X2450348Y-20364100D01*
X2459871Y-20373624D01*
X2469395Y-20392671D01*
X2469395Y-20402195D01*
X2459871Y-20421243D01*
X2450348Y-20430767D01*
X2431300Y-20440290D01*
X2393205Y-20440290D01*
X2374157Y-20449814D01*
X2364633Y-20459338D01*
X2355110Y-20478386D01*
X2355110Y-20516481D01*
X2364633Y-20535529D01*
X2374157Y-20545052D01*
X2393205Y-20554576D01*
X2431300Y-20554576D01*
X2450348Y-20545052D01*
X2459871Y-20535529D01*
X2469395Y-20516481D01*
X2469395Y-20478386D01*
X2459871Y-20459338D01*
X2450348Y-20449814D01*
X2431300Y-20440290D01*
X2593205Y-20354576D02*
X2612252Y-20354576D01*
X2631300Y-20364100D01*
X2640824Y-20373624D01*
X2650348Y-20392671D01*
X2659871Y-20430767D01*
X2659871Y-20478386D01*
X2650348Y-20516481D01*
X2640824Y-20535529D01*
X2631300Y-20545052D01*
X2612252Y-20554576D01*
X2593205Y-20554576D01*
X2574157Y-20545052D01*
X2564633Y-20535529D01*
X2555110Y-20516481D01*
X2545586Y-20478386D01*
X2545586Y-20430767D01*
X2555110Y-20392671D01*
X2564633Y-20373624D01*
X2574157Y-20364100D01*
X2593205Y-20354576D01*
X2783681Y-20354576D02*
X2802728Y-20354576D01*
X2821776Y-20364100D01*
X2831300Y-20373624D01*
X2840824Y-20392671D01*
X2850348Y-20430767D01*
X2850348Y-20478386D01*
X2840824Y-20516481D01*
X2831300Y-20535529D01*
X2821776Y-20545052D01*
X2802728Y-20554576D01*
X2783681Y-20554576D01*
X2764633Y-20545052D01*
X2755110Y-20535529D01*
X2745586Y-20516481D01*
X2736062Y-20478386D01*
X2736062Y-20430767D01*
X2745586Y-20392671D01*
X2755110Y-20373624D01*
X2764633Y-20364100D01*
X2783681Y-20354576D01*
X2936062Y-20554576D02*
X2936062Y-20421243D01*
X2936062Y-20440290D02*
X2945586Y-20430767D01*
X2964633Y-20421243D01*
X2993205Y-20421243D01*
X3012252Y-20430767D01*
X3021776Y-20449814D01*
X3021776Y-20554576D01*
X3021776Y-20449814D02*
X3031300Y-20430767D01*
X3050348Y-20421243D01*
X3078919Y-20421243D01*
X3097967Y-20430767D01*
X3107490Y-20449814D01*
X3107490Y-20554576D01*
X3202728Y-20554576D02*
X3202728Y-20421243D01*
X3202728Y-20440290D02*
X3212252Y-20430767D01*
X3231300Y-20421243D01*
X3259871Y-20421243D01*
X3278919Y-20430767D01*
X3288443Y-20449814D01*
X3288443Y-20554576D01*
X3288443Y-20449814D02*
X3297967Y-20430767D01*
X3317014Y-20421243D01*
X3345586Y-20421243D01*
X3364633Y-20430767D01*
X3374157Y-20449814D01*
X3374157Y-20554576D01*
X3764633Y-20345052D02*
X3593205Y-20602195D01*
X4021776Y-20354576D02*
X4040824Y-20354576D01*
X4059871Y-20364100D01*
X4069395Y-20373624D01*
X4078919Y-20392671D01*
X4088443Y-20430767D01*
X4088443Y-20478386D01*
X4078919Y-20516481D01*
X4069395Y-20535529D01*
X4059871Y-20545052D01*
X4040824Y-20554576D01*
X4021776Y-20554576D01*
X4002728Y-20545052D01*
X3993205Y-20535529D01*
X3983681Y-20516481D01*
X3974157Y-20478386D01*
X3974157Y-20430767D01*
X3983681Y-20392671D01*
X3993205Y-20373624D01*
X4002728Y-20364100D01*
X4021776Y-20354576D01*
X4174157Y-20535529D02*
X4183681Y-20545052D01*
X4174157Y-20554576D01*
X4164633Y-20545052D01*
X4174157Y-20535529D01*
X4174157Y-20554576D01*
X4307490Y-20354576D02*
X4326538Y-20354576D01*
X4345586Y-20364100D01*
X4355110Y-20373624D01*
X4364633Y-20392671D01*
X4374157Y-20430767D01*
X4374157Y-20478386D01*
X4364633Y-20516481D01*
X4355110Y-20535529D01*
X4345586Y-20545052D01*
X4326538Y-20554576D01*
X4307490Y-20554576D01*
X4288443Y-20545052D01*
X4278919Y-20535529D01*
X4269395Y-20516481D01*
X4259871Y-20478386D01*
X4259871Y-20430767D01*
X4269395Y-20392671D01*
X4278919Y-20373624D01*
X4288443Y-20364100D01*
X4307490Y-20354576D01*
X4440824Y-20354576D02*
X4564633Y-20354576D01*
X4497967Y-20430767D01*
X4526538Y-20430767D01*
X4545586Y-20440290D01*
X4555110Y-20449814D01*
X4564633Y-20468862D01*
X4564633Y-20516481D01*
X4555110Y-20535529D01*
X4545586Y-20545052D01*
X4526538Y-20554576D01*
X4469395Y-20554576D01*
X4450348Y-20545052D01*
X4440824Y-20535529D01*
X4755110Y-20554576D02*
X4640824Y-20554576D01*
X4697967Y-20554576D02*
X4697967Y-20354576D01*
X4678919Y-20383148D01*
X4659871Y-20402195D01*
X4640824Y-20411719D01*
X4936062Y-20354576D02*
X4840824Y-20354576D01*
X4831300Y-20449814D01*
X4840824Y-20440290D01*
X4859871Y-20430767D01*
X4907490Y-20430767D01*
X4926538Y-20440290D01*
X4936062Y-20449814D01*
X4945586Y-20468862D01*
X4945586Y-20516481D01*
X4936062Y-20535529D01*
X4926538Y-20545052D01*
X4907490Y-20554576D01*
X4859871Y-20554576D01*
X4840824Y-20545052D01*
X4831300Y-20535529D01*
X5021776Y-20354576D02*
X5021776Y-20392671D01*
X5097967Y-20354576D02*
X5097967Y-20392671D01*
X5393205Y-20630767D02*
X5383681Y-20621243D01*
X5364633Y-20592671D01*
X5355110Y-20573624D01*
X5345586Y-20545052D01*
X5336062Y-20497433D01*
X5336062Y-20459338D01*
X5345586Y-20411719D01*
X5355110Y-20383148D01*
X5364633Y-20364100D01*
X5383681Y-20335529D01*
X5393205Y-20326005D01*
X5574157Y-20554576D02*
X5459871Y-20554576D01*
X5517014Y-20554576D02*
X5517014Y-20354576D01*
X5497967Y-20383148D01*
X5478919Y-20402195D01*
X5459871Y-20411719D01*
X5745586Y-20421243D02*
X5745586Y-20554576D01*
X5697967Y-20345052D02*
X5650348Y-20487910D01*
X5774157Y-20487910D01*
X5955109Y-20554576D02*
X5840824Y-20554576D01*
X5897967Y-20554576D02*
X5897967Y-20354576D01*
X5878919Y-20383148D01*
X5859871Y-20402195D01*
X5840824Y-20411719D01*
X6193205Y-20554576D02*
X6193205Y-20354576D01*
X6278919Y-20554576D02*
X6278919Y-20449814D01*
X6269395Y-20430767D01*
X6250348Y-20421243D01*
X6221776Y-20421243D01*
X6202728Y-20430767D01*
X6193205Y-20440290D01*
X6402728Y-20554576D02*
X6383681Y-20545052D01*
X6374157Y-20535529D01*
X6364633Y-20516481D01*
X6364633Y-20459338D01*
X6374157Y-20440290D01*
X6383681Y-20430767D01*
X6402728Y-20421243D01*
X6431300Y-20421243D01*
X6450348Y-20430767D01*
X6459871Y-20440290D01*
X6469395Y-20459338D01*
X6469395Y-20516481D01*
X6459871Y-20535529D01*
X6450348Y-20545052D01*
X6431300Y-20554576D01*
X6402728Y-20554576D01*
X6583681Y-20554576D02*
X6564633Y-20545052D01*
X6555109Y-20526005D01*
X6555109Y-20354576D01*
X6736062Y-20545052D02*
X6717014Y-20554576D01*
X6678919Y-20554576D01*
X6659871Y-20545052D01*
X6650348Y-20526005D01*
X6650348Y-20449814D01*
X6659871Y-20430767D01*
X6678919Y-20421243D01*
X6717014Y-20421243D01*
X6736062Y-20430767D01*
X6745586Y-20449814D01*
X6745586Y-20468862D01*
X6650348Y-20487910D01*
X6821776Y-20545052D02*
X6840824Y-20554576D01*
X6878919Y-20554576D01*
X6897967Y-20545052D01*
X6907490Y-20526005D01*
X6907490Y-20516481D01*
X6897967Y-20497433D01*
X6878919Y-20487910D01*
X6850348Y-20487910D01*
X6831300Y-20478386D01*
X6821776Y-20459338D01*
X6821776Y-20449814D01*
X6831300Y-20430767D01*
X6850348Y-20421243D01*
X6878919Y-20421243D01*
X6897967Y-20430767D01*
X6974157Y-20630767D02*
X6983681Y-20621243D01*
X7002728Y-20592671D01*
X7012252Y-20573624D01*
X7021776Y-20545052D01*
X7031300Y-20497433D01*
X7031300Y-20459338D01*
X7021776Y-20411719D01*
X7012252Y-20383148D01*
X7002728Y-20364100D01*
X6983681Y-20335529D01*
X6974157Y-20326005D01*
D16*
X1776300Y-20773100D02*
X1821300Y-20728100D01*
X1776300Y-20683100D01*
X1731300Y-20728100D01*
X1776300Y-20773100D01*
D11*
X2117014Y-20618576D02*
X2136062Y-20618576D01*
X2155110Y-20628100D01*
X2164633Y-20637624D01*
X2174157Y-20656671D01*
X2183681Y-20694767D01*
X2183681Y-20742386D01*
X2174157Y-20780481D01*
X2164633Y-20799529D01*
X2155110Y-20809052D01*
X2136062Y-20818576D01*
X2117014Y-20818576D01*
X2097967Y-20809052D01*
X2088443Y-20799529D01*
X2078919Y-20780481D01*
X2069395Y-20742386D01*
X2069395Y-20694767D01*
X2078919Y-20656671D01*
X2088443Y-20637624D01*
X2097967Y-20628100D01*
X2117014Y-20618576D01*
X2269395Y-20799529D02*
X2278919Y-20809052D01*
X2269395Y-20818576D01*
X2259871Y-20809052D01*
X2269395Y-20799529D01*
X2269395Y-20818576D01*
X2374157Y-20818576D02*
X2412252Y-20818576D01*
X2431300Y-20809052D01*
X2440824Y-20799529D01*
X2459871Y-20770957D01*
X2469395Y-20732862D01*
X2469395Y-20656671D01*
X2459871Y-20637624D01*
X2450348Y-20628100D01*
X2431300Y-20618576D01*
X2393205Y-20618576D01*
X2374157Y-20628100D01*
X2364633Y-20637624D01*
X2355110Y-20656671D01*
X2355110Y-20704290D01*
X2364633Y-20723338D01*
X2374157Y-20732862D01*
X2393205Y-20742386D01*
X2431300Y-20742386D01*
X2450348Y-20732862D01*
X2459871Y-20723338D01*
X2469395Y-20704290D01*
X2593205Y-20618576D02*
X2612252Y-20618576D01*
X2631300Y-20628100D01*
X2640824Y-20637624D01*
X2650348Y-20656671D01*
X2659871Y-20694767D01*
X2659871Y-20742386D01*
X2650348Y-20780481D01*
X2640824Y-20799529D01*
X2631300Y-20809052D01*
X2612252Y-20818576D01*
X2593205Y-20818576D01*
X2574157Y-20809052D01*
X2564633Y-20799529D01*
X2555110Y-20780481D01*
X2545586Y-20742386D01*
X2545586Y-20694767D01*
X2555110Y-20656671D01*
X2564633Y-20637624D01*
X2574157Y-20628100D01*
X2593205Y-20618576D01*
X2783681Y-20618576D02*
X2802728Y-20618576D01*
X2821776Y-20628100D01*
X2831300Y-20637624D01*
X2840824Y-20656671D01*
X2850348Y-20694767D01*
X2850348Y-20742386D01*
X2840824Y-20780481D01*
X2831300Y-20799529D01*
X2821776Y-20809052D01*
X2802728Y-20818576D01*
X2783681Y-20818576D01*
X2764633Y-20809052D01*
X2755110Y-20799529D01*
X2745586Y-20780481D01*
X2736062Y-20742386D01*
X2736062Y-20694767D01*
X2745586Y-20656671D01*
X2755110Y-20637624D01*
X2764633Y-20628100D01*
X2783681Y-20618576D01*
X2936062Y-20818576D02*
X2936062Y-20685243D01*
X2936062Y-20704290D02*
X2945586Y-20694767D01*
X2964633Y-20685243D01*
X2993205Y-20685243D01*
X3012252Y-20694767D01*
X3021776Y-20713814D01*
X3021776Y-20818576D01*
X3021776Y-20713814D02*
X3031300Y-20694767D01*
X3050348Y-20685243D01*
X3078919Y-20685243D01*
X3097967Y-20694767D01*
X3107490Y-20713814D01*
X3107490Y-20818576D01*
X3202728Y-20818576D02*
X3202728Y-20685243D01*
X3202728Y-20704290D02*
X3212252Y-20694767D01*
X3231300Y-20685243D01*
X3259871Y-20685243D01*
X3278919Y-20694767D01*
X3288443Y-20713814D01*
X3288443Y-20818576D01*
X3288443Y-20713814D02*
X3297967Y-20694767D01*
X3317014Y-20685243D01*
X3345586Y-20685243D01*
X3364633Y-20694767D01*
X3374157Y-20713814D01*
X3374157Y-20818576D01*
X3764633Y-20609052D02*
X3593205Y-20866195D01*
X4021776Y-20618576D02*
X4040824Y-20618576D01*
X4059871Y-20628100D01*
X4069395Y-20637624D01*
X4078919Y-20656671D01*
X4088443Y-20694767D01*
X4088443Y-20742386D01*
X4078919Y-20780481D01*
X4069395Y-20799529D01*
X4059871Y-20809052D01*
X4040824Y-20818576D01*
X4021776Y-20818576D01*
X4002728Y-20809052D01*
X3993205Y-20799529D01*
X3983681Y-20780481D01*
X3974157Y-20742386D01*
X3974157Y-20694767D01*
X3983681Y-20656671D01*
X3993205Y-20637624D01*
X4002728Y-20628100D01*
X4021776Y-20618576D01*
X4174157Y-20799529D02*
X4183681Y-20809052D01*
X4174157Y-20818576D01*
X4164633Y-20809052D01*
X4174157Y-20799529D01*
X4174157Y-20818576D01*
X4307490Y-20618576D02*
X4326538Y-20618576D01*
X4345586Y-20628100D01*
X4355110Y-20637624D01*
X4364633Y-20656671D01*
X4374157Y-20694767D01*
X4374157Y-20742386D01*
X4364633Y-20780481D01*
X4355110Y-20799529D01*
X4345586Y-20809052D01*
X4326538Y-20818576D01*
X4307490Y-20818576D01*
X4288443Y-20809052D01*
X4278919Y-20799529D01*
X4269395Y-20780481D01*
X4259871Y-20742386D01*
X4259871Y-20694767D01*
X4269395Y-20656671D01*
X4278919Y-20637624D01*
X4288443Y-20628100D01*
X4307490Y-20618576D01*
X4440824Y-20618576D02*
X4564633Y-20618576D01*
X4497967Y-20694767D01*
X4526538Y-20694767D01*
X4545586Y-20704290D01*
X4555110Y-20713814D01*
X4564633Y-20732862D01*
X4564633Y-20780481D01*
X4555110Y-20799529D01*
X4545586Y-20809052D01*
X4526538Y-20818576D01*
X4469395Y-20818576D01*
X4450348Y-20809052D01*
X4440824Y-20799529D01*
X4745586Y-20618576D02*
X4650348Y-20618576D01*
X4640824Y-20713814D01*
X4650348Y-20704290D01*
X4669395Y-20694767D01*
X4717014Y-20694767D01*
X4736062Y-20704290D01*
X4745586Y-20713814D01*
X4755110Y-20732862D01*
X4755110Y-20780481D01*
X4745586Y-20799529D01*
X4736062Y-20809052D01*
X4717014Y-20818576D01*
X4669395Y-20818576D01*
X4650348Y-20809052D01*
X4640824Y-20799529D01*
X4926538Y-20685243D02*
X4926538Y-20818576D01*
X4878919Y-20609052D02*
X4831300Y-20751910D01*
X4955110Y-20751910D01*
X5021776Y-20618576D02*
X5021776Y-20656671D01*
X5097967Y-20618576D02*
X5097967Y-20656671D01*
X5393205Y-20894767D02*
X5383681Y-20885243D01*
X5364633Y-20856671D01*
X5355110Y-20837624D01*
X5345586Y-20809052D01*
X5336062Y-20761433D01*
X5336062Y-20723338D01*
X5345586Y-20675719D01*
X5355110Y-20647148D01*
X5364633Y-20628100D01*
X5383681Y-20599529D01*
X5393205Y-20590005D01*
X5555110Y-20618576D02*
X5517014Y-20618576D01*
X5497967Y-20628100D01*
X5488443Y-20637624D01*
X5469395Y-20666195D01*
X5459871Y-20704290D01*
X5459871Y-20780481D01*
X5469395Y-20799529D01*
X5478919Y-20809052D01*
X5497967Y-20818576D01*
X5536062Y-20818576D01*
X5555110Y-20809052D01*
X5564633Y-20799529D01*
X5574157Y-20780481D01*
X5574157Y-20732862D01*
X5564633Y-20713814D01*
X5555110Y-20704290D01*
X5536062Y-20694767D01*
X5497967Y-20694767D01*
X5478919Y-20704290D01*
X5469395Y-20713814D01*
X5459871Y-20732862D01*
X5812252Y-20818576D02*
X5812252Y-20618576D01*
X5897967Y-20818576D02*
X5897967Y-20713814D01*
X5888443Y-20694767D01*
X5869395Y-20685243D01*
X5840824Y-20685243D01*
X5821776Y-20694767D01*
X5812252Y-20704290D01*
X6021776Y-20818576D02*
X6002728Y-20809052D01*
X5993205Y-20799529D01*
X5983681Y-20780481D01*
X5983681Y-20723338D01*
X5993205Y-20704290D01*
X6002728Y-20694767D01*
X6021776Y-20685243D01*
X6050348Y-20685243D01*
X6069395Y-20694767D01*
X6078919Y-20704290D01*
X6088443Y-20723338D01*
X6088443Y-20780481D01*
X6078919Y-20799529D01*
X6069395Y-20809052D01*
X6050348Y-20818576D01*
X6021776Y-20818576D01*
X6202728Y-20818576D02*
X6183681Y-20809052D01*
X6174157Y-20790005D01*
X6174157Y-20618576D01*
X6355109Y-20809052D02*
X6336062Y-20818576D01*
X6297967Y-20818576D01*
X6278919Y-20809052D01*
X6269395Y-20790005D01*
X6269395Y-20713814D01*
X6278919Y-20694767D01*
X6297967Y-20685243D01*
X6336062Y-20685243D01*
X6355109Y-20694767D01*
X6364633Y-20713814D01*
X6364633Y-20732862D01*
X6269395Y-20751910D01*
X6440824Y-20809052D02*
X6459871Y-20818576D01*
X6497967Y-20818576D01*
X6517014Y-20809052D01*
X6526538Y-20790005D01*
X6526538Y-20780481D01*
X6517014Y-20761433D01*
X6497967Y-20751910D01*
X6469395Y-20751910D01*
X6450348Y-20742386D01*
X6440824Y-20723338D01*
X6440824Y-20713814D01*
X6450348Y-20694767D01*
X6469395Y-20685243D01*
X6497967Y-20685243D01*
X6517014Y-20694767D01*
X6593205Y-20894767D02*
X6602728Y-20885243D01*
X6621776Y-20856671D01*
X6631300Y-20837624D01*
X6640824Y-20809052D01*
X6650348Y-20761433D01*
X6650348Y-20723338D01*
X6640824Y-20675719D01*
X6631300Y-20647148D01*
X6621776Y-20628100D01*
X6602728Y-20599529D01*
X6593205Y-20590005D01*
D17*
X1721300Y-20942100D02*
X1821300Y-21042100D01*
X1821300Y-20942100D02*
X1721300Y-21042100D01*
X1821300Y-20992100D02*
G75*
G03*
X1821300Y-20992100I-50000J0D01*
G01*
D11*
X2183681Y-21082576D02*
X2069395Y-21082576D01*
X2126538Y-21082576D02*
X2126538Y-20882576D01*
X2107490Y-20911148D01*
X2088443Y-20930195D01*
X2069395Y-20939719D01*
X2269395Y-21063529D02*
X2278919Y-21073052D01*
X2269395Y-21082576D01*
X2259871Y-21073052D01*
X2269395Y-21063529D01*
X2269395Y-21082576D01*
X2402729Y-20882576D02*
X2421776Y-20882576D01*
X2440824Y-20892100D01*
X2450348Y-20901624D01*
X2459871Y-20920671D01*
X2469395Y-20958767D01*
X2469395Y-21006386D01*
X2459871Y-21044481D01*
X2450348Y-21063529D01*
X2440824Y-21073052D01*
X2421776Y-21082576D01*
X2402729Y-21082576D01*
X2383681Y-21073052D01*
X2374157Y-21063529D01*
X2364633Y-21044481D01*
X2355110Y-21006386D01*
X2355110Y-20958767D01*
X2364633Y-20920671D01*
X2374157Y-20901624D01*
X2383681Y-20892100D01*
X2402729Y-20882576D01*
X2593205Y-20882576D02*
X2612252Y-20882576D01*
X2631300Y-20892100D01*
X2640824Y-20901624D01*
X2650348Y-20920671D01*
X2659871Y-20958767D01*
X2659871Y-21006386D01*
X2650348Y-21044481D01*
X2640824Y-21063529D01*
X2631300Y-21073052D01*
X2612252Y-21082576D01*
X2593205Y-21082576D01*
X2574157Y-21073052D01*
X2564633Y-21063529D01*
X2555110Y-21044481D01*
X2545586Y-21006386D01*
X2545586Y-20958767D01*
X2555110Y-20920671D01*
X2564633Y-20901624D01*
X2574157Y-20892100D01*
X2593205Y-20882576D01*
X2783681Y-20882576D02*
X2802728Y-20882576D01*
X2821776Y-20892100D01*
X2831300Y-20901624D01*
X2840824Y-20920671D01*
X2850348Y-20958767D01*
X2850348Y-21006386D01*
X2840824Y-21044481D01*
X2831300Y-21063529D01*
X2821776Y-21073052D01*
X2802728Y-21082576D01*
X2783681Y-21082576D01*
X2764633Y-21073052D01*
X2755110Y-21063529D01*
X2745586Y-21044481D01*
X2736062Y-21006386D01*
X2736062Y-20958767D01*
X2745586Y-20920671D01*
X2755110Y-20901624D01*
X2764633Y-20892100D01*
X2783681Y-20882576D01*
X2936062Y-21082576D02*
X2936062Y-20949243D01*
X2936062Y-20968290D02*
X2945586Y-20958767D01*
X2964633Y-20949243D01*
X2993205Y-20949243D01*
X3012252Y-20958767D01*
X3021776Y-20977814D01*
X3021776Y-21082576D01*
X3021776Y-20977814D02*
X3031300Y-20958767D01*
X3050348Y-20949243D01*
X3078919Y-20949243D01*
X3097967Y-20958767D01*
X3107490Y-20977814D01*
X3107490Y-21082576D01*
X3202728Y-21082576D02*
X3202728Y-20949243D01*
X3202728Y-20968290D02*
X3212252Y-20958767D01*
X3231300Y-20949243D01*
X3259871Y-20949243D01*
X3278919Y-20958767D01*
X3288443Y-20977814D01*
X3288443Y-21082576D01*
X3288443Y-20977814D02*
X3297967Y-20958767D01*
X3317014Y-20949243D01*
X3345586Y-20949243D01*
X3364633Y-20958767D01*
X3374157Y-20977814D01*
X3374157Y-21082576D01*
X3764633Y-20873052D02*
X3593205Y-21130195D01*
X4021776Y-20882576D02*
X4040824Y-20882576D01*
X4059871Y-20892100D01*
X4069395Y-20901624D01*
X4078919Y-20920671D01*
X4088443Y-20958767D01*
X4088443Y-21006386D01*
X4078919Y-21044481D01*
X4069395Y-21063529D01*
X4059871Y-21073052D01*
X4040824Y-21082576D01*
X4021776Y-21082576D01*
X4002728Y-21073052D01*
X3993205Y-21063529D01*
X3983681Y-21044481D01*
X3974157Y-21006386D01*
X3974157Y-20958767D01*
X3983681Y-20920671D01*
X3993205Y-20901624D01*
X4002728Y-20892100D01*
X4021776Y-20882576D01*
X4174157Y-21063529D02*
X4183681Y-21073052D01*
X4174157Y-21082576D01*
X4164633Y-21073052D01*
X4174157Y-21063529D01*
X4174157Y-21082576D01*
X4307490Y-20882576D02*
X4326538Y-20882576D01*
X4345586Y-20892100D01*
X4355110Y-20901624D01*
X4364633Y-20920671D01*
X4374157Y-20958767D01*
X4374157Y-21006386D01*
X4364633Y-21044481D01*
X4355110Y-21063529D01*
X4345586Y-21073052D01*
X4326538Y-21082576D01*
X4307490Y-21082576D01*
X4288443Y-21073052D01*
X4278919Y-21063529D01*
X4269395Y-21044481D01*
X4259871Y-21006386D01*
X4259871Y-20958767D01*
X4269395Y-20920671D01*
X4278919Y-20901624D01*
X4288443Y-20892100D01*
X4307490Y-20882576D01*
X4440824Y-20882576D02*
X4564633Y-20882576D01*
X4497967Y-20958767D01*
X4526538Y-20958767D01*
X4545586Y-20968290D01*
X4555110Y-20977814D01*
X4564633Y-20996862D01*
X4564633Y-21044481D01*
X4555110Y-21063529D01*
X4545586Y-21073052D01*
X4526538Y-21082576D01*
X4469395Y-21082576D01*
X4450348Y-21073052D01*
X4440824Y-21063529D01*
X4659871Y-21082576D02*
X4697967Y-21082576D01*
X4717014Y-21073052D01*
X4726538Y-21063529D01*
X4745586Y-21034957D01*
X4755110Y-20996862D01*
X4755110Y-20920671D01*
X4745586Y-20901624D01*
X4736062Y-20892100D01*
X4717014Y-20882576D01*
X4678919Y-20882576D01*
X4659871Y-20892100D01*
X4650348Y-20901624D01*
X4640824Y-20920671D01*
X4640824Y-20968290D01*
X4650348Y-20987338D01*
X4659871Y-20996862D01*
X4678919Y-21006386D01*
X4717014Y-21006386D01*
X4736062Y-20996862D01*
X4745586Y-20987338D01*
X4755110Y-20968290D01*
X4926538Y-20949243D02*
X4926538Y-21082576D01*
X4878919Y-20873052D02*
X4831300Y-21015910D01*
X4955110Y-21015910D01*
X5021776Y-20882576D02*
X5021776Y-20920671D01*
X5097967Y-20882576D02*
X5097967Y-20920671D01*
X5393205Y-21158767D02*
X5383681Y-21149243D01*
X5364633Y-21120671D01*
X5355110Y-21101624D01*
X5345586Y-21073052D01*
X5336062Y-21025433D01*
X5336062Y-20987338D01*
X5345586Y-20939719D01*
X5355110Y-20911148D01*
X5364633Y-20892100D01*
X5383681Y-20863529D01*
X5393205Y-20854005D01*
X5450348Y-20882576D02*
X5583681Y-20882576D01*
X5497967Y-21082576D01*
X5640824Y-20882576D02*
X5764633Y-20882576D01*
X5697967Y-20958767D01*
X5726538Y-20958767D01*
X5745586Y-20968290D01*
X5755109Y-20977814D01*
X5764633Y-20996862D01*
X5764633Y-21044481D01*
X5755109Y-21063529D01*
X5745586Y-21073052D01*
X5726538Y-21082576D01*
X5669395Y-21082576D01*
X5650348Y-21073052D01*
X5640824Y-21063529D01*
X6002728Y-21082576D02*
X6002728Y-20882576D01*
X6088443Y-21082576D02*
X6088443Y-20977814D01*
X6078919Y-20958767D01*
X6059871Y-20949243D01*
X6031300Y-20949243D01*
X6012252Y-20958767D01*
X6002728Y-20968290D01*
X6212252Y-21082576D02*
X6193205Y-21073052D01*
X6183681Y-21063529D01*
X6174157Y-21044481D01*
X6174157Y-20987338D01*
X6183681Y-20968290D01*
X6193205Y-20958767D01*
X6212252Y-20949243D01*
X6240824Y-20949243D01*
X6259871Y-20958767D01*
X6269395Y-20968290D01*
X6278919Y-20987338D01*
X6278919Y-21044481D01*
X6269395Y-21063529D01*
X6259871Y-21073052D01*
X6240824Y-21082576D01*
X6212252Y-21082576D01*
X6393205Y-21082576D02*
X6374157Y-21073052D01*
X6364633Y-21054005D01*
X6364633Y-20882576D01*
X6545586Y-21073052D02*
X6526538Y-21082576D01*
X6488443Y-21082576D01*
X6469395Y-21073052D01*
X6459871Y-21054005D01*
X6459871Y-20977814D01*
X6469395Y-20958767D01*
X6488443Y-20949243D01*
X6526538Y-20949243D01*
X6545586Y-20958767D01*
X6555109Y-20977814D01*
X6555109Y-20996862D01*
X6459871Y-21015910D01*
X6631300Y-21073052D02*
X6650348Y-21082576D01*
X6688443Y-21082576D01*
X6707490Y-21073052D01*
X6717014Y-21054005D01*
X6717014Y-21044481D01*
X6707490Y-21025433D01*
X6688443Y-21015910D01*
X6659871Y-21015910D01*
X6640824Y-21006386D01*
X6631300Y-20987338D01*
X6631300Y-20977814D01*
X6640824Y-20958767D01*
X6659871Y-20949243D01*
X6688443Y-20949243D01*
X6707490Y-20958767D01*
X6783681Y-21158767D02*
X6793205Y-21149243D01*
X6812252Y-21120671D01*
X6821776Y-21101624D01*
X6831300Y-21073052D01*
X6840824Y-21025433D01*
X6840824Y-20987338D01*
X6831300Y-20939719D01*
X6821776Y-20911148D01*
X6812252Y-20892100D01*
X6793205Y-20863529D01*
X6783681Y-20854005D01*
D18*
X1711300Y-21201100D02*
X1821300Y-21311100D01*
X1821300Y-21201100D02*
X1711300Y-21311100D01*
X1766300Y-21201100D02*
X1766300Y-21311100D01*
X1711300Y-21256100D02*
X1821300Y-21256100D01*
D11*
X2183681Y-21346576D02*
X2069395Y-21346576D01*
X2126538Y-21346576D02*
X2126538Y-21146576D01*
X2107490Y-21175148D01*
X2088443Y-21194195D01*
X2069395Y-21203719D01*
X2269395Y-21327529D02*
X2278919Y-21337052D01*
X2269395Y-21346576D01*
X2259871Y-21337052D01*
X2269395Y-21327529D01*
X2269395Y-21346576D01*
X2469395Y-21346576D02*
X2355110Y-21346576D01*
X2412252Y-21346576D02*
X2412252Y-21146576D01*
X2393205Y-21175148D01*
X2374157Y-21194195D01*
X2355110Y-21203719D01*
X2593205Y-21146576D02*
X2612252Y-21146576D01*
X2631300Y-21156100D01*
X2640824Y-21165624D01*
X2650348Y-21184671D01*
X2659871Y-21222767D01*
X2659871Y-21270386D01*
X2650348Y-21308481D01*
X2640824Y-21327529D01*
X2631300Y-21337052D01*
X2612252Y-21346576D01*
X2593205Y-21346576D01*
X2574157Y-21337052D01*
X2564633Y-21327529D01*
X2555110Y-21308481D01*
X2545586Y-21270386D01*
X2545586Y-21222767D01*
X2555110Y-21184671D01*
X2564633Y-21165624D01*
X2574157Y-21156100D01*
X2593205Y-21146576D01*
X2783681Y-21146576D02*
X2802728Y-21146576D01*
X2821776Y-21156100D01*
X2831300Y-21165624D01*
X2840824Y-21184671D01*
X2850348Y-21222767D01*
X2850348Y-21270386D01*
X2840824Y-21308481D01*
X2831300Y-21327529D01*
X2821776Y-21337052D01*
X2802728Y-21346576D01*
X2783681Y-21346576D01*
X2764633Y-21337052D01*
X2755110Y-21327529D01*
X2745586Y-21308481D01*
X2736062Y-21270386D01*
X2736062Y-21222767D01*
X2745586Y-21184671D01*
X2755110Y-21165624D01*
X2764633Y-21156100D01*
X2783681Y-21146576D01*
X2936062Y-21346576D02*
X2936062Y-21213243D01*
X2936062Y-21232290D02*
X2945586Y-21222767D01*
X2964633Y-21213243D01*
X2993205Y-21213243D01*
X3012252Y-21222767D01*
X3021776Y-21241814D01*
X3021776Y-21346576D01*
X3021776Y-21241814D02*
X3031300Y-21222767D01*
X3050348Y-21213243D01*
X3078919Y-21213243D01*
X3097967Y-21222767D01*
X3107490Y-21241814D01*
X3107490Y-21346576D01*
X3202728Y-21346576D02*
X3202728Y-21213243D01*
X3202728Y-21232290D02*
X3212252Y-21222767D01*
X3231300Y-21213243D01*
X3259871Y-21213243D01*
X3278919Y-21222767D01*
X3288443Y-21241814D01*
X3288443Y-21346576D01*
X3288443Y-21241814D02*
X3297967Y-21222767D01*
X3317014Y-21213243D01*
X3345586Y-21213243D01*
X3364633Y-21222767D01*
X3374157Y-21241814D01*
X3374157Y-21346576D01*
X3764633Y-21137052D02*
X3593205Y-21394195D01*
X4021776Y-21146576D02*
X4040824Y-21146576D01*
X4059871Y-21156100D01*
X4069395Y-21165624D01*
X4078919Y-21184671D01*
X4088443Y-21222767D01*
X4088443Y-21270386D01*
X4078919Y-21308481D01*
X4069395Y-21327529D01*
X4059871Y-21337052D01*
X4040824Y-21346576D01*
X4021776Y-21346576D01*
X4002728Y-21337052D01*
X3993205Y-21327529D01*
X3983681Y-21308481D01*
X3974157Y-21270386D01*
X3974157Y-21222767D01*
X3983681Y-21184671D01*
X3993205Y-21165624D01*
X4002728Y-21156100D01*
X4021776Y-21146576D01*
X4174157Y-21327529D02*
X4183681Y-21337052D01*
X4174157Y-21346576D01*
X4164633Y-21337052D01*
X4174157Y-21327529D01*
X4174157Y-21346576D01*
X4307490Y-21146576D02*
X4326538Y-21146576D01*
X4345586Y-21156100D01*
X4355110Y-21165624D01*
X4364633Y-21184671D01*
X4374157Y-21222767D01*
X4374157Y-21270386D01*
X4364633Y-21308481D01*
X4355110Y-21327529D01*
X4345586Y-21337052D01*
X4326538Y-21346576D01*
X4307490Y-21346576D01*
X4288443Y-21337052D01*
X4278919Y-21327529D01*
X4269395Y-21308481D01*
X4259871Y-21270386D01*
X4259871Y-21222767D01*
X4269395Y-21184671D01*
X4278919Y-21165624D01*
X4288443Y-21156100D01*
X4307490Y-21146576D01*
X4545586Y-21213243D02*
X4545586Y-21346576D01*
X4497967Y-21137052D02*
X4450348Y-21279910D01*
X4574157Y-21279910D01*
X4631300Y-21146576D02*
X4755110Y-21146576D01*
X4688443Y-21222767D01*
X4717014Y-21222767D01*
X4736062Y-21232290D01*
X4745586Y-21241814D01*
X4755110Y-21260862D01*
X4755110Y-21308481D01*
X4745586Y-21327529D01*
X4736062Y-21337052D01*
X4717014Y-21346576D01*
X4659871Y-21346576D01*
X4640824Y-21337052D01*
X4631300Y-21327529D01*
X4821776Y-21146576D02*
X4945586Y-21146576D01*
X4878919Y-21222767D01*
X4907490Y-21222767D01*
X4926538Y-21232290D01*
X4936062Y-21241814D01*
X4945586Y-21260862D01*
X4945586Y-21308481D01*
X4936062Y-21327529D01*
X4926538Y-21337052D01*
X4907490Y-21346576D01*
X4850348Y-21346576D01*
X4831300Y-21337052D01*
X4821776Y-21327529D01*
X5021776Y-21146576D02*
X5021776Y-21184671D01*
X5097967Y-21146576D02*
X5097967Y-21184671D01*
X5393205Y-21422767D02*
X5383681Y-21413243D01*
X5364633Y-21384671D01*
X5355110Y-21365624D01*
X5345586Y-21337052D01*
X5336062Y-21289433D01*
X5336062Y-21251338D01*
X5345586Y-21203719D01*
X5355110Y-21175148D01*
X5364633Y-21156100D01*
X5383681Y-21127529D01*
X5393205Y-21118005D01*
X5497967Y-21232290D02*
X5478919Y-21222767D01*
X5469395Y-21213243D01*
X5459871Y-21194195D01*
X5459871Y-21184671D01*
X5469395Y-21165624D01*
X5478919Y-21156100D01*
X5497967Y-21146576D01*
X5536062Y-21146576D01*
X5555110Y-21156100D01*
X5564633Y-21165624D01*
X5574157Y-21184671D01*
X5574157Y-21194195D01*
X5564633Y-21213243D01*
X5555110Y-21222767D01*
X5536062Y-21232290D01*
X5497967Y-21232290D01*
X5478919Y-21241814D01*
X5469395Y-21251338D01*
X5459871Y-21270386D01*
X5459871Y-21308481D01*
X5469395Y-21327529D01*
X5478919Y-21337052D01*
X5497967Y-21346576D01*
X5536062Y-21346576D01*
X5555110Y-21337052D01*
X5564633Y-21327529D01*
X5574157Y-21308481D01*
X5574157Y-21270386D01*
X5564633Y-21251338D01*
X5555110Y-21241814D01*
X5536062Y-21232290D01*
X5812252Y-21346576D02*
X5812252Y-21146576D01*
X5897967Y-21346576D02*
X5897967Y-21241814D01*
X5888443Y-21222767D01*
X5869395Y-21213243D01*
X5840824Y-21213243D01*
X5821776Y-21222767D01*
X5812252Y-21232290D01*
X6021776Y-21346576D02*
X6002728Y-21337052D01*
X5993205Y-21327529D01*
X5983681Y-21308481D01*
X5983681Y-21251338D01*
X5993205Y-21232290D01*
X6002728Y-21222767D01*
X6021776Y-21213243D01*
X6050348Y-21213243D01*
X6069395Y-21222767D01*
X6078919Y-21232290D01*
X6088443Y-21251338D01*
X6088443Y-21308481D01*
X6078919Y-21327529D01*
X6069395Y-21337052D01*
X6050348Y-21346576D01*
X6021776Y-21346576D01*
X6202728Y-21346576D02*
X6183681Y-21337052D01*
X6174157Y-21318005D01*
X6174157Y-21146576D01*
X6355109Y-21337052D02*
X6336062Y-21346576D01*
X6297967Y-21346576D01*
X6278919Y-21337052D01*
X6269395Y-21318005D01*
X6269395Y-21241814D01*
X6278919Y-21222767D01*
X6297967Y-21213243D01*
X6336062Y-21213243D01*
X6355109Y-21222767D01*
X6364633Y-21241814D01*
X6364633Y-21260862D01*
X6269395Y-21279910D01*
X6440824Y-21337052D02*
X6459871Y-21346576D01*
X6497967Y-21346576D01*
X6517014Y-21337052D01*
X6526538Y-21318005D01*
X6526538Y-21308481D01*
X6517014Y-21289433D01*
X6497967Y-21279910D01*
X6469395Y-21279910D01*
X6450348Y-21270386D01*
X6440824Y-21251338D01*
X6440824Y-21241814D01*
X6450348Y-21222767D01*
X6469395Y-21213243D01*
X6497967Y-21213243D01*
X6517014Y-21222767D01*
X6593205Y-21422767D02*
X6602728Y-21413243D01*
X6621776Y-21384671D01*
X6631300Y-21365624D01*
X6640824Y-21337052D01*
X6650348Y-21289433D01*
X6650348Y-21251338D01*
X6640824Y-21203719D01*
X6631300Y-21175148D01*
X6621776Y-21156100D01*
X6602728Y-21127529D01*
X6593205Y-21118005D01*
D19*
X1701300Y-21460100D02*
X1821300Y-21580100D01*
X1821300Y-21460100D02*
X1701300Y-21580100D01*
X1803727Y-21562527D02*
X1803727Y-21477673D01*
X1718873Y-21477673D01*
X1718873Y-21562527D01*
X1803727Y-21562527D01*
D11*
X2183681Y-21610576D02*
X2069395Y-21610576D01*
X2126538Y-21610576D02*
X2126538Y-21410576D01*
X2107490Y-21439148D01*
X2088443Y-21458195D01*
X2069395Y-21467719D01*
X2269395Y-21591529D02*
X2278919Y-21601052D01*
X2269395Y-21610576D01*
X2259871Y-21601052D01*
X2269395Y-21591529D01*
X2269395Y-21610576D01*
X2355110Y-21429624D02*
X2364633Y-21420100D01*
X2383681Y-21410576D01*
X2431300Y-21410576D01*
X2450348Y-21420100D01*
X2459871Y-21429624D01*
X2469395Y-21448671D01*
X2469395Y-21467719D01*
X2459871Y-21496290D01*
X2345586Y-21610576D01*
X2469395Y-21610576D01*
X2593205Y-21410576D02*
X2612252Y-21410576D01*
X2631300Y-21420100D01*
X2640824Y-21429624D01*
X2650348Y-21448671D01*
X2659871Y-21486767D01*
X2659871Y-21534386D01*
X2650348Y-21572481D01*
X2640824Y-21591529D01*
X2631300Y-21601052D01*
X2612252Y-21610576D01*
X2593205Y-21610576D01*
X2574157Y-21601052D01*
X2564633Y-21591529D01*
X2555110Y-21572481D01*
X2545586Y-21534386D01*
X2545586Y-21486767D01*
X2555110Y-21448671D01*
X2564633Y-21429624D01*
X2574157Y-21420100D01*
X2593205Y-21410576D01*
X2783681Y-21410576D02*
X2802728Y-21410576D01*
X2821776Y-21420100D01*
X2831300Y-21429624D01*
X2840824Y-21448671D01*
X2850348Y-21486767D01*
X2850348Y-21534386D01*
X2840824Y-21572481D01*
X2831300Y-21591529D01*
X2821776Y-21601052D01*
X2802728Y-21610576D01*
X2783681Y-21610576D01*
X2764633Y-21601052D01*
X2755110Y-21591529D01*
X2745586Y-21572481D01*
X2736062Y-21534386D01*
X2736062Y-21486767D01*
X2745586Y-21448671D01*
X2755110Y-21429624D01*
X2764633Y-21420100D01*
X2783681Y-21410576D01*
X2936062Y-21610576D02*
X2936062Y-21477243D01*
X2936062Y-21496290D02*
X2945586Y-21486767D01*
X2964633Y-21477243D01*
X2993205Y-21477243D01*
X3012252Y-21486767D01*
X3021776Y-21505814D01*
X3021776Y-21610576D01*
X3021776Y-21505814D02*
X3031300Y-21486767D01*
X3050348Y-21477243D01*
X3078919Y-21477243D01*
X3097967Y-21486767D01*
X3107490Y-21505814D01*
X3107490Y-21610576D01*
X3202728Y-21610576D02*
X3202728Y-21477243D01*
X3202728Y-21496290D02*
X3212252Y-21486767D01*
X3231300Y-21477243D01*
X3259871Y-21477243D01*
X3278919Y-21486767D01*
X3288443Y-21505814D01*
X3288443Y-21610576D01*
X3288443Y-21505814D02*
X3297967Y-21486767D01*
X3317014Y-21477243D01*
X3345586Y-21477243D01*
X3364633Y-21486767D01*
X3374157Y-21505814D01*
X3374157Y-21610576D01*
X3764633Y-21401052D02*
X3593205Y-21658195D01*
X4021776Y-21410576D02*
X4040824Y-21410576D01*
X4059871Y-21420100D01*
X4069395Y-21429624D01*
X4078919Y-21448671D01*
X4088443Y-21486767D01*
X4088443Y-21534386D01*
X4078919Y-21572481D01*
X4069395Y-21591529D01*
X4059871Y-21601052D01*
X4040824Y-21610576D01*
X4021776Y-21610576D01*
X4002728Y-21601052D01*
X3993205Y-21591529D01*
X3983681Y-21572481D01*
X3974157Y-21534386D01*
X3974157Y-21486767D01*
X3983681Y-21448671D01*
X3993205Y-21429624D01*
X4002728Y-21420100D01*
X4021776Y-21410576D01*
X4174157Y-21591529D02*
X4183681Y-21601052D01*
X4174157Y-21610576D01*
X4164633Y-21601052D01*
X4174157Y-21591529D01*
X4174157Y-21610576D01*
X4307490Y-21410576D02*
X4326538Y-21410576D01*
X4345586Y-21420100D01*
X4355110Y-21429624D01*
X4364633Y-21448671D01*
X4374157Y-21486767D01*
X4374157Y-21534386D01*
X4364633Y-21572481D01*
X4355110Y-21591529D01*
X4345586Y-21601052D01*
X4326538Y-21610576D01*
X4307490Y-21610576D01*
X4288443Y-21601052D01*
X4278919Y-21591529D01*
X4269395Y-21572481D01*
X4259871Y-21534386D01*
X4259871Y-21486767D01*
X4269395Y-21448671D01*
X4278919Y-21429624D01*
X4288443Y-21420100D01*
X4307490Y-21410576D01*
X4545586Y-21477243D02*
X4545586Y-21610576D01*
X4497967Y-21401052D02*
X4450348Y-21543910D01*
X4574157Y-21543910D01*
X4631300Y-21410576D02*
X4764633Y-21410576D01*
X4678919Y-21610576D01*
X4831300Y-21429624D02*
X4840824Y-21420100D01*
X4859871Y-21410576D01*
X4907490Y-21410576D01*
X4926538Y-21420100D01*
X4936062Y-21429624D01*
X4945586Y-21448671D01*
X4945586Y-21467719D01*
X4936062Y-21496290D01*
X4821776Y-21610576D01*
X4945586Y-21610576D01*
X5021776Y-21410576D02*
X5021776Y-21448671D01*
X5097967Y-21410576D02*
X5097967Y-21448671D01*
X5393205Y-21686767D02*
X5383681Y-21677243D01*
X5364633Y-21648671D01*
X5355110Y-21629624D01*
X5345586Y-21601052D01*
X5336062Y-21553433D01*
X5336062Y-21515338D01*
X5345586Y-21467719D01*
X5355110Y-21439148D01*
X5364633Y-21420100D01*
X5383681Y-21391529D01*
X5393205Y-21382005D01*
X5459871Y-21429624D02*
X5469395Y-21420100D01*
X5488443Y-21410576D01*
X5536062Y-21410576D01*
X5555110Y-21420100D01*
X5564633Y-21429624D01*
X5574157Y-21448671D01*
X5574157Y-21467719D01*
X5564633Y-21496290D01*
X5450348Y-21610576D01*
X5574157Y-21610576D01*
X5688443Y-21496290D02*
X5669395Y-21486767D01*
X5659871Y-21477243D01*
X5650348Y-21458195D01*
X5650348Y-21448671D01*
X5659871Y-21429624D01*
X5669395Y-21420100D01*
X5688443Y-21410576D01*
X5726538Y-21410576D01*
X5745586Y-21420100D01*
X5755109Y-21429624D01*
X5764633Y-21448671D01*
X5764633Y-21458195D01*
X5755109Y-21477243D01*
X5745586Y-21486767D01*
X5726538Y-21496290D01*
X5688443Y-21496290D01*
X5669395Y-21505814D01*
X5659871Y-21515338D01*
X5650348Y-21534386D01*
X5650348Y-21572481D01*
X5659871Y-21591529D01*
X5669395Y-21601052D01*
X5688443Y-21610576D01*
X5726538Y-21610576D01*
X5745586Y-21601052D01*
X5755109Y-21591529D01*
X5764633Y-21572481D01*
X5764633Y-21534386D01*
X5755109Y-21515338D01*
X5745586Y-21505814D01*
X5726538Y-21496290D01*
X6002728Y-21610576D02*
X6002728Y-21410576D01*
X6088443Y-21610576D02*
X6088443Y-21505814D01*
X6078919Y-21486767D01*
X6059871Y-21477243D01*
X6031300Y-21477243D01*
X6012252Y-21486767D01*
X6002728Y-21496290D01*
X6212252Y-21610576D02*
X6193205Y-21601052D01*
X6183681Y-21591529D01*
X6174157Y-21572481D01*
X6174157Y-21515338D01*
X6183681Y-21496290D01*
X6193205Y-21486767D01*
X6212252Y-21477243D01*
X6240824Y-21477243D01*
X6259871Y-21486767D01*
X6269395Y-21496290D01*
X6278919Y-21515338D01*
X6278919Y-21572481D01*
X6269395Y-21591529D01*
X6259871Y-21601052D01*
X6240824Y-21610576D01*
X6212252Y-21610576D01*
X6393205Y-21610576D02*
X6374157Y-21601052D01*
X6364633Y-21582005D01*
X6364633Y-21410576D01*
X6545586Y-21601052D02*
X6526538Y-21610576D01*
X6488443Y-21610576D01*
X6469395Y-21601052D01*
X6459871Y-21582005D01*
X6459871Y-21505814D01*
X6469395Y-21486767D01*
X6488443Y-21477243D01*
X6526538Y-21477243D01*
X6545586Y-21486767D01*
X6555109Y-21505814D01*
X6555109Y-21524862D01*
X6459871Y-21543910D01*
X6631300Y-21601052D02*
X6650348Y-21610576D01*
X6688443Y-21610576D01*
X6707490Y-21601052D01*
X6717014Y-21582005D01*
X6717014Y-21572481D01*
X6707490Y-21553433D01*
X6688443Y-21543910D01*
X6659871Y-21543910D01*
X6640824Y-21534386D01*
X6631300Y-21515338D01*
X6631300Y-21505814D01*
X6640824Y-21486767D01*
X6659871Y-21477243D01*
X6688443Y-21477243D01*
X6707490Y-21486767D01*
X6783681Y-21686767D02*
X6793205Y-21677243D01*
X6812252Y-21648671D01*
X6821776Y-21629624D01*
X6831300Y-21601052D01*
X6840824Y-21553433D01*
X6840824Y-21515338D01*
X6831300Y-21467719D01*
X6821776Y-21439148D01*
X6812252Y-21420100D01*
X6793205Y-21391529D01*
X6783681Y-21382005D01*
D10*
X1671300Y-21709100D02*
X1821300Y-21859100D01*
X1821300Y-21709100D02*
X1671300Y-21859100D01*
X1746300Y-21859100D02*
X1821300Y-21784100D01*
X1746300Y-21709100D01*
X1671300Y-21784100D01*
X1746300Y-21859100D01*
D11*
X2183681Y-21874576D02*
X2069395Y-21874576D01*
X2126538Y-21874576D02*
X2126538Y-21674576D01*
X2107490Y-21703148D01*
X2088443Y-21722195D01*
X2069395Y-21731719D01*
X2269395Y-21855529D02*
X2278919Y-21865052D01*
X2269395Y-21874576D01*
X2259871Y-21865052D01*
X2269395Y-21855529D01*
X2269395Y-21874576D01*
X2459871Y-21674576D02*
X2364633Y-21674576D01*
X2355110Y-21769814D01*
X2364633Y-21760290D01*
X2383681Y-21750767D01*
X2431300Y-21750767D01*
X2450348Y-21760290D01*
X2459871Y-21769814D01*
X2469395Y-21788862D01*
X2469395Y-21836481D01*
X2459871Y-21855529D01*
X2450348Y-21865052D01*
X2431300Y-21874576D01*
X2383681Y-21874576D01*
X2364633Y-21865052D01*
X2355110Y-21855529D01*
X2593205Y-21674576D02*
X2612252Y-21674576D01*
X2631300Y-21684100D01*
X2640824Y-21693624D01*
X2650348Y-21712671D01*
X2659871Y-21750767D01*
X2659871Y-21798386D01*
X2650348Y-21836481D01*
X2640824Y-21855529D01*
X2631300Y-21865052D01*
X2612252Y-21874576D01*
X2593205Y-21874576D01*
X2574157Y-21865052D01*
X2564633Y-21855529D01*
X2555110Y-21836481D01*
X2545586Y-21798386D01*
X2545586Y-21750767D01*
X2555110Y-21712671D01*
X2564633Y-21693624D01*
X2574157Y-21684100D01*
X2593205Y-21674576D01*
X2783681Y-21674576D02*
X2802728Y-21674576D01*
X2821776Y-21684100D01*
X2831300Y-21693624D01*
X2840824Y-21712671D01*
X2850348Y-21750767D01*
X2850348Y-21798386D01*
X2840824Y-21836481D01*
X2831300Y-21855529D01*
X2821776Y-21865052D01*
X2802728Y-21874576D01*
X2783681Y-21874576D01*
X2764633Y-21865052D01*
X2755110Y-21855529D01*
X2745586Y-21836481D01*
X2736062Y-21798386D01*
X2736062Y-21750767D01*
X2745586Y-21712671D01*
X2755110Y-21693624D01*
X2764633Y-21684100D01*
X2783681Y-21674576D01*
X2936062Y-21874576D02*
X2936062Y-21741243D01*
X2936062Y-21760290D02*
X2945586Y-21750767D01*
X2964633Y-21741243D01*
X2993205Y-21741243D01*
X3012252Y-21750767D01*
X3021776Y-21769814D01*
X3021776Y-21874576D01*
X3021776Y-21769814D02*
X3031300Y-21750767D01*
X3050348Y-21741243D01*
X3078919Y-21741243D01*
X3097967Y-21750767D01*
X3107490Y-21769814D01*
X3107490Y-21874576D01*
X3202728Y-21874576D02*
X3202728Y-21741243D01*
X3202728Y-21760290D02*
X3212252Y-21750767D01*
X3231300Y-21741243D01*
X3259871Y-21741243D01*
X3278919Y-21750767D01*
X3288443Y-21769814D01*
X3288443Y-21874576D01*
X3288443Y-21769814D02*
X3297967Y-21750767D01*
X3317014Y-21741243D01*
X3345586Y-21741243D01*
X3364633Y-21750767D01*
X3374157Y-21769814D01*
X3374157Y-21874576D01*
X3764633Y-21665052D02*
X3593205Y-21922195D01*
X4021776Y-21674576D02*
X4040824Y-21674576D01*
X4059871Y-21684100D01*
X4069395Y-21693624D01*
X4078919Y-21712671D01*
X4088443Y-21750767D01*
X4088443Y-21798386D01*
X4078919Y-21836481D01*
X4069395Y-21855529D01*
X4059871Y-21865052D01*
X4040824Y-21874576D01*
X4021776Y-21874576D01*
X4002728Y-21865052D01*
X3993205Y-21855529D01*
X3983681Y-21836481D01*
X3974157Y-21798386D01*
X3974157Y-21750767D01*
X3983681Y-21712671D01*
X3993205Y-21693624D01*
X4002728Y-21684100D01*
X4021776Y-21674576D01*
X4174157Y-21855529D02*
X4183681Y-21865052D01*
X4174157Y-21874576D01*
X4164633Y-21865052D01*
X4174157Y-21855529D01*
X4174157Y-21874576D01*
X4307490Y-21674576D02*
X4326538Y-21674576D01*
X4345586Y-21684100D01*
X4355110Y-21693624D01*
X4364633Y-21712671D01*
X4374157Y-21750767D01*
X4374157Y-21798386D01*
X4364633Y-21836481D01*
X4355110Y-21855529D01*
X4345586Y-21865052D01*
X4326538Y-21874576D01*
X4307490Y-21874576D01*
X4288443Y-21865052D01*
X4278919Y-21855529D01*
X4269395Y-21836481D01*
X4259871Y-21798386D01*
X4259871Y-21750767D01*
X4269395Y-21712671D01*
X4278919Y-21693624D01*
X4288443Y-21684100D01*
X4307490Y-21674576D01*
X4555110Y-21674576D02*
X4459871Y-21674576D01*
X4450348Y-21769814D01*
X4459871Y-21760290D01*
X4478919Y-21750767D01*
X4526538Y-21750767D01*
X4545586Y-21760290D01*
X4555110Y-21769814D01*
X4564633Y-21788862D01*
X4564633Y-21836481D01*
X4555110Y-21855529D01*
X4545586Y-21865052D01*
X4526538Y-21874576D01*
X4478919Y-21874576D01*
X4459871Y-21865052D01*
X4450348Y-21855529D01*
X4659871Y-21874576D02*
X4697967Y-21874576D01*
X4717014Y-21865052D01*
X4726538Y-21855529D01*
X4745586Y-21826957D01*
X4755110Y-21788862D01*
X4755110Y-21712671D01*
X4745586Y-21693624D01*
X4736062Y-21684100D01*
X4717014Y-21674576D01*
X4678919Y-21674576D01*
X4659871Y-21684100D01*
X4650348Y-21693624D01*
X4640824Y-21712671D01*
X4640824Y-21760290D01*
X4650348Y-21779338D01*
X4659871Y-21788862D01*
X4678919Y-21798386D01*
X4717014Y-21798386D01*
X4736062Y-21788862D01*
X4745586Y-21779338D01*
X4755110Y-21760290D01*
X4945586Y-21874576D02*
X4831300Y-21874576D01*
X4888443Y-21874576D02*
X4888443Y-21674576D01*
X4869395Y-21703148D01*
X4850348Y-21722195D01*
X4831300Y-21731719D01*
X5021776Y-21674576D02*
X5021776Y-21712671D01*
X5097967Y-21674576D02*
X5097967Y-21712671D01*
X5393205Y-21950767D02*
X5383681Y-21941243D01*
X5364633Y-21912671D01*
X5355110Y-21893624D01*
X5345586Y-21865052D01*
X5336062Y-21817433D01*
X5336062Y-21779338D01*
X5345586Y-21731719D01*
X5355110Y-21703148D01*
X5364633Y-21684100D01*
X5383681Y-21655529D01*
X5393205Y-21646005D01*
X5450348Y-21674576D02*
X5574157Y-21674576D01*
X5507490Y-21750767D01*
X5536062Y-21750767D01*
X5555110Y-21760290D01*
X5564633Y-21769814D01*
X5574157Y-21788862D01*
X5574157Y-21836481D01*
X5564633Y-21855529D01*
X5555110Y-21865052D01*
X5536062Y-21874576D01*
X5478919Y-21874576D01*
X5459871Y-21865052D01*
X5450348Y-21855529D01*
X5812252Y-21874576D02*
X5812252Y-21674576D01*
X5897967Y-21874576D02*
X5897967Y-21769814D01*
X5888443Y-21750767D01*
X5869395Y-21741243D01*
X5840824Y-21741243D01*
X5821776Y-21750767D01*
X5812252Y-21760290D01*
X6021776Y-21874576D02*
X6002728Y-21865052D01*
X5993205Y-21855529D01*
X5983681Y-21836481D01*
X5983681Y-21779338D01*
X5993205Y-21760290D01*
X6002728Y-21750767D01*
X6021776Y-21741243D01*
X6050348Y-21741243D01*
X6069395Y-21750767D01*
X6078919Y-21760290D01*
X6088443Y-21779338D01*
X6088443Y-21836481D01*
X6078919Y-21855529D01*
X6069395Y-21865052D01*
X6050348Y-21874576D01*
X6021776Y-21874576D01*
X6202728Y-21874576D02*
X6183681Y-21865052D01*
X6174157Y-21846005D01*
X6174157Y-21674576D01*
X6355109Y-21865052D02*
X6336062Y-21874576D01*
X6297967Y-21874576D01*
X6278919Y-21865052D01*
X6269395Y-21846005D01*
X6269395Y-21769814D01*
X6278919Y-21750767D01*
X6297967Y-21741243D01*
X6336062Y-21741243D01*
X6355109Y-21750767D01*
X6364633Y-21769814D01*
X6364633Y-21788862D01*
X6269395Y-21807910D01*
X6440824Y-21865052D02*
X6459871Y-21874576D01*
X6497967Y-21874576D01*
X6517014Y-21865052D01*
X6526538Y-21846005D01*
X6526538Y-21836481D01*
X6517014Y-21817433D01*
X6497967Y-21807910D01*
X6469395Y-21807910D01*
X6450348Y-21798386D01*
X6440824Y-21779338D01*
X6440824Y-21769814D01*
X6450348Y-21750767D01*
X6469395Y-21741243D01*
X6497967Y-21741243D01*
X6517014Y-21750767D01*
X6593205Y-21950767D02*
X6602728Y-21941243D01*
X6621776Y-21912671D01*
X6631300Y-21893624D01*
X6640824Y-21865052D01*
X6650348Y-21817433D01*
X6650348Y-21779338D01*
X6640824Y-21731719D01*
X6631300Y-21703148D01*
X6621776Y-21684100D01*
X6602728Y-21655529D01*
X6593205Y-21646005D01*
D20*
X1736300Y-21969100D02*
X1736300Y-22139100D01*
X1651300Y-22054100D02*
X1821300Y-22054100D01*
X1821300Y-22054100D02*
G75*
G03*
X1821300Y-22054100I-85000J0D01*
G01*
D11*
X2183681Y-22144576D02*
X2069395Y-22144576D01*
X2126538Y-22144576D02*
X2126538Y-21944576D01*
X2107490Y-21973148D01*
X2088443Y-21992195D01*
X2069395Y-22001719D01*
X2269395Y-22125529D02*
X2278919Y-22135052D01*
X2269395Y-22144576D01*
X2259871Y-22135052D01*
X2269395Y-22125529D01*
X2269395Y-22144576D01*
X2345586Y-21944576D02*
X2478919Y-21944576D01*
X2393205Y-22144576D01*
X2593205Y-21944576D02*
X2612252Y-21944576D01*
X2631300Y-21954100D01*
X2640824Y-21963624D01*
X2650348Y-21982671D01*
X2659871Y-22020767D01*
X2659871Y-22068386D01*
X2650348Y-22106481D01*
X2640824Y-22125529D01*
X2631300Y-22135052D01*
X2612252Y-22144576D01*
X2593205Y-22144576D01*
X2574157Y-22135052D01*
X2564633Y-22125529D01*
X2555110Y-22106481D01*
X2545586Y-22068386D01*
X2545586Y-22020767D01*
X2555110Y-21982671D01*
X2564633Y-21963624D01*
X2574157Y-21954100D01*
X2593205Y-21944576D01*
X2783681Y-21944576D02*
X2802728Y-21944576D01*
X2821776Y-21954100D01*
X2831300Y-21963624D01*
X2840824Y-21982671D01*
X2850348Y-22020767D01*
X2850348Y-22068386D01*
X2840824Y-22106481D01*
X2831300Y-22125529D01*
X2821776Y-22135052D01*
X2802728Y-22144576D01*
X2783681Y-22144576D01*
X2764633Y-22135052D01*
X2755110Y-22125529D01*
X2745586Y-22106481D01*
X2736062Y-22068386D01*
X2736062Y-22020767D01*
X2745586Y-21982671D01*
X2755110Y-21963624D01*
X2764633Y-21954100D01*
X2783681Y-21944576D01*
X2936062Y-22144576D02*
X2936062Y-22011243D01*
X2936062Y-22030290D02*
X2945586Y-22020767D01*
X2964633Y-22011243D01*
X2993205Y-22011243D01*
X3012252Y-22020767D01*
X3021776Y-22039814D01*
X3021776Y-22144576D01*
X3021776Y-22039814D02*
X3031300Y-22020767D01*
X3050348Y-22011243D01*
X3078919Y-22011243D01*
X3097967Y-22020767D01*
X3107490Y-22039814D01*
X3107490Y-22144576D01*
X3202728Y-22144576D02*
X3202728Y-22011243D01*
X3202728Y-22030290D02*
X3212252Y-22020767D01*
X3231300Y-22011243D01*
X3259871Y-22011243D01*
X3278919Y-22020767D01*
X3288443Y-22039814D01*
X3288443Y-22144576D01*
X3288443Y-22039814D02*
X3297967Y-22020767D01*
X3317014Y-22011243D01*
X3345586Y-22011243D01*
X3364633Y-22020767D01*
X3374157Y-22039814D01*
X3374157Y-22144576D01*
X3764633Y-21935052D02*
X3593205Y-22192195D01*
X4021776Y-21944576D02*
X4040824Y-21944576D01*
X4059871Y-21954100D01*
X4069395Y-21963624D01*
X4078919Y-21982671D01*
X4088443Y-22020767D01*
X4088443Y-22068386D01*
X4078919Y-22106481D01*
X4069395Y-22125529D01*
X4059871Y-22135052D01*
X4040824Y-22144576D01*
X4021776Y-22144576D01*
X4002728Y-22135052D01*
X3993205Y-22125529D01*
X3983681Y-22106481D01*
X3974157Y-22068386D01*
X3974157Y-22020767D01*
X3983681Y-21982671D01*
X3993205Y-21963624D01*
X4002728Y-21954100D01*
X4021776Y-21944576D01*
X4174157Y-22125529D02*
X4183681Y-22135052D01*
X4174157Y-22144576D01*
X4164633Y-22135052D01*
X4174157Y-22125529D01*
X4174157Y-22144576D01*
X4307490Y-21944576D02*
X4326538Y-21944576D01*
X4345586Y-21954100D01*
X4355110Y-21963624D01*
X4364633Y-21982671D01*
X4374157Y-22020767D01*
X4374157Y-22068386D01*
X4364633Y-22106481D01*
X4355110Y-22125529D01*
X4345586Y-22135052D01*
X4326538Y-22144576D01*
X4307490Y-22144576D01*
X4288443Y-22135052D01*
X4278919Y-22125529D01*
X4269395Y-22106481D01*
X4259871Y-22068386D01*
X4259871Y-22020767D01*
X4269395Y-21982671D01*
X4278919Y-21963624D01*
X4288443Y-21954100D01*
X4307490Y-21944576D01*
X4545586Y-21944576D02*
X4507490Y-21944576D01*
X4488443Y-21954100D01*
X4478919Y-21963624D01*
X4459871Y-21992195D01*
X4450348Y-22030290D01*
X4450348Y-22106481D01*
X4459871Y-22125529D01*
X4469395Y-22135052D01*
X4488443Y-22144576D01*
X4526538Y-22144576D01*
X4545586Y-22135052D01*
X4555110Y-22125529D01*
X4564633Y-22106481D01*
X4564633Y-22058862D01*
X4555110Y-22039814D01*
X4545586Y-22030290D01*
X4526538Y-22020767D01*
X4488443Y-22020767D01*
X4469395Y-22030290D01*
X4459871Y-22039814D01*
X4450348Y-22058862D01*
X4736062Y-21944576D02*
X4697967Y-21944576D01*
X4678919Y-21954100D01*
X4669395Y-21963624D01*
X4650348Y-21992195D01*
X4640824Y-22030290D01*
X4640824Y-22106481D01*
X4650348Y-22125529D01*
X4659871Y-22135052D01*
X4678919Y-22144576D01*
X4717014Y-22144576D01*
X4736062Y-22135052D01*
X4745586Y-22125529D01*
X4755110Y-22106481D01*
X4755110Y-22058862D01*
X4745586Y-22039814D01*
X4736062Y-22030290D01*
X4717014Y-22020767D01*
X4678919Y-22020767D01*
X4659871Y-22030290D01*
X4650348Y-22039814D01*
X4640824Y-22058862D01*
X4850348Y-22144576D02*
X4888443Y-22144576D01*
X4907490Y-22135052D01*
X4917014Y-22125529D01*
X4936062Y-22096957D01*
X4945586Y-22058862D01*
X4945586Y-21982671D01*
X4936062Y-21963624D01*
X4926538Y-21954100D01*
X4907490Y-21944576D01*
X4869395Y-21944576D01*
X4850348Y-21954100D01*
X4840824Y-21963624D01*
X4831300Y-21982671D01*
X4831300Y-22030290D01*
X4840824Y-22049338D01*
X4850348Y-22058862D01*
X4869395Y-22068386D01*
X4907490Y-22068386D01*
X4926538Y-22058862D01*
X4936062Y-22049338D01*
X4945586Y-22030290D01*
X5021776Y-21944576D02*
X5021776Y-21982671D01*
X5097967Y-21944576D02*
X5097967Y-21982671D01*
X5393205Y-22220767D02*
X5383681Y-22211243D01*
X5364633Y-22182671D01*
X5355110Y-22163624D01*
X5345586Y-22135052D01*
X5336062Y-22087433D01*
X5336062Y-22049338D01*
X5345586Y-22001719D01*
X5355110Y-21973148D01*
X5364633Y-21954100D01*
X5383681Y-21925529D01*
X5393205Y-21916005D01*
X5574157Y-22144576D02*
X5459871Y-22144576D01*
X5517014Y-22144576D02*
X5517014Y-21944576D01*
X5497967Y-21973148D01*
X5478919Y-21992195D01*
X5459871Y-22001719D01*
X5650348Y-21963624D02*
X5659871Y-21954100D01*
X5678919Y-21944576D01*
X5726538Y-21944576D01*
X5745586Y-21954100D01*
X5755109Y-21963624D01*
X5764633Y-21982671D01*
X5764633Y-22001719D01*
X5755109Y-22030290D01*
X5640824Y-22144576D01*
X5764633Y-22144576D01*
X6002728Y-22144576D02*
X6002728Y-21944576D01*
X6088443Y-22144576D02*
X6088443Y-22039814D01*
X6078919Y-22020767D01*
X6059871Y-22011243D01*
X6031300Y-22011243D01*
X6012252Y-22020767D01*
X6002728Y-22030290D01*
X6212252Y-22144576D02*
X6193205Y-22135052D01*
X6183681Y-22125529D01*
X6174157Y-22106481D01*
X6174157Y-22049338D01*
X6183681Y-22030290D01*
X6193205Y-22020767D01*
X6212252Y-22011243D01*
X6240824Y-22011243D01*
X6259871Y-22020767D01*
X6269395Y-22030290D01*
X6278919Y-22049338D01*
X6278919Y-22106481D01*
X6269395Y-22125529D01*
X6259871Y-22135052D01*
X6240824Y-22144576D01*
X6212252Y-22144576D01*
X6393205Y-22144576D02*
X6374157Y-22135052D01*
X6364633Y-22116005D01*
X6364633Y-21944576D01*
X6545586Y-22135052D02*
X6526538Y-22144576D01*
X6488443Y-22144576D01*
X6469395Y-22135052D01*
X6459871Y-22116005D01*
X6459871Y-22039814D01*
X6469395Y-22020767D01*
X6488443Y-22011243D01*
X6526538Y-22011243D01*
X6545586Y-22020767D01*
X6555109Y-22039814D01*
X6555109Y-22058862D01*
X6459871Y-22077910D01*
X6631300Y-22135052D02*
X6650348Y-22144576D01*
X6688443Y-22144576D01*
X6707490Y-22135052D01*
X6717014Y-22116005D01*
X6717014Y-22106481D01*
X6707490Y-22087433D01*
X6688443Y-22077910D01*
X6659871Y-22077910D01*
X6640824Y-22068386D01*
X6631300Y-22049338D01*
X6631300Y-22039814D01*
X6640824Y-22020767D01*
X6659871Y-22011243D01*
X6688443Y-22011243D01*
X6707490Y-22020767D01*
X6783681Y-22220767D02*
X6793205Y-22211243D01*
X6812252Y-22182671D01*
X6821776Y-22163624D01*
X6831300Y-22135052D01*
X6840824Y-22087433D01*
X6840824Y-22049338D01*
X6831300Y-22001719D01*
X6821776Y-21973148D01*
X6812252Y-21954100D01*
X6793205Y-21925529D01*
X6783681Y-21916005D01*
M02*
