%TF.GenerationSoftware,KiCad,Pcbnew,(6.0.7)*%
%TF.CreationDate,2023-04-27T19:06:35-04:00*%
%TF.ProjectId,sMeter Daughter Board v1,734d6574-6572-4204-9461-756768746572,rev?*%
%TF.SameCoordinates,Original*%
%TF.FileFunction,Legend,Top*%
%TF.FilePolarity,Positive*%
%FSLAX46Y46*%
G04 Gerber Fmt 4.6, Leading zero omitted, Abs format (unit mm)*
G04 Created by KiCad (PCBNEW (6.0.7)) date 2023-04-27 19:06:35*
%MOMM*%
%LPD*%
G01*
G04 APERTURE LIST*
%ADD10C,0.150000*%
%ADD11C,0.120000*%
G04 APERTURE END LIST*
D10*
%TO.C,R5*%
X104442380Y-100716666D02*
X103966190Y-101050000D01*
X104442380Y-101288095D02*
X103442380Y-101288095D01*
X103442380Y-100907142D01*
X103490000Y-100811904D01*
X103537619Y-100764285D01*
X103632857Y-100716666D01*
X103775714Y-100716666D01*
X103870952Y-100764285D01*
X103918571Y-100811904D01*
X103966190Y-100907142D01*
X103966190Y-101288095D01*
X103442380Y-99811904D02*
X103442380Y-100288095D01*
X103918571Y-100335714D01*
X103870952Y-100288095D01*
X103823333Y-100192857D01*
X103823333Y-99954761D01*
X103870952Y-99859523D01*
X103918571Y-99811904D01*
X104013809Y-99764285D01*
X104251904Y-99764285D01*
X104347142Y-99811904D01*
X104394761Y-99859523D01*
X104442380Y-99954761D01*
X104442380Y-100192857D01*
X104394761Y-100288095D01*
X104347142Y-100335714D01*
X104897619Y-101468095D02*
X104850000Y-101420476D01*
X104802380Y-101325238D01*
X104802380Y-101087142D01*
X104850000Y-100991904D01*
X104897619Y-100944285D01*
X104992857Y-100896666D01*
X105088095Y-100896666D01*
X105230952Y-100944285D01*
X105802380Y-101515714D01*
X105802380Y-100896666D01*
X104897619Y-100515714D02*
X104850000Y-100468095D01*
X104802380Y-100372857D01*
X104802380Y-100134761D01*
X104850000Y-100039523D01*
X104897619Y-99991904D01*
X104992857Y-99944285D01*
X105088095Y-99944285D01*
X105230952Y-99991904D01*
X105802380Y-100563333D01*
X105802380Y-99944285D01*
X104802380Y-99325238D02*
X104802380Y-99230000D01*
X104850000Y-99134761D01*
X104897619Y-99087142D01*
X104992857Y-99039523D01*
X105183333Y-98991904D01*
X105421428Y-98991904D01*
X105611904Y-99039523D01*
X105707142Y-99087142D01*
X105754761Y-99134761D01*
X105802380Y-99230000D01*
X105802380Y-99325238D01*
X105754761Y-99420476D01*
X105707142Y-99468095D01*
X105611904Y-99515714D01*
X105421428Y-99563333D01*
X105183333Y-99563333D01*
X104992857Y-99515714D01*
X104897619Y-99468095D01*
X104850000Y-99420476D01*
X104802380Y-99325238D01*
X105802380Y-97991904D02*
X105326190Y-98325238D01*
X105802380Y-98563333D02*
X104802380Y-98563333D01*
X104802380Y-98182380D01*
X104850000Y-98087142D01*
X104897619Y-98039523D01*
X104992857Y-97991904D01*
X105135714Y-97991904D01*
X105230952Y-98039523D01*
X105278571Y-98087142D01*
X105326190Y-98182380D01*
X105326190Y-98563333D01*
%TO.C,D1*%
X110682380Y-103308095D02*
X109682380Y-103308095D01*
X109682380Y-103070000D01*
X109730000Y-102927142D01*
X109825238Y-102831904D01*
X109920476Y-102784285D01*
X110110952Y-102736666D01*
X110253809Y-102736666D01*
X110444285Y-102784285D01*
X110539523Y-102831904D01*
X110634761Y-102927142D01*
X110682380Y-103070000D01*
X110682380Y-103308095D01*
X110682380Y-101784285D02*
X110682380Y-102355714D01*
X110682380Y-102070000D02*
X109682380Y-102070000D01*
X109825238Y-102165238D01*
X109920476Y-102260476D01*
X109968095Y-102355714D01*
X110742380Y-109216666D02*
X110742380Y-109788095D01*
X110742380Y-109502380D02*
X109742380Y-109502380D01*
X109885238Y-109597619D01*
X109980476Y-109692857D01*
X110028095Y-109788095D01*
X110742380Y-108788095D02*
X109742380Y-108788095D01*
X110742380Y-108216666D01*
X109742380Y-108216666D01*
X110742380Y-107692857D02*
X110742380Y-107502380D01*
X110694761Y-107407142D01*
X110647142Y-107359523D01*
X110504285Y-107264285D01*
X110313809Y-107216666D01*
X109932857Y-107216666D01*
X109837619Y-107264285D01*
X109790000Y-107311904D01*
X109742380Y-107407142D01*
X109742380Y-107597619D01*
X109790000Y-107692857D01*
X109837619Y-107740476D01*
X109932857Y-107788095D01*
X110170952Y-107788095D01*
X110266190Y-107740476D01*
X110313809Y-107692857D01*
X110361428Y-107597619D01*
X110361428Y-107407142D01*
X110313809Y-107311904D01*
X110266190Y-107264285D01*
X110170952Y-107216666D01*
X110742380Y-106264285D02*
X110742380Y-106835714D01*
X110742380Y-106550000D02*
X109742380Y-106550000D01*
X109885238Y-106645238D01*
X109980476Y-106740476D01*
X110028095Y-106835714D01*
X110075714Y-105407142D02*
X110742380Y-105407142D01*
X109694761Y-105645238D02*
X110409047Y-105883333D01*
X110409047Y-105264285D01*
%TO.C,R4*%
X79208333Y-109164380D02*
X78875000Y-108688190D01*
X78636904Y-109164380D02*
X78636904Y-108164380D01*
X79017857Y-108164380D01*
X79113095Y-108212000D01*
X79160714Y-108259619D01*
X79208333Y-108354857D01*
X79208333Y-108497714D01*
X79160714Y-108592952D01*
X79113095Y-108640571D01*
X79017857Y-108688190D01*
X78636904Y-108688190D01*
X80065476Y-108497714D02*
X80065476Y-109164380D01*
X79827380Y-108116761D02*
X79589285Y-108831047D01*
X80208333Y-108831047D01*
X76684404Y-109529619D02*
X76732023Y-109482000D01*
X76827261Y-109434380D01*
X77065357Y-109434380D01*
X77160595Y-109482000D01*
X77208214Y-109529619D01*
X77255833Y-109624857D01*
X77255833Y-109720095D01*
X77208214Y-109862952D01*
X76636785Y-110434380D01*
X77255833Y-110434380D01*
X77874880Y-109434380D02*
X77970119Y-109434380D01*
X78065357Y-109482000D01*
X78112976Y-109529619D01*
X78160595Y-109624857D01*
X78208214Y-109815333D01*
X78208214Y-110053428D01*
X78160595Y-110243904D01*
X78112976Y-110339142D01*
X78065357Y-110386761D01*
X77970119Y-110434380D01*
X77874880Y-110434380D01*
X77779642Y-110386761D01*
X77732023Y-110339142D01*
X77684404Y-110243904D01*
X77636785Y-110053428D01*
X77636785Y-109815333D01*
X77684404Y-109624857D01*
X77732023Y-109529619D01*
X77779642Y-109482000D01*
X77874880Y-109434380D01*
X78827261Y-109434380D02*
X78922500Y-109434380D01*
X79017738Y-109482000D01*
X79065357Y-109529619D01*
X79112976Y-109624857D01*
X79160595Y-109815333D01*
X79160595Y-110053428D01*
X79112976Y-110243904D01*
X79065357Y-110339142D01*
X79017738Y-110386761D01*
X78922500Y-110434380D01*
X78827261Y-110434380D01*
X78732023Y-110386761D01*
X78684404Y-110339142D01*
X78636785Y-110243904D01*
X78589166Y-110053428D01*
X78589166Y-109815333D01*
X78636785Y-109624857D01*
X78684404Y-109529619D01*
X78732023Y-109482000D01*
X78827261Y-109434380D01*
X80160595Y-110434380D02*
X79827261Y-109958190D01*
X79589166Y-110434380D02*
X79589166Y-109434380D01*
X79970119Y-109434380D01*
X80065357Y-109482000D01*
X80112976Y-109529619D01*
X80160595Y-109624857D01*
X80160595Y-109767714D01*
X80112976Y-109862952D01*
X80065357Y-109910571D01*
X79970119Y-109958190D01*
X79589166Y-109958190D01*
%TO.C,J2*%
X113376666Y-114112380D02*
X113376666Y-114826666D01*
X113329047Y-114969523D01*
X113233809Y-115064761D01*
X113090952Y-115112380D01*
X112995714Y-115112380D01*
X113805238Y-114207619D02*
X113852857Y-114160000D01*
X113948095Y-114112380D01*
X114186190Y-114112380D01*
X114281428Y-114160000D01*
X114329047Y-114207619D01*
X114376666Y-114302857D01*
X114376666Y-114398095D01*
X114329047Y-114540952D01*
X113757619Y-115112380D01*
X114376666Y-115112380D01*
X109495238Y-122974761D02*
X109638095Y-123022380D01*
X109876190Y-123022380D01*
X109971428Y-122974761D01*
X110019047Y-122927142D01*
X110066666Y-122831904D01*
X110066666Y-122736666D01*
X110019047Y-122641428D01*
X109971428Y-122593809D01*
X109876190Y-122546190D01*
X109685714Y-122498571D01*
X109590476Y-122450952D01*
X109542857Y-122403333D01*
X109495238Y-122308095D01*
X109495238Y-122212857D01*
X109542857Y-122117619D01*
X109590476Y-122070000D01*
X109685714Y-122022380D01*
X109923809Y-122022380D01*
X110066666Y-122070000D01*
X110495238Y-123022380D02*
X110495238Y-122355714D01*
X110495238Y-122450952D02*
X110542857Y-122403333D01*
X110638095Y-122355714D01*
X110780952Y-122355714D01*
X110876190Y-122403333D01*
X110923809Y-122498571D01*
X110923809Y-123022380D01*
X110923809Y-122498571D02*
X110971428Y-122403333D01*
X111066666Y-122355714D01*
X111209523Y-122355714D01*
X111304761Y-122403333D01*
X111352380Y-122498571D01*
X111352380Y-123022380D01*
X112209523Y-122974761D02*
X112114285Y-123022380D01*
X111923809Y-123022380D01*
X111828571Y-122974761D01*
X111780952Y-122879523D01*
X111780952Y-122498571D01*
X111828571Y-122403333D01*
X111923809Y-122355714D01*
X112114285Y-122355714D01*
X112209523Y-122403333D01*
X112257142Y-122498571D01*
X112257142Y-122593809D01*
X111780952Y-122689047D01*
X112542857Y-122355714D02*
X112923809Y-122355714D01*
X112685714Y-122022380D02*
X112685714Y-122879523D01*
X112733333Y-122974761D01*
X112828571Y-123022380D01*
X112923809Y-123022380D01*
X113638095Y-122974761D02*
X113542857Y-123022380D01*
X113352380Y-123022380D01*
X113257142Y-122974761D01*
X113209523Y-122879523D01*
X113209523Y-122498571D01*
X113257142Y-122403333D01*
X113352380Y-122355714D01*
X113542857Y-122355714D01*
X113638095Y-122403333D01*
X113685714Y-122498571D01*
X113685714Y-122593809D01*
X113209523Y-122689047D01*
X114114285Y-123022380D02*
X114114285Y-122355714D01*
X114114285Y-122546190D02*
X114161904Y-122450952D01*
X114209523Y-122403333D01*
X114304761Y-122355714D01*
X114400000Y-122355714D01*
%TO.C,R1*%
X101323333Y-121512380D02*
X100990000Y-121036190D01*
X100751904Y-121512380D02*
X100751904Y-120512380D01*
X101132857Y-120512380D01*
X101228095Y-120560000D01*
X101275714Y-120607619D01*
X101323333Y-120702857D01*
X101323333Y-120845714D01*
X101275714Y-120940952D01*
X101228095Y-120988571D01*
X101132857Y-121036190D01*
X100751904Y-121036190D01*
X102275714Y-121512380D02*
X101704285Y-121512380D01*
X101990000Y-121512380D02*
X101990000Y-120512380D01*
X101894761Y-120655238D01*
X101799523Y-120750476D01*
X101704285Y-120798095D01*
X102860000Y-120647619D02*
X102907619Y-120600000D01*
X103002857Y-120552380D01*
X103240952Y-120552380D01*
X103336190Y-120600000D01*
X103383809Y-120647619D01*
X103431428Y-120742857D01*
X103431428Y-120838095D01*
X103383809Y-120980952D01*
X102812380Y-121552380D01*
X103431428Y-121552380D01*
X103860000Y-121457142D02*
X103907619Y-121504761D01*
X103860000Y-121552380D01*
X103812380Y-121504761D01*
X103860000Y-121457142D01*
X103860000Y-121552380D01*
X104288571Y-120647619D02*
X104336190Y-120600000D01*
X104431428Y-120552380D01*
X104669523Y-120552380D01*
X104764761Y-120600000D01*
X104812380Y-120647619D01*
X104860000Y-120742857D01*
X104860000Y-120838095D01*
X104812380Y-120980952D01*
X104240952Y-121552380D01*
X104860000Y-121552380D01*
X105288571Y-121552380D02*
X105288571Y-120552380D01*
X105860000Y-121552380D02*
X105431428Y-120980952D01*
X105860000Y-120552380D02*
X105288571Y-121123809D01*
%TO.C,C10*%
X87067142Y-116837142D02*
X87019523Y-116884761D01*
X86876666Y-116932380D01*
X86781428Y-116932380D01*
X86638571Y-116884761D01*
X86543333Y-116789523D01*
X86495714Y-116694285D01*
X86448095Y-116503809D01*
X86448095Y-116360952D01*
X86495714Y-116170476D01*
X86543333Y-116075238D01*
X86638571Y-115980000D01*
X86781428Y-115932380D01*
X86876666Y-115932380D01*
X87019523Y-115980000D01*
X87067142Y-116027619D01*
X88019523Y-116932380D02*
X87448095Y-116932380D01*
X87733809Y-116932380D02*
X87733809Y-115932380D01*
X87638571Y-116075238D01*
X87543333Y-116170476D01*
X87448095Y-116218095D01*
X88638571Y-115932380D02*
X88733809Y-115932380D01*
X88829047Y-115980000D01*
X88876666Y-116027619D01*
X88924285Y-116122857D01*
X88971904Y-116313333D01*
X88971904Y-116551428D01*
X88924285Y-116741904D01*
X88876666Y-116837142D01*
X88829047Y-116884761D01*
X88733809Y-116932380D01*
X88638571Y-116932380D01*
X88543333Y-116884761D01*
X88495714Y-116837142D01*
X88448095Y-116741904D01*
X88400476Y-116551428D01*
X88400476Y-116313333D01*
X88448095Y-116122857D01*
X88495714Y-116027619D01*
X88543333Y-115980000D01*
X88638571Y-115932380D01*
X85582380Y-121899047D02*
X85582380Y-122470476D01*
X85582380Y-122184761D02*
X84582380Y-122184761D01*
X84725238Y-122280000D01*
X84820476Y-122375238D01*
X84868095Y-122470476D01*
X84582380Y-121280000D02*
X84582380Y-121184761D01*
X84630000Y-121089523D01*
X84677619Y-121041904D01*
X84772857Y-120994285D01*
X84963333Y-120946666D01*
X85201428Y-120946666D01*
X85391904Y-120994285D01*
X85487142Y-121041904D01*
X85534761Y-121089523D01*
X85582380Y-121184761D01*
X85582380Y-121280000D01*
X85534761Y-121375238D01*
X85487142Y-121422857D01*
X85391904Y-121470476D01*
X85201428Y-121518095D01*
X84963333Y-121518095D01*
X84772857Y-121470476D01*
X84677619Y-121422857D01*
X84630000Y-121375238D01*
X84582380Y-121280000D01*
X84582380Y-120327619D02*
X84582380Y-120232380D01*
X84630000Y-120137142D01*
X84677619Y-120089523D01*
X84772857Y-120041904D01*
X84963333Y-119994285D01*
X85201428Y-119994285D01*
X85391904Y-120041904D01*
X85487142Y-120089523D01*
X85534761Y-120137142D01*
X85582380Y-120232380D01*
X85582380Y-120327619D01*
X85534761Y-120422857D01*
X85487142Y-120470476D01*
X85391904Y-120518095D01*
X85201428Y-120565714D01*
X84963333Y-120565714D01*
X84772857Y-120518095D01*
X84677619Y-120470476D01*
X84630000Y-120422857D01*
X84582380Y-120327619D01*
X84915714Y-119565714D02*
X85582380Y-119565714D01*
X85010952Y-119565714D02*
X84963333Y-119518095D01*
X84915714Y-119422857D01*
X84915714Y-119280000D01*
X84963333Y-119184761D01*
X85058571Y-119137142D01*
X85582380Y-119137142D01*
%TO.C,C3*%
X104683333Y-111567142D02*
X104635714Y-111614761D01*
X104492857Y-111662380D01*
X104397619Y-111662380D01*
X104254761Y-111614761D01*
X104159523Y-111519523D01*
X104111904Y-111424285D01*
X104064285Y-111233809D01*
X104064285Y-111090952D01*
X104111904Y-110900476D01*
X104159523Y-110805238D01*
X104254761Y-110710000D01*
X104397619Y-110662380D01*
X104492857Y-110662380D01*
X104635714Y-110710000D01*
X104683333Y-110757619D01*
X105016666Y-110662380D02*
X105635714Y-110662380D01*
X105302380Y-111043333D01*
X105445238Y-111043333D01*
X105540476Y-111090952D01*
X105588095Y-111138571D01*
X105635714Y-111233809D01*
X105635714Y-111471904D01*
X105588095Y-111567142D01*
X105540476Y-111614761D01*
X105445238Y-111662380D01*
X105159523Y-111662380D01*
X105064285Y-111614761D01*
X105016666Y-111567142D01*
X106477142Y-119914761D02*
X106524761Y-119867142D01*
X106572380Y-119914761D01*
X106524761Y-119962380D01*
X106477142Y-119914761D01*
X106572380Y-119914761D01*
X105667619Y-119486190D02*
X105620000Y-119438571D01*
X105572380Y-119343333D01*
X105572380Y-119105238D01*
X105620000Y-119010000D01*
X105667619Y-118962380D01*
X105762857Y-118914761D01*
X105858095Y-118914761D01*
X106000952Y-118962380D01*
X106572380Y-119533809D01*
X106572380Y-118914761D01*
X105667619Y-118533809D02*
X105620000Y-118486190D01*
X105572380Y-118390952D01*
X105572380Y-118152857D01*
X105620000Y-118057619D01*
X105667619Y-118010000D01*
X105762857Y-117962380D01*
X105858095Y-117962380D01*
X106000952Y-118010000D01*
X106572380Y-118581428D01*
X106572380Y-117962380D01*
X105905714Y-117105238D02*
X106572380Y-117105238D01*
X105905714Y-117533809D02*
X106429523Y-117533809D01*
X106524761Y-117486190D01*
X106572380Y-117390952D01*
X106572380Y-117248095D01*
X106524761Y-117152857D01*
X106477142Y-117105238D01*
%TO.C,C7*%
X101092142Y-100714166D02*
X101139761Y-100761785D01*
X101187380Y-100904642D01*
X101187380Y-100999880D01*
X101139761Y-101142738D01*
X101044523Y-101237976D01*
X100949285Y-101285595D01*
X100758809Y-101333214D01*
X100615952Y-101333214D01*
X100425476Y-101285595D01*
X100330238Y-101237976D01*
X100235000Y-101142738D01*
X100187380Y-100999880D01*
X100187380Y-100904642D01*
X100235000Y-100761785D01*
X100282619Y-100714166D01*
X100187380Y-100380833D02*
X100187380Y-99714166D01*
X101187380Y-100142738D01*
X102457380Y-100745857D02*
X102457380Y-101317285D01*
X102457380Y-101031571D02*
X101457380Y-101031571D01*
X101600238Y-101126809D01*
X101695476Y-101222047D01*
X101743095Y-101317285D01*
X101457380Y-100126809D02*
X101457380Y-100031571D01*
X101505000Y-99936333D01*
X101552619Y-99888714D01*
X101647857Y-99841095D01*
X101838333Y-99793476D01*
X102076428Y-99793476D01*
X102266904Y-99841095D01*
X102362142Y-99888714D01*
X102409761Y-99936333D01*
X102457380Y-100031571D01*
X102457380Y-100126809D01*
X102409761Y-100222047D01*
X102362142Y-100269666D01*
X102266904Y-100317285D01*
X102076428Y-100364904D01*
X101838333Y-100364904D01*
X101647857Y-100317285D01*
X101552619Y-100269666D01*
X101505000Y-100222047D01*
X101457380Y-100126809D01*
X101790714Y-98936333D02*
X102457380Y-98936333D01*
X101790714Y-99364904D02*
X102314523Y-99364904D01*
X102409761Y-99317285D01*
X102457380Y-99222047D01*
X102457380Y-99079190D01*
X102409761Y-98983952D01*
X102362142Y-98936333D01*
%TO.C,C8*%
X97775642Y-100647166D02*
X97823261Y-100694785D01*
X97870880Y-100837642D01*
X97870880Y-100932880D01*
X97823261Y-101075738D01*
X97728023Y-101170976D01*
X97632785Y-101218595D01*
X97442309Y-101266214D01*
X97299452Y-101266214D01*
X97108976Y-101218595D01*
X97013738Y-101170976D01*
X96918500Y-101075738D01*
X96870880Y-100932880D01*
X96870880Y-100837642D01*
X96918500Y-100694785D01*
X96966119Y-100647166D01*
X97299452Y-100075738D02*
X97251833Y-100170976D01*
X97204214Y-100218595D01*
X97108976Y-100266214D01*
X97061357Y-100266214D01*
X96966119Y-100218595D01*
X96918500Y-100170976D01*
X96870880Y-100075738D01*
X96870880Y-99885261D01*
X96918500Y-99790023D01*
X96966119Y-99742404D01*
X97061357Y-99694785D01*
X97108976Y-99694785D01*
X97204214Y-99742404D01*
X97251833Y-99790023D01*
X97299452Y-99885261D01*
X97299452Y-100075738D01*
X97347071Y-100170976D01*
X97394690Y-100218595D01*
X97489928Y-100266214D01*
X97680404Y-100266214D01*
X97775642Y-100218595D01*
X97823261Y-100170976D01*
X97870880Y-100075738D01*
X97870880Y-99885261D01*
X97823261Y-99790023D01*
X97775642Y-99742404D01*
X97680404Y-99694785D01*
X97489928Y-99694785D01*
X97394690Y-99742404D01*
X97347071Y-99790023D01*
X97299452Y-99885261D01*
X99040880Y-100799547D02*
X99040880Y-101370976D01*
X99040880Y-101085261D02*
X98040880Y-101085261D01*
X98183738Y-101180500D01*
X98278976Y-101275738D01*
X98326595Y-101370976D01*
X98040880Y-100180500D02*
X98040880Y-100085261D01*
X98088500Y-99990023D01*
X98136119Y-99942404D01*
X98231357Y-99894785D01*
X98421833Y-99847166D01*
X98659928Y-99847166D01*
X98850404Y-99894785D01*
X98945642Y-99942404D01*
X98993261Y-99990023D01*
X99040880Y-100085261D01*
X99040880Y-100180500D01*
X98993261Y-100275738D01*
X98945642Y-100323357D01*
X98850404Y-100370976D01*
X98659928Y-100418595D01*
X98421833Y-100418595D01*
X98231357Y-100370976D01*
X98136119Y-100323357D01*
X98088500Y-100275738D01*
X98040880Y-100180500D01*
X98040880Y-99228119D02*
X98040880Y-99132880D01*
X98088500Y-99037642D01*
X98136119Y-98990023D01*
X98231357Y-98942404D01*
X98421833Y-98894785D01*
X98659928Y-98894785D01*
X98850404Y-98942404D01*
X98945642Y-98990023D01*
X98993261Y-99037642D01*
X99040880Y-99132880D01*
X99040880Y-99228119D01*
X98993261Y-99323357D01*
X98945642Y-99370976D01*
X98850404Y-99418595D01*
X98659928Y-99466214D01*
X98421833Y-99466214D01*
X98231357Y-99418595D01*
X98136119Y-99370976D01*
X98088500Y-99323357D01*
X98040880Y-99228119D01*
X98374214Y-98466214D02*
X99040880Y-98466214D01*
X98469452Y-98466214D02*
X98421833Y-98418595D01*
X98374214Y-98323357D01*
X98374214Y-98180500D01*
X98421833Y-98085261D01*
X98517071Y-98037642D01*
X99040880Y-98037642D01*
%TO.C,J1*%
X74702380Y-111863333D02*
X75416666Y-111863333D01*
X75559523Y-111910952D01*
X75654761Y-112006190D01*
X75702380Y-112149047D01*
X75702380Y-112244285D01*
X75702380Y-110863333D02*
X75702380Y-111434761D01*
X75702380Y-111149047D02*
X74702380Y-111149047D01*
X74845238Y-111244285D01*
X74940476Y-111339523D01*
X74988095Y-111434761D01*
X75506666Y-115517142D02*
X75506666Y-115040952D01*
X75792380Y-115612380D02*
X74792380Y-115279047D01*
X75792380Y-114945714D01*
X75268571Y-114279047D02*
X75268571Y-114612380D01*
X75792380Y-114612380D02*
X74792380Y-114612380D01*
X74792380Y-114136190D01*
X75792380Y-113755238D02*
X75125714Y-113755238D01*
X74792380Y-113755238D02*
X74840000Y-113802857D01*
X74887619Y-113755238D01*
X74840000Y-113707619D01*
X74792380Y-113755238D01*
X74887619Y-113755238D01*
X75125714Y-113279047D02*
X75792380Y-113279047D01*
X75220952Y-113279047D02*
X75173333Y-113231428D01*
X75125714Y-113136190D01*
X75125714Y-112993333D01*
X75173333Y-112898095D01*
X75268571Y-112850476D01*
X75792380Y-112850476D01*
%TO.C,U1*%
X90868595Y-105433880D02*
X90868595Y-106243404D01*
X90916214Y-106338642D01*
X90963833Y-106386261D01*
X91059071Y-106433880D01*
X91249547Y-106433880D01*
X91344785Y-106386261D01*
X91392404Y-106338642D01*
X91440023Y-106243404D01*
X91440023Y-105433880D01*
X92440023Y-106433880D02*
X91868595Y-106433880D01*
X92154309Y-106433880D02*
X92154309Y-105433880D01*
X92059071Y-105576738D01*
X91963833Y-105671976D01*
X91868595Y-105719595D01*
X92650952Y-105422380D02*
X93222380Y-105422380D01*
X92936666Y-106422380D02*
X92936666Y-105422380D01*
X94031904Y-106422380D02*
X93555714Y-106422380D01*
X93555714Y-105422380D01*
X94555714Y-105422380D02*
X94650952Y-105422380D01*
X94746190Y-105470000D01*
X94793809Y-105517619D01*
X94841428Y-105612857D01*
X94889047Y-105803333D01*
X94889047Y-106041428D01*
X94841428Y-106231904D01*
X94793809Y-106327142D01*
X94746190Y-106374761D01*
X94650952Y-106422380D01*
X94555714Y-106422380D01*
X94460476Y-106374761D01*
X94412857Y-106327142D01*
X94365238Y-106231904D01*
X94317619Y-106041428D01*
X94317619Y-105803333D01*
X94365238Y-105612857D01*
X94412857Y-105517619D01*
X94460476Y-105470000D01*
X94555714Y-105422380D01*
X95222380Y-105422380D02*
X95889047Y-105422380D01*
X95460476Y-106422380D01*
X96222380Y-105517619D02*
X96270000Y-105470000D01*
X96365238Y-105422380D01*
X96603333Y-105422380D01*
X96698571Y-105470000D01*
X96746190Y-105517619D01*
X96793809Y-105612857D01*
X96793809Y-105708095D01*
X96746190Y-105850952D01*
X96174761Y-106422380D01*
X96793809Y-106422380D01*
%TO.C,U2*%
X73778095Y-103632380D02*
X73778095Y-104441904D01*
X73825714Y-104537142D01*
X73873333Y-104584761D01*
X73968571Y-104632380D01*
X74159047Y-104632380D01*
X74254285Y-104584761D01*
X74301904Y-104537142D01*
X74349523Y-104441904D01*
X74349523Y-103632380D01*
X74778095Y-103727619D02*
X74825714Y-103680000D01*
X74920952Y-103632380D01*
X75159047Y-103632380D01*
X75254285Y-103680000D01*
X75301904Y-103727619D01*
X75349523Y-103822857D01*
X75349523Y-103918095D01*
X75301904Y-104060952D01*
X74730476Y-104632380D01*
X75349523Y-104632380D01*
X67580476Y-112192380D02*
X67580476Y-111192380D01*
X68628095Y-112097142D02*
X68580476Y-112144761D01*
X68437619Y-112192380D01*
X68342380Y-112192380D01*
X68199523Y-112144761D01*
X68104285Y-112049523D01*
X68056666Y-111954285D01*
X68009047Y-111763809D01*
X68009047Y-111620952D01*
X68056666Y-111430476D01*
X68104285Y-111335238D01*
X68199523Y-111240000D01*
X68342380Y-111192380D01*
X68437619Y-111192380D01*
X68580476Y-111240000D01*
X68628095Y-111287619D01*
X69532857Y-112192380D02*
X69056666Y-112192380D01*
X69056666Y-111192380D01*
X69770952Y-111192380D02*
X70437619Y-111192380D01*
X70009047Y-112192380D01*
X71247142Y-111192380D02*
X71056666Y-111192380D01*
X70961428Y-111240000D01*
X70913809Y-111287619D01*
X70818571Y-111430476D01*
X70770952Y-111620952D01*
X70770952Y-112001904D01*
X70818571Y-112097142D01*
X70866190Y-112144761D01*
X70961428Y-112192380D01*
X71151904Y-112192380D01*
X71247142Y-112144761D01*
X71294761Y-112097142D01*
X71342380Y-112001904D01*
X71342380Y-111763809D01*
X71294761Y-111668571D01*
X71247142Y-111620952D01*
X71151904Y-111573333D01*
X70961428Y-111573333D01*
X70866190Y-111620952D01*
X70818571Y-111668571D01*
X70770952Y-111763809D01*
X72199523Y-111192380D02*
X72009047Y-111192380D01*
X71913809Y-111240000D01*
X71866190Y-111287619D01*
X71770952Y-111430476D01*
X71723333Y-111620952D01*
X71723333Y-112001904D01*
X71770952Y-112097142D01*
X71818571Y-112144761D01*
X71913809Y-112192380D01*
X72104285Y-112192380D01*
X72199523Y-112144761D01*
X72247142Y-112097142D01*
X72294761Y-112001904D01*
X72294761Y-111763809D01*
X72247142Y-111668571D01*
X72199523Y-111620952D01*
X72104285Y-111573333D01*
X71913809Y-111573333D01*
X71818571Y-111620952D01*
X71770952Y-111668571D01*
X71723333Y-111763809D01*
X72913809Y-111192380D02*
X73009047Y-111192380D01*
X73104285Y-111240000D01*
X73151904Y-111287619D01*
X73199523Y-111382857D01*
X73247142Y-111573333D01*
X73247142Y-111811428D01*
X73199523Y-112001904D01*
X73151904Y-112097142D01*
X73104285Y-112144761D01*
X73009047Y-112192380D01*
X72913809Y-112192380D01*
X72818571Y-112144761D01*
X72770952Y-112097142D01*
X72723333Y-112001904D01*
X72675714Y-111811428D01*
X72675714Y-111573333D01*
X72723333Y-111382857D01*
X72770952Y-111287619D01*
X72818571Y-111240000D01*
X72913809Y-111192380D01*
%TO.C,D2*%
X84241904Y-99912380D02*
X84241904Y-98912380D01*
X84480000Y-98912380D01*
X84622857Y-98960000D01*
X84718095Y-99055238D01*
X84765714Y-99150476D01*
X84813333Y-99340952D01*
X84813333Y-99483809D01*
X84765714Y-99674285D01*
X84718095Y-99769523D01*
X84622857Y-99864761D01*
X84480000Y-99912380D01*
X84241904Y-99912380D01*
X85194285Y-99007619D02*
X85241904Y-98960000D01*
X85337142Y-98912380D01*
X85575238Y-98912380D01*
X85670476Y-98960000D01*
X85718095Y-99007619D01*
X85765714Y-99102857D01*
X85765714Y-99198095D01*
X85718095Y-99340952D01*
X85146666Y-99912380D01*
X85765714Y-99912380D01*
X77127142Y-99912380D02*
X76555714Y-99912380D01*
X76841428Y-99912380D02*
X76841428Y-98912380D01*
X76746190Y-99055238D01*
X76650952Y-99150476D01*
X76555714Y-99198095D01*
X77555714Y-99912380D02*
X77555714Y-98912380D01*
X78127142Y-99912380D01*
X78127142Y-98912380D01*
X79079523Y-98912380D02*
X78603333Y-98912380D01*
X78555714Y-99388571D01*
X78603333Y-99340952D01*
X78698571Y-99293333D01*
X78936666Y-99293333D01*
X79031904Y-99340952D01*
X79079523Y-99388571D01*
X79127142Y-99483809D01*
X79127142Y-99721904D01*
X79079523Y-99817142D01*
X79031904Y-99864761D01*
X78936666Y-99912380D01*
X78698571Y-99912380D01*
X78603333Y-99864761D01*
X78555714Y-99817142D01*
X79698571Y-99340952D02*
X79603333Y-99293333D01*
X79555714Y-99245714D01*
X79508095Y-99150476D01*
X79508095Y-99102857D01*
X79555714Y-99007619D01*
X79603333Y-98960000D01*
X79698571Y-98912380D01*
X79889047Y-98912380D01*
X79984285Y-98960000D01*
X80031904Y-99007619D01*
X80079523Y-99102857D01*
X80079523Y-99150476D01*
X80031904Y-99245714D01*
X79984285Y-99293333D01*
X79889047Y-99340952D01*
X79698571Y-99340952D01*
X79603333Y-99388571D01*
X79555714Y-99436190D01*
X79508095Y-99531428D01*
X79508095Y-99721904D01*
X79555714Y-99817142D01*
X79603333Y-99864761D01*
X79698571Y-99912380D01*
X79889047Y-99912380D01*
X79984285Y-99864761D01*
X80031904Y-99817142D01*
X80079523Y-99721904D01*
X80079523Y-99531428D01*
X80031904Y-99436190D01*
X79984285Y-99388571D01*
X79889047Y-99340952D01*
X81031904Y-99912380D02*
X80460476Y-99912380D01*
X80746190Y-99912380D02*
X80746190Y-98912380D01*
X80650952Y-99055238D01*
X80555714Y-99150476D01*
X80460476Y-99198095D01*
X81365238Y-98912380D02*
X82031904Y-98912380D01*
X81603333Y-99912380D01*
%TO.C,C5*%
X69533333Y-113917142D02*
X69485714Y-113964761D01*
X69342857Y-114012380D01*
X69247619Y-114012380D01*
X69104761Y-113964761D01*
X69009523Y-113869523D01*
X68961904Y-113774285D01*
X68914285Y-113583809D01*
X68914285Y-113440952D01*
X68961904Y-113250476D01*
X69009523Y-113155238D01*
X69104761Y-113060000D01*
X69247619Y-113012380D01*
X69342857Y-113012380D01*
X69485714Y-113060000D01*
X69533333Y-113107619D01*
X70438095Y-113012380D02*
X69961904Y-113012380D01*
X69914285Y-113488571D01*
X69961904Y-113440952D01*
X70057142Y-113393333D01*
X70295238Y-113393333D01*
X70390476Y-113440952D01*
X70438095Y-113488571D01*
X70485714Y-113583809D01*
X70485714Y-113821904D01*
X70438095Y-113917142D01*
X70390476Y-113964761D01*
X70295238Y-114012380D01*
X70057142Y-114012380D01*
X69961904Y-113964761D01*
X69914285Y-113917142D01*
X66927142Y-114662380D02*
X66355714Y-114662380D01*
X66641428Y-114662380D02*
X66641428Y-113662380D01*
X66546190Y-113805238D01*
X66450952Y-113900476D01*
X66355714Y-113948095D01*
X67546190Y-113662380D02*
X67641428Y-113662380D01*
X67736666Y-113710000D01*
X67784285Y-113757619D01*
X67831904Y-113852857D01*
X67879523Y-114043333D01*
X67879523Y-114281428D01*
X67831904Y-114471904D01*
X67784285Y-114567142D01*
X67736666Y-114614761D01*
X67641428Y-114662380D01*
X67546190Y-114662380D01*
X67450952Y-114614761D01*
X67403333Y-114567142D01*
X67355714Y-114471904D01*
X67308095Y-114281428D01*
X67308095Y-114043333D01*
X67355714Y-113852857D01*
X67403333Y-113757619D01*
X67450952Y-113710000D01*
X67546190Y-113662380D01*
X68736666Y-113995714D02*
X68736666Y-114662380D01*
X68308095Y-113995714D02*
X68308095Y-114519523D01*
X68355714Y-114614761D01*
X68450952Y-114662380D01*
X68593809Y-114662380D01*
X68689047Y-114614761D01*
X68736666Y-114567142D01*
%TO.C,C6*%
X74465984Y-96397142D02*
X74418365Y-96444761D01*
X74275508Y-96492380D01*
X74180270Y-96492380D01*
X74037412Y-96444761D01*
X73942174Y-96349523D01*
X73894555Y-96254285D01*
X73846936Y-96063809D01*
X73846936Y-95920952D01*
X73894555Y-95730476D01*
X73942174Y-95635238D01*
X74037412Y-95540000D01*
X74180270Y-95492380D01*
X74275508Y-95492380D01*
X74418365Y-95540000D01*
X74465984Y-95587619D01*
X75323127Y-95492380D02*
X75132651Y-95492380D01*
X75037412Y-95540000D01*
X74989793Y-95587619D01*
X74894555Y-95730476D01*
X74846936Y-95920952D01*
X74846936Y-96301904D01*
X74894555Y-96397142D01*
X74942174Y-96444761D01*
X75037412Y-96492380D01*
X75227889Y-96492380D01*
X75323127Y-96444761D01*
X75370746Y-96397142D01*
X75418365Y-96301904D01*
X75418365Y-96063809D01*
X75370746Y-95968571D01*
X75323127Y-95920952D01*
X75227889Y-95873333D01*
X75037412Y-95873333D01*
X74942174Y-95920952D01*
X74894555Y-95968571D01*
X74846936Y-96063809D01*
X75529793Y-97782380D02*
X74958365Y-97782380D01*
X75244079Y-97782380D02*
X75244079Y-96782380D01*
X75148841Y-96925238D01*
X75053603Y-97020476D01*
X74958365Y-97068095D01*
X76148841Y-96782380D02*
X76244079Y-96782380D01*
X76339317Y-96830000D01*
X76386936Y-96877619D01*
X76434555Y-96972857D01*
X76482174Y-97163333D01*
X76482174Y-97401428D01*
X76434555Y-97591904D01*
X76386936Y-97687142D01*
X76339317Y-97734761D01*
X76244079Y-97782380D01*
X76148841Y-97782380D01*
X76053603Y-97734761D01*
X76005984Y-97687142D01*
X75958365Y-97591904D01*
X75910746Y-97401428D01*
X75910746Y-97163333D01*
X75958365Y-96972857D01*
X76005984Y-96877619D01*
X76053603Y-96830000D01*
X76148841Y-96782380D01*
X77339317Y-97115714D02*
X77339317Y-97782380D01*
X76910746Y-97115714D02*
X76910746Y-97639523D01*
X76958365Y-97734761D01*
X77053603Y-97782380D01*
X77196460Y-97782380D01*
X77291698Y-97734761D01*
X77339317Y-97687142D01*
%TO.C,J3*%
X92672166Y-95966380D02*
X92672166Y-96680666D01*
X92624547Y-96823523D01*
X92529309Y-96918761D01*
X92386452Y-96966380D01*
X92291214Y-96966380D01*
X93053119Y-95966380D02*
X93672166Y-95966380D01*
X93338833Y-96347333D01*
X93481690Y-96347333D01*
X93576928Y-96394952D01*
X93624547Y-96442571D01*
X93672166Y-96537809D01*
X93672166Y-96775904D01*
X93624547Y-96871142D01*
X93576928Y-96918761D01*
X93481690Y-96966380D01*
X93195976Y-96966380D01*
X93100738Y-96918761D01*
X93053119Y-96871142D01*
X92307166Y-98680880D02*
X92307166Y-97680880D01*
X92688119Y-97680880D01*
X92783357Y-97728500D01*
X92830976Y-97776119D01*
X92878595Y-97871357D01*
X92878595Y-98014214D01*
X92830976Y-98109452D01*
X92783357Y-98157071D01*
X92688119Y-98204690D01*
X92307166Y-98204690D01*
X93211928Y-97680880D02*
X93450023Y-98680880D01*
X93640500Y-97966595D01*
X93830976Y-98680880D01*
X94069071Y-97680880D01*
X95021452Y-98680880D02*
X94688119Y-98204690D01*
X94450023Y-98680880D02*
X94450023Y-97680880D01*
X94830976Y-97680880D01*
X94926214Y-97728500D01*
X94973833Y-97776119D01*
X95021452Y-97871357D01*
X95021452Y-98014214D01*
X94973833Y-98109452D01*
X94926214Y-98157071D01*
X94830976Y-98204690D01*
X94450023Y-98204690D01*
%TO.C,R6*%
X78233333Y-122192380D02*
X77900000Y-121716190D01*
X77661904Y-122192380D02*
X77661904Y-121192380D01*
X78042857Y-121192380D01*
X78138095Y-121240000D01*
X78185714Y-121287619D01*
X78233333Y-121382857D01*
X78233333Y-121525714D01*
X78185714Y-121620952D01*
X78138095Y-121668571D01*
X78042857Y-121716190D01*
X77661904Y-121716190D01*
X79090476Y-121192380D02*
X78900000Y-121192380D01*
X78804761Y-121240000D01*
X78757142Y-121287619D01*
X78661904Y-121430476D01*
X78614285Y-121620952D01*
X78614285Y-122001904D01*
X78661904Y-122097142D01*
X78709523Y-122144761D01*
X78804761Y-122192380D01*
X78995238Y-122192380D01*
X79090476Y-122144761D01*
X79138095Y-122097142D01*
X79185714Y-122001904D01*
X79185714Y-121763809D01*
X79138095Y-121668571D01*
X79090476Y-121620952D01*
X78995238Y-121573333D01*
X78804761Y-121573333D01*
X78709523Y-121620952D01*
X78661904Y-121668571D01*
X78614285Y-121763809D01*
X75741904Y-119997619D02*
X75789523Y-119950000D01*
X75884761Y-119902380D01*
X76122857Y-119902380D01*
X76218095Y-119950000D01*
X76265714Y-119997619D01*
X76313333Y-120092857D01*
X76313333Y-120188095D01*
X76265714Y-120330952D01*
X75694285Y-120902380D01*
X76313333Y-120902380D01*
X76694285Y-119997619D02*
X76741904Y-119950000D01*
X76837142Y-119902380D01*
X77075238Y-119902380D01*
X77170476Y-119950000D01*
X77218095Y-119997619D01*
X77265714Y-120092857D01*
X77265714Y-120188095D01*
X77218095Y-120330952D01*
X76646666Y-120902380D01*
X77265714Y-120902380D01*
X77884761Y-119902380D02*
X77980000Y-119902380D01*
X78075238Y-119950000D01*
X78122857Y-119997619D01*
X78170476Y-120092857D01*
X78218095Y-120283333D01*
X78218095Y-120521428D01*
X78170476Y-120711904D01*
X78122857Y-120807142D01*
X78075238Y-120854761D01*
X77980000Y-120902380D01*
X77884761Y-120902380D01*
X77789523Y-120854761D01*
X77741904Y-120807142D01*
X77694285Y-120711904D01*
X77646666Y-120521428D01*
X77646666Y-120283333D01*
X77694285Y-120092857D01*
X77741904Y-119997619D01*
X77789523Y-119950000D01*
X77884761Y-119902380D01*
X79218095Y-120902380D02*
X78884761Y-120426190D01*
X78646666Y-120902380D02*
X78646666Y-119902380D01*
X79027619Y-119902380D01*
X79122857Y-119950000D01*
X79170476Y-119997619D01*
X79218095Y-120092857D01*
X79218095Y-120235714D01*
X79170476Y-120330952D01*
X79122857Y-120378571D01*
X79027619Y-120426190D01*
X78646666Y-120426190D01*
%TO.C,C9*%
X91883333Y-119877142D02*
X91835714Y-119924761D01*
X91692857Y-119972380D01*
X91597619Y-119972380D01*
X91454761Y-119924761D01*
X91359523Y-119829523D01*
X91311904Y-119734285D01*
X91264285Y-119543809D01*
X91264285Y-119400952D01*
X91311904Y-119210476D01*
X91359523Y-119115238D01*
X91454761Y-119020000D01*
X91597619Y-118972380D01*
X91692857Y-118972380D01*
X91835714Y-119020000D01*
X91883333Y-119067619D01*
X92359523Y-119972380D02*
X92550000Y-119972380D01*
X92645238Y-119924761D01*
X92692857Y-119877142D01*
X92788095Y-119734285D01*
X92835714Y-119543809D01*
X92835714Y-119162857D01*
X92788095Y-119067619D01*
X92740476Y-119020000D01*
X92645238Y-118972380D01*
X92454761Y-118972380D01*
X92359523Y-119020000D01*
X92311904Y-119067619D01*
X92264285Y-119162857D01*
X92264285Y-119400952D01*
X92311904Y-119496190D01*
X92359523Y-119543809D01*
X92454761Y-119591428D01*
X92645238Y-119591428D01*
X92740476Y-119543809D01*
X92788095Y-119496190D01*
X92835714Y-119400952D01*
X91857142Y-121362380D02*
X91285714Y-121362380D01*
X91571428Y-121362380D02*
X91571428Y-120362380D01*
X91476190Y-120505238D01*
X91380952Y-120600476D01*
X91285714Y-120648095D01*
X92476190Y-120362380D02*
X92571428Y-120362380D01*
X92666666Y-120410000D01*
X92714285Y-120457619D01*
X92761904Y-120552857D01*
X92809523Y-120743333D01*
X92809523Y-120981428D01*
X92761904Y-121171904D01*
X92714285Y-121267142D01*
X92666666Y-121314761D01*
X92571428Y-121362380D01*
X92476190Y-121362380D01*
X92380952Y-121314761D01*
X92333333Y-121267142D01*
X92285714Y-121171904D01*
X92238095Y-120981428D01*
X92238095Y-120743333D01*
X92285714Y-120552857D01*
X92333333Y-120457619D01*
X92380952Y-120410000D01*
X92476190Y-120362380D01*
X93666666Y-120695714D02*
X93666666Y-121362380D01*
X93238095Y-120695714D02*
X93238095Y-121219523D01*
X93285714Y-121314761D01*
X93380952Y-121362380D01*
X93523809Y-121362380D01*
X93619047Y-121314761D01*
X93666666Y-121267142D01*
%TO.C,C4*%
X82142333Y-106959142D02*
X82094714Y-107006761D01*
X81951857Y-107054380D01*
X81856619Y-107054380D01*
X81713761Y-107006761D01*
X81618523Y-106911523D01*
X81570904Y-106816285D01*
X81523285Y-106625809D01*
X81523285Y-106482952D01*
X81570904Y-106292476D01*
X81618523Y-106197238D01*
X81713761Y-106102000D01*
X81856619Y-106054380D01*
X81951857Y-106054380D01*
X82094714Y-106102000D01*
X82142333Y-106149619D01*
X82999476Y-106387714D02*
X82999476Y-107054380D01*
X82761380Y-106006761D02*
X82523285Y-106721047D01*
X83142333Y-106721047D01*
X82205952Y-105657380D02*
X81634523Y-105657380D01*
X81920238Y-105657380D02*
X81920238Y-104657380D01*
X81825000Y-104800238D01*
X81729761Y-104895476D01*
X81634523Y-104943095D01*
X82825000Y-104657380D02*
X82920238Y-104657380D01*
X83015476Y-104705000D01*
X83063095Y-104752619D01*
X83110714Y-104847857D01*
X83158333Y-105038333D01*
X83158333Y-105276428D01*
X83110714Y-105466904D01*
X83063095Y-105562142D01*
X83015476Y-105609761D01*
X82920238Y-105657380D01*
X82825000Y-105657380D01*
X82729761Y-105609761D01*
X82682142Y-105562142D01*
X82634523Y-105466904D01*
X82586904Y-105276428D01*
X82586904Y-105038333D01*
X82634523Y-104847857D01*
X82682142Y-104752619D01*
X82729761Y-104705000D01*
X82825000Y-104657380D01*
X83777380Y-104657380D02*
X83872619Y-104657380D01*
X83967857Y-104705000D01*
X84015476Y-104752619D01*
X84063095Y-104847857D01*
X84110714Y-105038333D01*
X84110714Y-105276428D01*
X84063095Y-105466904D01*
X84015476Y-105562142D01*
X83967857Y-105609761D01*
X83872619Y-105657380D01*
X83777380Y-105657380D01*
X83682142Y-105609761D01*
X83634523Y-105562142D01*
X83586904Y-105466904D01*
X83539285Y-105276428D01*
X83539285Y-105038333D01*
X83586904Y-104847857D01*
X83634523Y-104752619D01*
X83682142Y-104705000D01*
X83777380Y-104657380D01*
X84539285Y-104990714D02*
X84539285Y-105657380D01*
X84539285Y-105085952D02*
X84586904Y-105038333D01*
X84682142Y-104990714D01*
X84825000Y-104990714D01*
X84920238Y-105038333D01*
X84967857Y-105133571D01*
X84967857Y-105657380D01*
%TO.C,R2*%
X110503333Y-112322380D02*
X110170000Y-111846190D01*
X109931904Y-112322380D02*
X109931904Y-111322380D01*
X110312857Y-111322380D01*
X110408095Y-111370000D01*
X110455714Y-111417619D01*
X110503333Y-111512857D01*
X110503333Y-111655714D01*
X110455714Y-111750952D01*
X110408095Y-111798571D01*
X110312857Y-111846190D01*
X109931904Y-111846190D01*
X110884285Y-111417619D02*
X110931904Y-111370000D01*
X111027142Y-111322380D01*
X111265238Y-111322380D01*
X111360476Y-111370000D01*
X111408095Y-111417619D01*
X111455714Y-111512857D01*
X111455714Y-111608095D01*
X111408095Y-111750952D01*
X110836666Y-112322380D01*
X111455714Y-112322380D01*
X108202380Y-120094285D02*
X108202380Y-120570476D01*
X108678571Y-120618095D01*
X108630952Y-120570476D01*
X108583333Y-120475238D01*
X108583333Y-120237142D01*
X108630952Y-120141904D01*
X108678571Y-120094285D01*
X108773809Y-120046666D01*
X109011904Y-120046666D01*
X109107142Y-120094285D01*
X109154761Y-120141904D01*
X109202380Y-120237142D01*
X109202380Y-120475238D01*
X109154761Y-120570476D01*
X109107142Y-120618095D01*
X109202380Y-119094285D02*
X109202380Y-119665714D01*
X109202380Y-119380000D02*
X108202380Y-119380000D01*
X108345238Y-119475238D01*
X108440476Y-119570476D01*
X108488095Y-119665714D01*
X108202380Y-118475238D02*
X108202380Y-118380000D01*
X108250000Y-118284761D01*
X108297619Y-118237142D01*
X108392857Y-118189523D01*
X108583333Y-118141904D01*
X108821428Y-118141904D01*
X109011904Y-118189523D01*
X109107142Y-118237142D01*
X109154761Y-118284761D01*
X109202380Y-118380000D01*
X109202380Y-118475238D01*
X109154761Y-118570476D01*
X109107142Y-118618095D01*
X109011904Y-118665714D01*
X108821428Y-118713333D01*
X108583333Y-118713333D01*
X108392857Y-118665714D01*
X108297619Y-118618095D01*
X108250000Y-118570476D01*
X108202380Y-118475238D01*
X109202380Y-117713333D02*
X108202380Y-117713333D01*
X109202380Y-117141904D02*
X108630952Y-117570476D01*
X108202380Y-117141904D02*
X108773809Y-117713333D01*
%TO.C,C2*%
X99023333Y-121537142D02*
X98975714Y-121584761D01*
X98832857Y-121632380D01*
X98737619Y-121632380D01*
X98594761Y-121584761D01*
X98499523Y-121489523D01*
X98451904Y-121394285D01*
X98404285Y-121203809D01*
X98404285Y-121060952D01*
X98451904Y-120870476D01*
X98499523Y-120775238D01*
X98594761Y-120680000D01*
X98737619Y-120632380D01*
X98832857Y-120632380D01*
X98975714Y-120680000D01*
X99023333Y-120727619D01*
X99404285Y-120727619D02*
X99451904Y-120680000D01*
X99547142Y-120632380D01*
X99785238Y-120632380D01*
X99880476Y-120680000D01*
X99928095Y-120727619D01*
X99975714Y-120822857D01*
X99975714Y-120918095D01*
X99928095Y-121060952D01*
X99356666Y-121632380D01*
X99975714Y-121632380D01*
X95677142Y-121672380D02*
X95105714Y-121672380D01*
X95391428Y-121672380D02*
X95391428Y-120672380D01*
X95296190Y-120815238D01*
X95200952Y-120910476D01*
X95105714Y-120958095D01*
X96296190Y-120672380D02*
X96391428Y-120672380D01*
X96486666Y-120720000D01*
X96534285Y-120767619D01*
X96581904Y-120862857D01*
X96629523Y-121053333D01*
X96629523Y-121291428D01*
X96581904Y-121481904D01*
X96534285Y-121577142D01*
X96486666Y-121624761D01*
X96391428Y-121672380D01*
X96296190Y-121672380D01*
X96200952Y-121624761D01*
X96153333Y-121577142D01*
X96105714Y-121481904D01*
X96058095Y-121291428D01*
X96058095Y-121053333D01*
X96105714Y-120862857D01*
X96153333Y-120767619D01*
X96200952Y-120720000D01*
X96296190Y-120672380D01*
X97486666Y-121005714D02*
X97486666Y-121672380D01*
X97058095Y-121005714D02*
X97058095Y-121529523D01*
X97105714Y-121624761D01*
X97200952Y-121672380D01*
X97343809Y-121672380D01*
X97439047Y-121624761D01*
X97486666Y-121577142D01*
%TO.C,R3*%
X86812380Y-104806666D02*
X86336190Y-105140000D01*
X86812380Y-105378095D02*
X85812380Y-105378095D01*
X85812380Y-104997142D01*
X85860000Y-104901904D01*
X85907619Y-104854285D01*
X86002857Y-104806666D01*
X86145714Y-104806666D01*
X86240952Y-104854285D01*
X86288571Y-104901904D01*
X86336190Y-104997142D01*
X86336190Y-105378095D01*
X85812380Y-104473333D02*
X85812380Y-103854285D01*
X86193333Y-104187619D01*
X86193333Y-104044761D01*
X86240952Y-103949523D01*
X86288571Y-103901904D01*
X86383809Y-103854285D01*
X86621904Y-103854285D01*
X86717142Y-103901904D01*
X86764761Y-103949523D01*
X86812380Y-104044761D01*
X86812380Y-104330476D01*
X86764761Y-104425714D01*
X86717142Y-104473333D01*
X87693333Y-105212380D02*
X87121904Y-105212380D01*
X87407619Y-105212380D02*
X87407619Y-104212380D01*
X87312380Y-104355238D01*
X87217142Y-104450476D01*
X87121904Y-104498095D01*
X88312380Y-104212380D02*
X88407619Y-104212380D01*
X88502857Y-104260000D01*
X88550476Y-104307619D01*
X88598095Y-104402857D01*
X88645714Y-104593333D01*
X88645714Y-104831428D01*
X88598095Y-105021904D01*
X88550476Y-105117142D01*
X88502857Y-105164761D01*
X88407619Y-105212380D01*
X88312380Y-105212380D01*
X88217142Y-105164761D01*
X88169523Y-105117142D01*
X88121904Y-105021904D01*
X88074285Y-104831428D01*
X88074285Y-104593333D01*
X88121904Y-104402857D01*
X88169523Y-104307619D01*
X88217142Y-104260000D01*
X88312380Y-104212380D01*
X89264761Y-104212380D02*
X89360000Y-104212380D01*
X89455238Y-104260000D01*
X89502857Y-104307619D01*
X89550476Y-104402857D01*
X89598095Y-104593333D01*
X89598095Y-104831428D01*
X89550476Y-105021904D01*
X89502857Y-105117142D01*
X89455238Y-105164761D01*
X89360000Y-105212380D01*
X89264761Y-105212380D01*
X89169523Y-105164761D01*
X89121904Y-105117142D01*
X89074285Y-105021904D01*
X89026666Y-104831428D01*
X89026666Y-104593333D01*
X89074285Y-104402857D01*
X89121904Y-104307619D01*
X89169523Y-104260000D01*
X89264761Y-104212380D01*
X90026666Y-105212380D02*
X90026666Y-104212380D01*
X90598095Y-105212380D02*
X90169523Y-104640952D01*
X90598095Y-104212380D02*
X90026666Y-104783809D01*
%TO.C,C1*%
X83363333Y-112037142D02*
X83315714Y-112084761D01*
X83172857Y-112132380D01*
X83077619Y-112132380D01*
X82934761Y-112084761D01*
X82839523Y-111989523D01*
X82791904Y-111894285D01*
X82744285Y-111703809D01*
X82744285Y-111560952D01*
X82791904Y-111370476D01*
X82839523Y-111275238D01*
X82934761Y-111180000D01*
X83077619Y-111132380D01*
X83172857Y-111132380D01*
X83315714Y-111180000D01*
X83363333Y-111227619D01*
X84315714Y-112132380D02*
X83744285Y-112132380D01*
X84030000Y-112132380D02*
X84030000Y-111132380D01*
X83934761Y-111275238D01*
X83839523Y-111370476D01*
X83744285Y-111418095D01*
X83707142Y-115742380D02*
X83135714Y-115742380D01*
X83421428Y-115742380D02*
X83421428Y-114742380D01*
X83326190Y-114885238D01*
X83230952Y-114980476D01*
X83135714Y-115028095D01*
X84326190Y-114742380D02*
X84421428Y-114742380D01*
X84516666Y-114790000D01*
X84564285Y-114837619D01*
X84611904Y-114932857D01*
X84659523Y-115123333D01*
X84659523Y-115361428D01*
X84611904Y-115551904D01*
X84564285Y-115647142D01*
X84516666Y-115694761D01*
X84421428Y-115742380D01*
X84326190Y-115742380D01*
X84230952Y-115694761D01*
X84183333Y-115647142D01*
X84135714Y-115551904D01*
X84088095Y-115361428D01*
X84088095Y-115123333D01*
X84135714Y-114932857D01*
X84183333Y-114837619D01*
X84230952Y-114790000D01*
X84326190Y-114742380D01*
X85516666Y-115075714D02*
X85516666Y-115742380D01*
X85088095Y-115075714D02*
X85088095Y-115599523D01*
X85135714Y-115694761D01*
X85230952Y-115742380D01*
X85373809Y-115742380D01*
X85469047Y-115694761D01*
X85516666Y-115647142D01*
D11*
%TO.C,R5*%
X105070000Y-103312936D02*
X105070000Y-104767064D01*
X103250000Y-103312936D02*
X103250000Y-104767064D01*
%TO.C,D1*%
X108220000Y-103110000D02*
X108220000Y-103760000D01*
X109340000Y-103760000D02*
X107100000Y-103760000D01*
X107100000Y-108000000D02*
X109340000Y-108000000D01*
X107100000Y-103760000D02*
X107100000Y-108000000D01*
X108220000Y-108650000D02*
X108220000Y-108000000D01*
X107100000Y-107160000D02*
X109340000Y-107160000D01*
X109340000Y-108000000D02*
X109340000Y-103760000D01*
X107100000Y-107280000D02*
X109340000Y-107280000D01*
X107100000Y-107400000D02*
X109340000Y-107400000D01*
%TO.C,R4*%
X83658064Y-108498500D02*
X82203936Y-108498500D01*
X83658064Y-110318500D02*
X82203936Y-110318500D01*
%TO.C,J2*%
X110890000Y-118805000D02*
X110890000Y-121405000D01*
X113550000Y-118805000D02*
X113550000Y-121405000D01*
X110890000Y-116205000D02*
X112220000Y-116205000D01*
X110890000Y-117535000D02*
X110890000Y-116205000D01*
X110890000Y-121405000D02*
X113550000Y-121405000D01*
X110890000Y-118805000D02*
X113550000Y-118805000D01*
%TO.C,R1*%
X103397064Y-118150000D02*
X101942936Y-118150000D01*
X103397064Y-119970000D02*
X101942936Y-119970000D01*
%TO.C,C10*%
X88100000Y-119008748D02*
X88100000Y-120431252D01*
X86280000Y-119008748D02*
X86280000Y-120431252D01*
%TO.C,C3*%
X105620000Y-113848748D02*
X105620000Y-115271252D01*
X103800000Y-113848748D02*
X103800000Y-115271252D01*
%TO.C,C7*%
X100460000Y-104751252D02*
X100460000Y-103328748D01*
X102280000Y-104751252D02*
X102280000Y-103328748D01*
%TO.C,C8*%
X99530000Y-104791252D02*
X99530000Y-103368748D01*
X97710000Y-104791252D02*
X97710000Y-103368748D01*
%TO.C,J1*%
X77973000Y-114802500D02*
X76643000Y-114802500D01*
X79243000Y-112142500D02*
X81843000Y-112142500D01*
X79243000Y-114802500D02*
X81843000Y-114802500D01*
X76643000Y-114802500D02*
X76643000Y-113472500D01*
X81843000Y-114802500D02*
X81843000Y-112142500D01*
X79243000Y-114802500D02*
X79243000Y-112142500D01*
%TO.C,U1*%
X93372000Y-117289000D02*
X98672000Y-117289000D01*
X90882000Y-117349000D02*
X101162000Y-117349000D01*
X95022000Y-107009000D02*
X93372000Y-107009000D01*
X101162000Y-117349000D02*
X101162000Y-106949000D01*
X101162000Y-106949000D02*
X90882000Y-106949000D01*
X98672000Y-117289000D02*
X98672000Y-107009000D01*
X98672000Y-107009000D02*
X97022000Y-107009000D01*
X93372000Y-107009000D02*
X93372000Y-117289000D01*
X90882000Y-106949000D02*
X90882000Y-117349000D01*
X95022000Y-107009000D02*
G75*
G03*
X97022000Y-107009000I1000000J0D01*
G01*
%TO.C,U2*%
X72330000Y-110430000D02*
X70380000Y-110430000D01*
X72330000Y-110430000D02*
X74280000Y-110430000D01*
X72330000Y-105310000D02*
X68880000Y-105310000D01*
X72330000Y-105310000D02*
X74280000Y-105310000D01*
%TO.C,D2*%
X85570000Y-100400000D02*
X80130000Y-100400000D01*
X79110000Y-101870000D02*
X80130000Y-101870000D01*
X86590000Y-101870000D02*
X85570000Y-101870000D01*
X80910000Y-100400000D02*
X80910000Y-103340000D01*
X80130000Y-103340000D02*
X85570000Y-103340000D01*
X81030000Y-100400000D02*
X81030000Y-103340000D01*
X80130000Y-100400000D02*
X80130000Y-103340000D01*
X81150000Y-100400000D02*
X81150000Y-103340000D01*
X85570000Y-103340000D02*
X85570000Y-100400000D01*
%TO.C,C5*%
X72248349Y-114578000D02*
X72248349Y-117440000D01*
X72368349Y-119520000D02*
X72368349Y-122343000D01*
X72968349Y-114874000D02*
X72968349Y-117440000D01*
X72848349Y-119520000D02*
X72848349Y-122146000D01*
X72808349Y-119520000D02*
X72808349Y-122166000D01*
X72968349Y-119520000D02*
X72968349Y-122086000D01*
X71327349Y-119520000D02*
X71327349Y-122551000D01*
X72768349Y-114776000D02*
X72768349Y-117440000D01*
X72128349Y-119520000D02*
X72128349Y-122416000D01*
X71687349Y-114450000D02*
X71687349Y-117440000D01*
X71247349Y-114404000D02*
X71247349Y-122556000D01*
X73168349Y-114987000D02*
X73168349Y-117440000D01*
X73048349Y-119520000D02*
X73048349Y-122042000D01*
X73208349Y-115011000D02*
X73208349Y-117440000D01*
X71888349Y-114486000D02*
X71888349Y-117440000D01*
X73128349Y-119520000D02*
X73128349Y-121997000D01*
X74128349Y-115783000D02*
X74128349Y-121177000D01*
X72608349Y-119520000D02*
X72608349Y-122254000D01*
X72208349Y-114566000D02*
X72208349Y-117440000D01*
X71968349Y-119520000D02*
X71968349Y-122456000D01*
X71888349Y-119520000D02*
X71888349Y-122474000D01*
X73328349Y-115088000D02*
X73328349Y-117440000D01*
X72288349Y-114591000D02*
X72288349Y-117440000D01*
X72008349Y-119520000D02*
X72008349Y-122447000D01*
X74408349Y-116135000D02*
X74408349Y-120825000D01*
X73248349Y-119520000D02*
X73248349Y-121924000D01*
X71167349Y-114401000D02*
X71167349Y-122559000D01*
X72008349Y-114513000D02*
X72008349Y-117440000D01*
X71727349Y-114456000D02*
X71727349Y-117440000D01*
X72408349Y-119520000D02*
X72408349Y-122330000D01*
X73128349Y-114963000D02*
X73128349Y-117440000D01*
X75008349Y-117382000D02*
X75008349Y-119578000D01*
X75128349Y-117947000D02*
X75128349Y-119013000D01*
X74568349Y-116378000D02*
X74568349Y-120582000D01*
X71928349Y-114495000D02*
X71928349Y-117440000D01*
X72648349Y-119520000D02*
X72648349Y-122237000D01*
X72528349Y-119520000D02*
X72528349Y-122285000D01*
X74968349Y-117251000D02*
X74968349Y-119709000D01*
X71447349Y-114419000D02*
X71447349Y-117440000D01*
X74048349Y-115696000D02*
X74048349Y-121264000D01*
X72488349Y-119520000D02*
X72488349Y-122301000D01*
X73328349Y-119520000D02*
X73328349Y-121872000D01*
X71768349Y-114463000D02*
X71768349Y-117440000D01*
X75088349Y-117712000D02*
X75088349Y-119248000D01*
X71647349Y-119520000D02*
X71647349Y-122517000D01*
X71727349Y-119520000D02*
X71727349Y-122504000D01*
X72688349Y-114740000D02*
X72688349Y-117440000D01*
X71447349Y-119520000D02*
X71447349Y-122541000D01*
X71367349Y-119520000D02*
X71367349Y-122548000D01*
X72568349Y-114690000D02*
X72568349Y-117440000D01*
X73088349Y-114940000D02*
X73088349Y-117440000D01*
X71647349Y-114443000D02*
X71647349Y-117440000D01*
X73528349Y-115230000D02*
X73528349Y-121730000D01*
X74728349Y-116667000D02*
X74728349Y-120293000D01*
X71407349Y-119520000D02*
X71407349Y-122545000D01*
X71808349Y-114470000D02*
X71808349Y-117440000D01*
X72208349Y-119520000D02*
X72208349Y-122394000D01*
X71327349Y-114409000D02*
X71327349Y-117440000D01*
X71407349Y-114415000D02*
X71407349Y-117440000D01*
X72088349Y-119520000D02*
X72088349Y-122427000D01*
X71607349Y-119520000D02*
X71607349Y-122522000D01*
X73888349Y-115535000D02*
X73888349Y-121425000D01*
X71487349Y-119520000D02*
X71487349Y-122537000D01*
X71287349Y-114406000D02*
X71287349Y-117440000D01*
X73488349Y-115200000D02*
X73488349Y-121760000D01*
X71567349Y-119520000D02*
X71567349Y-122528000D01*
X71207349Y-114403000D02*
X71207349Y-122557000D01*
X74248349Y-115924000D02*
X74248349Y-121036000D01*
X72448349Y-119520000D02*
X72448349Y-122315000D01*
X72368349Y-114617000D02*
X72368349Y-117440000D01*
X72248349Y-119520000D02*
X72248349Y-122382000D01*
X74488349Y-116252000D02*
X74488349Y-120708000D01*
X74848349Y-116928000D02*
X74848349Y-120032000D01*
X74448349Y-116193000D02*
X74448349Y-120767000D01*
X72328349Y-119520000D02*
X72328349Y-122357000D01*
X71848349Y-114478000D02*
X71848349Y-117440000D01*
X73248349Y-115036000D02*
X73248349Y-117440000D01*
X73848349Y-115497000D02*
X73848349Y-121463000D01*
X73288349Y-119520000D02*
X73288349Y-121898000D01*
X74768349Y-116749000D02*
X74768349Y-120211000D01*
X72728349Y-119520000D02*
X72728349Y-122202000D01*
X73768349Y-115425000D02*
X73768349Y-121535000D01*
X74808349Y-116835000D02*
X74808349Y-120125000D01*
X73568349Y-115260000D02*
X73568349Y-121700000D01*
X72448349Y-114645000D02*
X72448349Y-117440000D01*
X74208349Y-115876000D02*
X74208349Y-121084000D01*
X72288349Y-119520000D02*
X72288349Y-122369000D01*
X72408349Y-114630000D02*
X72408349Y-117440000D01*
X71607349Y-114438000D02*
X71607349Y-117440000D01*
X72808349Y-114794000D02*
X72808349Y-117440000D01*
X67037651Y-115765000D02*
X67037651Y-116565000D01*
X72928349Y-114853000D02*
X72928349Y-117440000D01*
X71687349Y-119520000D02*
X71687349Y-122510000D01*
X74688349Y-116590000D02*
X74688349Y-120370000D01*
X71087349Y-114400000D02*
X71087349Y-122560000D01*
X72128349Y-114544000D02*
X72128349Y-117440000D01*
X73928349Y-115573000D02*
X73928349Y-121387000D01*
X74888349Y-117027000D02*
X74888349Y-119933000D01*
X72088349Y-114533000D02*
X72088349Y-117440000D01*
X71287349Y-119520000D02*
X71287349Y-122554000D01*
X75048349Y-117532000D02*
X75048349Y-119428000D01*
X73448349Y-115171000D02*
X73448349Y-121789000D01*
X73688349Y-115356000D02*
X73688349Y-121604000D01*
X72168349Y-119520000D02*
X72168349Y-122405000D01*
X71928349Y-119520000D02*
X71928349Y-122465000D01*
X73648349Y-115324000D02*
X73648349Y-121636000D01*
X71527349Y-114428000D02*
X71527349Y-117440000D01*
X74008349Y-115654000D02*
X74008349Y-121306000D01*
X73168349Y-119520000D02*
X73168349Y-121973000D01*
X71848349Y-119520000D02*
X71848349Y-122482000D01*
X72848349Y-114814000D02*
X72848349Y-117440000D01*
X73808349Y-115461000D02*
X73808349Y-121499000D01*
X72888349Y-114833000D02*
X72888349Y-117440000D01*
X74328349Y-116026000D02*
X74328349Y-120934000D01*
X73408349Y-115142000D02*
X73408349Y-121818000D01*
X73608349Y-115291000D02*
X73608349Y-121669000D01*
X72608349Y-114706000D02*
X72608349Y-117440000D01*
X72928349Y-119520000D02*
X72928349Y-122107000D01*
X74928349Y-117134000D02*
X74928349Y-119826000D01*
X74608349Y-116446000D02*
X74608349Y-120514000D01*
X73208349Y-119520000D02*
X73208349Y-121949000D01*
X72888349Y-119520000D02*
X72888349Y-122127000D01*
X72328349Y-114603000D02*
X72328349Y-117440000D01*
X66637651Y-116165000D02*
X67437651Y-116165000D01*
X73288349Y-115062000D02*
X73288349Y-117440000D01*
X72648349Y-114723000D02*
X72648349Y-117440000D01*
X73048349Y-114918000D02*
X73048349Y-117440000D01*
X73368349Y-115115000D02*
X73368349Y-121845000D01*
X71487349Y-114423000D02*
X71487349Y-117440000D01*
X72168349Y-114555000D02*
X72168349Y-117440000D01*
X72688349Y-119520000D02*
X72688349Y-122220000D01*
X72568349Y-119520000D02*
X72568349Y-122270000D01*
X73728349Y-115390000D02*
X73728349Y-121570000D01*
X72768349Y-119520000D02*
X72768349Y-122184000D01*
X71768349Y-119520000D02*
X71768349Y-122497000D01*
X74648349Y-116516000D02*
X74648349Y-120444000D01*
X71047349Y-114400000D02*
X71047349Y-122560000D01*
X72528349Y-114675000D02*
X72528349Y-117440000D01*
X71808349Y-119520000D02*
X71808349Y-122490000D01*
X71127349Y-114400000D02*
X71127349Y-122560000D01*
X71968349Y-114504000D02*
X71968349Y-117440000D01*
X74368349Y-116080000D02*
X74368349Y-120880000D01*
X73968349Y-115613000D02*
X73968349Y-121347000D01*
X72488349Y-114659000D02*
X72488349Y-117440000D01*
X74528349Y-116314000D02*
X74528349Y-120646000D01*
X72048349Y-114523000D02*
X72048349Y-117440000D01*
X73088349Y-119520000D02*
X73088349Y-122020000D01*
X71567349Y-114432000D02*
X71567349Y-117440000D01*
X71527349Y-119520000D02*
X71527349Y-122532000D01*
X72728349Y-114758000D02*
X72728349Y-117440000D01*
X74288349Y-115975000D02*
X74288349Y-120985000D01*
X74088349Y-115739000D02*
X74088349Y-121221000D01*
X73008349Y-114896000D02*
X73008349Y-117440000D01*
X71367349Y-114412000D02*
X71367349Y-117440000D01*
X74168349Y-115829000D02*
X74168349Y-121131000D01*
X72048349Y-119520000D02*
X72048349Y-122437000D01*
X73008349Y-119520000D02*
X73008349Y-122064000D01*
X75167349Y-118480000D02*
G75*
G03*
X75167349Y-118480000I-4120000J0D01*
G01*
%TO.C,C6*%
X70332651Y-103698000D02*
X70332651Y-100690000D01*
X68971651Y-98610000D02*
X68971651Y-96023000D01*
X68531651Y-103015000D02*
X68531651Y-96285000D01*
X67611651Y-102155000D02*
X67611651Y-97145000D01*
X70612651Y-103724000D02*
X70612651Y-100690000D01*
X66931651Y-100879000D02*
X66931651Y-98421000D01*
X69091651Y-103336000D02*
X69091651Y-100690000D01*
X70852651Y-103730000D02*
X70852651Y-95570000D01*
X69811651Y-103597000D02*
X69811651Y-100690000D01*
X69891651Y-98610000D02*
X69891651Y-95683000D01*
X67251651Y-101614000D02*
X67251651Y-97686000D01*
X70412651Y-98610000D02*
X70412651Y-95593000D01*
X69171651Y-103372000D02*
X69171651Y-100690000D01*
X67571651Y-102104000D02*
X67571651Y-97196000D01*
X69331651Y-103440000D02*
X69331651Y-100690000D01*
X70131651Y-98610000D02*
X70131651Y-95633000D01*
X70452651Y-103711000D02*
X70452651Y-100690000D01*
X69611651Y-98610000D02*
X69611651Y-95761000D01*
X69571651Y-103527000D02*
X69571651Y-100690000D01*
X68771651Y-98610000D02*
X68771651Y-96133000D01*
X69611651Y-103539000D02*
X69611651Y-100690000D01*
X67811651Y-102391000D02*
X67811651Y-96909000D01*
X69491651Y-98610000D02*
X69491651Y-95800000D01*
X70372651Y-98610000D02*
X70372651Y-95598000D01*
X69451651Y-103485000D02*
X69451651Y-100690000D01*
X69651651Y-103552000D02*
X69651651Y-100690000D01*
X70091651Y-103660000D02*
X70091651Y-100690000D01*
X68851651Y-103212000D02*
X68851651Y-100690000D01*
X75262349Y-101965000D02*
X74462349Y-101965000D01*
X69251651Y-103407000D02*
X69251651Y-100690000D01*
X70492651Y-103715000D02*
X70492651Y-100690000D01*
X68931651Y-98610000D02*
X68931651Y-96044000D01*
X69411651Y-98610000D02*
X69411651Y-95829000D01*
X70212651Y-103680000D02*
X70212651Y-100690000D01*
X70572651Y-98610000D02*
X70572651Y-95579000D01*
X67051651Y-101202000D02*
X67051651Y-98098000D01*
X67891651Y-102476000D02*
X67891651Y-96824000D01*
X74862349Y-102365000D02*
X74862349Y-101565000D01*
X69691651Y-103564000D02*
X69691651Y-100690000D01*
X67971651Y-102557000D02*
X67971651Y-96743000D01*
X67851651Y-102434000D02*
X67851651Y-96866000D01*
X69131651Y-103354000D02*
X69131651Y-100690000D01*
X70212651Y-98610000D02*
X70212651Y-95620000D01*
X68571651Y-98610000D02*
X68571651Y-96258000D01*
X69851651Y-98610000D02*
X69851651Y-95693000D01*
X66811651Y-100418000D02*
X66811651Y-98882000D01*
X69731651Y-98610000D02*
X69731651Y-95725000D01*
X68171651Y-102740000D02*
X68171651Y-96560000D01*
X70612651Y-98610000D02*
X70612651Y-95576000D01*
X70532651Y-98610000D02*
X70532651Y-95582000D01*
X69651651Y-98610000D02*
X69651651Y-95748000D01*
X69571651Y-98610000D02*
X69571651Y-95773000D01*
X67491651Y-101995000D02*
X67491651Y-97305000D01*
X68811651Y-103190000D02*
X68811651Y-100690000D01*
X69171651Y-98610000D02*
X69171651Y-95928000D01*
X67651651Y-102206000D02*
X67651651Y-97094000D01*
X70652651Y-103726000D02*
X70652651Y-95574000D01*
X69251651Y-98610000D02*
X69251651Y-95893000D01*
X69411651Y-103471000D02*
X69411651Y-100690000D01*
X69691651Y-98610000D02*
X69691651Y-95736000D01*
X69091651Y-98610000D02*
X69091651Y-95964000D01*
X68971651Y-103277000D02*
X68971651Y-100690000D01*
X69451651Y-98610000D02*
X69451651Y-95815000D01*
X68931651Y-103256000D02*
X68931651Y-100690000D01*
X69211651Y-98610000D02*
X69211651Y-95910000D01*
X69491651Y-103500000D02*
X69491651Y-100690000D01*
X69971651Y-103635000D02*
X69971651Y-100690000D01*
X68131651Y-102705000D02*
X68131651Y-96595000D01*
X68331651Y-102870000D02*
X68331651Y-96430000D01*
X67211651Y-101540000D02*
X67211651Y-97760000D01*
X67091651Y-101295000D02*
X67091651Y-98005000D01*
X68771651Y-103167000D02*
X68771651Y-100690000D01*
X68891651Y-98610000D02*
X68891651Y-96066000D01*
X70252651Y-98610000D02*
X70252651Y-95613000D01*
X70292651Y-98610000D02*
X70292651Y-95608000D01*
X67171651Y-101463000D02*
X67171651Y-97837000D01*
X69531651Y-98610000D02*
X69531651Y-95787000D01*
X70732651Y-103729000D02*
X70732651Y-95571000D01*
X67771651Y-102347000D02*
X67771651Y-96953000D01*
X67531651Y-102050000D02*
X67531651Y-97250000D01*
X69731651Y-103575000D02*
X69731651Y-100690000D01*
X69211651Y-103390000D02*
X69211651Y-100690000D01*
X70532651Y-103718000D02*
X70532651Y-100690000D01*
X70332651Y-98610000D02*
X70332651Y-95602000D01*
X68371651Y-102900000D02*
X68371651Y-96400000D01*
X69051651Y-103316000D02*
X69051651Y-100690000D01*
X70452651Y-98610000D02*
X70452651Y-95589000D01*
X67131651Y-101381000D02*
X67131651Y-97919000D01*
X68731651Y-98610000D02*
X68731651Y-96157000D01*
X69131651Y-98610000D02*
X69131651Y-95946000D01*
X67411651Y-101878000D02*
X67411651Y-97422000D01*
X67451651Y-101937000D02*
X67451651Y-97363000D01*
X67011651Y-101103000D02*
X67011651Y-98197000D01*
X70572651Y-103721000D02*
X70572651Y-100690000D01*
X70011651Y-103644000D02*
X70011651Y-100690000D01*
X66891651Y-100748000D02*
X66891651Y-98552000D01*
X70292651Y-103692000D02*
X70292651Y-100690000D01*
X69371651Y-98610000D02*
X69371651Y-95845000D01*
X69011651Y-98610000D02*
X69011651Y-96003000D01*
X70011651Y-98610000D02*
X70011651Y-95656000D01*
X69531651Y-103513000D02*
X69531651Y-100690000D01*
X67691651Y-102254000D02*
X67691651Y-97046000D01*
X70492651Y-98610000D02*
X70492651Y-95585000D01*
X70091651Y-98610000D02*
X70091651Y-95640000D01*
X68091651Y-102669000D02*
X68091651Y-96631000D01*
X70372651Y-103702000D02*
X70372651Y-100690000D01*
X70772651Y-103730000D02*
X70772651Y-95570000D01*
X70172651Y-98610000D02*
X70172651Y-95626000D01*
X68211651Y-102774000D02*
X68211651Y-96526000D01*
X69771651Y-98610000D02*
X69771651Y-95714000D01*
X66851651Y-100598000D02*
X66851651Y-98702000D01*
X70692651Y-103727000D02*
X70692651Y-95573000D01*
X70051651Y-98610000D02*
X70051651Y-95648000D01*
X70412651Y-103707000D02*
X70412651Y-100690000D01*
X68011651Y-102595000D02*
X68011651Y-96705000D01*
X68451651Y-102959000D02*
X68451651Y-96341000D01*
X69811651Y-98610000D02*
X69811651Y-95703000D01*
X67331651Y-101752000D02*
X67331651Y-97548000D01*
X68611651Y-98610000D02*
X68611651Y-96232000D01*
X68411651Y-102930000D02*
X68411651Y-96370000D01*
X68051651Y-102633000D02*
X68051651Y-96667000D01*
X70051651Y-103652000D02*
X70051651Y-100690000D01*
X69891651Y-103617000D02*
X69891651Y-100690000D01*
X69291651Y-103424000D02*
X69291651Y-100690000D01*
X68651651Y-98610000D02*
X68651651Y-96206000D01*
X69771651Y-103586000D02*
X69771651Y-100690000D01*
X69931651Y-98610000D02*
X69931651Y-95674000D01*
X70172651Y-103674000D02*
X70172651Y-100690000D01*
X68571651Y-103042000D02*
X68571651Y-100690000D01*
X69051651Y-98610000D02*
X69051651Y-95984000D01*
X68891651Y-103234000D02*
X68891651Y-100690000D01*
X69851651Y-103607000D02*
X69851651Y-100690000D01*
X67931651Y-102517000D02*
X67931651Y-96783000D01*
X69011651Y-103297000D02*
X69011651Y-100690000D01*
X69291651Y-98610000D02*
X69291651Y-95876000D01*
X68491651Y-102988000D02*
X68491651Y-96312000D01*
X70252651Y-103687000D02*
X70252651Y-100690000D01*
X68691651Y-98610000D02*
X68691651Y-96181000D01*
X68291651Y-102839000D02*
X68291651Y-96461000D01*
X66971651Y-100996000D02*
X66971651Y-98304000D01*
X68251651Y-102806000D02*
X68251651Y-96494000D01*
X68691651Y-103119000D02*
X68691651Y-100690000D01*
X69371651Y-103455000D02*
X69371651Y-100690000D01*
X70812651Y-103730000D02*
X70812651Y-95570000D01*
X68811651Y-98610000D02*
X68811651Y-96110000D01*
X68651651Y-103094000D02*
X68651651Y-100690000D01*
X66771651Y-100183000D02*
X66771651Y-99117000D01*
X68851651Y-98610000D02*
X68851651Y-96088000D01*
X68731651Y-103143000D02*
X68731651Y-100690000D01*
X67291651Y-101684000D02*
X67291651Y-97616000D01*
X70131651Y-103667000D02*
X70131651Y-100690000D01*
X67731651Y-102301000D02*
X67731651Y-96999000D01*
X69931651Y-103626000D02*
X69931651Y-100690000D01*
X68611651Y-103068000D02*
X68611651Y-100690000D01*
X69971651Y-98610000D02*
X69971651Y-95665000D01*
X69331651Y-98610000D02*
X69331651Y-95860000D01*
X67371651Y-101816000D02*
X67371651Y-97484000D01*
X74972651Y-99650000D02*
G75*
G03*
X74972651Y-99650000I-4120000J0D01*
G01*
%TO.C,J3*%
X89010000Y-96200000D02*
X86410000Y-96200000D01*
X90280000Y-96200000D02*
X91610000Y-96200000D01*
X86410000Y-96200000D02*
X86410000Y-98860000D01*
X89010000Y-96200000D02*
X89010000Y-98860000D01*
X91610000Y-96200000D02*
X91610000Y-97530000D01*
X89010000Y-98860000D02*
X86410000Y-98860000D01*
%TO.C,R6*%
X80182936Y-117430000D02*
X81637064Y-117430000D01*
X80182936Y-119250000D02*
X81637064Y-119250000D01*
%TO.C,C9*%
X90720000Y-119208748D02*
X90720000Y-120631252D01*
X88900000Y-119208748D02*
X88900000Y-120631252D01*
%TO.C,C4*%
X79591252Y-104930000D02*
X78168748Y-104930000D01*
X79591252Y-106750000D02*
X78168748Y-106750000D01*
%TO.C,R2*%
X108820000Y-115327064D02*
X108820000Y-113872936D01*
X107000000Y-115327064D02*
X107000000Y-113872936D01*
%TO.C,C2*%
X97128748Y-120010000D02*
X98551252Y-120010000D01*
X97128748Y-118190000D02*
X98551252Y-118190000D01*
%TO.C,R3*%
X87841500Y-108992564D02*
X87841500Y-107538436D01*
X86021500Y-108992564D02*
X86021500Y-107538436D01*
%TO.C,C1*%
X86156748Y-114255500D02*
X87579252Y-114255500D01*
X86156748Y-112435500D02*
X87579252Y-112435500D01*
%TD*%
M02*
