M48
; DRILL file {KiCad (6.0.7)} date Thu Apr 27 19:06:34 2023
; FORMAT={-:-/ absolute / metric / decimal}
; #@! TF.CreationDate,2023-04-27T19:06:34-04:00
; #@! TF.GenerationSoftware,Kicad,Pcbnew,(6.0.7)
; #@! TF.FileFunction,MixedPlating,1,2
FMAT,2
METRIC
; #@! TA.AperFunction,Plated,PTH,ComponentDrill
T1C1.000
%
G90
G05
T1
X69.603Y-99.65
X69.797Y-118.48
X72.103Y-99.65
X72.297Y-118.48
X77.77Y-101.87
X77.973Y-113.472
X80.513Y-113.472
X87.74Y-97.53
X87.93Y-101.87
X90.28Y-97.53
X92.212Y-108.339
X92.212Y-110.879
X92.212Y-113.419
X92.212Y-115.959
X99.832Y-108.339
X99.832Y-110.879
X99.832Y-113.419
X99.832Y-115.959
X108.22Y-102.07
X108.22Y-109.69
X112.22Y-117.535
X112.22Y-120.075
T0
M30
