%TF.GenerationSoftware,KiCad,Pcbnew,(6.0.7)*%
%TF.CreationDate,2023-04-27T19:06:34-04:00*%
%TF.ProjectId,sMeter Daughter Board v1,734d6574-6572-4204-9461-756768746572,rev?*%
%TF.SameCoordinates,Original*%
%TF.FileFunction,Drillmap*%
%TF.FilePolarity,Positive*%
%FSLAX45Y45*%
G04 Gerber Fmt 4.5, Leading zero omitted, Abs format (unit mm)*
G04 Created by KiCad (PCBNEW (6.0.7)) date 2023-04-27 19:06:34*
%MOMM*%
%LPD*%
G01*
G04 APERTURE LIST*
%ADD10C,0.100000*%
%ADD11C,0.200000*%
G04 APERTURE END LIST*
D10*
X6572000Y-9239600D02*
X11526500Y-9239600D01*
X11526500Y-9239600D02*
X11526500Y-12409000D01*
X11526500Y-12409000D02*
X6572000Y-12409000D01*
X6572000Y-12409000D02*
X6572000Y-9239600D01*
D11*
D10*
X6910265Y-9915000D02*
X7010265Y-10015000D01*
X7010265Y-9915000D02*
X6910265Y-10015000D01*
X6929735Y-11798000D02*
X7029735Y-11898000D01*
X7029735Y-11798000D02*
X6929735Y-11898000D01*
X7160265Y-9915000D02*
X7260265Y-10015000D01*
X7260265Y-9915000D02*
X7160265Y-10015000D01*
X7179735Y-11798000D02*
X7279735Y-11898000D01*
X7279735Y-11798000D02*
X7179735Y-11898000D01*
X7727000Y-10137000D02*
X7827000Y-10237000D01*
X7827000Y-10137000D02*
X7727000Y-10237000D01*
X7747300Y-11297250D02*
X7847300Y-11397250D01*
X7847300Y-11297250D02*
X7747300Y-11397250D01*
X8001300Y-11297250D02*
X8101300Y-11397250D01*
X8101300Y-11297250D02*
X8001300Y-11397250D01*
X8724000Y-9703000D02*
X8824000Y-9803000D01*
X8824000Y-9703000D02*
X8724000Y-9803000D01*
X8743000Y-10137000D02*
X8843000Y-10237000D01*
X8843000Y-10137000D02*
X8743000Y-10237000D01*
X8978000Y-9703000D02*
X9078000Y-9803000D01*
X9078000Y-9703000D02*
X8978000Y-9803000D01*
X9171200Y-10783900D02*
X9271200Y-10883900D01*
X9271200Y-10783900D02*
X9171200Y-10883900D01*
X9171200Y-11037900D02*
X9271200Y-11137900D01*
X9271200Y-11037900D02*
X9171200Y-11137900D01*
X9171200Y-11291900D02*
X9271200Y-11391900D01*
X9271200Y-11291900D02*
X9171200Y-11391900D01*
X9171200Y-11545900D02*
X9271200Y-11645900D01*
X9271200Y-11545900D02*
X9171200Y-11645900D01*
X9933200Y-10783900D02*
X10033200Y-10883900D01*
X10033200Y-10783900D02*
X9933200Y-10883900D01*
X9933200Y-11037900D02*
X10033200Y-11137900D01*
X10033200Y-11037900D02*
X9933200Y-11137900D01*
X9933200Y-11291900D02*
X10033200Y-11391900D01*
X10033200Y-11291900D02*
X9933200Y-11391900D01*
X9933200Y-11545900D02*
X10033200Y-11645900D01*
X10033200Y-11545900D02*
X9933200Y-11645900D01*
X10772000Y-10157000D02*
X10872000Y-10257000D01*
X10872000Y-10157000D02*
X10772000Y-10257000D01*
X10772000Y-10919000D02*
X10872000Y-11019000D01*
X10872000Y-10919000D02*
X10772000Y-11019000D01*
X11172000Y-11703500D02*
X11272000Y-11803500D01*
X11272000Y-11703500D02*
X11172000Y-11803500D01*
X11172000Y-11957500D02*
X11272000Y-12057500D01*
X11272000Y-11957500D02*
X11172000Y-12057500D01*
D11*
X6824619Y-12724476D02*
X6824619Y-12524476D01*
X6872238Y-12524476D01*
X6900809Y-12534000D01*
X6919857Y-12553048D01*
X6929381Y-12572095D01*
X6938905Y-12610190D01*
X6938905Y-12638762D01*
X6929381Y-12676857D01*
X6919857Y-12695905D01*
X6900809Y-12714952D01*
X6872238Y-12724476D01*
X6824619Y-12724476D01*
X7024619Y-12724476D02*
X7024619Y-12591143D01*
X7024619Y-12629238D02*
X7034143Y-12610190D01*
X7043667Y-12600667D01*
X7062714Y-12591143D01*
X7081762Y-12591143D01*
X7148428Y-12724476D02*
X7148428Y-12591143D01*
X7148428Y-12524476D02*
X7138905Y-12534000D01*
X7148428Y-12543524D01*
X7157952Y-12534000D01*
X7148428Y-12524476D01*
X7148428Y-12543524D01*
X7272238Y-12724476D02*
X7253190Y-12714952D01*
X7243667Y-12695905D01*
X7243667Y-12524476D01*
X7377000Y-12724476D02*
X7357952Y-12714952D01*
X7348428Y-12695905D01*
X7348428Y-12524476D01*
X7605571Y-12724476D02*
X7605571Y-12524476D01*
X7672238Y-12667333D01*
X7738905Y-12524476D01*
X7738905Y-12724476D01*
X7919857Y-12724476D02*
X7919857Y-12619714D01*
X7910333Y-12600667D01*
X7891286Y-12591143D01*
X7853190Y-12591143D01*
X7834143Y-12600667D01*
X7919857Y-12714952D02*
X7900809Y-12724476D01*
X7853190Y-12724476D01*
X7834143Y-12714952D01*
X7824619Y-12695905D01*
X7824619Y-12676857D01*
X7834143Y-12657809D01*
X7853190Y-12648286D01*
X7900809Y-12648286D01*
X7919857Y-12638762D01*
X8015095Y-12591143D02*
X8015095Y-12791143D01*
X8015095Y-12600667D02*
X8034143Y-12591143D01*
X8072238Y-12591143D01*
X8091286Y-12600667D01*
X8100809Y-12610190D01*
X8110333Y-12629238D01*
X8110333Y-12686381D01*
X8100809Y-12705428D01*
X8091286Y-12714952D01*
X8072238Y-12724476D01*
X8034143Y-12724476D01*
X8015095Y-12714952D01*
X8196048Y-12705428D02*
X8205571Y-12714952D01*
X8196048Y-12724476D01*
X8186524Y-12714952D01*
X8196048Y-12705428D01*
X8196048Y-12724476D01*
X8196048Y-12600667D02*
X8205571Y-12610190D01*
X8196048Y-12619714D01*
X8186524Y-12610190D01*
X8196048Y-12600667D01*
X8196048Y-12619714D01*
D10*
X6467000Y-13004000D02*
X6567000Y-13104000D01*
X6567000Y-13004000D02*
X6467000Y-13104000D01*
D11*
X6929381Y-13144476D02*
X6815095Y-13144476D01*
X6872238Y-13144476D02*
X6872238Y-12944476D01*
X6853190Y-12973048D01*
X6834143Y-12992095D01*
X6815095Y-13001619D01*
X7015095Y-13125428D02*
X7024619Y-13134952D01*
X7015095Y-13144476D01*
X7005571Y-13134952D01*
X7015095Y-13125428D01*
X7015095Y-13144476D01*
X7148428Y-12944476D02*
X7167476Y-12944476D01*
X7186524Y-12954000D01*
X7196048Y-12963524D01*
X7205571Y-12982571D01*
X7215095Y-13020667D01*
X7215095Y-13068286D01*
X7205571Y-13106381D01*
X7196048Y-13125428D01*
X7186524Y-13134952D01*
X7167476Y-13144476D01*
X7148428Y-13144476D01*
X7129381Y-13134952D01*
X7119857Y-13125428D01*
X7110333Y-13106381D01*
X7100809Y-13068286D01*
X7100809Y-13020667D01*
X7110333Y-12982571D01*
X7119857Y-12963524D01*
X7129381Y-12954000D01*
X7148428Y-12944476D01*
X7338905Y-12944476D02*
X7357952Y-12944476D01*
X7377000Y-12954000D01*
X7386524Y-12963524D01*
X7396048Y-12982571D01*
X7405571Y-13020667D01*
X7405571Y-13068286D01*
X7396048Y-13106381D01*
X7386524Y-13125428D01*
X7377000Y-13134952D01*
X7357952Y-13144476D01*
X7338905Y-13144476D01*
X7319857Y-13134952D01*
X7310333Y-13125428D01*
X7300809Y-13106381D01*
X7291286Y-13068286D01*
X7291286Y-13020667D01*
X7300809Y-12982571D01*
X7310333Y-12963524D01*
X7319857Y-12954000D01*
X7338905Y-12944476D01*
X7529381Y-12944476D02*
X7548428Y-12944476D01*
X7567476Y-12954000D01*
X7577000Y-12963524D01*
X7586524Y-12982571D01*
X7596048Y-13020667D01*
X7596048Y-13068286D01*
X7586524Y-13106381D01*
X7577000Y-13125428D01*
X7567476Y-13134952D01*
X7548428Y-13144476D01*
X7529381Y-13144476D01*
X7510333Y-13134952D01*
X7500809Y-13125428D01*
X7491286Y-13106381D01*
X7481762Y-13068286D01*
X7481762Y-13020667D01*
X7491286Y-12982571D01*
X7500809Y-12963524D01*
X7510333Y-12954000D01*
X7529381Y-12944476D01*
X7681762Y-13144476D02*
X7681762Y-13011143D01*
X7681762Y-13030190D02*
X7691286Y-13020667D01*
X7710333Y-13011143D01*
X7738905Y-13011143D01*
X7757952Y-13020667D01*
X7767476Y-13039714D01*
X7767476Y-13144476D01*
X7767476Y-13039714D02*
X7777000Y-13020667D01*
X7796048Y-13011143D01*
X7824619Y-13011143D01*
X7843667Y-13020667D01*
X7853190Y-13039714D01*
X7853190Y-13144476D01*
X7948428Y-13144476D02*
X7948428Y-13011143D01*
X7948428Y-13030190D02*
X7957952Y-13020667D01*
X7977000Y-13011143D01*
X8005571Y-13011143D01*
X8024619Y-13020667D01*
X8034143Y-13039714D01*
X8034143Y-13144476D01*
X8034143Y-13039714D02*
X8043667Y-13020667D01*
X8062714Y-13011143D01*
X8091286Y-13011143D01*
X8110333Y-13020667D01*
X8119857Y-13039714D01*
X8119857Y-13144476D01*
X8510333Y-12934952D02*
X8338905Y-13192095D01*
X8767476Y-12944476D02*
X8786524Y-12944476D01*
X8805571Y-12954000D01*
X8815095Y-12963524D01*
X8824619Y-12982571D01*
X8834143Y-13020667D01*
X8834143Y-13068286D01*
X8824619Y-13106381D01*
X8815095Y-13125428D01*
X8805571Y-13134952D01*
X8786524Y-13144476D01*
X8767476Y-13144476D01*
X8748429Y-13134952D01*
X8738905Y-13125428D01*
X8729381Y-13106381D01*
X8719857Y-13068286D01*
X8719857Y-13020667D01*
X8729381Y-12982571D01*
X8738905Y-12963524D01*
X8748429Y-12954000D01*
X8767476Y-12944476D01*
X8919857Y-13125428D02*
X8929381Y-13134952D01*
X8919857Y-13144476D01*
X8910333Y-13134952D01*
X8919857Y-13125428D01*
X8919857Y-13144476D01*
X9053190Y-12944476D02*
X9072238Y-12944476D01*
X9091286Y-12954000D01*
X9100810Y-12963524D01*
X9110333Y-12982571D01*
X9119857Y-13020667D01*
X9119857Y-13068286D01*
X9110333Y-13106381D01*
X9100810Y-13125428D01*
X9091286Y-13134952D01*
X9072238Y-13144476D01*
X9053190Y-13144476D01*
X9034143Y-13134952D01*
X9024619Y-13125428D01*
X9015095Y-13106381D01*
X9005571Y-13068286D01*
X9005571Y-13020667D01*
X9015095Y-12982571D01*
X9024619Y-12963524D01*
X9034143Y-12954000D01*
X9053190Y-12944476D01*
X9186524Y-12944476D02*
X9310333Y-12944476D01*
X9243667Y-13020667D01*
X9272238Y-13020667D01*
X9291286Y-13030190D01*
X9300810Y-13039714D01*
X9310333Y-13058762D01*
X9310333Y-13106381D01*
X9300810Y-13125428D01*
X9291286Y-13134952D01*
X9272238Y-13144476D01*
X9215095Y-13144476D01*
X9196048Y-13134952D01*
X9186524Y-13125428D01*
X9405571Y-13144476D02*
X9443667Y-13144476D01*
X9462714Y-13134952D01*
X9472238Y-13125428D01*
X9491286Y-13096857D01*
X9500810Y-13058762D01*
X9500810Y-12982571D01*
X9491286Y-12963524D01*
X9481762Y-12954000D01*
X9462714Y-12944476D01*
X9424619Y-12944476D01*
X9405571Y-12954000D01*
X9396048Y-12963524D01*
X9386524Y-12982571D01*
X9386524Y-13030190D01*
X9396048Y-13049238D01*
X9405571Y-13058762D01*
X9424619Y-13068286D01*
X9462714Y-13068286D01*
X9481762Y-13058762D01*
X9491286Y-13049238D01*
X9500810Y-13030190D01*
X9672238Y-13011143D02*
X9672238Y-13144476D01*
X9624619Y-12934952D02*
X9577000Y-13077809D01*
X9700810Y-13077809D01*
X9767476Y-12944476D02*
X9767476Y-12982571D01*
X9843667Y-12944476D02*
X9843667Y-12982571D01*
X10138905Y-13220667D02*
X10129381Y-13211143D01*
X10110333Y-13182571D01*
X10100810Y-13163524D01*
X10091286Y-13134952D01*
X10081762Y-13087333D01*
X10081762Y-13049238D01*
X10091286Y-13001619D01*
X10100810Y-12973048D01*
X10110333Y-12954000D01*
X10129381Y-12925428D01*
X10138905Y-12915905D01*
X10205571Y-12963524D02*
X10215095Y-12954000D01*
X10234143Y-12944476D01*
X10281762Y-12944476D01*
X10300810Y-12954000D01*
X10310333Y-12963524D01*
X10319857Y-12982571D01*
X10319857Y-13001619D01*
X10310333Y-13030190D01*
X10196048Y-13144476D01*
X10319857Y-13144476D01*
X10396048Y-12963524D02*
X10405571Y-12954000D01*
X10424619Y-12944476D01*
X10472238Y-12944476D01*
X10491286Y-12954000D01*
X10500810Y-12963524D01*
X10510333Y-12982571D01*
X10510333Y-13001619D01*
X10500810Y-13030190D01*
X10386524Y-13144476D01*
X10510333Y-13144476D01*
X10748429Y-13144476D02*
X10748429Y-12944476D01*
X10834143Y-13144476D02*
X10834143Y-13039714D01*
X10824619Y-13020667D01*
X10805571Y-13011143D01*
X10777000Y-13011143D01*
X10757952Y-13020667D01*
X10748429Y-13030190D01*
X10957952Y-13144476D02*
X10938905Y-13134952D01*
X10929381Y-13125428D01*
X10919857Y-13106381D01*
X10919857Y-13049238D01*
X10929381Y-13030190D01*
X10938905Y-13020667D01*
X10957952Y-13011143D01*
X10986524Y-13011143D01*
X11005571Y-13020667D01*
X11015095Y-13030190D01*
X11024619Y-13049238D01*
X11024619Y-13106381D01*
X11015095Y-13125428D01*
X11005571Y-13134952D01*
X10986524Y-13144476D01*
X10957952Y-13144476D01*
X11138905Y-13144476D02*
X11119857Y-13134952D01*
X11110333Y-13115905D01*
X11110333Y-12944476D01*
X11291286Y-13134952D02*
X11272238Y-13144476D01*
X11234143Y-13144476D01*
X11215095Y-13134952D01*
X11205571Y-13115905D01*
X11205571Y-13039714D01*
X11215095Y-13020667D01*
X11234143Y-13011143D01*
X11272238Y-13011143D01*
X11291286Y-13020667D01*
X11300809Y-13039714D01*
X11300809Y-13058762D01*
X11205571Y-13077809D01*
X11377000Y-13134952D02*
X11396048Y-13144476D01*
X11434143Y-13144476D01*
X11453190Y-13134952D01*
X11462714Y-13115905D01*
X11462714Y-13106381D01*
X11453190Y-13087333D01*
X11434143Y-13077809D01*
X11405571Y-13077809D01*
X11386524Y-13068286D01*
X11377000Y-13049238D01*
X11377000Y-13039714D01*
X11386524Y-13020667D01*
X11405571Y-13011143D01*
X11434143Y-13011143D01*
X11453190Y-13020667D01*
X11529381Y-13220667D02*
X11538905Y-13211143D01*
X11557952Y-13182571D01*
X11567476Y-13163524D01*
X11577000Y-13134952D01*
X11586524Y-13087333D01*
X11586524Y-13049238D01*
X11577000Y-13001619D01*
X11567476Y-12973048D01*
X11557952Y-12954000D01*
X11538905Y-12925428D01*
X11529381Y-12915905D01*
M02*
