%TF.GenerationSoftware,KiCad,Pcbnew,(6.0.7)*%
%TF.CreationDate,2023-04-27T19:06:35-04:00*%
%TF.ProjectId,sMeter Daughter Board v1,734d6574-6572-4204-9461-756768746572,rev?*%
%TF.SameCoordinates,Original*%
%TF.FileFunction,Soldermask,Top*%
%TF.FilePolarity,Negative*%
%FSLAX46Y46*%
G04 Gerber Fmt 4.6, Leading zero omitted, Abs format (unit mm)*
G04 Created by KiCad (PCBNEW (6.0.7)) date 2023-04-27 19:06:35*
%MOMM*%
%LPD*%
G01*
G04 APERTURE LIST*
G04 Aperture macros list*
%AMRoundRect*
0 Rectangle with rounded corners*
0 $1 Rounding radius*
0 $2 $3 $4 $5 $6 $7 $8 $9 X,Y pos of 4 corners*
0 Add a 4 corners polygon primitive as box body*
4,1,4,$2,$3,$4,$5,$6,$7,$8,$9,$2,$3,0*
0 Add four circle primitives for the rounded corners*
1,1,$1+$1,$2,$3*
1,1,$1+$1,$4,$5*
1,1,$1+$1,$6,$7*
1,1,$1+$1,$8,$9*
0 Add four rect primitives between the rounded corners*
20,1,$1+$1,$2,$3,$4,$5,0*
20,1,$1+$1,$4,$5,$6,$7,0*
20,1,$1+$1,$6,$7,$8,$9,0*
20,1,$1+$1,$8,$9,$2,$3,0*%
G04 Aperture macros list end*
%ADD10C,2.000000*%
%ADD11RoundRect,0.250000X-0.625000X0.312500X-0.625000X-0.312500X0.625000X-0.312500X0.625000X0.312500X0*%
%ADD12O,1.600000X4.000000*%
%ADD13RoundRect,0.250000X0.312500X0.625000X-0.312500X0.625000X-0.312500X-0.625000X0.312500X-0.625000X0*%
%ADD14O,4.000000X1.600000*%
%ADD15RoundRect,0.250000X-0.650000X0.325000X-0.650000X-0.325000X0.650000X-0.325000X0.650000X0.325000X0*%
%ADD16RoundRect,0.250000X0.650000X-0.325000X0.650000X0.325000X-0.650000X0.325000X-0.650000X-0.325000X0*%
%ADD17RoundRect,0.150000X-0.825000X-0.150000X0.825000X-0.150000X0.825000X0.150000X-0.825000X0.150000X0*%
%ADD18RoundRect,0.250000X-0.312500X-0.625000X0.312500X-0.625000X0.312500X0.625000X-0.312500X0.625000X0*%
%ADD19RoundRect,0.250000X0.325000X0.650000X-0.325000X0.650000X-0.325000X-0.650000X0.325000X-0.650000X0*%
%ADD20RoundRect,0.250000X0.625000X-0.312500X0.625000X0.312500X-0.625000X0.312500X-0.625000X-0.312500X0*%
%ADD21RoundRect,0.250000X-0.325000X-0.650000X0.325000X-0.650000X0.325000X0.650000X-0.325000X0.650000X0*%
G04 APERTURE END LIST*
D10*
%TO.C,*%
X82030000Y-121780000D03*
%TD*%
%TO.C,*%
X92840000Y-101820000D03*
%TD*%
D11*
%TO.C,R5*%
X104160000Y-102577500D03*
X104160000Y-105502500D03*
%TD*%
D12*
%TO.C,D1*%
X108220000Y-109690000D03*
X108220000Y-102070000D03*
%TD*%
D13*
%TO.C,R4*%
X84393500Y-109408500D03*
X81468500Y-109408500D03*
%TD*%
D14*
%TO.C,J2*%
X112220000Y-117535000D03*
X112220000Y-120075000D03*
%TD*%
D13*
%TO.C,R1*%
X104132500Y-119060000D03*
X101207500Y-119060000D03*
%TD*%
D15*
%TO.C,C10*%
X87190000Y-118245000D03*
X87190000Y-121195000D03*
%TD*%
%TO.C,C3*%
X104710000Y-113085000D03*
X104710000Y-116035000D03*
%TD*%
D16*
%TO.C,C7*%
X101370000Y-105515000D03*
X101370000Y-102565000D03*
%TD*%
%TO.C,C8*%
X98620000Y-105555000D03*
X98620000Y-102605000D03*
%TD*%
D12*
%TO.C,J1*%
X77973000Y-113472500D03*
X80513000Y-113472500D03*
%TD*%
D14*
%TO.C,U1*%
X92212000Y-108339000D03*
X92212000Y-110879000D03*
X92212000Y-113419000D03*
X92212000Y-115959000D03*
X99832000Y-115959000D03*
X99832000Y-113419000D03*
X99832000Y-110879000D03*
X99832000Y-108339000D03*
%TD*%
D17*
%TO.C,U2*%
X69855000Y-105965000D03*
X69855000Y-107235000D03*
X69855000Y-108505000D03*
X69855000Y-109775000D03*
X74805000Y-109775000D03*
X74805000Y-108505000D03*
X74805000Y-107235000D03*
X74805000Y-105965000D03*
%TD*%
D14*
%TO.C,D2*%
X77770000Y-101870000D03*
X87930000Y-101870000D03*
%TD*%
D12*
%TO.C,C5*%
X69797349Y-118480000D03*
X72297349Y-118480000D03*
%TD*%
%TO.C,C6*%
X72102651Y-99650000D03*
X69602651Y-99650000D03*
%TD*%
%TO.C,J3*%
X90280000Y-97530000D03*
X87740000Y-97530000D03*
%TD*%
D18*
%TO.C,R6*%
X79447500Y-118340000D03*
X82372500Y-118340000D03*
%TD*%
D15*
%TO.C,C9*%
X89810000Y-118445000D03*
X89810000Y-121395000D03*
%TD*%
D19*
%TO.C,C4*%
X80355000Y-105840000D03*
X77405000Y-105840000D03*
%TD*%
D20*
%TO.C,R2*%
X107910000Y-116062500D03*
X107910000Y-113137500D03*
%TD*%
D21*
%TO.C,C2*%
X96365000Y-119100000D03*
X99315000Y-119100000D03*
%TD*%
D20*
%TO.C,R3*%
X86931500Y-109728000D03*
X86931500Y-106803000D03*
%TD*%
D10*
%TO.C,*%
X108140000Y-96420000D03*
%TD*%
D21*
%TO.C,C1*%
X85393000Y-113345500D03*
X88343000Y-113345500D03*
%TD*%
M02*
