%TF.GenerationSoftware,KiCad,Pcbnew,(6.0.7)*%
%TF.CreationDate,2023-04-27T19:06:35-04:00*%
%TF.ProjectId,sMeter Daughter Board v1,734d6574-6572-4204-9461-756768746572,rev?*%
%TF.SameCoordinates,Original*%
%TF.FileFunction,Copper,L1,Top*%
%TF.FilePolarity,Positive*%
%FSLAX46Y46*%
G04 Gerber Fmt 4.6, Leading zero omitted, Abs format (unit mm)*
G04 Created by KiCad (PCBNEW (6.0.7)) date 2023-04-27 19:06:35*
%MOMM*%
%LPD*%
G01*
G04 APERTURE LIST*
G04 Aperture macros list*
%AMRoundRect*
0 Rectangle with rounded corners*
0 $1 Rounding radius*
0 $2 $3 $4 $5 $6 $7 $8 $9 X,Y pos of 4 corners*
0 Add a 4 corners polygon primitive as box body*
4,1,4,$2,$3,$4,$5,$6,$7,$8,$9,$2,$3,0*
0 Add four circle primitives for the rounded corners*
1,1,$1+$1,$2,$3*
1,1,$1+$1,$4,$5*
1,1,$1+$1,$6,$7*
1,1,$1+$1,$8,$9*
0 Add four rect primitives between the rounded corners*
20,1,$1+$1,$2,$3,$4,$5,0*
20,1,$1+$1,$4,$5,$6,$7,0*
20,1,$1+$1,$6,$7,$8,$9,0*
20,1,$1+$1,$8,$9,$2,$3,0*%
G04 Aperture macros list end*
%TA.AperFunction,SMDPad,CuDef*%
%ADD10C,2.000000*%
%TD*%
%TA.AperFunction,SMDPad,CuDef*%
%ADD11RoundRect,0.250000X-0.625000X0.312500X-0.625000X-0.312500X0.625000X-0.312500X0.625000X0.312500X0*%
%TD*%
%TA.AperFunction,ComponentPad*%
%ADD12O,1.600000X4.000000*%
%TD*%
%TA.AperFunction,SMDPad,CuDef*%
%ADD13RoundRect,0.250000X0.312500X0.625000X-0.312500X0.625000X-0.312500X-0.625000X0.312500X-0.625000X0*%
%TD*%
%TA.AperFunction,ComponentPad*%
%ADD14O,4.000000X1.600000*%
%TD*%
%TA.AperFunction,SMDPad,CuDef*%
%ADD15RoundRect,0.250000X-0.650000X0.325000X-0.650000X-0.325000X0.650000X-0.325000X0.650000X0.325000X0*%
%TD*%
%TA.AperFunction,SMDPad,CuDef*%
%ADD16RoundRect,0.250000X0.650000X-0.325000X0.650000X0.325000X-0.650000X0.325000X-0.650000X-0.325000X0*%
%TD*%
%TA.AperFunction,SMDPad,CuDef*%
%ADD17RoundRect,0.150000X-0.825000X-0.150000X0.825000X-0.150000X0.825000X0.150000X-0.825000X0.150000X0*%
%TD*%
%TA.AperFunction,SMDPad,CuDef*%
%ADD18RoundRect,0.250000X-0.312500X-0.625000X0.312500X-0.625000X0.312500X0.625000X-0.312500X0.625000X0*%
%TD*%
%TA.AperFunction,SMDPad,CuDef*%
%ADD19RoundRect,0.250000X0.325000X0.650000X-0.325000X0.650000X-0.325000X-0.650000X0.325000X-0.650000X0*%
%TD*%
%TA.AperFunction,SMDPad,CuDef*%
%ADD20RoundRect,0.250000X0.625000X-0.312500X0.625000X0.312500X-0.625000X0.312500X-0.625000X-0.312500X0*%
%TD*%
%TA.AperFunction,SMDPad,CuDef*%
%ADD21RoundRect,0.250000X-0.325000X-0.650000X0.325000X-0.650000X0.325000X0.650000X-0.325000X0.650000X0*%
%TD*%
%TA.AperFunction,Conductor*%
%ADD22C,0.550000*%
%TD*%
G04 APERTURE END LIST*
D10*
%TO.P,,1,Pin_1*%
%TO.N,GND*%
X82030000Y-121780000D03*
%TD*%
%TO.P,,1,Pin_1*%
%TO.N,GND*%
X92840000Y-101820000D03*
%TD*%
D11*
%TO.P,R5,1*%
%TO.N,12V*%
X104160000Y-102577500D03*
%TO.P,R5,2*%
%TO.N,SM_12V*%
X104160000Y-105502500D03*
%TD*%
D12*
%TO.P,D1,1,K*%
%TO.N,Net-(C3-Pad1)*%
X108220000Y-109690000D03*
%TO.P,D1,2,A*%
%TO.N,Net-(D1-Pad2)*%
X108220000Y-102070000D03*
%TD*%
D13*
%TO.P,R4,1*%
%TO.N,Net-(R3-Pad1)*%
X84393500Y-109408500D03*
%TO.P,R4,2*%
%TO.N,GND*%
X81468500Y-109408500D03*
%TD*%
D14*
%TO.P,J2,1,Pin_1*%
%TO.N,Net-(C3-Pad1)*%
X112220000Y-117535000D03*
%TO.P,J2,2,Pin_2*%
%TO.N,GND*%
X112220000Y-120075000D03*
%TD*%
D13*
%TO.P,R1,1*%
%TO.N,GND*%
X104132500Y-119060000D03*
%TO.P,R1,2*%
%TO.N,Net-(C2-Pad2)*%
X101207500Y-119060000D03*
%TD*%
D15*
%TO.P,C10,1*%
%TO.N,SM_N12V*%
X87190000Y-118245000D03*
%TO.P,C10,2*%
%TO.N,GND*%
X87190000Y-121195000D03*
%TD*%
%TO.P,C3,1*%
%TO.N,Net-(C3-Pad1)*%
X104710000Y-113085000D03*
%TO.P,C3,2*%
%TO.N,GND*%
X104710000Y-116035000D03*
%TD*%
D16*
%TO.P,C7,1*%
%TO.N,SM_12V*%
X101370000Y-105515000D03*
%TO.P,C7,2*%
%TO.N,GND*%
X101370000Y-102565000D03*
%TD*%
%TO.P,C8,1*%
%TO.N,SM_12V*%
X98620000Y-105555000D03*
%TO.P,C8,2*%
%TO.N,GND*%
X98620000Y-102605000D03*
%TD*%
D12*
%TO.P,J1,1,Pin_1*%
%TO.N,GND*%
X77973000Y-113472500D03*
%TO.P,J1,2,Pin_2*%
%TO.N,Net-(C1-Pad1)*%
X80513000Y-113472500D03*
%TD*%
D14*
%TO.P,U1,1*%
%TO.N,Net-(C2-Pad1)*%
X92212000Y-108339000D03*
%TO.P,U1,2,-*%
%TO.N,Net-(R3-Pad1)*%
X92212000Y-110879000D03*
%TO.P,U1,3,+*%
%TO.N,Net-(C1-Pad2)*%
X92212000Y-113419000D03*
%TO.P,U1,4,V-*%
%TO.N,SM_N12V*%
X92212000Y-115959000D03*
%TO.P,U1,5,+*%
%TO.N,Net-(C2-Pad2)*%
X99832000Y-115959000D03*
%TO.P,U1,6,-*%
%TO.N,Net-(C3-Pad1)*%
X99832000Y-113419000D03*
%TO.P,U1,7*%
%TO.N,Net-(D1-Pad2)*%
X99832000Y-110879000D03*
%TO.P,U1,8,V+*%
%TO.N,SM_12V*%
X99832000Y-108339000D03*
%TD*%
D17*
%TO.P,U2,1,NC*%
%TO.N,unconnected-(U2-Pad1)*%
X69855000Y-105965000D03*
%TO.P,U2,2,CAP+*%
%TO.N,Net-(C6-Pad1)*%
X69855000Y-107235000D03*
%TO.P,U2,3,GND*%
%TO.N,GND*%
X69855000Y-108505000D03*
%TO.P,U2,4,CAP-*%
%TO.N,Net-(C6-Pad2)*%
X69855000Y-109775000D03*
%TO.P,U2,5,VOUT*%
%TO.N,-12V*%
X74805000Y-109775000D03*
%TO.P,U2,6,LV*%
%TO.N,unconnected-(U2-Pad6)*%
X74805000Y-108505000D03*
%TO.P,U2,7,OSC*%
%TO.N,unconnected-(U2-Pad7)*%
X74805000Y-107235000D03*
%TO.P,U2,8,V+*%
%TO.N,12V*%
X74805000Y-105965000D03*
%TD*%
D14*
%TO.P,D2,1,K*%
%TO.N,12V*%
X77770000Y-101870000D03*
%TO.P,D2,2,A*%
%TO.N,Net-(D2-Pad2)*%
X87930000Y-101870000D03*
%TD*%
D12*
%TO.P,C5,1*%
%TO.N,GND*%
X69797349Y-118480000D03*
%TO.P,C5,2*%
%TO.N,-12V*%
X72297349Y-118480000D03*
%TD*%
%TO.P,C6,1*%
%TO.N,Net-(C6-Pad1)*%
X72102651Y-99650000D03*
%TO.P,C6,2*%
%TO.N,Net-(C6-Pad2)*%
X69602651Y-99650000D03*
%TD*%
%TO.P,J3,1,Pin_1*%
%TO.N,GND*%
X90280000Y-97530000D03*
%TO.P,J3,2,Pin_2*%
%TO.N,Net-(D2-Pad2)*%
X87740000Y-97530000D03*
%TD*%
D18*
%TO.P,R6,1*%
%TO.N,-12V*%
X79447500Y-118340000D03*
%TO.P,R6,2*%
%TO.N,SM_N12V*%
X82372500Y-118340000D03*
%TD*%
D15*
%TO.P,C9,1*%
%TO.N,SM_N12V*%
X89810000Y-118445000D03*
%TO.P,C9,2*%
%TO.N,GND*%
X89810000Y-121395000D03*
%TD*%
D19*
%TO.P,C4,1*%
%TO.N,GND*%
X80355000Y-105840000D03*
%TO.P,C4,2*%
%TO.N,12V*%
X77405000Y-105840000D03*
%TD*%
D20*
%TO.P,R2,1*%
%TO.N,GND*%
X107910000Y-116062500D03*
%TO.P,R2,2*%
%TO.N,Net-(C3-Pad1)*%
X107910000Y-113137500D03*
%TD*%
D21*
%TO.P,C2,1*%
%TO.N,Net-(C2-Pad1)*%
X96365000Y-119100000D03*
%TO.P,C2,2*%
%TO.N,Net-(C2-Pad2)*%
X99315000Y-119100000D03*
%TD*%
D20*
%TO.P,R3,1*%
%TO.N,Net-(R3-Pad1)*%
X86931500Y-109728000D03*
%TO.P,R3,2*%
%TO.N,Net-(C2-Pad1)*%
X86931500Y-106803000D03*
%TD*%
D10*
%TO.P,,1,Pin_1*%
%TO.N,GND*%
X108140000Y-96420000D03*
%TD*%
D21*
%TO.P,C1,1*%
%TO.N,Net-(C1-Pad1)*%
X85393000Y-113345500D03*
%TO.P,C1,2*%
%TO.N,Net-(C1-Pad2)*%
X88343000Y-113345500D03*
%TD*%
D22*
%TO.N,Net-(C3-Pad1)*%
X109407500Y-113137500D02*
X107910000Y-113137500D01*
X112220000Y-115950000D02*
X109407500Y-113137500D01*
X112220000Y-117535000D02*
X112220000Y-115950000D01*
X107857500Y-113085000D02*
X107910000Y-113137500D01*
X104710000Y-113085000D02*
X107857500Y-113085000D01*
X104376000Y-113419000D02*
X104710000Y-113085000D01*
X99832000Y-113419000D02*
X104376000Y-113419000D01*
X108220000Y-112827500D02*
X107910000Y-113137500D01*
X108220000Y-109690000D02*
X108220000Y-112827500D01*
%TO.N,Net-(D1-Pad2)*%
X108220000Y-104730000D02*
X108220000Y-102070000D01*
X108070000Y-105250000D02*
X108070000Y-104880000D01*
X108070000Y-104880000D02*
X108220000Y-104730000D01*
X102441000Y-110879000D02*
X108070000Y-105250000D01*
X99832000Y-110879000D02*
X102441000Y-110879000D01*
%TO.N,SM_12V*%
X98620000Y-107127000D02*
X99832000Y-108339000D01*
X98620000Y-105555000D02*
X98620000Y-107127000D01*
X104147500Y-105515000D02*
X104160000Y-105502500D01*
X101370000Y-105515000D02*
X104147500Y-105515000D01*
X101330000Y-105555000D02*
X101370000Y-105515000D01*
X98620000Y-105555000D02*
X101330000Y-105555000D01*
%TO.N,12V*%
X104160000Y-98010000D02*
X104160000Y-102577500D01*
X103130000Y-96980000D02*
X104160000Y-98010000D01*
X96410000Y-96980000D02*
X103130000Y-96980000D01*
X96220000Y-96790000D02*
X96410000Y-96980000D01*
X96220000Y-96050000D02*
X96220000Y-96790000D01*
X83490000Y-100030000D02*
X83490000Y-95500000D01*
X81650000Y-101870000D02*
X83490000Y-100030000D01*
X83490000Y-95500000D02*
X84690000Y-94300000D01*
X77770000Y-101870000D02*
X81650000Y-101870000D01*
X84690000Y-94300000D02*
X94470000Y-94300000D01*
X94470000Y-94300000D02*
X96220000Y-96050000D01*
%TO.N,-12V*%
X79307500Y-118480000D02*
X72297349Y-118480000D01*
X79447500Y-118340000D02*
X79307500Y-118480000D01*
%TO.N,SM_N12V*%
X82467500Y-118245000D02*
X82372500Y-118340000D01*
X87190000Y-118245000D02*
X82467500Y-118245000D01*
X87220000Y-118275000D02*
X87190000Y-118245000D01*
X89820000Y-118275000D02*
X87220000Y-118275000D01*
X92136000Y-115959000D02*
X89820000Y-118275000D01*
X92212000Y-115959000D02*
X92136000Y-115959000D01*
%TO.N,Net-(C2-Pad2)*%
X99832000Y-118583000D02*
X99315000Y-119100000D01*
X99832000Y-115959000D02*
X99832000Y-118583000D01*
X101167500Y-119100000D02*
X101207500Y-119060000D01*
X99315000Y-119100000D02*
X101167500Y-119100000D01*
%TO.N,Net-(C2-Pad1)*%
X95758000Y-109791500D02*
X95758000Y-118493000D01*
X95758000Y-118493000D02*
X96365000Y-119100000D01*
%TO.N,-12V*%
X73270000Y-117507349D02*
X72297349Y-118480000D01*
X73270000Y-110320000D02*
X73270000Y-117507349D01*
X73815000Y-109775000D02*
X73270000Y-110320000D01*
X74805000Y-109775000D02*
X73815000Y-109775000D01*
%TO.N,Net-(C6-Pad1)*%
X72102651Y-106357349D02*
X72102651Y-99650000D01*
X69855000Y-107235000D02*
X71225000Y-107235000D01*
X71225000Y-107235000D02*
X72102651Y-106357349D01*
%TO.N,Net-(C6-Pad2)*%
X67250000Y-102002651D02*
X69602651Y-99650000D01*
X67635000Y-109775000D02*
X67250000Y-109390000D01*
X69855000Y-109775000D02*
X67635000Y-109775000D01*
X67250000Y-109390000D02*
X67250000Y-102002651D01*
%TO.N,12V*%
X74930000Y-105840000D02*
X74805000Y-105965000D01*
X77405000Y-105840000D02*
X74930000Y-105840000D01*
X77770000Y-105475000D02*
X77405000Y-105840000D01*
X77770000Y-101870000D02*
X77770000Y-105475000D01*
%TO.N,Net-(D2-Pad2)*%
X87740000Y-101680000D02*
X87930000Y-101870000D01*
X87740000Y-97530000D02*
X87740000Y-101680000D01*
%TO.N,Net-(C1-Pad1)*%
X85266000Y-113472500D02*
X85393000Y-113345500D01*
X80513000Y-113472500D02*
X85266000Y-113472500D01*
%TO.N,Net-(C2-Pad1)*%
X89543000Y-108339000D02*
X92212000Y-108339000D01*
X88007000Y-106803000D02*
X89543000Y-108339000D01*
X94305500Y-108339000D02*
X92212000Y-108339000D01*
X95758000Y-109791500D02*
X94305500Y-108339000D01*
X86931500Y-106803000D02*
X88007000Y-106803000D01*
%TO.N,Net-(C1-Pad2)*%
X92138500Y-113345500D02*
X92212000Y-113419000D01*
X88343000Y-113345500D02*
X92138500Y-113345500D01*
%TO.N,Net-(R3-Pad1)*%
X86612000Y-109408500D02*
X86931500Y-109728000D01*
X84393500Y-109408500D02*
X86612000Y-109408500D01*
X89543000Y-110879000D02*
X92212000Y-110879000D01*
X86931500Y-109728000D02*
X88392000Y-109728000D01*
X88392000Y-109728000D02*
X89543000Y-110879000D01*
%TD*%
%TA.AperFunction,Conductor*%
%TO.N,GND*%
G36*
X114698621Y-92924502D02*
G01*
X114745114Y-92978158D01*
X114756500Y-93030500D01*
X114756500Y-116762799D01*
X114736498Y-116830920D01*
X114682842Y-116877413D01*
X114612568Y-116887517D01*
X114547988Y-116858023D01*
X114527287Y-116835070D01*
X114522202Y-116827807D01*
X114476682Y-116762799D01*
X114429357Y-116695211D01*
X114429355Y-116695208D01*
X114426198Y-116690700D01*
X114264300Y-116528802D01*
X114259792Y-116525645D01*
X114259789Y-116525643D01*
X114121217Y-116428614D01*
X114076749Y-116397477D01*
X114071767Y-116395154D01*
X114071762Y-116395151D01*
X113874225Y-116303039D01*
X113874224Y-116303039D01*
X113869243Y-116300716D01*
X113863935Y-116299294D01*
X113863933Y-116299293D01*
X113653402Y-116242881D01*
X113653400Y-116242881D01*
X113648087Y-116241457D01*
X113548520Y-116232746D01*
X113479851Y-116226738D01*
X113479844Y-116226738D01*
X113477127Y-116226500D01*
X113129500Y-116226500D01*
X113061379Y-116206498D01*
X113014886Y-116152842D01*
X113003500Y-116100500D01*
X113003500Y-115959001D01*
X113003507Y-115957681D01*
X113004348Y-115877363D01*
X113004422Y-115870322D01*
X113002934Y-115863439D01*
X112995585Y-115829445D01*
X112993525Y-115816867D01*
X112989649Y-115782312D01*
X112989648Y-115782308D01*
X112988864Y-115775318D01*
X112978257Y-115744860D01*
X112974093Y-115730046D01*
X112968764Y-115705397D01*
X112967276Y-115698514D01*
X112956039Y-115674416D01*
X112949602Y-115660610D01*
X112944806Y-115648800D01*
X112931057Y-115609319D01*
X112913959Y-115581957D01*
X112906626Y-115568451D01*
X112892989Y-115539207D01*
X112867367Y-115506175D01*
X112860074Y-115495721D01*
X112841641Y-115466223D01*
X112841640Y-115466222D01*
X112837909Y-115460251D01*
X112810181Y-115432328D01*
X112809627Y-115431736D01*
X112809123Y-115431087D01*
X112783971Y-115405935D01*
X112714051Y-115335525D01*
X112713041Y-115334884D01*
X112711862Y-115333826D01*
X109967919Y-112589883D01*
X109966990Y-112588945D01*
X109941583Y-112563000D01*
X109905829Y-112526489D01*
X109899907Y-112522672D01*
X109899904Y-112522670D01*
X109870678Y-112503835D01*
X109860339Y-112496407D01*
X109827650Y-112470312D01*
X109821308Y-112467246D01*
X109821303Y-112467243D01*
X109798610Y-112456273D01*
X109785198Y-112448747D01*
X109764000Y-112435086D01*
X109763995Y-112435084D01*
X109758076Y-112431269D01*
X109718781Y-112416967D01*
X109707037Y-112412006D01*
X109675744Y-112396878D01*
X109675742Y-112396877D01*
X109669395Y-112393809D01*
X109637956Y-112386551D01*
X109623220Y-112382185D01*
X109599520Y-112373559D01*
X109599516Y-112373558D01*
X109592900Y-112371150D01*
X109585914Y-112370267D01*
X109585912Y-112370267D01*
X109551421Y-112365910D01*
X109538869Y-112363675D01*
X109531630Y-112362004D01*
X109498123Y-112354268D01*
X109491083Y-112354243D01*
X109491080Y-112354243D01*
X109458796Y-112354130D01*
X109457959Y-112354102D01*
X109457146Y-112354000D01*
X109421554Y-112354000D01*
X109421114Y-112353999D01*
X109415359Y-112353979D01*
X109322347Y-112353654D01*
X109321179Y-112353915D01*
X109319611Y-112354000D01*
X109188959Y-112354000D01*
X109120838Y-112333998D01*
X109099942Y-112317173D01*
X109040483Y-112257818D01*
X109006403Y-112195536D01*
X109003500Y-112168645D01*
X109003500Y-112004362D01*
X109023502Y-111936241D01*
X109057231Y-111901148D01*
X109059787Y-111899358D01*
X109064300Y-111896198D01*
X109226198Y-111734300D01*
X109233901Y-111723300D01*
X109299266Y-111629948D01*
X109357523Y-111546749D01*
X109359846Y-111541767D01*
X109359849Y-111541762D01*
X109451961Y-111344225D01*
X109451961Y-111344224D01*
X109454284Y-111339243D01*
X109457232Y-111328243D01*
X109512119Y-111123402D01*
X109512119Y-111123400D01*
X109513543Y-111118087D01*
X109524652Y-110991106D01*
X109528262Y-110949851D01*
X109528262Y-110949844D01*
X109528500Y-110947127D01*
X109528500Y-108432873D01*
X109513543Y-108261913D01*
X109494434Y-108190599D01*
X109455707Y-108046067D01*
X109455706Y-108046065D01*
X109454284Y-108040757D01*
X109451961Y-108035775D01*
X109359849Y-107838238D01*
X109359846Y-107838233D01*
X109357523Y-107833251D01*
X109281143Y-107724170D01*
X109229357Y-107650211D01*
X109229355Y-107650208D01*
X109226198Y-107645700D01*
X109064300Y-107483802D01*
X109059792Y-107480645D01*
X109059789Y-107480643D01*
X108981611Y-107425902D01*
X108876749Y-107352477D01*
X108871767Y-107350154D01*
X108871762Y-107350151D01*
X108674225Y-107258039D01*
X108674224Y-107258039D01*
X108669243Y-107255716D01*
X108663935Y-107254294D01*
X108663933Y-107254293D01*
X108453402Y-107197881D01*
X108453400Y-107197881D01*
X108448087Y-107196457D01*
X108220000Y-107176502D01*
X107991913Y-107196457D01*
X107986600Y-107197881D01*
X107986598Y-107197881D01*
X107776067Y-107254293D01*
X107776065Y-107254294D01*
X107770757Y-107255716D01*
X107765776Y-107258039D01*
X107765775Y-107258039D01*
X107568238Y-107350151D01*
X107568233Y-107350154D01*
X107563251Y-107352477D01*
X107458389Y-107425902D01*
X107380211Y-107480643D01*
X107380208Y-107480645D01*
X107375700Y-107483802D01*
X107213802Y-107645700D01*
X107210645Y-107650208D01*
X107210643Y-107650211D01*
X107158857Y-107724170D01*
X107082477Y-107833251D01*
X107080154Y-107838233D01*
X107080151Y-107838238D01*
X106988039Y-108035775D01*
X106985716Y-108040757D01*
X106984294Y-108046065D01*
X106984293Y-108046067D01*
X106945566Y-108190599D01*
X106926457Y-108261913D01*
X106911500Y-108432873D01*
X106911500Y-110947127D01*
X106911738Y-110949844D01*
X106911738Y-110949851D01*
X106915348Y-110991106D01*
X106926457Y-111118087D01*
X106927881Y-111123400D01*
X106927881Y-111123402D01*
X106982769Y-111328243D01*
X106985716Y-111339243D01*
X106988039Y-111344224D01*
X106988039Y-111344225D01*
X107080151Y-111541762D01*
X107080154Y-111541767D01*
X107082477Y-111546749D01*
X107140734Y-111629948D01*
X107206100Y-111723300D01*
X107213802Y-111734300D01*
X107330907Y-111851405D01*
X107364933Y-111913717D01*
X107359868Y-111984532D01*
X107317321Y-112041368D01*
X107250801Y-112066179D01*
X107241812Y-112066500D01*
X107234600Y-112066500D01*
X107231354Y-112066837D01*
X107231350Y-112066837D01*
X107135692Y-112076762D01*
X107135688Y-112076763D01*
X107128834Y-112077474D01*
X107122298Y-112079655D01*
X107122296Y-112079655D01*
X106990194Y-112123728D01*
X106961054Y-112133450D01*
X106810652Y-112226522D01*
X106805479Y-112231704D01*
X106772722Y-112264518D01*
X106710439Y-112298597D01*
X106683549Y-112301500D01*
X106026480Y-112301500D01*
X105958359Y-112281498D01*
X105937462Y-112264673D01*
X105935982Y-112263195D01*
X105833303Y-112160695D01*
X105815951Y-112149999D01*
X105688968Y-112071725D01*
X105688966Y-112071724D01*
X105682738Y-112067885D01*
X105583004Y-112034805D01*
X105521389Y-112014368D01*
X105521387Y-112014368D01*
X105514861Y-112012203D01*
X105508025Y-112011503D01*
X105508022Y-112011502D01*
X105464969Y-112007091D01*
X105410400Y-112001500D01*
X104009600Y-112001500D01*
X104006354Y-112001837D01*
X104006350Y-112001837D01*
X103910692Y-112011762D01*
X103910688Y-112011763D01*
X103903834Y-112012474D01*
X103897298Y-112014655D01*
X103897296Y-112014655D01*
X103817228Y-112041368D01*
X103736054Y-112068450D01*
X103585652Y-112161522D01*
X103460695Y-112286697D01*
X103456855Y-112292927D01*
X103456854Y-112292928D01*
X103384910Y-112409643D01*
X103367885Y-112437262D01*
X103357941Y-112467243D01*
X103330768Y-112549167D01*
X103290338Y-112607527D01*
X103224773Y-112634764D01*
X103211175Y-112635500D01*
X102146362Y-112635500D01*
X102078241Y-112615498D01*
X102043148Y-112581769D01*
X102041358Y-112579213D01*
X102038198Y-112574700D01*
X101876300Y-112412802D01*
X101871792Y-112409645D01*
X101871789Y-112409643D01*
X101787541Y-112350652D01*
X101688749Y-112281477D01*
X101683767Y-112279154D01*
X101683762Y-112279151D01*
X101649543Y-112263195D01*
X101596258Y-112216278D01*
X101576797Y-112148001D01*
X101597339Y-112080041D01*
X101649543Y-112034805D01*
X101683762Y-112018849D01*
X101683767Y-112018846D01*
X101688749Y-112016523D01*
X101853521Y-111901148D01*
X101871789Y-111888357D01*
X101871792Y-111888355D01*
X101876300Y-111885198D01*
X102038198Y-111723300D01*
X102043148Y-111716231D01*
X102044227Y-111715369D01*
X102044892Y-111714576D01*
X102045051Y-111714710D01*
X102098604Y-111671902D01*
X102146362Y-111662500D01*
X102431999Y-111662500D01*
X102433320Y-111662507D01*
X102520678Y-111663422D01*
X102527563Y-111661933D01*
X102527566Y-111661933D01*
X102561545Y-111654586D01*
X102574128Y-111652525D01*
X102584246Y-111651390D01*
X102615682Y-111647864D01*
X102622337Y-111645546D01*
X102622343Y-111645545D01*
X102646146Y-111637256D01*
X102660955Y-111633093D01*
X102685601Y-111627764D01*
X102685605Y-111627763D01*
X102692486Y-111626275D01*
X102730395Y-111608598D01*
X102742171Y-111603816D01*
X102781681Y-111590057D01*
X102809039Y-111572962D01*
X102822556Y-111565623D01*
X102845415Y-111554964D01*
X102845418Y-111554962D01*
X102851794Y-111551989D01*
X102858550Y-111546749D01*
X102884835Y-111526360D01*
X102895283Y-111519071D01*
X102930749Y-111496909D01*
X102958672Y-111469181D01*
X102959264Y-111468627D01*
X102959913Y-111468123D01*
X102985065Y-111442971D01*
X103055475Y-111373051D01*
X103056116Y-111372041D01*
X103057174Y-111370862D01*
X108617617Y-105810419D01*
X108618555Y-105809490D01*
X108618663Y-105809384D01*
X108681011Y-105748329D01*
X108684828Y-105742407D01*
X108684830Y-105742404D01*
X108703665Y-105713178D01*
X108711093Y-105702839D01*
X108737188Y-105670150D01*
X108740254Y-105663808D01*
X108740257Y-105663803D01*
X108751227Y-105641110D01*
X108758753Y-105627698D01*
X108772414Y-105606500D01*
X108772416Y-105606495D01*
X108776231Y-105600576D01*
X108790533Y-105561281D01*
X108795494Y-105549537D01*
X108810622Y-105518244D01*
X108810623Y-105518242D01*
X108813691Y-105511895D01*
X108820949Y-105480456D01*
X108825315Y-105465720D01*
X108833941Y-105442020D01*
X108833942Y-105442016D01*
X108836350Y-105435400D01*
X108841590Y-105393921D01*
X108843825Y-105381369D01*
X108851648Y-105347483D01*
X108853232Y-105340623D01*
X108853370Y-105301296D01*
X108853398Y-105300459D01*
X108853500Y-105299646D01*
X108853500Y-105263900D01*
X108853598Y-105235913D01*
X108873838Y-105167862D01*
X108881120Y-105157752D01*
X108882789Y-105155661D01*
X108882790Y-105155659D01*
X108887188Y-105150150D01*
X108890254Y-105143808D01*
X108890257Y-105143803D01*
X108901227Y-105121110D01*
X108908753Y-105107698D01*
X108922414Y-105086500D01*
X108922416Y-105086495D01*
X108926231Y-105080576D01*
X108940533Y-105041281D01*
X108945494Y-105029537D01*
X108960622Y-104998244D01*
X108960623Y-104998242D01*
X108963691Y-104991895D01*
X108970949Y-104960456D01*
X108975315Y-104945720D01*
X108983941Y-104922020D01*
X108983942Y-104922016D01*
X108986350Y-104915400D01*
X108991590Y-104873921D01*
X108993825Y-104861369D01*
X109001648Y-104827483D01*
X109003232Y-104820623D01*
X109003342Y-104789377D01*
X109003370Y-104781296D01*
X109003398Y-104780459D01*
X109003500Y-104779646D01*
X109003500Y-104743900D01*
X109003846Y-104644847D01*
X109003585Y-104643679D01*
X109003500Y-104642111D01*
X109003500Y-104384362D01*
X109023502Y-104316241D01*
X109057231Y-104281148D01*
X109059787Y-104279358D01*
X109064300Y-104276198D01*
X109226198Y-104114300D01*
X109357523Y-103926749D01*
X109359846Y-103921767D01*
X109359849Y-103921762D01*
X109451961Y-103724225D01*
X109451961Y-103724224D01*
X109454284Y-103719243D01*
X109462744Y-103687672D01*
X109512119Y-103503402D01*
X109512119Y-103503400D01*
X109513543Y-103498087D01*
X109524791Y-103369521D01*
X109528262Y-103329851D01*
X109528262Y-103329844D01*
X109528500Y-103327127D01*
X109528500Y-100812873D01*
X109513543Y-100641913D01*
X109499496Y-100589490D01*
X109455707Y-100426067D01*
X109455706Y-100426065D01*
X109454284Y-100420757D01*
X109436802Y-100383266D01*
X109359849Y-100218238D01*
X109359846Y-100218233D01*
X109357523Y-100213251D01*
X109239162Y-100044214D01*
X109229357Y-100030211D01*
X109229355Y-100030208D01*
X109226198Y-100025700D01*
X109064300Y-99863802D01*
X109059792Y-99860645D01*
X109059789Y-99860643D01*
X108970717Y-99798274D01*
X108876749Y-99732477D01*
X108871767Y-99730154D01*
X108871762Y-99730151D01*
X108674225Y-99638039D01*
X108674224Y-99638039D01*
X108669243Y-99635716D01*
X108663935Y-99634294D01*
X108663933Y-99634293D01*
X108453402Y-99577881D01*
X108453400Y-99577881D01*
X108448087Y-99576457D01*
X108220000Y-99556502D01*
X107991913Y-99576457D01*
X107986600Y-99577881D01*
X107986598Y-99577881D01*
X107776067Y-99634293D01*
X107776065Y-99634294D01*
X107770757Y-99635716D01*
X107765776Y-99638039D01*
X107765775Y-99638039D01*
X107568238Y-99730151D01*
X107568233Y-99730154D01*
X107563251Y-99732477D01*
X107469283Y-99798274D01*
X107380211Y-99860643D01*
X107380208Y-99860645D01*
X107375700Y-99863802D01*
X107213802Y-100025700D01*
X107210645Y-100030208D01*
X107210643Y-100030211D01*
X107200838Y-100044214D01*
X107082477Y-100213251D01*
X107080154Y-100218233D01*
X107080151Y-100218238D01*
X107003198Y-100383266D01*
X106985716Y-100420757D01*
X106984294Y-100426065D01*
X106984293Y-100426067D01*
X106940504Y-100589490D01*
X106926457Y-100641913D01*
X106911500Y-100812873D01*
X106911500Y-103327127D01*
X106911738Y-103329844D01*
X106911738Y-103329851D01*
X106915209Y-103369521D01*
X106926457Y-103498087D01*
X106927881Y-103503400D01*
X106927881Y-103503402D01*
X106977257Y-103687672D01*
X106985716Y-103719243D01*
X106988039Y-103724224D01*
X106988039Y-103724225D01*
X107080151Y-103921762D01*
X107080154Y-103921767D01*
X107082477Y-103926749D01*
X107213802Y-104114300D01*
X107375700Y-104276198D01*
X107380211Y-104279357D01*
X107384424Y-104282892D01*
X107383042Y-104284539D01*
X107421556Y-104332736D01*
X107428856Y-104403356D01*
X107408894Y-104447082D01*
X107410961Y-104448384D01*
X107407209Y-104454342D01*
X107402812Y-104459850D01*
X107399746Y-104466192D01*
X107399743Y-104466197D01*
X107388773Y-104488890D01*
X107381247Y-104502302D01*
X107367586Y-104523500D01*
X107367584Y-104523505D01*
X107363769Y-104529424D01*
X107349469Y-104568715D01*
X107344506Y-104580463D01*
X107341226Y-104587249D01*
X107326309Y-104618105D01*
X107319051Y-104649544D01*
X107314685Y-104664280D01*
X107303650Y-104694600D01*
X107302767Y-104701586D01*
X107302767Y-104701588D01*
X107298410Y-104736079D01*
X107296175Y-104748631D01*
X107286768Y-104789377D01*
X107286743Y-104796417D01*
X107286743Y-104796420D01*
X107286630Y-104828704D01*
X107286602Y-104829541D01*
X107286500Y-104830354D01*
X107286500Y-104865901D01*
X107286499Y-104866344D01*
X107286473Y-104873743D01*
X107266232Y-104941793D01*
X107249569Y-104962395D01*
X102196826Y-110015138D01*
X102134514Y-110049164D01*
X102063699Y-110044099D01*
X102018636Y-110015138D01*
X101876300Y-109872802D01*
X101871792Y-109869645D01*
X101871789Y-109869643D01*
X101793611Y-109814902D01*
X101688749Y-109741477D01*
X101683767Y-109739154D01*
X101683762Y-109739151D01*
X101649543Y-109723195D01*
X101596258Y-109676278D01*
X101576797Y-109608001D01*
X101597339Y-109540041D01*
X101649543Y-109494805D01*
X101683762Y-109478849D01*
X101683767Y-109478846D01*
X101688749Y-109476523D01*
X101824240Y-109381651D01*
X101871789Y-109348357D01*
X101871792Y-109348355D01*
X101876300Y-109345198D01*
X102038198Y-109183300D01*
X102043782Y-109175326D01*
X102110794Y-109079622D01*
X102169523Y-108995749D01*
X102171846Y-108990767D01*
X102171849Y-108990762D01*
X102263961Y-108793225D01*
X102263961Y-108793224D01*
X102266284Y-108788243D01*
X102280188Y-108736355D01*
X102324119Y-108572402D01*
X102324119Y-108572400D01*
X102325543Y-108567087D01*
X102345498Y-108339000D01*
X102325543Y-108110913D01*
X102321495Y-108095806D01*
X102267707Y-107895067D01*
X102267706Y-107895065D01*
X102266284Y-107889757D01*
X102262835Y-107882360D01*
X102171849Y-107687238D01*
X102171846Y-107687233D01*
X102169523Y-107682251D01*
X102080771Y-107555500D01*
X102041357Y-107499211D01*
X102041355Y-107499208D01*
X102038198Y-107494700D01*
X101876300Y-107332802D01*
X101871792Y-107329645D01*
X101871789Y-107329643D01*
X101764178Y-107254293D01*
X101688749Y-107201477D01*
X101683767Y-107199154D01*
X101683762Y-107199151D01*
X101486225Y-107107039D01*
X101486224Y-107107039D01*
X101481243Y-107104716D01*
X101475935Y-107103294D01*
X101475933Y-107103293D01*
X101265402Y-107046881D01*
X101265400Y-107046881D01*
X101260087Y-107045457D01*
X101160520Y-107036746D01*
X101091851Y-107030738D01*
X101091844Y-107030738D01*
X101089127Y-107030500D01*
X99683726Y-107030500D01*
X99615605Y-107010498D01*
X99594631Y-106993595D01*
X99440405Y-106839369D01*
X99406379Y-106777057D01*
X99403500Y-106750274D01*
X99403500Y-106725879D01*
X99423502Y-106657758D01*
X99477158Y-106611265D01*
X99489623Y-106606356D01*
X99586993Y-106573870D01*
X99586995Y-106573869D01*
X99593946Y-106571550D01*
X99744348Y-106478478D01*
X99779448Y-106443317D01*
X99847165Y-106375482D01*
X99909448Y-106341403D01*
X99936338Y-106338500D01*
X100093589Y-106338500D01*
X100161710Y-106358502D01*
X100182607Y-106375327D01*
X100241516Y-106434134D01*
X100241521Y-106434138D01*
X100246697Y-106439305D01*
X100252927Y-106443145D01*
X100252928Y-106443146D01*
X100390090Y-106527694D01*
X100397262Y-106532115D01*
X100477005Y-106558564D01*
X100558611Y-106585632D01*
X100558613Y-106585632D01*
X100565139Y-106587797D01*
X100571975Y-106588497D01*
X100571978Y-106588498D01*
X100615031Y-106592909D01*
X100669600Y-106598500D01*
X102070400Y-106598500D01*
X102073646Y-106598163D01*
X102073650Y-106598163D01*
X102169308Y-106588238D01*
X102169312Y-106588237D01*
X102176166Y-106587526D01*
X102182702Y-106585345D01*
X102182704Y-106585345D01*
X102331309Y-106535766D01*
X102343946Y-106531550D01*
X102494348Y-106438478D01*
X102518479Y-106414305D01*
X102597165Y-106335482D01*
X102659448Y-106301403D01*
X102686338Y-106298500D01*
X102893563Y-106298500D01*
X102961684Y-106318502D01*
X102982581Y-106335327D01*
X103001635Y-106354348D01*
X103061697Y-106414305D01*
X103067927Y-106418145D01*
X103067928Y-106418146D01*
X103205090Y-106502694D01*
X103212262Y-106507115D01*
X103259476Y-106522775D01*
X103373611Y-106560632D01*
X103373613Y-106560632D01*
X103380139Y-106562797D01*
X103386975Y-106563497D01*
X103386978Y-106563498D01*
X103430031Y-106567909D01*
X103484600Y-106573500D01*
X104835400Y-106573500D01*
X104838646Y-106573163D01*
X104838650Y-106573163D01*
X104934308Y-106563238D01*
X104934312Y-106563237D01*
X104941166Y-106562526D01*
X104947702Y-106560345D01*
X104947704Y-106560345D01*
X105083684Y-106514978D01*
X105108946Y-106506550D01*
X105259348Y-106413478D01*
X105384305Y-106288303D01*
X105404908Y-106254879D01*
X105473275Y-106143968D01*
X105473276Y-106143966D01*
X105477115Y-106137738D01*
X105511769Y-106033260D01*
X105530632Y-105976389D01*
X105530632Y-105976387D01*
X105532797Y-105969861D01*
X105543500Y-105865400D01*
X105543500Y-105139600D01*
X105540968Y-105115194D01*
X105533238Y-105040692D01*
X105533237Y-105040688D01*
X105532526Y-105033834D01*
X105476550Y-104866054D01*
X105383478Y-104715652D01*
X105258303Y-104590695D01*
X105179802Y-104542306D01*
X105113968Y-104501725D01*
X105113966Y-104501724D01*
X105107738Y-104497885D01*
X105012201Y-104466197D01*
X104946389Y-104444368D01*
X104946387Y-104444368D01*
X104939861Y-104442203D01*
X104933025Y-104441503D01*
X104933022Y-104441502D01*
X104889969Y-104437091D01*
X104835400Y-104431500D01*
X103484600Y-104431500D01*
X103481354Y-104431837D01*
X103481350Y-104431837D01*
X103385692Y-104441762D01*
X103385688Y-104441763D01*
X103378834Y-104442474D01*
X103372298Y-104444655D01*
X103372296Y-104444655D01*
X103240194Y-104488728D01*
X103211054Y-104498450D01*
X103060652Y-104591522D01*
X103055479Y-104596704D01*
X102957835Y-104694518D01*
X102895552Y-104728597D01*
X102868662Y-104731500D01*
X102686480Y-104731500D01*
X102618359Y-104711498D01*
X102597462Y-104694673D01*
X102590758Y-104687980D01*
X102493303Y-104590695D01*
X102414802Y-104542306D01*
X102348968Y-104501725D01*
X102348966Y-104501724D01*
X102342738Y-104497885D01*
X102247201Y-104466197D01*
X102181389Y-104444368D01*
X102181387Y-104444368D01*
X102174861Y-104442203D01*
X102168025Y-104441503D01*
X102168022Y-104441502D01*
X102124969Y-104437091D01*
X102070400Y-104431500D01*
X100669600Y-104431500D01*
X100666354Y-104431837D01*
X100666350Y-104431837D01*
X100570692Y-104441762D01*
X100570688Y-104441763D01*
X100563834Y-104442474D01*
X100557298Y-104444655D01*
X100557296Y-104444655D01*
X100425194Y-104488728D01*
X100396054Y-104498450D01*
X100245652Y-104591522D01*
X100120695Y-104716697D01*
X100116854Y-104722928D01*
X100116330Y-104723592D01*
X100058414Y-104764655D01*
X100017448Y-104771500D01*
X99936480Y-104771500D01*
X99868359Y-104751498D01*
X99847462Y-104734673D01*
X99844284Y-104731500D01*
X99743303Y-104630695D01*
X99734012Y-104624968D01*
X99598968Y-104541725D01*
X99598966Y-104541724D01*
X99592738Y-104537885D01*
X99485102Y-104502184D01*
X99431389Y-104484368D01*
X99431387Y-104484368D01*
X99424861Y-104482203D01*
X99418025Y-104481503D01*
X99418022Y-104481502D01*
X99374969Y-104477091D01*
X99320400Y-104471500D01*
X97919600Y-104471500D01*
X97916354Y-104471837D01*
X97916350Y-104471837D01*
X97820692Y-104481762D01*
X97820688Y-104481763D01*
X97813834Y-104482474D01*
X97807298Y-104484655D01*
X97807296Y-104484655D01*
X97690864Y-104523500D01*
X97646054Y-104538450D01*
X97495652Y-104631522D01*
X97490479Y-104636704D01*
X97482350Y-104644847D01*
X97370695Y-104756697D01*
X97366855Y-104762927D01*
X97366854Y-104762928D01*
X97298127Y-104874424D01*
X97277885Y-104907262D01*
X97252090Y-104985032D01*
X97225077Y-105066475D01*
X97222203Y-105075139D01*
X97221503Y-105081975D01*
X97221502Y-105081978D01*
X97220401Y-105092724D01*
X97211500Y-105179600D01*
X97211500Y-105930400D01*
X97211837Y-105933646D01*
X97211837Y-105933650D01*
X97220506Y-106017197D01*
X97222474Y-106036166D01*
X97224655Y-106042702D01*
X97224655Y-106042704D01*
X97251035Y-106121773D01*
X97278450Y-106203946D01*
X97371522Y-106354348D01*
X97496697Y-106479305D01*
X97502927Y-106483145D01*
X97502928Y-106483146D01*
X97640090Y-106567694D01*
X97647262Y-106572115D01*
X97725795Y-106598163D01*
X97750167Y-106606247D01*
X97808527Y-106646678D01*
X97835764Y-106712242D01*
X97836500Y-106725840D01*
X97836500Y-107117999D01*
X97836493Y-107119319D01*
X97835578Y-107206678D01*
X97837067Y-107213565D01*
X97837667Y-107219472D01*
X97824651Y-107289265D01*
X97793305Y-107328725D01*
X97792209Y-107329645D01*
X97787700Y-107332802D01*
X97625802Y-107494700D01*
X97622645Y-107499208D01*
X97622643Y-107499211D01*
X97583229Y-107555500D01*
X97494477Y-107682251D01*
X97492154Y-107687233D01*
X97492151Y-107687238D01*
X97401165Y-107882360D01*
X97397716Y-107889757D01*
X97396294Y-107895065D01*
X97396293Y-107895067D01*
X97342505Y-108095806D01*
X97338457Y-108110913D01*
X97318502Y-108339000D01*
X97338457Y-108567087D01*
X97339881Y-108572400D01*
X97339881Y-108572402D01*
X97383813Y-108736355D01*
X97397716Y-108788243D01*
X97400039Y-108793224D01*
X97400039Y-108793225D01*
X97492151Y-108990762D01*
X97492154Y-108990767D01*
X97494477Y-108995749D01*
X97553206Y-109079622D01*
X97620219Y-109175326D01*
X97625802Y-109183300D01*
X97787700Y-109345198D01*
X97792208Y-109348355D01*
X97792211Y-109348357D01*
X97839760Y-109381651D01*
X97975251Y-109476523D01*
X97980233Y-109478846D01*
X97980238Y-109478849D01*
X98014457Y-109494805D01*
X98067742Y-109541722D01*
X98087203Y-109609999D01*
X98066661Y-109677959D01*
X98014457Y-109723195D01*
X97980238Y-109739151D01*
X97980233Y-109739154D01*
X97975251Y-109741477D01*
X97870389Y-109814902D01*
X97792211Y-109869643D01*
X97792208Y-109869645D01*
X97787700Y-109872802D01*
X97625802Y-110034700D01*
X97622645Y-110039208D01*
X97622643Y-110039211D01*
X97589101Y-110087114D01*
X97494477Y-110222251D01*
X97492154Y-110227233D01*
X97492151Y-110227238D01*
X97425623Y-110369910D01*
X97397716Y-110429757D01*
X97396294Y-110435065D01*
X97396293Y-110435067D01*
X97340622Y-110642832D01*
X97338457Y-110650913D01*
X97318502Y-110879000D01*
X97338457Y-111107087D01*
X97339881Y-111112400D01*
X97339881Y-111112402D01*
X97380376Y-111263528D01*
X97397716Y-111328243D01*
X97400039Y-111333224D01*
X97400039Y-111333225D01*
X97492151Y-111530762D01*
X97492154Y-111530767D01*
X97494477Y-111535749D01*
X97557864Y-111626275D01*
X97620249Y-111715369D01*
X97625802Y-111723300D01*
X97787700Y-111885198D01*
X97792208Y-111888355D01*
X97792211Y-111888357D01*
X97810479Y-111901148D01*
X97975251Y-112016523D01*
X97980233Y-112018846D01*
X97980238Y-112018849D01*
X98014457Y-112034805D01*
X98067742Y-112081722D01*
X98087203Y-112149999D01*
X98066661Y-112217959D01*
X98014457Y-112263195D01*
X97980238Y-112279151D01*
X97980233Y-112279154D01*
X97975251Y-112281477D01*
X97876459Y-112350652D01*
X97792211Y-112409643D01*
X97792208Y-112409645D01*
X97787700Y-112412802D01*
X97625802Y-112574700D01*
X97622645Y-112579208D01*
X97622643Y-112579211D01*
X97576507Y-112645100D01*
X97494477Y-112762251D01*
X97492154Y-112767233D01*
X97492151Y-112767238D01*
X97400039Y-112964775D01*
X97397716Y-112969757D01*
X97338457Y-113190913D01*
X97318502Y-113419000D01*
X97338457Y-113647087D01*
X97339881Y-113652400D01*
X97339881Y-113652402D01*
X97360184Y-113728171D01*
X97397716Y-113868243D01*
X97400039Y-113873224D01*
X97400039Y-113873225D01*
X97492151Y-114070762D01*
X97492154Y-114070767D01*
X97494477Y-114075749D01*
X97546721Y-114150361D01*
X97622640Y-114258784D01*
X97625802Y-114263300D01*
X97787700Y-114425198D01*
X97792208Y-114428355D01*
X97792211Y-114428357D01*
X97841075Y-114462572D01*
X97975251Y-114556523D01*
X97980233Y-114558846D01*
X97980238Y-114558849D01*
X98014457Y-114574805D01*
X98067742Y-114621722D01*
X98087203Y-114689999D01*
X98066661Y-114757959D01*
X98014457Y-114803195D01*
X97980238Y-114819151D01*
X97980233Y-114819154D01*
X97975251Y-114821477D01*
X97870389Y-114894902D01*
X97792211Y-114949643D01*
X97792208Y-114949645D01*
X97787700Y-114952802D01*
X97625802Y-115114700D01*
X97622645Y-115119208D01*
X97622643Y-115119211D01*
X97596114Y-115157099D01*
X97494477Y-115302251D01*
X97492154Y-115307233D01*
X97492151Y-115307238D01*
X97439552Y-115420038D01*
X97397716Y-115509757D01*
X97396294Y-115515065D01*
X97396293Y-115515067D01*
X97347138Y-115698514D01*
X97338457Y-115730913D01*
X97318502Y-115959000D01*
X97338457Y-116187087D01*
X97339881Y-116192400D01*
X97339881Y-116192402D01*
X97376764Y-116330048D01*
X97397716Y-116408243D01*
X97400039Y-116413224D01*
X97400039Y-116413225D01*
X97492151Y-116610762D01*
X97492154Y-116610767D01*
X97494477Y-116615749D01*
X97625802Y-116803300D01*
X97787700Y-116965198D01*
X97792208Y-116968355D01*
X97792211Y-116968357D01*
X97792757Y-116968739D01*
X97975251Y-117096523D01*
X97980233Y-117098846D01*
X97980238Y-117098849D01*
X98177775Y-117190961D01*
X98182757Y-117193284D01*
X98188065Y-117194706D01*
X98188067Y-117194707D01*
X98398598Y-117251119D01*
X98398600Y-117251119D01*
X98403913Y-117252543D01*
X98503480Y-117261254D01*
X98572149Y-117267262D01*
X98572156Y-117267262D01*
X98574873Y-117267500D01*
X98922500Y-117267500D01*
X98990621Y-117287502D01*
X99037114Y-117341158D01*
X99048500Y-117393500D01*
X99048500Y-117566598D01*
X99028498Y-117634719D01*
X98974842Y-117681212D01*
X98935504Y-117691925D01*
X98840692Y-117701762D01*
X98840688Y-117701763D01*
X98833834Y-117702474D01*
X98827298Y-117704655D01*
X98827296Y-117704655D01*
X98755459Y-117728622D01*
X98666054Y-117758450D01*
X98515652Y-117851522D01*
X98390695Y-117976697D01*
X98386855Y-117982927D01*
X98386854Y-117982928D01*
X98331415Y-118072867D01*
X98297885Y-118127262D01*
X98278150Y-118186762D01*
X98245303Y-118285794D01*
X98242203Y-118295139D01*
X98231500Y-118399600D01*
X98231500Y-119800400D01*
X98231837Y-119803646D01*
X98231837Y-119803650D01*
X98236272Y-119846389D01*
X98242474Y-119906166D01*
X98298450Y-120073946D01*
X98391522Y-120224348D01*
X98516697Y-120349305D01*
X98522927Y-120353145D01*
X98522928Y-120353146D01*
X98660090Y-120437694D01*
X98667262Y-120442115D01*
X98723346Y-120460717D01*
X98828611Y-120495632D01*
X98828613Y-120495632D01*
X98835139Y-120497797D01*
X98841975Y-120498497D01*
X98841978Y-120498498D01*
X98885031Y-120502909D01*
X98939600Y-120508500D01*
X99690400Y-120508500D01*
X99693646Y-120508163D01*
X99693650Y-120508163D01*
X99789308Y-120498238D01*
X99789312Y-120498237D01*
X99796166Y-120497526D01*
X99802702Y-120495345D01*
X99802704Y-120495345D01*
X99934806Y-120451272D01*
X99963946Y-120441550D01*
X100114348Y-120348478D01*
X100119521Y-120343296D01*
X100119526Y-120343292D01*
X100210823Y-120251835D01*
X100273105Y-120217755D01*
X100343925Y-120222758D01*
X100389014Y-120251679D01*
X100421697Y-120284305D01*
X100427927Y-120288145D01*
X100427928Y-120288146D01*
X100565288Y-120372816D01*
X100572262Y-120377115D01*
X100613497Y-120390792D01*
X100733611Y-120430632D01*
X100733613Y-120430632D01*
X100740139Y-120432797D01*
X100746975Y-120433497D01*
X100746978Y-120433498D01*
X100790031Y-120437909D01*
X100844600Y-120443500D01*
X101570400Y-120443500D01*
X101573646Y-120443163D01*
X101573650Y-120443163D01*
X101669308Y-120433238D01*
X101669312Y-120433237D01*
X101676166Y-120432526D01*
X101682702Y-120430345D01*
X101682704Y-120430345D01*
X101827059Y-120382184D01*
X101843946Y-120376550D01*
X101994348Y-120283478D01*
X102119305Y-120158303D01*
X102139742Y-120125149D01*
X102208275Y-120013968D01*
X102208276Y-120013966D01*
X102212115Y-120007738D01*
X102247014Y-119902519D01*
X102265632Y-119846389D01*
X102265632Y-119846387D01*
X102267797Y-119839861D01*
X102269730Y-119821000D01*
X102278046Y-119739830D01*
X102278500Y-119735400D01*
X102278500Y-119732095D01*
X103062001Y-119732095D01*
X103062338Y-119738614D01*
X103072257Y-119834206D01*
X103075149Y-119847600D01*
X103126588Y-120001784D01*
X103132761Y-120014962D01*
X103218063Y-120152807D01*
X103227099Y-120164208D01*
X103341829Y-120278739D01*
X103353240Y-120287751D01*
X103491243Y-120372816D01*
X103504424Y-120378963D01*
X103658710Y-120430138D01*
X103672086Y-120433005D01*
X103766438Y-120442672D01*
X103772854Y-120443000D01*
X103860385Y-120443000D01*
X103875624Y-120438525D01*
X103876829Y-120437135D01*
X103878500Y-120429452D01*
X103878500Y-120424884D01*
X104386500Y-120424884D01*
X104390975Y-120440123D01*
X104392365Y-120441328D01*
X104400048Y-120442999D01*
X104492095Y-120442999D01*
X104498614Y-120442662D01*
X104594206Y-120432743D01*
X104607600Y-120429851D01*
X104761784Y-120378412D01*
X104774962Y-120372239D01*
X104824600Y-120341522D01*
X109737273Y-120341522D01*
X109784764Y-120518761D01*
X109788510Y-120529053D01*
X109880586Y-120726511D01*
X109886069Y-120736007D01*
X110011028Y-120914467D01*
X110018084Y-120922875D01*
X110172125Y-121076916D01*
X110180533Y-121083972D01*
X110358993Y-121208931D01*
X110368489Y-121214414D01*
X110565947Y-121306490D01*
X110576239Y-121310236D01*
X110786688Y-121366625D01*
X110797481Y-121368528D01*
X110960170Y-121382762D01*
X110965635Y-121383000D01*
X111947885Y-121383000D01*
X111963124Y-121378525D01*
X111964329Y-121377135D01*
X111966000Y-121369452D01*
X111966000Y-120347115D01*
X111961525Y-120331876D01*
X111960135Y-120330671D01*
X111952452Y-120329000D01*
X109752033Y-120329000D01*
X109738502Y-120332973D01*
X109737273Y-120341522D01*
X104824600Y-120341522D01*
X104912807Y-120286937D01*
X104924208Y-120277901D01*
X105038739Y-120163171D01*
X105047751Y-120151760D01*
X105132816Y-120013757D01*
X105138963Y-120000576D01*
X105190138Y-119846290D01*
X105193005Y-119832914D01*
X105202672Y-119738562D01*
X105203000Y-119732145D01*
X105203000Y-119332115D01*
X105198525Y-119316876D01*
X105197135Y-119315671D01*
X105189452Y-119314000D01*
X104404615Y-119314000D01*
X104389376Y-119318475D01*
X104388171Y-119319865D01*
X104386500Y-119327548D01*
X104386500Y-120424884D01*
X103878500Y-120424884D01*
X103878500Y-119332115D01*
X103874025Y-119316876D01*
X103872635Y-119315671D01*
X103864952Y-119314000D01*
X103080116Y-119314000D01*
X103064877Y-119318475D01*
X103063672Y-119319865D01*
X103062001Y-119327548D01*
X103062001Y-119732095D01*
X102278500Y-119732095D01*
X102278500Y-118787885D01*
X103062000Y-118787885D01*
X103066475Y-118803124D01*
X103067865Y-118804329D01*
X103075548Y-118806000D01*
X103860385Y-118806000D01*
X103875624Y-118801525D01*
X103876829Y-118800135D01*
X103878500Y-118792452D01*
X103878500Y-118787885D01*
X104386500Y-118787885D01*
X104390975Y-118803124D01*
X104392365Y-118804329D01*
X104400048Y-118806000D01*
X105184884Y-118806000D01*
X105200123Y-118801525D01*
X105201328Y-118800135D01*
X105202999Y-118792452D01*
X105202999Y-118387905D01*
X105202662Y-118381386D01*
X105192743Y-118285794D01*
X105189851Y-118272400D01*
X105138412Y-118118216D01*
X105132239Y-118105038D01*
X105046937Y-117967193D01*
X105037901Y-117955792D01*
X104923171Y-117841261D01*
X104911760Y-117832249D01*
X104773757Y-117747184D01*
X104760576Y-117741037D01*
X104606290Y-117689862D01*
X104592914Y-117686995D01*
X104498562Y-117677328D01*
X104492145Y-117677000D01*
X104404615Y-117677000D01*
X104389376Y-117681475D01*
X104388171Y-117682865D01*
X104386500Y-117690548D01*
X104386500Y-118787885D01*
X103878500Y-118787885D01*
X103878500Y-117695116D01*
X103874025Y-117679877D01*
X103872635Y-117678672D01*
X103864952Y-117677001D01*
X103772905Y-117677001D01*
X103766386Y-117677338D01*
X103670794Y-117687257D01*
X103657400Y-117690149D01*
X103503216Y-117741588D01*
X103490038Y-117747761D01*
X103352193Y-117833063D01*
X103340792Y-117842099D01*
X103226261Y-117956829D01*
X103217249Y-117968240D01*
X103132184Y-118106243D01*
X103126037Y-118119424D01*
X103074862Y-118273710D01*
X103071995Y-118287086D01*
X103062328Y-118381438D01*
X103062000Y-118387855D01*
X103062000Y-118787885D01*
X102278500Y-118787885D01*
X102278500Y-118384600D01*
X102277482Y-118374789D01*
X102268238Y-118285692D01*
X102268237Y-118285688D01*
X102267526Y-118278834D01*
X102252879Y-118234930D01*
X102213868Y-118118002D01*
X102211550Y-118111054D01*
X102118478Y-117960652D01*
X101993303Y-117835695D01*
X101867989Y-117758450D01*
X101848968Y-117746725D01*
X101848966Y-117746724D01*
X101842738Y-117742885D01*
X101762995Y-117716436D01*
X101681389Y-117689368D01*
X101681387Y-117689368D01*
X101674861Y-117687203D01*
X101668025Y-117686503D01*
X101668022Y-117686502D01*
X101624969Y-117682091D01*
X101570400Y-117676500D01*
X100844600Y-117676500D01*
X100841356Y-117676837D01*
X100841348Y-117676837D01*
X100754503Y-117685848D01*
X100684682Y-117672983D01*
X100632900Y-117624412D01*
X100615500Y-117560521D01*
X100615500Y-117393500D01*
X100635502Y-117325379D01*
X100689158Y-117278886D01*
X100741500Y-117267500D01*
X101089127Y-117267500D01*
X101091844Y-117267262D01*
X101091851Y-117267262D01*
X101160520Y-117261254D01*
X101260087Y-117252543D01*
X101265400Y-117251119D01*
X101265402Y-117251119D01*
X101475933Y-117194707D01*
X101475935Y-117194706D01*
X101481243Y-117193284D01*
X101486225Y-117190961D01*
X101683762Y-117098849D01*
X101683767Y-117098846D01*
X101688749Y-117096523D01*
X101871243Y-116968739D01*
X101871789Y-116968357D01*
X101871792Y-116968355D01*
X101876300Y-116965198D01*
X102038198Y-116803300D01*
X102169523Y-116615749D01*
X102171846Y-116610767D01*
X102171849Y-116610762D01*
X102263961Y-116413225D01*
X102263961Y-116413224D01*
X102266284Y-116408243D01*
X102266592Y-116407095D01*
X103302001Y-116407095D01*
X103302338Y-116413614D01*
X103312257Y-116509206D01*
X103315149Y-116522600D01*
X103366588Y-116676784D01*
X103372761Y-116689962D01*
X103458063Y-116827807D01*
X103467099Y-116839208D01*
X103581829Y-116953739D01*
X103593240Y-116962751D01*
X103731243Y-117047816D01*
X103744424Y-117053963D01*
X103898710Y-117105138D01*
X103912086Y-117108005D01*
X104006438Y-117117672D01*
X104012854Y-117118000D01*
X104437885Y-117118000D01*
X104453124Y-117113525D01*
X104454329Y-117112135D01*
X104456000Y-117104452D01*
X104456000Y-117099884D01*
X104964000Y-117099884D01*
X104968475Y-117115123D01*
X104969865Y-117116328D01*
X104977548Y-117117999D01*
X105407095Y-117117999D01*
X105413614Y-117117662D01*
X105509206Y-117107743D01*
X105522600Y-117104851D01*
X105676784Y-117053412D01*
X105689962Y-117047239D01*
X105827807Y-116961937D01*
X105839208Y-116952901D01*
X105953739Y-116838171D01*
X105962751Y-116826760D01*
X106047816Y-116688757D01*
X106053963Y-116675576D01*
X106105138Y-116521290D01*
X106108005Y-116507914D01*
X106116798Y-116422095D01*
X106527001Y-116422095D01*
X106527338Y-116428614D01*
X106537257Y-116524206D01*
X106540149Y-116537600D01*
X106591588Y-116691784D01*
X106597761Y-116704962D01*
X106683063Y-116842807D01*
X106692099Y-116854208D01*
X106806829Y-116968739D01*
X106818240Y-116977751D01*
X106956243Y-117062816D01*
X106969424Y-117068963D01*
X107123710Y-117120138D01*
X107137086Y-117123005D01*
X107231438Y-117132672D01*
X107237854Y-117133000D01*
X107637885Y-117133000D01*
X107653124Y-117128525D01*
X107654329Y-117127135D01*
X107656000Y-117119452D01*
X107656000Y-117114884D01*
X108164000Y-117114884D01*
X108168475Y-117130123D01*
X108169865Y-117131328D01*
X108177548Y-117132999D01*
X108582095Y-117132999D01*
X108588614Y-117132662D01*
X108684206Y-117122743D01*
X108697600Y-117119851D01*
X108851784Y-117068412D01*
X108864962Y-117062239D01*
X109002807Y-116976937D01*
X109014208Y-116967901D01*
X109128739Y-116853171D01*
X109137751Y-116841760D01*
X109222816Y-116703757D01*
X109228963Y-116690576D01*
X109280138Y-116536290D01*
X109283005Y-116522914D01*
X109292672Y-116428562D01*
X109293000Y-116422146D01*
X109293000Y-116334615D01*
X109288525Y-116319376D01*
X109287135Y-116318171D01*
X109279452Y-116316500D01*
X108182115Y-116316500D01*
X108166876Y-116320975D01*
X108165671Y-116322365D01*
X108164000Y-116330048D01*
X108164000Y-117114884D01*
X107656000Y-117114884D01*
X107656000Y-116334615D01*
X107651525Y-116319376D01*
X107650135Y-116318171D01*
X107642452Y-116316500D01*
X106545116Y-116316500D01*
X106529877Y-116320975D01*
X106528672Y-116322365D01*
X106527001Y-116330048D01*
X106527001Y-116422095D01*
X106116798Y-116422095D01*
X106117672Y-116413562D01*
X106118000Y-116407146D01*
X106118000Y-116307115D01*
X106113525Y-116291876D01*
X106112135Y-116290671D01*
X106104452Y-116289000D01*
X104982115Y-116289000D01*
X104966876Y-116293475D01*
X104965671Y-116294865D01*
X104964000Y-116302548D01*
X104964000Y-117099884D01*
X104456000Y-117099884D01*
X104456000Y-116307115D01*
X104451525Y-116291876D01*
X104450135Y-116290671D01*
X104442452Y-116289000D01*
X103320116Y-116289000D01*
X103304877Y-116293475D01*
X103303672Y-116294865D01*
X103302001Y-116302548D01*
X103302001Y-116407095D01*
X102266592Y-116407095D01*
X102287237Y-116330048D01*
X102324119Y-116192402D01*
X102324119Y-116192400D01*
X102325543Y-116187087D01*
X102345498Y-115959000D01*
X102330746Y-115790385D01*
X106527000Y-115790385D01*
X106531475Y-115805624D01*
X106532865Y-115806829D01*
X106540548Y-115808500D01*
X107637885Y-115808500D01*
X107653124Y-115804025D01*
X107654329Y-115802635D01*
X107656000Y-115794952D01*
X107656000Y-115790385D01*
X108164000Y-115790385D01*
X108168475Y-115805624D01*
X108169865Y-115806829D01*
X108177548Y-115808500D01*
X109274884Y-115808500D01*
X109290123Y-115804025D01*
X109291328Y-115802635D01*
X109292999Y-115794952D01*
X109292999Y-115702905D01*
X109292662Y-115696386D01*
X109282743Y-115600794D01*
X109279851Y-115587400D01*
X109228412Y-115433216D01*
X109222239Y-115420038D01*
X109136937Y-115282193D01*
X109127901Y-115270792D01*
X109013171Y-115156261D01*
X109001760Y-115147249D01*
X108863757Y-115062184D01*
X108850576Y-115056037D01*
X108696290Y-115004862D01*
X108682914Y-115001995D01*
X108588562Y-114992328D01*
X108582145Y-114992000D01*
X108182115Y-114992000D01*
X108166876Y-114996475D01*
X108165671Y-114997865D01*
X108164000Y-115005548D01*
X108164000Y-115790385D01*
X107656000Y-115790385D01*
X107656000Y-115010116D01*
X107651525Y-114994877D01*
X107650135Y-114993672D01*
X107642452Y-114992001D01*
X107237905Y-114992001D01*
X107231386Y-114992338D01*
X107135794Y-115002257D01*
X107122400Y-115005149D01*
X106968216Y-115056588D01*
X106955038Y-115062761D01*
X106817193Y-115148063D01*
X106805792Y-115157099D01*
X106691261Y-115271829D01*
X106682249Y-115283240D01*
X106597184Y-115421243D01*
X106591037Y-115434424D01*
X106539862Y-115588710D01*
X106536995Y-115602086D01*
X106527328Y-115696438D01*
X106527000Y-115702855D01*
X106527000Y-115790385D01*
X102330746Y-115790385D01*
X102328340Y-115762885D01*
X103302000Y-115762885D01*
X103306475Y-115778124D01*
X103307865Y-115779329D01*
X103315548Y-115781000D01*
X104437885Y-115781000D01*
X104453124Y-115776525D01*
X104454329Y-115775135D01*
X104456000Y-115767452D01*
X104456000Y-115762885D01*
X104964000Y-115762885D01*
X104968475Y-115778124D01*
X104969865Y-115779329D01*
X104977548Y-115781000D01*
X106099884Y-115781000D01*
X106115123Y-115776525D01*
X106116328Y-115775135D01*
X106117999Y-115767452D01*
X106117999Y-115662905D01*
X106117662Y-115656386D01*
X106107743Y-115560794D01*
X106104851Y-115547400D01*
X106053412Y-115393216D01*
X106047239Y-115380038D01*
X105961937Y-115242193D01*
X105952901Y-115230792D01*
X105838171Y-115116261D01*
X105826760Y-115107249D01*
X105688757Y-115022184D01*
X105675576Y-115016037D01*
X105521290Y-114964862D01*
X105507914Y-114961995D01*
X105413562Y-114952328D01*
X105407145Y-114952000D01*
X104982115Y-114952000D01*
X104966876Y-114956475D01*
X104965671Y-114957865D01*
X104964000Y-114965548D01*
X104964000Y-115762885D01*
X104456000Y-115762885D01*
X104456000Y-114970116D01*
X104451525Y-114954877D01*
X104450135Y-114953672D01*
X104442452Y-114952001D01*
X104012905Y-114952001D01*
X104006386Y-114952338D01*
X103910794Y-114962257D01*
X103897400Y-114965149D01*
X103743216Y-115016588D01*
X103730038Y-115022761D01*
X103592193Y-115108063D01*
X103580792Y-115117099D01*
X103466261Y-115231829D01*
X103457249Y-115243240D01*
X103372184Y-115381243D01*
X103366037Y-115394424D01*
X103314862Y-115548710D01*
X103311995Y-115562086D01*
X103302328Y-115656438D01*
X103302000Y-115662855D01*
X103302000Y-115762885D01*
X102328340Y-115762885D01*
X102325543Y-115730913D01*
X102316862Y-115698514D01*
X102267707Y-115515067D01*
X102267706Y-115515065D01*
X102266284Y-115509757D01*
X102224448Y-115420038D01*
X102171849Y-115307238D01*
X102171846Y-115307233D01*
X102169523Y-115302251D01*
X102067886Y-115157099D01*
X102041357Y-115119211D01*
X102041355Y-115119208D01*
X102038198Y-115114700D01*
X101876300Y-114952802D01*
X101871792Y-114949645D01*
X101871789Y-114949643D01*
X101793611Y-114894902D01*
X101688749Y-114821477D01*
X101683767Y-114819154D01*
X101683762Y-114819151D01*
X101649543Y-114803195D01*
X101596258Y-114756278D01*
X101576797Y-114688001D01*
X101597339Y-114620041D01*
X101649543Y-114574805D01*
X101683762Y-114558849D01*
X101683767Y-114558846D01*
X101688749Y-114556523D01*
X101822925Y-114462572D01*
X101871789Y-114428357D01*
X101871792Y-114428355D01*
X101876300Y-114425198D01*
X102038198Y-114263300D01*
X102043148Y-114256231D01*
X102044227Y-114255369D01*
X102044892Y-114254576D01*
X102045051Y-114254710D01*
X102098604Y-114211902D01*
X102146362Y-114202500D01*
X104366999Y-114202500D01*
X104368320Y-114202507D01*
X104455678Y-114203422D01*
X104462563Y-114201933D01*
X104462566Y-114201933D01*
X104496545Y-114194586D01*
X104509128Y-114192525D01*
X104517615Y-114191573D01*
X104550682Y-114187864D01*
X104557337Y-114185546D01*
X104557343Y-114185545D01*
X104581146Y-114177256D01*
X104595952Y-114173093D01*
X104604031Y-114171346D01*
X104630662Y-114168500D01*
X105410400Y-114168500D01*
X105413646Y-114168163D01*
X105413650Y-114168163D01*
X105509308Y-114158238D01*
X105509312Y-114158237D01*
X105516166Y-114157526D01*
X105522702Y-114155345D01*
X105522704Y-114155345D01*
X105676998Y-114103868D01*
X105683946Y-114101550D01*
X105834348Y-114008478D01*
X105839521Y-114003296D01*
X105937165Y-113905482D01*
X105999448Y-113871403D01*
X106026338Y-113868500D01*
X106582429Y-113868500D01*
X106650550Y-113888502D01*
X106681177Y-113916238D01*
X106682666Y-113918117D01*
X106686522Y-113924348D01*
X106811697Y-114049305D01*
X106817927Y-114053145D01*
X106817928Y-114053146D01*
X106955090Y-114137694D01*
X106962262Y-114142115D01*
X107007058Y-114156973D01*
X107123611Y-114195632D01*
X107123613Y-114195632D01*
X107130139Y-114197797D01*
X107136975Y-114198497D01*
X107136978Y-114198498D01*
X107170506Y-114201933D01*
X107234600Y-114208500D01*
X108585400Y-114208500D01*
X108588646Y-114208163D01*
X108588650Y-114208163D01*
X108684308Y-114198238D01*
X108684312Y-114198237D01*
X108691166Y-114197526D01*
X108697702Y-114195345D01*
X108697704Y-114195345D01*
X108849181Y-114144808D01*
X108858946Y-114141550D01*
X109009348Y-114048478D01*
X109020713Y-114037093D01*
X109082994Y-114003014D01*
X109153814Y-114008017D01*
X109198980Y-114037016D01*
X111173369Y-116011405D01*
X111207395Y-116073717D01*
X111202330Y-116144532D01*
X111159783Y-116201368D01*
X111093263Y-116226179D01*
X111084274Y-116226500D01*
X110962873Y-116226500D01*
X110960156Y-116226738D01*
X110960149Y-116226738D01*
X110891480Y-116232746D01*
X110791913Y-116241457D01*
X110786600Y-116242881D01*
X110786598Y-116242881D01*
X110576067Y-116299293D01*
X110576065Y-116299294D01*
X110570757Y-116300716D01*
X110565776Y-116303039D01*
X110565775Y-116303039D01*
X110368238Y-116395151D01*
X110368233Y-116395154D01*
X110363251Y-116397477D01*
X110318783Y-116428614D01*
X110180211Y-116525643D01*
X110180208Y-116525645D01*
X110175700Y-116528802D01*
X110013802Y-116690700D01*
X110010645Y-116695208D01*
X110010643Y-116695211D01*
X109963318Y-116762799D01*
X109882477Y-116878251D01*
X109880154Y-116883233D01*
X109880151Y-116883238D01*
X109796413Y-117062816D01*
X109785716Y-117085757D01*
X109784294Y-117091065D01*
X109784293Y-117091067D01*
X109737018Y-117267500D01*
X109726457Y-117306913D01*
X109706502Y-117535000D01*
X109726457Y-117763087D01*
X109727881Y-117768400D01*
X109727881Y-117768402D01*
X109781064Y-117966880D01*
X109785716Y-117984243D01*
X109788039Y-117989224D01*
X109788039Y-117989225D01*
X109880151Y-118186762D01*
X109880154Y-118186767D01*
X109882477Y-118191749D01*
X110013802Y-118379300D01*
X110175700Y-118541198D01*
X110180208Y-118544355D01*
X110180211Y-118544357D01*
X110210594Y-118565631D01*
X110363251Y-118672523D01*
X110368233Y-118674846D01*
X110368238Y-118674849D01*
X110403049Y-118691081D01*
X110456334Y-118737998D01*
X110475795Y-118806275D01*
X110455253Y-118874235D01*
X110403049Y-118919471D01*
X110368489Y-118935586D01*
X110358993Y-118941069D01*
X110180533Y-119066028D01*
X110172125Y-119073084D01*
X110018084Y-119227125D01*
X110011028Y-119235533D01*
X109886069Y-119413993D01*
X109880586Y-119423489D01*
X109788510Y-119620947D01*
X109784764Y-119631239D01*
X109738606Y-119803503D01*
X109738942Y-119817599D01*
X109746884Y-119821000D01*
X112348000Y-119821000D01*
X112416121Y-119841002D01*
X112462614Y-119894658D01*
X112474000Y-119947000D01*
X112474000Y-121364885D01*
X112478475Y-121380124D01*
X112479865Y-121381329D01*
X112487548Y-121383000D01*
X113474365Y-121383000D01*
X113479830Y-121382762D01*
X113642519Y-121368528D01*
X113653312Y-121366625D01*
X113863761Y-121310236D01*
X113874053Y-121306490D01*
X114071511Y-121214414D01*
X114081007Y-121208931D01*
X114259467Y-121083972D01*
X114267875Y-121076916D01*
X114421916Y-120922875D01*
X114428972Y-120914467D01*
X114527287Y-120774058D01*
X114582744Y-120729730D01*
X114653363Y-120722421D01*
X114716724Y-120754452D01*
X114752709Y-120815653D01*
X114756500Y-120846329D01*
X114756500Y-123455500D01*
X114736498Y-123523621D01*
X114682842Y-123570114D01*
X114630500Y-123581500D01*
X66354500Y-123581500D01*
X66286379Y-123561498D01*
X66239886Y-123507842D01*
X66228500Y-123455500D01*
X66228500Y-123012670D01*
X81162160Y-123012670D01*
X81167887Y-123020320D01*
X81339042Y-123125205D01*
X81347837Y-123129687D01*
X81557988Y-123216734D01*
X81567373Y-123219783D01*
X81788554Y-123272885D01*
X81798301Y-123274428D01*
X82025070Y-123292275D01*
X82034930Y-123292275D01*
X82261699Y-123274428D01*
X82271446Y-123272885D01*
X82492627Y-123219783D01*
X82502012Y-123216734D01*
X82712163Y-123129687D01*
X82720958Y-123125205D01*
X82888445Y-123022568D01*
X82897907Y-123012110D01*
X82894124Y-123003334D01*
X82042812Y-122152022D01*
X82028868Y-122144408D01*
X82027035Y-122144539D01*
X82020420Y-122148790D01*
X81168920Y-123000290D01*
X81162160Y-123012670D01*
X66228500Y-123012670D01*
X66228500Y-121784930D01*
X80517725Y-121784930D01*
X80535572Y-122011699D01*
X80537115Y-122021446D01*
X80590217Y-122242627D01*
X80593266Y-122252012D01*
X80680313Y-122462163D01*
X80684795Y-122470958D01*
X80787432Y-122638445D01*
X80797890Y-122647907D01*
X80806666Y-122644124D01*
X81657978Y-121792812D01*
X81664356Y-121781132D01*
X82394408Y-121781132D01*
X82394539Y-121782965D01*
X82398790Y-121789580D01*
X83250290Y-122641080D01*
X83262670Y-122647840D01*
X83270320Y-122642113D01*
X83375205Y-122470958D01*
X83379687Y-122462163D01*
X83466734Y-122252012D01*
X83469783Y-122242627D01*
X83522885Y-122021446D01*
X83524428Y-122011699D01*
X83542275Y-121784930D01*
X83542275Y-121775070D01*
X83525907Y-121567095D01*
X85782001Y-121567095D01*
X85782338Y-121573614D01*
X85792257Y-121669206D01*
X85795149Y-121682600D01*
X85846588Y-121836784D01*
X85852761Y-121849962D01*
X85938063Y-121987807D01*
X85947099Y-121999208D01*
X86061829Y-122113739D01*
X86073240Y-122122751D01*
X86211243Y-122207816D01*
X86224424Y-122213963D01*
X86378710Y-122265138D01*
X86392086Y-122268005D01*
X86486438Y-122277672D01*
X86492854Y-122278000D01*
X86917885Y-122278000D01*
X86933124Y-122273525D01*
X86934329Y-122272135D01*
X86936000Y-122264452D01*
X86936000Y-122259884D01*
X87444000Y-122259884D01*
X87448475Y-122275123D01*
X87449865Y-122276328D01*
X87457548Y-122277999D01*
X87887095Y-122277999D01*
X87893614Y-122277662D01*
X87989206Y-122267743D01*
X88002600Y-122264851D01*
X88156784Y-122213412D01*
X88169962Y-122207239D01*
X88307807Y-122121937D01*
X88319208Y-122112901D01*
X88325530Y-122106568D01*
X88387813Y-122072489D01*
X88458633Y-122077492D01*
X88515506Y-122119989D01*
X88521847Y-122129283D01*
X88558063Y-122187807D01*
X88567099Y-122199208D01*
X88681829Y-122313739D01*
X88693240Y-122322751D01*
X88831243Y-122407816D01*
X88844424Y-122413963D01*
X88998710Y-122465138D01*
X89012086Y-122468005D01*
X89106438Y-122477672D01*
X89112854Y-122478000D01*
X89537885Y-122478000D01*
X89553124Y-122473525D01*
X89554329Y-122472135D01*
X89556000Y-122464452D01*
X89556000Y-122459884D01*
X90064000Y-122459884D01*
X90068475Y-122475123D01*
X90069865Y-122476328D01*
X90077548Y-122477999D01*
X90507095Y-122477999D01*
X90513614Y-122477662D01*
X90609206Y-122467743D01*
X90622600Y-122464851D01*
X90776784Y-122413412D01*
X90789962Y-122407239D01*
X90927807Y-122321937D01*
X90939208Y-122312901D01*
X91053739Y-122198171D01*
X91062751Y-122186760D01*
X91147816Y-122048757D01*
X91153963Y-122035576D01*
X91205138Y-121881290D01*
X91208005Y-121867914D01*
X91217672Y-121773562D01*
X91218000Y-121767146D01*
X91218000Y-121667115D01*
X91213525Y-121651876D01*
X91212135Y-121650671D01*
X91204452Y-121649000D01*
X90082115Y-121649000D01*
X90066876Y-121653475D01*
X90065671Y-121654865D01*
X90064000Y-121662548D01*
X90064000Y-122459884D01*
X89556000Y-122459884D01*
X89556000Y-121667115D01*
X89551525Y-121651876D01*
X89550135Y-121650671D01*
X89542452Y-121649000D01*
X88488000Y-121649000D01*
X88419879Y-121628998D01*
X88373386Y-121575342D01*
X88362000Y-121523000D01*
X88362000Y-121467115D01*
X88357525Y-121451876D01*
X88356135Y-121450671D01*
X88348452Y-121449000D01*
X87462115Y-121449000D01*
X87446876Y-121453475D01*
X87445671Y-121454865D01*
X87444000Y-121462548D01*
X87444000Y-122259884D01*
X86936000Y-122259884D01*
X86936000Y-121467115D01*
X86931525Y-121451876D01*
X86930135Y-121450671D01*
X86922452Y-121449000D01*
X85800116Y-121449000D01*
X85784877Y-121453475D01*
X85783672Y-121454865D01*
X85782001Y-121462548D01*
X85782001Y-121567095D01*
X83525907Y-121567095D01*
X83524428Y-121548301D01*
X83522885Y-121538554D01*
X83469783Y-121317373D01*
X83466734Y-121307988D01*
X83379687Y-121097837D01*
X83375205Y-121089042D01*
X83273383Y-120922885D01*
X85782000Y-120922885D01*
X85786475Y-120938124D01*
X85787865Y-120939329D01*
X85795548Y-120941000D01*
X86917885Y-120941000D01*
X86933124Y-120936525D01*
X86934329Y-120935135D01*
X86936000Y-120927452D01*
X86936000Y-120922885D01*
X87444000Y-120922885D01*
X87448475Y-120938124D01*
X87449865Y-120939329D01*
X87457548Y-120941000D01*
X88512000Y-120941000D01*
X88580121Y-120961002D01*
X88626614Y-121014658D01*
X88638000Y-121067000D01*
X88638000Y-121122885D01*
X88642475Y-121138124D01*
X88643865Y-121139329D01*
X88651548Y-121141000D01*
X89537885Y-121141000D01*
X89553124Y-121136525D01*
X89554329Y-121135135D01*
X89556000Y-121127452D01*
X89556000Y-121122885D01*
X90064000Y-121122885D01*
X90068475Y-121138124D01*
X90069865Y-121139329D01*
X90077548Y-121141000D01*
X91199884Y-121141000D01*
X91215123Y-121136525D01*
X91216328Y-121135135D01*
X91217999Y-121127452D01*
X91217999Y-121022905D01*
X91217662Y-121016386D01*
X91207743Y-120920794D01*
X91204851Y-120907400D01*
X91153412Y-120753216D01*
X91147239Y-120740038D01*
X91061937Y-120602193D01*
X91052901Y-120590792D01*
X90938171Y-120476261D01*
X90926760Y-120467249D01*
X90788757Y-120382184D01*
X90775576Y-120376037D01*
X90621290Y-120324862D01*
X90607914Y-120321995D01*
X90513562Y-120312328D01*
X90507145Y-120312000D01*
X90082115Y-120312000D01*
X90066876Y-120316475D01*
X90065671Y-120317865D01*
X90064000Y-120325548D01*
X90064000Y-121122885D01*
X89556000Y-121122885D01*
X89556000Y-120330116D01*
X89551525Y-120314877D01*
X89550135Y-120313672D01*
X89542452Y-120312001D01*
X89112905Y-120312001D01*
X89106386Y-120312338D01*
X89010794Y-120322257D01*
X88997400Y-120325149D01*
X88843216Y-120376588D01*
X88830038Y-120382761D01*
X88692193Y-120468063D01*
X88680792Y-120477099D01*
X88674470Y-120483432D01*
X88612187Y-120517511D01*
X88541367Y-120512508D01*
X88484494Y-120470011D01*
X88478153Y-120460717D01*
X88441937Y-120402193D01*
X88432901Y-120390792D01*
X88318171Y-120276261D01*
X88306760Y-120267249D01*
X88168757Y-120182184D01*
X88155576Y-120176037D01*
X88001290Y-120124862D01*
X87987914Y-120121995D01*
X87893562Y-120112328D01*
X87887145Y-120112000D01*
X87462115Y-120112000D01*
X87446876Y-120116475D01*
X87445671Y-120117865D01*
X87444000Y-120125548D01*
X87444000Y-120922885D01*
X86936000Y-120922885D01*
X86936000Y-120130116D01*
X86931525Y-120114877D01*
X86930135Y-120113672D01*
X86922452Y-120112001D01*
X86492905Y-120112001D01*
X86486386Y-120112338D01*
X86390794Y-120122257D01*
X86377400Y-120125149D01*
X86223216Y-120176588D01*
X86210038Y-120182761D01*
X86072193Y-120268063D01*
X86060792Y-120277099D01*
X85946261Y-120391829D01*
X85937249Y-120403240D01*
X85852184Y-120541243D01*
X85846037Y-120554424D01*
X85794862Y-120708710D01*
X85791995Y-120722086D01*
X85782328Y-120816438D01*
X85782000Y-120822855D01*
X85782000Y-120922885D01*
X83273383Y-120922885D01*
X83272568Y-120921555D01*
X83262110Y-120912093D01*
X83253334Y-120915876D01*
X82402022Y-121767188D01*
X82394408Y-121781132D01*
X81664356Y-121781132D01*
X81665592Y-121778868D01*
X81665461Y-121777035D01*
X81661210Y-121770420D01*
X80809710Y-120918920D01*
X80797330Y-120912160D01*
X80789680Y-120917887D01*
X80684795Y-121089042D01*
X80680313Y-121097837D01*
X80593266Y-121307988D01*
X80590217Y-121317373D01*
X80537115Y-121538554D01*
X80535572Y-121548301D01*
X80517725Y-121775070D01*
X80517725Y-121784930D01*
X66228500Y-121784930D01*
X66228500Y-119734365D01*
X68489349Y-119734365D01*
X68489587Y-119739830D01*
X68503821Y-119902519D01*
X68505724Y-119913312D01*
X68562113Y-120123761D01*
X68565859Y-120134053D01*
X68657935Y-120331511D01*
X68663418Y-120341007D01*
X68788377Y-120519467D01*
X68795433Y-120527875D01*
X68949474Y-120681916D01*
X68957882Y-120688972D01*
X69136342Y-120813931D01*
X69145838Y-120819414D01*
X69343296Y-120911490D01*
X69353588Y-120915236D01*
X69525852Y-120961394D01*
X69539948Y-120961058D01*
X69543349Y-120953116D01*
X69543349Y-120947967D01*
X70051349Y-120947967D01*
X70055322Y-120961498D01*
X70063871Y-120962727D01*
X70241110Y-120915236D01*
X70251402Y-120911490D01*
X70448860Y-120819414D01*
X70458356Y-120813931D01*
X70636816Y-120688972D01*
X70645224Y-120681916D01*
X70799265Y-120527875D01*
X70806321Y-120519467D01*
X70931283Y-120341002D01*
X70937940Y-120329472D01*
X70989322Y-120280479D01*
X71059036Y-120267042D01*
X71124947Y-120293429D01*
X71156178Y-120329472D01*
X71157502Y-120331765D01*
X71159826Y-120336749D01*
X71198394Y-120391829D01*
X71287273Y-120518761D01*
X71291151Y-120524300D01*
X71453049Y-120686198D01*
X71457557Y-120689355D01*
X71457560Y-120689357D01*
X71510622Y-120726511D01*
X71640600Y-120817523D01*
X71645582Y-120819846D01*
X71645587Y-120819849D01*
X71833343Y-120907400D01*
X71848106Y-120914284D01*
X71853414Y-120915706D01*
X71853416Y-120915707D01*
X72063947Y-120972119D01*
X72063949Y-120972119D01*
X72069262Y-120973543D01*
X72297349Y-120993498D01*
X72525436Y-120973543D01*
X72530749Y-120972119D01*
X72530751Y-120972119D01*
X72741282Y-120915707D01*
X72741284Y-120915706D01*
X72746592Y-120914284D01*
X72761355Y-120907400D01*
X72949111Y-120819849D01*
X72949116Y-120819846D01*
X72954098Y-120817523D01*
X73084076Y-120726511D01*
X73137138Y-120689357D01*
X73137141Y-120689355D01*
X73141649Y-120686198D01*
X73279957Y-120547890D01*
X81162093Y-120547890D01*
X81165876Y-120556666D01*
X82017188Y-121407978D01*
X82031132Y-121415592D01*
X82032965Y-121415461D01*
X82039580Y-121411210D01*
X82891080Y-120559710D01*
X82897840Y-120547330D01*
X82892113Y-120539680D01*
X82720958Y-120434795D01*
X82712163Y-120430313D01*
X82502012Y-120343266D01*
X82492627Y-120340217D01*
X82271446Y-120287115D01*
X82261699Y-120285572D01*
X82034930Y-120267725D01*
X82025070Y-120267725D01*
X81798301Y-120285572D01*
X81788554Y-120287115D01*
X81567373Y-120340217D01*
X81557988Y-120343266D01*
X81347837Y-120430313D01*
X81339042Y-120434795D01*
X81171555Y-120537432D01*
X81162093Y-120547890D01*
X73279957Y-120547890D01*
X73303547Y-120524300D01*
X73307426Y-120518761D01*
X73396304Y-120391829D01*
X73434872Y-120336749D01*
X73437195Y-120331767D01*
X73437198Y-120331762D01*
X73529310Y-120134225D01*
X73529310Y-120134224D01*
X73531633Y-120129243D01*
X73535483Y-120114877D01*
X73589468Y-119913402D01*
X73589468Y-119913400D01*
X73590892Y-119908087D01*
X73605849Y-119737127D01*
X73605849Y-119389500D01*
X73625851Y-119321379D01*
X73679507Y-119274886D01*
X73731849Y-119263500D01*
X78357501Y-119263500D01*
X78425622Y-119283502D01*
X78464645Y-119323197D01*
X78536522Y-119439348D01*
X78661697Y-119564305D01*
X78667927Y-119568145D01*
X78667928Y-119568146D01*
X78805090Y-119652694D01*
X78812262Y-119657115D01*
X78892005Y-119683564D01*
X78973611Y-119710632D01*
X78973613Y-119710632D01*
X78980139Y-119712797D01*
X78986975Y-119713497D01*
X78986978Y-119713498D01*
X79030031Y-119717909D01*
X79084600Y-119723500D01*
X79810400Y-119723500D01*
X79813646Y-119723163D01*
X79813650Y-119723163D01*
X79909308Y-119713238D01*
X79909312Y-119713237D01*
X79916166Y-119712526D01*
X79922702Y-119710345D01*
X79922704Y-119710345D01*
X80054806Y-119666272D01*
X80083946Y-119656550D01*
X80234348Y-119563478D01*
X80269602Y-119528163D01*
X80354134Y-119443483D01*
X80359305Y-119438303D01*
X80430258Y-119323197D01*
X80448275Y-119293968D01*
X80448276Y-119293966D01*
X80452115Y-119287738D01*
X80487822Y-119180084D01*
X80505632Y-119126389D01*
X80505632Y-119126387D01*
X80507797Y-119119861D01*
X80518500Y-119015400D01*
X81301500Y-119015400D01*
X81301837Y-119018646D01*
X81301837Y-119018650D01*
X81311142Y-119108326D01*
X81312474Y-119121166D01*
X81314655Y-119127702D01*
X81314655Y-119127704D01*
X81328534Y-119169305D01*
X81368450Y-119288946D01*
X81461522Y-119439348D01*
X81586697Y-119564305D01*
X81592927Y-119568145D01*
X81592928Y-119568146D01*
X81730090Y-119652694D01*
X81737262Y-119657115D01*
X81817005Y-119683564D01*
X81898611Y-119710632D01*
X81898613Y-119710632D01*
X81905139Y-119712797D01*
X81911975Y-119713497D01*
X81911978Y-119713498D01*
X81955031Y-119717909D01*
X82009600Y-119723500D01*
X82735400Y-119723500D01*
X82738646Y-119723163D01*
X82738650Y-119723163D01*
X82834308Y-119713238D01*
X82834312Y-119713237D01*
X82841166Y-119712526D01*
X82847702Y-119710345D01*
X82847704Y-119710345D01*
X82979806Y-119666272D01*
X83008946Y-119656550D01*
X83159348Y-119563478D01*
X83194602Y-119528163D01*
X83279134Y-119443483D01*
X83284305Y-119438303D01*
X83355258Y-119323197D01*
X83373275Y-119293968D01*
X83373276Y-119293966D01*
X83377115Y-119287738D01*
X83432797Y-119119861D01*
X83434433Y-119120404D01*
X83464106Y-119065672D01*
X83526316Y-119031460D01*
X83553468Y-119028500D01*
X85873520Y-119028500D01*
X85941641Y-119048502D01*
X85962536Y-119065325D01*
X86066697Y-119169305D01*
X86072927Y-119173145D01*
X86072928Y-119173146D01*
X86210090Y-119257694D01*
X86217262Y-119262115D01*
X86255766Y-119274886D01*
X86378611Y-119315632D01*
X86378613Y-119315632D01*
X86385139Y-119317797D01*
X86391975Y-119318497D01*
X86391978Y-119318498D01*
X86435031Y-119322909D01*
X86489600Y-119328500D01*
X87890400Y-119328500D01*
X87893646Y-119328163D01*
X87893650Y-119328163D01*
X87989308Y-119318238D01*
X87989312Y-119318237D01*
X87996166Y-119317526D01*
X88002702Y-119315345D01*
X88002704Y-119315345D01*
X88134806Y-119271272D01*
X88163946Y-119261550D01*
X88314348Y-119168478D01*
X88325435Y-119157371D01*
X88387716Y-119123291D01*
X88458536Y-119128292D01*
X88515410Y-119170787D01*
X88521754Y-119180084D01*
X88561522Y-119244348D01*
X88686697Y-119369305D01*
X88692927Y-119373145D01*
X88692928Y-119373146D01*
X88830090Y-119457694D01*
X88837262Y-119462115D01*
X88917005Y-119488564D01*
X88998611Y-119515632D01*
X88998613Y-119515632D01*
X89005139Y-119517797D01*
X89011975Y-119518497D01*
X89011978Y-119518498D01*
X89055031Y-119522909D01*
X89109600Y-119528500D01*
X90510400Y-119528500D01*
X90513646Y-119528163D01*
X90513650Y-119528163D01*
X90609308Y-119518238D01*
X90609312Y-119518237D01*
X90616166Y-119517526D01*
X90622702Y-119515345D01*
X90622704Y-119515345D01*
X90754806Y-119471272D01*
X90783946Y-119461550D01*
X90934348Y-119368478D01*
X91059305Y-119243303D01*
X91102551Y-119173146D01*
X91148275Y-119098968D01*
X91148276Y-119098966D01*
X91152115Y-119092738D01*
X91202421Y-118941069D01*
X91205632Y-118931389D01*
X91205632Y-118931387D01*
X91207797Y-118924861D01*
X91218500Y-118820400D01*
X91218500Y-118069600D01*
X91216695Y-118052207D01*
X91229559Y-117982389D01*
X91252927Y-117950109D01*
X91898631Y-117304405D01*
X91960943Y-117270379D01*
X91987726Y-117267500D01*
X93469127Y-117267500D01*
X93471844Y-117267262D01*
X93471851Y-117267262D01*
X93540520Y-117261254D01*
X93640087Y-117252543D01*
X93645400Y-117251119D01*
X93645402Y-117251119D01*
X93855933Y-117194707D01*
X93855935Y-117194706D01*
X93861243Y-117193284D01*
X93866225Y-117190961D01*
X94063762Y-117098849D01*
X94063767Y-117098846D01*
X94068749Y-117096523D01*
X94251243Y-116968739D01*
X94251789Y-116968357D01*
X94251792Y-116968355D01*
X94256300Y-116965198D01*
X94418198Y-116803300D01*
X94549523Y-116615749D01*
X94551846Y-116610767D01*
X94551849Y-116610762D01*
X94643961Y-116413225D01*
X94643961Y-116413224D01*
X94646284Y-116408243D01*
X94667237Y-116330048D01*
X94704119Y-116192402D01*
X94704119Y-116192400D01*
X94705543Y-116187087D01*
X94722979Y-115987792D01*
X94732770Y-115962762D01*
X94727604Y-115954724D01*
X94722979Y-115930208D01*
X94717740Y-115870322D01*
X94705543Y-115730913D01*
X94696862Y-115698514D01*
X94647707Y-115515067D01*
X94647706Y-115515065D01*
X94646284Y-115509757D01*
X94604448Y-115420038D01*
X94551849Y-115307238D01*
X94551846Y-115307233D01*
X94549523Y-115302251D01*
X94447886Y-115157099D01*
X94421357Y-115119211D01*
X94421355Y-115119208D01*
X94418198Y-115114700D01*
X94256300Y-114952802D01*
X94251792Y-114949645D01*
X94251789Y-114949643D01*
X94173611Y-114894902D01*
X94068749Y-114821477D01*
X94063767Y-114819154D01*
X94063762Y-114819151D01*
X94029543Y-114803195D01*
X93976258Y-114756278D01*
X93956797Y-114688001D01*
X93977339Y-114620041D01*
X94029543Y-114574805D01*
X94063762Y-114558849D01*
X94063767Y-114558846D01*
X94068749Y-114556523D01*
X94202925Y-114462572D01*
X94251789Y-114428357D01*
X94251792Y-114428355D01*
X94256300Y-114425198D01*
X94418198Y-114263300D01*
X94421361Y-114258784D01*
X94497279Y-114150361D01*
X94549523Y-114075749D01*
X94551846Y-114070767D01*
X94551849Y-114070762D01*
X94643961Y-113873225D01*
X94643961Y-113873224D01*
X94646284Y-113868243D01*
X94683817Y-113728171D01*
X94704119Y-113652402D01*
X94704119Y-113652400D01*
X94705543Y-113647087D01*
X94722979Y-113447792D01*
X94732770Y-113422762D01*
X94727604Y-113414724D01*
X94722979Y-113390208D01*
X94722018Y-113379226D01*
X94705543Y-113190913D01*
X94646284Y-112969757D01*
X94643961Y-112964775D01*
X94551849Y-112767238D01*
X94551846Y-112767233D01*
X94549523Y-112762251D01*
X94467493Y-112645100D01*
X94421357Y-112579211D01*
X94421355Y-112579208D01*
X94418198Y-112574700D01*
X94256300Y-112412802D01*
X94251792Y-112409645D01*
X94251789Y-112409643D01*
X94167541Y-112350652D01*
X94068749Y-112281477D01*
X94063767Y-112279154D01*
X94063762Y-112279151D01*
X94029543Y-112263195D01*
X93976258Y-112216278D01*
X93956797Y-112148001D01*
X93977339Y-112080041D01*
X94029543Y-112034805D01*
X94063762Y-112018849D01*
X94063767Y-112018846D01*
X94068749Y-112016523D01*
X94233521Y-111901148D01*
X94251789Y-111888357D01*
X94251792Y-111888355D01*
X94256300Y-111885198D01*
X94418198Y-111723300D01*
X94423752Y-111715369D01*
X94486136Y-111626275D01*
X94549523Y-111535749D01*
X94551846Y-111530767D01*
X94551849Y-111530762D01*
X94643961Y-111333225D01*
X94643961Y-111333224D01*
X94646284Y-111328243D01*
X94663625Y-111263528D01*
X94704119Y-111112402D01*
X94704119Y-111112400D01*
X94705543Y-111107087D01*
X94722979Y-110907792D01*
X94732770Y-110882762D01*
X94727604Y-110874724D01*
X94722979Y-110850208D01*
X94717591Y-110788623D01*
X94705543Y-110650913D01*
X94703378Y-110642832D01*
X94647707Y-110435067D01*
X94647706Y-110435065D01*
X94646284Y-110429757D01*
X94618377Y-110369910D01*
X94551849Y-110227238D01*
X94551846Y-110227233D01*
X94549523Y-110222251D01*
X94454899Y-110087114D01*
X94421357Y-110039211D01*
X94421355Y-110039208D01*
X94418198Y-110034700D01*
X94256300Y-109872802D01*
X94251792Y-109869645D01*
X94251789Y-109869643D01*
X94173611Y-109814902D01*
X94068749Y-109741477D01*
X94063767Y-109739154D01*
X94063762Y-109739151D01*
X94029543Y-109723195D01*
X93976258Y-109676278D01*
X93956797Y-109608001D01*
X93977339Y-109540041D01*
X94029543Y-109494805D01*
X94063762Y-109478849D01*
X94063767Y-109478846D01*
X94068749Y-109476523D01*
X94138734Y-109427519D01*
X94206007Y-109404830D01*
X94274868Y-109422114D01*
X94300100Y-109441636D01*
X94937595Y-110079131D01*
X94971621Y-110141443D01*
X94974500Y-110168226D01*
X94974500Y-110839226D01*
X94963306Y-110877350D01*
X94972030Y-110893948D01*
X94974500Y-110918774D01*
X94974500Y-113379226D01*
X94963306Y-113417350D01*
X94972030Y-113433948D01*
X94974500Y-113458774D01*
X94974500Y-115919226D01*
X94963306Y-115957350D01*
X94972030Y-115973948D01*
X94974500Y-115998774D01*
X94974500Y-118483999D01*
X94974493Y-118485319D01*
X94973578Y-118572678D01*
X94975067Y-118579563D01*
X94975067Y-118579566D01*
X94982414Y-118613545D01*
X94984475Y-118626128D01*
X94989136Y-118667682D01*
X94991454Y-118674337D01*
X94991455Y-118674343D01*
X94999744Y-118698146D01*
X95003907Y-118712955D01*
X95009236Y-118737601D01*
X95010725Y-118744486D01*
X95028402Y-118782395D01*
X95033184Y-118794171D01*
X95046943Y-118833681D01*
X95053079Y-118843500D01*
X95064037Y-118861037D01*
X95071377Y-118874556D01*
X95085011Y-118903794D01*
X95089324Y-118909354D01*
X95089325Y-118909356D01*
X95110640Y-118936835D01*
X95117929Y-118947283D01*
X95140091Y-118982749D01*
X95166750Y-119009596D01*
X95167819Y-119010672D01*
X95168373Y-119011264D01*
X95168877Y-119011913D01*
X95193718Y-119036754D01*
X95194029Y-119037066D01*
X95244906Y-119088300D01*
X95278713Y-119150730D01*
X95281500Y-119177083D01*
X95281500Y-119800400D01*
X95281837Y-119803646D01*
X95281837Y-119803650D01*
X95286272Y-119846389D01*
X95292474Y-119906166D01*
X95348450Y-120073946D01*
X95441522Y-120224348D01*
X95566697Y-120349305D01*
X95572927Y-120353145D01*
X95572928Y-120353146D01*
X95710090Y-120437694D01*
X95717262Y-120442115D01*
X95773346Y-120460717D01*
X95878611Y-120495632D01*
X95878613Y-120495632D01*
X95885139Y-120497797D01*
X95891975Y-120498497D01*
X95891978Y-120498498D01*
X95935031Y-120502909D01*
X95989600Y-120508500D01*
X96740400Y-120508500D01*
X96743646Y-120508163D01*
X96743650Y-120508163D01*
X96839308Y-120498238D01*
X96839312Y-120498237D01*
X96846166Y-120497526D01*
X96852702Y-120495345D01*
X96852704Y-120495345D01*
X96984806Y-120451272D01*
X97013946Y-120441550D01*
X97164348Y-120348478D01*
X97289305Y-120223303D01*
X97347285Y-120129243D01*
X97378275Y-120078968D01*
X97378276Y-120078966D01*
X97382115Y-120072738D01*
X97437797Y-119904861D01*
X97438843Y-119894658D01*
X97445036Y-119834206D01*
X97448500Y-119800400D01*
X97448500Y-118399600D01*
X97447283Y-118387866D01*
X97438238Y-118300692D01*
X97438237Y-118300688D01*
X97437526Y-118293834D01*
X97430341Y-118272296D01*
X97383868Y-118133002D01*
X97381550Y-118126054D01*
X97288478Y-117975652D01*
X97163303Y-117850695D01*
X97149358Y-117842099D01*
X97018968Y-117761725D01*
X97018966Y-117761724D01*
X97012738Y-117757885D01*
X96852254Y-117704655D01*
X96851389Y-117704368D01*
X96851387Y-117704368D01*
X96844861Y-117702203D01*
X96838025Y-117701503D01*
X96838022Y-117701502D01*
X96789200Y-117696500D01*
X96740400Y-117691500D01*
X96667500Y-117691500D01*
X96599379Y-117671498D01*
X96552886Y-117617842D01*
X96541500Y-117565500D01*
X96541500Y-109800453D01*
X96541507Y-109799133D01*
X96542111Y-109741477D01*
X96542422Y-109711822D01*
X96533586Y-109670955D01*
X96531525Y-109658372D01*
X96529631Y-109641486D01*
X96526864Y-109616818D01*
X96524546Y-109610163D01*
X96524545Y-109610157D01*
X96516256Y-109586354D01*
X96512093Y-109571545D01*
X96506764Y-109546899D01*
X96506763Y-109546895D01*
X96505275Y-109540014D01*
X96487598Y-109502105D01*
X96482816Y-109490329D01*
X96469057Y-109450819D01*
X96451962Y-109423461D01*
X96444623Y-109409944D01*
X96433964Y-109387085D01*
X96433962Y-109387082D01*
X96430989Y-109380706D01*
X96421919Y-109369012D01*
X96405360Y-109347665D01*
X96398071Y-109337217D01*
X96375909Y-109301751D01*
X96348181Y-109273828D01*
X96347627Y-109273236D01*
X96347123Y-109272587D01*
X96321971Y-109247435D01*
X96252051Y-109177025D01*
X96251041Y-109176384D01*
X96249862Y-109175326D01*
X94865919Y-107791383D01*
X94864990Y-107790445D01*
X94859634Y-107784976D01*
X94803829Y-107727989D01*
X94797907Y-107724172D01*
X94797904Y-107724170D01*
X94768678Y-107705335D01*
X94758339Y-107697907D01*
X94725650Y-107671812D01*
X94719308Y-107668746D01*
X94719303Y-107668743D01*
X94696610Y-107657773D01*
X94683198Y-107650247D01*
X94662000Y-107636586D01*
X94661995Y-107636584D01*
X94656076Y-107632769D01*
X94616781Y-107618467D01*
X94605037Y-107613506D01*
X94573744Y-107598378D01*
X94573742Y-107598377D01*
X94567395Y-107595309D01*
X94535956Y-107588051D01*
X94521218Y-107583684D01*
X94503910Y-107577384D01*
X94443794Y-107531254D01*
X94421361Y-107499216D01*
X94421356Y-107499210D01*
X94418198Y-107494700D01*
X94256300Y-107332802D01*
X94251792Y-107329645D01*
X94251789Y-107329643D01*
X94144178Y-107254293D01*
X94068749Y-107201477D01*
X94063767Y-107199154D01*
X94063762Y-107199151D01*
X93866225Y-107107039D01*
X93866224Y-107107039D01*
X93861243Y-107104716D01*
X93855935Y-107103294D01*
X93855933Y-107103293D01*
X93645402Y-107046881D01*
X93645400Y-107046881D01*
X93640087Y-107045457D01*
X93540520Y-107036746D01*
X93471851Y-107030738D01*
X93471844Y-107030738D01*
X93469127Y-107030500D01*
X90954873Y-107030500D01*
X90952156Y-107030738D01*
X90952149Y-107030738D01*
X90883480Y-107036746D01*
X90783913Y-107045457D01*
X90778600Y-107046881D01*
X90778598Y-107046881D01*
X90568067Y-107103293D01*
X90568065Y-107103294D01*
X90562757Y-107104716D01*
X90557776Y-107107039D01*
X90557775Y-107107039D01*
X90360238Y-107199151D01*
X90360233Y-107199154D01*
X90355251Y-107201477D01*
X90279822Y-107254293D01*
X90172211Y-107329643D01*
X90172208Y-107329645D01*
X90167700Y-107332802D01*
X90005802Y-107494700D01*
X90003374Y-107498167D01*
X89944592Y-107537274D01*
X89873604Y-107538399D01*
X89818087Y-107506051D01*
X88567419Y-106255383D01*
X88566490Y-106254445D01*
X88525337Y-106212421D01*
X88505329Y-106191989D01*
X88499407Y-106188172D01*
X88499404Y-106188170D01*
X88470178Y-106169335D01*
X88459839Y-106161907D01*
X88427150Y-106135812D01*
X88420808Y-106132746D01*
X88420803Y-106132743D01*
X88398110Y-106121773D01*
X88384698Y-106114247D01*
X88363500Y-106100586D01*
X88363495Y-106100584D01*
X88357576Y-106096769D01*
X88318281Y-106082467D01*
X88306537Y-106077506D01*
X88275244Y-106062378D01*
X88275242Y-106062377D01*
X88268895Y-106059309D01*
X88237456Y-106052051D01*
X88222720Y-106047685D01*
X88192399Y-106036649D01*
X88193418Y-106033848D01*
X88146154Y-106007343D01*
X88034983Y-105896366D01*
X88029803Y-105891195D01*
X87897254Y-105809490D01*
X87885468Y-105802225D01*
X87885466Y-105802224D01*
X87879238Y-105798385D01*
X87743184Y-105753258D01*
X87717889Y-105744868D01*
X87717887Y-105744868D01*
X87711361Y-105742703D01*
X87704525Y-105742003D01*
X87704522Y-105742002D01*
X87654675Y-105736895D01*
X87606900Y-105732000D01*
X86256100Y-105732000D01*
X86252854Y-105732337D01*
X86252850Y-105732337D01*
X86157192Y-105742262D01*
X86157188Y-105742263D01*
X86150334Y-105742974D01*
X86143798Y-105745155D01*
X86143796Y-105745155D01*
X86011694Y-105789228D01*
X85982554Y-105798950D01*
X85832152Y-105892022D01*
X85707195Y-106017197D01*
X85703355Y-106023427D01*
X85703354Y-106023428D01*
X85651502Y-106107548D01*
X85614385Y-106167762D01*
X85587936Y-106247505D01*
X85570059Y-106301403D01*
X85558703Y-106335639D01*
X85548000Y-106440100D01*
X85548000Y-107165900D01*
X85548337Y-107169146D01*
X85548337Y-107169150D01*
X85555533Y-107238498D01*
X85558974Y-107271666D01*
X85561155Y-107278202D01*
X85561155Y-107278204D01*
X85580670Y-107336696D01*
X85614950Y-107439446D01*
X85708022Y-107589848D01*
X85713204Y-107595021D01*
X85768490Y-107650211D01*
X85833197Y-107714805D01*
X85839427Y-107718645D01*
X85839428Y-107718646D01*
X85968850Y-107798423D01*
X85983762Y-107807615D01*
X86035417Y-107824748D01*
X86145111Y-107861132D01*
X86145113Y-107861132D01*
X86151639Y-107863297D01*
X86158475Y-107863997D01*
X86158478Y-107863998D01*
X86201531Y-107868409D01*
X86256100Y-107874000D01*
X87606900Y-107874000D01*
X87610146Y-107873663D01*
X87610150Y-107873663D01*
X87705808Y-107863738D01*
X87705812Y-107863737D01*
X87712666Y-107863026D01*
X87719202Y-107860845D01*
X87719204Y-107860845D01*
X87823478Y-107826056D01*
X87894427Y-107823472D01*
X87952449Y-107856485D01*
X88952516Y-108856552D01*
X88986542Y-108918864D01*
X88981477Y-108989679D01*
X88938930Y-109046515D01*
X88872410Y-109071326D01*
X88808582Y-109059087D01*
X88783110Y-109046773D01*
X88769698Y-109039247D01*
X88748500Y-109025586D01*
X88748495Y-109025584D01*
X88742576Y-109021769D01*
X88703281Y-109007467D01*
X88691537Y-109002506D01*
X88660244Y-108987378D01*
X88660242Y-108987377D01*
X88653895Y-108984309D01*
X88622456Y-108977051D01*
X88607720Y-108972685D01*
X88584020Y-108964059D01*
X88584016Y-108964058D01*
X88577400Y-108961650D01*
X88570414Y-108960767D01*
X88570412Y-108960767D01*
X88535921Y-108956410D01*
X88523369Y-108954175D01*
X88516130Y-108952504D01*
X88482623Y-108944768D01*
X88475583Y-108944743D01*
X88475580Y-108944743D01*
X88443296Y-108944630D01*
X88442459Y-108944602D01*
X88441646Y-108944500D01*
X88406054Y-108944500D01*
X88405614Y-108944499D01*
X88399859Y-108944479D01*
X88306847Y-108944154D01*
X88305679Y-108944415D01*
X88304111Y-108944500D01*
X88210459Y-108944500D01*
X88142338Y-108924498D01*
X88121441Y-108907673D01*
X88034984Y-108821366D01*
X88034979Y-108821362D01*
X88029803Y-108816195D01*
X87984457Y-108788243D01*
X87885468Y-108727225D01*
X87885466Y-108727224D01*
X87879238Y-108723385D01*
X87799495Y-108696936D01*
X87717889Y-108669868D01*
X87717887Y-108669868D01*
X87711361Y-108667703D01*
X87704525Y-108667003D01*
X87704522Y-108667002D01*
X87661469Y-108662591D01*
X87606900Y-108657000D01*
X86860419Y-108657000D01*
X86817325Y-108649401D01*
X86804023Y-108644560D01*
X86804019Y-108644559D01*
X86797400Y-108642150D01*
X86790414Y-108641267D01*
X86790412Y-108641267D01*
X86755921Y-108636910D01*
X86743369Y-108634675D01*
X86717224Y-108628639D01*
X86702623Y-108625268D01*
X86695583Y-108625243D01*
X86695580Y-108625243D01*
X86663296Y-108625130D01*
X86662459Y-108625102D01*
X86661646Y-108625000D01*
X86626054Y-108625000D01*
X86625614Y-108624999D01*
X86619859Y-108624979D01*
X86526847Y-108624654D01*
X86525679Y-108624915D01*
X86524111Y-108625000D01*
X85543538Y-108625000D01*
X85475417Y-108604998D01*
X85428924Y-108551342D01*
X85424014Y-108538876D01*
X85399868Y-108466502D01*
X85397550Y-108459554D01*
X85304478Y-108309152D01*
X85179303Y-108184195D01*
X85141022Y-108160598D01*
X85034968Y-108095225D01*
X85034966Y-108095224D01*
X85028738Y-108091385D01*
X84892108Y-108046067D01*
X84867389Y-108037868D01*
X84867387Y-108037868D01*
X84860861Y-108035703D01*
X84854025Y-108035003D01*
X84854022Y-108035002D01*
X84805053Y-108029985D01*
X84756400Y-108025000D01*
X84030600Y-108025000D01*
X84027354Y-108025337D01*
X84027350Y-108025337D01*
X83931692Y-108035262D01*
X83931688Y-108035263D01*
X83924834Y-108035974D01*
X83918298Y-108038155D01*
X83918296Y-108038155D01*
X83786194Y-108082228D01*
X83757054Y-108091950D01*
X83606652Y-108185022D01*
X83481695Y-108310197D01*
X83477855Y-108316427D01*
X83477854Y-108316428D01*
X83460566Y-108344475D01*
X83388885Y-108460762D01*
X83333203Y-108628639D01*
X83332503Y-108635475D01*
X83332502Y-108635478D01*
X83328979Y-108669868D01*
X83322500Y-108733100D01*
X83322500Y-110083900D01*
X83322837Y-110087146D01*
X83322837Y-110087150D01*
X83332752Y-110182706D01*
X83333474Y-110189666D01*
X83335655Y-110196202D01*
X83335655Y-110196204D01*
X83349072Y-110236420D01*
X83389450Y-110357446D01*
X83482522Y-110507848D01*
X83487704Y-110513021D01*
X83532994Y-110558232D01*
X83607697Y-110632805D01*
X83613927Y-110636645D01*
X83613928Y-110636646D01*
X83751288Y-110721316D01*
X83758262Y-110725615D01*
X83784652Y-110734368D01*
X83919611Y-110779132D01*
X83919613Y-110779132D01*
X83926139Y-110781297D01*
X83932975Y-110781997D01*
X83932978Y-110781998D01*
X83970527Y-110785845D01*
X84030600Y-110792000D01*
X84756400Y-110792000D01*
X84759646Y-110791663D01*
X84759650Y-110791663D01*
X84855308Y-110781738D01*
X84855312Y-110781737D01*
X84862166Y-110781026D01*
X84868702Y-110778845D01*
X84868704Y-110778845D01*
X85007271Y-110732615D01*
X85029946Y-110725050D01*
X85180348Y-110631978D01*
X85305305Y-110506803D01*
X85345135Y-110442188D01*
X85397262Y-110357622D01*
X85450035Y-110310129D01*
X85520106Y-110298705D01*
X85585230Y-110326979D01*
X85614387Y-110364794D01*
X85614950Y-110364446D01*
X85708022Y-110514848D01*
X85833197Y-110639805D01*
X85839427Y-110643645D01*
X85839428Y-110643646D01*
X85976590Y-110728194D01*
X85983762Y-110732615D01*
X86063505Y-110759064D01*
X86145111Y-110786132D01*
X86145113Y-110786132D01*
X86151639Y-110788297D01*
X86158475Y-110788997D01*
X86158478Y-110788998D01*
X86201531Y-110793409D01*
X86256100Y-110799000D01*
X87606900Y-110799000D01*
X87610146Y-110798663D01*
X87610150Y-110798663D01*
X87705808Y-110788738D01*
X87705812Y-110788737D01*
X87712666Y-110788026D01*
X87719202Y-110785845D01*
X87719204Y-110785845D01*
X87851306Y-110741772D01*
X87880446Y-110732050D01*
X88030848Y-110638978D01*
X88034583Y-110635236D01*
X88099619Y-110608914D01*
X88169383Y-110622086D01*
X88201166Y-110645202D01*
X88982581Y-111426617D01*
X88983510Y-111427555D01*
X89044671Y-111490011D01*
X89050593Y-111493828D01*
X89050596Y-111493830D01*
X89079822Y-111512665D01*
X89090161Y-111520093D01*
X89122850Y-111546188D01*
X89129192Y-111549254D01*
X89129197Y-111549257D01*
X89151890Y-111560227D01*
X89165302Y-111567753D01*
X89186500Y-111581414D01*
X89186505Y-111581416D01*
X89192424Y-111585231D01*
X89231719Y-111599533D01*
X89243463Y-111604494D01*
X89274760Y-111619624D01*
X89274763Y-111619625D01*
X89281105Y-111622691D01*
X89287966Y-111624275D01*
X89287969Y-111624276D01*
X89312539Y-111629948D01*
X89327282Y-111634315D01*
X89357600Y-111645350D01*
X89396951Y-111650321D01*
X89399088Y-111650591D01*
X89411636Y-111652827D01*
X89452377Y-111662233D01*
X89459421Y-111662257D01*
X89459425Y-111662258D01*
X89491715Y-111662370D01*
X89492546Y-111662398D01*
X89493354Y-111662500D01*
X89528786Y-111662500D01*
X89529224Y-111662501D01*
X89628153Y-111662846D01*
X89629321Y-111662585D01*
X89630890Y-111662500D01*
X89897638Y-111662500D01*
X89965759Y-111682502D01*
X90000852Y-111716231D01*
X90005802Y-111723300D01*
X90167700Y-111885198D01*
X90172208Y-111888355D01*
X90172211Y-111888357D01*
X90190479Y-111901148D01*
X90355251Y-112016523D01*
X90360233Y-112018846D01*
X90360238Y-112018849D01*
X90394457Y-112034805D01*
X90447742Y-112081722D01*
X90467203Y-112149999D01*
X90446661Y-112217959D01*
X90394457Y-112263195D01*
X90360238Y-112279151D01*
X90360233Y-112279154D01*
X90355251Y-112281477D01*
X90256459Y-112350652D01*
X90172211Y-112409643D01*
X90172208Y-112409645D01*
X90167700Y-112412802D01*
X90055407Y-112525095D01*
X89993095Y-112559121D01*
X89966312Y-112562000D01*
X89513879Y-112562000D01*
X89445758Y-112541998D01*
X89399265Y-112488342D01*
X89394356Y-112475877D01*
X89361870Y-112378507D01*
X89361868Y-112378502D01*
X89359550Y-112371554D01*
X89266478Y-112221152D01*
X89141303Y-112096195D01*
X89117824Y-112081722D01*
X88996968Y-112007225D01*
X88996966Y-112007224D01*
X88990738Y-112003385D01*
X88830254Y-111950155D01*
X88829389Y-111949868D01*
X88829387Y-111949868D01*
X88822861Y-111947703D01*
X88816025Y-111947003D01*
X88816022Y-111947002D01*
X88772969Y-111942591D01*
X88718400Y-111937000D01*
X87967600Y-111937000D01*
X87964354Y-111937337D01*
X87964350Y-111937337D01*
X87868692Y-111947262D01*
X87868688Y-111947263D01*
X87861834Y-111947974D01*
X87855298Y-111950155D01*
X87855296Y-111950155D01*
X87723194Y-111994228D01*
X87694054Y-112003950D01*
X87543652Y-112097022D01*
X87418695Y-112222197D01*
X87414855Y-112228427D01*
X87414854Y-112228428D01*
X87330109Y-112365910D01*
X87325885Y-112372762D01*
X87311947Y-112414785D01*
X87273227Y-112531523D01*
X87270203Y-112540639D01*
X87259500Y-112645100D01*
X87259500Y-114045900D01*
X87259837Y-114049146D01*
X87259837Y-114049150D01*
X87269665Y-114143868D01*
X87270474Y-114151666D01*
X87272655Y-114158202D01*
X87272655Y-114158204D01*
X87287741Y-114203422D01*
X87326450Y-114319446D01*
X87419522Y-114469848D01*
X87544697Y-114594805D01*
X87550927Y-114598645D01*
X87550928Y-114598646D01*
X87688090Y-114683194D01*
X87695262Y-114687615D01*
X87702450Y-114689999D01*
X87856611Y-114741132D01*
X87856613Y-114741132D01*
X87863139Y-114743297D01*
X87869975Y-114743997D01*
X87869978Y-114743998D01*
X87913031Y-114748409D01*
X87967600Y-114754000D01*
X88718400Y-114754000D01*
X88721646Y-114753663D01*
X88721650Y-114753663D01*
X88817308Y-114743738D01*
X88817312Y-114743737D01*
X88824166Y-114743026D01*
X88830702Y-114740845D01*
X88830704Y-114740845D01*
X88983107Y-114689999D01*
X88991946Y-114687050D01*
X89142348Y-114593978D01*
X89267305Y-114468803D01*
X89271146Y-114462572D01*
X89356275Y-114324468D01*
X89356276Y-114324466D01*
X89360115Y-114318238D01*
X89394247Y-114215333D01*
X89434678Y-114156973D01*
X89500242Y-114129736D01*
X89513840Y-114129000D01*
X89846173Y-114129000D01*
X89914294Y-114149002D01*
X89949386Y-114182730D01*
X90002639Y-114258784D01*
X90002642Y-114258787D01*
X90005802Y-114263300D01*
X90167700Y-114425198D01*
X90172208Y-114428355D01*
X90172211Y-114428357D01*
X90221075Y-114462572D01*
X90355251Y-114556523D01*
X90360233Y-114558846D01*
X90360238Y-114558849D01*
X90394457Y-114574805D01*
X90447742Y-114621722D01*
X90467203Y-114689999D01*
X90446661Y-114757959D01*
X90394457Y-114803195D01*
X90360238Y-114819151D01*
X90360233Y-114819154D01*
X90355251Y-114821477D01*
X90250389Y-114894902D01*
X90172211Y-114949643D01*
X90172208Y-114949645D01*
X90167700Y-114952802D01*
X90005802Y-115114700D01*
X90002645Y-115119208D01*
X90002643Y-115119211D01*
X89976114Y-115157099D01*
X89874477Y-115302251D01*
X89872154Y-115307233D01*
X89872151Y-115307238D01*
X89819552Y-115420038D01*
X89777716Y-115509757D01*
X89776294Y-115515065D01*
X89776293Y-115515067D01*
X89727138Y-115698514D01*
X89718457Y-115730913D01*
X89698502Y-115959000D01*
X89718457Y-116187087D01*
X89719881Y-116192400D01*
X89719881Y-116192402D01*
X89756764Y-116330048D01*
X89777716Y-116408243D01*
X89780039Y-116413224D01*
X89780039Y-116413225D01*
X89872151Y-116610762D01*
X89872154Y-116610767D01*
X89874477Y-116615749D01*
X90005802Y-116803300D01*
X90009693Y-116807191D01*
X90013078Y-116811225D01*
X90041543Y-116876265D01*
X90030326Y-116946370D01*
X90005652Y-116981312D01*
X89662369Y-117324595D01*
X89600057Y-117358621D01*
X89573274Y-117361500D01*
X89109600Y-117361500D01*
X89106354Y-117361837D01*
X89106350Y-117361837D01*
X89010692Y-117371762D01*
X89010688Y-117371763D01*
X89003834Y-117372474D01*
X88997298Y-117374655D01*
X88997296Y-117374655D01*
X88865194Y-117418728D01*
X88836054Y-117428450D01*
X88829826Y-117432304D01*
X88829824Y-117432305D01*
X88764638Y-117472644D01*
X88698335Y-117491500D01*
X88534646Y-117491500D01*
X88466525Y-117471498D01*
X88439107Y-117446668D01*
X88438478Y-117445652D01*
X88313303Y-117320695D01*
X88282322Y-117301598D01*
X88168968Y-117231725D01*
X88168966Y-117231724D01*
X88162738Y-117227885D01*
X88002254Y-117174655D01*
X88001389Y-117174368D01*
X88001387Y-117174368D01*
X87994861Y-117172203D01*
X87988025Y-117171503D01*
X87988022Y-117171502D01*
X87944969Y-117167091D01*
X87890400Y-117161500D01*
X86489600Y-117161500D01*
X86486354Y-117161837D01*
X86486350Y-117161837D01*
X86390692Y-117171762D01*
X86390688Y-117171763D01*
X86383834Y-117172474D01*
X86377298Y-117174655D01*
X86377296Y-117174655D01*
X86245194Y-117218728D01*
X86216054Y-117228450D01*
X86065652Y-117321522D01*
X86060479Y-117326704D01*
X85962835Y-117424518D01*
X85900552Y-117458597D01*
X85873662Y-117461500D01*
X83488729Y-117461500D01*
X83420608Y-117441498D01*
X83376599Y-117391201D01*
X83376550Y-117391054D01*
X83283478Y-117240652D01*
X83158303Y-117115695D01*
X83145403Y-117107743D01*
X83013968Y-117026725D01*
X83013966Y-117026724D01*
X83007738Y-117022885D01*
X82882399Y-116981312D01*
X82846389Y-116969368D01*
X82846387Y-116969368D01*
X82839861Y-116967203D01*
X82833025Y-116966503D01*
X82833022Y-116966502D01*
X82788465Y-116961937D01*
X82735400Y-116956500D01*
X82009600Y-116956500D01*
X82006354Y-116956837D01*
X82006350Y-116956837D01*
X81910692Y-116966762D01*
X81910688Y-116966763D01*
X81903834Y-116967474D01*
X81897298Y-116969655D01*
X81897296Y-116969655D01*
X81765194Y-117013728D01*
X81736054Y-117023450D01*
X81585652Y-117116522D01*
X81460695Y-117241697D01*
X81456855Y-117247927D01*
X81456854Y-117247928D01*
X81372466Y-117384831D01*
X81367885Y-117392262D01*
X81312203Y-117560139D01*
X81311503Y-117566975D01*
X81311502Y-117566978D01*
X81309826Y-117583340D01*
X81301500Y-117664600D01*
X81301500Y-119015400D01*
X80518500Y-119015400D01*
X80518500Y-117664600D01*
X80518163Y-117661350D01*
X80508238Y-117565692D01*
X80508237Y-117565688D01*
X80507526Y-117558834D01*
X80499575Y-117535000D01*
X80453868Y-117398002D01*
X80451550Y-117391054D01*
X80358478Y-117240652D01*
X80233303Y-117115695D01*
X80220403Y-117107743D01*
X80088968Y-117026725D01*
X80088966Y-117026724D01*
X80082738Y-117022885D01*
X79957399Y-116981312D01*
X79921389Y-116969368D01*
X79921387Y-116969368D01*
X79914861Y-116967203D01*
X79908025Y-116966503D01*
X79908022Y-116966502D01*
X79863465Y-116961937D01*
X79810400Y-116956500D01*
X79084600Y-116956500D01*
X79081354Y-116956837D01*
X79081350Y-116956837D01*
X78985692Y-116966762D01*
X78985688Y-116966763D01*
X78978834Y-116967474D01*
X78972298Y-116969655D01*
X78972296Y-116969655D01*
X78840194Y-117013728D01*
X78811054Y-117023450D01*
X78660652Y-117116522D01*
X78535695Y-117241697D01*
X78531855Y-117247927D01*
X78531854Y-117247928D01*
X78447466Y-117384831D01*
X78442885Y-117392262D01*
X78387203Y-117560139D01*
X78386502Y-117566978D01*
X78386502Y-117566980D01*
X78384826Y-117583340D01*
X78357986Y-117649068D01*
X78299872Y-117689851D01*
X78259482Y-117696500D01*
X74179329Y-117696500D01*
X74111208Y-117676498D01*
X74064715Y-117622842D01*
X74053330Y-117570058D01*
X74053370Y-117558645D01*
X74053398Y-117557808D01*
X74053500Y-117556995D01*
X74053500Y-117521249D01*
X74053846Y-117422197D01*
X74053585Y-117421029D01*
X74053500Y-117419461D01*
X74053500Y-114726865D01*
X76665000Y-114726865D01*
X76665238Y-114732330D01*
X76679472Y-114895019D01*
X76681375Y-114905812D01*
X76737764Y-115116261D01*
X76741510Y-115126553D01*
X76833586Y-115324011D01*
X76839069Y-115333507D01*
X76964028Y-115511967D01*
X76971084Y-115520375D01*
X77125125Y-115674416D01*
X77133533Y-115681472D01*
X77311993Y-115806431D01*
X77321489Y-115811914D01*
X77518947Y-115903990D01*
X77529239Y-115907736D01*
X77701503Y-115953894D01*
X77715599Y-115953558D01*
X77719000Y-115945616D01*
X77719000Y-115940467D01*
X78227000Y-115940467D01*
X78230973Y-115953998D01*
X78239522Y-115955227D01*
X78416761Y-115907736D01*
X78427053Y-115903990D01*
X78624511Y-115811914D01*
X78634007Y-115806431D01*
X78812467Y-115681472D01*
X78820875Y-115674416D01*
X78974916Y-115520375D01*
X78981972Y-115511967D01*
X79106931Y-115333507D01*
X79112414Y-115324011D01*
X79128529Y-115289451D01*
X79175446Y-115236166D01*
X79243723Y-115216705D01*
X79311683Y-115237247D01*
X79356919Y-115289451D01*
X79373151Y-115324262D01*
X79373154Y-115324267D01*
X79375477Y-115329249D01*
X79378634Y-115333757D01*
X79471388Y-115466223D01*
X79506802Y-115516800D01*
X79668700Y-115678698D01*
X79673208Y-115681855D01*
X79673211Y-115681857D01*
X79751097Y-115736393D01*
X79856251Y-115810023D01*
X79861233Y-115812346D01*
X79861238Y-115812349D01*
X79985563Y-115870322D01*
X80063757Y-115906784D01*
X80069065Y-115908206D01*
X80069067Y-115908207D01*
X80279598Y-115964619D01*
X80279600Y-115964619D01*
X80284913Y-115966043D01*
X80513000Y-115985998D01*
X80741087Y-115966043D01*
X80746400Y-115964619D01*
X80746402Y-115964619D01*
X80956933Y-115908207D01*
X80956935Y-115908206D01*
X80962243Y-115906784D01*
X81040437Y-115870322D01*
X81164762Y-115812349D01*
X81164767Y-115812346D01*
X81169749Y-115810023D01*
X81274903Y-115736393D01*
X81352789Y-115681857D01*
X81352792Y-115681855D01*
X81357300Y-115678698D01*
X81519198Y-115516800D01*
X81554613Y-115466223D01*
X81647366Y-115333757D01*
X81650523Y-115329249D01*
X81652846Y-115324267D01*
X81652849Y-115324262D01*
X81744961Y-115126725D01*
X81744961Y-115126724D01*
X81747284Y-115121743D01*
X81750216Y-115110803D01*
X81805119Y-114905902D01*
X81805119Y-114905900D01*
X81806543Y-114900587D01*
X81819021Y-114757959D01*
X81821262Y-114732351D01*
X81821262Y-114732344D01*
X81821500Y-114729627D01*
X81821500Y-114382000D01*
X81841502Y-114313879D01*
X81895158Y-114267386D01*
X81947500Y-114256000D01*
X84267550Y-114256000D01*
X84335671Y-114276002D01*
X84374655Y-114320557D01*
X84376450Y-114319446D01*
X84469522Y-114469848D01*
X84594697Y-114594805D01*
X84600927Y-114598645D01*
X84600928Y-114598646D01*
X84738090Y-114683194D01*
X84745262Y-114687615D01*
X84752450Y-114689999D01*
X84906611Y-114741132D01*
X84906613Y-114741132D01*
X84913139Y-114743297D01*
X84919975Y-114743997D01*
X84919978Y-114743998D01*
X84963031Y-114748409D01*
X85017600Y-114754000D01*
X85768400Y-114754000D01*
X85771646Y-114753663D01*
X85771650Y-114753663D01*
X85867308Y-114743738D01*
X85867312Y-114743737D01*
X85874166Y-114743026D01*
X85880702Y-114740845D01*
X85880704Y-114740845D01*
X86033107Y-114689999D01*
X86041946Y-114687050D01*
X86192348Y-114593978D01*
X86317305Y-114468803D01*
X86321146Y-114462572D01*
X86406275Y-114324468D01*
X86406276Y-114324466D01*
X86410115Y-114318238D01*
X86448503Y-114202500D01*
X86463632Y-114156889D01*
X86463632Y-114156887D01*
X86465797Y-114150361D01*
X86467036Y-114138275D01*
X86473442Y-114075749D01*
X86476500Y-114045900D01*
X86476500Y-112645100D01*
X86473429Y-112615498D01*
X86466238Y-112546192D01*
X86466237Y-112546188D01*
X86465526Y-112539334D01*
X86460776Y-112525095D01*
X86411868Y-112378502D01*
X86409550Y-112371554D01*
X86316478Y-112221152D01*
X86191303Y-112096195D01*
X86167824Y-112081722D01*
X86046968Y-112007225D01*
X86046966Y-112007224D01*
X86040738Y-112003385D01*
X85880254Y-111950155D01*
X85879389Y-111949868D01*
X85879387Y-111949868D01*
X85872861Y-111947703D01*
X85866025Y-111947003D01*
X85866022Y-111947002D01*
X85822969Y-111942591D01*
X85768400Y-111937000D01*
X85017600Y-111937000D01*
X85014354Y-111937337D01*
X85014350Y-111937337D01*
X84918692Y-111947262D01*
X84918688Y-111947263D01*
X84911834Y-111947974D01*
X84905298Y-111950155D01*
X84905296Y-111950155D01*
X84773194Y-111994228D01*
X84744054Y-112003950D01*
X84593652Y-112097022D01*
X84468695Y-112222197D01*
X84464855Y-112228427D01*
X84464854Y-112228428D01*
X84380109Y-112365910D01*
X84375885Y-112372762D01*
X84361947Y-112414785D01*
X84323227Y-112531523D01*
X84320203Y-112540639D01*
X84319503Y-112547475D01*
X84319502Y-112547478D01*
X84316596Y-112575843D01*
X84289755Y-112641570D01*
X84231640Y-112682352D01*
X84191252Y-112689000D01*
X81947500Y-112689000D01*
X81879379Y-112668998D01*
X81832886Y-112615342D01*
X81821500Y-112563000D01*
X81821500Y-112215373D01*
X81819765Y-112195536D01*
X81811526Y-112101366D01*
X81806543Y-112044413D01*
X81798569Y-112014655D01*
X81748707Y-111828567D01*
X81748706Y-111828565D01*
X81747284Y-111823257D01*
X81705803Y-111734300D01*
X81652849Y-111620738D01*
X81652846Y-111620733D01*
X81650523Y-111615751D01*
X81577098Y-111510889D01*
X81522357Y-111432711D01*
X81522355Y-111432708D01*
X81519198Y-111428200D01*
X81357300Y-111266302D01*
X81352792Y-111263145D01*
X81352789Y-111263143D01*
X81274611Y-111208402D01*
X81169749Y-111134977D01*
X81164767Y-111132654D01*
X81164762Y-111132651D01*
X80967225Y-111040539D01*
X80967224Y-111040539D01*
X80962243Y-111038216D01*
X80956935Y-111036794D01*
X80956933Y-111036793D01*
X80746402Y-110980381D01*
X80746400Y-110980381D01*
X80741087Y-110978957D01*
X80513000Y-110959002D01*
X80284913Y-110978957D01*
X80279600Y-110980381D01*
X80279598Y-110980381D01*
X80069067Y-111036793D01*
X80069065Y-111036794D01*
X80063757Y-111038216D01*
X80058776Y-111040539D01*
X80058775Y-111040539D01*
X79861238Y-111132651D01*
X79861233Y-111132654D01*
X79856251Y-111134977D01*
X79751389Y-111208402D01*
X79673211Y-111263143D01*
X79673208Y-111263145D01*
X79668700Y-111266302D01*
X79506802Y-111428200D01*
X79503645Y-111432708D01*
X79503643Y-111432711D01*
X79448902Y-111510889D01*
X79375477Y-111615751D01*
X79373154Y-111620733D01*
X79373151Y-111620738D01*
X79356919Y-111655549D01*
X79310002Y-111708834D01*
X79241725Y-111728295D01*
X79173765Y-111707753D01*
X79128529Y-111655549D01*
X79112414Y-111620989D01*
X79106931Y-111611493D01*
X78981972Y-111433033D01*
X78974916Y-111424625D01*
X78820875Y-111270584D01*
X78812467Y-111263528D01*
X78634007Y-111138569D01*
X78624511Y-111133086D01*
X78427053Y-111041010D01*
X78416761Y-111037264D01*
X78244497Y-110991106D01*
X78230401Y-110991442D01*
X78227000Y-110999384D01*
X78227000Y-115940467D01*
X77719000Y-115940467D01*
X77719000Y-113744615D01*
X77714525Y-113729376D01*
X77713135Y-113728171D01*
X77705452Y-113726500D01*
X76683115Y-113726500D01*
X76667876Y-113730975D01*
X76666671Y-113732365D01*
X76665000Y-113740048D01*
X76665000Y-114726865D01*
X74053500Y-114726865D01*
X74053500Y-113200385D01*
X76665000Y-113200385D01*
X76669475Y-113215624D01*
X76670865Y-113216829D01*
X76678548Y-113218500D01*
X77700885Y-113218500D01*
X77716124Y-113214025D01*
X77717329Y-113212635D01*
X77719000Y-113204952D01*
X77719000Y-111004533D01*
X77715027Y-110991002D01*
X77706478Y-110989773D01*
X77529239Y-111037264D01*
X77518947Y-111041010D01*
X77321489Y-111133086D01*
X77311993Y-111138569D01*
X77133533Y-111263528D01*
X77125125Y-111270584D01*
X76971084Y-111424625D01*
X76964028Y-111433033D01*
X76839069Y-111611493D01*
X76833586Y-111620989D01*
X76741510Y-111818447D01*
X76737764Y-111828739D01*
X76681375Y-112039188D01*
X76679472Y-112049981D01*
X76665238Y-112212670D01*
X76665000Y-112218125D01*
X76665000Y-113200385D01*
X74053500Y-113200385D01*
X74053500Y-110709500D01*
X74073502Y-110641379D01*
X74127158Y-110594886D01*
X74179500Y-110583500D01*
X75696502Y-110583500D01*
X75698950Y-110583307D01*
X75698958Y-110583307D01*
X75727421Y-110581067D01*
X75727426Y-110581066D01*
X75733831Y-110580562D01*
X75865762Y-110542233D01*
X75885988Y-110536357D01*
X75885990Y-110536356D01*
X75893601Y-110534145D01*
X75950370Y-110500572D01*
X76029980Y-110453491D01*
X76029983Y-110453489D01*
X76036807Y-110449453D01*
X76154453Y-110331807D01*
X76158489Y-110324983D01*
X76158491Y-110324980D01*
X76234375Y-110196666D01*
X76239145Y-110188601D01*
X76245065Y-110168226D01*
X76268629Y-110087114D01*
X76270523Y-110080595D01*
X80398001Y-110080595D01*
X80398338Y-110087114D01*
X80408257Y-110182706D01*
X80411149Y-110196100D01*
X80462588Y-110350284D01*
X80468761Y-110363462D01*
X80554063Y-110501307D01*
X80563099Y-110512708D01*
X80677829Y-110627239D01*
X80689240Y-110636251D01*
X80827243Y-110721316D01*
X80840424Y-110727463D01*
X80994710Y-110778638D01*
X81008086Y-110781505D01*
X81102438Y-110791172D01*
X81108854Y-110791500D01*
X81196385Y-110791500D01*
X81211624Y-110787025D01*
X81212829Y-110785635D01*
X81214500Y-110777952D01*
X81214500Y-110773384D01*
X81722500Y-110773384D01*
X81726975Y-110788623D01*
X81728365Y-110789828D01*
X81736048Y-110791499D01*
X81828095Y-110791499D01*
X81834614Y-110791162D01*
X81930206Y-110781243D01*
X81943600Y-110778351D01*
X82097784Y-110726912D01*
X82110962Y-110720739D01*
X82248807Y-110635437D01*
X82260208Y-110626401D01*
X82374739Y-110511671D01*
X82383751Y-110500260D01*
X82468816Y-110362257D01*
X82474963Y-110349076D01*
X82526138Y-110194790D01*
X82529005Y-110181414D01*
X82538672Y-110087062D01*
X82539000Y-110080646D01*
X82539000Y-109680615D01*
X82534525Y-109665376D01*
X82533135Y-109664171D01*
X82525452Y-109662500D01*
X81740615Y-109662500D01*
X81725376Y-109666975D01*
X81724171Y-109668365D01*
X81722500Y-109676048D01*
X81722500Y-110773384D01*
X81214500Y-110773384D01*
X81214500Y-109680615D01*
X81210025Y-109665376D01*
X81208635Y-109664171D01*
X81200952Y-109662500D01*
X80416116Y-109662500D01*
X80400877Y-109666975D01*
X80399672Y-109668365D01*
X80398001Y-109676048D01*
X80398001Y-110080595D01*
X76270523Y-110080595D01*
X76285562Y-110028831D01*
X76287146Y-110008715D01*
X76288307Y-109993958D01*
X76288307Y-109993950D01*
X76288500Y-109991502D01*
X76288500Y-109558498D01*
X76287180Y-109541722D01*
X76286067Y-109527579D01*
X76286066Y-109527574D01*
X76285562Y-109521169D01*
X76255277Y-109416927D01*
X76241357Y-109369012D01*
X76241356Y-109369010D01*
X76239145Y-109361399D01*
X76154453Y-109218193D01*
X76151771Y-109215511D01*
X76126498Y-109151139D01*
X76129444Y-109136385D01*
X80398000Y-109136385D01*
X80402475Y-109151624D01*
X80403865Y-109152829D01*
X80411548Y-109154500D01*
X81196385Y-109154500D01*
X81211624Y-109150025D01*
X81212829Y-109148635D01*
X81214500Y-109140952D01*
X81214500Y-109136385D01*
X81722500Y-109136385D01*
X81726975Y-109151624D01*
X81728365Y-109152829D01*
X81736048Y-109154500D01*
X82520884Y-109154500D01*
X82536123Y-109150025D01*
X82537328Y-109148635D01*
X82538999Y-109140952D01*
X82538999Y-108736405D01*
X82538662Y-108729886D01*
X82528743Y-108634294D01*
X82525851Y-108620900D01*
X82474412Y-108466716D01*
X82468239Y-108453538D01*
X82382937Y-108315693D01*
X82373901Y-108304292D01*
X82259171Y-108189761D01*
X82247760Y-108180749D01*
X82109757Y-108095684D01*
X82096576Y-108089537D01*
X81942290Y-108038362D01*
X81928914Y-108035495D01*
X81834562Y-108025828D01*
X81828145Y-108025500D01*
X81740615Y-108025500D01*
X81725376Y-108029975D01*
X81724171Y-108031365D01*
X81722500Y-108039048D01*
X81722500Y-109136385D01*
X81214500Y-109136385D01*
X81214500Y-108043616D01*
X81210025Y-108028377D01*
X81208635Y-108027172D01*
X81200952Y-108025501D01*
X81108905Y-108025501D01*
X81102386Y-108025838D01*
X81006794Y-108035757D01*
X80993400Y-108038649D01*
X80839216Y-108090088D01*
X80826038Y-108096261D01*
X80688193Y-108181563D01*
X80676792Y-108190599D01*
X80562261Y-108305329D01*
X80553249Y-108316740D01*
X80468184Y-108454743D01*
X80462037Y-108467924D01*
X80410862Y-108622210D01*
X80407995Y-108635586D01*
X80398328Y-108729938D01*
X80398000Y-108736355D01*
X80398000Y-109136385D01*
X76129444Y-109136385D01*
X76140400Y-109081516D01*
X76150572Y-109065688D01*
X76154453Y-109061807D01*
X76239145Y-108918601D01*
X76241415Y-108910790D01*
X76270012Y-108812354D01*
X76285562Y-108758831D01*
X76287588Y-108733100D01*
X76288307Y-108723958D01*
X76288307Y-108723950D01*
X76288500Y-108721502D01*
X76288500Y-108288498D01*
X76285562Y-108251169D01*
X76256528Y-108151231D01*
X76241357Y-108099012D01*
X76241356Y-108099010D01*
X76239145Y-108091399D01*
X76154453Y-107948193D01*
X76151771Y-107945511D01*
X76126498Y-107881139D01*
X76140400Y-107811516D01*
X76150572Y-107795688D01*
X76154453Y-107791807D01*
X76239145Y-107648601D01*
X76244445Y-107630360D01*
X76280559Y-107506051D01*
X76285562Y-107488831D01*
X76286207Y-107480643D01*
X76288307Y-107453958D01*
X76288307Y-107453950D01*
X76288500Y-107451502D01*
X76288500Y-107075479D01*
X76308502Y-107007358D01*
X76362158Y-106960865D01*
X76432432Y-106950761D01*
X76497012Y-106980255D01*
X76503518Y-106986306D01*
X76564199Y-107046881D01*
X76606697Y-107089305D01*
X76612927Y-107093145D01*
X76612928Y-107093146D01*
X76750288Y-107177816D01*
X76757262Y-107182115D01*
X76815637Y-107201477D01*
X76918611Y-107235632D01*
X76918613Y-107235632D01*
X76925139Y-107237797D01*
X76931975Y-107238497D01*
X76931978Y-107238498D01*
X76975031Y-107242909D01*
X77029600Y-107248500D01*
X77780400Y-107248500D01*
X77783646Y-107248163D01*
X77783650Y-107248163D01*
X77879308Y-107238238D01*
X77879312Y-107238237D01*
X77886166Y-107237526D01*
X77892702Y-107235345D01*
X77892704Y-107235345D01*
X78024806Y-107191272D01*
X78053946Y-107181550D01*
X78204348Y-107088478D01*
X78329305Y-106963303D01*
X78392608Y-106860607D01*
X78418275Y-106818968D01*
X78418276Y-106818966D01*
X78422115Y-106812738D01*
X78456880Y-106707925D01*
X78475632Y-106651389D01*
X78475632Y-106651387D01*
X78477797Y-106644861D01*
X78479546Y-106627797D01*
X78483644Y-106587797D01*
X78488500Y-106540400D01*
X78488500Y-106537095D01*
X79272001Y-106537095D01*
X79272338Y-106543614D01*
X79282257Y-106639206D01*
X79285149Y-106652600D01*
X79336588Y-106806784D01*
X79342761Y-106819962D01*
X79428063Y-106957807D01*
X79437099Y-106969208D01*
X79551829Y-107083739D01*
X79563240Y-107092751D01*
X79701243Y-107177816D01*
X79714424Y-107183963D01*
X79868710Y-107235138D01*
X79882086Y-107238005D01*
X79976438Y-107247672D01*
X79982854Y-107248000D01*
X80082885Y-107248000D01*
X80098124Y-107243525D01*
X80099329Y-107242135D01*
X80101000Y-107234452D01*
X80101000Y-107229884D01*
X80609000Y-107229884D01*
X80613475Y-107245123D01*
X80614865Y-107246328D01*
X80622548Y-107247999D01*
X80727095Y-107247999D01*
X80733614Y-107247662D01*
X80829206Y-107237743D01*
X80842600Y-107234851D01*
X80996784Y-107183412D01*
X81009962Y-107177239D01*
X81147807Y-107091937D01*
X81159208Y-107082901D01*
X81273739Y-106968171D01*
X81282751Y-106956760D01*
X81367816Y-106818757D01*
X81373963Y-106805576D01*
X81425138Y-106651290D01*
X81428005Y-106637914D01*
X81437672Y-106543562D01*
X81438000Y-106537146D01*
X81438000Y-106112115D01*
X81433525Y-106096876D01*
X81432135Y-106095671D01*
X81424452Y-106094000D01*
X80627115Y-106094000D01*
X80611876Y-106098475D01*
X80610671Y-106099865D01*
X80609000Y-106107548D01*
X80609000Y-107229884D01*
X80101000Y-107229884D01*
X80101000Y-106112115D01*
X80096525Y-106096876D01*
X80095135Y-106095671D01*
X80087452Y-106094000D01*
X79290116Y-106094000D01*
X79274877Y-106098475D01*
X79273672Y-106099865D01*
X79272001Y-106107548D01*
X79272001Y-106537095D01*
X78488500Y-106537095D01*
X78488500Y-105817863D01*
X78501060Y-105763023D01*
X78510625Y-105743237D01*
X78513691Y-105736895D01*
X78518151Y-105717579D01*
X78520948Y-105705461D01*
X78525315Y-105690718D01*
X78536350Y-105660400D01*
X78541591Y-105618912D01*
X78543828Y-105606357D01*
X78546692Y-105593956D01*
X78552711Y-105567885D01*
X79272000Y-105567885D01*
X79276475Y-105583124D01*
X79277865Y-105584329D01*
X79285548Y-105586000D01*
X80082885Y-105586000D01*
X80098124Y-105581525D01*
X80099329Y-105580135D01*
X80101000Y-105572452D01*
X80101000Y-105567885D01*
X80609000Y-105567885D01*
X80613475Y-105583124D01*
X80614865Y-105584329D01*
X80622548Y-105586000D01*
X81419884Y-105586000D01*
X81435123Y-105581525D01*
X81436328Y-105580135D01*
X81437999Y-105572452D01*
X81437999Y-105142905D01*
X81437662Y-105136386D01*
X81427743Y-105040794D01*
X81424851Y-105027400D01*
X81373412Y-104873216D01*
X81367239Y-104860038D01*
X81281937Y-104722193D01*
X81272901Y-104710792D01*
X81158171Y-104596261D01*
X81146760Y-104587249D01*
X81008757Y-104502184D01*
X80995576Y-104496037D01*
X80841290Y-104444862D01*
X80827914Y-104441995D01*
X80733562Y-104432328D01*
X80727145Y-104432000D01*
X80627115Y-104432000D01*
X80611876Y-104436475D01*
X80610671Y-104437865D01*
X80609000Y-104445548D01*
X80609000Y-105567885D01*
X80101000Y-105567885D01*
X80101000Y-104450116D01*
X80096525Y-104434877D01*
X80095135Y-104433672D01*
X80087452Y-104432001D01*
X79982905Y-104432001D01*
X79976386Y-104432338D01*
X79880794Y-104442257D01*
X79867400Y-104445149D01*
X79713216Y-104496588D01*
X79700038Y-104502761D01*
X79562193Y-104588063D01*
X79550792Y-104597099D01*
X79436261Y-104711829D01*
X79427249Y-104723240D01*
X79342184Y-104861243D01*
X79336037Y-104874424D01*
X79284862Y-105028710D01*
X79281995Y-105042086D01*
X79272328Y-105136438D01*
X79272000Y-105142855D01*
X79272000Y-105567885D01*
X78552711Y-105567885D01*
X78553233Y-105565623D01*
X78553283Y-105551399D01*
X78553370Y-105526285D01*
X78553398Y-105525454D01*
X78553500Y-105524646D01*
X78553500Y-105489062D01*
X78553846Y-105389847D01*
X78553585Y-105388679D01*
X78553500Y-105387110D01*
X78553500Y-103304500D01*
X78573502Y-103236379D01*
X78627158Y-103189886D01*
X78679500Y-103178500D01*
X79027127Y-103178500D01*
X79029844Y-103178262D01*
X79029851Y-103178262D01*
X79098520Y-103172254D01*
X79198087Y-103163543D01*
X79203400Y-103162119D01*
X79203402Y-103162119D01*
X79413933Y-103105707D01*
X79413935Y-103105706D01*
X79419243Y-103104284D01*
X79444300Y-103092600D01*
X79621762Y-103009849D01*
X79621767Y-103009846D01*
X79626749Y-103007523D01*
X79731611Y-102934098D01*
X79809789Y-102879357D01*
X79809792Y-102879355D01*
X79814300Y-102876198D01*
X79976198Y-102714300D01*
X79981148Y-102707231D01*
X79982227Y-102706369D01*
X79982892Y-102705576D01*
X79983051Y-102705710D01*
X80036604Y-102662902D01*
X80084362Y-102653500D01*
X81640999Y-102653500D01*
X81642320Y-102653507D01*
X81729678Y-102654422D01*
X81736563Y-102652933D01*
X81736566Y-102652933D01*
X81770545Y-102645586D01*
X81783128Y-102643525D01*
X81791615Y-102642573D01*
X81824682Y-102638864D01*
X81831337Y-102636546D01*
X81831343Y-102636545D01*
X81855146Y-102628256D01*
X81869955Y-102624093D01*
X81894601Y-102618764D01*
X81894605Y-102618763D01*
X81901486Y-102617275D01*
X81939395Y-102599598D01*
X81951171Y-102594816D01*
X81990681Y-102581057D01*
X82018039Y-102563962D01*
X82031556Y-102556623D01*
X82054415Y-102545964D01*
X82054418Y-102545962D01*
X82060794Y-102542989D01*
X82093834Y-102517360D01*
X82104283Y-102510071D01*
X82139749Y-102487909D01*
X82167672Y-102460181D01*
X82168264Y-102459627D01*
X82168913Y-102459123D01*
X82194065Y-102433971D01*
X82264475Y-102364051D01*
X82265116Y-102363041D01*
X82266174Y-102361862D01*
X84037617Y-100590419D01*
X84038555Y-100589490D01*
X84052353Y-100575978D01*
X84101011Y-100528329D01*
X84104828Y-100522407D01*
X84104830Y-100522404D01*
X84123665Y-100493178D01*
X84131093Y-100482839D01*
X84157188Y-100450150D01*
X84160254Y-100443808D01*
X84160257Y-100443803D01*
X84171227Y-100421110D01*
X84178753Y-100407698D01*
X84192414Y-100386500D01*
X84192416Y-100386495D01*
X84196231Y-100380576D01*
X84210533Y-100341281D01*
X84215494Y-100329537D01*
X84230624Y-100298240D01*
X84230625Y-100298237D01*
X84233691Y-100291895D01*
X84240948Y-100260459D01*
X84245315Y-100245718D01*
X84256350Y-100215400D01*
X84261591Y-100173912D01*
X84263828Y-100161357D01*
X84271648Y-100127488D01*
X84273233Y-100120623D01*
X84273370Y-100081285D01*
X84273398Y-100080454D01*
X84273500Y-100079646D01*
X84273500Y-100044062D01*
X84273846Y-99944847D01*
X84273585Y-99943679D01*
X84273500Y-99942110D01*
X84273500Y-95876727D01*
X84293502Y-95808606D01*
X84310405Y-95787631D01*
X84977633Y-95120404D01*
X85039945Y-95086379D01*
X85066728Y-95083500D01*
X86839266Y-95083500D01*
X86907387Y-95103502D01*
X86953880Y-95157158D01*
X86963984Y-95227432D01*
X86934490Y-95292012D01*
X86911539Y-95312712D01*
X86895700Y-95323802D01*
X86733802Y-95485700D01*
X86730645Y-95490208D01*
X86730643Y-95490211D01*
X86687313Y-95552093D01*
X86602477Y-95673251D01*
X86600154Y-95678233D01*
X86600151Y-95678238D01*
X86539360Y-95808606D01*
X86505716Y-95880757D01*
X86504294Y-95886065D01*
X86504293Y-95886067D01*
X86483561Y-95963439D01*
X86446457Y-96101913D01*
X86438158Y-96196768D01*
X86432673Y-96259469D01*
X86431500Y-96272873D01*
X86431500Y-98787127D01*
X86446457Y-98958087D01*
X86505716Y-99179243D01*
X86508039Y-99184224D01*
X86508039Y-99184225D01*
X86600151Y-99381762D01*
X86600154Y-99381767D01*
X86602477Y-99386749D01*
X86605634Y-99391257D01*
X86721340Y-99556502D01*
X86733802Y-99574300D01*
X86895700Y-99736198D01*
X86900213Y-99739358D01*
X86902769Y-99741148D01*
X86903631Y-99742227D01*
X86904424Y-99742892D01*
X86904290Y-99743051D01*
X86947098Y-99796604D01*
X86956500Y-99844362D01*
X86956500Y-100435500D01*
X86936498Y-100503621D01*
X86882842Y-100550114D01*
X86830500Y-100561500D01*
X86672873Y-100561500D01*
X86670156Y-100561738D01*
X86670149Y-100561738D01*
X86601480Y-100567746D01*
X86501913Y-100576457D01*
X86496600Y-100577881D01*
X86496598Y-100577881D01*
X86286067Y-100634293D01*
X86286065Y-100634294D01*
X86280757Y-100635716D01*
X86275776Y-100638039D01*
X86275775Y-100638039D01*
X86078238Y-100730151D01*
X86078233Y-100730154D01*
X86073251Y-100732477D01*
X85968389Y-100805902D01*
X85890211Y-100860643D01*
X85890208Y-100860645D01*
X85885700Y-100863802D01*
X85723802Y-101025700D01*
X85720645Y-101030208D01*
X85720643Y-101030211D01*
X85683245Y-101083621D01*
X85592477Y-101213251D01*
X85590154Y-101218233D01*
X85590151Y-101218238D01*
X85525272Y-101357373D01*
X85495716Y-101420757D01*
X85494294Y-101426065D01*
X85494293Y-101426067D01*
X85451429Y-101586037D01*
X85436457Y-101641913D01*
X85416502Y-101870000D01*
X85436457Y-102098087D01*
X85437881Y-102103400D01*
X85437881Y-102103402D01*
X85453856Y-102163019D01*
X85495716Y-102319243D01*
X85498039Y-102324224D01*
X85498039Y-102324225D01*
X85590151Y-102521762D01*
X85590154Y-102521767D01*
X85592477Y-102526749D01*
X85653782Y-102614301D01*
X85718249Y-102706369D01*
X85723802Y-102714300D01*
X85885700Y-102876198D01*
X85890208Y-102879355D01*
X85890211Y-102879357D01*
X85968389Y-102934098D01*
X86073251Y-103007523D01*
X86078233Y-103009846D01*
X86078238Y-103009849D01*
X86255700Y-103092600D01*
X86280757Y-103104284D01*
X86286065Y-103105706D01*
X86286067Y-103105707D01*
X86496598Y-103162119D01*
X86496600Y-103162119D01*
X86501913Y-103163543D01*
X86601480Y-103172254D01*
X86670149Y-103178262D01*
X86670156Y-103178262D01*
X86672873Y-103178500D01*
X89187127Y-103178500D01*
X89189844Y-103178262D01*
X89189851Y-103178262D01*
X89258520Y-103172254D01*
X89358087Y-103163543D01*
X89363400Y-103162119D01*
X89363402Y-103162119D01*
X89573933Y-103105707D01*
X89573935Y-103105706D01*
X89579243Y-103104284D01*
X89604300Y-103092600D01*
X89689931Y-103052670D01*
X91972160Y-103052670D01*
X91977887Y-103060320D01*
X92149042Y-103165205D01*
X92157837Y-103169687D01*
X92367988Y-103256734D01*
X92377373Y-103259783D01*
X92598554Y-103312885D01*
X92608301Y-103314428D01*
X92835070Y-103332275D01*
X92844930Y-103332275D01*
X93071699Y-103314428D01*
X93081446Y-103312885D01*
X93302627Y-103259783D01*
X93312012Y-103256734D01*
X93522163Y-103169687D01*
X93530958Y-103165205D01*
X93698445Y-103062568D01*
X93707907Y-103052110D01*
X93704124Y-103043334D01*
X93637885Y-102977095D01*
X97212001Y-102977095D01*
X97212338Y-102983614D01*
X97222257Y-103079206D01*
X97225149Y-103092600D01*
X97276588Y-103246784D01*
X97282761Y-103259962D01*
X97368063Y-103397807D01*
X97377099Y-103409208D01*
X97491829Y-103523739D01*
X97503240Y-103532751D01*
X97641243Y-103617816D01*
X97654424Y-103623963D01*
X97808710Y-103675138D01*
X97822086Y-103678005D01*
X97916438Y-103687672D01*
X97922854Y-103688000D01*
X98347885Y-103688000D01*
X98363124Y-103683525D01*
X98364329Y-103682135D01*
X98366000Y-103674452D01*
X98366000Y-103669884D01*
X98874000Y-103669884D01*
X98878475Y-103685123D01*
X98879865Y-103686328D01*
X98887548Y-103687999D01*
X99317095Y-103687999D01*
X99323614Y-103687662D01*
X99419206Y-103677743D01*
X99432600Y-103674851D01*
X99586784Y-103623412D01*
X99599962Y-103617239D01*
X99737807Y-103531937D01*
X99749208Y-103522901D01*
X99863739Y-103408171D01*
X99872751Y-103396760D01*
X99900146Y-103352317D01*
X99952918Y-103304824D01*
X100022990Y-103293400D01*
X100088114Y-103321674D01*
X100114551Y-103352130D01*
X100118068Y-103357813D01*
X100127099Y-103369208D01*
X100241829Y-103483739D01*
X100253240Y-103492751D01*
X100391243Y-103577816D01*
X100404424Y-103583963D01*
X100558710Y-103635138D01*
X100572086Y-103638005D01*
X100666438Y-103647672D01*
X100672854Y-103648000D01*
X101097885Y-103648000D01*
X101113124Y-103643525D01*
X101114329Y-103642135D01*
X101116000Y-103634452D01*
X101116000Y-102837115D01*
X101111525Y-102821876D01*
X101110135Y-102820671D01*
X101102452Y-102819000D01*
X100086115Y-102819000D01*
X100060766Y-102826443D01*
X100018051Y-102853896D01*
X99982551Y-102859000D01*
X98892115Y-102859000D01*
X98876876Y-102863475D01*
X98875671Y-102864865D01*
X98874000Y-102872548D01*
X98874000Y-103669884D01*
X98366000Y-103669884D01*
X98366000Y-102877115D01*
X98361525Y-102861876D01*
X98360135Y-102860671D01*
X98352452Y-102859000D01*
X97230116Y-102859000D01*
X97214877Y-102863475D01*
X97213672Y-102864865D01*
X97212001Y-102872548D01*
X97212001Y-102977095D01*
X93637885Y-102977095D01*
X92852812Y-102192022D01*
X92838868Y-102184408D01*
X92837035Y-102184539D01*
X92830420Y-102188790D01*
X91978920Y-103040290D01*
X91972160Y-103052670D01*
X89689931Y-103052670D01*
X89781762Y-103009849D01*
X89781767Y-103009846D01*
X89786749Y-103007523D01*
X89891611Y-102934098D01*
X89969789Y-102879357D01*
X89969792Y-102879355D01*
X89974300Y-102876198D01*
X90136198Y-102714300D01*
X90141752Y-102706369D01*
X90206218Y-102614301D01*
X90267523Y-102526749D01*
X90269846Y-102521767D01*
X90269849Y-102521762D01*
X90361961Y-102324225D01*
X90361961Y-102324224D01*
X90364284Y-102319243D01*
X90406145Y-102163019D01*
X90422119Y-102103402D01*
X90422119Y-102103400D01*
X90423543Y-102098087D01*
X90443498Y-101870000D01*
X90439555Y-101824930D01*
X91327725Y-101824930D01*
X91345572Y-102051699D01*
X91347115Y-102061446D01*
X91400217Y-102282627D01*
X91403266Y-102292012D01*
X91490313Y-102502163D01*
X91494795Y-102510958D01*
X91597432Y-102678445D01*
X91607890Y-102687907D01*
X91616666Y-102684124D01*
X92467978Y-101832812D01*
X92474356Y-101821132D01*
X93204408Y-101821132D01*
X93204539Y-101822965D01*
X93208790Y-101829580D01*
X94060290Y-102681080D01*
X94072670Y-102687840D01*
X94080320Y-102682113D01*
X94185205Y-102510958D01*
X94189687Y-102502163D01*
X94259804Y-102332885D01*
X97212000Y-102332885D01*
X97216475Y-102348124D01*
X97217865Y-102349329D01*
X97225548Y-102351000D01*
X98347885Y-102351000D01*
X98363124Y-102346525D01*
X98364329Y-102345135D01*
X98366000Y-102337452D01*
X98366000Y-102332885D01*
X98874000Y-102332885D01*
X98878475Y-102348124D01*
X98879865Y-102349329D01*
X98887548Y-102351000D01*
X99903885Y-102351000D01*
X99929234Y-102343557D01*
X99971949Y-102316104D01*
X100007449Y-102311000D01*
X101097885Y-102311000D01*
X101113124Y-102306525D01*
X101114329Y-102305135D01*
X101116000Y-102297452D01*
X101116000Y-101500116D01*
X101111525Y-101484877D01*
X101110135Y-101483672D01*
X101102452Y-101482001D01*
X100672905Y-101482001D01*
X100666386Y-101482338D01*
X100570794Y-101492257D01*
X100557400Y-101495149D01*
X100403216Y-101546588D01*
X100390038Y-101552761D01*
X100252193Y-101638063D01*
X100240792Y-101647099D01*
X100126261Y-101761829D01*
X100117249Y-101773240D01*
X100089854Y-101817683D01*
X100037082Y-101865176D01*
X99967010Y-101876600D01*
X99901886Y-101848326D01*
X99875449Y-101817870D01*
X99871932Y-101812187D01*
X99862901Y-101800792D01*
X99748171Y-101686261D01*
X99736760Y-101677249D01*
X99598757Y-101592184D01*
X99585576Y-101586037D01*
X99431290Y-101534862D01*
X99417914Y-101531995D01*
X99323562Y-101522328D01*
X99317145Y-101522000D01*
X98892115Y-101522000D01*
X98876876Y-101526475D01*
X98875671Y-101527865D01*
X98874000Y-101535548D01*
X98874000Y-102332885D01*
X98366000Y-102332885D01*
X98366000Y-101540116D01*
X98361525Y-101524877D01*
X98360135Y-101523672D01*
X98352452Y-101522001D01*
X97922905Y-101522001D01*
X97916386Y-101522338D01*
X97820794Y-101532257D01*
X97807400Y-101535149D01*
X97653216Y-101586588D01*
X97640038Y-101592761D01*
X97502193Y-101678063D01*
X97490792Y-101687099D01*
X97376261Y-101801829D01*
X97367249Y-101813240D01*
X97282184Y-101951243D01*
X97276037Y-101964424D01*
X97224862Y-102118710D01*
X97221995Y-102132086D01*
X97212328Y-102226438D01*
X97212000Y-102232855D01*
X97212000Y-102332885D01*
X94259804Y-102332885D01*
X94276734Y-102292012D01*
X94279783Y-102282627D01*
X94332885Y-102061446D01*
X94334428Y-102051699D01*
X94352275Y-101824930D01*
X94352275Y-101815070D01*
X94334428Y-101588301D01*
X94332885Y-101578554D01*
X94279783Y-101357373D01*
X94276734Y-101347988D01*
X94189687Y-101137837D01*
X94185205Y-101129042D01*
X94082568Y-100961555D01*
X94072110Y-100952093D01*
X94063334Y-100955876D01*
X93212022Y-101807188D01*
X93204408Y-101821132D01*
X92474356Y-101821132D01*
X92475592Y-101818868D01*
X92475461Y-101817035D01*
X92471210Y-101810420D01*
X91619710Y-100958920D01*
X91607330Y-100952160D01*
X91599680Y-100957887D01*
X91494795Y-101129042D01*
X91490313Y-101137837D01*
X91403266Y-101347988D01*
X91400217Y-101357373D01*
X91347115Y-101578554D01*
X91345572Y-101588301D01*
X91327725Y-101815070D01*
X91327725Y-101824930D01*
X90439555Y-101824930D01*
X90423543Y-101641913D01*
X90408571Y-101586037D01*
X90365707Y-101426067D01*
X90365706Y-101426065D01*
X90364284Y-101420757D01*
X90334728Y-101357373D01*
X90269849Y-101218238D01*
X90269846Y-101218233D01*
X90267523Y-101213251D01*
X90176755Y-101083621D01*
X90139357Y-101030211D01*
X90139355Y-101030208D01*
X90136198Y-101025700D01*
X89974300Y-100863802D01*
X89969792Y-100860645D01*
X89969789Y-100860643D01*
X89891611Y-100805902D01*
X89786749Y-100732477D01*
X89781767Y-100730154D01*
X89781762Y-100730151D01*
X89584225Y-100638039D01*
X89584224Y-100638039D01*
X89579243Y-100635716D01*
X89573935Y-100634294D01*
X89573933Y-100634293D01*
X89400756Y-100587890D01*
X91972093Y-100587890D01*
X91975876Y-100596666D01*
X92827188Y-101447978D01*
X92841132Y-101455592D01*
X92842965Y-101455461D01*
X92849580Y-101451210D01*
X93701080Y-100599710D01*
X93707840Y-100587330D01*
X93702113Y-100579680D01*
X93530958Y-100474795D01*
X93522163Y-100470313D01*
X93312012Y-100383266D01*
X93302627Y-100380217D01*
X93081446Y-100327115D01*
X93071699Y-100325572D01*
X92844930Y-100307725D01*
X92835070Y-100307725D01*
X92608301Y-100325572D01*
X92598554Y-100327115D01*
X92377373Y-100380217D01*
X92367988Y-100383266D01*
X92157837Y-100470313D01*
X92149042Y-100474795D01*
X91981555Y-100577432D01*
X91972093Y-100587890D01*
X89400756Y-100587890D01*
X89363402Y-100577881D01*
X89363400Y-100577881D01*
X89358087Y-100576457D01*
X89258520Y-100567746D01*
X89189851Y-100561738D01*
X89189844Y-100561738D01*
X89187127Y-100561500D01*
X88649500Y-100561500D01*
X88581379Y-100541498D01*
X88534886Y-100487842D01*
X88523500Y-100435500D01*
X88523500Y-99844362D01*
X88543502Y-99776241D01*
X88577231Y-99741148D01*
X88579787Y-99739358D01*
X88584300Y-99736198D01*
X88746198Y-99574300D01*
X88758661Y-99556502D01*
X88874366Y-99391257D01*
X88877523Y-99386749D01*
X88879846Y-99381767D01*
X88879849Y-99381762D01*
X88896081Y-99346951D01*
X88942998Y-99293666D01*
X89011275Y-99274205D01*
X89079235Y-99294747D01*
X89124471Y-99346951D01*
X89140586Y-99381511D01*
X89146069Y-99391007D01*
X89271028Y-99569467D01*
X89278084Y-99577875D01*
X89432125Y-99731916D01*
X89440533Y-99738972D01*
X89618993Y-99863931D01*
X89628489Y-99869414D01*
X89825947Y-99961490D01*
X89836239Y-99965236D01*
X90008503Y-100011394D01*
X90022599Y-100011058D01*
X90026000Y-100003116D01*
X90026000Y-99997967D01*
X90534000Y-99997967D01*
X90537973Y-100011498D01*
X90546522Y-100012727D01*
X90723761Y-99965236D01*
X90734053Y-99961490D01*
X90931511Y-99869414D01*
X90941007Y-99863931D01*
X91119467Y-99738972D01*
X91127875Y-99731916D01*
X91281916Y-99577875D01*
X91288972Y-99569467D01*
X91413931Y-99391007D01*
X91419414Y-99381511D01*
X91511490Y-99184053D01*
X91515236Y-99173761D01*
X91571625Y-98963312D01*
X91573528Y-98952519D01*
X91587762Y-98789830D01*
X91588000Y-98784365D01*
X91588000Y-97802115D01*
X91583525Y-97786876D01*
X91582135Y-97785671D01*
X91574452Y-97784000D01*
X90552115Y-97784000D01*
X90536876Y-97788475D01*
X90535671Y-97789865D01*
X90534000Y-97797548D01*
X90534000Y-99997967D01*
X90026000Y-99997967D01*
X90026000Y-97402000D01*
X90046002Y-97333879D01*
X90099658Y-97287386D01*
X90152000Y-97276000D01*
X91569885Y-97276000D01*
X91585124Y-97271525D01*
X91586329Y-97270135D01*
X91588000Y-97262452D01*
X91588000Y-96275635D01*
X91587762Y-96270170D01*
X91573528Y-96107481D01*
X91571625Y-96096688D01*
X91515236Y-95886239D01*
X91511490Y-95875947D01*
X91419414Y-95678489D01*
X91413931Y-95668993D01*
X91288972Y-95490533D01*
X91281916Y-95482125D01*
X91127875Y-95328084D01*
X91119465Y-95321026D01*
X91107593Y-95312714D01*
X91063263Y-95257257D01*
X91055953Y-95186638D01*
X91087984Y-95123277D01*
X91149184Y-95087292D01*
X91179862Y-95083500D01*
X94093274Y-95083500D01*
X94161395Y-95103502D01*
X94182369Y-95120405D01*
X95399595Y-96337631D01*
X95433621Y-96399943D01*
X95436500Y-96426726D01*
X95436500Y-96780999D01*
X95436493Y-96782319D01*
X95435578Y-96869678D01*
X95437067Y-96876563D01*
X95437067Y-96876566D01*
X95444414Y-96910545D01*
X95446475Y-96923128D01*
X95451136Y-96964682D01*
X95453454Y-96971337D01*
X95453455Y-96971343D01*
X95461744Y-96995146D01*
X95465907Y-97009955D01*
X95471236Y-97034601D01*
X95472725Y-97041486D01*
X95490402Y-97079395D01*
X95495184Y-97091171D01*
X95508943Y-97130681D01*
X95526037Y-97158037D01*
X95533377Y-97171556D01*
X95547011Y-97200794D01*
X95551324Y-97206354D01*
X95551325Y-97206356D01*
X95572640Y-97233835D01*
X95579929Y-97244283D01*
X95602091Y-97279749D01*
X95628750Y-97306596D01*
X95629819Y-97307672D01*
X95630373Y-97308264D01*
X95630877Y-97308913D01*
X95656029Y-97334065D01*
X95725949Y-97404475D01*
X95726959Y-97405116D01*
X95728138Y-97406174D01*
X95849581Y-97527617D01*
X95850510Y-97528555D01*
X95911671Y-97591011D01*
X95917593Y-97594828D01*
X95917596Y-97594830D01*
X95946822Y-97613665D01*
X95957161Y-97621093D01*
X95989850Y-97647188D01*
X95996192Y-97650254D01*
X95996197Y-97650257D01*
X96018890Y-97661227D01*
X96032302Y-97668753D01*
X96053500Y-97682414D01*
X96053505Y-97682416D01*
X96059424Y-97686231D01*
X96098719Y-97700533D01*
X96110463Y-97705494D01*
X96141760Y-97720624D01*
X96141763Y-97720625D01*
X96148105Y-97723691D01*
X96154966Y-97725275D01*
X96154969Y-97725276D01*
X96179539Y-97730948D01*
X96194282Y-97735315D01*
X96224600Y-97746350D01*
X96263951Y-97751321D01*
X96266088Y-97751591D01*
X96278636Y-97753827D01*
X96319377Y-97763233D01*
X96326423Y-97763258D01*
X96326426Y-97763258D01*
X96358721Y-97763371D01*
X96359547Y-97763398D01*
X96360354Y-97763500D01*
X96395660Y-97763500D01*
X96396100Y-97763501D01*
X96491710Y-97763835D01*
X96495153Y-97763847D01*
X96496324Y-97763585D01*
X96497897Y-97763500D01*
X102753274Y-97763500D01*
X102821395Y-97783502D01*
X102842369Y-97800405D01*
X103339595Y-98297631D01*
X103373621Y-98359943D01*
X103376500Y-98386726D01*
X103376500Y-101427462D01*
X103356498Y-101495583D01*
X103302842Y-101542076D01*
X103290376Y-101546986D01*
X103229347Y-101567347D01*
X103211054Y-101573450D01*
X103060652Y-101666522D01*
X102935695Y-101791697D01*
X102931855Y-101797927D01*
X102931854Y-101797928D01*
X102926146Y-101807188D01*
X102892195Y-101862267D01*
X102839424Y-101909759D01*
X102769353Y-101921183D01*
X102704229Y-101892909D01*
X102677792Y-101862453D01*
X102621937Y-101772193D01*
X102612901Y-101760792D01*
X102498171Y-101646261D01*
X102486760Y-101637249D01*
X102348757Y-101552184D01*
X102335576Y-101546037D01*
X102181290Y-101494862D01*
X102167914Y-101491995D01*
X102073562Y-101482328D01*
X102067145Y-101482000D01*
X101642115Y-101482000D01*
X101626876Y-101486475D01*
X101625671Y-101487865D01*
X101624000Y-101495548D01*
X101624000Y-103629884D01*
X101628475Y-103645123D01*
X101629865Y-103646328D01*
X101637548Y-103647999D01*
X102067095Y-103647999D01*
X102073614Y-103647662D01*
X102169206Y-103637743D01*
X102182600Y-103634851D01*
X102336784Y-103583412D01*
X102349962Y-103577239D01*
X102487807Y-103491937D01*
X102499208Y-103482901D01*
X102613739Y-103368171D01*
X102622751Y-103356760D01*
X102669936Y-103280211D01*
X102722708Y-103232718D01*
X102792779Y-103221294D01*
X102857903Y-103249568D01*
X102884340Y-103280022D01*
X102936522Y-103364348D01*
X103061697Y-103489305D01*
X103067927Y-103493145D01*
X103067928Y-103493146D01*
X103205288Y-103577816D01*
X103212262Y-103582115D01*
X103292005Y-103608564D01*
X103373611Y-103635632D01*
X103373613Y-103635632D01*
X103380139Y-103637797D01*
X103386975Y-103638497D01*
X103386978Y-103638498D01*
X103430031Y-103642909D01*
X103484600Y-103648500D01*
X104835400Y-103648500D01*
X104838646Y-103648163D01*
X104838650Y-103648163D01*
X104934308Y-103638238D01*
X104934312Y-103638237D01*
X104941166Y-103637526D01*
X104947702Y-103635345D01*
X104947704Y-103635345D01*
X105079806Y-103591272D01*
X105108946Y-103581550D01*
X105259348Y-103488478D01*
X105384305Y-103363303D01*
X105448116Y-103259783D01*
X105473275Y-103218968D01*
X105473276Y-103218966D01*
X105477115Y-103212738D01*
X105532797Y-103044861D01*
X105543500Y-102940400D01*
X105543500Y-102214600D01*
X105543163Y-102211350D01*
X105533238Y-102115692D01*
X105533237Y-102115688D01*
X105532526Y-102108834D01*
X105526027Y-102089352D01*
X105478868Y-101948002D01*
X105476550Y-101941054D01*
X105383478Y-101790652D01*
X105258303Y-101665695D01*
X105246947Y-101658695D01*
X105113968Y-101576725D01*
X105113966Y-101576724D01*
X105107738Y-101572885D01*
X105038220Y-101549827D01*
X105029833Y-101547045D01*
X104971473Y-101506614D01*
X104944236Y-101441050D01*
X104943500Y-101427452D01*
X104943500Y-98019001D01*
X104943507Y-98017681D01*
X104944348Y-97937369D01*
X104944422Y-97930322D01*
X104940986Y-97914428D01*
X104935586Y-97889455D01*
X104933525Y-97876872D01*
X104931266Y-97856734D01*
X104928864Y-97835318D01*
X104926546Y-97828663D01*
X104926545Y-97828657D01*
X104918256Y-97804854D01*
X104914093Y-97790045D01*
X104908764Y-97765399D01*
X104908763Y-97765395D01*
X104907275Y-97758514D01*
X104889598Y-97720605D01*
X104884816Y-97708829D01*
X104871057Y-97669319D01*
X104860654Y-97652670D01*
X107272160Y-97652670D01*
X107277887Y-97660320D01*
X107449042Y-97765205D01*
X107457837Y-97769687D01*
X107667988Y-97856734D01*
X107677373Y-97859783D01*
X107898554Y-97912885D01*
X107908301Y-97914428D01*
X108135070Y-97932275D01*
X108144930Y-97932275D01*
X108371699Y-97914428D01*
X108381446Y-97912885D01*
X108602627Y-97859783D01*
X108612012Y-97856734D01*
X108822163Y-97769687D01*
X108830958Y-97765205D01*
X108998445Y-97662568D01*
X109007907Y-97652110D01*
X109004124Y-97643334D01*
X108152812Y-96792022D01*
X108138868Y-96784408D01*
X108137035Y-96784539D01*
X108130420Y-96788790D01*
X107278920Y-97640290D01*
X107272160Y-97652670D01*
X104860654Y-97652670D01*
X104853962Y-97641961D01*
X104846623Y-97628444D01*
X104835964Y-97605585D01*
X104835962Y-97605582D01*
X104832989Y-97599206D01*
X104826633Y-97591011D01*
X104807360Y-97566165D01*
X104800071Y-97555717D01*
X104777909Y-97520251D01*
X104750181Y-97492328D01*
X104749627Y-97491736D01*
X104749123Y-97491087D01*
X104723971Y-97465935D01*
X104654051Y-97395525D01*
X104653041Y-97394884D01*
X104651862Y-97393826D01*
X103690419Y-96432383D01*
X103689490Y-96431445D01*
X103683110Y-96424930D01*
X106627725Y-96424930D01*
X106645572Y-96651699D01*
X106647115Y-96661446D01*
X106700217Y-96882627D01*
X106703266Y-96892012D01*
X106790313Y-97102163D01*
X106794795Y-97110958D01*
X106897432Y-97278445D01*
X106907890Y-97287907D01*
X106916666Y-97284124D01*
X107767978Y-96432812D01*
X107774356Y-96421132D01*
X108504408Y-96421132D01*
X108504539Y-96422965D01*
X108508790Y-96429580D01*
X109360290Y-97281080D01*
X109372670Y-97287840D01*
X109380320Y-97282113D01*
X109485205Y-97110958D01*
X109489687Y-97102163D01*
X109576734Y-96892012D01*
X109579783Y-96882627D01*
X109632885Y-96661446D01*
X109634428Y-96651699D01*
X109652275Y-96424930D01*
X109652275Y-96415070D01*
X109634428Y-96188301D01*
X109632885Y-96178554D01*
X109579783Y-95957373D01*
X109576734Y-95947988D01*
X109489687Y-95737837D01*
X109485205Y-95729042D01*
X109382568Y-95561555D01*
X109372110Y-95552093D01*
X109363334Y-95555876D01*
X108512022Y-96407188D01*
X108504408Y-96421132D01*
X107774356Y-96421132D01*
X107775592Y-96418868D01*
X107775461Y-96417035D01*
X107771210Y-96410420D01*
X106919710Y-95558920D01*
X106907330Y-95552160D01*
X106899680Y-95557887D01*
X106794795Y-95729042D01*
X106790313Y-95737837D01*
X106703266Y-95947988D01*
X106700217Y-95957373D01*
X106647115Y-96178554D01*
X106645572Y-96188301D01*
X106627725Y-96415070D01*
X106627725Y-96424930D01*
X103683110Y-96424930D01*
X103675379Y-96417035D01*
X103628329Y-96368989D01*
X103622407Y-96365172D01*
X103622404Y-96365170D01*
X103593178Y-96346335D01*
X103582839Y-96338907D01*
X103550150Y-96312812D01*
X103543808Y-96309746D01*
X103543803Y-96309743D01*
X103521110Y-96298773D01*
X103507698Y-96291247D01*
X103486500Y-96277586D01*
X103486495Y-96277584D01*
X103480576Y-96273769D01*
X103441281Y-96259467D01*
X103429537Y-96254506D01*
X103398244Y-96239378D01*
X103398242Y-96239377D01*
X103391895Y-96236309D01*
X103360456Y-96229051D01*
X103345720Y-96224685D01*
X103322020Y-96216059D01*
X103322016Y-96216058D01*
X103315400Y-96213650D01*
X103308414Y-96212767D01*
X103308412Y-96212767D01*
X103273921Y-96208410D01*
X103261369Y-96206175D01*
X103254130Y-96204504D01*
X103220623Y-96196768D01*
X103213583Y-96196743D01*
X103213580Y-96196743D01*
X103181296Y-96196630D01*
X103180459Y-96196602D01*
X103179646Y-96196500D01*
X103144054Y-96196500D01*
X103143614Y-96196499D01*
X103137859Y-96196479D01*
X103044847Y-96196154D01*
X103043679Y-96196415D01*
X103042111Y-96196500D01*
X97129500Y-96196500D01*
X97061379Y-96176498D01*
X97014886Y-96122842D01*
X97003500Y-96070500D01*
X97003500Y-96059001D01*
X97003507Y-96057681D01*
X97004348Y-95977363D01*
X97004422Y-95970322D01*
X97002934Y-95963439D01*
X96995585Y-95929445D01*
X96993525Y-95916867D01*
X96989649Y-95882312D01*
X96989648Y-95882308D01*
X96988864Y-95875318D01*
X96978257Y-95844860D01*
X96974093Y-95830046D01*
X96968764Y-95805397D01*
X96967276Y-95798514D01*
X96961345Y-95785795D01*
X96949602Y-95760610D01*
X96944806Y-95748800D01*
X96937925Y-95729042D01*
X96931057Y-95709319D01*
X96913959Y-95681957D01*
X96906626Y-95668451D01*
X96892989Y-95639207D01*
X96867367Y-95606175D01*
X96860074Y-95595721D01*
X96841641Y-95566223D01*
X96841640Y-95566222D01*
X96837909Y-95560251D01*
X96829875Y-95552160D01*
X96810181Y-95532328D01*
X96809627Y-95531736D01*
X96809123Y-95531087D01*
X96783971Y-95505935D01*
X96714051Y-95435525D01*
X96713041Y-95434884D01*
X96711862Y-95433826D01*
X96465926Y-95187890D01*
X107272093Y-95187890D01*
X107275876Y-95196666D01*
X108127188Y-96047978D01*
X108141132Y-96055592D01*
X108142965Y-96055461D01*
X108149580Y-96051210D01*
X109001080Y-95199710D01*
X109007840Y-95187330D01*
X109002113Y-95179680D01*
X108830958Y-95074795D01*
X108822163Y-95070313D01*
X108612012Y-94983266D01*
X108602627Y-94980217D01*
X108381446Y-94927115D01*
X108371699Y-94925572D01*
X108144930Y-94907725D01*
X108135070Y-94907725D01*
X107908301Y-94925572D01*
X107898554Y-94927115D01*
X107677373Y-94980217D01*
X107667988Y-94983266D01*
X107457837Y-95070313D01*
X107449042Y-95074795D01*
X107281555Y-95177432D01*
X107272093Y-95187890D01*
X96465926Y-95187890D01*
X95030419Y-93752383D01*
X95029490Y-93751445D01*
X95029384Y-93751337D01*
X94968329Y-93688989D01*
X94962407Y-93685172D01*
X94962404Y-93685170D01*
X94933178Y-93666335D01*
X94922839Y-93658907D01*
X94890150Y-93632812D01*
X94883808Y-93629746D01*
X94883803Y-93629743D01*
X94861110Y-93618773D01*
X94847698Y-93611247D01*
X94826500Y-93597586D01*
X94826495Y-93597584D01*
X94820576Y-93593769D01*
X94781281Y-93579467D01*
X94769537Y-93574506D01*
X94738244Y-93559378D01*
X94738242Y-93559377D01*
X94731895Y-93556309D01*
X94700456Y-93549051D01*
X94685720Y-93544685D01*
X94662020Y-93536059D01*
X94662016Y-93536058D01*
X94655400Y-93533650D01*
X94648414Y-93532767D01*
X94648412Y-93532767D01*
X94613921Y-93528410D01*
X94601369Y-93526175D01*
X94593741Y-93524414D01*
X94560623Y-93516768D01*
X94553583Y-93516743D01*
X94553580Y-93516743D01*
X94521296Y-93516630D01*
X94520459Y-93516602D01*
X94519646Y-93516500D01*
X94484054Y-93516500D01*
X94483614Y-93516499D01*
X94477859Y-93516479D01*
X94384847Y-93516154D01*
X94383679Y-93516415D01*
X94382111Y-93516500D01*
X84698953Y-93516500D01*
X84697633Y-93516493D01*
X84610322Y-93515578D01*
X84603437Y-93517067D01*
X84603434Y-93517067D01*
X84569455Y-93524414D01*
X84556872Y-93526475D01*
X84548385Y-93527427D01*
X84515318Y-93531136D01*
X84508663Y-93533454D01*
X84508657Y-93533455D01*
X84484854Y-93541744D01*
X84470045Y-93545907D01*
X84445399Y-93551236D01*
X84445395Y-93551237D01*
X84438514Y-93552725D01*
X84400605Y-93570402D01*
X84388829Y-93575184D01*
X84349319Y-93588943D01*
X84321963Y-93606037D01*
X84308444Y-93613377D01*
X84285585Y-93624036D01*
X84285582Y-93624038D01*
X84279206Y-93627011D01*
X84273646Y-93631324D01*
X84273644Y-93631325D01*
X84246165Y-93652640D01*
X84235717Y-93659929D01*
X84200251Y-93682091D01*
X84173404Y-93708750D01*
X84172328Y-93709819D01*
X84171736Y-93710373D01*
X84171087Y-93710877D01*
X84145935Y-93736029D01*
X84075525Y-93805949D01*
X84074884Y-93806959D01*
X84073826Y-93808138D01*
X82942383Y-94939581D01*
X82941445Y-94940510D01*
X82878989Y-95001671D01*
X82875172Y-95007593D01*
X82875170Y-95007596D01*
X82856335Y-95036822D01*
X82848907Y-95047161D01*
X82822812Y-95079850D01*
X82819746Y-95086192D01*
X82819743Y-95086197D01*
X82808773Y-95108890D01*
X82801247Y-95122302D01*
X82787586Y-95143500D01*
X82787584Y-95143505D01*
X82783769Y-95149424D01*
X82772757Y-95179680D01*
X82769469Y-95188715D01*
X82764506Y-95200463D01*
X82751469Y-95227432D01*
X82746309Y-95238105D01*
X82739051Y-95269544D01*
X82734685Y-95284280D01*
X82723650Y-95314600D01*
X82722767Y-95321586D01*
X82722767Y-95321588D01*
X82718410Y-95356079D01*
X82716175Y-95368631D01*
X82706768Y-95409377D01*
X82706743Y-95416417D01*
X82706743Y-95416420D01*
X82706630Y-95448704D01*
X82706602Y-95449541D01*
X82706500Y-95450354D01*
X82706500Y-95486100D01*
X82706154Y-95585153D01*
X82706415Y-95586321D01*
X82706500Y-95587889D01*
X82706500Y-99653274D01*
X82686498Y-99721395D01*
X82669595Y-99742369D01*
X81362369Y-101049595D01*
X81300057Y-101083621D01*
X81273274Y-101086500D01*
X80084362Y-101086500D01*
X80016241Y-101066498D01*
X79981148Y-101032769D01*
X79979358Y-101030213D01*
X79976198Y-101025700D01*
X79814300Y-100863802D01*
X79809792Y-100860645D01*
X79809789Y-100860643D01*
X79731611Y-100805902D01*
X79626749Y-100732477D01*
X79621767Y-100730154D01*
X79621762Y-100730151D01*
X79424225Y-100638039D01*
X79424224Y-100638039D01*
X79419243Y-100635716D01*
X79413935Y-100634294D01*
X79413933Y-100634293D01*
X79203402Y-100577881D01*
X79203400Y-100577881D01*
X79198087Y-100576457D01*
X79098520Y-100567746D01*
X79029851Y-100561738D01*
X79029844Y-100561738D01*
X79027127Y-100561500D01*
X76512873Y-100561500D01*
X76510156Y-100561738D01*
X76510149Y-100561738D01*
X76441480Y-100567746D01*
X76341913Y-100576457D01*
X76336600Y-100577881D01*
X76336598Y-100577881D01*
X76126067Y-100634293D01*
X76126065Y-100634294D01*
X76120757Y-100635716D01*
X76115776Y-100638039D01*
X76115775Y-100638039D01*
X75918238Y-100730151D01*
X75918233Y-100730154D01*
X75913251Y-100732477D01*
X75808389Y-100805902D01*
X75730211Y-100860643D01*
X75730208Y-100860645D01*
X75725700Y-100863802D01*
X75563802Y-101025700D01*
X75560645Y-101030208D01*
X75560643Y-101030211D01*
X75523245Y-101083621D01*
X75432477Y-101213251D01*
X75430154Y-101218233D01*
X75430151Y-101218238D01*
X75365272Y-101357373D01*
X75335716Y-101420757D01*
X75334294Y-101426065D01*
X75334293Y-101426067D01*
X75291429Y-101586037D01*
X75276457Y-101641913D01*
X75256502Y-101870000D01*
X75276457Y-102098087D01*
X75277881Y-102103400D01*
X75277881Y-102103402D01*
X75293856Y-102163019D01*
X75335716Y-102319243D01*
X75338039Y-102324224D01*
X75338039Y-102324225D01*
X75430151Y-102521762D01*
X75430154Y-102521767D01*
X75432477Y-102526749D01*
X75493782Y-102614301D01*
X75558249Y-102706369D01*
X75563802Y-102714300D01*
X75725700Y-102876198D01*
X75730208Y-102879355D01*
X75730211Y-102879357D01*
X75808389Y-102934098D01*
X75913251Y-103007523D01*
X75918233Y-103009846D01*
X75918238Y-103009849D01*
X76095700Y-103092600D01*
X76120757Y-103104284D01*
X76126065Y-103105706D01*
X76126067Y-103105707D01*
X76336598Y-103162119D01*
X76336600Y-103162119D01*
X76341913Y-103163543D01*
X76441480Y-103172254D01*
X76510149Y-103178262D01*
X76510156Y-103178262D01*
X76512873Y-103178500D01*
X76860500Y-103178500D01*
X76928621Y-103198502D01*
X76975114Y-103252158D01*
X76986500Y-103304500D01*
X76986500Y-104330776D01*
X76966498Y-104398897D01*
X76912842Y-104445390D01*
X76900376Y-104450299D01*
X76763009Y-104496128D01*
X76762997Y-104496134D01*
X76756054Y-104498450D01*
X76605652Y-104591522D01*
X76480695Y-104716697D01*
X76476855Y-104722927D01*
X76476854Y-104722928D01*
X76410636Y-104830354D01*
X76387885Y-104867262D01*
X76363164Y-104941793D01*
X76353753Y-104970167D01*
X76313322Y-105028527D01*
X76247758Y-105055764D01*
X76234160Y-105056500D01*
X74939001Y-105056500D01*
X74937681Y-105056493D01*
X74936635Y-105056482D01*
X74850322Y-105055578D01*
X74843440Y-105057066D01*
X74843439Y-105057066D01*
X74809445Y-105064415D01*
X74796867Y-105066475D01*
X74762312Y-105070351D01*
X74762308Y-105070352D01*
X74755318Y-105071136D01*
X74748672Y-105073451D01*
X74748670Y-105073451D01*
X74724860Y-105081743D01*
X74710046Y-105085907D01*
X74678514Y-105092724D01*
X74672127Y-105095702D01*
X74672128Y-105095702D01*
X74640610Y-105110398D01*
X74628801Y-105115193D01*
X74589319Y-105128943D01*
X74583342Y-105132678D01*
X74575860Y-105137353D01*
X74509089Y-105156500D01*
X73913498Y-105156500D01*
X73911050Y-105156693D01*
X73911042Y-105156693D01*
X73882579Y-105158933D01*
X73882574Y-105158934D01*
X73876169Y-105159438D01*
X73795697Y-105182817D01*
X73724012Y-105203643D01*
X73724010Y-105203644D01*
X73716399Y-105205855D01*
X73709572Y-105209892D01*
X73709573Y-105209892D01*
X73580020Y-105286509D01*
X73580017Y-105286511D01*
X73573193Y-105290547D01*
X73455547Y-105408193D01*
X73451511Y-105415017D01*
X73451509Y-105415020D01*
X73417246Y-105472956D01*
X73370855Y-105551399D01*
X73368644Y-105559010D01*
X73368643Y-105559012D01*
X73358491Y-105593956D01*
X73324438Y-105711169D01*
X73323934Y-105717574D01*
X73323933Y-105717579D01*
X73321763Y-105745155D01*
X73321500Y-105748498D01*
X73321500Y-106181502D01*
X73321693Y-106183950D01*
X73321693Y-106183958D01*
X73323757Y-106210176D01*
X73324438Y-106218831D01*
X73342811Y-106282072D01*
X73362000Y-106348120D01*
X73370855Y-106378601D01*
X73455547Y-106521807D01*
X73458229Y-106524489D01*
X73483502Y-106588861D01*
X73469600Y-106658484D01*
X73459428Y-106674312D01*
X73455547Y-106678193D01*
X73370855Y-106821399D01*
X73324438Y-106981169D01*
X73323934Y-106987574D01*
X73323933Y-106987579D01*
X73321693Y-107016042D01*
X73321500Y-107018498D01*
X73321500Y-107451502D01*
X73321693Y-107453950D01*
X73321693Y-107453958D01*
X73323794Y-107480643D01*
X73324438Y-107488831D01*
X73329441Y-107506051D01*
X73365556Y-107630360D01*
X73370855Y-107648601D01*
X73455547Y-107791807D01*
X73458229Y-107794489D01*
X73483502Y-107858861D01*
X73469600Y-107928484D01*
X73459428Y-107944312D01*
X73455547Y-107948193D01*
X73370855Y-108091399D01*
X73368644Y-108099010D01*
X73368643Y-108099012D01*
X73353472Y-108151231D01*
X73324438Y-108251169D01*
X73321500Y-108288498D01*
X73321500Y-108721502D01*
X73321693Y-108723950D01*
X73321693Y-108723958D01*
X73322413Y-108733100D01*
X73324438Y-108758831D01*
X73339988Y-108812354D01*
X73368586Y-108910790D01*
X73370855Y-108918601D01*
X73398945Y-108966098D01*
X73416404Y-109034911D01*
X73393888Y-109102243D01*
X73357262Y-109137088D01*
X73325251Y-109157091D01*
X73302723Y-109179462D01*
X73297328Y-109184819D01*
X73296736Y-109185373D01*
X73296087Y-109185877D01*
X73270935Y-109211029D01*
X73200525Y-109280949D01*
X73199884Y-109281959D01*
X73198826Y-109283138D01*
X72722383Y-109759581D01*
X72721445Y-109760510D01*
X72658989Y-109821671D01*
X72655172Y-109827593D01*
X72655170Y-109827596D01*
X72636335Y-109856822D01*
X72628907Y-109867161D01*
X72602812Y-109899850D01*
X72599746Y-109906192D01*
X72599743Y-109906197D01*
X72588773Y-109928890D01*
X72581247Y-109942302D01*
X72567586Y-109963500D01*
X72567584Y-109963505D01*
X72563769Y-109969424D01*
X72561360Y-109976044D01*
X72549469Y-110008715D01*
X72544506Y-110020463D01*
X72537475Y-110035008D01*
X72526309Y-110058105D01*
X72519051Y-110089544D01*
X72514685Y-110104280D01*
X72510407Y-110116036D01*
X72503650Y-110134600D01*
X72502767Y-110141586D01*
X72502767Y-110141588D01*
X72498410Y-110176079D01*
X72496175Y-110188631D01*
X72486768Y-110229377D01*
X72486743Y-110236417D01*
X72486743Y-110236420D01*
X72486630Y-110268704D01*
X72486602Y-110269541D01*
X72486500Y-110270354D01*
X72486500Y-110306100D01*
X72486154Y-110405153D01*
X72486415Y-110406321D01*
X72486500Y-110407889D01*
X72486500Y-115845545D01*
X72466498Y-115913666D01*
X72412842Y-115960159D01*
X72349519Y-115971066D01*
X72302825Y-115966981D01*
X72302824Y-115966981D01*
X72297349Y-115966502D01*
X72069262Y-115986457D01*
X72063949Y-115987881D01*
X72063947Y-115987881D01*
X71853416Y-116044293D01*
X71853414Y-116044294D01*
X71848106Y-116045716D01*
X71843125Y-116048039D01*
X71843124Y-116048039D01*
X71645587Y-116140151D01*
X71645582Y-116140154D01*
X71640600Y-116142477D01*
X71569300Y-116192402D01*
X71457560Y-116270643D01*
X71457557Y-116270645D01*
X71453049Y-116273802D01*
X71291151Y-116435700D01*
X71159826Y-116623251D01*
X71157502Y-116628235D01*
X71156178Y-116630528D01*
X71104796Y-116679521D01*
X71035082Y-116692957D01*
X70969171Y-116666571D01*
X70937940Y-116630528D01*
X70931283Y-116618998D01*
X70806321Y-116440533D01*
X70799265Y-116432125D01*
X70645224Y-116278084D01*
X70636816Y-116271028D01*
X70458356Y-116146069D01*
X70448860Y-116140586D01*
X70251402Y-116048510D01*
X70241110Y-116044764D01*
X70068846Y-115998606D01*
X70054750Y-115998942D01*
X70051349Y-116006884D01*
X70051349Y-120947967D01*
X69543349Y-120947967D01*
X69543349Y-118752115D01*
X69538874Y-118736876D01*
X69537484Y-118735671D01*
X69529801Y-118734000D01*
X68507464Y-118734000D01*
X68492225Y-118738475D01*
X68491020Y-118739865D01*
X68489349Y-118747548D01*
X68489349Y-119734365D01*
X66228500Y-119734365D01*
X66228500Y-118207885D01*
X68489349Y-118207885D01*
X68493824Y-118223124D01*
X68495214Y-118224329D01*
X68502897Y-118226000D01*
X69525234Y-118226000D01*
X69540473Y-118221525D01*
X69541678Y-118220135D01*
X69543349Y-118212452D01*
X69543349Y-116012033D01*
X69539376Y-115998502D01*
X69530827Y-115997273D01*
X69353588Y-116044764D01*
X69343296Y-116048510D01*
X69145838Y-116140586D01*
X69136342Y-116146069D01*
X68957882Y-116271028D01*
X68949474Y-116278084D01*
X68795433Y-116432125D01*
X68788377Y-116440533D01*
X68663418Y-116618993D01*
X68657935Y-116628489D01*
X68565859Y-116825947D01*
X68562113Y-116836239D01*
X68505724Y-117046688D01*
X68503821Y-117057481D01*
X68489587Y-117220170D01*
X68489349Y-117225635D01*
X68489349Y-118207885D01*
X66228500Y-118207885D01*
X66228500Y-109566058D01*
X66248502Y-109497937D01*
X66302158Y-109451444D01*
X66372432Y-109441340D01*
X66437012Y-109470834D01*
X66475396Y-109530560D01*
X66479715Y-109552013D01*
X66481136Y-109564682D01*
X66483454Y-109571337D01*
X66483455Y-109571343D01*
X66491744Y-109595146D01*
X66495907Y-109609955D01*
X66501236Y-109634601D01*
X66502725Y-109641486D01*
X66520402Y-109679395D01*
X66525184Y-109691171D01*
X66538943Y-109730681D01*
X66547662Y-109744634D01*
X66556037Y-109758037D01*
X66563377Y-109771556D01*
X66577011Y-109800794D01*
X66581324Y-109806354D01*
X66581325Y-109806356D01*
X66602640Y-109833835D01*
X66609929Y-109844283D01*
X66632091Y-109879749D01*
X66652052Y-109899850D01*
X66659819Y-109907672D01*
X66660373Y-109908264D01*
X66660877Y-109908913D01*
X66686029Y-109934065D01*
X66755949Y-110004475D01*
X66756959Y-110005116D01*
X66758138Y-110006174D01*
X67074581Y-110322617D01*
X67075510Y-110323555D01*
X67136671Y-110386011D01*
X67142593Y-110389828D01*
X67142596Y-110389830D01*
X67171822Y-110408665D01*
X67182161Y-110416093D01*
X67214850Y-110442188D01*
X67221192Y-110445254D01*
X67221197Y-110445257D01*
X67243890Y-110456227D01*
X67257302Y-110463753D01*
X67278500Y-110477414D01*
X67278505Y-110477416D01*
X67284424Y-110481231D01*
X67291040Y-110483639D01*
X67291044Y-110483641D01*
X67314165Y-110492055D01*
X67323716Y-110495532D01*
X67335460Y-110500493D01*
X67366761Y-110515625D01*
X67366764Y-110515626D01*
X67373104Y-110518691D01*
X67396742Y-110524148D01*
X67404538Y-110525948D01*
X67419290Y-110530318D01*
X67429805Y-110534145D01*
X67449600Y-110541350D01*
X67456590Y-110542233D01*
X67491078Y-110546590D01*
X67503629Y-110548825D01*
X67537515Y-110556648D01*
X67537517Y-110556648D01*
X67544377Y-110558232D01*
X67551417Y-110558257D01*
X67551420Y-110558257D01*
X67583704Y-110558370D01*
X67584541Y-110558398D01*
X67585354Y-110558500D01*
X67620946Y-110558500D01*
X67621387Y-110558501D01*
X67720152Y-110558846D01*
X67721320Y-110558585D01*
X67722888Y-110558500D01*
X68832299Y-110558500D01*
X68867449Y-110563503D01*
X68926169Y-110580562D01*
X68932579Y-110581067D01*
X68932582Y-110581067D01*
X68961042Y-110583307D01*
X68961050Y-110583307D01*
X68963498Y-110583500D01*
X70746502Y-110583500D01*
X70748950Y-110583307D01*
X70748958Y-110583307D01*
X70777421Y-110581067D01*
X70777426Y-110581066D01*
X70783831Y-110580562D01*
X70915762Y-110542233D01*
X70935988Y-110536357D01*
X70935990Y-110536356D01*
X70943601Y-110534145D01*
X71000370Y-110500572D01*
X71079980Y-110453491D01*
X71079983Y-110453489D01*
X71086807Y-110449453D01*
X71204453Y-110331807D01*
X71208489Y-110324983D01*
X71208491Y-110324980D01*
X71284375Y-110196666D01*
X71289145Y-110188601D01*
X71295065Y-110168226D01*
X71318629Y-110087114D01*
X71335562Y-110028831D01*
X71337146Y-110008715D01*
X71338307Y-109993958D01*
X71338307Y-109993950D01*
X71338500Y-109991502D01*
X71338500Y-109558498D01*
X71337180Y-109541722D01*
X71336067Y-109527579D01*
X71336066Y-109527574D01*
X71335562Y-109521169D01*
X71305277Y-109416927D01*
X71291357Y-109369012D01*
X71291356Y-109369010D01*
X71289145Y-109361399D01*
X71204453Y-109218193D01*
X71201513Y-109215253D01*
X71176180Y-109150734D01*
X71190079Y-109081111D01*
X71202126Y-109062364D01*
X71208090Y-109054676D01*
X71284648Y-108925221D01*
X71290893Y-108910790D01*
X71329939Y-108776395D01*
X71329899Y-108762294D01*
X71322630Y-108759000D01*
X68393122Y-108759000D01*
X68379591Y-108762973D01*
X68378456Y-108770871D01*
X68395735Y-108830347D01*
X68395532Y-108901343D01*
X68356978Y-108960960D01*
X68292314Y-108990268D01*
X68274738Y-108991500D01*
X68159500Y-108991500D01*
X68091379Y-108971498D01*
X68044886Y-108917842D01*
X68033500Y-108865500D01*
X68033500Y-102379377D01*
X68053502Y-102311256D01*
X68070405Y-102290282D01*
X68542325Y-101818362D01*
X68604637Y-101784336D01*
X68675452Y-101789401D01*
X68720515Y-101818362D01*
X68758351Y-101856198D01*
X68762859Y-101859355D01*
X68762862Y-101859357D01*
X68815538Y-101896241D01*
X68945902Y-101987523D01*
X68950884Y-101989846D01*
X68950889Y-101989849D01*
X69104431Y-102061446D01*
X69153408Y-102084284D01*
X69158716Y-102085706D01*
X69158718Y-102085707D01*
X69369249Y-102142119D01*
X69369251Y-102142119D01*
X69374564Y-102143543D01*
X69602651Y-102163498D01*
X69830738Y-102143543D01*
X69836051Y-102142119D01*
X69836053Y-102142119D01*
X70046584Y-102085707D01*
X70046586Y-102085706D01*
X70051894Y-102084284D01*
X70100871Y-102061446D01*
X70254413Y-101989849D01*
X70254418Y-101989846D01*
X70259400Y-101987523D01*
X70389764Y-101896241D01*
X70442440Y-101859357D01*
X70442443Y-101859355D01*
X70446951Y-101856198D01*
X70608849Y-101694300D01*
X70613892Y-101687099D01*
X70717260Y-101539473D01*
X70740174Y-101506749D01*
X70742497Y-101501767D01*
X70743533Y-101499973D01*
X70794917Y-101450981D01*
X70864630Y-101437546D01*
X70930541Y-101463934D01*
X70961769Y-101499973D01*
X70962805Y-101501767D01*
X70965128Y-101506749D01*
X70988042Y-101539473D01*
X71091411Y-101687099D01*
X71096453Y-101694300D01*
X71258351Y-101856198D01*
X71262864Y-101859358D01*
X71265420Y-101861148D01*
X71266282Y-101862227D01*
X71267075Y-101862892D01*
X71266941Y-101863051D01*
X71309749Y-101916604D01*
X71319151Y-101964362D01*
X71319151Y-105218701D01*
X71299149Y-105286822D01*
X71245493Y-105333315D01*
X71175219Y-105343419D01*
X71110639Y-105313925D01*
X71104056Y-105307796D01*
X71086807Y-105290547D01*
X71079983Y-105286511D01*
X71079980Y-105286509D01*
X70950427Y-105209892D01*
X70950428Y-105209892D01*
X70943601Y-105205855D01*
X70935990Y-105203644D01*
X70935988Y-105203643D01*
X70864303Y-105182817D01*
X70783831Y-105159438D01*
X70777426Y-105158934D01*
X70777421Y-105158933D01*
X70748958Y-105156693D01*
X70748950Y-105156693D01*
X70746502Y-105156500D01*
X68963498Y-105156500D01*
X68961050Y-105156693D01*
X68961042Y-105156693D01*
X68932579Y-105158933D01*
X68932574Y-105158934D01*
X68926169Y-105159438D01*
X68845697Y-105182817D01*
X68774012Y-105203643D01*
X68774010Y-105203644D01*
X68766399Y-105205855D01*
X68759572Y-105209892D01*
X68759573Y-105209892D01*
X68630020Y-105286509D01*
X68630017Y-105286511D01*
X68623193Y-105290547D01*
X68505547Y-105408193D01*
X68501511Y-105415017D01*
X68501509Y-105415020D01*
X68467246Y-105472956D01*
X68420855Y-105551399D01*
X68418644Y-105559010D01*
X68418643Y-105559012D01*
X68408491Y-105593956D01*
X68374438Y-105711169D01*
X68373934Y-105717574D01*
X68373933Y-105717579D01*
X68371763Y-105745155D01*
X68371500Y-105748498D01*
X68371500Y-106181502D01*
X68371693Y-106183950D01*
X68371693Y-106183958D01*
X68373757Y-106210176D01*
X68374438Y-106218831D01*
X68392811Y-106282072D01*
X68412000Y-106348120D01*
X68420855Y-106378601D01*
X68505547Y-106521807D01*
X68508229Y-106524489D01*
X68533502Y-106588861D01*
X68519600Y-106658484D01*
X68509428Y-106674312D01*
X68505547Y-106678193D01*
X68420855Y-106821399D01*
X68374438Y-106981169D01*
X68373934Y-106987574D01*
X68373933Y-106987579D01*
X68371693Y-107016042D01*
X68371500Y-107018498D01*
X68371500Y-107451502D01*
X68371693Y-107453950D01*
X68371693Y-107453958D01*
X68373794Y-107480643D01*
X68374438Y-107488831D01*
X68379441Y-107506051D01*
X68415556Y-107630360D01*
X68420855Y-107648601D01*
X68505547Y-107791807D01*
X68508487Y-107794747D01*
X68533820Y-107859266D01*
X68519921Y-107928889D01*
X68507874Y-107947636D01*
X68501910Y-107955324D01*
X68425352Y-108084779D01*
X68419107Y-108099210D01*
X68380061Y-108233605D01*
X68380101Y-108247706D01*
X68387370Y-108251000D01*
X71316878Y-108251000D01*
X71330409Y-108247027D01*
X71331544Y-108239130D01*
X71308728Y-108160598D01*
X71308930Y-108089602D01*
X71347484Y-108029985D01*
X71399134Y-108003925D01*
X71399682Y-108003864D01*
X71406335Y-108001547D01*
X71406340Y-108001546D01*
X71430146Y-107993256D01*
X71444955Y-107989093D01*
X71469601Y-107983764D01*
X71469605Y-107983763D01*
X71476486Y-107982275D01*
X71514395Y-107964598D01*
X71526171Y-107959816D01*
X71565681Y-107946057D01*
X71593039Y-107928962D01*
X71606556Y-107921623D01*
X71629415Y-107910964D01*
X71629418Y-107910962D01*
X71635794Y-107907989D01*
X71668834Y-107882360D01*
X71679283Y-107875071D01*
X71714749Y-107852909D01*
X71742672Y-107825181D01*
X71743264Y-107824627D01*
X71743913Y-107824123D01*
X71769065Y-107798971D01*
X71839475Y-107729051D01*
X71840116Y-107728041D01*
X71841174Y-107726862D01*
X72650268Y-106917768D01*
X72651206Y-106916839D01*
X72651314Y-106916733D01*
X72713662Y-106855678D01*
X72717479Y-106849756D01*
X72717481Y-106849753D01*
X72736316Y-106820527D01*
X72743744Y-106810188D01*
X72769839Y-106777499D01*
X72772905Y-106771157D01*
X72772908Y-106771152D01*
X72783878Y-106748459D01*
X72791404Y-106735047D01*
X72805065Y-106713849D01*
X72805067Y-106713844D01*
X72808882Y-106707925D01*
X72823184Y-106668630D01*
X72828145Y-106656886D01*
X72843275Y-106625589D01*
X72843276Y-106625586D01*
X72846342Y-106619244D01*
X72849318Y-106606356D01*
X72853599Y-106587810D01*
X72857966Y-106573067D01*
X72869001Y-106542749D01*
X72874242Y-106501261D01*
X72876479Y-106488706D01*
X72884299Y-106454837D01*
X72885884Y-106447972D01*
X72885912Y-106440100D01*
X72886021Y-106408634D01*
X72886049Y-106407803D01*
X72886151Y-106406995D01*
X72886151Y-106371411D01*
X72886497Y-106272196D01*
X72886236Y-106271028D01*
X72886151Y-106269459D01*
X72886151Y-101964362D01*
X72906153Y-101896241D01*
X72939882Y-101861148D01*
X72942438Y-101859358D01*
X72946951Y-101856198D01*
X73108849Y-101694300D01*
X73113892Y-101687099D01*
X73166798Y-101611541D01*
X73240174Y-101506749D01*
X73242497Y-101501767D01*
X73242500Y-101501762D01*
X73334612Y-101304225D01*
X73334612Y-101304224D01*
X73336935Y-101299243D01*
X73358641Y-101218238D01*
X73394770Y-101083402D01*
X73394770Y-101083400D01*
X73396194Y-101078087D01*
X73411151Y-100907127D01*
X73411151Y-98392873D01*
X73410614Y-98386726D01*
X73396673Y-98227393D01*
X73396194Y-98221913D01*
X73336935Y-98000757D01*
X73300879Y-97923434D01*
X73242500Y-97798238D01*
X73242497Y-97798233D01*
X73240174Y-97793251D01*
X73147730Y-97661227D01*
X73112008Y-97610211D01*
X73112006Y-97610208D01*
X73108849Y-97605700D01*
X72946951Y-97443802D01*
X72942443Y-97440645D01*
X72942440Y-97440643D01*
X72864262Y-97385902D01*
X72759400Y-97312477D01*
X72754418Y-97310154D01*
X72754413Y-97310151D01*
X72556876Y-97218039D01*
X72556875Y-97218039D01*
X72551894Y-97215716D01*
X72546586Y-97214294D01*
X72546584Y-97214293D01*
X72336053Y-97157881D01*
X72336051Y-97157881D01*
X72330738Y-97156457D01*
X72102651Y-97136502D01*
X71874564Y-97156457D01*
X71869251Y-97157881D01*
X71869249Y-97157881D01*
X71658718Y-97214293D01*
X71658716Y-97214294D01*
X71653408Y-97215716D01*
X71648427Y-97218039D01*
X71648426Y-97218039D01*
X71450889Y-97310151D01*
X71450884Y-97310154D01*
X71445902Y-97312477D01*
X71341040Y-97385902D01*
X71262862Y-97440643D01*
X71262859Y-97440645D01*
X71258351Y-97443802D01*
X71096453Y-97605700D01*
X71093296Y-97610208D01*
X71093294Y-97610211D01*
X71057572Y-97661227D01*
X70965128Y-97793251D01*
X70962805Y-97798233D01*
X70961769Y-97800027D01*
X70910385Y-97849019D01*
X70840672Y-97862454D01*
X70774761Y-97836066D01*
X70743533Y-97800027D01*
X70742497Y-97798233D01*
X70740174Y-97793251D01*
X70647730Y-97661227D01*
X70612008Y-97610211D01*
X70612006Y-97610208D01*
X70608849Y-97605700D01*
X70446951Y-97443802D01*
X70442443Y-97440645D01*
X70442440Y-97440643D01*
X70364262Y-97385902D01*
X70259400Y-97312477D01*
X70254418Y-97310154D01*
X70254413Y-97310151D01*
X70056876Y-97218039D01*
X70056875Y-97218039D01*
X70051894Y-97215716D01*
X70046586Y-97214294D01*
X70046584Y-97214293D01*
X69836053Y-97157881D01*
X69836051Y-97157881D01*
X69830738Y-97156457D01*
X69602651Y-97136502D01*
X69374564Y-97156457D01*
X69369251Y-97157881D01*
X69369249Y-97157881D01*
X69158718Y-97214293D01*
X69158716Y-97214294D01*
X69153408Y-97215716D01*
X69148427Y-97218039D01*
X69148426Y-97218039D01*
X68950889Y-97310151D01*
X68950884Y-97310154D01*
X68945902Y-97312477D01*
X68841040Y-97385902D01*
X68762862Y-97440643D01*
X68762859Y-97440645D01*
X68758351Y-97443802D01*
X68596453Y-97605700D01*
X68593296Y-97610208D01*
X68593294Y-97610211D01*
X68557572Y-97661227D01*
X68465128Y-97793251D01*
X68462805Y-97798233D01*
X68462802Y-97798238D01*
X68404423Y-97923434D01*
X68368367Y-98000757D01*
X68309108Y-98221913D01*
X68308629Y-98227393D01*
X68294689Y-98386726D01*
X68294151Y-98392873D01*
X68294151Y-99798274D01*
X68274149Y-99866395D01*
X68257246Y-99887369D01*
X66702383Y-101442232D01*
X66701445Y-101443161D01*
X66638989Y-101504322D01*
X66635172Y-101510244D01*
X66635170Y-101510247D01*
X66616335Y-101539473D01*
X66608907Y-101549812D01*
X66582812Y-101582501D01*
X66579746Y-101588843D01*
X66579743Y-101588848D01*
X66568773Y-101611541D01*
X66561247Y-101624953D01*
X66547586Y-101646151D01*
X66547584Y-101646156D01*
X66543769Y-101652075D01*
X66531327Y-101686261D01*
X66529469Y-101691366D01*
X66524506Y-101703114D01*
X66506309Y-101740756D01*
X66499051Y-101772193D01*
X66494685Y-101786931D01*
X66487313Y-101807188D01*
X66483650Y-101817251D01*
X66479506Y-101850058D01*
X66451125Y-101915131D01*
X66392065Y-101954533D01*
X66321079Y-101955750D01*
X66260704Y-101918395D01*
X66230108Y-101854329D01*
X66228500Y-101834263D01*
X66228500Y-93030500D01*
X66248502Y-92962379D01*
X66302158Y-92915886D01*
X66354500Y-92904500D01*
X114630500Y-92904500D01*
X114698621Y-92924502D01*
G37*
%TD.AperFunction*%
%TD*%
M02*
