%TF.GenerationSoftware,KiCad,Pcbnew,(6.0.7)*%
%TF.CreationDate,2022-09-22T21:01:38-04:00*%
%TF.ProjectId,Bitx40pa,42697478-3430-4706-912e-6b696361645f,rev?*%
%TF.SameCoordinates,Original*%
%TF.FileFunction,Drillmap*%
%TF.FilePolarity,Positive*%
%FSLAX45Y45*%
G04 Gerber Fmt 4.5, Leading zero omitted, Abs format (unit mm)*
G04 Created by KiCad (PCBNEW (6.0.7)) date 2022-09-22 21:01:38*
%MOMM*%
%LPD*%
G01*
G04 APERTURE LIST*
%ADD10C,0.100000*%
%ADD11C,0.200000*%
%ADD12C,0.040000*%
%ADD13C,0.070000*%
%ADD14C,0.075000*%
%ADD15C,0.080000*%
%ADD16C,0.110000*%
%ADD17C,0.120000*%
G04 APERTURE END LIST*
D10*
X2400300Y-1524000D02*
X12420600Y-1524000D01*
X12420600Y-1524000D02*
X12420600Y-11557000D01*
X12420600Y-11557000D02*
X2400300Y-11557000D01*
X2400300Y-11557000D02*
X2400300Y-1524000D01*
D11*
D12*
X9505000Y-10521000D02*
X9545000Y-10561000D01*
X9545000Y-10521000D02*
X9505000Y-10561000D01*
X10165400Y-8844600D02*
X10205400Y-8884600D01*
X10205400Y-8844600D02*
X10165400Y-8884600D01*
D13*
X7680400Y-7239000D02*
G75*
G03*
X7680400Y-7239000I-35000J0D01*
G01*
X7934400Y-7493000D02*
G75*
G03*
X7934400Y-7493000I-35000J0D01*
G01*
X8188400Y-7239000D02*
G75*
G03*
X8188400Y-7239000I-35000J0D01*
G01*
D14*
X8189400Y-3620100D02*
X8189400Y-3695100D01*
X8151900Y-3657600D02*
X8226900Y-3657600D01*
X8189400Y-3747100D02*
X8189400Y-3822100D01*
X8151900Y-3784600D02*
X8226900Y-3784600D01*
X8189400Y-3874100D02*
X8189400Y-3949100D01*
X8151900Y-3911600D02*
X8226900Y-3911600D01*
D15*
X4525085Y-7953084D02*
X4525085Y-7896515D01*
X4468516Y-7896515D01*
X4468516Y-7953084D01*
X4525085Y-7953084D01*
X4727285Y-3203284D02*
X4727285Y-3146715D01*
X4670716Y-3146715D01*
X4670716Y-3203284D01*
X4727285Y-3203284D01*
X4727285Y-3457284D02*
X4727285Y-3400715D01*
X4670716Y-3400715D01*
X4670716Y-3457284D01*
X4727285Y-3457284D01*
X4727285Y-3711284D02*
X4727285Y-3654715D01*
X4670716Y-3654715D01*
X4670716Y-3711284D01*
X4727285Y-3711284D01*
X4727285Y-3965284D02*
X4727285Y-3908715D01*
X4670716Y-3908715D01*
X4670716Y-3965284D01*
X4727285Y-3965284D01*
X4779085Y-7953084D02*
X4779085Y-7896515D01*
X4722516Y-7896515D01*
X4722516Y-7953084D01*
X4779085Y-7953084D01*
X5033085Y-7953084D02*
X5033085Y-7896515D01*
X4976516Y-7896515D01*
X4976516Y-7953084D01*
X5033085Y-7953084D01*
X5489285Y-3203284D02*
X5489285Y-3146715D01*
X5432716Y-3146715D01*
X5432716Y-3203284D01*
X5489285Y-3203284D01*
X5489285Y-3457284D02*
X5489285Y-3400715D01*
X5432716Y-3400715D01*
X5432716Y-3457284D01*
X5489285Y-3457284D01*
X5489285Y-3711284D02*
X5489285Y-3654715D01*
X5432716Y-3654715D01*
X5432716Y-3711284D01*
X5489285Y-3711284D01*
X5489285Y-3965284D02*
X5489285Y-3908715D01*
X5432716Y-3908715D01*
X5432716Y-3965284D01*
X5489285Y-3965284D01*
X5540085Y-4676485D02*
X5540085Y-4619916D01*
X5483516Y-4619916D01*
X5483516Y-4676485D01*
X5540085Y-4676485D01*
X5668084Y-7750884D02*
X5668084Y-7694315D01*
X5611515Y-7694315D01*
X5611515Y-7750884D01*
X5668084Y-7750884D01*
X5668084Y-8004884D02*
X5668084Y-7948315D01*
X5611515Y-7948315D01*
X5611515Y-8004884D01*
X5668084Y-8004884D01*
X5668084Y-8258884D02*
X5668084Y-8202315D01*
X5611515Y-8202315D01*
X5611515Y-8258884D01*
X5668084Y-8258884D01*
X5668084Y-8512885D02*
X5668084Y-8456316D01*
X5611515Y-8456316D01*
X5611515Y-8512885D01*
X5668084Y-8512885D01*
X5790084Y-4676485D02*
X5790084Y-4619916D01*
X5733515Y-4619916D01*
X5733515Y-4676485D01*
X5790084Y-4676485D01*
X6022684Y-3432884D02*
X6022684Y-3376315D01*
X5966115Y-3376315D01*
X5966115Y-3432884D01*
X6022684Y-3432884D01*
X6022684Y-3686884D02*
X6022684Y-3630315D01*
X5966115Y-3630315D01*
X5966115Y-3686884D01*
X6022684Y-3686884D01*
X6022684Y-3940884D02*
X6022684Y-3884315D01*
X5966115Y-3884315D01*
X5966115Y-3940884D01*
X6022684Y-3940884D01*
X6430084Y-7750884D02*
X6430084Y-7694315D01*
X6373515Y-7694315D01*
X6373515Y-7750884D01*
X6430084Y-7750884D01*
X6430084Y-8004884D02*
X6430084Y-7948315D01*
X6373515Y-7948315D01*
X6373515Y-8004884D01*
X6430084Y-8004884D01*
X6430084Y-8258884D02*
X6430084Y-8202315D01*
X6373515Y-8202315D01*
X6373515Y-8258884D01*
X6430084Y-8258884D01*
X6430084Y-8512885D02*
X6430084Y-8456316D01*
X6373515Y-8456316D01*
X6373515Y-8512885D01*
X6430084Y-8512885D01*
X6712484Y-6479884D02*
X6712484Y-6423315D01*
X6655915Y-6423315D01*
X6655915Y-6479884D01*
X6712484Y-6479884D01*
X6911684Y-1950954D02*
X6911684Y-1894385D01*
X6855115Y-1894385D01*
X6855115Y-1950954D01*
X6911684Y-1950954D01*
X6911684Y-2200955D02*
X6911684Y-2144386D01*
X6855115Y-2144386D01*
X6855115Y-2200955D01*
X6911684Y-2200955D01*
X6962484Y-6479884D02*
X6962484Y-6423315D01*
X6905915Y-6423315D01*
X6905915Y-6479884D01*
X6962484Y-6479884D01*
X7114884Y-8256884D02*
X7114884Y-8200315D01*
X7058315Y-8200315D01*
X7058315Y-8256884D01*
X7114884Y-8256884D01*
X7114884Y-8510885D02*
X7114884Y-8454316D01*
X7058315Y-8454316D01*
X7058315Y-8510885D01*
X7114884Y-8510885D01*
X7114884Y-8764885D02*
X7114884Y-8708316D01*
X7058315Y-8708316D01*
X7058315Y-8764885D01*
X7114884Y-8764885D01*
X8105484Y-1962684D02*
X8105484Y-1906115D01*
X8048915Y-1906115D01*
X8048915Y-1962684D01*
X8105484Y-1962684D01*
X8105484Y-2212685D02*
X8105484Y-2156116D01*
X8048915Y-2156116D01*
X8048915Y-2212685D01*
X8105484Y-2212685D01*
X8182684Y-5819484D02*
X8182684Y-5762915D01*
X8126115Y-5762915D01*
X8126115Y-5819484D01*
X8182684Y-5819484D01*
X8436685Y-5819484D02*
X8436685Y-5762915D01*
X8380115Y-5762915D01*
X8380115Y-5819484D01*
X8436685Y-5819484D01*
X8690685Y-5819484D02*
X8690685Y-5762915D01*
X8634116Y-5762915D01*
X8634116Y-5819484D01*
X8690685Y-5819484D01*
X10696285Y-7601484D02*
X10696285Y-7544915D01*
X10639716Y-7544915D01*
X10639716Y-7601484D01*
X10696285Y-7601484D01*
X10696285Y-7851484D02*
X10696285Y-7794915D01*
X10639716Y-7794915D01*
X10639716Y-7851484D01*
X10696285Y-7851484D01*
X11153485Y-3648484D02*
X11153485Y-3591915D01*
X11096916Y-3591915D01*
X11096916Y-3648484D01*
X11153485Y-3648484D01*
X11407484Y-3648484D02*
X11407484Y-3591915D01*
X11350915Y-3591915D01*
X11350915Y-3648484D01*
X11407484Y-3648484D01*
X11661484Y-3648484D02*
X11661484Y-3591915D01*
X11604915Y-3591915D01*
X11604915Y-3648484D01*
X11661484Y-3648484D01*
X11679154Y-5235285D02*
X11679154Y-5178716D01*
X11622585Y-5178716D01*
X11622585Y-5235285D01*
X11679154Y-5235285D01*
X11686884Y-2750085D02*
X11686884Y-2693516D01*
X11630315Y-2693516D01*
X11630315Y-2750085D01*
X11686884Y-2750085D01*
X11686884Y-3000084D02*
X11686884Y-2943515D01*
X11630315Y-2943515D01*
X11630315Y-3000084D01*
X11686884Y-3000084D01*
X11929154Y-5235285D02*
X11929154Y-5178716D01*
X11872585Y-5178716D01*
X11872585Y-5235285D01*
X11929154Y-5235285D01*
D10*
X2946400Y-8000200D02*
X2996400Y-7950200D01*
X2946400Y-7900200D01*
X2896400Y-7950200D01*
X2946400Y-8000200D01*
X2951000Y-4698200D02*
X3001000Y-4648200D01*
X2951000Y-4598200D01*
X2901000Y-4648200D01*
X2951000Y-4698200D01*
X3073400Y-3173700D02*
X3123400Y-3123700D01*
X3073400Y-3073700D01*
X3023400Y-3123700D01*
X3073400Y-3173700D01*
X3073400Y-3427700D02*
X3123400Y-3377700D01*
X3073400Y-3327700D01*
X3023400Y-3377700D01*
X3073400Y-3427700D01*
X3200400Y-8000200D02*
X3250400Y-7950200D01*
X3200400Y-7900200D01*
X3150400Y-7950200D01*
X3200400Y-8000200D01*
X3205000Y-4698200D02*
X3255000Y-4648200D01*
X3205000Y-4598200D01*
X3155000Y-4648200D01*
X3205000Y-4698200D01*
X3454400Y-8000200D02*
X3504400Y-7950200D01*
X3454400Y-7900200D01*
X3404400Y-7950200D01*
X3454400Y-8000200D01*
X3459000Y-4698200D02*
X3509000Y-4648200D01*
X3459000Y-4598200D01*
X3409000Y-4648200D01*
X3459000Y-4698200D01*
X3708400Y-8000200D02*
X3758400Y-7950200D01*
X3708400Y-7900200D01*
X3658400Y-7950200D01*
X3708400Y-8000200D01*
X3713000Y-4698200D02*
X3763000Y-4648200D01*
X3713000Y-4598200D01*
X3663000Y-4648200D01*
X3713000Y-4698200D01*
X4876800Y-10540200D02*
X4926800Y-10490200D01*
X4876800Y-10440200D01*
X4826800Y-10490200D01*
X4876800Y-10540200D01*
X4876800Y-10794200D02*
X4926800Y-10744200D01*
X4876800Y-10694200D01*
X4826800Y-10744200D01*
X4876800Y-10794200D01*
X5537200Y-9981400D02*
X5587200Y-9931400D01*
X5537200Y-9881400D01*
X5487200Y-9931400D01*
X5537200Y-9981400D01*
X5537200Y-10235400D02*
X5587200Y-10185400D01*
X5537200Y-10135400D01*
X5487200Y-10185400D01*
X5537200Y-10235400D01*
X5537200Y-10489400D02*
X5587200Y-10439400D01*
X5537200Y-10389400D01*
X5487200Y-10439400D01*
X5537200Y-10489400D01*
X5537200Y-10743400D02*
X5587200Y-10693400D01*
X5537200Y-10643400D01*
X5487200Y-10693400D01*
X5537200Y-10743400D01*
X6578600Y-4037300D02*
X6628600Y-3987300D01*
X6578600Y-3937300D01*
X6528600Y-3987300D01*
X6578600Y-4037300D01*
X6578600Y-4291300D02*
X6628600Y-4241300D01*
X6578600Y-4191300D01*
X6528600Y-4241300D01*
X6578600Y-4291300D01*
X8839200Y-9986000D02*
X8889200Y-9936000D01*
X8839200Y-9886000D01*
X8789200Y-9936000D01*
X8839200Y-9986000D01*
X8839200Y-10240000D02*
X8889200Y-10190000D01*
X8839200Y-10140000D01*
X8789200Y-10190000D01*
X8839200Y-10240000D01*
X8839200Y-10494000D02*
X8889200Y-10444000D01*
X8839200Y-10394000D01*
X8789200Y-10444000D01*
X8839200Y-10494000D01*
X8839200Y-10748000D02*
X8889200Y-10698000D01*
X8839200Y-10648000D01*
X8789200Y-10698000D01*
X8839200Y-10748000D01*
X9247100Y-2031200D02*
X9297100Y-1981200D01*
X9247100Y-1931200D01*
X9197100Y-1981200D01*
X9247100Y-2031200D01*
X9501100Y-2031200D02*
X9551100Y-1981200D01*
X9501100Y-1931200D01*
X9451100Y-1981200D01*
X9501100Y-2031200D01*
X9755100Y-2031200D02*
X9805100Y-1981200D01*
X9755100Y-1931200D01*
X9705100Y-1981200D01*
X9755100Y-2031200D01*
X11226300Y-10210000D02*
X11276300Y-10160000D01*
X11226300Y-10110000D01*
X11176300Y-10160000D01*
X11226300Y-10210000D01*
X11480300Y-10210000D02*
X11530300Y-10160000D01*
X11480300Y-10110000D01*
X11430300Y-10160000D01*
X11480300Y-10210000D01*
D16*
X6955400Y-2644500D02*
X7065400Y-2754500D01*
X7065400Y-2644500D02*
X6955400Y-2754500D01*
X7065400Y-2699500D02*
G75*
G03*
X7065400Y-2699500I-55000J0D01*
G01*
X7209400Y-2644500D02*
X7319400Y-2754500D01*
X7319400Y-2644500D02*
X7209400Y-2754500D01*
X7319400Y-2699500D02*
G75*
G03*
X7319400Y-2699500I-55000J0D01*
G01*
X7463400Y-2644500D02*
X7573400Y-2754500D01*
X7573400Y-2644500D02*
X7463400Y-2754500D01*
X7573400Y-2699500D02*
G75*
G03*
X7573400Y-2699500I-55000J0D01*
G01*
X8428600Y-2561200D02*
X8538600Y-2671200D01*
X8538600Y-2561200D02*
X8428600Y-2671200D01*
X8538600Y-2616200D02*
G75*
G03*
X8538600Y-2616200I-55000J0D01*
G01*
X9444600Y-2561200D02*
X9554600Y-2671200D01*
X9554600Y-2561200D02*
X9444600Y-2671200D01*
X9554600Y-2616200D02*
G75*
G03*
X9554600Y-2616200I-55000J0D01*
G01*
X10917800Y-2027800D02*
X11027800Y-2137800D01*
X11027800Y-2027800D02*
X10917800Y-2137800D01*
X11027800Y-2082800D02*
G75*
G03*
X11027800Y-2082800I-55000J0D01*
G01*
X10917800Y-3043800D02*
X11027800Y-3153800D01*
X11027800Y-3043800D02*
X10917800Y-3153800D01*
X11027800Y-3098800D02*
G75*
G03*
X11027800Y-3098800I-55000J0D01*
G01*
X11171800Y-11044800D02*
X11281800Y-11154800D01*
X11281800Y-11044800D02*
X11171800Y-11154800D01*
X11281800Y-11099800D02*
G75*
G03*
X11281800Y-11099800I-55000J0D01*
G01*
X11425800Y-11044800D02*
X11535800Y-11154800D01*
X11535800Y-11044800D02*
X11425800Y-11154800D01*
X11535800Y-11099800D02*
G75*
G03*
X11535800Y-11099800I-55000J0D01*
G01*
X11679800Y-11044800D02*
X11789800Y-11154800D01*
X11789800Y-11044800D02*
X11679800Y-11154800D01*
X11789800Y-11099800D02*
G75*
G03*
X11789800Y-11099800I-55000J0D01*
G01*
D17*
X5656400Y-5235900D02*
X5776400Y-5355900D01*
X5776400Y-5235900D02*
X5656400Y-5355900D01*
X5716400Y-5235900D02*
X5716400Y-5355900D01*
X5656400Y-5295900D02*
X5776400Y-5295900D01*
X5986600Y-5667700D02*
X6106600Y-5787700D01*
X6106600Y-5667700D02*
X5986600Y-5787700D01*
X6046600Y-5667700D02*
X6046600Y-5787700D01*
X5986600Y-5727700D02*
X6106600Y-5727700D01*
X6012000Y-6201100D02*
X6132000Y-6321100D01*
X6132000Y-6201100D02*
X6012000Y-6321100D01*
X6072000Y-6201100D02*
X6072000Y-6321100D01*
X6012000Y-6261100D02*
X6132000Y-6261100D01*
X8936400Y-3836600D02*
X9056400Y-3956600D01*
X9056400Y-3836600D02*
X8936400Y-3956600D01*
X8996400Y-3836600D02*
X8996400Y-3956600D01*
X8936400Y-3896600D02*
X9056400Y-3896600D01*
X8936400Y-5136600D02*
X9056400Y-5256600D01*
X9056400Y-5136600D02*
X8936400Y-5256600D01*
X8996400Y-5136600D02*
X8996400Y-5256600D01*
X8936400Y-5196600D02*
X9056400Y-5196600D01*
X9007800Y-7077400D02*
X9127800Y-7197400D01*
X9127800Y-7077400D02*
X9007800Y-7197400D01*
X9067800Y-7077400D02*
X9067800Y-7197400D01*
X9007800Y-7137400D02*
X9127800Y-7137400D01*
X9007800Y-8377400D02*
X9127800Y-8497400D01*
X9127800Y-8377400D02*
X9007800Y-8497400D01*
X9067800Y-8377400D02*
X9067800Y-8497400D01*
X9007800Y-8437400D02*
X9127800Y-8437400D01*
X9536400Y-3836600D02*
X9656400Y-3956600D01*
X9656400Y-3836600D02*
X9536400Y-3956600D01*
X9596400Y-3836600D02*
X9596400Y-3956600D01*
X9536400Y-3896600D02*
X9656400Y-3896600D01*
X9536400Y-5136600D02*
X9656400Y-5256600D01*
X9656400Y-5136600D02*
X9536400Y-5256600D01*
X9596400Y-5136600D02*
X9596400Y-5256600D01*
X9536400Y-5196600D02*
X9656400Y-5196600D01*
X9607800Y-7077400D02*
X9727800Y-7197400D01*
X9727800Y-7077400D02*
X9607800Y-7197400D01*
X9667800Y-7077400D02*
X9667800Y-7197400D01*
X9607800Y-7137400D02*
X9727800Y-7137400D01*
X9607800Y-8377400D02*
X9727800Y-8497400D01*
X9727800Y-8377400D02*
X9607800Y-8497400D01*
X9667800Y-8377400D02*
X9667800Y-8497400D01*
X9607800Y-8437400D02*
X9727800Y-8437400D01*
X11243000Y-8423600D02*
X11363000Y-8543600D01*
X11363000Y-8423600D02*
X11243000Y-8543600D01*
X11303000Y-8423600D02*
X11303000Y-8543600D01*
X11243000Y-8483600D02*
X11363000Y-8483600D01*
X11243000Y-9723600D02*
X11363000Y-9843600D01*
X11363000Y-9723600D02*
X11243000Y-9843600D01*
X11303000Y-9723600D02*
X11303000Y-9843600D01*
X11243000Y-9783600D02*
X11363000Y-9783600D01*
X11674800Y-6124200D02*
X11794800Y-6244200D01*
X11794800Y-6124200D02*
X11674800Y-6244200D01*
X11734800Y-6124200D02*
X11734800Y-6244200D01*
X11674800Y-6184200D02*
X11794800Y-6184200D01*
X11674800Y-7624200D02*
X11794800Y-7744200D01*
X11794800Y-7624200D02*
X11674800Y-7744200D01*
X11734800Y-7624200D02*
X11734800Y-7744200D01*
X11674800Y-7684200D02*
X11794800Y-7684200D01*
X11843000Y-8423600D02*
X11963000Y-8543600D01*
X11963000Y-8423600D02*
X11843000Y-8543600D01*
X11903000Y-8423600D02*
X11903000Y-8543600D01*
X11843000Y-8483600D02*
X11963000Y-8483600D01*
X11843000Y-9723600D02*
X11963000Y-9843600D01*
X11963000Y-9723600D02*
X11843000Y-9843600D01*
X11903000Y-9723600D02*
X11903000Y-9843600D01*
X11843000Y-9783600D02*
X11963000Y-9783600D01*
D11*
X2652919Y-11872476D02*
X2652919Y-11672476D01*
X2700538Y-11672476D01*
X2729110Y-11682000D01*
X2748157Y-11701048D01*
X2757681Y-11720095D01*
X2767205Y-11758190D01*
X2767205Y-11786762D01*
X2757681Y-11824857D01*
X2748157Y-11843905D01*
X2729110Y-11862952D01*
X2700538Y-11872476D01*
X2652919Y-11872476D01*
X2852919Y-11872476D02*
X2852919Y-11739143D01*
X2852919Y-11777238D02*
X2862443Y-11758190D01*
X2871967Y-11748667D01*
X2891014Y-11739143D01*
X2910062Y-11739143D01*
X2976728Y-11872476D02*
X2976728Y-11739143D01*
X2976728Y-11672476D02*
X2967205Y-11682000D01*
X2976728Y-11691524D01*
X2986252Y-11682000D01*
X2976728Y-11672476D01*
X2976728Y-11691524D01*
X3100538Y-11872476D02*
X3081490Y-11862952D01*
X3071967Y-11843905D01*
X3071967Y-11672476D01*
X3205300Y-11872476D02*
X3186252Y-11862952D01*
X3176728Y-11843905D01*
X3176728Y-11672476D01*
X3433871Y-11872476D02*
X3433871Y-11672476D01*
X3500538Y-11815333D01*
X3567205Y-11672476D01*
X3567205Y-11872476D01*
X3748157Y-11872476D02*
X3748157Y-11767714D01*
X3738633Y-11748667D01*
X3719586Y-11739143D01*
X3681490Y-11739143D01*
X3662443Y-11748667D01*
X3748157Y-11862952D02*
X3729109Y-11872476D01*
X3681490Y-11872476D01*
X3662443Y-11862952D01*
X3652919Y-11843905D01*
X3652919Y-11824857D01*
X3662443Y-11805809D01*
X3681490Y-11796286D01*
X3729109Y-11796286D01*
X3748157Y-11786762D01*
X3843395Y-11739143D02*
X3843395Y-11939143D01*
X3843395Y-11748667D02*
X3862443Y-11739143D01*
X3900538Y-11739143D01*
X3919586Y-11748667D01*
X3929109Y-11758190D01*
X3938633Y-11777238D01*
X3938633Y-11834381D01*
X3929109Y-11853428D01*
X3919586Y-11862952D01*
X3900538Y-11872476D01*
X3862443Y-11872476D01*
X3843395Y-11862952D01*
X4024348Y-11853428D02*
X4033871Y-11862952D01*
X4024348Y-11872476D01*
X4014824Y-11862952D01*
X4024348Y-11853428D01*
X4024348Y-11872476D01*
X4024348Y-11748667D02*
X4033871Y-11758190D01*
X4024348Y-11767714D01*
X4014824Y-11758190D01*
X4024348Y-11748667D01*
X4024348Y-11767714D01*
D12*
X2355300Y-12182000D02*
X2395300Y-12222000D01*
X2395300Y-12182000D02*
X2355300Y-12222000D01*
D11*
X2691014Y-12092476D02*
X2710062Y-12092476D01*
X2729110Y-12102000D01*
X2738633Y-12111524D01*
X2748157Y-12130571D01*
X2757681Y-12168667D01*
X2757681Y-12216286D01*
X2748157Y-12254381D01*
X2738633Y-12273428D01*
X2729110Y-12282952D01*
X2710062Y-12292476D01*
X2691014Y-12292476D01*
X2671967Y-12282952D01*
X2662443Y-12273428D01*
X2652919Y-12254381D01*
X2643395Y-12216286D01*
X2643395Y-12168667D01*
X2652919Y-12130571D01*
X2662443Y-12111524D01*
X2671967Y-12102000D01*
X2691014Y-12092476D01*
X2843395Y-12273428D02*
X2852919Y-12282952D01*
X2843395Y-12292476D01*
X2833871Y-12282952D01*
X2843395Y-12273428D01*
X2843395Y-12292476D01*
X3024348Y-12159143D02*
X3024348Y-12292476D01*
X2976728Y-12082952D02*
X2929109Y-12225809D01*
X3052919Y-12225809D01*
X3167205Y-12092476D02*
X3186252Y-12092476D01*
X3205300Y-12102000D01*
X3214824Y-12111524D01*
X3224348Y-12130571D01*
X3233871Y-12168667D01*
X3233871Y-12216286D01*
X3224348Y-12254381D01*
X3214824Y-12273428D01*
X3205300Y-12282952D01*
X3186252Y-12292476D01*
X3167205Y-12292476D01*
X3148157Y-12282952D01*
X3138633Y-12273428D01*
X3129109Y-12254381D01*
X3119586Y-12216286D01*
X3119586Y-12168667D01*
X3129109Y-12130571D01*
X3138633Y-12111524D01*
X3148157Y-12102000D01*
X3167205Y-12092476D01*
X3357681Y-12092476D02*
X3376728Y-12092476D01*
X3395776Y-12102000D01*
X3405300Y-12111524D01*
X3414824Y-12130571D01*
X3424348Y-12168667D01*
X3424348Y-12216286D01*
X3414824Y-12254381D01*
X3405300Y-12273428D01*
X3395776Y-12282952D01*
X3376728Y-12292476D01*
X3357681Y-12292476D01*
X3338633Y-12282952D01*
X3329109Y-12273428D01*
X3319586Y-12254381D01*
X3310062Y-12216286D01*
X3310062Y-12168667D01*
X3319586Y-12130571D01*
X3329109Y-12111524D01*
X3338633Y-12102000D01*
X3357681Y-12092476D01*
X3510062Y-12292476D02*
X3510062Y-12159143D01*
X3510062Y-12178190D02*
X3519586Y-12168667D01*
X3538633Y-12159143D01*
X3567205Y-12159143D01*
X3586252Y-12168667D01*
X3595776Y-12187714D01*
X3595776Y-12292476D01*
X3595776Y-12187714D02*
X3605300Y-12168667D01*
X3624348Y-12159143D01*
X3652919Y-12159143D01*
X3671967Y-12168667D01*
X3681490Y-12187714D01*
X3681490Y-12292476D01*
X3776728Y-12292476D02*
X3776728Y-12159143D01*
X3776728Y-12178190D02*
X3786252Y-12168667D01*
X3805300Y-12159143D01*
X3833871Y-12159143D01*
X3852919Y-12168667D01*
X3862443Y-12187714D01*
X3862443Y-12292476D01*
X3862443Y-12187714D02*
X3871967Y-12168667D01*
X3891014Y-12159143D01*
X3919586Y-12159143D01*
X3938633Y-12168667D01*
X3948157Y-12187714D01*
X3948157Y-12292476D01*
X4338633Y-12082952D02*
X4167205Y-12340095D01*
X4595776Y-12092476D02*
X4614824Y-12092476D01*
X4633871Y-12102000D01*
X4643395Y-12111524D01*
X4652919Y-12130571D01*
X4662443Y-12168667D01*
X4662443Y-12216286D01*
X4652919Y-12254381D01*
X4643395Y-12273428D01*
X4633871Y-12282952D01*
X4614824Y-12292476D01*
X4595776Y-12292476D01*
X4576729Y-12282952D01*
X4567205Y-12273428D01*
X4557681Y-12254381D01*
X4548157Y-12216286D01*
X4548157Y-12168667D01*
X4557681Y-12130571D01*
X4567205Y-12111524D01*
X4576729Y-12102000D01*
X4595776Y-12092476D01*
X4748157Y-12273428D02*
X4757681Y-12282952D01*
X4748157Y-12292476D01*
X4738633Y-12282952D01*
X4748157Y-12273428D01*
X4748157Y-12292476D01*
X4881490Y-12092476D02*
X4900538Y-12092476D01*
X4919586Y-12102000D01*
X4929110Y-12111524D01*
X4938633Y-12130571D01*
X4948157Y-12168667D01*
X4948157Y-12216286D01*
X4938633Y-12254381D01*
X4929110Y-12273428D01*
X4919586Y-12282952D01*
X4900538Y-12292476D01*
X4881490Y-12292476D01*
X4862443Y-12282952D01*
X4852919Y-12273428D01*
X4843395Y-12254381D01*
X4833871Y-12216286D01*
X4833871Y-12168667D01*
X4843395Y-12130571D01*
X4852919Y-12111524D01*
X4862443Y-12102000D01*
X4881490Y-12092476D01*
X5138633Y-12292476D02*
X5024348Y-12292476D01*
X5081490Y-12292476D02*
X5081490Y-12092476D01*
X5062443Y-12121048D01*
X5043395Y-12140095D01*
X5024348Y-12149619D01*
X5319586Y-12092476D02*
X5224348Y-12092476D01*
X5214824Y-12187714D01*
X5224348Y-12178190D01*
X5243395Y-12168667D01*
X5291014Y-12168667D01*
X5310062Y-12178190D01*
X5319586Y-12187714D01*
X5329110Y-12206762D01*
X5329110Y-12254381D01*
X5319586Y-12273428D01*
X5310062Y-12282952D01*
X5291014Y-12292476D01*
X5243395Y-12292476D01*
X5224348Y-12282952D01*
X5214824Y-12273428D01*
X5395776Y-12092476D02*
X5529110Y-12092476D01*
X5443395Y-12292476D01*
X5595776Y-12092476D02*
X5595776Y-12130571D01*
X5671967Y-12092476D02*
X5671967Y-12130571D01*
X5967205Y-12368667D02*
X5957681Y-12359143D01*
X5938633Y-12330571D01*
X5929109Y-12311524D01*
X5919586Y-12282952D01*
X5910062Y-12235333D01*
X5910062Y-12197238D01*
X5919586Y-12149619D01*
X5929109Y-12121048D01*
X5938633Y-12102000D01*
X5957681Y-12073428D01*
X5967205Y-12063905D01*
X6033871Y-12111524D02*
X6043395Y-12102000D01*
X6062443Y-12092476D01*
X6110062Y-12092476D01*
X6129109Y-12102000D01*
X6138633Y-12111524D01*
X6148157Y-12130571D01*
X6148157Y-12149619D01*
X6138633Y-12178190D01*
X6024348Y-12292476D01*
X6148157Y-12292476D01*
X6386252Y-12292476D02*
X6386252Y-12092476D01*
X6471967Y-12292476D02*
X6471967Y-12187714D01*
X6462443Y-12168667D01*
X6443395Y-12159143D01*
X6414824Y-12159143D01*
X6395776Y-12168667D01*
X6386252Y-12178190D01*
X6595776Y-12292476D02*
X6576728Y-12282952D01*
X6567205Y-12273428D01*
X6557681Y-12254381D01*
X6557681Y-12197238D01*
X6567205Y-12178190D01*
X6576728Y-12168667D01*
X6595776Y-12159143D01*
X6624348Y-12159143D01*
X6643395Y-12168667D01*
X6652919Y-12178190D01*
X6662443Y-12197238D01*
X6662443Y-12254381D01*
X6652919Y-12273428D01*
X6643395Y-12282952D01*
X6624348Y-12292476D01*
X6595776Y-12292476D01*
X6776728Y-12292476D02*
X6757681Y-12282952D01*
X6748157Y-12263905D01*
X6748157Y-12092476D01*
X6929109Y-12282952D02*
X6910062Y-12292476D01*
X6871967Y-12292476D01*
X6852919Y-12282952D01*
X6843395Y-12263905D01*
X6843395Y-12187714D01*
X6852919Y-12168667D01*
X6871967Y-12159143D01*
X6910062Y-12159143D01*
X6929109Y-12168667D01*
X6938633Y-12187714D01*
X6938633Y-12206762D01*
X6843395Y-12225809D01*
X7014824Y-12282952D02*
X7033871Y-12292476D01*
X7071967Y-12292476D01*
X7091014Y-12282952D01*
X7100538Y-12263905D01*
X7100538Y-12254381D01*
X7091014Y-12235333D01*
X7071967Y-12225809D01*
X7043395Y-12225809D01*
X7024348Y-12216286D01*
X7014824Y-12197238D01*
X7014824Y-12187714D01*
X7024348Y-12168667D01*
X7043395Y-12159143D01*
X7071967Y-12159143D01*
X7091014Y-12168667D01*
X7167205Y-12368667D02*
X7176728Y-12359143D01*
X7195776Y-12330571D01*
X7205300Y-12311524D01*
X7214824Y-12282952D01*
X7224348Y-12235333D01*
X7224348Y-12197238D01*
X7214824Y-12149619D01*
X7205300Y-12121048D01*
X7195776Y-12102000D01*
X7176728Y-12073428D01*
X7167205Y-12063905D01*
D13*
X2395300Y-12466000D02*
G75*
G03*
X2395300Y-12466000I-35000J0D01*
G01*
D11*
X2691014Y-12356476D02*
X2710062Y-12356476D01*
X2729110Y-12366000D01*
X2738633Y-12375524D01*
X2748157Y-12394571D01*
X2757681Y-12432667D01*
X2757681Y-12480286D01*
X2748157Y-12518381D01*
X2738633Y-12537428D01*
X2729110Y-12546952D01*
X2710062Y-12556476D01*
X2691014Y-12556476D01*
X2671967Y-12546952D01*
X2662443Y-12537428D01*
X2652919Y-12518381D01*
X2643395Y-12480286D01*
X2643395Y-12432667D01*
X2652919Y-12394571D01*
X2662443Y-12375524D01*
X2671967Y-12366000D01*
X2691014Y-12356476D01*
X2843395Y-12537428D02*
X2852919Y-12546952D01*
X2843395Y-12556476D01*
X2833871Y-12546952D01*
X2843395Y-12537428D01*
X2843395Y-12556476D01*
X2919586Y-12356476D02*
X3052919Y-12356476D01*
X2967205Y-12556476D01*
X3167205Y-12356476D02*
X3186252Y-12356476D01*
X3205300Y-12366000D01*
X3214824Y-12375524D01*
X3224348Y-12394571D01*
X3233871Y-12432667D01*
X3233871Y-12480286D01*
X3224348Y-12518381D01*
X3214824Y-12537428D01*
X3205300Y-12546952D01*
X3186252Y-12556476D01*
X3167205Y-12556476D01*
X3148157Y-12546952D01*
X3138633Y-12537428D01*
X3129109Y-12518381D01*
X3119586Y-12480286D01*
X3119586Y-12432667D01*
X3129109Y-12394571D01*
X3138633Y-12375524D01*
X3148157Y-12366000D01*
X3167205Y-12356476D01*
X3357681Y-12356476D02*
X3376728Y-12356476D01*
X3395776Y-12366000D01*
X3405300Y-12375524D01*
X3414824Y-12394571D01*
X3424348Y-12432667D01*
X3424348Y-12480286D01*
X3414824Y-12518381D01*
X3405300Y-12537428D01*
X3395776Y-12546952D01*
X3376728Y-12556476D01*
X3357681Y-12556476D01*
X3338633Y-12546952D01*
X3329109Y-12537428D01*
X3319586Y-12518381D01*
X3310062Y-12480286D01*
X3310062Y-12432667D01*
X3319586Y-12394571D01*
X3329109Y-12375524D01*
X3338633Y-12366000D01*
X3357681Y-12356476D01*
X3510062Y-12556476D02*
X3510062Y-12423143D01*
X3510062Y-12442190D02*
X3519586Y-12432667D01*
X3538633Y-12423143D01*
X3567205Y-12423143D01*
X3586252Y-12432667D01*
X3595776Y-12451714D01*
X3595776Y-12556476D01*
X3595776Y-12451714D02*
X3605300Y-12432667D01*
X3624348Y-12423143D01*
X3652919Y-12423143D01*
X3671967Y-12432667D01*
X3681490Y-12451714D01*
X3681490Y-12556476D01*
X3776728Y-12556476D02*
X3776728Y-12423143D01*
X3776728Y-12442190D02*
X3786252Y-12432667D01*
X3805300Y-12423143D01*
X3833871Y-12423143D01*
X3852919Y-12432667D01*
X3862443Y-12451714D01*
X3862443Y-12556476D01*
X3862443Y-12451714D02*
X3871967Y-12432667D01*
X3891014Y-12423143D01*
X3919586Y-12423143D01*
X3938633Y-12432667D01*
X3948157Y-12451714D01*
X3948157Y-12556476D01*
X4338633Y-12346952D02*
X4167205Y-12604095D01*
X4595776Y-12356476D02*
X4614824Y-12356476D01*
X4633871Y-12366000D01*
X4643395Y-12375524D01*
X4652919Y-12394571D01*
X4662443Y-12432667D01*
X4662443Y-12480286D01*
X4652919Y-12518381D01*
X4643395Y-12537428D01*
X4633871Y-12546952D01*
X4614824Y-12556476D01*
X4595776Y-12556476D01*
X4576729Y-12546952D01*
X4567205Y-12537428D01*
X4557681Y-12518381D01*
X4548157Y-12480286D01*
X4548157Y-12432667D01*
X4557681Y-12394571D01*
X4567205Y-12375524D01*
X4576729Y-12366000D01*
X4595776Y-12356476D01*
X4748157Y-12537428D02*
X4757681Y-12546952D01*
X4748157Y-12556476D01*
X4738633Y-12546952D01*
X4748157Y-12537428D01*
X4748157Y-12556476D01*
X4881490Y-12356476D02*
X4900538Y-12356476D01*
X4919586Y-12366000D01*
X4929110Y-12375524D01*
X4938633Y-12394571D01*
X4948157Y-12432667D01*
X4948157Y-12480286D01*
X4938633Y-12518381D01*
X4929110Y-12537428D01*
X4919586Y-12546952D01*
X4900538Y-12556476D01*
X4881490Y-12556476D01*
X4862443Y-12546952D01*
X4852919Y-12537428D01*
X4843395Y-12518381D01*
X4833871Y-12480286D01*
X4833871Y-12432667D01*
X4843395Y-12394571D01*
X4852919Y-12375524D01*
X4862443Y-12366000D01*
X4881490Y-12356476D01*
X5024348Y-12375524D02*
X5033871Y-12366000D01*
X5052919Y-12356476D01*
X5100538Y-12356476D01*
X5119586Y-12366000D01*
X5129110Y-12375524D01*
X5138633Y-12394571D01*
X5138633Y-12413619D01*
X5129110Y-12442190D01*
X5014824Y-12556476D01*
X5138633Y-12556476D01*
X5205300Y-12356476D02*
X5338633Y-12356476D01*
X5252919Y-12556476D01*
X5500538Y-12356476D02*
X5462443Y-12356476D01*
X5443395Y-12366000D01*
X5433871Y-12375524D01*
X5414824Y-12404095D01*
X5405300Y-12442190D01*
X5405300Y-12518381D01*
X5414824Y-12537428D01*
X5424348Y-12546952D01*
X5443395Y-12556476D01*
X5481490Y-12556476D01*
X5500538Y-12546952D01*
X5510062Y-12537428D01*
X5519586Y-12518381D01*
X5519586Y-12470762D01*
X5510062Y-12451714D01*
X5500538Y-12442190D01*
X5481490Y-12432667D01*
X5443395Y-12432667D01*
X5424348Y-12442190D01*
X5414824Y-12451714D01*
X5405300Y-12470762D01*
X5595776Y-12356476D02*
X5595776Y-12394571D01*
X5671967Y-12356476D02*
X5671967Y-12394571D01*
X5967205Y-12632667D02*
X5957681Y-12623143D01*
X5938633Y-12594571D01*
X5929109Y-12575524D01*
X5919586Y-12546952D01*
X5910062Y-12499333D01*
X5910062Y-12461238D01*
X5919586Y-12413619D01*
X5929109Y-12385048D01*
X5938633Y-12366000D01*
X5957681Y-12337428D01*
X5967205Y-12327905D01*
X6024348Y-12356476D02*
X6148157Y-12356476D01*
X6081490Y-12432667D01*
X6110062Y-12432667D01*
X6129109Y-12442190D01*
X6138633Y-12451714D01*
X6148157Y-12470762D01*
X6148157Y-12518381D01*
X6138633Y-12537428D01*
X6129109Y-12546952D01*
X6110062Y-12556476D01*
X6052919Y-12556476D01*
X6033871Y-12546952D01*
X6024348Y-12537428D01*
X6386252Y-12556476D02*
X6386252Y-12356476D01*
X6471967Y-12556476D02*
X6471967Y-12451714D01*
X6462443Y-12432667D01*
X6443395Y-12423143D01*
X6414824Y-12423143D01*
X6395776Y-12432667D01*
X6386252Y-12442190D01*
X6595776Y-12556476D02*
X6576728Y-12546952D01*
X6567205Y-12537428D01*
X6557681Y-12518381D01*
X6557681Y-12461238D01*
X6567205Y-12442190D01*
X6576728Y-12432667D01*
X6595776Y-12423143D01*
X6624348Y-12423143D01*
X6643395Y-12432667D01*
X6652919Y-12442190D01*
X6662443Y-12461238D01*
X6662443Y-12518381D01*
X6652919Y-12537428D01*
X6643395Y-12546952D01*
X6624348Y-12556476D01*
X6595776Y-12556476D01*
X6776728Y-12556476D02*
X6757681Y-12546952D01*
X6748157Y-12527905D01*
X6748157Y-12356476D01*
X6929109Y-12546952D02*
X6910062Y-12556476D01*
X6871967Y-12556476D01*
X6852919Y-12546952D01*
X6843395Y-12527905D01*
X6843395Y-12451714D01*
X6852919Y-12432667D01*
X6871967Y-12423143D01*
X6910062Y-12423143D01*
X6929109Y-12432667D01*
X6938633Y-12451714D01*
X6938633Y-12470762D01*
X6843395Y-12489809D01*
X7014824Y-12546952D02*
X7033871Y-12556476D01*
X7071967Y-12556476D01*
X7091014Y-12546952D01*
X7100538Y-12527905D01*
X7100538Y-12518381D01*
X7091014Y-12499333D01*
X7071967Y-12489809D01*
X7043395Y-12489809D01*
X7024348Y-12480286D01*
X7014824Y-12461238D01*
X7014824Y-12451714D01*
X7024348Y-12432667D01*
X7043395Y-12423143D01*
X7071967Y-12423143D01*
X7091014Y-12432667D01*
X7167205Y-12632667D02*
X7176728Y-12623143D01*
X7195776Y-12594571D01*
X7205300Y-12575524D01*
X7214824Y-12546952D01*
X7224348Y-12499333D01*
X7224348Y-12461238D01*
X7214824Y-12413619D01*
X7205300Y-12385048D01*
X7195776Y-12366000D01*
X7176728Y-12337428D01*
X7167205Y-12327905D01*
D14*
X2357800Y-12692500D02*
X2357800Y-12767500D01*
X2320300Y-12730000D02*
X2395300Y-12730000D01*
D11*
X2691014Y-12620476D02*
X2710062Y-12620476D01*
X2729110Y-12630000D01*
X2738633Y-12639524D01*
X2748157Y-12658571D01*
X2757681Y-12696667D01*
X2757681Y-12744286D01*
X2748157Y-12782381D01*
X2738633Y-12801428D01*
X2729110Y-12810952D01*
X2710062Y-12820476D01*
X2691014Y-12820476D01*
X2671967Y-12810952D01*
X2662443Y-12801428D01*
X2652919Y-12782381D01*
X2643395Y-12744286D01*
X2643395Y-12696667D01*
X2652919Y-12658571D01*
X2662443Y-12639524D01*
X2671967Y-12630000D01*
X2691014Y-12620476D01*
X2843395Y-12801428D02*
X2852919Y-12810952D01*
X2843395Y-12820476D01*
X2833871Y-12810952D01*
X2843395Y-12801428D01*
X2843395Y-12820476D01*
X2919586Y-12620476D02*
X3052919Y-12620476D01*
X2967205Y-12820476D01*
X3224348Y-12620476D02*
X3129109Y-12620476D01*
X3119586Y-12715714D01*
X3129109Y-12706190D01*
X3148157Y-12696667D01*
X3195776Y-12696667D01*
X3214824Y-12706190D01*
X3224348Y-12715714D01*
X3233871Y-12734762D01*
X3233871Y-12782381D01*
X3224348Y-12801428D01*
X3214824Y-12810952D01*
X3195776Y-12820476D01*
X3148157Y-12820476D01*
X3129109Y-12810952D01*
X3119586Y-12801428D01*
X3357681Y-12620476D02*
X3376728Y-12620476D01*
X3395776Y-12630000D01*
X3405300Y-12639524D01*
X3414824Y-12658571D01*
X3424348Y-12696667D01*
X3424348Y-12744286D01*
X3414824Y-12782381D01*
X3405300Y-12801428D01*
X3395776Y-12810952D01*
X3376728Y-12820476D01*
X3357681Y-12820476D01*
X3338633Y-12810952D01*
X3329109Y-12801428D01*
X3319586Y-12782381D01*
X3310062Y-12744286D01*
X3310062Y-12696667D01*
X3319586Y-12658571D01*
X3329109Y-12639524D01*
X3338633Y-12630000D01*
X3357681Y-12620476D01*
X3510062Y-12820476D02*
X3510062Y-12687143D01*
X3510062Y-12706190D02*
X3519586Y-12696667D01*
X3538633Y-12687143D01*
X3567205Y-12687143D01*
X3586252Y-12696667D01*
X3595776Y-12715714D01*
X3595776Y-12820476D01*
X3595776Y-12715714D02*
X3605300Y-12696667D01*
X3624348Y-12687143D01*
X3652919Y-12687143D01*
X3671967Y-12696667D01*
X3681490Y-12715714D01*
X3681490Y-12820476D01*
X3776728Y-12820476D02*
X3776728Y-12687143D01*
X3776728Y-12706190D02*
X3786252Y-12696667D01*
X3805300Y-12687143D01*
X3833871Y-12687143D01*
X3852919Y-12696667D01*
X3862443Y-12715714D01*
X3862443Y-12820476D01*
X3862443Y-12715714D02*
X3871967Y-12696667D01*
X3891014Y-12687143D01*
X3919586Y-12687143D01*
X3938633Y-12696667D01*
X3948157Y-12715714D01*
X3948157Y-12820476D01*
X4338633Y-12610952D02*
X4167205Y-12868095D01*
X4595776Y-12620476D02*
X4614824Y-12620476D01*
X4633871Y-12630000D01*
X4643395Y-12639524D01*
X4652919Y-12658571D01*
X4662443Y-12696667D01*
X4662443Y-12744286D01*
X4652919Y-12782381D01*
X4643395Y-12801428D01*
X4633871Y-12810952D01*
X4614824Y-12820476D01*
X4595776Y-12820476D01*
X4576729Y-12810952D01*
X4567205Y-12801428D01*
X4557681Y-12782381D01*
X4548157Y-12744286D01*
X4548157Y-12696667D01*
X4557681Y-12658571D01*
X4567205Y-12639524D01*
X4576729Y-12630000D01*
X4595776Y-12620476D01*
X4748157Y-12801428D02*
X4757681Y-12810952D01*
X4748157Y-12820476D01*
X4738633Y-12810952D01*
X4748157Y-12801428D01*
X4748157Y-12820476D01*
X4881490Y-12620476D02*
X4900538Y-12620476D01*
X4919586Y-12630000D01*
X4929110Y-12639524D01*
X4938633Y-12658571D01*
X4948157Y-12696667D01*
X4948157Y-12744286D01*
X4938633Y-12782381D01*
X4929110Y-12801428D01*
X4919586Y-12810952D01*
X4900538Y-12820476D01*
X4881490Y-12820476D01*
X4862443Y-12810952D01*
X4852919Y-12801428D01*
X4843395Y-12782381D01*
X4833871Y-12744286D01*
X4833871Y-12696667D01*
X4843395Y-12658571D01*
X4852919Y-12639524D01*
X4862443Y-12630000D01*
X4881490Y-12620476D01*
X5024348Y-12639524D02*
X5033871Y-12630000D01*
X5052919Y-12620476D01*
X5100538Y-12620476D01*
X5119586Y-12630000D01*
X5129110Y-12639524D01*
X5138633Y-12658571D01*
X5138633Y-12677619D01*
X5129110Y-12706190D01*
X5014824Y-12820476D01*
X5138633Y-12820476D01*
X5233871Y-12820476D02*
X5271967Y-12820476D01*
X5291014Y-12810952D01*
X5300538Y-12801428D01*
X5319586Y-12772857D01*
X5329110Y-12734762D01*
X5329110Y-12658571D01*
X5319586Y-12639524D01*
X5310062Y-12630000D01*
X5291014Y-12620476D01*
X5252919Y-12620476D01*
X5233871Y-12630000D01*
X5224348Y-12639524D01*
X5214824Y-12658571D01*
X5214824Y-12706190D01*
X5224348Y-12725238D01*
X5233871Y-12734762D01*
X5252919Y-12744286D01*
X5291014Y-12744286D01*
X5310062Y-12734762D01*
X5319586Y-12725238D01*
X5329110Y-12706190D01*
X5510062Y-12620476D02*
X5414824Y-12620476D01*
X5405300Y-12715714D01*
X5414824Y-12706190D01*
X5433871Y-12696667D01*
X5481490Y-12696667D01*
X5500538Y-12706190D01*
X5510062Y-12715714D01*
X5519586Y-12734762D01*
X5519586Y-12782381D01*
X5510062Y-12801428D01*
X5500538Y-12810952D01*
X5481490Y-12820476D01*
X5433871Y-12820476D01*
X5414824Y-12810952D01*
X5405300Y-12801428D01*
X5595776Y-12620476D02*
X5595776Y-12658571D01*
X5671967Y-12620476D02*
X5671967Y-12658571D01*
X5967205Y-12896667D02*
X5957681Y-12887143D01*
X5938633Y-12858571D01*
X5929109Y-12839524D01*
X5919586Y-12810952D01*
X5910062Y-12763333D01*
X5910062Y-12725238D01*
X5919586Y-12677619D01*
X5929109Y-12649048D01*
X5938633Y-12630000D01*
X5957681Y-12601428D01*
X5967205Y-12591905D01*
X6024348Y-12620476D02*
X6148157Y-12620476D01*
X6081490Y-12696667D01*
X6110062Y-12696667D01*
X6129109Y-12706190D01*
X6138633Y-12715714D01*
X6148157Y-12734762D01*
X6148157Y-12782381D01*
X6138633Y-12801428D01*
X6129109Y-12810952D01*
X6110062Y-12820476D01*
X6052919Y-12820476D01*
X6033871Y-12810952D01*
X6024348Y-12801428D01*
X6386252Y-12820476D02*
X6386252Y-12620476D01*
X6471967Y-12820476D02*
X6471967Y-12715714D01*
X6462443Y-12696667D01*
X6443395Y-12687143D01*
X6414824Y-12687143D01*
X6395776Y-12696667D01*
X6386252Y-12706190D01*
X6595776Y-12820476D02*
X6576728Y-12810952D01*
X6567205Y-12801428D01*
X6557681Y-12782381D01*
X6557681Y-12725238D01*
X6567205Y-12706190D01*
X6576728Y-12696667D01*
X6595776Y-12687143D01*
X6624348Y-12687143D01*
X6643395Y-12696667D01*
X6652919Y-12706190D01*
X6662443Y-12725238D01*
X6662443Y-12782381D01*
X6652919Y-12801428D01*
X6643395Y-12810952D01*
X6624348Y-12820476D01*
X6595776Y-12820476D01*
X6776728Y-12820476D02*
X6757681Y-12810952D01*
X6748157Y-12791905D01*
X6748157Y-12620476D01*
X6929109Y-12810952D02*
X6910062Y-12820476D01*
X6871967Y-12820476D01*
X6852919Y-12810952D01*
X6843395Y-12791905D01*
X6843395Y-12715714D01*
X6852919Y-12696667D01*
X6871967Y-12687143D01*
X6910062Y-12687143D01*
X6929109Y-12696667D01*
X6938633Y-12715714D01*
X6938633Y-12734762D01*
X6843395Y-12753809D01*
X7014824Y-12810952D02*
X7033871Y-12820476D01*
X7071967Y-12820476D01*
X7091014Y-12810952D01*
X7100538Y-12791905D01*
X7100538Y-12782381D01*
X7091014Y-12763333D01*
X7071967Y-12753809D01*
X7043395Y-12753809D01*
X7024348Y-12744286D01*
X7014824Y-12725238D01*
X7014824Y-12715714D01*
X7024348Y-12696667D01*
X7043395Y-12687143D01*
X7071967Y-12687143D01*
X7091014Y-12696667D01*
X7167205Y-12896667D02*
X7176728Y-12887143D01*
X7195776Y-12858571D01*
X7205300Y-12839524D01*
X7214824Y-12810952D01*
X7224348Y-12763333D01*
X7224348Y-12725238D01*
X7214824Y-12677619D01*
X7205300Y-12649048D01*
X7195776Y-12630000D01*
X7176728Y-12601428D01*
X7167205Y-12591905D01*
D15*
X2383585Y-13022284D02*
X2383585Y-12965715D01*
X2327016Y-12965715D01*
X2327016Y-13022284D01*
X2383585Y-13022284D01*
D11*
X2691014Y-12884476D02*
X2710062Y-12884476D01*
X2729110Y-12894000D01*
X2738633Y-12903524D01*
X2748157Y-12922571D01*
X2757681Y-12960667D01*
X2757681Y-13008286D01*
X2748157Y-13046381D01*
X2738633Y-13065428D01*
X2729110Y-13074952D01*
X2710062Y-13084476D01*
X2691014Y-13084476D01*
X2671967Y-13074952D01*
X2662443Y-13065428D01*
X2652919Y-13046381D01*
X2643395Y-13008286D01*
X2643395Y-12960667D01*
X2652919Y-12922571D01*
X2662443Y-12903524D01*
X2671967Y-12894000D01*
X2691014Y-12884476D01*
X2843395Y-13065428D02*
X2852919Y-13074952D01*
X2843395Y-13084476D01*
X2833871Y-13074952D01*
X2843395Y-13065428D01*
X2843395Y-13084476D01*
X2967205Y-12970190D02*
X2948157Y-12960667D01*
X2938633Y-12951143D01*
X2929109Y-12932095D01*
X2929109Y-12922571D01*
X2938633Y-12903524D01*
X2948157Y-12894000D01*
X2967205Y-12884476D01*
X3005300Y-12884476D01*
X3024348Y-12894000D01*
X3033871Y-12903524D01*
X3043395Y-12922571D01*
X3043395Y-12932095D01*
X3033871Y-12951143D01*
X3024348Y-12960667D01*
X3005300Y-12970190D01*
X2967205Y-12970190D01*
X2948157Y-12979714D01*
X2938633Y-12989238D01*
X2929109Y-13008286D01*
X2929109Y-13046381D01*
X2938633Y-13065428D01*
X2948157Y-13074952D01*
X2967205Y-13084476D01*
X3005300Y-13084476D01*
X3024348Y-13074952D01*
X3033871Y-13065428D01*
X3043395Y-13046381D01*
X3043395Y-13008286D01*
X3033871Y-12989238D01*
X3024348Y-12979714D01*
X3005300Y-12970190D01*
X3167205Y-12884476D02*
X3186252Y-12884476D01*
X3205300Y-12894000D01*
X3214824Y-12903524D01*
X3224348Y-12922571D01*
X3233871Y-12960667D01*
X3233871Y-13008286D01*
X3224348Y-13046381D01*
X3214824Y-13065428D01*
X3205300Y-13074952D01*
X3186252Y-13084476D01*
X3167205Y-13084476D01*
X3148157Y-13074952D01*
X3138633Y-13065428D01*
X3129109Y-13046381D01*
X3119586Y-13008286D01*
X3119586Y-12960667D01*
X3129109Y-12922571D01*
X3138633Y-12903524D01*
X3148157Y-12894000D01*
X3167205Y-12884476D01*
X3357681Y-12884476D02*
X3376728Y-12884476D01*
X3395776Y-12894000D01*
X3405300Y-12903524D01*
X3414824Y-12922571D01*
X3424348Y-12960667D01*
X3424348Y-13008286D01*
X3414824Y-13046381D01*
X3405300Y-13065428D01*
X3395776Y-13074952D01*
X3376728Y-13084476D01*
X3357681Y-13084476D01*
X3338633Y-13074952D01*
X3329109Y-13065428D01*
X3319586Y-13046381D01*
X3310062Y-13008286D01*
X3310062Y-12960667D01*
X3319586Y-12922571D01*
X3329109Y-12903524D01*
X3338633Y-12894000D01*
X3357681Y-12884476D01*
X3510062Y-13084476D02*
X3510062Y-12951143D01*
X3510062Y-12970190D02*
X3519586Y-12960667D01*
X3538633Y-12951143D01*
X3567205Y-12951143D01*
X3586252Y-12960667D01*
X3595776Y-12979714D01*
X3595776Y-13084476D01*
X3595776Y-12979714D02*
X3605300Y-12960667D01*
X3624348Y-12951143D01*
X3652919Y-12951143D01*
X3671967Y-12960667D01*
X3681490Y-12979714D01*
X3681490Y-13084476D01*
X3776728Y-13084476D02*
X3776728Y-12951143D01*
X3776728Y-12970190D02*
X3786252Y-12960667D01*
X3805300Y-12951143D01*
X3833871Y-12951143D01*
X3852919Y-12960667D01*
X3862443Y-12979714D01*
X3862443Y-13084476D01*
X3862443Y-12979714D02*
X3871967Y-12960667D01*
X3891014Y-12951143D01*
X3919586Y-12951143D01*
X3938633Y-12960667D01*
X3948157Y-12979714D01*
X3948157Y-13084476D01*
X4338633Y-12874952D02*
X4167205Y-13132095D01*
X4595776Y-12884476D02*
X4614824Y-12884476D01*
X4633871Y-12894000D01*
X4643395Y-12903524D01*
X4652919Y-12922571D01*
X4662443Y-12960667D01*
X4662443Y-13008286D01*
X4652919Y-13046381D01*
X4643395Y-13065428D01*
X4633871Y-13074952D01*
X4614824Y-13084476D01*
X4595776Y-13084476D01*
X4576729Y-13074952D01*
X4567205Y-13065428D01*
X4557681Y-13046381D01*
X4548157Y-13008286D01*
X4548157Y-12960667D01*
X4557681Y-12922571D01*
X4567205Y-12903524D01*
X4576729Y-12894000D01*
X4595776Y-12884476D01*
X4748157Y-13065428D02*
X4757681Y-13074952D01*
X4748157Y-13084476D01*
X4738633Y-13074952D01*
X4748157Y-13065428D01*
X4748157Y-13084476D01*
X4881490Y-12884476D02*
X4900538Y-12884476D01*
X4919586Y-12894000D01*
X4929110Y-12903524D01*
X4938633Y-12922571D01*
X4948157Y-12960667D01*
X4948157Y-13008286D01*
X4938633Y-13046381D01*
X4929110Y-13065428D01*
X4919586Y-13074952D01*
X4900538Y-13084476D01*
X4881490Y-13084476D01*
X4862443Y-13074952D01*
X4852919Y-13065428D01*
X4843395Y-13046381D01*
X4833871Y-13008286D01*
X4833871Y-12960667D01*
X4843395Y-12922571D01*
X4852919Y-12903524D01*
X4862443Y-12894000D01*
X4881490Y-12884476D01*
X5014824Y-12884476D02*
X5138633Y-12884476D01*
X5071967Y-12960667D01*
X5100538Y-12960667D01*
X5119586Y-12970190D01*
X5129110Y-12979714D01*
X5138633Y-12998762D01*
X5138633Y-13046381D01*
X5129110Y-13065428D01*
X5119586Y-13074952D01*
X5100538Y-13084476D01*
X5043395Y-13084476D01*
X5024348Y-13074952D01*
X5014824Y-13065428D01*
X5329110Y-13084476D02*
X5214824Y-13084476D01*
X5271967Y-13084476D02*
X5271967Y-12884476D01*
X5252919Y-12913048D01*
X5233871Y-12932095D01*
X5214824Y-12941619D01*
X5510062Y-12884476D02*
X5414824Y-12884476D01*
X5405300Y-12979714D01*
X5414824Y-12970190D01*
X5433871Y-12960667D01*
X5481490Y-12960667D01*
X5500538Y-12970190D01*
X5510062Y-12979714D01*
X5519586Y-12998762D01*
X5519586Y-13046381D01*
X5510062Y-13065428D01*
X5500538Y-13074952D01*
X5481490Y-13084476D01*
X5433871Y-13084476D01*
X5414824Y-13074952D01*
X5405300Y-13065428D01*
X5595776Y-12884476D02*
X5595776Y-12922571D01*
X5671967Y-12884476D02*
X5671967Y-12922571D01*
X5967205Y-13160667D02*
X5957681Y-13151143D01*
X5938633Y-13122571D01*
X5929109Y-13103524D01*
X5919586Y-13074952D01*
X5910062Y-13027333D01*
X5910062Y-12989238D01*
X5919586Y-12941619D01*
X5929109Y-12913048D01*
X5938633Y-12894000D01*
X5957681Y-12865428D01*
X5967205Y-12855905D01*
X6129109Y-12951143D02*
X6129109Y-13084476D01*
X6081490Y-12874952D02*
X6033871Y-13017809D01*
X6157681Y-13017809D01*
X6329109Y-12884476D02*
X6233871Y-12884476D01*
X6224348Y-12979714D01*
X6233871Y-12970190D01*
X6252919Y-12960667D01*
X6300538Y-12960667D01*
X6319586Y-12970190D01*
X6329109Y-12979714D01*
X6338633Y-12998762D01*
X6338633Y-13046381D01*
X6329109Y-13065428D01*
X6319586Y-13074952D01*
X6300538Y-13084476D01*
X6252919Y-13084476D01*
X6233871Y-13074952D01*
X6224348Y-13065428D01*
X6576728Y-13084476D02*
X6576728Y-12884476D01*
X6662443Y-13084476D02*
X6662443Y-12979714D01*
X6652919Y-12960667D01*
X6633871Y-12951143D01*
X6605300Y-12951143D01*
X6586252Y-12960667D01*
X6576728Y-12970190D01*
X6786252Y-13084476D02*
X6767205Y-13074952D01*
X6757681Y-13065428D01*
X6748157Y-13046381D01*
X6748157Y-12989238D01*
X6757681Y-12970190D01*
X6767205Y-12960667D01*
X6786252Y-12951143D01*
X6814824Y-12951143D01*
X6833871Y-12960667D01*
X6843395Y-12970190D01*
X6852919Y-12989238D01*
X6852919Y-13046381D01*
X6843395Y-13065428D01*
X6833871Y-13074952D01*
X6814824Y-13084476D01*
X6786252Y-13084476D01*
X6967205Y-13084476D02*
X6948157Y-13074952D01*
X6938633Y-13055905D01*
X6938633Y-12884476D01*
X7119586Y-13074952D02*
X7100538Y-13084476D01*
X7062443Y-13084476D01*
X7043395Y-13074952D01*
X7033871Y-13055905D01*
X7033871Y-12979714D01*
X7043395Y-12960667D01*
X7062443Y-12951143D01*
X7100538Y-12951143D01*
X7119586Y-12960667D01*
X7129109Y-12979714D01*
X7129109Y-12998762D01*
X7033871Y-13017809D01*
X7205300Y-13074952D02*
X7224348Y-13084476D01*
X7262443Y-13084476D01*
X7281490Y-13074952D01*
X7291014Y-13055905D01*
X7291014Y-13046381D01*
X7281490Y-13027333D01*
X7262443Y-13017809D01*
X7233871Y-13017809D01*
X7214824Y-13008286D01*
X7205300Y-12989238D01*
X7205300Y-12979714D01*
X7214824Y-12960667D01*
X7233871Y-12951143D01*
X7262443Y-12951143D01*
X7281490Y-12960667D01*
X7357681Y-13160667D02*
X7367205Y-13151143D01*
X7386252Y-13122571D01*
X7395776Y-13103524D01*
X7405300Y-13074952D01*
X7414824Y-13027333D01*
X7414824Y-12989238D01*
X7405300Y-12941619D01*
X7395776Y-12913048D01*
X7386252Y-12894000D01*
X7367205Y-12865428D01*
X7357681Y-12855905D01*
D10*
X2345300Y-13308000D02*
X2395300Y-13258000D01*
X2345300Y-13208000D01*
X2295300Y-13258000D01*
X2345300Y-13308000D01*
D11*
X2757681Y-13348476D02*
X2643395Y-13348476D01*
X2700538Y-13348476D02*
X2700538Y-13148476D01*
X2681490Y-13177048D01*
X2662443Y-13196095D01*
X2643395Y-13205619D01*
X2843395Y-13329428D02*
X2852919Y-13338952D01*
X2843395Y-13348476D01*
X2833871Y-13338952D01*
X2843395Y-13329428D01*
X2843395Y-13348476D01*
X2976728Y-13148476D02*
X2995776Y-13148476D01*
X3014824Y-13158000D01*
X3024348Y-13167524D01*
X3033871Y-13186571D01*
X3043395Y-13224667D01*
X3043395Y-13272286D01*
X3033871Y-13310381D01*
X3024348Y-13329428D01*
X3014824Y-13338952D01*
X2995776Y-13348476D01*
X2976728Y-13348476D01*
X2957681Y-13338952D01*
X2948157Y-13329428D01*
X2938633Y-13310381D01*
X2929109Y-13272286D01*
X2929109Y-13224667D01*
X2938633Y-13186571D01*
X2948157Y-13167524D01*
X2957681Y-13158000D01*
X2976728Y-13148476D01*
X3167205Y-13148476D02*
X3186252Y-13148476D01*
X3205300Y-13158000D01*
X3214824Y-13167524D01*
X3224348Y-13186571D01*
X3233871Y-13224667D01*
X3233871Y-13272286D01*
X3224348Y-13310381D01*
X3214824Y-13329428D01*
X3205300Y-13338952D01*
X3186252Y-13348476D01*
X3167205Y-13348476D01*
X3148157Y-13338952D01*
X3138633Y-13329428D01*
X3129109Y-13310381D01*
X3119586Y-13272286D01*
X3119586Y-13224667D01*
X3129109Y-13186571D01*
X3138633Y-13167524D01*
X3148157Y-13158000D01*
X3167205Y-13148476D01*
X3357681Y-13148476D02*
X3376728Y-13148476D01*
X3395776Y-13158000D01*
X3405300Y-13167524D01*
X3414824Y-13186571D01*
X3424348Y-13224667D01*
X3424348Y-13272286D01*
X3414824Y-13310381D01*
X3405300Y-13329428D01*
X3395776Y-13338952D01*
X3376728Y-13348476D01*
X3357681Y-13348476D01*
X3338633Y-13338952D01*
X3329109Y-13329428D01*
X3319586Y-13310381D01*
X3310062Y-13272286D01*
X3310062Y-13224667D01*
X3319586Y-13186571D01*
X3329109Y-13167524D01*
X3338633Y-13158000D01*
X3357681Y-13148476D01*
X3510062Y-13348476D02*
X3510062Y-13215143D01*
X3510062Y-13234190D02*
X3519586Y-13224667D01*
X3538633Y-13215143D01*
X3567205Y-13215143D01*
X3586252Y-13224667D01*
X3595776Y-13243714D01*
X3595776Y-13348476D01*
X3595776Y-13243714D02*
X3605300Y-13224667D01*
X3624348Y-13215143D01*
X3652919Y-13215143D01*
X3671967Y-13224667D01*
X3681490Y-13243714D01*
X3681490Y-13348476D01*
X3776728Y-13348476D02*
X3776728Y-13215143D01*
X3776728Y-13234190D02*
X3786252Y-13224667D01*
X3805300Y-13215143D01*
X3833871Y-13215143D01*
X3852919Y-13224667D01*
X3862443Y-13243714D01*
X3862443Y-13348476D01*
X3862443Y-13243714D02*
X3871967Y-13224667D01*
X3891014Y-13215143D01*
X3919586Y-13215143D01*
X3938633Y-13224667D01*
X3948157Y-13243714D01*
X3948157Y-13348476D01*
X4338633Y-13138952D02*
X4167205Y-13396095D01*
X4595776Y-13148476D02*
X4614824Y-13148476D01*
X4633871Y-13158000D01*
X4643395Y-13167524D01*
X4652919Y-13186571D01*
X4662443Y-13224667D01*
X4662443Y-13272286D01*
X4652919Y-13310381D01*
X4643395Y-13329428D01*
X4633871Y-13338952D01*
X4614824Y-13348476D01*
X4595776Y-13348476D01*
X4576729Y-13338952D01*
X4567205Y-13329428D01*
X4557681Y-13310381D01*
X4548157Y-13272286D01*
X4548157Y-13224667D01*
X4557681Y-13186571D01*
X4567205Y-13167524D01*
X4576729Y-13158000D01*
X4595776Y-13148476D01*
X4748157Y-13329428D02*
X4757681Y-13338952D01*
X4748157Y-13348476D01*
X4738633Y-13338952D01*
X4748157Y-13329428D01*
X4748157Y-13348476D01*
X4881490Y-13148476D02*
X4900538Y-13148476D01*
X4919586Y-13158000D01*
X4929110Y-13167524D01*
X4938633Y-13186571D01*
X4948157Y-13224667D01*
X4948157Y-13272286D01*
X4938633Y-13310381D01*
X4929110Y-13329428D01*
X4919586Y-13338952D01*
X4900538Y-13348476D01*
X4881490Y-13348476D01*
X4862443Y-13338952D01*
X4852919Y-13329428D01*
X4843395Y-13310381D01*
X4833871Y-13272286D01*
X4833871Y-13224667D01*
X4843395Y-13186571D01*
X4852919Y-13167524D01*
X4862443Y-13158000D01*
X4881490Y-13148476D01*
X5014824Y-13148476D02*
X5138633Y-13148476D01*
X5071967Y-13224667D01*
X5100538Y-13224667D01*
X5119586Y-13234190D01*
X5129110Y-13243714D01*
X5138633Y-13262762D01*
X5138633Y-13310381D01*
X5129110Y-13329428D01*
X5119586Y-13338952D01*
X5100538Y-13348476D01*
X5043395Y-13348476D01*
X5024348Y-13338952D01*
X5014824Y-13329428D01*
X5233871Y-13348476D02*
X5271967Y-13348476D01*
X5291014Y-13338952D01*
X5300538Y-13329428D01*
X5319586Y-13300857D01*
X5329110Y-13262762D01*
X5329110Y-13186571D01*
X5319586Y-13167524D01*
X5310062Y-13158000D01*
X5291014Y-13148476D01*
X5252919Y-13148476D01*
X5233871Y-13158000D01*
X5224348Y-13167524D01*
X5214824Y-13186571D01*
X5214824Y-13234190D01*
X5224348Y-13253238D01*
X5233871Y-13262762D01*
X5252919Y-13272286D01*
X5291014Y-13272286D01*
X5310062Y-13262762D01*
X5319586Y-13253238D01*
X5329110Y-13234190D01*
X5500538Y-13215143D02*
X5500538Y-13348476D01*
X5452919Y-13138952D02*
X5405300Y-13281809D01*
X5529110Y-13281809D01*
X5595776Y-13148476D02*
X5595776Y-13186571D01*
X5671967Y-13148476D02*
X5671967Y-13186571D01*
X5967205Y-13424667D02*
X5957681Y-13415143D01*
X5938633Y-13386571D01*
X5929109Y-13367524D01*
X5919586Y-13338952D01*
X5910062Y-13291333D01*
X5910062Y-13253238D01*
X5919586Y-13205619D01*
X5929109Y-13177048D01*
X5938633Y-13158000D01*
X5957681Y-13129428D01*
X5967205Y-13119905D01*
X6033871Y-13167524D02*
X6043395Y-13158000D01*
X6062443Y-13148476D01*
X6110062Y-13148476D01*
X6129109Y-13158000D01*
X6138633Y-13167524D01*
X6148157Y-13186571D01*
X6148157Y-13205619D01*
X6138633Y-13234190D01*
X6024348Y-13348476D01*
X6148157Y-13348476D01*
X6214824Y-13148476D02*
X6348157Y-13148476D01*
X6262443Y-13348476D01*
X6576728Y-13348476D02*
X6576728Y-13148476D01*
X6662443Y-13348476D02*
X6662443Y-13243714D01*
X6652919Y-13224667D01*
X6633871Y-13215143D01*
X6605300Y-13215143D01*
X6586252Y-13224667D01*
X6576728Y-13234190D01*
X6786252Y-13348476D02*
X6767205Y-13338952D01*
X6757681Y-13329428D01*
X6748157Y-13310381D01*
X6748157Y-13253238D01*
X6757681Y-13234190D01*
X6767205Y-13224667D01*
X6786252Y-13215143D01*
X6814824Y-13215143D01*
X6833871Y-13224667D01*
X6843395Y-13234190D01*
X6852919Y-13253238D01*
X6852919Y-13310381D01*
X6843395Y-13329428D01*
X6833871Y-13338952D01*
X6814824Y-13348476D01*
X6786252Y-13348476D01*
X6967205Y-13348476D02*
X6948157Y-13338952D01*
X6938633Y-13319905D01*
X6938633Y-13148476D01*
X7119586Y-13338952D02*
X7100538Y-13348476D01*
X7062443Y-13348476D01*
X7043395Y-13338952D01*
X7033871Y-13319905D01*
X7033871Y-13243714D01*
X7043395Y-13224667D01*
X7062443Y-13215143D01*
X7100538Y-13215143D01*
X7119586Y-13224667D01*
X7129109Y-13243714D01*
X7129109Y-13262762D01*
X7033871Y-13281809D01*
X7205300Y-13338952D02*
X7224348Y-13348476D01*
X7262443Y-13348476D01*
X7281490Y-13338952D01*
X7291014Y-13319905D01*
X7291014Y-13310381D01*
X7281490Y-13291333D01*
X7262443Y-13281809D01*
X7233871Y-13281809D01*
X7214824Y-13272286D01*
X7205300Y-13253238D01*
X7205300Y-13243714D01*
X7214824Y-13224667D01*
X7233871Y-13215143D01*
X7262443Y-13215143D01*
X7281490Y-13224667D01*
X7357681Y-13424667D02*
X7367205Y-13415143D01*
X7386252Y-13386571D01*
X7395776Y-13367524D01*
X7405300Y-13338952D01*
X7414824Y-13291333D01*
X7414824Y-13253238D01*
X7405300Y-13205619D01*
X7395776Y-13177048D01*
X7386252Y-13158000D01*
X7367205Y-13129428D01*
X7357681Y-13119905D01*
D16*
X2285300Y-13467000D02*
X2395300Y-13577000D01*
X2395300Y-13467000D02*
X2285300Y-13577000D01*
X2395300Y-13522000D02*
G75*
G03*
X2395300Y-13522000I-55000J0D01*
G01*
D11*
X2757681Y-13612476D02*
X2643395Y-13612476D01*
X2700538Y-13612476D02*
X2700538Y-13412476D01*
X2681490Y-13441048D01*
X2662443Y-13460095D01*
X2643395Y-13469619D01*
X2843395Y-13593428D02*
X2852919Y-13602952D01*
X2843395Y-13612476D01*
X2833871Y-13602952D01*
X2843395Y-13593428D01*
X2843395Y-13612476D01*
X3043395Y-13612476D02*
X2929109Y-13612476D01*
X2986252Y-13612476D02*
X2986252Y-13412476D01*
X2967205Y-13441048D01*
X2948157Y-13460095D01*
X2929109Y-13469619D01*
X3167205Y-13412476D02*
X3186252Y-13412476D01*
X3205300Y-13422000D01*
X3214824Y-13431524D01*
X3224348Y-13450571D01*
X3233871Y-13488667D01*
X3233871Y-13536286D01*
X3224348Y-13574381D01*
X3214824Y-13593428D01*
X3205300Y-13602952D01*
X3186252Y-13612476D01*
X3167205Y-13612476D01*
X3148157Y-13602952D01*
X3138633Y-13593428D01*
X3129109Y-13574381D01*
X3119586Y-13536286D01*
X3119586Y-13488667D01*
X3129109Y-13450571D01*
X3138633Y-13431524D01*
X3148157Y-13422000D01*
X3167205Y-13412476D01*
X3357681Y-13412476D02*
X3376728Y-13412476D01*
X3395776Y-13422000D01*
X3405300Y-13431524D01*
X3414824Y-13450571D01*
X3424348Y-13488667D01*
X3424348Y-13536286D01*
X3414824Y-13574381D01*
X3405300Y-13593428D01*
X3395776Y-13602952D01*
X3376728Y-13612476D01*
X3357681Y-13612476D01*
X3338633Y-13602952D01*
X3329109Y-13593428D01*
X3319586Y-13574381D01*
X3310062Y-13536286D01*
X3310062Y-13488667D01*
X3319586Y-13450571D01*
X3329109Y-13431524D01*
X3338633Y-13422000D01*
X3357681Y-13412476D01*
X3510062Y-13612476D02*
X3510062Y-13479143D01*
X3510062Y-13498190D02*
X3519586Y-13488667D01*
X3538633Y-13479143D01*
X3567205Y-13479143D01*
X3586252Y-13488667D01*
X3595776Y-13507714D01*
X3595776Y-13612476D01*
X3595776Y-13507714D02*
X3605300Y-13488667D01*
X3624348Y-13479143D01*
X3652919Y-13479143D01*
X3671967Y-13488667D01*
X3681490Y-13507714D01*
X3681490Y-13612476D01*
X3776728Y-13612476D02*
X3776728Y-13479143D01*
X3776728Y-13498190D02*
X3786252Y-13488667D01*
X3805300Y-13479143D01*
X3833871Y-13479143D01*
X3852919Y-13488667D01*
X3862443Y-13507714D01*
X3862443Y-13612476D01*
X3862443Y-13507714D02*
X3871967Y-13488667D01*
X3891014Y-13479143D01*
X3919586Y-13479143D01*
X3938633Y-13488667D01*
X3948157Y-13507714D01*
X3948157Y-13612476D01*
X4338633Y-13402952D02*
X4167205Y-13660095D01*
X4595776Y-13412476D02*
X4614824Y-13412476D01*
X4633871Y-13422000D01*
X4643395Y-13431524D01*
X4652919Y-13450571D01*
X4662443Y-13488667D01*
X4662443Y-13536286D01*
X4652919Y-13574381D01*
X4643395Y-13593428D01*
X4633871Y-13602952D01*
X4614824Y-13612476D01*
X4595776Y-13612476D01*
X4576729Y-13602952D01*
X4567205Y-13593428D01*
X4557681Y-13574381D01*
X4548157Y-13536286D01*
X4548157Y-13488667D01*
X4557681Y-13450571D01*
X4567205Y-13431524D01*
X4576729Y-13422000D01*
X4595776Y-13412476D01*
X4748157Y-13593428D02*
X4757681Y-13602952D01*
X4748157Y-13612476D01*
X4738633Y-13602952D01*
X4748157Y-13593428D01*
X4748157Y-13612476D01*
X4881490Y-13412476D02*
X4900538Y-13412476D01*
X4919586Y-13422000D01*
X4929110Y-13431524D01*
X4938633Y-13450571D01*
X4948157Y-13488667D01*
X4948157Y-13536286D01*
X4938633Y-13574381D01*
X4929110Y-13593428D01*
X4919586Y-13602952D01*
X4900538Y-13612476D01*
X4881490Y-13612476D01*
X4862443Y-13602952D01*
X4852919Y-13593428D01*
X4843395Y-13574381D01*
X4833871Y-13536286D01*
X4833871Y-13488667D01*
X4843395Y-13450571D01*
X4852919Y-13431524D01*
X4862443Y-13422000D01*
X4881490Y-13412476D01*
X5119586Y-13479143D02*
X5119586Y-13612476D01*
X5071967Y-13402952D02*
X5024348Y-13545809D01*
X5148157Y-13545809D01*
X5205300Y-13412476D02*
X5329110Y-13412476D01*
X5262443Y-13488667D01*
X5291014Y-13488667D01*
X5310062Y-13498190D01*
X5319586Y-13507714D01*
X5329110Y-13526762D01*
X5329110Y-13574381D01*
X5319586Y-13593428D01*
X5310062Y-13602952D01*
X5291014Y-13612476D01*
X5233871Y-13612476D01*
X5214824Y-13602952D01*
X5205300Y-13593428D01*
X5395776Y-13412476D02*
X5519586Y-13412476D01*
X5452919Y-13488667D01*
X5481490Y-13488667D01*
X5500538Y-13498190D01*
X5510062Y-13507714D01*
X5519586Y-13526762D01*
X5519586Y-13574381D01*
X5510062Y-13593428D01*
X5500538Y-13602952D01*
X5481490Y-13612476D01*
X5424348Y-13612476D01*
X5405300Y-13602952D01*
X5395776Y-13593428D01*
X5595776Y-13412476D02*
X5595776Y-13450571D01*
X5671967Y-13412476D02*
X5671967Y-13450571D01*
X5967205Y-13688667D02*
X5957681Y-13679143D01*
X5938633Y-13650571D01*
X5929109Y-13631524D01*
X5919586Y-13602952D01*
X5910062Y-13555333D01*
X5910062Y-13517238D01*
X5919586Y-13469619D01*
X5929109Y-13441048D01*
X5938633Y-13422000D01*
X5957681Y-13393428D01*
X5967205Y-13383905D01*
X6148157Y-13612476D02*
X6033871Y-13612476D01*
X6091014Y-13612476D02*
X6091014Y-13412476D01*
X6071967Y-13441048D01*
X6052919Y-13460095D01*
X6033871Y-13469619D01*
X6271967Y-13412476D02*
X6291014Y-13412476D01*
X6310062Y-13422000D01*
X6319586Y-13431524D01*
X6329109Y-13450571D01*
X6338633Y-13488667D01*
X6338633Y-13536286D01*
X6329109Y-13574381D01*
X6319586Y-13593428D01*
X6310062Y-13602952D01*
X6291014Y-13612476D01*
X6271967Y-13612476D01*
X6252919Y-13602952D01*
X6243395Y-13593428D01*
X6233871Y-13574381D01*
X6224348Y-13536286D01*
X6224348Y-13488667D01*
X6233871Y-13450571D01*
X6243395Y-13431524D01*
X6252919Y-13422000D01*
X6271967Y-13412476D01*
X6576728Y-13612476D02*
X6576728Y-13412476D01*
X6662443Y-13612476D02*
X6662443Y-13507714D01*
X6652919Y-13488667D01*
X6633871Y-13479143D01*
X6605300Y-13479143D01*
X6586252Y-13488667D01*
X6576728Y-13498190D01*
X6786252Y-13612476D02*
X6767205Y-13602952D01*
X6757681Y-13593428D01*
X6748157Y-13574381D01*
X6748157Y-13517238D01*
X6757681Y-13498190D01*
X6767205Y-13488667D01*
X6786252Y-13479143D01*
X6814824Y-13479143D01*
X6833871Y-13488667D01*
X6843395Y-13498190D01*
X6852919Y-13517238D01*
X6852919Y-13574381D01*
X6843395Y-13593428D01*
X6833871Y-13602952D01*
X6814824Y-13612476D01*
X6786252Y-13612476D01*
X6967205Y-13612476D02*
X6948157Y-13602952D01*
X6938633Y-13583905D01*
X6938633Y-13412476D01*
X7119586Y-13602952D02*
X7100538Y-13612476D01*
X7062443Y-13612476D01*
X7043395Y-13602952D01*
X7033871Y-13583905D01*
X7033871Y-13507714D01*
X7043395Y-13488667D01*
X7062443Y-13479143D01*
X7100538Y-13479143D01*
X7119586Y-13488667D01*
X7129109Y-13507714D01*
X7129109Y-13526762D01*
X7033871Y-13545809D01*
X7205300Y-13602952D02*
X7224348Y-13612476D01*
X7262443Y-13612476D01*
X7281490Y-13602952D01*
X7291014Y-13583905D01*
X7291014Y-13574381D01*
X7281490Y-13555333D01*
X7262443Y-13545809D01*
X7233871Y-13545809D01*
X7214824Y-13536286D01*
X7205300Y-13517238D01*
X7205300Y-13507714D01*
X7214824Y-13488667D01*
X7233871Y-13479143D01*
X7262443Y-13479143D01*
X7281490Y-13488667D01*
X7357681Y-13688667D02*
X7367205Y-13679143D01*
X7386252Y-13650571D01*
X7395776Y-13631524D01*
X7405300Y-13602952D01*
X7414824Y-13555333D01*
X7414824Y-13517238D01*
X7405300Y-13469619D01*
X7395776Y-13441048D01*
X7386252Y-13422000D01*
X7367205Y-13393428D01*
X7357681Y-13383905D01*
D17*
X2275300Y-13726000D02*
X2395300Y-13846000D01*
X2395300Y-13726000D02*
X2275300Y-13846000D01*
X2335300Y-13726000D02*
X2335300Y-13846000D01*
X2275300Y-13786000D02*
X2395300Y-13786000D01*
D11*
X2757681Y-13876476D02*
X2643395Y-13876476D01*
X2700538Y-13876476D02*
X2700538Y-13676476D01*
X2681490Y-13705048D01*
X2662443Y-13724095D01*
X2643395Y-13733619D01*
X2843395Y-13857428D02*
X2852919Y-13866952D01*
X2843395Y-13876476D01*
X2833871Y-13866952D01*
X2843395Y-13857428D01*
X2843395Y-13876476D01*
X2929109Y-13695524D02*
X2938633Y-13686000D01*
X2957681Y-13676476D01*
X3005300Y-13676476D01*
X3024348Y-13686000D01*
X3033871Y-13695524D01*
X3043395Y-13714571D01*
X3043395Y-13733619D01*
X3033871Y-13762190D01*
X2919586Y-13876476D01*
X3043395Y-13876476D01*
X3167205Y-13676476D02*
X3186252Y-13676476D01*
X3205300Y-13686000D01*
X3214824Y-13695524D01*
X3224348Y-13714571D01*
X3233871Y-13752667D01*
X3233871Y-13800286D01*
X3224348Y-13838381D01*
X3214824Y-13857428D01*
X3205300Y-13866952D01*
X3186252Y-13876476D01*
X3167205Y-13876476D01*
X3148157Y-13866952D01*
X3138633Y-13857428D01*
X3129109Y-13838381D01*
X3119586Y-13800286D01*
X3119586Y-13752667D01*
X3129109Y-13714571D01*
X3138633Y-13695524D01*
X3148157Y-13686000D01*
X3167205Y-13676476D01*
X3357681Y-13676476D02*
X3376728Y-13676476D01*
X3395776Y-13686000D01*
X3405300Y-13695524D01*
X3414824Y-13714571D01*
X3424348Y-13752667D01*
X3424348Y-13800286D01*
X3414824Y-13838381D01*
X3405300Y-13857428D01*
X3395776Y-13866952D01*
X3376728Y-13876476D01*
X3357681Y-13876476D01*
X3338633Y-13866952D01*
X3329109Y-13857428D01*
X3319586Y-13838381D01*
X3310062Y-13800286D01*
X3310062Y-13752667D01*
X3319586Y-13714571D01*
X3329109Y-13695524D01*
X3338633Y-13686000D01*
X3357681Y-13676476D01*
X3510062Y-13876476D02*
X3510062Y-13743143D01*
X3510062Y-13762190D02*
X3519586Y-13752667D01*
X3538633Y-13743143D01*
X3567205Y-13743143D01*
X3586252Y-13752667D01*
X3595776Y-13771714D01*
X3595776Y-13876476D01*
X3595776Y-13771714D02*
X3605300Y-13752667D01*
X3624348Y-13743143D01*
X3652919Y-13743143D01*
X3671967Y-13752667D01*
X3681490Y-13771714D01*
X3681490Y-13876476D01*
X3776728Y-13876476D02*
X3776728Y-13743143D01*
X3776728Y-13762190D02*
X3786252Y-13752667D01*
X3805300Y-13743143D01*
X3833871Y-13743143D01*
X3852919Y-13752667D01*
X3862443Y-13771714D01*
X3862443Y-13876476D01*
X3862443Y-13771714D02*
X3871967Y-13752667D01*
X3891014Y-13743143D01*
X3919586Y-13743143D01*
X3938633Y-13752667D01*
X3948157Y-13771714D01*
X3948157Y-13876476D01*
X4338633Y-13666952D02*
X4167205Y-13924095D01*
X4595776Y-13676476D02*
X4614824Y-13676476D01*
X4633871Y-13686000D01*
X4643395Y-13695524D01*
X4652919Y-13714571D01*
X4662443Y-13752667D01*
X4662443Y-13800286D01*
X4652919Y-13838381D01*
X4643395Y-13857428D01*
X4633871Y-13866952D01*
X4614824Y-13876476D01*
X4595776Y-13876476D01*
X4576729Y-13866952D01*
X4567205Y-13857428D01*
X4557681Y-13838381D01*
X4548157Y-13800286D01*
X4548157Y-13752667D01*
X4557681Y-13714571D01*
X4567205Y-13695524D01*
X4576729Y-13686000D01*
X4595776Y-13676476D01*
X4748157Y-13857428D02*
X4757681Y-13866952D01*
X4748157Y-13876476D01*
X4738633Y-13866952D01*
X4748157Y-13857428D01*
X4748157Y-13876476D01*
X4881490Y-13676476D02*
X4900538Y-13676476D01*
X4919586Y-13686000D01*
X4929110Y-13695524D01*
X4938633Y-13714571D01*
X4948157Y-13752667D01*
X4948157Y-13800286D01*
X4938633Y-13838381D01*
X4929110Y-13857428D01*
X4919586Y-13866952D01*
X4900538Y-13876476D01*
X4881490Y-13876476D01*
X4862443Y-13866952D01*
X4852919Y-13857428D01*
X4843395Y-13838381D01*
X4833871Y-13800286D01*
X4833871Y-13752667D01*
X4843395Y-13714571D01*
X4852919Y-13695524D01*
X4862443Y-13686000D01*
X4881490Y-13676476D01*
X5119586Y-13743143D02*
X5119586Y-13876476D01*
X5071967Y-13666952D02*
X5024348Y-13809809D01*
X5148157Y-13809809D01*
X5205300Y-13676476D02*
X5338633Y-13676476D01*
X5252919Y-13876476D01*
X5405300Y-13695524D02*
X5414824Y-13686000D01*
X5433871Y-13676476D01*
X5481490Y-13676476D01*
X5500538Y-13686000D01*
X5510062Y-13695524D01*
X5519586Y-13714571D01*
X5519586Y-13733619D01*
X5510062Y-13762190D01*
X5395776Y-13876476D01*
X5519586Y-13876476D01*
X5595776Y-13676476D02*
X5595776Y-13714571D01*
X5671967Y-13676476D02*
X5671967Y-13714571D01*
X5967205Y-13952667D02*
X5957681Y-13943143D01*
X5938633Y-13914571D01*
X5929109Y-13895524D01*
X5919586Y-13866952D01*
X5910062Y-13819333D01*
X5910062Y-13781238D01*
X5919586Y-13733619D01*
X5929109Y-13705048D01*
X5938633Y-13686000D01*
X5957681Y-13657428D01*
X5967205Y-13647905D01*
X6148157Y-13876476D02*
X6033871Y-13876476D01*
X6091014Y-13876476D02*
X6091014Y-13676476D01*
X6071967Y-13705048D01*
X6052919Y-13724095D01*
X6033871Y-13733619D01*
X6214824Y-13676476D02*
X6348157Y-13676476D01*
X6262443Y-13876476D01*
X6576728Y-13876476D02*
X6576728Y-13676476D01*
X6662443Y-13876476D02*
X6662443Y-13771714D01*
X6652919Y-13752667D01*
X6633871Y-13743143D01*
X6605300Y-13743143D01*
X6586252Y-13752667D01*
X6576728Y-13762190D01*
X6786252Y-13876476D02*
X6767205Y-13866952D01*
X6757681Y-13857428D01*
X6748157Y-13838381D01*
X6748157Y-13781238D01*
X6757681Y-13762190D01*
X6767205Y-13752667D01*
X6786252Y-13743143D01*
X6814824Y-13743143D01*
X6833871Y-13752667D01*
X6843395Y-13762190D01*
X6852919Y-13781238D01*
X6852919Y-13838381D01*
X6843395Y-13857428D01*
X6833871Y-13866952D01*
X6814824Y-13876476D01*
X6786252Y-13876476D01*
X6967205Y-13876476D02*
X6948157Y-13866952D01*
X6938633Y-13847905D01*
X6938633Y-13676476D01*
X7119586Y-13866952D02*
X7100538Y-13876476D01*
X7062443Y-13876476D01*
X7043395Y-13866952D01*
X7033871Y-13847905D01*
X7033871Y-13771714D01*
X7043395Y-13752667D01*
X7062443Y-13743143D01*
X7100538Y-13743143D01*
X7119586Y-13752667D01*
X7129109Y-13771714D01*
X7129109Y-13790762D01*
X7033871Y-13809809D01*
X7205300Y-13866952D02*
X7224348Y-13876476D01*
X7262443Y-13876476D01*
X7281490Y-13866952D01*
X7291014Y-13847905D01*
X7291014Y-13838381D01*
X7281490Y-13819333D01*
X7262443Y-13809809D01*
X7233871Y-13809809D01*
X7214824Y-13800286D01*
X7205300Y-13781238D01*
X7205300Y-13771714D01*
X7214824Y-13752667D01*
X7233871Y-13743143D01*
X7262443Y-13743143D01*
X7281490Y-13752667D01*
X7357681Y-13952667D02*
X7367205Y-13943143D01*
X7386252Y-13914571D01*
X7395776Y-13895524D01*
X7405300Y-13866952D01*
X7414824Y-13819333D01*
X7414824Y-13781238D01*
X7405300Y-13733619D01*
X7395776Y-13705048D01*
X7386252Y-13686000D01*
X7367205Y-13657428D01*
X7357681Y-13647905D01*
M02*
