M48
; DRILL file {KiCad (6.0.7)} date Thu Sep 22 21:01:37 2022
; FORMAT={-:-/ absolute / metric / decimal}
; #@! TF.CreationDate,2022-09-22T21:01:37-04:00
; #@! TF.GenerationSoftware,Kicad,Pcbnew,(6.0.7)
; #@! TF.FileFunction,MixedPlating,1,2
FMAT,2
METRIC
; #@! TA.AperFunction,Plated,PTH,ViaDrill
T1C0.400
; #@! TA.AperFunction,Plated,PTH,ComponentDrill
T2C0.700
; #@! TA.AperFunction,Plated,PTH,ComponentDrill
T3C0.750
; #@! TA.AperFunction,Plated,PTH,ComponentDrill
T4C0.800
; #@! TA.AperFunction,Plated,PTH,ComponentDrill
T5C1.000
; #@! TA.AperFunction,Plated,PTH,ComponentDrill
T6C1.100
; #@! TA.AperFunction,Plated,PTH,ComponentDrill
T7C1.200
%
G90
G05
T1
X95.25Y-105.41
X101.854Y-88.646
T2
X76.454Y-72.39
X78.994Y-74.93
X81.534Y-72.39
T3
X81.894Y-36.576
X81.894Y-37.846
X81.894Y-39.116
T4
X44.968Y-79.248
X46.99Y-31.75
X46.99Y-34.29
X46.99Y-36.83
X46.99Y-39.37
X47.508Y-79.248
X50.048Y-79.248
X54.61Y-31.75
X54.61Y-34.29
X54.61Y-36.83
X54.61Y-39.37
X55.118Y-46.482
X56.398Y-77.226
X56.398Y-79.766
X56.398Y-82.306
X56.398Y-84.846
X57.618Y-46.482
X59.944Y-34.046
X59.944Y-36.586
X59.944Y-39.126
X64.018Y-77.226
X64.018Y-79.766
X64.018Y-82.306
X64.018Y-84.846
X66.842Y-64.516
X68.834Y-19.227
X68.834Y-21.727
X69.342Y-64.516
X70.866Y-82.286
X70.866Y-84.826
X70.866Y-87.366
X80.772Y-19.344
X80.772Y-21.844
X81.544Y-57.912
X84.084Y-57.912
X86.624Y-57.912
X106.68Y-75.732
X106.68Y-78.232
X111.252Y-36.202
X113.792Y-36.202
X116.332Y-36.202
X116.509Y-52.07
X116.586Y-27.218
X116.586Y-29.718
X119.009Y-52.07
T5
X29.464Y-79.502
X29.51Y-46.482
X30.734Y-31.237
X30.734Y-33.777
X32.004Y-79.502
X32.05Y-46.482
X34.544Y-79.502
X34.59Y-46.482
X37.084Y-79.502
X37.13Y-46.482
X48.768Y-104.902
X48.768Y-107.442
X55.372Y-99.314
X55.372Y-101.854
X55.372Y-104.394
X55.372Y-106.934
X65.786Y-39.873
X65.786Y-42.413
X88.392Y-99.36
X88.392Y-101.9
X88.392Y-104.44
X88.392Y-106.98
X92.471Y-19.812
X95.011Y-19.812
X97.551Y-19.812
X112.263Y-101.6
X114.803Y-101.6
T6
X70.104Y-26.995
X72.644Y-26.995
X75.184Y-26.995
X84.836Y-26.162
X94.996Y-26.162
X109.728Y-20.828
X109.728Y-30.988
X112.268Y-110.998
X114.808Y-110.998
X117.348Y-110.998
T7
X57.164Y-52.959
X60.466Y-57.277
X60.72Y-62.611
X89.964Y-38.966
X89.964Y-51.966
X90.678Y-71.374
X90.678Y-84.374
X95.964Y-38.966
X95.964Y-51.966
X96.678Y-71.374
X96.678Y-84.374
X113.03Y-84.836
X113.03Y-97.836
X117.348Y-61.842
X117.348Y-76.842
X119.03Y-84.836
X119.03Y-97.836
T0
M30
