%TF.GenerationSoftware,KiCad,Pcbnew,(6.0.7)*%
%TF.CreationDate,2022-09-22T21:01:33-04:00*%
%TF.ProjectId,Bitx40pa,42697478-3430-4706-912e-6b696361645f,rev?*%
%TF.SameCoordinates,Original*%
%TF.FileFunction,Soldermask,Bot*%
%TF.FilePolarity,Negative*%
%FSLAX46Y46*%
G04 Gerber Fmt 4.6, Leading zero omitted, Abs format (unit mm)*
G04 Created by KiCad (PCBNEW (6.0.7)) date 2022-09-22 21:01:33*
%MOMM*%
%LPD*%
G01*
G04 APERTURE LIST*
%ADD10R,1.700000X1.700000*%
%ADD11O,1.700000X1.700000*%
%ADD12R,1.600000X1.600000*%
%ADD13C,1.600000*%
%ADD14C,3.000000*%
%ADD15C,2.400000*%
%ADD16C,1.440000*%
%ADD17O,1.600000X1.200000*%
%ADD18O,1.200000X1.200000*%
%ADD19R,2.200000X2.200000*%
%ADD20O,2.200000X2.200000*%
%ADD21O,1.600000X1.600000*%
%ADD22R,1.905000X2.000000*%
%ADD23O,1.905000X2.000000*%
%ADD24R,1.500000X1.050000*%
%ADD25O,1.500000X1.050000*%
G04 APERTURE END LIST*
D10*
%TO.C,J4*%
X112263000Y-101600000D03*
D11*
X114803000Y-101600000D03*
%TD*%
D12*
%TO.C,C27*%
X116586000Y-29718000D03*
D13*
X116586000Y-27218000D03*
%TD*%
D14*
%TO.C,T3*%
X113030000Y-84836000D03*
X113030000Y-97836000D03*
X119030000Y-84836000D03*
X119030000Y-97836000D03*
%TD*%
%TO.C,T2*%
X90678000Y-71374000D03*
X90678000Y-84374000D03*
X96678000Y-71374000D03*
X96678000Y-84374000D03*
%TD*%
%TO.C,T1*%
X89964000Y-38966000D03*
X89964000Y-51966000D03*
X95964000Y-38966000D03*
X95964000Y-51966000D03*
%TD*%
D10*
%TO.C,U1*%
X37130000Y-46482000D03*
D11*
X34590000Y-46482000D03*
X32050000Y-46482000D03*
X29510000Y-46482000D03*
X29464000Y-79502000D03*
X32004000Y-79502000D03*
X34544000Y-79502000D03*
D10*
X37084000Y-79502000D03*
%TD*%
D14*
%TO.C,TR1*%
X57164000Y-52959000D03*
X60466000Y-57277000D03*
X60720000Y-62611000D03*
%TD*%
D12*
%TO.C,C23*%
X119008700Y-52070000D03*
D13*
X116508700Y-52070000D03*
%TD*%
D15*
%TO.C,L1*%
X117348000Y-61842000D03*
X117348000Y-76842000D03*
%TD*%
D12*
%TO.C,C37*%
X80772000Y-21844000D03*
D13*
X80772000Y-19344000D03*
%TD*%
D10*
%TO.C,J1*%
X30734000Y-31237000D03*
D11*
X30734000Y-33777000D03*
%TD*%
D16*
%TO.C,RV4*%
X111252000Y-36202000D03*
X113792000Y-36202000D03*
X116332000Y-36202000D03*
%TD*%
D12*
%TO.C,C38*%
X68834000Y-21726700D03*
D13*
X68834000Y-19226700D03*
%TD*%
D16*
%TO.C,RV5*%
X59944000Y-39126000D03*
X59944000Y-36586000D03*
X59944000Y-34046000D03*
%TD*%
D10*
%TO.C,U3*%
X88392000Y-106980000D03*
D11*
X88392000Y-104440000D03*
X88392000Y-101900000D03*
X88392000Y-99360000D03*
X55372000Y-99314000D03*
X55372000Y-101854000D03*
X55372000Y-104394000D03*
D10*
X55372000Y-106934000D03*
%TD*%
D12*
%TO.C,C22*%
X106680000Y-78232000D03*
D13*
X106680000Y-75732000D03*
%TD*%
D17*
%TO.C,Q2*%
X76454000Y-72390000D03*
D18*
X78994000Y-74930000D03*
X81534000Y-72390000D03*
%TD*%
D19*
%TO.C,D4*%
X84836000Y-26162000D03*
D20*
X94996000Y-26162000D03*
%TD*%
D16*
%TO.C,RV1*%
X50048000Y-79248000D03*
X47508000Y-79248000D03*
X44968000Y-79248000D03*
%TD*%
D12*
%TO.C,U2*%
X56398000Y-77226000D03*
D21*
X56398000Y-79766000D03*
X56398000Y-82306000D03*
X56398000Y-84846000D03*
X64018000Y-84846000D03*
X64018000Y-82306000D03*
X64018000Y-79766000D03*
X64018000Y-77226000D03*
%TD*%
D10*
%TO.C,J7*%
X92471000Y-19812000D03*
D11*
X95011000Y-19812000D03*
X97551000Y-19812000D03*
%TD*%
D12*
%TO.C,C8*%
X69342000Y-64516000D03*
D13*
X66842000Y-64516000D03*
%TD*%
D22*
%TO.C,U5*%
X75184000Y-26995000D03*
D23*
X72644000Y-26995000D03*
X70104000Y-26995000D03*
%TD*%
D12*
%TO.C,U4*%
X46990000Y-31750000D03*
D21*
X46990000Y-34290000D03*
X46990000Y-36830000D03*
X46990000Y-39370000D03*
X54610000Y-39370000D03*
X54610000Y-36830000D03*
X54610000Y-34290000D03*
X54610000Y-31750000D03*
%TD*%
D12*
%TO.C,C31*%
X55118000Y-46482000D03*
D13*
X57618000Y-46482000D03*
%TD*%
D19*
%TO.C,D1*%
X109728000Y-30988000D03*
D20*
X109728000Y-20828000D03*
%TD*%
D16*
%TO.C,RV3*%
X86624000Y-57912000D03*
X84084000Y-57912000D03*
X81544000Y-57912000D03*
%TD*%
D10*
%TO.C,J2*%
X65786000Y-39873000D03*
D11*
X65786000Y-42413000D03*
%TD*%
D10*
%TO.C,J3*%
X48768000Y-107442000D03*
D11*
X48768000Y-104902000D03*
%TD*%
D16*
%TO.C,RV2*%
X70866000Y-82286000D03*
X70866000Y-84826000D03*
X70866000Y-87366000D03*
%TD*%
D22*
%TO.C,Q4*%
X112268000Y-110998000D03*
D23*
X114808000Y-110998000D03*
X117348000Y-110998000D03*
%TD*%
D24*
%TO.C,Q1*%
X81894000Y-39116000D03*
D25*
X81894000Y-37846000D03*
X81894000Y-36576000D03*
%TD*%
M02*
