%TF.GenerationSoftware,KiCad,Pcbnew,(6.0.7)*%
%TF.CreationDate,2023-01-05T20:50:53-05:00*%
%TF.ProjectId,Phoenix612_Stage_1_PA_Testing_v1,50686f65-6e69-4783-9631-325f53746167,rev?*%
%TF.SameCoordinates,Original*%
%TF.FileFunction,Copper,L2,Bot*%
%TF.FilePolarity,Positive*%
%FSLAX46Y46*%
G04 Gerber Fmt 4.6, Leading zero omitted, Abs format (unit mm)*
G04 Created by KiCad (PCBNEW (6.0.7)) date 2023-01-05 20:50:53*
%MOMM*%
%LPD*%
G01*
G04 APERTURE LIST*
%TA.AperFunction,ComponentPad*%
%ADD10R,2.200000X2.200000*%
%TD*%
%TA.AperFunction,ComponentPad*%
%ADD11O,2.200000X2.200000*%
%TD*%
%TA.AperFunction,ComponentPad*%
%ADD12C,1.400000*%
%TD*%
%TA.AperFunction,ComponentPad*%
%ADD13R,1.700000X1.700000*%
%TD*%
%TA.AperFunction,ComponentPad*%
%ADD14O,1.700000X1.700000*%
%TD*%
%TA.AperFunction,ComponentPad*%
%ADD15R,1.600000X1.600000*%
%TD*%
%TA.AperFunction,ComponentPad*%
%ADD16O,1.600000X1.600000*%
%TD*%
%TA.AperFunction,ComponentPad*%
%ADD17C,1.440000*%
%TD*%
%TA.AperFunction,ComponentPad*%
%ADD18C,1.600000*%
%TD*%
%TA.AperFunction,ComponentPad*%
%ADD19C,2.050000*%
%TD*%
%TA.AperFunction,ComponentPad*%
%ADD20C,2.250000*%
%TD*%
%TA.AperFunction,ComponentPad*%
%ADD21R,1.800000X1.800000*%
%TD*%
%TA.AperFunction,ComponentPad*%
%ADD22C,1.800000*%
%TD*%
%TA.AperFunction,Conductor*%
%ADD23C,0.250000*%
%TD*%
G04 APERTURE END LIST*
D10*
%TO.P,D1,1,K*%
%TO.N,TX12V*%
X79616300Y-33464500D03*
D11*
%TO.P,D1,2,A*%
%TO.N,Net-(D1-Pad2)*%
X79616300Y-23304500D03*
%TD*%
D12*
%TO.P,TP1,1,1*%
%TO.N,Net-(R8-Pad2)*%
X43345100Y-55435500D03*
%TD*%
D13*
%TO.P,J3,1,Pin_1*%
%TO.N,Net-(R14-Pad2)*%
X85661500Y-45905500D03*
D14*
%TO.P,J3,2,Pin_2*%
%TO.N,Net-(R17-Pad1)*%
X85661500Y-48445500D03*
%TD*%
D15*
%TO.P,U1,1,OutA*%
%TO.N,Net-(R8-Pad2)*%
X45844300Y-41145300D03*
D16*
%TO.P,U1,2,InA-*%
%TO.N,Net-(R8-Pad1)*%
X45844300Y-43685300D03*
%TO.P,U1,3,InA+*%
%TO.N,Net-(R3-Pad2)*%
X45844300Y-46225300D03*
%TO.P,U1,4,V-*%
%TO.N,GND*%
X45844300Y-48765300D03*
%TO.P,U1,5,InB+*%
%TO.N,Net-(R9-Pad2)*%
X53464300Y-48765300D03*
%TO.P,U1,6,InB-*%
%TO.N,Net-(R11-Pad2)*%
X53464300Y-46225300D03*
%TO.P,U1,7,OutB*%
%TO.N,Net-(R11-Pad1)*%
X53464300Y-43685300D03*
%TO.P,U1,8,V+*%
%TO.N,Net-(C2-Pad1)*%
X53464300Y-41145300D03*
%TD*%
D13*
%TO.P,J2,1,Pin_1*%
%TO.N,Net-(R11-Pad1)*%
X75730100Y-43390900D03*
D14*
%TO.P,J2,2,Pin_2*%
%TO.N,Net-(R14-Pad2)*%
X75730100Y-45930900D03*
%TD*%
D17*
%TO.P,RV3,1,1*%
%TO.N,Net-(R14-Pad1)*%
X95643700Y-41170700D03*
%TO.P,RV3,2,2*%
%TO.N,Net-(R13-Pad1)*%
X95643700Y-38630700D03*
%TO.P,RV3,3,3*%
X95643700Y-36090700D03*
%TD*%
%TO.P,RV2,1,1*%
%TO.N,Net-(R11-Pad2)*%
X58204100Y-51625500D03*
%TO.P,RV2,2,2*%
%TO.N,Net-(R10-Pad1)*%
X58204100Y-54165500D03*
%TO.P,RV2,3,3*%
X58204100Y-56705500D03*
%TD*%
%TO.P,RV1,1,1*%
%TO.N,Net-(R8-Pad1)*%
X37655500Y-40881300D03*
%TO.P,RV1,2,2*%
%TO.N,Net-(R6-Pad1)*%
X37655500Y-38341300D03*
%TO.P,RV1,3,3*%
X37655500Y-35801300D03*
%TD*%
D15*
%TO.P,C9,1*%
%TO.N,Net-(C10-Pad1)*%
X112931449Y-26758900D03*
D18*
%TO.P,C9,2*%
%TO.N,GND*%
X115431449Y-26758900D03*
%TD*%
D13*
%TO.P,J4,1,Pin_1*%
%TO.N,GND*%
X86296500Y-28841700D03*
D14*
%TO.P,J4,2,Pin_2*%
%TO.N,Net-(D1-Pad2)*%
X86296500Y-26301700D03*
%TO.P,J4,3,Pin_3*%
%TO.N,GND*%
X86296500Y-23761700D03*
%TD*%
D17*
%TO.P,RV4,1,1*%
%TO.N,Net-(R17-Pad2)*%
X118554500Y-50126900D03*
%TO.P,RV4,2,2*%
%TO.N,Net-(R16-Pad1)*%
X118554500Y-52666900D03*
%TO.P,RV4,3,3*%
X118554500Y-55206900D03*
%TD*%
D19*
%TO.P,J1,1,In*%
%TO.N,Net-(C6-Pad1)*%
X23482300Y-44996100D03*
D20*
%TO.P,J1,2,Ext*%
%TO.N,GND*%
X26022300Y-42456100D03*
X20942300Y-42456100D03*
X20942300Y-47536100D03*
X26022300Y-47536100D03*
%TD*%
D21*
%TO.P,D2,1,K*%
%TO.N,Net-(D2-Pad1)*%
X73337500Y-33718500D03*
D22*
%TO.P,D2,2,A*%
%TO.N,TX12V*%
X75877500Y-33718500D03*
%TD*%
D19*
%TO.P,J5,1,In*%
%TO.N,Net-(J5-Pad1)*%
X136232900Y-40347900D03*
D20*
%TO.P,J5,2,Ext*%
%TO.N,GND*%
X133692900Y-37807900D03*
X133692900Y-42887900D03*
X138772900Y-37807900D03*
X138772900Y-42887900D03*
%TD*%
D15*
%TO.P,U2,1,OutA*%
%TO.N,Net-(R14-Pad2)*%
X106296300Y-40027700D03*
D16*
%TO.P,U2,2,InA-*%
%TO.N,Net-(R14-Pad1)*%
X106296300Y-42567700D03*
%TO.P,U2,3,InA+*%
%TO.N,Net-(U2-Pad3)*%
X106296300Y-45107700D03*
%TO.P,U2,4,V-*%
%TO.N,GND*%
X106296300Y-47647700D03*
%TO.P,U2,5,InB+*%
%TO.N,Net-(R15-Pad2)*%
X113916300Y-47647700D03*
%TO.P,U2,6,InB-*%
%TO.N,Net-(R17-Pad2)*%
X113916300Y-45107700D03*
%TO.P,U2,7,OutB*%
%TO.N,Net-(R17-Pad1)*%
X113916300Y-42567700D03*
%TO.P,U2,8,V+*%
%TO.N,Net-(C10-Pad1)*%
X113916300Y-40027700D03*
%TD*%
D15*
%TO.P,C3,1*%
%TO.N,Net-(C2-Pad1)*%
X53463951Y-27520900D03*
D18*
%TO.P,C3,2*%
%TO.N,GND*%
X50963951Y-27520900D03*
%TD*%
D23*
%TO.N,Net-(R14-Pad2)*%
X89954100Y-50198100D02*
X89954100Y-50380900D01*
X107647900Y-40027700D02*
X106296300Y-40027700D01*
X109385100Y-41592500D02*
X107734100Y-39941500D01*
X85661500Y-45905500D02*
X89954100Y-50198100D01*
X109385100Y-49060100D02*
X109385100Y-41592500D01*
X107734100Y-39941500D02*
X107647900Y-40027700D01*
X108064300Y-50380900D02*
X109385100Y-49060100D01*
X89954100Y-50380900D02*
X108064300Y-50380900D01*
%TO.N,Net-(R17-Pad1)*%
X111823500Y-49466500D02*
X111823500Y-42786300D01*
X88435100Y-51219100D02*
X110070900Y-51219100D01*
X85661500Y-48445500D02*
X88435100Y-51219100D01*
X110070900Y-51219100D02*
X111823500Y-49466500D01*
X112042100Y-42567700D02*
X113916300Y-42567700D01*
X111823500Y-42786300D02*
X112042100Y-42567700D01*
%TD*%
M02*
