M48
; DRILL file {KiCad (6.0.7)} date Thu Jan  5 20:45:31 2023
; FORMAT={-:-/ absolute / metric / decimal}
; #@! TF.CreationDate,2023-01-05T20:45:31-05:00
; #@! TF.GenerationSoftware,Kicad,Pcbnew,(6.0.7)
; #@! TF.FileFunction,MixedPlating,1,2
FMAT,2
METRIC
; #@! TA.AperFunction,Plated,PTH,ComponentDrill
T1C0.700
; #@! TA.AperFunction,Plated,PTH,ComponentDrill
T2C0.800
; #@! TA.AperFunction,Plated,PTH,ComponentDrill
T3C0.900
; #@! TA.AperFunction,Plated,PTH,ComponentDrill
T4C1.000
; #@! TA.AperFunction,Plated,PTH,ComponentDrill
T5C1.100
; #@! TA.AperFunction,Plated,PTH,ComponentDrill
T6C1.500
; #@! TA.AperFunction,Plated,PTH,ComponentDrill
T7C1.700
%
G90
G05
T1
X43.345Y-55.435
T2
X37.655Y-35.801
X37.655Y-38.341
X37.655Y-40.881
X45.844Y-41.145
X45.844Y-43.685
X45.844Y-46.225
X45.844Y-48.765
X50.964Y-27.521
X53.464Y-27.521
X53.464Y-41.145
X53.464Y-43.685
X53.464Y-46.225
X53.464Y-48.765
X58.204Y-51.625
X58.204Y-54.165
X58.204Y-56.706
X95.644Y-36.091
X95.644Y-38.631
X95.644Y-41.171
X106.296Y-40.028
X106.296Y-42.568
X106.296Y-45.108
X106.296Y-47.648
X112.931Y-26.759
X113.916Y-40.028
X113.916Y-42.568
X113.916Y-45.108
X113.916Y-47.648
X115.431Y-26.759
X118.554Y-50.127
X118.554Y-52.667
X118.554Y-55.207
T3
X73.337Y-33.718
X75.877Y-33.718
T4
X75.73Y-43.391
X75.73Y-45.931
X85.661Y-45.905
X85.661Y-48.445
X86.296Y-23.762
X86.296Y-26.302
X86.296Y-28.842
T5
X79.616Y-23.304
X79.616Y-33.465
T6
X23.482Y-44.996
X136.233Y-40.348
T7
X20.942Y-42.456
X20.942Y-47.536
X26.022Y-42.456
X26.022Y-47.536
X133.693Y-37.808
X133.693Y-42.888
X138.773Y-37.808
X138.773Y-42.888
T0
M30
