%TF.GenerationSoftware,KiCad,Pcbnew,(6.0.7)*%
%TF.CreationDate,2023-01-05T20:50:53-05:00*%
%TF.ProjectId,Phoenix612_Stage_1_PA_Testing_v1,50686f65-6e69-4783-9631-325f53746167,rev?*%
%TF.SameCoordinates,Original*%
%TF.FileFunction,Legend,Top*%
%TF.FilePolarity,Positive*%
%FSLAX46Y46*%
G04 Gerber Fmt 4.6, Leading zero omitted, Abs format (unit mm)*
G04 Created by KiCad (PCBNEW (6.0.7)) date 2023-01-05 20:50:53*
%MOMM*%
%LPD*%
G01*
G04 APERTURE LIST*
%ADD10C,0.150000*%
%ADD11C,0.120000*%
%ADD12C,0.127000*%
G04 APERTURE END LIST*
D10*
X118695557Y-22012080D02*
X118695557Y-21012080D01*
X119076509Y-21012080D01*
X119171747Y-21059700D01*
X119219366Y-21107319D01*
X119266985Y-21202557D01*
X119266985Y-21345414D01*
X119219366Y-21440652D01*
X119171747Y-21488271D01*
X119076509Y-21535890D01*
X118695557Y-21535890D01*
X119695557Y-22012080D02*
X119695557Y-21012080D01*
X120124128Y-22012080D02*
X120124128Y-21488271D01*
X120076509Y-21393033D01*
X119981271Y-21345414D01*
X119838414Y-21345414D01*
X119743176Y-21393033D01*
X119695557Y-21440652D01*
X120743176Y-22012080D02*
X120647938Y-21964461D01*
X120600319Y-21916842D01*
X120552699Y-21821604D01*
X120552699Y-21535890D01*
X120600319Y-21440652D01*
X120647938Y-21393033D01*
X120743176Y-21345414D01*
X120886033Y-21345414D01*
X120981271Y-21393033D01*
X121028890Y-21440652D01*
X121076509Y-21535890D01*
X121076509Y-21821604D01*
X121028890Y-21916842D01*
X120981271Y-21964461D01*
X120886033Y-22012080D01*
X120743176Y-22012080D01*
X121886033Y-21964461D02*
X121790795Y-22012080D01*
X121600319Y-22012080D01*
X121505080Y-21964461D01*
X121457461Y-21869223D01*
X121457461Y-21488271D01*
X121505080Y-21393033D01*
X121600319Y-21345414D01*
X121790795Y-21345414D01*
X121886033Y-21393033D01*
X121933652Y-21488271D01*
X121933652Y-21583509D01*
X121457461Y-21678747D01*
X122362223Y-21345414D02*
X122362223Y-22012080D01*
X122362223Y-21440652D02*
X122409842Y-21393033D01*
X122505080Y-21345414D01*
X122647938Y-21345414D01*
X122743176Y-21393033D01*
X122790795Y-21488271D01*
X122790795Y-22012080D01*
X123266985Y-22012080D02*
X123266985Y-21345414D01*
X123266985Y-21012080D02*
X123219366Y-21059700D01*
X123266985Y-21107319D01*
X123314604Y-21059700D01*
X123266985Y-21012080D01*
X123266985Y-21107319D01*
X123647938Y-22012080D02*
X124171747Y-21345414D01*
X123647938Y-21345414D02*
X124171747Y-22012080D01*
X125743176Y-21012080D02*
X125552699Y-21012080D01*
X125457461Y-21059700D01*
X125409842Y-21107319D01*
X125314604Y-21250176D01*
X125266985Y-21440652D01*
X125266985Y-21821604D01*
X125314604Y-21916842D01*
X125362223Y-21964461D01*
X125457461Y-22012080D01*
X125647938Y-22012080D01*
X125743176Y-21964461D01*
X125790795Y-21916842D01*
X125838414Y-21821604D01*
X125838414Y-21583509D01*
X125790795Y-21488271D01*
X125743176Y-21440652D01*
X125647938Y-21393033D01*
X125457461Y-21393033D01*
X125362223Y-21440652D01*
X125314604Y-21488271D01*
X125266985Y-21583509D01*
X126790795Y-22012080D02*
X126219366Y-22012080D01*
X126505080Y-22012080D02*
X126505080Y-21012080D01*
X126409842Y-21154938D01*
X126314604Y-21250176D01*
X126219366Y-21297795D01*
X127171747Y-21107319D02*
X127219366Y-21059700D01*
X127314604Y-21012080D01*
X127552699Y-21012080D01*
X127647938Y-21059700D01*
X127695557Y-21107319D01*
X127743176Y-21202557D01*
X127743176Y-21297795D01*
X127695557Y-21440652D01*
X127124128Y-22012080D01*
X127743176Y-22012080D01*
X128933652Y-22012080D02*
X128933652Y-21012080D01*
X129314604Y-21012080D01*
X129409842Y-21059700D01*
X129457461Y-21107319D01*
X129505080Y-21202557D01*
X129505080Y-21345414D01*
X129457461Y-21440652D01*
X129409842Y-21488271D01*
X129314604Y-21535890D01*
X128933652Y-21535890D01*
X129933652Y-22012080D02*
X129933652Y-21345414D01*
X129933652Y-21535890D02*
X129981271Y-21440652D01*
X130028890Y-21393033D01*
X130124128Y-21345414D01*
X130219366Y-21345414D01*
X130933652Y-21964461D02*
X130838414Y-22012080D01*
X130647938Y-22012080D01*
X130552699Y-21964461D01*
X130505080Y-21869223D01*
X130505080Y-21488271D01*
X130552699Y-21393033D01*
X130647938Y-21345414D01*
X130838414Y-21345414D01*
X130933652Y-21393033D01*
X130981271Y-21488271D01*
X130981271Y-21583509D01*
X130505080Y-21678747D01*
X131838414Y-22012080D02*
X131838414Y-21488271D01*
X131790795Y-21393033D01*
X131695557Y-21345414D01*
X131505080Y-21345414D01*
X131409842Y-21393033D01*
X131838414Y-21964461D02*
X131743176Y-22012080D01*
X131505080Y-22012080D01*
X131409842Y-21964461D01*
X131362223Y-21869223D01*
X131362223Y-21773985D01*
X131409842Y-21678747D01*
X131505080Y-21631128D01*
X131743176Y-21631128D01*
X131838414Y-21583509D01*
X132314604Y-22012080D02*
X132314604Y-21345414D01*
X132314604Y-21440652D02*
X132362223Y-21393033D01*
X132457461Y-21345414D01*
X132600319Y-21345414D01*
X132695557Y-21393033D01*
X132743176Y-21488271D01*
X132743176Y-22012080D01*
X132743176Y-21488271D02*
X132790795Y-21393033D01*
X132886033Y-21345414D01*
X133028890Y-21345414D01*
X133124128Y-21393033D01*
X133171747Y-21488271D01*
X133171747Y-22012080D01*
X133647938Y-21345414D02*
X133647938Y-22345414D01*
X133647938Y-21393033D02*
X133743176Y-21345414D01*
X133933652Y-21345414D01*
X134028890Y-21393033D01*
X134076509Y-21440652D01*
X134124128Y-21535890D01*
X134124128Y-21821604D01*
X134076509Y-21916842D01*
X134028890Y-21964461D01*
X133933652Y-22012080D01*
X133743176Y-22012080D01*
X133647938Y-21964461D01*
X135171747Y-21012080D02*
X135743176Y-21012080D01*
X135457461Y-22012080D02*
X135457461Y-21012080D01*
X136457461Y-21964461D02*
X136362223Y-22012080D01*
X136171747Y-22012080D01*
X136076509Y-21964461D01*
X136028890Y-21869223D01*
X136028890Y-21488271D01*
X136076509Y-21393033D01*
X136171747Y-21345414D01*
X136362223Y-21345414D01*
X136457461Y-21393033D01*
X136505080Y-21488271D01*
X136505080Y-21583509D01*
X136028890Y-21678747D01*
X136886033Y-21964461D02*
X136981271Y-22012080D01*
X137171747Y-22012080D01*
X137266985Y-21964461D01*
X137314604Y-21869223D01*
X137314604Y-21821604D01*
X137266985Y-21726366D01*
X137171747Y-21678747D01*
X137028890Y-21678747D01*
X136933652Y-21631128D01*
X136886033Y-21535890D01*
X136886033Y-21488271D01*
X136933652Y-21393033D01*
X137028890Y-21345414D01*
X137171747Y-21345414D01*
X137266985Y-21393033D01*
X137600319Y-21345414D02*
X137981271Y-21345414D01*
X137743176Y-21012080D02*
X137743176Y-21869223D01*
X137790795Y-21964461D01*
X137886033Y-22012080D01*
X137981271Y-22012080D01*
X138933652Y-21012080D02*
X139266985Y-22012080D01*
X139600319Y-21012080D01*
X140457461Y-22012080D02*
X139886033Y-22012080D01*
X140171747Y-22012080D02*
X140171747Y-21012080D01*
X140076509Y-21154938D01*
X139981271Y-21250176D01*
X139886033Y-21297795D01*
X127005080Y-22622080D02*
X127338414Y-23622080D01*
X127671747Y-22622080D01*
X128005080Y-23098271D02*
X128338414Y-23098271D01*
X128481271Y-23622080D02*
X128005080Y-23622080D01*
X128005080Y-22622080D01*
X128481271Y-22622080D01*
X128814604Y-22622080D02*
X129433652Y-22622080D01*
X129100319Y-23003033D01*
X129243176Y-23003033D01*
X129338414Y-23050652D01*
X129386033Y-23098271D01*
X129433652Y-23193509D01*
X129433652Y-23431604D01*
X129386033Y-23526842D01*
X129338414Y-23574461D01*
X129243176Y-23622080D01*
X128957461Y-23622080D01*
X128862223Y-23574461D01*
X128814604Y-23526842D01*
X130052700Y-22622080D02*
X130243176Y-22622080D01*
X130338414Y-22669700D01*
X130433652Y-22764938D01*
X130481271Y-22955414D01*
X130481271Y-23288747D01*
X130433652Y-23479223D01*
X130338414Y-23574461D01*
X130243176Y-23622080D01*
X130052700Y-23622080D01*
X129957461Y-23574461D01*
X129862223Y-23479223D01*
X129814604Y-23288747D01*
X129814604Y-22955414D01*
X129862223Y-22764938D01*
X129957461Y-22669700D01*
X130052700Y-22622080D01*
X131100319Y-22622080D02*
X131290795Y-22622080D01*
X131386033Y-22669700D01*
X131481271Y-22764938D01*
X131528890Y-22955414D01*
X131528890Y-23288747D01*
X131481271Y-23479223D01*
X131386033Y-23574461D01*
X131290795Y-23622080D01*
X131100319Y-23622080D01*
X131005080Y-23574461D01*
X130909842Y-23479223D01*
X130862223Y-23288747D01*
X130862223Y-22955414D01*
X130909842Y-22764938D01*
X131005080Y-22669700D01*
X131100319Y-22622080D01*
X131957461Y-23622080D02*
X131957461Y-22622080D01*
%TO.C,R8*%
X42248080Y-38888966D02*
X41771890Y-39222300D01*
X42248080Y-39460395D02*
X41248080Y-39460395D01*
X41248080Y-39079442D01*
X41295700Y-38984204D01*
X41343319Y-38936585D01*
X41438557Y-38888966D01*
X41581414Y-38888966D01*
X41676652Y-38936585D01*
X41724271Y-38984204D01*
X41771890Y-39079442D01*
X41771890Y-39460395D01*
X41676652Y-38317538D02*
X41629033Y-38412776D01*
X41581414Y-38460395D01*
X41486176Y-38508014D01*
X41438557Y-38508014D01*
X41343319Y-38460395D01*
X41295700Y-38412776D01*
X41248080Y-38317538D01*
X41248080Y-38127061D01*
X41295700Y-38031823D01*
X41343319Y-37984204D01*
X41438557Y-37936585D01*
X41486176Y-37936585D01*
X41581414Y-37984204D01*
X41629033Y-38031823D01*
X41676652Y-38127061D01*
X41676652Y-38317538D01*
X41724271Y-38412776D01*
X41771890Y-38460395D01*
X41867128Y-38508014D01*
X42057604Y-38508014D01*
X42152842Y-38460395D01*
X42200461Y-38412776D01*
X42248080Y-38317538D01*
X42248080Y-38127061D01*
X42200461Y-38031823D01*
X42152842Y-37984204D01*
X42057604Y-37936585D01*
X41867128Y-37936585D01*
X41771890Y-37984204D01*
X41724271Y-38031823D01*
X41676652Y-38127061D01*
X42568880Y-38942804D02*
X42568880Y-39133280D01*
X42616500Y-39228519D01*
X42664119Y-39276138D01*
X42806976Y-39371376D01*
X42997452Y-39418995D01*
X43378404Y-39418995D01*
X43473642Y-39371376D01*
X43521261Y-39323757D01*
X43568880Y-39228519D01*
X43568880Y-39038042D01*
X43521261Y-38942804D01*
X43473642Y-38895185D01*
X43378404Y-38847566D01*
X43140309Y-38847566D01*
X43045071Y-38895185D01*
X42997452Y-38942804D01*
X42949833Y-39038042D01*
X42949833Y-39228519D01*
X42997452Y-39323757D01*
X43045071Y-39371376D01*
X43140309Y-39418995D01*
X42664119Y-38466614D02*
X42616500Y-38418995D01*
X42568880Y-38323757D01*
X42568880Y-38085661D01*
X42616500Y-37990423D01*
X42664119Y-37942804D01*
X42759357Y-37895185D01*
X42854595Y-37895185D01*
X42997452Y-37942804D01*
X43568880Y-38514233D01*
X43568880Y-37895185D01*
X42568880Y-37276138D02*
X42568880Y-37180900D01*
X42616500Y-37085661D01*
X42664119Y-37038042D01*
X42759357Y-36990423D01*
X42949833Y-36942804D01*
X43187928Y-36942804D01*
X43378404Y-36990423D01*
X43473642Y-37038042D01*
X43521261Y-37085661D01*
X43568880Y-37180900D01*
X43568880Y-37276138D01*
X43521261Y-37371376D01*
X43473642Y-37418995D01*
X43378404Y-37466614D01*
X43187928Y-37514233D01*
X42949833Y-37514233D01*
X42759357Y-37466614D01*
X42664119Y-37418995D01*
X42616500Y-37371376D01*
X42568880Y-37276138D01*
X43568880Y-35942804D02*
X43092690Y-36276138D01*
X43568880Y-36514233D02*
X42568880Y-36514233D01*
X42568880Y-36133280D01*
X42616500Y-36038042D01*
X42664119Y-35990423D01*
X42759357Y-35942804D01*
X42902214Y-35942804D01*
X42997452Y-35990423D01*
X43045071Y-36038042D01*
X43092690Y-36133280D01*
X43092690Y-36514233D01*
%TO.C,D1*%
X78954404Y-21496280D02*
X78954404Y-20496280D01*
X79192500Y-20496280D01*
X79335357Y-20543900D01*
X79430595Y-20639138D01*
X79478214Y-20734376D01*
X79525833Y-20924852D01*
X79525833Y-21067709D01*
X79478214Y-21258185D01*
X79430595Y-21353423D01*
X79335357Y-21448661D01*
X79192500Y-21496280D01*
X78954404Y-21496280D01*
X80478214Y-21496280D02*
X79906785Y-21496280D01*
X80192500Y-21496280D02*
X80192500Y-20496280D01*
X80097261Y-20639138D01*
X80002023Y-20734376D01*
X79906785Y-20781995D01*
X77223880Y-27022157D02*
X77223880Y-27593585D01*
X77223880Y-27307871D02*
X76223880Y-27307871D01*
X76366738Y-27403109D01*
X76461976Y-27498347D01*
X76509595Y-27593585D01*
X77223880Y-26593585D02*
X76223880Y-26593585D01*
X77223880Y-26022157D01*
X76223880Y-26022157D01*
X76557214Y-25117395D02*
X77223880Y-25117395D01*
X76176261Y-25355490D02*
X76890547Y-25593585D01*
X76890547Y-24974538D01*
X76223880Y-24403109D02*
X76223880Y-24307871D01*
X76271500Y-24212633D01*
X76319119Y-24165014D01*
X76414357Y-24117395D01*
X76604833Y-24069776D01*
X76842928Y-24069776D01*
X77033404Y-24117395D01*
X77128642Y-24165014D01*
X77176261Y-24212633D01*
X77223880Y-24307871D01*
X77223880Y-24403109D01*
X77176261Y-24498347D01*
X77128642Y-24545966D01*
X77033404Y-24593585D01*
X76842928Y-24641204D01*
X76604833Y-24641204D01*
X76414357Y-24593585D01*
X76319119Y-24545966D01*
X76271500Y-24498347D01*
X76223880Y-24403109D01*
X76223880Y-23450728D02*
X76223880Y-23355490D01*
X76271500Y-23260252D01*
X76319119Y-23212633D01*
X76414357Y-23165014D01*
X76604833Y-23117395D01*
X76842928Y-23117395D01*
X77033404Y-23165014D01*
X77128642Y-23212633D01*
X77176261Y-23260252D01*
X77223880Y-23355490D01*
X77223880Y-23450728D01*
X77176261Y-23545966D01*
X77128642Y-23593585D01*
X77033404Y-23641204D01*
X76842928Y-23688823D01*
X76604833Y-23688823D01*
X76414357Y-23641204D01*
X76319119Y-23593585D01*
X76271500Y-23545966D01*
X76223880Y-23450728D01*
X77223880Y-22165014D02*
X77223880Y-22736442D01*
X77223880Y-22450728D02*
X76223880Y-22450728D01*
X76366738Y-22545966D01*
X76461976Y-22641204D01*
X76509595Y-22736442D01*
%TO.C,C4*%
X55370433Y-38063442D02*
X55322814Y-38111061D01*
X55179957Y-38158680D01*
X55084719Y-38158680D01*
X54941861Y-38111061D01*
X54846623Y-38015823D01*
X54799004Y-37920585D01*
X54751385Y-37730109D01*
X54751385Y-37587252D01*
X54799004Y-37396776D01*
X54846623Y-37301538D01*
X54941861Y-37206300D01*
X55084719Y-37158680D01*
X55179957Y-37158680D01*
X55322814Y-37206300D01*
X55370433Y-37253919D01*
X56227576Y-37492014D02*
X56227576Y-38158680D01*
X55989480Y-37111061D02*
X55751385Y-37825347D01*
X56370433Y-37825347D01*
X55357852Y-36787080D02*
X54786423Y-36787080D01*
X55072138Y-36787080D02*
X55072138Y-35787080D01*
X54976900Y-35929938D01*
X54881661Y-36025176D01*
X54786423Y-36072795D01*
X55976900Y-35787080D02*
X56072138Y-35787080D01*
X56167376Y-35834700D01*
X56214995Y-35882319D01*
X56262614Y-35977557D01*
X56310233Y-36168033D01*
X56310233Y-36406128D01*
X56262614Y-36596604D01*
X56214995Y-36691842D01*
X56167376Y-36739461D01*
X56072138Y-36787080D01*
X55976900Y-36787080D01*
X55881661Y-36739461D01*
X55834042Y-36691842D01*
X55786423Y-36596604D01*
X55738804Y-36406128D01*
X55738804Y-36168033D01*
X55786423Y-35977557D01*
X55834042Y-35882319D01*
X55881661Y-35834700D01*
X55976900Y-35787080D01*
X56929280Y-35787080D02*
X57024519Y-35787080D01*
X57119757Y-35834700D01*
X57167376Y-35882319D01*
X57214995Y-35977557D01*
X57262614Y-36168033D01*
X57262614Y-36406128D01*
X57214995Y-36596604D01*
X57167376Y-36691842D01*
X57119757Y-36739461D01*
X57024519Y-36787080D01*
X56929280Y-36787080D01*
X56834042Y-36739461D01*
X56786423Y-36691842D01*
X56738804Y-36596604D01*
X56691185Y-36406128D01*
X56691185Y-36168033D01*
X56738804Y-35977557D01*
X56786423Y-35882319D01*
X56834042Y-35834700D01*
X56929280Y-35787080D01*
X57691185Y-36120414D02*
X57691185Y-36787080D01*
X57691185Y-36215652D02*
X57738804Y-36168033D01*
X57834042Y-36120414D01*
X57976900Y-36120414D01*
X58072138Y-36168033D01*
X58119757Y-36263271D01*
X58119757Y-36787080D01*
%TO.C,R14*%
X102115880Y-37155357D02*
X101639690Y-37488690D01*
X102115880Y-37726785D02*
X101115880Y-37726785D01*
X101115880Y-37345833D01*
X101163500Y-37250595D01*
X101211119Y-37202976D01*
X101306357Y-37155357D01*
X101449214Y-37155357D01*
X101544452Y-37202976D01*
X101592071Y-37250595D01*
X101639690Y-37345833D01*
X101639690Y-37726785D01*
X102115880Y-36202976D02*
X102115880Y-36774404D01*
X102115880Y-36488690D02*
X101115880Y-36488690D01*
X101258738Y-36583928D01*
X101353976Y-36679166D01*
X101401595Y-36774404D01*
X101449214Y-35345833D02*
X102115880Y-35345833D01*
X101068261Y-35583928D02*
X101782547Y-35822023D01*
X101782547Y-35202976D01*
X102741480Y-37393404D02*
X102741480Y-37583880D01*
X102789100Y-37679119D01*
X102836719Y-37726738D01*
X102979576Y-37821976D01*
X103170052Y-37869595D01*
X103551004Y-37869595D01*
X103646242Y-37821976D01*
X103693861Y-37774357D01*
X103741480Y-37679119D01*
X103741480Y-37488642D01*
X103693861Y-37393404D01*
X103646242Y-37345785D01*
X103551004Y-37298166D01*
X103312909Y-37298166D01*
X103217671Y-37345785D01*
X103170052Y-37393404D01*
X103122433Y-37488642D01*
X103122433Y-37679119D01*
X103170052Y-37774357D01*
X103217671Y-37821976D01*
X103312909Y-37869595D01*
X102836719Y-36917214D02*
X102789100Y-36869595D01*
X102741480Y-36774357D01*
X102741480Y-36536261D01*
X102789100Y-36441023D01*
X102836719Y-36393404D01*
X102931957Y-36345785D01*
X103027195Y-36345785D01*
X103170052Y-36393404D01*
X103741480Y-36964833D01*
X103741480Y-36345785D01*
X102741480Y-35726738D02*
X102741480Y-35631500D01*
X102789100Y-35536261D01*
X102836719Y-35488642D01*
X102931957Y-35441023D01*
X103122433Y-35393404D01*
X103360528Y-35393404D01*
X103551004Y-35441023D01*
X103646242Y-35488642D01*
X103693861Y-35536261D01*
X103741480Y-35631500D01*
X103741480Y-35726738D01*
X103693861Y-35821976D01*
X103646242Y-35869595D01*
X103551004Y-35917214D01*
X103360528Y-35964833D01*
X103122433Y-35964833D01*
X102931957Y-35917214D01*
X102836719Y-35869595D01*
X102789100Y-35821976D01*
X102741480Y-35726738D01*
X103741480Y-34393404D02*
X103265290Y-34726738D01*
X103741480Y-34964833D02*
X102741480Y-34964833D01*
X102741480Y-34583880D01*
X102789100Y-34488642D01*
X102836719Y-34441023D01*
X102931957Y-34393404D01*
X103074814Y-34393404D01*
X103170052Y-34441023D01*
X103217671Y-34488642D01*
X103265290Y-34583880D01*
X103265290Y-34964833D01*
%TO.C,U6*%
X93976974Y-57722103D02*
X93976974Y-58359524D01*
X94014470Y-58434515D01*
X94051965Y-58472010D01*
X94126956Y-58509505D01*
X94276937Y-58509505D01*
X94351928Y-58472010D01*
X94389423Y-58434515D01*
X94426918Y-58359524D01*
X94426918Y-57722103D01*
X95139330Y-57722103D02*
X94989348Y-57722103D01*
X94914358Y-57759599D01*
X94876862Y-57797094D01*
X94801872Y-57909580D01*
X94764376Y-58059561D01*
X94764376Y-58359524D01*
X94801872Y-58434515D01*
X94839367Y-58472010D01*
X94914358Y-58509505D01*
X95064339Y-58509505D01*
X95139330Y-58472010D01*
X95176825Y-58434515D01*
X95214320Y-58359524D01*
X95214320Y-58172047D01*
X95176825Y-58097057D01*
X95139330Y-58059561D01*
X95064339Y-58022066D01*
X94914358Y-58022066D01*
X94839367Y-58059561D01*
X94801872Y-58097057D01*
X94764376Y-58172047D01*
%TO.C,TP1*%
X42083195Y-57300880D02*
X42654623Y-57300880D01*
X42368909Y-58300880D02*
X42368909Y-57300880D01*
X42987957Y-58300880D02*
X42987957Y-57300880D01*
X43368909Y-57300880D01*
X43464147Y-57348500D01*
X43511766Y-57396119D01*
X43559385Y-57491357D01*
X43559385Y-57634214D01*
X43511766Y-57729452D01*
X43464147Y-57777071D01*
X43368909Y-57824690D01*
X42987957Y-57824690D01*
X44511766Y-58300880D02*
X43940338Y-58300880D01*
X44226052Y-58300880D02*
X44226052Y-57300880D01*
X44130814Y-57443738D01*
X44035576Y-57538976D01*
X43940338Y-57586595D01*
%TO.C,U3*%
X23735903Y-55603625D02*
X24373324Y-55603625D01*
X24448315Y-55566130D01*
X24485810Y-55528634D01*
X24523305Y-55453644D01*
X24523305Y-55303662D01*
X24485810Y-55228672D01*
X24448315Y-55191176D01*
X24373324Y-55153681D01*
X23735903Y-55153681D01*
X23735903Y-54853718D02*
X23735903Y-54366279D01*
X24035866Y-54628746D01*
X24035866Y-54516260D01*
X24073361Y-54441270D01*
X24110857Y-54403774D01*
X24185847Y-54366279D01*
X24373324Y-54366279D01*
X24448315Y-54403774D01*
X24485810Y-54441270D01*
X24523305Y-54516260D01*
X24523305Y-54741232D01*
X24485810Y-54816223D01*
X24448315Y-54853718D01*
%TO.C,J3*%
X85328166Y-42462280D02*
X85328166Y-43176566D01*
X85280547Y-43319423D01*
X85185309Y-43414661D01*
X85042452Y-43462280D01*
X84947214Y-43462280D01*
X85709119Y-42462280D02*
X86328166Y-42462280D01*
X85994833Y-42843233D01*
X86137690Y-42843233D01*
X86232928Y-42890852D01*
X86280547Y-42938471D01*
X86328166Y-43033709D01*
X86328166Y-43271804D01*
X86280547Y-43367042D01*
X86232928Y-43414661D01*
X86137690Y-43462280D01*
X85851976Y-43462280D01*
X85756738Y-43414661D01*
X85709119Y-43367042D01*
%TO.C,U1*%
X44970795Y-51027080D02*
X44970795Y-51836604D01*
X45018414Y-51931842D01*
X45066033Y-51979461D01*
X45161271Y-52027080D01*
X45351747Y-52027080D01*
X45446985Y-51979461D01*
X45494604Y-51931842D01*
X45542223Y-51836604D01*
X45542223Y-51027080D01*
X46542223Y-52027080D02*
X45970795Y-52027080D01*
X46256509Y-52027080D02*
X46256509Y-51027080D01*
X46161271Y-51169938D01*
X46066033Y-51265176D01*
X45970795Y-51312795D01*
X45077309Y-38946080D02*
X44601119Y-38946080D01*
X44601119Y-37946080D01*
X45267785Y-37946080D02*
X45839214Y-37946080D01*
X45553500Y-38946080D02*
X45553500Y-37946080D01*
X46696357Y-38946080D02*
X46124928Y-38946080D01*
X46410642Y-38946080D02*
X46410642Y-37946080D01*
X46315404Y-38088938D01*
X46220166Y-38184176D01*
X46124928Y-38231795D01*
X47077309Y-38041319D02*
X47124928Y-37993700D01*
X47220166Y-37946080D01*
X47458261Y-37946080D01*
X47553500Y-37993700D01*
X47601119Y-38041319D01*
X47648738Y-38136557D01*
X47648738Y-38231795D01*
X47601119Y-38374652D01*
X47029690Y-38946080D01*
X47648738Y-38946080D01*
X48553500Y-37946080D02*
X48077309Y-37946080D01*
X48029690Y-38422271D01*
X48077309Y-38374652D01*
X48172547Y-38327033D01*
X48410642Y-38327033D01*
X48505880Y-38374652D01*
X48553500Y-38422271D01*
X48601119Y-38517509D01*
X48601119Y-38755604D01*
X48553500Y-38850842D01*
X48505880Y-38898461D01*
X48410642Y-38946080D01*
X48172547Y-38946080D01*
X48077309Y-38898461D01*
X48029690Y-38850842D01*
X48934452Y-37946080D02*
X49553500Y-37946080D01*
X49220166Y-38327033D01*
X49363023Y-38327033D01*
X49458261Y-38374652D01*
X49505880Y-38422271D01*
X49553500Y-38517509D01*
X49553500Y-38755604D01*
X49505880Y-38850842D01*
X49458261Y-38898461D01*
X49363023Y-38946080D01*
X49077309Y-38946080D01*
X48982071Y-38898461D01*
X48934452Y-38850842D01*
%TO.C,C12*%
X70286642Y-57240442D02*
X70239023Y-57288061D01*
X70096166Y-57335680D01*
X70000928Y-57335680D01*
X69858071Y-57288061D01*
X69762833Y-57192823D01*
X69715214Y-57097585D01*
X69667595Y-56907109D01*
X69667595Y-56764252D01*
X69715214Y-56573776D01*
X69762833Y-56478538D01*
X69858071Y-56383300D01*
X70000928Y-56335680D01*
X70096166Y-56335680D01*
X70239023Y-56383300D01*
X70286642Y-56430919D01*
X71239023Y-57335680D02*
X70667595Y-57335680D01*
X70953309Y-57335680D02*
X70953309Y-56335680D01*
X70858071Y-56478538D01*
X70762833Y-56573776D01*
X70667595Y-56621395D01*
X71619976Y-56430919D02*
X71667595Y-56383300D01*
X71762833Y-56335680D01*
X72000928Y-56335680D01*
X72096166Y-56383300D01*
X72143785Y-56430919D01*
X72191404Y-56526157D01*
X72191404Y-56621395D01*
X72143785Y-56764252D01*
X71572357Y-57335680D01*
X72191404Y-57335680D01*
X70242252Y-59164480D02*
X69670823Y-59164480D01*
X69956538Y-59164480D02*
X69956538Y-58164480D01*
X69861300Y-58307338D01*
X69766061Y-58402576D01*
X69670823Y-58450195D01*
X70861300Y-58164480D02*
X70956538Y-58164480D01*
X71051776Y-58212100D01*
X71099395Y-58259719D01*
X71147014Y-58354957D01*
X71194633Y-58545433D01*
X71194633Y-58783528D01*
X71147014Y-58974004D01*
X71099395Y-59069242D01*
X71051776Y-59116861D01*
X70956538Y-59164480D01*
X70861300Y-59164480D01*
X70766061Y-59116861D01*
X70718442Y-59069242D01*
X70670823Y-58974004D01*
X70623204Y-58783528D01*
X70623204Y-58545433D01*
X70670823Y-58354957D01*
X70718442Y-58259719D01*
X70766061Y-58212100D01*
X70861300Y-58164480D01*
X71813680Y-58164480D02*
X71908919Y-58164480D01*
X72004157Y-58212100D01*
X72051776Y-58259719D01*
X72099395Y-58354957D01*
X72147014Y-58545433D01*
X72147014Y-58783528D01*
X72099395Y-58974004D01*
X72051776Y-59069242D01*
X72004157Y-59116861D01*
X71908919Y-59164480D01*
X71813680Y-59164480D01*
X71718442Y-59116861D01*
X71670823Y-59069242D01*
X71623204Y-58974004D01*
X71575585Y-58783528D01*
X71575585Y-58545433D01*
X71623204Y-58354957D01*
X71670823Y-58259719D01*
X71718442Y-58212100D01*
X71813680Y-58164480D01*
X72575585Y-58497814D02*
X72575585Y-59164480D01*
X72575585Y-58593052D02*
X72623204Y-58545433D01*
X72718442Y-58497814D01*
X72861300Y-58497814D01*
X72956538Y-58545433D01*
X73004157Y-58640671D01*
X73004157Y-59164480D01*
%TO.C,J2*%
X75345966Y-39952680D02*
X75345966Y-40666966D01*
X75298347Y-40809823D01*
X75203109Y-40905061D01*
X75060252Y-40952680D01*
X74965014Y-40952680D01*
X75774538Y-40047919D02*
X75822157Y-40000300D01*
X75917395Y-39952680D01*
X76155490Y-39952680D01*
X76250728Y-40000300D01*
X76298347Y-40047919D01*
X76345966Y-40143157D01*
X76345966Y-40238395D01*
X76298347Y-40381252D01*
X75726919Y-40952680D01*
X76345966Y-40952680D01*
%TO.C,C7*%
X117778233Y-32196042D02*
X117730614Y-32243661D01*
X117587757Y-32291280D01*
X117492519Y-32291280D01*
X117349661Y-32243661D01*
X117254423Y-32148423D01*
X117206804Y-32053185D01*
X117159185Y-31862709D01*
X117159185Y-31719852D01*
X117206804Y-31529376D01*
X117254423Y-31434138D01*
X117349661Y-31338900D01*
X117492519Y-31291280D01*
X117587757Y-31291280D01*
X117730614Y-31338900D01*
X117778233Y-31386519D01*
X118111566Y-31291280D02*
X118778233Y-31291280D01*
X118349661Y-32291280D01*
X117778233Y-33789880D02*
X117206804Y-33789880D01*
X117492519Y-33789880D02*
X117492519Y-32789880D01*
X117397280Y-32932738D01*
X117302042Y-33027976D01*
X117206804Y-33075595D01*
X118635376Y-33123214D02*
X118635376Y-33789880D01*
X118206804Y-33123214D02*
X118206804Y-33647023D01*
X118254423Y-33742261D01*
X118349661Y-33789880D01*
X118492519Y-33789880D01*
X118587757Y-33742261D01*
X118635376Y-33694642D01*
%TO.C,C14*%
X131399042Y-56986442D02*
X131351423Y-57034061D01*
X131208566Y-57081680D01*
X131113328Y-57081680D01*
X130970471Y-57034061D01*
X130875233Y-56938823D01*
X130827614Y-56843585D01*
X130779995Y-56653109D01*
X130779995Y-56510252D01*
X130827614Y-56319776D01*
X130875233Y-56224538D01*
X130970471Y-56129300D01*
X131113328Y-56081680D01*
X131208566Y-56081680D01*
X131351423Y-56129300D01*
X131399042Y-56176919D01*
X132351423Y-57081680D02*
X131779995Y-57081680D01*
X132065709Y-57081680D02*
X132065709Y-56081680D01*
X131970471Y-56224538D01*
X131875233Y-56319776D01*
X131779995Y-56367395D01*
X133208566Y-56415014D02*
X133208566Y-57081680D01*
X132970471Y-56034061D02*
X132732376Y-56748347D01*
X133351423Y-56748347D01*
X131176852Y-58580280D02*
X130605423Y-58580280D01*
X130891138Y-58580280D02*
X130891138Y-57580280D01*
X130795900Y-57723138D01*
X130700661Y-57818376D01*
X130605423Y-57865995D01*
X131795900Y-57580280D02*
X131891138Y-57580280D01*
X131986376Y-57627900D01*
X132033995Y-57675519D01*
X132081614Y-57770757D01*
X132129233Y-57961233D01*
X132129233Y-58199328D01*
X132081614Y-58389804D01*
X132033995Y-58485042D01*
X131986376Y-58532661D01*
X131891138Y-58580280D01*
X131795900Y-58580280D01*
X131700661Y-58532661D01*
X131653042Y-58485042D01*
X131605423Y-58389804D01*
X131557804Y-58199328D01*
X131557804Y-57961233D01*
X131605423Y-57770757D01*
X131653042Y-57675519D01*
X131700661Y-57627900D01*
X131795900Y-57580280D01*
X132748280Y-57580280D02*
X132843519Y-57580280D01*
X132938757Y-57627900D01*
X132986376Y-57675519D01*
X133033995Y-57770757D01*
X133081614Y-57961233D01*
X133081614Y-58199328D01*
X133033995Y-58389804D01*
X132986376Y-58485042D01*
X132938757Y-58532661D01*
X132843519Y-58580280D01*
X132748280Y-58580280D01*
X132653042Y-58532661D01*
X132605423Y-58485042D01*
X132557804Y-58389804D01*
X132510185Y-58199328D01*
X132510185Y-57961233D01*
X132557804Y-57770757D01*
X132605423Y-57675519D01*
X132653042Y-57627900D01*
X132748280Y-57580280D01*
X133510185Y-57913614D02*
X133510185Y-58580280D01*
X133510185Y-58008852D02*
X133557804Y-57961233D01*
X133653042Y-57913614D01*
X133795900Y-57913614D01*
X133891138Y-57961233D01*
X133938757Y-58056471D01*
X133938757Y-58580280D01*
%TO.C,RV3*%
X92336880Y-35355138D02*
X91860690Y-35688471D01*
X92336880Y-35926566D02*
X91336880Y-35926566D01*
X91336880Y-35545614D01*
X91384500Y-35450376D01*
X91432119Y-35402757D01*
X91527357Y-35355138D01*
X91670214Y-35355138D01*
X91765452Y-35402757D01*
X91813071Y-35450376D01*
X91860690Y-35545614D01*
X91860690Y-35926566D01*
X91336880Y-35069423D02*
X92336880Y-34736090D01*
X91336880Y-34402757D01*
X91336880Y-34164661D02*
X91336880Y-33545614D01*
X91717833Y-33878947D01*
X91717833Y-33736090D01*
X91765452Y-33640852D01*
X91813071Y-33593233D01*
X91908309Y-33545614D01*
X92146404Y-33545614D01*
X92241642Y-33593233D01*
X92289261Y-33640852D01*
X92336880Y-33736090D01*
X92336880Y-34021804D01*
X92289261Y-34117042D01*
X92241642Y-34164661D01*
X91543214Y-38311080D02*
X90971785Y-38311080D01*
X91257500Y-38311080D02*
X91257500Y-37311080D01*
X91162261Y-37453938D01*
X91067023Y-37549176D01*
X90971785Y-37596795D01*
X91971785Y-38311080D02*
X91971785Y-37311080D01*
X92543214Y-38311080D02*
X92114642Y-37739652D01*
X92543214Y-37311080D02*
X91971785Y-37882509D01*
%TO.C,R10*%
X64749442Y-54378580D02*
X64416109Y-53902390D01*
X64178014Y-54378580D02*
X64178014Y-53378580D01*
X64558966Y-53378580D01*
X64654204Y-53426200D01*
X64701823Y-53473819D01*
X64749442Y-53569057D01*
X64749442Y-53711914D01*
X64701823Y-53807152D01*
X64654204Y-53854771D01*
X64558966Y-53902390D01*
X64178014Y-53902390D01*
X65701823Y-54378580D02*
X65130395Y-54378580D01*
X65416109Y-54378580D02*
X65416109Y-53378580D01*
X65320871Y-53521438D01*
X65225633Y-53616676D01*
X65130395Y-53664295D01*
X66320871Y-53378580D02*
X66416109Y-53378580D01*
X66511347Y-53426200D01*
X66558966Y-53473819D01*
X66606585Y-53569057D01*
X66654204Y-53759533D01*
X66654204Y-53997628D01*
X66606585Y-54188104D01*
X66558966Y-54283342D01*
X66511347Y-54330961D01*
X66416109Y-54378580D01*
X66320871Y-54378580D01*
X66225633Y-54330961D01*
X66178014Y-54283342D01*
X66130395Y-54188104D01*
X66082776Y-53997628D01*
X66082776Y-53759533D01*
X66130395Y-53569057D01*
X66178014Y-53473819D01*
X66225633Y-53426200D01*
X66320871Y-53378580D01*
X64606585Y-54775580D02*
X64416109Y-54775580D01*
X64320871Y-54823200D01*
X64273252Y-54870819D01*
X64178014Y-55013676D01*
X64130395Y-55204152D01*
X64130395Y-55585104D01*
X64178014Y-55680342D01*
X64225633Y-55727961D01*
X64320871Y-55775580D01*
X64511347Y-55775580D01*
X64606585Y-55727961D01*
X64654204Y-55680342D01*
X64701823Y-55585104D01*
X64701823Y-55347009D01*
X64654204Y-55251771D01*
X64606585Y-55204152D01*
X64511347Y-55156533D01*
X64320871Y-55156533D01*
X64225633Y-55204152D01*
X64178014Y-55251771D01*
X64130395Y-55347009D01*
X65273252Y-55204152D02*
X65178014Y-55156533D01*
X65130395Y-55108914D01*
X65082776Y-55013676D01*
X65082776Y-54966057D01*
X65130395Y-54870819D01*
X65178014Y-54823200D01*
X65273252Y-54775580D01*
X65463728Y-54775580D01*
X65558966Y-54823200D01*
X65606585Y-54870819D01*
X65654204Y-54966057D01*
X65654204Y-55013676D01*
X65606585Y-55108914D01*
X65558966Y-55156533D01*
X65463728Y-55204152D01*
X65273252Y-55204152D01*
X65178014Y-55251771D01*
X65130395Y-55299390D01*
X65082776Y-55394628D01*
X65082776Y-55585104D01*
X65130395Y-55680342D01*
X65178014Y-55727961D01*
X65273252Y-55775580D01*
X65463728Y-55775580D01*
X65558966Y-55727961D01*
X65606585Y-55680342D01*
X65654204Y-55585104D01*
X65654204Y-55394628D01*
X65606585Y-55299390D01*
X65558966Y-55251771D01*
X65463728Y-55204152D01*
X66654204Y-55775580D02*
X66320871Y-55299390D01*
X66082776Y-55775580D02*
X66082776Y-54775580D01*
X66463728Y-54775580D01*
X66558966Y-54823200D01*
X66606585Y-54870819D01*
X66654204Y-54966057D01*
X66654204Y-55108914D01*
X66606585Y-55204152D01*
X66558966Y-55251771D01*
X66463728Y-55299390D01*
X66082776Y-55299390D01*
%TO.C,R16*%
X125379242Y-53779680D02*
X125045909Y-53303490D01*
X124807814Y-53779680D02*
X124807814Y-52779680D01*
X125188766Y-52779680D01*
X125284004Y-52827300D01*
X125331623Y-52874919D01*
X125379242Y-52970157D01*
X125379242Y-53113014D01*
X125331623Y-53208252D01*
X125284004Y-53255871D01*
X125188766Y-53303490D01*
X124807814Y-53303490D01*
X126331623Y-53779680D02*
X125760195Y-53779680D01*
X126045909Y-53779680D02*
X126045909Y-52779680D01*
X125950671Y-52922538D01*
X125855433Y-53017776D01*
X125760195Y-53065395D01*
X127188766Y-52779680D02*
X126998290Y-52779680D01*
X126903052Y-52827300D01*
X126855433Y-52874919D01*
X126760195Y-53017776D01*
X126712576Y-53208252D01*
X126712576Y-53589204D01*
X126760195Y-53684442D01*
X126807814Y-53732061D01*
X126903052Y-53779680D01*
X127093528Y-53779680D01*
X127188766Y-53732061D01*
X127236385Y-53684442D01*
X127284004Y-53589204D01*
X127284004Y-53351109D01*
X127236385Y-53255871D01*
X127188766Y-53208252D01*
X127093528Y-53160633D01*
X126903052Y-53160633D01*
X126807814Y-53208252D01*
X126760195Y-53255871D01*
X126712576Y-53351109D01*
X125490385Y-54532280D02*
X125299909Y-54532280D01*
X125204671Y-54579900D01*
X125157052Y-54627519D01*
X125061814Y-54770376D01*
X125014195Y-54960852D01*
X125014195Y-55341804D01*
X125061814Y-55437042D01*
X125109433Y-55484661D01*
X125204671Y-55532280D01*
X125395147Y-55532280D01*
X125490385Y-55484661D01*
X125538004Y-55437042D01*
X125585623Y-55341804D01*
X125585623Y-55103709D01*
X125538004Y-55008471D01*
X125490385Y-54960852D01*
X125395147Y-54913233D01*
X125204671Y-54913233D01*
X125109433Y-54960852D01*
X125061814Y-55008471D01*
X125014195Y-55103709D01*
X126157052Y-54960852D02*
X126061814Y-54913233D01*
X126014195Y-54865614D01*
X125966576Y-54770376D01*
X125966576Y-54722757D01*
X126014195Y-54627519D01*
X126061814Y-54579900D01*
X126157052Y-54532280D01*
X126347528Y-54532280D01*
X126442766Y-54579900D01*
X126490385Y-54627519D01*
X126538004Y-54722757D01*
X126538004Y-54770376D01*
X126490385Y-54865614D01*
X126442766Y-54913233D01*
X126347528Y-54960852D01*
X126157052Y-54960852D01*
X126061814Y-55008471D01*
X126014195Y-55056090D01*
X125966576Y-55151328D01*
X125966576Y-55341804D01*
X126014195Y-55437042D01*
X126061814Y-55484661D01*
X126157052Y-55532280D01*
X126347528Y-55532280D01*
X126442766Y-55484661D01*
X126490385Y-55437042D01*
X126538004Y-55341804D01*
X126538004Y-55151328D01*
X126490385Y-55056090D01*
X126442766Y-55008471D01*
X126347528Y-54960852D01*
X127538004Y-55532280D02*
X127204671Y-55056090D01*
X126966576Y-55532280D02*
X126966576Y-54532280D01*
X127347528Y-54532280D01*
X127442766Y-54579900D01*
X127490385Y-54627519D01*
X127538004Y-54722757D01*
X127538004Y-54865614D01*
X127490385Y-54960852D01*
X127442766Y-55008471D01*
X127347528Y-55056090D01*
X126966576Y-55056090D01*
%TO.C,R15*%
X105821242Y-52179480D02*
X105487909Y-51703290D01*
X105249814Y-52179480D02*
X105249814Y-51179480D01*
X105630766Y-51179480D01*
X105726004Y-51227100D01*
X105773623Y-51274719D01*
X105821242Y-51369957D01*
X105821242Y-51512814D01*
X105773623Y-51608052D01*
X105726004Y-51655671D01*
X105630766Y-51703290D01*
X105249814Y-51703290D01*
X106773623Y-52179480D02*
X106202195Y-52179480D01*
X106487909Y-52179480D02*
X106487909Y-51179480D01*
X106392671Y-51322338D01*
X106297433Y-51417576D01*
X106202195Y-51465195D01*
X107678385Y-51179480D02*
X107202195Y-51179480D01*
X107154576Y-51655671D01*
X107202195Y-51608052D01*
X107297433Y-51560433D01*
X107535528Y-51560433D01*
X107630766Y-51608052D01*
X107678385Y-51655671D01*
X107726004Y-51750909D01*
X107726004Y-51989004D01*
X107678385Y-52084242D01*
X107630766Y-52131861D01*
X107535528Y-52179480D01*
X107297433Y-52179480D01*
X107202195Y-52131861D01*
X107154576Y-52084242D01*
X106281623Y-53830480D02*
X106472100Y-53830480D01*
X106567338Y-53782861D01*
X106614957Y-53735242D01*
X106710195Y-53592385D01*
X106757814Y-53401909D01*
X106757814Y-53020957D01*
X106710195Y-52925719D01*
X106662576Y-52878100D01*
X106567338Y-52830480D01*
X106376861Y-52830480D01*
X106281623Y-52878100D01*
X106234004Y-52925719D01*
X106186385Y-53020957D01*
X106186385Y-53259052D01*
X106234004Y-53354290D01*
X106281623Y-53401909D01*
X106376861Y-53449528D01*
X106567338Y-53449528D01*
X106662576Y-53401909D01*
X106710195Y-53354290D01*
X106757814Y-53259052D01*
X107186385Y-53830480D02*
X107186385Y-52830480D01*
X107757814Y-53830480D02*
X107329242Y-53259052D01*
X107757814Y-52830480D02*
X107186385Y-53401909D01*
%TO.C,R9*%
X49898733Y-53991680D02*
X49565400Y-53515490D01*
X49327304Y-53991680D02*
X49327304Y-52991680D01*
X49708257Y-52991680D01*
X49803495Y-53039300D01*
X49851114Y-53086919D01*
X49898733Y-53182157D01*
X49898733Y-53325014D01*
X49851114Y-53420252D01*
X49803495Y-53467871D01*
X49708257Y-53515490D01*
X49327304Y-53515490D01*
X50374923Y-53991680D02*
X50565400Y-53991680D01*
X50660638Y-53944061D01*
X50708257Y-53896442D01*
X50803495Y-53753585D01*
X50851114Y-53563109D01*
X50851114Y-53182157D01*
X50803495Y-53086919D01*
X50755876Y-53039300D01*
X50660638Y-52991680D01*
X50470161Y-52991680D01*
X50374923Y-53039300D01*
X50327304Y-53086919D01*
X50279685Y-53182157D01*
X50279685Y-53420252D01*
X50327304Y-53515490D01*
X50374923Y-53563109D01*
X50470161Y-53610728D01*
X50660638Y-53610728D01*
X50755876Y-53563109D01*
X50803495Y-53515490D01*
X50851114Y-53420252D01*
X49374923Y-57631680D02*
X49565400Y-57631680D01*
X49660638Y-57584061D01*
X49708257Y-57536442D01*
X49803495Y-57393585D01*
X49851114Y-57203109D01*
X49851114Y-56822157D01*
X49803495Y-56726919D01*
X49755876Y-56679300D01*
X49660638Y-56631680D01*
X49470161Y-56631680D01*
X49374923Y-56679300D01*
X49327304Y-56726919D01*
X49279685Y-56822157D01*
X49279685Y-57060252D01*
X49327304Y-57155490D01*
X49374923Y-57203109D01*
X49470161Y-57250728D01*
X49660638Y-57250728D01*
X49755876Y-57203109D01*
X49803495Y-57155490D01*
X49851114Y-57060252D01*
X50279685Y-57631680D02*
X50279685Y-56631680D01*
X50851114Y-57631680D02*
X50422542Y-57060252D01*
X50851114Y-56631680D02*
X50279685Y-57203109D01*
%TO.C,C15*%
X68229242Y-50103042D02*
X68181623Y-50150661D01*
X68038766Y-50198280D01*
X67943528Y-50198280D01*
X67800671Y-50150661D01*
X67705433Y-50055423D01*
X67657814Y-49960185D01*
X67610195Y-49769709D01*
X67610195Y-49626852D01*
X67657814Y-49436376D01*
X67705433Y-49341138D01*
X67800671Y-49245900D01*
X67943528Y-49198280D01*
X68038766Y-49198280D01*
X68181623Y-49245900D01*
X68229242Y-49293519D01*
X69181623Y-50198280D02*
X68610195Y-50198280D01*
X68895909Y-50198280D02*
X68895909Y-49198280D01*
X68800671Y-49341138D01*
X68705433Y-49436376D01*
X68610195Y-49483995D01*
X70086385Y-49198280D02*
X69610195Y-49198280D01*
X69562576Y-49674471D01*
X69610195Y-49626852D01*
X69705433Y-49579233D01*
X69943528Y-49579233D01*
X70038766Y-49626852D01*
X70086385Y-49674471D01*
X70134004Y-49769709D01*
X70134004Y-50007804D01*
X70086385Y-50103042D01*
X70038766Y-50150661D01*
X69943528Y-50198280D01*
X69705433Y-50198280D01*
X69610195Y-50150661D01*
X69562576Y-50103042D01*
X67676852Y-45804080D02*
X67105423Y-45804080D01*
X67391138Y-45804080D02*
X67391138Y-44804080D01*
X67295900Y-44946938D01*
X67200661Y-45042176D01*
X67105423Y-45089795D01*
X68295900Y-44804080D02*
X68391138Y-44804080D01*
X68486376Y-44851700D01*
X68533995Y-44899319D01*
X68581614Y-44994557D01*
X68629233Y-45185033D01*
X68629233Y-45423128D01*
X68581614Y-45613604D01*
X68533995Y-45708842D01*
X68486376Y-45756461D01*
X68391138Y-45804080D01*
X68295900Y-45804080D01*
X68200661Y-45756461D01*
X68153042Y-45708842D01*
X68105423Y-45613604D01*
X68057804Y-45423128D01*
X68057804Y-45185033D01*
X68105423Y-44994557D01*
X68153042Y-44899319D01*
X68200661Y-44851700D01*
X68295900Y-44804080D01*
X69248280Y-44804080D02*
X69343519Y-44804080D01*
X69438757Y-44851700D01*
X69486376Y-44899319D01*
X69533995Y-44994557D01*
X69581614Y-45185033D01*
X69581614Y-45423128D01*
X69533995Y-45613604D01*
X69486376Y-45708842D01*
X69438757Y-45756461D01*
X69343519Y-45804080D01*
X69248280Y-45804080D01*
X69153042Y-45756461D01*
X69105423Y-45708842D01*
X69057804Y-45613604D01*
X69010185Y-45423128D01*
X69010185Y-45185033D01*
X69057804Y-44994557D01*
X69105423Y-44899319D01*
X69153042Y-44851700D01*
X69248280Y-44804080D01*
X70010185Y-45137414D02*
X70010185Y-45804080D01*
X70010185Y-45232652D02*
X70057804Y-45185033D01*
X70153042Y-45137414D01*
X70295900Y-45137414D01*
X70391138Y-45185033D01*
X70438757Y-45280271D01*
X70438757Y-45804080D01*
%TO.C,C1*%
X124561833Y-39109042D02*
X124514214Y-39156661D01*
X124371357Y-39204280D01*
X124276119Y-39204280D01*
X124133261Y-39156661D01*
X124038023Y-39061423D01*
X123990404Y-38966185D01*
X123942785Y-38775709D01*
X123942785Y-38632852D01*
X123990404Y-38442376D01*
X124038023Y-38347138D01*
X124133261Y-38251900D01*
X124276119Y-38204280D01*
X124371357Y-38204280D01*
X124514214Y-38251900D01*
X124561833Y-38299519D01*
X125514214Y-39204280D02*
X124942785Y-39204280D01*
X125228500Y-39204280D02*
X125228500Y-38204280D01*
X125133261Y-38347138D01*
X125038023Y-38442376D01*
X124942785Y-38489995D01*
X123609452Y-42904280D02*
X123038023Y-42904280D01*
X123323738Y-42904280D02*
X123323738Y-41904280D01*
X123228500Y-42047138D01*
X123133261Y-42142376D01*
X123038023Y-42189995D01*
X124228500Y-41904280D02*
X124323738Y-41904280D01*
X124418976Y-41951900D01*
X124466595Y-41999519D01*
X124514214Y-42094757D01*
X124561833Y-42285233D01*
X124561833Y-42523328D01*
X124514214Y-42713804D01*
X124466595Y-42809042D01*
X124418976Y-42856661D01*
X124323738Y-42904280D01*
X124228500Y-42904280D01*
X124133261Y-42856661D01*
X124085642Y-42809042D01*
X124038023Y-42713804D01*
X123990404Y-42523328D01*
X123990404Y-42285233D01*
X124038023Y-42094757D01*
X124085642Y-41999519D01*
X124133261Y-41951900D01*
X124228500Y-41904280D01*
X125180880Y-41904280D02*
X125276119Y-41904280D01*
X125371357Y-41951900D01*
X125418976Y-41999519D01*
X125466595Y-42094757D01*
X125514214Y-42285233D01*
X125514214Y-42523328D01*
X125466595Y-42713804D01*
X125418976Y-42809042D01*
X125371357Y-42856661D01*
X125276119Y-42904280D01*
X125180880Y-42904280D01*
X125085642Y-42856661D01*
X125038023Y-42809042D01*
X124990404Y-42713804D01*
X124942785Y-42523328D01*
X124942785Y-42285233D01*
X124990404Y-42094757D01*
X125038023Y-41999519D01*
X125085642Y-41951900D01*
X125180880Y-41904280D01*
X125942785Y-42237614D02*
X125942785Y-42904280D01*
X125942785Y-42332852D02*
X125990404Y-42285233D01*
X126085642Y-42237614D01*
X126228500Y-42237614D01*
X126323738Y-42285233D01*
X126371357Y-42380471D01*
X126371357Y-42904280D01*
%TO.C,R5*%
X24738033Y-30945080D02*
X24404700Y-30468890D01*
X24166604Y-30945080D02*
X24166604Y-29945080D01*
X24547557Y-29945080D01*
X24642795Y-29992700D01*
X24690414Y-30040319D01*
X24738033Y-30135557D01*
X24738033Y-30278414D01*
X24690414Y-30373652D01*
X24642795Y-30421271D01*
X24547557Y-30468890D01*
X24166604Y-30468890D01*
X25642795Y-29945080D02*
X25166604Y-29945080D01*
X25118985Y-30421271D01*
X25166604Y-30373652D01*
X25261842Y-30326033D01*
X25499938Y-30326033D01*
X25595176Y-30373652D01*
X25642795Y-30421271D01*
X25690414Y-30516509D01*
X25690414Y-30754604D01*
X25642795Y-30849842D01*
X25595176Y-30897461D01*
X25499938Y-30945080D01*
X25261842Y-30945080D01*
X25166604Y-30897461D01*
X25118985Y-30849842D01*
X23706223Y-29344880D02*
X23134795Y-29344880D01*
X23420509Y-29344880D02*
X23420509Y-28344880D01*
X23325271Y-28487738D01*
X23230033Y-28582976D01*
X23134795Y-28630595D01*
X24325271Y-28344880D02*
X24420509Y-28344880D01*
X24515747Y-28392500D01*
X24563366Y-28440119D01*
X24610985Y-28535357D01*
X24658604Y-28725833D01*
X24658604Y-28963928D01*
X24610985Y-29154404D01*
X24563366Y-29249642D01*
X24515747Y-29297261D01*
X24420509Y-29344880D01*
X24325271Y-29344880D01*
X24230033Y-29297261D01*
X24182414Y-29249642D01*
X24134795Y-29154404D01*
X24087176Y-28963928D01*
X24087176Y-28725833D01*
X24134795Y-28535357D01*
X24182414Y-28440119D01*
X24230033Y-28392500D01*
X24325271Y-28344880D01*
X25087176Y-29344880D02*
X25087176Y-28344880D01*
X25658604Y-29344880D02*
X25230033Y-28773452D01*
X25658604Y-28344880D02*
X25087176Y-28916309D01*
%TO.C,C16*%
X84342242Y-55671957D02*
X84389861Y-55719576D01*
X84437480Y-55862433D01*
X84437480Y-55957671D01*
X84389861Y-56100528D01*
X84294623Y-56195766D01*
X84199385Y-56243385D01*
X84008909Y-56291004D01*
X83866052Y-56291004D01*
X83675576Y-56243385D01*
X83580338Y-56195766D01*
X83485100Y-56100528D01*
X83437480Y-55957671D01*
X83437480Y-55862433D01*
X83485100Y-55719576D01*
X83532719Y-55671957D01*
X84437480Y-54719576D02*
X84437480Y-55291004D01*
X84437480Y-55005290D02*
X83437480Y-55005290D01*
X83580338Y-55100528D01*
X83675576Y-55195766D01*
X83723195Y-55291004D01*
X83437480Y-53862433D02*
X83437480Y-54052909D01*
X83485100Y-54148147D01*
X83532719Y-54195766D01*
X83675576Y-54291004D01*
X83866052Y-54338623D01*
X84247004Y-54338623D01*
X84342242Y-54291004D01*
X84389861Y-54243385D01*
X84437480Y-54148147D01*
X84437480Y-53957671D01*
X84389861Y-53862433D01*
X84342242Y-53814814D01*
X84247004Y-53767195D01*
X84008909Y-53767195D01*
X83913671Y-53814814D01*
X83866052Y-53862433D01*
X83818433Y-53957671D01*
X83818433Y-54148147D01*
X83866052Y-54243385D01*
X83913671Y-54291004D01*
X84008909Y-54338623D01*
X82176880Y-56656147D02*
X82176880Y-57227576D01*
X82176880Y-56941861D02*
X81176880Y-56941861D01*
X81319738Y-57037100D01*
X81414976Y-57132338D01*
X81462595Y-57227576D01*
X81176880Y-56037100D02*
X81176880Y-55941861D01*
X81224500Y-55846623D01*
X81272119Y-55799004D01*
X81367357Y-55751385D01*
X81557833Y-55703766D01*
X81795928Y-55703766D01*
X81986404Y-55751385D01*
X82081642Y-55799004D01*
X82129261Y-55846623D01*
X82176880Y-55941861D01*
X82176880Y-56037100D01*
X82129261Y-56132338D01*
X82081642Y-56179957D01*
X81986404Y-56227576D01*
X81795928Y-56275195D01*
X81557833Y-56275195D01*
X81367357Y-56227576D01*
X81272119Y-56179957D01*
X81224500Y-56132338D01*
X81176880Y-56037100D01*
X81176880Y-55084719D02*
X81176880Y-54989480D01*
X81224500Y-54894242D01*
X81272119Y-54846623D01*
X81367357Y-54799004D01*
X81557833Y-54751385D01*
X81795928Y-54751385D01*
X81986404Y-54799004D01*
X82081642Y-54846623D01*
X82129261Y-54894242D01*
X82176880Y-54989480D01*
X82176880Y-55084719D01*
X82129261Y-55179957D01*
X82081642Y-55227576D01*
X81986404Y-55275195D01*
X81795928Y-55322814D01*
X81557833Y-55322814D01*
X81367357Y-55275195D01*
X81272119Y-55227576D01*
X81224500Y-55179957D01*
X81176880Y-55084719D01*
X81510214Y-54322814D02*
X82176880Y-54322814D01*
X81605452Y-54322814D02*
X81557833Y-54275195D01*
X81510214Y-54179957D01*
X81510214Y-54037100D01*
X81557833Y-53941861D01*
X81653071Y-53894242D01*
X82176880Y-53894242D01*
%TO.C,C8*%
X42864042Y-28779766D02*
X42911661Y-28827385D01*
X42959280Y-28970242D01*
X42959280Y-29065480D01*
X42911661Y-29208338D01*
X42816423Y-29303576D01*
X42721185Y-29351195D01*
X42530709Y-29398814D01*
X42387852Y-29398814D01*
X42197376Y-29351195D01*
X42102138Y-29303576D01*
X42006900Y-29208338D01*
X41959280Y-29065480D01*
X41959280Y-28970242D01*
X42006900Y-28827385D01*
X42054519Y-28779766D01*
X42387852Y-28208338D02*
X42340233Y-28303576D01*
X42292614Y-28351195D01*
X42197376Y-28398814D01*
X42149757Y-28398814D01*
X42054519Y-28351195D01*
X42006900Y-28303576D01*
X41959280Y-28208338D01*
X41959280Y-28017861D01*
X42006900Y-27922623D01*
X42054519Y-27875004D01*
X42149757Y-27827385D01*
X42197376Y-27827385D01*
X42292614Y-27875004D01*
X42340233Y-27922623D01*
X42387852Y-28017861D01*
X42387852Y-28208338D01*
X42435471Y-28303576D01*
X42483090Y-28351195D01*
X42578328Y-28398814D01*
X42768804Y-28398814D01*
X42864042Y-28351195D01*
X42911661Y-28303576D01*
X42959280Y-28208338D01*
X42959280Y-28017861D01*
X42911661Y-27922623D01*
X42864042Y-27875004D01*
X42768804Y-27827385D01*
X42578328Y-27827385D01*
X42483090Y-27875004D01*
X42435471Y-27922623D01*
X42387852Y-28017861D01*
X44584880Y-28944747D02*
X44584880Y-29516176D01*
X44584880Y-29230461D02*
X43584880Y-29230461D01*
X43727738Y-29325700D01*
X43822976Y-29420938D01*
X43870595Y-29516176D01*
X43584880Y-28325700D02*
X43584880Y-28230461D01*
X43632500Y-28135223D01*
X43680119Y-28087604D01*
X43775357Y-28039985D01*
X43965833Y-27992366D01*
X44203928Y-27992366D01*
X44394404Y-28039985D01*
X44489642Y-28087604D01*
X44537261Y-28135223D01*
X44584880Y-28230461D01*
X44584880Y-28325700D01*
X44537261Y-28420938D01*
X44489642Y-28468557D01*
X44394404Y-28516176D01*
X44203928Y-28563795D01*
X43965833Y-28563795D01*
X43775357Y-28516176D01*
X43680119Y-28468557D01*
X43632500Y-28420938D01*
X43584880Y-28325700D01*
X43584880Y-27373319D02*
X43584880Y-27278080D01*
X43632500Y-27182842D01*
X43680119Y-27135223D01*
X43775357Y-27087604D01*
X43965833Y-27039985D01*
X44203928Y-27039985D01*
X44394404Y-27087604D01*
X44489642Y-27135223D01*
X44537261Y-27182842D01*
X44584880Y-27278080D01*
X44584880Y-27373319D01*
X44537261Y-27468557D01*
X44489642Y-27516176D01*
X44394404Y-27563795D01*
X44203928Y-27611414D01*
X43965833Y-27611414D01*
X43775357Y-27563795D01*
X43680119Y-27516176D01*
X43632500Y-27468557D01*
X43584880Y-27373319D01*
X43918214Y-26611414D02*
X44584880Y-26611414D01*
X44013452Y-26611414D02*
X43965833Y-26563795D01*
X43918214Y-26468557D01*
X43918214Y-26325700D01*
X43965833Y-26230461D01*
X44061071Y-26182842D01*
X44584880Y-26182842D01*
%TO.C,RV2*%
X54846480Y-58088138D02*
X54370290Y-58421471D01*
X54846480Y-58659566D02*
X53846480Y-58659566D01*
X53846480Y-58278614D01*
X53894100Y-58183376D01*
X53941719Y-58135757D01*
X54036957Y-58088138D01*
X54179814Y-58088138D01*
X54275052Y-58135757D01*
X54322671Y-58183376D01*
X54370290Y-58278614D01*
X54370290Y-58659566D01*
X53846480Y-57802423D02*
X54846480Y-57469090D01*
X53846480Y-57135757D01*
X53941719Y-56850042D02*
X53894100Y-56802423D01*
X53846480Y-56707185D01*
X53846480Y-56469090D01*
X53894100Y-56373852D01*
X53941719Y-56326233D01*
X54036957Y-56278614D01*
X54132195Y-56278614D01*
X54275052Y-56326233D01*
X54846480Y-56897661D01*
X54846480Y-56278614D01*
X62593480Y-50823785D02*
X62593480Y-51395214D01*
X62593480Y-51109500D02*
X61593480Y-51109500D01*
X61736338Y-51204738D01*
X61831576Y-51299976D01*
X61879195Y-51395214D01*
X62593480Y-50395214D02*
X61593480Y-50395214D01*
X62593480Y-49823785D02*
X62022052Y-50252357D01*
X61593480Y-49823785D02*
X62164909Y-50395214D01*
%TO.C,C11*%
X23779242Y-34177242D02*
X23731623Y-34224861D01*
X23588766Y-34272480D01*
X23493528Y-34272480D01*
X23350671Y-34224861D01*
X23255433Y-34129623D01*
X23207814Y-34034385D01*
X23160195Y-33843909D01*
X23160195Y-33701052D01*
X23207814Y-33510576D01*
X23255433Y-33415338D01*
X23350671Y-33320100D01*
X23493528Y-33272480D01*
X23588766Y-33272480D01*
X23731623Y-33320100D01*
X23779242Y-33367719D01*
X24731623Y-34272480D02*
X24160195Y-34272480D01*
X24445909Y-34272480D02*
X24445909Y-33272480D01*
X24350671Y-33415338D01*
X24255433Y-33510576D01*
X24160195Y-33558195D01*
X25684004Y-34272480D02*
X25112576Y-34272480D01*
X25398290Y-34272480D02*
X25398290Y-33272480D01*
X25303052Y-33415338D01*
X25207814Y-33510576D01*
X25112576Y-33558195D01*
X22896652Y-32596080D02*
X22325223Y-32596080D01*
X22610938Y-32596080D02*
X22610938Y-31596080D01*
X22515700Y-31738938D01*
X22420461Y-31834176D01*
X22325223Y-31881795D01*
X23515700Y-31596080D02*
X23610938Y-31596080D01*
X23706176Y-31643700D01*
X23753795Y-31691319D01*
X23801414Y-31786557D01*
X23849033Y-31977033D01*
X23849033Y-32215128D01*
X23801414Y-32405604D01*
X23753795Y-32500842D01*
X23706176Y-32548461D01*
X23610938Y-32596080D01*
X23515700Y-32596080D01*
X23420461Y-32548461D01*
X23372842Y-32500842D01*
X23325223Y-32405604D01*
X23277604Y-32215128D01*
X23277604Y-31977033D01*
X23325223Y-31786557D01*
X23372842Y-31691319D01*
X23420461Y-31643700D01*
X23515700Y-31596080D01*
X24468080Y-31596080D02*
X24563319Y-31596080D01*
X24658557Y-31643700D01*
X24706176Y-31691319D01*
X24753795Y-31786557D01*
X24801414Y-31977033D01*
X24801414Y-32215128D01*
X24753795Y-32405604D01*
X24706176Y-32500842D01*
X24658557Y-32548461D01*
X24563319Y-32596080D01*
X24468080Y-32596080D01*
X24372842Y-32548461D01*
X24325223Y-32500842D01*
X24277604Y-32405604D01*
X24229985Y-32215128D01*
X24229985Y-31977033D01*
X24277604Y-31786557D01*
X24325223Y-31691319D01*
X24372842Y-31643700D01*
X24468080Y-31596080D01*
X25229985Y-31929414D02*
X25229985Y-32596080D01*
X25229985Y-32024652D02*
X25277604Y-31977033D01*
X25372842Y-31929414D01*
X25515700Y-31929414D01*
X25610938Y-31977033D01*
X25658557Y-32072271D01*
X25658557Y-32596080D01*
%TO.C,C5*%
X24661833Y-37453842D02*
X24614214Y-37501461D01*
X24471357Y-37549080D01*
X24376119Y-37549080D01*
X24233261Y-37501461D01*
X24138023Y-37406223D01*
X24090404Y-37310985D01*
X24042785Y-37120509D01*
X24042785Y-36977652D01*
X24090404Y-36787176D01*
X24138023Y-36691938D01*
X24233261Y-36596700D01*
X24376119Y-36549080D01*
X24471357Y-36549080D01*
X24614214Y-36596700D01*
X24661833Y-36644319D01*
X25566595Y-36549080D02*
X25090404Y-36549080D01*
X25042785Y-37025271D01*
X25090404Y-36977652D01*
X25185642Y-36930033D01*
X25423738Y-36930033D01*
X25518976Y-36977652D01*
X25566595Y-37025271D01*
X25614214Y-37120509D01*
X25614214Y-37358604D01*
X25566595Y-37453842D01*
X25518976Y-37501461D01*
X25423738Y-37549080D01*
X25185642Y-37549080D01*
X25090404Y-37501461D01*
X25042785Y-37453842D01*
X24814233Y-35948880D02*
X24242804Y-35948880D01*
X24528519Y-35948880D02*
X24528519Y-34948880D01*
X24433280Y-35091738D01*
X24338042Y-35186976D01*
X24242804Y-35234595D01*
X25671376Y-35282214D02*
X25671376Y-35948880D01*
X25242804Y-35282214D02*
X25242804Y-35806023D01*
X25290423Y-35901261D01*
X25385661Y-35948880D01*
X25528519Y-35948880D01*
X25623757Y-35901261D01*
X25671376Y-35853642D01*
%TO.C,R7*%
X30437080Y-39904966D02*
X29960890Y-40238300D01*
X30437080Y-40476395D02*
X29437080Y-40476395D01*
X29437080Y-40095442D01*
X29484700Y-40000204D01*
X29532319Y-39952585D01*
X29627557Y-39904966D01*
X29770414Y-39904966D01*
X29865652Y-39952585D01*
X29913271Y-40000204D01*
X29960890Y-40095442D01*
X29960890Y-40476395D01*
X29437080Y-39571633D02*
X29437080Y-38904966D01*
X30437080Y-39333538D01*
X31951680Y-38012595D02*
X31951680Y-38488785D01*
X32427871Y-38536404D01*
X32380252Y-38488785D01*
X32332633Y-38393547D01*
X32332633Y-38155452D01*
X32380252Y-38060214D01*
X32427871Y-38012595D01*
X32523109Y-37964976D01*
X32761204Y-37964976D01*
X32856442Y-38012595D01*
X32904061Y-38060214D01*
X32951680Y-38155452D01*
X32951680Y-38393547D01*
X32904061Y-38488785D01*
X32856442Y-38536404D01*
X32951680Y-37012595D02*
X32951680Y-37584023D01*
X32951680Y-37298309D02*
X31951680Y-37298309D01*
X32094538Y-37393547D01*
X32189776Y-37488785D01*
X32237395Y-37584023D01*
X32951680Y-36012595D02*
X32475490Y-36345928D01*
X32951680Y-36584023D02*
X31951680Y-36584023D01*
X31951680Y-36203071D01*
X31999300Y-36107833D01*
X32046919Y-36060214D01*
X32142157Y-36012595D01*
X32285014Y-36012595D01*
X32380252Y-36060214D01*
X32427871Y-36107833D01*
X32475490Y-36203071D01*
X32475490Y-36584023D01*
%TO.C,C6*%
X29716433Y-43626042D02*
X29668814Y-43673661D01*
X29525957Y-43721280D01*
X29430719Y-43721280D01*
X29287861Y-43673661D01*
X29192623Y-43578423D01*
X29145004Y-43483185D01*
X29097385Y-43292709D01*
X29097385Y-43149852D01*
X29145004Y-42959376D01*
X29192623Y-42864138D01*
X29287861Y-42768900D01*
X29430719Y-42721280D01*
X29525957Y-42721280D01*
X29668814Y-42768900D01*
X29716433Y-42816519D01*
X30573576Y-42721280D02*
X30383100Y-42721280D01*
X30287861Y-42768900D01*
X30240242Y-42816519D01*
X30145004Y-42959376D01*
X30097385Y-43149852D01*
X30097385Y-43530804D01*
X30145004Y-43626042D01*
X30192623Y-43673661D01*
X30287861Y-43721280D01*
X30478338Y-43721280D01*
X30573576Y-43673661D01*
X30621195Y-43626042D01*
X30668814Y-43530804D01*
X30668814Y-43292709D01*
X30621195Y-43197471D01*
X30573576Y-43149852D01*
X30478338Y-43102233D01*
X30287861Y-43102233D01*
X30192623Y-43149852D01*
X30145004Y-43197471D01*
X30097385Y-43292709D01*
X29576852Y-48217080D02*
X29005423Y-48217080D01*
X29291138Y-48217080D02*
X29291138Y-47217080D01*
X29195900Y-47359938D01*
X29100661Y-47455176D01*
X29005423Y-47502795D01*
X30195900Y-47217080D02*
X30291138Y-47217080D01*
X30386376Y-47264700D01*
X30433995Y-47312319D01*
X30481614Y-47407557D01*
X30529233Y-47598033D01*
X30529233Y-47836128D01*
X30481614Y-48026604D01*
X30433995Y-48121842D01*
X30386376Y-48169461D01*
X30291138Y-48217080D01*
X30195900Y-48217080D01*
X30100661Y-48169461D01*
X30053042Y-48121842D01*
X30005423Y-48026604D01*
X29957804Y-47836128D01*
X29957804Y-47598033D01*
X30005423Y-47407557D01*
X30053042Y-47312319D01*
X30100661Y-47264700D01*
X30195900Y-47217080D01*
X31148280Y-47217080D02*
X31243519Y-47217080D01*
X31338757Y-47264700D01*
X31386376Y-47312319D01*
X31433995Y-47407557D01*
X31481614Y-47598033D01*
X31481614Y-47836128D01*
X31433995Y-48026604D01*
X31386376Y-48121842D01*
X31338757Y-48169461D01*
X31243519Y-48217080D01*
X31148280Y-48217080D01*
X31053042Y-48169461D01*
X31005423Y-48121842D01*
X30957804Y-48026604D01*
X30910185Y-47836128D01*
X30910185Y-47598033D01*
X30957804Y-47407557D01*
X31005423Y-47312319D01*
X31053042Y-47264700D01*
X31148280Y-47217080D01*
X31910185Y-47550414D02*
X31910185Y-48217080D01*
X31910185Y-47645652D02*
X31957804Y-47598033D01*
X32053042Y-47550414D01*
X32195900Y-47550414D01*
X32291138Y-47598033D01*
X32338757Y-47693271D01*
X32338757Y-48217080D01*
%TO.C,R3*%
X36803033Y-48318680D02*
X36469700Y-47842490D01*
X36231604Y-48318680D02*
X36231604Y-47318680D01*
X36612557Y-47318680D01*
X36707795Y-47366300D01*
X36755414Y-47413919D01*
X36803033Y-47509157D01*
X36803033Y-47652014D01*
X36755414Y-47747252D01*
X36707795Y-47794871D01*
X36612557Y-47842490D01*
X36231604Y-47842490D01*
X37136366Y-47318680D02*
X37755414Y-47318680D01*
X37422080Y-47699633D01*
X37564938Y-47699633D01*
X37660176Y-47747252D01*
X37707795Y-47794871D01*
X37755414Y-47890109D01*
X37755414Y-48128204D01*
X37707795Y-48223442D01*
X37660176Y-48271061D01*
X37564938Y-48318680D01*
X37279223Y-48318680D01*
X37183985Y-48271061D01*
X37136366Y-48223442D01*
X39454223Y-48217080D02*
X39644700Y-48217080D01*
X39739938Y-48169461D01*
X39787557Y-48121842D01*
X39882795Y-47978985D01*
X39930414Y-47788509D01*
X39930414Y-47407557D01*
X39882795Y-47312319D01*
X39835176Y-47264700D01*
X39739938Y-47217080D01*
X39549461Y-47217080D01*
X39454223Y-47264700D01*
X39406604Y-47312319D01*
X39358985Y-47407557D01*
X39358985Y-47645652D01*
X39406604Y-47740890D01*
X39454223Y-47788509D01*
X39549461Y-47836128D01*
X39739938Y-47836128D01*
X39835176Y-47788509D01*
X39882795Y-47740890D01*
X39930414Y-47645652D01*
X40358985Y-48217080D02*
X40358985Y-47217080D01*
X40930414Y-48217080D02*
X40501842Y-47645652D01*
X40930414Y-47217080D02*
X40358985Y-47788509D01*
%TO.C,U4*%
X75483974Y-57722103D02*
X75483974Y-58359524D01*
X75521470Y-58434515D01*
X75558965Y-58472010D01*
X75633956Y-58509505D01*
X75783937Y-58509505D01*
X75858928Y-58472010D01*
X75896423Y-58434515D01*
X75933918Y-58359524D01*
X75933918Y-57722103D01*
X76646330Y-57984571D02*
X76646330Y-58509505D01*
X76458853Y-57684608D02*
X76271376Y-58247038D01*
X76758816Y-58247038D01*
%TO.C,RV1*%
X34475680Y-34948738D02*
X33999490Y-35282071D01*
X34475680Y-35520166D02*
X33475680Y-35520166D01*
X33475680Y-35139214D01*
X33523300Y-35043976D01*
X33570919Y-34996357D01*
X33666157Y-34948738D01*
X33809014Y-34948738D01*
X33904252Y-34996357D01*
X33951871Y-35043976D01*
X33999490Y-35139214D01*
X33999490Y-35520166D01*
X33475680Y-34663023D02*
X34475680Y-34329690D01*
X33475680Y-33996357D01*
X34475680Y-33139214D02*
X34475680Y-33710642D01*
X34475680Y-33424928D02*
X33475680Y-33424928D01*
X33618538Y-33520166D01*
X33713776Y-33615404D01*
X33761395Y-33710642D01*
X41790880Y-34262985D02*
X41790880Y-34834414D01*
X41790880Y-34548700D02*
X40790880Y-34548700D01*
X40933738Y-34643938D01*
X41028976Y-34739176D01*
X41076595Y-34834414D01*
X41790880Y-33834414D02*
X40790880Y-33834414D01*
X41790880Y-33262985D02*
X41219452Y-33691557D01*
X40790880Y-33262985D02*
X41362309Y-33834414D01*
%TO.C,R20*%
X65819280Y-42133757D02*
X65343090Y-42467090D01*
X65819280Y-42705185D02*
X64819280Y-42705185D01*
X64819280Y-42324233D01*
X64866900Y-42228995D01*
X64914519Y-42181376D01*
X65009757Y-42133757D01*
X65152614Y-42133757D01*
X65247852Y-42181376D01*
X65295471Y-42228995D01*
X65343090Y-42324233D01*
X65343090Y-42705185D01*
X64914519Y-41752804D02*
X64866900Y-41705185D01*
X64819280Y-41609947D01*
X64819280Y-41371852D01*
X64866900Y-41276614D01*
X64914519Y-41228995D01*
X65009757Y-41181376D01*
X65104995Y-41181376D01*
X65247852Y-41228995D01*
X65819280Y-41800423D01*
X65819280Y-41181376D01*
X64819280Y-40562328D02*
X64819280Y-40467090D01*
X64866900Y-40371852D01*
X64914519Y-40324233D01*
X65009757Y-40276614D01*
X65200233Y-40228995D01*
X65438328Y-40228995D01*
X65628804Y-40276614D01*
X65724042Y-40324233D01*
X65771661Y-40371852D01*
X65819280Y-40467090D01*
X65819280Y-40562328D01*
X65771661Y-40657566D01*
X65724042Y-40705185D01*
X65628804Y-40752804D01*
X65438328Y-40800423D01*
X65200233Y-40800423D01*
X65009757Y-40752804D01*
X64914519Y-40705185D01*
X64866900Y-40657566D01*
X64819280Y-40562328D01*
X62990480Y-41830595D02*
X62990480Y-42306785D01*
X63466671Y-42354404D01*
X63419052Y-42306785D01*
X63371433Y-42211547D01*
X63371433Y-41973452D01*
X63419052Y-41878214D01*
X63466671Y-41830595D01*
X63561909Y-41782976D01*
X63800004Y-41782976D01*
X63895242Y-41830595D01*
X63942861Y-41878214D01*
X63990480Y-41973452D01*
X63990480Y-42211547D01*
X63942861Y-42306785D01*
X63895242Y-42354404D01*
X62990480Y-41163928D02*
X62990480Y-41068690D01*
X63038100Y-40973452D01*
X63085719Y-40925833D01*
X63180957Y-40878214D01*
X63371433Y-40830595D01*
X63609528Y-40830595D01*
X63800004Y-40878214D01*
X63895242Y-40925833D01*
X63942861Y-40973452D01*
X63990480Y-41068690D01*
X63990480Y-41163928D01*
X63942861Y-41259166D01*
X63895242Y-41306785D01*
X63800004Y-41354404D01*
X63609528Y-41402023D01*
X63371433Y-41402023D01*
X63180957Y-41354404D01*
X63085719Y-41306785D01*
X63038100Y-41259166D01*
X62990480Y-41163928D01*
%TO.C,R2*%
X107059433Y-23629880D02*
X106726100Y-23153690D01*
X106488004Y-23629880D02*
X106488004Y-22629880D01*
X106868957Y-22629880D01*
X106964195Y-22677500D01*
X107011814Y-22725119D01*
X107059433Y-22820357D01*
X107059433Y-22963214D01*
X107011814Y-23058452D01*
X106964195Y-23106071D01*
X106868957Y-23153690D01*
X106488004Y-23153690D01*
X107440385Y-22725119D02*
X107488004Y-22677500D01*
X107583242Y-22629880D01*
X107821338Y-22629880D01*
X107916576Y-22677500D01*
X107964195Y-22725119D01*
X108011814Y-22820357D01*
X108011814Y-22915595D01*
X107964195Y-23058452D01*
X107392766Y-23629880D01*
X108011814Y-23629880D01*
X103417785Y-22655280D02*
X103227309Y-22655280D01*
X103132071Y-22702900D01*
X103084452Y-22750519D01*
X102989214Y-22893376D01*
X102941595Y-23083852D01*
X102941595Y-23464804D01*
X102989214Y-23560042D01*
X103036833Y-23607661D01*
X103132071Y-23655280D01*
X103322547Y-23655280D01*
X103417785Y-23607661D01*
X103465404Y-23560042D01*
X103513023Y-23464804D01*
X103513023Y-23226709D01*
X103465404Y-23131471D01*
X103417785Y-23083852D01*
X103322547Y-23036233D01*
X103132071Y-23036233D01*
X103036833Y-23083852D01*
X102989214Y-23131471D01*
X102941595Y-23226709D01*
X104084452Y-23083852D02*
X103989214Y-23036233D01*
X103941595Y-22988614D01*
X103893976Y-22893376D01*
X103893976Y-22845757D01*
X103941595Y-22750519D01*
X103989214Y-22702900D01*
X104084452Y-22655280D01*
X104274928Y-22655280D01*
X104370166Y-22702900D01*
X104417785Y-22750519D01*
X104465404Y-22845757D01*
X104465404Y-22893376D01*
X104417785Y-22988614D01*
X104370166Y-23036233D01*
X104274928Y-23083852D01*
X104084452Y-23083852D01*
X103989214Y-23131471D01*
X103941595Y-23179090D01*
X103893976Y-23274328D01*
X103893976Y-23464804D01*
X103941595Y-23560042D01*
X103989214Y-23607661D01*
X104084452Y-23655280D01*
X104274928Y-23655280D01*
X104370166Y-23607661D01*
X104417785Y-23560042D01*
X104465404Y-23464804D01*
X104465404Y-23274328D01*
X104417785Y-23179090D01*
X104370166Y-23131471D01*
X104274928Y-23083852D01*
X105465404Y-23655280D02*
X105132071Y-23179090D01*
X104893976Y-23655280D02*
X104893976Y-22655280D01*
X105274928Y-22655280D01*
X105370166Y-22702900D01*
X105417785Y-22750519D01*
X105465404Y-22845757D01*
X105465404Y-22988614D01*
X105417785Y-23083852D01*
X105370166Y-23131471D01*
X105274928Y-23179090D01*
X104893976Y-23179090D01*
%TO.C,C2*%
X55827633Y-34736042D02*
X55780014Y-34783661D01*
X55637157Y-34831280D01*
X55541919Y-34831280D01*
X55399061Y-34783661D01*
X55303823Y-34688423D01*
X55256204Y-34593185D01*
X55208585Y-34402709D01*
X55208585Y-34259852D01*
X55256204Y-34069376D01*
X55303823Y-33974138D01*
X55399061Y-33878900D01*
X55541919Y-33831280D01*
X55637157Y-33831280D01*
X55780014Y-33878900D01*
X55827633Y-33926519D01*
X56208585Y-33926519D02*
X56256204Y-33878900D01*
X56351442Y-33831280D01*
X56589538Y-33831280D01*
X56684776Y-33878900D01*
X56732395Y-33926519D01*
X56780014Y-34021757D01*
X56780014Y-34116995D01*
X56732395Y-34259852D01*
X56160966Y-34831280D01*
X56780014Y-34831280D01*
X55421233Y-33027880D02*
X54849804Y-33027880D01*
X55135519Y-33027880D02*
X55135519Y-32027880D01*
X55040280Y-32170738D01*
X54945042Y-32265976D01*
X54849804Y-32313595D01*
X56278376Y-32361214D02*
X56278376Y-33027880D01*
X55849804Y-32361214D02*
X55849804Y-32885023D01*
X55897423Y-32980261D01*
X55992661Y-33027880D01*
X56135519Y-33027880D01*
X56230757Y-32980261D01*
X56278376Y-32932642D01*
%TO.C,R18*%
X117022642Y-38717480D02*
X116689309Y-38241290D01*
X116451214Y-38717480D02*
X116451214Y-37717480D01*
X116832166Y-37717480D01*
X116927404Y-37765100D01*
X116975023Y-37812719D01*
X117022642Y-37907957D01*
X117022642Y-38050814D01*
X116975023Y-38146052D01*
X116927404Y-38193671D01*
X116832166Y-38241290D01*
X116451214Y-38241290D01*
X117975023Y-38717480D02*
X117403595Y-38717480D01*
X117689309Y-38717480D02*
X117689309Y-37717480D01*
X117594071Y-37860338D01*
X117498833Y-37955576D01*
X117403595Y-38003195D01*
X118546452Y-38146052D02*
X118451214Y-38098433D01*
X118403595Y-38050814D01*
X118355976Y-37955576D01*
X118355976Y-37907957D01*
X118403595Y-37812719D01*
X118451214Y-37765100D01*
X118546452Y-37717480D01*
X118736928Y-37717480D01*
X118832166Y-37765100D01*
X118879785Y-37812719D01*
X118927404Y-37907957D01*
X118927404Y-37955576D01*
X118879785Y-38050814D01*
X118832166Y-38098433D01*
X118736928Y-38146052D01*
X118546452Y-38146052D01*
X118451214Y-38193671D01*
X118403595Y-38241290D01*
X118355976Y-38336528D01*
X118355976Y-38527004D01*
X118403595Y-38622242D01*
X118451214Y-38669861D01*
X118546452Y-38717480D01*
X118736928Y-38717480D01*
X118832166Y-38669861D01*
X118879785Y-38622242D01*
X118927404Y-38527004D01*
X118927404Y-38336528D01*
X118879785Y-38241290D01*
X118832166Y-38193671D01*
X118736928Y-38146052D01*
X120356404Y-37717480D02*
X119880214Y-37717480D01*
X119832595Y-38193671D01*
X119880214Y-38146052D01*
X119975452Y-38098433D01*
X120213547Y-38098433D01*
X120308785Y-38146052D01*
X120356404Y-38193671D01*
X120404023Y-38288909D01*
X120404023Y-38527004D01*
X120356404Y-38622242D01*
X120308785Y-38669861D01*
X120213547Y-38717480D01*
X119975452Y-38717480D01*
X119880214Y-38669861D01*
X119832595Y-38622242D01*
X121023071Y-37717480D02*
X121118309Y-37717480D01*
X121213547Y-37765100D01*
X121261166Y-37812719D01*
X121308785Y-37907957D01*
X121356404Y-38098433D01*
X121356404Y-38336528D01*
X121308785Y-38527004D01*
X121261166Y-38622242D01*
X121213547Y-38669861D01*
X121118309Y-38717480D01*
X121023071Y-38717480D01*
X120927833Y-38669861D01*
X120880214Y-38622242D01*
X120832595Y-38527004D01*
X120784976Y-38336528D01*
X120784976Y-38098433D01*
X120832595Y-37907957D01*
X120880214Y-37812719D01*
X120927833Y-37765100D01*
X121023071Y-37717480D01*
X122356404Y-38717480D02*
X122023071Y-38241290D01*
X121784976Y-38717480D02*
X121784976Y-37717480D01*
X122165928Y-37717480D01*
X122261166Y-37765100D01*
X122308785Y-37812719D01*
X122356404Y-37907957D01*
X122356404Y-38050814D01*
X122308785Y-38146052D01*
X122261166Y-38193671D01*
X122165928Y-38241290D01*
X121784976Y-38241290D01*
%TO.C,R11*%
X59723280Y-41803557D02*
X59247090Y-42136890D01*
X59723280Y-42374985D02*
X58723280Y-42374985D01*
X58723280Y-41994033D01*
X58770900Y-41898795D01*
X58818519Y-41851176D01*
X58913757Y-41803557D01*
X59056614Y-41803557D01*
X59151852Y-41851176D01*
X59199471Y-41898795D01*
X59247090Y-41994033D01*
X59247090Y-42374985D01*
X59723280Y-40851176D02*
X59723280Y-41422604D01*
X59723280Y-41136890D02*
X58723280Y-41136890D01*
X58866138Y-41232128D01*
X58961376Y-41327366D01*
X59008995Y-41422604D01*
X59723280Y-39898795D02*
X59723280Y-40470223D01*
X59723280Y-40184509D02*
X58723280Y-40184509D01*
X58866138Y-40279747D01*
X58961376Y-40374985D01*
X59008995Y-40470223D01*
X56564280Y-42092404D02*
X56564280Y-42282880D01*
X56611900Y-42378119D01*
X56659519Y-42425738D01*
X56802376Y-42520976D01*
X56992852Y-42568595D01*
X57373804Y-42568595D01*
X57469042Y-42520976D01*
X57516661Y-42473357D01*
X57564280Y-42378119D01*
X57564280Y-42187642D01*
X57516661Y-42092404D01*
X57469042Y-42044785D01*
X57373804Y-41997166D01*
X57135709Y-41997166D01*
X57040471Y-42044785D01*
X56992852Y-42092404D01*
X56945233Y-42187642D01*
X56945233Y-42378119D01*
X56992852Y-42473357D01*
X57040471Y-42520976D01*
X57135709Y-42568595D01*
X56659519Y-41616214D02*
X56611900Y-41568595D01*
X56564280Y-41473357D01*
X56564280Y-41235261D01*
X56611900Y-41140023D01*
X56659519Y-41092404D01*
X56754757Y-41044785D01*
X56849995Y-41044785D01*
X56992852Y-41092404D01*
X57564280Y-41663833D01*
X57564280Y-41044785D01*
X56564280Y-40425738D02*
X56564280Y-40330500D01*
X56611900Y-40235261D01*
X56659519Y-40187642D01*
X56754757Y-40140023D01*
X56945233Y-40092404D01*
X57183328Y-40092404D01*
X57373804Y-40140023D01*
X57469042Y-40187642D01*
X57516661Y-40235261D01*
X57564280Y-40330500D01*
X57564280Y-40425738D01*
X57516661Y-40520976D01*
X57469042Y-40568595D01*
X57373804Y-40616214D01*
X57183328Y-40663833D01*
X56945233Y-40663833D01*
X56754757Y-40616214D01*
X56659519Y-40568595D01*
X56611900Y-40520976D01*
X56564280Y-40425738D01*
X57564280Y-39092404D02*
X57088090Y-39425738D01*
X57564280Y-39663833D02*
X56564280Y-39663833D01*
X56564280Y-39282880D01*
X56611900Y-39187642D01*
X56659519Y-39140023D01*
X56754757Y-39092404D01*
X56897614Y-39092404D01*
X56992852Y-39140023D01*
X57040471Y-39187642D01*
X57088090Y-39282880D01*
X57088090Y-39663833D01*
%TO.C,C9*%
X119276833Y-26760442D02*
X119229214Y-26808061D01*
X119086357Y-26855680D01*
X118991119Y-26855680D01*
X118848261Y-26808061D01*
X118753023Y-26712823D01*
X118705404Y-26617585D01*
X118657785Y-26427109D01*
X118657785Y-26284252D01*
X118705404Y-26093776D01*
X118753023Y-25998538D01*
X118848261Y-25903300D01*
X118991119Y-25855680D01*
X119086357Y-25855680D01*
X119229214Y-25903300D01*
X119276833Y-25950919D01*
X119753023Y-26855680D02*
X119943500Y-26855680D01*
X120038738Y-26808061D01*
X120086357Y-26760442D01*
X120181595Y-26617585D01*
X120229214Y-26427109D01*
X120229214Y-26046157D01*
X120181595Y-25950919D01*
X120133976Y-25903300D01*
X120038738Y-25855680D01*
X119848261Y-25855680D01*
X119753023Y-25903300D01*
X119705404Y-25950919D01*
X119657785Y-26046157D01*
X119657785Y-26284252D01*
X119705404Y-26379490D01*
X119753023Y-26427109D01*
X119848261Y-26474728D01*
X120038738Y-26474728D01*
X120133976Y-26427109D01*
X120181595Y-26379490D01*
X120229214Y-26284252D01*
X118432414Y-23969719D02*
X118480033Y-23922100D01*
X118575271Y-23874480D01*
X118813366Y-23874480D01*
X118908604Y-23922100D01*
X118956223Y-23969719D01*
X119003842Y-24064957D01*
X119003842Y-24160195D01*
X118956223Y-24303052D01*
X118384795Y-24874480D01*
X119003842Y-24874480D01*
X119384795Y-23969719D02*
X119432414Y-23922100D01*
X119527652Y-23874480D01*
X119765747Y-23874480D01*
X119860985Y-23922100D01*
X119908604Y-23969719D01*
X119956223Y-24064957D01*
X119956223Y-24160195D01*
X119908604Y-24303052D01*
X119337176Y-24874480D01*
X119956223Y-24874480D01*
X120813366Y-24207814D02*
X120813366Y-24874480D01*
X120384795Y-24207814D02*
X120384795Y-24731623D01*
X120432414Y-24826861D01*
X120527652Y-24874480D01*
X120670509Y-24874480D01*
X120765747Y-24826861D01*
X120813366Y-24779242D01*
%TO.C,R4*%
X33789880Y-24741166D02*
X33313690Y-25074500D01*
X33789880Y-25312595D02*
X32789880Y-25312595D01*
X32789880Y-24931642D01*
X32837500Y-24836404D01*
X32885119Y-24788785D01*
X32980357Y-24741166D01*
X33123214Y-24741166D01*
X33218452Y-24788785D01*
X33266071Y-24836404D01*
X33313690Y-24931642D01*
X33313690Y-25312595D01*
X33123214Y-23884023D02*
X33789880Y-23884023D01*
X32742261Y-24122119D02*
X33456547Y-24360214D01*
X33456547Y-23741166D01*
X31884880Y-25010976D02*
X31884880Y-25582404D01*
X31884880Y-25296690D02*
X30884880Y-25296690D01*
X31027738Y-25391928D01*
X31122976Y-25487166D01*
X31170595Y-25582404D01*
X30884880Y-24391928D02*
X30884880Y-24296690D01*
X30932500Y-24201452D01*
X30980119Y-24153833D01*
X31075357Y-24106214D01*
X31265833Y-24058595D01*
X31503928Y-24058595D01*
X31694404Y-24106214D01*
X31789642Y-24153833D01*
X31837261Y-24201452D01*
X31884880Y-24296690D01*
X31884880Y-24391928D01*
X31837261Y-24487166D01*
X31789642Y-24534785D01*
X31694404Y-24582404D01*
X31503928Y-24630023D01*
X31265833Y-24630023D01*
X31075357Y-24582404D01*
X30980119Y-24534785D01*
X30932500Y-24487166D01*
X30884880Y-24391928D01*
X31884880Y-23630023D02*
X30884880Y-23630023D01*
X31884880Y-23058595D02*
X31313452Y-23487166D01*
X30884880Y-23058595D02*
X31456309Y-23630023D01*
%TO.C,R19*%
X68773342Y-36304480D02*
X68440009Y-35828290D01*
X68201914Y-36304480D02*
X68201914Y-35304480D01*
X68582866Y-35304480D01*
X68678104Y-35352100D01*
X68725723Y-35399719D01*
X68773342Y-35494957D01*
X68773342Y-35637814D01*
X68725723Y-35733052D01*
X68678104Y-35780671D01*
X68582866Y-35828290D01*
X68201914Y-35828290D01*
X69725723Y-36304480D02*
X69154295Y-36304480D01*
X69440009Y-36304480D02*
X69440009Y-35304480D01*
X69344771Y-35447338D01*
X69249533Y-35542576D01*
X69154295Y-35590195D01*
X70201914Y-36304480D02*
X70392390Y-36304480D01*
X70487628Y-36256861D01*
X70535247Y-36209242D01*
X70630485Y-36066385D01*
X70678104Y-35875909D01*
X70678104Y-35494957D01*
X70630485Y-35399719D01*
X70582866Y-35352100D01*
X70487628Y-35304480D01*
X70297152Y-35304480D01*
X70201914Y-35352100D01*
X70154295Y-35399719D01*
X70106676Y-35494957D01*
X70106676Y-35733052D01*
X70154295Y-35828290D01*
X70201914Y-35875909D01*
X70297152Y-35923528D01*
X70487628Y-35923528D01*
X70582866Y-35875909D01*
X70630485Y-35828290D01*
X70678104Y-35733052D01*
X67246304Y-31310319D02*
X67293923Y-31262700D01*
X67389161Y-31215080D01*
X67627257Y-31215080D01*
X67722495Y-31262700D01*
X67770114Y-31310319D01*
X67817733Y-31405557D01*
X67817733Y-31500795D01*
X67770114Y-31643652D01*
X67198685Y-32215080D01*
X67817733Y-32215080D01*
X68436780Y-31215080D02*
X68532019Y-31215080D01*
X68627257Y-31262700D01*
X68674876Y-31310319D01*
X68722495Y-31405557D01*
X68770114Y-31596033D01*
X68770114Y-31834128D01*
X68722495Y-32024604D01*
X68674876Y-32119842D01*
X68627257Y-32167461D01*
X68532019Y-32215080D01*
X68436780Y-32215080D01*
X68341542Y-32167461D01*
X68293923Y-32119842D01*
X68246304Y-32024604D01*
X68198685Y-31834128D01*
X68198685Y-31596033D01*
X68246304Y-31405557D01*
X68293923Y-31310319D01*
X68341542Y-31262700D01*
X68436780Y-31215080D01*
X69389161Y-31215080D02*
X69484400Y-31215080D01*
X69579638Y-31262700D01*
X69627257Y-31310319D01*
X69674876Y-31405557D01*
X69722495Y-31596033D01*
X69722495Y-31834128D01*
X69674876Y-32024604D01*
X69627257Y-32119842D01*
X69579638Y-32167461D01*
X69484400Y-32215080D01*
X69389161Y-32215080D01*
X69293923Y-32167461D01*
X69246304Y-32119842D01*
X69198685Y-32024604D01*
X69151066Y-31834128D01*
X69151066Y-31596033D01*
X69198685Y-31405557D01*
X69246304Y-31310319D01*
X69293923Y-31262700D01*
X69389161Y-31215080D01*
X70722495Y-32215080D02*
X70389161Y-31738890D01*
X70151066Y-32215080D02*
X70151066Y-31215080D01*
X70532019Y-31215080D01*
X70627257Y-31262700D01*
X70674876Y-31310319D01*
X70722495Y-31405557D01*
X70722495Y-31548414D01*
X70674876Y-31643652D01*
X70627257Y-31691271D01*
X70532019Y-31738890D01*
X70151066Y-31738890D01*
%TO.C,J4*%
X85785366Y-31113480D02*
X85785366Y-31827766D01*
X85737747Y-31970623D01*
X85642509Y-32065861D01*
X85499652Y-32113480D01*
X85404414Y-32113480D01*
X86690128Y-31446814D02*
X86690128Y-32113480D01*
X86452033Y-31065861D02*
X86213938Y-31780147D01*
X86832985Y-31780147D01*
X85217166Y-21597880D02*
X85217166Y-20597880D01*
X85598119Y-20597880D01*
X85693357Y-20645500D01*
X85740976Y-20693119D01*
X85788595Y-20788357D01*
X85788595Y-20931214D01*
X85740976Y-21026452D01*
X85693357Y-21074071D01*
X85598119Y-21121690D01*
X85217166Y-21121690D01*
X86121928Y-20597880D02*
X86360023Y-21597880D01*
X86550500Y-20883595D01*
X86740976Y-21597880D01*
X86979071Y-20597880D01*
X87931452Y-21597880D02*
X87598119Y-21121690D01*
X87360023Y-21597880D02*
X87360023Y-20597880D01*
X87740976Y-20597880D01*
X87836214Y-20645500D01*
X87883833Y-20693119D01*
X87931452Y-20788357D01*
X87931452Y-20931214D01*
X87883833Y-21026452D01*
X87836214Y-21074071D01*
X87740976Y-21121690D01*
X87360023Y-21121690D01*
%TO.C,RV4*%
X115247680Y-56995938D02*
X114771490Y-57329271D01*
X115247680Y-57567366D02*
X114247680Y-57567366D01*
X114247680Y-57186414D01*
X114295300Y-57091176D01*
X114342919Y-57043557D01*
X114438157Y-56995938D01*
X114581014Y-56995938D01*
X114676252Y-57043557D01*
X114723871Y-57091176D01*
X114771490Y-57186414D01*
X114771490Y-57567366D01*
X114247680Y-56710223D02*
X115247680Y-56376890D01*
X114247680Y-56043557D01*
X114581014Y-55281652D02*
X115247680Y-55281652D01*
X114200061Y-55519747D02*
X114914347Y-55757842D01*
X114914347Y-55138795D01*
X122766080Y-49096585D02*
X122766080Y-49668014D01*
X122766080Y-49382300D02*
X121766080Y-49382300D01*
X121908938Y-49477538D01*
X122004176Y-49572776D01*
X122051795Y-49668014D01*
X122766080Y-48668014D02*
X121766080Y-48668014D01*
X122766080Y-48096585D02*
X122194652Y-48525157D01*
X121766080Y-48096585D02*
X122337509Y-48668014D01*
%TO.C,J1*%
X22869566Y-39419280D02*
X22869566Y-40133566D01*
X22821947Y-40276423D01*
X22726709Y-40371661D01*
X22583852Y-40419280D01*
X22488614Y-40419280D01*
X23869566Y-40419280D02*
X23298138Y-40419280D01*
X23583852Y-40419280D02*
X23583852Y-39419280D01*
X23488614Y-39562138D01*
X23393376Y-39657376D01*
X23298138Y-39704995D01*
X21940995Y-50757080D02*
X21607661Y-50280890D01*
X21369566Y-50757080D02*
X21369566Y-49757080D01*
X21750519Y-49757080D01*
X21845757Y-49804700D01*
X21893376Y-49852319D01*
X21940995Y-49947557D01*
X21940995Y-50090414D01*
X21893376Y-50185652D01*
X21845757Y-50233271D01*
X21750519Y-50280890D01*
X21369566Y-50280890D01*
X22702900Y-50233271D02*
X22369566Y-50233271D01*
X22369566Y-50757080D02*
X22369566Y-49757080D01*
X22845757Y-49757080D01*
X22988614Y-50852319D02*
X23750519Y-50852319D01*
X23988614Y-50757080D02*
X23988614Y-49757080D01*
X24464804Y-50757080D02*
X24464804Y-49757080D01*
X25036233Y-50757080D01*
X25036233Y-49757080D01*
%TO.C,R1*%
X62903533Y-29903680D02*
X62570200Y-29427490D01*
X62332104Y-29903680D02*
X62332104Y-28903680D01*
X62713057Y-28903680D01*
X62808295Y-28951300D01*
X62855914Y-28998919D01*
X62903533Y-29094157D01*
X62903533Y-29237014D01*
X62855914Y-29332252D01*
X62808295Y-29379871D01*
X62713057Y-29427490D01*
X62332104Y-29427490D01*
X63855914Y-29903680D02*
X63284485Y-29903680D01*
X63570200Y-29903680D02*
X63570200Y-28903680D01*
X63474961Y-29046538D01*
X63379723Y-29141776D01*
X63284485Y-29189395D01*
X62386085Y-24712680D02*
X62195609Y-24712680D01*
X62100371Y-24760300D01*
X62052752Y-24807919D01*
X61957514Y-24950776D01*
X61909895Y-25141252D01*
X61909895Y-25522204D01*
X61957514Y-25617442D01*
X62005133Y-25665061D01*
X62100371Y-25712680D01*
X62290847Y-25712680D01*
X62386085Y-25665061D01*
X62433704Y-25617442D01*
X62481323Y-25522204D01*
X62481323Y-25284109D01*
X62433704Y-25188871D01*
X62386085Y-25141252D01*
X62290847Y-25093633D01*
X62100371Y-25093633D01*
X62005133Y-25141252D01*
X61957514Y-25188871D01*
X61909895Y-25284109D01*
X63052752Y-25141252D02*
X62957514Y-25093633D01*
X62909895Y-25046014D01*
X62862276Y-24950776D01*
X62862276Y-24903157D01*
X62909895Y-24807919D01*
X62957514Y-24760300D01*
X63052752Y-24712680D01*
X63243228Y-24712680D01*
X63338466Y-24760300D01*
X63386085Y-24807919D01*
X63433704Y-24903157D01*
X63433704Y-24950776D01*
X63386085Y-25046014D01*
X63338466Y-25093633D01*
X63243228Y-25141252D01*
X63052752Y-25141252D01*
X62957514Y-25188871D01*
X62909895Y-25236490D01*
X62862276Y-25331728D01*
X62862276Y-25522204D01*
X62909895Y-25617442D01*
X62957514Y-25665061D01*
X63052752Y-25712680D01*
X63243228Y-25712680D01*
X63338466Y-25665061D01*
X63386085Y-25617442D01*
X63433704Y-25522204D01*
X63433704Y-25331728D01*
X63386085Y-25236490D01*
X63338466Y-25188871D01*
X63243228Y-25141252D01*
X64433704Y-25712680D02*
X64100371Y-25236490D01*
X63862276Y-25712680D02*
X63862276Y-24712680D01*
X64243228Y-24712680D01*
X64338466Y-24760300D01*
X64386085Y-24807919D01*
X64433704Y-24903157D01*
X64433704Y-25046014D01*
X64386085Y-25141252D01*
X64338466Y-25188871D01*
X64243228Y-25236490D01*
X63862276Y-25236490D01*
%TO.C,D2*%
X73869404Y-31210880D02*
X73869404Y-30210880D01*
X74107500Y-30210880D01*
X74250357Y-30258500D01*
X74345595Y-30353738D01*
X74393214Y-30448976D01*
X74440833Y-30639452D01*
X74440833Y-30782309D01*
X74393214Y-30972785D01*
X74345595Y-31068023D01*
X74250357Y-31163261D01*
X74107500Y-31210880D01*
X73869404Y-31210880D01*
X74821785Y-30306119D02*
X74869404Y-30258500D01*
X74964642Y-30210880D01*
X75202738Y-30210880D01*
X75297976Y-30258500D01*
X75345595Y-30306119D01*
X75393214Y-30401357D01*
X75393214Y-30496595D01*
X75345595Y-30639452D01*
X74774166Y-31210880D01*
X75393214Y-31210880D01*
X73964642Y-37130880D02*
X73488452Y-37130880D01*
X73488452Y-36130880D01*
X74297976Y-36607071D02*
X74631309Y-36607071D01*
X74774166Y-37130880D02*
X74297976Y-37130880D01*
X74297976Y-36130880D01*
X74774166Y-36130880D01*
X75202738Y-37130880D02*
X75202738Y-36130880D01*
X75440833Y-36130880D01*
X75583690Y-36178500D01*
X75678928Y-36273738D01*
X75726547Y-36368976D01*
X75774166Y-36559452D01*
X75774166Y-36702309D01*
X75726547Y-36892785D01*
X75678928Y-36988023D01*
X75583690Y-37083261D01*
X75440833Y-37130880D01*
X75202738Y-37130880D01*
%TO.C,U5*%
X137046303Y-52301625D02*
X137683724Y-52301625D01*
X137758715Y-52264130D01*
X137796210Y-52226634D01*
X137833705Y-52151644D01*
X137833705Y-52001662D01*
X137796210Y-51926672D01*
X137758715Y-51889176D01*
X137683724Y-51851681D01*
X137046303Y-51851681D01*
X137046303Y-51101774D02*
X137046303Y-51476728D01*
X137421257Y-51514223D01*
X137383761Y-51476728D01*
X137346266Y-51401737D01*
X137346266Y-51214260D01*
X137383761Y-51139270D01*
X137421257Y-51101774D01*
X137496247Y-51064279D01*
X137683724Y-51064279D01*
X137758715Y-51101774D01*
X137796210Y-51139270D01*
X137833705Y-51214260D01*
X137833705Y-51401737D01*
X137796210Y-51476728D01*
X137758715Y-51514223D01*
%TO.C,C13*%
X102519242Y-29071842D02*
X102471623Y-29119461D01*
X102328766Y-29167080D01*
X102233528Y-29167080D01*
X102090671Y-29119461D01*
X101995433Y-29024223D01*
X101947814Y-28928985D01*
X101900195Y-28738509D01*
X101900195Y-28595652D01*
X101947814Y-28405176D01*
X101995433Y-28309938D01*
X102090671Y-28214700D01*
X102233528Y-28167080D01*
X102328766Y-28167080D01*
X102471623Y-28214700D01*
X102519242Y-28262319D01*
X103471623Y-29167080D02*
X102900195Y-29167080D01*
X103185909Y-29167080D02*
X103185909Y-28167080D01*
X103090671Y-28309938D01*
X102995433Y-28405176D01*
X102900195Y-28452795D01*
X103804957Y-28167080D02*
X104424004Y-28167080D01*
X104090671Y-28548033D01*
X104233528Y-28548033D01*
X104328766Y-28595652D01*
X104376385Y-28643271D01*
X104424004Y-28738509D01*
X104424004Y-28976604D01*
X104376385Y-29071842D01*
X104328766Y-29119461D01*
X104233528Y-29167080D01*
X103947814Y-29167080D01*
X103852576Y-29119461D01*
X103804957Y-29071842D01*
X101789052Y-33561280D02*
X101217623Y-33561280D01*
X101503338Y-33561280D02*
X101503338Y-32561280D01*
X101408100Y-32704138D01*
X101312861Y-32799376D01*
X101217623Y-32846995D01*
X102408100Y-32561280D02*
X102503338Y-32561280D01*
X102598576Y-32608900D01*
X102646195Y-32656519D01*
X102693814Y-32751757D01*
X102741433Y-32942233D01*
X102741433Y-33180328D01*
X102693814Y-33370804D01*
X102646195Y-33466042D01*
X102598576Y-33513661D01*
X102503338Y-33561280D01*
X102408100Y-33561280D01*
X102312861Y-33513661D01*
X102265242Y-33466042D01*
X102217623Y-33370804D01*
X102170004Y-33180328D01*
X102170004Y-32942233D01*
X102217623Y-32751757D01*
X102265242Y-32656519D01*
X102312861Y-32608900D01*
X102408100Y-32561280D01*
X103360480Y-32561280D02*
X103455719Y-32561280D01*
X103550957Y-32608900D01*
X103598576Y-32656519D01*
X103646195Y-32751757D01*
X103693814Y-32942233D01*
X103693814Y-33180328D01*
X103646195Y-33370804D01*
X103598576Y-33466042D01*
X103550957Y-33513661D01*
X103455719Y-33561280D01*
X103360480Y-33561280D01*
X103265242Y-33513661D01*
X103217623Y-33466042D01*
X103170004Y-33370804D01*
X103122385Y-33180328D01*
X103122385Y-32942233D01*
X103170004Y-32751757D01*
X103217623Y-32656519D01*
X103265242Y-32608900D01*
X103360480Y-32561280D01*
X104122385Y-32894614D02*
X104122385Y-33561280D01*
X104122385Y-32989852D02*
X104170004Y-32942233D01*
X104265242Y-32894614D01*
X104408100Y-32894614D01*
X104503338Y-32942233D01*
X104550957Y-33037471D01*
X104550957Y-33561280D01*
%TO.C,R6*%
X38006280Y-28652766D02*
X37530090Y-28986100D01*
X38006280Y-29224195D02*
X37006280Y-29224195D01*
X37006280Y-28843242D01*
X37053900Y-28748004D01*
X37101519Y-28700385D01*
X37196757Y-28652766D01*
X37339614Y-28652766D01*
X37434852Y-28700385D01*
X37482471Y-28748004D01*
X37530090Y-28843242D01*
X37530090Y-29224195D01*
X37006280Y-27795623D02*
X37006280Y-27986100D01*
X37053900Y-28081338D01*
X37101519Y-28128957D01*
X37244376Y-28224195D01*
X37434852Y-28271814D01*
X37815804Y-28271814D01*
X37911042Y-28224195D01*
X37958661Y-28176576D01*
X38006280Y-28081338D01*
X38006280Y-27890861D01*
X37958661Y-27795623D01*
X37911042Y-27748004D01*
X37815804Y-27700385D01*
X37577709Y-27700385D01*
X37482471Y-27748004D01*
X37434852Y-27795623D01*
X37387233Y-27890861D01*
X37387233Y-28081338D01*
X37434852Y-28176576D01*
X37482471Y-28224195D01*
X37577709Y-28271814D01*
X38784280Y-28662214D02*
X38784280Y-28852690D01*
X38831900Y-28947928D01*
X38879519Y-28995547D01*
X39022376Y-29090785D01*
X39212852Y-29138404D01*
X39593804Y-29138404D01*
X39689042Y-29090785D01*
X39736661Y-29043166D01*
X39784280Y-28947928D01*
X39784280Y-28757452D01*
X39736661Y-28662214D01*
X39689042Y-28614595D01*
X39593804Y-28566976D01*
X39355709Y-28566976D01*
X39260471Y-28614595D01*
X39212852Y-28662214D01*
X39165233Y-28757452D01*
X39165233Y-28947928D01*
X39212852Y-29043166D01*
X39260471Y-29090785D01*
X39355709Y-29138404D01*
X39212852Y-27995547D02*
X39165233Y-28090785D01*
X39117614Y-28138404D01*
X39022376Y-28186023D01*
X38974757Y-28186023D01*
X38879519Y-28138404D01*
X38831900Y-28090785D01*
X38784280Y-27995547D01*
X38784280Y-27805071D01*
X38831900Y-27709833D01*
X38879519Y-27662214D01*
X38974757Y-27614595D01*
X39022376Y-27614595D01*
X39117614Y-27662214D01*
X39165233Y-27709833D01*
X39212852Y-27805071D01*
X39212852Y-27995547D01*
X39260471Y-28090785D01*
X39308090Y-28138404D01*
X39403328Y-28186023D01*
X39593804Y-28186023D01*
X39689042Y-28138404D01*
X39736661Y-28090785D01*
X39784280Y-27995547D01*
X39784280Y-27805071D01*
X39736661Y-27709833D01*
X39689042Y-27662214D01*
X39593804Y-27614595D01*
X39403328Y-27614595D01*
X39308090Y-27662214D01*
X39260471Y-27709833D01*
X39212852Y-27805071D01*
X39784280Y-26614595D02*
X39308090Y-26947928D01*
X39784280Y-27186023D02*
X38784280Y-27186023D01*
X38784280Y-26805071D01*
X38831900Y-26709833D01*
X38879519Y-26662214D01*
X38974757Y-26614595D01*
X39117614Y-26614595D01*
X39212852Y-26662214D01*
X39260471Y-26709833D01*
X39308090Y-26805071D01*
X39308090Y-27186023D01*
%TO.C,R13*%
X94746842Y-29421080D02*
X94413509Y-28944890D01*
X94175414Y-29421080D02*
X94175414Y-28421080D01*
X94556366Y-28421080D01*
X94651604Y-28468700D01*
X94699223Y-28516319D01*
X94746842Y-28611557D01*
X94746842Y-28754414D01*
X94699223Y-28849652D01*
X94651604Y-28897271D01*
X94556366Y-28944890D01*
X94175414Y-28944890D01*
X95699223Y-29421080D02*
X95127795Y-29421080D01*
X95413509Y-29421080D02*
X95413509Y-28421080D01*
X95318271Y-28563938D01*
X95223033Y-28659176D01*
X95127795Y-28706795D01*
X96032557Y-28421080D02*
X96651604Y-28421080D01*
X96318271Y-28802033D01*
X96461128Y-28802033D01*
X96556366Y-28849652D01*
X96603985Y-28897271D01*
X96651604Y-28992509D01*
X96651604Y-29230604D01*
X96603985Y-29325842D01*
X96556366Y-29373461D01*
X96461128Y-29421080D01*
X96175414Y-29421080D01*
X96080176Y-29373461D01*
X96032557Y-29325842D01*
X91835385Y-30554680D02*
X91644909Y-30554680D01*
X91549671Y-30602300D01*
X91502052Y-30649919D01*
X91406814Y-30792776D01*
X91359195Y-30983252D01*
X91359195Y-31364204D01*
X91406814Y-31459442D01*
X91454433Y-31507061D01*
X91549671Y-31554680D01*
X91740147Y-31554680D01*
X91835385Y-31507061D01*
X91883004Y-31459442D01*
X91930623Y-31364204D01*
X91930623Y-31126109D01*
X91883004Y-31030871D01*
X91835385Y-30983252D01*
X91740147Y-30935633D01*
X91549671Y-30935633D01*
X91454433Y-30983252D01*
X91406814Y-31030871D01*
X91359195Y-31126109D01*
X92502052Y-30983252D02*
X92406814Y-30935633D01*
X92359195Y-30888014D01*
X92311576Y-30792776D01*
X92311576Y-30745157D01*
X92359195Y-30649919D01*
X92406814Y-30602300D01*
X92502052Y-30554680D01*
X92692528Y-30554680D01*
X92787766Y-30602300D01*
X92835385Y-30649919D01*
X92883004Y-30745157D01*
X92883004Y-30792776D01*
X92835385Y-30888014D01*
X92787766Y-30935633D01*
X92692528Y-30983252D01*
X92502052Y-30983252D01*
X92406814Y-31030871D01*
X92359195Y-31078490D01*
X92311576Y-31173728D01*
X92311576Y-31364204D01*
X92359195Y-31459442D01*
X92406814Y-31507061D01*
X92502052Y-31554680D01*
X92692528Y-31554680D01*
X92787766Y-31507061D01*
X92835385Y-31459442D01*
X92883004Y-31364204D01*
X92883004Y-31173728D01*
X92835385Y-31078490D01*
X92787766Y-31030871D01*
X92692528Y-30983252D01*
X93883004Y-31554680D02*
X93549671Y-31078490D01*
X93311576Y-31554680D02*
X93311576Y-30554680D01*
X93692528Y-30554680D01*
X93787766Y-30602300D01*
X93835385Y-30649919D01*
X93883004Y-30745157D01*
X93883004Y-30888014D01*
X93835385Y-30983252D01*
X93787766Y-31030871D01*
X93692528Y-31078490D01*
X93311576Y-31078490D01*
%TO.C,R17*%
X119435642Y-44737280D02*
X119102309Y-44261090D01*
X118864214Y-44737280D02*
X118864214Y-43737280D01*
X119245166Y-43737280D01*
X119340404Y-43784900D01*
X119388023Y-43832519D01*
X119435642Y-43927757D01*
X119435642Y-44070614D01*
X119388023Y-44165852D01*
X119340404Y-44213471D01*
X119245166Y-44261090D01*
X118864214Y-44261090D01*
X120388023Y-44737280D02*
X119816595Y-44737280D01*
X120102309Y-44737280D02*
X120102309Y-43737280D01*
X120007071Y-43880138D01*
X119911833Y-43975376D01*
X119816595Y-44022995D01*
X120721357Y-43737280D02*
X121388023Y-43737280D01*
X120959452Y-44737280D01*
X119070595Y-45388280D02*
X118880119Y-45388280D01*
X118784880Y-45435900D01*
X118737261Y-45483519D01*
X118642023Y-45626376D01*
X118594404Y-45816852D01*
X118594404Y-46197804D01*
X118642023Y-46293042D01*
X118689642Y-46340661D01*
X118784880Y-46388280D01*
X118975357Y-46388280D01*
X119070595Y-46340661D01*
X119118214Y-46293042D01*
X119165833Y-46197804D01*
X119165833Y-45959709D01*
X119118214Y-45864471D01*
X119070595Y-45816852D01*
X118975357Y-45769233D01*
X118784880Y-45769233D01*
X118689642Y-45816852D01*
X118642023Y-45864471D01*
X118594404Y-45959709D01*
X119546785Y-45483519D02*
X119594404Y-45435900D01*
X119689642Y-45388280D01*
X119927738Y-45388280D01*
X120022976Y-45435900D01*
X120070595Y-45483519D01*
X120118214Y-45578757D01*
X120118214Y-45673995D01*
X120070595Y-45816852D01*
X119499166Y-46388280D01*
X120118214Y-46388280D01*
X120737261Y-45388280D02*
X120832500Y-45388280D01*
X120927738Y-45435900D01*
X120975357Y-45483519D01*
X121022976Y-45578757D01*
X121070595Y-45769233D01*
X121070595Y-46007328D01*
X121022976Y-46197804D01*
X120975357Y-46293042D01*
X120927738Y-46340661D01*
X120832500Y-46388280D01*
X120737261Y-46388280D01*
X120642023Y-46340661D01*
X120594404Y-46293042D01*
X120546785Y-46197804D01*
X120499166Y-46007328D01*
X120499166Y-45769233D01*
X120546785Y-45578757D01*
X120594404Y-45483519D01*
X120642023Y-45435900D01*
X120737261Y-45388280D01*
X122070595Y-46388280D02*
X121737261Y-45912090D01*
X121499166Y-46388280D02*
X121499166Y-45388280D01*
X121880119Y-45388280D01*
X121975357Y-45435900D01*
X122022976Y-45483519D01*
X122070595Y-45578757D01*
X122070595Y-45721614D01*
X122022976Y-45816852D01*
X121975357Y-45864471D01*
X121880119Y-45912090D01*
X121499166Y-45912090D01*
%TO.C,J5*%
X135899566Y-35050280D02*
X135899566Y-35764566D01*
X135851947Y-35907423D01*
X135756709Y-36002661D01*
X135613852Y-36050280D01*
X135518614Y-36050280D01*
X136851947Y-35050280D02*
X136375757Y-35050280D01*
X136328138Y-35526471D01*
X136375757Y-35478852D01*
X136470995Y-35431233D01*
X136709090Y-35431233D01*
X136804328Y-35478852D01*
X136851947Y-35526471D01*
X136899566Y-35621709D01*
X136899566Y-35859804D01*
X136851947Y-35955042D01*
X136804328Y-36002661D01*
X136709090Y-36050280D01*
X136470995Y-36050280D01*
X136375757Y-36002661D01*
X136328138Y-35955042D01*
X134304328Y-45800280D02*
X133970995Y-45324090D01*
X133732900Y-45800280D02*
X133732900Y-44800280D01*
X134113852Y-44800280D01*
X134209090Y-44847900D01*
X134256709Y-44895519D01*
X134304328Y-44990757D01*
X134304328Y-45133614D01*
X134256709Y-45228852D01*
X134209090Y-45276471D01*
X134113852Y-45324090D01*
X133732900Y-45324090D01*
X135066233Y-45276471D02*
X134732900Y-45276471D01*
X134732900Y-45800280D02*
X134732900Y-44800280D01*
X135209090Y-44800280D01*
X135351947Y-45895519D02*
X136113852Y-45895519D01*
X136542423Y-44800280D02*
X136732900Y-44800280D01*
X136828138Y-44847900D01*
X136923376Y-44943138D01*
X136970995Y-45133614D01*
X136970995Y-45466947D01*
X136923376Y-45657423D01*
X136828138Y-45752661D01*
X136732900Y-45800280D01*
X136542423Y-45800280D01*
X136447185Y-45752661D01*
X136351947Y-45657423D01*
X136304328Y-45466947D01*
X136304328Y-45133614D01*
X136351947Y-44943138D01*
X136447185Y-44847900D01*
X136542423Y-44800280D01*
X137399566Y-44800280D02*
X137399566Y-45609804D01*
X137447185Y-45705042D01*
X137494804Y-45752661D01*
X137590042Y-45800280D01*
X137780519Y-45800280D01*
X137875757Y-45752661D01*
X137923376Y-45705042D01*
X137970995Y-45609804D01*
X137970995Y-44800280D01*
X138304328Y-44800280D02*
X138875757Y-44800280D01*
X138590042Y-45800280D02*
X138590042Y-44800280D01*
%TO.C,R21*%
X80751442Y-44381680D02*
X80418109Y-43905490D01*
X80180014Y-44381680D02*
X80180014Y-43381680D01*
X80560966Y-43381680D01*
X80656204Y-43429300D01*
X80703823Y-43476919D01*
X80751442Y-43572157D01*
X80751442Y-43715014D01*
X80703823Y-43810252D01*
X80656204Y-43857871D01*
X80560966Y-43905490D01*
X80180014Y-43905490D01*
X81132395Y-43476919D02*
X81180014Y-43429300D01*
X81275252Y-43381680D01*
X81513347Y-43381680D01*
X81608585Y-43429300D01*
X81656204Y-43476919D01*
X81703823Y-43572157D01*
X81703823Y-43667395D01*
X81656204Y-43810252D01*
X81084776Y-44381680D01*
X81703823Y-44381680D01*
X82656204Y-44381680D02*
X82084776Y-44381680D01*
X82370490Y-44381680D02*
X82370490Y-43381680D01*
X82275252Y-43524538D01*
X82180014Y-43619776D01*
X82084776Y-43667395D01*
X78743204Y-47039280D02*
X78267014Y-47039280D01*
X78219395Y-47515471D01*
X78267014Y-47467852D01*
X78362252Y-47420233D01*
X78600347Y-47420233D01*
X78695585Y-47467852D01*
X78743204Y-47515471D01*
X78790823Y-47610709D01*
X78790823Y-47848804D01*
X78743204Y-47944042D01*
X78695585Y-47991661D01*
X78600347Y-48039280D01*
X78362252Y-48039280D01*
X78267014Y-47991661D01*
X78219395Y-47944042D01*
X79409871Y-47039280D02*
X79505109Y-47039280D01*
X79600347Y-47086900D01*
X79647966Y-47134519D01*
X79695585Y-47229757D01*
X79743204Y-47420233D01*
X79743204Y-47658328D01*
X79695585Y-47848804D01*
X79647966Y-47944042D01*
X79600347Y-47991661D01*
X79505109Y-48039280D01*
X79409871Y-48039280D01*
X79314633Y-47991661D01*
X79267014Y-47944042D01*
X79219395Y-47848804D01*
X79171776Y-47658328D01*
X79171776Y-47420233D01*
X79219395Y-47229757D01*
X79267014Y-47134519D01*
X79314633Y-47086900D01*
X79409871Y-47039280D01*
%TO.C,C10*%
X117606842Y-35345642D02*
X117559223Y-35393261D01*
X117416366Y-35440880D01*
X117321128Y-35440880D01*
X117178271Y-35393261D01*
X117083033Y-35298023D01*
X117035414Y-35202785D01*
X116987795Y-35012309D01*
X116987795Y-34869452D01*
X117035414Y-34678976D01*
X117083033Y-34583738D01*
X117178271Y-34488500D01*
X117321128Y-34440880D01*
X117416366Y-34440880D01*
X117559223Y-34488500D01*
X117606842Y-34536119D01*
X118559223Y-35440880D02*
X117987795Y-35440880D01*
X118273509Y-35440880D02*
X118273509Y-34440880D01*
X118178271Y-34583738D01*
X118083033Y-34678976D01*
X117987795Y-34726595D01*
X119178271Y-34440880D02*
X119273509Y-34440880D01*
X119368747Y-34488500D01*
X119416366Y-34536119D01*
X119463985Y-34631357D01*
X119511604Y-34821833D01*
X119511604Y-35059928D01*
X119463985Y-35250404D01*
X119416366Y-35345642D01*
X119368747Y-35393261D01*
X119273509Y-35440880D01*
X119178271Y-35440880D01*
X119083033Y-35393261D01*
X119035414Y-35345642D01*
X118987795Y-35250404D01*
X118940176Y-35059928D01*
X118940176Y-34821833D01*
X118987795Y-34631357D01*
X119035414Y-34536119D01*
X119083033Y-34488500D01*
X119178271Y-34440880D01*
X117791052Y-36888680D02*
X117219623Y-36888680D01*
X117505338Y-36888680D02*
X117505338Y-35888680D01*
X117410100Y-36031538D01*
X117314861Y-36126776D01*
X117219623Y-36174395D01*
X118410100Y-35888680D02*
X118505338Y-35888680D01*
X118600576Y-35936300D01*
X118648195Y-35983919D01*
X118695814Y-36079157D01*
X118743433Y-36269633D01*
X118743433Y-36507728D01*
X118695814Y-36698204D01*
X118648195Y-36793442D01*
X118600576Y-36841061D01*
X118505338Y-36888680D01*
X118410100Y-36888680D01*
X118314861Y-36841061D01*
X118267242Y-36793442D01*
X118219623Y-36698204D01*
X118172004Y-36507728D01*
X118172004Y-36269633D01*
X118219623Y-36079157D01*
X118267242Y-35983919D01*
X118314861Y-35936300D01*
X118410100Y-35888680D01*
X119362480Y-35888680D02*
X119457719Y-35888680D01*
X119552957Y-35936300D01*
X119600576Y-35983919D01*
X119648195Y-36079157D01*
X119695814Y-36269633D01*
X119695814Y-36507728D01*
X119648195Y-36698204D01*
X119600576Y-36793442D01*
X119552957Y-36841061D01*
X119457719Y-36888680D01*
X119362480Y-36888680D01*
X119267242Y-36841061D01*
X119219623Y-36793442D01*
X119172004Y-36698204D01*
X119124385Y-36507728D01*
X119124385Y-36269633D01*
X119172004Y-36079157D01*
X119219623Y-35983919D01*
X119267242Y-35936300D01*
X119362480Y-35888680D01*
X120124385Y-36222014D02*
X120124385Y-36888680D01*
X120124385Y-36317252D02*
X120172004Y-36269633D01*
X120267242Y-36222014D01*
X120410100Y-36222014D01*
X120505338Y-36269633D01*
X120552957Y-36364871D01*
X120552957Y-36888680D01*
%TO.C,U2*%
X105295795Y-49426880D02*
X105295795Y-50236404D01*
X105343414Y-50331642D01*
X105391033Y-50379261D01*
X105486271Y-50426880D01*
X105676747Y-50426880D01*
X105771985Y-50379261D01*
X105819604Y-50331642D01*
X105867223Y-50236404D01*
X105867223Y-49426880D01*
X106295795Y-49522119D02*
X106343414Y-49474500D01*
X106438652Y-49426880D01*
X106676747Y-49426880D01*
X106771985Y-49474500D01*
X106819604Y-49522119D01*
X106867223Y-49617357D01*
X106867223Y-49712595D01*
X106819604Y-49855452D01*
X106248176Y-50426880D01*
X106867223Y-50426880D01*
X105681709Y-37803080D02*
X105205519Y-37803080D01*
X105205519Y-36803080D01*
X105872185Y-36803080D02*
X106443614Y-36803080D01*
X106157900Y-37803080D02*
X106157900Y-36803080D01*
X107300757Y-37803080D02*
X106729328Y-37803080D01*
X107015042Y-37803080D02*
X107015042Y-36803080D01*
X106919804Y-36945938D01*
X106824566Y-37041176D01*
X106729328Y-37088795D01*
X107681709Y-36898319D02*
X107729328Y-36850700D01*
X107824566Y-36803080D01*
X108062661Y-36803080D01*
X108157900Y-36850700D01*
X108205519Y-36898319D01*
X108253138Y-36993557D01*
X108253138Y-37088795D01*
X108205519Y-37231652D01*
X107634090Y-37803080D01*
X108253138Y-37803080D01*
X109157900Y-36803080D02*
X108681709Y-36803080D01*
X108634090Y-37279271D01*
X108681709Y-37231652D01*
X108776947Y-37184033D01*
X109015042Y-37184033D01*
X109110280Y-37231652D01*
X109157900Y-37279271D01*
X109205519Y-37374509D01*
X109205519Y-37612604D01*
X109157900Y-37707842D01*
X109110280Y-37755461D01*
X109015042Y-37803080D01*
X108776947Y-37803080D01*
X108681709Y-37755461D01*
X108634090Y-37707842D01*
X109538852Y-36803080D02*
X110157900Y-36803080D01*
X109824566Y-37184033D01*
X109967423Y-37184033D01*
X110062661Y-37231652D01*
X110110280Y-37279271D01*
X110157900Y-37374509D01*
X110157900Y-37612604D01*
X110110280Y-37707842D01*
X110062661Y-37755461D01*
X109967423Y-37803080D01*
X109681709Y-37803080D01*
X109586471Y-37755461D01*
X109538852Y-37707842D01*
%TO.C,C3*%
X57554833Y-26938242D02*
X57507214Y-26985861D01*
X57364357Y-27033480D01*
X57269119Y-27033480D01*
X57126261Y-26985861D01*
X57031023Y-26890623D01*
X56983404Y-26795385D01*
X56935785Y-26604909D01*
X56935785Y-26462052D01*
X56983404Y-26271576D01*
X57031023Y-26176338D01*
X57126261Y-26081100D01*
X57269119Y-26033480D01*
X57364357Y-26033480D01*
X57507214Y-26081100D01*
X57554833Y-26128719D01*
X57888166Y-26033480D02*
X58507214Y-26033480D01*
X58173880Y-26414433D01*
X58316738Y-26414433D01*
X58411976Y-26462052D01*
X58459595Y-26509671D01*
X58507214Y-26604909D01*
X58507214Y-26843004D01*
X58459595Y-26938242D01*
X58411976Y-26985861D01*
X58316738Y-27033480D01*
X58031023Y-27033480D01*
X57935785Y-26985861D01*
X57888166Y-26938242D01*
X56227814Y-24655519D02*
X56275433Y-24607900D01*
X56370671Y-24560280D01*
X56608766Y-24560280D01*
X56704004Y-24607900D01*
X56751623Y-24655519D01*
X56799242Y-24750757D01*
X56799242Y-24845995D01*
X56751623Y-24988852D01*
X56180195Y-25560280D01*
X56799242Y-25560280D01*
X57180195Y-24655519D02*
X57227814Y-24607900D01*
X57323052Y-24560280D01*
X57561147Y-24560280D01*
X57656385Y-24607900D01*
X57704004Y-24655519D01*
X57751623Y-24750757D01*
X57751623Y-24845995D01*
X57704004Y-24988852D01*
X57132576Y-25560280D01*
X57751623Y-25560280D01*
X58608766Y-24893614D02*
X58608766Y-25560280D01*
X58180195Y-24893614D02*
X58180195Y-25417423D01*
X58227814Y-25512661D01*
X58323052Y-25560280D01*
X58465909Y-25560280D01*
X58561147Y-25512661D01*
X58608766Y-25465042D01*
%TO.C,R12*%
X98023442Y-49080680D02*
X97690109Y-48604490D01*
X97452014Y-49080680D02*
X97452014Y-48080680D01*
X97832966Y-48080680D01*
X97928204Y-48128300D01*
X97975823Y-48175919D01*
X98023442Y-48271157D01*
X98023442Y-48414014D01*
X97975823Y-48509252D01*
X97928204Y-48556871D01*
X97832966Y-48604490D01*
X97452014Y-48604490D01*
X98975823Y-49080680D02*
X98404395Y-49080680D01*
X98690109Y-49080680D02*
X98690109Y-48080680D01*
X98594871Y-48223538D01*
X98499633Y-48318776D01*
X98404395Y-48366395D01*
X99356776Y-48175919D02*
X99404395Y-48128300D01*
X99499633Y-48080680D01*
X99737728Y-48080680D01*
X99832966Y-48128300D01*
X99880585Y-48175919D01*
X99928204Y-48271157D01*
X99928204Y-48366395D01*
X99880585Y-48509252D01*
X99309157Y-49080680D01*
X99928204Y-49080680D01*
X101582623Y-49080680D02*
X101773100Y-49080680D01*
X101868338Y-49033061D01*
X101915957Y-48985442D01*
X102011195Y-48842585D01*
X102058814Y-48652109D01*
X102058814Y-48271157D01*
X102011195Y-48175919D01*
X101963576Y-48128300D01*
X101868338Y-48080680D01*
X101677861Y-48080680D01*
X101582623Y-48128300D01*
X101535004Y-48175919D01*
X101487385Y-48271157D01*
X101487385Y-48509252D01*
X101535004Y-48604490D01*
X101582623Y-48652109D01*
X101677861Y-48699728D01*
X101868338Y-48699728D01*
X101963576Y-48652109D01*
X102011195Y-48604490D01*
X102058814Y-48509252D01*
X102487385Y-49080680D02*
X102487385Y-48080680D01*
X103058814Y-49080680D02*
X102630242Y-48509252D01*
X103058814Y-48080680D02*
X102487385Y-48652109D01*
D11*
%TO.C,R8*%
X41444500Y-43005364D02*
X41444500Y-41551236D01*
X43264500Y-43005364D02*
X43264500Y-41551236D01*
%TO.C,D1*%
X78146300Y-31104500D02*
X81086300Y-31104500D01*
X79616300Y-24644500D02*
X79616300Y-25664500D01*
X78146300Y-30204500D02*
X81086300Y-30204500D01*
X78146300Y-30324500D02*
X81086300Y-30324500D01*
X78146300Y-30084500D02*
X81086300Y-30084500D01*
X81086300Y-31104500D02*
X81086300Y-25664500D01*
X81086300Y-25664500D02*
X78146300Y-25664500D01*
X79616300Y-32124500D02*
X79616300Y-31104500D01*
X78146300Y-25664500D02*
X78146300Y-31104500D01*
%TO.C,C4*%
X52870152Y-37473300D02*
X51447648Y-37473300D01*
X52870152Y-35653300D02*
X51447648Y-35653300D01*
%TO.C,R14*%
X101617100Y-41481364D02*
X101617100Y-40027236D01*
X103437100Y-41481364D02*
X103437100Y-40027236D01*
D12*
%TO.C,U6*%
X92544900Y-57137300D02*
X92544900Y-53073300D01*
X97624900Y-53073300D02*
X97624900Y-57137300D01*
X97624900Y-57137300D02*
X92544900Y-57137300D01*
X92544900Y-53073300D02*
X97624900Y-53073300D01*
D11*
%TO.C,TP1*%
X42395100Y-56385500D02*
X44245100Y-56385500D01*
X44245100Y-54485500D02*
X42395100Y-54485500D01*
X44245100Y-54535500D02*
X44245100Y-54485500D01*
X44245100Y-56385500D02*
X44245100Y-54535500D01*
X42395100Y-54485500D02*
X42395100Y-56385500D01*
D12*
%TO.C,U3*%
X25183100Y-58051700D02*
X25183100Y-52971700D01*
X25183100Y-52971700D02*
X29247100Y-52971700D01*
X29247100Y-58051700D02*
X25183100Y-58051700D01*
X29247100Y-52971700D02*
X29247100Y-58051700D01*
D11*
%TO.C,J3*%
X84331500Y-47175500D02*
X86991500Y-47175500D01*
X84331500Y-44575500D02*
X85661500Y-44575500D01*
X84331500Y-45905500D02*
X84331500Y-44575500D01*
X86991500Y-47175500D02*
X86991500Y-49775500D01*
X84331500Y-47175500D02*
X84331500Y-49775500D01*
X84331500Y-49775500D02*
X86991500Y-49775500D01*
%TO.C,U1*%
X47004300Y-50095300D02*
X52304300Y-50095300D01*
X47004300Y-39815300D02*
X47004300Y-50095300D01*
X52304300Y-50095300D02*
X52304300Y-39815300D01*
X48654300Y-39815300D02*
X47004300Y-39815300D01*
X52304300Y-39815300D02*
X50654300Y-39815300D01*
X48654300Y-39815300D02*
G75*
G03*
X50654300Y-39815300I1000000J0D01*
G01*
%TO.C,C12*%
X66128848Y-58860100D02*
X67551352Y-58860100D01*
X66128848Y-57040100D02*
X67551352Y-57040100D01*
%TO.C,J2*%
X74400100Y-44660900D02*
X77060100Y-44660900D01*
X74400100Y-44660900D02*
X74400100Y-47260900D01*
X77060100Y-44660900D02*
X77060100Y-47260900D01*
X74400100Y-47260900D02*
X77060100Y-47260900D01*
X74400100Y-42060900D02*
X75730100Y-42060900D01*
X74400100Y-43390900D02*
X74400100Y-42060900D01*
%TO.C,C7*%
X113601448Y-33714100D02*
X115023952Y-33714100D01*
X113601448Y-31894100D02*
X115023952Y-31894100D01*
%TO.C,C14*%
X127063448Y-56582900D02*
X128485952Y-56582900D01*
X127063448Y-58402900D02*
X128485952Y-58402900D01*
%TO.C,RV3*%
X98173700Y-33745700D02*
X93103700Y-33745700D01*
X98173700Y-33745700D02*
X98173700Y-43515700D01*
X98173700Y-43515700D02*
X93103700Y-43515700D01*
X93103700Y-33745700D02*
X93103700Y-43515700D01*
%TO.C,R10*%
X63686100Y-55459736D02*
X63686100Y-56913864D01*
X61866100Y-55459736D02*
X61866100Y-56913864D01*
%TO.C,R16*%
X122470500Y-55368836D02*
X122470500Y-56822964D01*
X124290500Y-55368836D02*
X124290500Y-56822964D01*
%TO.C,R15*%
X109928036Y-53043500D02*
X111382164Y-53043500D01*
X109928036Y-51223500D02*
X111382164Y-51223500D01*
%TO.C,R9*%
X49338336Y-56269300D02*
X50792464Y-56269300D01*
X49338336Y-54449300D02*
X50792464Y-54449300D01*
%TO.C,C15*%
X68084648Y-48496900D02*
X69507152Y-48496900D01*
X68084648Y-46676900D02*
X69507152Y-46676900D01*
%TO.C,C1*%
X124017248Y-41511900D02*
X125439752Y-41511900D01*
X124017248Y-39691900D02*
X125439752Y-39691900D01*
%TO.C,R5*%
X29136964Y-28744500D02*
X27682836Y-28744500D01*
X29136964Y-30564500D02*
X27682836Y-30564500D01*
%TO.C,C16*%
X83527952Y-53272100D02*
X82105448Y-53272100D01*
X83527952Y-51452100D02*
X82105448Y-51452100D01*
%TO.C,C8*%
X43472048Y-31783700D02*
X44894552Y-31783700D01*
X43472048Y-29963700D02*
X44894552Y-29963700D01*
%TO.C,RV2*%
X55674100Y-59050500D02*
X60744100Y-59050500D01*
X60744100Y-59050500D02*
X60744100Y-49280500D01*
X55674100Y-59050500D02*
X55674100Y-49280500D01*
X55674100Y-49280500D02*
X60744100Y-49280500D01*
%TO.C,C11*%
X29298952Y-32173500D02*
X27876448Y-32173500D01*
X29298952Y-33993500D02*
X27876448Y-33993500D01*
%TO.C,C5*%
X29375152Y-37574900D02*
X27952648Y-37574900D01*
X29375152Y-35754900D02*
X27952648Y-35754900D01*
%TO.C,R7*%
X31106700Y-41989364D02*
X31106700Y-40535236D01*
X32926700Y-41989364D02*
X32926700Y-40535236D01*
%TO.C,C6*%
X30797448Y-46363300D02*
X32219952Y-46363300D01*
X30797448Y-44543300D02*
X32219952Y-44543300D01*
%TO.C,R3*%
X37919036Y-46515700D02*
X39373164Y-46515700D01*
X37919036Y-44695700D02*
X39373164Y-44695700D01*
D12*
%TO.C,U4*%
X74051900Y-53073300D02*
X79131900Y-53073300D01*
X79131900Y-57137300D02*
X74051900Y-57137300D01*
X74051900Y-57137300D02*
X74051900Y-53073300D01*
X79131900Y-53073300D02*
X79131900Y-57137300D01*
D11*
%TO.C,RV1*%
X35115500Y-33456300D02*
X35115500Y-43226300D01*
X40185500Y-43226300D02*
X35115500Y-43226300D01*
X40185500Y-33456300D02*
X35115500Y-33456300D01*
X40185500Y-33456300D02*
X40185500Y-43226300D01*
%TO.C,R20*%
X65286300Y-44624636D02*
X65286300Y-46078764D01*
X63466300Y-44624636D02*
X63466300Y-46078764D01*
%TO.C,R2*%
X104746436Y-26246500D02*
X106200564Y-26246500D01*
X104746436Y-24426500D02*
X106200564Y-24426500D01*
%TO.C,C2*%
X52920952Y-32808500D02*
X51498448Y-32808500D01*
X52920952Y-34628500D02*
X51498448Y-34628500D01*
%TO.C,R18*%
X118691036Y-39285500D02*
X120145164Y-39285500D01*
X118691036Y-41105500D02*
X120145164Y-41105500D01*
%TO.C,R11*%
X57217900Y-44599236D02*
X57217900Y-46053364D01*
X59037900Y-44599236D02*
X59037900Y-46053364D01*
%TO.C,C9*%
X115262449Y-22822900D02*
X115262449Y-25718900D01*
X115822449Y-23018900D02*
X115822449Y-25718900D01*
X117062449Y-23851900D02*
X117062449Y-29665900D01*
X116182449Y-23196900D02*
X116182449Y-25718900D01*
X116862449Y-23668900D02*
X116862449Y-29848900D01*
X115862449Y-23036900D02*
X115862449Y-25718900D01*
X118182449Y-25810900D02*
X118182449Y-27706900D01*
X117742449Y-24724900D02*
X117742449Y-28792900D01*
X116222449Y-27798900D02*
X116222449Y-30298900D01*
X118262449Y-26225900D02*
X118262449Y-27291900D01*
X116062449Y-27798900D02*
X116062449Y-30385900D01*
X115142449Y-27798900D02*
X115142449Y-30725900D01*
X117702449Y-24656900D02*
X117702449Y-28860900D01*
X115622449Y-22937900D02*
X115622449Y-25718900D01*
X115462449Y-22881900D02*
X115462449Y-25718900D01*
X116942449Y-23739900D02*
X116942449Y-29777900D01*
X115942449Y-27798900D02*
X115942449Y-30444900D01*
X116382449Y-27798900D02*
X116382449Y-30202900D01*
X117102449Y-23891900D02*
X117102449Y-29625900D01*
X114621449Y-27798900D02*
X114621449Y-30815900D01*
X117542449Y-24413900D02*
X117542449Y-29103900D01*
X115742449Y-27798900D02*
X115742449Y-30532900D01*
X115022449Y-22764900D02*
X115022449Y-25718900D01*
X115302449Y-27798900D02*
X115302449Y-30683900D01*
X114902449Y-27798900D02*
X114902449Y-30775900D01*
X116342449Y-23289900D02*
X116342449Y-25718900D01*
X117182449Y-23974900D02*
X117182449Y-29542900D01*
X116302449Y-23265900D02*
X116302449Y-25718900D01*
X118102449Y-25529900D02*
X118102449Y-27987900D01*
X115982449Y-23092900D02*
X115982449Y-25718900D01*
X115822449Y-27798900D02*
X115822449Y-30498900D01*
X114861449Y-22734900D02*
X114861449Y-25718900D01*
X116662449Y-23508900D02*
X116662449Y-30008900D01*
X116022449Y-23111900D02*
X116022449Y-25718900D01*
X116382449Y-23314900D02*
X116382449Y-25718900D01*
X116462449Y-23366900D02*
X116462449Y-25718900D01*
X114661449Y-22706900D02*
X114661449Y-25718900D01*
X117142449Y-23932900D02*
X117142449Y-29584900D01*
X115782449Y-23001900D02*
X115782449Y-25718900D01*
X115022449Y-27798900D02*
X115022449Y-30752900D01*
X115342449Y-22844900D02*
X115342449Y-25718900D01*
X118142449Y-25660900D02*
X118142449Y-27856900D01*
X117982449Y-25206900D02*
X117982449Y-28310900D01*
X117022449Y-23813900D02*
X117022449Y-29703900D01*
X115222449Y-22811900D02*
X115222449Y-25718900D01*
X116462449Y-27798900D02*
X116462449Y-30150900D01*
X115662449Y-22953900D02*
X115662449Y-25718900D01*
X114942449Y-27798900D02*
X114942449Y-30768900D01*
X115982449Y-27798900D02*
X115982449Y-30424900D01*
X116182449Y-27798900D02*
X116182449Y-30320900D01*
X116422449Y-23340900D02*
X116422449Y-25718900D01*
X115942449Y-23072900D02*
X115942449Y-25718900D01*
X118022449Y-25305900D02*
X118022449Y-28211900D01*
X116542449Y-23420900D02*
X116542449Y-30096900D01*
X114501449Y-27798900D02*
X114501449Y-30826900D01*
X114741449Y-27798900D02*
X114741449Y-30800900D01*
X114461449Y-22687900D02*
X114461449Y-25718900D01*
X116422449Y-27798900D02*
X116422449Y-30176900D01*
X115342449Y-27798900D02*
X115342449Y-30672900D01*
X115422449Y-27798900D02*
X115422449Y-30647900D01*
X114461449Y-27798900D02*
X114461449Y-30829900D01*
X114501449Y-22690900D02*
X114501449Y-25718900D01*
X114861449Y-27798900D02*
X114861449Y-30782900D01*
X116502449Y-23393900D02*
X116502449Y-30123900D01*
X114661449Y-27798900D02*
X114661449Y-30810900D01*
X116102449Y-27798900D02*
X116102449Y-30364900D01*
X114821449Y-22728900D02*
X114821449Y-25718900D01*
X114781449Y-27798900D02*
X114781449Y-30795900D01*
X118222449Y-25990900D02*
X118222449Y-27526900D01*
X114381449Y-22682900D02*
X114381449Y-30834900D01*
X115702449Y-22968900D02*
X115702449Y-25718900D01*
X115742449Y-22984900D02*
X115742449Y-25718900D01*
X115062449Y-27798900D02*
X115062449Y-30743900D01*
X117782449Y-24794900D02*
X117782449Y-28722900D01*
X114701449Y-27798900D02*
X114701449Y-30806900D01*
X115662449Y-27798900D02*
X115662449Y-30563900D01*
X114902449Y-22741900D02*
X114902449Y-25718900D01*
X114581449Y-27798900D02*
X114581449Y-30819900D01*
X116222449Y-23218900D02*
X116222449Y-25718900D01*
X115182449Y-27798900D02*
X115182449Y-30715900D01*
X117382449Y-24202900D02*
X117382449Y-29314900D01*
X116262449Y-23241900D02*
X116262449Y-25718900D01*
X114421449Y-27798900D02*
X114421449Y-30832900D01*
X114261449Y-22678900D02*
X114261449Y-30838900D01*
X117942449Y-25113900D02*
X117942449Y-28403900D01*
X117502449Y-24358900D02*
X117502449Y-29158900D01*
X115622449Y-27798900D02*
X115622449Y-30579900D01*
X115502449Y-22895900D02*
X115502449Y-25718900D01*
X116102449Y-23152900D02*
X116102449Y-25718900D01*
X115862449Y-27798900D02*
X115862449Y-30480900D01*
X115302449Y-22833900D02*
X115302449Y-25718900D01*
X114982449Y-27798900D02*
X114982449Y-30760900D01*
X116062449Y-23131900D02*
X116062449Y-25718900D01*
X114541449Y-27798900D02*
X114541449Y-30823900D01*
X114982449Y-22756900D02*
X114982449Y-25718900D01*
X115062449Y-22773900D02*
X115062449Y-25718900D01*
X115102449Y-27798900D02*
X115102449Y-30734900D01*
X115222449Y-27798900D02*
X115222449Y-30705900D01*
X115782449Y-27798900D02*
X115782449Y-30515900D01*
X116742449Y-23569900D02*
X116742449Y-29947900D01*
X115382449Y-22856900D02*
X115382449Y-25718900D01*
X115902449Y-23054900D02*
X115902449Y-25718900D01*
X116262449Y-27798900D02*
X116262449Y-30275900D01*
X115142449Y-22791900D02*
X115142449Y-25718900D01*
X115382449Y-27798900D02*
X115382449Y-30660900D01*
X114541449Y-22693900D02*
X114541449Y-25718900D01*
X116142449Y-23174900D02*
X116142449Y-25718900D01*
X117902449Y-25027900D02*
X117902449Y-28489900D01*
X109771751Y-24443900D02*
X110571751Y-24443900D01*
X116902449Y-23703900D02*
X116902449Y-29813900D01*
X117822449Y-24868900D02*
X117822449Y-28648900D01*
X115542449Y-27798900D02*
X115542449Y-30608900D01*
X114301449Y-22679900D02*
X114301449Y-30837900D01*
X117422449Y-24253900D02*
X117422449Y-29263900D01*
X117582449Y-24471900D02*
X117582449Y-29045900D01*
X115462449Y-27798900D02*
X115462449Y-30635900D01*
X114181449Y-22678900D02*
X114181449Y-30838900D01*
X117622449Y-24530900D02*
X117622449Y-28986900D01*
X114341449Y-22681900D02*
X114341449Y-30835900D01*
X117262449Y-24061900D02*
X117262449Y-29455900D01*
X116822449Y-23634900D02*
X116822449Y-29882900D01*
X116582449Y-23449900D02*
X116582449Y-30067900D01*
X114621449Y-22701900D02*
X114621449Y-25718900D01*
X116702449Y-23538900D02*
X116702449Y-29978900D01*
X117862449Y-24945900D02*
X117862449Y-28571900D01*
X114821449Y-27798900D02*
X114821449Y-30788900D01*
X115422449Y-22869900D02*
X115422449Y-25718900D01*
X115502449Y-27798900D02*
X115502449Y-30621900D01*
X115702449Y-27798900D02*
X115702449Y-30548900D01*
X116342449Y-27798900D02*
X116342449Y-30227900D01*
X115582449Y-22923900D02*
X115582449Y-25718900D01*
X117462449Y-24304900D02*
X117462449Y-29212900D01*
X115102449Y-22782900D02*
X115102449Y-25718900D01*
X114221449Y-22678900D02*
X114221449Y-30838900D01*
X114781449Y-22721900D02*
X114781449Y-25718900D01*
X116022449Y-27798900D02*
X116022449Y-30405900D01*
X116142449Y-27798900D02*
X116142449Y-30342900D01*
X114581449Y-22697900D02*
X114581449Y-25718900D01*
X117342449Y-24154900D02*
X117342449Y-29362900D01*
X118062449Y-25412900D02*
X118062449Y-28104900D01*
X117222449Y-24017900D02*
X117222449Y-29499900D01*
X116302449Y-27798900D02*
X116302449Y-30251900D01*
X117302449Y-24107900D02*
X117302449Y-29409900D01*
X115582449Y-27798900D02*
X115582449Y-30593900D01*
X116982449Y-23775900D02*
X116982449Y-29741900D01*
X116782449Y-23602900D02*
X116782449Y-29914900D01*
X110171751Y-24043900D02*
X110171751Y-24843900D01*
X115902449Y-27798900D02*
X115902449Y-30462900D01*
X114741449Y-22716900D02*
X114741449Y-25718900D01*
X115182449Y-22801900D02*
X115182449Y-25718900D01*
X114942449Y-22748900D02*
X114942449Y-25718900D01*
X116622449Y-23478900D02*
X116622449Y-30038900D01*
X117662449Y-24592900D02*
X117662449Y-28924900D01*
X114701449Y-22710900D02*
X114701449Y-25718900D01*
X114421449Y-22684900D02*
X114421449Y-25718900D01*
X115262449Y-27798900D02*
X115262449Y-30694900D01*
X115542449Y-22908900D02*
X115542449Y-25718900D01*
X118301449Y-26758900D02*
G75*
G03*
X118301449Y-26758900I-4120000J0D01*
G01*
%TO.C,R4*%
X33333100Y-27428836D02*
X33333100Y-28882964D01*
X31513100Y-27428836D02*
X31513100Y-28882964D01*
%TO.C,R19*%
X69929364Y-34755500D02*
X68475236Y-34755500D01*
X69929364Y-32935500D02*
X68475236Y-32935500D01*
%TO.C,J4*%
X87626500Y-22431700D02*
X84966500Y-22431700D01*
X87626500Y-27571700D02*
X84966500Y-27571700D01*
X87626500Y-27571700D02*
X87626500Y-22431700D01*
X87626500Y-28841700D02*
X87626500Y-30171700D01*
X87626500Y-30171700D02*
X86296500Y-30171700D01*
X84966500Y-27571700D02*
X84966500Y-22431700D01*
%TO.C,RV4*%
X116024500Y-57551900D02*
X121094500Y-57551900D01*
X116024500Y-57551900D02*
X116024500Y-47781900D01*
X121094500Y-57551900D02*
X121094500Y-47781900D01*
X116024500Y-47781900D02*
X121094500Y-47781900D01*
%TO.C,J1*%
X22032300Y-41641100D02*
X24932300Y-41641100D01*
X20127300Y-43546100D02*
X20127300Y-46446100D01*
X26837300Y-43546100D02*
X26837300Y-46446100D01*
X22032300Y-48351100D02*
X24932300Y-48351100D01*
%TO.C,R1*%
X63797264Y-28354700D02*
X62343136Y-28354700D01*
X63797264Y-26534700D02*
X62343136Y-26534700D01*
%TO.C,D2*%
X73047500Y-32482500D02*
X73047500Y-32638500D01*
X73047500Y-34798500D02*
X73047500Y-34954500D01*
X75648630Y-32638663D02*
G75*
G03*
X73566539Y-32638500I-1041130J-1079837D01*
G01*
X73566539Y-34798500D02*
G75*
G03*
X75648630Y-34798337I1040961J1080000D01*
G01*
X73047500Y-34954016D02*
G75*
G03*
X76279835Y-34797108I1560000J1235516D01*
G01*
X76279835Y-32639892D02*
G75*
G03*
X73047500Y-32482984I-1672335J-1078608D01*
G01*
D12*
%TO.C,U5*%
X136461500Y-48653700D02*
X136461500Y-53733700D01*
X132397500Y-48653700D02*
X136461500Y-48653700D01*
X136461500Y-53733700D02*
X132397500Y-53733700D01*
X132397500Y-53733700D02*
X132397500Y-48653700D01*
D11*
%TO.C,C13*%
X101307848Y-30065300D02*
X102730352Y-30065300D01*
X101307848Y-31885300D02*
X102730352Y-31885300D01*
%TO.C,R6*%
X38300036Y-29963700D02*
X39754164Y-29963700D01*
X38300036Y-31783700D02*
X39754164Y-31783700D01*
%TO.C,R13*%
X95780236Y-30065300D02*
X97234364Y-30065300D01*
X95780236Y-31885300D02*
X97234364Y-31885300D01*
%TO.C,R17*%
X117991300Y-43303836D02*
X117991300Y-44757964D01*
X116171300Y-43303836D02*
X116171300Y-44757964D01*
%TO.C,J5*%
X134782900Y-36992900D02*
X137682900Y-36992900D01*
X132877900Y-38897900D02*
X132877900Y-41797900D01*
X134782900Y-43702900D02*
X137682900Y-43702900D01*
X139587900Y-38897900D02*
X139587900Y-41797900D01*
%TO.C,R21*%
X82304300Y-46529636D02*
X82304300Y-47983764D01*
X80484300Y-46529636D02*
X80484300Y-47983764D01*
%TO.C,C10*%
X113728448Y-36508100D02*
X115150952Y-36508100D01*
X113728448Y-34688100D02*
X115150952Y-34688100D01*
%TO.C,U2*%
X107456300Y-38697700D02*
X107456300Y-48977700D01*
X112756300Y-48977700D02*
X112756300Y-38697700D01*
X107456300Y-48977700D02*
X112756300Y-48977700D01*
X112756300Y-38697700D02*
X111106300Y-38697700D01*
X109106300Y-38697700D02*
X107456300Y-38697700D01*
X109106300Y-38697700D02*
G75*
G03*
X111106300Y-38697700I1000000J0D01*
G01*
%TO.C,C3*%
X51012951Y-26480900D02*
X51012951Y-23618900D01*
X51613951Y-26480900D02*
X51613951Y-23483900D01*
X50572951Y-31260900D02*
X50572951Y-28560900D01*
X51613951Y-31557900D02*
X51613951Y-28560900D01*
X48252951Y-28618900D02*
X48252951Y-26422900D01*
X50052951Y-30989900D02*
X50052951Y-28560900D01*
X51573951Y-26480900D02*
X51573951Y-23490900D01*
X49172951Y-30261900D02*
X49172951Y-24779900D01*
X51492951Y-31537900D02*
X51492951Y-28560900D01*
X50212951Y-26480900D02*
X50212951Y-23958900D01*
X50292951Y-31126900D02*
X50292951Y-28560900D01*
X51973951Y-31594900D02*
X51973951Y-28560900D01*
X51452951Y-31530900D02*
X51452951Y-28560900D01*
X48692951Y-29622900D02*
X48692951Y-25418900D01*
X49732951Y-30770900D02*
X49732951Y-24270900D01*
X49852951Y-30858900D02*
X49852951Y-24182900D01*
X51012951Y-31422900D02*
X51012951Y-28560900D01*
X48132951Y-28053900D02*
X48132951Y-26987900D01*
X51092951Y-26480900D02*
X51092951Y-23595900D01*
X50972951Y-31409900D02*
X50972951Y-28560900D01*
X50052951Y-26480900D02*
X50052951Y-24051900D01*
X51973951Y-26480900D02*
X51973951Y-23446900D01*
X50532951Y-26480900D02*
X50532951Y-23798900D01*
X50172951Y-31060900D02*
X50172951Y-28560900D01*
X50572951Y-26480900D02*
X50572951Y-23780900D01*
X50012951Y-26480900D02*
X50012951Y-24076900D01*
X49292951Y-30387900D02*
X49292951Y-24653900D01*
X52213951Y-31600900D02*
X52213951Y-23440900D01*
X48372951Y-28973900D02*
X48372951Y-26067900D01*
X49332951Y-30427900D02*
X49332951Y-24613900D01*
X51813951Y-26480900D02*
X51813951Y-23459900D01*
X48332951Y-28866900D02*
X48332951Y-26174900D01*
X51212951Y-26480900D02*
X51212951Y-23563900D01*
X50772951Y-26480900D02*
X50772951Y-23699900D01*
X50452951Y-26480900D02*
X50452951Y-23834900D01*
X49012951Y-30076900D02*
X49012951Y-24964900D01*
X50452951Y-31206900D02*
X50452951Y-28560900D01*
X56223649Y-30235900D02*
X56223649Y-29435900D01*
X50092951Y-26480900D02*
X50092951Y-24027900D01*
X51933951Y-31591900D02*
X51933951Y-28560900D01*
X50892951Y-31383900D02*
X50892951Y-28560900D01*
X51733951Y-26480900D02*
X51733951Y-23468900D01*
X50412951Y-26480900D02*
X50412951Y-23854900D01*
X49932951Y-30912900D02*
X49932951Y-28560900D01*
X50972951Y-26480900D02*
X50972951Y-23631900D01*
X49212951Y-30304900D02*
X49212951Y-24736900D01*
X51893951Y-31588900D02*
X51893951Y-28560900D01*
X51252951Y-26480900D02*
X51252951Y-23553900D01*
X49572951Y-30644900D02*
X49572951Y-24396900D01*
X52093951Y-31599900D02*
X52093951Y-23441900D01*
X48292951Y-28749900D02*
X48292951Y-26291900D01*
X51332951Y-26480900D02*
X51332951Y-23535900D01*
X52013951Y-31596900D02*
X52013951Y-23444900D01*
X51773951Y-31577900D02*
X51773951Y-28560900D01*
X49692951Y-30740900D02*
X49692951Y-24300900D01*
X50212951Y-31082900D02*
X50212951Y-28560900D01*
X50132951Y-31037900D02*
X50132951Y-28560900D01*
X49652951Y-30709900D02*
X49652951Y-24331900D01*
X51813951Y-31581900D02*
X51813951Y-28560900D01*
X51693951Y-26480900D02*
X51693951Y-23472900D01*
X49452951Y-30539900D02*
X49452951Y-24501900D01*
X50492951Y-31224900D02*
X50492951Y-28560900D01*
X51533951Y-26480900D02*
X51533951Y-23496900D01*
X51693951Y-31568900D02*
X51693951Y-28560900D01*
X51132951Y-26480900D02*
X51132951Y-23584900D01*
X50692951Y-31310900D02*
X50692951Y-28560900D01*
X50852951Y-31370900D02*
X50852951Y-28560900D01*
X50132951Y-26480900D02*
X50132951Y-24003900D01*
X51853951Y-31585900D02*
X51853951Y-28560900D01*
X51172951Y-31467900D02*
X51172951Y-28560900D01*
X50612951Y-31277900D02*
X50612951Y-28560900D01*
X49812951Y-30829900D02*
X49812951Y-24211900D01*
X50812951Y-31355900D02*
X50812951Y-28560900D01*
X51573951Y-31550900D02*
X51573951Y-28560900D01*
X49492951Y-30575900D02*
X49492951Y-24465900D01*
X48452951Y-29165900D02*
X48452951Y-25875900D01*
X51052951Y-26480900D02*
X51052951Y-23606900D01*
X50652951Y-31294900D02*
X50652951Y-28560900D01*
X51773951Y-26480900D02*
X51773951Y-23463900D01*
X48732951Y-29686900D02*
X48732951Y-25354900D01*
X49532951Y-30610900D02*
X49532951Y-24430900D01*
X48612951Y-29484900D02*
X48612951Y-25556900D01*
X50772951Y-31341900D02*
X50772951Y-28560900D01*
X50412951Y-31186900D02*
X50412951Y-28560900D01*
X49372951Y-30465900D02*
X49372951Y-24575900D01*
X50292951Y-26480900D02*
X50292951Y-23914900D01*
X52173951Y-31600900D02*
X52173951Y-23440900D01*
X48932951Y-29974900D02*
X48932951Y-25066900D01*
X51492951Y-26480900D02*
X51492951Y-23503900D01*
X51172951Y-26480900D02*
X51172951Y-23573900D01*
X48412951Y-29072900D02*
X48412951Y-25968900D01*
X56623649Y-29835900D02*
X55823649Y-29835900D01*
X48172951Y-28288900D02*
X48172951Y-26752900D01*
X50732951Y-31325900D02*
X50732951Y-28560900D01*
X50172951Y-26480900D02*
X50172951Y-23980900D01*
X51653951Y-31562900D02*
X51653951Y-28560900D01*
X51893951Y-26480900D02*
X51893951Y-23452900D01*
X50092951Y-31013900D02*
X50092951Y-28560900D01*
X48772951Y-29748900D02*
X48772951Y-25292900D01*
X50532951Y-31242900D02*
X50532951Y-28560900D01*
X48212951Y-28468900D02*
X48212951Y-26572900D01*
X50932951Y-26480900D02*
X50932951Y-23643900D01*
X49972951Y-26480900D02*
X49972951Y-24102900D01*
X50612951Y-26480900D02*
X50612951Y-23763900D01*
X52133951Y-31600900D02*
X52133951Y-23440900D01*
X48652951Y-29554900D02*
X48652951Y-25486900D01*
X49252951Y-30346900D02*
X49252951Y-24694900D01*
X50332951Y-26480900D02*
X50332951Y-23893900D01*
X50492951Y-26480900D02*
X50492951Y-23816900D01*
X51533951Y-31544900D02*
X51533951Y-28560900D01*
X49892951Y-30885900D02*
X49892951Y-24155900D01*
X51412951Y-26480900D02*
X51412951Y-23518900D01*
X49772951Y-30800900D02*
X49772951Y-24240900D01*
X51292951Y-26480900D02*
X51292951Y-23544900D01*
X50812951Y-26480900D02*
X50812951Y-23685900D01*
X48972951Y-30025900D02*
X48972951Y-25015900D01*
X48812951Y-29807900D02*
X48812951Y-25233900D01*
X51332951Y-31505900D02*
X51332951Y-28560900D01*
X50252951Y-26480900D02*
X50252951Y-23936900D01*
X50012951Y-30964900D02*
X50012951Y-28560900D01*
X49612951Y-30676900D02*
X49612951Y-24364900D01*
X51252951Y-31487900D02*
X51252951Y-28560900D01*
X50372951Y-31167900D02*
X50372951Y-28560900D01*
X49132951Y-30217900D02*
X49132951Y-24823900D01*
X50372951Y-26480900D02*
X50372951Y-23873900D01*
X50252951Y-31104900D02*
X50252951Y-28560900D01*
X51212951Y-31477900D02*
X51212951Y-28560900D01*
X50852951Y-26480900D02*
X50852951Y-23670900D01*
X50332951Y-31147900D02*
X50332951Y-28560900D01*
X48572951Y-29410900D02*
X48572951Y-25630900D01*
X51132951Y-31456900D02*
X51132951Y-28560900D01*
X51733951Y-31572900D02*
X51733951Y-28560900D01*
X51452951Y-26480900D02*
X51452951Y-23510900D01*
X51653951Y-26480900D02*
X51653951Y-23478900D01*
X49052951Y-30124900D02*
X49052951Y-24916900D01*
X51292951Y-31496900D02*
X51292951Y-28560900D01*
X49092951Y-30171900D02*
X49092951Y-24869900D01*
X48892951Y-29920900D02*
X48892951Y-25120900D01*
X50732951Y-26480900D02*
X50732951Y-23715900D01*
X51372951Y-26480900D02*
X51372951Y-23526900D01*
X50692951Y-26480900D02*
X50692951Y-23730900D01*
X51092951Y-31445900D02*
X51092951Y-28560900D01*
X51052951Y-31434900D02*
X51052951Y-28560900D01*
X50932951Y-31397900D02*
X50932951Y-28560900D01*
X48852951Y-29865900D02*
X48852951Y-25175900D01*
X52053951Y-31597900D02*
X52053951Y-23443900D01*
X49972951Y-30938900D02*
X49972951Y-28560900D01*
X50652951Y-26480900D02*
X50652951Y-23746900D01*
X50892951Y-26480900D02*
X50892951Y-23657900D01*
X51853951Y-26480900D02*
X51853951Y-23455900D01*
X48532951Y-29333900D02*
X48532951Y-25707900D01*
X49932951Y-26480900D02*
X49932951Y-24128900D01*
X51372951Y-31514900D02*
X51372951Y-28560900D01*
X51412951Y-31522900D02*
X51412951Y-28560900D01*
X51933951Y-26480900D02*
X51933951Y-23449900D01*
X48492951Y-29251900D02*
X48492951Y-25789900D01*
X49412951Y-30503900D02*
X49412951Y-24537900D01*
X56333951Y-27520900D02*
G75*
G03*
X56333951Y-27520900I-4120000J0D01*
G01*
%TO.C,R12*%
X99793436Y-47277700D02*
X101247564Y-47277700D01*
X99793436Y-45457700D02*
X101247564Y-45457700D01*
%TD*%
M02*
