%TF.GenerationSoftware,KiCad,Pcbnew,(6.0.7)*%
%TF.CreationDate,2023-02-12T14:45:51-05:00*%
%TF.ProjectId,Genesis_PA_Testing_v1,47656e65-7369-4735-9f50-415f54657374,rev?*%
%TF.SameCoordinates,Original*%
%TF.FileFunction,Soldermask,Top*%
%TF.FilePolarity,Negative*%
%FSLAX46Y46*%
G04 Gerber Fmt 4.6, Leading zero omitted, Abs format (unit mm)*
G04 Created by KiCad (PCBNEW (6.0.7)) date 2023-02-12 14:45:51*
%MOMM*%
%LPD*%
G01*
G04 APERTURE LIST*
G04 Aperture macros list*
%AMRoundRect*
0 Rectangle with rounded corners*
0 $1 Rounding radius*
0 $2 $3 $4 $5 $6 $7 $8 $9 X,Y pos of 4 corners*
0 Add a 4 corners polygon primitive as box body*
4,1,4,$2,$3,$4,$5,$6,$7,$8,$9,$2,$3,0*
0 Add four circle primitives for the rounded corners*
1,1,$1+$1,$2,$3*
1,1,$1+$1,$4,$5*
1,1,$1+$1,$6,$7*
1,1,$1+$1,$8,$9*
0 Add four rect primitives between the rounded corners*
20,1,$1+$1,$2,$3,$4,$5,0*
20,1,$1+$1,$4,$5,$6,$7,0*
20,1,$1+$1,$6,$7,$8,$9,0*
20,1,$1+$1,$8,$9,$2,$3,0*%
G04 Aperture macros list end*
%ADD10C,3.000000*%
%ADD11RoundRect,0.250000X0.625000X-0.400000X0.625000X0.400000X-0.625000X0.400000X-0.625000X-0.400000X0*%
%ADD12RoundRect,0.250000X0.312500X0.625000X-0.312500X0.625000X-0.312500X-0.625000X0.312500X-0.625000X0*%
%ADD13O,4.200000X1.600000*%
%ADD14RoundRect,0.250000X-0.325000X-0.650000X0.325000X-0.650000X0.325000X0.650000X-0.325000X0.650000X0*%
%ADD15RoundRect,0.250000X0.325000X0.650000X-0.325000X0.650000X-0.325000X-0.650000X0.325000X-0.650000X0*%
%ADD16RoundRect,0.250000X0.650000X-0.325000X0.650000X0.325000X-0.650000X0.325000X-0.650000X-0.325000X0*%
%ADD17C,2.500000*%
%ADD18O,1.600000X4.200000*%
%ADD19RoundRect,0.250000X-0.625000X0.312500X-0.625000X-0.312500X0.625000X-0.312500X0.625000X0.312500X0*%
%ADD20RoundRect,0.250000X-0.312500X-0.625000X0.312500X-0.625000X0.312500X0.625000X-0.312500X0.625000X0*%
%ADD21RoundRect,0.250001X0.462499X0.624999X-0.462499X0.624999X-0.462499X-0.624999X0.462499X-0.624999X0*%
%ADD22RoundRect,0.250001X-0.462499X-0.624999X0.462499X-0.624999X0.462499X0.624999X-0.462499X0.624999X0*%
%ADD23RoundRect,0.250000X-0.650000X0.325000X-0.650000X-0.325000X0.650000X-0.325000X0.650000X0.325000X0*%
%ADD24RoundRect,0.150000X-0.825000X-0.150000X0.825000X-0.150000X0.825000X0.150000X-0.825000X0.150000X0*%
%ADD25RoundRect,0.250001X-0.624999X0.462499X-0.624999X-0.462499X0.624999X-0.462499X0.624999X0.462499X0*%
G04 APERTURE END LIST*
D10*
%TO.C,R17*%
X115824000Y-129413000D03*
X123444000Y-129413000D03*
%TD*%
%TO.C,R14*%
X115633500Y-105092500D03*
X123253500Y-105092500D03*
%TD*%
D11*
%TO.C,R9*%
X140081000Y-113437000D03*
X140081000Y-110337000D03*
%TD*%
D10*
%TO.C,R8*%
X107886500Y-109029500D03*
X115506500Y-109029500D03*
%TD*%
%TO.C,R12*%
X108077000Y-125285500D03*
X115697000Y-125285500D03*
%TD*%
%TO.C,R11*%
X123317000Y-133794500D03*
X115697000Y-133794500D03*
%TD*%
D12*
%TO.C,R16*%
X122112500Y-120015000D03*
X119187500Y-120015000D03*
%TD*%
%TO.C,R10*%
X129415000Y-133604000D03*
X126490000Y-133604000D03*
%TD*%
D13*
%TO.C,C23*%
X112839500Y-145667613D03*
X112839500Y-143167613D03*
%TD*%
D10*
%TO.C,L1*%
X133787500Y-91821000D03*
X148787500Y-91821000D03*
%TD*%
D14*
%TO.C,C14*%
X92060500Y-118872000D03*
X95010500Y-118872000D03*
%TD*%
D15*
%TO.C,C7*%
X143842000Y-121602500D03*
X140892000Y-121602500D03*
%TD*%
D16*
%TO.C,C21*%
X122301000Y-117553000D03*
X122301000Y-114603000D03*
%TD*%
D10*
%TO.C,T1*%
X172895000Y-91353500D03*
X172895000Y-104353500D03*
X178895000Y-91353500D03*
X178895000Y-104353500D03*
%TD*%
D17*
%TO.C,J5*%
X84137500Y-115570000D03*
X81597500Y-118110000D03*
X86677500Y-113030000D03*
X86677500Y-118110000D03*
X81597500Y-113030000D03*
%TD*%
D18*
%TO.C,RV1*%
X147266500Y-126936500D03*
X144726500Y-126936500D03*
X142186500Y-126936500D03*
%TD*%
D19*
%TO.C,R6*%
X98171000Y-116012500D03*
X98171000Y-118937500D03*
%TD*%
D12*
%TO.C,R13*%
X104269000Y-134747000D03*
X101344000Y-134747000D03*
%TD*%
D16*
%TO.C,C22*%
X119316500Y-117553000D03*
X119316500Y-114603000D03*
%TD*%
%TO.C,C17*%
X132080000Y-133491500D03*
X132080000Y-130541500D03*
%TD*%
D14*
%TO.C,C15*%
X101395000Y-118745000D03*
X104345000Y-118745000D03*
%TD*%
D20*
%TO.C,R7*%
X104455500Y-113855500D03*
X107380500Y-113855500D03*
%TD*%
D14*
%TO.C,C11*%
X138669500Y-135699500D03*
X141619500Y-135699500D03*
%TD*%
D18*
%TO.C,J2*%
X159956500Y-104203500D03*
X157416500Y-104203500D03*
%TD*%
D20*
%TO.C,R4*%
X128903000Y-137795000D03*
X131828000Y-137795000D03*
%TD*%
D12*
%TO.C,R3*%
X153483500Y-104140000D03*
X150558500Y-104140000D03*
%TD*%
D21*
%TO.C,L4*%
X122201000Y-122745500D03*
X119226000Y-122745500D03*
%TD*%
D20*
%TO.C,R15*%
X101280500Y-137985500D03*
X104205500Y-137985500D03*
%TD*%
D18*
%TO.C,D2*%
X93086000Y-131826000D03*
X95626000Y-131826000D03*
%TD*%
D22*
%TO.C,L3*%
X101382500Y-141414500D03*
X104357500Y-141414500D03*
%TD*%
D23*
%TO.C,C16*%
X125222000Y-115555500D03*
X125222000Y-118505500D03*
%TD*%
D18*
%TO.C,C20*%
X104265613Y-130302000D03*
X101765613Y-130302000D03*
%TD*%
D10*
%TO.C,D3*%
X95250000Y-136969500D03*
X85090000Y-136969500D03*
%TD*%
D24*
%TO.C,U1*%
X115568500Y-113792000D03*
X115568500Y-115062000D03*
X115568500Y-116332000D03*
X115568500Y-117602000D03*
X115568500Y-118872000D03*
X115568500Y-120142000D03*
X115568500Y-121412000D03*
X110618500Y-121412000D03*
X110618500Y-120142000D03*
X110618500Y-118872000D03*
X110618500Y-117602000D03*
X110618500Y-116332000D03*
X110618500Y-115062000D03*
X110618500Y-113792000D03*
%TD*%
D17*
%TO.C,J3*%
X178752500Y-120205500D03*
X176212500Y-117665500D03*
X181292500Y-122745500D03*
X181292500Y-117665500D03*
X176212500Y-122745500D03*
%TD*%
D23*
%TO.C,C6*%
X146113500Y-104125500D03*
X146113500Y-107075500D03*
%TD*%
D18*
%TO.C,Q1*%
X153987500Y-113855500D03*
X156527500Y-113855500D03*
X159067500Y-113855500D03*
%TD*%
D15*
%TO.C,C18*%
X104408500Y-125666500D03*
X101458500Y-125666500D03*
%TD*%
%TO.C,C19*%
X104472000Y-122237500D03*
X101522000Y-122237500D03*
%TD*%
D10*
%TO.C,D1*%
X139446000Y-132334000D03*
X149606000Y-132334000D03*
%TD*%
D18*
%TO.C,J1*%
X139573000Y-102044500D03*
%TD*%
D23*
%TO.C,C4*%
X120142000Y-91489000D03*
X120142000Y-94439000D03*
%TD*%
D13*
%TO.C,C1*%
X126555500Y-91874849D03*
X126555500Y-94374849D03*
%TD*%
D20*
%TO.C,R1*%
X143825500Y-117538500D03*
X146750500Y-117538500D03*
%TD*%
D23*
%TO.C,C9*%
X157289500Y-91489000D03*
X157289500Y-94439000D03*
%TD*%
D25*
%TO.C,L2*%
X126301500Y-137704500D03*
X126301500Y-140679500D03*
%TD*%
D13*
%TO.C,C10*%
X163449000Y-92001849D03*
X163449000Y-94501849D03*
%TD*%
D12*
%TO.C,R5*%
X89981500Y-131953000D03*
X87056500Y-131953000D03*
%TD*%
D19*
%TO.C,R2*%
X149669500Y-113409000D03*
X149669500Y-116334000D03*
%TD*%
D23*
%TO.C,C8*%
X134937500Y-135875500D03*
X134937500Y-138825500D03*
%TD*%
%TO.C,C12*%
X178562000Y-109015000D03*
X178562000Y-111965000D03*
%TD*%
D13*
%TO.C,J4*%
X81788000Y-125872000D03*
X81788000Y-128412000D03*
X81788000Y-130952000D03*
%TD*%
D15*
%TO.C,C2*%
X146128000Y-110998000D03*
X143178000Y-110998000D03*
%TD*%
D13*
%TO.C,J6*%
X129032000Y-110363000D03*
X129032000Y-112903000D03*
X129032000Y-115443000D03*
%TD*%
D15*
%TO.C,C3*%
X146191500Y-114173000D03*
X143241500Y-114173000D03*
%TD*%
D13*
%TO.C,J7*%
X135509000Y-115555000D03*
X135509000Y-113015000D03*
X135509000Y-110475000D03*
%TD*%
D23*
%TO.C,C13*%
X153924000Y-91489000D03*
X153924000Y-94439000D03*
%TD*%
D14*
%TO.C,C5*%
X146797500Y-121666000D03*
X149747500Y-121666000D03*
%TD*%
M02*
