%TF.GenerationSoftware,KiCad,Pcbnew,(6.0.7)*%
%TF.CreationDate,2023-02-12T14:45:49-05:00*%
%TF.ProjectId,Genesis_PA_Testing_v1,47656e65-7369-4735-9f50-415f54657374,rev?*%
%TF.SameCoordinates,Original*%
%TF.FileFunction,Drillmap*%
%TF.FilePolarity,Positive*%
%FSLAX45Y45*%
G04 Gerber Fmt 4.5, Leading zero omitted, Abs format (unit mm)*
G04 Created by KiCad (PCBNEW (6.0.7)) date 2023-02-12 14:45:49*
%MOMM*%
%LPD*%
G01*
G04 APERTURE LIST*
%ADD10C,0.100000*%
%ADD11C,0.200000*%
G04 APERTURE END LIST*
D10*
X7385050Y-8312150D02*
X18472150Y-8312150D01*
X18472150Y-8312150D02*
X18472150Y-14814550D01*
X18472150Y-14814550D02*
X7385050Y-14814550D01*
X7385050Y-14814550D02*
X7385050Y-8312150D01*
D11*
D10*
X8128800Y-12537200D02*
X8228800Y-12637200D01*
X8228800Y-12537200D02*
X8128800Y-12637200D01*
X8128800Y-12791200D02*
X8228800Y-12891200D01*
X8228800Y-12791200D02*
X8128800Y-12891200D01*
X8128800Y-13045200D02*
X8228800Y-13145200D01*
X8228800Y-13045200D02*
X8128800Y-13145200D01*
X8459000Y-13646950D02*
X8559000Y-13746950D01*
X8559000Y-13646950D02*
X8459000Y-13746950D01*
X9258600Y-13132600D02*
X9358600Y-13232600D01*
X9358600Y-13132600D02*
X9258600Y-13232600D01*
X9475000Y-13646950D02*
X9575000Y-13746950D01*
X9575000Y-13646950D02*
X9475000Y-13746950D01*
X9512600Y-13132600D02*
X9612600Y-13232600D01*
X9612600Y-13132600D02*
X9512600Y-13232600D01*
X10126561Y-12980200D02*
X10226561Y-13080200D01*
X10226561Y-12980200D02*
X10126561Y-13080200D01*
X10376561Y-12980200D02*
X10476561Y-13080200D01*
X10476561Y-12980200D02*
X10376561Y-13080200D01*
X10738650Y-10852950D02*
X10838650Y-10952950D01*
X10838650Y-10852950D02*
X10738650Y-10952950D01*
X10757700Y-12478550D02*
X10857700Y-12578550D01*
X10857700Y-12478550D02*
X10757700Y-12578550D01*
X11233950Y-14266761D02*
X11333950Y-14366761D01*
X11333950Y-14266761D02*
X11233950Y-14366761D01*
X11233950Y-14516761D02*
X11333950Y-14616761D01*
X11333950Y-14516761D02*
X11233950Y-14616761D01*
X11500650Y-10852950D02*
X11600650Y-10952950D01*
X11600650Y-10852950D02*
X11500650Y-10952950D01*
X11513350Y-10459250D02*
X11613350Y-10559250D01*
X11613350Y-10459250D02*
X11513350Y-10559250D01*
X11519700Y-12478550D02*
X11619700Y-12578550D01*
X11619700Y-12478550D02*
X11519700Y-12578550D01*
X11519700Y-13329450D02*
X11619700Y-13429450D01*
X11619700Y-13329450D02*
X11519700Y-13429450D01*
X11532400Y-12891300D02*
X11632400Y-12991300D01*
X11632400Y-12891300D02*
X11532400Y-12991300D01*
X12275350Y-10459250D02*
X12375350Y-10559250D01*
X12375350Y-10459250D02*
X12275350Y-10559250D01*
X12281700Y-13329450D02*
X12381700Y-13429450D01*
X12381700Y-13329450D02*
X12281700Y-13429450D01*
X12294400Y-12891300D02*
X12394400Y-12991300D01*
X12394400Y-12891300D02*
X12294400Y-12991300D01*
X12605550Y-9137485D02*
X12705550Y-9237485D01*
X12705550Y-9137485D02*
X12605550Y-9237485D01*
X12605550Y-9387485D02*
X12705550Y-9487485D01*
X12705550Y-9387485D02*
X12605550Y-9487485D01*
X12853200Y-10986300D02*
X12953200Y-11086300D01*
X12953200Y-10986300D02*
X12853200Y-11086300D01*
X12853200Y-11240300D02*
X12953200Y-11340300D01*
X12953200Y-11240300D02*
X12853200Y-11340300D01*
X12853200Y-11494300D02*
X12953200Y-11594300D01*
X12953200Y-11494300D02*
X12853200Y-11594300D01*
X13328750Y-9132100D02*
X13428750Y-9232100D01*
X13428750Y-9132100D02*
X13328750Y-9232100D01*
X13500900Y-10997500D02*
X13600900Y-11097500D01*
X13600900Y-10997500D02*
X13500900Y-11097500D01*
X13500900Y-11251500D02*
X13600900Y-11351500D01*
X13600900Y-11251500D02*
X13500900Y-11351500D01*
X13500900Y-11505500D02*
X13600900Y-11605500D01*
X13600900Y-11505500D02*
X13500900Y-11605500D01*
X13894600Y-13183400D02*
X13994600Y-13283400D01*
X13994600Y-13183400D02*
X13894600Y-13283400D01*
X13907300Y-10154450D02*
X14007300Y-10254450D01*
X14007300Y-10154450D02*
X13907300Y-10254450D01*
X14168650Y-12643650D02*
X14268650Y-12743650D01*
X14268650Y-12643650D02*
X14168650Y-12743650D01*
X14422650Y-12643650D02*
X14522650Y-12743650D01*
X14522650Y-12643650D02*
X14422650Y-12743650D01*
X14676650Y-12643650D02*
X14776650Y-12743650D01*
X14776650Y-12643650D02*
X14676650Y-12743650D01*
X14828750Y-9132100D02*
X14928750Y-9232100D01*
X14928750Y-9132100D02*
X14828750Y-9232100D01*
X14910600Y-13183400D02*
X15010600Y-13283400D01*
X15010600Y-13183400D02*
X14910600Y-13283400D01*
X15348750Y-11335550D02*
X15448750Y-11435550D01*
X15448750Y-11335550D02*
X15348750Y-11435550D01*
X15602750Y-11335550D02*
X15702750Y-11435550D01*
X15702750Y-11335550D02*
X15602750Y-11435550D01*
X15691650Y-10370350D02*
X15791650Y-10470350D01*
X15791650Y-10370350D02*
X15691650Y-10470350D01*
X15856750Y-11335550D02*
X15956750Y-11435550D01*
X15956750Y-11335550D02*
X15856750Y-11435550D01*
X15945650Y-10370350D02*
X16045650Y-10470350D01*
X16045650Y-10370350D02*
X15945650Y-10470350D01*
X16294900Y-9150185D02*
X16394900Y-9250185D01*
X16394900Y-9150185D02*
X16294900Y-9250185D01*
X16294900Y-9400185D02*
X16394900Y-9500185D01*
X16394900Y-9400185D02*
X16294900Y-9500185D01*
X17239500Y-9085350D02*
X17339500Y-9185350D01*
X17339500Y-9085350D02*
X17239500Y-9185350D01*
X17239500Y-10385350D02*
X17339500Y-10485350D01*
X17339500Y-10385350D02*
X17239500Y-10485350D01*
X17839500Y-9085350D02*
X17939500Y-9185350D01*
X17939500Y-9085350D02*
X17839500Y-9185350D01*
X17839500Y-10385350D02*
X17939500Y-10485350D01*
X17939500Y-10385350D02*
X17839500Y-10485350D01*
D11*
X7637669Y-15130026D02*
X7637669Y-14930026D01*
X7685288Y-14930026D01*
X7713859Y-14939550D01*
X7732907Y-14958598D01*
X7742431Y-14977645D01*
X7751955Y-15015740D01*
X7751955Y-15044312D01*
X7742431Y-15082407D01*
X7732907Y-15101455D01*
X7713859Y-15120502D01*
X7685288Y-15130026D01*
X7637669Y-15130026D01*
X7837669Y-15130026D02*
X7837669Y-14996693D01*
X7837669Y-15034788D02*
X7847193Y-15015740D01*
X7856717Y-15006217D01*
X7875764Y-14996693D01*
X7894812Y-14996693D01*
X7961478Y-15130026D02*
X7961478Y-14996693D01*
X7961478Y-14930026D02*
X7951955Y-14939550D01*
X7961478Y-14949074D01*
X7971002Y-14939550D01*
X7961478Y-14930026D01*
X7961478Y-14949074D01*
X8085288Y-15130026D02*
X8066240Y-15120502D01*
X8056717Y-15101455D01*
X8056717Y-14930026D01*
X8190050Y-15130026D02*
X8171002Y-15120502D01*
X8161478Y-15101455D01*
X8161478Y-14930026D01*
X8418621Y-15130026D02*
X8418621Y-14930026D01*
X8485288Y-15072883D01*
X8551955Y-14930026D01*
X8551955Y-15130026D01*
X8732907Y-15130026D02*
X8732907Y-15025264D01*
X8723383Y-15006217D01*
X8704336Y-14996693D01*
X8666240Y-14996693D01*
X8647193Y-15006217D01*
X8732907Y-15120502D02*
X8713860Y-15130026D01*
X8666240Y-15130026D01*
X8647193Y-15120502D01*
X8637669Y-15101455D01*
X8637669Y-15082407D01*
X8647193Y-15063359D01*
X8666240Y-15053836D01*
X8713860Y-15053836D01*
X8732907Y-15044312D01*
X8828145Y-14996693D02*
X8828145Y-15196693D01*
X8828145Y-15006217D02*
X8847193Y-14996693D01*
X8885288Y-14996693D01*
X8904336Y-15006217D01*
X8913860Y-15015740D01*
X8923383Y-15034788D01*
X8923383Y-15091931D01*
X8913860Y-15110978D01*
X8904336Y-15120502D01*
X8885288Y-15130026D01*
X8847193Y-15130026D01*
X8828145Y-15120502D01*
X9009098Y-15110978D02*
X9018621Y-15120502D01*
X9009098Y-15130026D01*
X8999574Y-15120502D01*
X9009098Y-15110978D01*
X9009098Y-15130026D01*
X9009098Y-15006217D02*
X9018621Y-15015740D01*
X9009098Y-15025264D01*
X8999574Y-15015740D01*
X9009098Y-15006217D01*
X9009098Y-15025264D01*
D10*
X7280050Y-15409550D02*
X7380050Y-15509550D01*
X7380050Y-15409550D02*
X7280050Y-15509550D01*
D11*
X7742431Y-15550026D02*
X7628145Y-15550026D01*
X7685288Y-15550026D02*
X7685288Y-15350026D01*
X7666240Y-15378598D01*
X7647193Y-15397645D01*
X7628145Y-15407169D01*
X7828145Y-15530978D02*
X7837669Y-15540502D01*
X7828145Y-15550026D01*
X7818621Y-15540502D01*
X7828145Y-15530978D01*
X7828145Y-15550026D01*
X7961478Y-15350026D02*
X7980526Y-15350026D01*
X7999574Y-15359550D01*
X8009098Y-15369074D01*
X8018621Y-15388121D01*
X8028145Y-15426217D01*
X8028145Y-15473836D01*
X8018621Y-15511931D01*
X8009098Y-15530978D01*
X7999574Y-15540502D01*
X7980526Y-15550026D01*
X7961478Y-15550026D01*
X7942431Y-15540502D01*
X7932907Y-15530978D01*
X7923383Y-15511931D01*
X7913859Y-15473836D01*
X7913859Y-15426217D01*
X7923383Y-15388121D01*
X7932907Y-15369074D01*
X7942431Y-15359550D01*
X7961478Y-15350026D01*
X8151955Y-15350026D02*
X8171002Y-15350026D01*
X8190050Y-15359550D01*
X8199574Y-15369074D01*
X8209098Y-15388121D01*
X8218621Y-15426217D01*
X8218621Y-15473836D01*
X8209098Y-15511931D01*
X8199574Y-15530978D01*
X8190050Y-15540502D01*
X8171002Y-15550026D01*
X8151955Y-15550026D01*
X8132907Y-15540502D01*
X8123383Y-15530978D01*
X8113859Y-15511931D01*
X8104336Y-15473836D01*
X8104336Y-15426217D01*
X8113859Y-15388121D01*
X8123383Y-15369074D01*
X8132907Y-15359550D01*
X8151955Y-15350026D01*
X8342431Y-15350026D02*
X8361478Y-15350026D01*
X8380526Y-15359550D01*
X8390050Y-15369074D01*
X8399574Y-15388121D01*
X8409098Y-15426217D01*
X8409098Y-15473836D01*
X8399574Y-15511931D01*
X8390050Y-15530978D01*
X8380526Y-15540502D01*
X8361478Y-15550026D01*
X8342431Y-15550026D01*
X8323383Y-15540502D01*
X8313859Y-15530978D01*
X8304336Y-15511931D01*
X8294812Y-15473836D01*
X8294812Y-15426217D01*
X8304336Y-15388121D01*
X8313859Y-15369074D01*
X8323383Y-15359550D01*
X8342431Y-15350026D01*
X8494812Y-15550026D02*
X8494812Y-15416693D01*
X8494812Y-15435740D02*
X8504336Y-15426217D01*
X8523383Y-15416693D01*
X8551955Y-15416693D01*
X8571002Y-15426217D01*
X8580526Y-15445264D01*
X8580526Y-15550026D01*
X8580526Y-15445264D02*
X8590050Y-15426217D01*
X8609098Y-15416693D01*
X8637669Y-15416693D01*
X8656717Y-15426217D01*
X8666240Y-15445264D01*
X8666240Y-15550026D01*
X8761479Y-15550026D02*
X8761479Y-15416693D01*
X8761479Y-15435740D02*
X8771002Y-15426217D01*
X8790050Y-15416693D01*
X8818621Y-15416693D01*
X8837669Y-15426217D01*
X8847193Y-15445264D01*
X8847193Y-15550026D01*
X8847193Y-15445264D02*
X8856717Y-15426217D01*
X8875764Y-15416693D01*
X8904336Y-15416693D01*
X8923383Y-15426217D01*
X8932907Y-15445264D01*
X8932907Y-15550026D01*
X9323383Y-15340502D02*
X9151955Y-15597645D01*
X9580526Y-15350026D02*
X9599574Y-15350026D01*
X9618621Y-15359550D01*
X9628145Y-15369074D01*
X9637669Y-15388121D01*
X9647193Y-15426217D01*
X9647193Y-15473836D01*
X9637669Y-15511931D01*
X9628145Y-15530978D01*
X9618621Y-15540502D01*
X9599574Y-15550026D01*
X9580526Y-15550026D01*
X9561479Y-15540502D01*
X9551955Y-15530978D01*
X9542431Y-15511931D01*
X9532907Y-15473836D01*
X9532907Y-15426217D01*
X9542431Y-15388121D01*
X9551955Y-15369074D01*
X9561479Y-15359550D01*
X9580526Y-15350026D01*
X9732907Y-15530978D02*
X9742431Y-15540502D01*
X9732907Y-15550026D01*
X9723383Y-15540502D01*
X9732907Y-15530978D01*
X9732907Y-15550026D01*
X9866240Y-15350026D02*
X9885288Y-15350026D01*
X9904336Y-15359550D01*
X9913860Y-15369074D01*
X9923383Y-15388121D01*
X9932907Y-15426217D01*
X9932907Y-15473836D01*
X9923383Y-15511931D01*
X9913860Y-15530978D01*
X9904336Y-15540502D01*
X9885288Y-15550026D01*
X9866240Y-15550026D01*
X9847193Y-15540502D01*
X9837669Y-15530978D01*
X9828145Y-15511931D01*
X9818621Y-15473836D01*
X9818621Y-15426217D01*
X9828145Y-15388121D01*
X9837669Y-15369074D01*
X9847193Y-15359550D01*
X9866240Y-15350026D01*
X9999574Y-15350026D02*
X10123383Y-15350026D01*
X10056717Y-15426217D01*
X10085288Y-15426217D01*
X10104336Y-15435740D01*
X10113860Y-15445264D01*
X10123383Y-15464312D01*
X10123383Y-15511931D01*
X10113860Y-15530978D01*
X10104336Y-15540502D01*
X10085288Y-15550026D01*
X10028145Y-15550026D01*
X10009098Y-15540502D01*
X9999574Y-15530978D01*
X10218621Y-15550026D02*
X10256717Y-15550026D01*
X10275764Y-15540502D01*
X10285288Y-15530978D01*
X10304336Y-15502407D01*
X10313860Y-15464312D01*
X10313860Y-15388121D01*
X10304336Y-15369074D01*
X10294812Y-15359550D01*
X10275764Y-15350026D01*
X10237669Y-15350026D01*
X10218621Y-15359550D01*
X10209098Y-15369074D01*
X10199574Y-15388121D01*
X10199574Y-15435740D01*
X10209098Y-15454788D01*
X10218621Y-15464312D01*
X10237669Y-15473836D01*
X10275764Y-15473836D01*
X10294812Y-15464312D01*
X10304336Y-15454788D01*
X10313860Y-15435740D01*
X10485288Y-15416693D02*
X10485288Y-15550026D01*
X10437669Y-15340502D02*
X10390050Y-15483359D01*
X10513860Y-15483359D01*
X10580526Y-15350026D02*
X10580526Y-15388121D01*
X10656717Y-15350026D02*
X10656717Y-15388121D01*
X10951955Y-15626217D02*
X10942431Y-15616693D01*
X10923383Y-15588121D01*
X10913860Y-15569074D01*
X10904336Y-15540502D01*
X10894812Y-15492883D01*
X10894812Y-15454788D01*
X10904336Y-15407169D01*
X10913860Y-15378598D01*
X10923383Y-15359550D01*
X10942431Y-15330978D01*
X10951955Y-15321455D01*
X11113860Y-15416693D02*
X11113860Y-15550026D01*
X11066240Y-15340502D02*
X11018621Y-15483359D01*
X11142431Y-15483359D01*
X11247193Y-15435740D02*
X11228145Y-15426217D01*
X11218621Y-15416693D01*
X11209098Y-15397645D01*
X11209098Y-15388121D01*
X11218621Y-15369074D01*
X11228145Y-15359550D01*
X11247193Y-15350026D01*
X11285288Y-15350026D01*
X11304336Y-15359550D01*
X11313859Y-15369074D01*
X11323383Y-15388121D01*
X11323383Y-15397645D01*
X11313859Y-15416693D01*
X11304336Y-15426217D01*
X11285288Y-15435740D01*
X11247193Y-15435740D01*
X11228145Y-15445264D01*
X11218621Y-15454788D01*
X11209098Y-15473836D01*
X11209098Y-15511931D01*
X11218621Y-15530978D01*
X11228145Y-15540502D01*
X11247193Y-15550026D01*
X11285288Y-15550026D01*
X11304336Y-15540502D01*
X11313859Y-15530978D01*
X11323383Y-15511931D01*
X11323383Y-15473836D01*
X11313859Y-15454788D01*
X11304336Y-15445264D01*
X11285288Y-15435740D01*
X11561478Y-15550026D02*
X11561478Y-15350026D01*
X11647193Y-15550026D02*
X11647193Y-15445264D01*
X11637669Y-15426217D01*
X11618621Y-15416693D01*
X11590050Y-15416693D01*
X11571002Y-15426217D01*
X11561478Y-15435740D01*
X11771002Y-15550026D02*
X11751955Y-15540502D01*
X11742431Y-15530978D01*
X11732907Y-15511931D01*
X11732907Y-15454788D01*
X11742431Y-15435740D01*
X11751955Y-15426217D01*
X11771002Y-15416693D01*
X11799574Y-15416693D01*
X11818621Y-15426217D01*
X11828145Y-15435740D01*
X11837669Y-15454788D01*
X11837669Y-15511931D01*
X11828145Y-15530978D01*
X11818621Y-15540502D01*
X11799574Y-15550026D01*
X11771002Y-15550026D01*
X11951955Y-15550026D02*
X11932907Y-15540502D01*
X11923383Y-15521455D01*
X11923383Y-15350026D01*
X12104336Y-15540502D02*
X12085288Y-15550026D01*
X12047193Y-15550026D01*
X12028145Y-15540502D01*
X12018621Y-15521455D01*
X12018621Y-15445264D01*
X12028145Y-15426217D01*
X12047193Y-15416693D01*
X12085288Y-15416693D01*
X12104336Y-15426217D01*
X12113859Y-15445264D01*
X12113859Y-15464312D01*
X12018621Y-15483359D01*
X12190050Y-15540502D02*
X12209098Y-15550026D01*
X12247193Y-15550026D01*
X12266240Y-15540502D01*
X12275764Y-15521455D01*
X12275764Y-15511931D01*
X12266240Y-15492883D01*
X12247193Y-15483359D01*
X12218621Y-15483359D01*
X12199574Y-15473836D01*
X12190050Y-15454788D01*
X12190050Y-15445264D01*
X12199574Y-15426217D01*
X12218621Y-15416693D01*
X12247193Y-15416693D01*
X12266240Y-15426217D01*
X12342431Y-15626217D02*
X12351955Y-15616693D01*
X12371002Y-15588121D01*
X12380526Y-15569074D01*
X12390050Y-15540502D01*
X12399574Y-15492883D01*
X12399574Y-15454788D01*
X12390050Y-15407169D01*
X12380526Y-15378598D01*
X12371002Y-15359550D01*
X12351955Y-15330978D01*
X12342431Y-15321455D01*
M02*
