%TF.GenerationSoftware,KiCad,Pcbnew,(6.0.7)*%
%TF.CreationDate,2023-02-12T14:45:51-05:00*%
%TF.ProjectId,Genesis_PA_Testing_v1,47656e65-7369-4735-9f50-415f54657374,rev?*%
%TF.SameCoordinates,Original*%
%TF.FileFunction,Soldermask,Bot*%
%TF.FilePolarity,Negative*%
%FSLAX46Y46*%
G04 Gerber Fmt 4.6, Leading zero omitted, Abs format (unit mm)*
G04 Created by KiCad (PCBNEW (6.0.7)) date 2023-02-12 14:45:51*
%MOMM*%
%LPD*%
G01*
G04 APERTURE LIST*
%ADD10C,3.000000*%
%ADD11O,4.200000X1.600000*%
%ADD12O,1.600000X4.200000*%
G04 APERTURE END LIST*
D10*
%TO.C,R17*%
X115824000Y-129413000D03*
X123444000Y-129413000D03*
%TD*%
%TO.C,R14*%
X115633500Y-105092500D03*
X123253500Y-105092500D03*
%TD*%
%TO.C,R8*%
X107886500Y-109029500D03*
X115506500Y-109029500D03*
%TD*%
%TO.C,R12*%
X108077000Y-125285500D03*
X115697000Y-125285500D03*
%TD*%
%TO.C,R11*%
X123317000Y-133794500D03*
X115697000Y-133794500D03*
%TD*%
D11*
%TO.C,C23*%
X112839500Y-145667613D03*
X112839500Y-143167613D03*
%TD*%
D10*
%TO.C,L1*%
X133787500Y-91821000D03*
X148787500Y-91821000D03*
%TD*%
%TO.C,T1*%
X172895000Y-91353500D03*
X172895000Y-104353500D03*
X178895000Y-91353500D03*
X178895000Y-104353500D03*
%TD*%
D12*
%TO.C,RV1*%
X147266500Y-126936500D03*
X144726500Y-126936500D03*
X142186500Y-126936500D03*
%TD*%
%TO.C,J2*%
X159956500Y-104203500D03*
X157416500Y-104203500D03*
%TD*%
%TO.C,D2*%
X93086000Y-131826000D03*
X95626000Y-131826000D03*
%TD*%
%TO.C,C20*%
X104265613Y-130302000D03*
X101765613Y-130302000D03*
%TD*%
D10*
%TO.C,D3*%
X95250000Y-136969500D03*
X85090000Y-136969500D03*
%TD*%
D12*
%TO.C,Q1*%
X153987500Y-113855500D03*
X156527500Y-113855500D03*
X159067500Y-113855500D03*
%TD*%
D10*
%TO.C,D1*%
X139446000Y-132334000D03*
X149606000Y-132334000D03*
%TD*%
D12*
%TO.C,J1*%
X139573000Y-102044500D03*
%TD*%
D11*
%TO.C,C1*%
X126555500Y-91874849D03*
X126555500Y-94374849D03*
%TD*%
%TO.C,C10*%
X163449000Y-92001849D03*
X163449000Y-94501849D03*
%TD*%
%TO.C,J4*%
X81788000Y-125872000D03*
X81788000Y-128412000D03*
X81788000Y-130952000D03*
%TD*%
%TO.C,J6*%
X129032000Y-110363000D03*
X129032000Y-112903000D03*
X129032000Y-115443000D03*
%TD*%
%TO.C,J7*%
X135509000Y-115555000D03*
X135509000Y-113015000D03*
X135509000Y-110475000D03*
%TD*%
M02*
