M48
; DRILL file {KiCad (6.0.7)} date Sun Feb 12 14:45:49 2023
; FORMAT={-:-/ absolute / metric / decimal}
; #@! TF.CreationDate,2023-02-12T14:45:49-05:00
; #@! TF.GenerationSoftware,Kicad,Pcbnew,(6.0.7)
; #@! TF.FileFunction,MixedPlating,1,2
FMAT,2
METRIC
; #@! TA.AperFunction,Plated,PTH,ComponentDrill
T1C1.000
%
G90
G05
T1
X81.788Y-125.872
X81.788Y-128.412
X81.788Y-130.952
X85.09Y-136.969
X93.086Y-131.826
X95.25Y-136.969
X95.626Y-131.826
X101.766Y-130.302
X104.266Y-130.302
X107.886Y-109.029
X108.077Y-125.285
X112.84Y-143.168
X112.84Y-145.668
X115.506Y-109.029
X115.633Y-105.093
X115.697Y-125.285
X115.697Y-133.794
X115.824Y-129.413
X123.253Y-105.093
X123.317Y-133.794
X123.444Y-129.413
X126.555Y-91.875
X126.555Y-94.375
X129.032Y-110.363
X129.032Y-112.903
X129.032Y-115.443
X133.787Y-91.821
X135.509Y-110.475
X135.509Y-113.015
X135.509Y-115.555
X139.446Y-132.334
X139.573Y-102.044
X142.186Y-126.936
X144.726Y-126.936
X147.266Y-126.936
X148.787Y-91.821
X149.606Y-132.334
X153.987Y-113.855
X156.528Y-113.855
X157.416Y-104.203
X159.067Y-113.855
X159.957Y-104.203
X163.449Y-92.002
X163.449Y-94.502
X172.895Y-91.353
X172.895Y-104.353
X178.895Y-91.353
X178.895Y-104.353
T0
M30
