%TF.GenerationSoftware,KiCad,Pcbnew,(6.0.7)*%
%TF.CreationDate,2023-01-19T20:49:39-05:00*%
%TF.ProjectId,Phoenix612_Stage_2_PA_Testing_v1,50686f65-6e69-4783-9631-325f53746167,rev?*%
%TF.SameCoordinates,Original*%
%TF.FileFunction,Legend,Top*%
%TF.FilePolarity,Positive*%
%FSLAX46Y46*%
G04 Gerber Fmt 4.6, Leading zero omitted, Abs format (unit mm)*
G04 Created by KiCad (PCBNEW (6.0.7)) date 2023-01-19 20:49:39*
%MOMM*%
%LPD*%
G01*
G04 APERTURE LIST*
%ADD10C,0.300000*%
%ADD11C,0.150000*%
%ADD12C,0.120000*%
%ADD13C,0.127000*%
G04 APERTURE END LIST*
D10*
X33456271Y-67526914D02*
X31956271Y-67526914D01*
X31956271Y-66955485D01*
X32027700Y-66812628D01*
X32099128Y-66741200D01*
X32241985Y-66669771D01*
X32456271Y-66669771D01*
X32599128Y-66741200D01*
X32670557Y-66812628D01*
X32741985Y-66955485D01*
X32741985Y-67526914D01*
X33456271Y-66026914D02*
X31956271Y-66026914D01*
X33456271Y-65384057D02*
X32670557Y-65384057D01*
X32527700Y-65455485D01*
X32456271Y-65598342D01*
X32456271Y-65812628D01*
X32527700Y-65955485D01*
X32599128Y-66026914D01*
X33456271Y-64455485D02*
X33384842Y-64598342D01*
X33313414Y-64669771D01*
X33170557Y-64741200D01*
X32741985Y-64741200D01*
X32599128Y-64669771D01*
X32527700Y-64598342D01*
X32456271Y-64455485D01*
X32456271Y-64241200D01*
X32527700Y-64098342D01*
X32599128Y-64026914D01*
X32741985Y-63955485D01*
X33170557Y-63955485D01*
X33313414Y-64026914D01*
X33384842Y-64098342D01*
X33456271Y-64241200D01*
X33456271Y-64455485D01*
X33384842Y-62741200D02*
X33456271Y-62884057D01*
X33456271Y-63169771D01*
X33384842Y-63312628D01*
X33241985Y-63384057D01*
X32670557Y-63384057D01*
X32527700Y-63312628D01*
X32456271Y-63169771D01*
X32456271Y-62884057D01*
X32527700Y-62741200D01*
X32670557Y-62669771D01*
X32813414Y-62669771D01*
X32956271Y-63384057D01*
X32456271Y-62026914D02*
X33456271Y-62026914D01*
X32599128Y-62026914D02*
X32527700Y-61955485D01*
X32456271Y-61812628D01*
X32456271Y-61598342D01*
X32527700Y-61455485D01*
X32670557Y-61384057D01*
X33456271Y-61384057D01*
X33456271Y-60669771D02*
X32456271Y-60669771D01*
X31956271Y-60669771D02*
X32027700Y-60741200D01*
X32099128Y-60669771D01*
X32027700Y-60598342D01*
X31956271Y-60669771D01*
X32099128Y-60669771D01*
X33456271Y-60098342D02*
X32456271Y-59312628D01*
X32456271Y-60098342D02*
X33456271Y-59312628D01*
X31956271Y-56955485D02*
X31956271Y-57241200D01*
X32027700Y-57384057D01*
X32099128Y-57455485D01*
X32313414Y-57598342D01*
X32599128Y-57669771D01*
X33170557Y-57669771D01*
X33313414Y-57598342D01*
X33384842Y-57526914D01*
X33456271Y-57384057D01*
X33456271Y-57098342D01*
X33384842Y-56955485D01*
X33313414Y-56884057D01*
X33170557Y-56812628D01*
X32813414Y-56812628D01*
X32670557Y-56884057D01*
X32599128Y-56955485D01*
X32527700Y-57098342D01*
X32527700Y-57384057D01*
X32599128Y-57526914D01*
X32670557Y-57598342D01*
X32813414Y-57669771D01*
X33456271Y-55384057D02*
X33456271Y-56241200D01*
X33456271Y-55812628D02*
X31956271Y-55812628D01*
X32170557Y-55955485D01*
X32313414Y-56098342D01*
X32384842Y-56241200D01*
X32099128Y-54812628D02*
X32027700Y-54741200D01*
X31956271Y-54598342D01*
X31956271Y-54241200D01*
X32027700Y-54098342D01*
X32099128Y-54026914D01*
X32241985Y-53955485D01*
X32384842Y-53955485D01*
X32599128Y-54026914D01*
X33456271Y-54884057D01*
X33456271Y-53955485D01*
X33456271Y-52169771D02*
X31956271Y-52169771D01*
X31956271Y-51598342D01*
X32027700Y-51455485D01*
X32099128Y-51384057D01*
X32241985Y-51312628D01*
X32456271Y-51312628D01*
X32599128Y-51384057D01*
X32670557Y-51455485D01*
X32741985Y-51598342D01*
X32741985Y-52169771D01*
X33027700Y-50741200D02*
X33027700Y-50026914D01*
X33456271Y-50884057D02*
X31956271Y-50384057D01*
X33456271Y-49884057D01*
X33456271Y-48241200D02*
X31956271Y-48241200D01*
X31956271Y-47884057D01*
X32027700Y-47669771D01*
X32170557Y-47526914D01*
X32313414Y-47455485D01*
X32599128Y-47384057D01*
X32813414Y-47384057D01*
X33099128Y-47455485D01*
X33241985Y-47526914D01*
X33384842Y-47669771D01*
X33456271Y-47884057D01*
X33456271Y-48241200D01*
X33456271Y-46741200D02*
X32456271Y-46741200D01*
X32741985Y-46741200D02*
X32599128Y-46669771D01*
X32527700Y-46598342D01*
X32456271Y-46455485D01*
X32456271Y-46312628D01*
X33456271Y-45812628D02*
X32456271Y-45812628D01*
X31956271Y-45812628D02*
X32027700Y-45884057D01*
X32099128Y-45812628D01*
X32027700Y-45741200D01*
X31956271Y-45812628D01*
X32099128Y-45812628D01*
X32456271Y-45241200D02*
X33456271Y-44884057D01*
X32456271Y-44526914D01*
X33384842Y-43384057D02*
X33456271Y-43526914D01*
X33456271Y-43812628D01*
X33384842Y-43955485D01*
X33241985Y-44026914D01*
X32670557Y-44026914D01*
X32527700Y-43955485D01*
X32456271Y-43812628D01*
X32456271Y-43526914D01*
X32527700Y-43384057D01*
X32670557Y-43312628D01*
X32813414Y-43312628D01*
X32956271Y-44026914D01*
X33456271Y-42669771D02*
X32456271Y-42669771D01*
X32741985Y-42669771D02*
X32599128Y-42598342D01*
X32527700Y-42526914D01*
X32456271Y-42384057D01*
X32456271Y-42241200D01*
X31956271Y-40812628D02*
X31956271Y-39955485D01*
X33456271Y-40384057D02*
X31956271Y-40384057D01*
X33384842Y-38884057D02*
X33456271Y-39026914D01*
X33456271Y-39312628D01*
X33384842Y-39455485D01*
X33241985Y-39526914D01*
X32670557Y-39526914D01*
X32527700Y-39455485D01*
X32456271Y-39312628D01*
X32456271Y-39026914D01*
X32527700Y-38884057D01*
X32670557Y-38812628D01*
X32813414Y-38812628D01*
X32956271Y-39526914D01*
X33384842Y-38241200D02*
X33456271Y-38098342D01*
X33456271Y-37812628D01*
X33384842Y-37669771D01*
X33241985Y-37598342D01*
X33170557Y-37598342D01*
X33027700Y-37669771D01*
X32956271Y-37812628D01*
X32956271Y-38026914D01*
X32884842Y-38169771D01*
X32741985Y-38241200D01*
X32670557Y-38241200D01*
X32527700Y-38169771D01*
X32456271Y-38026914D01*
X32456271Y-37812628D01*
X32527700Y-37669771D01*
X32456271Y-37169771D02*
X32456271Y-36598342D01*
X31956271Y-36955485D02*
X33241985Y-36955485D01*
X33384842Y-36884057D01*
X33456271Y-36741200D01*
X33456271Y-36598342D01*
X31956271Y-35169771D02*
X33456271Y-34669771D01*
X31956271Y-34169771D01*
X33456271Y-32884057D02*
X33456271Y-33741200D01*
X33456271Y-33312628D02*
X31956271Y-33312628D01*
X32170557Y-33455485D01*
X32313414Y-33598342D01*
X32384842Y-33741200D01*
X34371271Y-54062628D02*
X35871271Y-53562628D01*
X34371271Y-53062628D01*
X35085557Y-52562628D02*
X35085557Y-52062628D01*
X35871271Y-51848342D02*
X35871271Y-52562628D01*
X34371271Y-52562628D01*
X34371271Y-51848342D01*
X34371271Y-51348342D02*
X34371271Y-50419771D01*
X34942700Y-50919771D01*
X34942700Y-50705485D01*
X35014128Y-50562628D01*
X35085557Y-50491200D01*
X35228414Y-50419771D01*
X35585557Y-50419771D01*
X35728414Y-50491200D01*
X35799842Y-50562628D01*
X35871271Y-50705485D01*
X35871271Y-51134057D01*
X35799842Y-51276914D01*
X35728414Y-51348342D01*
X34371271Y-49491200D02*
X34371271Y-49205485D01*
X34442700Y-49062628D01*
X34585557Y-48919771D01*
X34871271Y-48848342D01*
X35371271Y-48848342D01*
X35656985Y-48919771D01*
X35799842Y-49062628D01*
X35871271Y-49205485D01*
X35871271Y-49491200D01*
X35799842Y-49634057D01*
X35656985Y-49776914D01*
X35371271Y-49848342D01*
X34871271Y-49848342D01*
X34585557Y-49776914D01*
X34442700Y-49634057D01*
X34371271Y-49491200D01*
X34371271Y-47919771D02*
X34371271Y-47634057D01*
X34442700Y-47491200D01*
X34585557Y-47348342D01*
X34871271Y-47276914D01*
X35371271Y-47276914D01*
X35656985Y-47348342D01*
X35799842Y-47491200D01*
X35871271Y-47634057D01*
X35871271Y-47919771D01*
X35799842Y-48062628D01*
X35656985Y-48205485D01*
X35371271Y-48276914D01*
X34871271Y-48276914D01*
X34585557Y-48205485D01*
X34442700Y-48062628D01*
X34371271Y-47919771D01*
X35871271Y-46634057D02*
X34371271Y-46634057D01*
D11*
%TO.C,C11*%
X108980242Y-36012357D02*
X109027861Y-36059976D01*
X109075480Y-36202833D01*
X109075480Y-36298071D01*
X109027861Y-36440928D01*
X108932623Y-36536166D01*
X108837385Y-36583785D01*
X108646909Y-36631404D01*
X108504052Y-36631404D01*
X108313576Y-36583785D01*
X108218338Y-36536166D01*
X108123100Y-36440928D01*
X108075480Y-36298071D01*
X108075480Y-36202833D01*
X108123100Y-36059976D01*
X108170719Y-36012357D01*
X109075480Y-35059976D02*
X109075480Y-35631404D01*
X109075480Y-35345690D02*
X108075480Y-35345690D01*
X108218338Y-35440928D01*
X108313576Y-35536166D01*
X108361195Y-35631404D01*
X109075480Y-34107595D02*
X109075480Y-34679023D01*
X109075480Y-34393309D02*
X108075480Y-34393309D01*
X108218338Y-34488547D01*
X108313576Y-34583785D01*
X108361195Y-34679023D01*
X107526080Y-35980547D02*
X107526080Y-36551976D01*
X107526080Y-36266261D02*
X106526080Y-36266261D01*
X106668938Y-36361500D01*
X106764176Y-36456738D01*
X106811795Y-36551976D01*
X106526080Y-35361500D02*
X106526080Y-35266261D01*
X106573700Y-35171023D01*
X106621319Y-35123404D01*
X106716557Y-35075785D01*
X106907033Y-35028166D01*
X107145128Y-35028166D01*
X107335604Y-35075785D01*
X107430842Y-35123404D01*
X107478461Y-35171023D01*
X107526080Y-35266261D01*
X107526080Y-35361500D01*
X107478461Y-35456738D01*
X107430842Y-35504357D01*
X107335604Y-35551976D01*
X107145128Y-35599595D01*
X106907033Y-35599595D01*
X106716557Y-35551976D01*
X106621319Y-35504357D01*
X106573700Y-35456738D01*
X106526080Y-35361500D01*
X106526080Y-34409119D02*
X106526080Y-34313880D01*
X106573700Y-34218642D01*
X106621319Y-34171023D01*
X106716557Y-34123404D01*
X106907033Y-34075785D01*
X107145128Y-34075785D01*
X107335604Y-34123404D01*
X107430842Y-34171023D01*
X107478461Y-34218642D01*
X107526080Y-34313880D01*
X107526080Y-34409119D01*
X107478461Y-34504357D01*
X107430842Y-34551976D01*
X107335604Y-34599595D01*
X107145128Y-34647214D01*
X106907033Y-34647214D01*
X106716557Y-34599595D01*
X106621319Y-34551976D01*
X106573700Y-34504357D01*
X106526080Y-34409119D01*
X106859414Y-33647214D02*
X107526080Y-33647214D01*
X106954652Y-33647214D02*
X106907033Y-33599595D01*
X106859414Y-33504357D01*
X106859414Y-33361500D01*
X106907033Y-33266261D01*
X107002271Y-33218642D01*
X107526080Y-33218642D01*
%TO.C,U3*%
X131454674Y-60147803D02*
X131454674Y-60785224D01*
X131492170Y-60860215D01*
X131529665Y-60897710D01*
X131604656Y-60935205D01*
X131754637Y-60935205D01*
X131829628Y-60897710D01*
X131867123Y-60860215D01*
X131904618Y-60785224D01*
X131904618Y-60147803D01*
X132204581Y-60147803D02*
X132692020Y-60147803D01*
X132429553Y-60447766D01*
X132542039Y-60447766D01*
X132617030Y-60485261D01*
X132654525Y-60522757D01*
X132692020Y-60597747D01*
X132692020Y-60785224D01*
X132654525Y-60860215D01*
X132617030Y-60897710D01*
X132542039Y-60935205D01*
X132317067Y-60935205D01*
X132242076Y-60897710D01*
X132204581Y-60860215D01*
X130536039Y-67793205D02*
X130273571Y-67418252D01*
X130086095Y-67793205D02*
X130086095Y-67005803D01*
X130386057Y-67005803D01*
X130461048Y-67043299D01*
X130498543Y-67080794D01*
X130536039Y-67155785D01*
X130536039Y-67268271D01*
X130498543Y-67343261D01*
X130461048Y-67380757D01*
X130386057Y-67418252D01*
X130086095Y-67418252D01*
X131135964Y-67380757D02*
X130873497Y-67380757D01*
X130873497Y-67793205D02*
X130873497Y-67005803D01*
X131248450Y-67005803D01*
X131360936Y-67868196D02*
X131960861Y-67868196D01*
X132298319Y-67005803D02*
X132448301Y-67005803D01*
X132523291Y-67043299D01*
X132598282Y-67118289D01*
X132635777Y-67268271D01*
X132635777Y-67530738D01*
X132598282Y-67680719D01*
X132523291Y-67755710D01*
X132448301Y-67793205D01*
X132298319Y-67793205D01*
X132223329Y-67755710D01*
X132148338Y-67680719D01*
X132110843Y-67530738D01*
X132110843Y-67268271D01*
X132148338Y-67118289D01*
X132223329Y-67043299D01*
X132298319Y-67005803D01*
X132973235Y-67005803D02*
X132973235Y-67643224D01*
X133010731Y-67718215D01*
X133048226Y-67755710D01*
X133123217Y-67793205D01*
X133273198Y-67793205D01*
X133348189Y-67755710D01*
X133385684Y-67718215D01*
X133423179Y-67643224D01*
X133423179Y-67005803D01*
X133685647Y-67005803D02*
X134135591Y-67005803D01*
X133910619Y-67793205D02*
X133910619Y-67005803D01*
%TO.C,C5*%
X51687433Y-52770042D02*
X51639814Y-52817661D01*
X51496957Y-52865280D01*
X51401719Y-52865280D01*
X51258861Y-52817661D01*
X51163623Y-52722423D01*
X51116004Y-52627185D01*
X51068385Y-52436709D01*
X51068385Y-52293852D01*
X51116004Y-52103376D01*
X51163623Y-52008138D01*
X51258861Y-51912900D01*
X51401719Y-51865280D01*
X51496957Y-51865280D01*
X51639814Y-51912900D01*
X51687433Y-51960519D01*
X52592195Y-51865280D02*
X52116004Y-51865280D01*
X52068385Y-52341471D01*
X52116004Y-52293852D01*
X52211242Y-52246233D01*
X52449338Y-52246233D01*
X52544576Y-52293852D01*
X52592195Y-52341471D01*
X52639814Y-52436709D01*
X52639814Y-52674804D01*
X52592195Y-52770042D01*
X52544576Y-52817661D01*
X52449338Y-52865280D01*
X52211242Y-52865280D01*
X52116004Y-52817661D01*
X52068385Y-52770042D01*
X47388614Y-51833519D02*
X47436233Y-51785900D01*
X47531471Y-51738280D01*
X47769566Y-51738280D01*
X47864804Y-51785900D01*
X47912423Y-51833519D01*
X47960042Y-51928757D01*
X47960042Y-52023995D01*
X47912423Y-52166852D01*
X47340995Y-52738280D01*
X47960042Y-52738280D01*
X48340995Y-51833519D02*
X48388614Y-51785900D01*
X48483852Y-51738280D01*
X48721947Y-51738280D01*
X48817185Y-51785900D01*
X48864804Y-51833519D01*
X48912423Y-51928757D01*
X48912423Y-52023995D01*
X48864804Y-52166852D01*
X48293376Y-52738280D01*
X48912423Y-52738280D01*
X49769566Y-52071614D02*
X49769566Y-52738280D01*
X49340995Y-52071614D02*
X49340995Y-52595423D01*
X49388614Y-52690661D01*
X49483852Y-52738280D01*
X49626709Y-52738280D01*
X49721947Y-52690661D01*
X49769566Y-52643042D01*
%TO.C,C7*%
X69226133Y-57761142D02*
X69178514Y-57808761D01*
X69035657Y-57856380D01*
X68940419Y-57856380D01*
X68797561Y-57808761D01*
X68702323Y-57713523D01*
X68654704Y-57618285D01*
X68607085Y-57427809D01*
X68607085Y-57284952D01*
X68654704Y-57094476D01*
X68702323Y-56999238D01*
X68797561Y-56904000D01*
X68940419Y-56856380D01*
X69035657Y-56856380D01*
X69178514Y-56904000D01*
X69226133Y-56951619D01*
X69559466Y-56856380D02*
X70226133Y-56856380D01*
X69797561Y-57856380D01*
X69086552Y-53335180D02*
X68515123Y-53335180D01*
X68800838Y-53335180D02*
X68800838Y-52335180D01*
X68705600Y-52478038D01*
X68610361Y-52573276D01*
X68515123Y-52620895D01*
X69705600Y-52335180D02*
X69800838Y-52335180D01*
X69896076Y-52382800D01*
X69943695Y-52430419D01*
X69991314Y-52525657D01*
X70038933Y-52716133D01*
X70038933Y-52954228D01*
X69991314Y-53144704D01*
X69943695Y-53239942D01*
X69896076Y-53287561D01*
X69800838Y-53335180D01*
X69705600Y-53335180D01*
X69610361Y-53287561D01*
X69562742Y-53239942D01*
X69515123Y-53144704D01*
X69467504Y-52954228D01*
X69467504Y-52716133D01*
X69515123Y-52525657D01*
X69562742Y-52430419D01*
X69610361Y-52382800D01*
X69705600Y-52335180D01*
X70657980Y-52335180D02*
X70753219Y-52335180D01*
X70848457Y-52382800D01*
X70896076Y-52430419D01*
X70943695Y-52525657D01*
X70991314Y-52716133D01*
X70991314Y-52954228D01*
X70943695Y-53144704D01*
X70896076Y-53239942D01*
X70848457Y-53287561D01*
X70753219Y-53335180D01*
X70657980Y-53335180D01*
X70562742Y-53287561D01*
X70515123Y-53239942D01*
X70467504Y-53144704D01*
X70419885Y-52954228D01*
X70419885Y-52716133D01*
X70467504Y-52525657D01*
X70515123Y-52430419D01*
X70562742Y-52382800D01*
X70657980Y-52335180D01*
X71419885Y-52668514D02*
X71419885Y-53335180D01*
X71419885Y-52763752D02*
X71467504Y-52716133D01*
X71562742Y-52668514D01*
X71705600Y-52668514D01*
X71800838Y-52716133D01*
X71848457Y-52811371D01*
X71848457Y-53335180D01*
%TO.C,R18*%
X122798811Y-60887968D02*
X122322621Y-61221301D01*
X122798811Y-61459396D02*
X121798811Y-61459396D01*
X121798811Y-61078444D01*
X121846431Y-60983206D01*
X121894050Y-60935587D01*
X121989288Y-60887968D01*
X122132145Y-60887968D01*
X122227383Y-60935587D01*
X122275002Y-60983206D01*
X122322621Y-61078444D01*
X122322621Y-61459396D01*
X122798811Y-59935587D02*
X122798811Y-60507015D01*
X122798811Y-60221301D02*
X121798811Y-60221301D01*
X121941669Y-60316539D01*
X122036907Y-60411777D01*
X122084526Y-60507015D01*
X122227383Y-59364158D02*
X122179764Y-59459396D01*
X122132145Y-59507015D01*
X122036907Y-59554634D01*
X121989288Y-59554634D01*
X121894050Y-59507015D01*
X121846431Y-59459396D01*
X121798811Y-59364158D01*
X121798811Y-59173682D01*
X121846431Y-59078444D01*
X121894050Y-59030825D01*
X121989288Y-58983206D01*
X122036907Y-58983206D01*
X122132145Y-59030825D01*
X122179764Y-59078444D01*
X122227383Y-59173682D01*
X122227383Y-59364158D01*
X122275002Y-59459396D01*
X122322621Y-59507015D01*
X122417859Y-59554634D01*
X122608335Y-59554634D01*
X122703573Y-59507015D01*
X122751192Y-59459396D01*
X122798811Y-59364158D01*
X122798811Y-59173682D01*
X122751192Y-59078444D01*
X122703573Y-59030825D01*
X122608335Y-58983206D01*
X122417859Y-58983206D01*
X122322621Y-59030825D01*
X122275002Y-59078444D01*
X122227383Y-59173682D01*
X124526011Y-61249882D02*
X124526011Y-61821311D01*
X124526011Y-61535596D02*
X123526011Y-61535596D01*
X123668869Y-61630834D01*
X123764107Y-61726072D01*
X123811726Y-61821311D01*
X124430773Y-60821311D02*
X124478392Y-60773691D01*
X124526011Y-60821311D01*
X124478392Y-60868930D01*
X124430773Y-60821311D01*
X124526011Y-60821311D01*
X123954583Y-60202263D02*
X123906964Y-60297501D01*
X123859345Y-60345120D01*
X123764107Y-60392739D01*
X123716488Y-60392739D01*
X123621250Y-60345120D01*
X123573631Y-60297501D01*
X123526011Y-60202263D01*
X123526011Y-60011787D01*
X123573631Y-59916549D01*
X123621250Y-59868930D01*
X123716488Y-59821311D01*
X123764107Y-59821311D01*
X123859345Y-59868930D01*
X123906964Y-59916549D01*
X123954583Y-60011787D01*
X123954583Y-60202263D01*
X124002202Y-60297501D01*
X124049821Y-60345120D01*
X124145059Y-60392739D01*
X124335535Y-60392739D01*
X124430773Y-60345120D01*
X124478392Y-60297501D01*
X124526011Y-60202263D01*
X124526011Y-60011787D01*
X124478392Y-59916549D01*
X124430773Y-59868930D01*
X124335535Y-59821311D01*
X124145059Y-59821311D01*
X124049821Y-59868930D01*
X124002202Y-59916549D01*
X123954583Y-60011787D01*
X124526011Y-59392739D02*
X123526011Y-59392739D01*
X124526011Y-58821311D02*
X123954583Y-59249882D01*
X123526011Y-58821311D02*
X124097440Y-59392739D01*
%TO.C,C2*%
X49252142Y-64682666D02*
X49299761Y-64730285D01*
X49347380Y-64873142D01*
X49347380Y-64968380D01*
X49299761Y-65111238D01*
X49204523Y-65206476D01*
X49109285Y-65254095D01*
X48918809Y-65301714D01*
X48775952Y-65301714D01*
X48585476Y-65254095D01*
X48490238Y-65206476D01*
X48395000Y-65111238D01*
X48347380Y-64968380D01*
X48347380Y-64873142D01*
X48395000Y-64730285D01*
X48442619Y-64682666D01*
X48442619Y-64301714D02*
X48395000Y-64254095D01*
X48347380Y-64158857D01*
X48347380Y-63920761D01*
X48395000Y-63825523D01*
X48442619Y-63777904D01*
X48537857Y-63730285D01*
X48633095Y-63730285D01*
X48775952Y-63777904D01*
X49347380Y-64349333D01*
X49347380Y-63730285D01*
X46400980Y-64669847D02*
X46400980Y-65241276D01*
X46400980Y-64955561D02*
X45400980Y-64955561D01*
X45543838Y-65050800D01*
X45639076Y-65146038D01*
X45686695Y-65241276D01*
X45400980Y-64050800D02*
X45400980Y-63955561D01*
X45448600Y-63860323D01*
X45496219Y-63812704D01*
X45591457Y-63765085D01*
X45781933Y-63717466D01*
X46020028Y-63717466D01*
X46210504Y-63765085D01*
X46305742Y-63812704D01*
X46353361Y-63860323D01*
X46400980Y-63955561D01*
X46400980Y-64050800D01*
X46353361Y-64146038D01*
X46305742Y-64193657D01*
X46210504Y-64241276D01*
X46020028Y-64288895D01*
X45781933Y-64288895D01*
X45591457Y-64241276D01*
X45496219Y-64193657D01*
X45448600Y-64146038D01*
X45400980Y-64050800D01*
X45400980Y-63098419D02*
X45400980Y-63003180D01*
X45448600Y-62907942D01*
X45496219Y-62860323D01*
X45591457Y-62812704D01*
X45781933Y-62765085D01*
X46020028Y-62765085D01*
X46210504Y-62812704D01*
X46305742Y-62860323D01*
X46353361Y-62907942D01*
X46400980Y-63003180D01*
X46400980Y-63098419D01*
X46353361Y-63193657D01*
X46305742Y-63241276D01*
X46210504Y-63288895D01*
X46020028Y-63336514D01*
X45781933Y-63336514D01*
X45591457Y-63288895D01*
X45496219Y-63241276D01*
X45448600Y-63193657D01*
X45400980Y-63098419D01*
X45734314Y-62336514D02*
X46400980Y-62336514D01*
X45829552Y-62336514D02*
X45781933Y-62288895D01*
X45734314Y-62193657D01*
X45734314Y-62050800D01*
X45781933Y-61955561D01*
X45877171Y-61907942D01*
X46400980Y-61907942D01*
%TO.C,C12*%
X97994742Y-56472057D02*
X98042361Y-56519676D01*
X98089980Y-56662533D01*
X98089980Y-56757771D01*
X98042361Y-56900628D01*
X97947123Y-56995866D01*
X97851885Y-57043485D01*
X97661409Y-57091104D01*
X97518552Y-57091104D01*
X97328076Y-57043485D01*
X97232838Y-56995866D01*
X97137600Y-56900628D01*
X97089980Y-56757771D01*
X97089980Y-56662533D01*
X97137600Y-56519676D01*
X97185219Y-56472057D01*
X98089980Y-55519676D02*
X98089980Y-56091104D01*
X98089980Y-55805390D02*
X97089980Y-55805390D01*
X97232838Y-55900628D01*
X97328076Y-55995866D01*
X97375695Y-56091104D01*
X97185219Y-55138723D02*
X97137600Y-55091104D01*
X97089980Y-54995866D01*
X97089980Y-54757771D01*
X97137600Y-54662533D01*
X97185219Y-54614914D01*
X97280457Y-54567295D01*
X97375695Y-54567295D01*
X97518552Y-54614914D01*
X98089980Y-55186342D01*
X98089980Y-54567295D01*
X96743780Y-56745047D02*
X96743780Y-57316476D01*
X96743780Y-57030761D02*
X95743780Y-57030761D01*
X95886638Y-57126000D01*
X95981876Y-57221238D01*
X96029495Y-57316476D01*
X95743780Y-56126000D02*
X95743780Y-56030761D01*
X95791400Y-55935523D01*
X95839019Y-55887904D01*
X95934257Y-55840285D01*
X96124733Y-55792666D01*
X96362828Y-55792666D01*
X96553304Y-55840285D01*
X96648542Y-55887904D01*
X96696161Y-55935523D01*
X96743780Y-56030761D01*
X96743780Y-56126000D01*
X96696161Y-56221238D01*
X96648542Y-56268857D01*
X96553304Y-56316476D01*
X96362828Y-56364095D01*
X96124733Y-56364095D01*
X95934257Y-56316476D01*
X95839019Y-56268857D01*
X95791400Y-56221238D01*
X95743780Y-56126000D01*
X95743780Y-55173619D02*
X95743780Y-55078380D01*
X95791400Y-54983142D01*
X95839019Y-54935523D01*
X95934257Y-54887904D01*
X96124733Y-54840285D01*
X96362828Y-54840285D01*
X96553304Y-54887904D01*
X96648542Y-54935523D01*
X96696161Y-54983142D01*
X96743780Y-55078380D01*
X96743780Y-55173619D01*
X96696161Y-55268857D01*
X96648542Y-55316476D01*
X96553304Y-55364095D01*
X96362828Y-55411714D01*
X96124733Y-55411714D01*
X95934257Y-55364095D01*
X95839019Y-55316476D01*
X95791400Y-55268857D01*
X95743780Y-55173619D01*
X96077114Y-54411714D02*
X96743780Y-54411714D01*
X96172352Y-54411714D02*
X96124733Y-54364095D01*
X96077114Y-54268857D01*
X96077114Y-54126000D01*
X96124733Y-54030761D01*
X96219971Y-53983142D01*
X96743780Y-53983142D01*
%TO.C,R5*%
X70124580Y-77662066D02*
X69648390Y-77995400D01*
X70124580Y-78233495D02*
X69124580Y-78233495D01*
X69124580Y-77852542D01*
X69172200Y-77757304D01*
X69219819Y-77709685D01*
X69315057Y-77662066D01*
X69457914Y-77662066D01*
X69553152Y-77709685D01*
X69600771Y-77757304D01*
X69648390Y-77852542D01*
X69648390Y-78233495D01*
X69124580Y-76757304D02*
X69124580Y-77233495D01*
X69600771Y-77281114D01*
X69553152Y-77233495D01*
X69505533Y-77138257D01*
X69505533Y-76900161D01*
X69553152Y-76804923D01*
X69600771Y-76757304D01*
X69696009Y-76709685D01*
X69934104Y-76709685D01*
X70029342Y-76757304D01*
X70076961Y-76804923D01*
X70124580Y-76900161D01*
X70124580Y-77138257D01*
X70076961Y-77233495D01*
X70029342Y-77281114D01*
X70648580Y-78103314D02*
X70648580Y-78293790D01*
X70696200Y-78389028D01*
X70743819Y-78436647D01*
X70886676Y-78531885D01*
X71077152Y-78579504D01*
X71458104Y-78579504D01*
X71553342Y-78531885D01*
X71600961Y-78484266D01*
X71648580Y-78389028D01*
X71648580Y-78198552D01*
X71600961Y-78103314D01*
X71553342Y-78055695D01*
X71458104Y-78008076D01*
X71220009Y-78008076D01*
X71124771Y-78055695D01*
X71077152Y-78103314D01*
X71029533Y-78198552D01*
X71029533Y-78389028D01*
X71077152Y-78484266D01*
X71124771Y-78531885D01*
X71220009Y-78579504D01*
X71077152Y-77436647D02*
X71029533Y-77531885D01*
X70981914Y-77579504D01*
X70886676Y-77627123D01*
X70839057Y-77627123D01*
X70743819Y-77579504D01*
X70696200Y-77531885D01*
X70648580Y-77436647D01*
X70648580Y-77246171D01*
X70696200Y-77150933D01*
X70743819Y-77103314D01*
X70839057Y-77055695D01*
X70886676Y-77055695D01*
X70981914Y-77103314D01*
X71029533Y-77150933D01*
X71077152Y-77246171D01*
X71077152Y-77436647D01*
X71124771Y-77531885D01*
X71172390Y-77579504D01*
X71267628Y-77627123D01*
X71458104Y-77627123D01*
X71553342Y-77579504D01*
X71600961Y-77531885D01*
X71648580Y-77436647D01*
X71648580Y-77246171D01*
X71600961Y-77150933D01*
X71553342Y-77103314D01*
X71458104Y-77055695D01*
X71267628Y-77055695D01*
X71172390Y-77103314D01*
X71124771Y-77150933D01*
X71077152Y-77246171D01*
X71648580Y-76055695D02*
X71172390Y-76389028D01*
X71648580Y-76627123D02*
X70648580Y-76627123D01*
X70648580Y-76246171D01*
X70696200Y-76150933D01*
X70743819Y-76103314D01*
X70839057Y-76055695D01*
X70981914Y-76055695D01*
X71077152Y-76103314D01*
X71124771Y-76150933D01*
X71172390Y-76246171D01*
X71172390Y-76627123D01*
%TO.C,R12*%
X94706411Y-84840168D02*
X94230221Y-85173501D01*
X94706411Y-85411596D02*
X93706411Y-85411596D01*
X93706411Y-85030644D01*
X93754031Y-84935406D01*
X93801650Y-84887787D01*
X93896888Y-84840168D01*
X94039745Y-84840168D01*
X94134983Y-84887787D01*
X94182602Y-84935406D01*
X94230221Y-85030644D01*
X94230221Y-85411596D01*
X94706411Y-83887787D02*
X94706411Y-84459215D01*
X94706411Y-84173501D02*
X93706411Y-84173501D01*
X93849269Y-84268739D01*
X93944507Y-84363977D01*
X93992126Y-84459215D01*
X93801650Y-83506834D02*
X93754031Y-83459215D01*
X93706411Y-83363977D01*
X93706411Y-83125882D01*
X93754031Y-83030644D01*
X93801650Y-82983025D01*
X93896888Y-82935406D01*
X93992126Y-82935406D01*
X94134983Y-82983025D01*
X94706411Y-83554453D01*
X94706411Y-82935406D01*
X96255811Y-83674996D02*
X96255811Y-84246425D01*
X96255811Y-83960711D02*
X95255811Y-83960711D01*
X95398669Y-84055949D01*
X95493907Y-84151187D01*
X95541526Y-84246425D01*
X96255811Y-83246425D02*
X95255811Y-83246425D01*
X96255811Y-82674996D02*
X95684383Y-83103568D01*
X95255811Y-82674996D02*
X95827240Y-83246425D01*
%TO.C,C1*%
X39330333Y-76633342D02*
X39282714Y-76680961D01*
X39139857Y-76728580D01*
X39044619Y-76728580D01*
X38901761Y-76680961D01*
X38806523Y-76585723D01*
X38758904Y-76490485D01*
X38711285Y-76300009D01*
X38711285Y-76157152D01*
X38758904Y-75966676D01*
X38806523Y-75871438D01*
X38901761Y-75776200D01*
X39044619Y-75728580D01*
X39139857Y-75728580D01*
X39282714Y-75776200D01*
X39330333Y-75823819D01*
X40282714Y-76728580D02*
X39711285Y-76728580D01*
X39997000Y-76728580D02*
X39997000Y-75728580D01*
X39901761Y-75871438D01*
X39806523Y-75966676D01*
X39711285Y-76014295D01*
X41216342Y-80970380D02*
X40644914Y-80970380D01*
X40930628Y-80970380D02*
X40930628Y-79970380D01*
X40835390Y-80113238D01*
X40740152Y-80208476D01*
X40644914Y-80256095D01*
X41835390Y-79970380D02*
X41930628Y-79970380D01*
X42025866Y-80018000D01*
X42073485Y-80065619D01*
X42121104Y-80160857D01*
X42168723Y-80351333D01*
X42168723Y-80589428D01*
X42121104Y-80779904D01*
X42073485Y-80875142D01*
X42025866Y-80922761D01*
X41930628Y-80970380D01*
X41835390Y-80970380D01*
X41740152Y-80922761D01*
X41692533Y-80875142D01*
X41644914Y-80779904D01*
X41597295Y-80589428D01*
X41597295Y-80351333D01*
X41644914Y-80160857D01*
X41692533Y-80065619D01*
X41740152Y-80018000D01*
X41835390Y-79970380D01*
X42597295Y-80303714D02*
X42597295Y-80970380D01*
X42597295Y-80398952D02*
X42644914Y-80351333D01*
X42740152Y-80303714D01*
X42883009Y-80303714D01*
X42978247Y-80351333D01*
X43025866Y-80446571D01*
X43025866Y-80970380D01*
%TO.C,C9*%
X95146833Y-45353242D02*
X95099214Y-45400861D01*
X94956357Y-45448480D01*
X94861119Y-45448480D01*
X94718261Y-45400861D01*
X94623023Y-45305623D01*
X94575404Y-45210385D01*
X94527785Y-45019909D01*
X94527785Y-44877052D01*
X94575404Y-44686576D01*
X94623023Y-44591338D01*
X94718261Y-44496100D01*
X94861119Y-44448480D01*
X94956357Y-44448480D01*
X95099214Y-44496100D01*
X95146833Y-44543719D01*
X95623023Y-45448480D02*
X95813500Y-45448480D01*
X95908738Y-45400861D01*
X95956357Y-45353242D01*
X96051595Y-45210385D01*
X96099214Y-45019909D01*
X96099214Y-44638957D01*
X96051595Y-44543719D01*
X96003976Y-44496100D01*
X95908738Y-44448480D01*
X95718261Y-44448480D01*
X95623023Y-44496100D01*
X95575404Y-44543719D01*
X95527785Y-44638957D01*
X95527785Y-44877052D01*
X95575404Y-44972290D01*
X95623023Y-45019909D01*
X95718261Y-45067528D01*
X95908738Y-45067528D01*
X96003976Y-45019909D01*
X96051595Y-44972290D01*
X96099214Y-44877052D01*
X90644814Y-44594519D02*
X90692433Y-44546900D01*
X90787671Y-44499280D01*
X91025766Y-44499280D01*
X91121004Y-44546900D01*
X91168623Y-44594519D01*
X91216242Y-44689757D01*
X91216242Y-44784995D01*
X91168623Y-44927852D01*
X90597195Y-45499280D01*
X91216242Y-45499280D01*
X91597195Y-44594519D02*
X91644814Y-44546900D01*
X91740052Y-44499280D01*
X91978147Y-44499280D01*
X92073385Y-44546900D01*
X92121004Y-44594519D01*
X92168623Y-44689757D01*
X92168623Y-44784995D01*
X92121004Y-44927852D01*
X91549576Y-45499280D01*
X92168623Y-45499280D01*
X93025766Y-44832614D02*
X93025766Y-45499280D01*
X92597195Y-44832614D02*
X92597195Y-45356423D01*
X92644814Y-45451661D01*
X92740052Y-45499280D01*
X92882909Y-45499280D01*
X92978147Y-45451661D01*
X93025766Y-45404042D01*
%TO.C,T2*%
X99644295Y-53503580D02*
X100215723Y-53503580D01*
X99930009Y-54503580D02*
X99930009Y-53503580D01*
X100501438Y-53598819D02*
X100549057Y-53551200D01*
X100644295Y-53503580D01*
X100882390Y-53503580D01*
X100977628Y-53551200D01*
X101025247Y-53598819D01*
X101072866Y-53694057D01*
X101072866Y-53789295D01*
X101025247Y-53932152D01*
X100453819Y-54503580D01*
X101072866Y-54503580D01*
X108971390Y-66933771D02*
X108638057Y-66933771D01*
X108638057Y-67457580D02*
X108638057Y-66457580D01*
X109114247Y-66457580D01*
X109352342Y-66457580D02*
X109923771Y-66457580D01*
X109638057Y-67457580D02*
X109638057Y-66457580D01*
X110161866Y-66457580D02*
X110780914Y-66457580D01*
X110447580Y-66838533D01*
X110590438Y-66838533D01*
X110685676Y-66886152D01*
X110733295Y-66933771D01*
X110780914Y-67029009D01*
X110780914Y-67267104D01*
X110733295Y-67362342D01*
X110685676Y-67409961D01*
X110590438Y-67457580D01*
X110304723Y-67457580D01*
X110209485Y-67409961D01*
X110161866Y-67362342D01*
X111114247Y-66457580D02*
X111780914Y-66457580D01*
X111352342Y-67457580D01*
X112161866Y-67076628D02*
X112923771Y-67076628D01*
X113828533Y-66790914D02*
X113828533Y-67457580D01*
X113590438Y-66409961D02*
X113352342Y-67124247D01*
X113971390Y-67124247D01*
X114257104Y-66457580D02*
X114923771Y-66457580D01*
X114495200Y-67457580D01*
X116590438Y-67457580D02*
X116019009Y-67457580D01*
X116304723Y-67457580D02*
X116304723Y-66457580D01*
X116209485Y-66600438D01*
X116114247Y-66695676D01*
X116019009Y-66743295D01*
X117209485Y-66457580D02*
X117304723Y-66457580D01*
X117399961Y-66505200D01*
X117447580Y-66552819D01*
X117495200Y-66648057D01*
X117542819Y-66838533D01*
X117542819Y-67076628D01*
X117495200Y-67267104D01*
X117447580Y-67362342D01*
X117399961Y-67409961D01*
X117304723Y-67457580D01*
X117209485Y-67457580D01*
X117114247Y-67409961D01*
X117066628Y-67362342D01*
X117019009Y-67267104D01*
X116971390Y-67076628D01*
X116971390Y-66838533D01*
X117019009Y-66648057D01*
X117066628Y-66552819D01*
X117114247Y-66505200D01*
X117209485Y-66457580D01*
X118304723Y-66933771D02*
X118447580Y-66981390D01*
X118495200Y-67029009D01*
X118542819Y-67124247D01*
X118542819Y-67267104D01*
X118495200Y-67362342D01*
X118447580Y-67409961D01*
X118352342Y-67457580D01*
X117971390Y-67457580D01*
X117971390Y-66457580D01*
X118304723Y-66457580D01*
X118399961Y-66505200D01*
X118447580Y-66552819D01*
X118495200Y-66648057D01*
X118495200Y-66743295D01*
X118447580Y-66838533D01*
X118399961Y-66886152D01*
X118304723Y-66933771D01*
X117971390Y-66933771D01*
X119304723Y-66933771D02*
X118971390Y-66933771D01*
X118971390Y-67457580D02*
X118971390Y-66457580D01*
X119447580Y-66457580D01*
%TO.C,U1*%
X34071074Y-85014403D02*
X34071074Y-85651824D01*
X34108570Y-85726815D01*
X34146065Y-85764310D01*
X34221056Y-85801805D01*
X34371037Y-85801805D01*
X34446028Y-85764310D01*
X34483523Y-85726815D01*
X34521018Y-85651824D01*
X34521018Y-85014403D01*
X35308420Y-85801805D02*
X34858476Y-85801805D01*
X35083448Y-85801805D02*
X35083448Y-85014403D01*
X35008458Y-85126889D01*
X34933467Y-85201880D01*
X34858476Y-85239375D01*
X33601173Y-92736005D02*
X33338706Y-92361052D01*
X33151229Y-92736005D02*
X33151229Y-91948603D01*
X33451192Y-91948603D01*
X33526183Y-91986099D01*
X33563678Y-92023594D01*
X33601173Y-92098585D01*
X33601173Y-92211071D01*
X33563678Y-92286061D01*
X33526183Y-92323557D01*
X33451192Y-92361052D01*
X33151229Y-92361052D01*
X34201099Y-92323557D02*
X33938631Y-92323557D01*
X33938631Y-92736005D02*
X33938631Y-91948603D01*
X34313585Y-91948603D01*
X34426071Y-92810996D02*
X35025996Y-92810996D01*
X35213473Y-92736005D02*
X35213473Y-91948603D01*
X35588426Y-92736005D02*
X35588426Y-91948603D01*
X36038370Y-92736005D01*
X36038370Y-91948603D01*
%TO.C,C14*%
X116505973Y-49661168D02*
X116553592Y-49708787D01*
X116601211Y-49851644D01*
X116601211Y-49946882D01*
X116553592Y-50089739D01*
X116458354Y-50184977D01*
X116363116Y-50232596D01*
X116172640Y-50280215D01*
X116029783Y-50280215D01*
X115839307Y-50232596D01*
X115744069Y-50184977D01*
X115648831Y-50089739D01*
X115601211Y-49946882D01*
X115601211Y-49851644D01*
X115648831Y-49708787D01*
X115696450Y-49661168D01*
X116601211Y-48708787D02*
X116601211Y-49280215D01*
X116601211Y-48994501D02*
X115601211Y-48994501D01*
X115744069Y-49089739D01*
X115839307Y-49184977D01*
X115886926Y-49280215D01*
X115934545Y-47851644D02*
X116601211Y-47851644D01*
X115553592Y-48089739D02*
X116267878Y-48327834D01*
X116267878Y-47708787D01*
X115001011Y-49756358D02*
X115001011Y-50327787D01*
X115001011Y-50042072D02*
X114001011Y-50042072D01*
X114143869Y-50137311D01*
X114239107Y-50232549D01*
X114286726Y-50327787D01*
X114001011Y-49137311D02*
X114001011Y-49042072D01*
X114048631Y-48946834D01*
X114096250Y-48899215D01*
X114191488Y-48851596D01*
X114381964Y-48803977D01*
X114620059Y-48803977D01*
X114810535Y-48851596D01*
X114905773Y-48899215D01*
X114953392Y-48946834D01*
X115001011Y-49042072D01*
X115001011Y-49137311D01*
X114953392Y-49232549D01*
X114905773Y-49280168D01*
X114810535Y-49327787D01*
X114620059Y-49375406D01*
X114381964Y-49375406D01*
X114191488Y-49327787D01*
X114096250Y-49280168D01*
X114048631Y-49232549D01*
X114001011Y-49137311D01*
X114001011Y-48184930D02*
X114001011Y-48089691D01*
X114048631Y-47994453D01*
X114096250Y-47946834D01*
X114191488Y-47899215D01*
X114381964Y-47851596D01*
X114620059Y-47851596D01*
X114810535Y-47899215D01*
X114905773Y-47946834D01*
X114953392Y-47994453D01*
X115001011Y-48089691D01*
X115001011Y-48184930D01*
X114953392Y-48280168D01*
X114905773Y-48327787D01*
X114810535Y-48375406D01*
X114620059Y-48423025D01*
X114381964Y-48423025D01*
X114191488Y-48375406D01*
X114096250Y-48327787D01*
X114048631Y-48280168D01*
X114001011Y-48184930D01*
X114334345Y-47423025D02*
X115001011Y-47423025D01*
X114429583Y-47423025D02*
X114381964Y-47375406D01*
X114334345Y-47280168D01*
X114334345Y-47137311D01*
X114381964Y-47042072D01*
X114477202Y-46994453D01*
X115001011Y-46994453D01*
%TO.C,R6*%
X68743533Y-86113880D02*
X68410200Y-85637690D01*
X68172104Y-86113880D02*
X68172104Y-85113880D01*
X68553057Y-85113880D01*
X68648295Y-85161500D01*
X68695914Y-85209119D01*
X68743533Y-85304357D01*
X68743533Y-85447214D01*
X68695914Y-85542452D01*
X68648295Y-85590071D01*
X68553057Y-85637690D01*
X68172104Y-85637690D01*
X69600676Y-85113880D02*
X69410200Y-85113880D01*
X69314961Y-85161500D01*
X69267342Y-85209119D01*
X69172104Y-85351976D01*
X69124485Y-85542452D01*
X69124485Y-85923404D01*
X69172104Y-86018642D01*
X69219723Y-86066261D01*
X69314961Y-86113880D01*
X69505438Y-86113880D01*
X69600676Y-86066261D01*
X69648295Y-86018642D01*
X69695914Y-85923404D01*
X69695914Y-85685309D01*
X69648295Y-85590071D01*
X69600676Y-85542452D01*
X69505438Y-85494833D01*
X69314961Y-85494833D01*
X69219723Y-85542452D01*
X69172104Y-85590071D01*
X69124485Y-85685309D01*
X75509476Y-85113880D02*
X75319000Y-85113880D01*
X75223761Y-85161500D01*
X75176142Y-85209119D01*
X75080904Y-85351976D01*
X75033285Y-85542452D01*
X75033285Y-85923404D01*
X75080904Y-86018642D01*
X75128523Y-86066261D01*
X75223761Y-86113880D01*
X75414238Y-86113880D01*
X75509476Y-86066261D01*
X75557095Y-86018642D01*
X75604714Y-85923404D01*
X75604714Y-85685309D01*
X75557095Y-85590071D01*
X75509476Y-85542452D01*
X75414238Y-85494833D01*
X75223761Y-85494833D01*
X75128523Y-85542452D01*
X75080904Y-85590071D01*
X75033285Y-85685309D01*
X76604714Y-86113880D02*
X76271380Y-85637690D01*
X76033285Y-86113880D02*
X76033285Y-85113880D01*
X76414238Y-85113880D01*
X76509476Y-85161500D01*
X76557095Y-85209119D01*
X76604714Y-85304357D01*
X76604714Y-85447214D01*
X76557095Y-85542452D01*
X76509476Y-85590071D01*
X76414238Y-85637690D01*
X76033285Y-85637690D01*
%TO.C,R10*%
X77998580Y-64142857D02*
X77522390Y-64476190D01*
X77998580Y-64714285D02*
X76998580Y-64714285D01*
X76998580Y-64333333D01*
X77046200Y-64238095D01*
X77093819Y-64190476D01*
X77189057Y-64142857D01*
X77331914Y-64142857D01*
X77427152Y-64190476D01*
X77474771Y-64238095D01*
X77522390Y-64333333D01*
X77522390Y-64714285D01*
X77998580Y-63190476D02*
X77998580Y-63761904D01*
X77998580Y-63476190D02*
X76998580Y-63476190D01*
X77141438Y-63571428D01*
X77236676Y-63666666D01*
X77284295Y-63761904D01*
X76998580Y-62571428D02*
X76998580Y-62476190D01*
X77046200Y-62380952D01*
X77093819Y-62333333D01*
X77189057Y-62285714D01*
X77379533Y-62238095D01*
X77617628Y-62238095D01*
X77808104Y-62285714D01*
X77903342Y-62333333D01*
X77950961Y-62380952D01*
X77998580Y-62476190D01*
X77998580Y-62571428D01*
X77950961Y-62666666D01*
X77903342Y-62714285D01*
X77808104Y-62761904D01*
X77617628Y-62809523D01*
X77379533Y-62809523D01*
X77189057Y-62761904D01*
X77093819Y-62714285D01*
X77046200Y-62666666D01*
X76998580Y-62571428D01*
X79344780Y-64606371D02*
X79344780Y-65177800D01*
X79344780Y-64892085D02*
X78344780Y-64892085D01*
X78487638Y-64987323D01*
X78582876Y-65082561D01*
X78630495Y-65177800D01*
X79249542Y-64177800D02*
X79297161Y-64130180D01*
X79344780Y-64177800D01*
X79297161Y-64225419D01*
X79249542Y-64177800D01*
X79344780Y-64177800D01*
X78773352Y-63558752D02*
X78725733Y-63653990D01*
X78678114Y-63701609D01*
X78582876Y-63749228D01*
X78535257Y-63749228D01*
X78440019Y-63701609D01*
X78392400Y-63653990D01*
X78344780Y-63558752D01*
X78344780Y-63368276D01*
X78392400Y-63273038D01*
X78440019Y-63225419D01*
X78535257Y-63177800D01*
X78582876Y-63177800D01*
X78678114Y-63225419D01*
X78725733Y-63273038D01*
X78773352Y-63368276D01*
X78773352Y-63558752D01*
X78820971Y-63653990D01*
X78868590Y-63701609D01*
X78963828Y-63749228D01*
X79154304Y-63749228D01*
X79249542Y-63701609D01*
X79297161Y-63653990D01*
X79344780Y-63558752D01*
X79344780Y-63368276D01*
X79297161Y-63273038D01*
X79249542Y-63225419D01*
X79154304Y-63177800D01*
X78963828Y-63177800D01*
X78868590Y-63225419D01*
X78820971Y-63273038D01*
X78773352Y-63368276D01*
X79344780Y-62749228D02*
X78344780Y-62749228D01*
X79344780Y-62177800D02*
X78773352Y-62606371D01*
X78344780Y-62177800D02*
X78916209Y-62749228D01*
%TO.C,C4*%
X75388742Y-77431666D02*
X75436361Y-77479285D01*
X75483980Y-77622142D01*
X75483980Y-77717380D01*
X75436361Y-77860238D01*
X75341123Y-77955476D01*
X75245885Y-78003095D01*
X75055409Y-78050714D01*
X74912552Y-78050714D01*
X74722076Y-78003095D01*
X74626838Y-77955476D01*
X74531600Y-77860238D01*
X74483980Y-77717380D01*
X74483980Y-77622142D01*
X74531600Y-77479285D01*
X74579219Y-77431666D01*
X74817314Y-76574523D02*
X75483980Y-76574523D01*
X74436361Y-76812619D02*
X75150647Y-77050714D01*
X75150647Y-76431666D01*
X73934580Y-77850647D02*
X73934580Y-78422076D01*
X73934580Y-78136361D02*
X72934580Y-78136361D01*
X73077438Y-78231600D01*
X73172676Y-78326838D01*
X73220295Y-78422076D01*
X72934580Y-77231600D02*
X72934580Y-77136361D01*
X72982200Y-77041123D01*
X73029819Y-76993504D01*
X73125057Y-76945885D01*
X73315533Y-76898266D01*
X73553628Y-76898266D01*
X73744104Y-76945885D01*
X73839342Y-76993504D01*
X73886961Y-77041123D01*
X73934580Y-77136361D01*
X73934580Y-77231600D01*
X73886961Y-77326838D01*
X73839342Y-77374457D01*
X73744104Y-77422076D01*
X73553628Y-77469695D01*
X73315533Y-77469695D01*
X73125057Y-77422076D01*
X73029819Y-77374457D01*
X72982200Y-77326838D01*
X72934580Y-77231600D01*
X72934580Y-76279219D02*
X72934580Y-76183980D01*
X72982200Y-76088742D01*
X73029819Y-76041123D01*
X73125057Y-75993504D01*
X73315533Y-75945885D01*
X73553628Y-75945885D01*
X73744104Y-75993504D01*
X73839342Y-76041123D01*
X73886961Y-76088742D01*
X73934580Y-76183980D01*
X73934580Y-76279219D01*
X73886961Y-76374457D01*
X73839342Y-76422076D01*
X73744104Y-76469695D01*
X73553628Y-76517314D01*
X73315533Y-76517314D01*
X73125057Y-76469695D01*
X73029819Y-76422076D01*
X72982200Y-76374457D01*
X72934580Y-76279219D01*
X73267914Y-75517314D02*
X73934580Y-75517314D01*
X73363152Y-75517314D02*
X73315533Y-75469695D01*
X73267914Y-75374457D01*
X73267914Y-75231600D01*
X73315533Y-75136361D01*
X73410771Y-75088742D01*
X73934580Y-75088742D01*
%TO.C,D1*%
X64755804Y-38209480D02*
X64755804Y-37209480D01*
X64993900Y-37209480D01*
X65136757Y-37257100D01*
X65231995Y-37352338D01*
X65279614Y-37447576D01*
X65327233Y-37638052D01*
X65327233Y-37780909D01*
X65279614Y-37971385D01*
X65231995Y-38066623D01*
X65136757Y-38161861D01*
X64993900Y-38209480D01*
X64755804Y-38209480D01*
X66279614Y-38209480D02*
X65708185Y-38209480D01*
X65993900Y-38209480D02*
X65993900Y-37209480D01*
X65898661Y-37352338D01*
X65803423Y-37447576D01*
X65708185Y-37495195D01*
X67338842Y-40647880D02*
X66767414Y-40647880D01*
X67053128Y-40647880D02*
X67053128Y-39647880D01*
X66957890Y-39790738D01*
X66862652Y-39885976D01*
X66767414Y-39933595D01*
X67767414Y-40647880D02*
X67767414Y-39647880D01*
X68338842Y-40647880D01*
X68338842Y-39647880D01*
X69243604Y-39981214D02*
X69243604Y-40647880D01*
X69005509Y-39600261D02*
X68767414Y-40314547D01*
X69386461Y-40314547D01*
X69957890Y-39647880D02*
X70053128Y-39647880D01*
X70148366Y-39695500D01*
X70195985Y-39743119D01*
X70243604Y-39838357D01*
X70291223Y-40028833D01*
X70291223Y-40266928D01*
X70243604Y-40457404D01*
X70195985Y-40552642D01*
X70148366Y-40600261D01*
X70053128Y-40647880D01*
X69957890Y-40647880D01*
X69862652Y-40600261D01*
X69815033Y-40552642D01*
X69767414Y-40457404D01*
X69719795Y-40266928D01*
X69719795Y-40028833D01*
X69767414Y-39838357D01*
X69815033Y-39743119D01*
X69862652Y-39695500D01*
X69957890Y-39647880D01*
X70910271Y-39647880D02*
X71005509Y-39647880D01*
X71100747Y-39695500D01*
X71148366Y-39743119D01*
X71195985Y-39838357D01*
X71243604Y-40028833D01*
X71243604Y-40266928D01*
X71195985Y-40457404D01*
X71148366Y-40552642D01*
X71100747Y-40600261D01*
X71005509Y-40647880D01*
X70910271Y-40647880D01*
X70815033Y-40600261D01*
X70767414Y-40552642D01*
X70719795Y-40457404D01*
X70672176Y-40266928D01*
X70672176Y-40028833D01*
X70719795Y-39838357D01*
X70767414Y-39743119D01*
X70815033Y-39695500D01*
X70910271Y-39647880D01*
X72195985Y-40647880D02*
X71624557Y-40647880D01*
X71910271Y-40647880D02*
X71910271Y-39647880D01*
X71815033Y-39790738D01*
X71719795Y-39885976D01*
X71624557Y-39933595D01*
%TO.C,TP2*%
X120454895Y-69937380D02*
X121026323Y-69937380D01*
X120740609Y-70937380D02*
X120740609Y-69937380D01*
X121359657Y-70937380D02*
X121359657Y-69937380D01*
X121740609Y-69937380D01*
X121835847Y-69985000D01*
X121883466Y-70032619D01*
X121931085Y-70127857D01*
X121931085Y-70270714D01*
X121883466Y-70365952D01*
X121835847Y-70413571D01*
X121740609Y-70461190D01*
X121359657Y-70461190D01*
X122312038Y-70032619D02*
X122359657Y-69985000D01*
X122454895Y-69937380D01*
X122692990Y-69937380D01*
X122788228Y-69985000D01*
X122835847Y-70032619D01*
X122883466Y-70127857D01*
X122883466Y-70223095D01*
X122835847Y-70365952D01*
X122264419Y-70937380D01*
X122883466Y-70937380D01*
%TO.C,R11*%
X93891649Y-71451046D02*
X93415459Y-71784379D01*
X93891649Y-72022474D02*
X92891649Y-72022474D01*
X92891649Y-71641522D01*
X92939269Y-71546284D01*
X92986888Y-71498665D01*
X93082126Y-71451046D01*
X93224983Y-71451046D01*
X93320221Y-71498665D01*
X93367840Y-71546284D01*
X93415459Y-71641522D01*
X93415459Y-72022474D01*
X93891649Y-70498665D02*
X93891649Y-71070093D01*
X93891649Y-70784379D02*
X92891649Y-70784379D01*
X93034507Y-70879617D01*
X93129745Y-70974855D01*
X93177364Y-71070093D01*
X93891649Y-69546284D02*
X93891649Y-70117712D01*
X93891649Y-69831998D02*
X92891649Y-69831998D01*
X93034507Y-69927236D01*
X93129745Y-70022474D01*
X93177364Y-70117712D01*
X97168249Y-71685960D02*
X97168249Y-72257389D01*
X97168249Y-71971674D02*
X96168249Y-71971674D01*
X96311107Y-72066912D01*
X96406345Y-72162150D01*
X96453964Y-72257389D01*
X97073011Y-71257389D02*
X97120630Y-71209769D01*
X97168249Y-71257389D01*
X97120630Y-71305008D01*
X97073011Y-71257389D01*
X97168249Y-71257389D01*
X96168249Y-70876436D02*
X96168249Y-70257389D01*
X96549202Y-70590722D01*
X96549202Y-70447865D01*
X96596821Y-70352627D01*
X96644440Y-70305008D01*
X96739678Y-70257389D01*
X96977773Y-70257389D01*
X97073011Y-70305008D01*
X97120630Y-70352627D01*
X97168249Y-70447865D01*
X97168249Y-70733579D01*
X97120630Y-70828817D01*
X97073011Y-70876436D01*
X97168249Y-69828817D02*
X96168249Y-69828817D01*
X97168249Y-69257389D02*
X96596821Y-69685960D01*
X96168249Y-69257389D02*
X96739678Y-69828817D01*
%TO.C,R9*%
X74458533Y-53436780D02*
X74125200Y-52960590D01*
X73887104Y-53436780D02*
X73887104Y-52436780D01*
X74268057Y-52436780D01*
X74363295Y-52484400D01*
X74410914Y-52532019D01*
X74458533Y-52627257D01*
X74458533Y-52770114D01*
X74410914Y-52865352D01*
X74363295Y-52912971D01*
X74268057Y-52960590D01*
X73887104Y-52960590D01*
X74934723Y-53436780D02*
X75125200Y-53436780D01*
X75220438Y-53389161D01*
X75268057Y-53341542D01*
X75363295Y-53198685D01*
X75410914Y-53008209D01*
X75410914Y-52627257D01*
X75363295Y-52532019D01*
X75315676Y-52484400D01*
X75220438Y-52436780D01*
X75029961Y-52436780D01*
X74934723Y-52484400D01*
X74887104Y-52532019D01*
X74839485Y-52627257D01*
X74839485Y-52865352D01*
X74887104Y-52960590D01*
X74934723Y-53008209D01*
X75029961Y-53055828D01*
X75220438Y-53055828D01*
X75315676Y-53008209D01*
X75363295Y-52960590D01*
X75410914Y-52865352D01*
X76941466Y-52436780D02*
X77560514Y-52436780D01*
X77227180Y-52817733D01*
X77370038Y-52817733D01*
X77465276Y-52865352D01*
X77512895Y-52912971D01*
X77560514Y-53008209D01*
X77560514Y-53246304D01*
X77512895Y-53341542D01*
X77465276Y-53389161D01*
X77370038Y-53436780D01*
X77084323Y-53436780D01*
X76989085Y-53389161D01*
X76941466Y-53341542D01*
X78560514Y-53436780D02*
X78227180Y-52960590D01*
X77989085Y-53436780D02*
X77989085Y-52436780D01*
X78370038Y-52436780D01*
X78465276Y-52484400D01*
X78512895Y-52532019D01*
X78560514Y-52627257D01*
X78560514Y-52770114D01*
X78512895Y-52865352D01*
X78465276Y-52912971D01*
X78370038Y-52960590D01*
X77989085Y-52960590D01*
%TO.C,C8*%
X102909642Y-36171166D02*
X102957261Y-36218785D01*
X103004880Y-36361642D01*
X103004880Y-36456880D01*
X102957261Y-36599738D01*
X102862023Y-36694976D01*
X102766785Y-36742595D01*
X102576309Y-36790214D01*
X102433452Y-36790214D01*
X102242976Y-36742595D01*
X102147738Y-36694976D01*
X102052500Y-36599738D01*
X102004880Y-36456880D01*
X102004880Y-36361642D01*
X102052500Y-36218785D01*
X102100119Y-36171166D01*
X102433452Y-35599738D02*
X102385833Y-35694976D01*
X102338214Y-35742595D01*
X102242976Y-35790214D01*
X102195357Y-35790214D01*
X102100119Y-35742595D01*
X102052500Y-35694976D01*
X102004880Y-35599738D01*
X102004880Y-35409261D01*
X102052500Y-35314023D01*
X102100119Y-35266404D01*
X102195357Y-35218785D01*
X102242976Y-35218785D01*
X102338214Y-35266404D01*
X102385833Y-35314023D01*
X102433452Y-35409261D01*
X102433452Y-35599738D01*
X102481071Y-35694976D01*
X102528690Y-35742595D01*
X102623928Y-35790214D01*
X102814404Y-35790214D01*
X102909642Y-35742595D01*
X102957261Y-35694976D01*
X103004880Y-35599738D01*
X103004880Y-35409261D01*
X102957261Y-35314023D01*
X102909642Y-35266404D01*
X102814404Y-35218785D01*
X102623928Y-35218785D01*
X102528690Y-35266404D01*
X102481071Y-35314023D01*
X102433452Y-35409261D01*
X101379280Y-36120366D02*
X101379280Y-36691795D01*
X101379280Y-36406080D02*
X100379280Y-36406080D01*
X100522138Y-36501319D01*
X100617376Y-36596557D01*
X100664995Y-36691795D01*
X100712614Y-35263223D02*
X101379280Y-35263223D01*
X100712614Y-35691795D02*
X101236423Y-35691795D01*
X101331661Y-35644176D01*
X101379280Y-35548938D01*
X101379280Y-35406080D01*
X101331661Y-35310842D01*
X101284042Y-35263223D01*
%TO.C,R3*%
X41159133Y-69438780D02*
X40825800Y-68962590D01*
X40587704Y-69438780D02*
X40587704Y-68438780D01*
X40968657Y-68438780D01*
X41063895Y-68486400D01*
X41111514Y-68534019D01*
X41159133Y-68629257D01*
X41159133Y-68772114D01*
X41111514Y-68867352D01*
X41063895Y-68914971D01*
X40968657Y-68962590D01*
X40587704Y-68962590D01*
X41492466Y-68438780D02*
X42111514Y-68438780D01*
X41778180Y-68819733D01*
X41921038Y-68819733D01*
X42016276Y-68867352D01*
X42063895Y-68914971D01*
X42111514Y-69010209D01*
X42111514Y-69248304D01*
X42063895Y-69343542D01*
X42016276Y-69391161D01*
X41921038Y-69438780D01*
X41635323Y-69438780D01*
X41540085Y-69391161D01*
X41492466Y-69343542D01*
X40543266Y-66635380D02*
X41162314Y-66635380D01*
X40828980Y-67016333D01*
X40971838Y-67016333D01*
X41067076Y-67063952D01*
X41114695Y-67111571D01*
X41162314Y-67206809D01*
X41162314Y-67444904D01*
X41114695Y-67540142D01*
X41067076Y-67587761D01*
X40971838Y-67635380D01*
X40686123Y-67635380D01*
X40590885Y-67587761D01*
X40543266Y-67540142D01*
X41590885Y-67635380D02*
X41590885Y-66635380D01*
X42162314Y-67635380D02*
X41733742Y-67063952D01*
X42162314Y-66635380D02*
X41590885Y-67206809D01*
%TO.C,C13*%
X124481573Y-77408668D02*
X124529192Y-77456287D01*
X124576811Y-77599144D01*
X124576811Y-77694382D01*
X124529192Y-77837239D01*
X124433954Y-77932477D01*
X124338716Y-77980096D01*
X124148240Y-78027715D01*
X124005383Y-78027715D01*
X123814907Y-77980096D01*
X123719669Y-77932477D01*
X123624431Y-77837239D01*
X123576811Y-77694382D01*
X123576811Y-77599144D01*
X123624431Y-77456287D01*
X123672050Y-77408668D01*
X124576811Y-76456287D02*
X124576811Y-77027715D01*
X124576811Y-76742001D02*
X123576811Y-76742001D01*
X123719669Y-76837239D01*
X123814907Y-76932477D01*
X123862526Y-77027715D01*
X123576811Y-76122953D02*
X123576811Y-75503906D01*
X123957764Y-75837239D01*
X123957764Y-75694382D01*
X124005383Y-75599144D01*
X124053002Y-75551525D01*
X124148240Y-75503906D01*
X124386335Y-75503906D01*
X124481573Y-75551525D01*
X124529192Y-75599144D01*
X124576811Y-75694382D01*
X124576811Y-75980096D01*
X124529192Y-76075334D01*
X124481573Y-76122953D01*
X123078211Y-77402258D02*
X123078211Y-77973687D01*
X123078211Y-77687972D02*
X122078211Y-77687972D01*
X122221069Y-77783211D01*
X122316307Y-77878449D01*
X122363926Y-77973687D01*
X122078211Y-76783211D02*
X122078211Y-76687972D01*
X122125831Y-76592734D01*
X122173450Y-76545115D01*
X122268688Y-76497496D01*
X122459164Y-76449877D01*
X122697259Y-76449877D01*
X122887735Y-76497496D01*
X122982973Y-76545115D01*
X123030592Y-76592734D01*
X123078211Y-76687972D01*
X123078211Y-76783211D01*
X123030592Y-76878449D01*
X122982973Y-76926068D01*
X122887735Y-76973687D01*
X122697259Y-77021306D01*
X122459164Y-77021306D01*
X122268688Y-76973687D01*
X122173450Y-76926068D01*
X122125831Y-76878449D01*
X122078211Y-76783211D01*
X122078211Y-75830830D02*
X122078211Y-75735591D01*
X122125831Y-75640353D01*
X122173450Y-75592734D01*
X122268688Y-75545115D01*
X122459164Y-75497496D01*
X122697259Y-75497496D01*
X122887735Y-75545115D01*
X122982973Y-75592734D01*
X123030592Y-75640353D01*
X123078211Y-75735591D01*
X123078211Y-75830830D01*
X123030592Y-75926068D01*
X122982973Y-75973687D01*
X122887735Y-76021306D01*
X122697259Y-76068925D01*
X122459164Y-76068925D01*
X122268688Y-76021306D01*
X122173450Y-75973687D01*
X122125831Y-75926068D01*
X122078211Y-75830830D01*
X122411545Y-75068925D02*
X123078211Y-75068925D01*
X122506783Y-75068925D02*
X122459164Y-75021306D01*
X122411545Y-74926068D01*
X122411545Y-74783211D01*
X122459164Y-74687972D01*
X122554402Y-74640353D01*
X123078211Y-74640353D01*
%TO.C,R13*%
X92705180Y-64981057D02*
X92228990Y-65314390D01*
X92705180Y-65552485D02*
X91705180Y-65552485D01*
X91705180Y-65171533D01*
X91752800Y-65076295D01*
X91800419Y-65028676D01*
X91895657Y-64981057D01*
X92038514Y-64981057D01*
X92133752Y-65028676D01*
X92181371Y-65076295D01*
X92228990Y-65171533D01*
X92228990Y-65552485D01*
X92705180Y-64028676D02*
X92705180Y-64600104D01*
X92705180Y-64314390D02*
X91705180Y-64314390D01*
X91848038Y-64409628D01*
X91943276Y-64504866D01*
X91990895Y-64600104D01*
X91705180Y-63695342D02*
X91705180Y-63076295D01*
X92086133Y-63409628D01*
X92086133Y-63266771D01*
X92133752Y-63171533D01*
X92181371Y-63123914D01*
X92276609Y-63076295D01*
X92514704Y-63076295D01*
X92609942Y-63123914D01*
X92657561Y-63171533D01*
X92705180Y-63266771D01*
X92705180Y-63552485D01*
X92657561Y-63647723D01*
X92609942Y-63695342D01*
X93051380Y-64993733D02*
X93051380Y-64374685D01*
X93432333Y-64708019D01*
X93432333Y-64565161D01*
X93479952Y-64469923D01*
X93527571Y-64422304D01*
X93622809Y-64374685D01*
X93860904Y-64374685D01*
X93956142Y-64422304D01*
X94003761Y-64469923D01*
X94051380Y-64565161D01*
X94051380Y-64850876D01*
X94003761Y-64946114D01*
X93956142Y-64993733D01*
X94051380Y-63946114D02*
X93051380Y-63946114D01*
X94051380Y-63374685D02*
X93479952Y-63803257D01*
X93051380Y-63374685D02*
X93622809Y-63946114D01*
%TO.C,R16*%
X118912611Y-61080468D02*
X118436421Y-61413801D01*
X118912611Y-61651896D02*
X117912611Y-61651896D01*
X117912611Y-61270944D01*
X117960231Y-61175706D01*
X118007850Y-61128087D01*
X118103088Y-61080468D01*
X118245945Y-61080468D01*
X118341183Y-61128087D01*
X118388802Y-61175706D01*
X118436421Y-61270944D01*
X118436421Y-61651896D01*
X118912611Y-60128087D02*
X118912611Y-60699515D01*
X118912611Y-60413801D02*
X117912611Y-60413801D01*
X118055469Y-60509039D01*
X118150707Y-60604277D01*
X118198326Y-60699515D01*
X117912611Y-59270944D02*
X117912611Y-59461420D01*
X117960231Y-59556658D01*
X118007850Y-59604277D01*
X118150707Y-59699515D01*
X118341183Y-59747134D01*
X118722135Y-59747134D01*
X118817373Y-59699515D01*
X118864992Y-59651896D01*
X118912611Y-59556658D01*
X118912611Y-59366182D01*
X118864992Y-59270944D01*
X118817373Y-59223325D01*
X118722135Y-59175706D01*
X118484040Y-59175706D01*
X118388802Y-59223325D01*
X118341183Y-59270944D01*
X118293564Y-59366182D01*
X118293564Y-59556658D01*
X118341183Y-59651896D01*
X118388802Y-59699515D01*
X118484040Y-59747134D01*
X120360411Y-61366182D02*
X120360411Y-61937611D01*
X120360411Y-61651896D02*
X119360411Y-61651896D01*
X119503269Y-61747134D01*
X119598507Y-61842372D01*
X119646126Y-61937611D01*
X120265173Y-60937611D02*
X120312792Y-60889991D01*
X120360411Y-60937611D01*
X120312792Y-60985230D01*
X120265173Y-60937611D01*
X120360411Y-60937611D01*
X119788983Y-60318563D02*
X119741364Y-60413801D01*
X119693745Y-60461420D01*
X119598507Y-60509039D01*
X119550888Y-60509039D01*
X119455650Y-60461420D01*
X119408031Y-60413801D01*
X119360411Y-60318563D01*
X119360411Y-60128087D01*
X119408031Y-60032849D01*
X119455650Y-59985230D01*
X119550888Y-59937611D01*
X119598507Y-59937611D01*
X119693745Y-59985230D01*
X119741364Y-60032849D01*
X119788983Y-60128087D01*
X119788983Y-60318563D01*
X119836602Y-60413801D01*
X119884221Y-60461420D01*
X119979459Y-60509039D01*
X120169935Y-60509039D01*
X120265173Y-60461420D01*
X120312792Y-60413801D01*
X120360411Y-60318563D01*
X120360411Y-60128087D01*
X120312792Y-60032849D01*
X120265173Y-59985230D01*
X120169935Y-59937611D01*
X119979459Y-59937611D01*
X119884221Y-59985230D01*
X119836602Y-60032849D01*
X119788983Y-60128087D01*
X120360411Y-59509039D02*
X119360411Y-59509039D01*
X120360411Y-58937611D02*
X119788983Y-59366182D01*
X119360411Y-58937611D02*
X119931840Y-59509039D01*
%TO.C,D2*%
X82993004Y-47150280D02*
X82993004Y-46150280D01*
X83231100Y-46150280D01*
X83373957Y-46197900D01*
X83469195Y-46293138D01*
X83516814Y-46388376D01*
X83564433Y-46578852D01*
X83564433Y-46721709D01*
X83516814Y-46912185D01*
X83469195Y-47007423D01*
X83373957Y-47102661D01*
X83231100Y-47150280D01*
X82993004Y-47150280D01*
X83945385Y-46245519D02*
X83993004Y-46197900D01*
X84088242Y-46150280D01*
X84326338Y-46150280D01*
X84421576Y-46197900D01*
X84469195Y-46245519D01*
X84516814Y-46340757D01*
X84516814Y-46435995D01*
X84469195Y-46578852D01*
X83897766Y-47150280D01*
X84516814Y-47150280D01*
X85910680Y-44394357D02*
X85910680Y-44870547D01*
X84910680Y-44870547D01*
X85386871Y-44061023D02*
X85386871Y-43727690D01*
X85910680Y-43584833D02*
X85910680Y-44061023D01*
X84910680Y-44061023D01*
X84910680Y-43584833D01*
X85910680Y-43156261D02*
X84910680Y-43156261D01*
X84910680Y-42918166D01*
X84958300Y-42775309D01*
X85053538Y-42680071D01*
X85148776Y-42632452D01*
X85339252Y-42584833D01*
X85482109Y-42584833D01*
X85672585Y-42632452D01*
X85767823Y-42680071D01*
X85863061Y-42775309D01*
X85910680Y-42918166D01*
X85910680Y-43156261D01*
%TO.C,R17*%
X120411211Y-49661168D02*
X119935021Y-49994501D01*
X120411211Y-50232596D02*
X119411211Y-50232596D01*
X119411211Y-49851644D01*
X119458831Y-49756406D01*
X119506450Y-49708787D01*
X119601688Y-49661168D01*
X119744545Y-49661168D01*
X119839783Y-49708787D01*
X119887402Y-49756406D01*
X119935021Y-49851644D01*
X119935021Y-50232596D01*
X120411211Y-48708787D02*
X120411211Y-49280215D01*
X120411211Y-48994501D02*
X119411211Y-48994501D01*
X119554069Y-49089739D01*
X119649307Y-49184977D01*
X119696926Y-49280215D01*
X119411211Y-48375453D02*
X119411211Y-47708787D01*
X120411211Y-48137358D01*
X121113011Y-50105644D02*
X121113011Y-49486596D01*
X121493964Y-49819930D01*
X121493964Y-49677072D01*
X121541583Y-49581834D01*
X121589202Y-49534215D01*
X121684440Y-49486596D01*
X121922535Y-49486596D01*
X122017773Y-49534215D01*
X122065392Y-49581834D01*
X122113011Y-49677072D01*
X122113011Y-49962787D01*
X122065392Y-50058025D01*
X122017773Y-50105644D01*
X122113011Y-48486596D02*
X121636821Y-48819930D01*
X122113011Y-49058025D02*
X121113011Y-49058025D01*
X121113011Y-48677072D01*
X121160631Y-48581834D01*
X121208250Y-48534215D01*
X121303488Y-48486596D01*
X121446345Y-48486596D01*
X121541583Y-48534215D01*
X121589202Y-48581834D01*
X121636821Y-48677072D01*
X121636821Y-49058025D01*
%TO.C,C6*%
X44946842Y-43487515D02*
X44994461Y-43535134D01*
X45042080Y-43677991D01*
X45042080Y-43773229D01*
X44994461Y-43916087D01*
X44899223Y-44011325D01*
X44803985Y-44058944D01*
X44613509Y-44106563D01*
X44470652Y-44106563D01*
X44280176Y-44058944D01*
X44184938Y-44011325D01*
X44089700Y-43916087D01*
X44042080Y-43773229D01*
X44042080Y-43677991D01*
X44089700Y-43535134D01*
X44137319Y-43487515D01*
X44042080Y-42630372D02*
X44042080Y-42820849D01*
X44089700Y-42916087D01*
X44137319Y-42963706D01*
X44280176Y-43058944D01*
X44470652Y-43106563D01*
X44851604Y-43106563D01*
X44946842Y-43058944D01*
X44994461Y-43011325D01*
X45042080Y-42916087D01*
X45042080Y-42725610D01*
X44994461Y-42630372D01*
X44946842Y-42582753D01*
X44851604Y-42535134D01*
X44613509Y-42535134D01*
X44518271Y-42582753D01*
X44470652Y-42630372D01*
X44423033Y-42725610D01*
X44423033Y-42916087D01*
X44470652Y-43011325D01*
X44518271Y-43058944D01*
X44613509Y-43106563D01*
X43518080Y-43423896D02*
X43518080Y-43995325D01*
X43518080Y-43709610D02*
X42518080Y-43709610D01*
X42660938Y-43804849D01*
X42756176Y-43900087D01*
X42803795Y-43995325D01*
X42518080Y-42804849D02*
X42518080Y-42709610D01*
X42565700Y-42614372D01*
X42613319Y-42566753D01*
X42708557Y-42519134D01*
X42899033Y-42471515D01*
X43137128Y-42471515D01*
X43327604Y-42519134D01*
X43422842Y-42566753D01*
X43470461Y-42614372D01*
X43518080Y-42709610D01*
X43518080Y-42804849D01*
X43470461Y-42900087D01*
X43422842Y-42947706D01*
X43327604Y-42995325D01*
X43137128Y-43042944D01*
X42899033Y-43042944D01*
X42708557Y-42995325D01*
X42613319Y-42947706D01*
X42565700Y-42900087D01*
X42518080Y-42804849D01*
X42518080Y-41852468D02*
X42518080Y-41757229D01*
X42565700Y-41661991D01*
X42613319Y-41614372D01*
X42708557Y-41566753D01*
X42899033Y-41519134D01*
X43137128Y-41519134D01*
X43327604Y-41566753D01*
X43422842Y-41614372D01*
X43470461Y-41661991D01*
X43518080Y-41757229D01*
X43518080Y-41852468D01*
X43470461Y-41947706D01*
X43422842Y-41995325D01*
X43327604Y-42042944D01*
X43137128Y-42090563D01*
X42899033Y-42090563D01*
X42708557Y-42042944D01*
X42613319Y-41995325D01*
X42565700Y-41947706D01*
X42518080Y-41852468D01*
X42851414Y-41090563D02*
X43518080Y-41090563D01*
X42946652Y-41090563D02*
X42899033Y-41042944D01*
X42851414Y-40947706D01*
X42851414Y-40804849D01*
X42899033Y-40709610D01*
X42994271Y-40661991D01*
X43518080Y-40661991D01*
%TO.C,Q1*%
X53223819Y-78124038D02*
X53176200Y-78219276D01*
X53080961Y-78314514D01*
X52938104Y-78457371D01*
X52890485Y-78552609D01*
X52890485Y-78647847D01*
X53128580Y-78600228D02*
X53080961Y-78695466D01*
X52985723Y-78790704D01*
X52795247Y-78838323D01*
X52461914Y-78838323D01*
X52271438Y-78790704D01*
X52176200Y-78695466D01*
X52128580Y-78600228D01*
X52128580Y-78409752D01*
X52176200Y-78314514D01*
X52271438Y-78219276D01*
X52461914Y-78171657D01*
X52795247Y-78171657D01*
X52985723Y-78219276D01*
X53080961Y-78314514D01*
X53128580Y-78409752D01*
X53128580Y-78600228D01*
X53128580Y-77219276D02*
X53128580Y-77790704D01*
X53128580Y-77504990D02*
X52128580Y-77504990D01*
X52271438Y-77600228D01*
X52366676Y-77695466D01*
X52414295Y-77790704D01*
X63863819Y-80743085D02*
X63816200Y-80695466D01*
X63768580Y-80600228D01*
X63768580Y-80362133D01*
X63816200Y-80266895D01*
X63863819Y-80219276D01*
X63959057Y-80171657D01*
X64054295Y-80171657D01*
X64197152Y-80219276D01*
X64768580Y-80790704D01*
X64768580Y-80171657D01*
X64768580Y-79743085D02*
X63768580Y-79743085D01*
X64768580Y-79171657D01*
X63768580Y-79171657D01*
X63768580Y-78790704D02*
X63768580Y-78171657D01*
X64149533Y-78504990D01*
X64149533Y-78362133D01*
X64197152Y-78266895D01*
X64244771Y-78219276D01*
X64340009Y-78171657D01*
X64578104Y-78171657D01*
X64673342Y-78219276D01*
X64720961Y-78266895D01*
X64768580Y-78362133D01*
X64768580Y-78647847D01*
X64720961Y-78743085D01*
X64673342Y-78790704D01*
X64197152Y-77600228D02*
X64149533Y-77695466D01*
X64101914Y-77743085D01*
X64006676Y-77790704D01*
X63959057Y-77790704D01*
X63863819Y-77743085D01*
X63816200Y-77695466D01*
X63768580Y-77600228D01*
X63768580Y-77409752D01*
X63816200Y-77314514D01*
X63863819Y-77266895D01*
X63959057Y-77219276D01*
X64006676Y-77219276D01*
X64101914Y-77266895D01*
X64149533Y-77314514D01*
X64197152Y-77409752D01*
X64197152Y-77600228D01*
X64244771Y-77695466D01*
X64292390Y-77743085D01*
X64387628Y-77790704D01*
X64578104Y-77790704D01*
X64673342Y-77743085D01*
X64720961Y-77695466D01*
X64768580Y-77600228D01*
X64768580Y-77409752D01*
X64720961Y-77314514D01*
X64673342Y-77266895D01*
X64578104Y-77219276D01*
X64387628Y-77219276D01*
X64292390Y-77266895D01*
X64244771Y-77314514D01*
X64197152Y-77409752D01*
X63768580Y-76362133D02*
X63768580Y-76552609D01*
X63816200Y-76647847D01*
X63863819Y-76695466D01*
X64006676Y-76790704D01*
X64197152Y-76838323D01*
X64578104Y-76838323D01*
X64673342Y-76790704D01*
X64720961Y-76743085D01*
X64768580Y-76647847D01*
X64768580Y-76457371D01*
X64720961Y-76362133D01*
X64673342Y-76314514D01*
X64578104Y-76266895D01*
X64340009Y-76266895D01*
X64244771Y-76314514D01*
X64197152Y-76362133D01*
X64149533Y-76457371D01*
X64149533Y-76647847D01*
X64197152Y-76743085D01*
X64244771Y-76790704D01*
X64340009Y-76838323D01*
X63768580Y-75409752D02*
X63768580Y-75600228D01*
X63816200Y-75695466D01*
X63863819Y-75743085D01*
X64006676Y-75838323D01*
X64197152Y-75885942D01*
X64578104Y-75885942D01*
X64673342Y-75838323D01*
X64720961Y-75790704D01*
X64768580Y-75695466D01*
X64768580Y-75504990D01*
X64720961Y-75409752D01*
X64673342Y-75362133D01*
X64578104Y-75314514D01*
X64340009Y-75314514D01*
X64244771Y-75362133D01*
X64197152Y-75409752D01*
X64149533Y-75504990D01*
X64149533Y-75695466D01*
X64197152Y-75790704D01*
X64244771Y-75838323D01*
X64340009Y-75885942D01*
%TO.C,Q2*%
X102372819Y-77641438D02*
X102325200Y-77736676D01*
X102229961Y-77831914D01*
X102087104Y-77974771D01*
X102039485Y-78070009D01*
X102039485Y-78165247D01*
X102277580Y-78117628D02*
X102229961Y-78212866D01*
X102134723Y-78308104D01*
X101944247Y-78355723D01*
X101610914Y-78355723D01*
X101420438Y-78308104D01*
X101325200Y-78212866D01*
X101277580Y-78117628D01*
X101277580Y-77927152D01*
X101325200Y-77831914D01*
X101420438Y-77736676D01*
X101610914Y-77689057D01*
X101944247Y-77689057D01*
X102134723Y-77736676D01*
X102229961Y-77831914D01*
X102277580Y-77927152D01*
X102277580Y-78117628D01*
X101372819Y-77308104D02*
X101325200Y-77260485D01*
X101277580Y-77165247D01*
X101277580Y-76927152D01*
X101325200Y-76831914D01*
X101372819Y-76784295D01*
X101468057Y-76736676D01*
X101563295Y-76736676D01*
X101706152Y-76784295D01*
X102277580Y-77355723D01*
X102277580Y-76736676D01*
X113012819Y-80260485D02*
X112965200Y-80212866D01*
X112917580Y-80117628D01*
X112917580Y-79879533D01*
X112965200Y-79784295D01*
X113012819Y-79736676D01*
X113108057Y-79689057D01*
X113203295Y-79689057D01*
X113346152Y-79736676D01*
X113917580Y-80308104D01*
X113917580Y-79689057D01*
X113917580Y-79260485D02*
X112917580Y-79260485D01*
X113917580Y-78689057D01*
X112917580Y-78689057D01*
X112917580Y-78308104D02*
X112917580Y-77689057D01*
X113298533Y-78022390D01*
X113298533Y-77879533D01*
X113346152Y-77784295D01*
X113393771Y-77736676D01*
X113489009Y-77689057D01*
X113727104Y-77689057D01*
X113822342Y-77736676D01*
X113869961Y-77784295D01*
X113917580Y-77879533D01*
X113917580Y-78165247D01*
X113869961Y-78260485D01*
X113822342Y-78308104D01*
X113346152Y-77117628D02*
X113298533Y-77212866D01*
X113250914Y-77260485D01*
X113155676Y-77308104D01*
X113108057Y-77308104D01*
X113012819Y-77260485D01*
X112965200Y-77212866D01*
X112917580Y-77117628D01*
X112917580Y-76927152D01*
X112965200Y-76831914D01*
X113012819Y-76784295D01*
X113108057Y-76736676D01*
X113155676Y-76736676D01*
X113250914Y-76784295D01*
X113298533Y-76831914D01*
X113346152Y-76927152D01*
X113346152Y-77117628D01*
X113393771Y-77212866D01*
X113441390Y-77260485D01*
X113536628Y-77308104D01*
X113727104Y-77308104D01*
X113822342Y-77260485D01*
X113869961Y-77212866D01*
X113917580Y-77117628D01*
X113917580Y-76927152D01*
X113869961Y-76831914D01*
X113822342Y-76784295D01*
X113727104Y-76736676D01*
X113536628Y-76736676D01*
X113441390Y-76784295D01*
X113393771Y-76831914D01*
X113346152Y-76927152D01*
X112917580Y-75879533D02*
X112917580Y-76070009D01*
X112965200Y-76165247D01*
X113012819Y-76212866D01*
X113155676Y-76308104D01*
X113346152Y-76355723D01*
X113727104Y-76355723D01*
X113822342Y-76308104D01*
X113869961Y-76260485D01*
X113917580Y-76165247D01*
X113917580Y-75974771D01*
X113869961Y-75879533D01*
X113822342Y-75831914D01*
X113727104Y-75784295D01*
X113489009Y-75784295D01*
X113393771Y-75831914D01*
X113346152Y-75879533D01*
X113298533Y-75974771D01*
X113298533Y-76165247D01*
X113346152Y-76260485D01*
X113393771Y-76308104D01*
X113489009Y-76355723D01*
X112917580Y-74927152D02*
X112917580Y-75117628D01*
X112965200Y-75212866D01*
X113012819Y-75260485D01*
X113155676Y-75355723D01*
X113346152Y-75403342D01*
X113727104Y-75403342D01*
X113822342Y-75355723D01*
X113869961Y-75308104D01*
X113917580Y-75212866D01*
X113917580Y-75022390D01*
X113869961Y-74927152D01*
X113822342Y-74879533D01*
X113727104Y-74831914D01*
X113489009Y-74831914D01*
X113393771Y-74879533D01*
X113346152Y-74927152D01*
X113298533Y-75022390D01*
X113298533Y-75212866D01*
X113346152Y-75308104D01*
X113393771Y-75355723D01*
X113489009Y-75403342D01*
%TO.C,R4*%
X76427033Y-46286680D02*
X76093700Y-45810490D01*
X75855604Y-46286680D02*
X75855604Y-45286680D01*
X76236557Y-45286680D01*
X76331795Y-45334300D01*
X76379414Y-45381919D01*
X76427033Y-45477157D01*
X76427033Y-45620014D01*
X76379414Y-45715252D01*
X76331795Y-45762871D01*
X76236557Y-45810490D01*
X75855604Y-45810490D01*
X77284176Y-45620014D02*
X77284176Y-46286680D01*
X77046080Y-45239061D02*
X76807985Y-45953347D01*
X77427033Y-45953347D01*
X72702823Y-46286680D02*
X72131395Y-46286680D01*
X72417109Y-46286680D02*
X72417109Y-45286680D01*
X72321871Y-45429538D01*
X72226633Y-45524776D01*
X72131395Y-45572395D01*
X73321871Y-45286680D02*
X73417109Y-45286680D01*
X73512347Y-45334300D01*
X73559966Y-45381919D01*
X73607585Y-45477157D01*
X73655204Y-45667633D01*
X73655204Y-45905728D01*
X73607585Y-46096204D01*
X73559966Y-46191442D01*
X73512347Y-46239061D01*
X73417109Y-46286680D01*
X73321871Y-46286680D01*
X73226633Y-46239061D01*
X73179014Y-46191442D01*
X73131395Y-46096204D01*
X73083776Y-45905728D01*
X73083776Y-45667633D01*
X73131395Y-45477157D01*
X73179014Y-45381919D01*
X73226633Y-45334300D01*
X73321871Y-45286680D01*
X74655204Y-46286680D02*
X74321871Y-45810490D01*
X74083776Y-46286680D02*
X74083776Y-45286680D01*
X74464728Y-45286680D01*
X74559966Y-45334300D01*
X74607585Y-45381919D01*
X74655204Y-45477157D01*
X74655204Y-45620014D01*
X74607585Y-45715252D01*
X74559966Y-45762871D01*
X74464728Y-45810490D01*
X74083776Y-45810490D01*
%TO.C,R19*%
X83596242Y-51747680D02*
X83262909Y-51271490D01*
X83024814Y-51747680D02*
X83024814Y-50747680D01*
X83405766Y-50747680D01*
X83501004Y-50795300D01*
X83548623Y-50842919D01*
X83596242Y-50938157D01*
X83596242Y-51081014D01*
X83548623Y-51176252D01*
X83501004Y-51223871D01*
X83405766Y-51271490D01*
X83024814Y-51271490D01*
X84548623Y-51747680D02*
X83977195Y-51747680D01*
X84262909Y-51747680D02*
X84262909Y-50747680D01*
X84167671Y-50890538D01*
X84072433Y-50985776D01*
X83977195Y-51033395D01*
X85024814Y-51747680D02*
X85215290Y-51747680D01*
X85310528Y-51700061D01*
X85358147Y-51652442D01*
X85453385Y-51509585D01*
X85501004Y-51319109D01*
X85501004Y-50938157D01*
X85453385Y-50842919D01*
X85405766Y-50795300D01*
X85310528Y-50747680D01*
X85120052Y-50747680D01*
X85024814Y-50795300D01*
X84977195Y-50842919D01*
X84929576Y-50938157D01*
X84929576Y-51176252D01*
X84977195Y-51271490D01*
X85024814Y-51319109D01*
X85120052Y-51366728D01*
X85310528Y-51366728D01*
X85405766Y-51319109D01*
X85453385Y-51271490D01*
X85501004Y-51176252D01*
X83034404Y-49191919D02*
X83082023Y-49144300D01*
X83177261Y-49096680D01*
X83415357Y-49096680D01*
X83510595Y-49144300D01*
X83558214Y-49191919D01*
X83605833Y-49287157D01*
X83605833Y-49382395D01*
X83558214Y-49525252D01*
X82986785Y-50096680D01*
X83605833Y-50096680D01*
X84224880Y-49096680D02*
X84320119Y-49096680D01*
X84415357Y-49144300D01*
X84462976Y-49191919D01*
X84510595Y-49287157D01*
X84558214Y-49477633D01*
X84558214Y-49715728D01*
X84510595Y-49906204D01*
X84462976Y-50001442D01*
X84415357Y-50049061D01*
X84320119Y-50096680D01*
X84224880Y-50096680D01*
X84129642Y-50049061D01*
X84082023Y-50001442D01*
X84034404Y-49906204D01*
X83986785Y-49715728D01*
X83986785Y-49477633D01*
X84034404Y-49287157D01*
X84082023Y-49191919D01*
X84129642Y-49144300D01*
X84224880Y-49096680D01*
X85177261Y-49096680D02*
X85272500Y-49096680D01*
X85367738Y-49144300D01*
X85415357Y-49191919D01*
X85462976Y-49287157D01*
X85510595Y-49477633D01*
X85510595Y-49715728D01*
X85462976Y-49906204D01*
X85415357Y-50001442D01*
X85367738Y-50049061D01*
X85272500Y-50096680D01*
X85177261Y-50096680D01*
X85082023Y-50049061D01*
X85034404Y-50001442D01*
X84986785Y-49906204D01*
X84939166Y-49715728D01*
X84939166Y-49477633D01*
X84986785Y-49287157D01*
X85034404Y-49191919D01*
X85082023Y-49144300D01*
X85177261Y-49096680D01*
X86510595Y-50096680D02*
X86177261Y-49620490D01*
X85939166Y-50096680D02*
X85939166Y-49096680D01*
X86320119Y-49096680D01*
X86415357Y-49144300D01*
X86462976Y-49191919D01*
X86510595Y-49287157D01*
X86510595Y-49430014D01*
X86462976Y-49525252D01*
X86415357Y-49572871D01*
X86320119Y-49620490D01*
X85939166Y-49620490D01*
%TO.C,R8*%
X73553580Y-63528966D02*
X73077390Y-63862300D01*
X73553580Y-64100395D02*
X72553580Y-64100395D01*
X72553580Y-63719442D01*
X72601200Y-63624204D01*
X72648819Y-63576585D01*
X72744057Y-63528966D01*
X72886914Y-63528966D01*
X72982152Y-63576585D01*
X73029771Y-63624204D01*
X73077390Y-63719442D01*
X73077390Y-64100395D01*
X72982152Y-62957538D02*
X72934533Y-63052776D01*
X72886914Y-63100395D01*
X72791676Y-63148014D01*
X72744057Y-63148014D01*
X72648819Y-63100395D01*
X72601200Y-63052776D01*
X72553580Y-62957538D01*
X72553580Y-62767061D01*
X72601200Y-62671823D01*
X72648819Y-62624204D01*
X72744057Y-62576585D01*
X72791676Y-62576585D01*
X72886914Y-62624204D01*
X72934533Y-62671823D01*
X72982152Y-62767061D01*
X72982152Y-62957538D01*
X73029771Y-63052776D01*
X73077390Y-63100395D01*
X73172628Y-63148014D01*
X73363104Y-63148014D01*
X73458342Y-63100395D01*
X73505961Y-63052776D01*
X73553580Y-62957538D01*
X73553580Y-62767061D01*
X73505961Y-62671823D01*
X73458342Y-62624204D01*
X73363104Y-62576585D01*
X73172628Y-62576585D01*
X73077390Y-62624204D01*
X73029771Y-62671823D01*
X72982152Y-62767061D01*
X75179180Y-64722671D02*
X75179180Y-65294100D01*
X75179180Y-65008385D02*
X74179180Y-65008385D01*
X74322038Y-65103623D01*
X74417276Y-65198861D01*
X74464895Y-65294100D01*
X75083942Y-64294100D02*
X75131561Y-64246480D01*
X75179180Y-64294100D01*
X75131561Y-64341719D01*
X75083942Y-64294100D01*
X75179180Y-64294100D01*
X74607752Y-63675052D02*
X74560133Y-63770290D01*
X74512514Y-63817909D01*
X74417276Y-63865528D01*
X74369657Y-63865528D01*
X74274419Y-63817909D01*
X74226800Y-63770290D01*
X74179180Y-63675052D01*
X74179180Y-63484576D01*
X74226800Y-63389338D01*
X74274419Y-63341719D01*
X74369657Y-63294100D01*
X74417276Y-63294100D01*
X74512514Y-63341719D01*
X74560133Y-63389338D01*
X74607752Y-63484576D01*
X74607752Y-63675052D01*
X74655371Y-63770290D01*
X74702990Y-63817909D01*
X74798228Y-63865528D01*
X74988704Y-63865528D01*
X75083942Y-63817909D01*
X75131561Y-63770290D01*
X75179180Y-63675052D01*
X75179180Y-63484576D01*
X75131561Y-63389338D01*
X75083942Y-63341719D01*
X74988704Y-63294100D01*
X74798228Y-63294100D01*
X74702990Y-63341719D01*
X74655371Y-63389338D01*
X74607752Y-63484576D01*
X75179180Y-62865528D02*
X74179180Y-62865528D01*
X75179180Y-62294100D02*
X74607752Y-62722671D01*
X74179180Y-62294100D02*
X74750609Y-62865528D01*
%TO.C,C10*%
X90619342Y-79224142D02*
X90571723Y-79271761D01*
X90428866Y-79319380D01*
X90333628Y-79319380D01*
X90190771Y-79271761D01*
X90095533Y-79176523D01*
X90047914Y-79081285D01*
X90000295Y-78890809D01*
X90000295Y-78747952D01*
X90047914Y-78557476D01*
X90095533Y-78462238D01*
X90190771Y-78367000D01*
X90333628Y-78319380D01*
X90428866Y-78319380D01*
X90571723Y-78367000D01*
X90619342Y-78414619D01*
X91571723Y-79319380D02*
X91000295Y-79319380D01*
X91286009Y-79319380D02*
X91286009Y-78319380D01*
X91190771Y-78462238D01*
X91095533Y-78557476D01*
X91000295Y-78605095D01*
X92190771Y-78319380D02*
X92286009Y-78319380D01*
X92381247Y-78367000D01*
X92428866Y-78414619D01*
X92476485Y-78509857D01*
X92524104Y-78700333D01*
X92524104Y-78938428D01*
X92476485Y-79128904D01*
X92428866Y-79224142D01*
X92381247Y-79271761D01*
X92286009Y-79319380D01*
X92190771Y-79319380D01*
X92095533Y-79271761D01*
X92047914Y-79224142D01*
X92000295Y-79128904D01*
X91952676Y-78938428D01*
X91952676Y-78700333D01*
X92000295Y-78509857D01*
X92047914Y-78414619D01*
X92095533Y-78367000D01*
X92190771Y-78319380D01*
X85469552Y-76957180D02*
X84898123Y-76957180D01*
X85183838Y-76957180D02*
X85183838Y-75957180D01*
X85088600Y-76100038D01*
X84993361Y-76195276D01*
X84898123Y-76242895D01*
X86088600Y-75957180D02*
X86183838Y-75957180D01*
X86279076Y-76004800D01*
X86326695Y-76052419D01*
X86374314Y-76147657D01*
X86421933Y-76338133D01*
X86421933Y-76576228D01*
X86374314Y-76766704D01*
X86326695Y-76861942D01*
X86279076Y-76909561D01*
X86183838Y-76957180D01*
X86088600Y-76957180D01*
X85993361Y-76909561D01*
X85945742Y-76861942D01*
X85898123Y-76766704D01*
X85850504Y-76576228D01*
X85850504Y-76338133D01*
X85898123Y-76147657D01*
X85945742Y-76052419D01*
X85993361Y-76004800D01*
X86088600Y-75957180D01*
X87040980Y-75957180D02*
X87136219Y-75957180D01*
X87231457Y-76004800D01*
X87279076Y-76052419D01*
X87326695Y-76147657D01*
X87374314Y-76338133D01*
X87374314Y-76576228D01*
X87326695Y-76766704D01*
X87279076Y-76861942D01*
X87231457Y-76909561D01*
X87136219Y-76957180D01*
X87040980Y-76957180D01*
X86945742Y-76909561D01*
X86898123Y-76861942D01*
X86850504Y-76766704D01*
X86802885Y-76576228D01*
X86802885Y-76338133D01*
X86850504Y-76147657D01*
X86898123Y-76052419D01*
X86945742Y-76004800D01*
X87040980Y-75957180D01*
X87802885Y-76290514D02*
X87802885Y-76957180D01*
X87802885Y-76385752D02*
X87850504Y-76338133D01*
X87945742Y-76290514D01*
X88088600Y-76290514D01*
X88183838Y-76338133D01*
X88231457Y-76433371D01*
X88231457Y-76957180D01*
%TO.C,R7*%
X80872033Y-35618680D02*
X80538700Y-35142490D01*
X80300604Y-35618680D02*
X80300604Y-34618680D01*
X80681557Y-34618680D01*
X80776795Y-34666300D01*
X80824414Y-34713919D01*
X80872033Y-34809157D01*
X80872033Y-34952014D01*
X80824414Y-35047252D01*
X80776795Y-35094871D01*
X80681557Y-35142490D01*
X80300604Y-35142490D01*
X81205366Y-34618680D02*
X81872033Y-34618680D01*
X81443461Y-35618680D01*
X83370823Y-35517080D02*
X82799395Y-35517080D01*
X83085109Y-35517080D02*
X83085109Y-34517080D01*
X82989871Y-34659938D01*
X82894633Y-34755176D01*
X82799395Y-34802795D01*
X83989871Y-34517080D02*
X84085109Y-34517080D01*
X84180347Y-34564700D01*
X84227966Y-34612319D01*
X84275585Y-34707557D01*
X84323204Y-34898033D01*
X84323204Y-35136128D01*
X84275585Y-35326604D01*
X84227966Y-35421842D01*
X84180347Y-35469461D01*
X84085109Y-35517080D01*
X83989871Y-35517080D01*
X83894633Y-35469461D01*
X83847014Y-35421842D01*
X83799395Y-35326604D01*
X83751776Y-35136128D01*
X83751776Y-34898033D01*
X83799395Y-34707557D01*
X83847014Y-34612319D01*
X83894633Y-34564700D01*
X83989871Y-34517080D01*
X85323204Y-35517080D02*
X84989871Y-35040890D01*
X84751776Y-35517080D02*
X84751776Y-34517080D01*
X85132728Y-34517080D01*
X85227966Y-34564700D01*
X85275585Y-34612319D01*
X85323204Y-34707557D01*
X85323204Y-34850414D01*
X85275585Y-34945652D01*
X85227966Y-34993271D01*
X85132728Y-35040890D01*
X84751776Y-35040890D01*
%TO.C,C3*%
X57062642Y-43333966D02*
X57110261Y-43381585D01*
X57157880Y-43524442D01*
X57157880Y-43619680D01*
X57110261Y-43762538D01*
X57015023Y-43857776D01*
X56919785Y-43905395D01*
X56729309Y-43953014D01*
X56586452Y-43953014D01*
X56395976Y-43905395D01*
X56300738Y-43857776D01*
X56205500Y-43762538D01*
X56157880Y-43619680D01*
X56157880Y-43524442D01*
X56205500Y-43381585D01*
X56253119Y-43333966D01*
X56157880Y-43000633D02*
X56157880Y-42381585D01*
X56538833Y-42714919D01*
X56538833Y-42572061D01*
X56586452Y-42476823D01*
X56634071Y-42429204D01*
X56729309Y-42381585D01*
X56967404Y-42381585D01*
X57062642Y-42429204D01*
X57110261Y-42476823D01*
X57157880Y-42572061D01*
X57157880Y-42857776D01*
X57110261Y-42953014D01*
X57062642Y-43000633D01*
X55710080Y-43384766D02*
X55710080Y-43956195D01*
X55710080Y-43670480D02*
X54710080Y-43670480D01*
X54852938Y-43765719D01*
X54948176Y-43860957D01*
X54995795Y-43956195D01*
X55043414Y-42527623D02*
X55710080Y-42527623D01*
X55043414Y-42956195D02*
X55567223Y-42956195D01*
X55662461Y-42908576D01*
X55710080Y-42813338D01*
X55710080Y-42670480D01*
X55662461Y-42575242D01*
X55614842Y-42527623D01*
%TO.C,R2*%
X46045380Y-85205866D02*
X45569190Y-85539200D01*
X46045380Y-85777295D02*
X45045380Y-85777295D01*
X45045380Y-85396342D01*
X45093000Y-85301104D01*
X45140619Y-85253485D01*
X45235857Y-85205866D01*
X45378714Y-85205866D01*
X45473952Y-85253485D01*
X45521571Y-85301104D01*
X45569190Y-85396342D01*
X45569190Y-85777295D01*
X45140619Y-84824914D02*
X45093000Y-84777295D01*
X45045380Y-84682057D01*
X45045380Y-84443961D01*
X45093000Y-84348723D01*
X45140619Y-84301104D01*
X45235857Y-84253485D01*
X45331095Y-84253485D01*
X45473952Y-84301104D01*
X46045380Y-84872533D01*
X46045380Y-84253485D01*
X47416980Y-85405885D02*
X47416980Y-85977314D01*
X47416980Y-85691600D02*
X46416980Y-85691600D01*
X46559838Y-85786838D01*
X46655076Y-85882076D01*
X46702695Y-85977314D01*
X47416980Y-84977314D02*
X46416980Y-84977314D01*
X47416980Y-84405885D02*
X46845552Y-84834457D01*
X46416980Y-84405885D02*
X46988409Y-84977314D01*
%TO.C,T1*%
X50444495Y-54265580D02*
X51015923Y-54265580D01*
X50730209Y-55265580D02*
X50730209Y-54265580D01*
X51873066Y-55265580D02*
X51301638Y-55265580D01*
X51587352Y-55265580D02*
X51587352Y-54265580D01*
X51492114Y-54408438D01*
X51396876Y-54503676D01*
X51301638Y-54551295D01*
X56647390Y-67390971D02*
X56314057Y-67390971D01*
X56314057Y-67914780D02*
X56314057Y-66914780D01*
X56790247Y-66914780D01*
X57028342Y-66914780D02*
X57599771Y-66914780D01*
X57314057Y-67914780D02*
X57314057Y-66914780D01*
X57837866Y-66914780D02*
X58456914Y-66914780D01*
X58123580Y-67295733D01*
X58266438Y-67295733D01*
X58361676Y-67343352D01*
X58409295Y-67390971D01*
X58456914Y-67486209D01*
X58456914Y-67724304D01*
X58409295Y-67819542D01*
X58361676Y-67867161D01*
X58266438Y-67914780D01*
X57980723Y-67914780D01*
X57885485Y-67867161D01*
X57837866Y-67819542D01*
X58790247Y-66914780D02*
X59456914Y-66914780D01*
X59028342Y-67914780D01*
X59837866Y-67533828D02*
X60599771Y-67533828D01*
X61504533Y-67248114D02*
X61504533Y-67914780D01*
X61266438Y-66867161D02*
X61028342Y-67581447D01*
X61647390Y-67581447D01*
X61933104Y-66914780D02*
X62599771Y-66914780D01*
X62171200Y-67914780D01*
X64266438Y-67914780D02*
X63695009Y-67914780D01*
X63980723Y-67914780D02*
X63980723Y-66914780D01*
X63885485Y-67057638D01*
X63790247Y-67152876D01*
X63695009Y-67200495D01*
X64885485Y-66914780D02*
X64980723Y-66914780D01*
X65075961Y-66962400D01*
X65123580Y-67010019D01*
X65171200Y-67105257D01*
X65218819Y-67295733D01*
X65218819Y-67533828D01*
X65171200Y-67724304D01*
X65123580Y-67819542D01*
X65075961Y-67867161D01*
X64980723Y-67914780D01*
X64885485Y-67914780D01*
X64790247Y-67867161D01*
X64742628Y-67819542D01*
X64695009Y-67724304D01*
X64647390Y-67533828D01*
X64647390Y-67295733D01*
X64695009Y-67105257D01*
X64742628Y-67010019D01*
X64790247Y-66962400D01*
X64885485Y-66914780D01*
X65980723Y-67390971D02*
X66123580Y-67438590D01*
X66171200Y-67486209D01*
X66218819Y-67581447D01*
X66218819Y-67724304D01*
X66171200Y-67819542D01*
X66123580Y-67867161D01*
X66028342Y-67914780D01*
X65647390Y-67914780D01*
X65647390Y-66914780D01*
X65980723Y-66914780D01*
X66075961Y-66962400D01*
X66123580Y-67010019D01*
X66171200Y-67105257D01*
X66171200Y-67200495D01*
X66123580Y-67295733D01*
X66075961Y-67343352D01*
X65980723Y-67390971D01*
X65647390Y-67390971D01*
X66980723Y-67390971D02*
X66647390Y-67390971D01*
X66647390Y-67914780D02*
X66647390Y-66914780D01*
X67123580Y-66914780D01*
%TO.C,J3*%
X73415566Y-32713680D02*
X73415566Y-33427966D01*
X73367947Y-33570823D01*
X73272709Y-33666061D01*
X73129852Y-33713680D01*
X73034614Y-33713680D01*
X73796519Y-32713680D02*
X74415566Y-32713680D01*
X74082233Y-33094633D01*
X74225090Y-33094633D01*
X74320328Y-33142252D01*
X74367947Y-33189871D01*
X74415566Y-33285109D01*
X74415566Y-33523204D01*
X74367947Y-33618442D01*
X74320328Y-33666061D01*
X74225090Y-33713680D01*
X73939376Y-33713680D01*
X73844138Y-33666061D01*
X73796519Y-33618442D01*
X60960166Y-33713680D02*
X60960166Y-32713680D01*
X61341119Y-32713680D01*
X61436357Y-32761300D01*
X61483976Y-32808919D01*
X61531595Y-32904157D01*
X61531595Y-33047014D01*
X61483976Y-33142252D01*
X61436357Y-33189871D01*
X61341119Y-33237490D01*
X60960166Y-33237490D01*
X61864928Y-32713680D02*
X62103023Y-33713680D01*
X62293500Y-32999395D01*
X62483976Y-33713680D01*
X62722071Y-32713680D01*
X63674452Y-33713680D02*
X63341119Y-33237490D01*
X63103023Y-33713680D02*
X63103023Y-32713680D01*
X63483976Y-32713680D01*
X63579214Y-32761300D01*
X63626833Y-32808919D01*
X63674452Y-32904157D01*
X63674452Y-33047014D01*
X63626833Y-33142252D01*
X63579214Y-33189871D01*
X63483976Y-33237490D01*
X63103023Y-33237490D01*
%TO.C,R14*%
X119522211Y-77804368D02*
X119046021Y-78137701D01*
X119522211Y-78375796D02*
X118522211Y-78375796D01*
X118522211Y-77994844D01*
X118569831Y-77899606D01*
X118617450Y-77851987D01*
X118712688Y-77804368D01*
X118855545Y-77804368D01*
X118950783Y-77851987D01*
X118998402Y-77899606D01*
X119046021Y-77994844D01*
X119046021Y-78375796D01*
X119522211Y-76851987D02*
X119522211Y-77423415D01*
X119522211Y-77137701D02*
X118522211Y-77137701D01*
X118665069Y-77232939D01*
X118760307Y-77328177D01*
X118807926Y-77423415D01*
X118855545Y-75994844D02*
X119522211Y-75994844D01*
X118474592Y-76232939D02*
X119188878Y-76471034D01*
X119188878Y-75851987D01*
X120097011Y-77642425D02*
X120097011Y-77832901D01*
X120144631Y-77928139D01*
X120192250Y-77975758D01*
X120335107Y-78070996D01*
X120525583Y-78118615D01*
X120906535Y-78118615D01*
X121001773Y-78070996D01*
X121049392Y-78023377D01*
X121097011Y-77928139D01*
X121097011Y-77737663D01*
X121049392Y-77642425D01*
X121001773Y-77594806D01*
X120906535Y-77547187D01*
X120668440Y-77547187D01*
X120573202Y-77594806D01*
X120525583Y-77642425D01*
X120477964Y-77737663D01*
X120477964Y-77928139D01*
X120525583Y-78023377D01*
X120573202Y-78070996D01*
X120668440Y-78118615D01*
X120525583Y-76975758D02*
X120477964Y-77070996D01*
X120430345Y-77118615D01*
X120335107Y-77166234D01*
X120287488Y-77166234D01*
X120192250Y-77118615D01*
X120144631Y-77070996D01*
X120097011Y-76975758D01*
X120097011Y-76785282D01*
X120144631Y-76690044D01*
X120192250Y-76642425D01*
X120287488Y-76594806D01*
X120335107Y-76594806D01*
X120430345Y-76642425D01*
X120477964Y-76690044D01*
X120525583Y-76785282D01*
X120525583Y-76975758D01*
X120573202Y-77070996D01*
X120620821Y-77118615D01*
X120716059Y-77166234D01*
X120906535Y-77166234D01*
X121001773Y-77118615D01*
X121049392Y-77070996D01*
X121097011Y-76975758D01*
X121097011Y-76785282D01*
X121049392Y-76690044D01*
X121001773Y-76642425D01*
X120906535Y-76594806D01*
X120716059Y-76594806D01*
X120620821Y-76642425D01*
X120573202Y-76690044D01*
X120525583Y-76785282D01*
X121097011Y-75594806D02*
X120620821Y-75928139D01*
X121097011Y-76166234D02*
X120097011Y-76166234D01*
X120097011Y-75785282D01*
X120144631Y-75690044D01*
X120192250Y-75642425D01*
X120287488Y-75594806D01*
X120430345Y-75594806D01*
X120525583Y-75642425D01*
X120573202Y-75690044D01*
X120620821Y-75785282D01*
X120620821Y-76166234D01*
%TO.C,J2*%
X134870866Y-46975780D02*
X134870866Y-47690066D01*
X134823247Y-47832923D01*
X134728009Y-47928161D01*
X134585152Y-47975780D01*
X134489914Y-47975780D01*
X135299438Y-47071019D02*
X135347057Y-47023400D01*
X135442295Y-46975780D01*
X135680390Y-46975780D01*
X135775628Y-47023400D01*
X135823247Y-47071019D01*
X135870866Y-47166257D01*
X135870866Y-47261495D01*
X135823247Y-47404352D01*
X135251819Y-47975780D01*
X135870866Y-47975780D01*
X133275628Y-58161180D02*
X132942295Y-57684990D01*
X132704200Y-58161180D02*
X132704200Y-57161180D01*
X133085152Y-57161180D01*
X133180390Y-57208800D01*
X133228009Y-57256419D01*
X133275628Y-57351657D01*
X133275628Y-57494514D01*
X133228009Y-57589752D01*
X133180390Y-57637371D01*
X133085152Y-57684990D01*
X132704200Y-57684990D01*
X134037533Y-57637371D02*
X133704200Y-57637371D01*
X133704200Y-58161180D02*
X133704200Y-57161180D01*
X134180390Y-57161180D01*
X134323247Y-58256419D02*
X135085152Y-58256419D01*
X135513723Y-57161180D02*
X135704200Y-57161180D01*
X135799438Y-57208800D01*
X135894676Y-57304038D01*
X135942295Y-57494514D01*
X135942295Y-57827847D01*
X135894676Y-58018323D01*
X135799438Y-58113561D01*
X135704200Y-58161180D01*
X135513723Y-58161180D01*
X135418485Y-58113561D01*
X135323247Y-58018323D01*
X135275628Y-57827847D01*
X135275628Y-57494514D01*
X135323247Y-57304038D01*
X135418485Y-57208800D01*
X135513723Y-57161180D01*
X136370866Y-57161180D02*
X136370866Y-57970704D01*
X136418485Y-58065942D01*
X136466104Y-58113561D01*
X136561342Y-58161180D01*
X136751819Y-58161180D01*
X136847057Y-58113561D01*
X136894676Y-58065942D01*
X136942295Y-57970704D01*
X136942295Y-57161180D01*
X137275628Y-57161180D02*
X137847057Y-57161180D01*
X137561342Y-58161180D02*
X137561342Y-57161180D01*
%TO.C,J1*%
X32839066Y-72426580D02*
X32839066Y-73140866D01*
X32791447Y-73283723D01*
X32696209Y-73378961D01*
X32553352Y-73426580D01*
X32458114Y-73426580D01*
X33839066Y-73426580D02*
X33267638Y-73426580D01*
X33553352Y-73426580D02*
X33553352Y-72426580D01*
X33458114Y-72569438D01*
X33362876Y-72664676D01*
X33267638Y-72712295D01*
X31656495Y-83277980D02*
X31323161Y-82801790D01*
X31085066Y-83277980D02*
X31085066Y-82277980D01*
X31466019Y-82277980D01*
X31561257Y-82325600D01*
X31608876Y-82373219D01*
X31656495Y-82468457D01*
X31656495Y-82611314D01*
X31608876Y-82706552D01*
X31561257Y-82754171D01*
X31466019Y-82801790D01*
X31085066Y-82801790D01*
X32418400Y-82754171D02*
X32085066Y-82754171D01*
X32085066Y-83277980D02*
X32085066Y-82277980D01*
X32561257Y-82277980D01*
X32704114Y-83373219D02*
X33466019Y-83373219D01*
X33704114Y-83277980D02*
X33704114Y-82277980D01*
X34180304Y-83277980D02*
X34180304Y-82277980D01*
X34751733Y-83277980D01*
X34751733Y-82277980D01*
%TO.C,C15*%
X125792973Y-54328453D02*
X125745354Y-54376072D01*
X125602497Y-54423691D01*
X125507259Y-54423691D01*
X125364402Y-54376072D01*
X125269164Y-54280834D01*
X125221545Y-54185596D01*
X125173926Y-53995120D01*
X125173926Y-53852263D01*
X125221545Y-53661787D01*
X125269164Y-53566549D01*
X125364402Y-53471311D01*
X125507259Y-53423691D01*
X125602497Y-53423691D01*
X125745354Y-53471311D01*
X125792973Y-53518930D01*
X126745354Y-54423691D02*
X126173926Y-54423691D01*
X126459640Y-54423691D02*
X126459640Y-53423691D01*
X126364402Y-53566549D01*
X126269164Y-53661787D01*
X126173926Y-53709406D01*
X127650116Y-53423691D02*
X127173926Y-53423691D01*
X127126307Y-53899882D01*
X127173926Y-53852263D01*
X127269164Y-53804644D01*
X127507259Y-53804644D01*
X127602497Y-53852263D01*
X127650116Y-53899882D01*
X127697735Y-53995120D01*
X127697735Y-54233215D01*
X127650116Y-54328453D01*
X127602497Y-54376072D01*
X127507259Y-54423691D01*
X127269164Y-54423691D01*
X127173926Y-54376072D01*
X127126307Y-54328453D01*
X125672383Y-50461291D02*
X125100954Y-50461291D01*
X125386669Y-50461291D02*
X125386669Y-49461291D01*
X125291431Y-49604149D01*
X125196192Y-49699387D01*
X125100954Y-49747006D01*
X126291431Y-49461291D02*
X126386669Y-49461291D01*
X126481907Y-49508911D01*
X126529526Y-49556530D01*
X126577145Y-49651768D01*
X126624764Y-49842244D01*
X126624764Y-50080339D01*
X126577145Y-50270815D01*
X126529526Y-50366053D01*
X126481907Y-50413672D01*
X126386669Y-50461291D01*
X126291431Y-50461291D01*
X126196192Y-50413672D01*
X126148573Y-50366053D01*
X126100954Y-50270815D01*
X126053335Y-50080339D01*
X126053335Y-49842244D01*
X126100954Y-49651768D01*
X126148573Y-49556530D01*
X126196192Y-49508911D01*
X126291431Y-49461291D01*
X127243811Y-49461291D02*
X127339050Y-49461291D01*
X127434288Y-49508911D01*
X127481907Y-49556530D01*
X127529526Y-49651768D01*
X127577145Y-49842244D01*
X127577145Y-50080339D01*
X127529526Y-50270815D01*
X127481907Y-50366053D01*
X127434288Y-50413672D01*
X127339050Y-50461291D01*
X127243811Y-50461291D01*
X127148573Y-50413672D01*
X127100954Y-50366053D01*
X127053335Y-50270815D01*
X127005716Y-50080339D01*
X127005716Y-49842244D01*
X127053335Y-49651768D01*
X127100954Y-49556530D01*
X127148573Y-49508911D01*
X127243811Y-49461291D01*
X128005716Y-49794625D02*
X128005716Y-50461291D01*
X128005716Y-49889863D02*
X128053335Y-49842244D01*
X128148573Y-49794625D01*
X128291431Y-49794625D01*
X128386669Y-49842244D01*
X128434288Y-49937482D01*
X128434288Y-50461291D01*
%TO.C,U2*%
X80934074Y-74168603D02*
X80934074Y-74806024D01*
X80971570Y-74881015D01*
X81009065Y-74918510D01*
X81084056Y-74956005D01*
X81234037Y-74956005D01*
X81309028Y-74918510D01*
X81346523Y-74881015D01*
X81384018Y-74806024D01*
X81384018Y-74168603D01*
X81721476Y-74243594D02*
X81758972Y-74206099D01*
X81833962Y-74168603D01*
X82021439Y-74168603D01*
X82096430Y-74206099D01*
X82133925Y-74243594D01*
X82171420Y-74318585D01*
X82171420Y-74393575D01*
X82133925Y-74506061D01*
X81683981Y-74956005D01*
X82171420Y-74956005D01*
%TO.C,R15*%
X116908342Y-85809080D02*
X116575009Y-85332890D01*
X116336914Y-85809080D02*
X116336914Y-84809080D01*
X116717866Y-84809080D01*
X116813104Y-84856700D01*
X116860723Y-84904319D01*
X116908342Y-84999557D01*
X116908342Y-85142414D01*
X116860723Y-85237652D01*
X116813104Y-85285271D01*
X116717866Y-85332890D01*
X116336914Y-85332890D01*
X117860723Y-85809080D02*
X117289295Y-85809080D01*
X117575009Y-85809080D02*
X117575009Y-84809080D01*
X117479771Y-84951938D01*
X117384533Y-85047176D01*
X117289295Y-85094795D01*
X118765485Y-84809080D02*
X118289295Y-84809080D01*
X118241676Y-85285271D01*
X118289295Y-85237652D01*
X118384533Y-85190033D01*
X118622628Y-85190033D01*
X118717866Y-85237652D01*
X118765485Y-85285271D01*
X118813104Y-85380509D01*
X118813104Y-85618604D01*
X118765485Y-85713842D01*
X118717866Y-85761461D01*
X118622628Y-85809080D01*
X118384533Y-85809080D01*
X118289295Y-85761461D01*
X118241676Y-85713842D01*
X124836276Y-84732880D02*
X124645800Y-84732880D01*
X124550561Y-84780500D01*
X124502942Y-84828119D01*
X124407704Y-84970976D01*
X124360085Y-85161452D01*
X124360085Y-85542404D01*
X124407704Y-85637642D01*
X124455323Y-85685261D01*
X124550561Y-85732880D01*
X124741038Y-85732880D01*
X124836276Y-85685261D01*
X124883895Y-85637642D01*
X124931514Y-85542404D01*
X124931514Y-85304309D01*
X124883895Y-85209071D01*
X124836276Y-85161452D01*
X124741038Y-85113833D01*
X124550561Y-85113833D01*
X124455323Y-85161452D01*
X124407704Y-85209071D01*
X124360085Y-85304309D01*
X125931514Y-85732880D02*
X125598180Y-85256690D01*
X125360085Y-85732880D02*
X125360085Y-84732880D01*
X125741038Y-84732880D01*
X125836276Y-84780500D01*
X125883895Y-84828119D01*
X125931514Y-84923357D01*
X125931514Y-85066214D01*
X125883895Y-85161452D01*
X125836276Y-85209071D01*
X125741038Y-85256690D01*
X125360085Y-85256690D01*
%TO.C,TP1*%
X71255095Y-71131180D02*
X71826523Y-71131180D01*
X71540809Y-72131180D02*
X71540809Y-71131180D01*
X72159857Y-72131180D02*
X72159857Y-71131180D01*
X72540809Y-71131180D01*
X72636047Y-71178800D01*
X72683666Y-71226419D01*
X72731285Y-71321657D01*
X72731285Y-71464514D01*
X72683666Y-71559752D01*
X72636047Y-71607371D01*
X72540809Y-71654990D01*
X72159857Y-71654990D01*
X73683666Y-72131180D02*
X73112238Y-72131180D01*
X73397952Y-72131180D02*
X73397952Y-71131180D01*
X73302714Y-71274038D01*
X73207476Y-71369276D01*
X73112238Y-71416895D01*
%TO.C,R1*%
X44029333Y-74544180D02*
X43696000Y-74067990D01*
X43457904Y-74544180D02*
X43457904Y-73544180D01*
X43838857Y-73544180D01*
X43934095Y-73591800D01*
X43981714Y-73639419D01*
X44029333Y-73734657D01*
X44029333Y-73877514D01*
X43981714Y-73972752D01*
X43934095Y-74020371D01*
X43838857Y-74067990D01*
X43457904Y-74067990D01*
X44981714Y-74544180D02*
X44410285Y-74544180D01*
X44696000Y-74544180D02*
X44696000Y-73544180D01*
X44600761Y-73687038D01*
X44505523Y-73782276D01*
X44410285Y-73829895D01*
X42403828Y-75941180D02*
X41832400Y-75941180D01*
X42118114Y-75941180D02*
X42118114Y-74941180D01*
X42022876Y-75084038D01*
X41927638Y-75179276D01*
X41832400Y-75226895D01*
X42832400Y-75845942D02*
X42880019Y-75893561D01*
X42832400Y-75941180D01*
X42784780Y-75893561D01*
X42832400Y-75845942D01*
X42832400Y-75941180D01*
X43213352Y-74941180D02*
X43832400Y-74941180D01*
X43499066Y-75322133D01*
X43641923Y-75322133D01*
X43737161Y-75369752D01*
X43784780Y-75417371D01*
X43832400Y-75512609D01*
X43832400Y-75750704D01*
X43784780Y-75845942D01*
X43737161Y-75893561D01*
X43641923Y-75941180D01*
X43356209Y-75941180D01*
X43260971Y-75893561D01*
X43213352Y-75845942D01*
X44260971Y-75941180D02*
X44260971Y-74941180D01*
X44832400Y-75941180D02*
X44403828Y-75369752D01*
X44832400Y-74941180D02*
X44260971Y-75512609D01*
%TO.C,J4*%
X82673866Y-52792380D02*
X82673866Y-53506666D01*
X82626247Y-53649523D01*
X82531009Y-53744761D01*
X82388152Y-53792380D01*
X82292914Y-53792380D01*
X83578628Y-53125714D02*
X83578628Y-53792380D01*
X83340533Y-52744761D02*
X83102438Y-53459047D01*
X83721485Y-53459047D01*
X86574428Y-52792380D02*
X86574428Y-53506666D01*
X86526809Y-53649523D01*
X86431571Y-53744761D01*
X86288714Y-53792380D01*
X86193476Y-53792380D01*
X87050619Y-53792380D02*
X87050619Y-52792380D01*
X87383952Y-53506666D01*
X87717285Y-52792380D01*
X87717285Y-53792380D01*
X88193476Y-53792380D02*
X88193476Y-52792380D01*
X88574428Y-52792380D01*
X88669666Y-52840000D01*
X88717285Y-52887619D01*
X88764904Y-52982857D01*
X88764904Y-53125714D01*
X88717285Y-53220952D01*
X88669666Y-53268571D01*
X88574428Y-53316190D01*
X88193476Y-53316190D01*
D12*
%TO.C,C11*%
X106951100Y-38722248D02*
X106951100Y-40144752D01*
X108771100Y-38722248D02*
X108771100Y-40144752D01*
D13*
%TO.C,U3*%
X134106631Y-66391911D02*
X130042631Y-66391911D01*
X134106631Y-61311911D02*
X134106631Y-66391911D01*
X130042631Y-61311911D02*
X134106631Y-61311911D01*
X130042631Y-66391911D02*
X130042631Y-61311911D01*
D12*
%TO.C,C5*%
X54424700Y-46820649D02*
G75*
G03*
X54424700Y-46820649I-4120000J0D01*
G01*
X49264700Y-47420649D02*
X46267700Y-47420649D01*
X53584700Y-49261649D02*
X47024700Y-49261649D01*
X54109700Y-48301649D02*
X51344700Y-48301649D01*
X49264700Y-48261649D02*
X46483700Y-48261649D01*
X54154700Y-48181649D02*
X51344700Y-48181649D01*
X49264700Y-48421649D02*
X46547700Y-48421649D01*
X52908700Y-49981649D02*
X47700700Y-49981649D01*
X51072700Y-50861649D02*
X49536700Y-50861649D01*
X53130700Y-49781649D02*
X47478700Y-49781649D01*
X53696700Y-49101649D02*
X51344700Y-49101649D01*
X53748700Y-49021649D02*
X51344700Y-49021649D01*
X49264700Y-48301649D02*
X46499700Y-48301649D01*
X49264700Y-48581649D02*
X46618700Y-48581649D01*
X54321700Y-47541649D02*
X51344700Y-47541649D01*
X53493700Y-49381649D02*
X47115700Y-49381649D01*
X54271700Y-47781649D02*
X51344700Y-47781649D01*
X54328700Y-47500649D02*
X51344700Y-47500649D01*
X53669700Y-49141649D02*
X46939700Y-49141649D01*
X54026700Y-48501649D02*
X51344700Y-48501649D01*
X51650700Y-50701649D02*
X48958700Y-50701649D01*
X49264700Y-48901649D02*
X46787700Y-48901649D01*
X49264700Y-47821649D02*
X46347700Y-47821649D01*
X49264700Y-47140649D02*
X46236700Y-47140649D01*
X49264700Y-47901649D02*
X46368700Y-47901649D01*
X54167700Y-48141649D02*
X51344700Y-48141649D01*
X49264700Y-48661649D02*
X46657700Y-48661649D01*
X52268700Y-50421649D02*
X48340700Y-50421649D01*
X49264700Y-47300649D02*
X46252700Y-47300649D01*
X54289700Y-47701649D02*
X51344700Y-47701649D01*
X54365700Y-47220649D02*
X51344700Y-47220649D01*
X52338700Y-50381649D02*
X48270700Y-50381649D01*
X53045700Y-49861649D02*
X47563700Y-49861649D01*
X54280700Y-47741649D02*
X51344700Y-47741649D01*
X49264700Y-48501649D02*
X46582700Y-48501649D01*
X53554700Y-49301649D02*
X47054700Y-49301649D01*
X52591700Y-50221649D02*
X48017700Y-50221649D01*
X49264700Y-48021649D02*
X46402700Y-48021649D01*
X49264700Y-47220649D02*
X46243700Y-47220649D01*
X53844700Y-48861649D02*
X51344700Y-48861649D01*
X54078700Y-48381649D02*
X51344700Y-48381649D01*
X54380700Y-47020649D02*
X46228700Y-47020649D01*
X49264700Y-47340649D02*
X46256700Y-47340649D01*
X49264700Y-47260649D02*
X46247700Y-47260649D01*
X54372700Y-47140649D02*
X51344700Y-47140649D01*
X54384700Y-46820649D02*
X46224700Y-46820649D01*
X49264700Y-47500649D02*
X46280700Y-47500649D01*
X53171700Y-49741649D02*
X47437700Y-49741649D01*
X49264700Y-47981649D02*
X46390700Y-47981649D01*
X54094700Y-48341649D02*
X51344700Y-48341649D01*
X49264700Y-48101649D02*
X46427700Y-48101649D01*
X49264700Y-48061649D02*
X46415700Y-48061649D01*
X54206700Y-48021649D02*
X51344700Y-48021649D01*
X49264700Y-48941649D02*
X46811700Y-48941649D01*
X53287700Y-49621649D02*
X47321700Y-49621649D01*
X53642700Y-49181649D02*
X46966700Y-49181649D01*
X53001700Y-49901649D02*
X47607700Y-49901649D01*
X54346700Y-47380649D02*
X51344700Y-47380649D01*
X52758700Y-50101649D02*
X47850700Y-50101649D01*
X51252700Y-50821649D02*
X49356700Y-50821649D01*
X54383700Y-46940649D02*
X46225700Y-46940649D01*
X49264700Y-47781649D02*
X46337700Y-47781649D01*
X53394700Y-49501649D02*
X47214700Y-49501649D01*
X49264700Y-48541649D02*
X46600700Y-48541649D01*
X49264700Y-47060649D02*
X46230700Y-47060649D01*
X54240700Y-47901649D02*
X51344700Y-47901649D01*
X53970700Y-48621649D02*
X51344700Y-48621649D01*
X53773700Y-48981649D02*
X51344700Y-48981649D01*
X53323700Y-49581649D02*
X47285700Y-49581649D01*
X49264700Y-48981649D02*
X46835700Y-48981649D01*
X52035700Y-50541649D02*
X48573700Y-50541649D01*
X49264700Y-48141649D02*
X46441700Y-48141649D01*
X49264700Y-48781649D02*
X46720700Y-48781649D01*
X52619700Y-42410951D02*
X52619700Y-43210951D01*
X54218700Y-47981649D02*
X51344700Y-47981649D01*
X52406700Y-50341649D02*
X48202700Y-50341649D01*
X53888700Y-48781649D02*
X51344700Y-48781649D01*
X49264700Y-48381649D02*
X46530700Y-48381649D01*
X49264700Y-48461649D02*
X46564700Y-48461649D01*
X53088700Y-49821649D02*
X47520700Y-49821649D01*
X49264700Y-47541649D02*
X46287700Y-47541649D01*
X53524700Y-49341649D02*
X47084700Y-49341649D01*
X54181700Y-48101649D02*
X51344700Y-48101649D01*
X49264700Y-49101649D02*
X46912700Y-49101649D01*
X49264700Y-47380649D02*
X46262700Y-47380649D01*
X54384700Y-46860649D02*
X46224700Y-46860649D01*
X49264700Y-49061649D02*
X46886700Y-49061649D01*
X49264700Y-49021649D02*
X46860700Y-49021649D01*
X49264700Y-48341649D02*
X46514700Y-48341649D01*
X54044700Y-48461649D02*
X51344700Y-48461649D01*
X52809700Y-50061649D02*
X47799700Y-50061649D01*
X53910700Y-48741649D02*
X51344700Y-48741649D01*
X54125700Y-48261649D02*
X51344700Y-48261649D01*
X51949700Y-50581649D02*
X48659700Y-50581649D01*
X54341700Y-47420649D02*
X51344700Y-47420649D01*
X54306700Y-47621649D02*
X51344700Y-47621649D01*
X52470700Y-50301649D02*
X48138700Y-50301649D01*
X49264700Y-48181649D02*
X46454700Y-48181649D01*
X54334700Y-47460649D02*
X51344700Y-47460649D01*
X54229700Y-47941649D02*
X51344700Y-47941649D01*
X54061700Y-48421649D02*
X51344700Y-48421649D01*
X50837700Y-50901649D02*
X49771700Y-50901649D01*
X53722700Y-49061649D02*
X51344700Y-49061649D01*
X49264700Y-47701649D02*
X46319700Y-47701649D01*
X54251700Y-47861649D02*
X51344700Y-47861649D01*
X49264700Y-47460649D02*
X46274700Y-47460649D01*
X49264700Y-47180649D02*
X46239700Y-47180649D01*
X52532700Y-50261649D02*
X48076700Y-50261649D01*
X53211700Y-49701649D02*
X47397700Y-49701649D01*
X54008700Y-48541649D02*
X51344700Y-48541649D01*
X52117700Y-50501649D02*
X48491700Y-50501649D01*
X54193700Y-48061649D02*
X51344700Y-48061649D01*
X51533700Y-50741649D02*
X49075700Y-50741649D01*
X54298700Y-47661649D02*
X51344700Y-47661649D01*
X54384700Y-46900649D02*
X46224700Y-46900649D01*
X53428700Y-49461649D02*
X47180700Y-49461649D01*
X49264700Y-48701649D02*
X46677700Y-48701649D01*
X51757700Y-50661649D02*
X48851700Y-50661649D01*
X52194700Y-50461649D02*
X48414700Y-50461649D01*
X52955700Y-49941649D02*
X47653700Y-49941649D01*
X52704700Y-50141649D02*
X47904700Y-50141649D01*
X49264700Y-47621649D02*
X46302700Y-47621649D01*
X54361700Y-47260649D02*
X51344700Y-47260649D01*
X49264700Y-48821649D02*
X46742700Y-48821649D01*
X49264700Y-47661649D02*
X46310700Y-47661649D01*
X49264700Y-47100649D02*
X46233700Y-47100649D01*
X53613700Y-49221649D02*
X46995700Y-49221649D01*
X49264700Y-48221649D02*
X46469700Y-48221649D01*
X51402700Y-50781649D02*
X49206700Y-50781649D01*
X54352700Y-47340649D02*
X51344700Y-47340649D01*
X54139700Y-48221649D02*
X51344700Y-48221649D01*
X52860700Y-50021649D02*
X47748700Y-50021649D01*
X54314700Y-47581649D02*
X51344700Y-47581649D01*
X53249700Y-49661649D02*
X47359700Y-49661649D01*
X53821700Y-48901649D02*
X51344700Y-48901649D01*
X51856700Y-50621649D02*
X48752700Y-50621649D01*
X49264700Y-47861649D02*
X46357700Y-47861649D01*
X52649700Y-50181649D02*
X47959700Y-50181649D01*
X54369700Y-47180649D02*
X51344700Y-47180649D01*
X53019700Y-42810951D02*
X52219700Y-42810951D01*
X54356700Y-47300649D02*
X51344700Y-47300649D01*
X49264700Y-48741649D02*
X46698700Y-48741649D01*
X53797700Y-48941649D02*
X51344700Y-48941649D01*
X54381700Y-46980649D02*
X46227700Y-46980649D01*
X54378700Y-47060649D02*
X51344700Y-47060649D01*
X53359700Y-49541649D02*
X47249700Y-49541649D01*
X53460700Y-49421649D02*
X47148700Y-49421649D01*
X49264700Y-47581649D02*
X46294700Y-47581649D01*
X53866700Y-48821649D02*
X51344700Y-48821649D01*
X49264700Y-48621649D02*
X46638700Y-48621649D01*
X49264700Y-48861649D02*
X46764700Y-48861649D01*
X53931700Y-48701649D02*
X51344700Y-48701649D01*
X54261700Y-47821649D02*
X51344700Y-47821649D01*
X49264700Y-47941649D02*
X46379700Y-47941649D01*
X54375700Y-47100649D02*
X51344700Y-47100649D01*
X49264700Y-47741649D02*
X46328700Y-47741649D01*
X53951700Y-48661649D02*
X51344700Y-48661649D01*
X53990700Y-48581649D02*
X51344700Y-48581649D01*
%TO.C,C7*%
X71628052Y-55901000D02*
X70205548Y-55901000D01*
X71628052Y-54081000D02*
X70205548Y-54081000D01*
%TO.C,R18*%
X122020631Y-56958975D02*
X122020631Y-55504847D01*
X123840631Y-56958975D02*
X123840631Y-55504847D01*
%TO.C,C2*%
X48408000Y-67436948D02*
X48408000Y-68859452D01*
X46588000Y-67436948D02*
X46588000Y-68859452D01*
%TO.C,C12*%
X96442831Y-59457659D02*
X96442831Y-60880163D01*
X98262831Y-59457659D02*
X98262831Y-60880163D01*
%TO.C,R5*%
X69727400Y-82057864D02*
X69727400Y-80603736D01*
X71547400Y-82057864D02*
X71547400Y-80603736D01*
%TO.C,R12*%
X96154631Y-80606375D02*
X96154631Y-79152247D01*
X94334631Y-80606375D02*
X94334631Y-79152247D01*
%TO.C,C1*%
X40333348Y-77499800D02*
X41755852Y-77499800D01*
X40333348Y-79319800D02*
X41755852Y-79319800D01*
%TO.C,C9*%
X96427500Y-42418849D02*
X90389500Y-42418849D01*
X92368500Y-39937849D02*
X89337500Y-39937849D01*
X92368500Y-40818849D02*
X89494500Y-40818849D01*
X92368500Y-41138849D02*
X89603500Y-41138849D01*
X92368500Y-40898849D02*
X89519500Y-40898849D01*
X92368500Y-40858849D02*
X89506500Y-40858849D01*
X92368500Y-40618849D02*
X89441500Y-40618849D01*
X96234500Y-42618849D02*
X90582500Y-42618849D01*
X96925500Y-41738849D02*
X94448500Y-41738849D01*
X92368500Y-41058849D02*
X89573500Y-41058849D01*
X96059500Y-42778849D02*
X90757500Y-42778849D01*
X95574500Y-43138849D02*
X91242500Y-43138849D01*
X97418500Y-40418849D02*
X94448500Y-40418849D01*
X97460500Y-40137849D02*
X94448500Y-40137849D01*
X97488500Y-39657849D02*
X89328500Y-39657849D01*
X92368500Y-41378849D02*
X89704500Y-41378849D01*
X92368500Y-41098849D02*
X89587500Y-41098849D01*
X96992500Y-41618849D02*
X94448500Y-41618849D01*
X92368500Y-41498849D02*
X89761500Y-41498849D01*
X97456500Y-40177849D02*
X94448500Y-40177849D01*
X96315500Y-42538849D02*
X90501500Y-42538849D01*
X97094500Y-41418849D02*
X94448500Y-41418849D01*
X96948500Y-41698849D02*
X94448500Y-41698849D01*
X96746500Y-42018849D02*
X90070500Y-42018849D01*
X97482500Y-39897849D02*
X94448500Y-39897849D01*
X92368500Y-39977849D02*
X89340500Y-39977849D01*
X96877500Y-41818849D02*
X94448500Y-41818849D01*
X92368500Y-40217849D02*
X89366500Y-40217849D01*
X96463500Y-42378849D02*
X90353500Y-42378849D01*
X96970500Y-41658849D02*
X94448500Y-41658849D01*
X97488500Y-39737849D02*
X89328500Y-39737849D01*
X96532500Y-42298849D02*
X90284500Y-42298849D01*
X96597500Y-42218849D02*
X90219500Y-42218849D01*
X96717500Y-42058849D02*
X90099500Y-42058849D01*
X97165500Y-41258849D02*
X94448500Y-41258849D01*
X94506500Y-43618849D02*
X92310500Y-43618849D01*
X92368500Y-40938849D02*
X89531500Y-40938849D01*
X97393500Y-40538849D02*
X94448500Y-40538849D01*
X97148500Y-41298849D02*
X94448500Y-41298849D01*
X92368500Y-39897849D02*
X89334500Y-39897849D01*
X97488500Y-39697849D02*
X89328500Y-39697849D01*
X95221500Y-43338849D02*
X91595500Y-43338849D01*
X92368500Y-41898849D02*
X89990500Y-41898849D01*
X97333500Y-40778849D02*
X94448500Y-40778849D01*
X92368500Y-40418849D02*
X89398500Y-40418849D01*
X92368500Y-40177849D02*
X89360500Y-40177849D01*
X92368500Y-40578849D02*
X89432500Y-40578849D01*
X97182500Y-41218849D02*
X94448500Y-41218849D01*
X94960500Y-43458849D02*
X91856500Y-43458849D01*
X97198500Y-41178849D02*
X94448500Y-41178849D01*
X97476500Y-39977849D02*
X94448500Y-39977849D01*
X96826500Y-41898849D02*
X94448500Y-41898849D01*
X97055500Y-41498849D02*
X94448500Y-41498849D01*
X97432500Y-40337849D02*
X94448500Y-40337849D01*
X95723500Y-35248151D02*
X95723500Y-36048151D01*
X92368500Y-41818849D02*
X89939500Y-41818849D01*
X96773500Y-41978849D02*
X90043500Y-41978849D01*
X94754500Y-43538849D02*
X92062500Y-43538849D01*
X96628500Y-42178849D02*
X90188500Y-42178849D01*
X97487500Y-39777849D02*
X89329500Y-39777849D01*
X97425500Y-40378849D02*
X94448500Y-40378849D01*
X92368500Y-41178849D02*
X89618500Y-41178849D01*
X97375500Y-40618849D02*
X94448500Y-40618849D01*
X92368500Y-41658849D02*
X89846500Y-41658849D01*
X92368500Y-41298849D02*
X89668500Y-41298849D01*
X97258500Y-41018849D02*
X94448500Y-41018849D01*
X97402500Y-40498849D02*
X94448500Y-40498849D01*
X95053500Y-43418849D02*
X91763500Y-43418849D01*
X97344500Y-40738849D02*
X94448500Y-40738849D01*
X92368500Y-40738849D02*
X89472500Y-40738849D01*
X92368500Y-41018849D02*
X89558500Y-41018849D01*
X95753500Y-43018849D02*
X91063500Y-43018849D01*
X96275500Y-42578849D02*
X90541500Y-42578849D01*
X92368500Y-40137849D02*
X89356500Y-40137849D01*
X95139500Y-43378849D02*
X91677500Y-43378849D01*
X94356500Y-43658849D02*
X92460500Y-43658849D01*
X95808500Y-42978849D02*
X91008500Y-42978849D01*
X92368500Y-40297849D02*
X89378500Y-40297849D01*
X92368500Y-41938849D02*
X90016500Y-41938849D01*
X97410500Y-40458849D02*
X94448500Y-40458849D01*
X96105500Y-42738849D02*
X90711500Y-42738849D01*
X97014500Y-41578849D02*
X94448500Y-41578849D01*
X97445500Y-40257849D02*
X94448500Y-40257849D01*
X97450500Y-40217849D02*
X94448500Y-40217849D01*
X97310500Y-40858849D02*
X94448500Y-40858849D01*
X92368500Y-40778849D02*
X89483500Y-40778849D01*
X97485500Y-39817849D02*
X89331500Y-39817849D01*
X95964500Y-42858849D02*
X90852500Y-42858849D01*
X95298500Y-43298849D02*
X91518500Y-43298849D01*
X97438500Y-40297849D02*
X94448500Y-40297849D01*
X92368500Y-41338849D02*
X89686500Y-41338849D01*
X96149500Y-42698849D02*
X90667500Y-42698849D01*
X97465500Y-40097849D02*
X94448500Y-40097849D01*
X95510500Y-43178849D02*
X91306500Y-43178849D01*
X92368500Y-40658849D02*
X89451500Y-40658849D01*
X92368500Y-41218849D02*
X89634500Y-41218849D01*
X92368500Y-41538849D02*
X89781500Y-41538849D01*
X92368500Y-41258849D02*
X89651500Y-41258849D01*
X97074500Y-41458849D02*
X94448500Y-41458849D01*
X96391500Y-42458849D02*
X90425500Y-42458849D01*
X94637500Y-43578849D02*
X92179500Y-43578849D01*
X93941500Y-43738849D02*
X92875500Y-43738849D01*
X97479500Y-39937849D02*
X94448500Y-39937849D01*
X97285500Y-40938849D02*
X94448500Y-40938849D01*
X92368500Y-41618849D02*
X89824500Y-41618849D01*
X96012500Y-42818849D02*
X90804500Y-42818849D01*
X92368500Y-40378849D02*
X89391500Y-40378849D01*
X92368500Y-41698849D02*
X89868500Y-41698849D01*
X92368500Y-40097849D02*
X89351500Y-40097849D01*
X97035500Y-41538849D02*
X94448500Y-41538849D01*
X97322500Y-40818849D02*
X94448500Y-40818849D01*
X96658500Y-42138849D02*
X90158500Y-42138849D01*
X92368500Y-40257849D02*
X89371500Y-40257849D01*
X92368500Y-41778849D02*
X89915500Y-41778849D01*
X97271500Y-40978849D02*
X94448500Y-40978849D01*
X97213500Y-41138849D02*
X94448500Y-41138849D01*
X95913500Y-42898849D02*
X90903500Y-42898849D01*
X97473500Y-40017849D02*
X94448500Y-40017849D01*
X92368500Y-41738849D02*
X89891500Y-41738849D01*
X96192500Y-42658849D02*
X90624500Y-42658849D01*
X92368500Y-40057849D02*
X89347500Y-40057849D01*
X97112500Y-41378849D02*
X94448500Y-41378849D01*
X97355500Y-40698849D02*
X94448500Y-40698849D01*
X92368500Y-40337849D02*
X89384500Y-40337849D01*
X92368500Y-40538849D02*
X89423500Y-40538849D01*
X96498500Y-42338849D02*
X90318500Y-42338849D01*
X95695500Y-43058849D02*
X91121500Y-43058849D01*
X92368500Y-41858849D02*
X89964500Y-41858849D01*
X97229500Y-41098849D02*
X94448500Y-41098849D01*
X94176500Y-43698849D02*
X92640500Y-43698849D01*
X97469500Y-40057849D02*
X94448500Y-40057849D01*
X96800500Y-41938849D02*
X94448500Y-41938849D01*
X97297500Y-40898849D02*
X94448500Y-40898849D01*
X97243500Y-41058849D02*
X94448500Y-41058849D01*
X97384500Y-40578849D02*
X94448500Y-40578849D01*
X92368500Y-41458849D02*
X89742500Y-41458849D01*
X95636500Y-43098849D02*
X91180500Y-43098849D01*
X97484500Y-39857849D02*
X89332500Y-39857849D01*
X96852500Y-41858849D02*
X94448500Y-41858849D01*
X96901500Y-41778849D02*
X94448500Y-41778849D01*
X96688500Y-42098849D02*
X90128500Y-42098849D01*
X92368500Y-40698849D02*
X89461500Y-40698849D01*
X97365500Y-40658849D02*
X94448500Y-40658849D01*
X92368500Y-40498849D02*
X89414500Y-40498849D01*
X92368500Y-40458849D02*
X89406500Y-40458849D01*
X96353500Y-42498849D02*
X90463500Y-42498849D01*
X95372500Y-43258849D02*
X91444500Y-43258849D01*
X92368500Y-41578849D02*
X89802500Y-41578849D01*
X95442500Y-43218849D02*
X91374500Y-43218849D01*
X92368500Y-41418849D02*
X89722500Y-41418849D01*
X92368500Y-40017849D02*
X89343500Y-40017849D01*
X96123500Y-35648151D02*
X95323500Y-35648151D01*
X94861500Y-43498849D02*
X91955500Y-43498849D01*
X95862500Y-42938849D02*
X90954500Y-42938849D01*
X92368500Y-40978849D02*
X89545500Y-40978849D01*
X96564500Y-42258849D02*
X90252500Y-42258849D01*
X97130500Y-41338849D02*
X94448500Y-41338849D01*
X97528500Y-39657849D02*
G75*
G03*
X97528500Y-39657849I-4120000J0D01*
G01*
%TO.C,T2*%
X113526133Y-60448311D02*
G75*
G03*
X113526133Y-60448311I-5403702J0D01*
G01*
X110124929Y-60448311D02*
G75*
G03*
X110124929Y-60448311I-2002498J0D01*
G01*
D13*
%TO.C,U1*%
X32639000Y-86233000D02*
X36703000Y-86233000D01*
X36703000Y-86233000D02*
X36703000Y-91313000D01*
X32639000Y-91313000D02*
X32639000Y-86233000D01*
X36703000Y-91313000D02*
X32639000Y-91313000D01*
D12*
%TO.C,C14*%
X116938083Y-52849311D02*
X115515579Y-52849311D01*
X116938083Y-51029311D02*
X115515579Y-51029311D01*
%TO.C,R6*%
X71535936Y-84751500D02*
X72990064Y-84751500D01*
X71535936Y-86571500D02*
X72990064Y-86571500D01*
%TO.C,R10*%
X78964200Y-60010664D02*
X78964200Y-58556536D01*
X77144200Y-60010664D02*
X77144200Y-58556536D01*
%TO.C,C4*%
X74798600Y-80568748D02*
X74798600Y-81991252D01*
X72978600Y-80568748D02*
X72978600Y-81991252D01*
%TO.C,D1*%
X75656100Y-36109300D02*
X70216100Y-36109300D01*
X70216100Y-39049300D02*
X75656100Y-39049300D01*
X69196100Y-37579300D02*
X70216100Y-37579300D01*
X74636100Y-39049300D02*
X74636100Y-36109300D01*
X75656100Y-39049300D02*
X75656100Y-36109300D01*
X74876100Y-39049300D02*
X74876100Y-36109300D01*
X70216100Y-36109300D02*
X70216100Y-39049300D01*
X74756100Y-39049300D02*
X74756100Y-36109300D01*
X76676100Y-37579300D02*
X75656100Y-37579300D01*
%TO.C,TP2*%
X117916631Y-69531311D02*
X117916631Y-71431311D01*
X117916631Y-71431311D02*
X119766631Y-71431311D01*
X119766631Y-69531311D02*
X117916631Y-69531311D01*
X119766631Y-71431311D02*
X119766631Y-69581311D01*
X119766631Y-69581311D02*
X119766631Y-69531311D01*
%TO.C,R11*%
X95969500Y-75530064D02*
X95969500Y-74075936D01*
X94149500Y-75530064D02*
X94149500Y-74075936D01*
%TO.C,R9*%
X75320536Y-55977200D02*
X76774664Y-55977200D01*
X75320536Y-54157200D02*
X76774664Y-54157200D01*
%TO.C,C8*%
X102827500Y-38976248D02*
X102827500Y-40398752D01*
X101007500Y-38976248D02*
X101007500Y-40398752D01*
%TO.C,R3*%
X43057400Y-68951464D02*
X43057400Y-67497336D01*
X44877400Y-68951464D02*
X44877400Y-67497336D01*
%TO.C,C13*%
X123891431Y-80107859D02*
X123891431Y-81530363D01*
X122071431Y-80107859D02*
X122071431Y-81530363D01*
%TO.C,R13*%
X94910031Y-61073775D02*
X94910031Y-59619647D01*
X93090031Y-61073775D02*
X93090031Y-59619647D01*
%TO.C,R16*%
X120132231Y-57035175D02*
X120132231Y-55581047D01*
X118312231Y-57035175D02*
X118312231Y-55581047D01*
%TO.C,D2*%
X82982300Y-44808500D02*
X83138300Y-44808500D01*
X80666300Y-44808500D02*
X80822300Y-44808500D01*
X82982300Y-44289461D02*
G75*
G03*
X82982137Y-42207370I-1080000J1040961D01*
G01*
X80823692Y-41576165D02*
G75*
G03*
X80666784Y-44808500I1078608J-1672335D01*
G01*
X80822463Y-42207370D02*
G75*
G03*
X80822300Y-44289461I1079837J-1041130D01*
G01*
X83137816Y-44808500D02*
G75*
G03*
X82980908Y-41576165I-1235516J1560000D01*
G01*
%TO.C,R17*%
X120618067Y-50902311D02*
X122072195Y-50902311D01*
X120618067Y-52722311D02*
X122072195Y-52722311D01*
%TO.C,C6*%
X43044700Y-46292597D02*
X43044700Y-47715101D01*
X44864700Y-46292597D02*
X44864700Y-47715101D01*
%TO.C,Q1*%
X54608161Y-82694656D02*
X55499116Y-81803702D01*
X53830344Y-81916839D02*
X54608161Y-82694656D01*
X54721298Y-81025884D02*
X53830344Y-81916839D01*
X55498829Y-81803474D02*
G75*
G03*
X54721298Y-81025884I2997371J3774674D01*
G01*
%TO.C,Q2*%
X102979344Y-81434239D02*
X103757161Y-82212056D01*
X103757161Y-82212056D02*
X104648116Y-81321102D01*
X103870298Y-80543284D02*
X102979344Y-81434239D01*
X104647829Y-81320874D02*
G75*
G03*
X103870298Y-80543284I2997371J3774674D01*
G01*
%TO.C,R4*%
X75593564Y-42765300D02*
X74139436Y-42765300D01*
X75593564Y-44585300D02*
X74139436Y-44585300D01*
%TO.C,R19*%
X81079964Y-51087700D02*
X79625836Y-51087700D01*
X81079964Y-49267700D02*
X79625836Y-49267700D01*
%TO.C,R8*%
X75179600Y-60126964D02*
X75179600Y-58672836D01*
X73359600Y-60126964D02*
X73359600Y-58672836D01*
%TO.C,C10*%
X92042483Y-75718111D02*
X90619979Y-75718111D01*
X92042483Y-77538111D02*
X90619979Y-77538111D01*
%TO.C,R7*%
X81901136Y-36567700D02*
X83355264Y-36567700D01*
X81901136Y-38387700D02*
X83355264Y-38387700D01*
%TO.C,C3*%
X57310700Y-46419597D02*
X57310700Y-47842101D01*
X55490700Y-46419597D02*
X55490700Y-47842101D01*
%TO.C,R2*%
X47392000Y-82021764D02*
X47392000Y-80567636D01*
X45572000Y-82021764D02*
X45572000Y-80567636D01*
%TO.C,T1*%
X60955898Y-61087000D02*
G75*
G03*
X60955898Y-61087000I-2002498J0D01*
G01*
X64357102Y-61087000D02*
G75*
G03*
X64357102Y-61087000I-5403702J0D01*
G01*
%TO.C,J3*%
X64428300Y-31956700D02*
X64428300Y-34616700D01*
X69568300Y-31956700D02*
X64428300Y-31956700D01*
X70838300Y-31956700D02*
X72168300Y-31956700D01*
X69568300Y-34616700D02*
X64428300Y-34616700D01*
X72168300Y-31956700D02*
X72168300Y-33286700D01*
X69568300Y-31956700D02*
X69568300Y-34616700D01*
%TO.C,R14*%
X119226631Y-81673175D02*
X119226631Y-80219047D01*
X121046631Y-81673175D02*
X121046631Y-80219047D01*
%TO.C,J2*%
X131666031Y-51048111D02*
X131666031Y-53948111D01*
X138376031Y-51048111D02*
X138376031Y-53948111D01*
X133571031Y-55853111D02*
X136471031Y-55853111D01*
X133571031Y-49143111D02*
X136471031Y-49143111D01*
%TO.C,J1*%
X36273400Y-76375600D02*
X36273400Y-79275600D01*
X31468400Y-81180600D02*
X34368400Y-81180600D01*
X31468400Y-74470600D02*
X34368400Y-74470600D01*
X29563400Y-76375600D02*
X29563400Y-79275600D01*
%TO.C,C15*%
X127248683Y-52900111D02*
X125826179Y-52900111D01*
X127248683Y-51080111D02*
X125826179Y-51080111D01*
D13*
%TO.C,U2*%
X78943200Y-69519800D02*
X84023200Y-69519800D01*
X84023200Y-73583800D02*
X78943200Y-73583800D01*
X84023200Y-69519800D02*
X84023200Y-73583800D01*
X78943200Y-73583800D02*
X78943200Y-69519800D01*
D12*
%TO.C,R15*%
X120811936Y-86190500D02*
X122266064Y-86190500D01*
X120811936Y-84370500D02*
X122266064Y-84370500D01*
%TO.C,TP1*%
X68620600Y-70678000D02*
X68620600Y-72578000D01*
X68620600Y-72578000D02*
X70470600Y-72578000D01*
X70470600Y-70678000D02*
X68620600Y-70678000D01*
X70470600Y-70728000D02*
X70470600Y-70678000D01*
X70470600Y-72578000D02*
X70470600Y-70728000D01*
%TO.C,R1*%
X45318000Y-76596864D02*
X45318000Y-75142736D01*
X47138000Y-76596864D02*
X47138000Y-75142736D01*
%TO.C,J4*%
X82739000Y-54722800D02*
X84069000Y-54722800D01*
X82739000Y-59922800D02*
X87939000Y-59922800D01*
X82739000Y-57322800D02*
X85339000Y-57322800D01*
X87939000Y-54722800D02*
X87939000Y-59922800D01*
X82739000Y-57322800D02*
X82739000Y-59922800D01*
X85339000Y-54722800D02*
X87939000Y-54722800D01*
X82739000Y-56052800D02*
X82739000Y-54722800D01*
X85339000Y-57322800D02*
X85339000Y-54722800D01*
%TD*%
M02*
