M48
; DRILL file {KiCad (6.0.7)} date Thu Jan 19 20:45:29 2023
; FORMAT={-:-/ absolute / metric / decimal}
; #@! TF.CreationDate,2023-01-19T20:45:29-05:00
; #@! TF.GenerationSoftware,Kicad,Pcbnew,(6.0.7)
; #@! TF.FileFunction,MixedPlating,1,2
FMAT,2
METRIC
; #@! TA.AperFunction,Plated,PTH,ComponentDrill
T1C1.000
%
G90
G05
T1
X50.305Y-45.571
X50.305Y-48.071
X52.453Y-58.087
X52.453Y-64.087
X58.496Y-75.489
X58.496Y-80.569
X61.036Y-78.029
X65.453Y-58.087
X65.453Y-64.087
X65.758Y-33.287
X67.856Y-37.579
X68.298Y-33.287
X69.571Y-71.628
X70.838Y-33.287
X78.016Y-37.579
X81.902Y-41.978
X81.902Y-44.518
X84.069Y-56.053
X84.069Y-58.593
X86.609Y-56.053
X86.609Y-58.593
X93.408Y-38.408
X93.408Y-40.908
X101.622Y-57.448
X101.622Y-63.448
X107.645Y-75.006
X107.645Y-80.086
X110.185Y-77.546
X114.622Y-57.448
X114.622Y-63.448
X118.867Y-70.481
T0
M30
