%TF.GenerationSoftware,KiCad,Pcbnew,(6.0.7)*%
%TF.CreationDate,2023-01-19T20:49:39-05:00*%
%TF.ProjectId,Phoenix612_Stage_2_PA_Testing_v1,50686f65-6e69-4783-9631-325f53746167,rev?*%
%TF.SameCoordinates,Original*%
%TF.FileFunction,Soldermask,Top*%
%TF.FilePolarity,Negative*%
%FSLAX46Y46*%
G04 Gerber Fmt 4.6, Leading zero omitted, Abs format (unit mm)*
G04 Created by KiCad (PCBNEW (6.0.7)) date 2023-01-19 20:49:39*
%MOMM*%
%LPD*%
G01*
G04 APERTURE LIST*
G04 Aperture macros list*
%AMRoundRect*
0 Rectangle with rounded corners*
0 $1 Rounding radius*
0 $2 $3 $4 $5 $6 $7 $8 $9 X,Y pos of 4 corners*
0 Add a 4 corners polygon primitive as box body*
4,1,4,$2,$3,$4,$5,$6,$7,$8,$9,$2,$3,0*
0 Add four circle primitives for the rounded corners*
1,1,$1+$1,$2,$3*
1,1,$1+$1,$4,$5*
1,1,$1+$1,$6,$7*
1,1,$1+$1,$8,$9*
0 Add four rect primitives between the rounded corners*
20,1,$1+$1,$2,$3,$4,$5,0*
20,1,$1+$1,$4,$5,$6,$7,0*
20,1,$1+$1,$6,$7,$8,$9,0*
20,1,$1+$1,$8,$9,$2,$3,0*%
G04 Aperture macros list end*
%ADD10RoundRect,0.250000X-0.650000X0.325000X-0.650000X-0.325000X0.650000X-0.325000X0.650000X0.325000X0*%
%ADD11R,4.000000X1.000000*%
%ADD12R,2.200000X1.050000*%
%ADD13O,4.000000X2.000000*%
%ADD14RoundRect,0.250000X0.325000X0.650000X-0.325000X0.650000X-0.325000X-0.650000X0.325000X-0.650000X0*%
%ADD15RoundRect,0.250000X0.625000X-0.312500X0.625000X0.312500X-0.625000X0.312500X-0.625000X-0.312500X0*%
%ADD16RoundRect,0.250000X-0.325000X-0.650000X0.325000X-0.650000X0.325000X0.650000X-0.325000X0.650000X0*%
%ADD17C,3.000000*%
%ADD18RoundRect,0.250000X-0.312500X-0.625000X0.312500X-0.625000X0.312500X0.625000X-0.312500X0.625000X0*%
%ADD19O,3.000000X2.000000*%
%ADD20C,2.000000*%
%ADD21O,2.500000X2.500000*%
%ADD22RoundRect,0.250000X0.312500X0.625000X-0.312500X0.625000X-0.312500X-0.625000X0.312500X-0.625000X0*%
%ADD23O,2.000000X3.000000*%
%ADD24C,2.250000*%
%ADD25R,1.000000X1.050000*%
%ADD26R,1.050000X2.200000*%
%ADD27O,2.000000X2.000000*%
G04 APERTURE END LIST*
D10*
%TO.C,C11*%
X107861100Y-37958500D03*
X107861100Y-40908500D03*
%TD*%
D11*
%TO.C,U3*%
X131057631Y-63851911D03*
D12*
X132582631Y-65326911D03*
X132582631Y-62376911D03*
%TD*%
D13*
%TO.C,C5*%
X50304700Y-48070649D03*
X50304700Y-45570649D03*
%TD*%
D14*
%TO.C,C7*%
X72391800Y-54991000D03*
X69441800Y-54991000D03*
%TD*%
D15*
%TO.C,R18*%
X122930631Y-57694411D03*
X122930631Y-54769411D03*
%TD*%
D10*
%TO.C,C2*%
X47498000Y-66673200D03*
X47498000Y-69623200D03*
%TD*%
%TO.C,C12*%
X97352831Y-58693911D03*
X97352831Y-61643911D03*
%TD*%
D15*
%TO.C,R5*%
X70637400Y-82793300D03*
X70637400Y-79868300D03*
%TD*%
%TO.C,R12*%
X95244631Y-81341811D03*
X95244631Y-78416811D03*
%TD*%
D16*
%TO.C,C1*%
X39569600Y-78409800D03*
X42519600Y-78409800D03*
%TD*%
D13*
%TO.C,C9*%
X93408500Y-38407849D03*
X93408500Y-40907849D03*
%TD*%
D17*
%TO.C,T2*%
X114622431Y-57448311D03*
X101622431Y-57448311D03*
X114622431Y-63448311D03*
X101622431Y-63448311D03*
%TD*%
D11*
%TO.C,U1*%
X35688000Y-88773000D03*
D12*
X34163000Y-87298000D03*
X34163000Y-90248000D03*
%TD*%
D14*
%TO.C,C14*%
X117701831Y-51939311D03*
X114751831Y-51939311D03*
%TD*%
D18*
%TO.C,R6*%
X70800500Y-85661500D03*
X73725500Y-85661500D03*
%TD*%
D15*
%TO.C,R10*%
X78054200Y-60746100D03*
X78054200Y-57821100D03*
%TD*%
D10*
%TO.C,C4*%
X73888600Y-79805000D03*
X73888600Y-82755000D03*
%TD*%
D19*
%TO.C,D1*%
X78016100Y-37579300D03*
X67856100Y-37579300D03*
%TD*%
D20*
%TO.C,TP2*%
X118866631Y-70481311D03*
%TD*%
D15*
%TO.C,R11*%
X95059500Y-76265500D03*
X95059500Y-73340500D03*
%TD*%
D18*
%TO.C,R9*%
X74585100Y-55067200D03*
X77510100Y-55067200D03*
%TD*%
D10*
%TO.C,C8*%
X101917500Y-38212500D03*
X101917500Y-41162500D03*
%TD*%
D15*
%TO.C,R3*%
X43967400Y-69686900D03*
X43967400Y-66761900D03*
%TD*%
D10*
%TO.C,C13*%
X122981431Y-79344111D03*
X122981431Y-82294111D03*
%TD*%
D15*
%TO.C,R13*%
X94000031Y-61809211D03*
X94000031Y-58884211D03*
%TD*%
%TO.C,R16*%
X119222231Y-57770611D03*
X119222231Y-54845611D03*
%TD*%
D13*
%TO.C,D2*%
X81902300Y-44518500D03*
X81902300Y-41978500D03*
%TD*%
D18*
%TO.C,R17*%
X119882631Y-51812311D03*
X122807631Y-51812311D03*
%TD*%
D10*
%TO.C,C6*%
X43954700Y-45528849D03*
X43954700Y-48478849D03*
%TD*%
D21*
%TO.C,Q1*%
X58496200Y-80568800D03*
X61036200Y-78028800D03*
X58496200Y-75488800D03*
%TD*%
%TO.C,Q2*%
X107645200Y-80086200D03*
X110185200Y-77546200D03*
X107645200Y-75006200D03*
%TD*%
D22*
%TO.C,R4*%
X76329000Y-43675300D03*
X73404000Y-43675300D03*
%TD*%
%TO.C,R19*%
X81815400Y-50177700D03*
X78890400Y-50177700D03*
%TD*%
D15*
%TO.C,R8*%
X74269600Y-60862400D03*
X74269600Y-57937400D03*
%TD*%
D14*
%TO.C,C10*%
X92806231Y-76628111D03*
X89856231Y-76628111D03*
%TD*%
D18*
%TO.C,R7*%
X81165700Y-37477700D03*
X84090700Y-37477700D03*
%TD*%
D10*
%TO.C,C3*%
X56400700Y-45655849D03*
X56400700Y-48605849D03*
%TD*%
D15*
%TO.C,R2*%
X46482000Y-82757200D03*
X46482000Y-79832200D03*
%TD*%
D17*
%TO.C,T1*%
X65453400Y-58087000D03*
X52453400Y-58087000D03*
X65453400Y-64087000D03*
X52453400Y-64087000D03*
%TD*%
D23*
%TO.C,J3*%
X70838300Y-33286700D03*
X68298300Y-33286700D03*
X65758300Y-33286700D03*
%TD*%
D15*
%TO.C,R14*%
X120136631Y-82408611D03*
X120136631Y-79483611D03*
%TD*%
D24*
%TO.C,J2*%
X135021031Y-52498111D03*
X137561031Y-55038111D03*
X137561031Y-49958111D03*
X132481031Y-55038111D03*
X132481031Y-49958111D03*
%TD*%
%TO.C,J1*%
X32918400Y-77825600D03*
X30378400Y-80365600D03*
X30378400Y-75285600D03*
X35458400Y-75285600D03*
X35458400Y-80365600D03*
%TD*%
D14*
%TO.C,C15*%
X128012431Y-51990111D03*
X125062431Y-51990111D03*
%TD*%
D25*
%TO.C,U2*%
X81483200Y-70534800D03*
D26*
X80008200Y-72059800D03*
X82958200Y-72059800D03*
%TD*%
D18*
%TO.C,R15*%
X120076500Y-85280500D03*
X123001500Y-85280500D03*
%TD*%
D20*
%TO.C,TP1*%
X69570600Y-71628000D03*
%TD*%
D15*
%TO.C,R1*%
X46228000Y-77332300D03*
X46228000Y-74407300D03*
%TD*%
D27*
%TO.C,J4*%
X84069000Y-56052800D03*
X86609000Y-56052800D03*
X84069000Y-58592800D03*
X86609000Y-58592800D03*
%TD*%
M02*
