%TF.GenerationSoftware,KiCad,Pcbnew,(6.0.7)*%
%TF.CreationDate,2023-01-19T20:45:28-05:00*%
%TF.ProjectId,Phoenix612_Stage_2_PA_Testing_v1,50686f65-6e69-4783-9631-325f53746167,rev?*%
%TF.SameCoordinates,Original*%
%TF.FileFunction,Drillmap*%
%TF.FilePolarity,Positive*%
%FSLAX45Y45*%
G04 Gerber Fmt 4.5, Leading zero omitted, Abs format (unit mm)*
G04 Created by KiCad (PCBNEW (6.0.7)) date 2023-01-19 20:45:28*
%MOMM*%
%LPD*%
G01*
G04 APERTURE LIST*
%ADD10C,0.100000*%
%ADD11C,0.200000*%
G04 APERTURE END LIST*
D10*
X14112240Y-9479280D02*
X2730500Y-9479280D01*
X2730500Y-9479280D02*
X2730500Y-2661920D01*
X2730500Y-2661920D02*
X14112240Y-2661920D01*
X14112240Y-2661920D02*
X14112240Y-9479280D01*
D11*
D10*
X4980470Y-4507065D02*
X5080470Y-4607065D01*
X5080470Y-4507065D02*
X4980470Y-4607065D01*
X4980470Y-4757065D02*
X5080470Y-4857065D01*
X5080470Y-4757065D02*
X4980470Y-4857065D01*
X5195340Y-5758700D02*
X5295340Y-5858700D01*
X5295340Y-5758700D02*
X5195340Y-5858700D01*
X5195340Y-6358700D02*
X5295340Y-6458700D01*
X5295340Y-6358700D02*
X5195340Y-6458700D01*
X5799620Y-7498880D02*
X5899620Y-7598880D01*
X5899620Y-7498880D02*
X5799620Y-7598880D01*
X5799620Y-8006880D02*
X5899620Y-8106880D01*
X5899620Y-8006880D02*
X5799620Y-8106880D01*
X6053620Y-7752880D02*
X6153620Y-7852880D01*
X6153620Y-7752880D02*
X6053620Y-7852880D01*
X6495340Y-5758700D02*
X6595340Y-5858700D01*
X6595340Y-5758700D02*
X6495340Y-5858700D01*
X6495340Y-6358700D02*
X6595340Y-6458700D01*
X6595340Y-6358700D02*
X6495340Y-6458700D01*
X6525830Y-3278670D02*
X6625830Y-3378670D01*
X6625830Y-3278670D02*
X6525830Y-3378670D01*
X6735610Y-3707930D02*
X6835610Y-3807930D01*
X6835610Y-3707930D02*
X6735610Y-3807930D01*
X6779830Y-3278670D02*
X6879830Y-3378670D01*
X6879830Y-3278670D02*
X6779830Y-3378670D01*
X6907060Y-7112800D02*
X7007060Y-7212800D01*
X7007060Y-7112800D02*
X6907060Y-7212800D01*
X7033830Y-3278670D02*
X7133830Y-3378670D01*
X7133830Y-3278670D02*
X7033830Y-3378670D01*
X7751610Y-3707930D02*
X7851610Y-3807930D01*
X7851610Y-3707930D02*
X7751610Y-3807930D01*
X8140230Y-4147850D02*
X8240230Y-4247850D01*
X8240230Y-4147850D02*
X8140230Y-4247850D01*
X8140230Y-4401850D02*
X8240230Y-4501850D01*
X8240230Y-4401850D02*
X8140230Y-4501850D01*
X8356900Y-5555280D02*
X8456900Y-5655280D01*
X8456900Y-5555280D02*
X8356900Y-5655280D01*
X8356900Y-5809280D02*
X8456900Y-5909280D01*
X8456900Y-5809280D02*
X8356900Y-5909280D01*
X8610900Y-5555280D02*
X8710900Y-5655280D01*
X8710900Y-5555280D02*
X8610900Y-5655280D01*
X8610900Y-5809280D02*
X8710900Y-5909280D01*
X8710900Y-5809280D02*
X8610900Y-5909280D01*
X9290850Y-3790785D02*
X9390850Y-3890785D01*
X9390850Y-3790785D02*
X9290850Y-3890785D01*
X9290850Y-4040785D02*
X9390850Y-4140785D01*
X9390850Y-4040785D02*
X9290850Y-4140785D01*
X10112243Y-5694831D02*
X10212243Y-5794831D01*
X10212243Y-5694831D02*
X10112243Y-5794831D01*
X10112243Y-6294831D02*
X10212243Y-6394831D01*
X10212243Y-6294831D02*
X10112243Y-6394831D01*
X10714520Y-7450620D02*
X10814520Y-7550620D01*
X10814520Y-7450620D02*
X10714520Y-7550620D01*
X10714520Y-7958620D02*
X10814520Y-8058620D01*
X10814520Y-7958620D02*
X10714520Y-8058620D01*
X10968520Y-7704620D02*
X11068520Y-7804620D01*
X11068520Y-7704620D02*
X10968520Y-7804620D01*
X11412243Y-5694831D02*
X11512243Y-5794831D01*
X11512243Y-5694831D02*
X11412243Y-5794831D01*
X11412243Y-6294831D02*
X11512243Y-6394831D01*
X11512243Y-6294831D02*
X11412243Y-6394831D01*
X11836663Y-6998131D02*
X11936663Y-7098131D01*
X11936663Y-6998131D02*
X11836663Y-7098131D01*
D11*
X2983119Y-9794756D02*
X2983119Y-9594756D01*
X3030738Y-9594756D01*
X3059309Y-9604280D01*
X3078357Y-9623328D01*
X3087881Y-9642375D01*
X3097405Y-9680470D01*
X3097405Y-9709042D01*
X3087881Y-9747137D01*
X3078357Y-9766185D01*
X3059309Y-9785232D01*
X3030738Y-9794756D01*
X2983119Y-9794756D01*
X3183119Y-9794756D02*
X3183119Y-9661423D01*
X3183119Y-9699518D02*
X3192643Y-9680470D01*
X3202167Y-9670947D01*
X3221214Y-9661423D01*
X3240262Y-9661423D01*
X3306928Y-9794756D02*
X3306928Y-9661423D01*
X3306928Y-9594756D02*
X3297405Y-9604280D01*
X3306928Y-9613804D01*
X3316452Y-9604280D01*
X3306928Y-9594756D01*
X3306928Y-9613804D01*
X3430738Y-9794756D02*
X3411690Y-9785232D01*
X3402167Y-9766185D01*
X3402167Y-9594756D01*
X3535500Y-9794756D02*
X3516452Y-9785232D01*
X3506928Y-9766185D01*
X3506928Y-9594756D01*
X3764071Y-9794756D02*
X3764071Y-9594756D01*
X3830738Y-9737613D01*
X3897405Y-9594756D01*
X3897405Y-9794756D01*
X4078357Y-9794756D02*
X4078357Y-9689994D01*
X4068833Y-9670947D01*
X4049786Y-9661423D01*
X4011690Y-9661423D01*
X3992643Y-9670947D01*
X4078357Y-9785232D02*
X4059309Y-9794756D01*
X4011690Y-9794756D01*
X3992643Y-9785232D01*
X3983119Y-9766185D01*
X3983119Y-9747137D01*
X3992643Y-9728090D01*
X4011690Y-9718566D01*
X4059309Y-9718566D01*
X4078357Y-9709042D01*
X4173595Y-9661423D02*
X4173595Y-9861423D01*
X4173595Y-9670947D02*
X4192643Y-9661423D01*
X4230738Y-9661423D01*
X4249786Y-9670947D01*
X4259310Y-9680470D01*
X4268833Y-9699518D01*
X4268833Y-9756661D01*
X4259310Y-9775709D01*
X4249786Y-9785232D01*
X4230738Y-9794756D01*
X4192643Y-9794756D01*
X4173595Y-9785232D01*
X4354548Y-9775709D02*
X4364071Y-9785232D01*
X4354548Y-9794756D01*
X4345024Y-9785232D01*
X4354548Y-9775709D01*
X4354548Y-9794756D01*
X4354548Y-9670947D02*
X4364071Y-9680470D01*
X4354548Y-9689994D01*
X4345024Y-9680470D01*
X4354548Y-9670947D01*
X4354548Y-9689994D01*
D10*
X2625500Y-10074280D02*
X2725500Y-10174280D01*
X2725500Y-10074280D02*
X2625500Y-10174280D01*
D11*
X3087881Y-10214756D02*
X2973595Y-10214756D01*
X3030738Y-10214756D02*
X3030738Y-10014756D01*
X3011690Y-10043328D01*
X2992643Y-10062375D01*
X2973595Y-10071899D01*
X3173595Y-10195709D02*
X3183119Y-10205232D01*
X3173595Y-10214756D01*
X3164071Y-10205232D01*
X3173595Y-10195709D01*
X3173595Y-10214756D01*
X3306928Y-10014756D02*
X3325976Y-10014756D01*
X3345024Y-10024280D01*
X3354548Y-10033804D01*
X3364071Y-10052851D01*
X3373595Y-10090947D01*
X3373595Y-10138566D01*
X3364071Y-10176661D01*
X3354548Y-10195709D01*
X3345024Y-10205232D01*
X3325976Y-10214756D01*
X3306928Y-10214756D01*
X3287881Y-10205232D01*
X3278357Y-10195709D01*
X3268833Y-10176661D01*
X3259309Y-10138566D01*
X3259309Y-10090947D01*
X3268833Y-10052851D01*
X3278357Y-10033804D01*
X3287881Y-10024280D01*
X3306928Y-10014756D01*
X3497405Y-10014756D02*
X3516452Y-10014756D01*
X3535500Y-10024280D01*
X3545024Y-10033804D01*
X3554548Y-10052851D01*
X3564071Y-10090947D01*
X3564071Y-10138566D01*
X3554548Y-10176661D01*
X3545024Y-10195709D01*
X3535500Y-10205232D01*
X3516452Y-10214756D01*
X3497405Y-10214756D01*
X3478357Y-10205232D01*
X3468833Y-10195709D01*
X3459309Y-10176661D01*
X3449786Y-10138566D01*
X3449786Y-10090947D01*
X3459309Y-10052851D01*
X3468833Y-10033804D01*
X3478357Y-10024280D01*
X3497405Y-10014756D01*
X3687881Y-10014756D02*
X3706928Y-10014756D01*
X3725976Y-10024280D01*
X3735500Y-10033804D01*
X3745024Y-10052851D01*
X3754548Y-10090947D01*
X3754548Y-10138566D01*
X3745024Y-10176661D01*
X3735500Y-10195709D01*
X3725976Y-10205232D01*
X3706928Y-10214756D01*
X3687881Y-10214756D01*
X3668833Y-10205232D01*
X3659309Y-10195709D01*
X3649786Y-10176661D01*
X3640262Y-10138566D01*
X3640262Y-10090947D01*
X3649786Y-10052851D01*
X3659309Y-10033804D01*
X3668833Y-10024280D01*
X3687881Y-10014756D01*
X3840262Y-10214756D02*
X3840262Y-10081423D01*
X3840262Y-10100470D02*
X3849786Y-10090947D01*
X3868833Y-10081423D01*
X3897405Y-10081423D01*
X3916452Y-10090947D01*
X3925976Y-10109994D01*
X3925976Y-10214756D01*
X3925976Y-10109994D02*
X3935500Y-10090947D01*
X3954548Y-10081423D01*
X3983119Y-10081423D01*
X4002167Y-10090947D01*
X4011690Y-10109994D01*
X4011690Y-10214756D01*
X4106928Y-10214756D02*
X4106928Y-10081423D01*
X4106928Y-10100470D02*
X4116452Y-10090947D01*
X4135500Y-10081423D01*
X4164071Y-10081423D01*
X4183119Y-10090947D01*
X4192643Y-10109994D01*
X4192643Y-10214756D01*
X4192643Y-10109994D02*
X4202167Y-10090947D01*
X4221214Y-10081423D01*
X4249786Y-10081423D01*
X4268833Y-10090947D01*
X4278357Y-10109994D01*
X4278357Y-10214756D01*
X4668833Y-10005232D02*
X4497405Y-10262375D01*
X4925976Y-10014756D02*
X4945024Y-10014756D01*
X4964071Y-10024280D01*
X4973595Y-10033804D01*
X4983119Y-10052851D01*
X4992643Y-10090947D01*
X4992643Y-10138566D01*
X4983119Y-10176661D01*
X4973595Y-10195709D01*
X4964071Y-10205232D01*
X4945024Y-10214756D01*
X4925976Y-10214756D01*
X4906929Y-10205232D01*
X4897405Y-10195709D01*
X4887881Y-10176661D01*
X4878357Y-10138566D01*
X4878357Y-10090947D01*
X4887881Y-10052851D01*
X4897405Y-10033804D01*
X4906929Y-10024280D01*
X4925976Y-10014756D01*
X5078357Y-10195709D02*
X5087881Y-10205232D01*
X5078357Y-10214756D01*
X5068833Y-10205232D01*
X5078357Y-10195709D01*
X5078357Y-10214756D01*
X5211690Y-10014756D02*
X5230738Y-10014756D01*
X5249786Y-10024280D01*
X5259310Y-10033804D01*
X5268833Y-10052851D01*
X5278357Y-10090947D01*
X5278357Y-10138566D01*
X5268833Y-10176661D01*
X5259310Y-10195709D01*
X5249786Y-10205232D01*
X5230738Y-10214756D01*
X5211690Y-10214756D01*
X5192643Y-10205232D01*
X5183119Y-10195709D01*
X5173595Y-10176661D01*
X5164071Y-10138566D01*
X5164071Y-10090947D01*
X5173595Y-10052851D01*
X5183119Y-10033804D01*
X5192643Y-10024280D01*
X5211690Y-10014756D01*
X5345024Y-10014756D02*
X5468833Y-10014756D01*
X5402167Y-10090947D01*
X5430738Y-10090947D01*
X5449786Y-10100470D01*
X5459310Y-10109994D01*
X5468833Y-10129042D01*
X5468833Y-10176661D01*
X5459310Y-10195709D01*
X5449786Y-10205232D01*
X5430738Y-10214756D01*
X5373595Y-10214756D01*
X5354548Y-10205232D01*
X5345024Y-10195709D01*
X5564071Y-10214756D02*
X5602167Y-10214756D01*
X5621214Y-10205232D01*
X5630738Y-10195709D01*
X5649786Y-10167137D01*
X5659309Y-10129042D01*
X5659309Y-10052851D01*
X5649786Y-10033804D01*
X5640262Y-10024280D01*
X5621214Y-10014756D01*
X5583119Y-10014756D01*
X5564071Y-10024280D01*
X5554548Y-10033804D01*
X5545024Y-10052851D01*
X5545024Y-10100470D01*
X5554548Y-10119518D01*
X5564071Y-10129042D01*
X5583119Y-10138566D01*
X5621214Y-10138566D01*
X5640262Y-10129042D01*
X5649786Y-10119518D01*
X5659309Y-10100470D01*
X5830738Y-10081423D02*
X5830738Y-10214756D01*
X5783119Y-10005232D02*
X5735500Y-10148090D01*
X5859309Y-10148090D01*
X5925976Y-10014756D02*
X5925976Y-10052851D01*
X6002167Y-10014756D02*
X6002167Y-10052851D01*
X6297405Y-10290947D02*
X6287881Y-10281423D01*
X6268833Y-10252851D01*
X6259309Y-10233804D01*
X6249786Y-10205232D01*
X6240262Y-10157613D01*
X6240262Y-10119518D01*
X6249786Y-10071899D01*
X6259309Y-10043328D01*
X6268833Y-10024280D01*
X6287881Y-9995709D01*
X6297405Y-9986185D01*
X6354548Y-10014756D02*
X6478357Y-10014756D01*
X6411690Y-10090947D01*
X6440262Y-10090947D01*
X6459309Y-10100470D01*
X6468833Y-10109994D01*
X6478357Y-10129042D01*
X6478357Y-10176661D01*
X6468833Y-10195709D01*
X6459309Y-10205232D01*
X6440262Y-10214756D01*
X6383119Y-10214756D01*
X6364071Y-10205232D01*
X6354548Y-10195709D01*
X6668833Y-10214756D02*
X6554548Y-10214756D01*
X6611690Y-10214756D02*
X6611690Y-10014756D01*
X6592643Y-10043328D01*
X6573595Y-10062375D01*
X6554548Y-10071899D01*
X6906928Y-10214756D02*
X6906928Y-10014756D01*
X6992643Y-10214756D02*
X6992643Y-10109994D01*
X6983119Y-10090947D01*
X6964071Y-10081423D01*
X6935500Y-10081423D01*
X6916452Y-10090947D01*
X6906928Y-10100470D01*
X7116452Y-10214756D02*
X7097405Y-10205232D01*
X7087881Y-10195709D01*
X7078357Y-10176661D01*
X7078357Y-10119518D01*
X7087881Y-10100470D01*
X7097405Y-10090947D01*
X7116452Y-10081423D01*
X7145024Y-10081423D01*
X7164071Y-10090947D01*
X7173595Y-10100470D01*
X7183119Y-10119518D01*
X7183119Y-10176661D01*
X7173595Y-10195709D01*
X7164071Y-10205232D01*
X7145024Y-10214756D01*
X7116452Y-10214756D01*
X7297405Y-10214756D02*
X7278357Y-10205232D01*
X7268833Y-10186185D01*
X7268833Y-10014756D01*
X7449786Y-10205232D02*
X7430738Y-10214756D01*
X7392643Y-10214756D01*
X7373595Y-10205232D01*
X7364071Y-10186185D01*
X7364071Y-10109994D01*
X7373595Y-10090947D01*
X7392643Y-10081423D01*
X7430738Y-10081423D01*
X7449786Y-10090947D01*
X7459309Y-10109994D01*
X7459309Y-10129042D01*
X7364071Y-10148090D01*
X7535500Y-10205232D02*
X7554548Y-10214756D01*
X7592643Y-10214756D01*
X7611690Y-10205232D01*
X7621214Y-10186185D01*
X7621214Y-10176661D01*
X7611690Y-10157613D01*
X7592643Y-10148090D01*
X7564071Y-10148090D01*
X7545024Y-10138566D01*
X7535500Y-10119518D01*
X7535500Y-10109994D01*
X7545024Y-10090947D01*
X7564071Y-10081423D01*
X7592643Y-10081423D01*
X7611690Y-10090947D01*
X7687881Y-10290947D02*
X7697405Y-10281423D01*
X7716452Y-10252851D01*
X7725976Y-10233804D01*
X7735500Y-10205232D01*
X7745024Y-10157613D01*
X7745024Y-10119518D01*
X7735500Y-10071899D01*
X7725976Y-10043328D01*
X7716452Y-10024280D01*
X7697405Y-9995709D01*
X7687881Y-9986185D01*
M02*
