%TF.GenerationSoftware,KiCad,Pcbnew,(6.0.7)*%
%TF.CreationDate,2023-04-28T16:32:47-04:00*%
%TF.ProjectId,Power Daughter Board v1,506f7765-7220-4446-9175-676874657220,rev?*%
%TF.SameCoordinates,Original*%
%TF.FileFunction,Drillmap*%
%TF.FilePolarity,Positive*%
%FSLAX45Y45*%
G04 Gerber Fmt 4.5, Leading zero omitted, Abs format (unit mm)*
G04 Created by KiCad (PCBNEW (6.0.7)) date 2023-04-28 16:32:47*
%MOMM*%
%LPD*%
G01*
G04 APERTURE LIST*
%ADD10C,0.100000*%
%ADD11C,0.200000*%
G04 APERTURE END LIST*
D10*
X8697000Y-5154000D02*
X8699000Y-7195000D01*
X8036911Y-7198994D01*
X8033911Y-8689994D01*
X5653911Y-8689994D01*
X5654000Y-5152000D01*
X8697000Y-5154000D01*
D11*
D10*
X5946000Y-6139500D02*
X6046000Y-6239500D01*
X6046000Y-6139500D02*
X5946000Y-6239500D01*
X5946000Y-6393500D02*
X6046000Y-6493500D01*
X6046000Y-6393500D02*
X5946000Y-6493500D01*
X5946000Y-6647500D02*
X6046000Y-6747500D01*
X6046000Y-6647500D02*
X5946000Y-6747500D01*
X5994500Y-5491000D02*
X6094500Y-5591000D01*
X6094500Y-5491000D02*
X5994500Y-5591000D01*
X6035000Y-7342000D02*
X6135000Y-7442000D01*
X6135000Y-7342000D02*
X6035000Y-7442000D01*
X6235500Y-8383000D02*
X6335500Y-8483000D01*
X6335500Y-8383000D02*
X6235500Y-8483000D01*
X6236500Y-7919250D02*
X6336500Y-8019250D01*
X6336500Y-7919250D02*
X6236500Y-8019250D01*
X6248500Y-5491000D02*
X6348500Y-5591000D01*
X6348500Y-5491000D02*
X6248500Y-5591000D01*
X6289000Y-7342000D02*
X6389000Y-7442000D01*
X6389000Y-7342000D02*
X6289000Y-7442000D01*
X6376200Y-6026950D02*
X6476200Y-6126950D01*
X6476200Y-6026950D02*
X6376200Y-6126950D01*
X6376200Y-6788950D02*
X6476200Y-6888950D01*
X6476200Y-6788950D02*
X6376200Y-6888950D01*
X6489500Y-8383000D02*
X6589500Y-8483000D01*
X6589500Y-8383000D02*
X6489500Y-8483000D01*
X6490500Y-7919250D02*
X6590500Y-8019250D01*
X6590500Y-7919250D02*
X6490500Y-8019250D01*
X6502500Y-5491000D02*
X6602500Y-5591000D01*
X6602500Y-5491000D02*
X6502500Y-5591000D01*
X6543000Y-7342000D02*
X6643000Y-7442000D01*
X6643000Y-7342000D02*
X6543000Y-7442000D01*
X6633300Y-6031700D02*
X6733300Y-6131700D01*
X6733300Y-6031700D02*
X6633300Y-6131700D01*
X6633300Y-6793700D02*
X6733300Y-6893700D01*
X6733300Y-6793700D02*
X6633300Y-6893700D01*
X6743500Y-8383000D02*
X6843500Y-8483000D01*
X6843500Y-8383000D02*
X6743500Y-8483000D01*
X6744500Y-7919250D02*
X6844500Y-8019250D01*
X6844500Y-7919250D02*
X6744500Y-8019250D01*
X6884200Y-6026950D02*
X6984200Y-6126950D01*
X6984200Y-6026950D02*
X6884200Y-6126950D01*
X6884200Y-6788950D02*
X6984200Y-6888950D01*
X6984200Y-6788950D02*
X6884200Y-6888950D01*
X7141300Y-6031700D02*
X7241300Y-6131700D01*
X7241300Y-6031700D02*
X7141300Y-6131700D01*
X7141300Y-6793700D02*
X7241300Y-6893700D01*
X7241300Y-6793700D02*
X7141300Y-6893700D01*
X7392200Y-6026950D02*
X7492200Y-6126950D01*
X7492200Y-6026950D02*
X7392200Y-6126950D01*
X7392200Y-6788950D02*
X7492200Y-6888950D01*
X7492200Y-6788950D02*
X7392200Y-6888950D01*
X7471000Y-7660000D02*
X7571000Y-7760000D01*
X7571000Y-7660000D02*
X7471000Y-7760000D01*
X7649300Y-6031700D02*
X7749300Y-6131700D01*
X7749300Y-6031700D02*
X7649300Y-6131700D01*
X7649300Y-6793700D02*
X7749300Y-6893700D01*
X7749300Y-6793700D02*
X7649300Y-6893700D01*
X7666000Y-5524000D02*
X7766000Y-5624000D01*
X7766000Y-5524000D02*
X7666000Y-5624000D01*
X7725000Y-7660000D02*
X7825000Y-7760000D01*
X7825000Y-7660000D02*
X7725000Y-7760000D01*
X7920000Y-5524000D02*
X8020000Y-5624000D01*
X8020000Y-5524000D02*
X7920000Y-5624000D01*
X8154200Y-6026950D02*
X8254200Y-6126950D01*
X8254200Y-6026950D02*
X8154200Y-6126950D01*
X8154200Y-6788950D02*
X8254200Y-6888950D01*
X8254200Y-6788950D02*
X8154200Y-6888950D01*
X8174000Y-5524000D02*
X8274000Y-5624000D01*
X8274000Y-5524000D02*
X8174000Y-5624000D01*
X8411300Y-6031700D02*
X8511300Y-6131700D01*
X8511300Y-6031700D02*
X8411300Y-6131700D01*
X8411300Y-6793700D02*
X8511300Y-6893700D01*
X8511300Y-6793700D02*
X8411300Y-6893700D01*
D11*
X5906530Y-9005470D02*
X5906530Y-8805470D01*
X5954149Y-8805470D01*
X5982720Y-8814994D01*
X6001768Y-8834041D01*
X6011292Y-8853089D01*
X6020816Y-8891184D01*
X6020816Y-8919756D01*
X6011292Y-8957851D01*
X6001768Y-8976899D01*
X5982720Y-8995946D01*
X5954149Y-9005470D01*
X5906530Y-9005470D01*
X6106530Y-9005470D02*
X6106530Y-8872137D01*
X6106530Y-8910232D02*
X6116054Y-8891184D01*
X6125577Y-8881660D01*
X6144625Y-8872137D01*
X6163673Y-8872137D01*
X6230339Y-9005470D02*
X6230339Y-8872137D01*
X6230339Y-8805470D02*
X6220816Y-8814994D01*
X6230339Y-8824518D01*
X6239863Y-8814994D01*
X6230339Y-8805470D01*
X6230339Y-8824518D01*
X6354149Y-9005470D02*
X6335101Y-8995946D01*
X6325577Y-8976899D01*
X6325577Y-8805470D01*
X6458911Y-9005470D02*
X6439863Y-8995946D01*
X6430339Y-8976899D01*
X6430339Y-8805470D01*
X6687482Y-9005470D02*
X6687482Y-8805470D01*
X6754149Y-8948327D01*
X6820816Y-8805470D01*
X6820816Y-9005470D01*
X7001768Y-9005470D02*
X7001768Y-8900708D01*
X6992244Y-8881660D01*
X6973197Y-8872137D01*
X6935101Y-8872137D01*
X6916054Y-8881660D01*
X7001768Y-8995946D02*
X6982720Y-9005470D01*
X6935101Y-9005470D01*
X6916054Y-8995946D01*
X6906530Y-8976899D01*
X6906530Y-8957851D01*
X6916054Y-8938803D01*
X6935101Y-8929280D01*
X6982720Y-8929280D01*
X7001768Y-8919756D01*
X7097006Y-8872137D02*
X7097006Y-9072137D01*
X7097006Y-8881660D02*
X7116054Y-8872137D01*
X7154149Y-8872137D01*
X7173197Y-8881660D01*
X7182720Y-8891184D01*
X7192244Y-8910232D01*
X7192244Y-8967375D01*
X7182720Y-8986422D01*
X7173197Y-8995946D01*
X7154149Y-9005470D01*
X7116054Y-9005470D01*
X7097006Y-8995946D01*
X7277958Y-8986422D02*
X7287482Y-8995946D01*
X7277958Y-9005470D01*
X7268435Y-8995946D01*
X7277958Y-8986422D01*
X7277958Y-9005470D01*
X7277958Y-8881660D02*
X7287482Y-8891184D01*
X7277958Y-8900708D01*
X7268435Y-8891184D01*
X7277958Y-8881660D01*
X7277958Y-8900708D01*
D10*
X5548911Y-9284994D02*
X5648911Y-9384994D01*
X5648911Y-9284994D02*
X5548911Y-9384994D01*
D11*
X6011292Y-9425470D02*
X5897006Y-9425470D01*
X5954149Y-9425470D02*
X5954149Y-9225470D01*
X5935101Y-9254041D01*
X5916054Y-9273089D01*
X5897006Y-9282613D01*
X6097006Y-9406422D02*
X6106530Y-9415946D01*
X6097006Y-9425470D01*
X6087482Y-9415946D01*
X6097006Y-9406422D01*
X6097006Y-9425470D01*
X6230339Y-9225470D02*
X6249387Y-9225470D01*
X6268435Y-9234994D01*
X6277958Y-9244518D01*
X6287482Y-9263565D01*
X6297006Y-9301660D01*
X6297006Y-9349280D01*
X6287482Y-9387375D01*
X6277958Y-9406422D01*
X6268435Y-9415946D01*
X6249387Y-9425470D01*
X6230339Y-9425470D01*
X6211292Y-9415946D01*
X6201768Y-9406422D01*
X6192244Y-9387375D01*
X6182720Y-9349280D01*
X6182720Y-9301660D01*
X6192244Y-9263565D01*
X6201768Y-9244518D01*
X6211292Y-9234994D01*
X6230339Y-9225470D01*
X6420816Y-9225470D02*
X6439863Y-9225470D01*
X6458911Y-9234994D01*
X6468435Y-9244518D01*
X6477958Y-9263565D01*
X6487482Y-9301660D01*
X6487482Y-9349280D01*
X6477958Y-9387375D01*
X6468435Y-9406422D01*
X6458911Y-9415946D01*
X6439863Y-9425470D01*
X6420816Y-9425470D01*
X6401768Y-9415946D01*
X6392244Y-9406422D01*
X6382720Y-9387375D01*
X6373197Y-9349280D01*
X6373197Y-9301660D01*
X6382720Y-9263565D01*
X6392244Y-9244518D01*
X6401768Y-9234994D01*
X6420816Y-9225470D01*
X6611292Y-9225470D02*
X6630339Y-9225470D01*
X6649387Y-9234994D01*
X6658911Y-9244518D01*
X6668435Y-9263565D01*
X6677958Y-9301660D01*
X6677958Y-9349280D01*
X6668435Y-9387375D01*
X6658911Y-9406422D01*
X6649387Y-9415946D01*
X6630339Y-9425470D01*
X6611292Y-9425470D01*
X6592244Y-9415946D01*
X6582720Y-9406422D01*
X6573197Y-9387375D01*
X6563673Y-9349280D01*
X6563673Y-9301660D01*
X6573197Y-9263565D01*
X6582720Y-9244518D01*
X6592244Y-9234994D01*
X6611292Y-9225470D01*
X6763673Y-9425470D02*
X6763673Y-9292137D01*
X6763673Y-9311184D02*
X6773197Y-9301660D01*
X6792244Y-9292137D01*
X6820816Y-9292137D01*
X6839863Y-9301660D01*
X6849387Y-9320708D01*
X6849387Y-9425470D01*
X6849387Y-9320708D02*
X6858911Y-9301660D01*
X6877958Y-9292137D01*
X6906530Y-9292137D01*
X6925577Y-9301660D01*
X6935101Y-9320708D01*
X6935101Y-9425470D01*
X7030339Y-9425470D02*
X7030339Y-9292137D01*
X7030339Y-9311184D02*
X7039863Y-9301660D01*
X7058911Y-9292137D01*
X7087482Y-9292137D01*
X7106530Y-9301660D01*
X7116054Y-9320708D01*
X7116054Y-9425470D01*
X7116054Y-9320708D02*
X7125577Y-9301660D01*
X7144625Y-9292137D01*
X7173197Y-9292137D01*
X7192244Y-9301660D01*
X7201768Y-9320708D01*
X7201768Y-9425470D01*
X7592244Y-9215946D02*
X7420816Y-9473089D01*
X7849387Y-9225470D02*
X7868435Y-9225470D01*
X7887482Y-9234994D01*
X7897006Y-9244518D01*
X7906530Y-9263565D01*
X7916054Y-9301660D01*
X7916054Y-9349280D01*
X7906530Y-9387375D01*
X7897006Y-9406422D01*
X7887482Y-9415946D01*
X7868435Y-9425470D01*
X7849387Y-9425470D01*
X7830339Y-9415946D01*
X7820816Y-9406422D01*
X7811292Y-9387375D01*
X7801768Y-9349280D01*
X7801768Y-9301660D01*
X7811292Y-9263565D01*
X7820816Y-9244518D01*
X7830339Y-9234994D01*
X7849387Y-9225470D01*
X8001768Y-9406422D02*
X8011292Y-9415946D01*
X8001768Y-9425470D01*
X7992244Y-9415946D01*
X8001768Y-9406422D01*
X8001768Y-9425470D01*
X8135101Y-9225470D02*
X8154149Y-9225470D01*
X8173197Y-9234994D01*
X8182720Y-9244518D01*
X8192244Y-9263565D01*
X8201768Y-9301660D01*
X8201768Y-9349280D01*
X8192244Y-9387375D01*
X8182720Y-9406422D01*
X8173197Y-9415946D01*
X8154149Y-9425470D01*
X8135101Y-9425470D01*
X8116054Y-9415946D01*
X8106530Y-9406422D01*
X8097006Y-9387375D01*
X8087482Y-9349280D01*
X8087482Y-9301660D01*
X8097006Y-9263565D01*
X8106530Y-9244518D01*
X8116054Y-9234994D01*
X8135101Y-9225470D01*
X8268435Y-9225470D02*
X8392244Y-9225470D01*
X8325577Y-9301660D01*
X8354149Y-9301660D01*
X8373197Y-9311184D01*
X8382720Y-9320708D01*
X8392244Y-9339756D01*
X8392244Y-9387375D01*
X8382720Y-9406422D01*
X8373197Y-9415946D01*
X8354149Y-9425470D01*
X8297006Y-9425470D01*
X8277958Y-9415946D01*
X8268435Y-9406422D01*
X8487482Y-9425470D02*
X8525578Y-9425470D01*
X8544625Y-9415946D01*
X8554149Y-9406422D01*
X8573197Y-9377851D01*
X8582720Y-9339756D01*
X8582720Y-9263565D01*
X8573197Y-9244518D01*
X8563673Y-9234994D01*
X8544625Y-9225470D01*
X8506530Y-9225470D01*
X8487482Y-9234994D01*
X8477959Y-9244518D01*
X8468435Y-9263565D01*
X8468435Y-9311184D01*
X8477959Y-9330232D01*
X8487482Y-9339756D01*
X8506530Y-9349280D01*
X8544625Y-9349280D01*
X8563673Y-9339756D01*
X8573197Y-9330232D01*
X8582720Y-9311184D01*
X8754149Y-9292137D02*
X8754149Y-9425470D01*
X8706530Y-9215946D02*
X8658911Y-9358803D01*
X8782720Y-9358803D01*
X8849387Y-9225470D02*
X8849387Y-9263565D01*
X8925578Y-9225470D02*
X8925578Y-9263565D01*
X9220816Y-9501660D02*
X9211292Y-9492137D01*
X9192244Y-9463565D01*
X9182720Y-9444518D01*
X9173197Y-9415946D01*
X9163673Y-9368327D01*
X9163673Y-9330232D01*
X9173197Y-9282613D01*
X9182720Y-9254041D01*
X9192244Y-9234994D01*
X9211292Y-9206422D01*
X9220816Y-9196899D01*
X9277959Y-9225470D02*
X9401768Y-9225470D01*
X9335101Y-9301660D01*
X9363673Y-9301660D01*
X9382720Y-9311184D01*
X9392244Y-9320708D01*
X9401768Y-9339756D01*
X9401768Y-9387375D01*
X9392244Y-9406422D01*
X9382720Y-9415946D01*
X9363673Y-9425470D01*
X9306530Y-9425470D01*
X9287482Y-9415946D01*
X9277959Y-9406422D01*
X9573197Y-9225470D02*
X9535101Y-9225470D01*
X9516054Y-9234994D01*
X9506530Y-9244518D01*
X9487482Y-9273089D01*
X9477959Y-9311184D01*
X9477959Y-9387375D01*
X9487482Y-9406422D01*
X9497006Y-9415946D01*
X9516054Y-9425470D01*
X9554149Y-9425470D01*
X9573197Y-9415946D01*
X9582720Y-9406422D01*
X9592244Y-9387375D01*
X9592244Y-9339756D01*
X9582720Y-9320708D01*
X9573197Y-9311184D01*
X9554149Y-9301660D01*
X9516054Y-9301660D01*
X9497006Y-9311184D01*
X9487482Y-9320708D01*
X9477959Y-9339756D01*
X9830339Y-9425470D02*
X9830339Y-9225470D01*
X9916054Y-9425470D02*
X9916054Y-9320708D01*
X9906530Y-9301660D01*
X9887482Y-9292137D01*
X9858911Y-9292137D01*
X9839863Y-9301660D01*
X9830339Y-9311184D01*
X10039863Y-9425470D02*
X10020816Y-9415946D01*
X10011292Y-9406422D01*
X10001768Y-9387375D01*
X10001768Y-9330232D01*
X10011292Y-9311184D01*
X10020816Y-9301660D01*
X10039863Y-9292137D01*
X10068435Y-9292137D01*
X10087482Y-9301660D01*
X10097006Y-9311184D01*
X10106530Y-9330232D01*
X10106530Y-9387375D01*
X10097006Y-9406422D01*
X10087482Y-9415946D01*
X10068435Y-9425470D01*
X10039863Y-9425470D01*
X10220816Y-9425470D02*
X10201768Y-9415946D01*
X10192244Y-9396899D01*
X10192244Y-9225470D01*
X10373197Y-9415946D02*
X10354149Y-9425470D01*
X10316054Y-9425470D01*
X10297006Y-9415946D01*
X10287482Y-9396899D01*
X10287482Y-9320708D01*
X10297006Y-9301660D01*
X10316054Y-9292137D01*
X10354149Y-9292137D01*
X10373197Y-9301660D01*
X10382720Y-9320708D01*
X10382720Y-9339756D01*
X10287482Y-9358803D01*
X10458911Y-9415946D02*
X10477959Y-9425470D01*
X10516054Y-9425470D01*
X10535101Y-9415946D01*
X10544625Y-9396899D01*
X10544625Y-9387375D01*
X10535101Y-9368327D01*
X10516054Y-9358803D01*
X10487482Y-9358803D01*
X10468435Y-9349280D01*
X10458911Y-9330232D01*
X10458911Y-9320708D01*
X10468435Y-9301660D01*
X10487482Y-9292137D01*
X10516054Y-9292137D01*
X10535101Y-9301660D01*
X10611292Y-9501660D02*
X10620816Y-9492137D01*
X10639863Y-9463565D01*
X10649387Y-9444518D01*
X10658911Y-9415946D01*
X10668435Y-9368327D01*
X10668435Y-9330232D01*
X10658911Y-9282613D01*
X10649387Y-9254041D01*
X10639863Y-9234994D01*
X10620816Y-9206422D01*
X10611292Y-9196899D01*
M02*
