%TF.GenerationSoftware,KiCad,Pcbnew,(6.0.7)*%
%TF.CreationDate,2023-04-28T16:32:50-04:00*%
%TF.ProjectId,Power Daughter Board v1,506f7765-7220-4446-9175-676874657220,rev?*%
%TF.SameCoordinates,Original*%
%TF.FileFunction,Legend,Top*%
%TF.FilePolarity,Positive*%
%FSLAX46Y46*%
G04 Gerber Fmt 4.6, Leading zero omitted, Abs format (unit mm)*
G04 Created by KiCad (PCBNEW (6.0.7)) date 2023-04-28 16:32:50*
%MOMM*%
%LPD*%
G01*
G04 APERTURE LIST*
%ADD10C,0.150000*%
%ADD11C,0.120000*%
G04 APERTURE END LIST*
D10*
%TO.C,J4*%
X58517380Y-74679047D02*
X58517380Y-75250476D01*
X58517380Y-74964761D02*
X57517380Y-74964761D01*
X57660238Y-75060000D01*
X57755476Y-75155238D01*
X57803095Y-75250476D01*
X57612619Y-74298095D02*
X57565000Y-74250476D01*
X57517380Y-74155238D01*
X57517380Y-73917142D01*
X57565000Y-73821904D01*
X57612619Y-73774285D01*
X57707857Y-73726666D01*
X57803095Y-73726666D01*
X57945952Y-73774285D01*
X58517380Y-74345714D01*
X58517380Y-73726666D01*
X57517380Y-73440952D02*
X58517380Y-73107619D01*
X57517380Y-72774285D01*
%TO.C,J7*%
X75281190Y-80952380D02*
X75281190Y-79952380D01*
X75662142Y-79952380D01*
X75757380Y-80000000D01*
X75805000Y-80047619D01*
X75852619Y-80142857D01*
X75852619Y-80285714D01*
X75805000Y-80380952D01*
X75757380Y-80428571D01*
X75662142Y-80476190D01*
X75281190Y-80476190D01*
X76138333Y-79952380D02*
X76709761Y-79952380D01*
X76424047Y-80952380D02*
X76424047Y-79952380D01*
X76900238Y-79952380D02*
X77471666Y-79952380D01*
X77185952Y-80952380D02*
X77185952Y-79952380D01*
%TO.C,J6*%
X85342380Y-57287619D02*
X84866190Y-57620952D01*
X85342380Y-57859047D02*
X84342380Y-57859047D01*
X84342380Y-57478095D01*
X84390000Y-57382857D01*
X84437619Y-57335238D01*
X84532857Y-57287619D01*
X84675714Y-57287619D01*
X84770952Y-57335238D01*
X84818571Y-57382857D01*
X84866190Y-57478095D01*
X84866190Y-57859047D01*
X84342380Y-56954285D02*
X85342380Y-56287619D01*
X84342380Y-56287619D02*
X85342380Y-56954285D01*
X85342380Y-55382857D02*
X85342380Y-55954285D01*
X85342380Y-55668571D02*
X84342380Y-55668571D01*
X84485238Y-55763809D01*
X84580476Y-55859047D01*
X84628095Y-55954285D01*
X84437619Y-55001904D02*
X84390000Y-54954285D01*
X84342380Y-54859047D01*
X84342380Y-54620952D01*
X84390000Y-54525714D01*
X84437619Y-54478095D01*
X84532857Y-54430476D01*
X84628095Y-54430476D01*
X84770952Y-54478095D01*
X85342380Y-55049523D01*
X85342380Y-54430476D01*
X84342380Y-54144761D02*
X85342380Y-53811428D01*
X84342380Y-53478095D01*
%TO.C,J2*%
X70947380Y-85723333D02*
X69947380Y-85723333D01*
X69947380Y-85342380D01*
X69995000Y-85247142D01*
X70042619Y-85199523D01*
X70137857Y-85151904D01*
X70280714Y-85151904D01*
X70375952Y-85199523D01*
X70423571Y-85247142D01*
X70471190Y-85342380D01*
X70471190Y-85723333D01*
X69947380Y-84818571D02*
X70947380Y-84580476D01*
X70233095Y-84390000D01*
X70947380Y-84199523D01*
X69947380Y-83961428D01*
X70947380Y-83009047D02*
X70471190Y-83342380D01*
X70947380Y-83580476D02*
X69947380Y-83580476D01*
X69947380Y-83199523D01*
X69995000Y-83104285D01*
X70042619Y-83056666D01*
X70137857Y-83009047D01*
X70280714Y-83009047D01*
X70375952Y-83056666D01*
X70423571Y-83104285D01*
X70471190Y-83199523D01*
X70471190Y-83580476D01*
%TO.C,J5*%
X57287380Y-57402857D02*
X57287380Y-56831428D01*
X58287380Y-57117142D02*
X57287380Y-57117142D01*
X57287380Y-56593333D02*
X58287380Y-55926666D01*
X57287380Y-55926666D02*
X58287380Y-56593333D01*
X58287380Y-55021904D02*
X58287380Y-55593333D01*
X58287380Y-55307619D02*
X57287380Y-55307619D01*
X57430238Y-55402857D01*
X57525476Y-55498095D01*
X57573095Y-55593333D01*
X57382619Y-54640952D02*
X57335000Y-54593333D01*
X57287380Y-54498095D01*
X57287380Y-54260000D01*
X57335000Y-54164761D01*
X57382619Y-54117142D01*
X57477857Y-54069523D01*
X57573095Y-54069523D01*
X57715952Y-54117142D01*
X58287380Y-54688571D01*
X58287380Y-54069523D01*
X57287380Y-53783809D02*
X58287380Y-53450476D01*
X57287380Y-53117142D01*
%TO.C,J3*%
X59108095Y-69190000D02*
X59012857Y-69142380D01*
X58870000Y-69142380D01*
X58727142Y-69190000D01*
X58631904Y-69285238D01*
X58584285Y-69380476D01*
X58536666Y-69570952D01*
X58536666Y-69713809D01*
X58584285Y-69904285D01*
X58631904Y-69999523D01*
X58727142Y-70094761D01*
X58870000Y-70142380D01*
X58965238Y-70142380D01*
X59108095Y-70094761D01*
X59155714Y-70047142D01*
X59155714Y-69713809D01*
X58965238Y-69713809D01*
X59584285Y-70142380D02*
X59584285Y-69142380D01*
X60155714Y-70142380D01*
X60155714Y-69142380D01*
X60631904Y-70142380D02*
X60631904Y-69142380D01*
X60870000Y-69142380D01*
X61012857Y-69190000D01*
X61108095Y-69285238D01*
X61155714Y-69380476D01*
X61203333Y-69570952D01*
X61203333Y-69713809D01*
X61155714Y-69904285D01*
X61108095Y-69999523D01*
X61012857Y-70094761D01*
X60870000Y-70142380D01*
X60631904Y-70142380D01*
D11*
%TO.C,J4*%
X59520000Y-72590000D02*
X59520000Y-75250000D01*
X65930000Y-72590000D02*
X67260000Y-72590000D01*
X67260000Y-72590000D02*
X67260000Y-73920000D01*
X64660000Y-75250000D02*
X59520000Y-75250000D01*
X64660000Y-72590000D02*
X64660000Y-75250000D01*
X64660000Y-72590000D02*
X59520000Y-72590000D01*
%TO.C,K2*%
X82382000Y-66069500D02*
X83442000Y-66069500D01*
X81032000Y-64939500D02*
X82232000Y-64939500D01*
X62852000Y-69769500D02*
X83442000Y-69769500D01*
X83442000Y-59389500D02*
X62852000Y-59389500D01*
X81602000Y-64939500D02*
X81602000Y-66039500D01*
X81032000Y-64239500D02*
X81032000Y-64939500D01*
X82232000Y-64239500D02*
X81032000Y-64239500D01*
X82232000Y-64939500D02*
X82232000Y-64239500D01*
X62852000Y-59389500D02*
X62852000Y-69769500D01*
X83442000Y-69769500D02*
X83442000Y-59389500D01*
X82292000Y-59229500D02*
X83592000Y-59229500D01*
X83592000Y-59229500D02*
X83592000Y-60439500D01*
X81602000Y-64239500D02*
X81602000Y-63139500D01*
X81432000Y-64239500D02*
X81832000Y-64939500D01*
X82382000Y-63069500D02*
X82382000Y-66069500D01*
X83442000Y-63069500D02*
X82402000Y-63069500D01*
%TO.C,C1*%
X74098748Y-73450000D02*
X75521252Y-73450000D01*
X74098748Y-71630000D02*
X75521252Y-71630000D01*
%TO.C,C3*%
X74380000Y-56291252D02*
X74380000Y-54868748D01*
X72560000Y-56291252D02*
X72560000Y-54868748D01*
%TO.C,J7*%
X73880000Y-75770000D02*
X73880000Y-78430000D01*
X76480000Y-75770000D02*
X76480000Y-78430000D01*
X76480000Y-75770000D02*
X73880000Y-75770000D01*
X79080000Y-75770000D02*
X79080000Y-77100000D01*
X76480000Y-78430000D02*
X73880000Y-78430000D01*
X77750000Y-75770000D02*
X79080000Y-75770000D01*
%TO.C,J6*%
X78430000Y-57070000D02*
X83570000Y-57070000D01*
X77160000Y-57070000D02*
X75830000Y-57070000D01*
X75830000Y-57070000D02*
X75830000Y-55740000D01*
X78430000Y-54410000D02*
X83570000Y-54410000D01*
X78430000Y-57070000D02*
X78430000Y-54410000D01*
X83570000Y-57070000D02*
X83570000Y-54410000D01*
%TO.C,J2*%
X67935000Y-83000000D02*
X69265000Y-83000000D01*
X61525000Y-83000000D02*
X61525000Y-85660000D01*
X66665000Y-83000000D02*
X66665000Y-85660000D01*
X66665000Y-83000000D02*
X61525000Y-83000000D01*
X66665000Y-85660000D02*
X61525000Y-85660000D01*
X69265000Y-83000000D02*
X69265000Y-84330000D01*
%TO.C,J1*%
X69275000Y-78362500D02*
X69275000Y-79692500D01*
X66675000Y-78362500D02*
X66675000Y-81022500D01*
X61535000Y-78362500D02*
X61535000Y-81022500D01*
X67945000Y-78362500D02*
X69275000Y-78362500D01*
X66675000Y-78362500D02*
X61535000Y-78362500D01*
X66675000Y-81022500D02*
X61535000Y-81022500D01*
%TO.C,J5*%
X66855000Y-56740000D02*
X66855000Y-54080000D01*
X61715000Y-54080000D02*
X66855000Y-54080000D01*
X61715000Y-56740000D02*
X66855000Y-56740000D01*
X59115000Y-56740000D02*
X59115000Y-55410000D01*
X61715000Y-56740000D02*
X61715000Y-54080000D01*
X60445000Y-56740000D02*
X59115000Y-56740000D01*
%TO.C,K1*%
X84173000Y-64287000D02*
X84173000Y-63187000D01*
X84803000Y-64287000D02*
X83603000Y-64287000D01*
X84803000Y-64987000D02*
X84803000Y-64287000D01*
X83603000Y-64287000D02*
X83603000Y-64987000D01*
X84953000Y-63117000D02*
X84953000Y-66117000D01*
X86013000Y-63117000D02*
X84973000Y-63117000D01*
X65423000Y-59437000D02*
X65423000Y-69817000D01*
X86013000Y-69817000D02*
X86013000Y-59437000D01*
X84953000Y-66117000D02*
X86013000Y-66117000D01*
X84003000Y-64287000D02*
X84403000Y-64987000D01*
X84173000Y-64987000D02*
X84173000Y-66087000D01*
X65423000Y-69817000D02*
X86013000Y-69817000D01*
X86163000Y-59277000D02*
X86163000Y-60487000D01*
X84863000Y-59277000D02*
X86163000Y-59277000D01*
X83603000Y-64987000D02*
X84803000Y-64987000D01*
X86013000Y-59437000D02*
X65423000Y-59437000D01*
%TO.C,J3*%
X58630000Y-60565000D02*
X59960000Y-60565000D01*
X58630000Y-63165000D02*
X58630000Y-68305000D01*
X58630000Y-63165000D02*
X61290000Y-63165000D01*
X61290000Y-63165000D02*
X61290000Y-68305000D01*
X58630000Y-61895000D02*
X58630000Y-60565000D01*
X58630000Y-68305000D02*
X61290000Y-68305000D01*
%TO.C,C2*%
X69118748Y-55130000D02*
X70541252Y-55130000D01*
X69118748Y-56950000D02*
X70541252Y-56950000D01*
%TD*%
M02*
