%TF.GenerationSoftware,KiCad,Pcbnew,(6.0.7)*%
%TF.CreationDate,2023-04-28T16:32:49-04:00*%
%TF.ProjectId,Power Daughter Board v1,506f7765-7220-4446-9175-676874657220,rev?*%
%TF.SameCoordinates,Original*%
%TF.FileFunction,Copper,L1,Top*%
%TF.FilePolarity,Positive*%
%FSLAX46Y46*%
G04 Gerber Fmt 4.6, Leading zero omitted, Abs format (unit mm)*
G04 Created by KiCad (PCBNEW (6.0.7)) date 2023-04-28 16:32:49*
%MOMM*%
%LPD*%
G01*
G04 APERTURE LIST*
G04 Aperture macros list*
%AMRoundRect*
0 Rectangle with rounded corners*
0 $1 Rounding radius*
0 $2 $3 $4 $5 $6 $7 $8 $9 X,Y pos of 4 corners*
0 Add a 4 corners polygon primitive as box body*
4,1,4,$2,$3,$4,$5,$6,$7,$8,$9,$2,$3,0*
0 Add four circle primitives for the rounded corners*
1,1,$1+$1,$2,$3*
1,1,$1+$1,$4,$5*
1,1,$1+$1,$6,$7*
1,1,$1+$1,$8,$9*
0 Add four rect primitives between the rounded corners*
20,1,$1+$1,$2,$3,$4,$5,0*
20,1,$1+$1,$4,$5,$6,$7,0*
20,1,$1+$1,$6,$7,$8,$9,0*
20,1,$1+$1,$8,$9,$2,$3,0*%
G04 Aperture macros list end*
%TA.AperFunction,ComponentPad*%
%ADD10O,1.700000X4.000000*%
%TD*%
%TA.AperFunction,SMDPad,CuDef*%
%ADD11RoundRect,0.250000X-0.325000X-0.650000X0.325000X-0.650000X0.325000X0.650000X-0.325000X0.650000X0*%
%TD*%
%TA.AperFunction,SMDPad,CuDef*%
%ADD12RoundRect,0.250000X0.650000X-0.325000X0.650000X0.325000X-0.650000X0.325000X-0.650000X-0.325000X0*%
%TD*%
%TA.AperFunction,ComponentPad*%
%ADD13O,4.000000X1.700000*%
%TD*%
%TA.AperFunction,Conductor*%
%ADD14C,0.550000*%
%TD*%
G04 APERTURE END LIST*
D10*
%TO.P,J4,1,Pin_1*%
%TO.N,12V*%
X65930000Y-73920000D03*
%TO.P,J4,2,Pin_2*%
X63390000Y-73920000D03*
%TO.P,J4,3,Pin_3*%
X60850000Y-73920000D03*
%TD*%
%TO.P,K2,1*%
%TO.N,Net-(K1-Pad1)*%
X82042000Y-60769500D03*
%TO.P,K2,4*%
%TO.N,12V*%
X74422000Y-60769500D03*
%TO.P,K2,6*%
%TO.N,RX12V*%
X69342000Y-60769500D03*
%TO.P,K2,8*%
%TO.N,TX12V*%
X64262000Y-60769500D03*
%TO.P,K2,9*%
X64262000Y-68389500D03*
%TO.P,K2,11*%
%TO.N,RX12V*%
X69342000Y-68389500D03*
%TO.P,K2,13*%
%TO.N,12V*%
X74422000Y-68389500D03*
%TO.P,K2,16*%
%TO.N,Net-(J7-Pad1)*%
X82042000Y-68389500D03*
%TD*%
D11*
%TO.P,C1,1*%
%TO.N,12V*%
X73335000Y-72540000D03*
%TO.P,C1,2*%
%TO.N,GND*%
X76285000Y-72540000D03*
%TD*%
D12*
%TO.P,C3,1*%
%TO.N,RX12V*%
X73470000Y-57055000D03*
%TO.P,C3,2*%
%TO.N,GND*%
X73470000Y-54105000D03*
%TD*%
D10*
%TO.P,J7,1,Pin_1*%
%TO.N,Net-(J7-Pad1)*%
X77750000Y-77100000D03*
%TO.P,J7,2,Pin_2*%
%TO.N,GND*%
X75210000Y-77100000D03*
%TD*%
%TO.P,J6,1,Pin_1*%
%TO.N,RX12V*%
X77160000Y-55740000D03*
%TO.P,J6,2,Pin_2*%
X79700000Y-55740000D03*
%TO.P,J6,3,Pin_3*%
X82240000Y-55740000D03*
%TD*%
%TO.P,J2,1,Pin_1*%
%TO.N,GND*%
X67935000Y-84330000D03*
%TO.P,J2,2,Pin_2*%
%TO.N,Net-(J1-Pad2)*%
X65395000Y-84330000D03*
%TO.P,J2,3,Pin_3*%
%TO.N,GND*%
X62855000Y-84330000D03*
%TD*%
%TO.P,J1,1,Pin_1*%
%TO.N,GND*%
X67945000Y-79692500D03*
%TO.P,J1,2,Pin_2*%
%TO.N,Net-(J1-Pad2)*%
X65405000Y-79692500D03*
%TO.P,J1,3,Pin_3*%
%TO.N,GND*%
X62865000Y-79692500D03*
%TD*%
%TO.P,J5,1,Pin_1*%
%TO.N,TX12V*%
X60445000Y-55410000D03*
%TO.P,J5,2,Pin_2*%
X62985000Y-55410000D03*
%TO.P,J5,3,Pin_3*%
X65525000Y-55410000D03*
%TD*%
%TO.P,K1,1*%
%TO.N,Net-(K1-Pad1)*%
X84613000Y-60817000D03*
%TO.P,K1,4*%
%TO.N,12V*%
X76993000Y-60817000D03*
%TO.P,K1,6*%
%TO.N,RX12V*%
X71913000Y-60817000D03*
%TO.P,K1,8*%
%TO.N,TX12V*%
X66833000Y-60817000D03*
%TO.P,K1,9*%
X66833000Y-68437000D03*
%TO.P,K1,11*%
%TO.N,RX12V*%
X71913000Y-68437000D03*
%TO.P,K1,13*%
%TO.N,12V*%
X76993000Y-68437000D03*
%TO.P,K1,16*%
%TO.N,Net-(J7-Pad1)*%
X84613000Y-68437000D03*
%TD*%
D13*
%TO.P,J3,1,Pin_1*%
%TO.N,GND*%
X59960000Y-61895000D03*
%TO.P,J3,2,Pin_2*%
X59960000Y-64435000D03*
%TO.P,J3,3,Pin_3*%
X59960000Y-66975000D03*
%TD*%
D11*
%TO.P,C2,1*%
%TO.N,TX12V*%
X68355000Y-56040000D03*
%TO.P,C2,2*%
%TO.N,GND*%
X71305000Y-56040000D03*
%TD*%
D14*
%TO.N,Net-(J1-Pad2)*%
X65405000Y-79692500D02*
X65405000Y-84320000D01*
X65405000Y-84320000D02*
X65395000Y-84330000D01*
%TO.N,12V*%
X65930000Y-73920000D02*
X63390000Y-73920000D01*
X65930000Y-73920000D02*
X66910000Y-73920000D01*
X74422000Y-68389500D02*
X76945500Y-68389500D01*
X74422000Y-60769500D02*
X74422000Y-68389500D01*
X74422000Y-60769500D02*
X76945500Y-60769500D01*
X74422000Y-71453000D02*
X73335000Y-72540000D01*
X76945500Y-68389500D02*
X76993000Y-68437000D01*
X66910000Y-73920000D02*
X68290000Y-72540000D01*
X76945500Y-60769500D02*
X76993000Y-60817000D01*
X68290000Y-72540000D02*
X73335000Y-72540000D01*
X74422000Y-68389500D02*
X74422000Y-71453000D01*
X63390000Y-73920000D02*
X60850000Y-73920000D01*
%TO.N,TX12V*%
X68355000Y-57455000D02*
X68355000Y-56040000D01*
X64262000Y-68389500D02*
X64262000Y-60769500D01*
X66785500Y-60769500D02*
X66833000Y-60817000D01*
X66155000Y-56040000D02*
X65525000Y-55410000D01*
X62985000Y-55410000D02*
X60445000Y-55410000D01*
X66833000Y-68437000D02*
X64309500Y-68437000D01*
X66833000Y-58977000D02*
X68355000Y-57455000D01*
X64262000Y-60769500D02*
X66785500Y-60769500D01*
X65525000Y-55410000D02*
X62985000Y-55410000D01*
X64309500Y-68437000D02*
X64262000Y-68389500D01*
X66833000Y-60817000D02*
X66833000Y-58977000D01*
X68355000Y-56040000D02*
X66155000Y-56040000D01*
%TO.N,RX12V*%
X71913000Y-60817000D02*
X71913000Y-59387000D01*
X79700000Y-55740000D02*
X82240000Y-55740000D01*
X71865500Y-60769500D02*
X71913000Y-60817000D01*
X73470000Y-57830000D02*
X73470000Y-57055000D01*
X71913000Y-59387000D02*
X73470000Y-57830000D01*
X77160000Y-55740000D02*
X79700000Y-55740000D01*
X73470000Y-57055000D02*
X75845000Y-57055000D01*
X69342000Y-60769500D02*
X71865500Y-60769500D01*
X75845000Y-57055000D02*
X77160000Y-55740000D01*
X69342000Y-60769500D02*
X69342000Y-68389500D01*
X71865500Y-68389500D02*
X71913000Y-68437000D01*
X69342000Y-68389500D02*
X71865500Y-68389500D01*
%TO.N,Net-(K1-Pad1)*%
X82042000Y-60769500D02*
X84565500Y-60769500D01*
X84565500Y-60769500D02*
X84613000Y-60817000D01*
%TO.N,Net-(J7-Pad1)*%
X79480000Y-70870000D02*
X79940000Y-70870000D01*
X79940000Y-70870000D02*
X80120000Y-70690000D01*
X80690500Y-68389500D02*
X82042000Y-68389500D01*
X78850000Y-74610000D02*
X78850000Y-71500000D01*
X80120000Y-70690000D02*
X80120000Y-68960000D01*
X80120000Y-68960000D02*
X80690500Y-68389500D01*
X77750000Y-75710000D02*
X78850000Y-74610000D01*
X84613000Y-68437000D02*
X82089500Y-68437000D01*
X82089500Y-68437000D02*
X82042000Y-68389500D01*
X77750000Y-77100000D02*
X77750000Y-75710000D01*
X78850000Y-71500000D02*
X79480000Y-70870000D01*
%TD*%
%TA.AperFunction,Conductor*%
%TO.N,GND*%
G36*
X65745717Y-52034550D02*
G01*
X86336204Y-52048083D01*
X86404310Y-52068130D01*
X86450768Y-52121816D01*
X86462120Y-52173960D01*
X86480881Y-71319196D01*
X86460946Y-71387336D01*
X86407336Y-71433881D01*
X86355641Y-71445317D01*
X80743818Y-71479168D01*
X80675578Y-71459577D01*
X80628762Y-71406203D01*
X80618235Y-71335991D01*
X80647338Y-71271233D01*
X80653963Y-71264075D01*
X80667706Y-71250332D01*
X80668644Y-71249403D01*
X80680181Y-71238105D01*
X80731011Y-71188329D01*
X80734827Y-71182408D01*
X80753666Y-71153176D01*
X80761104Y-71142825D01*
X80782793Y-71115655D01*
X80782795Y-71115652D01*
X80787187Y-71110150D01*
X80790253Y-71103808D01*
X80801228Y-71081107D01*
X80808754Y-71067697D01*
X80822411Y-71046504D01*
X80822412Y-71046502D01*
X80826231Y-71040576D01*
X80840535Y-71001275D01*
X80845491Y-70989544D01*
X80860625Y-70958239D01*
X80860626Y-70958236D01*
X80863691Y-70951896D01*
X80870948Y-70920462D01*
X80875318Y-70905710D01*
X80883941Y-70882019D01*
X80883941Y-70882018D01*
X80886350Y-70875400D01*
X80891590Y-70833922D01*
X80893825Y-70821371D01*
X80901648Y-70787485D01*
X80901648Y-70787483D01*
X80903232Y-70780623D01*
X80903312Y-70757956D01*
X80903370Y-70741296D01*
X80903398Y-70740459D01*
X80903500Y-70739646D01*
X80903500Y-70703900D01*
X80903689Y-70649861D01*
X80903763Y-70628671D01*
X80924003Y-70560620D01*
X80977821Y-70514315D01*
X81048130Y-70504457D01*
X81112607Y-70534176D01*
X81120928Y-70542136D01*
X81138576Y-70560635D01*
X81323542Y-70698254D01*
X81328293Y-70700670D01*
X81328297Y-70700672D01*
X81358066Y-70715807D01*
X81529051Y-70802740D01*
X81534145Y-70804322D01*
X81534148Y-70804323D01*
X81682025Y-70850240D01*
X81749227Y-70871107D01*
X81754516Y-70871808D01*
X81972489Y-70900698D01*
X81972494Y-70900698D01*
X81977774Y-70901398D01*
X81983103Y-70901198D01*
X81983105Y-70901198D01*
X82092966Y-70897074D01*
X82208158Y-70892749D01*
X82259298Y-70882019D01*
X82428572Y-70846502D01*
X82433791Y-70845407D01*
X82438750Y-70843449D01*
X82438752Y-70843448D01*
X82643256Y-70762685D01*
X82643258Y-70762684D01*
X82648221Y-70760724D01*
X82678142Y-70742568D01*
X82830917Y-70649861D01*
X82845317Y-70641123D01*
X82879664Y-70611318D01*
X83015412Y-70493523D01*
X83015414Y-70493521D01*
X83019445Y-70490023D01*
X83063010Y-70436892D01*
X83162240Y-70315873D01*
X83162244Y-70315867D01*
X83165624Y-70311745D01*
X83201976Y-70247884D01*
X83253057Y-70198579D01*
X83322687Y-70184717D01*
X83388758Y-70210700D01*
X83420739Y-70247968D01*
X83421688Y-70250075D01*
X83550441Y-70441319D01*
X83709576Y-70608135D01*
X83894542Y-70745754D01*
X83899293Y-70748170D01*
X83899297Y-70748172D01*
X83963124Y-70780623D01*
X84100051Y-70850240D01*
X84105145Y-70851822D01*
X84105148Y-70851823D01*
X84262551Y-70900698D01*
X84320227Y-70918607D01*
X84325516Y-70919308D01*
X84543489Y-70948198D01*
X84543494Y-70948198D01*
X84548774Y-70948898D01*
X84554103Y-70948698D01*
X84554105Y-70948698D01*
X84663966Y-70944574D01*
X84779158Y-70940249D01*
X85004791Y-70892907D01*
X85009750Y-70890949D01*
X85009752Y-70890948D01*
X85214256Y-70810185D01*
X85214258Y-70810184D01*
X85219221Y-70808224D01*
X85228259Y-70802740D01*
X85375876Y-70713163D01*
X85416317Y-70688623D01*
X85439180Y-70668784D01*
X85586412Y-70541023D01*
X85586414Y-70541021D01*
X85590445Y-70537523D01*
X85632780Y-70485892D01*
X85733240Y-70363373D01*
X85733244Y-70363367D01*
X85736624Y-70359245D01*
X85780311Y-70282499D01*
X85848032Y-70163529D01*
X85850675Y-70158886D01*
X85929337Y-69942175D01*
X85959679Y-69774381D01*
X85969623Y-69719392D01*
X85969624Y-69719385D01*
X85970361Y-69715308D01*
X85971500Y-69691156D01*
X85971500Y-67229110D01*
X85956920Y-67057280D01*
X85955582Y-67052125D01*
X85955581Y-67052119D01*
X85900343Y-66839297D01*
X85900342Y-66839293D01*
X85899001Y-66834128D01*
X85893065Y-66820949D01*
X85806507Y-66628798D01*
X85804312Y-66623925D01*
X85675559Y-66432681D01*
X85516424Y-66265865D01*
X85498495Y-66252525D01*
X85344402Y-66137877D01*
X85331458Y-66128246D01*
X85326707Y-66125830D01*
X85326703Y-66125828D01*
X85203508Y-66063193D01*
X85125949Y-66023760D01*
X85120855Y-66022178D01*
X85120852Y-66022177D01*
X84910871Y-65956976D01*
X84905773Y-65955393D01*
X84900484Y-65954692D01*
X84682511Y-65925802D01*
X84682506Y-65925802D01*
X84677226Y-65925102D01*
X84671897Y-65925302D01*
X84671895Y-65925302D01*
X84562034Y-65929427D01*
X84446842Y-65933751D01*
X84221209Y-65981093D01*
X84216250Y-65983051D01*
X84216248Y-65983052D01*
X84011744Y-66063815D01*
X84011742Y-66063816D01*
X84006779Y-66065776D01*
X84002220Y-66068543D01*
X84002217Y-66068544D01*
X83854724Y-66158045D01*
X83809683Y-66185377D01*
X83805653Y-66188874D01*
X83685534Y-66293108D01*
X83635555Y-66336477D01*
X83632168Y-66340608D01*
X83492760Y-66510627D01*
X83492756Y-66510633D01*
X83489376Y-66514755D01*
X83453157Y-66578383D01*
X83453025Y-66578615D01*
X83401943Y-66627921D01*
X83332313Y-66641783D01*
X83266242Y-66615800D01*
X83234261Y-66578532D01*
X83233312Y-66576425D01*
X83104559Y-66385181D01*
X82945424Y-66218365D01*
X82760458Y-66080746D01*
X82755707Y-66078330D01*
X82755703Y-66078328D01*
X82633731Y-66016315D01*
X82554949Y-65976260D01*
X82549855Y-65974678D01*
X82549852Y-65974677D01*
X82339871Y-65909476D01*
X82334773Y-65907893D01*
X82329484Y-65907192D01*
X82111511Y-65878302D01*
X82111506Y-65878302D01*
X82106226Y-65877602D01*
X82100897Y-65877802D01*
X82100895Y-65877802D01*
X81991034Y-65881926D01*
X81875842Y-65886251D01*
X81650209Y-65933593D01*
X81645250Y-65935551D01*
X81645248Y-65935552D01*
X81440744Y-66016315D01*
X81440742Y-66016316D01*
X81435779Y-66018276D01*
X81431220Y-66021043D01*
X81431217Y-66021044D01*
X81332832Y-66080746D01*
X81238683Y-66137877D01*
X81234653Y-66141374D01*
X81086745Y-66269722D01*
X81064555Y-66288977D01*
X81061168Y-66293108D01*
X80921760Y-66463127D01*
X80921756Y-66463133D01*
X80918376Y-66467255D01*
X80915738Y-66471889D01*
X80915735Y-66471894D01*
X80849314Y-66588579D01*
X80804325Y-66667614D01*
X80725663Y-66884325D01*
X80724714Y-66889574D01*
X80724713Y-66889577D01*
X80685377Y-67107108D01*
X80685376Y-67107115D01*
X80684639Y-67111192D01*
X80683500Y-67135344D01*
X80683500Y-67487695D01*
X80663498Y-67555816D01*
X80609842Y-67602309D01*
X80584120Y-67610851D01*
X80569940Y-67613916D01*
X80557367Y-67615975D01*
X80522812Y-67619851D01*
X80522808Y-67619852D01*
X80515818Y-67620636D01*
X80509172Y-67622951D01*
X80509170Y-67622951D01*
X80485360Y-67631243D01*
X80470546Y-67635407D01*
X80445896Y-67640736D01*
X80445895Y-67640736D01*
X80439014Y-67642224D01*
X80401113Y-67659898D01*
X80389307Y-67664692D01*
X80356466Y-67676128D01*
X80356464Y-67676129D01*
X80349819Y-67678443D01*
X80343849Y-67682174D01*
X80343848Y-67682174D01*
X80322466Y-67695535D01*
X80308946Y-67702876D01*
X80286085Y-67713536D01*
X80286082Y-67713538D01*
X80279706Y-67716511D01*
X80274146Y-67720824D01*
X80274144Y-67720825D01*
X80246665Y-67742140D01*
X80236217Y-67749429D01*
X80200751Y-67771591D01*
X80173904Y-67798250D01*
X80172828Y-67799319D01*
X80172236Y-67799873D01*
X80171587Y-67800377D01*
X80146435Y-67825529D01*
X80076025Y-67895449D01*
X80075384Y-67896459D01*
X80074326Y-67897638D01*
X79572383Y-68399581D01*
X79571445Y-68400510D01*
X79508989Y-68461671D01*
X79505172Y-68467593D01*
X79505170Y-68467596D01*
X79486335Y-68496822D01*
X79478907Y-68507161D01*
X79452812Y-68539850D01*
X79449746Y-68546192D01*
X79449743Y-68546197D01*
X79438773Y-68568890D01*
X79431247Y-68582302D01*
X79417586Y-68603500D01*
X79417584Y-68603505D01*
X79413769Y-68609424D01*
X79411360Y-68616044D01*
X79399469Y-68648715D01*
X79394506Y-68660463D01*
X79376309Y-68698105D01*
X79369051Y-68729544D01*
X79364685Y-68744280D01*
X79353650Y-68774600D01*
X79352767Y-68781586D01*
X79352767Y-68781588D01*
X79348410Y-68816079D01*
X79346175Y-68828631D01*
X79336768Y-68869377D01*
X79336743Y-68876417D01*
X79336743Y-68876420D01*
X79336630Y-68908704D01*
X79336602Y-68909541D01*
X79336500Y-68910354D01*
X79336500Y-68946100D01*
X79336154Y-69045153D01*
X79336415Y-69046321D01*
X79336500Y-69047889D01*
X79336500Y-69997707D01*
X79316498Y-70065828D01*
X79262842Y-70112321D01*
X79237130Y-70120861D01*
X79235399Y-70121235D01*
X79235395Y-70121236D01*
X79228514Y-70122724D01*
X79222127Y-70125702D01*
X79222128Y-70125702D01*
X79190610Y-70140398D01*
X79178801Y-70145193D01*
X79139319Y-70158943D01*
X79131980Y-70163529D01*
X79111960Y-70176039D01*
X79098451Y-70183374D01*
X79069207Y-70197011D01*
X79063646Y-70201325D01*
X79063642Y-70201327D01*
X79036162Y-70222643D01*
X79025713Y-70229932D01*
X78990251Y-70252091D01*
X78984718Y-70257586D01*
X78962337Y-70279811D01*
X78961739Y-70280371D01*
X78961087Y-70280876D01*
X78935796Y-70306167D01*
X78865525Y-70375949D01*
X78864884Y-70376959D01*
X78863833Y-70378130D01*
X78302334Y-70939630D01*
X78301395Y-70940559D01*
X78238989Y-71001671D01*
X78235172Y-71007593D01*
X78235170Y-71007596D01*
X78216335Y-71036822D01*
X78208907Y-71047161D01*
X78182812Y-71079850D01*
X78179746Y-71086192D01*
X78179743Y-71086197D01*
X78168773Y-71108890D01*
X78161247Y-71122302D01*
X78147586Y-71143500D01*
X78147584Y-71143505D01*
X78143769Y-71149424D01*
X78129609Y-71188329D01*
X78129469Y-71188715D01*
X78124506Y-71200463D01*
X78106309Y-71238105D01*
X78099051Y-71269544D01*
X78094685Y-71284280D01*
X78090325Y-71296261D01*
X78083650Y-71314600D01*
X78082767Y-71321586D01*
X78082767Y-71321588D01*
X78078410Y-71356079D01*
X78076175Y-71368631D01*
X78066768Y-71409377D01*
X78066743Y-71416417D01*
X78066743Y-71416420D01*
X78066630Y-71448704D01*
X78066602Y-71449541D01*
X78066500Y-71450354D01*
X78066500Y-71486100D01*
X78066154Y-71585153D01*
X78066415Y-71586321D01*
X78066500Y-71587889D01*
X78066500Y-74233274D01*
X78046498Y-74301395D01*
X78029595Y-74322369D01*
X77796859Y-74555105D01*
X77734547Y-74589131D01*
X77712492Y-74591921D01*
X77583842Y-74596751D01*
X77358209Y-74644093D01*
X77353250Y-74646051D01*
X77353248Y-74646052D01*
X77148744Y-74726815D01*
X77148742Y-74726816D01*
X77143779Y-74728776D01*
X77139220Y-74731543D01*
X77139217Y-74731544D01*
X77044113Y-74789255D01*
X76946683Y-74848377D01*
X76942653Y-74851874D01*
X76810558Y-74966500D01*
X76772555Y-74999477D01*
X76769168Y-75003608D01*
X76629760Y-75173627D01*
X76629756Y-75173633D01*
X76626376Y-75177755D01*
X76623736Y-75182393D01*
X76589847Y-75241928D01*
X76538765Y-75291234D01*
X76469135Y-75305096D01*
X76403064Y-75279113D01*
X76375825Y-75249963D01*
X76275150Y-75100425D01*
X76268481Y-75092130D01*
X76116772Y-74933100D01*
X76108814Y-74926059D01*
X75932475Y-74794859D01*
X75923438Y-74789255D01*
X75727516Y-74689643D01*
X75717665Y-74685643D01*
X75507760Y-74620466D01*
X75497376Y-74618183D01*
X75481957Y-74616139D01*
X75467793Y-74618335D01*
X75464000Y-74631522D01*
X75464000Y-79566192D01*
X75467973Y-79579723D01*
X75478580Y-79581248D01*
X75596421Y-79556523D01*
X75606617Y-79553463D01*
X75811029Y-79472737D01*
X75820561Y-79468006D01*
X76008462Y-79353984D01*
X76017052Y-79347720D01*
X76183052Y-79203673D01*
X76190472Y-79196042D01*
X76329826Y-79026089D01*
X76335850Y-79017322D01*
X76369565Y-78958094D01*
X76420647Y-78908788D01*
X76490277Y-78894926D01*
X76556348Y-78920909D01*
X76583587Y-78950059D01*
X76687441Y-79104319D01*
X76846576Y-79271135D01*
X77031542Y-79408754D01*
X77036293Y-79411170D01*
X77036297Y-79411172D01*
X77090048Y-79438500D01*
X77237051Y-79513240D01*
X77242145Y-79514822D01*
X77242148Y-79514823D01*
X77407583Y-79566192D01*
X77457227Y-79581607D01*
X77462516Y-79582308D01*
X77680489Y-79611198D01*
X77680494Y-79611198D01*
X77685774Y-79611898D01*
X77691103Y-79611698D01*
X77691105Y-79611698D01*
X77800966Y-79607574D01*
X77916158Y-79603249D01*
X78141791Y-79555907D01*
X78146750Y-79553949D01*
X78146752Y-79553948D01*
X78351256Y-79473185D01*
X78351258Y-79473184D01*
X78356221Y-79471224D01*
X78361525Y-79468006D01*
X78548757Y-79354390D01*
X78548756Y-79354390D01*
X78553317Y-79351623D01*
X78557815Y-79347720D01*
X78723412Y-79204023D01*
X78723414Y-79204021D01*
X78727445Y-79200523D01*
X78761516Y-79158970D01*
X78870240Y-79026373D01*
X78870244Y-79026367D01*
X78873624Y-79022245D01*
X78876427Y-79017322D01*
X78985032Y-78826529D01*
X78987675Y-78821886D01*
X79066337Y-78605175D01*
X79067287Y-78599923D01*
X79106623Y-78382392D01*
X79106624Y-78382385D01*
X79107361Y-78378308D01*
X79108500Y-78354156D01*
X79108500Y-75892110D01*
X79095006Y-75733075D01*
X79094371Y-75725591D01*
X79094370Y-75725587D01*
X79093920Y-75720280D01*
X79061304Y-75594617D01*
X79063551Y-75523657D01*
X79094168Y-75473868D01*
X79397617Y-75170419D01*
X79398555Y-75169490D01*
X79398663Y-75169384D01*
X79461011Y-75108329D01*
X79464828Y-75102407D01*
X79464830Y-75102404D01*
X79483665Y-75073178D01*
X79491093Y-75062839D01*
X79517188Y-75030150D01*
X79520254Y-75023808D01*
X79520257Y-75023803D01*
X79531227Y-75001110D01*
X79538753Y-74987698D01*
X79552414Y-74966500D01*
X79552416Y-74966495D01*
X79556231Y-74960576D01*
X79570533Y-74921281D01*
X79575494Y-74909537D01*
X79590624Y-74878240D01*
X79590625Y-74878237D01*
X79593691Y-74871895D01*
X79597597Y-74854979D01*
X79600948Y-74840461D01*
X79605320Y-74825705D01*
X79610445Y-74811626D01*
X79652541Y-74754456D01*
X79718864Y-74729121D01*
X79788355Y-74743664D01*
X79838952Y-74793469D01*
X79854844Y-74854978D01*
X79833004Y-85709720D01*
X79831885Y-86265692D01*
X79811746Y-86333772D01*
X79757997Y-86380157D01*
X79705885Y-86391438D01*
X69195522Y-86391438D01*
X69127401Y-86371436D01*
X69080908Y-86317780D01*
X69070804Y-86247506D01*
X69086020Y-86203106D01*
X69169576Y-86056318D01*
X69174041Y-86046654D01*
X69249031Y-85840059D01*
X69251802Y-85829792D01*
X69291123Y-85612345D01*
X69292056Y-85604116D01*
X69292930Y-85585598D01*
X69293000Y-85582623D01*
X69293000Y-84602115D01*
X69288525Y-84586876D01*
X69287135Y-84585671D01*
X69279452Y-84584000D01*
X67807000Y-84584000D01*
X67738879Y-84563998D01*
X67692386Y-84510342D01*
X67681000Y-84458000D01*
X67681000Y-84057885D01*
X68189000Y-84057885D01*
X68193475Y-84073124D01*
X68194865Y-84074329D01*
X68202548Y-84076000D01*
X69274885Y-84076000D01*
X69290124Y-84071525D01*
X69291329Y-84070135D01*
X69293000Y-84062452D01*
X69293000Y-83124794D01*
X69292775Y-83119485D01*
X69278876Y-82955675D01*
X69277086Y-82945203D01*
X69221870Y-82732465D01*
X69218335Y-82722425D01*
X69128063Y-82522030D01*
X69122894Y-82512744D01*
X69000150Y-82330425D01*
X68993481Y-82322130D01*
X68841772Y-82163100D01*
X68833814Y-82156059D01*
X68781610Y-82117218D01*
X68738897Y-82060508D01*
X68733624Y-81989707D01*
X68767466Y-81927295D01*
X68774243Y-81920963D01*
X68918052Y-81796173D01*
X68925472Y-81788542D01*
X69064826Y-81618589D01*
X69070850Y-81609822D01*
X69179576Y-81418818D01*
X69184041Y-81409154D01*
X69259031Y-81202559D01*
X69261802Y-81192292D01*
X69301123Y-80974845D01*
X69302056Y-80966616D01*
X69302930Y-80948098D01*
X69303000Y-80945123D01*
X69303000Y-79964615D01*
X69298525Y-79949376D01*
X69297135Y-79948171D01*
X69289452Y-79946500D01*
X68217115Y-79946500D01*
X68201876Y-79950975D01*
X68200671Y-79952365D01*
X68199000Y-79960048D01*
X68199000Y-82194530D01*
X68196121Y-82221313D01*
X68189000Y-82254048D01*
X68189000Y-84057885D01*
X67681000Y-84057885D01*
X67681000Y-81827970D01*
X67683879Y-81801187D01*
X67691000Y-81768452D01*
X67691000Y-79420385D01*
X68199000Y-79420385D01*
X68203475Y-79435624D01*
X68204865Y-79436829D01*
X68212548Y-79438500D01*
X69284885Y-79438500D01*
X69300124Y-79434025D01*
X69301329Y-79432635D01*
X69303000Y-79424952D01*
X69303000Y-78487294D01*
X69302775Y-78481985D01*
X69288876Y-78318175D01*
X69287086Y-78307703D01*
X69286438Y-78305206D01*
X73852000Y-78305206D01*
X73852225Y-78310515D01*
X73866124Y-78474325D01*
X73867914Y-78484797D01*
X73923130Y-78697535D01*
X73926665Y-78707575D01*
X74016937Y-78907970D01*
X74022106Y-78917256D01*
X74144850Y-79099575D01*
X74151519Y-79107870D01*
X74303228Y-79266900D01*
X74311186Y-79273941D01*
X74487525Y-79405141D01*
X74496562Y-79410745D01*
X74692484Y-79510357D01*
X74702335Y-79514357D01*
X74912240Y-79579534D01*
X74922624Y-79581817D01*
X74938043Y-79583861D01*
X74952207Y-79581665D01*
X74956000Y-79568478D01*
X74956000Y-77372115D01*
X74951525Y-77356876D01*
X74950135Y-77355671D01*
X74942452Y-77354000D01*
X73870115Y-77354000D01*
X73854876Y-77358475D01*
X73853671Y-77359865D01*
X73852000Y-77367548D01*
X73852000Y-78305206D01*
X69286438Y-78305206D01*
X69231870Y-78094965D01*
X69228335Y-78084925D01*
X69138063Y-77884530D01*
X69132894Y-77875244D01*
X69010150Y-77692925D01*
X69003481Y-77684630D01*
X68851772Y-77525600D01*
X68843814Y-77518559D01*
X68667475Y-77387359D01*
X68658438Y-77381755D01*
X68462516Y-77282143D01*
X68452665Y-77278143D01*
X68242760Y-77212966D01*
X68232376Y-77210683D01*
X68216957Y-77208639D01*
X68202793Y-77210835D01*
X68199000Y-77224022D01*
X68199000Y-79420385D01*
X67691000Y-79420385D01*
X67691000Y-77226308D01*
X67687027Y-77212777D01*
X67676420Y-77211252D01*
X67558579Y-77235977D01*
X67548383Y-77239037D01*
X67343971Y-77319763D01*
X67334439Y-77324494D01*
X67146538Y-77438516D01*
X67137948Y-77444780D01*
X66971948Y-77588827D01*
X66964528Y-77596458D01*
X66825174Y-77766411D01*
X66819150Y-77775178D01*
X66785435Y-77834406D01*
X66734353Y-77883712D01*
X66664723Y-77897574D01*
X66598652Y-77871591D01*
X66571413Y-77842441D01*
X66522814Y-77770255D01*
X66467559Y-77688181D01*
X66308424Y-77521365D01*
X66123458Y-77383746D01*
X66118707Y-77381330D01*
X66118703Y-77381328D01*
X66000588Y-77321276D01*
X65917949Y-77279260D01*
X65912855Y-77277678D01*
X65912852Y-77277677D01*
X65702871Y-77212476D01*
X65697773Y-77210893D01*
X65692484Y-77210192D01*
X65474511Y-77181302D01*
X65474506Y-77181302D01*
X65469226Y-77180602D01*
X65463897Y-77180802D01*
X65463895Y-77180802D01*
X65354034Y-77184926D01*
X65238842Y-77189251D01*
X65013209Y-77236593D01*
X65008250Y-77238551D01*
X65008248Y-77238552D01*
X64803744Y-77319315D01*
X64803742Y-77319316D01*
X64798779Y-77321276D01*
X64794220Y-77324043D01*
X64794217Y-77324044D01*
X64699113Y-77381755D01*
X64601683Y-77440877D01*
X64597653Y-77444374D01*
X64504484Y-77525222D01*
X64427555Y-77591977D01*
X64424168Y-77596108D01*
X64284760Y-77766127D01*
X64284756Y-77766133D01*
X64281376Y-77770255D01*
X64244860Y-77834406D01*
X64244847Y-77834428D01*
X64193765Y-77883734D01*
X64124135Y-77897596D01*
X64058064Y-77871613D01*
X64030825Y-77842463D01*
X63930150Y-77692925D01*
X63923481Y-77684630D01*
X63771772Y-77525600D01*
X63763814Y-77518559D01*
X63587475Y-77387359D01*
X63578438Y-77381755D01*
X63382516Y-77282143D01*
X63372665Y-77278143D01*
X63162760Y-77212966D01*
X63152376Y-77210683D01*
X63136957Y-77208639D01*
X63122793Y-77210835D01*
X63119000Y-77224022D01*
X63119000Y-82194530D01*
X63116121Y-82221313D01*
X63109000Y-82254048D01*
X63109000Y-84458000D01*
X63088998Y-84526121D01*
X63035342Y-84572614D01*
X62983000Y-84584000D01*
X61515115Y-84584000D01*
X61499876Y-84588475D01*
X61498671Y-84589865D01*
X61497000Y-84597548D01*
X61497000Y-85535206D01*
X61497225Y-85540515D01*
X61511124Y-85704325D01*
X61512914Y-85714797D01*
X61568130Y-85927535D01*
X61571665Y-85937575D01*
X61661937Y-86137970D01*
X61667106Y-86147256D01*
X61699297Y-86195071D01*
X61720748Y-86262749D01*
X61702204Y-86331281D01*
X61649553Y-86378909D01*
X61594777Y-86391438D01*
X57173625Y-86391438D01*
X57105504Y-86371436D01*
X57059011Y-86317780D01*
X57047625Y-86265435D01*
X57047626Y-86252245D01*
X57047681Y-84057885D01*
X61497000Y-84057885D01*
X61501475Y-84073124D01*
X61502865Y-84074329D01*
X61510548Y-84076000D01*
X62582885Y-84076000D01*
X62598124Y-84071525D01*
X62599329Y-84070135D01*
X62601000Y-84062452D01*
X62601000Y-81827970D01*
X62603879Y-81801187D01*
X62611000Y-81768452D01*
X62611000Y-79964615D01*
X62606525Y-79949376D01*
X62605135Y-79948171D01*
X62597452Y-79946500D01*
X61525115Y-79946500D01*
X61509876Y-79950975D01*
X61508671Y-79952365D01*
X61507000Y-79960048D01*
X61507000Y-80897706D01*
X61507225Y-80903015D01*
X61521124Y-81066825D01*
X61522914Y-81077297D01*
X61578130Y-81290035D01*
X61581665Y-81300075D01*
X61671937Y-81500470D01*
X61677106Y-81509756D01*
X61799850Y-81692075D01*
X61806519Y-81700370D01*
X61958228Y-81859400D01*
X61966186Y-81866441D01*
X62018390Y-81905282D01*
X62061103Y-81961992D01*
X62066376Y-82032793D01*
X62032534Y-82095205D01*
X62025757Y-82101537D01*
X61881948Y-82226327D01*
X61874528Y-82233958D01*
X61735174Y-82403911D01*
X61729150Y-82412678D01*
X61620424Y-82603682D01*
X61615959Y-82613346D01*
X61540969Y-82819941D01*
X61538198Y-82830208D01*
X61498877Y-83047655D01*
X61497944Y-83055884D01*
X61497070Y-83074402D01*
X61497000Y-83077377D01*
X61497000Y-84057885D01*
X57047681Y-84057885D01*
X57047798Y-79420385D01*
X61507000Y-79420385D01*
X61511475Y-79435624D01*
X61512865Y-79436829D01*
X61520548Y-79438500D01*
X62592885Y-79438500D01*
X62608124Y-79434025D01*
X62609329Y-79432635D01*
X62611000Y-79424952D01*
X62611000Y-77226308D01*
X62607027Y-77212777D01*
X62596420Y-77211252D01*
X62478579Y-77235977D01*
X62468383Y-77239037D01*
X62263971Y-77319763D01*
X62254439Y-77324494D01*
X62066538Y-77438516D01*
X62057948Y-77444780D01*
X61891948Y-77588827D01*
X61884528Y-77596458D01*
X61745174Y-77766411D01*
X61739150Y-77775178D01*
X61630424Y-77966182D01*
X61625959Y-77975846D01*
X61550969Y-78182441D01*
X61548198Y-78192708D01*
X61508877Y-78410155D01*
X61507944Y-78418384D01*
X61507070Y-78436902D01*
X61507000Y-78439877D01*
X61507000Y-79420385D01*
X57047798Y-79420385D01*
X57047863Y-76827885D01*
X73852000Y-76827885D01*
X73856475Y-76843124D01*
X73857865Y-76844329D01*
X73865548Y-76846000D01*
X74937885Y-76846000D01*
X74953124Y-76841525D01*
X74954329Y-76840135D01*
X74956000Y-76832452D01*
X74956000Y-74633808D01*
X74952027Y-74620277D01*
X74941420Y-74618752D01*
X74823579Y-74643477D01*
X74813383Y-74646537D01*
X74608971Y-74727263D01*
X74599439Y-74731994D01*
X74411538Y-74846016D01*
X74402948Y-74852280D01*
X74236948Y-74996327D01*
X74229528Y-75003958D01*
X74090174Y-75173911D01*
X74084150Y-75182678D01*
X73975424Y-75373682D01*
X73970959Y-75383346D01*
X73895969Y-75589941D01*
X73893198Y-75600208D01*
X73853877Y-75817655D01*
X73852944Y-75825884D01*
X73852070Y-75844402D01*
X73852000Y-75847377D01*
X73852000Y-76827885D01*
X57047863Y-76827885D01*
X57048104Y-67243580D01*
X57478752Y-67243580D01*
X57503477Y-67361421D01*
X57506537Y-67371617D01*
X57587263Y-67576029D01*
X57591994Y-67585561D01*
X57706016Y-67773462D01*
X57712280Y-67782052D01*
X57856327Y-67948052D01*
X57863958Y-67955472D01*
X58033911Y-68094826D01*
X58042678Y-68100850D01*
X58233682Y-68209576D01*
X58243346Y-68214041D01*
X58449941Y-68289031D01*
X58460208Y-68291802D01*
X58677655Y-68331123D01*
X58685884Y-68332056D01*
X58704402Y-68332930D01*
X58707377Y-68333000D01*
X59687885Y-68333000D01*
X59703124Y-68328525D01*
X59704329Y-68327135D01*
X59706000Y-68319452D01*
X59706000Y-68314885D01*
X60214000Y-68314885D01*
X60218475Y-68330124D01*
X60219865Y-68331329D01*
X60227548Y-68333000D01*
X61165206Y-68333000D01*
X61170515Y-68332775D01*
X61334325Y-68318876D01*
X61344797Y-68317086D01*
X61557535Y-68261870D01*
X61567575Y-68258335D01*
X61767970Y-68168063D01*
X61777256Y-68162894D01*
X61959575Y-68040150D01*
X61967870Y-68033481D01*
X62126900Y-67881772D01*
X62133941Y-67873814D01*
X62265141Y-67697475D01*
X62270745Y-67688438D01*
X62370357Y-67492516D01*
X62374357Y-67482665D01*
X62439534Y-67272760D01*
X62441817Y-67262376D01*
X62443861Y-67246957D01*
X62441665Y-67232793D01*
X62428478Y-67229000D01*
X60232115Y-67229000D01*
X60216876Y-67233475D01*
X60215671Y-67234865D01*
X60214000Y-67242548D01*
X60214000Y-68314885D01*
X59706000Y-68314885D01*
X59706000Y-67247115D01*
X59701525Y-67231876D01*
X59700135Y-67230671D01*
X59692452Y-67229000D01*
X57493808Y-67229000D01*
X57480277Y-67232973D01*
X57478752Y-67243580D01*
X57048104Y-67243580D01*
X57048117Y-66715114D01*
X57048117Y-66703043D01*
X57476139Y-66703043D01*
X57478335Y-66717207D01*
X57491522Y-66721000D01*
X59687885Y-66721000D01*
X59703124Y-66716525D01*
X59704329Y-66715135D01*
X59706000Y-66707452D01*
X59706000Y-66702885D01*
X60214000Y-66702885D01*
X60218475Y-66718124D01*
X60219865Y-66719329D01*
X60227548Y-66721000D01*
X62426192Y-66721000D01*
X62439723Y-66717027D01*
X62441248Y-66706420D01*
X62416523Y-66588579D01*
X62413463Y-66578383D01*
X62332737Y-66373971D01*
X62328006Y-66364439D01*
X62213984Y-66176538D01*
X62207720Y-66167948D01*
X62063673Y-66001948D01*
X62056042Y-65994528D01*
X61886089Y-65855174D01*
X61877322Y-65849150D01*
X61817609Y-65815159D01*
X61768303Y-65764077D01*
X61754441Y-65694447D01*
X61780424Y-65628376D01*
X61809574Y-65601137D01*
X61959575Y-65500151D01*
X61967870Y-65493481D01*
X62126900Y-65341772D01*
X62133941Y-65333814D01*
X62265141Y-65157475D01*
X62270745Y-65148438D01*
X62370357Y-64952516D01*
X62374357Y-64942665D01*
X62439534Y-64732760D01*
X62441817Y-64722376D01*
X62443861Y-64706957D01*
X62441665Y-64692793D01*
X62428478Y-64689000D01*
X60232115Y-64689000D01*
X60216876Y-64693475D01*
X60215671Y-64694865D01*
X60214000Y-64702548D01*
X60214000Y-66702885D01*
X59706000Y-66702885D01*
X59706000Y-64707115D01*
X59701525Y-64691876D01*
X59700135Y-64690671D01*
X59692452Y-64689000D01*
X57493808Y-64689000D01*
X57480277Y-64692973D01*
X57478752Y-64703580D01*
X57503477Y-64821421D01*
X57506537Y-64831617D01*
X57587263Y-65036029D01*
X57591994Y-65045561D01*
X57706016Y-65233462D01*
X57712280Y-65242052D01*
X57856327Y-65408052D01*
X57863958Y-65415472D01*
X58033911Y-65554826D01*
X58042678Y-65560850D01*
X58102391Y-65594841D01*
X58151697Y-65645923D01*
X58165559Y-65715553D01*
X58139576Y-65781624D01*
X58110426Y-65808863D01*
X57960425Y-65909849D01*
X57952130Y-65916519D01*
X57793100Y-66068228D01*
X57786059Y-66076186D01*
X57654859Y-66252525D01*
X57649255Y-66261562D01*
X57549643Y-66457484D01*
X57545643Y-66467335D01*
X57480466Y-66677240D01*
X57478183Y-66687624D01*
X57476139Y-66703043D01*
X57048117Y-66703043D01*
X57048181Y-64163043D01*
X57476139Y-64163043D01*
X57478335Y-64177207D01*
X57491522Y-64181000D01*
X59687885Y-64181000D01*
X59703124Y-64176525D01*
X59704329Y-64175135D01*
X59706000Y-64167452D01*
X59706000Y-64162885D01*
X60214000Y-64162885D01*
X60218475Y-64178124D01*
X60219865Y-64179329D01*
X60227548Y-64181000D01*
X62426192Y-64181000D01*
X62439723Y-64177027D01*
X62441248Y-64166420D01*
X62416523Y-64048579D01*
X62413463Y-64038383D01*
X62332737Y-63833971D01*
X62328006Y-63824439D01*
X62213984Y-63636538D01*
X62207720Y-63627948D01*
X62063673Y-63461948D01*
X62056042Y-63454528D01*
X61886089Y-63315174D01*
X61877322Y-63309150D01*
X61817609Y-63275159D01*
X61768303Y-63224077D01*
X61754441Y-63154447D01*
X61780424Y-63088376D01*
X61809574Y-63061137D01*
X61959575Y-62960151D01*
X61967870Y-62953481D01*
X62126900Y-62801772D01*
X62133941Y-62793814D01*
X62265141Y-62617475D01*
X62270745Y-62608438D01*
X62370357Y-62412516D01*
X62374357Y-62402665D01*
X62439534Y-62192760D01*
X62441817Y-62182376D01*
X62443861Y-62166957D01*
X62441665Y-62152793D01*
X62428478Y-62149000D01*
X60232115Y-62149000D01*
X60216876Y-62153475D01*
X60215671Y-62154865D01*
X60214000Y-62162548D01*
X60214000Y-64162885D01*
X59706000Y-64162885D01*
X59706000Y-62167115D01*
X59701525Y-62151876D01*
X59700135Y-62150671D01*
X59692452Y-62149000D01*
X57493808Y-62149000D01*
X57480277Y-62152973D01*
X57478752Y-62163580D01*
X57503477Y-62281421D01*
X57506537Y-62291617D01*
X57587263Y-62496029D01*
X57591994Y-62505561D01*
X57706016Y-62693462D01*
X57712280Y-62702052D01*
X57856327Y-62868052D01*
X57863958Y-62875472D01*
X58033911Y-63014826D01*
X58042678Y-63020850D01*
X58102391Y-63054841D01*
X58151697Y-63105923D01*
X58165559Y-63175553D01*
X58139576Y-63241624D01*
X58110426Y-63268863D01*
X57960425Y-63369849D01*
X57952130Y-63376519D01*
X57793100Y-63528228D01*
X57786059Y-63536186D01*
X57654859Y-63712525D01*
X57649255Y-63721562D01*
X57549643Y-63917484D01*
X57545643Y-63927335D01*
X57480466Y-64137240D01*
X57478183Y-64147624D01*
X57476139Y-64163043D01*
X57048181Y-64163043D01*
X57048245Y-61623043D01*
X57476139Y-61623043D01*
X57478335Y-61637207D01*
X57491522Y-61641000D01*
X59687885Y-61641000D01*
X59703124Y-61636525D01*
X59704329Y-61635135D01*
X59706000Y-61627452D01*
X59706000Y-61622885D01*
X60214000Y-61622885D01*
X60218475Y-61638124D01*
X60219865Y-61639329D01*
X60227548Y-61641000D01*
X62426192Y-61641000D01*
X62439723Y-61637027D01*
X62441248Y-61626420D01*
X62416523Y-61508579D01*
X62413463Y-61498383D01*
X62332737Y-61293971D01*
X62328006Y-61284439D01*
X62213984Y-61096538D01*
X62207720Y-61087948D01*
X62063673Y-60921948D01*
X62056042Y-60914528D01*
X61886089Y-60775174D01*
X61877322Y-60769150D01*
X61686318Y-60660424D01*
X61676654Y-60655959D01*
X61470059Y-60580969D01*
X61459792Y-60578198D01*
X61242345Y-60538877D01*
X61234116Y-60537944D01*
X61215598Y-60537070D01*
X61212623Y-60537000D01*
X60232115Y-60537000D01*
X60216876Y-60541475D01*
X60215671Y-60542865D01*
X60214000Y-60550548D01*
X60214000Y-61622885D01*
X59706000Y-61622885D01*
X59706000Y-60555115D01*
X59701525Y-60539876D01*
X59700135Y-60538671D01*
X59692452Y-60537000D01*
X58754794Y-60537000D01*
X58749485Y-60537225D01*
X58585675Y-60551124D01*
X58575203Y-60552914D01*
X58362465Y-60608130D01*
X58352425Y-60611665D01*
X58152030Y-60701937D01*
X58142744Y-60707106D01*
X57960425Y-60829850D01*
X57952130Y-60836519D01*
X57793100Y-60988228D01*
X57786059Y-60996186D01*
X57654859Y-61172525D01*
X57649255Y-61181562D01*
X57549643Y-61377484D01*
X57545643Y-61387335D01*
X57480466Y-61597240D01*
X57478183Y-61607624D01*
X57476139Y-61623043D01*
X57048245Y-61623043D01*
X57048371Y-56617890D01*
X59086500Y-56617890D01*
X59101080Y-56789720D01*
X59102418Y-56794875D01*
X59102419Y-56794881D01*
X59157473Y-57006993D01*
X59158999Y-57012872D01*
X59161191Y-57017738D01*
X59161192Y-57017741D01*
X59163287Y-57022392D01*
X59253688Y-57223075D01*
X59382441Y-57414319D01*
X59386120Y-57418176D01*
X59386122Y-57418178D01*
X59412976Y-57446328D01*
X59541576Y-57581135D01*
X59545854Y-57584318D01*
X59556959Y-57592580D01*
X59726542Y-57718754D01*
X59731293Y-57721170D01*
X59731297Y-57721172D01*
X59820029Y-57766285D01*
X59932051Y-57823240D01*
X59937145Y-57824822D01*
X59937148Y-57824823D01*
X60099227Y-57875150D01*
X60152227Y-57891607D01*
X60157516Y-57892308D01*
X60375489Y-57921198D01*
X60375494Y-57921198D01*
X60380774Y-57921898D01*
X60386103Y-57921698D01*
X60386105Y-57921698D01*
X60495966Y-57917574D01*
X60611158Y-57913249D01*
X60621234Y-57911135D01*
X60792739Y-57875150D01*
X60836791Y-57865907D01*
X60841750Y-57863949D01*
X60841752Y-57863948D01*
X61046256Y-57783185D01*
X61046258Y-57783184D01*
X61051221Y-57781224D01*
X61085728Y-57760285D01*
X61243757Y-57664390D01*
X61243756Y-57664390D01*
X61248317Y-57661623D01*
X61265146Y-57647020D01*
X61418412Y-57514023D01*
X61418414Y-57514021D01*
X61422445Y-57510523D01*
X61484492Y-57434851D01*
X61565240Y-57336373D01*
X61565244Y-57336367D01*
X61568624Y-57332245D01*
X61604878Y-57268556D01*
X61655959Y-57219251D01*
X61725589Y-57205389D01*
X61791660Y-57231372D01*
X61818898Y-57260521D01*
X61922441Y-57414319D01*
X61926120Y-57418176D01*
X61926122Y-57418178D01*
X61952976Y-57446328D01*
X62081576Y-57581135D01*
X62085854Y-57584318D01*
X62096959Y-57592580D01*
X62266542Y-57718754D01*
X62271293Y-57721170D01*
X62271297Y-57721172D01*
X62360029Y-57766285D01*
X62472051Y-57823240D01*
X62477145Y-57824822D01*
X62477148Y-57824823D01*
X62639227Y-57875150D01*
X62692227Y-57891607D01*
X62697516Y-57892308D01*
X62915489Y-57921198D01*
X62915494Y-57921198D01*
X62920774Y-57921898D01*
X62926103Y-57921698D01*
X62926105Y-57921698D01*
X63035966Y-57917574D01*
X63151158Y-57913249D01*
X63161234Y-57911135D01*
X63332739Y-57875150D01*
X63376791Y-57865907D01*
X63381750Y-57863949D01*
X63381752Y-57863948D01*
X63586256Y-57783185D01*
X63586258Y-57783184D01*
X63591221Y-57781224D01*
X63625728Y-57760285D01*
X63783757Y-57664390D01*
X63783756Y-57664390D01*
X63788317Y-57661623D01*
X63805146Y-57647020D01*
X63958412Y-57514023D01*
X63958414Y-57514021D01*
X63962445Y-57510523D01*
X64024492Y-57434851D01*
X64105240Y-57336373D01*
X64105244Y-57336367D01*
X64108624Y-57332245D01*
X64144878Y-57268556D01*
X64195959Y-57219251D01*
X64265589Y-57205389D01*
X64331660Y-57231372D01*
X64358898Y-57260521D01*
X64462441Y-57414319D01*
X64466120Y-57418176D01*
X64466122Y-57418178D01*
X64492976Y-57446328D01*
X64621576Y-57581135D01*
X64625854Y-57584318D01*
X64636959Y-57592580D01*
X64806542Y-57718754D01*
X64811293Y-57721170D01*
X64811297Y-57721172D01*
X64900029Y-57766285D01*
X65012051Y-57823240D01*
X65017145Y-57824822D01*
X65017148Y-57824823D01*
X65179227Y-57875150D01*
X65232227Y-57891607D01*
X65237516Y-57892308D01*
X65455489Y-57921198D01*
X65455494Y-57921198D01*
X65460774Y-57921898D01*
X65466103Y-57921698D01*
X65466105Y-57921698D01*
X65575966Y-57917574D01*
X65691158Y-57913249D01*
X65701234Y-57911135D01*
X65872739Y-57875150D01*
X65916791Y-57865907D01*
X65921750Y-57863949D01*
X65921752Y-57863948D01*
X66126256Y-57783185D01*
X66126258Y-57783184D01*
X66131221Y-57781224D01*
X66165728Y-57760285D01*
X66323757Y-57664390D01*
X66323756Y-57664390D01*
X66328317Y-57661623D01*
X66345146Y-57647020D01*
X66498412Y-57514023D01*
X66498414Y-57514021D01*
X66502445Y-57510523D01*
X66564492Y-57434851D01*
X66645240Y-57336373D01*
X66645244Y-57336367D01*
X66648624Y-57332245D01*
X66671106Y-57292751D01*
X66760032Y-57136529D01*
X66762675Y-57131886D01*
X66841337Y-56915175D01*
X66841376Y-56915189D01*
X66877519Y-56856121D01*
X66941433Y-56825209D01*
X66962114Y-56823500D01*
X67184121Y-56823500D01*
X67252242Y-56843502D01*
X67298735Y-56897158D01*
X67303644Y-56909623D01*
X67336130Y-57006993D01*
X67338450Y-57013946D01*
X67342306Y-57020177D01*
X67419574Y-57145041D01*
X67438412Y-57213493D01*
X67417251Y-57281263D01*
X67401525Y-57300439D01*
X66293875Y-58408089D01*
X66251062Y-58436186D01*
X66226779Y-58445776D01*
X66222220Y-58448543D01*
X66222217Y-58448544D01*
X66074724Y-58538045D01*
X66029683Y-58565377D01*
X66025653Y-58568874D01*
X65905534Y-58673108D01*
X65855555Y-58716477D01*
X65852168Y-58720608D01*
X65712760Y-58890627D01*
X65712756Y-58890633D01*
X65709376Y-58894755D01*
X65673025Y-58958615D01*
X65621943Y-59007921D01*
X65552313Y-59021783D01*
X65486242Y-58995800D01*
X65454261Y-58958532D01*
X65453312Y-58956425D01*
X65324559Y-58765181D01*
X65165424Y-58598365D01*
X64980458Y-58460746D01*
X64975707Y-58458330D01*
X64975703Y-58458328D01*
X64853731Y-58396315D01*
X64774949Y-58356260D01*
X64769855Y-58354678D01*
X64769852Y-58354677D01*
X64568818Y-58292254D01*
X64554773Y-58287893D01*
X64549484Y-58287192D01*
X64331511Y-58258302D01*
X64331506Y-58258302D01*
X64326226Y-58257602D01*
X64320897Y-58257802D01*
X64320895Y-58257802D01*
X64211034Y-58261926D01*
X64095842Y-58266251D01*
X64090623Y-58267346D01*
X63992696Y-58287893D01*
X63870209Y-58313593D01*
X63865250Y-58315551D01*
X63865248Y-58315552D01*
X63660744Y-58396315D01*
X63660742Y-58396316D01*
X63655779Y-58398276D01*
X63651220Y-58401043D01*
X63651217Y-58401044D01*
X63552832Y-58460746D01*
X63458683Y-58517877D01*
X63454653Y-58521374D01*
X63306745Y-58649722D01*
X63284555Y-58668977D01*
X63281168Y-58673108D01*
X63141760Y-58843127D01*
X63141756Y-58843133D01*
X63138376Y-58847255D01*
X63024325Y-59047614D01*
X62945663Y-59264325D01*
X62944714Y-59269574D01*
X62944713Y-59269577D01*
X62905377Y-59487108D01*
X62905376Y-59487115D01*
X62904639Y-59491192D01*
X62903500Y-59515344D01*
X62903500Y-61977390D01*
X62918080Y-62149220D01*
X62919418Y-62154375D01*
X62919419Y-62154381D01*
X62955039Y-62291617D01*
X62975999Y-62372372D01*
X62978191Y-62377238D01*
X62978192Y-62377241D01*
X62989645Y-62402665D01*
X63070688Y-62582575D01*
X63199441Y-62773819D01*
X63358576Y-62940635D01*
X63427713Y-62992074D01*
X63470426Y-63048784D01*
X63478500Y-63093163D01*
X63478500Y-66063193D01*
X63458498Y-66131314D01*
X63435082Y-66158357D01*
X63361484Y-66222222D01*
X63306745Y-66269722D01*
X63284555Y-66288977D01*
X63281168Y-66293108D01*
X63141760Y-66463127D01*
X63141756Y-66463133D01*
X63138376Y-66467255D01*
X63135738Y-66471889D01*
X63135735Y-66471894D01*
X63069314Y-66588579D01*
X63024325Y-66667614D01*
X62945663Y-66884325D01*
X62944714Y-66889574D01*
X62944713Y-66889577D01*
X62905377Y-67107108D01*
X62905376Y-67107115D01*
X62904639Y-67111192D01*
X62903500Y-67135344D01*
X62903500Y-69597390D01*
X62918080Y-69769220D01*
X62919418Y-69774375D01*
X62919419Y-69774381D01*
X62961607Y-69936923D01*
X62975999Y-69992372D01*
X62978191Y-69997238D01*
X62978192Y-69997241D01*
X62997396Y-70039872D01*
X63070688Y-70202575D01*
X63199441Y-70393819D01*
X63358576Y-70560635D01*
X63543542Y-70698254D01*
X63548293Y-70700670D01*
X63548297Y-70700672D01*
X63578066Y-70715807D01*
X63749051Y-70802740D01*
X63754145Y-70804322D01*
X63754148Y-70804323D01*
X63902025Y-70850240D01*
X63969227Y-70871107D01*
X63974516Y-70871808D01*
X64192489Y-70900698D01*
X64192494Y-70900698D01*
X64197774Y-70901398D01*
X64203103Y-70901198D01*
X64203105Y-70901198D01*
X64312966Y-70897074D01*
X64428158Y-70892749D01*
X64479298Y-70882019D01*
X64648572Y-70846502D01*
X64653791Y-70845407D01*
X64658750Y-70843449D01*
X64658752Y-70843448D01*
X64863256Y-70762685D01*
X64863258Y-70762684D01*
X64868221Y-70760724D01*
X64898142Y-70742568D01*
X65050917Y-70649861D01*
X65065317Y-70641123D01*
X65099664Y-70611318D01*
X65235412Y-70493523D01*
X65235414Y-70493521D01*
X65239445Y-70490023D01*
X65283010Y-70436892D01*
X65382240Y-70315873D01*
X65382244Y-70315867D01*
X65385624Y-70311745D01*
X65421976Y-70247884D01*
X65473057Y-70198579D01*
X65542687Y-70184717D01*
X65608758Y-70210700D01*
X65640739Y-70247968D01*
X65641688Y-70250075D01*
X65770441Y-70441319D01*
X65929576Y-70608135D01*
X66114542Y-70745754D01*
X66119293Y-70748170D01*
X66119297Y-70748172D01*
X66183124Y-70780623D01*
X66320051Y-70850240D01*
X66325145Y-70851822D01*
X66325148Y-70851823D01*
X66482551Y-70900698D01*
X66540227Y-70918607D01*
X66545516Y-70919308D01*
X66763489Y-70948198D01*
X66763494Y-70948198D01*
X66768774Y-70948898D01*
X66774103Y-70948698D01*
X66774105Y-70948698D01*
X66883966Y-70944574D01*
X66999158Y-70940249D01*
X67224791Y-70892907D01*
X67229750Y-70890949D01*
X67229752Y-70890948D01*
X67434256Y-70810185D01*
X67434258Y-70810184D01*
X67439221Y-70808224D01*
X67448259Y-70802740D01*
X67595876Y-70713163D01*
X67636317Y-70688623D01*
X67659180Y-70668784D01*
X67806412Y-70541023D01*
X67806414Y-70541021D01*
X67810445Y-70537523D01*
X67852780Y-70485892D01*
X67953240Y-70363373D01*
X67953244Y-70363367D01*
X67956624Y-70359245D01*
X67993326Y-70294769D01*
X68044409Y-70245463D01*
X68114040Y-70231602D01*
X68180110Y-70257586D01*
X68207347Y-70286734D01*
X68279441Y-70393819D01*
X68438576Y-70560635D01*
X68623542Y-70698254D01*
X68628293Y-70700670D01*
X68628297Y-70700672D01*
X68658066Y-70715807D01*
X68829051Y-70802740D01*
X68834145Y-70804322D01*
X68834148Y-70804323D01*
X68982025Y-70850240D01*
X69049227Y-70871107D01*
X69054516Y-70871808D01*
X69272489Y-70900698D01*
X69272494Y-70900698D01*
X69277774Y-70901398D01*
X69283103Y-70901198D01*
X69283105Y-70901198D01*
X69392966Y-70897074D01*
X69508158Y-70892749D01*
X69559298Y-70882019D01*
X69728572Y-70846502D01*
X69733791Y-70845407D01*
X69738750Y-70843449D01*
X69738752Y-70843448D01*
X69943256Y-70762685D01*
X69943258Y-70762684D01*
X69948221Y-70760724D01*
X69978142Y-70742568D01*
X70130917Y-70649861D01*
X70145317Y-70641123D01*
X70179664Y-70611318D01*
X70315412Y-70493523D01*
X70315414Y-70493521D01*
X70319445Y-70490023D01*
X70363010Y-70436892D01*
X70462240Y-70315873D01*
X70462244Y-70315867D01*
X70465624Y-70311745D01*
X70501976Y-70247884D01*
X70553057Y-70198579D01*
X70622687Y-70184717D01*
X70688758Y-70210700D01*
X70720739Y-70247968D01*
X70721688Y-70250075D01*
X70850441Y-70441319D01*
X71009576Y-70608135D01*
X71194542Y-70745754D01*
X71199293Y-70748170D01*
X71199297Y-70748172D01*
X71263124Y-70780623D01*
X71400051Y-70850240D01*
X71405145Y-70851822D01*
X71405148Y-70851823D01*
X71562551Y-70900698D01*
X71620227Y-70918607D01*
X71625516Y-70919308D01*
X71843489Y-70948198D01*
X71843494Y-70948198D01*
X71848774Y-70948898D01*
X71854103Y-70948698D01*
X71854105Y-70948698D01*
X71963966Y-70944574D01*
X72079158Y-70940249D01*
X72304791Y-70892907D01*
X72309750Y-70890949D01*
X72309752Y-70890948D01*
X72514256Y-70810185D01*
X72514258Y-70810184D01*
X72519221Y-70808224D01*
X72528259Y-70802740D01*
X72675876Y-70713163D01*
X72716317Y-70688623D01*
X72739180Y-70668784D01*
X72886412Y-70541023D01*
X72886414Y-70541021D01*
X72890445Y-70537523D01*
X72932780Y-70485892D01*
X73033240Y-70363373D01*
X73033244Y-70363367D01*
X73036624Y-70359245D01*
X73073326Y-70294769D01*
X73124409Y-70245463D01*
X73194040Y-70231602D01*
X73260110Y-70257586D01*
X73287347Y-70286734D01*
X73359441Y-70393819D01*
X73518576Y-70560635D01*
X73587713Y-70612074D01*
X73630426Y-70668784D01*
X73638500Y-70713163D01*
X73638500Y-71005500D01*
X73618498Y-71073621D01*
X73564842Y-71120114D01*
X73512500Y-71131500D01*
X72959600Y-71131500D01*
X72956354Y-71131837D01*
X72956350Y-71131837D01*
X72860692Y-71141762D01*
X72860688Y-71141763D01*
X72853834Y-71142474D01*
X72847298Y-71144655D01*
X72847296Y-71144655D01*
X72716390Y-71188329D01*
X72686054Y-71198450D01*
X72535652Y-71291522D01*
X72410695Y-71416697D01*
X72406855Y-71422927D01*
X72406854Y-71422928D01*
X72353689Y-71509178D01*
X72317885Y-71567262D01*
X72294290Y-71638400D01*
X72283753Y-71670167D01*
X72243322Y-71728527D01*
X72177758Y-71755764D01*
X72164160Y-71756500D01*
X68299001Y-71756500D01*
X68297681Y-71756493D01*
X68296635Y-71756482D01*
X68210322Y-71755578D01*
X68203440Y-71757066D01*
X68203439Y-71757066D01*
X68169445Y-71764415D01*
X68156867Y-71766475D01*
X68122312Y-71770351D01*
X68122308Y-71770352D01*
X68115318Y-71771136D01*
X68108672Y-71773451D01*
X68108670Y-71773451D01*
X68084860Y-71781743D01*
X68070046Y-71785907D01*
X68038514Y-71792724D01*
X68032127Y-71795702D01*
X68032128Y-71795702D01*
X68000610Y-71810398D01*
X67988801Y-71815193D01*
X67949319Y-71828943D01*
X67921960Y-71846039D01*
X67908451Y-71853374D01*
X67879207Y-71867011D01*
X67864434Y-71878470D01*
X67846176Y-71892632D01*
X67835721Y-71899926D01*
X67810509Y-71915681D01*
X67800251Y-71922091D01*
X67795257Y-71927051D01*
X67795256Y-71927051D01*
X67772328Y-71949819D01*
X67771736Y-71950373D01*
X67771087Y-71950877D01*
X67745935Y-71976029D01*
X67675525Y-72045949D01*
X67674884Y-72046959D01*
X67673826Y-72048138D01*
X67403677Y-72318287D01*
X67341365Y-72352313D01*
X67270550Y-72347248D01*
X67213714Y-72304701D01*
X67199700Y-72280942D01*
X67199337Y-72280135D01*
X67121312Y-72106925D01*
X66992559Y-71915681D01*
X66977530Y-71899926D01*
X66896699Y-71815194D01*
X66833424Y-71748865D01*
X66648458Y-71611246D01*
X66643707Y-71608830D01*
X66643703Y-71608828D01*
X66515453Y-71543623D01*
X66442949Y-71506760D01*
X66437855Y-71505178D01*
X66437852Y-71505177D01*
X66227871Y-71439976D01*
X66222773Y-71438393D01*
X66188730Y-71433881D01*
X65999511Y-71408802D01*
X65999506Y-71408802D01*
X65994226Y-71408102D01*
X65988897Y-71408302D01*
X65988895Y-71408302D01*
X65903260Y-71411517D01*
X65763842Y-71416751D01*
X65538209Y-71464093D01*
X65533250Y-71466051D01*
X65533248Y-71466052D01*
X65328744Y-71546815D01*
X65328742Y-71546816D01*
X65323779Y-71548776D01*
X65319220Y-71551543D01*
X65319217Y-71551544D01*
X65220832Y-71611246D01*
X65126683Y-71668377D01*
X65122653Y-71671874D01*
X64957491Y-71815194D01*
X64952555Y-71819477D01*
X64924756Y-71853380D01*
X64809760Y-71993627D01*
X64809756Y-71993633D01*
X64806376Y-71997755D01*
X64770123Y-72061443D01*
X64719041Y-72110749D01*
X64649411Y-72124611D01*
X64583340Y-72098628D01*
X64556101Y-72069478D01*
X64550692Y-72061443D01*
X64452559Y-71915681D01*
X64437530Y-71899926D01*
X64356699Y-71815194D01*
X64293424Y-71748865D01*
X64108458Y-71611246D01*
X64103707Y-71608830D01*
X64103703Y-71608828D01*
X63975453Y-71543623D01*
X63902949Y-71506760D01*
X63897855Y-71505178D01*
X63897852Y-71505177D01*
X63687871Y-71439976D01*
X63682773Y-71438393D01*
X63648730Y-71433881D01*
X63459511Y-71408802D01*
X63459506Y-71408802D01*
X63454226Y-71408102D01*
X63448897Y-71408302D01*
X63448895Y-71408302D01*
X63363260Y-71411517D01*
X63223842Y-71416751D01*
X62998209Y-71464093D01*
X62993250Y-71466051D01*
X62993248Y-71466052D01*
X62788744Y-71546815D01*
X62788742Y-71546816D01*
X62783779Y-71548776D01*
X62779220Y-71551543D01*
X62779217Y-71551544D01*
X62680832Y-71611246D01*
X62586683Y-71668377D01*
X62582653Y-71671874D01*
X62417491Y-71815194D01*
X62412555Y-71819477D01*
X62384756Y-71853380D01*
X62269760Y-71993627D01*
X62269756Y-71993633D01*
X62266376Y-71997755D01*
X62230123Y-72061443D01*
X62179041Y-72110749D01*
X62109411Y-72124611D01*
X62043340Y-72098628D01*
X62016101Y-72069478D01*
X62010692Y-72061443D01*
X61912559Y-71915681D01*
X61897530Y-71899926D01*
X61816699Y-71815194D01*
X61753424Y-71748865D01*
X61568458Y-71611246D01*
X61563707Y-71608830D01*
X61563703Y-71608828D01*
X61435453Y-71543623D01*
X61362949Y-71506760D01*
X61357855Y-71505178D01*
X61357852Y-71505177D01*
X61147871Y-71439976D01*
X61142773Y-71438393D01*
X61108730Y-71433881D01*
X60919511Y-71408802D01*
X60919506Y-71408802D01*
X60914226Y-71408102D01*
X60908897Y-71408302D01*
X60908895Y-71408302D01*
X60823260Y-71411517D01*
X60683842Y-71416751D01*
X60458209Y-71464093D01*
X60453250Y-71466051D01*
X60453248Y-71466052D01*
X60248744Y-71546815D01*
X60248742Y-71546816D01*
X60243779Y-71548776D01*
X60239220Y-71551543D01*
X60239217Y-71551544D01*
X60140832Y-71611246D01*
X60046683Y-71668377D01*
X60042653Y-71671874D01*
X59877491Y-71815194D01*
X59872555Y-71819477D01*
X59844756Y-71853380D01*
X59729760Y-71993627D01*
X59729756Y-71993633D01*
X59726376Y-71997755D01*
X59723737Y-72002391D01*
X59723735Y-72002394D01*
X59632502Y-72162668D01*
X59612325Y-72198114D01*
X59533663Y-72414825D01*
X59532714Y-72420074D01*
X59532713Y-72420077D01*
X59493377Y-72637608D01*
X59493376Y-72637615D01*
X59492639Y-72641692D01*
X59491500Y-72665844D01*
X59491500Y-75127890D01*
X59506080Y-75299720D01*
X59507418Y-75304875D01*
X59507419Y-75304881D01*
X59551280Y-75473868D01*
X59563999Y-75522872D01*
X59658688Y-75733075D01*
X59787441Y-75924319D01*
X59946576Y-76091135D01*
X60131542Y-76228754D01*
X60136293Y-76231170D01*
X60136297Y-76231172D01*
X60234296Y-76280997D01*
X60337051Y-76333240D01*
X60342145Y-76334822D01*
X60342148Y-76334823D01*
X60542020Y-76396885D01*
X60557227Y-76401607D01*
X60562516Y-76402308D01*
X60780489Y-76431198D01*
X60780494Y-76431198D01*
X60785774Y-76431898D01*
X60791103Y-76431698D01*
X60791105Y-76431698D01*
X60900966Y-76427574D01*
X61016158Y-76423249D01*
X61241791Y-76375907D01*
X61246750Y-76373949D01*
X61246752Y-76373948D01*
X61451256Y-76293185D01*
X61451258Y-76293184D01*
X61456221Y-76291224D01*
X61555184Y-76231172D01*
X61648757Y-76174390D01*
X61648756Y-76174390D01*
X61653317Y-76171623D01*
X61657347Y-76168126D01*
X61823412Y-76024023D01*
X61823414Y-76024021D01*
X61827445Y-76020523D01*
X61861516Y-75978970D01*
X61970240Y-75846373D01*
X61970244Y-75846367D01*
X61973624Y-75842245D01*
X62009878Y-75778556D01*
X62060959Y-75729251D01*
X62130589Y-75715389D01*
X62196660Y-75741372D01*
X62223898Y-75770521D01*
X62327441Y-75924319D01*
X62486576Y-76091135D01*
X62671542Y-76228754D01*
X62676293Y-76231170D01*
X62676297Y-76231172D01*
X62774296Y-76280997D01*
X62877051Y-76333240D01*
X62882145Y-76334822D01*
X62882148Y-76334823D01*
X63082020Y-76396885D01*
X63097227Y-76401607D01*
X63102516Y-76402308D01*
X63320489Y-76431198D01*
X63320494Y-76431198D01*
X63325774Y-76431898D01*
X63331103Y-76431698D01*
X63331105Y-76431698D01*
X63440966Y-76427574D01*
X63556158Y-76423249D01*
X63781791Y-76375907D01*
X63786750Y-76373949D01*
X63786752Y-76373948D01*
X63991256Y-76293185D01*
X63991258Y-76293184D01*
X63996221Y-76291224D01*
X64095184Y-76231172D01*
X64188757Y-76174390D01*
X64188756Y-76174390D01*
X64193317Y-76171623D01*
X64197347Y-76168126D01*
X64363412Y-76024023D01*
X64363414Y-76024021D01*
X64367445Y-76020523D01*
X64401516Y-75978970D01*
X64510240Y-75846373D01*
X64510244Y-75846367D01*
X64513624Y-75842245D01*
X64549878Y-75778556D01*
X64600959Y-75729251D01*
X64670589Y-75715389D01*
X64736660Y-75741372D01*
X64763898Y-75770521D01*
X64867441Y-75924319D01*
X65026576Y-76091135D01*
X65211542Y-76228754D01*
X65216293Y-76231170D01*
X65216297Y-76231172D01*
X65314296Y-76280997D01*
X65417051Y-76333240D01*
X65422145Y-76334822D01*
X65422148Y-76334823D01*
X65622020Y-76396885D01*
X65637227Y-76401607D01*
X65642516Y-76402308D01*
X65860489Y-76431198D01*
X65860494Y-76431198D01*
X65865774Y-76431898D01*
X65871103Y-76431698D01*
X65871105Y-76431698D01*
X65980966Y-76427574D01*
X66096158Y-76423249D01*
X66321791Y-76375907D01*
X66326750Y-76373949D01*
X66326752Y-76373948D01*
X66531256Y-76293185D01*
X66531258Y-76293184D01*
X66536221Y-76291224D01*
X66635184Y-76231172D01*
X66728757Y-76174390D01*
X66728756Y-76174390D01*
X66733317Y-76171623D01*
X66737347Y-76168126D01*
X66903412Y-76024023D01*
X66903414Y-76024021D01*
X66907445Y-76020523D01*
X66941516Y-75978970D01*
X67050240Y-75846373D01*
X67050244Y-75846367D01*
X67053624Y-75842245D01*
X67062938Y-75825884D01*
X67165032Y-75646529D01*
X67167675Y-75641886D01*
X67246337Y-75425175D01*
X67254847Y-75378114D01*
X67286623Y-75202392D01*
X67286624Y-75202385D01*
X67287361Y-75198308D01*
X67288500Y-75174156D01*
X67288500Y-74679766D01*
X67308502Y-74611645D01*
X67337274Y-74580206D01*
X67353835Y-74567360D01*
X67364283Y-74560071D01*
X67399749Y-74537909D01*
X67427672Y-74510181D01*
X67428264Y-74509627D01*
X67428913Y-74509123D01*
X67454065Y-74483971D01*
X67524475Y-74414051D01*
X67525116Y-74413041D01*
X67526174Y-74411862D01*
X68577631Y-73360405D01*
X68639943Y-73326379D01*
X68666726Y-73323500D01*
X72164121Y-73323500D01*
X72232242Y-73343502D01*
X72278735Y-73397158D01*
X72283644Y-73409623D01*
X72316130Y-73506993D01*
X72318450Y-73513946D01*
X72411522Y-73664348D01*
X72536697Y-73789305D01*
X72542927Y-73793145D01*
X72542928Y-73793146D01*
X72680288Y-73877816D01*
X72687262Y-73882115D01*
X72767005Y-73908564D01*
X72848611Y-73935632D01*
X72848613Y-73935632D01*
X72855139Y-73937797D01*
X72861975Y-73938497D01*
X72861978Y-73938498D01*
X72905031Y-73942909D01*
X72959600Y-73948500D01*
X73710400Y-73948500D01*
X73713646Y-73948163D01*
X73713650Y-73948163D01*
X73809308Y-73938238D01*
X73809312Y-73938237D01*
X73816166Y-73937526D01*
X73822702Y-73935345D01*
X73822704Y-73935345D01*
X73954806Y-73891272D01*
X73983946Y-73881550D01*
X74134348Y-73788478D01*
X74259305Y-73663303D01*
X74352115Y-73512738D01*
X74390451Y-73397158D01*
X74405632Y-73351389D01*
X74405632Y-73351387D01*
X74407797Y-73344861D01*
X74418500Y-73240400D01*
X74418500Y-73237095D01*
X75202001Y-73237095D01*
X75202338Y-73243614D01*
X75212257Y-73339206D01*
X75215149Y-73352600D01*
X75266588Y-73506784D01*
X75272761Y-73519962D01*
X75358063Y-73657807D01*
X75367099Y-73669208D01*
X75481829Y-73783739D01*
X75493240Y-73792751D01*
X75631243Y-73877816D01*
X75644424Y-73883963D01*
X75798710Y-73935138D01*
X75812086Y-73938005D01*
X75906438Y-73947672D01*
X75912854Y-73948000D01*
X76012885Y-73948000D01*
X76028124Y-73943525D01*
X76029329Y-73942135D01*
X76031000Y-73934452D01*
X76031000Y-73929884D01*
X76539000Y-73929884D01*
X76543475Y-73945123D01*
X76544865Y-73946328D01*
X76552548Y-73947999D01*
X76657095Y-73947999D01*
X76663614Y-73947662D01*
X76759206Y-73937743D01*
X76772600Y-73934851D01*
X76926784Y-73883412D01*
X76939962Y-73877239D01*
X77077807Y-73791937D01*
X77089208Y-73782901D01*
X77203739Y-73668171D01*
X77212751Y-73656760D01*
X77297816Y-73518757D01*
X77303963Y-73505576D01*
X77355138Y-73351290D01*
X77358005Y-73337914D01*
X77367672Y-73243562D01*
X77368000Y-73237146D01*
X77368000Y-72812115D01*
X77363525Y-72796876D01*
X77362135Y-72795671D01*
X77354452Y-72794000D01*
X76557115Y-72794000D01*
X76541876Y-72798475D01*
X76540671Y-72799865D01*
X76539000Y-72807548D01*
X76539000Y-73929884D01*
X76031000Y-73929884D01*
X76031000Y-72812115D01*
X76026525Y-72796876D01*
X76025135Y-72795671D01*
X76017452Y-72794000D01*
X75220116Y-72794000D01*
X75204877Y-72798475D01*
X75203672Y-72799865D01*
X75202001Y-72807548D01*
X75202001Y-73237095D01*
X74418500Y-73237095D01*
X74418500Y-72616726D01*
X74438502Y-72548605D01*
X74455405Y-72527631D01*
X74969617Y-72013419D01*
X74970554Y-72012491D01*
X74987842Y-71995561D01*
X75050506Y-71962190D01*
X75121265Y-71967995D01*
X75177653Y-72011134D01*
X75201766Y-72077911D01*
X75202000Y-72085584D01*
X75202000Y-72267885D01*
X75206475Y-72283124D01*
X75207865Y-72284329D01*
X75215548Y-72286000D01*
X76012885Y-72286000D01*
X76028124Y-72281525D01*
X76029329Y-72280135D01*
X76031000Y-72272452D01*
X76031000Y-71150116D01*
X76026525Y-71134877D01*
X76025135Y-71133672D01*
X76017452Y-71132001D01*
X75912905Y-71132001D01*
X75906386Y-71132338D01*
X75810794Y-71142257D01*
X75797400Y-71145149D01*
X75643216Y-71196588D01*
X75630038Y-71202761D01*
X75492193Y-71288063D01*
X75480787Y-71297103D01*
X75420672Y-71357322D01*
X75358390Y-71391401D01*
X75287570Y-71386398D01*
X75230697Y-71343900D01*
X75205829Y-71277401D01*
X75205500Y-71268304D01*
X75205500Y-70715807D01*
X75225502Y-70647686D01*
X75248918Y-70620643D01*
X75339385Y-70542140D01*
X75395412Y-70493523D01*
X75395414Y-70493521D01*
X75399445Y-70490023D01*
X75443010Y-70436892D01*
X75542240Y-70315873D01*
X75542244Y-70315867D01*
X75545624Y-70311745D01*
X75581976Y-70247884D01*
X75633057Y-70198579D01*
X75702687Y-70184717D01*
X75768758Y-70210700D01*
X75800739Y-70247968D01*
X75801688Y-70250075D01*
X75930441Y-70441319D01*
X76089576Y-70608135D01*
X76274542Y-70745754D01*
X76279293Y-70748170D01*
X76279297Y-70748172D01*
X76343124Y-70780623D01*
X76480051Y-70850240D01*
X76485151Y-70851824D01*
X76485152Y-70851824D01*
X76594146Y-70885668D01*
X76653272Y-70924971D01*
X76681762Y-70990000D01*
X76670572Y-71060109D01*
X76623255Y-71113039D01*
X76568458Y-71128670D01*
X76541876Y-71136475D01*
X76540671Y-71137865D01*
X76539000Y-71145548D01*
X76539000Y-72267885D01*
X76543475Y-72283124D01*
X76544865Y-72284329D01*
X76552548Y-72286000D01*
X77349884Y-72286000D01*
X77365123Y-72281525D01*
X77366328Y-72280135D01*
X77367999Y-72272452D01*
X77367999Y-71842905D01*
X77367662Y-71836386D01*
X77357743Y-71740794D01*
X77354851Y-71727400D01*
X77303410Y-71573211D01*
X77297239Y-71560038D01*
X77211937Y-71422193D01*
X77202901Y-71410792D01*
X77088171Y-71296261D01*
X77076760Y-71287249D01*
X76938757Y-71202184D01*
X76925578Y-71196038D01*
X76917923Y-71193499D01*
X76859562Y-71153069D01*
X76832324Y-71087505D01*
X76844857Y-71017623D01*
X76893180Y-70965611D01*
X76952861Y-70947994D01*
X77086323Y-70942983D01*
X77159158Y-70940249D01*
X77384791Y-70892907D01*
X77389750Y-70890949D01*
X77389752Y-70890948D01*
X77594256Y-70810185D01*
X77594258Y-70810184D01*
X77599221Y-70808224D01*
X77608259Y-70802740D01*
X77755876Y-70713163D01*
X77796317Y-70688623D01*
X77819180Y-70668784D01*
X77966412Y-70541023D01*
X77966414Y-70541021D01*
X77970445Y-70537523D01*
X78012780Y-70485892D01*
X78113240Y-70363373D01*
X78113244Y-70363367D01*
X78116624Y-70359245D01*
X78160311Y-70282499D01*
X78228032Y-70163529D01*
X78230675Y-70158886D01*
X78309337Y-69942175D01*
X78339679Y-69774381D01*
X78349623Y-69719392D01*
X78349624Y-69719385D01*
X78350361Y-69715308D01*
X78351500Y-69691156D01*
X78351500Y-67229110D01*
X78336920Y-67057280D01*
X78335582Y-67052125D01*
X78335581Y-67052119D01*
X78280343Y-66839297D01*
X78280342Y-66839293D01*
X78279001Y-66834128D01*
X78273065Y-66820949D01*
X78186507Y-66628798D01*
X78184312Y-66623925D01*
X78055559Y-66432681D01*
X77896424Y-66265865D01*
X77878495Y-66252525D01*
X77724402Y-66137877D01*
X77711458Y-66128246D01*
X77706707Y-66125830D01*
X77706703Y-66125828D01*
X77583508Y-66063193D01*
X77505949Y-66023760D01*
X77500855Y-66022178D01*
X77500852Y-66022177D01*
X77290871Y-65956976D01*
X77285773Y-65955393D01*
X77280484Y-65954692D01*
X77062511Y-65925802D01*
X77062506Y-65925802D01*
X77057226Y-65925102D01*
X77051897Y-65925302D01*
X77051895Y-65925302D01*
X76942034Y-65929427D01*
X76826842Y-65933751D01*
X76601209Y-65981093D01*
X76596250Y-65983051D01*
X76596248Y-65983052D01*
X76391744Y-66063815D01*
X76391742Y-66063816D01*
X76386779Y-66065776D01*
X76382220Y-66068543D01*
X76382217Y-66068544D01*
X76234724Y-66158045D01*
X76189683Y-66185377D01*
X76185653Y-66188874D01*
X76065534Y-66293108D01*
X76015555Y-66336477D01*
X76012168Y-66340608D01*
X75872760Y-66510627D01*
X75872756Y-66510633D01*
X75869376Y-66514755D01*
X75833157Y-66578383D01*
X75833025Y-66578615D01*
X75781943Y-66627921D01*
X75712313Y-66641783D01*
X75646242Y-66615800D01*
X75614261Y-66578532D01*
X75613312Y-66576425D01*
X75484559Y-66385181D01*
X75325424Y-66218365D01*
X75256287Y-66166926D01*
X75213574Y-66110216D01*
X75205500Y-66065837D01*
X75205500Y-63095807D01*
X75225502Y-63027686D01*
X75248918Y-63000643D01*
X75329961Y-62930318D01*
X75395412Y-62873523D01*
X75395414Y-62873521D01*
X75399445Y-62870023D01*
X75443010Y-62816892D01*
X75542240Y-62695873D01*
X75542244Y-62695867D01*
X75545624Y-62691745D01*
X75581976Y-62627884D01*
X75633057Y-62578579D01*
X75702687Y-62564717D01*
X75768758Y-62590700D01*
X75800739Y-62627968D01*
X75801688Y-62630075D01*
X75930441Y-62821319D01*
X75934120Y-62825176D01*
X75934122Y-62825178D01*
X76000287Y-62894536D01*
X76089576Y-62988135D01*
X76274542Y-63125754D01*
X76279293Y-63128170D01*
X76279297Y-63128172D01*
X76377297Y-63177997D01*
X76480051Y-63230240D01*
X76485145Y-63231822D01*
X76485148Y-63231823D01*
X76642551Y-63280698D01*
X76700227Y-63298607D01*
X76705516Y-63299308D01*
X76923489Y-63328198D01*
X76923494Y-63328198D01*
X76928774Y-63328898D01*
X76934103Y-63328698D01*
X76934105Y-63328698D01*
X77043966Y-63324573D01*
X77159158Y-63320249D01*
X77384791Y-63272907D01*
X77389750Y-63270949D01*
X77389752Y-63270948D01*
X77594256Y-63190185D01*
X77594258Y-63190184D01*
X77599221Y-63188224D01*
X77608259Y-63182740D01*
X77791757Y-63071390D01*
X77791756Y-63071390D01*
X77796317Y-63068623D01*
X77819180Y-63048784D01*
X77966412Y-62921023D01*
X77966414Y-62921021D01*
X77970445Y-62917523D01*
X78012780Y-62865892D01*
X78113240Y-62743373D01*
X78113244Y-62743367D01*
X78116624Y-62739245D01*
X78137796Y-62702052D01*
X78228032Y-62543529D01*
X78230675Y-62538886D01*
X78309337Y-62322175D01*
X78314863Y-62291617D01*
X78349623Y-62099392D01*
X78349624Y-62099385D01*
X78350361Y-62095308D01*
X78351500Y-62071156D01*
X78351500Y-59609110D01*
X78336920Y-59437280D01*
X78335582Y-59432125D01*
X78335581Y-59432119D01*
X78280343Y-59219297D01*
X78280342Y-59219293D01*
X78279001Y-59214128D01*
X78273065Y-59200949D01*
X78186507Y-59008798D01*
X78184312Y-59003925D01*
X78055559Y-58812681D01*
X77896424Y-58645865D01*
X77711458Y-58508246D01*
X77706707Y-58505830D01*
X77706703Y-58505828D01*
X77545232Y-58423732D01*
X77493574Y-58375028D01*
X77476448Y-58306129D01*
X77499290Y-58238907D01*
X77556055Y-58194223D01*
X77587077Y-58181972D01*
X77597872Y-58177709D01*
X77761256Y-58113185D01*
X77761258Y-58113184D01*
X77766221Y-58111224D01*
X77865184Y-58051172D01*
X77958757Y-57994390D01*
X77958756Y-57994390D01*
X77963317Y-57991623D01*
X78052399Y-57914322D01*
X78133412Y-57844023D01*
X78133414Y-57844021D01*
X78137445Y-57840523D01*
X78188337Y-57778456D01*
X78280240Y-57666373D01*
X78280244Y-57666367D01*
X78283624Y-57662245D01*
X78319878Y-57598556D01*
X78370959Y-57549251D01*
X78440589Y-57535389D01*
X78506660Y-57561372D01*
X78533898Y-57590521D01*
X78637441Y-57744319D01*
X78641120Y-57748176D01*
X78641122Y-57748178D01*
X78670006Y-57778456D01*
X78796576Y-57911135D01*
X78981542Y-58048754D01*
X78986293Y-58051170D01*
X78986297Y-58051172D01*
X79026378Y-58071550D01*
X79187051Y-58153240D01*
X79192145Y-58154822D01*
X79192148Y-58154823D01*
X79383273Y-58214169D01*
X79407227Y-58221607D01*
X79412516Y-58222308D01*
X79630489Y-58251198D01*
X79630494Y-58251198D01*
X79635774Y-58251898D01*
X79641103Y-58251698D01*
X79641105Y-58251698D01*
X79750966Y-58247573D01*
X79866158Y-58243249D01*
X80091791Y-58195907D01*
X80096750Y-58193949D01*
X80096752Y-58193948D01*
X80301256Y-58113185D01*
X80301258Y-58113184D01*
X80306221Y-58111224D01*
X80405184Y-58051172D01*
X80498757Y-57994390D01*
X80498756Y-57994390D01*
X80503317Y-57991623D01*
X80592399Y-57914322D01*
X80673412Y-57844023D01*
X80673414Y-57844021D01*
X80677445Y-57840523D01*
X80728337Y-57778456D01*
X80820240Y-57666373D01*
X80820244Y-57666367D01*
X80823624Y-57662245D01*
X80859878Y-57598556D01*
X80910959Y-57549251D01*
X80980589Y-57535389D01*
X81046660Y-57561372D01*
X81073898Y-57590521D01*
X81177441Y-57744319D01*
X81181120Y-57748176D01*
X81181122Y-57748178D01*
X81210006Y-57778456D01*
X81336576Y-57911135D01*
X81521542Y-58048754D01*
X81526297Y-58051172D01*
X81526301Y-58051174D01*
X81621633Y-58099643D01*
X81673291Y-58148346D01*
X81690418Y-58217246D01*
X81667576Y-58284468D01*
X81610811Y-58329152D01*
X81440744Y-58396315D01*
X81440742Y-58396316D01*
X81435779Y-58398276D01*
X81431220Y-58401043D01*
X81431217Y-58401044D01*
X81332832Y-58460746D01*
X81238683Y-58517877D01*
X81234653Y-58521374D01*
X81086745Y-58649722D01*
X81064555Y-58668977D01*
X81061168Y-58673108D01*
X80921760Y-58843127D01*
X80921756Y-58843133D01*
X80918376Y-58847255D01*
X80804325Y-59047614D01*
X80725663Y-59264325D01*
X80724714Y-59269574D01*
X80724713Y-59269577D01*
X80685377Y-59487108D01*
X80685376Y-59487115D01*
X80684639Y-59491192D01*
X80683500Y-59515344D01*
X80683500Y-61977390D01*
X80698080Y-62149220D01*
X80699418Y-62154375D01*
X80699419Y-62154381D01*
X80735039Y-62291617D01*
X80755999Y-62372372D01*
X80758191Y-62377238D01*
X80758192Y-62377241D01*
X80769645Y-62402665D01*
X80850688Y-62582575D01*
X80979441Y-62773819D01*
X81138576Y-62940635D01*
X81323542Y-63078254D01*
X81328293Y-63080670D01*
X81328297Y-63080672D01*
X81358066Y-63095807D01*
X81529051Y-63182740D01*
X81534145Y-63184322D01*
X81534148Y-63184323D01*
X81682025Y-63230240D01*
X81749227Y-63251107D01*
X81754516Y-63251808D01*
X81972489Y-63280698D01*
X81972494Y-63280698D01*
X81977774Y-63281398D01*
X81983103Y-63281198D01*
X81983105Y-63281198D01*
X82092966Y-63277073D01*
X82208158Y-63272749D01*
X82433791Y-63225407D01*
X82438750Y-63223449D01*
X82438752Y-63223448D01*
X82643256Y-63142685D01*
X82643258Y-63142684D01*
X82648221Y-63140724D01*
X82678142Y-63122568D01*
X82830917Y-63029861D01*
X82845317Y-63021123D01*
X82879664Y-62991318D01*
X83015412Y-62873523D01*
X83015414Y-62873521D01*
X83019445Y-62870023D01*
X83063010Y-62816892D01*
X83162240Y-62695873D01*
X83162244Y-62695867D01*
X83165624Y-62691745D01*
X83201976Y-62627884D01*
X83253057Y-62578579D01*
X83322687Y-62564717D01*
X83388758Y-62590700D01*
X83420739Y-62627968D01*
X83421688Y-62630075D01*
X83550441Y-62821319D01*
X83554120Y-62825176D01*
X83554122Y-62825178D01*
X83620287Y-62894536D01*
X83709576Y-62988135D01*
X83894542Y-63125754D01*
X83899293Y-63128170D01*
X83899297Y-63128172D01*
X83997297Y-63177997D01*
X84100051Y-63230240D01*
X84105145Y-63231822D01*
X84105148Y-63231823D01*
X84262551Y-63280698D01*
X84320227Y-63298607D01*
X84325516Y-63299308D01*
X84543489Y-63328198D01*
X84543494Y-63328198D01*
X84548774Y-63328898D01*
X84554103Y-63328698D01*
X84554105Y-63328698D01*
X84663966Y-63324573D01*
X84779158Y-63320249D01*
X85004791Y-63272907D01*
X85009750Y-63270949D01*
X85009752Y-63270948D01*
X85214256Y-63190185D01*
X85214258Y-63190184D01*
X85219221Y-63188224D01*
X85228259Y-63182740D01*
X85411757Y-63071390D01*
X85411756Y-63071390D01*
X85416317Y-63068623D01*
X85439180Y-63048784D01*
X85586412Y-62921023D01*
X85586414Y-62921021D01*
X85590445Y-62917523D01*
X85632780Y-62865892D01*
X85733240Y-62743373D01*
X85733244Y-62743367D01*
X85736624Y-62739245D01*
X85757796Y-62702052D01*
X85848032Y-62543529D01*
X85850675Y-62538886D01*
X85929337Y-62322175D01*
X85934863Y-62291617D01*
X85969623Y-62099392D01*
X85969624Y-62099385D01*
X85970361Y-62095308D01*
X85971500Y-62071156D01*
X85971500Y-59609110D01*
X85956920Y-59437280D01*
X85955582Y-59432125D01*
X85955581Y-59432119D01*
X85900343Y-59219297D01*
X85900342Y-59219293D01*
X85899001Y-59214128D01*
X85893065Y-59200949D01*
X85806507Y-59008798D01*
X85804312Y-59003925D01*
X85675559Y-58812681D01*
X85516424Y-58645865D01*
X85331458Y-58508246D01*
X85326707Y-58505830D01*
X85326703Y-58505828D01*
X85152157Y-58417085D01*
X85125949Y-58403760D01*
X85120855Y-58402178D01*
X85120852Y-58402177D01*
X84910871Y-58336976D01*
X84905773Y-58335393D01*
X84900484Y-58334692D01*
X84682511Y-58305802D01*
X84682506Y-58305802D01*
X84677226Y-58305102D01*
X84671897Y-58305302D01*
X84671895Y-58305302D01*
X84583330Y-58308627D01*
X84446842Y-58313751D01*
X84441623Y-58314846D01*
X84430947Y-58317086D01*
X84221209Y-58361093D01*
X84216250Y-58363051D01*
X84216248Y-58363052D01*
X84011744Y-58443815D01*
X84011742Y-58443816D01*
X84006779Y-58445776D01*
X84002220Y-58448543D01*
X84002217Y-58448544D01*
X83854724Y-58538045D01*
X83809683Y-58565377D01*
X83805653Y-58568874D01*
X83685534Y-58673108D01*
X83635555Y-58716477D01*
X83632168Y-58720608D01*
X83492760Y-58890627D01*
X83492756Y-58890633D01*
X83489376Y-58894755D01*
X83453025Y-58958615D01*
X83401943Y-59007921D01*
X83332313Y-59021783D01*
X83266242Y-58995800D01*
X83234261Y-58958532D01*
X83233312Y-58956425D01*
X83104559Y-58765181D01*
X82945424Y-58598365D01*
X82760458Y-58460746D01*
X82755703Y-58458328D01*
X82755699Y-58458326D01*
X82660367Y-58409857D01*
X82608709Y-58361154D01*
X82591582Y-58292254D01*
X82614424Y-58225032D01*
X82671189Y-58180348D01*
X82841256Y-58113185D01*
X82841258Y-58113184D01*
X82846221Y-58111224D01*
X82945184Y-58051172D01*
X83038757Y-57994390D01*
X83038756Y-57994390D01*
X83043317Y-57991623D01*
X83132399Y-57914322D01*
X83213412Y-57844023D01*
X83213414Y-57844021D01*
X83217445Y-57840523D01*
X83268337Y-57778456D01*
X83360240Y-57666373D01*
X83360244Y-57666367D01*
X83363624Y-57662245D01*
X83399878Y-57598557D01*
X83475032Y-57466529D01*
X83477675Y-57461886D01*
X83556337Y-57245175D01*
X83559532Y-57227508D01*
X83596623Y-57022392D01*
X83596624Y-57022385D01*
X83597361Y-57018308D01*
X83598500Y-56994156D01*
X83598500Y-54532110D01*
X83592178Y-54457608D01*
X83584371Y-54365591D01*
X83584370Y-54365587D01*
X83583920Y-54360280D01*
X83582582Y-54355125D01*
X83582581Y-54355119D01*
X83527343Y-54142297D01*
X83527342Y-54142293D01*
X83526001Y-54137128D01*
X83523553Y-54131692D01*
X83433507Y-53931798D01*
X83431312Y-53926925D01*
X83302559Y-53735681D01*
X83143424Y-53568865D01*
X83130808Y-53559478D01*
X82962740Y-53434432D01*
X82962741Y-53434432D01*
X82958458Y-53431246D01*
X82953707Y-53428830D01*
X82953703Y-53428828D01*
X82831731Y-53366815D01*
X82752949Y-53326760D01*
X82747855Y-53325178D01*
X82747852Y-53325177D01*
X82537871Y-53259976D01*
X82532773Y-53258393D01*
X82527484Y-53257692D01*
X82309511Y-53228802D01*
X82309506Y-53228802D01*
X82304226Y-53228102D01*
X82298897Y-53228302D01*
X82298895Y-53228302D01*
X82189034Y-53232426D01*
X82073842Y-53236751D01*
X82068623Y-53237846D01*
X82045384Y-53242722D01*
X81848209Y-53284093D01*
X81843250Y-53286051D01*
X81843248Y-53286052D01*
X81638744Y-53366815D01*
X81638742Y-53366816D01*
X81633779Y-53368776D01*
X81629220Y-53371543D01*
X81629217Y-53371544D01*
X81530832Y-53431246D01*
X81436683Y-53488377D01*
X81432653Y-53491874D01*
X81287997Y-53617400D01*
X81262555Y-53639477D01*
X81259168Y-53643608D01*
X81119760Y-53813627D01*
X81119756Y-53813633D01*
X81116376Y-53817755D01*
X81097452Y-53851000D01*
X81080123Y-53881443D01*
X81029041Y-53930749D01*
X80959411Y-53944611D01*
X80893340Y-53918628D01*
X80866101Y-53889478D01*
X80838260Y-53848124D01*
X80762559Y-53735681D01*
X80603424Y-53568865D01*
X80590808Y-53559478D01*
X80422740Y-53434432D01*
X80422741Y-53434432D01*
X80418458Y-53431246D01*
X80413707Y-53428830D01*
X80413703Y-53428828D01*
X80291731Y-53366815D01*
X80212949Y-53326760D01*
X80207855Y-53325178D01*
X80207852Y-53325177D01*
X79997871Y-53259976D01*
X79992773Y-53258393D01*
X79987484Y-53257692D01*
X79769511Y-53228802D01*
X79769506Y-53228802D01*
X79764226Y-53228102D01*
X79758897Y-53228302D01*
X79758895Y-53228302D01*
X79649034Y-53232426D01*
X79533842Y-53236751D01*
X79528623Y-53237846D01*
X79505384Y-53242722D01*
X79308209Y-53284093D01*
X79303250Y-53286051D01*
X79303248Y-53286052D01*
X79098744Y-53366815D01*
X79098742Y-53366816D01*
X79093779Y-53368776D01*
X79089220Y-53371543D01*
X79089217Y-53371544D01*
X78990832Y-53431246D01*
X78896683Y-53488377D01*
X78892653Y-53491874D01*
X78747997Y-53617400D01*
X78722555Y-53639477D01*
X78719168Y-53643608D01*
X78579760Y-53813627D01*
X78579756Y-53813633D01*
X78576376Y-53817755D01*
X78557452Y-53851000D01*
X78540123Y-53881443D01*
X78489041Y-53930749D01*
X78419411Y-53944611D01*
X78353340Y-53918628D01*
X78326101Y-53889478D01*
X78298260Y-53848124D01*
X78222559Y-53735681D01*
X78063424Y-53568865D01*
X78050808Y-53559478D01*
X77882740Y-53434432D01*
X77882741Y-53434432D01*
X77878458Y-53431246D01*
X77873707Y-53428830D01*
X77873703Y-53428828D01*
X77751731Y-53366815D01*
X77672949Y-53326760D01*
X77667855Y-53325178D01*
X77667852Y-53325177D01*
X77457871Y-53259976D01*
X77452773Y-53258393D01*
X77447484Y-53257692D01*
X77229511Y-53228802D01*
X77229506Y-53228802D01*
X77224226Y-53228102D01*
X77218897Y-53228302D01*
X77218895Y-53228302D01*
X77109034Y-53232426D01*
X76993842Y-53236751D01*
X76988623Y-53237846D01*
X76965384Y-53242722D01*
X76768209Y-53284093D01*
X76763250Y-53286051D01*
X76763248Y-53286052D01*
X76558744Y-53366815D01*
X76558742Y-53366816D01*
X76553779Y-53368776D01*
X76549220Y-53371543D01*
X76549217Y-53371544D01*
X76450832Y-53431246D01*
X76356683Y-53488377D01*
X76352653Y-53491874D01*
X76207997Y-53617400D01*
X76182555Y-53639477D01*
X76179168Y-53643608D01*
X76039760Y-53813627D01*
X76039756Y-53813633D01*
X76036376Y-53817755D01*
X76033737Y-53822391D01*
X76033735Y-53822394D01*
X75995549Y-53889478D01*
X75922325Y-54018114D01*
X75843663Y-54234825D01*
X75842714Y-54240074D01*
X75842713Y-54240077D01*
X75803377Y-54457608D01*
X75803376Y-54457615D01*
X75802639Y-54461692D01*
X75802444Y-54465837D01*
X75801608Y-54483562D01*
X75801500Y-54485844D01*
X75801500Y-55938274D01*
X75781498Y-56006395D01*
X75764595Y-56027369D01*
X75557369Y-56234595D01*
X75495057Y-56268621D01*
X75468274Y-56271500D01*
X74786480Y-56271500D01*
X74718359Y-56251498D01*
X74697462Y-56234673D01*
X74598483Y-56135866D01*
X74593303Y-56130695D01*
X74442738Y-56037885D01*
X74347798Y-56006395D01*
X74281389Y-55984368D01*
X74281387Y-55984368D01*
X74274861Y-55982203D01*
X74268025Y-55981503D01*
X74268022Y-55981502D01*
X74224969Y-55977091D01*
X74170400Y-55971500D01*
X72769600Y-55971500D01*
X72766354Y-55971837D01*
X72766350Y-55971837D01*
X72670692Y-55981762D01*
X72670688Y-55981763D01*
X72663834Y-55982474D01*
X72657298Y-55984655D01*
X72657296Y-55984655D01*
X72553876Y-56019159D01*
X72482927Y-56021743D01*
X72421843Y-55985560D01*
X72390018Y-55922095D01*
X72388000Y-55899635D01*
X72387999Y-55342905D01*
X72387662Y-55336386D01*
X72380803Y-55270282D01*
X72393668Y-55200461D01*
X72442239Y-55148679D01*
X72511095Y-55131377D01*
X72545798Y-55137686D01*
X72658710Y-55175138D01*
X72672086Y-55178005D01*
X72766438Y-55187672D01*
X72772854Y-55188000D01*
X73197885Y-55188000D01*
X73213124Y-55183525D01*
X73214329Y-55182135D01*
X73216000Y-55174452D01*
X73216000Y-55169884D01*
X73724000Y-55169884D01*
X73728475Y-55185123D01*
X73729865Y-55186328D01*
X73737548Y-55187999D01*
X74167095Y-55187999D01*
X74173614Y-55187662D01*
X74269206Y-55177743D01*
X74282600Y-55174851D01*
X74436784Y-55123412D01*
X74449962Y-55117239D01*
X74587807Y-55031937D01*
X74599208Y-55022901D01*
X74713739Y-54908171D01*
X74722751Y-54896760D01*
X74807816Y-54758757D01*
X74813963Y-54745576D01*
X74865138Y-54591290D01*
X74868005Y-54577914D01*
X74877672Y-54483562D01*
X74878000Y-54477146D01*
X74878000Y-54377115D01*
X74873525Y-54361876D01*
X74872135Y-54360671D01*
X74864452Y-54359000D01*
X73742115Y-54359000D01*
X73726876Y-54363475D01*
X73725671Y-54364865D01*
X73724000Y-54372548D01*
X73724000Y-55169884D01*
X73216000Y-55169884D01*
X73216000Y-54377115D01*
X73211525Y-54361876D01*
X73210135Y-54360671D01*
X73202452Y-54359000D01*
X72080116Y-54359000D01*
X72064877Y-54363475D01*
X72063672Y-54364865D01*
X72062001Y-54372548D01*
X72062001Y-54477095D01*
X72062338Y-54483614D01*
X72069197Y-54549718D01*
X72056332Y-54619539D01*
X72007761Y-54671321D01*
X71938905Y-54688623D01*
X71904202Y-54682314D01*
X71791290Y-54644862D01*
X71777914Y-54641995D01*
X71683562Y-54632328D01*
X71677145Y-54632000D01*
X71577115Y-54632000D01*
X71561876Y-54636475D01*
X71560671Y-54637865D01*
X71559000Y-54645548D01*
X71559000Y-57429884D01*
X71563475Y-57445123D01*
X71564865Y-57446328D01*
X71572548Y-57447999D01*
X71677095Y-57447999D01*
X71683614Y-57447662D01*
X71779206Y-57437743D01*
X71792600Y-57434851D01*
X71903956Y-57397700D01*
X71974906Y-57395116D01*
X72035989Y-57431300D01*
X72067814Y-57494764D01*
X72069159Y-57504219D01*
X72070177Y-57514023D01*
X72072474Y-57536166D01*
X72074655Y-57542702D01*
X72074655Y-57542704D01*
X72091295Y-57592580D01*
X72128450Y-57703946D01*
X72132306Y-57710177D01*
X72213396Y-57841217D01*
X72232234Y-57909669D01*
X72211073Y-57977439D01*
X72195348Y-57996615D01*
X71918298Y-58273666D01*
X71855985Y-58307691D01*
X71833930Y-58310482D01*
X71746842Y-58313751D01*
X71741623Y-58314846D01*
X71730947Y-58317086D01*
X71521209Y-58361093D01*
X71516250Y-58363051D01*
X71516248Y-58363052D01*
X71311744Y-58443815D01*
X71311742Y-58443816D01*
X71306779Y-58445776D01*
X71302220Y-58448543D01*
X71302217Y-58448544D01*
X71154724Y-58538045D01*
X71109683Y-58565377D01*
X71105653Y-58568874D01*
X70985534Y-58673108D01*
X70935555Y-58716477D01*
X70932168Y-58720608D01*
X70792760Y-58890627D01*
X70792756Y-58890633D01*
X70789376Y-58894755D01*
X70753025Y-58958615D01*
X70701943Y-59007921D01*
X70632313Y-59021783D01*
X70566242Y-58995800D01*
X70534261Y-58958532D01*
X70533312Y-58956425D01*
X70404559Y-58765181D01*
X70245424Y-58598365D01*
X70060458Y-58460746D01*
X70055707Y-58458330D01*
X70055703Y-58458328D01*
X69933731Y-58396315D01*
X69854949Y-58356260D01*
X69849855Y-58354678D01*
X69849852Y-58354677D01*
X69648818Y-58292254D01*
X69634773Y-58287893D01*
X69629484Y-58287192D01*
X69411511Y-58258302D01*
X69411506Y-58258302D01*
X69406226Y-58257602D01*
X69400897Y-58257802D01*
X69400895Y-58257802D01*
X69291034Y-58261926D01*
X69175842Y-58266251D01*
X69170623Y-58267346D01*
X69072696Y-58287893D01*
X68950209Y-58313593D01*
X68945252Y-58315551D01*
X68945244Y-58315553D01*
X68943427Y-58316271D01*
X68942603Y-58316346D01*
X68940136Y-58317086D01*
X68939985Y-58316583D01*
X68872721Y-58322688D01*
X68809770Y-58289859D01*
X68774561Y-58228208D01*
X68778273Y-58157308D01*
X68808053Y-58109983D01*
X68902617Y-58015419D01*
X68903555Y-58014490D01*
X68921808Y-57996615D01*
X68966011Y-57953329D01*
X68969828Y-57947407D01*
X68969830Y-57947404D01*
X68988665Y-57918178D01*
X68996093Y-57907839D01*
X69022188Y-57875150D01*
X69025254Y-57868808D01*
X69025257Y-57868803D01*
X69036227Y-57846110D01*
X69043753Y-57832698D01*
X69057414Y-57811500D01*
X69057416Y-57811495D01*
X69061231Y-57805576D01*
X69075533Y-57766281D01*
X69080494Y-57754537D01*
X69095622Y-57723244D01*
X69095623Y-57723242D01*
X69098691Y-57716895D01*
X69105949Y-57685456D01*
X69110315Y-57670720D01*
X69118941Y-57647020D01*
X69118942Y-57647016D01*
X69121350Y-57640400D01*
X69126590Y-57598921D01*
X69128825Y-57586369D01*
X69134596Y-57561372D01*
X69138232Y-57545623D01*
X69138370Y-57506392D01*
X69138370Y-57506296D01*
X69138398Y-57505459D01*
X69138500Y-57504646D01*
X69138500Y-57468900D01*
X69138846Y-57369847D01*
X69138585Y-57368679D01*
X69138500Y-57367111D01*
X69138500Y-57356480D01*
X69158502Y-57288359D01*
X69175327Y-57267462D01*
X69197576Y-57245175D01*
X69279305Y-57163303D01*
X69372115Y-57012738D01*
X69427797Y-56844861D01*
X69438500Y-56740400D01*
X69438500Y-56737095D01*
X70222001Y-56737095D01*
X70222338Y-56743614D01*
X70232257Y-56839206D01*
X70235149Y-56852600D01*
X70286588Y-57006784D01*
X70292761Y-57019962D01*
X70378063Y-57157807D01*
X70387099Y-57169208D01*
X70501829Y-57283739D01*
X70513240Y-57292751D01*
X70651243Y-57377816D01*
X70664424Y-57383963D01*
X70818710Y-57435138D01*
X70832086Y-57438005D01*
X70926438Y-57447672D01*
X70932854Y-57448000D01*
X71032885Y-57448000D01*
X71048124Y-57443525D01*
X71049329Y-57442135D01*
X71051000Y-57434452D01*
X71051000Y-56312115D01*
X71046525Y-56296876D01*
X71045135Y-56295671D01*
X71037452Y-56294000D01*
X70240116Y-56294000D01*
X70224877Y-56298475D01*
X70223672Y-56299865D01*
X70222001Y-56307548D01*
X70222001Y-56737095D01*
X69438500Y-56737095D01*
X69438500Y-55767885D01*
X70222000Y-55767885D01*
X70226475Y-55783124D01*
X70227865Y-55784329D01*
X70235548Y-55786000D01*
X71032885Y-55786000D01*
X71048124Y-55781525D01*
X71049329Y-55780135D01*
X71051000Y-55772452D01*
X71051000Y-54650116D01*
X71046525Y-54634877D01*
X71045135Y-54633672D01*
X71037452Y-54632001D01*
X70932905Y-54632001D01*
X70926386Y-54632338D01*
X70830794Y-54642257D01*
X70817400Y-54645149D01*
X70663216Y-54696588D01*
X70650038Y-54702761D01*
X70512193Y-54788063D01*
X70500792Y-54797099D01*
X70386261Y-54911829D01*
X70377249Y-54923240D01*
X70292184Y-55061243D01*
X70286037Y-55074424D01*
X70234862Y-55228710D01*
X70231995Y-55242086D01*
X70222328Y-55336438D01*
X70222000Y-55342855D01*
X70222000Y-55767885D01*
X69438500Y-55767885D01*
X69438500Y-55339600D01*
X69429878Y-55256500D01*
X69428238Y-55240692D01*
X69428237Y-55240688D01*
X69427526Y-55233834D01*
X69407944Y-55175138D01*
X69373868Y-55073002D01*
X69371550Y-55066054D01*
X69278478Y-54915652D01*
X69153303Y-54790695D01*
X69080107Y-54745576D01*
X69008968Y-54701725D01*
X69008966Y-54701724D01*
X69002738Y-54697885D01*
X68922650Y-54671321D01*
X68841389Y-54644368D01*
X68841387Y-54644368D01*
X68834861Y-54642203D01*
X68828025Y-54641503D01*
X68828022Y-54641502D01*
X68784969Y-54637091D01*
X68730400Y-54631500D01*
X67979600Y-54631500D01*
X67976354Y-54631837D01*
X67976350Y-54631837D01*
X67880692Y-54641762D01*
X67880688Y-54641763D01*
X67873834Y-54642474D01*
X67867298Y-54644655D01*
X67867296Y-54644655D01*
X67850928Y-54650116D01*
X67706054Y-54698450D01*
X67555652Y-54791522D01*
X67430695Y-54916697D01*
X67426855Y-54922927D01*
X67426854Y-54922928D01*
X67365230Y-55022901D01*
X67337885Y-55067262D01*
X67319261Y-55123412D01*
X67303753Y-55170167D01*
X67263322Y-55228527D01*
X67197758Y-55255764D01*
X67184160Y-55256500D01*
X67009500Y-55256500D01*
X66941379Y-55236498D01*
X66894886Y-55182842D01*
X66883500Y-55130500D01*
X66883500Y-54202110D01*
X66868920Y-54030280D01*
X66867582Y-54025125D01*
X66867581Y-54025119D01*
X66817687Y-53832885D01*
X72062000Y-53832885D01*
X72066475Y-53848124D01*
X72067865Y-53849329D01*
X72075548Y-53851000D01*
X73197885Y-53851000D01*
X73213124Y-53846525D01*
X73214329Y-53845135D01*
X73216000Y-53837452D01*
X73216000Y-53832885D01*
X73724000Y-53832885D01*
X73728475Y-53848124D01*
X73729865Y-53849329D01*
X73737548Y-53851000D01*
X74859884Y-53851000D01*
X74875123Y-53846525D01*
X74876328Y-53845135D01*
X74877999Y-53837452D01*
X74877999Y-53732905D01*
X74877662Y-53726386D01*
X74867743Y-53630794D01*
X74864851Y-53617400D01*
X74813412Y-53463216D01*
X74807239Y-53450038D01*
X74721937Y-53312193D01*
X74712901Y-53300792D01*
X74598171Y-53186261D01*
X74586760Y-53177249D01*
X74448757Y-53092184D01*
X74435576Y-53086037D01*
X74281290Y-53034862D01*
X74267914Y-53031995D01*
X74173562Y-53022328D01*
X74167145Y-53022000D01*
X73742115Y-53022000D01*
X73726876Y-53026475D01*
X73725671Y-53027865D01*
X73724000Y-53035548D01*
X73724000Y-53832885D01*
X73216000Y-53832885D01*
X73216000Y-53040116D01*
X73211525Y-53024877D01*
X73210135Y-53023672D01*
X73202452Y-53022001D01*
X72772905Y-53022001D01*
X72766386Y-53022338D01*
X72670794Y-53032257D01*
X72657400Y-53035149D01*
X72503216Y-53086588D01*
X72490038Y-53092761D01*
X72352193Y-53178063D01*
X72340792Y-53187099D01*
X72226261Y-53301829D01*
X72217249Y-53313240D01*
X72132184Y-53451243D01*
X72126037Y-53464424D01*
X72074862Y-53618710D01*
X72071995Y-53632086D01*
X72062328Y-53726438D01*
X72062000Y-53732855D01*
X72062000Y-53832885D01*
X66817687Y-53832885D01*
X66812343Y-53812297D01*
X66812342Y-53812293D01*
X66811001Y-53807128D01*
X66716312Y-53596925D01*
X66587559Y-53405681D01*
X66428424Y-53238865D01*
X66243458Y-53101246D01*
X66238707Y-53098830D01*
X66238703Y-53098828D01*
X66114239Y-53035548D01*
X66037949Y-52996760D01*
X66032855Y-52995178D01*
X66032852Y-52995177D01*
X65822871Y-52929976D01*
X65817773Y-52928393D01*
X65812484Y-52927692D01*
X65594511Y-52898802D01*
X65594506Y-52898802D01*
X65589226Y-52898102D01*
X65583897Y-52898302D01*
X65583895Y-52898302D01*
X65474034Y-52902427D01*
X65358842Y-52906751D01*
X65133209Y-52954093D01*
X65128250Y-52956051D01*
X65128248Y-52956052D01*
X64923744Y-53036815D01*
X64923742Y-53036816D01*
X64918779Y-53038776D01*
X64914220Y-53041543D01*
X64914217Y-53041544D01*
X64815832Y-53101246D01*
X64721683Y-53158377D01*
X64717653Y-53161874D01*
X64556369Y-53301829D01*
X64547555Y-53309477D01*
X64544168Y-53313608D01*
X64404760Y-53483627D01*
X64404756Y-53483633D01*
X64401376Y-53487755D01*
X64365123Y-53551443D01*
X64314041Y-53600749D01*
X64244411Y-53614611D01*
X64178340Y-53588628D01*
X64151101Y-53559478D01*
X64145692Y-53551443D01*
X64047559Y-53405681D01*
X63888424Y-53238865D01*
X63703458Y-53101246D01*
X63698707Y-53098830D01*
X63698703Y-53098828D01*
X63574239Y-53035548D01*
X63497949Y-52996760D01*
X63492855Y-52995178D01*
X63492852Y-52995177D01*
X63282871Y-52929976D01*
X63277773Y-52928393D01*
X63272484Y-52927692D01*
X63054511Y-52898802D01*
X63054506Y-52898802D01*
X63049226Y-52898102D01*
X63043897Y-52898302D01*
X63043895Y-52898302D01*
X62934034Y-52902427D01*
X62818842Y-52906751D01*
X62593209Y-52954093D01*
X62588250Y-52956051D01*
X62588248Y-52956052D01*
X62383744Y-53036815D01*
X62383742Y-53036816D01*
X62378779Y-53038776D01*
X62374220Y-53041543D01*
X62374217Y-53041544D01*
X62275832Y-53101246D01*
X62181683Y-53158377D01*
X62177653Y-53161874D01*
X62016369Y-53301829D01*
X62007555Y-53309477D01*
X62004168Y-53313608D01*
X61864760Y-53483627D01*
X61864756Y-53483633D01*
X61861376Y-53487755D01*
X61825123Y-53551443D01*
X61774041Y-53600749D01*
X61704411Y-53614611D01*
X61638340Y-53588628D01*
X61611101Y-53559478D01*
X61605692Y-53551443D01*
X61507559Y-53405681D01*
X61348424Y-53238865D01*
X61163458Y-53101246D01*
X61158707Y-53098830D01*
X61158703Y-53098828D01*
X61034239Y-53035548D01*
X60957949Y-52996760D01*
X60952855Y-52995178D01*
X60952852Y-52995177D01*
X60742871Y-52929976D01*
X60737773Y-52928393D01*
X60732484Y-52927692D01*
X60514511Y-52898802D01*
X60514506Y-52898802D01*
X60509226Y-52898102D01*
X60503897Y-52898302D01*
X60503895Y-52898302D01*
X60394034Y-52902427D01*
X60278842Y-52906751D01*
X60053209Y-52954093D01*
X60048250Y-52956051D01*
X60048248Y-52956052D01*
X59843744Y-53036815D01*
X59843742Y-53036816D01*
X59838779Y-53038776D01*
X59834220Y-53041543D01*
X59834217Y-53041544D01*
X59735832Y-53101246D01*
X59641683Y-53158377D01*
X59637653Y-53161874D01*
X59476369Y-53301829D01*
X59467555Y-53309477D01*
X59464168Y-53313608D01*
X59324760Y-53483627D01*
X59324756Y-53483633D01*
X59321376Y-53487755D01*
X59318737Y-53492391D01*
X59318735Y-53492394D01*
X59280549Y-53559478D01*
X59207325Y-53688114D01*
X59128663Y-53904825D01*
X59127714Y-53910074D01*
X59127713Y-53910077D01*
X59088377Y-54127608D01*
X59088376Y-54127615D01*
X59087639Y-54131692D01*
X59086500Y-54155844D01*
X59086500Y-56617890D01*
X57048371Y-56617890D01*
X57048484Y-52154914D01*
X57068488Y-52086794D01*
X57122145Y-52040302D01*
X57174567Y-52028917D01*
X65745717Y-52034550D01*
G37*
%TD.AperFunction*%
%TD*%
M02*
