M48
; DRILL file {KiCad (6.0.7)} date Fri Apr 28 16:32:48 2023
; FORMAT={-:-/ absolute / metric / decimal}
; #@! TF.CreationDate,2023-04-28T16:32:48-04:00
; #@! TF.GenerationSoftware,Kicad,Pcbnew,(6.0.7)
; #@! TF.FileFunction,MixedPlating,1,2
FMAT,2
METRIC
; #@! TA.AperFunction,Plated,PTH,ComponentDrill
T1C1.000
%
G90
G05
T1
X59.96Y-61.895
X59.96Y-64.435
X59.96Y-66.975
X60.445Y-55.41
X60.85Y-73.92
X62.855Y-84.33
X62.865Y-79.692
X62.985Y-55.41
X63.39Y-73.92
X64.262Y-60.77
X64.262Y-68.389
X65.395Y-84.33
X65.405Y-79.692
X65.525Y-55.41
X65.93Y-73.92
X66.833Y-60.817
X66.833Y-68.437
X67.935Y-84.33
X67.945Y-79.692
X69.342Y-60.77
X69.342Y-68.389
X71.913Y-60.817
X71.913Y-68.437
X74.422Y-60.77
X74.422Y-68.389
X75.21Y-77.1
X76.993Y-60.817
X76.993Y-68.437
X77.16Y-55.74
X77.75Y-77.1
X79.7Y-55.74
X82.042Y-60.77
X82.042Y-68.389
X82.24Y-55.74
X84.613Y-60.817
X84.613Y-68.437
T0
M30
