M48
; DRILL file {KiCad (6.0.7)} date Wed Jan 18 15:46:20 2023
; FORMAT={-:-/ absolute / metric / decimal}
; #@! TF.CreationDate,2023-01-18T15:46:20-05:00
; #@! TF.GenerationSoftware,Kicad,Pcbnew,(6.0.7)
; #@! TF.FileFunction,MixedPlating,1,2
FMAT,2
METRIC
; #@! TA.AperFunction,Plated,PTH,ComponentDrill
T1C1.000
%
G90
G05
T1
X71.882Y-66.23
X71.882Y-76.391
X76.708Y-73.596
X76.708Y-76.136
X76.708Y-78.676
X82.416Y-58.293
X85.384Y-76.136
X87.884Y-76.136
X94.742Y-68.653
X94.742Y-71.194
X94.742Y-73.733
X97.416Y-58.293
X100.393Y-68.58
X106.426Y-59.363
X106.426Y-61.863
X110.553Y-68.58
X111.252Y-81.788
X111.442Y-87.439
X113.792Y-81.788
X113.983Y-87.439
X116.332Y-81.788
X116.522Y-87.439
X117.729Y-70.861
X117.729Y-73.401
X127.492Y-60.683
X127.492Y-73.683
X133.493Y-60.683
X133.493Y-73.683
X135.001Y-90.361
T0
M30
