%TF.GenerationSoftware,KiCad,Pcbnew,(6.0.7)*%
%TF.CreationDate,2023-01-18T15:46:19-05:00*%
%TF.ProjectId,Mosfet Test PCB,4d6f7366-6574-4205-9465-737420504342,rev?*%
%TF.SameCoordinates,Original*%
%TF.FileFunction,Drillmap*%
%TF.FilePolarity,Positive*%
%FSLAX45Y45*%
G04 Gerber Fmt 4.5, Leading zero omitted, Abs format (unit mm)*
G04 Created by KiCad (PCBNEW (6.0.7)) date 2023-01-18 15:46:19*
%MOMM*%
%LPD*%
G01*
G04 APERTURE LIST*
%ADD10C,0.100000*%
%ADD11C,0.200000*%
G04 APERTURE END LIST*
D10*
X6140450Y-5099050D02*
X14814550Y-5099050D01*
X14814550Y-5099050D02*
X14814550Y-9505950D01*
X14814550Y-9505950D02*
X6140450Y-9505950D01*
X6140450Y-9505950D02*
X6140450Y-5099050D01*
D11*
D10*
X7138200Y-6573050D02*
X7238200Y-6673050D01*
X7238200Y-6573050D02*
X7138200Y-6673050D01*
X7138200Y-7589050D02*
X7238200Y-7689050D01*
X7238200Y-7589050D02*
X7138200Y-7689050D01*
X7620800Y-7309650D02*
X7720800Y-7409650D01*
X7720800Y-7309650D02*
X7620800Y-7409650D01*
X7620800Y-7563650D02*
X7720800Y-7663650D01*
X7720800Y-7563650D02*
X7620800Y-7663650D01*
X7620800Y-7817650D02*
X7720800Y-7917650D01*
X7720800Y-7817650D02*
X7620800Y-7917650D01*
X8191600Y-5779300D02*
X8291600Y-5879300D01*
X8291600Y-5779300D02*
X8191600Y-5879300D01*
X8488400Y-7563650D02*
X8588400Y-7663650D01*
X8588400Y-7563650D02*
X8488400Y-7663650D01*
X8738400Y-7563650D02*
X8838400Y-7663650D01*
X8838400Y-7563650D02*
X8738400Y-7663650D01*
X9424200Y-6815350D02*
X9524200Y-6915350D01*
X9524200Y-6815350D02*
X9424200Y-6915350D01*
X9424200Y-7069350D02*
X9524200Y-7169350D01*
X9524200Y-7069350D02*
X9424200Y-7169350D01*
X9424200Y-7323350D02*
X9524200Y-7423350D01*
X9524200Y-7323350D02*
X9424200Y-7423350D01*
X9691600Y-5779300D02*
X9791600Y-5879300D01*
X9791600Y-5779300D02*
X9691600Y-5879300D01*
X9989350Y-6808000D02*
X10089350Y-6908000D01*
X10089350Y-6808000D02*
X9989350Y-6908000D01*
X10592600Y-5886285D02*
X10692600Y-5986285D01*
X10692600Y-5886285D02*
X10592600Y-5986285D01*
X10592600Y-6136285D02*
X10692600Y-6236285D01*
X10692600Y-6136285D02*
X10592600Y-6236285D01*
X11005350Y-6808000D02*
X11105350Y-6908000D01*
X11105350Y-6808000D02*
X11005350Y-6908000D01*
X11075200Y-8128800D02*
X11175200Y-8228800D01*
X11175200Y-8128800D02*
X11075200Y-8228800D01*
X11094250Y-8693950D02*
X11194250Y-8793950D01*
X11194250Y-8693950D02*
X11094250Y-8793950D01*
X11329200Y-8128800D02*
X11429200Y-8228800D01*
X11429200Y-8128800D02*
X11329200Y-8228800D01*
X11348250Y-8693950D02*
X11448250Y-8793950D01*
X11448250Y-8693950D02*
X11348250Y-8793950D01*
X11583200Y-8128800D02*
X11683200Y-8228800D01*
X11683200Y-8128800D02*
X11583200Y-8228800D01*
X11602250Y-8693950D02*
X11702250Y-8793950D01*
X11702250Y-8693950D02*
X11602250Y-8793950D01*
X11722900Y-7036100D02*
X11822900Y-7136100D01*
X11822900Y-7036100D02*
X11722900Y-7136100D01*
X11722900Y-7290100D02*
X11822900Y-7390100D01*
X11822900Y-7290100D02*
X11722900Y-7390100D01*
X12699250Y-6018300D02*
X12799250Y-6118300D01*
X12799250Y-6018300D02*
X12699250Y-6118300D01*
X12699250Y-7318300D02*
X12799250Y-7418300D01*
X12799250Y-7318300D02*
X12699250Y-7418300D01*
X13299250Y-6018300D02*
X13399250Y-6118300D01*
X13399250Y-6018300D02*
X13299250Y-6118300D01*
X13299250Y-7318300D02*
X13399250Y-7418300D01*
X13399250Y-7318300D02*
X13299250Y-7418300D01*
X13450100Y-8986050D02*
X13550100Y-9086050D01*
X13550100Y-8986050D02*
X13450100Y-9086050D01*
D11*
X6393069Y-9821426D02*
X6393069Y-9621426D01*
X6440688Y-9621426D01*
X6469259Y-9630950D01*
X6488307Y-9649998D01*
X6497831Y-9669045D01*
X6507355Y-9707140D01*
X6507355Y-9735712D01*
X6497831Y-9773807D01*
X6488307Y-9792855D01*
X6469259Y-9811902D01*
X6440688Y-9821426D01*
X6393069Y-9821426D01*
X6593069Y-9821426D02*
X6593069Y-9688093D01*
X6593069Y-9726188D02*
X6602593Y-9707140D01*
X6612117Y-9697617D01*
X6631164Y-9688093D01*
X6650212Y-9688093D01*
X6716878Y-9821426D02*
X6716878Y-9688093D01*
X6716878Y-9621426D02*
X6707355Y-9630950D01*
X6716878Y-9640474D01*
X6726402Y-9630950D01*
X6716878Y-9621426D01*
X6716878Y-9640474D01*
X6840688Y-9821426D02*
X6821640Y-9811902D01*
X6812117Y-9792855D01*
X6812117Y-9621426D01*
X6945450Y-9821426D02*
X6926402Y-9811902D01*
X6916878Y-9792855D01*
X6916878Y-9621426D01*
X7174021Y-9821426D02*
X7174021Y-9621426D01*
X7240688Y-9764283D01*
X7307355Y-9621426D01*
X7307355Y-9821426D01*
X7488307Y-9821426D02*
X7488307Y-9716664D01*
X7478783Y-9697617D01*
X7459736Y-9688093D01*
X7421640Y-9688093D01*
X7402593Y-9697617D01*
X7488307Y-9811902D02*
X7469259Y-9821426D01*
X7421640Y-9821426D01*
X7402593Y-9811902D01*
X7393069Y-9792855D01*
X7393069Y-9773807D01*
X7402593Y-9754760D01*
X7421640Y-9745236D01*
X7469259Y-9745236D01*
X7488307Y-9735712D01*
X7583545Y-9688093D02*
X7583545Y-9888093D01*
X7583545Y-9697617D02*
X7602593Y-9688093D01*
X7640688Y-9688093D01*
X7659736Y-9697617D01*
X7669259Y-9707140D01*
X7678783Y-9726188D01*
X7678783Y-9783331D01*
X7669259Y-9802379D01*
X7659736Y-9811902D01*
X7640688Y-9821426D01*
X7602593Y-9821426D01*
X7583545Y-9811902D01*
X7764498Y-9802379D02*
X7774021Y-9811902D01*
X7764498Y-9821426D01*
X7754974Y-9811902D01*
X7764498Y-9802379D01*
X7764498Y-9821426D01*
X7764498Y-9697617D02*
X7774021Y-9707140D01*
X7764498Y-9716664D01*
X7754974Y-9707140D01*
X7764498Y-9697617D01*
X7764498Y-9716664D01*
D10*
X6035450Y-10100950D02*
X6135450Y-10200950D01*
X6135450Y-10100950D02*
X6035450Y-10200950D01*
D11*
X6497831Y-10241426D02*
X6383545Y-10241426D01*
X6440688Y-10241426D02*
X6440688Y-10041426D01*
X6421640Y-10069998D01*
X6402593Y-10089045D01*
X6383545Y-10098569D01*
X6583545Y-10222379D02*
X6593069Y-10231902D01*
X6583545Y-10241426D01*
X6574021Y-10231902D01*
X6583545Y-10222379D01*
X6583545Y-10241426D01*
X6716878Y-10041426D02*
X6735926Y-10041426D01*
X6754974Y-10050950D01*
X6764498Y-10060474D01*
X6774021Y-10079521D01*
X6783545Y-10117617D01*
X6783545Y-10165236D01*
X6774021Y-10203331D01*
X6764498Y-10222379D01*
X6754974Y-10231902D01*
X6735926Y-10241426D01*
X6716878Y-10241426D01*
X6697831Y-10231902D01*
X6688307Y-10222379D01*
X6678783Y-10203331D01*
X6669259Y-10165236D01*
X6669259Y-10117617D01*
X6678783Y-10079521D01*
X6688307Y-10060474D01*
X6697831Y-10050950D01*
X6716878Y-10041426D01*
X6907355Y-10041426D02*
X6926402Y-10041426D01*
X6945450Y-10050950D01*
X6954974Y-10060474D01*
X6964498Y-10079521D01*
X6974021Y-10117617D01*
X6974021Y-10165236D01*
X6964498Y-10203331D01*
X6954974Y-10222379D01*
X6945450Y-10231902D01*
X6926402Y-10241426D01*
X6907355Y-10241426D01*
X6888307Y-10231902D01*
X6878783Y-10222379D01*
X6869259Y-10203331D01*
X6859736Y-10165236D01*
X6859736Y-10117617D01*
X6869259Y-10079521D01*
X6878783Y-10060474D01*
X6888307Y-10050950D01*
X6907355Y-10041426D01*
X7097831Y-10041426D02*
X7116878Y-10041426D01*
X7135926Y-10050950D01*
X7145450Y-10060474D01*
X7154974Y-10079521D01*
X7164498Y-10117617D01*
X7164498Y-10165236D01*
X7154974Y-10203331D01*
X7145450Y-10222379D01*
X7135926Y-10231902D01*
X7116878Y-10241426D01*
X7097831Y-10241426D01*
X7078783Y-10231902D01*
X7069259Y-10222379D01*
X7059736Y-10203331D01*
X7050212Y-10165236D01*
X7050212Y-10117617D01*
X7059736Y-10079521D01*
X7069259Y-10060474D01*
X7078783Y-10050950D01*
X7097831Y-10041426D01*
X7250212Y-10241426D02*
X7250212Y-10108093D01*
X7250212Y-10127140D02*
X7259736Y-10117617D01*
X7278783Y-10108093D01*
X7307355Y-10108093D01*
X7326402Y-10117617D01*
X7335926Y-10136664D01*
X7335926Y-10241426D01*
X7335926Y-10136664D02*
X7345450Y-10117617D01*
X7364498Y-10108093D01*
X7393069Y-10108093D01*
X7412117Y-10117617D01*
X7421640Y-10136664D01*
X7421640Y-10241426D01*
X7516878Y-10241426D02*
X7516878Y-10108093D01*
X7516878Y-10127140D02*
X7526402Y-10117617D01*
X7545450Y-10108093D01*
X7574021Y-10108093D01*
X7593069Y-10117617D01*
X7602593Y-10136664D01*
X7602593Y-10241426D01*
X7602593Y-10136664D02*
X7612117Y-10117617D01*
X7631164Y-10108093D01*
X7659736Y-10108093D01*
X7678783Y-10117617D01*
X7688307Y-10136664D01*
X7688307Y-10241426D01*
X8078783Y-10031902D02*
X7907355Y-10289045D01*
X8335926Y-10041426D02*
X8354974Y-10041426D01*
X8374021Y-10050950D01*
X8383545Y-10060474D01*
X8393069Y-10079521D01*
X8402593Y-10117617D01*
X8402593Y-10165236D01*
X8393069Y-10203331D01*
X8383545Y-10222379D01*
X8374021Y-10231902D01*
X8354974Y-10241426D01*
X8335926Y-10241426D01*
X8316878Y-10231902D01*
X8307355Y-10222379D01*
X8297831Y-10203331D01*
X8288307Y-10165236D01*
X8288307Y-10117617D01*
X8297831Y-10079521D01*
X8307355Y-10060474D01*
X8316878Y-10050950D01*
X8335926Y-10041426D01*
X8488307Y-10222379D02*
X8497831Y-10231902D01*
X8488307Y-10241426D01*
X8478783Y-10231902D01*
X8488307Y-10222379D01*
X8488307Y-10241426D01*
X8621640Y-10041426D02*
X8640688Y-10041426D01*
X8659736Y-10050950D01*
X8669260Y-10060474D01*
X8678783Y-10079521D01*
X8688307Y-10117617D01*
X8688307Y-10165236D01*
X8678783Y-10203331D01*
X8669260Y-10222379D01*
X8659736Y-10231902D01*
X8640688Y-10241426D01*
X8621640Y-10241426D01*
X8602593Y-10231902D01*
X8593069Y-10222379D01*
X8583545Y-10203331D01*
X8574021Y-10165236D01*
X8574021Y-10117617D01*
X8583545Y-10079521D01*
X8593069Y-10060474D01*
X8602593Y-10050950D01*
X8621640Y-10041426D01*
X8754974Y-10041426D02*
X8878783Y-10041426D01*
X8812117Y-10117617D01*
X8840688Y-10117617D01*
X8859736Y-10127140D01*
X8869260Y-10136664D01*
X8878783Y-10155712D01*
X8878783Y-10203331D01*
X8869260Y-10222379D01*
X8859736Y-10231902D01*
X8840688Y-10241426D01*
X8783545Y-10241426D01*
X8764498Y-10231902D01*
X8754974Y-10222379D01*
X8974021Y-10241426D02*
X9012117Y-10241426D01*
X9031164Y-10231902D01*
X9040688Y-10222379D01*
X9059736Y-10193807D01*
X9069260Y-10155712D01*
X9069260Y-10079521D01*
X9059736Y-10060474D01*
X9050212Y-10050950D01*
X9031164Y-10041426D01*
X8993069Y-10041426D01*
X8974021Y-10050950D01*
X8964498Y-10060474D01*
X8954974Y-10079521D01*
X8954974Y-10127140D01*
X8964498Y-10146188D01*
X8974021Y-10155712D01*
X8993069Y-10165236D01*
X9031164Y-10165236D01*
X9050212Y-10155712D01*
X9059736Y-10146188D01*
X9069260Y-10127140D01*
X9240688Y-10108093D02*
X9240688Y-10241426D01*
X9193069Y-10031902D02*
X9145450Y-10174760D01*
X9269260Y-10174760D01*
X9335926Y-10041426D02*
X9335926Y-10079521D01*
X9412117Y-10041426D02*
X9412117Y-10079521D01*
X9707355Y-10317617D02*
X9697831Y-10308093D01*
X9678783Y-10279521D01*
X9669260Y-10260474D01*
X9659736Y-10231902D01*
X9650212Y-10184283D01*
X9650212Y-10146188D01*
X9659736Y-10098569D01*
X9669260Y-10069998D01*
X9678783Y-10050950D01*
X9697831Y-10022379D01*
X9707355Y-10012855D01*
X9774021Y-10060474D02*
X9783545Y-10050950D01*
X9802593Y-10041426D01*
X9850212Y-10041426D01*
X9869260Y-10050950D01*
X9878783Y-10060474D01*
X9888307Y-10079521D01*
X9888307Y-10098569D01*
X9878783Y-10127140D01*
X9764498Y-10241426D01*
X9888307Y-10241426D01*
X9983545Y-10241426D02*
X10021640Y-10241426D01*
X10040688Y-10231902D01*
X10050212Y-10222379D01*
X10069260Y-10193807D01*
X10078783Y-10155712D01*
X10078783Y-10079521D01*
X10069260Y-10060474D01*
X10059736Y-10050950D01*
X10040688Y-10041426D01*
X10002593Y-10041426D01*
X9983545Y-10050950D01*
X9974021Y-10060474D01*
X9964498Y-10079521D01*
X9964498Y-10127140D01*
X9974021Y-10146188D01*
X9983545Y-10155712D01*
X10002593Y-10165236D01*
X10040688Y-10165236D01*
X10059736Y-10155712D01*
X10069260Y-10146188D01*
X10078783Y-10127140D01*
X10316879Y-10241426D02*
X10316879Y-10041426D01*
X10402593Y-10241426D02*
X10402593Y-10136664D01*
X10393069Y-10117617D01*
X10374021Y-10108093D01*
X10345450Y-10108093D01*
X10326402Y-10117617D01*
X10316879Y-10127140D01*
X10526402Y-10241426D02*
X10507355Y-10231902D01*
X10497831Y-10222379D01*
X10488307Y-10203331D01*
X10488307Y-10146188D01*
X10497831Y-10127140D01*
X10507355Y-10117617D01*
X10526402Y-10108093D01*
X10554974Y-10108093D01*
X10574021Y-10117617D01*
X10583545Y-10127140D01*
X10593069Y-10146188D01*
X10593069Y-10203331D01*
X10583545Y-10222379D01*
X10574021Y-10231902D01*
X10554974Y-10241426D01*
X10526402Y-10241426D01*
X10707355Y-10241426D02*
X10688307Y-10231902D01*
X10678783Y-10212855D01*
X10678783Y-10041426D01*
X10859736Y-10231902D02*
X10840688Y-10241426D01*
X10802593Y-10241426D01*
X10783545Y-10231902D01*
X10774021Y-10212855D01*
X10774021Y-10136664D01*
X10783545Y-10117617D01*
X10802593Y-10108093D01*
X10840688Y-10108093D01*
X10859736Y-10117617D01*
X10869260Y-10136664D01*
X10869260Y-10155712D01*
X10774021Y-10174760D01*
X10945450Y-10231902D02*
X10964498Y-10241426D01*
X11002593Y-10241426D01*
X11021640Y-10231902D01*
X11031164Y-10212855D01*
X11031164Y-10203331D01*
X11021640Y-10184283D01*
X11002593Y-10174760D01*
X10974021Y-10174760D01*
X10954974Y-10165236D01*
X10945450Y-10146188D01*
X10945450Y-10136664D01*
X10954974Y-10117617D01*
X10974021Y-10108093D01*
X11002593Y-10108093D01*
X11021640Y-10117617D01*
X11097831Y-10317617D02*
X11107355Y-10308093D01*
X11126402Y-10279521D01*
X11135926Y-10260474D01*
X11145450Y-10231902D01*
X11154974Y-10184283D01*
X11154974Y-10146188D01*
X11145450Y-10098569D01*
X11135926Y-10069998D01*
X11126402Y-10050950D01*
X11107355Y-10022379D01*
X11097831Y-10012855D01*
M02*
