%TF.GenerationSoftware,KiCad,Pcbnew,(6.0.7)*%
%TF.CreationDate,2023-01-18T15:46:22-05:00*%
%TF.ProjectId,Mosfet Test PCB,4d6f7366-6574-4205-9465-737420504342,rev?*%
%TF.SameCoordinates,Original*%
%TF.FileFunction,Soldermask,Top*%
%TF.FilePolarity,Negative*%
%FSLAX46Y46*%
G04 Gerber Fmt 4.6, Leading zero omitted, Abs format (unit mm)*
G04 Created by KiCad (PCBNEW (6.0.7)) date 2023-01-18 15:46:22*
%MOMM*%
%LPD*%
G01*
G04 APERTURE LIST*
G04 Aperture macros list*
%AMRoundRect*
0 Rectangle with rounded corners*
0 $1 Rounding radius*
0 $2 $3 $4 $5 $6 $7 $8 $9 X,Y pos of 4 corners*
0 Add a 4 corners polygon primitive as box body*
4,1,4,$2,$3,$4,$5,$6,$7,$8,$9,$2,$3,0*
0 Add four circle primitives for the rounded corners*
1,1,$1+$1,$2,$3*
1,1,$1+$1,$4,$5*
1,1,$1+$1,$6,$7*
1,1,$1+$1,$8,$9*
0 Add four rect primitives between the rounded corners*
20,1,$1+$1,$2,$3,$4,$5,0*
20,1,$1+$1,$4,$5,$6,$7,0*
20,1,$1+$1,$6,$7,$8,$9,0*
20,1,$1+$1,$8,$9,$2,$3,0*%
G04 Aperture macros list end*
%ADD10O,4.000000X2.000000*%
%ADD11RoundRect,0.250000X-0.650000X0.325000X-0.650000X-0.325000X0.650000X-0.325000X0.650000X0.325000X0*%
%ADD12RoundRect,0.250000X-0.325000X-0.650000X0.325000X-0.650000X0.325000X0.650000X-0.325000X0.650000X0*%
%ADD13RoundRect,0.250000X0.312500X0.625000X-0.312500X0.625000X-0.312500X-0.625000X0.312500X-0.625000X0*%
%ADD14C,2.050000*%
%ADD15C,2.250000*%
%ADD16O,2.000000X4.000000*%
%ADD17RoundRect,0.250000X-0.625000X0.312500X-0.625000X-0.312500X0.625000X-0.312500X0.625000X0.312500X0*%
%ADD18RoundRect,0.250000X-0.312500X-0.625000X0.312500X-0.625000X0.312500X0.625000X-0.312500X0.625000X0*%
%ADD19RoundRect,0.250000X0.650000X-0.325000X0.650000X0.325000X-0.650000X0.325000X-0.650000X-0.325000X0*%
%ADD20R,1.800000X1.800000*%
%ADD21C,1.800000*%
G04 APERTURE END LIST*
D10*
%TO.C,TP1*%
X135001000Y-90360500D03*
%TD*%
D11*
%TO.C,C5*%
X94615000Y-80694000D03*
X94615000Y-83644000D03*
%TD*%
%TO.C,C6*%
X99441000Y-80503500D03*
X99441000Y-83453500D03*
%TD*%
%TO.C,C7*%
X135064500Y-84631000D03*
X135064500Y-87581000D03*
%TD*%
D10*
%TO.C,RV1*%
X94742000Y-73733500D03*
X94742000Y-71193500D03*
X94742000Y-68653500D03*
%TD*%
%TO.C,L1*%
X82416000Y-58293000D03*
X97416000Y-58293000D03*
%TD*%
D12*
%TO.C,C11*%
X79375000Y-88074500D03*
X82325000Y-88074500D03*
%TD*%
%TO.C,C4*%
X96188000Y-88074500D03*
X99138000Y-88074500D03*
%TD*%
D13*
%TO.C,R1*%
X90299000Y-86296500D03*
X87374000Y-86296500D03*
%TD*%
D14*
%TO.C,J3*%
X141986000Y-63563500D03*
D15*
X144526000Y-61023500D03*
X139446000Y-66103500D03*
X144526000Y-66103500D03*
X139446000Y-61023500D03*
%TD*%
D10*
%TO.C,D1*%
X100393500Y-68580000D03*
X110553500Y-68580000D03*
%TD*%
D16*
%TO.C,Q1*%
X111252000Y-81788000D03*
X113792000Y-81788000D03*
X116332000Y-81788000D03*
%TD*%
D11*
%TO.C,C3*%
X115506500Y-59040500D03*
X115506500Y-61990500D03*
%TD*%
D16*
%TO.C,D3*%
X71882000Y-66230500D03*
X71882000Y-76390500D03*
%TD*%
D15*
%TO.C,J1*%
X72644000Y-88011000D03*
X70104000Y-90551000D03*
X75184000Y-85471000D03*
X75184000Y-90551000D03*
X70104000Y-85471000D03*
%TD*%
D10*
%TO.C,J4*%
X76708000Y-78676500D03*
X76708000Y-76136500D03*
X76708000Y-73596500D03*
%TD*%
D17*
%TO.C,R6*%
X66230500Y-71243000D03*
X66230500Y-74168000D03*
%TD*%
%TO.C,R3*%
X104584500Y-80579500D03*
X104584500Y-83504500D03*
%TD*%
D16*
%TO.C,Q2*%
X111442500Y-87439500D03*
X113982500Y-87439500D03*
X116522500Y-87439500D03*
%TD*%
D11*
%TO.C,C1*%
X120840500Y-59040500D03*
X120840500Y-61990500D03*
%TD*%
D13*
%TO.C,R2*%
X104777000Y-88074500D03*
X101852000Y-88074500D03*
%TD*%
D17*
%TO.C,R4*%
X135001000Y-78484000D03*
X135001000Y-81409000D03*
%TD*%
D11*
%TO.C,C8*%
X84455000Y-67549500D03*
X84455000Y-70499500D03*
%TD*%
D18*
%TO.C,R5*%
X78103000Y-67500500D03*
X81028000Y-67500500D03*
%TD*%
D16*
%TO.C,T1*%
X127492500Y-60683000D03*
X127492500Y-73683000D03*
X133492500Y-60683000D03*
X133492500Y-73683000D03*
%TD*%
D17*
%TO.C,R7*%
X86042500Y-89088500D03*
X86042500Y-92013500D03*
%TD*%
%TO.C,R8*%
X91059000Y-89152000D03*
X91059000Y-92077000D03*
%TD*%
D10*
%TO.C,C2*%
X106426000Y-61862849D03*
X106426000Y-59362849D03*
%TD*%
D19*
%TO.C,C9*%
X140081000Y-74055500D03*
X140081000Y-71105500D03*
%TD*%
D10*
%TO.C,J2*%
X117729000Y-70861000D03*
X117729000Y-73401000D03*
%TD*%
D16*
%TO.C,C10*%
X85384000Y-76136500D03*
X87884000Y-76136500D03*
%TD*%
D20*
%TO.C,D2*%
X65722500Y-66421000D03*
D21*
X68262500Y-66421000D03*
%TD*%
M02*
