%TF.GenerationSoftware,KiCad,Pcbnew,(6.0.7)*%
%TF.CreationDate,2023-01-18T15:46:22-05:00*%
%TF.ProjectId,Mosfet Test PCB,4d6f7366-6574-4205-9465-737420504342,rev?*%
%TF.SameCoordinates,Original*%
%TF.FileFunction,Copper,L1,Top*%
%TF.FilePolarity,Positive*%
%FSLAX46Y46*%
G04 Gerber Fmt 4.6, Leading zero omitted, Abs format (unit mm)*
G04 Created by KiCad (PCBNEW (6.0.7)) date 2023-01-18 15:46:22*
%MOMM*%
%LPD*%
G01*
G04 APERTURE LIST*
G04 Aperture macros list*
%AMRoundRect*
0 Rectangle with rounded corners*
0 $1 Rounding radius*
0 $2 $3 $4 $5 $6 $7 $8 $9 X,Y pos of 4 corners*
0 Add a 4 corners polygon primitive as box body*
4,1,4,$2,$3,$4,$5,$6,$7,$8,$9,$2,$3,0*
0 Add four circle primitives for the rounded corners*
1,1,$1+$1,$2,$3*
1,1,$1+$1,$4,$5*
1,1,$1+$1,$6,$7*
1,1,$1+$1,$8,$9*
0 Add four rect primitives between the rounded corners*
20,1,$1+$1,$2,$3,$4,$5,0*
20,1,$1+$1,$4,$5,$6,$7,0*
20,1,$1+$1,$6,$7,$8,$9,0*
20,1,$1+$1,$8,$9,$2,$3,0*%
G04 Aperture macros list end*
%TA.AperFunction,ComponentPad*%
%ADD10O,4.000000X2.000000*%
%TD*%
%TA.AperFunction,SMDPad,CuDef*%
%ADD11RoundRect,0.250000X-0.650000X0.325000X-0.650000X-0.325000X0.650000X-0.325000X0.650000X0.325000X0*%
%TD*%
%TA.AperFunction,SMDPad,CuDef*%
%ADD12RoundRect,0.250000X-0.325000X-0.650000X0.325000X-0.650000X0.325000X0.650000X-0.325000X0.650000X0*%
%TD*%
%TA.AperFunction,SMDPad,CuDef*%
%ADD13RoundRect,0.250000X0.312500X0.625000X-0.312500X0.625000X-0.312500X-0.625000X0.312500X-0.625000X0*%
%TD*%
%TA.AperFunction,SMDPad,CuDef*%
%ADD14C,2.050000*%
%TD*%
%TA.AperFunction,SMDPad,CuDef*%
%ADD15C,2.250000*%
%TD*%
%TA.AperFunction,ComponentPad*%
%ADD16O,2.000000X4.000000*%
%TD*%
%TA.AperFunction,SMDPad,CuDef*%
%ADD17RoundRect,0.250000X-0.625000X0.312500X-0.625000X-0.312500X0.625000X-0.312500X0.625000X0.312500X0*%
%TD*%
%TA.AperFunction,SMDPad,CuDef*%
%ADD18RoundRect,0.250000X-0.312500X-0.625000X0.312500X-0.625000X0.312500X0.625000X-0.312500X0.625000X0*%
%TD*%
%TA.AperFunction,SMDPad,CuDef*%
%ADD19RoundRect,0.250000X0.650000X-0.325000X0.650000X0.325000X-0.650000X0.325000X-0.650000X-0.325000X0*%
%TD*%
%TA.AperFunction,SMDPad,CuDef*%
%ADD20R,1.800000X1.800000*%
%TD*%
%TA.AperFunction,SMDPad,CuDef*%
%ADD21C,1.800000*%
%TD*%
%TA.AperFunction,Conductor*%
%ADD22C,0.550000*%
%TD*%
G04 APERTURE END LIST*
D10*
%TO.P,TP1,1,1*%
%TO.N,Net-(C7-Pad2)*%
X135001000Y-90360500D03*
%TD*%
D11*
%TO.P,C5,1*%
%TO.N,Net-(C5-Pad1)*%
X94615000Y-80694000D03*
%TO.P,C5,2*%
%TO.N,GND*%
X94615000Y-83644000D03*
%TD*%
%TO.P,C6,1*%
%TO.N,Net-(C5-Pad1)*%
X99441000Y-80503500D03*
%TO.P,C6,2*%
%TO.N,GND*%
X99441000Y-83453500D03*
%TD*%
%TO.P,C7,1*%
%TO.N,Net-(C7-Pad1)*%
X135064500Y-84631000D03*
%TO.P,C7,2*%
%TO.N,Net-(C7-Pad2)*%
X135064500Y-87581000D03*
%TD*%
D10*
%TO.P,RV1,1,1*%
%TO.N,GND*%
X94742000Y-73733500D03*
%TO.P,RV1,2,2*%
%TO.N,Net-(C5-Pad1)*%
X94742000Y-71193500D03*
%TO.P,RV1,3,3*%
%TO.N,Net-(C10-Pad1)*%
X94742000Y-68653500D03*
%TD*%
%TO.P,L1,1,1*%
%TO.N,TX12V*%
X82416000Y-58293000D03*
%TO.P,L1,2,2*%
%TO.N,M2_12V*%
X97416000Y-58293000D03*
%TD*%
D12*
%TO.P,C11,1*%
%TO.N,Net-(J1-Pad1)*%
X79375000Y-88074500D03*
%TO.P,C11,2*%
%TO.N,Net-(R1-Pad2)*%
X82325000Y-88074500D03*
%TD*%
%TO.P,C4,1*%
%TO.N,Net-(C4-Pad1)*%
X96188000Y-88074500D03*
%TO.P,C4,2*%
%TO.N,Net-(C4-Pad2)*%
X99138000Y-88074500D03*
%TD*%
D13*
%TO.P,R1,1*%
%TO.N,Net-(C4-Pad1)*%
X90299000Y-86296500D03*
%TO.P,R1,2*%
%TO.N,Net-(R1-Pad2)*%
X87374000Y-86296500D03*
%TD*%
D14*
%TO.P,J3,1,In*%
%TO.N,Net-(C9-Pad2)*%
X141986000Y-63563500D03*
D15*
%TO.P,J3,2,Ext*%
%TO.N,GND*%
X144526000Y-61023500D03*
X139446000Y-66103500D03*
X144526000Y-66103500D03*
X139446000Y-61023500D03*
%TD*%
D10*
%TO.P,D1,1,K*%
%TO.N,Net-(C10-Pad1)*%
X100393500Y-68580000D03*
%TO.P,D1,2,A*%
%TO.N,GND*%
X110553500Y-68580000D03*
%TD*%
D16*
%TO.P,Q1,3*%
%TO.N,Net-(J2-Pad2)*%
X111252000Y-81788000D03*
%TO.P,Q1,2*%
%TO.N,GND*%
X113792000Y-81788000D03*
%TO.P,Q1,1*%
%TO.N,Net-(C7-Pad2)*%
X116332000Y-81788000D03*
%TD*%
D11*
%TO.P,C3,1*%
%TO.N,M2_12V*%
X115506500Y-59040500D03*
%TO.P,C3,2*%
%TO.N,GND*%
X115506500Y-61990500D03*
%TD*%
D16*
%TO.P,D3,1,K*%
%TO.N,TX12V*%
X71882000Y-66230500D03*
%TO.P,D3,2,A*%
%TO.N,Net-(D3-Pad2)*%
X71882000Y-76390500D03*
%TD*%
D15*
%TO.P,J1,1,In*%
%TO.N,Net-(J1-Pad1)*%
X72644000Y-88011000D03*
%TO.P,J1,2,Ext*%
%TO.N,GND*%
X70104000Y-90551000D03*
X75184000Y-85471000D03*
X75184000Y-90551000D03*
X70104000Y-85471000D03*
%TD*%
D10*
%TO.P,J4,1,Pin_1*%
%TO.N,GND*%
X76708000Y-78676500D03*
%TO.P,J4,2,Pin_2*%
%TO.N,Net-(D3-Pad2)*%
X76708000Y-76136500D03*
%TO.P,J4,3,Pin_3*%
%TO.N,GND*%
X76708000Y-73596500D03*
%TD*%
D17*
%TO.P,R6,1*%
%TO.N,Net-(D2-Pad1)*%
X66230500Y-71243000D03*
%TO.P,R6,2*%
%TO.N,GND*%
X66230500Y-74168000D03*
%TD*%
%TO.P,R3,1*%
%TO.N,Net-(C5-Pad1)*%
X104584500Y-80579500D03*
%TO.P,R3,2*%
%TO.N,Net-(C7-Pad2)*%
X104584500Y-83504500D03*
%TD*%
D16*
%TO.P,Q2,1*%
%TO.N,GND*%
X111442500Y-87439500D03*
%TO.P,Q2,2*%
%TO.N,Net-(J2-Pad2)*%
X113982500Y-87439500D03*
%TO.P,Q2,3*%
%TO.N,Net-(C7-Pad2)*%
X116522500Y-87439500D03*
%TD*%
D11*
%TO.P,C1,1*%
%TO.N,M2_12V*%
X120840500Y-59040500D03*
%TO.P,C1,2*%
%TO.N,GND*%
X120840500Y-61990500D03*
%TD*%
D13*
%TO.P,R2,1*%
%TO.N,Net-(C7-Pad2)*%
X104777000Y-88074500D03*
%TO.P,R2,2*%
%TO.N,Net-(C4-Pad2)*%
X101852000Y-88074500D03*
%TD*%
D17*
%TO.P,R4,1*%
%TO.N,Net-(J2-Pad2)*%
X135001000Y-78484000D03*
%TO.P,R4,2*%
%TO.N,Net-(C7-Pad1)*%
X135001000Y-81409000D03*
%TD*%
D11*
%TO.P,C8,1*%
%TO.N,Net-(C10-Pad1)*%
X84455000Y-67549500D03*
%TO.P,C8,2*%
%TO.N,GND*%
X84455000Y-70499500D03*
%TD*%
D18*
%TO.P,R5,1*%
%TO.N,TX12V*%
X78103000Y-67500500D03*
%TO.P,R5,2*%
%TO.N,Net-(C10-Pad1)*%
X81028000Y-67500500D03*
%TD*%
D16*
%TO.P,T1,1,AA*%
%TO.N,M2_12V*%
X127492500Y-60683000D03*
%TO.P,T1,2,AB*%
%TO.N,Net-(J2-Pad1)*%
X127492500Y-73683000D03*
%TO.P,T1,3,SB*%
%TO.N,GND*%
X133492500Y-60683000D03*
%TO.P,T1,4,SA*%
%TO.N,Net-(C9-Pad1)*%
X133492500Y-73683000D03*
%TD*%
D17*
%TO.P,R7,1*%
%TO.N,Net-(R1-Pad2)*%
X86042500Y-89088500D03*
%TO.P,R7,2*%
%TO.N,GND*%
X86042500Y-92013500D03*
%TD*%
%TO.P,R8,1*%
%TO.N,Net-(C4-Pad1)*%
X91059000Y-89152000D03*
%TO.P,R8,2*%
%TO.N,GND*%
X91059000Y-92077000D03*
%TD*%
D10*
%TO.P,C2,2*%
%TO.N,GND*%
X106426000Y-61862849D03*
%TO.P,C2,1*%
%TO.N,M2_12V*%
X106426000Y-59362849D03*
%TD*%
D19*
%TO.P,C9,1*%
%TO.N,Net-(C9-Pad1)*%
X140081000Y-74055500D03*
%TO.P,C9,2*%
%TO.N,Net-(C9-Pad2)*%
X140081000Y-71105500D03*
%TD*%
D10*
%TO.P,J2,1,Pin_1*%
%TO.N,Net-(J2-Pad1)*%
X117729000Y-70861000D03*
%TO.P,J2,2,Pin_2*%
%TO.N,Net-(J2-Pad2)*%
X117729000Y-73401000D03*
%TD*%
D16*
%TO.P,C10,2*%
%TO.N,GND*%
X85384000Y-76136500D03*
%TO.P,C10,1*%
%TO.N,Net-(C10-Pad1)*%
X87884000Y-76136500D03*
%TD*%
D20*
%TO.P,D2,1,K*%
%TO.N,Net-(D2-Pad1)*%
X65722500Y-66421000D03*
D21*
%TO.P,D2,2,A*%
%TO.N,TX12V*%
X68262500Y-66421000D03*
%TD*%
D22*
%TO.N,Net-(C7-Pad2)*%
X134923000Y-87439500D02*
X116522500Y-87439500D01*
X135064500Y-87581000D02*
X134923000Y-87439500D01*
X135064500Y-87581000D02*
X135064500Y-90297000D01*
X135064500Y-90297000D02*
X135001000Y-90360500D01*
X115697000Y-91821000D02*
X116522500Y-90995500D01*
X107950000Y-91821000D02*
X115697000Y-91821000D01*
X116522500Y-90995500D02*
X116522500Y-87439500D01*
X104777000Y-88074500D02*
X104777000Y-88648000D01*
X104777000Y-88648000D02*
X107950000Y-91821000D01*
%TO.N,Net-(J2-Pad1)*%
X117729000Y-70861000D02*
X124670500Y-70861000D01*
X124670500Y-70861000D02*
X127492500Y-73683000D01*
%TO.N,Net-(J2-Pad2)*%
X118364000Y-76454000D02*
X117729000Y-75819000D01*
X130365500Y-76454000D02*
X118364000Y-76454000D01*
X132395500Y-78484000D02*
X130365500Y-76454000D01*
X135001000Y-78484000D02*
X132395500Y-78484000D01*
X117729000Y-75819000D02*
X117729000Y-73401000D01*
X113162000Y-73401000D02*
X117729000Y-73401000D01*
X111252000Y-81788000D02*
X111252000Y-75311000D01*
X111252000Y-75311000D02*
X113162000Y-73401000D01*
%TO.N,Net-(C5-Pad1)*%
X100203000Y-79741500D02*
X99441000Y-80503500D01*
X100203000Y-73469500D02*
X100203000Y-79741500D01*
X97927000Y-71193500D02*
X100203000Y-73469500D01*
X94742000Y-71193500D02*
X97927000Y-71193500D01*
%TO.N,Net-(C9-Pad2)*%
X141986000Y-70231000D02*
X141111500Y-71105500D01*
X141986000Y-63563500D02*
X141986000Y-70231000D01*
X141111500Y-71105500D02*
X140081000Y-71105500D01*
%TO.N,M2_12V*%
X115184151Y-59362849D02*
X106426000Y-59362849D01*
X115506500Y-59040500D02*
X115184151Y-59362849D01*
X120840500Y-59040500D02*
X115506500Y-59040500D01*
X123239000Y-59040500D02*
X120840500Y-59040500D01*
X124881500Y-60683000D02*
X123239000Y-59040500D01*
X127492500Y-60683000D02*
X124881500Y-60683000D01*
X105356151Y-58293000D02*
X106426000Y-59362849D01*
X97416000Y-58293000D02*
X105356151Y-58293000D01*
%TO.N,TX12V*%
X77406500Y-63309500D02*
X77406500Y-66804000D01*
X77596000Y-66993500D02*
X76833000Y-66230500D01*
X77406500Y-66804000D02*
X77596000Y-66993500D01*
X82416000Y-58300000D02*
X77406500Y-63309500D01*
X82416000Y-58293000D02*
X82416000Y-58300000D01*
X78103000Y-67500500D02*
X77596000Y-66993500D01*
X76833000Y-66230500D02*
X71882000Y-66230500D01*
%TO.N,Net-(D2-Pad1)*%
X65722500Y-70735000D02*
X66230500Y-71243000D01*
X65722500Y-66421000D02*
X65722500Y-70735000D01*
%TO.N,TX12V*%
X71691500Y-66421000D02*
X71882000Y-66230500D01*
X68262500Y-66421000D02*
X71691500Y-66421000D01*
%TO.N,Net-(D3-Pad2)*%
X76454000Y-76390500D02*
X76708000Y-76136500D01*
X71882000Y-76390500D02*
X76454000Y-76390500D01*
%TO.N,Net-(C10-Pad1)*%
X94742000Y-68653500D02*
X100320000Y-68653500D01*
X100320000Y-68653500D02*
X100393500Y-68580000D01*
X84406000Y-67500500D02*
X84455000Y-67549500D01*
X81028000Y-67500500D02*
X84406000Y-67500500D01*
X85559000Y-68653500D02*
X91112500Y-68653500D01*
X91112500Y-68653500D02*
X94742000Y-68653500D01*
X90668000Y-68653500D02*
X91112500Y-68653500D01*
X84455000Y-67549500D02*
X85559000Y-68653500D01*
X87884000Y-71437500D02*
X90668000Y-68653500D01*
X87884000Y-76136500D02*
X87884000Y-71437500D01*
%TO.N,Net-(C9-Pad1)*%
X139708500Y-73683000D02*
X140081000Y-74055500D01*
X133492500Y-73683000D02*
X139708500Y-73683000D01*
%TO.N,Net-(C7-Pad2)*%
X116332000Y-87249000D02*
X116522500Y-87439500D01*
X116332000Y-81788000D02*
X116332000Y-87249000D01*
%TO.N,Net-(C7-Pad1)*%
X135001000Y-84504000D02*
X135064500Y-84567500D01*
X135001000Y-81409000D02*
X135001000Y-84504000D01*
%TO.N,Net-(J2-Pad2)*%
X111252000Y-83566000D02*
X111252000Y-81788000D01*
X113982500Y-86296500D02*
X111252000Y-83566000D01*
X113982500Y-87439500D02*
X113982500Y-86296500D01*
%TO.N,Net-(C5-Pad1)*%
X104508500Y-80503500D02*
X104584500Y-80579500D01*
X99441000Y-80503500D02*
X104508500Y-80503500D01*
X94615000Y-80694000D02*
X99250500Y-80694000D01*
X99250500Y-80694000D02*
X99441000Y-80503500D01*
%TO.N,Net-(C7-Pad2)*%
X104584500Y-87882000D02*
X104777000Y-88074500D01*
X104584500Y-83504500D02*
X104584500Y-87882000D01*
%TO.N,Net-(C4-Pad2)*%
X99138000Y-88074500D02*
X101852000Y-88074500D01*
%TO.N,Net-(C4-Pad1)*%
X92136500Y-88074500D02*
X91059000Y-89152000D01*
X96188000Y-88074500D02*
X92136500Y-88074500D01*
X91059000Y-87056500D02*
X90299000Y-86296500D01*
X91059000Y-89152000D02*
X91059000Y-87056500D01*
%TO.N,Net-(R1-Pad2)*%
X86042500Y-89088500D02*
X86042500Y-87628000D01*
X86042500Y-87628000D02*
X87374000Y-86296500D01*
X85028500Y-88074500D02*
X86042500Y-89088500D01*
X82325000Y-88074500D02*
X85028500Y-88074500D01*
%TO.N,Net-(J1-Pad1)*%
X79311500Y-88011000D02*
X79375000Y-88074500D01*
X72644000Y-88011000D02*
X79311500Y-88011000D01*
%TD*%
%TA.AperFunction,Conductor*%
%TO.N,GND*%
G36*
X147579121Y-51519002D02*
G01*
X147625614Y-51572658D01*
X147637000Y-51625000D01*
X147637000Y-94425000D01*
X147616998Y-94493121D01*
X147563342Y-94539614D01*
X147511000Y-94551000D01*
X62039000Y-94551000D01*
X61970879Y-94530998D01*
X61924386Y-94477342D01*
X61913000Y-94425000D01*
X61913000Y-92373095D01*
X84659501Y-92373095D01*
X84659838Y-92379614D01*
X84669757Y-92475206D01*
X84672649Y-92488600D01*
X84724088Y-92642784D01*
X84730261Y-92655962D01*
X84815563Y-92793807D01*
X84824599Y-92805208D01*
X84939329Y-92919739D01*
X84950740Y-92928751D01*
X85088743Y-93013816D01*
X85101924Y-93019963D01*
X85256210Y-93071138D01*
X85269586Y-93074005D01*
X85363938Y-93083672D01*
X85370354Y-93084000D01*
X85770385Y-93084000D01*
X85785624Y-93079525D01*
X85786829Y-93078135D01*
X85788500Y-93070452D01*
X85788500Y-93065884D01*
X86296500Y-93065884D01*
X86300975Y-93081123D01*
X86302365Y-93082328D01*
X86310048Y-93083999D01*
X86714595Y-93083999D01*
X86721114Y-93083662D01*
X86816706Y-93073743D01*
X86830100Y-93070851D01*
X86984284Y-93019412D01*
X86997462Y-93013239D01*
X87135307Y-92927937D01*
X87146708Y-92918901D01*
X87261239Y-92804171D01*
X87270251Y-92792760D01*
X87355316Y-92654757D01*
X87361463Y-92641576D01*
X87412638Y-92487290D01*
X87415505Y-92473914D01*
X87419329Y-92436595D01*
X89676001Y-92436595D01*
X89676338Y-92443114D01*
X89686257Y-92538706D01*
X89689149Y-92552100D01*
X89740588Y-92706284D01*
X89746761Y-92719462D01*
X89832063Y-92857307D01*
X89841099Y-92868708D01*
X89955829Y-92983239D01*
X89967240Y-92992251D01*
X90105243Y-93077316D01*
X90118424Y-93083463D01*
X90272710Y-93134638D01*
X90286086Y-93137505D01*
X90380438Y-93147172D01*
X90386854Y-93147500D01*
X90786885Y-93147500D01*
X90802124Y-93143025D01*
X90803329Y-93141635D01*
X90805000Y-93133952D01*
X90805000Y-93129384D01*
X91313000Y-93129384D01*
X91317475Y-93144623D01*
X91318865Y-93145828D01*
X91326548Y-93147499D01*
X91731095Y-93147499D01*
X91737614Y-93147162D01*
X91833206Y-93137243D01*
X91846600Y-93134351D01*
X92000784Y-93082912D01*
X92013962Y-93076739D01*
X92151807Y-92991437D01*
X92163208Y-92982401D01*
X92277739Y-92867671D01*
X92286751Y-92856260D01*
X92371816Y-92718257D01*
X92377963Y-92705076D01*
X92429138Y-92550790D01*
X92432005Y-92537414D01*
X92441672Y-92443062D01*
X92442000Y-92436646D01*
X92442000Y-92349115D01*
X92437525Y-92333876D01*
X92436135Y-92332671D01*
X92428452Y-92331000D01*
X91331115Y-92331000D01*
X91315876Y-92335475D01*
X91314671Y-92336865D01*
X91313000Y-92344548D01*
X91313000Y-93129384D01*
X90805000Y-93129384D01*
X90805000Y-92349115D01*
X90800525Y-92333876D01*
X90799135Y-92332671D01*
X90791452Y-92331000D01*
X89694116Y-92331000D01*
X89678877Y-92335475D01*
X89677672Y-92336865D01*
X89676001Y-92344548D01*
X89676001Y-92436595D01*
X87419329Y-92436595D01*
X87425172Y-92379562D01*
X87425500Y-92373146D01*
X87425500Y-92285615D01*
X87421025Y-92270376D01*
X87419635Y-92269171D01*
X87411952Y-92267500D01*
X86314615Y-92267500D01*
X86299376Y-92271975D01*
X86298171Y-92273365D01*
X86296500Y-92281048D01*
X86296500Y-93065884D01*
X85788500Y-93065884D01*
X85788500Y-92285615D01*
X85784025Y-92270376D01*
X85782635Y-92269171D01*
X85774952Y-92267500D01*
X84677616Y-92267500D01*
X84662377Y-92271975D01*
X84661172Y-92273365D01*
X84659501Y-92281048D01*
X84659501Y-92373095D01*
X61913000Y-92373095D01*
X61913000Y-91875471D01*
X69144884Y-91875471D01*
X69148570Y-91880740D01*
X69356121Y-92007927D01*
X69364915Y-92012408D01*
X69593242Y-92106984D01*
X69602627Y-92110033D01*
X69842940Y-92167728D01*
X69852687Y-92169271D01*
X70099070Y-92188662D01*
X70108930Y-92188662D01*
X70355313Y-92169271D01*
X70365060Y-92167728D01*
X70605373Y-92110033D01*
X70614758Y-92106984D01*
X70843085Y-92012408D01*
X70851879Y-92007927D01*
X71057928Y-91881660D01*
X71061968Y-91875471D01*
X74224884Y-91875471D01*
X74228570Y-91880740D01*
X74436121Y-92007927D01*
X74444915Y-92012408D01*
X74673242Y-92106984D01*
X74682627Y-92110033D01*
X74922940Y-92167728D01*
X74932687Y-92169271D01*
X75179070Y-92188662D01*
X75188930Y-92188662D01*
X75435313Y-92169271D01*
X75445060Y-92167728D01*
X75685373Y-92110033D01*
X75694758Y-92106984D01*
X75923085Y-92012408D01*
X75931879Y-92007927D01*
X76137928Y-91881660D01*
X76143190Y-91873599D01*
X76137183Y-91863393D01*
X76078675Y-91804885D01*
X89676000Y-91804885D01*
X89680475Y-91820124D01*
X89681865Y-91821329D01*
X89689548Y-91823000D01*
X90786885Y-91823000D01*
X90802124Y-91818525D01*
X90803329Y-91817135D01*
X90805000Y-91809452D01*
X90805000Y-91804885D01*
X91313000Y-91804885D01*
X91317475Y-91820124D01*
X91318865Y-91821329D01*
X91326548Y-91823000D01*
X92423884Y-91823000D01*
X92439123Y-91818525D01*
X92440328Y-91817135D01*
X92441999Y-91809452D01*
X92441999Y-91717405D01*
X92441662Y-91710886D01*
X92431743Y-91615294D01*
X92428851Y-91601900D01*
X92377412Y-91447716D01*
X92371239Y-91434538D01*
X92285937Y-91296693D01*
X92276901Y-91285292D01*
X92162171Y-91170761D01*
X92150760Y-91161749D01*
X92012757Y-91076684D01*
X91999576Y-91070537D01*
X91845290Y-91019362D01*
X91831914Y-91016495D01*
X91737562Y-91006828D01*
X91731145Y-91006500D01*
X91331115Y-91006500D01*
X91315876Y-91010975D01*
X91314671Y-91012365D01*
X91313000Y-91020048D01*
X91313000Y-91804885D01*
X90805000Y-91804885D01*
X90805000Y-91024616D01*
X90800525Y-91009377D01*
X90799135Y-91008172D01*
X90791452Y-91006501D01*
X90386905Y-91006501D01*
X90380386Y-91006838D01*
X90284794Y-91016757D01*
X90271400Y-91019649D01*
X90117216Y-91071088D01*
X90104038Y-91077261D01*
X89966193Y-91162563D01*
X89954792Y-91171599D01*
X89840261Y-91286329D01*
X89831249Y-91297740D01*
X89746184Y-91435743D01*
X89740037Y-91448924D01*
X89688862Y-91603210D01*
X89685995Y-91616586D01*
X89676328Y-91710938D01*
X89676000Y-91717355D01*
X89676000Y-91804885D01*
X76078675Y-91804885D01*
X76015175Y-91741385D01*
X84659500Y-91741385D01*
X84663975Y-91756624D01*
X84665365Y-91757829D01*
X84673048Y-91759500D01*
X85770385Y-91759500D01*
X85785624Y-91755025D01*
X85786829Y-91753635D01*
X85788500Y-91745952D01*
X85788500Y-91741385D01*
X86296500Y-91741385D01*
X86300975Y-91756624D01*
X86302365Y-91757829D01*
X86310048Y-91759500D01*
X87407384Y-91759500D01*
X87422623Y-91755025D01*
X87423828Y-91753635D01*
X87425499Y-91745952D01*
X87425499Y-91653905D01*
X87425162Y-91647386D01*
X87415243Y-91551794D01*
X87412351Y-91538400D01*
X87360912Y-91384216D01*
X87354739Y-91371038D01*
X87269437Y-91233193D01*
X87260401Y-91221792D01*
X87145671Y-91107261D01*
X87134260Y-91098249D01*
X86996257Y-91013184D01*
X86983076Y-91007037D01*
X86828790Y-90955862D01*
X86815414Y-90952995D01*
X86721062Y-90943328D01*
X86714645Y-90943000D01*
X86314615Y-90943000D01*
X86299376Y-90947475D01*
X86298171Y-90948865D01*
X86296500Y-90956548D01*
X86296500Y-91741385D01*
X85788500Y-91741385D01*
X85788500Y-90961116D01*
X85784025Y-90945877D01*
X85782635Y-90944672D01*
X85774952Y-90943001D01*
X85370405Y-90943001D01*
X85363886Y-90943338D01*
X85268294Y-90953257D01*
X85254900Y-90956149D01*
X85100716Y-91007588D01*
X85087538Y-91013761D01*
X84949693Y-91099063D01*
X84938292Y-91108099D01*
X84823761Y-91222829D01*
X84814749Y-91234240D01*
X84729684Y-91372243D01*
X84723537Y-91385424D01*
X84672362Y-91539710D01*
X84669495Y-91553086D01*
X84659828Y-91647438D01*
X84659500Y-91653855D01*
X84659500Y-91741385D01*
X76015175Y-91741385D01*
X75196812Y-90923022D01*
X75182868Y-90915408D01*
X75181035Y-90915539D01*
X75174420Y-90919790D01*
X74232276Y-91861934D01*
X74224884Y-91875471D01*
X71061968Y-91875471D01*
X71063190Y-91873599D01*
X71057183Y-91863393D01*
X70116812Y-90923022D01*
X70102868Y-90915408D01*
X70101035Y-90915539D01*
X70094420Y-90919790D01*
X69152276Y-91861934D01*
X69144884Y-91875471D01*
X61913000Y-91875471D01*
X61913000Y-90555930D01*
X68466338Y-90555930D01*
X68485729Y-90802313D01*
X68487272Y-90812060D01*
X68544967Y-91052373D01*
X68548016Y-91061758D01*
X68642592Y-91290085D01*
X68647073Y-91298879D01*
X68773340Y-91504928D01*
X68781401Y-91510190D01*
X68791607Y-91504183D01*
X69731978Y-90563812D01*
X69738356Y-90552132D01*
X70468408Y-90552132D01*
X70468539Y-90553965D01*
X70472790Y-90560580D01*
X71414934Y-91502724D01*
X71428471Y-91510116D01*
X71433740Y-91506430D01*
X71560927Y-91298879D01*
X71565408Y-91290085D01*
X71659984Y-91061758D01*
X71663033Y-91052373D01*
X71720728Y-90812060D01*
X71722271Y-90802313D01*
X71741662Y-90555930D01*
X73546338Y-90555930D01*
X73565729Y-90802313D01*
X73567272Y-90812060D01*
X73624967Y-91052373D01*
X73628016Y-91061758D01*
X73722592Y-91290085D01*
X73727073Y-91298879D01*
X73853340Y-91504928D01*
X73861401Y-91510190D01*
X73871607Y-91504183D01*
X74811978Y-90563812D01*
X74818356Y-90552132D01*
X75548408Y-90552132D01*
X75548539Y-90553965D01*
X75552790Y-90560580D01*
X76494934Y-91502724D01*
X76508471Y-91510116D01*
X76513740Y-91506430D01*
X76640927Y-91298879D01*
X76645408Y-91290085D01*
X76739984Y-91061758D01*
X76743033Y-91052373D01*
X76800728Y-90812060D01*
X76802271Y-90802313D01*
X76821662Y-90555930D01*
X76821662Y-90546070D01*
X76802271Y-90299687D01*
X76800728Y-90289940D01*
X76743033Y-90049627D01*
X76739984Y-90040242D01*
X76645408Y-89811915D01*
X76640927Y-89803121D01*
X76514660Y-89597072D01*
X76506599Y-89591810D01*
X76496393Y-89597817D01*
X75556022Y-90538188D01*
X75548408Y-90552132D01*
X74818356Y-90552132D01*
X74819592Y-90549868D01*
X74819461Y-90548035D01*
X74815210Y-90541420D01*
X73873066Y-89599276D01*
X73859529Y-89591884D01*
X73854260Y-89595570D01*
X73727073Y-89803121D01*
X73722592Y-89811915D01*
X73628016Y-90040242D01*
X73624967Y-90049627D01*
X73567272Y-90289940D01*
X73565729Y-90299687D01*
X73546338Y-90546070D01*
X73546338Y-90555930D01*
X71741662Y-90555930D01*
X71741662Y-90546070D01*
X71722271Y-90299687D01*
X71720728Y-90289940D01*
X71663033Y-90049627D01*
X71659984Y-90040242D01*
X71565408Y-89811915D01*
X71560927Y-89803121D01*
X71434660Y-89597072D01*
X71426599Y-89591810D01*
X71416393Y-89597817D01*
X70476022Y-90538188D01*
X70468408Y-90552132D01*
X69738356Y-90552132D01*
X69739592Y-90549868D01*
X69739461Y-90548035D01*
X69735210Y-90541420D01*
X68793066Y-89599276D01*
X68779529Y-89591884D01*
X68774260Y-89595570D01*
X68647073Y-89803121D01*
X68642592Y-89811915D01*
X68548016Y-90040242D01*
X68544967Y-90049627D01*
X68487272Y-90289940D01*
X68485729Y-90299687D01*
X68466338Y-90546070D01*
X68466338Y-90555930D01*
X61913000Y-90555930D01*
X61913000Y-89228401D01*
X69144810Y-89228401D01*
X69150817Y-89238607D01*
X70091188Y-90178978D01*
X70105132Y-90186592D01*
X70106965Y-90186461D01*
X70113580Y-90182210D01*
X71055724Y-89240066D01*
X71063116Y-89226529D01*
X71059430Y-89221260D01*
X70851879Y-89094073D01*
X70843085Y-89089592D01*
X70614758Y-88995016D01*
X70605373Y-88991967D01*
X70365060Y-88934272D01*
X70355313Y-88932729D01*
X70108930Y-88913338D01*
X70099070Y-88913338D01*
X69852687Y-88932729D01*
X69842940Y-88934272D01*
X69602627Y-88991967D01*
X69593242Y-88995016D01*
X69364915Y-89089592D01*
X69356121Y-89094073D01*
X69150072Y-89220340D01*
X69144810Y-89228401D01*
X61913000Y-89228401D01*
X61913000Y-88011000D01*
X71005449Y-88011000D01*
X71025622Y-88267326D01*
X71026776Y-88272133D01*
X71026777Y-88272139D01*
X71052505Y-88379303D01*
X71085645Y-88517340D01*
X71087538Y-88521911D01*
X71087539Y-88521913D01*
X71180642Y-88746683D01*
X71184040Y-88754887D01*
X71318384Y-88974116D01*
X71485369Y-89169631D01*
X71680884Y-89336616D01*
X71900113Y-89470960D01*
X71904683Y-89472853D01*
X71904687Y-89472855D01*
X72124017Y-89563704D01*
X72137660Y-89569355D01*
X72224502Y-89590204D01*
X72382861Y-89628223D01*
X72382867Y-89628224D01*
X72387674Y-89629378D01*
X72644000Y-89649551D01*
X72900326Y-89629378D01*
X72905133Y-89628224D01*
X72905139Y-89628223D01*
X73063498Y-89590204D01*
X73150340Y-89569355D01*
X73163983Y-89563704D01*
X73383313Y-89472855D01*
X73383317Y-89472853D01*
X73387887Y-89470960D01*
X73607116Y-89336616D01*
X73802631Y-89169631D01*
X73969616Y-88974116D01*
X74018320Y-88894638D01*
X74042816Y-88854665D01*
X74095464Y-88807034D01*
X74150249Y-88794500D01*
X74523886Y-88794500D01*
X74592007Y-88814502D01*
X74638500Y-88868158D01*
X74648604Y-88938432D01*
X74619110Y-89003012D01*
X74572104Y-89036909D01*
X74444915Y-89089592D01*
X74436121Y-89094073D01*
X74230072Y-89220340D01*
X74224810Y-89228401D01*
X74230817Y-89238607D01*
X75171188Y-90178978D01*
X75185132Y-90186592D01*
X75186965Y-90186461D01*
X75193580Y-90182210D01*
X76135724Y-89240066D01*
X76143116Y-89226529D01*
X76139430Y-89221260D01*
X75931879Y-89094073D01*
X75923085Y-89089592D01*
X75795896Y-89036909D01*
X75740615Y-88992361D01*
X75718194Y-88924997D01*
X75735752Y-88856206D01*
X75787714Y-88807828D01*
X75844114Y-88794500D01*
X78182941Y-88794500D01*
X78251062Y-88814502D01*
X78297555Y-88868158D01*
X78301774Y-88880900D01*
X78302474Y-88880666D01*
X78358450Y-89048446D01*
X78451522Y-89198848D01*
X78576697Y-89323805D01*
X78582927Y-89327645D01*
X78582928Y-89327646D01*
X78720090Y-89412194D01*
X78727262Y-89416615D01*
X78807005Y-89443064D01*
X78888611Y-89470132D01*
X78888613Y-89470132D01*
X78895139Y-89472297D01*
X78901975Y-89472997D01*
X78901978Y-89472998D01*
X78945031Y-89477409D01*
X78999600Y-89483000D01*
X79750400Y-89483000D01*
X79753646Y-89482663D01*
X79753650Y-89482663D01*
X79849308Y-89472738D01*
X79849312Y-89472737D01*
X79856166Y-89472026D01*
X79862702Y-89469845D01*
X79862704Y-89469845D01*
X79994806Y-89425772D01*
X80023946Y-89416050D01*
X80174348Y-89322978D01*
X80299305Y-89197803D01*
X80303146Y-89191572D01*
X80388275Y-89053468D01*
X80388276Y-89053466D01*
X80392115Y-89047238D01*
X80432660Y-88924997D01*
X80445632Y-88885889D01*
X80445632Y-88885887D01*
X80447797Y-88879361D01*
X80450170Y-88856206D01*
X80455126Y-88807828D01*
X80458500Y-88774900D01*
X81241500Y-88774900D01*
X81241837Y-88778146D01*
X81241837Y-88778150D01*
X81251304Y-88869386D01*
X81252474Y-88880666D01*
X81254655Y-88887202D01*
X81254655Y-88887204D01*
X81290624Y-88995016D01*
X81308450Y-89048446D01*
X81401522Y-89198848D01*
X81526697Y-89323805D01*
X81532927Y-89327645D01*
X81532928Y-89327646D01*
X81670090Y-89412194D01*
X81677262Y-89416615D01*
X81757005Y-89443064D01*
X81838611Y-89470132D01*
X81838613Y-89470132D01*
X81845139Y-89472297D01*
X81851975Y-89472997D01*
X81851978Y-89472998D01*
X81895031Y-89477409D01*
X81949600Y-89483000D01*
X82700400Y-89483000D01*
X82703646Y-89482663D01*
X82703650Y-89482663D01*
X82799308Y-89472738D01*
X82799312Y-89472737D01*
X82806166Y-89472026D01*
X82812702Y-89469845D01*
X82812704Y-89469845D01*
X82944806Y-89425772D01*
X82973946Y-89416050D01*
X83124348Y-89322978D01*
X83249305Y-89197803D01*
X83253146Y-89191572D01*
X83338275Y-89053468D01*
X83338276Y-89053466D01*
X83342115Y-89047238D01*
X83376247Y-88944333D01*
X83416678Y-88885973D01*
X83482242Y-88858736D01*
X83495840Y-88858000D01*
X84533000Y-88858000D01*
X84601121Y-88878002D01*
X84647614Y-88931658D01*
X84659000Y-88984000D01*
X84659000Y-89451400D01*
X84659337Y-89454646D01*
X84659337Y-89454650D01*
X84667260Y-89531004D01*
X84669974Y-89557166D01*
X84672155Y-89563702D01*
X84672155Y-89563704D01*
X84694066Y-89629378D01*
X84725950Y-89724946D01*
X84819022Y-89875348D01*
X84944197Y-90000305D01*
X84950427Y-90004145D01*
X84950428Y-90004146D01*
X85087590Y-90088694D01*
X85094762Y-90093115D01*
X85174505Y-90119564D01*
X85256111Y-90146632D01*
X85256113Y-90146632D01*
X85262639Y-90148797D01*
X85269475Y-90149497D01*
X85269478Y-90149498D01*
X85312531Y-90153909D01*
X85367100Y-90159500D01*
X86717900Y-90159500D01*
X86721146Y-90159163D01*
X86721150Y-90159163D01*
X86816808Y-90149238D01*
X86816812Y-90149237D01*
X86823666Y-90148526D01*
X86830202Y-90146345D01*
X86830204Y-90146345D01*
X86962306Y-90102272D01*
X86991446Y-90092550D01*
X87141848Y-89999478D01*
X87266805Y-89874303D01*
X87289287Y-89837831D01*
X87355775Y-89729968D01*
X87355776Y-89729966D01*
X87359615Y-89723738D01*
X87392070Y-89625889D01*
X87413132Y-89562389D01*
X87413132Y-89562387D01*
X87415297Y-89555861D01*
X87418562Y-89524000D01*
X87421351Y-89496778D01*
X87426000Y-89451400D01*
X87426000Y-88725600D01*
X87421073Y-88678111D01*
X87415738Y-88626692D01*
X87415737Y-88626688D01*
X87415026Y-88619834D01*
X87410547Y-88606407D01*
X87361368Y-88459002D01*
X87359050Y-88452054D01*
X87265978Y-88301652D01*
X87140803Y-88176695D01*
X87051238Y-88121486D01*
X86996468Y-88087725D01*
X86996466Y-88087724D01*
X86990238Y-88083885D01*
X86962100Y-88074552D01*
X86903740Y-88034121D01*
X86876503Y-87968557D01*
X86889037Y-87898675D01*
X86912672Y-87865864D01*
X87061631Y-87716905D01*
X87123943Y-87682879D01*
X87150726Y-87680000D01*
X87736900Y-87680000D01*
X87740146Y-87679663D01*
X87740150Y-87679663D01*
X87835808Y-87669738D01*
X87835812Y-87669737D01*
X87842666Y-87669026D01*
X87849202Y-87666845D01*
X87849204Y-87666845D01*
X87981306Y-87622772D01*
X88010446Y-87613050D01*
X88160848Y-87519978D01*
X88285805Y-87394803D01*
X88289646Y-87388572D01*
X88374775Y-87250468D01*
X88374776Y-87250466D01*
X88378615Y-87244238D01*
X88422893Y-87110743D01*
X88432132Y-87082889D01*
X88432132Y-87082887D01*
X88434297Y-87076361D01*
X88435102Y-87068510D01*
X88443648Y-86985091D01*
X88445000Y-86971900D01*
X89228000Y-86971900D01*
X89228337Y-86975146D01*
X89228337Y-86975150D01*
X89237980Y-87068085D01*
X89238974Y-87077666D01*
X89241155Y-87084202D01*
X89241155Y-87084204D01*
X89282407Y-87207850D01*
X89294950Y-87245446D01*
X89388022Y-87395848D01*
X89513197Y-87520805D01*
X89519427Y-87524645D01*
X89519428Y-87524646D01*
X89656590Y-87609194D01*
X89663762Y-87613615D01*
X89743505Y-87640064D01*
X89825111Y-87667132D01*
X89825113Y-87667132D01*
X89831639Y-87669297D01*
X89838475Y-87669997D01*
X89838478Y-87669998D01*
X89881531Y-87674409D01*
X89936100Y-87680000D01*
X90149500Y-87680000D01*
X90217621Y-87700002D01*
X90264114Y-87753658D01*
X90275500Y-87806000D01*
X90275500Y-88001962D01*
X90255498Y-88070083D01*
X90201842Y-88116576D01*
X90189376Y-88121486D01*
X90110054Y-88147950D01*
X89959652Y-88241022D01*
X89834695Y-88366197D01*
X89830855Y-88372427D01*
X89830854Y-88372428D01*
X89746580Y-88509146D01*
X89741885Y-88516762D01*
X89739581Y-88523709D01*
X89688955Y-88676343D01*
X89686203Y-88684639D01*
X89685503Y-88691475D01*
X89685502Y-88691478D01*
X89681091Y-88734531D01*
X89675500Y-88789100D01*
X89675500Y-89514900D01*
X89675837Y-89518146D01*
X89675837Y-89518150D01*
X89685675Y-89612964D01*
X89686474Y-89620666D01*
X89688655Y-89627202D01*
X89688655Y-89627204D01*
X89716712Y-89711301D01*
X89742450Y-89788446D01*
X89835522Y-89938848D01*
X89840704Y-89944021D01*
X89848683Y-89951986D01*
X89960697Y-90063805D01*
X89966927Y-90067645D01*
X89966928Y-90067646D01*
X90104090Y-90152194D01*
X90111262Y-90156615D01*
X90178685Y-90178978D01*
X90272611Y-90210132D01*
X90272613Y-90210132D01*
X90279139Y-90212297D01*
X90285975Y-90212997D01*
X90285978Y-90212998D01*
X90329031Y-90217409D01*
X90383600Y-90223000D01*
X91734400Y-90223000D01*
X91737646Y-90222663D01*
X91737650Y-90222663D01*
X91833308Y-90212738D01*
X91833312Y-90212737D01*
X91840166Y-90212026D01*
X91846702Y-90209845D01*
X91846704Y-90209845D01*
X91998615Y-90159163D01*
X92007946Y-90156050D01*
X92158348Y-90062978D01*
X92283305Y-89937803D01*
X92291705Y-89924176D01*
X92372275Y-89793468D01*
X92372276Y-89793466D01*
X92376115Y-89787238D01*
X92412145Y-89678610D01*
X92429632Y-89625889D01*
X92429632Y-89625887D01*
X92431797Y-89619361D01*
X92434005Y-89597817D01*
X92441531Y-89524358D01*
X92442500Y-89514900D01*
X92442500Y-88984000D01*
X92462502Y-88915879D01*
X92516158Y-88869386D01*
X92568500Y-88858000D01*
X95017121Y-88858000D01*
X95085242Y-88878002D01*
X95131735Y-88931658D01*
X95136644Y-88944123D01*
X95167601Y-89036909D01*
X95171450Y-89048446D01*
X95264522Y-89198848D01*
X95389697Y-89323805D01*
X95395927Y-89327645D01*
X95395928Y-89327646D01*
X95533090Y-89412194D01*
X95540262Y-89416615D01*
X95620005Y-89443064D01*
X95701611Y-89470132D01*
X95701613Y-89470132D01*
X95708139Y-89472297D01*
X95714975Y-89472997D01*
X95714978Y-89472998D01*
X95758031Y-89477409D01*
X95812600Y-89483000D01*
X96563400Y-89483000D01*
X96566646Y-89482663D01*
X96566650Y-89482663D01*
X96662308Y-89472738D01*
X96662312Y-89472737D01*
X96669166Y-89472026D01*
X96675702Y-89469845D01*
X96675704Y-89469845D01*
X96807806Y-89425772D01*
X96836946Y-89416050D01*
X96987348Y-89322978D01*
X97112305Y-89197803D01*
X97116146Y-89191572D01*
X97201275Y-89053468D01*
X97201276Y-89053466D01*
X97205115Y-89047238D01*
X97245660Y-88924997D01*
X97258632Y-88885889D01*
X97258632Y-88885887D01*
X97260797Y-88879361D01*
X97263170Y-88856206D01*
X97268126Y-88807828D01*
X97271500Y-88774900D01*
X98054500Y-88774900D01*
X98054837Y-88778146D01*
X98054837Y-88778150D01*
X98064304Y-88869386D01*
X98065474Y-88880666D01*
X98067655Y-88887202D01*
X98067655Y-88887204D01*
X98103624Y-88995016D01*
X98121450Y-89048446D01*
X98214522Y-89198848D01*
X98339697Y-89323805D01*
X98345927Y-89327645D01*
X98345928Y-89327646D01*
X98483090Y-89412194D01*
X98490262Y-89416615D01*
X98570005Y-89443064D01*
X98651611Y-89470132D01*
X98651613Y-89470132D01*
X98658139Y-89472297D01*
X98664975Y-89472997D01*
X98664978Y-89472998D01*
X98708031Y-89477409D01*
X98762600Y-89483000D01*
X99513400Y-89483000D01*
X99516646Y-89482663D01*
X99516650Y-89482663D01*
X99612308Y-89472738D01*
X99612312Y-89472737D01*
X99619166Y-89472026D01*
X99625702Y-89469845D01*
X99625704Y-89469845D01*
X99757806Y-89425772D01*
X99786946Y-89416050D01*
X99937348Y-89322978D01*
X100062305Y-89197803D01*
X100066146Y-89191572D01*
X100151275Y-89053468D01*
X100151276Y-89053466D01*
X100155115Y-89047238D01*
X100189247Y-88944333D01*
X100229678Y-88885973D01*
X100295242Y-88858736D01*
X100308840Y-88858000D01*
X100701962Y-88858000D01*
X100770083Y-88878002D01*
X100816576Y-88931658D01*
X100821486Y-88944123D01*
X100847950Y-89023446D01*
X100941022Y-89173848D01*
X101066197Y-89298805D01*
X101072427Y-89302645D01*
X101072428Y-89302646D01*
X101209590Y-89387194D01*
X101216762Y-89391615D01*
X101267717Y-89408516D01*
X101378111Y-89445132D01*
X101378113Y-89445132D01*
X101384639Y-89447297D01*
X101391475Y-89447997D01*
X101391478Y-89447998D01*
X101424684Y-89451400D01*
X101489100Y-89458000D01*
X102214900Y-89458000D01*
X102218146Y-89457663D01*
X102218150Y-89457663D01*
X102313808Y-89447738D01*
X102313812Y-89447737D01*
X102320666Y-89447026D01*
X102327202Y-89444845D01*
X102327204Y-89444845D01*
X102459306Y-89400772D01*
X102488446Y-89391050D01*
X102638848Y-89297978D01*
X102763805Y-89172803D01*
X102815097Y-89089592D01*
X102852775Y-89028468D01*
X102852776Y-89028466D01*
X102856615Y-89022238D01*
X102901840Y-88885889D01*
X102910132Y-88860889D01*
X102910132Y-88860887D01*
X102912297Y-88854361D01*
X102923000Y-88749900D01*
X102923000Y-87399100D01*
X102922663Y-87395848D01*
X102912738Y-87300192D01*
X102912737Y-87300188D01*
X102912026Y-87293334D01*
X102906403Y-87276478D01*
X102858368Y-87132502D01*
X102856050Y-87125554D01*
X102762978Y-86975152D01*
X102637803Y-86850195D01*
X102605635Y-86830366D01*
X102493468Y-86761225D01*
X102493466Y-86761224D01*
X102487238Y-86757385D01*
X102361920Y-86715819D01*
X102325889Y-86703868D01*
X102325887Y-86703868D01*
X102319361Y-86701703D01*
X102312525Y-86701003D01*
X102312522Y-86701002D01*
X102269469Y-86696591D01*
X102214900Y-86691000D01*
X101489100Y-86691000D01*
X101485854Y-86691337D01*
X101485850Y-86691337D01*
X101390192Y-86701262D01*
X101390188Y-86701263D01*
X101383334Y-86701974D01*
X101376798Y-86704155D01*
X101376796Y-86704155D01*
X101278930Y-86736806D01*
X101215554Y-86757950D01*
X101065152Y-86851022D01*
X100940195Y-86976197D01*
X100936355Y-86982427D01*
X100936354Y-86982428D01*
X100866636Y-87095532D01*
X100847385Y-87126762D01*
X100838403Y-87153842D01*
X100821545Y-87204667D01*
X100781114Y-87263027D01*
X100715550Y-87290264D01*
X100701952Y-87291000D01*
X100308879Y-87291000D01*
X100240758Y-87270998D01*
X100194265Y-87217342D01*
X100189356Y-87204877D01*
X100156870Y-87107507D01*
X100156868Y-87107502D01*
X100154550Y-87100554D01*
X100061478Y-86950152D01*
X99936303Y-86825195D01*
X99903564Y-86805014D01*
X99791968Y-86736225D01*
X99791966Y-86736224D01*
X99785738Y-86732385D01*
X99691121Y-86701002D01*
X99624389Y-86678868D01*
X99624387Y-86678868D01*
X99617861Y-86676703D01*
X99611025Y-86676003D01*
X99611022Y-86676002D01*
X99567969Y-86671591D01*
X99513400Y-86666000D01*
X98762600Y-86666000D01*
X98759354Y-86666337D01*
X98759350Y-86666337D01*
X98663692Y-86676262D01*
X98663688Y-86676263D01*
X98656834Y-86676974D01*
X98650298Y-86679155D01*
X98650296Y-86679155D01*
X98540402Y-86715819D01*
X98489054Y-86732950D01*
X98338652Y-86826022D01*
X98213695Y-86951197D01*
X98209855Y-86957427D01*
X98209854Y-86957428D01*
X98126104Y-87093296D01*
X98120885Y-87101762D01*
X98109663Y-87135596D01*
X98067441Y-87262893D01*
X98065203Y-87269639D01*
X98064503Y-87276475D01*
X98064502Y-87276478D01*
X98061941Y-87301478D01*
X98054500Y-87374100D01*
X98054500Y-88774900D01*
X97271500Y-88774900D01*
X97271500Y-87374100D01*
X97271163Y-87370850D01*
X97261238Y-87275192D01*
X97261237Y-87275188D01*
X97260526Y-87268334D01*
X97254969Y-87251676D01*
X97206868Y-87107502D01*
X97204550Y-87100554D01*
X97111478Y-86950152D01*
X96986303Y-86825195D01*
X96953564Y-86805014D01*
X96841968Y-86736225D01*
X96841966Y-86736224D01*
X96835738Y-86732385D01*
X96741121Y-86701002D01*
X96674389Y-86678868D01*
X96674387Y-86678868D01*
X96667861Y-86676703D01*
X96661025Y-86676003D01*
X96661022Y-86676002D01*
X96617969Y-86671591D01*
X96563400Y-86666000D01*
X95812600Y-86666000D01*
X95809354Y-86666337D01*
X95809350Y-86666337D01*
X95713692Y-86676262D01*
X95713688Y-86676263D01*
X95706834Y-86676974D01*
X95700298Y-86679155D01*
X95700296Y-86679155D01*
X95590402Y-86715819D01*
X95539054Y-86732950D01*
X95388652Y-86826022D01*
X95263695Y-86951197D01*
X95259855Y-86957427D01*
X95259854Y-86957428D01*
X95176104Y-87093296D01*
X95170885Y-87101762D01*
X95159663Y-87135596D01*
X95136753Y-87204667D01*
X95096322Y-87263027D01*
X95030758Y-87290264D01*
X95017160Y-87291000D01*
X92145453Y-87291000D01*
X92144133Y-87290993D01*
X92056822Y-87290078D01*
X92049937Y-87291567D01*
X92049934Y-87291567D01*
X92015955Y-87298914D01*
X92003371Y-87300975D01*
X91982544Y-87303311D01*
X91912619Y-87291026D01*
X91860435Y-87242887D01*
X91842500Y-87178096D01*
X91842500Y-87065453D01*
X91842507Y-87064133D01*
X91843348Y-86983868D01*
X91843422Y-86976822D01*
X91841663Y-86968683D01*
X91834586Y-86935955D01*
X91832525Y-86923372D01*
X91828649Y-86888820D01*
X91827864Y-86881818D01*
X91825546Y-86875163D01*
X91825545Y-86875157D01*
X91817256Y-86851354D01*
X91813093Y-86836545D01*
X91807764Y-86811899D01*
X91807763Y-86811895D01*
X91806275Y-86805014D01*
X91788598Y-86767105D01*
X91783816Y-86755329D01*
X91770057Y-86715819D01*
X91752962Y-86688461D01*
X91745623Y-86674944D01*
X91734964Y-86652085D01*
X91734962Y-86652082D01*
X91731989Y-86645706D01*
X91706360Y-86612665D01*
X91699071Y-86602217D01*
X91676909Y-86566751D01*
X91649181Y-86538828D01*
X91648627Y-86538236D01*
X91648123Y-86537587D01*
X91622971Y-86512435D01*
X91553051Y-86442025D01*
X91552041Y-86441384D01*
X91550862Y-86440326D01*
X91406905Y-86296369D01*
X91372879Y-86234057D01*
X91370000Y-86207274D01*
X91370000Y-85621100D01*
X91363572Y-85559146D01*
X91359738Y-85522192D01*
X91359737Y-85522188D01*
X91359026Y-85515334D01*
X91348510Y-85483812D01*
X91305368Y-85354502D01*
X91303050Y-85347554D01*
X91209978Y-85197152D01*
X91084803Y-85072195D01*
X91078572Y-85068354D01*
X90940468Y-84983225D01*
X90940466Y-84983224D01*
X90934238Y-84979385D01*
X90820467Y-84941649D01*
X90772889Y-84925868D01*
X90772887Y-84925868D01*
X90766361Y-84923703D01*
X90759525Y-84923003D01*
X90759522Y-84923002D01*
X90716469Y-84918591D01*
X90661900Y-84913000D01*
X89936100Y-84913000D01*
X89932854Y-84913337D01*
X89932850Y-84913337D01*
X89837192Y-84923262D01*
X89837188Y-84923263D01*
X89830334Y-84923974D01*
X89823798Y-84926155D01*
X89823796Y-84926155D01*
X89731991Y-84956784D01*
X89662554Y-84979950D01*
X89512152Y-85073022D01*
X89387195Y-85198197D01*
X89383355Y-85204427D01*
X89383354Y-85204428D01*
X89311113Y-85321625D01*
X89294385Y-85348762D01*
X89238703Y-85516639D01*
X89238003Y-85523475D01*
X89238002Y-85523478D01*
X89236595Y-85537212D01*
X89228000Y-85621100D01*
X89228000Y-86971900D01*
X88445000Y-86971900D01*
X88445000Y-85621100D01*
X88438572Y-85559146D01*
X88434738Y-85522192D01*
X88434737Y-85522188D01*
X88434026Y-85515334D01*
X88423510Y-85483812D01*
X88380368Y-85354502D01*
X88378050Y-85347554D01*
X88284978Y-85197152D01*
X88159803Y-85072195D01*
X88153572Y-85068354D01*
X88015468Y-84983225D01*
X88015466Y-84983224D01*
X88009238Y-84979385D01*
X87895467Y-84941649D01*
X87847889Y-84925868D01*
X87847887Y-84925868D01*
X87841361Y-84923703D01*
X87834525Y-84923003D01*
X87834522Y-84923002D01*
X87791469Y-84918591D01*
X87736900Y-84913000D01*
X87011100Y-84913000D01*
X87007854Y-84913337D01*
X87007850Y-84913337D01*
X86912192Y-84923262D01*
X86912188Y-84923263D01*
X86905334Y-84923974D01*
X86898798Y-84926155D01*
X86898796Y-84926155D01*
X86806991Y-84956784D01*
X86737554Y-84979950D01*
X86587152Y-85073022D01*
X86462195Y-85198197D01*
X86458355Y-85204427D01*
X86458354Y-85204428D01*
X86386113Y-85321625D01*
X86369385Y-85348762D01*
X86313703Y-85516639D01*
X86313003Y-85523475D01*
X86313002Y-85523478D01*
X86311595Y-85537212D01*
X86303000Y-85621100D01*
X86303000Y-86207274D01*
X86282998Y-86275395D01*
X86266095Y-86296369D01*
X85494883Y-87067581D01*
X85493945Y-87068510D01*
X85431489Y-87129671D01*
X85427672Y-87135593D01*
X85427670Y-87135596D01*
X85408835Y-87164822D01*
X85401407Y-87175161D01*
X85375312Y-87207850D01*
X85372246Y-87214192D01*
X85372243Y-87214197D01*
X85361273Y-87236890D01*
X85353748Y-87250300D01*
X85350691Y-87255044D01*
X85296979Y-87301471D01*
X85226693Y-87311488D01*
X85218984Y-87310000D01*
X85213900Y-87308150D01*
X85172422Y-87302910D01*
X85159869Y-87300675D01*
X85133724Y-87294639D01*
X85119123Y-87291268D01*
X85112083Y-87291243D01*
X85112080Y-87291243D01*
X85079796Y-87291130D01*
X85078959Y-87291102D01*
X85078146Y-87291000D01*
X85042554Y-87291000D01*
X85042114Y-87290999D01*
X85036359Y-87290979D01*
X84943347Y-87290654D01*
X84942179Y-87290915D01*
X84940611Y-87291000D01*
X83495879Y-87291000D01*
X83427758Y-87270998D01*
X83381265Y-87217342D01*
X83376356Y-87204877D01*
X83343870Y-87107507D01*
X83343868Y-87107502D01*
X83341550Y-87100554D01*
X83248478Y-86950152D01*
X83123303Y-86825195D01*
X83090564Y-86805014D01*
X82978968Y-86736225D01*
X82978966Y-86736224D01*
X82972738Y-86732385D01*
X82878121Y-86701002D01*
X82811389Y-86678868D01*
X82811387Y-86678868D01*
X82804861Y-86676703D01*
X82798025Y-86676003D01*
X82798022Y-86676002D01*
X82754969Y-86671591D01*
X82700400Y-86666000D01*
X81949600Y-86666000D01*
X81946354Y-86666337D01*
X81946350Y-86666337D01*
X81850692Y-86676262D01*
X81850688Y-86676263D01*
X81843834Y-86676974D01*
X81837298Y-86679155D01*
X81837296Y-86679155D01*
X81727402Y-86715819D01*
X81676054Y-86732950D01*
X81525652Y-86826022D01*
X81400695Y-86951197D01*
X81396855Y-86957427D01*
X81396854Y-86957428D01*
X81313104Y-87093296D01*
X81307885Y-87101762D01*
X81296663Y-87135596D01*
X81254441Y-87262893D01*
X81252203Y-87269639D01*
X81251503Y-87276475D01*
X81251502Y-87276478D01*
X81248941Y-87301478D01*
X81241500Y-87374100D01*
X81241500Y-88774900D01*
X80458500Y-88774900D01*
X80458500Y-87374100D01*
X80458163Y-87370850D01*
X80448238Y-87275192D01*
X80448237Y-87275188D01*
X80447526Y-87268334D01*
X80441969Y-87251676D01*
X80393868Y-87107502D01*
X80391550Y-87100554D01*
X80298478Y-86950152D01*
X80173303Y-86825195D01*
X80140564Y-86805014D01*
X80028968Y-86736225D01*
X80028966Y-86736224D01*
X80022738Y-86732385D01*
X79928121Y-86701002D01*
X79861389Y-86678868D01*
X79861387Y-86678868D01*
X79854861Y-86676703D01*
X79848025Y-86676003D01*
X79848022Y-86676002D01*
X79804969Y-86671591D01*
X79750400Y-86666000D01*
X78999600Y-86666000D01*
X78996354Y-86666337D01*
X78996350Y-86666337D01*
X78900692Y-86676262D01*
X78900688Y-86676263D01*
X78893834Y-86676974D01*
X78887298Y-86679155D01*
X78887296Y-86679155D01*
X78777402Y-86715819D01*
X78726054Y-86732950D01*
X78575652Y-86826022D01*
X78450695Y-86951197D01*
X78446855Y-86957427D01*
X78446854Y-86957428D01*
X78363104Y-87093296D01*
X78357885Y-87101762D01*
X78354906Y-87110743D01*
X78344815Y-87141167D01*
X78304384Y-87199527D01*
X78238820Y-87226764D01*
X78225222Y-87227500D01*
X75844114Y-87227500D01*
X75775993Y-87207498D01*
X75729500Y-87153842D01*
X75719396Y-87083568D01*
X75748890Y-87018988D01*
X75795896Y-86985091D01*
X75923085Y-86932408D01*
X75931879Y-86927927D01*
X76137928Y-86801660D01*
X76143190Y-86793599D01*
X76137183Y-86783393D01*
X75196812Y-85843022D01*
X75182868Y-85835408D01*
X75181035Y-85835539D01*
X75174420Y-85839790D01*
X74232276Y-86781934D01*
X74224884Y-86795471D01*
X74228570Y-86800740D01*
X74436121Y-86927927D01*
X74444915Y-86932408D01*
X74572104Y-86985091D01*
X74627385Y-87029639D01*
X74649806Y-87097003D01*
X74632248Y-87165794D01*
X74580286Y-87214172D01*
X74523886Y-87227500D01*
X74150249Y-87227500D01*
X74082128Y-87207498D01*
X74042816Y-87167335D01*
X73998815Y-87095532D01*
X73969616Y-87047884D01*
X73802631Y-86852369D01*
X73607116Y-86685384D01*
X73387887Y-86551040D01*
X73383317Y-86549147D01*
X73383313Y-86549145D01*
X73154913Y-86454539D01*
X73154911Y-86454538D01*
X73150340Y-86452645D01*
X73041147Y-86426430D01*
X72905139Y-86393777D01*
X72905133Y-86393776D01*
X72900326Y-86392622D01*
X72644000Y-86372449D01*
X72387674Y-86392622D01*
X72382867Y-86393776D01*
X72382861Y-86393777D01*
X72246853Y-86426430D01*
X72137660Y-86452645D01*
X72133089Y-86454538D01*
X72133087Y-86454539D01*
X71904687Y-86549145D01*
X71904683Y-86549147D01*
X71900113Y-86551040D01*
X71680884Y-86685384D01*
X71485369Y-86852369D01*
X71318384Y-87047884D01*
X71184040Y-87267113D01*
X71182147Y-87271683D01*
X71182145Y-87271687D01*
X71128016Y-87402366D01*
X71085645Y-87504660D01*
X71081769Y-87520805D01*
X71034690Y-87716905D01*
X71025622Y-87754674D01*
X71005449Y-88011000D01*
X61913000Y-88011000D01*
X61913000Y-86795471D01*
X69144884Y-86795471D01*
X69148570Y-86800740D01*
X69356121Y-86927927D01*
X69364915Y-86932408D01*
X69593242Y-87026984D01*
X69602627Y-87030033D01*
X69842940Y-87087728D01*
X69852687Y-87089271D01*
X70099070Y-87108662D01*
X70108930Y-87108662D01*
X70355313Y-87089271D01*
X70365060Y-87087728D01*
X70605373Y-87030033D01*
X70614758Y-87026984D01*
X70843085Y-86932408D01*
X70851879Y-86927927D01*
X71057928Y-86801660D01*
X71063190Y-86793599D01*
X71057183Y-86783393D01*
X70116812Y-85843022D01*
X70102868Y-85835408D01*
X70101035Y-85835539D01*
X70094420Y-85839790D01*
X69152276Y-86781934D01*
X69144884Y-86795471D01*
X61913000Y-86795471D01*
X61913000Y-85475930D01*
X68466338Y-85475930D01*
X68485729Y-85722313D01*
X68487272Y-85732060D01*
X68544967Y-85972373D01*
X68548016Y-85981758D01*
X68642592Y-86210085D01*
X68647073Y-86218879D01*
X68773340Y-86424928D01*
X68781401Y-86430190D01*
X68791607Y-86424183D01*
X69731978Y-85483812D01*
X69738356Y-85472132D01*
X70468408Y-85472132D01*
X70468539Y-85473965D01*
X70472790Y-85480580D01*
X71414934Y-86422724D01*
X71428471Y-86430116D01*
X71433740Y-86426430D01*
X71560927Y-86218879D01*
X71565408Y-86210085D01*
X71659984Y-85981758D01*
X71663033Y-85972373D01*
X71720728Y-85732060D01*
X71722271Y-85722313D01*
X71741662Y-85475930D01*
X73546338Y-85475930D01*
X73565729Y-85722313D01*
X73567272Y-85732060D01*
X73624967Y-85972373D01*
X73628016Y-85981758D01*
X73722592Y-86210085D01*
X73727073Y-86218879D01*
X73853340Y-86424928D01*
X73861401Y-86430190D01*
X73871607Y-86424183D01*
X74811978Y-85483812D01*
X74818356Y-85472132D01*
X75548408Y-85472132D01*
X75548539Y-85473965D01*
X75552790Y-85480580D01*
X76494934Y-86422724D01*
X76508471Y-86430116D01*
X76513740Y-86426430D01*
X76640927Y-86218879D01*
X76645408Y-86210085D01*
X76739984Y-85981758D01*
X76743033Y-85972373D01*
X76800728Y-85732060D01*
X76802271Y-85722313D01*
X76821662Y-85475930D01*
X76821662Y-85466070D01*
X76802271Y-85219687D01*
X76800728Y-85209940D01*
X76743033Y-84969627D01*
X76739984Y-84960242D01*
X76645408Y-84731915D01*
X76640927Y-84723121D01*
X76514660Y-84517072D01*
X76506599Y-84511810D01*
X76496393Y-84517817D01*
X75556022Y-85458188D01*
X75548408Y-85472132D01*
X74818356Y-85472132D01*
X74819592Y-85469868D01*
X74819461Y-85468035D01*
X74815210Y-85461420D01*
X73873066Y-84519276D01*
X73859529Y-84511884D01*
X73854260Y-84515570D01*
X73727073Y-84723121D01*
X73722592Y-84731915D01*
X73628016Y-84960242D01*
X73624967Y-84969627D01*
X73567272Y-85209940D01*
X73565729Y-85219687D01*
X73546338Y-85466070D01*
X73546338Y-85475930D01*
X71741662Y-85475930D01*
X71741662Y-85466070D01*
X71722271Y-85219687D01*
X71720728Y-85209940D01*
X71663033Y-84969627D01*
X71659984Y-84960242D01*
X71565408Y-84731915D01*
X71560927Y-84723121D01*
X71434660Y-84517072D01*
X71426599Y-84511810D01*
X71416393Y-84517817D01*
X70476022Y-85458188D01*
X70468408Y-85472132D01*
X69738356Y-85472132D01*
X69739592Y-85469868D01*
X69739461Y-85468035D01*
X69735210Y-85461420D01*
X68793066Y-84519276D01*
X68779529Y-84511884D01*
X68774260Y-84515570D01*
X68647073Y-84723121D01*
X68642592Y-84731915D01*
X68548016Y-84960242D01*
X68544967Y-84969627D01*
X68487272Y-85209940D01*
X68485729Y-85219687D01*
X68466338Y-85466070D01*
X68466338Y-85475930D01*
X61913000Y-85475930D01*
X61913000Y-84148401D01*
X69144810Y-84148401D01*
X69150817Y-84158607D01*
X70091188Y-85098978D01*
X70105132Y-85106592D01*
X70106965Y-85106461D01*
X70113580Y-85102210D01*
X71055724Y-84160066D01*
X71062094Y-84148401D01*
X74224810Y-84148401D01*
X74230817Y-84158607D01*
X75171188Y-85098978D01*
X75185132Y-85106592D01*
X75186965Y-85106461D01*
X75193580Y-85102210D01*
X76135724Y-84160066D01*
X76143116Y-84146529D01*
X76139430Y-84141260D01*
X75935179Y-84016095D01*
X93207001Y-84016095D01*
X93207338Y-84022614D01*
X93217257Y-84118206D01*
X93220149Y-84131600D01*
X93271588Y-84285784D01*
X93277761Y-84298962D01*
X93363063Y-84436807D01*
X93372099Y-84448208D01*
X93486829Y-84562739D01*
X93498240Y-84571751D01*
X93636243Y-84656816D01*
X93649424Y-84662963D01*
X93803710Y-84714138D01*
X93817086Y-84717005D01*
X93911438Y-84726672D01*
X93917854Y-84727000D01*
X94342885Y-84727000D01*
X94358124Y-84722525D01*
X94359329Y-84721135D01*
X94361000Y-84713452D01*
X94361000Y-84708884D01*
X94869000Y-84708884D01*
X94873475Y-84724123D01*
X94874865Y-84725328D01*
X94882548Y-84726999D01*
X95312095Y-84726999D01*
X95318614Y-84726662D01*
X95414206Y-84716743D01*
X95427600Y-84713851D01*
X95581784Y-84662412D01*
X95594962Y-84656239D01*
X95732807Y-84570937D01*
X95744208Y-84561901D01*
X95858739Y-84447171D01*
X95867751Y-84435760D01*
X95952816Y-84297757D01*
X95958963Y-84284576D01*
X96010138Y-84130290D01*
X96013005Y-84116914D01*
X96022672Y-84022562D01*
X96023000Y-84016146D01*
X96023000Y-83916115D01*
X96018525Y-83900876D01*
X96017135Y-83899671D01*
X96009452Y-83898000D01*
X94887115Y-83898000D01*
X94871876Y-83902475D01*
X94870671Y-83903865D01*
X94869000Y-83911548D01*
X94869000Y-84708884D01*
X94361000Y-84708884D01*
X94361000Y-83916115D01*
X94356525Y-83900876D01*
X94355135Y-83899671D01*
X94347452Y-83898000D01*
X93225116Y-83898000D01*
X93209877Y-83902475D01*
X93208672Y-83903865D01*
X93207001Y-83911548D01*
X93207001Y-84016095D01*
X75935179Y-84016095D01*
X75931879Y-84014073D01*
X75923085Y-84009592D01*
X75694758Y-83915016D01*
X75685373Y-83911967D01*
X75445060Y-83854272D01*
X75435313Y-83852729D01*
X75188930Y-83833338D01*
X75179070Y-83833338D01*
X74932687Y-83852729D01*
X74922940Y-83854272D01*
X74682627Y-83911967D01*
X74673242Y-83915016D01*
X74444915Y-84009592D01*
X74436121Y-84014073D01*
X74230072Y-84140340D01*
X74224810Y-84148401D01*
X71062094Y-84148401D01*
X71063116Y-84146529D01*
X71059430Y-84141260D01*
X70851879Y-84014073D01*
X70843085Y-84009592D01*
X70614758Y-83915016D01*
X70605373Y-83911967D01*
X70365060Y-83854272D01*
X70355313Y-83852729D01*
X70108930Y-83833338D01*
X70099070Y-83833338D01*
X69852687Y-83852729D01*
X69842940Y-83854272D01*
X69602627Y-83911967D01*
X69593242Y-83915016D01*
X69364915Y-84009592D01*
X69356121Y-84014073D01*
X69150072Y-84140340D01*
X69144810Y-84148401D01*
X61913000Y-84148401D01*
X61913000Y-83825595D01*
X98033001Y-83825595D01*
X98033338Y-83832114D01*
X98043257Y-83927706D01*
X98046149Y-83941100D01*
X98097588Y-84095284D01*
X98103761Y-84108462D01*
X98189063Y-84246307D01*
X98198099Y-84257708D01*
X98312829Y-84372239D01*
X98324240Y-84381251D01*
X98462243Y-84466316D01*
X98475424Y-84472463D01*
X98629710Y-84523638D01*
X98643086Y-84526505D01*
X98737438Y-84536172D01*
X98743854Y-84536500D01*
X99168885Y-84536500D01*
X99184124Y-84532025D01*
X99185329Y-84530635D01*
X99187000Y-84522952D01*
X99187000Y-84518384D01*
X99695000Y-84518384D01*
X99699475Y-84533623D01*
X99700865Y-84534828D01*
X99708548Y-84536499D01*
X100138095Y-84536499D01*
X100144614Y-84536162D01*
X100240206Y-84526243D01*
X100253600Y-84523351D01*
X100407784Y-84471912D01*
X100420962Y-84465739D01*
X100558807Y-84380437D01*
X100570208Y-84371401D01*
X100684739Y-84256671D01*
X100693751Y-84245260D01*
X100778816Y-84107257D01*
X100784963Y-84094076D01*
X100836138Y-83939790D01*
X100839005Y-83926414D01*
X100845051Y-83867400D01*
X103201000Y-83867400D01*
X103201337Y-83870646D01*
X103201337Y-83870650D01*
X103211021Y-83963978D01*
X103211974Y-83973166D01*
X103267950Y-84140946D01*
X103361022Y-84291348D01*
X103486197Y-84416305D01*
X103492427Y-84420145D01*
X103492428Y-84420146D01*
X103629590Y-84504694D01*
X103636762Y-84509115D01*
X103680548Y-84523638D01*
X103714667Y-84534955D01*
X103773027Y-84575386D01*
X103800264Y-84640950D01*
X103801000Y-84654548D01*
X103801000Y-87044626D01*
X103782259Y-87110743D01*
X103776970Y-87119324D01*
X103772385Y-87126762D01*
X103769455Y-87135596D01*
X103727233Y-87262893D01*
X103716703Y-87294639D01*
X103716003Y-87301475D01*
X103716002Y-87301478D01*
X103713918Y-87321819D01*
X103706000Y-87399100D01*
X103706000Y-88749900D01*
X103706337Y-88753146D01*
X103706337Y-88753150D01*
X103714757Y-88834295D01*
X103716974Y-88855666D01*
X103719155Y-88862202D01*
X103719155Y-88862204D01*
X103740105Y-88924997D01*
X103772950Y-89023446D01*
X103866022Y-89173848D01*
X103991197Y-89298805D01*
X103997427Y-89302645D01*
X103997428Y-89302646D01*
X104134590Y-89387194D01*
X104141762Y-89391615D01*
X104192717Y-89408516D01*
X104303111Y-89445132D01*
X104303113Y-89445132D01*
X104309639Y-89447297D01*
X104316475Y-89447997D01*
X104316478Y-89447998D01*
X104349684Y-89451400D01*
X104414100Y-89458000D01*
X104426774Y-89458000D01*
X104494895Y-89478002D01*
X104515869Y-89494905D01*
X107389581Y-92368617D01*
X107390510Y-92369555D01*
X107451671Y-92432011D01*
X107457593Y-92435828D01*
X107457596Y-92435830D01*
X107486822Y-92454665D01*
X107497161Y-92462093D01*
X107529850Y-92488188D01*
X107536192Y-92491254D01*
X107536197Y-92491257D01*
X107558890Y-92502227D01*
X107572302Y-92509753D01*
X107593500Y-92523414D01*
X107593505Y-92523416D01*
X107599424Y-92527231D01*
X107638719Y-92541533D01*
X107650463Y-92546494D01*
X107681760Y-92561624D01*
X107681763Y-92561625D01*
X107688105Y-92564691D01*
X107694966Y-92566275D01*
X107694969Y-92566276D01*
X107719539Y-92571948D01*
X107734282Y-92576315D01*
X107764600Y-92587350D01*
X107803951Y-92592321D01*
X107806088Y-92592591D01*
X107818636Y-92594827D01*
X107859377Y-92604233D01*
X107866423Y-92604258D01*
X107866426Y-92604258D01*
X107898721Y-92604371D01*
X107899547Y-92604398D01*
X107900354Y-92604500D01*
X107935660Y-92604500D01*
X107936100Y-92604501D01*
X108031710Y-92604835D01*
X108035153Y-92604847D01*
X108036324Y-92604585D01*
X108037897Y-92604500D01*
X115687999Y-92604500D01*
X115689320Y-92604507D01*
X115776678Y-92605422D01*
X115783563Y-92603933D01*
X115783566Y-92603933D01*
X115817545Y-92596586D01*
X115830128Y-92594525D01*
X115840246Y-92593390D01*
X115871682Y-92589864D01*
X115878337Y-92587546D01*
X115878343Y-92587545D01*
X115902146Y-92579256D01*
X115916955Y-92575093D01*
X115941601Y-92569764D01*
X115941605Y-92569763D01*
X115948486Y-92568275D01*
X115986395Y-92550598D01*
X115998171Y-92545816D01*
X116037681Y-92532057D01*
X116065039Y-92514962D01*
X116078556Y-92507623D01*
X116101415Y-92496964D01*
X116101418Y-92496962D01*
X116107794Y-92493989D01*
X116116431Y-92487290D01*
X116140835Y-92468360D01*
X116151283Y-92461071D01*
X116186749Y-92438909D01*
X116214672Y-92411181D01*
X116215264Y-92410627D01*
X116215913Y-92410123D01*
X116241069Y-92384967D01*
X116311475Y-92315051D01*
X116312116Y-92314040D01*
X116313170Y-92312866D01*
X117070211Y-91555826D01*
X117071149Y-91554898D01*
X117074319Y-91551794D01*
X117133511Y-91493829D01*
X117137326Y-91487909D01*
X117137331Y-91487903D01*
X117156162Y-91458683D01*
X117163601Y-91448330D01*
X117185291Y-91421159D01*
X117185294Y-91421155D01*
X117189688Y-91415650D01*
X117203727Y-91386610D01*
X117211253Y-91373198D01*
X117224914Y-91352000D01*
X117224916Y-91351995D01*
X117228731Y-91346076D01*
X117231139Y-91339460D01*
X117231141Y-91339456D01*
X117243030Y-91306788D01*
X117247993Y-91295040D01*
X117263125Y-91263739D01*
X117263126Y-91263736D01*
X117266191Y-91257396D01*
X117273448Y-91225962D01*
X117277818Y-91211210D01*
X117286441Y-91187519D01*
X117286441Y-91187518D01*
X117288850Y-91180900D01*
X117294090Y-91139422D01*
X117296325Y-91126871D01*
X117304148Y-91092985D01*
X117304148Y-91092983D01*
X117305732Y-91086123D01*
X117305818Y-91061758D01*
X117305870Y-91046796D01*
X117305898Y-91045959D01*
X117306000Y-91045146D01*
X117306000Y-91009400D01*
X117306346Y-90910348D01*
X117306085Y-90909180D01*
X117306000Y-90907612D01*
X117306000Y-89797673D01*
X117326002Y-89729552D01*
X117361177Y-89693461D01*
X117362624Y-89692478D01*
X117470807Y-89618956D01*
X117647181Y-89452168D01*
X117651112Y-89447026D01*
X117791547Y-89263346D01*
X117791550Y-89263342D01*
X117794620Y-89259326D01*
X117805730Y-89238607D01*
X117906939Y-89049852D01*
X117909331Y-89045391D01*
X117988362Y-88815869D01*
X118011577Y-88681465D01*
X118029004Y-88580574D01*
X118029005Y-88580568D01*
X118029679Y-88576664D01*
X118029859Y-88572702D01*
X118030936Y-88548994D01*
X118030936Y-88548975D01*
X118031000Y-88547575D01*
X118031000Y-88349000D01*
X118051002Y-88280879D01*
X118104658Y-88234386D01*
X118157000Y-88223000D01*
X133648449Y-88223000D01*
X133716570Y-88243002D01*
X133755593Y-88282696D01*
X133816022Y-88380348D01*
X133941197Y-88505305D01*
X133947427Y-88509145D01*
X133947428Y-88509146D01*
X134084590Y-88593694D01*
X134091762Y-88598115D01*
X134116762Y-88606407D01*
X134175122Y-88646837D01*
X134202359Y-88712401D01*
X134189826Y-88782283D01*
X134141501Y-88834295D01*
X134077095Y-88852000D01*
X133939999Y-88852000D01*
X133937491Y-88852202D01*
X133937486Y-88852202D01*
X133764076Y-88866154D01*
X133764071Y-88866155D01*
X133759035Y-88866560D01*
X133754127Y-88867766D01*
X133754124Y-88867766D01*
X133638007Y-88896287D01*
X133523294Y-88924463D01*
X133518642Y-88926438D01*
X133518638Y-88926439D01*
X133411252Y-88972022D01*
X133299844Y-89019312D01*
X133258432Y-89045391D01*
X133098712Y-89145972D01*
X133098709Y-89145974D01*
X133094433Y-89148667D01*
X133090639Y-89152012D01*
X132916142Y-89305850D01*
X132916139Y-89305853D01*
X132912345Y-89309198D01*
X132909135Y-89313106D01*
X132909134Y-89313107D01*
X132769853Y-89482672D01*
X132758266Y-89496778D01*
X132742214Y-89524358D01*
X132648849Y-89684775D01*
X132636159Y-89706578D01*
X132634346Y-89711301D01*
X132552632Y-89924176D01*
X132549167Y-89933202D01*
X132548133Y-89938152D01*
X132548132Y-89938155D01*
X132502494Y-90156615D01*
X132499526Y-90170820D01*
X132488514Y-90413317D01*
X132489095Y-90418337D01*
X132489095Y-90418341D01*
X132504923Y-90555131D01*
X132516415Y-90654456D01*
X132517791Y-90659320D01*
X132517792Y-90659323D01*
X132558254Y-90802313D01*
X132582510Y-90888032D01*
X132584644Y-90892608D01*
X132584646Y-90892614D01*
X132682962Y-91103454D01*
X132685099Y-91108036D01*
X132821544Y-91308807D01*
X132988332Y-91485181D01*
X132992358Y-91488259D01*
X132992359Y-91488260D01*
X133177154Y-91629547D01*
X133177158Y-91629550D01*
X133181174Y-91632620D01*
X133395109Y-91747331D01*
X133624631Y-91826362D01*
X133723978Y-91843522D01*
X133859926Y-91867004D01*
X133859932Y-91867005D01*
X133863836Y-91867679D01*
X133867797Y-91867859D01*
X133867798Y-91867859D01*
X133891506Y-91868936D01*
X133891525Y-91868936D01*
X133892925Y-91869000D01*
X136062001Y-91869000D01*
X136064509Y-91868798D01*
X136064514Y-91868798D01*
X136237924Y-91854846D01*
X136237929Y-91854845D01*
X136242965Y-91854440D01*
X136247873Y-91853234D01*
X136247876Y-91853234D01*
X136473792Y-91797744D01*
X136478706Y-91796537D01*
X136483358Y-91794562D01*
X136483362Y-91794561D01*
X136697498Y-91703665D01*
X136702156Y-91701688D01*
X136808037Y-91635011D01*
X136903288Y-91575028D01*
X136903291Y-91575026D01*
X136907567Y-91572333D01*
X136984869Y-91504183D01*
X137085858Y-91415150D01*
X137085861Y-91415147D01*
X137089655Y-91411802D01*
X137116049Y-91379669D01*
X137240526Y-91228128D01*
X137240528Y-91228125D01*
X137243734Y-91224222D01*
X137329604Y-91076684D01*
X137363299Y-91018790D01*
X137363300Y-91018788D01*
X137365841Y-91014422D01*
X137389320Y-90953257D01*
X137451020Y-90792522D01*
X137451021Y-90792518D01*
X137452833Y-90787798D01*
X137499626Y-90563812D01*
X137501440Y-90555131D01*
X137501440Y-90555127D01*
X137502474Y-90550180D01*
X137513486Y-90307683D01*
X137503649Y-90222663D01*
X137486167Y-90071571D01*
X137486166Y-90071567D01*
X137485585Y-90066544D01*
X137478143Y-90040242D01*
X137420866Y-89837831D01*
X137419490Y-89832968D01*
X137417356Y-89828392D01*
X137417354Y-89828386D01*
X137319038Y-89617546D01*
X137319036Y-89617542D01*
X137316901Y-89612964D01*
X137180456Y-89412193D01*
X137013668Y-89235819D01*
X136994626Y-89221260D01*
X136824846Y-89091453D01*
X136824842Y-89091450D01*
X136820826Y-89088380D01*
X136755716Y-89053468D01*
X136611352Y-88976061D01*
X136606891Y-88973669D01*
X136377369Y-88894638D01*
X136256774Y-88873808D01*
X136142074Y-88853996D01*
X136142068Y-88853995D01*
X136138164Y-88853321D01*
X136134203Y-88853141D01*
X136134202Y-88853141D01*
X136110494Y-88852064D01*
X136110475Y-88852064D01*
X136109075Y-88852000D01*
X136051568Y-88852000D01*
X135983447Y-88831998D01*
X135936954Y-88778342D01*
X135926850Y-88708068D01*
X135956344Y-88643488D01*
X136011691Y-88606477D01*
X136031493Y-88599870D01*
X136031495Y-88599869D01*
X136038446Y-88597550D01*
X136188848Y-88504478D01*
X136313805Y-88379303D01*
X136382829Y-88267326D01*
X136402775Y-88234968D01*
X136402776Y-88234966D01*
X136406615Y-88228738D01*
X136453387Y-88087725D01*
X136460132Y-88067389D01*
X136460132Y-88067387D01*
X136462297Y-88060861D01*
X136465520Y-88029410D01*
X136472672Y-87959598D01*
X136473000Y-87956400D01*
X136473000Y-87205600D01*
X136472663Y-87202350D01*
X136462738Y-87106692D01*
X136462737Y-87106688D01*
X136462026Y-87099834D01*
X136456812Y-87084204D01*
X136408368Y-86939002D01*
X136406050Y-86932054D01*
X136312978Y-86781652D01*
X136298330Y-86767029D01*
X136192983Y-86661866D01*
X136187803Y-86656695D01*
X136169976Y-86645706D01*
X136043468Y-86567725D01*
X136043466Y-86567724D01*
X136037238Y-86563885D01*
X135935077Y-86530000D01*
X135875889Y-86510368D01*
X135875887Y-86510368D01*
X135869361Y-86508203D01*
X135862525Y-86507503D01*
X135862522Y-86507502D01*
X135819469Y-86503091D01*
X135764900Y-86497500D01*
X134364100Y-86497500D01*
X134360854Y-86497837D01*
X134360850Y-86497837D01*
X134265192Y-86507762D01*
X134265188Y-86507763D01*
X134258334Y-86508474D01*
X134251798Y-86510655D01*
X134251796Y-86510655D01*
X134122997Y-86553626D01*
X134090554Y-86564450D01*
X134084326Y-86568304D01*
X134084324Y-86568305D01*
X133973083Y-86637144D01*
X133906780Y-86656000D01*
X118157000Y-86656000D01*
X118088879Y-86635998D01*
X118042386Y-86582342D01*
X118031000Y-86530000D01*
X118031000Y-86378499D01*
X118030798Y-86375986D01*
X118016846Y-86202576D01*
X118016845Y-86202571D01*
X118016440Y-86197535D01*
X117958537Y-85961794D01*
X117863688Y-85738344D01*
X117787841Y-85617902D01*
X117737028Y-85537212D01*
X117737026Y-85537209D01*
X117734333Y-85532933D01*
X117694133Y-85487334D01*
X117577150Y-85354642D01*
X117577147Y-85354639D01*
X117573802Y-85350845D01*
X117569893Y-85347634D01*
X117390128Y-85199974D01*
X117390125Y-85199972D01*
X117386222Y-85196766D01*
X117178118Y-85075646D01*
X117129306Y-85024093D01*
X117115500Y-84966748D01*
X117115500Y-84146173D01*
X117135502Y-84078052D01*
X117170677Y-84041961D01*
X117172124Y-84040978D01*
X117280307Y-83967456D01*
X117456681Y-83800668D01*
X117506954Y-83734914D01*
X117601047Y-83611846D01*
X117601050Y-83611842D01*
X117604120Y-83607826D01*
X117610504Y-83595921D01*
X117716439Y-83398352D01*
X117718831Y-83393891D01*
X117797862Y-83164369D01*
X117821948Y-83024924D01*
X117838504Y-82929074D01*
X117838505Y-82929068D01*
X117839179Y-82925164D01*
X117840500Y-82896075D01*
X117840500Y-81771900D01*
X133617500Y-81771900D01*
X133628474Y-81877666D01*
X133684450Y-82045446D01*
X133777522Y-82195848D01*
X133902697Y-82320805D01*
X133908927Y-82324645D01*
X133908928Y-82324646D01*
X134046090Y-82409194D01*
X134053262Y-82413615D01*
X134110949Y-82432749D01*
X134131167Y-82439455D01*
X134189527Y-82479886D01*
X134216764Y-82545450D01*
X134217500Y-82559048D01*
X134217500Y-83481307D01*
X134197498Y-83549428D01*
X134143842Y-83595921D01*
X134131377Y-83600830D01*
X134097498Y-83612133D01*
X134097496Y-83612134D01*
X134090554Y-83614450D01*
X133940152Y-83707522D01*
X133934979Y-83712704D01*
X133912808Y-83734914D01*
X133815195Y-83832697D01*
X133811355Y-83838927D01*
X133811354Y-83838928D01*
X133729413Y-83971861D01*
X133722385Y-83983262D01*
X133720081Y-83990209D01*
X133669980Y-84141260D01*
X133666703Y-84151139D01*
X133656000Y-84255600D01*
X133656000Y-85006400D01*
X133656337Y-85009646D01*
X133656337Y-85009650D01*
X133665606Y-85098978D01*
X133666974Y-85112166D01*
X133722950Y-85279946D01*
X133816022Y-85430348D01*
X133941197Y-85555305D01*
X133947427Y-85559145D01*
X133947428Y-85559146D01*
X134084590Y-85643694D01*
X134091762Y-85648115D01*
X134171505Y-85674564D01*
X134253111Y-85701632D01*
X134253113Y-85701632D01*
X134259639Y-85703797D01*
X134266475Y-85704497D01*
X134266478Y-85704498D01*
X134309531Y-85708909D01*
X134364100Y-85714500D01*
X135764900Y-85714500D01*
X135768146Y-85714163D01*
X135768150Y-85714163D01*
X135863808Y-85704238D01*
X135863812Y-85704237D01*
X135870666Y-85703526D01*
X135877202Y-85701345D01*
X135877204Y-85701345D01*
X136009306Y-85657272D01*
X136038446Y-85647550D01*
X136188848Y-85554478D01*
X136313805Y-85429303D01*
X136359913Y-85354502D01*
X136402775Y-85284968D01*
X136402776Y-85284966D01*
X136406615Y-85278738D01*
X136435392Y-85191979D01*
X136460132Y-85117389D01*
X136460132Y-85117387D01*
X136462297Y-85110861D01*
X136463184Y-85102210D01*
X136472672Y-85009598D01*
X136473000Y-85006400D01*
X136473000Y-84255600D01*
X136471422Y-84240389D01*
X136462738Y-84156692D01*
X136462737Y-84156688D01*
X136462026Y-84149834D01*
X136459166Y-84141260D01*
X136408368Y-83989002D01*
X136406050Y-83982054D01*
X136312978Y-83831652D01*
X136187803Y-83706695D01*
X136174283Y-83698361D01*
X136043468Y-83617725D01*
X136043466Y-83617724D01*
X136037238Y-83613885D01*
X135911250Y-83572097D01*
X135870833Y-83558691D01*
X135812473Y-83518260D01*
X135785236Y-83452696D01*
X135784500Y-83439098D01*
X135784500Y-82559038D01*
X135804502Y-82490917D01*
X135858158Y-82444424D01*
X135870624Y-82439514D01*
X135931653Y-82419153D01*
X135949946Y-82413050D01*
X136100348Y-82319978D01*
X136225305Y-82194803D01*
X136318115Y-82044238D01*
X136373797Y-81876361D01*
X136384500Y-81771900D01*
X136384500Y-81046100D01*
X136384163Y-81042850D01*
X136374238Y-80947192D01*
X136374237Y-80947188D01*
X136373526Y-80940334D01*
X136317550Y-80772554D01*
X136224478Y-80622152D01*
X136099303Y-80497195D01*
X135968592Y-80416623D01*
X135954968Y-80408225D01*
X135954966Y-80408224D01*
X135948738Y-80404385D01*
X135788254Y-80351155D01*
X135787389Y-80350868D01*
X135787387Y-80350868D01*
X135780861Y-80348703D01*
X135774025Y-80348003D01*
X135774022Y-80348002D01*
X135730969Y-80343591D01*
X135676400Y-80338000D01*
X134325600Y-80338000D01*
X134322354Y-80338337D01*
X134322350Y-80338337D01*
X134226692Y-80348262D01*
X134226688Y-80348263D01*
X134219834Y-80348974D01*
X134213298Y-80351155D01*
X134213296Y-80351155D01*
X134081194Y-80395228D01*
X134052054Y-80404950D01*
X133901652Y-80498022D01*
X133776695Y-80623197D01*
X133772855Y-80629427D01*
X133772854Y-80629428D01*
X133711158Y-80729518D01*
X133683885Y-80773762D01*
X133628203Y-80941639D01*
X133617500Y-81046100D01*
X133617500Y-81771900D01*
X117840500Y-81771900D01*
X117840500Y-80726999D01*
X117840298Y-80724486D01*
X117826346Y-80551076D01*
X117826345Y-80551071D01*
X117825940Y-80546035D01*
X117813201Y-80494168D01*
X117769244Y-80315208D01*
X117768037Y-80310294D01*
X117673188Y-80086844D01*
X117587383Y-79950589D01*
X117546528Y-79885712D01*
X117546526Y-79885709D01*
X117543833Y-79881433D01*
X117454140Y-79779695D01*
X117386650Y-79703142D01*
X117386647Y-79703139D01*
X117383302Y-79699345D01*
X117360634Y-79680725D01*
X117199628Y-79548474D01*
X117199625Y-79548472D01*
X117195722Y-79545266D01*
X117003097Y-79433155D01*
X116990290Y-79425701D01*
X116990288Y-79425700D01*
X116985922Y-79423159D01*
X116978570Y-79420337D01*
X116764022Y-79337980D01*
X116764018Y-79337979D01*
X116759298Y-79336167D01*
X116754348Y-79335133D01*
X116754345Y-79335132D01*
X116526631Y-79287560D01*
X116526627Y-79287560D01*
X116521680Y-79286526D01*
X116279183Y-79275514D01*
X116274163Y-79276095D01*
X116274159Y-79276095D01*
X116043071Y-79302833D01*
X116043067Y-79302834D01*
X116038044Y-79303415D01*
X116033180Y-79304791D01*
X116033177Y-79304792D01*
X115922300Y-79336167D01*
X115804468Y-79369510D01*
X115799892Y-79371644D01*
X115799886Y-79371646D01*
X115589046Y-79469962D01*
X115589042Y-79469964D01*
X115584464Y-79472099D01*
X115580283Y-79474940D01*
X115580282Y-79474941D01*
X115560993Y-79488050D01*
X115383693Y-79608544D01*
X115207319Y-79775332D01*
X115162223Y-79834315D01*
X115104961Y-79876281D01*
X115034097Y-79880626D01*
X114967615Y-79841109D01*
X114846297Y-79703500D01*
X114839044Y-79696496D01*
X114659346Y-79548890D01*
X114651064Y-79543134D01*
X114450081Y-79426159D01*
X114440976Y-79421797D01*
X114223885Y-79338463D01*
X114214196Y-79335612D01*
X114063736Y-79304179D01*
X114049675Y-79305302D01*
X114046000Y-79315410D01*
X114046000Y-84258590D01*
X114050136Y-84272676D01*
X114063114Y-84274725D01*
X114080830Y-84272675D01*
X114090727Y-84270715D01*
X114314494Y-84207396D01*
X114323938Y-84203884D01*
X114534705Y-84105601D01*
X114543471Y-84100622D01*
X114735802Y-83969913D01*
X114743677Y-83963581D01*
X114912626Y-83803814D01*
X114919387Y-83796305D01*
X114961128Y-83741710D01*
X115018393Y-83699742D01*
X115089256Y-83695397D01*
X115155737Y-83734913D01*
X115216775Y-83804148D01*
X115277350Y-83872858D01*
X115277353Y-83872861D01*
X115280698Y-83876655D01*
X115468278Y-84030734D01*
X115485882Y-84040980D01*
X115534694Y-84092531D01*
X115548500Y-84149877D01*
X115548500Y-85230076D01*
X115528498Y-85298197D01*
X115509073Y-85321625D01*
X115397819Y-85426832D01*
X115394741Y-85430858D01*
X115394740Y-85430859D01*
X115353035Y-85485407D01*
X115295770Y-85527375D01*
X115224907Y-85531720D01*
X115158425Y-85492203D01*
X115037150Y-85354642D01*
X115037147Y-85354639D01*
X115033802Y-85350845D01*
X115029893Y-85347634D01*
X114850128Y-85199974D01*
X114850125Y-85199972D01*
X114846222Y-85196766D01*
X114689082Y-85105308D01*
X114640790Y-85077201D01*
X114640788Y-85077200D01*
X114636422Y-85074659D01*
X114504692Y-85024093D01*
X114414522Y-84989480D01*
X114414518Y-84989479D01*
X114409798Y-84987667D01*
X114404848Y-84986633D01*
X114404845Y-84986632D01*
X114177131Y-84939060D01*
X114177127Y-84939060D01*
X114172180Y-84938026D01*
X113929683Y-84927014D01*
X113924663Y-84927595D01*
X113924659Y-84927595D01*
X113803192Y-84941649D01*
X113733223Y-84929609D01*
X113699615Y-84905579D01*
X113244084Y-84450048D01*
X113210058Y-84387736D01*
X113215123Y-84316921D01*
X113257670Y-84260085D01*
X113324190Y-84235274D01*
X113364782Y-84239650D01*
X113364844Y-84239352D01*
X113367859Y-84239982D01*
X113368751Y-84240078D01*
X113369808Y-84240389D01*
X113520264Y-84271821D01*
X113534325Y-84270698D01*
X113538000Y-84260590D01*
X113538000Y-79317410D01*
X113533864Y-79303324D01*
X113520886Y-79301275D01*
X113503170Y-79303325D01*
X113493273Y-79305285D01*
X113269506Y-79368604D01*
X113260062Y-79372116D01*
X113049295Y-79470399D01*
X113040529Y-79475378D01*
X112848198Y-79606087D01*
X112840323Y-79612419D01*
X112671374Y-79772186D01*
X112664613Y-79779695D01*
X112622872Y-79834290D01*
X112565607Y-79876258D01*
X112494744Y-79880603D01*
X112428263Y-79841087D01*
X112361937Y-79765854D01*
X112306650Y-79703142D01*
X112306647Y-79703139D01*
X112303302Y-79699345D01*
X112276647Y-79677450D01*
X112211155Y-79623655D01*
X112115722Y-79545266D01*
X112098118Y-79535020D01*
X112049306Y-79483469D01*
X112035500Y-79426123D01*
X112035500Y-75687726D01*
X112055502Y-75619605D01*
X112072405Y-75598631D01*
X113449631Y-74221405D01*
X113511943Y-74187379D01*
X113538726Y-74184500D01*
X115370827Y-74184500D01*
X115438948Y-74204502D01*
X115475038Y-74239676D01*
X115549544Y-74349307D01*
X115716332Y-74525681D01*
X115720358Y-74528759D01*
X115720359Y-74528760D01*
X115905154Y-74670047D01*
X115905158Y-74670050D01*
X115909174Y-74673120D01*
X115913632Y-74675510D01*
X115913633Y-74675511D01*
X116037985Y-74742188D01*
X116123109Y-74787831D01*
X116352631Y-74866862D01*
X116451978Y-74884022D01*
X116587926Y-74907504D01*
X116587932Y-74907505D01*
X116591836Y-74908179D01*
X116595797Y-74908359D01*
X116595798Y-74908359D01*
X116619506Y-74909436D01*
X116619525Y-74909436D01*
X116620925Y-74909500D01*
X116819500Y-74909500D01*
X116887621Y-74929502D01*
X116934114Y-74983158D01*
X116945500Y-75035500D01*
X116945500Y-75809999D01*
X116945493Y-75811319D01*
X116944578Y-75898678D01*
X116946067Y-75905563D01*
X116946067Y-75905566D01*
X116953414Y-75939545D01*
X116955475Y-75952128D01*
X116960136Y-75993682D01*
X116962454Y-76000337D01*
X116962455Y-76000343D01*
X116970744Y-76024146D01*
X116974907Y-76038955D01*
X116980236Y-76063601D01*
X116981725Y-76070486D01*
X116999402Y-76108395D01*
X117004184Y-76120171D01*
X117017943Y-76159681D01*
X117035037Y-76187037D01*
X117042377Y-76200556D01*
X117056011Y-76229794D01*
X117060324Y-76235354D01*
X117060325Y-76235356D01*
X117081640Y-76262835D01*
X117088929Y-76273283D01*
X117111091Y-76308749D01*
X117133317Y-76331131D01*
X117138819Y-76336672D01*
X117139373Y-76337264D01*
X117139877Y-76337913D01*
X117165029Y-76363065D01*
X117234949Y-76433475D01*
X117235959Y-76434116D01*
X117237138Y-76435174D01*
X117803581Y-77001617D01*
X117804510Y-77002555D01*
X117865671Y-77065011D01*
X117871593Y-77068828D01*
X117871596Y-77068830D01*
X117900822Y-77087665D01*
X117911161Y-77095093D01*
X117943850Y-77121188D01*
X117950192Y-77124254D01*
X117950197Y-77124257D01*
X117972890Y-77135227D01*
X117986302Y-77142753D01*
X118007500Y-77156414D01*
X118007505Y-77156416D01*
X118013424Y-77160231D01*
X118052719Y-77174533D01*
X118064463Y-77179494D01*
X118095760Y-77194624D01*
X118095763Y-77194625D01*
X118102105Y-77197691D01*
X118108966Y-77199275D01*
X118108969Y-77199276D01*
X118133539Y-77204948D01*
X118148282Y-77209315D01*
X118178600Y-77220350D01*
X118217951Y-77225321D01*
X118220088Y-77225591D01*
X118232636Y-77227827D01*
X118273377Y-77237233D01*
X118280423Y-77237258D01*
X118280426Y-77237258D01*
X118312721Y-77237371D01*
X118313547Y-77237398D01*
X118314354Y-77237500D01*
X118349660Y-77237500D01*
X118350100Y-77237501D01*
X118445710Y-77237835D01*
X118449153Y-77237847D01*
X118450324Y-77237585D01*
X118451897Y-77237500D01*
X129988774Y-77237500D01*
X130056895Y-77257502D01*
X130077869Y-77274405D01*
X131835081Y-79031617D01*
X131836010Y-79032555D01*
X131897171Y-79095011D01*
X131903093Y-79098828D01*
X131903096Y-79098830D01*
X131932322Y-79117665D01*
X131942661Y-79125093D01*
X131975350Y-79151188D01*
X131981692Y-79154254D01*
X131981697Y-79154257D01*
X132004390Y-79165227D01*
X132017802Y-79172753D01*
X132039000Y-79186414D01*
X132039005Y-79186416D01*
X132044924Y-79190231D01*
X132084219Y-79204533D01*
X132095963Y-79209494D01*
X132127260Y-79224624D01*
X132127263Y-79224625D01*
X132133605Y-79227691D01*
X132140466Y-79229275D01*
X132140469Y-79229276D01*
X132165039Y-79234948D01*
X132179782Y-79239315D01*
X132210100Y-79250350D01*
X132217090Y-79251233D01*
X132251589Y-79255591D01*
X132264144Y-79257828D01*
X132304878Y-79267233D01*
X132311924Y-79267258D01*
X132311927Y-79267258D01*
X132344221Y-79267371D01*
X132345047Y-79267398D01*
X132345854Y-79267500D01*
X132381160Y-79267500D01*
X132381600Y-79267501D01*
X132477210Y-79267835D01*
X132480653Y-79267847D01*
X132481824Y-79267585D01*
X132483397Y-79267500D01*
X133722041Y-79267500D01*
X133790162Y-79287502D01*
X133811059Y-79304327D01*
X133897516Y-79390634D01*
X133897521Y-79390638D01*
X133902697Y-79395805D01*
X133908927Y-79399645D01*
X133908928Y-79399646D01*
X134046090Y-79484194D01*
X134053262Y-79488615D01*
X134083291Y-79498575D01*
X134214611Y-79542132D01*
X134214613Y-79542132D01*
X134221139Y-79544297D01*
X134227975Y-79544997D01*
X134227978Y-79544998D01*
X134271031Y-79549409D01*
X134325600Y-79555000D01*
X135676400Y-79555000D01*
X135679646Y-79554663D01*
X135679650Y-79554663D01*
X135775308Y-79544738D01*
X135775312Y-79544737D01*
X135782166Y-79544026D01*
X135788702Y-79541845D01*
X135788704Y-79541845D01*
X135924498Y-79496540D01*
X135949946Y-79488050D01*
X136100348Y-79394978D01*
X136225305Y-79269803D01*
X136233573Y-79256390D01*
X136314275Y-79125468D01*
X136314276Y-79125466D01*
X136318115Y-79119238D01*
X136373797Y-78951361D01*
X136374547Y-78944048D01*
X136379988Y-78890940D01*
X136384500Y-78846900D01*
X136384500Y-78121100D01*
X136383111Y-78107713D01*
X136374238Y-78022192D01*
X136374237Y-78022188D01*
X136373526Y-78015334D01*
X136368695Y-78000852D01*
X136319868Y-77854502D01*
X136317550Y-77847554D01*
X136224478Y-77697152D01*
X136099303Y-77572195D01*
X136072826Y-77555874D01*
X135954968Y-77483225D01*
X135954966Y-77483224D01*
X135948738Y-77479385D01*
X135788254Y-77426155D01*
X135787389Y-77425868D01*
X135787387Y-77425868D01*
X135780861Y-77423703D01*
X135774025Y-77423003D01*
X135774022Y-77423002D01*
X135730969Y-77418591D01*
X135676400Y-77413000D01*
X134325600Y-77413000D01*
X134322354Y-77413337D01*
X134322350Y-77413337D01*
X134226692Y-77423262D01*
X134226688Y-77423263D01*
X134219834Y-77423974D01*
X134213298Y-77426155D01*
X134213296Y-77426155D01*
X134129793Y-77454014D01*
X134052054Y-77479950D01*
X133901652Y-77573022D01*
X133829800Y-77645000D01*
X133811314Y-77663518D01*
X133749032Y-77697597D01*
X133722141Y-77700500D01*
X132772227Y-77700500D01*
X132704106Y-77680498D01*
X132683132Y-77663595D01*
X130925919Y-75906383D01*
X130924990Y-75905445D01*
X130899704Y-75879624D01*
X130863829Y-75842989D01*
X130857907Y-75839172D01*
X130857904Y-75839170D01*
X130828678Y-75820335D01*
X130818339Y-75812907D01*
X130785650Y-75786812D01*
X130779308Y-75783746D01*
X130779303Y-75783743D01*
X130756610Y-75772773D01*
X130743198Y-75765247D01*
X130722000Y-75751586D01*
X130721995Y-75751584D01*
X130716076Y-75747769D01*
X130676781Y-75733467D01*
X130665037Y-75728506D01*
X130633744Y-75713378D01*
X130633742Y-75713377D01*
X130627395Y-75710309D01*
X130595956Y-75703051D01*
X130581220Y-75698685D01*
X130557520Y-75690059D01*
X130557516Y-75690058D01*
X130550900Y-75687650D01*
X130543914Y-75686767D01*
X130543912Y-75686767D01*
X130509421Y-75682410D01*
X130496869Y-75680175D01*
X130489630Y-75678504D01*
X130456123Y-75670768D01*
X130449083Y-75670743D01*
X130449080Y-75670743D01*
X130416796Y-75670630D01*
X130415959Y-75670602D01*
X130415146Y-75670500D01*
X130379554Y-75670500D01*
X130379114Y-75670499D01*
X130373359Y-75670479D01*
X130280347Y-75670154D01*
X130279179Y-75670415D01*
X130277611Y-75670500D01*
X128885244Y-75670500D01*
X128817123Y-75650498D01*
X128770630Y-75596842D01*
X128760526Y-75526568D01*
X128774199Y-75484962D01*
X128879331Y-75288891D01*
X128958362Y-75059369D01*
X128980729Y-74929876D01*
X128999004Y-74824074D01*
X128999005Y-74824068D01*
X128999679Y-74820164D01*
X129001000Y-74791075D01*
X129001000Y-74744001D01*
X131984000Y-74744001D01*
X131998560Y-74924965D01*
X131999766Y-74929873D01*
X131999766Y-74929876D01*
X132035392Y-75074919D01*
X132056463Y-75160706D01*
X132058438Y-75165358D01*
X132058439Y-75165362D01*
X132100159Y-75263648D01*
X132151312Y-75384156D01*
X132157225Y-75393546D01*
X132244018Y-75531369D01*
X132280667Y-75589567D01*
X132307149Y-75619605D01*
X132437850Y-75767858D01*
X132437853Y-75767861D01*
X132441198Y-75771655D01*
X132445106Y-75774865D01*
X132445107Y-75774866D01*
X132605220Y-75906383D01*
X132628778Y-75925734D01*
X132733493Y-75986680D01*
X132810373Y-76031425D01*
X132838578Y-76047841D01*
X132843301Y-76049654D01*
X133060478Y-76133020D01*
X133060482Y-76133021D01*
X133065202Y-76134833D01*
X133070152Y-76135867D01*
X133070155Y-76135868D01*
X133297869Y-76183440D01*
X133297873Y-76183440D01*
X133302820Y-76184474D01*
X133545317Y-76195486D01*
X133550337Y-76194905D01*
X133550341Y-76194905D01*
X133781429Y-76168167D01*
X133781433Y-76168166D01*
X133786456Y-76167585D01*
X133791320Y-76166209D01*
X133791323Y-76166208D01*
X134015169Y-76102866D01*
X134015168Y-76102866D01*
X134020032Y-76101490D01*
X134024608Y-76099356D01*
X134024614Y-76099354D01*
X134235454Y-76001038D01*
X134235458Y-76001036D01*
X134240036Y-75998901D01*
X134247716Y-75993682D01*
X134376171Y-75906383D01*
X134440807Y-75862456D01*
X134617181Y-75695668D01*
X134620260Y-75691641D01*
X134761547Y-75506846D01*
X134761550Y-75506842D01*
X134764620Y-75502826D01*
X134772945Y-75487301D01*
X134876939Y-75293352D01*
X134876942Y-75293346D01*
X134879331Y-75288891D01*
X134958362Y-75059369D01*
X134980729Y-74929876D01*
X134999004Y-74824074D01*
X134999005Y-74824068D01*
X134999679Y-74820164D01*
X135001000Y-74791075D01*
X135001000Y-74592500D01*
X135021002Y-74524379D01*
X135074658Y-74477886D01*
X135127000Y-74466500D01*
X138569274Y-74466500D01*
X138637395Y-74486502D01*
X138683888Y-74540158D01*
X138688798Y-74552624D01*
X138739450Y-74704446D01*
X138832522Y-74854848D01*
X138957697Y-74979805D01*
X138963927Y-74983645D01*
X138963928Y-74983646D01*
X139101090Y-75068194D01*
X139108262Y-75072615D01*
X139157984Y-75089107D01*
X139269611Y-75126132D01*
X139269613Y-75126132D01*
X139276139Y-75128297D01*
X139282975Y-75128997D01*
X139282978Y-75128998D01*
X139318019Y-75132588D01*
X139380600Y-75139000D01*
X140781400Y-75139000D01*
X140784646Y-75138663D01*
X140784650Y-75138663D01*
X140880308Y-75128738D01*
X140880312Y-75128737D01*
X140887166Y-75128026D01*
X140893702Y-75125845D01*
X140893704Y-75125845D01*
X141044608Y-75075499D01*
X141054946Y-75072050D01*
X141205348Y-74978978D01*
X141330305Y-74853803D01*
X141349358Y-74822893D01*
X141419275Y-74709468D01*
X141419276Y-74709466D01*
X141423115Y-74703238D01*
X141478797Y-74535361D01*
X141479588Y-74527646D01*
X141487307Y-74452302D01*
X141489500Y-74430900D01*
X141489500Y-73680100D01*
X141487820Y-73663910D01*
X141479238Y-73581192D01*
X141479237Y-73581188D01*
X141478526Y-73574334D01*
X141462649Y-73526743D01*
X141424868Y-73413502D01*
X141422550Y-73406554D01*
X141329478Y-73256152D01*
X141204303Y-73131195D01*
X141198072Y-73127354D01*
X141059968Y-73042225D01*
X141059966Y-73042224D01*
X141053738Y-73038385D01*
X140910258Y-72990795D01*
X140892389Y-72984868D01*
X140892387Y-72984868D01*
X140885861Y-72982703D01*
X140879025Y-72982003D01*
X140879022Y-72982002D01*
X140835969Y-72977591D01*
X140781400Y-72972000D01*
X140068190Y-72972000D01*
X140025104Y-72964404D01*
X140019792Y-72962471D01*
X140008037Y-72957506D01*
X139976744Y-72942378D01*
X139976742Y-72942377D01*
X139970395Y-72939309D01*
X139938956Y-72932051D01*
X139924220Y-72927685D01*
X139900520Y-72919059D01*
X139900516Y-72919058D01*
X139893900Y-72916650D01*
X139886914Y-72915767D01*
X139886912Y-72915767D01*
X139852421Y-72911410D01*
X139839869Y-72909175D01*
X139830227Y-72906949D01*
X139799123Y-72899768D01*
X139792083Y-72899743D01*
X139792080Y-72899743D01*
X139759796Y-72899630D01*
X139758959Y-72899602D01*
X139758146Y-72899500D01*
X139722554Y-72899500D01*
X139722114Y-72899499D01*
X139716359Y-72899479D01*
X139623347Y-72899154D01*
X139622179Y-72899415D01*
X139620611Y-72899500D01*
X135127000Y-72899500D01*
X135058879Y-72879498D01*
X135012386Y-72825842D01*
X135001000Y-72773500D01*
X135001000Y-72621999D01*
X135000638Y-72617500D01*
X134986846Y-72446076D01*
X134986845Y-72446071D01*
X134986440Y-72441035D01*
X134963184Y-72346350D01*
X134929744Y-72210208D01*
X134928537Y-72205294D01*
X134921692Y-72189167D01*
X134858212Y-72039620D01*
X134833688Y-71981844D01*
X134752601Y-71853081D01*
X134707028Y-71780712D01*
X134707026Y-71780709D01*
X134704333Y-71776433D01*
X134632208Y-71694623D01*
X134547150Y-71598142D01*
X134547147Y-71598139D01*
X134543802Y-71594345D01*
X134539893Y-71591134D01*
X134405691Y-71480900D01*
X138672500Y-71480900D01*
X138672837Y-71484146D01*
X138672837Y-71484150D01*
X138682005Y-71572505D01*
X138683474Y-71586666D01*
X138685655Y-71593202D01*
X138685655Y-71593204D01*
X138718953Y-71693009D01*
X138739450Y-71754446D01*
X138832522Y-71904848D01*
X138957697Y-72029805D01*
X138963927Y-72033645D01*
X138963928Y-72033646D01*
X139101090Y-72118194D01*
X139108262Y-72122615D01*
X139177210Y-72145484D01*
X139269611Y-72176132D01*
X139269613Y-72176132D01*
X139276139Y-72178297D01*
X139282975Y-72178997D01*
X139282978Y-72178998D01*
X139326031Y-72183409D01*
X139380600Y-72189000D01*
X140781400Y-72189000D01*
X140784646Y-72188663D01*
X140784650Y-72188663D01*
X140880308Y-72178738D01*
X140880312Y-72178737D01*
X140887166Y-72178026D01*
X140893702Y-72175845D01*
X140893704Y-72175845D01*
X141036434Y-72128226D01*
X141054946Y-72122050D01*
X141205348Y-72028978D01*
X141330305Y-71903803D01*
X141341461Y-71885705D01*
X141395465Y-71837630D01*
X141400888Y-71835101D01*
X141412671Y-71830316D01*
X141452181Y-71816557D01*
X141479539Y-71799462D01*
X141493056Y-71792123D01*
X141515915Y-71781464D01*
X141515918Y-71781462D01*
X141522294Y-71778489D01*
X141555334Y-71752860D01*
X141565783Y-71745571D01*
X141601249Y-71723409D01*
X141629172Y-71695681D01*
X141629764Y-71695127D01*
X141630413Y-71694623D01*
X141655565Y-71669471D01*
X141725975Y-71599551D01*
X141726616Y-71598541D01*
X141727674Y-71597362D01*
X142533617Y-70791419D01*
X142534555Y-70790490D01*
X142551053Y-70774334D01*
X142597011Y-70729329D01*
X142600828Y-70723407D01*
X142600830Y-70723404D01*
X142619665Y-70694178D01*
X142627093Y-70683839D01*
X142653188Y-70651150D01*
X142656254Y-70644808D01*
X142656257Y-70644803D01*
X142667227Y-70622110D01*
X142674753Y-70608698D01*
X142688414Y-70587500D01*
X142688416Y-70587495D01*
X142692231Y-70581576D01*
X142706533Y-70542281D01*
X142711494Y-70530537D01*
X142726624Y-70499240D01*
X142726625Y-70499237D01*
X142729691Y-70492895D01*
X142734796Y-70470785D01*
X142736948Y-70461461D01*
X142741315Y-70446718D01*
X142752350Y-70416400D01*
X142757591Y-70374912D01*
X142759828Y-70362357D01*
X142767648Y-70328488D01*
X142769233Y-70321623D01*
X142769264Y-70312879D01*
X142769370Y-70282285D01*
X142769398Y-70281454D01*
X142769500Y-70280646D01*
X142769500Y-70245062D01*
X142769846Y-70145847D01*
X142769585Y-70144679D01*
X142769500Y-70143110D01*
X142769500Y-67427971D01*
X143566884Y-67427971D01*
X143570570Y-67433240D01*
X143778121Y-67560427D01*
X143786915Y-67564908D01*
X144015242Y-67659484D01*
X144024627Y-67662533D01*
X144264940Y-67720228D01*
X144274687Y-67721771D01*
X144521070Y-67741162D01*
X144530930Y-67741162D01*
X144777313Y-67721771D01*
X144787060Y-67720228D01*
X145027373Y-67662533D01*
X145036758Y-67659484D01*
X145265085Y-67564908D01*
X145273879Y-67560427D01*
X145479928Y-67434160D01*
X145485190Y-67426099D01*
X145479183Y-67415893D01*
X144538812Y-66475522D01*
X144524868Y-66467908D01*
X144523035Y-66468039D01*
X144516420Y-66472290D01*
X143574276Y-67414434D01*
X143566884Y-67427971D01*
X142769500Y-67427971D01*
X142769500Y-66763614D01*
X142789502Y-66695493D01*
X142843158Y-66649000D01*
X142913432Y-66638896D01*
X142978012Y-66668390D01*
X143011909Y-66715396D01*
X143064592Y-66842585D01*
X143069073Y-66851379D01*
X143195340Y-67057428D01*
X143203401Y-67062690D01*
X143213607Y-67056683D01*
X144153978Y-66116312D01*
X144160356Y-66104632D01*
X144890408Y-66104632D01*
X144890539Y-66106465D01*
X144894790Y-66113080D01*
X145836934Y-67055224D01*
X145850471Y-67062616D01*
X145855740Y-67058930D01*
X145982927Y-66851379D01*
X145987408Y-66842585D01*
X146081984Y-66614258D01*
X146085033Y-66604873D01*
X146142728Y-66364560D01*
X146144271Y-66354813D01*
X146163662Y-66108430D01*
X146163662Y-66098570D01*
X146144271Y-65852187D01*
X146142728Y-65842440D01*
X146085033Y-65602127D01*
X146081984Y-65592742D01*
X145987408Y-65364415D01*
X145982927Y-65355621D01*
X145856660Y-65149572D01*
X145848599Y-65144310D01*
X145838393Y-65150317D01*
X144898022Y-66090688D01*
X144890408Y-66104632D01*
X144160356Y-66104632D01*
X144161592Y-66102368D01*
X144161461Y-66100535D01*
X144157210Y-66093920D01*
X143215066Y-65151776D01*
X143201529Y-65144384D01*
X143196260Y-65148070D01*
X143069073Y-65355621D01*
X143064592Y-65364415D01*
X143011909Y-65491604D01*
X142967361Y-65546885D01*
X142899997Y-65569306D01*
X142831206Y-65551748D01*
X142782828Y-65499786D01*
X142769500Y-65443386D01*
X142769500Y-64952466D01*
X142789502Y-64884345D01*
X142829665Y-64845033D01*
X142843780Y-64836383D01*
X142890156Y-64807964D01*
X142921843Y-64780901D01*
X143566810Y-64780901D01*
X143572817Y-64791107D01*
X144513188Y-65731478D01*
X144527132Y-65739092D01*
X144528965Y-65738961D01*
X144535580Y-65734710D01*
X145477724Y-64792566D01*
X145485116Y-64779029D01*
X145481430Y-64773760D01*
X145273879Y-64646573D01*
X145265085Y-64642092D01*
X145036758Y-64547516D01*
X145027373Y-64544467D01*
X144787060Y-64486772D01*
X144777313Y-64485229D01*
X144530930Y-64465838D01*
X144521070Y-64465838D01*
X144274687Y-64485229D01*
X144264940Y-64486772D01*
X144024627Y-64544467D01*
X144015242Y-64547516D01*
X143786915Y-64642092D01*
X143778121Y-64646573D01*
X143572072Y-64772840D01*
X143566810Y-64780901D01*
X142921843Y-64780901D01*
X143073701Y-64651201D01*
X143230464Y-64467656D01*
X143356584Y-64261847D01*
X143406291Y-64141845D01*
X143447061Y-64043416D01*
X143447062Y-64043414D01*
X143448955Y-64038843D01*
X143490533Y-63865659D01*
X143504149Y-63808947D01*
X143504150Y-63808941D01*
X143505304Y-63804134D01*
X143524242Y-63563500D01*
X143505304Y-63322866D01*
X143504150Y-63318059D01*
X143504149Y-63318053D01*
X143467841Y-63166821D01*
X143448955Y-63088157D01*
X143442884Y-63073500D01*
X143358479Y-62869727D01*
X143358477Y-62869723D01*
X143356584Y-62865153D01*
X143230464Y-62659344D01*
X143073701Y-62475799D01*
X142924034Y-62347971D01*
X143566884Y-62347971D01*
X143570570Y-62353240D01*
X143778121Y-62480427D01*
X143786915Y-62484908D01*
X144015242Y-62579484D01*
X144024627Y-62582533D01*
X144264940Y-62640228D01*
X144274687Y-62641771D01*
X144521070Y-62661162D01*
X144530930Y-62661162D01*
X144777313Y-62641771D01*
X144787060Y-62640228D01*
X145027373Y-62582533D01*
X145036758Y-62579484D01*
X145265085Y-62484908D01*
X145273879Y-62480427D01*
X145479928Y-62354160D01*
X145485190Y-62346099D01*
X145479183Y-62335893D01*
X144538812Y-61395522D01*
X144524868Y-61387908D01*
X144523035Y-61388039D01*
X144516420Y-61392290D01*
X143574276Y-62334434D01*
X143566884Y-62347971D01*
X142924034Y-62347971D01*
X142890156Y-62319036D01*
X142684347Y-62192916D01*
X142679777Y-62191023D01*
X142679773Y-62191021D01*
X142465916Y-62102439D01*
X142465914Y-62102438D01*
X142461343Y-62100545D01*
X142378961Y-62080767D01*
X142231447Y-62045351D01*
X142231441Y-62045350D01*
X142226634Y-62044196D01*
X141986000Y-62025258D01*
X141745366Y-62044196D01*
X141740559Y-62045350D01*
X141740553Y-62045351D01*
X141593039Y-62080767D01*
X141510657Y-62100545D01*
X141506086Y-62102438D01*
X141506084Y-62102439D01*
X141292227Y-62191021D01*
X141292223Y-62191023D01*
X141287653Y-62192916D01*
X141081844Y-62319036D01*
X140898299Y-62475799D01*
X140741536Y-62659344D01*
X140615416Y-62865153D01*
X140613523Y-62869723D01*
X140613521Y-62869727D01*
X140529116Y-63073500D01*
X140523045Y-63088157D01*
X140504159Y-63166821D01*
X140467851Y-63318053D01*
X140467850Y-63318059D01*
X140466696Y-63322866D01*
X140447758Y-63563500D01*
X140466696Y-63804134D01*
X140467850Y-63808941D01*
X140467851Y-63808947D01*
X140481467Y-63865659D01*
X140523045Y-64038843D01*
X140524938Y-64043414D01*
X140524939Y-64043416D01*
X140565710Y-64141845D01*
X140615416Y-64261847D01*
X140741536Y-64467656D01*
X140898299Y-64651201D01*
X141081844Y-64807964D01*
X141128220Y-64836383D01*
X141142335Y-64845033D01*
X141189966Y-64897681D01*
X141202500Y-64952466D01*
X141202500Y-65443386D01*
X141182498Y-65511507D01*
X141128842Y-65558000D01*
X141058568Y-65568104D01*
X140993988Y-65538610D01*
X140960091Y-65491604D01*
X140907408Y-65364415D01*
X140902927Y-65355621D01*
X140776660Y-65149572D01*
X140768599Y-65144310D01*
X140758393Y-65150317D01*
X139818022Y-66090688D01*
X139810408Y-66104632D01*
X139810539Y-66106465D01*
X139814790Y-66113080D01*
X140756934Y-67055224D01*
X140770471Y-67062616D01*
X140775740Y-67058930D01*
X140902927Y-66851379D01*
X140907408Y-66842585D01*
X140960091Y-66715396D01*
X141004639Y-66660115D01*
X141072003Y-66637694D01*
X141140794Y-66655252D01*
X141189172Y-66707214D01*
X141202500Y-66763614D01*
X141202500Y-69854274D01*
X141182498Y-69922395D01*
X141165595Y-69943369D01*
X141083811Y-70025153D01*
X141021499Y-70059179D01*
X140955050Y-70055651D01*
X140892392Y-70034869D01*
X140892390Y-70034869D01*
X140885861Y-70032703D01*
X140879025Y-70032003D01*
X140879022Y-70032002D01*
X140826159Y-70026586D01*
X140781400Y-70022000D01*
X139380600Y-70022000D01*
X139377354Y-70022337D01*
X139377350Y-70022337D01*
X139281692Y-70032262D01*
X139281688Y-70032263D01*
X139274834Y-70032974D01*
X139268298Y-70035155D01*
X139268296Y-70035155D01*
X139155659Y-70072734D01*
X139107054Y-70088950D01*
X138956652Y-70182022D01*
X138831695Y-70307197D01*
X138827855Y-70313427D01*
X138827854Y-70313428D01*
X138744764Y-70448225D01*
X138738885Y-70457762D01*
X138723301Y-70504747D01*
X138687229Y-70613502D01*
X138683203Y-70625639D01*
X138672500Y-70730100D01*
X138672500Y-71480900D01*
X134405691Y-71480900D01*
X134360128Y-71443474D01*
X134360125Y-71443472D01*
X134356222Y-71440266D01*
X134207865Y-71353920D01*
X134150790Y-71320701D01*
X134150788Y-71320700D01*
X134146422Y-71318159D01*
X134106074Y-71302671D01*
X133924522Y-71232980D01*
X133924518Y-71232979D01*
X133919798Y-71231167D01*
X133914848Y-71230133D01*
X133914845Y-71230132D01*
X133687131Y-71182560D01*
X133687127Y-71182560D01*
X133682180Y-71181526D01*
X133439683Y-71170514D01*
X133434663Y-71171095D01*
X133434659Y-71171095D01*
X133203571Y-71197833D01*
X133203567Y-71197834D01*
X133198544Y-71198415D01*
X133193680Y-71199791D01*
X133193677Y-71199792D01*
X133141545Y-71214544D01*
X132964968Y-71264510D01*
X132960392Y-71266644D01*
X132960386Y-71266646D01*
X132749546Y-71364962D01*
X132749542Y-71364964D01*
X132744964Y-71367099D01*
X132740783Y-71369940D01*
X132740782Y-71369941D01*
X132711049Y-71390148D01*
X132544193Y-71503544D01*
X132367819Y-71670332D01*
X132364741Y-71674358D01*
X132364740Y-71674359D01*
X132223453Y-71859154D01*
X132223450Y-71859158D01*
X132220380Y-71863174D01*
X132217990Y-71867632D01*
X132217989Y-71867633D01*
X132208299Y-71885705D01*
X132105669Y-72077109D01*
X132026638Y-72306631D01*
X132019199Y-72349698D01*
X131987247Y-72534688D01*
X131985321Y-72545836D01*
X131984000Y-72574925D01*
X131984000Y-74744001D01*
X129001000Y-74744001D01*
X129001000Y-72621999D01*
X129000638Y-72617500D01*
X128986846Y-72446076D01*
X128986845Y-72446071D01*
X128986440Y-72441035D01*
X128963184Y-72346350D01*
X128929744Y-72210208D01*
X128928537Y-72205294D01*
X128921692Y-72189167D01*
X128858212Y-72039620D01*
X128833688Y-71981844D01*
X128752601Y-71853081D01*
X128707028Y-71780712D01*
X128707026Y-71780709D01*
X128704333Y-71776433D01*
X128632208Y-71694623D01*
X128547150Y-71598142D01*
X128547147Y-71598139D01*
X128543802Y-71594345D01*
X128539893Y-71591134D01*
X128360128Y-71443474D01*
X128360125Y-71443472D01*
X128356222Y-71440266D01*
X128207865Y-71353920D01*
X128150790Y-71320701D01*
X128150788Y-71320700D01*
X128146422Y-71318159D01*
X128106074Y-71302671D01*
X127924522Y-71232980D01*
X127924518Y-71232979D01*
X127919798Y-71231167D01*
X127914848Y-71230133D01*
X127914845Y-71230132D01*
X127687131Y-71182560D01*
X127687127Y-71182560D01*
X127682180Y-71181526D01*
X127439683Y-71170514D01*
X127434663Y-71171095D01*
X127434659Y-71171095D01*
X127203571Y-71197833D01*
X127203567Y-71197834D01*
X127198544Y-71198415D01*
X127193680Y-71199791D01*
X127193677Y-71199792D01*
X127141545Y-71214544D01*
X126964968Y-71264510D01*
X126960392Y-71266644D01*
X126960386Y-71266646D01*
X126749546Y-71364962D01*
X126749542Y-71364964D01*
X126744964Y-71367099D01*
X126557104Y-71494770D01*
X126489522Y-71516515D01*
X126420910Y-71498271D01*
X126397188Y-71479652D01*
X125230919Y-70313383D01*
X125229990Y-70312445D01*
X125196627Y-70278376D01*
X125168829Y-70249989D01*
X125162907Y-70246172D01*
X125162904Y-70246170D01*
X125133678Y-70227335D01*
X125123339Y-70219907D01*
X125090650Y-70193812D01*
X125084308Y-70190746D01*
X125084303Y-70190743D01*
X125061610Y-70179773D01*
X125048198Y-70172247D01*
X125027000Y-70158586D01*
X125026995Y-70158584D01*
X125021076Y-70154769D01*
X124981781Y-70140467D01*
X124970037Y-70135506D01*
X124938744Y-70120378D01*
X124938742Y-70120377D01*
X124932395Y-70117309D01*
X124900956Y-70110051D01*
X124886220Y-70105685D01*
X124862520Y-70097059D01*
X124862516Y-70097058D01*
X124855900Y-70094650D01*
X124848914Y-70093767D01*
X124848912Y-70093767D01*
X124814421Y-70089410D01*
X124801869Y-70087175D01*
X124780038Y-70082135D01*
X124761123Y-70077768D01*
X124754083Y-70077743D01*
X124754080Y-70077743D01*
X124721796Y-70077630D01*
X124720959Y-70077602D01*
X124720146Y-70077500D01*
X124684554Y-70077500D01*
X124684114Y-70077499D01*
X124678359Y-70077479D01*
X124585347Y-70077154D01*
X124584179Y-70077415D01*
X124582611Y-70077500D01*
X120087173Y-70077500D01*
X120019052Y-70057498D01*
X119982961Y-70022323D01*
X119982742Y-70022000D01*
X119908456Y-69912693D01*
X119741668Y-69736319D01*
X119704825Y-69708150D01*
X119552846Y-69591953D01*
X119552842Y-69591950D01*
X119548826Y-69588880D01*
X119442716Y-69531984D01*
X119339352Y-69476561D01*
X119334891Y-69474169D01*
X119105369Y-69395138D01*
X118995814Y-69376215D01*
X118870074Y-69354496D01*
X118870068Y-69354495D01*
X118866164Y-69353821D01*
X118862203Y-69353641D01*
X118862202Y-69353641D01*
X118838494Y-69352564D01*
X118838475Y-69352564D01*
X118837075Y-69352500D01*
X116667999Y-69352500D01*
X116665491Y-69352702D01*
X116665486Y-69352702D01*
X116492076Y-69366654D01*
X116492071Y-69366655D01*
X116487035Y-69367060D01*
X116482127Y-69368266D01*
X116482124Y-69368266D01*
X116267530Y-69420975D01*
X116251294Y-69424963D01*
X116246642Y-69426938D01*
X116246638Y-69426939D01*
X116175815Y-69457002D01*
X116027844Y-69519812D01*
X115951354Y-69567981D01*
X115826712Y-69646472D01*
X115826709Y-69646474D01*
X115822433Y-69649167D01*
X115818639Y-69652512D01*
X115644142Y-69806350D01*
X115644139Y-69806353D01*
X115640345Y-69809698D01*
X115637135Y-69813606D01*
X115637134Y-69813607D01*
X115510299Y-69968020D01*
X115486266Y-69997278D01*
X115433942Y-70087179D01*
X115377086Y-70184868D01*
X115364159Y-70207078D01*
X115362346Y-70211801D01*
X115283809Y-70416400D01*
X115277167Y-70433702D01*
X115276133Y-70438652D01*
X115276132Y-70438655D01*
X115231740Y-70651150D01*
X115227526Y-70671320D01*
X115216514Y-70913817D01*
X115217095Y-70918837D01*
X115217095Y-70918841D01*
X115242449Y-71137963D01*
X115244415Y-71154956D01*
X115245791Y-71159820D01*
X115245792Y-71159823D01*
X115270267Y-71246317D01*
X115310510Y-71388532D01*
X115312644Y-71393108D01*
X115312646Y-71393114D01*
X115410962Y-71603954D01*
X115413099Y-71608536D01*
X115549544Y-71809307D01*
X115716332Y-71985681D01*
X115720358Y-71988759D01*
X115720359Y-71988760D01*
X115774907Y-72030465D01*
X115816875Y-72087730D01*
X115821220Y-72158593D01*
X115781703Y-72225075D01*
X115644142Y-72346350D01*
X115644139Y-72346353D01*
X115640345Y-72349698D01*
X115637135Y-72353606D01*
X115637134Y-72353607D01*
X115594646Y-72405333D01*
X115486266Y-72537278D01*
X115476020Y-72554882D01*
X115424469Y-72603694D01*
X115367123Y-72617500D01*
X113171001Y-72617500D01*
X113169681Y-72617493D01*
X113168293Y-72617478D01*
X113082322Y-72616578D01*
X113075437Y-72618067D01*
X113075434Y-72618067D01*
X113041455Y-72625414D01*
X113028872Y-72627475D01*
X113020385Y-72628427D01*
X112987318Y-72632136D01*
X112980663Y-72634454D01*
X112980657Y-72634455D01*
X112956854Y-72642744D01*
X112942045Y-72646907D01*
X112917399Y-72652236D01*
X112917395Y-72652237D01*
X112910514Y-72653725D01*
X112872605Y-72671402D01*
X112860829Y-72676184D01*
X112821319Y-72689943D01*
X112804138Y-72700679D01*
X112793963Y-72707037D01*
X112780444Y-72714377D01*
X112757585Y-72725036D01*
X112757582Y-72725038D01*
X112751206Y-72728011D01*
X112745646Y-72732324D01*
X112745644Y-72732325D01*
X112718165Y-72753640D01*
X112707717Y-72760929D01*
X112672251Y-72783091D01*
X112665598Y-72789698D01*
X112644328Y-72810819D01*
X112643736Y-72811373D01*
X112643087Y-72811877D01*
X112617935Y-72837029D01*
X112547525Y-72906949D01*
X112546884Y-72907959D01*
X112545826Y-72909138D01*
X110704383Y-74750581D01*
X110703445Y-74751510D01*
X110640989Y-74812671D01*
X110637172Y-74818593D01*
X110637170Y-74818596D01*
X110618335Y-74847822D01*
X110610907Y-74858161D01*
X110584812Y-74890850D01*
X110581746Y-74897192D01*
X110581743Y-74897197D01*
X110570773Y-74919890D01*
X110563247Y-74933302D01*
X110549586Y-74954500D01*
X110549584Y-74954505D01*
X110545769Y-74960424D01*
X110531607Y-74999336D01*
X110531469Y-74999715D01*
X110526506Y-75011463D01*
X110518971Y-75027051D01*
X110508309Y-75049105D01*
X110501051Y-75080544D01*
X110496685Y-75095280D01*
X110485650Y-75125600D01*
X110484767Y-75132586D01*
X110484767Y-75132588D01*
X110480410Y-75167079D01*
X110478175Y-75179631D01*
X110468768Y-75220377D01*
X110468743Y-75227417D01*
X110468743Y-75227420D01*
X110468630Y-75259704D01*
X110468602Y-75260541D01*
X110468500Y-75261354D01*
X110468500Y-75297100D01*
X110468154Y-75396153D01*
X110468415Y-75397321D01*
X110468500Y-75398889D01*
X110468500Y-79429827D01*
X110448498Y-79497948D01*
X110413324Y-79534038D01*
X110303693Y-79608544D01*
X110127319Y-79775332D01*
X110124241Y-79779358D01*
X110124240Y-79779359D01*
X109982953Y-79964154D01*
X109982950Y-79964158D01*
X109979880Y-79968174D01*
X109865169Y-80182109D01*
X109786138Y-80411631D01*
X109785276Y-80416623D01*
X109748519Y-80629428D01*
X109744821Y-80650836D01*
X109743500Y-80679925D01*
X109743500Y-82849001D01*
X109743702Y-82851509D01*
X109743702Y-82851514D01*
X109755925Y-83003424D01*
X109758060Y-83029965D01*
X109759266Y-83034873D01*
X109759266Y-83034876D01*
X109769106Y-83074938D01*
X109815963Y-83265706D01*
X109910812Y-83489156D01*
X109954601Y-83558691D01*
X109989359Y-83613885D01*
X110040167Y-83694567D01*
X110055418Y-83711866D01*
X110197350Y-83872858D01*
X110197353Y-83872861D01*
X110200698Y-83876655D01*
X110204606Y-83879865D01*
X110204607Y-83879866D01*
X110384372Y-84027526D01*
X110384375Y-84027528D01*
X110388278Y-84030734D01*
X110392646Y-84033276D01*
X110588345Y-84147176D01*
X110598078Y-84152841D01*
X110602801Y-84154654D01*
X110788493Y-84225934D01*
X110832434Y-84254470D01*
X111309170Y-84731206D01*
X111343196Y-84793518D01*
X111338131Y-84864333D01*
X111295584Y-84921169D01*
X111234558Y-84945466D01*
X111153668Y-84954826D01*
X111143775Y-84956784D01*
X110920006Y-85020104D01*
X110910562Y-85023616D01*
X110699795Y-85121899D01*
X110691029Y-85126878D01*
X110498698Y-85257587D01*
X110490823Y-85263919D01*
X110321874Y-85423686D01*
X110315113Y-85431195D01*
X110173875Y-85615926D01*
X110168411Y-85624405D01*
X110058522Y-85829347D01*
X110054480Y-85838599D01*
X109978773Y-86058471D01*
X109976264Y-86068243D01*
X109936496Y-86298471D01*
X109935641Y-86306343D01*
X109934564Y-86330051D01*
X109934500Y-86332884D01*
X109934500Y-87167385D01*
X109938975Y-87182624D01*
X109940365Y-87183829D01*
X109948048Y-87185500D01*
X111570500Y-87185500D01*
X111638621Y-87205502D01*
X111685114Y-87259158D01*
X111696500Y-87311500D01*
X111696500Y-89910090D01*
X111700636Y-89924176D01*
X111713614Y-89926225D01*
X111731330Y-89924175D01*
X111741227Y-89922215D01*
X111964994Y-89858896D01*
X111974438Y-89855384D01*
X112185205Y-89757101D01*
X112193971Y-89752122D01*
X112386302Y-89621413D01*
X112394177Y-89615081D01*
X112563126Y-89455314D01*
X112569887Y-89447805D01*
X112611628Y-89393210D01*
X112668893Y-89351242D01*
X112739756Y-89346897D01*
X112806237Y-89386413D01*
X112871122Y-89460011D01*
X112927850Y-89524358D01*
X112927853Y-89524361D01*
X112931198Y-89528155D01*
X112935106Y-89531365D01*
X112935107Y-89531366D01*
X113114872Y-89679026D01*
X113114875Y-89679028D01*
X113118778Y-89682234D01*
X113223678Y-89743288D01*
X113323424Y-89801341D01*
X113328578Y-89804341D01*
X113333301Y-89806154D01*
X113550478Y-89889520D01*
X113550482Y-89889521D01*
X113555202Y-89891333D01*
X113560152Y-89892367D01*
X113560155Y-89892368D01*
X113787869Y-89939940D01*
X113787873Y-89939940D01*
X113792820Y-89940974D01*
X114035317Y-89951986D01*
X114040337Y-89951405D01*
X114040341Y-89951405D01*
X114271429Y-89924667D01*
X114271433Y-89924666D01*
X114276456Y-89924085D01*
X114281320Y-89922709D01*
X114281323Y-89922708D01*
X114505169Y-89859366D01*
X114505168Y-89859366D01*
X114510032Y-89857990D01*
X114514608Y-89855856D01*
X114514614Y-89855854D01*
X114725454Y-89757538D01*
X114725458Y-89757536D01*
X114730036Y-89755401D01*
X114930807Y-89618956D01*
X115107181Y-89452168D01*
X115112561Y-89445132D01*
X115151965Y-89393593D01*
X115209230Y-89351625D01*
X115280093Y-89347280D01*
X115346575Y-89386797D01*
X115467850Y-89524358D01*
X115467853Y-89524361D01*
X115471198Y-89528155D01*
X115658778Y-89682234D01*
X115676382Y-89692480D01*
X115725194Y-89744031D01*
X115739000Y-89801377D01*
X115739000Y-90618774D01*
X115718998Y-90686895D01*
X115702095Y-90707869D01*
X115409369Y-91000595D01*
X115347057Y-91034621D01*
X115320274Y-91037500D01*
X108326726Y-91037500D01*
X108258605Y-91017498D01*
X108237631Y-91000595D01*
X105884905Y-88647869D01*
X105850879Y-88585557D01*
X105848000Y-88558774D01*
X105848000Y-88497956D01*
X109934500Y-88497956D01*
X109934702Y-88502988D01*
X109948650Y-88676343D01*
X109950262Y-88686296D01*
X110005733Y-88912133D01*
X110008916Y-88921703D01*
X110099780Y-89135765D01*
X110104455Y-89144707D01*
X110228374Y-89341487D01*
X110234414Y-89349560D01*
X110388203Y-89524000D01*
X110395456Y-89531004D01*
X110575154Y-89678610D01*
X110583436Y-89684366D01*
X110784419Y-89801341D01*
X110793524Y-89805703D01*
X111010615Y-89889037D01*
X111020304Y-89891888D01*
X111170764Y-89923321D01*
X111184825Y-89922198D01*
X111188500Y-89912090D01*
X111188500Y-87711615D01*
X111184025Y-87696376D01*
X111182635Y-87695171D01*
X111174952Y-87693500D01*
X109952615Y-87693500D01*
X109937376Y-87697975D01*
X109936171Y-87699365D01*
X109934500Y-87707048D01*
X109934500Y-88497956D01*
X105848000Y-88497956D01*
X105848000Y-87399100D01*
X105847663Y-87395848D01*
X105837738Y-87300192D01*
X105837737Y-87300188D01*
X105837026Y-87293334D01*
X105831403Y-87276478D01*
X105783368Y-87132502D01*
X105781050Y-87125554D01*
X105687978Y-86975152D01*
X105562803Y-86850195D01*
X105530635Y-86830366D01*
X105427884Y-86767029D01*
X105380390Y-86714256D01*
X105368000Y-86659769D01*
X105368000Y-84654538D01*
X105388002Y-84586417D01*
X105441658Y-84539924D01*
X105454124Y-84535014D01*
X105523453Y-84511884D01*
X105533446Y-84508550D01*
X105683848Y-84415478D01*
X105808805Y-84290303D01*
X105812646Y-84284072D01*
X105897775Y-84145968D01*
X105897776Y-84145966D01*
X105901615Y-84139738D01*
X105940480Y-84022562D01*
X105955132Y-83978389D01*
X105955132Y-83978387D01*
X105957297Y-83971861D01*
X105958146Y-83963581D01*
X105964570Y-83900876D01*
X105968000Y-83867400D01*
X105968000Y-83141600D01*
X105967663Y-83138350D01*
X105957738Y-83042692D01*
X105957737Y-83042688D01*
X105957026Y-83035834D01*
X105920104Y-82925164D01*
X105903368Y-82875002D01*
X105901050Y-82868054D01*
X105807978Y-82717652D01*
X105682803Y-82592695D01*
X105660774Y-82579116D01*
X105538468Y-82503725D01*
X105538466Y-82503724D01*
X105532238Y-82499885D01*
X105436852Y-82468247D01*
X105370889Y-82446368D01*
X105370887Y-82446368D01*
X105364361Y-82444203D01*
X105357525Y-82443503D01*
X105357522Y-82443502D01*
X105314469Y-82439091D01*
X105259900Y-82433500D01*
X103909100Y-82433500D01*
X103905854Y-82433837D01*
X103905850Y-82433837D01*
X103810192Y-82443762D01*
X103810188Y-82443763D01*
X103803334Y-82444474D01*
X103796798Y-82446655D01*
X103796796Y-82446655D01*
X103664694Y-82490728D01*
X103635554Y-82500450D01*
X103485152Y-82593522D01*
X103360195Y-82718697D01*
X103356355Y-82724927D01*
X103356354Y-82724928D01*
X103277878Y-82852240D01*
X103267385Y-82869262D01*
X103265081Y-82876209D01*
X103215755Y-83024924D01*
X103211703Y-83037139D01*
X103201000Y-83141600D01*
X103201000Y-83867400D01*
X100845051Y-83867400D01*
X100848672Y-83832062D01*
X100849000Y-83825646D01*
X100849000Y-83725615D01*
X100844525Y-83710376D01*
X100843135Y-83709171D01*
X100835452Y-83707500D01*
X99713115Y-83707500D01*
X99697876Y-83711975D01*
X99696671Y-83713365D01*
X99695000Y-83721048D01*
X99695000Y-84518384D01*
X99187000Y-84518384D01*
X99187000Y-83725615D01*
X99182525Y-83710376D01*
X99181135Y-83709171D01*
X99173452Y-83707500D01*
X98051116Y-83707500D01*
X98035877Y-83711975D01*
X98034672Y-83713365D01*
X98033001Y-83721048D01*
X98033001Y-83825595D01*
X61913000Y-83825595D01*
X61913000Y-83371885D01*
X93207000Y-83371885D01*
X93211475Y-83387124D01*
X93212865Y-83388329D01*
X93220548Y-83390000D01*
X94342885Y-83390000D01*
X94358124Y-83385525D01*
X94359329Y-83384135D01*
X94361000Y-83376452D01*
X94361000Y-83371885D01*
X94869000Y-83371885D01*
X94873475Y-83387124D01*
X94874865Y-83388329D01*
X94882548Y-83390000D01*
X96004884Y-83390000D01*
X96020123Y-83385525D01*
X96021328Y-83384135D01*
X96022999Y-83376452D01*
X96022999Y-83271905D01*
X96022662Y-83265386D01*
X96013946Y-83181385D01*
X98033000Y-83181385D01*
X98037475Y-83196624D01*
X98038865Y-83197829D01*
X98046548Y-83199500D01*
X99168885Y-83199500D01*
X99184124Y-83195025D01*
X99185329Y-83193635D01*
X99187000Y-83185952D01*
X99187000Y-83181385D01*
X99695000Y-83181385D01*
X99699475Y-83196624D01*
X99700865Y-83197829D01*
X99708548Y-83199500D01*
X100830884Y-83199500D01*
X100846123Y-83195025D01*
X100847328Y-83193635D01*
X100848999Y-83185952D01*
X100848999Y-83081405D01*
X100848662Y-83074886D01*
X100838743Y-82979294D01*
X100835851Y-82965900D01*
X100784412Y-82811716D01*
X100778239Y-82798538D01*
X100692937Y-82660693D01*
X100683901Y-82649292D01*
X100569171Y-82534761D01*
X100557760Y-82525749D01*
X100419757Y-82440684D01*
X100406576Y-82434537D01*
X100252290Y-82383362D01*
X100238914Y-82380495D01*
X100144562Y-82370828D01*
X100138145Y-82370500D01*
X99713115Y-82370500D01*
X99697876Y-82374975D01*
X99696671Y-82376365D01*
X99695000Y-82384048D01*
X99695000Y-83181385D01*
X99187000Y-83181385D01*
X99187000Y-82388616D01*
X99182525Y-82373377D01*
X99181135Y-82372172D01*
X99173452Y-82370501D01*
X98743905Y-82370501D01*
X98737386Y-82370838D01*
X98641794Y-82380757D01*
X98628400Y-82383649D01*
X98474216Y-82435088D01*
X98461038Y-82441261D01*
X98323193Y-82526563D01*
X98311792Y-82535599D01*
X98197261Y-82650329D01*
X98188249Y-82661740D01*
X98103184Y-82799743D01*
X98097037Y-82812924D01*
X98045862Y-82967210D01*
X98042995Y-82980586D01*
X98033328Y-83074938D01*
X98033000Y-83081355D01*
X98033000Y-83181385D01*
X96013946Y-83181385D01*
X96012743Y-83169794D01*
X96009851Y-83156400D01*
X95958412Y-83002216D01*
X95952239Y-82989038D01*
X95866937Y-82851193D01*
X95857901Y-82839792D01*
X95743171Y-82725261D01*
X95731760Y-82716249D01*
X95593757Y-82631184D01*
X95580576Y-82625037D01*
X95426290Y-82573862D01*
X95412914Y-82570995D01*
X95318562Y-82561328D01*
X95312145Y-82561000D01*
X94887115Y-82561000D01*
X94871876Y-82565475D01*
X94870671Y-82566865D01*
X94869000Y-82574548D01*
X94869000Y-83371885D01*
X94361000Y-83371885D01*
X94361000Y-82579116D01*
X94356525Y-82563877D01*
X94355135Y-82562672D01*
X94347452Y-82561001D01*
X93917905Y-82561001D01*
X93911386Y-82561338D01*
X93815794Y-82571257D01*
X93802400Y-82574149D01*
X93648216Y-82625588D01*
X93635038Y-82631761D01*
X93497193Y-82717063D01*
X93485792Y-82726099D01*
X93371261Y-82840829D01*
X93362249Y-82852240D01*
X93277184Y-82990243D01*
X93271037Y-83003424D01*
X93219862Y-83157710D01*
X93216995Y-83171086D01*
X93207328Y-83265438D01*
X93207000Y-83271855D01*
X93207000Y-83371885D01*
X61913000Y-83371885D01*
X61913000Y-78947614D01*
X74221275Y-78947614D01*
X74223325Y-78965330D01*
X74225285Y-78975227D01*
X74288604Y-79198994D01*
X74292116Y-79208438D01*
X74390399Y-79419205D01*
X74395378Y-79427971D01*
X74526087Y-79620302D01*
X74532419Y-79628177D01*
X74692186Y-79797126D01*
X74699695Y-79803887D01*
X74884426Y-79945125D01*
X74892905Y-79950589D01*
X75097847Y-80060478D01*
X75107099Y-80064520D01*
X75326971Y-80140227D01*
X75336743Y-80142736D01*
X75566971Y-80182504D01*
X75574843Y-80183359D01*
X75598551Y-80184436D01*
X75601384Y-80184500D01*
X76435885Y-80184500D01*
X76451124Y-80180025D01*
X76452329Y-80178635D01*
X76454000Y-80170952D01*
X76454000Y-80166385D01*
X76962000Y-80166385D01*
X76966475Y-80181624D01*
X76967865Y-80182829D01*
X76975548Y-80184500D01*
X77766456Y-80184500D01*
X77771488Y-80184298D01*
X77944843Y-80170350D01*
X77954796Y-80168738D01*
X78180633Y-80113267D01*
X78190203Y-80110084D01*
X78404265Y-80019220D01*
X78413207Y-80014545D01*
X78609987Y-79890626D01*
X78618060Y-79884586D01*
X78792500Y-79730797D01*
X78799504Y-79723544D01*
X78947110Y-79543846D01*
X78952866Y-79535564D01*
X79069841Y-79334581D01*
X79074203Y-79325476D01*
X79157537Y-79108385D01*
X79160388Y-79098696D01*
X79191821Y-78948236D01*
X79190698Y-78934175D01*
X79180590Y-78930500D01*
X76980115Y-78930500D01*
X76964876Y-78934975D01*
X76963671Y-78936365D01*
X76962000Y-78944048D01*
X76962000Y-80166385D01*
X76454000Y-80166385D01*
X76454000Y-78948615D01*
X76449525Y-78933376D01*
X76448135Y-78932171D01*
X76440452Y-78930500D01*
X74237410Y-78930500D01*
X74223324Y-78934636D01*
X74221275Y-78947614D01*
X61913000Y-78947614D01*
X61913000Y-77451501D01*
X70373500Y-77451501D01*
X70373702Y-77454009D01*
X70373702Y-77454014D01*
X70386953Y-77618703D01*
X70388060Y-77632465D01*
X70389266Y-77637373D01*
X70389266Y-77637376D01*
X70404058Y-77697597D01*
X70445963Y-77868206D01*
X70540812Y-78091656D01*
X70579011Y-78152314D01*
X70643238Y-78254304D01*
X70670167Y-78297067D01*
X70673512Y-78300861D01*
X70827350Y-78475358D01*
X70827353Y-78475361D01*
X70830698Y-78479155D01*
X70834606Y-78482365D01*
X70834607Y-78482366D01*
X71006093Y-78623225D01*
X71018278Y-78633234D01*
X71228078Y-78755341D01*
X71232801Y-78757154D01*
X71449978Y-78840520D01*
X71449982Y-78840521D01*
X71454702Y-78842333D01*
X71459652Y-78843367D01*
X71459655Y-78843368D01*
X71687369Y-78890940D01*
X71687373Y-78890940D01*
X71692320Y-78891974D01*
X71934817Y-78902986D01*
X71939837Y-78902405D01*
X71939841Y-78902405D01*
X72170929Y-78875667D01*
X72170933Y-78875666D01*
X72175956Y-78875085D01*
X72180820Y-78873709D01*
X72180823Y-78873708D01*
X72404669Y-78810366D01*
X72404668Y-78810366D01*
X72409532Y-78808990D01*
X72414108Y-78806856D01*
X72414114Y-78806854D01*
X72624954Y-78708538D01*
X72624958Y-78708536D01*
X72629536Y-78706401D01*
X72830307Y-78569956D01*
X73006681Y-78403168D01*
X73018530Y-78387670D01*
X73151047Y-78214346D01*
X73151050Y-78214342D01*
X73154120Y-78210326D01*
X73268831Y-77996391D01*
X73347862Y-77766869D01*
X73376277Y-77602362D01*
X73388504Y-77531574D01*
X73388505Y-77531568D01*
X73389179Y-77527664D01*
X73389376Y-77523331D01*
X73390436Y-77499994D01*
X73390436Y-77499975D01*
X73390500Y-77498575D01*
X73390500Y-77300000D01*
X73410502Y-77231879D01*
X73464158Y-77185386D01*
X73516500Y-77174000D01*
X74558625Y-77174000D01*
X74626746Y-77194002D01*
X74650173Y-77213427D01*
X74667622Y-77231879D01*
X74695332Y-77261181D01*
X74754315Y-77306277D01*
X74796281Y-77363539D01*
X74800626Y-77434403D01*
X74761109Y-77500885D01*
X74623500Y-77622203D01*
X74616496Y-77629456D01*
X74468890Y-77809154D01*
X74463134Y-77817436D01*
X74346159Y-78018419D01*
X74341797Y-78027524D01*
X74258463Y-78244615D01*
X74255612Y-78254304D01*
X74224179Y-78404764D01*
X74225302Y-78418825D01*
X74235410Y-78422500D01*
X79178590Y-78422500D01*
X79192676Y-78418364D01*
X79194725Y-78405386D01*
X79192675Y-78387670D01*
X79190715Y-78377773D01*
X79127396Y-78154006D01*
X79123884Y-78144562D01*
X79025601Y-77933795D01*
X79020622Y-77925029D01*
X78889913Y-77732698D01*
X78883581Y-77724823D01*
X78723814Y-77555874D01*
X78716305Y-77549113D01*
X78661710Y-77507372D01*
X78619742Y-77450107D01*
X78615397Y-77379244D01*
X78654913Y-77312763D01*
X78752885Y-77226390D01*
X78788541Y-77194956D01*
X83876000Y-77194956D01*
X83876202Y-77199988D01*
X83890150Y-77373343D01*
X83891762Y-77383296D01*
X83947233Y-77609133D01*
X83950416Y-77618703D01*
X84041280Y-77832765D01*
X84045955Y-77841707D01*
X84169874Y-78038487D01*
X84175914Y-78046560D01*
X84329703Y-78221000D01*
X84336956Y-78228004D01*
X84516654Y-78375610D01*
X84524936Y-78381366D01*
X84725919Y-78498341D01*
X84735024Y-78502703D01*
X84952115Y-78586037D01*
X84961804Y-78588888D01*
X85112264Y-78620321D01*
X85126325Y-78619198D01*
X85130000Y-78609090D01*
X85130000Y-76408615D01*
X85125525Y-76393376D01*
X85124135Y-76392171D01*
X85116452Y-76390500D01*
X83894115Y-76390500D01*
X83878876Y-76394975D01*
X83877671Y-76396365D01*
X83876000Y-76404048D01*
X83876000Y-77194956D01*
X78788541Y-77194956D01*
X78792858Y-77191150D01*
X78792861Y-77191147D01*
X78796655Y-77187802D01*
X78822437Y-77156414D01*
X78947526Y-77004128D01*
X78947528Y-77004125D01*
X78950734Y-77000222D01*
X79072841Y-76790422D01*
X79159833Y-76563798D01*
X79187568Y-76431038D01*
X79208440Y-76331131D01*
X79208440Y-76331127D01*
X79209474Y-76326180D01*
X79220486Y-76083683D01*
X79218959Y-76070486D01*
X79195112Y-75864385D01*
X83876000Y-75864385D01*
X83880475Y-75879624D01*
X83881865Y-75880829D01*
X83889548Y-75882500D01*
X85111885Y-75882500D01*
X85127124Y-75878025D01*
X85128329Y-75876635D01*
X85130000Y-75868952D01*
X85130000Y-73665910D01*
X85125864Y-73651824D01*
X85112886Y-73649775D01*
X85095170Y-73651825D01*
X85085273Y-73653785D01*
X84861506Y-73717104D01*
X84852062Y-73720616D01*
X84641295Y-73818899D01*
X84632529Y-73823878D01*
X84440198Y-73954587D01*
X84432323Y-73960919D01*
X84263374Y-74120686D01*
X84256613Y-74128195D01*
X84115375Y-74312926D01*
X84109911Y-74321405D01*
X84000022Y-74526347D01*
X83995980Y-74535599D01*
X83920273Y-74755471D01*
X83917764Y-74765243D01*
X83877996Y-74995471D01*
X83877141Y-75003343D01*
X83876064Y-75027051D01*
X83876000Y-75029884D01*
X83876000Y-75864385D01*
X79195112Y-75864385D01*
X79193167Y-75847571D01*
X79193166Y-75847567D01*
X79192585Y-75842544D01*
X79155167Y-75710309D01*
X79143804Y-75670154D01*
X79126490Y-75608968D01*
X79124356Y-75604392D01*
X79124354Y-75604386D01*
X79026038Y-75393546D01*
X79026036Y-75393542D01*
X79023901Y-75388964D01*
X79020634Y-75384156D01*
X78958923Y-75293352D01*
X78887456Y-75188193D01*
X78720668Y-75011819D01*
X78661685Y-74966723D01*
X78619719Y-74909461D01*
X78615374Y-74838597D01*
X78654891Y-74772115D01*
X78792500Y-74650797D01*
X78799504Y-74643544D01*
X78947110Y-74463846D01*
X78952866Y-74455564D01*
X79069841Y-74254581D01*
X79074203Y-74245476D01*
X79157537Y-74028385D01*
X79160388Y-74018696D01*
X79191821Y-73868236D01*
X79190698Y-73854175D01*
X79180590Y-73850500D01*
X74237410Y-73850500D01*
X74223324Y-73854636D01*
X74221275Y-73867614D01*
X74223325Y-73885330D01*
X74225285Y-73895227D01*
X74288604Y-74118994D01*
X74292116Y-74128438D01*
X74390399Y-74339205D01*
X74395378Y-74347971D01*
X74526087Y-74540302D01*
X74532419Y-74548177D01*
X74692186Y-74717126D01*
X74699695Y-74723887D01*
X74754290Y-74765628D01*
X74796258Y-74822893D01*
X74800603Y-74893756D01*
X74761087Y-74960237D01*
X74702982Y-75011463D01*
X74623142Y-75081850D01*
X74623139Y-75081853D01*
X74619345Y-75085198D01*
X74616135Y-75089106D01*
X74616134Y-75089107D01*
X74474650Y-75261354D01*
X74465266Y-75272778D01*
X74430787Y-75332018D01*
X74346198Y-75477357D01*
X74343159Y-75482578D01*
X74333844Y-75506846D01*
X74326432Y-75526154D01*
X74283347Y-75582582D01*
X74216594Y-75606759D01*
X74208801Y-75607000D01*
X73516500Y-75607000D01*
X73448379Y-75586998D01*
X73401886Y-75533342D01*
X73390500Y-75481000D01*
X73390500Y-75329499D01*
X73386848Y-75284106D01*
X73376346Y-75153576D01*
X73376345Y-75153571D01*
X73375940Y-75148535D01*
X73373518Y-75138672D01*
X73319244Y-74917708D01*
X73318037Y-74912794D01*
X73312427Y-74899576D01*
X73249576Y-74751510D01*
X73223188Y-74689344D01*
X73172900Y-74609488D01*
X73096528Y-74488212D01*
X73096526Y-74488209D01*
X73093833Y-74483933D01*
X73039232Y-74422000D01*
X72936650Y-74305642D01*
X72936647Y-74305639D01*
X72933302Y-74301845D01*
X72888979Y-74265438D01*
X72749628Y-74150974D01*
X72749625Y-74150972D01*
X72745722Y-74147766D01*
X72535922Y-74025659D01*
X72482718Y-74005236D01*
X72314022Y-73940480D01*
X72314018Y-73940479D01*
X72309298Y-73938667D01*
X72304348Y-73937633D01*
X72304345Y-73937632D01*
X72076631Y-73890060D01*
X72076627Y-73890060D01*
X72071680Y-73889026D01*
X71829183Y-73878014D01*
X71824163Y-73878595D01*
X71824159Y-73878595D01*
X71593071Y-73905333D01*
X71593067Y-73905334D01*
X71588044Y-73905915D01*
X71583180Y-73907291D01*
X71583177Y-73907292D01*
X71475958Y-73937632D01*
X71354468Y-73972010D01*
X71349892Y-73974144D01*
X71349886Y-73974146D01*
X71139046Y-74072462D01*
X71139042Y-74072464D01*
X71134464Y-74074599D01*
X70933693Y-74211044D01*
X70757319Y-74377832D01*
X70754241Y-74381858D01*
X70754240Y-74381859D01*
X70612953Y-74566654D01*
X70612950Y-74566658D01*
X70609880Y-74570674D01*
X70607490Y-74575132D01*
X70607489Y-74575133D01*
X70585829Y-74615528D01*
X70495169Y-74784609D01*
X70416138Y-75014131D01*
X70405638Y-75074919D01*
X70377384Y-75238500D01*
X70374821Y-75253336D01*
X70374641Y-75257297D01*
X70374641Y-75257298D01*
X70373740Y-75277146D01*
X70373500Y-75282425D01*
X70373500Y-77451501D01*
X61913000Y-77451501D01*
X61913000Y-74527595D01*
X64847501Y-74527595D01*
X64847838Y-74534114D01*
X64857757Y-74629706D01*
X64860649Y-74643100D01*
X64912088Y-74797284D01*
X64918261Y-74810462D01*
X65003563Y-74948307D01*
X65012599Y-74959708D01*
X65127329Y-75074239D01*
X65138740Y-75083251D01*
X65276743Y-75168316D01*
X65289924Y-75174463D01*
X65444210Y-75225638D01*
X65457586Y-75228505D01*
X65551938Y-75238172D01*
X65558354Y-75238500D01*
X65958385Y-75238500D01*
X65973624Y-75234025D01*
X65974829Y-75232635D01*
X65976500Y-75224952D01*
X65976500Y-75220384D01*
X66484500Y-75220384D01*
X66488975Y-75235623D01*
X66490365Y-75236828D01*
X66498048Y-75238499D01*
X66902595Y-75238499D01*
X66909114Y-75238162D01*
X67004706Y-75228243D01*
X67018100Y-75225351D01*
X67172284Y-75173912D01*
X67185462Y-75167739D01*
X67323307Y-75082437D01*
X67334708Y-75073401D01*
X67449239Y-74958671D01*
X67458251Y-74947260D01*
X67543316Y-74809257D01*
X67549463Y-74796076D01*
X67600638Y-74641790D01*
X67603505Y-74628414D01*
X67613172Y-74534062D01*
X67613500Y-74527646D01*
X67613500Y-74440115D01*
X67609025Y-74424876D01*
X67607635Y-74423671D01*
X67599952Y-74422000D01*
X66502615Y-74422000D01*
X66487376Y-74426475D01*
X66486171Y-74427865D01*
X66484500Y-74435548D01*
X66484500Y-75220384D01*
X65976500Y-75220384D01*
X65976500Y-74440115D01*
X65972025Y-74424876D01*
X65970635Y-74423671D01*
X65962952Y-74422000D01*
X64865616Y-74422000D01*
X64850377Y-74426475D01*
X64849172Y-74427865D01*
X64847501Y-74435548D01*
X64847501Y-74527595D01*
X61913000Y-74527595D01*
X61913000Y-73895885D01*
X64847500Y-73895885D01*
X64851975Y-73911124D01*
X64853365Y-73912329D01*
X64861048Y-73914000D01*
X65958385Y-73914000D01*
X65973624Y-73909525D01*
X65974829Y-73908135D01*
X65976500Y-73900452D01*
X65976500Y-73895885D01*
X66484500Y-73895885D01*
X66488975Y-73911124D01*
X66490365Y-73912329D01*
X66498048Y-73914000D01*
X67595384Y-73914000D01*
X67610623Y-73909525D01*
X67611828Y-73908135D01*
X67613499Y-73900452D01*
X67613499Y-73808405D01*
X67613162Y-73801886D01*
X67603243Y-73706294D01*
X67600351Y-73692900D01*
X67548912Y-73538716D01*
X67542739Y-73525538D01*
X67457437Y-73387693D01*
X67448401Y-73376292D01*
X67396783Y-73324764D01*
X74224179Y-73324764D01*
X74225302Y-73338825D01*
X74235410Y-73342500D01*
X76435885Y-73342500D01*
X76451124Y-73338025D01*
X76452329Y-73336635D01*
X76454000Y-73328952D01*
X76454000Y-73324385D01*
X76962000Y-73324385D01*
X76966475Y-73339624D01*
X76967865Y-73340829D01*
X76975548Y-73342500D01*
X79178590Y-73342500D01*
X79192676Y-73338364D01*
X79194725Y-73325386D01*
X79192675Y-73307670D01*
X79190715Y-73297773D01*
X79127396Y-73074006D01*
X79123884Y-73064562D01*
X79025601Y-72853795D01*
X79020622Y-72845029D01*
X78889913Y-72652698D01*
X78883581Y-72644823D01*
X78723814Y-72475874D01*
X78716305Y-72469113D01*
X78531574Y-72327875D01*
X78523095Y-72322411D01*
X78318153Y-72212522D01*
X78308901Y-72208480D01*
X78089029Y-72132773D01*
X78079257Y-72130264D01*
X77849029Y-72090496D01*
X77841157Y-72089641D01*
X77817449Y-72088564D01*
X77814616Y-72088500D01*
X76980115Y-72088500D01*
X76964876Y-72092975D01*
X76963671Y-72094365D01*
X76962000Y-72102048D01*
X76962000Y-73324385D01*
X76454000Y-73324385D01*
X76454000Y-72106615D01*
X76449525Y-72091376D01*
X76448135Y-72090171D01*
X76440452Y-72088500D01*
X75649544Y-72088500D01*
X75644512Y-72088702D01*
X75471157Y-72102650D01*
X75461204Y-72104262D01*
X75235367Y-72159733D01*
X75225797Y-72162916D01*
X75011735Y-72253780D01*
X75002793Y-72258455D01*
X74806013Y-72382374D01*
X74797940Y-72388414D01*
X74623500Y-72542203D01*
X74616496Y-72549456D01*
X74468890Y-72729154D01*
X74463134Y-72737436D01*
X74346159Y-72938419D01*
X74341797Y-72947524D01*
X74258463Y-73164615D01*
X74255612Y-73174304D01*
X74224179Y-73324764D01*
X67396783Y-73324764D01*
X67333671Y-73261761D01*
X67322260Y-73252749D01*
X67184257Y-73167684D01*
X67171076Y-73161537D01*
X67016790Y-73110362D01*
X67003414Y-73107495D01*
X66909062Y-73097828D01*
X66902645Y-73097500D01*
X66502615Y-73097500D01*
X66487376Y-73101975D01*
X66486171Y-73103365D01*
X66484500Y-73111048D01*
X66484500Y-73895885D01*
X65976500Y-73895885D01*
X65976500Y-73115616D01*
X65972025Y-73100377D01*
X65970635Y-73099172D01*
X65962952Y-73097501D01*
X65558405Y-73097501D01*
X65551886Y-73097838D01*
X65456294Y-73107757D01*
X65442900Y-73110649D01*
X65288716Y-73162088D01*
X65275538Y-73168261D01*
X65137693Y-73253563D01*
X65126292Y-73262599D01*
X65011761Y-73377329D01*
X65002749Y-73388740D01*
X64917684Y-73526743D01*
X64911537Y-73539924D01*
X64860362Y-73694210D01*
X64857495Y-73707586D01*
X64847828Y-73801938D01*
X64847500Y-73808355D01*
X64847500Y-73895885D01*
X61913000Y-73895885D01*
X61913000Y-67369134D01*
X64314000Y-67369134D01*
X64320755Y-67431316D01*
X64371885Y-67567705D01*
X64459239Y-67684261D01*
X64575795Y-67771615D01*
X64712184Y-67822745D01*
X64774366Y-67829500D01*
X64813000Y-67829500D01*
X64881121Y-67849502D01*
X64927614Y-67903158D01*
X64939000Y-67955500D01*
X64939000Y-70530493D01*
X64920259Y-70596610D01*
X64917970Y-70600324D01*
X64913385Y-70607762D01*
X64905187Y-70632478D01*
X64871741Y-70733317D01*
X64857703Y-70775639D01*
X64847000Y-70880100D01*
X64847000Y-71605900D01*
X64847337Y-71609146D01*
X64847337Y-71609150D01*
X64856271Y-71695248D01*
X64857974Y-71711666D01*
X64860155Y-71718202D01*
X64860155Y-71718204D01*
X64893741Y-71818872D01*
X64913950Y-71879446D01*
X65007022Y-72029848D01*
X65132197Y-72154805D01*
X65138427Y-72158645D01*
X65138428Y-72158646D01*
X65275590Y-72243194D01*
X65282762Y-72247615D01*
X65315444Y-72258455D01*
X65444111Y-72301132D01*
X65444113Y-72301132D01*
X65450639Y-72303297D01*
X65457475Y-72303997D01*
X65457478Y-72303998D01*
X65500531Y-72308409D01*
X65555100Y-72314000D01*
X66905900Y-72314000D01*
X66909146Y-72313663D01*
X66909150Y-72313663D01*
X67004808Y-72303738D01*
X67004812Y-72303737D01*
X67011666Y-72303026D01*
X67018202Y-72300845D01*
X67018204Y-72300845D01*
X67159274Y-72253780D01*
X67179446Y-72247050D01*
X67329848Y-72153978D01*
X67454805Y-72028803D01*
X67529027Y-71908393D01*
X67543775Y-71884468D01*
X67543776Y-71884466D01*
X67547615Y-71878238D01*
X67603297Y-71710361D01*
X67604846Y-71695248D01*
X67613672Y-71609098D01*
X67614000Y-71605900D01*
X67614000Y-70880100D01*
X67613118Y-70871595D01*
X83047001Y-70871595D01*
X83047338Y-70878114D01*
X83057257Y-70973706D01*
X83060149Y-70987100D01*
X83111588Y-71141284D01*
X83117761Y-71154462D01*
X83203063Y-71292307D01*
X83212099Y-71303708D01*
X83326829Y-71418239D01*
X83338240Y-71427251D01*
X83476243Y-71512316D01*
X83489424Y-71518463D01*
X83643710Y-71569638D01*
X83657086Y-71572505D01*
X83751438Y-71582172D01*
X83757854Y-71582500D01*
X84182885Y-71582500D01*
X84198124Y-71578025D01*
X84199329Y-71576635D01*
X84201000Y-71568952D01*
X84201000Y-71564384D01*
X84709000Y-71564384D01*
X84713475Y-71579623D01*
X84714865Y-71580828D01*
X84722548Y-71582499D01*
X85152095Y-71582499D01*
X85158614Y-71582162D01*
X85254206Y-71572243D01*
X85267600Y-71569351D01*
X85421784Y-71517912D01*
X85434962Y-71511739D01*
X85572807Y-71426437D01*
X85584208Y-71417401D01*
X85698739Y-71302671D01*
X85707751Y-71291260D01*
X85792816Y-71153257D01*
X85798963Y-71140076D01*
X85850138Y-70985790D01*
X85853005Y-70972414D01*
X85862672Y-70878062D01*
X85863000Y-70871646D01*
X85863000Y-70771615D01*
X85858525Y-70756376D01*
X85857135Y-70755171D01*
X85849452Y-70753500D01*
X84727115Y-70753500D01*
X84711876Y-70757975D01*
X84710671Y-70759365D01*
X84709000Y-70767048D01*
X84709000Y-71564384D01*
X84201000Y-71564384D01*
X84201000Y-70771615D01*
X84196525Y-70756376D01*
X84195135Y-70755171D01*
X84187452Y-70753500D01*
X83065116Y-70753500D01*
X83049877Y-70757975D01*
X83048672Y-70759365D01*
X83047001Y-70767048D01*
X83047001Y-70871595D01*
X67613118Y-70871595D01*
X67604799Y-70791419D01*
X67603738Y-70781192D01*
X67603737Y-70781188D01*
X67603026Y-70774334D01*
X67588269Y-70730100D01*
X67549368Y-70613502D01*
X67547050Y-70606554D01*
X67453978Y-70456152D01*
X67328803Y-70331195D01*
X67320168Y-70325872D01*
X67184468Y-70242225D01*
X67184466Y-70242224D01*
X67178238Y-70238385D01*
X67145074Y-70227385D01*
X83047000Y-70227385D01*
X83051475Y-70242624D01*
X83052865Y-70243829D01*
X83060548Y-70245500D01*
X84182885Y-70245500D01*
X84198124Y-70241025D01*
X84199329Y-70239635D01*
X84201000Y-70231952D01*
X84201000Y-69434616D01*
X84196525Y-69419377D01*
X84195135Y-69418172D01*
X84187452Y-69416501D01*
X83757905Y-69416501D01*
X83751386Y-69416838D01*
X83655794Y-69426757D01*
X83642400Y-69429649D01*
X83488216Y-69481088D01*
X83475038Y-69487261D01*
X83337193Y-69572563D01*
X83325792Y-69581599D01*
X83211261Y-69696329D01*
X83202249Y-69707740D01*
X83117184Y-69845743D01*
X83111037Y-69858924D01*
X83059862Y-70013210D01*
X83056995Y-70026586D01*
X83047328Y-70120938D01*
X83047000Y-70127355D01*
X83047000Y-70227385D01*
X67145074Y-70227385D01*
X67070681Y-70202710D01*
X67016889Y-70184868D01*
X67016887Y-70184868D01*
X67010361Y-70182703D01*
X67003525Y-70182003D01*
X67003522Y-70182002D01*
X66960469Y-70177591D01*
X66905900Y-70172000D01*
X66632000Y-70172000D01*
X66563879Y-70151998D01*
X66517386Y-70098342D01*
X66506000Y-70046000D01*
X66506000Y-67955500D01*
X66526002Y-67887379D01*
X66579658Y-67840886D01*
X66632000Y-67829500D01*
X66670634Y-67829500D01*
X66732816Y-67822745D01*
X66869205Y-67771615D01*
X66985761Y-67684261D01*
X67073115Y-67567705D01*
X67097680Y-67502178D01*
X67140322Y-67445414D01*
X67206883Y-67420714D01*
X67276232Y-67435921D01*
X67296147Y-67449464D01*
X67396714Y-67532956D01*
X67451849Y-67578730D01*
X67651822Y-67695584D01*
X67656647Y-67697426D01*
X67656648Y-67697427D01*
X67731165Y-67725883D01*
X67868194Y-67778209D01*
X67873260Y-67779240D01*
X67873261Y-67779240D01*
X67925057Y-67789778D01*
X68095156Y-67824385D01*
X68224589Y-67829131D01*
X68321449Y-67832683D01*
X68321453Y-67832683D01*
X68326613Y-67832872D01*
X68331733Y-67832216D01*
X68331735Y-67832216D01*
X68405666Y-67822745D01*
X68556347Y-67803442D01*
X68561295Y-67801957D01*
X68561302Y-67801956D01*
X68773247Y-67738369D01*
X68778190Y-67736886D01*
X68811336Y-67720648D01*
X68981549Y-67637262D01*
X68981552Y-67637260D01*
X68986184Y-67634991D01*
X69174743Y-67500494D01*
X69338803Y-67337005D01*
X69396313Y-67256972D01*
X69452305Y-67213326D01*
X69498633Y-67204500D01*
X70250231Y-67204500D01*
X70318352Y-67224502D01*
X70364845Y-67278158D01*
X70375825Y-67320394D01*
X70377402Y-67339994D01*
X70387007Y-67459374D01*
X70388060Y-67472465D01*
X70389266Y-67477373D01*
X70389266Y-67477376D01*
X70402832Y-67532607D01*
X70445963Y-67708206D01*
X70447938Y-67712858D01*
X70447939Y-67712862D01*
X70486388Y-67803442D01*
X70540812Y-67931656D01*
X70670167Y-68137067D01*
X70704403Y-68175900D01*
X70827350Y-68315358D01*
X70827353Y-68315361D01*
X70830698Y-68319155D01*
X70834606Y-68322365D01*
X70834607Y-68322366D01*
X71012678Y-68468634D01*
X71018278Y-68473234D01*
X71022646Y-68475776D01*
X71182681Y-68568919D01*
X71228078Y-68595341D01*
X71232801Y-68597154D01*
X71449978Y-68680520D01*
X71449982Y-68680521D01*
X71454702Y-68682333D01*
X71459652Y-68683367D01*
X71459655Y-68683368D01*
X71687369Y-68730940D01*
X71687373Y-68730940D01*
X71692320Y-68731974D01*
X71934817Y-68742986D01*
X71939837Y-68742405D01*
X71939841Y-68742405D01*
X72170929Y-68715667D01*
X72170933Y-68715666D01*
X72175956Y-68715085D01*
X72180820Y-68713709D01*
X72180823Y-68713708D01*
X72404669Y-68650366D01*
X72404668Y-68650366D01*
X72409532Y-68648990D01*
X72414108Y-68646856D01*
X72414114Y-68646854D01*
X72624954Y-68548538D01*
X72624958Y-68548536D01*
X72629536Y-68546401D01*
X72830307Y-68409956D01*
X73006681Y-68243168D01*
X73055627Y-68179150D01*
X73151047Y-68054346D01*
X73151050Y-68054342D01*
X73154120Y-68050326D01*
X73268831Y-67836391D01*
X73347862Y-67606869D01*
X73374506Y-67452613D01*
X73388504Y-67371574D01*
X73388505Y-67371568D01*
X73389179Y-67367664D01*
X73389359Y-67363702D01*
X73390436Y-67339994D01*
X73390436Y-67339975D01*
X73390500Y-67338575D01*
X73390500Y-67140000D01*
X73410502Y-67071879D01*
X73464158Y-67025386D01*
X73516500Y-67014000D01*
X76456274Y-67014000D01*
X76524395Y-67034002D01*
X76545369Y-67050905D01*
X76842543Y-67348079D01*
X76912449Y-67418475D01*
X76913459Y-67419116D01*
X76914632Y-67420168D01*
X76995096Y-67500633D01*
X77029121Y-67562946D01*
X77032000Y-67589728D01*
X77032000Y-68175900D01*
X77032337Y-68179146D01*
X77032337Y-68179150D01*
X77039341Y-68246648D01*
X77042974Y-68281666D01*
X77045155Y-68288202D01*
X77045155Y-68288204D01*
X77072556Y-68370333D01*
X77098950Y-68449446D01*
X77192022Y-68599848D01*
X77317197Y-68724805D01*
X77323427Y-68728645D01*
X77323428Y-68728646D01*
X77460590Y-68813194D01*
X77467762Y-68817615D01*
X77529631Y-68838136D01*
X77629111Y-68871132D01*
X77629113Y-68871132D01*
X77635639Y-68873297D01*
X77642475Y-68873997D01*
X77642478Y-68873998D01*
X77685531Y-68878409D01*
X77740100Y-68884000D01*
X78465900Y-68884000D01*
X78469146Y-68883663D01*
X78469150Y-68883663D01*
X78564808Y-68873738D01*
X78564812Y-68873737D01*
X78571666Y-68873026D01*
X78578202Y-68870845D01*
X78578204Y-68870845D01*
X78710306Y-68826772D01*
X78739446Y-68817050D01*
X78889848Y-68723978D01*
X79014805Y-68598803D01*
X79055837Y-68532237D01*
X79103775Y-68454468D01*
X79103776Y-68454466D01*
X79107615Y-68448238D01*
X79163297Y-68280361D01*
X79174000Y-68175900D01*
X79957000Y-68175900D01*
X79957337Y-68179146D01*
X79957337Y-68179150D01*
X79964341Y-68246648D01*
X79967974Y-68281666D01*
X79970155Y-68288202D01*
X79970155Y-68288204D01*
X79997556Y-68370333D01*
X80023950Y-68449446D01*
X80117022Y-68599848D01*
X80242197Y-68724805D01*
X80248427Y-68728645D01*
X80248428Y-68728646D01*
X80385590Y-68813194D01*
X80392762Y-68817615D01*
X80454631Y-68838136D01*
X80554111Y-68871132D01*
X80554113Y-68871132D01*
X80560639Y-68873297D01*
X80567475Y-68873997D01*
X80567478Y-68873998D01*
X80610531Y-68878409D01*
X80665100Y-68884000D01*
X81390900Y-68884000D01*
X81394146Y-68883663D01*
X81394150Y-68883663D01*
X81489808Y-68873738D01*
X81489812Y-68873737D01*
X81496666Y-68873026D01*
X81503202Y-68870845D01*
X81503204Y-68870845D01*
X81635306Y-68826772D01*
X81664446Y-68817050D01*
X81814848Y-68723978D01*
X81939805Y-68598803D01*
X81980837Y-68532237D01*
X82028775Y-68454468D01*
X82028776Y-68454466D01*
X82032615Y-68448238D01*
X82058455Y-68370333D01*
X82098886Y-68311973D01*
X82164450Y-68284736D01*
X82178048Y-68284000D01*
X83096190Y-68284000D01*
X83164311Y-68304002D01*
X83197292Y-68337548D01*
X83198125Y-68336888D01*
X83202668Y-68342620D01*
X83206522Y-68348848D01*
X83331697Y-68473805D01*
X83337927Y-68477645D01*
X83337928Y-68477646D01*
X83452936Y-68548538D01*
X83482262Y-68566615D01*
X83560520Y-68592572D01*
X83643611Y-68620132D01*
X83643613Y-68620132D01*
X83650139Y-68622297D01*
X83656975Y-68622997D01*
X83656978Y-68622998D01*
X83700031Y-68627409D01*
X83754600Y-68633000D01*
X84378274Y-68633000D01*
X84446395Y-68653002D01*
X84467369Y-68669905D01*
X84998581Y-69201117D01*
X84999514Y-69202059D01*
X84999796Y-69202347D01*
X85033164Y-69265014D01*
X85027354Y-69335773D01*
X84984211Y-69392157D01*
X84917433Y-69416267D01*
X84909768Y-69416500D01*
X84727115Y-69416500D01*
X84711876Y-69420975D01*
X84710671Y-69422365D01*
X84709000Y-69430048D01*
X84709000Y-70227385D01*
X84713475Y-70242624D01*
X84714865Y-70243829D01*
X84722548Y-70245500D01*
X85844884Y-70245500D01*
X85860123Y-70241025D01*
X85861328Y-70239635D01*
X85862999Y-70231952D01*
X85862999Y-70127405D01*
X85862662Y-70120886D01*
X85852743Y-70025294D01*
X85849851Y-70011900D01*
X85798412Y-69857716D01*
X85792239Y-69844538D01*
X85706937Y-69706693D01*
X85697901Y-69695292D01*
X85654707Y-69652173D01*
X85620628Y-69589890D01*
X85625631Y-69519070D01*
X85668128Y-69462197D01*
X85734627Y-69437329D01*
X85743725Y-69437000D01*
X88472274Y-69437000D01*
X88540395Y-69457002D01*
X88586888Y-69510658D01*
X88596992Y-69580932D01*
X88567498Y-69645512D01*
X88561369Y-69652095D01*
X87336383Y-70877081D01*
X87335445Y-70878010D01*
X87272989Y-70939171D01*
X87269172Y-70945093D01*
X87269170Y-70945096D01*
X87250335Y-70974322D01*
X87242907Y-70984661D01*
X87216812Y-71017350D01*
X87213746Y-71023692D01*
X87213743Y-71023697D01*
X87202773Y-71046390D01*
X87195247Y-71059802D01*
X87181586Y-71081000D01*
X87181584Y-71081005D01*
X87177769Y-71086924D01*
X87175360Y-71093544D01*
X87163469Y-71126215D01*
X87158506Y-71137963D01*
X87151113Y-71153257D01*
X87140309Y-71175605D01*
X87133051Y-71207044D01*
X87128685Y-71221780D01*
X87125269Y-71231167D01*
X87117650Y-71252100D01*
X87116767Y-71259086D01*
X87116767Y-71259088D01*
X87112410Y-71293579D01*
X87110175Y-71306131D01*
X87100768Y-71346877D01*
X87100743Y-71353917D01*
X87100743Y-71353920D01*
X87100630Y-71386204D01*
X87100602Y-71387041D01*
X87100500Y-71387854D01*
X87100500Y-71423600D01*
X87100154Y-71522653D01*
X87100415Y-71523821D01*
X87100500Y-71525389D01*
X87100500Y-73778327D01*
X87080498Y-73846448D01*
X87045324Y-73882538D01*
X86935693Y-73957044D01*
X86759319Y-74123832D01*
X86732801Y-74158516D01*
X86675539Y-74200481D01*
X86604676Y-74204827D01*
X86538193Y-74165310D01*
X86438297Y-74052000D01*
X86431044Y-74044996D01*
X86251346Y-73897390D01*
X86243064Y-73891634D01*
X86042081Y-73774659D01*
X86032976Y-73770297D01*
X85815885Y-73686963D01*
X85806196Y-73684112D01*
X85655736Y-73652679D01*
X85641675Y-73653802D01*
X85638000Y-73663910D01*
X85638000Y-78607090D01*
X85642136Y-78621176D01*
X85655114Y-78623225D01*
X85672830Y-78621175D01*
X85682727Y-78619215D01*
X85906494Y-78555896D01*
X85915938Y-78552384D01*
X86126705Y-78454101D01*
X86135471Y-78449122D01*
X86327802Y-78318413D01*
X86335677Y-78312081D01*
X86504626Y-78152314D01*
X86511382Y-78144811D01*
X86534550Y-78114508D01*
X86591815Y-78072541D01*
X86662678Y-78068196D01*
X86729159Y-78107713D01*
X86738097Y-78117850D01*
X86829350Y-78221358D01*
X86829353Y-78221361D01*
X86832698Y-78225155D01*
X86836606Y-78228365D01*
X86836607Y-78228366D01*
X86946233Y-78318413D01*
X87020278Y-78379234D01*
X87067380Y-78406648D01*
X87224924Y-78498341D01*
X87230078Y-78501341D01*
X87234801Y-78503154D01*
X87451978Y-78586520D01*
X87451982Y-78586521D01*
X87456702Y-78588333D01*
X87461652Y-78589367D01*
X87461655Y-78589368D01*
X87689369Y-78636940D01*
X87689373Y-78636940D01*
X87694320Y-78637974D01*
X87936817Y-78648986D01*
X87941837Y-78648405D01*
X87941841Y-78648405D01*
X88172929Y-78621667D01*
X88172933Y-78621666D01*
X88177956Y-78621085D01*
X88182820Y-78619709D01*
X88182823Y-78619708D01*
X88406669Y-78556366D01*
X88406668Y-78556366D01*
X88411532Y-78554990D01*
X88416108Y-78552856D01*
X88416114Y-78552854D01*
X88626954Y-78454538D01*
X88626958Y-78454536D01*
X88631536Y-78452401D01*
X88681620Y-78418364D01*
X88743917Y-78376026D01*
X88832307Y-78315956D01*
X89008681Y-78149168D01*
X89030141Y-78121100D01*
X89153047Y-77960346D01*
X89153050Y-77960342D01*
X89156120Y-77956326D01*
X89270831Y-77742391D01*
X89349862Y-77512869D01*
X89384426Y-77312762D01*
X89390504Y-77277574D01*
X89390505Y-77277568D01*
X89391179Y-77273664D01*
X89391359Y-77269702D01*
X89392436Y-77245994D01*
X89392436Y-77245975D01*
X89392500Y-77244575D01*
X89392500Y-75075499D01*
X89390801Y-75054377D01*
X89378346Y-74899576D01*
X89378345Y-74899571D01*
X89377940Y-74894535D01*
X89370534Y-74864380D01*
X89321244Y-74663708D01*
X89320037Y-74658794D01*
X89316643Y-74650797D01*
X89227165Y-74440002D01*
X89225188Y-74435344D01*
X89117741Y-74264722D01*
X89098528Y-74234212D01*
X89098526Y-74234209D01*
X89095833Y-74229933D01*
X88998028Y-74118994D01*
X88938650Y-74051642D01*
X88938647Y-74051639D01*
X88935302Y-74047845D01*
X88882671Y-74004614D01*
X92255275Y-74004614D01*
X92257325Y-74022330D01*
X92259285Y-74032227D01*
X92322604Y-74255994D01*
X92326116Y-74265438D01*
X92424399Y-74476205D01*
X92429378Y-74484971D01*
X92560087Y-74677302D01*
X92566419Y-74685177D01*
X92726186Y-74854126D01*
X92733695Y-74860887D01*
X92918426Y-75002125D01*
X92926905Y-75007589D01*
X93131847Y-75117478D01*
X93141099Y-75121520D01*
X93360971Y-75197227D01*
X93370743Y-75199736D01*
X93600971Y-75239504D01*
X93608843Y-75240359D01*
X93632551Y-75241436D01*
X93635384Y-75241500D01*
X94469885Y-75241500D01*
X94485124Y-75237025D01*
X94486329Y-75235635D01*
X94488000Y-75227952D01*
X94488000Y-75223385D01*
X94996000Y-75223385D01*
X95000475Y-75238624D01*
X95001865Y-75239829D01*
X95009548Y-75241500D01*
X95800456Y-75241500D01*
X95805488Y-75241298D01*
X95978843Y-75227350D01*
X95988796Y-75225738D01*
X96214633Y-75170267D01*
X96224203Y-75167084D01*
X96438265Y-75076220D01*
X96447207Y-75071545D01*
X96643987Y-74947626D01*
X96652060Y-74941586D01*
X96826500Y-74787797D01*
X96833504Y-74780544D01*
X96981110Y-74600846D01*
X96986866Y-74592564D01*
X97103841Y-74391581D01*
X97108203Y-74382476D01*
X97191537Y-74165385D01*
X97194388Y-74155696D01*
X97225821Y-74005236D01*
X97224698Y-73991175D01*
X97214590Y-73987500D01*
X95014115Y-73987500D01*
X94998876Y-73991975D01*
X94997671Y-73993365D01*
X94996000Y-74001048D01*
X94996000Y-75223385D01*
X94488000Y-75223385D01*
X94488000Y-74005615D01*
X94483525Y-73990376D01*
X94482135Y-73989171D01*
X94474452Y-73987500D01*
X92271410Y-73987500D01*
X92257324Y-73991636D01*
X92255275Y-74004614D01*
X88882671Y-74004614D01*
X88747722Y-73893766D01*
X88730118Y-73883520D01*
X88681306Y-73831969D01*
X88667500Y-73774623D01*
X88667500Y-71814226D01*
X88687502Y-71746105D01*
X88704405Y-71725131D01*
X90955631Y-69473905D01*
X91017943Y-69439879D01*
X91044726Y-69437000D01*
X92383827Y-69437000D01*
X92451948Y-69457002D01*
X92488038Y-69492176D01*
X92562544Y-69601807D01*
X92729332Y-69778181D01*
X92733358Y-69781259D01*
X92733359Y-69781260D01*
X92787907Y-69822965D01*
X92829875Y-69880230D01*
X92834220Y-69951093D01*
X92794703Y-70017575D01*
X92657142Y-70138850D01*
X92657139Y-70138853D01*
X92653345Y-70142198D01*
X92650135Y-70146106D01*
X92650134Y-70146107D01*
X92505965Y-70321623D01*
X92499266Y-70329778D01*
X92446110Y-70421109D01*
X92382447Y-70530493D01*
X92377159Y-70539578D01*
X92375346Y-70544301D01*
X92293939Y-70756376D01*
X92290167Y-70766202D01*
X92289133Y-70771152D01*
X92289132Y-70771155D01*
X92244293Y-70985790D01*
X92240526Y-71003820D01*
X92229514Y-71246317D01*
X92230095Y-71251337D01*
X92230095Y-71251341D01*
X92256279Y-71477634D01*
X92257415Y-71487456D01*
X92258791Y-71492320D01*
X92258792Y-71492323D01*
X92289819Y-71601971D01*
X92323510Y-71721032D01*
X92325644Y-71725608D01*
X92325646Y-71725614D01*
X92412700Y-71912302D01*
X92426099Y-71941036D01*
X92562544Y-72141807D01*
X92729332Y-72318181D01*
X92788315Y-72363277D01*
X92830281Y-72420539D01*
X92834626Y-72491403D01*
X92795109Y-72557885D01*
X92657500Y-72679203D01*
X92650496Y-72686456D01*
X92502890Y-72866154D01*
X92497134Y-72874436D01*
X92380159Y-73075419D01*
X92375797Y-73084524D01*
X92292463Y-73301615D01*
X92289612Y-73311304D01*
X92258179Y-73461764D01*
X92259302Y-73475825D01*
X92269410Y-73479500D01*
X97212590Y-73479500D01*
X97226676Y-73475364D01*
X97228725Y-73462386D01*
X97226675Y-73444670D01*
X97224715Y-73434773D01*
X97161396Y-73211006D01*
X97157884Y-73201562D01*
X97059601Y-72990795D01*
X97054622Y-72982029D01*
X96923913Y-72789698D01*
X96917581Y-72781823D01*
X96757814Y-72612874D01*
X96750305Y-72606113D01*
X96695710Y-72564372D01*
X96653742Y-72507107D01*
X96649397Y-72436244D01*
X96688913Y-72369763D01*
X96794906Y-72276319D01*
X96826858Y-72248150D01*
X96826861Y-72248147D01*
X96830655Y-72244802D01*
X96866932Y-72200638D01*
X96888590Y-72174270D01*
X96984734Y-72057222D01*
X96994980Y-72039618D01*
X97046531Y-71990806D01*
X97103877Y-71977000D01*
X97550274Y-71977000D01*
X97618395Y-71997002D01*
X97639369Y-72013905D01*
X99382595Y-73757131D01*
X99416621Y-73819443D01*
X99419500Y-73846226D01*
X99419500Y-79294000D01*
X99399498Y-79362121D01*
X99345842Y-79408614D01*
X99293500Y-79420000D01*
X98740600Y-79420000D01*
X98737354Y-79420337D01*
X98737350Y-79420337D01*
X98641692Y-79430262D01*
X98641688Y-79430263D01*
X98634834Y-79430974D01*
X98628298Y-79433155D01*
X98628296Y-79433155D01*
X98517973Y-79469962D01*
X98467054Y-79486950D01*
X98316652Y-79580022D01*
X98191695Y-79705197D01*
X98187855Y-79711427D01*
X98187854Y-79711428D01*
X98102057Y-79850616D01*
X98049285Y-79898109D01*
X97994797Y-79910500D01*
X95931480Y-79910500D01*
X95863359Y-79890498D01*
X95842462Y-79873673D01*
X95809842Y-79841109D01*
X95738303Y-79769695D01*
X95643777Y-79711428D01*
X95593968Y-79680725D01*
X95593966Y-79680724D01*
X95587738Y-79676885D01*
X95495653Y-79646342D01*
X95426389Y-79623368D01*
X95426387Y-79623368D01*
X95419861Y-79621203D01*
X95413025Y-79620503D01*
X95413022Y-79620502D01*
X95369969Y-79616091D01*
X95315400Y-79610500D01*
X93914600Y-79610500D01*
X93911354Y-79610837D01*
X93911350Y-79610837D01*
X93815692Y-79620762D01*
X93815688Y-79620763D01*
X93808834Y-79621474D01*
X93802298Y-79623655D01*
X93802296Y-79623655D01*
X93708947Y-79654799D01*
X93641054Y-79677450D01*
X93490652Y-79770522D01*
X93365695Y-79895697D01*
X93361855Y-79901927D01*
X93361854Y-79901928D01*
X93292436Y-80014545D01*
X93272885Y-80046262D01*
X93217203Y-80214139D01*
X93206500Y-80318600D01*
X93206500Y-81069400D01*
X93217474Y-81175166D01*
X93219655Y-81181702D01*
X93219655Y-81181704D01*
X93230676Y-81214738D01*
X93273450Y-81342946D01*
X93366522Y-81493348D01*
X93491697Y-81618305D01*
X93497927Y-81622145D01*
X93497928Y-81622146D01*
X93635090Y-81706694D01*
X93642262Y-81711115D01*
X93722005Y-81737564D01*
X93803611Y-81764632D01*
X93803613Y-81764632D01*
X93810139Y-81766797D01*
X93816975Y-81767497D01*
X93816978Y-81767498D01*
X93859944Y-81771900D01*
X93914600Y-81777500D01*
X95315400Y-81777500D01*
X95318646Y-81777163D01*
X95318650Y-81777163D01*
X95414308Y-81767238D01*
X95414312Y-81767237D01*
X95421166Y-81766526D01*
X95427702Y-81764345D01*
X95427704Y-81764345D01*
X95559806Y-81720272D01*
X95588946Y-81710550D01*
X95739348Y-81617478D01*
X95782905Y-81573845D01*
X95842165Y-81514482D01*
X95904448Y-81480403D01*
X95931338Y-81477500D01*
X98362603Y-81477500D01*
X98428720Y-81496241D01*
X98462030Y-81516774D01*
X98462033Y-81516776D01*
X98468262Y-81520615D01*
X98548005Y-81547064D01*
X98629611Y-81574132D01*
X98629613Y-81574132D01*
X98636139Y-81576297D01*
X98642975Y-81576997D01*
X98642978Y-81576998D01*
X98686031Y-81581409D01*
X98740600Y-81587000D01*
X100141400Y-81587000D01*
X100144646Y-81586663D01*
X100144650Y-81586663D01*
X100240308Y-81576738D01*
X100240312Y-81576737D01*
X100247166Y-81576026D01*
X100253702Y-81573845D01*
X100253704Y-81573845D01*
X100385806Y-81529772D01*
X100414946Y-81520050D01*
X100565348Y-81426978D01*
X100570521Y-81421796D01*
X100668165Y-81323982D01*
X100730448Y-81289903D01*
X100757338Y-81287000D01*
X103241718Y-81287000D01*
X103309839Y-81307002D01*
X103348863Y-81346699D01*
X103361022Y-81366348D01*
X103486197Y-81491305D01*
X103492427Y-81495145D01*
X103492428Y-81495146D01*
X103629590Y-81579694D01*
X103636762Y-81584115D01*
X103716505Y-81610564D01*
X103798111Y-81637632D01*
X103798113Y-81637632D01*
X103804639Y-81639797D01*
X103811475Y-81640497D01*
X103811478Y-81640498D01*
X103854531Y-81644909D01*
X103909100Y-81650500D01*
X105259900Y-81650500D01*
X105263146Y-81650163D01*
X105263150Y-81650163D01*
X105358808Y-81640238D01*
X105358812Y-81640237D01*
X105365666Y-81639526D01*
X105372202Y-81637345D01*
X105372204Y-81637345D01*
X105524115Y-81586663D01*
X105533446Y-81583550D01*
X105683848Y-81490478D01*
X105808805Y-81365303D01*
X105834276Y-81323982D01*
X105897775Y-81220968D01*
X105897776Y-81220966D01*
X105901615Y-81214738D01*
X105949821Y-81069400D01*
X105955132Y-81053389D01*
X105955132Y-81053387D01*
X105957297Y-81046861D01*
X105968000Y-80942400D01*
X105968000Y-80216600D01*
X105967663Y-80213350D01*
X105957738Y-80117692D01*
X105957737Y-80117688D01*
X105957026Y-80110834D01*
X105950577Y-80091502D01*
X105903368Y-79950002D01*
X105901050Y-79943054D01*
X105807978Y-79792652D01*
X105682803Y-79667695D01*
X105648162Y-79646342D01*
X105538468Y-79578725D01*
X105538466Y-79578724D01*
X105532238Y-79574885D01*
X105440018Y-79544297D01*
X105370889Y-79521368D01*
X105370887Y-79521368D01*
X105364361Y-79519203D01*
X105357525Y-79518503D01*
X105357522Y-79518502D01*
X105314469Y-79514091D01*
X105259900Y-79508500D01*
X103909100Y-79508500D01*
X103905854Y-79508837D01*
X103905850Y-79508837D01*
X103810192Y-79518762D01*
X103810188Y-79518763D01*
X103803334Y-79519474D01*
X103796798Y-79521655D01*
X103796796Y-79521655D01*
X103697860Y-79554663D01*
X103635554Y-79575450D01*
X103485152Y-79668522D01*
X103470680Y-79683020D01*
X103408398Y-79717097D01*
X103381509Y-79720000D01*
X101112500Y-79720000D01*
X101044379Y-79699998D01*
X100997886Y-79646342D01*
X100986500Y-79594000D01*
X100986500Y-73478453D01*
X100986507Y-73477133D01*
X100987348Y-73396868D01*
X100987422Y-73389822D01*
X100978586Y-73348955D01*
X100976525Y-73336372D01*
X100973336Y-73307943D01*
X100971864Y-73294818D01*
X100969546Y-73288163D01*
X100969545Y-73288157D01*
X100961256Y-73264354D01*
X100957093Y-73249545D01*
X100951764Y-73224899D01*
X100951763Y-73224895D01*
X100950275Y-73218014D01*
X100932598Y-73180105D01*
X100927816Y-73168329D01*
X100914057Y-73128819D01*
X100896962Y-73101461D01*
X100889623Y-73087944D01*
X100878964Y-73065085D01*
X100878962Y-73065082D01*
X100875989Y-73058706D01*
X100858440Y-73036081D01*
X100850360Y-73025665D01*
X100843071Y-73015217D01*
X100820909Y-72979751D01*
X100793181Y-72951828D01*
X100792627Y-72951236D01*
X100792123Y-72950587D01*
X100766971Y-72925435D01*
X100697051Y-72855025D01*
X100696041Y-72854384D01*
X100694862Y-72853326D01*
X98487419Y-70645883D01*
X98486490Y-70644945D01*
X98464128Y-70622110D01*
X98425329Y-70582489D01*
X98419407Y-70578672D01*
X98419404Y-70578670D01*
X98390178Y-70559835D01*
X98379839Y-70552407D01*
X98347150Y-70526312D01*
X98340808Y-70523246D01*
X98340803Y-70523243D01*
X98318110Y-70512273D01*
X98304698Y-70504747D01*
X98283500Y-70491086D01*
X98283495Y-70491084D01*
X98277576Y-70487269D01*
X98238281Y-70472967D01*
X98226537Y-70468006D01*
X98195244Y-70452878D01*
X98195242Y-70452877D01*
X98188895Y-70449809D01*
X98157456Y-70442551D01*
X98142720Y-70438185D01*
X98119020Y-70429559D01*
X98119016Y-70429558D01*
X98112400Y-70427150D01*
X98105414Y-70426267D01*
X98105412Y-70426267D01*
X98070921Y-70421910D01*
X98058369Y-70419675D01*
X98044183Y-70416400D01*
X98017623Y-70410268D01*
X98010583Y-70410243D01*
X98010580Y-70410243D01*
X97978296Y-70410130D01*
X97977459Y-70410102D01*
X97976646Y-70410000D01*
X97941054Y-70410000D01*
X97940614Y-70409999D01*
X97934859Y-70409979D01*
X97841847Y-70409654D01*
X97840679Y-70409915D01*
X97839111Y-70410000D01*
X97100173Y-70410000D01*
X97032052Y-70389998D01*
X96995961Y-70354823D01*
X96979904Y-70331195D01*
X96921456Y-70245193D01*
X96754668Y-70068819D01*
X96742060Y-70059179D01*
X96696093Y-70024035D01*
X96654125Y-69966770D01*
X96649780Y-69895907D01*
X96689297Y-69829425D01*
X96826858Y-69708150D01*
X96826861Y-69708147D01*
X96830655Y-69704802D01*
X96984734Y-69517222D01*
X96994980Y-69499618D01*
X97046531Y-69450806D01*
X97103877Y-69437000D01*
X98085278Y-69437000D01*
X98153399Y-69457002D01*
X98189490Y-69492177D01*
X98209164Y-69521126D01*
X98214044Y-69528307D01*
X98380832Y-69704681D01*
X98384858Y-69707759D01*
X98384859Y-69707760D01*
X98569654Y-69849047D01*
X98569658Y-69849050D01*
X98573674Y-69852120D01*
X98578132Y-69854510D01*
X98578133Y-69854511D01*
X98697453Y-69918490D01*
X98787609Y-69966831D01*
X99017131Y-70045862D01*
X99084498Y-70057498D01*
X99252426Y-70086504D01*
X99252432Y-70086505D01*
X99256336Y-70087179D01*
X99260297Y-70087359D01*
X99260298Y-70087359D01*
X99284006Y-70088436D01*
X99284025Y-70088436D01*
X99285425Y-70088500D01*
X101454501Y-70088500D01*
X101457009Y-70088298D01*
X101457014Y-70088298D01*
X101630424Y-70074346D01*
X101630429Y-70074345D01*
X101635465Y-70073940D01*
X101640373Y-70072734D01*
X101640376Y-70072734D01*
X101866292Y-70017244D01*
X101871206Y-70016037D01*
X101875858Y-70014062D01*
X101875862Y-70014061D01*
X102082674Y-69926274D01*
X102094656Y-69921188D01*
X102201207Y-69854089D01*
X102295788Y-69794528D01*
X102295791Y-69794526D01*
X102300067Y-69791833D01*
X102366528Y-69733240D01*
X102478358Y-69634650D01*
X102478361Y-69634647D01*
X102482155Y-69631302D01*
X102506382Y-69601807D01*
X102633026Y-69447628D01*
X102633028Y-69447625D01*
X102636234Y-69443722D01*
X102758341Y-69233922D01*
X102845333Y-69007298D01*
X102846399Y-69002196D01*
X102877962Y-68851114D01*
X108066775Y-68851114D01*
X108068825Y-68868830D01*
X108070785Y-68878727D01*
X108134104Y-69102494D01*
X108137616Y-69111938D01*
X108235899Y-69322705D01*
X108240878Y-69331471D01*
X108371587Y-69523802D01*
X108377919Y-69531677D01*
X108537686Y-69700626D01*
X108545195Y-69707387D01*
X108729926Y-69848625D01*
X108738405Y-69854089D01*
X108943347Y-69963978D01*
X108952599Y-69968020D01*
X109172471Y-70043727D01*
X109182243Y-70046236D01*
X109412471Y-70086004D01*
X109420343Y-70086859D01*
X109444051Y-70087936D01*
X109446884Y-70088000D01*
X110281385Y-70088000D01*
X110296624Y-70083525D01*
X110297829Y-70082135D01*
X110299500Y-70074452D01*
X110299500Y-70069885D01*
X110807500Y-70069885D01*
X110811975Y-70085124D01*
X110813365Y-70086329D01*
X110821048Y-70088000D01*
X111611956Y-70088000D01*
X111616988Y-70087798D01*
X111790343Y-70073850D01*
X111800296Y-70072238D01*
X112026133Y-70016767D01*
X112035703Y-70013584D01*
X112249765Y-69922720D01*
X112258707Y-69918045D01*
X112455487Y-69794126D01*
X112463560Y-69788086D01*
X112638000Y-69634297D01*
X112645004Y-69627044D01*
X112792610Y-69447346D01*
X112798366Y-69439064D01*
X112915341Y-69238081D01*
X112919703Y-69228976D01*
X113003037Y-69011885D01*
X113005888Y-69002196D01*
X113037321Y-68851736D01*
X113036198Y-68837675D01*
X113026090Y-68834000D01*
X110825615Y-68834000D01*
X110810376Y-68838475D01*
X110809171Y-68839865D01*
X110807500Y-68847548D01*
X110807500Y-70069885D01*
X110299500Y-70069885D01*
X110299500Y-68852115D01*
X110295025Y-68836876D01*
X110293635Y-68835671D01*
X110285952Y-68834000D01*
X108082910Y-68834000D01*
X108068824Y-68838136D01*
X108066775Y-68851114D01*
X102877962Y-68851114D01*
X102893940Y-68774631D01*
X102893940Y-68774627D01*
X102894974Y-68769680D01*
X102905986Y-68527183D01*
X102905405Y-68522159D01*
X102880656Y-68308264D01*
X108069679Y-68308264D01*
X108070802Y-68322325D01*
X108080910Y-68326000D01*
X110281385Y-68326000D01*
X110296624Y-68321525D01*
X110297829Y-68320135D01*
X110299500Y-68312452D01*
X110299500Y-68307885D01*
X110807500Y-68307885D01*
X110811975Y-68323124D01*
X110813365Y-68324329D01*
X110821048Y-68326000D01*
X113024090Y-68326000D01*
X113038176Y-68321864D01*
X113040225Y-68308886D01*
X113038175Y-68291170D01*
X113036215Y-68281273D01*
X112972896Y-68057506D01*
X112969384Y-68048062D01*
X112871101Y-67837295D01*
X112866122Y-67828529D01*
X112735413Y-67636198D01*
X112729081Y-67628323D01*
X112569314Y-67459374D01*
X112561805Y-67452613D01*
X112529575Y-67427971D01*
X138486884Y-67427971D01*
X138490570Y-67433240D01*
X138698121Y-67560427D01*
X138706915Y-67564908D01*
X138935242Y-67659484D01*
X138944627Y-67662533D01*
X139184940Y-67720228D01*
X139194687Y-67721771D01*
X139441070Y-67741162D01*
X139450930Y-67741162D01*
X139697313Y-67721771D01*
X139707060Y-67720228D01*
X139947373Y-67662533D01*
X139956758Y-67659484D01*
X140185085Y-67564908D01*
X140193879Y-67560427D01*
X140399928Y-67434160D01*
X140405190Y-67426099D01*
X140399183Y-67415893D01*
X139458812Y-66475522D01*
X139444868Y-66467908D01*
X139443035Y-66468039D01*
X139436420Y-66472290D01*
X138494276Y-67414434D01*
X138486884Y-67427971D01*
X112529575Y-67427971D01*
X112377074Y-67311375D01*
X112368595Y-67305911D01*
X112163653Y-67196022D01*
X112154401Y-67191980D01*
X111934529Y-67116273D01*
X111924757Y-67113764D01*
X111694529Y-67073996D01*
X111686657Y-67073141D01*
X111662949Y-67072064D01*
X111660116Y-67072000D01*
X110825615Y-67072000D01*
X110810376Y-67076475D01*
X110809171Y-67077865D01*
X110807500Y-67085548D01*
X110807500Y-68307885D01*
X110299500Y-68307885D01*
X110299500Y-67090115D01*
X110295025Y-67074876D01*
X110293635Y-67073671D01*
X110285952Y-67072000D01*
X109495044Y-67072000D01*
X109490012Y-67072202D01*
X109316657Y-67086150D01*
X109306704Y-67087762D01*
X109080867Y-67143233D01*
X109071297Y-67146416D01*
X108857235Y-67237280D01*
X108848293Y-67241955D01*
X108651513Y-67365874D01*
X108643440Y-67371914D01*
X108469000Y-67525703D01*
X108461996Y-67532956D01*
X108314390Y-67712654D01*
X108308634Y-67720936D01*
X108191659Y-67921919D01*
X108187297Y-67931024D01*
X108103963Y-68148115D01*
X108101112Y-68157804D01*
X108069679Y-68308264D01*
X102880656Y-68308264D01*
X102878667Y-68291071D01*
X102878666Y-68291067D01*
X102878085Y-68286044D01*
X102865953Y-68243168D01*
X102813366Y-68057331D01*
X102811990Y-68052468D01*
X102809856Y-68047892D01*
X102809854Y-68047886D01*
X102711538Y-67837046D01*
X102711536Y-67837042D01*
X102709401Y-67832464D01*
X102703911Y-67824385D01*
X102628119Y-67712862D01*
X102572956Y-67631693D01*
X102406168Y-67455319D01*
X102384451Y-67438715D01*
X102217346Y-67310953D01*
X102217342Y-67310950D01*
X102213326Y-67307880D01*
X102090377Y-67241955D01*
X102003852Y-67195561D01*
X101999391Y-67193169D01*
X101769869Y-67114138D01*
X101630788Y-67090115D01*
X101534574Y-67073496D01*
X101534568Y-67073495D01*
X101530664Y-67072821D01*
X101526703Y-67072641D01*
X101526702Y-67072641D01*
X101502994Y-67071564D01*
X101502975Y-67071564D01*
X101501575Y-67071500D01*
X99332499Y-67071500D01*
X99329991Y-67071702D01*
X99329986Y-67071702D01*
X99156576Y-67085654D01*
X99156571Y-67085655D01*
X99151535Y-67086060D01*
X99146627Y-67087266D01*
X99146624Y-67087266D01*
X98920708Y-67142756D01*
X98915794Y-67143963D01*
X98911142Y-67145938D01*
X98911138Y-67145939D01*
X98814933Y-67186776D01*
X98692344Y-67238812D01*
X98648999Y-67266108D01*
X98491212Y-67365472D01*
X98491209Y-67365474D01*
X98486933Y-67368167D01*
X98482683Y-67371914D01*
X98308642Y-67525350D01*
X98308639Y-67525353D01*
X98304845Y-67528698D01*
X98301635Y-67532606D01*
X98301634Y-67532607D01*
X98261605Y-67581340D01*
X98150766Y-67716278D01*
X98148226Y-67720643D01*
X98148222Y-67720648D01*
X98097742Y-67807381D01*
X98046189Y-67856194D01*
X97988844Y-67870000D01*
X97100173Y-67870000D01*
X97032052Y-67849998D01*
X96995961Y-67814823D01*
X96990904Y-67807381D01*
X96921456Y-67705193D01*
X96754668Y-67528819D01*
X96750641Y-67525740D01*
X96565846Y-67384453D01*
X96565842Y-67384450D01*
X96561826Y-67381380D01*
X96532908Y-67365874D01*
X96352352Y-67269061D01*
X96347891Y-67266669D01*
X96118369Y-67187638D01*
X96019022Y-67170478D01*
X95883074Y-67146996D01*
X95883068Y-67146995D01*
X95879164Y-67146321D01*
X95875203Y-67146141D01*
X95875202Y-67146141D01*
X95851494Y-67145064D01*
X95851475Y-67145064D01*
X95850075Y-67145000D01*
X93680999Y-67145000D01*
X93678491Y-67145202D01*
X93678486Y-67145202D01*
X93505076Y-67159154D01*
X93505071Y-67159155D01*
X93500035Y-67159560D01*
X93495127Y-67160766D01*
X93495124Y-67160766D01*
X93351587Y-67196022D01*
X93264294Y-67217463D01*
X93259642Y-67219438D01*
X93259638Y-67219439D01*
X93171212Y-67256974D01*
X93040844Y-67312312D01*
X93001385Y-67337161D01*
X92839712Y-67438972D01*
X92839709Y-67438974D01*
X92835433Y-67441667D01*
X92831639Y-67445012D01*
X92657142Y-67598850D01*
X92657139Y-67598853D01*
X92653345Y-67602198D01*
X92650135Y-67606106D01*
X92650134Y-67606107D01*
X92632138Y-67628016D01*
X92499266Y-67789778D01*
X92489021Y-67807381D01*
X92437469Y-67856194D01*
X92380123Y-67870000D01*
X90677001Y-67870000D01*
X90675681Y-67869993D01*
X90674365Y-67869979D01*
X90588322Y-67869078D01*
X90585106Y-67869773D01*
X90580634Y-67870000D01*
X85989500Y-67870000D01*
X85921379Y-67849998D01*
X85874886Y-67796342D01*
X85863500Y-67744000D01*
X85863500Y-67174100D01*
X85863163Y-67170850D01*
X85853238Y-67075192D01*
X85853237Y-67075188D01*
X85852526Y-67068334D01*
X85848888Y-67057428D01*
X85798868Y-66907502D01*
X85796550Y-66900554D01*
X85703478Y-66750152D01*
X85578303Y-66625195D01*
X85472066Y-66559709D01*
X85433968Y-66536225D01*
X85433966Y-66536224D01*
X85427738Y-66532385D01*
X85267254Y-66479155D01*
X85266389Y-66478868D01*
X85266387Y-66478868D01*
X85259861Y-66476703D01*
X85253025Y-66476003D01*
X85253022Y-66476002D01*
X85209969Y-66471591D01*
X85155400Y-66466000D01*
X83754600Y-66466000D01*
X83751354Y-66466337D01*
X83751350Y-66466337D01*
X83655692Y-66476262D01*
X83655688Y-66476263D01*
X83648834Y-66476974D01*
X83642298Y-66479155D01*
X83642296Y-66479155D01*
X83510194Y-66523228D01*
X83481054Y-66532950D01*
X83330652Y-66626022D01*
X83325479Y-66631204D01*
X83276750Y-66680018D01*
X83214467Y-66714097D01*
X83187577Y-66717000D01*
X82178038Y-66717000D01*
X82109917Y-66696998D01*
X82063424Y-66643342D01*
X82058514Y-66630876D01*
X82034368Y-66558502D01*
X82032050Y-66551554D01*
X81938978Y-66401152D01*
X81813803Y-66276195D01*
X81807572Y-66272354D01*
X81669468Y-66187225D01*
X81669466Y-66187224D01*
X81663238Y-66183385D01*
X81502754Y-66130155D01*
X81501889Y-66129868D01*
X81501887Y-66129868D01*
X81495361Y-66127703D01*
X81488525Y-66127003D01*
X81488522Y-66127002D01*
X81445469Y-66122591D01*
X81390900Y-66117000D01*
X80665100Y-66117000D01*
X80661854Y-66117337D01*
X80661850Y-66117337D01*
X80566192Y-66127262D01*
X80566188Y-66127263D01*
X80559334Y-66127974D01*
X80552798Y-66130155D01*
X80552796Y-66130155D01*
X80420694Y-66174228D01*
X80391554Y-66183950D01*
X80241152Y-66277022D01*
X80116195Y-66402197D01*
X80112355Y-66408427D01*
X80112354Y-66408428D01*
X80033579Y-66536225D01*
X80023385Y-66552762D01*
X80021081Y-66559709D01*
X79976044Y-66695493D01*
X79967703Y-66720639D01*
X79957000Y-66825100D01*
X79957000Y-68175900D01*
X79174000Y-68175900D01*
X79174000Y-66825100D01*
X79173663Y-66821850D01*
X79163738Y-66726192D01*
X79163737Y-66726188D01*
X79163026Y-66719334D01*
X79158983Y-66707214D01*
X79109368Y-66558502D01*
X79107050Y-66551554D01*
X79013978Y-66401152D01*
X78888803Y-66276195D01*
X78882572Y-66272354D01*
X78744468Y-66187225D01*
X78744466Y-66187224D01*
X78738238Y-66183385D01*
X78577754Y-66130155D01*
X78576889Y-66129868D01*
X78576887Y-66129868D01*
X78570361Y-66127703D01*
X78563525Y-66127003D01*
X78563522Y-66127002D01*
X78520469Y-66122591D01*
X78465900Y-66117000D01*
X78316000Y-66117000D01*
X78286813Y-66108430D01*
X137808338Y-66108430D01*
X137827729Y-66354813D01*
X137829272Y-66364560D01*
X137886967Y-66604873D01*
X137890016Y-66614258D01*
X137984592Y-66842585D01*
X137989073Y-66851379D01*
X138115340Y-67057428D01*
X138123401Y-67062690D01*
X138133607Y-67056683D01*
X139073978Y-66116312D01*
X139081592Y-66102368D01*
X139081461Y-66100535D01*
X139077210Y-66093920D01*
X138135066Y-65151776D01*
X138121529Y-65144384D01*
X138116260Y-65148070D01*
X137989073Y-65355621D01*
X137984592Y-65364415D01*
X137890016Y-65592742D01*
X137886967Y-65602127D01*
X137829272Y-65842440D01*
X137827729Y-65852187D01*
X137808338Y-66098570D01*
X137808338Y-66108430D01*
X78286813Y-66108430D01*
X78247879Y-66096998D01*
X78201386Y-66043342D01*
X78190000Y-65991000D01*
X78190000Y-64780901D01*
X138486810Y-64780901D01*
X138492817Y-64791107D01*
X139433188Y-65731478D01*
X139447132Y-65739092D01*
X139448965Y-65738961D01*
X139455580Y-65734710D01*
X140397724Y-64792566D01*
X140405116Y-64779029D01*
X140401430Y-64773760D01*
X140193879Y-64646573D01*
X140185085Y-64642092D01*
X139956758Y-64547516D01*
X139947373Y-64544467D01*
X139707060Y-64486772D01*
X139697313Y-64485229D01*
X139450930Y-64465838D01*
X139441070Y-64465838D01*
X139194687Y-64485229D01*
X139184940Y-64486772D01*
X138944627Y-64544467D01*
X138935242Y-64547516D01*
X138706915Y-64642092D01*
X138698121Y-64646573D01*
X138492072Y-64772840D01*
X138486810Y-64780901D01*
X78190000Y-64780901D01*
X78190000Y-63686226D01*
X78210002Y-63618105D01*
X78226905Y-63597131D01*
X79690073Y-62133963D01*
X103939275Y-62133963D01*
X103941325Y-62151679D01*
X103943285Y-62161576D01*
X104006604Y-62385343D01*
X104010116Y-62394787D01*
X104108399Y-62605554D01*
X104113378Y-62614320D01*
X104244087Y-62806651D01*
X104250419Y-62814526D01*
X104410186Y-62983475D01*
X104417695Y-62990236D01*
X104602426Y-63131474D01*
X104610905Y-63136938D01*
X104815847Y-63246827D01*
X104825099Y-63250869D01*
X105044971Y-63326576D01*
X105054743Y-63329085D01*
X105284971Y-63368853D01*
X105292843Y-63369708D01*
X105316551Y-63370785D01*
X105319384Y-63370849D01*
X106153885Y-63370849D01*
X106169124Y-63366374D01*
X106170329Y-63364984D01*
X106172000Y-63357301D01*
X106172000Y-63352734D01*
X106680000Y-63352734D01*
X106684475Y-63367973D01*
X106685865Y-63369178D01*
X106693548Y-63370849D01*
X107484456Y-63370849D01*
X107489488Y-63370647D01*
X107662843Y-63356699D01*
X107672796Y-63355087D01*
X107898633Y-63299616D01*
X107908203Y-63296433D01*
X108122265Y-63205569D01*
X108131207Y-63200894D01*
X108327987Y-63076975D01*
X108336060Y-63070935D01*
X108510500Y-62917146D01*
X108517504Y-62909893D01*
X108665110Y-62730195D01*
X108670866Y-62721913D01*
X108787841Y-62520930D01*
X108792203Y-62511825D01*
X108849487Y-62362595D01*
X114098501Y-62362595D01*
X114098838Y-62369114D01*
X114108757Y-62464706D01*
X114111649Y-62478100D01*
X114163088Y-62632284D01*
X114169261Y-62645462D01*
X114254563Y-62783307D01*
X114263599Y-62794708D01*
X114378329Y-62909239D01*
X114389740Y-62918251D01*
X114527743Y-63003316D01*
X114540924Y-63009463D01*
X114695210Y-63060638D01*
X114708586Y-63063505D01*
X114802938Y-63073172D01*
X114809354Y-63073500D01*
X115234385Y-63073500D01*
X115249624Y-63069025D01*
X115250829Y-63067635D01*
X115252500Y-63059952D01*
X115252500Y-63055384D01*
X115760500Y-63055384D01*
X115764975Y-63070623D01*
X115766365Y-63071828D01*
X115774048Y-63073499D01*
X116203595Y-63073499D01*
X116210114Y-63073162D01*
X116305706Y-63063243D01*
X116319100Y-63060351D01*
X116473284Y-63008912D01*
X116486462Y-63002739D01*
X116624307Y-62917437D01*
X116635708Y-62908401D01*
X116750239Y-62793671D01*
X116759251Y-62782260D01*
X116844316Y-62644257D01*
X116850463Y-62631076D01*
X116901638Y-62476790D01*
X116904505Y-62463414D01*
X116914172Y-62369062D01*
X116914500Y-62362646D01*
X116914500Y-62362595D01*
X119432501Y-62362595D01*
X119432838Y-62369114D01*
X119442757Y-62464706D01*
X119445649Y-62478100D01*
X119497088Y-62632284D01*
X119503261Y-62645462D01*
X119588563Y-62783307D01*
X119597599Y-62794708D01*
X119712329Y-62909239D01*
X119723740Y-62918251D01*
X119861743Y-63003316D01*
X119874924Y-63009463D01*
X120029210Y-63060638D01*
X120042586Y-63063505D01*
X120136938Y-63073172D01*
X120143354Y-63073500D01*
X120568385Y-63073500D01*
X120583624Y-63069025D01*
X120584829Y-63067635D01*
X120586500Y-63059952D01*
X120586500Y-63055384D01*
X121094500Y-63055384D01*
X121098975Y-63070623D01*
X121100365Y-63071828D01*
X121108048Y-63073499D01*
X121537595Y-63073499D01*
X121544114Y-63073162D01*
X121639706Y-63063243D01*
X121653100Y-63060351D01*
X121807284Y-63008912D01*
X121820462Y-63002739D01*
X121958307Y-62917437D01*
X121969708Y-62908401D01*
X122084239Y-62793671D01*
X122093251Y-62782260D01*
X122178316Y-62644257D01*
X122184463Y-62631076D01*
X122235638Y-62476790D01*
X122238505Y-62463414D01*
X122248172Y-62369062D01*
X122248500Y-62362646D01*
X122248500Y-62262615D01*
X122244025Y-62247376D01*
X122242635Y-62246171D01*
X122234952Y-62244500D01*
X121112615Y-62244500D01*
X121097376Y-62248975D01*
X121096171Y-62250365D01*
X121094500Y-62258048D01*
X121094500Y-63055384D01*
X120586500Y-63055384D01*
X120586500Y-62262615D01*
X120582025Y-62247376D01*
X120580635Y-62246171D01*
X120572952Y-62244500D01*
X119450616Y-62244500D01*
X119435377Y-62248975D01*
X119434172Y-62250365D01*
X119432501Y-62258048D01*
X119432501Y-62362595D01*
X116914500Y-62362595D01*
X116914500Y-62262615D01*
X116910025Y-62247376D01*
X116908635Y-62246171D01*
X116900952Y-62244500D01*
X115778615Y-62244500D01*
X115763376Y-62248975D01*
X115762171Y-62250365D01*
X115760500Y-62258048D01*
X115760500Y-63055384D01*
X115252500Y-63055384D01*
X115252500Y-62262615D01*
X115248025Y-62247376D01*
X115246635Y-62246171D01*
X115238952Y-62244500D01*
X114116616Y-62244500D01*
X114101377Y-62248975D01*
X114100172Y-62250365D01*
X114098501Y-62258048D01*
X114098501Y-62362595D01*
X108849487Y-62362595D01*
X108875537Y-62294734D01*
X108878388Y-62285045D01*
X108909821Y-62134585D01*
X108908698Y-62120524D01*
X108898590Y-62116849D01*
X106698115Y-62116849D01*
X106682876Y-62121324D01*
X106681671Y-62122714D01*
X106680000Y-62130397D01*
X106680000Y-63352734D01*
X106172000Y-63352734D01*
X106172000Y-62134964D01*
X106167525Y-62119725D01*
X106166135Y-62118520D01*
X106158452Y-62116849D01*
X103955410Y-62116849D01*
X103941324Y-62120985D01*
X103939275Y-62133963D01*
X79690073Y-62133963D01*
X80105651Y-61718385D01*
X114098500Y-61718385D01*
X114102975Y-61733624D01*
X114104365Y-61734829D01*
X114112048Y-61736500D01*
X115234385Y-61736500D01*
X115249624Y-61732025D01*
X115250829Y-61730635D01*
X115252500Y-61722952D01*
X115252500Y-61718385D01*
X115760500Y-61718385D01*
X115764975Y-61733624D01*
X115766365Y-61734829D01*
X115774048Y-61736500D01*
X116896384Y-61736500D01*
X116911623Y-61732025D01*
X116912828Y-61730635D01*
X116914499Y-61722952D01*
X116914499Y-61718385D01*
X119432500Y-61718385D01*
X119436975Y-61733624D01*
X119438365Y-61734829D01*
X119446048Y-61736500D01*
X120568385Y-61736500D01*
X120583624Y-61732025D01*
X120584829Y-61730635D01*
X120586500Y-61722952D01*
X120586500Y-61718385D01*
X121094500Y-61718385D01*
X121098975Y-61733624D01*
X121100365Y-61734829D01*
X121108048Y-61736500D01*
X122230384Y-61736500D01*
X122245623Y-61732025D01*
X122246828Y-61730635D01*
X122248499Y-61722952D01*
X122248499Y-61618405D01*
X122248162Y-61611886D01*
X122238243Y-61516294D01*
X122235351Y-61502900D01*
X122183912Y-61348716D01*
X122177739Y-61335538D01*
X122092437Y-61197693D01*
X122083401Y-61186292D01*
X121968671Y-61071761D01*
X121957260Y-61062749D01*
X121819257Y-60977684D01*
X121806076Y-60971537D01*
X121651790Y-60920362D01*
X121638414Y-60917495D01*
X121544062Y-60907828D01*
X121537645Y-60907500D01*
X121112615Y-60907500D01*
X121097376Y-60911975D01*
X121096171Y-60913365D01*
X121094500Y-60921048D01*
X121094500Y-61718385D01*
X120586500Y-61718385D01*
X120586500Y-60925616D01*
X120582025Y-60910377D01*
X120580635Y-60909172D01*
X120572952Y-60907501D01*
X120143405Y-60907501D01*
X120136886Y-60907838D01*
X120041294Y-60917757D01*
X120027900Y-60920649D01*
X119873716Y-60972088D01*
X119860538Y-60978261D01*
X119722693Y-61063563D01*
X119711292Y-61072599D01*
X119596761Y-61187329D01*
X119587749Y-61198740D01*
X119502684Y-61336743D01*
X119496537Y-61349924D01*
X119445362Y-61504210D01*
X119442495Y-61517586D01*
X119432828Y-61611938D01*
X119432500Y-61618355D01*
X119432500Y-61718385D01*
X116914499Y-61718385D01*
X116914499Y-61618405D01*
X116914162Y-61611886D01*
X116904243Y-61516294D01*
X116901351Y-61502900D01*
X116849912Y-61348716D01*
X116843739Y-61335538D01*
X116758437Y-61197693D01*
X116749401Y-61186292D01*
X116634671Y-61071761D01*
X116623260Y-61062749D01*
X116485257Y-60977684D01*
X116472076Y-60971537D01*
X116317790Y-60920362D01*
X116304414Y-60917495D01*
X116210062Y-60907828D01*
X116203645Y-60907500D01*
X115778615Y-60907500D01*
X115763376Y-60911975D01*
X115762171Y-60913365D01*
X115760500Y-60921048D01*
X115760500Y-61718385D01*
X115252500Y-61718385D01*
X115252500Y-60925616D01*
X115248025Y-60910377D01*
X115246635Y-60909172D01*
X115238952Y-60907501D01*
X114809405Y-60907501D01*
X114802886Y-60907838D01*
X114707294Y-60917757D01*
X114693900Y-60920649D01*
X114539716Y-60972088D01*
X114526538Y-60978261D01*
X114388693Y-61063563D01*
X114377292Y-61072599D01*
X114262761Y-61187329D01*
X114253749Y-61198740D01*
X114168684Y-61336743D01*
X114162537Y-61349924D01*
X114111362Y-61504210D01*
X114108495Y-61517586D01*
X114098828Y-61611938D01*
X114098500Y-61618355D01*
X114098500Y-61718385D01*
X80105651Y-61718385D01*
X81985631Y-59838405D01*
X82047943Y-59804379D01*
X82074726Y-59801500D01*
X83477001Y-59801500D01*
X83479509Y-59801298D01*
X83479514Y-59801298D01*
X83652924Y-59787346D01*
X83652929Y-59787345D01*
X83657965Y-59786940D01*
X83662873Y-59785734D01*
X83662876Y-59785734D01*
X83888792Y-59730244D01*
X83893706Y-59729037D01*
X83898358Y-59727062D01*
X83898362Y-59727061D01*
X84063874Y-59656805D01*
X84117156Y-59634188D01*
X84209018Y-59576339D01*
X84318288Y-59507528D01*
X84318291Y-59507526D01*
X84322567Y-59504833D01*
X84423708Y-59415666D01*
X84500858Y-59347650D01*
X84500861Y-59347647D01*
X84504655Y-59344302D01*
X84614670Y-59210367D01*
X84655526Y-59160628D01*
X84655528Y-59160625D01*
X84658734Y-59156722D01*
X84780841Y-58946922D01*
X84844527Y-58781013D01*
X84866020Y-58725022D01*
X84866021Y-58725018D01*
X84867833Y-58720298D01*
X84877430Y-58674359D01*
X84916440Y-58487631D01*
X84916440Y-58487627D01*
X84917474Y-58482680D01*
X84923689Y-58345817D01*
X94903514Y-58345817D01*
X94904095Y-58350837D01*
X94904095Y-58350841D01*
X94930535Y-58579349D01*
X94931415Y-58586956D01*
X94932791Y-58591820D01*
X94932792Y-58591823D01*
X94978476Y-58753266D01*
X94997510Y-58820532D01*
X94999644Y-58825108D01*
X94999646Y-58825114D01*
X95075011Y-58986735D01*
X95100099Y-59040536D01*
X95236544Y-59241307D01*
X95403332Y-59417681D01*
X95407358Y-59420759D01*
X95407359Y-59420760D01*
X95592154Y-59562047D01*
X95592158Y-59562050D01*
X95596174Y-59565120D01*
X95810109Y-59679831D01*
X96039631Y-59758862D01*
X96124378Y-59773500D01*
X96274926Y-59799504D01*
X96274932Y-59799505D01*
X96278836Y-59800179D01*
X96282797Y-59800359D01*
X96282798Y-59800359D01*
X96306506Y-59801436D01*
X96306525Y-59801436D01*
X96307925Y-59801500D01*
X98477001Y-59801500D01*
X98479509Y-59801298D01*
X98479514Y-59801298D01*
X98652924Y-59787346D01*
X98652929Y-59787345D01*
X98657965Y-59786940D01*
X98662873Y-59785734D01*
X98662876Y-59785734D01*
X98888792Y-59730244D01*
X98893706Y-59729037D01*
X98898358Y-59727062D01*
X98898362Y-59727061D01*
X99063874Y-59656805D01*
X99117156Y-59634188D01*
X99209018Y-59576339D01*
X99318288Y-59507528D01*
X99318291Y-59507526D01*
X99322567Y-59504833D01*
X99423708Y-59415666D01*
X99500858Y-59347650D01*
X99500861Y-59347647D01*
X99504655Y-59344302D01*
X99658734Y-59156722D01*
X99668980Y-59139118D01*
X99720531Y-59090306D01*
X99777877Y-59076500D01*
X103797064Y-59076500D01*
X103865185Y-59096502D01*
X103911678Y-59150158D01*
X103922934Y-59208216D01*
X103921265Y-59244984D01*
X103913514Y-59415666D01*
X103914095Y-59420686D01*
X103914095Y-59420690D01*
X103937388Y-59621999D01*
X103941415Y-59656805D01*
X103942791Y-59661669D01*
X103942792Y-59661672D01*
X103948397Y-59681478D01*
X104007510Y-59890381D01*
X104009644Y-59894957D01*
X104009646Y-59894963D01*
X104091415Y-60070317D01*
X104110099Y-60110385D01*
X104246544Y-60311156D01*
X104413332Y-60487530D01*
X104448016Y-60514048D01*
X104489981Y-60571310D01*
X104494327Y-60642173D01*
X104454810Y-60708656D01*
X104341500Y-60808552D01*
X104334496Y-60815805D01*
X104186890Y-60995503D01*
X104181134Y-61003785D01*
X104064159Y-61204768D01*
X104059797Y-61213873D01*
X103976463Y-61430964D01*
X103973612Y-61440653D01*
X103942179Y-61591113D01*
X103943302Y-61605174D01*
X103953410Y-61608849D01*
X108896590Y-61608849D01*
X108910676Y-61604713D01*
X108912725Y-61591735D01*
X108910675Y-61574019D01*
X108908715Y-61564122D01*
X108845396Y-61340355D01*
X108841884Y-61330911D01*
X108743601Y-61120144D01*
X108738622Y-61111378D01*
X108607913Y-60919047D01*
X108601581Y-60911172D01*
X108441814Y-60742223D01*
X108434311Y-60735467D01*
X108404008Y-60712299D01*
X108362041Y-60655034D01*
X108357696Y-60584171D01*
X108397213Y-60517689D01*
X108401347Y-60514045D01*
X108497812Y-60429000D01*
X108510858Y-60417499D01*
X108510861Y-60417496D01*
X108514655Y-60414151D01*
X108668734Y-60226571D01*
X108678980Y-60208967D01*
X108730531Y-60160155D01*
X108787877Y-60146349D01*
X115175150Y-60146349D01*
X115176471Y-60146356D01*
X115263829Y-60147271D01*
X115270714Y-60145782D01*
X115270717Y-60145782D01*
X115304696Y-60138435D01*
X115317279Y-60136374D01*
X115351836Y-60132498D01*
X115351838Y-60132498D01*
X115358833Y-60131713D01*
X115365481Y-60129398D01*
X115372356Y-60127836D01*
X115372624Y-60129017D01*
X115402295Y-60124000D01*
X116206900Y-60124000D01*
X116210146Y-60123663D01*
X116210150Y-60123663D01*
X116305808Y-60113738D01*
X116305812Y-60113737D01*
X116312666Y-60113026D01*
X116319202Y-60110845D01*
X116319204Y-60110845D01*
X116458685Y-60064310D01*
X116480446Y-60057050D01*
X116630848Y-59963978D01*
X116706580Y-59888114D01*
X116733665Y-59860982D01*
X116795948Y-59826903D01*
X116822838Y-59824000D01*
X119524020Y-59824000D01*
X119592141Y-59844002D01*
X119613036Y-59860825D01*
X119717197Y-59964805D01*
X119723427Y-59968645D01*
X119723428Y-59968646D01*
X119860590Y-60053194D01*
X119867762Y-60057615D01*
X119947505Y-60084064D01*
X120029111Y-60111132D01*
X120029113Y-60111132D01*
X120035639Y-60113297D01*
X120042475Y-60113997D01*
X120042478Y-60113998D01*
X120085531Y-60118409D01*
X120140100Y-60124000D01*
X121540900Y-60124000D01*
X121544146Y-60123663D01*
X121544150Y-60123663D01*
X121639808Y-60113738D01*
X121639812Y-60113737D01*
X121646666Y-60113026D01*
X121653202Y-60110845D01*
X121653204Y-60110845D01*
X121792685Y-60064310D01*
X121814446Y-60057050D01*
X121964848Y-59963978D01*
X122040580Y-59888114D01*
X122067665Y-59860982D01*
X122129948Y-59826903D01*
X122156838Y-59824000D01*
X122862274Y-59824000D01*
X122930395Y-59844002D01*
X122951369Y-59860905D01*
X124321081Y-61230617D01*
X124322010Y-61231555D01*
X124383171Y-61294011D01*
X124389093Y-61297828D01*
X124389096Y-61297830D01*
X124418322Y-61316665D01*
X124428661Y-61324093D01*
X124461350Y-61350188D01*
X124467692Y-61353254D01*
X124467697Y-61353257D01*
X124490390Y-61364227D01*
X124503802Y-61371753D01*
X124525000Y-61385414D01*
X124525005Y-61385416D01*
X124530924Y-61389231D01*
X124570219Y-61403533D01*
X124581963Y-61408494D01*
X124613260Y-61423624D01*
X124613263Y-61423625D01*
X124619605Y-61426691D01*
X124626466Y-61428275D01*
X124626469Y-61428276D01*
X124651039Y-61433948D01*
X124665782Y-61438315D01*
X124696100Y-61449350D01*
X124735451Y-61454321D01*
X124737588Y-61454591D01*
X124750136Y-61456827D01*
X124790877Y-61466233D01*
X124797921Y-61466257D01*
X124797925Y-61466258D01*
X124830215Y-61466370D01*
X124831046Y-61466398D01*
X124831854Y-61466500D01*
X124867286Y-61466500D01*
X124867724Y-61466501D01*
X124966653Y-61466846D01*
X124967821Y-61466585D01*
X124969390Y-61466500D01*
X125858000Y-61466500D01*
X125926121Y-61486502D01*
X125972614Y-61540158D01*
X125984000Y-61592500D01*
X125984000Y-61744001D01*
X125984202Y-61746509D01*
X125984202Y-61746514D01*
X125998148Y-61919843D01*
X125998560Y-61924965D01*
X125999766Y-61929873D01*
X125999766Y-61929876D01*
X126011263Y-61976683D01*
X126056463Y-62160706D01*
X126151312Y-62384156D01*
X126154010Y-62388440D01*
X126277783Y-62584987D01*
X126280667Y-62589567D01*
X126284012Y-62593361D01*
X126437850Y-62767858D01*
X126437853Y-62767861D01*
X126441198Y-62771655D01*
X126445106Y-62774865D01*
X126445107Y-62774866D01*
X126618323Y-62917146D01*
X126628778Y-62925734D01*
X126685804Y-62958924D01*
X126833424Y-63044841D01*
X126838578Y-63047841D01*
X126843301Y-63049654D01*
X127060478Y-63133020D01*
X127060482Y-63133021D01*
X127065202Y-63134833D01*
X127070152Y-63135867D01*
X127070155Y-63135868D01*
X127297869Y-63183440D01*
X127297873Y-63183440D01*
X127302820Y-63184474D01*
X127545317Y-63195486D01*
X127550337Y-63194905D01*
X127550341Y-63194905D01*
X127781429Y-63168167D01*
X127781433Y-63168166D01*
X127786456Y-63167585D01*
X127791320Y-63166209D01*
X127791323Y-63166208D01*
X128015169Y-63102866D01*
X128015168Y-63102866D01*
X128020032Y-63101490D01*
X128024608Y-63099356D01*
X128024614Y-63099354D01*
X128235454Y-63001038D01*
X128235458Y-63001036D01*
X128240036Y-62998901D01*
X128262735Y-62983475D01*
X128352417Y-62922526D01*
X128440807Y-62862456D01*
X128617181Y-62695668D01*
X128647827Y-62655585D01*
X128761547Y-62506846D01*
X128761550Y-62506842D01*
X128764620Y-62502826D01*
X128879331Y-62288891D01*
X128958362Y-62059369D01*
X128999679Y-61820164D01*
X129001000Y-61791075D01*
X129001000Y-61741456D01*
X131984500Y-61741456D01*
X131984702Y-61746488D01*
X131998650Y-61919843D01*
X132000262Y-61929796D01*
X132055733Y-62155633D01*
X132058916Y-62165203D01*
X132149780Y-62379265D01*
X132154455Y-62388207D01*
X132278374Y-62584987D01*
X132284414Y-62593060D01*
X132438203Y-62767500D01*
X132445456Y-62774504D01*
X132625154Y-62922110D01*
X132633436Y-62927866D01*
X132834419Y-63044841D01*
X132843524Y-63049203D01*
X133060615Y-63132537D01*
X133070304Y-63135388D01*
X133220764Y-63166821D01*
X133234825Y-63165698D01*
X133238500Y-63155590D01*
X133238500Y-63153590D01*
X133746500Y-63153590D01*
X133750636Y-63167676D01*
X133763614Y-63169725D01*
X133781330Y-63167675D01*
X133791227Y-63165715D01*
X134014994Y-63102396D01*
X134024438Y-63098884D01*
X134235205Y-63000601D01*
X134243971Y-62995622D01*
X134436302Y-62864913D01*
X134444177Y-62858581D01*
X134613126Y-62698814D01*
X134619887Y-62691305D01*
X134761125Y-62506574D01*
X134766589Y-62498095D01*
X134847085Y-62347971D01*
X138486884Y-62347971D01*
X138490570Y-62353240D01*
X138698121Y-62480427D01*
X138706915Y-62484908D01*
X138935242Y-62579484D01*
X138944627Y-62582533D01*
X139184940Y-62640228D01*
X139194687Y-62641771D01*
X139441070Y-62661162D01*
X139450930Y-62661162D01*
X139697313Y-62641771D01*
X139707060Y-62640228D01*
X139947373Y-62582533D01*
X139956758Y-62579484D01*
X140185085Y-62484908D01*
X140193879Y-62480427D01*
X140399928Y-62354160D01*
X140405190Y-62346099D01*
X140399183Y-62335893D01*
X139458812Y-61395522D01*
X139444868Y-61387908D01*
X139443035Y-61388039D01*
X139436420Y-61392290D01*
X138494276Y-62334434D01*
X138486884Y-62347971D01*
X134847085Y-62347971D01*
X134876478Y-62293153D01*
X134880520Y-62283901D01*
X134956227Y-62064029D01*
X134958736Y-62054257D01*
X134998504Y-61824029D01*
X134999359Y-61816157D01*
X135000436Y-61792449D01*
X135000500Y-61789616D01*
X135000500Y-61028430D01*
X137808338Y-61028430D01*
X137827729Y-61274813D01*
X137829272Y-61284560D01*
X137886967Y-61524873D01*
X137890016Y-61534258D01*
X137984592Y-61762585D01*
X137989073Y-61771379D01*
X138115340Y-61977428D01*
X138123401Y-61982690D01*
X138133607Y-61976683D01*
X139073978Y-61036312D01*
X139080356Y-61024632D01*
X139810408Y-61024632D01*
X139810539Y-61026465D01*
X139814790Y-61033080D01*
X140756934Y-61975224D01*
X140770471Y-61982616D01*
X140775740Y-61978930D01*
X140902927Y-61771379D01*
X140907408Y-61762585D01*
X141001984Y-61534258D01*
X141005033Y-61524873D01*
X141062728Y-61284560D01*
X141064271Y-61274813D01*
X141083662Y-61028430D01*
X142888338Y-61028430D01*
X142907729Y-61274813D01*
X142909272Y-61284560D01*
X142966967Y-61524873D01*
X142970016Y-61534258D01*
X143064592Y-61762585D01*
X143069073Y-61771379D01*
X143195340Y-61977428D01*
X143203401Y-61982690D01*
X143213607Y-61976683D01*
X144153978Y-61036312D01*
X144160356Y-61024632D01*
X144890408Y-61024632D01*
X144890539Y-61026465D01*
X144894790Y-61033080D01*
X145836934Y-61975224D01*
X145850471Y-61982616D01*
X145855740Y-61978930D01*
X145982927Y-61771379D01*
X145987408Y-61762585D01*
X146081984Y-61534258D01*
X146085033Y-61524873D01*
X146142728Y-61284560D01*
X146144271Y-61274813D01*
X146163662Y-61028430D01*
X146163662Y-61018570D01*
X146144271Y-60772187D01*
X146142728Y-60762440D01*
X146085033Y-60522127D01*
X146081984Y-60512742D01*
X145987408Y-60284415D01*
X145982927Y-60275621D01*
X145856660Y-60069572D01*
X145848599Y-60064310D01*
X145838393Y-60070317D01*
X144898022Y-61010688D01*
X144890408Y-61024632D01*
X144160356Y-61024632D01*
X144161592Y-61022368D01*
X144161461Y-61020535D01*
X144157210Y-61013920D01*
X143215066Y-60071776D01*
X143201529Y-60064384D01*
X143196260Y-60068070D01*
X143069073Y-60275621D01*
X143064592Y-60284415D01*
X142970016Y-60512742D01*
X142966967Y-60522127D01*
X142909272Y-60762440D01*
X142907729Y-60772187D01*
X142888338Y-61018570D01*
X142888338Y-61028430D01*
X141083662Y-61028430D01*
X141083662Y-61018570D01*
X141064271Y-60772187D01*
X141062728Y-60762440D01*
X141005033Y-60522127D01*
X141001984Y-60512742D01*
X140907408Y-60284415D01*
X140902927Y-60275621D01*
X140776660Y-60069572D01*
X140768599Y-60064310D01*
X140758393Y-60070317D01*
X139818022Y-61010688D01*
X139810408Y-61024632D01*
X139080356Y-61024632D01*
X139081592Y-61022368D01*
X139081461Y-61020535D01*
X139077210Y-61013920D01*
X138135066Y-60071776D01*
X138121529Y-60064384D01*
X138116260Y-60068070D01*
X137989073Y-60275621D01*
X137984592Y-60284415D01*
X137890016Y-60512742D01*
X137886967Y-60522127D01*
X137829272Y-60762440D01*
X137827729Y-60772187D01*
X137808338Y-61018570D01*
X137808338Y-61028430D01*
X135000500Y-61028430D01*
X135000500Y-60955115D01*
X134996025Y-60939876D01*
X134994635Y-60938671D01*
X134986952Y-60937000D01*
X133764615Y-60937000D01*
X133749376Y-60941475D01*
X133748171Y-60942865D01*
X133746500Y-60950548D01*
X133746500Y-63153590D01*
X133238500Y-63153590D01*
X133238500Y-60955115D01*
X133234025Y-60939876D01*
X133232635Y-60938671D01*
X133224952Y-60937000D01*
X132002615Y-60937000D01*
X131987376Y-60941475D01*
X131986171Y-60942865D01*
X131984500Y-60950548D01*
X131984500Y-61741456D01*
X129001000Y-61741456D01*
X129001000Y-60410885D01*
X131984500Y-60410885D01*
X131988975Y-60426124D01*
X131990365Y-60427329D01*
X131998048Y-60429000D01*
X133220385Y-60429000D01*
X133235624Y-60424525D01*
X133236829Y-60423135D01*
X133238500Y-60415452D01*
X133238500Y-60410885D01*
X133746500Y-60410885D01*
X133750975Y-60426124D01*
X133752365Y-60427329D01*
X133760048Y-60429000D01*
X134982385Y-60429000D01*
X134997624Y-60424525D01*
X134998829Y-60423135D01*
X135000500Y-60415452D01*
X135000500Y-59700901D01*
X138486810Y-59700901D01*
X138492817Y-59711107D01*
X139433188Y-60651478D01*
X139447132Y-60659092D01*
X139448965Y-60658961D01*
X139455580Y-60654710D01*
X140397724Y-59712566D01*
X140404094Y-59700901D01*
X143566810Y-59700901D01*
X143572817Y-59711107D01*
X144513188Y-60651478D01*
X144527132Y-60659092D01*
X144528965Y-60658961D01*
X144535580Y-60654710D01*
X145477724Y-59712566D01*
X145485116Y-59699029D01*
X145481430Y-59693760D01*
X145273879Y-59566573D01*
X145265085Y-59562092D01*
X145036758Y-59467516D01*
X145027373Y-59464467D01*
X144787060Y-59406772D01*
X144777313Y-59405229D01*
X144530930Y-59385838D01*
X144521070Y-59385838D01*
X144274687Y-59405229D01*
X144264940Y-59406772D01*
X144024627Y-59464467D01*
X144015242Y-59467516D01*
X143786915Y-59562092D01*
X143778121Y-59566573D01*
X143572072Y-59692840D01*
X143566810Y-59700901D01*
X140404094Y-59700901D01*
X140405116Y-59699029D01*
X140401430Y-59693760D01*
X140193879Y-59566573D01*
X140185085Y-59562092D01*
X139956758Y-59467516D01*
X139947373Y-59464467D01*
X139707060Y-59406772D01*
X139697313Y-59405229D01*
X139450930Y-59385838D01*
X139441070Y-59385838D01*
X139194687Y-59405229D01*
X139184940Y-59406772D01*
X138944627Y-59464467D01*
X138935242Y-59467516D01*
X138706915Y-59562092D01*
X138698121Y-59566573D01*
X138492072Y-59692840D01*
X138486810Y-59700901D01*
X135000500Y-59700901D01*
X135000500Y-59624544D01*
X135000298Y-59619512D01*
X134986350Y-59446157D01*
X134984738Y-59436204D01*
X134929267Y-59210367D01*
X134926084Y-59200797D01*
X134835220Y-58986735D01*
X134830545Y-58977793D01*
X134706626Y-58781013D01*
X134700586Y-58772940D01*
X134546797Y-58598500D01*
X134539544Y-58591496D01*
X134359846Y-58443890D01*
X134351564Y-58438134D01*
X134150581Y-58321159D01*
X134141476Y-58316797D01*
X133924385Y-58233463D01*
X133914696Y-58230612D01*
X133764236Y-58199179D01*
X133750175Y-58200302D01*
X133746500Y-58210410D01*
X133746500Y-60410885D01*
X133238500Y-60410885D01*
X133238500Y-58212410D01*
X133234364Y-58198324D01*
X133221386Y-58196275D01*
X133203670Y-58198325D01*
X133193773Y-58200285D01*
X132970006Y-58263604D01*
X132960562Y-58267116D01*
X132749795Y-58365399D01*
X132741029Y-58370378D01*
X132548698Y-58501087D01*
X132540823Y-58507419D01*
X132371874Y-58667186D01*
X132365113Y-58674695D01*
X132223875Y-58859426D01*
X132218411Y-58867905D01*
X132108522Y-59072847D01*
X132104480Y-59082099D01*
X132028773Y-59301971D01*
X132026264Y-59311743D01*
X131986496Y-59541971D01*
X131985641Y-59549843D01*
X131984564Y-59573551D01*
X131984500Y-59576384D01*
X131984500Y-60410885D01*
X129001000Y-60410885D01*
X129001000Y-59621999D01*
X128997330Y-59576384D01*
X128986846Y-59446076D01*
X128986845Y-59446071D01*
X128986440Y-59441035D01*
X128978968Y-59410612D01*
X128929744Y-59210208D01*
X128928537Y-59205294D01*
X128909578Y-59160628D01*
X128835665Y-58986502D01*
X128833688Y-58981844D01*
X128732104Y-58820532D01*
X128707028Y-58780712D01*
X128707026Y-58780709D01*
X128704333Y-58776433D01*
X128614640Y-58674695D01*
X128547150Y-58598142D01*
X128547147Y-58598139D01*
X128543802Y-58594345D01*
X128539893Y-58591134D01*
X128360128Y-58443474D01*
X128360125Y-58443472D01*
X128356222Y-58440266D01*
X128193943Y-58345817D01*
X128150790Y-58320701D01*
X128150788Y-58320700D01*
X128146422Y-58318159D01*
X128090803Y-58296809D01*
X127924522Y-58232980D01*
X127924518Y-58232979D01*
X127919798Y-58231167D01*
X127914848Y-58230133D01*
X127914845Y-58230132D01*
X127687131Y-58182560D01*
X127687127Y-58182560D01*
X127682180Y-58181526D01*
X127439683Y-58170514D01*
X127434663Y-58171095D01*
X127434659Y-58171095D01*
X127203571Y-58197833D01*
X127203567Y-58197834D01*
X127198544Y-58198415D01*
X127193680Y-58199791D01*
X127193677Y-58199792D01*
X127082800Y-58231167D01*
X126964968Y-58264510D01*
X126960392Y-58266644D01*
X126960386Y-58266646D01*
X126749546Y-58364962D01*
X126749542Y-58364964D01*
X126744964Y-58367099D01*
X126544193Y-58503544D01*
X126367819Y-58670332D01*
X126364741Y-58674358D01*
X126364740Y-58674359D01*
X126223453Y-58859154D01*
X126223450Y-58859158D01*
X126220380Y-58863174D01*
X126105669Y-59077109D01*
X126026638Y-59306631D01*
X126020131Y-59344302D01*
X125999376Y-59464467D01*
X125985321Y-59545836D01*
X125985141Y-59549797D01*
X125985141Y-59549798D01*
X125984337Y-59567511D01*
X125984000Y-59574925D01*
X125984000Y-59773500D01*
X125963998Y-59841621D01*
X125910342Y-59888114D01*
X125858000Y-59899500D01*
X125258226Y-59899500D01*
X125190105Y-59879498D01*
X125169131Y-59862595D01*
X123799419Y-58492883D01*
X123798490Y-58491945D01*
X123751024Y-58443474D01*
X123737329Y-58429489D01*
X123731407Y-58425672D01*
X123731404Y-58425670D01*
X123702178Y-58406835D01*
X123691839Y-58399407D01*
X123659150Y-58373312D01*
X123652808Y-58370246D01*
X123652803Y-58370243D01*
X123630110Y-58359273D01*
X123616698Y-58351747D01*
X123595500Y-58338086D01*
X123595495Y-58338084D01*
X123589576Y-58334269D01*
X123550281Y-58319967D01*
X123538537Y-58315006D01*
X123507244Y-58299878D01*
X123507242Y-58299877D01*
X123500895Y-58296809D01*
X123469456Y-58289551D01*
X123454720Y-58285185D01*
X123431020Y-58276559D01*
X123431016Y-58276558D01*
X123424400Y-58274150D01*
X123417414Y-58273267D01*
X123417412Y-58273267D01*
X123382921Y-58268910D01*
X123370369Y-58266675D01*
X123355031Y-58263134D01*
X123329623Y-58257268D01*
X123322583Y-58257243D01*
X123322580Y-58257243D01*
X123290296Y-58257130D01*
X123289459Y-58257102D01*
X123288646Y-58257000D01*
X123253054Y-58257000D01*
X123252614Y-58256999D01*
X123246859Y-58256979D01*
X123153847Y-58256654D01*
X123152679Y-58256915D01*
X123151111Y-58257000D01*
X122156980Y-58257000D01*
X122088859Y-58236998D01*
X122067962Y-58220173D01*
X122060186Y-58212410D01*
X121963803Y-58116195D01*
X121957572Y-58112354D01*
X121819468Y-58027225D01*
X121819466Y-58027224D01*
X121813238Y-58023385D01*
X121677642Y-57978410D01*
X121651889Y-57969868D01*
X121651887Y-57969868D01*
X121645361Y-57967703D01*
X121638525Y-57967003D01*
X121638522Y-57967002D01*
X121595469Y-57962591D01*
X121540900Y-57957000D01*
X120140100Y-57957000D01*
X120136854Y-57957337D01*
X120136850Y-57957337D01*
X120041192Y-57967262D01*
X120041188Y-57967263D01*
X120034334Y-57967974D01*
X120027798Y-57970155D01*
X120027796Y-57970155D01*
X119955794Y-57994177D01*
X119866554Y-58023950D01*
X119716152Y-58117022D01*
X119710979Y-58122204D01*
X119613335Y-58220018D01*
X119551052Y-58254097D01*
X119524162Y-58257000D01*
X116822980Y-58257000D01*
X116754859Y-58236998D01*
X116733962Y-58220173D01*
X116726186Y-58212410D01*
X116629803Y-58116195D01*
X116623572Y-58112354D01*
X116485468Y-58027225D01*
X116485466Y-58027224D01*
X116479238Y-58023385D01*
X116343642Y-57978410D01*
X116317889Y-57969868D01*
X116317887Y-57969868D01*
X116311361Y-57967703D01*
X116304525Y-57967003D01*
X116304522Y-57967002D01*
X116261469Y-57962591D01*
X116206900Y-57957000D01*
X114806100Y-57957000D01*
X114802854Y-57957337D01*
X114802850Y-57957337D01*
X114707192Y-57967262D01*
X114707188Y-57967263D01*
X114700334Y-57967974D01*
X114693798Y-57970155D01*
X114693796Y-57970155D01*
X114621794Y-57994177D01*
X114532554Y-58023950D01*
X114382152Y-58117022D01*
X114257195Y-58242197D01*
X114253355Y-58248427D01*
X114253354Y-58248428D01*
X114190226Y-58350841D01*
X114164385Y-58392762D01*
X114150534Y-58434523D01*
X114131132Y-58493017D01*
X114090701Y-58551376D01*
X114025137Y-58578613D01*
X114011539Y-58579349D01*
X108784173Y-58579349D01*
X108716052Y-58559347D01*
X108679961Y-58524172D01*
X108664273Y-58501087D01*
X108605456Y-58414542D01*
X108438668Y-58238168D01*
X108432514Y-58233463D01*
X108249846Y-58093802D01*
X108249842Y-58093799D01*
X108245826Y-58090729D01*
X108031891Y-57976018D01*
X107802369Y-57896987D01*
X107703022Y-57879827D01*
X107567074Y-57856345D01*
X107567068Y-57856344D01*
X107563164Y-57855670D01*
X107559203Y-57855490D01*
X107559202Y-57855490D01*
X107535494Y-57854413D01*
X107535475Y-57854413D01*
X107534075Y-57854349D01*
X106077726Y-57854349D01*
X106009605Y-57834347D01*
X105988631Y-57817444D01*
X105916570Y-57745383D01*
X105915641Y-57744445D01*
X105915535Y-57744337D01*
X105854480Y-57681989D01*
X105848558Y-57678172D01*
X105848555Y-57678170D01*
X105819329Y-57659335D01*
X105808990Y-57651907D01*
X105776301Y-57625812D01*
X105769959Y-57622746D01*
X105769954Y-57622743D01*
X105747261Y-57611773D01*
X105733849Y-57604247D01*
X105712651Y-57590586D01*
X105712646Y-57590584D01*
X105706727Y-57586769D01*
X105667432Y-57572467D01*
X105655688Y-57567506D01*
X105624395Y-57552378D01*
X105624393Y-57552377D01*
X105618046Y-57549309D01*
X105586607Y-57542051D01*
X105571871Y-57537685D01*
X105548171Y-57529059D01*
X105548167Y-57529058D01*
X105541551Y-57526650D01*
X105534565Y-57525767D01*
X105534563Y-57525767D01*
X105500072Y-57521410D01*
X105487520Y-57519175D01*
X105480281Y-57517504D01*
X105446774Y-57509768D01*
X105439734Y-57509743D01*
X105439731Y-57509743D01*
X105407447Y-57509630D01*
X105406610Y-57509602D01*
X105405797Y-57509500D01*
X105370205Y-57509500D01*
X105369765Y-57509499D01*
X105364010Y-57509479D01*
X105270998Y-57509154D01*
X105269830Y-57509415D01*
X105268262Y-57509500D01*
X99774173Y-57509500D01*
X99706052Y-57489498D01*
X99669961Y-57454323D01*
X99652941Y-57429278D01*
X99595456Y-57344693D01*
X99428668Y-57168319D01*
X99424641Y-57165240D01*
X99239846Y-57023953D01*
X99239842Y-57023950D01*
X99235826Y-57020880D01*
X99021891Y-56906169D01*
X98792369Y-56827138D01*
X98693022Y-56809978D01*
X98557074Y-56786496D01*
X98557068Y-56786495D01*
X98553164Y-56785821D01*
X98549203Y-56785641D01*
X98549202Y-56785641D01*
X98525494Y-56784564D01*
X98525475Y-56784564D01*
X98524075Y-56784500D01*
X96354999Y-56784500D01*
X96352491Y-56784702D01*
X96352486Y-56784702D01*
X96179076Y-56798654D01*
X96179071Y-56798655D01*
X96174035Y-56799060D01*
X96169127Y-56800266D01*
X96169124Y-56800266D01*
X96053007Y-56828787D01*
X95938294Y-56856963D01*
X95933642Y-56858938D01*
X95933638Y-56858939D01*
X95826252Y-56904522D01*
X95714844Y-56951812D01*
X95710560Y-56954510D01*
X95513712Y-57078472D01*
X95513709Y-57078474D01*
X95509433Y-57081167D01*
X95505639Y-57084512D01*
X95331142Y-57238350D01*
X95331139Y-57238353D01*
X95327345Y-57241698D01*
X95173266Y-57429278D01*
X95120110Y-57520609D01*
X95069004Y-57608418D01*
X95051159Y-57639078D01*
X95049346Y-57643801D01*
X94967759Y-57856345D01*
X94964167Y-57865702D01*
X94963133Y-57870652D01*
X94963132Y-57870655D01*
X94930302Y-58027806D01*
X94914526Y-58103320D01*
X94903514Y-58345817D01*
X84923689Y-58345817D01*
X84928486Y-58240183D01*
X84927897Y-58235089D01*
X84901167Y-58004071D01*
X84901166Y-58004067D01*
X84900585Y-57999044D01*
X84894070Y-57976018D01*
X84835866Y-57770331D01*
X84834490Y-57765468D01*
X84832356Y-57760892D01*
X84832354Y-57760886D01*
X84734038Y-57550046D01*
X84734036Y-57550042D01*
X84731901Y-57545464D01*
X84728405Y-57540319D01*
X84598302Y-57348881D01*
X84595456Y-57344693D01*
X84428668Y-57168319D01*
X84424641Y-57165240D01*
X84239846Y-57023953D01*
X84239842Y-57023950D01*
X84235826Y-57020880D01*
X84021891Y-56906169D01*
X83792369Y-56827138D01*
X83693022Y-56809978D01*
X83557074Y-56786496D01*
X83557068Y-56786495D01*
X83553164Y-56785821D01*
X83549203Y-56785641D01*
X83549202Y-56785641D01*
X83525494Y-56784564D01*
X83525475Y-56784564D01*
X83524075Y-56784500D01*
X81354999Y-56784500D01*
X81352491Y-56784702D01*
X81352486Y-56784702D01*
X81179076Y-56798654D01*
X81179071Y-56798655D01*
X81174035Y-56799060D01*
X81169127Y-56800266D01*
X81169124Y-56800266D01*
X81053007Y-56828787D01*
X80938294Y-56856963D01*
X80933642Y-56858938D01*
X80933638Y-56858939D01*
X80826252Y-56904522D01*
X80714844Y-56951812D01*
X80710560Y-56954510D01*
X80513712Y-57078472D01*
X80513709Y-57078474D01*
X80509433Y-57081167D01*
X80505639Y-57084512D01*
X80331142Y-57238350D01*
X80331139Y-57238353D01*
X80327345Y-57241698D01*
X80173266Y-57429278D01*
X80120110Y-57520609D01*
X80069004Y-57608418D01*
X80051159Y-57639078D01*
X80049346Y-57643801D01*
X79967759Y-57856345D01*
X79964167Y-57865702D01*
X79963133Y-57870652D01*
X79963132Y-57870655D01*
X79930302Y-58027806D01*
X79914526Y-58103320D01*
X79903514Y-58345817D01*
X79904095Y-58350837D01*
X79904095Y-58350841D01*
X79930535Y-58579349D01*
X79931415Y-58586956D01*
X79932791Y-58591820D01*
X79932792Y-58591823D01*
X79978476Y-58753266D01*
X79997510Y-58820532D01*
X79999644Y-58825108D01*
X79999646Y-58825114D01*
X80075011Y-58986735D01*
X80100099Y-59040536D01*
X80102940Y-59044717D01*
X80102941Y-59044718D01*
X80230601Y-59232562D01*
X80252347Y-59300146D01*
X80234103Y-59368758D01*
X80215484Y-59392480D01*
X76858883Y-62749081D01*
X76857945Y-62750010D01*
X76795489Y-62811171D01*
X76791672Y-62817093D01*
X76791670Y-62817096D01*
X76772835Y-62846322D01*
X76765407Y-62856661D01*
X76739312Y-62889350D01*
X76736246Y-62895692D01*
X76736243Y-62895697D01*
X76725273Y-62918390D01*
X76717747Y-62931802D01*
X76704086Y-62953000D01*
X76704084Y-62953005D01*
X76700269Y-62958924D01*
X76685969Y-62998215D01*
X76681006Y-63009963D01*
X76662809Y-63047605D01*
X76655551Y-63079044D01*
X76651185Y-63093780D01*
X76649157Y-63099354D01*
X76640150Y-63124100D01*
X76639267Y-63131086D01*
X76639267Y-63131088D01*
X76634910Y-63165579D01*
X76632675Y-63178131D01*
X76623268Y-63218877D01*
X76623243Y-63225917D01*
X76623243Y-63225920D01*
X76623130Y-63258204D01*
X76623102Y-63259041D01*
X76623000Y-63259854D01*
X76623000Y-63295600D01*
X76622654Y-63394653D01*
X76622915Y-63395821D01*
X76623000Y-63397389D01*
X76623000Y-65321000D01*
X76602998Y-65389121D01*
X76549342Y-65435614D01*
X76497000Y-65447000D01*
X73516500Y-65447000D01*
X73448379Y-65426998D01*
X73401886Y-65373342D01*
X73390500Y-65321000D01*
X73390500Y-65169499D01*
X73388776Y-65148070D01*
X73376346Y-64993576D01*
X73376345Y-64993571D01*
X73375940Y-64988535D01*
X73327448Y-64791107D01*
X73319244Y-64757708D01*
X73318037Y-64752794D01*
X73223188Y-64529344D01*
X73093833Y-64323933D01*
X73035065Y-64257273D01*
X72936650Y-64145642D01*
X72936647Y-64145639D01*
X72933302Y-64141845D01*
X72826993Y-64054522D01*
X72749628Y-63990974D01*
X72749625Y-63990972D01*
X72745722Y-63987766D01*
X72535922Y-63865659D01*
X72401725Y-63814146D01*
X72314022Y-63780480D01*
X72314018Y-63780479D01*
X72309298Y-63778667D01*
X72304348Y-63777633D01*
X72304345Y-63777632D01*
X72076631Y-63730060D01*
X72076627Y-63730060D01*
X72071680Y-63729026D01*
X71829183Y-63718014D01*
X71824163Y-63718595D01*
X71824159Y-63718595D01*
X71593071Y-63745333D01*
X71593067Y-63745334D01*
X71588044Y-63745915D01*
X71583180Y-63747291D01*
X71583177Y-63747292D01*
X71475958Y-63777632D01*
X71354468Y-63812010D01*
X71349892Y-63814144D01*
X71349886Y-63814146D01*
X71139046Y-63912462D01*
X71139042Y-63912464D01*
X71134464Y-63914599D01*
X70933693Y-64051044D01*
X70757319Y-64217832D01*
X70754241Y-64221858D01*
X70754240Y-64221859D01*
X70612953Y-64406654D01*
X70612950Y-64406658D01*
X70609880Y-64410674D01*
X70607490Y-64415132D01*
X70607489Y-64415133D01*
X70577311Y-64471415D01*
X70495169Y-64624609D01*
X70416138Y-64854131D01*
X70415276Y-64859123D01*
X70379330Y-65067233D01*
X70374821Y-65093336D01*
X70374641Y-65097297D01*
X70374641Y-65097298D01*
X70373588Y-65120496D01*
X70373500Y-65122425D01*
X70373500Y-65511500D01*
X70353498Y-65579621D01*
X70299842Y-65626114D01*
X70247500Y-65637500D01*
X69501820Y-65637500D01*
X69433699Y-65617498D01*
X69396029Y-65579942D01*
X69388370Y-65568104D01*
X69382264Y-65558665D01*
X69364016Y-65538610D01*
X69270296Y-65435614D01*
X69226387Y-65387358D01*
X69222336Y-65384159D01*
X69222332Y-65384155D01*
X69048677Y-65247011D01*
X69048672Y-65247008D01*
X69044623Y-65243810D01*
X69040107Y-65241317D01*
X69040104Y-65241315D01*
X68846379Y-65134373D01*
X68846375Y-65134371D01*
X68841855Y-65131876D01*
X68836986Y-65130152D01*
X68836982Y-65130150D01*
X68628403Y-65056288D01*
X68628399Y-65056287D01*
X68623528Y-65054562D01*
X68618435Y-65053655D01*
X68618432Y-65053654D01*
X68400595Y-65014851D01*
X68400589Y-65014850D01*
X68395506Y-65013945D01*
X68322596Y-65013054D01*
X68169081Y-65011179D01*
X68169079Y-65011179D01*
X68163911Y-65011116D01*
X67934964Y-65046150D01*
X67714814Y-65118106D01*
X67710226Y-65120494D01*
X67710222Y-65120496D01*
X67513961Y-65222663D01*
X67509372Y-65225052D01*
X67505239Y-65228155D01*
X67505236Y-65228157D01*
X67328290Y-65361012D01*
X67324155Y-65364117D01*
X67315339Y-65373342D01*
X67306670Y-65382414D01*
X67245146Y-65417844D01*
X67174233Y-65414387D01*
X67116447Y-65373141D01*
X67097594Y-65339592D01*
X67076268Y-65282705D01*
X67076267Y-65282703D01*
X67073115Y-65274295D01*
X66985761Y-65157739D01*
X66869205Y-65070385D01*
X66732816Y-65019255D01*
X66670634Y-65012500D01*
X64774366Y-65012500D01*
X64712184Y-65019255D01*
X64575795Y-65070385D01*
X64459239Y-65157739D01*
X64371885Y-65274295D01*
X64320755Y-65410684D01*
X64314000Y-65472866D01*
X64314000Y-67369134D01*
X61913000Y-67369134D01*
X61913000Y-51625000D01*
X61933002Y-51556879D01*
X61986658Y-51510386D01*
X62039000Y-51499000D01*
X147511000Y-51499000D01*
X147579121Y-51519002D01*
G37*
%TD.AperFunction*%
%TD*%
M02*
