M48
; DRILL file {KiCad (6.0.7)} date Fri Jan 27 14:33:49 2023
; FORMAT={-:-/ absolute / metric / decimal}
; #@! TF.CreationDate,2023-01-27T14:33:49-05:00
; #@! TF.GenerationSoftware,Kicad,Pcbnew,(6.0.7)
; #@! TF.FileFunction,MixedPlating,1,2
FMAT,2
METRIC
; #@! TA.AperFunction,Plated,PTH,ComponentDrill
T1C1.000
%
G90
G05
T1
X27.362Y-52.768
X27.362Y-55.308
X27.362Y-57.848
X30.22Y-96.266
X30.22Y-106.426
X32.442Y-45.339
X32.442Y-55.499
X35.3Y-99.812
X35.3Y-102.352
X35.3Y-104.892
X37.205Y-45.217
X37.205Y-47.757
X42.412Y-104.878
X42.412Y-107.378
X45.079Y-59.065
X45.079Y-61.605
X45.079Y-64.145
X53.588Y-75.194
X54.931Y-61.615
X54.931Y-64.155
X54.931Y-66.695
X54.931Y-69.235
X55.747Y-53.199
X55.747Y-55.699
X62.551Y-61.615
X62.551Y-64.155
X62.551Y-66.695
X62.551Y-69.235
X66.034Y-89.535
X67.558Y-71.31
X67.558Y-73.85
X67.558Y-76.391
X69.272Y-108.514
X71.812Y-108.514
X72.828Y-58.801
X73.4Y-93.218
X74.352Y-108.514
X80.361Y-82.804
X80.511Y-47.863
X82.48Y-68.008
X82.861Y-82.804
X83.011Y-47.863
X83.964Y-55.356
X85.02Y-68.008
X86.504Y-55.356
X87.964Y-47.736
X89.044Y-55.356
X92.01Y-108.521
X94.55Y-108.521
X94.602Y-84.519
X95.411Y-93.139
X95.411Y-99.139
X95.688Y-62.039
X98.124Y-47.736
X101.657Y-51.912
X101.657Y-57.912
X102.038Y-43.937
X102.038Y-46.477
X104.423Y-64.498
X104.423Y-67.037
X104.423Y-69.578
X108.411Y-93.139
X108.411Y-99.139
X109.602Y-84.519
X114.657Y-51.912
X114.657Y-57.912
X119.841Y-47.673
X120.961Y-67.754
X123.207Y-73.581
X125.152Y-92.837
X125.152Y-95.337
X126.613Y-59.611
X126.613Y-62.151
X128.899Y-81.978
X130.001Y-47.673
X130.733Y-105.664
X131.439Y-81.978
X131.543Y-89.837
X131.543Y-95.837
X135.145Y-48.889
X135.145Y-51.429
X135.145Y-53.969
X135.208Y-64.564
X135.208Y-67.104
X135.208Y-69.644
X137.979Y-75.12
X140.406Y-46.085
X142.906Y-46.085
X144.543Y-89.837
X144.543Y-95.837
X145.733Y-105.664
X147.575Y-51.142
X147.575Y-64.142
X148.139Y-76.644
X148.139Y-79.184
X149.155Y-92.646
X149.155Y-95.186
X153.575Y-51.142
X153.575Y-64.142
X153.579Y-82.867
X153.579Y-85.407
X153.579Y-87.947
X156.648Y-76.517
X157.156Y-44.069
X157.156Y-46.609
X158.617Y-91.63
X159.111Y-69.215
X161.23Y-81.852
X161.611Y-69.215
X163.379Y-100.457
X163.379Y-102.957
X163.77Y-81.852
X166.31Y-81.852
X166.808Y-76.517
T0
M30
