%TF.GenerationSoftware,KiCad,Pcbnew,(6.0.7)*%
%TF.CreationDate,2023-01-27T14:31:18-05:00*%
%TF.ProjectId,Phoenix612_All_Stages_PA_Testing_v2,50686f65-6e69-4783-9631-325f416c6c5f,rev?*%
%TF.SameCoordinates,Original*%
%TF.FileFunction,Soldermask,Bot*%
%TF.FilePolarity,Negative*%
%FSLAX46Y46*%
G04 Gerber Fmt 4.6, Leading zero omitted, Abs format (unit mm)*
G04 Created by KiCad (PCBNEW (6.0.7)) date 2023-01-27 14:31:18*
%MOMM*%
%LPD*%
G01*
G04 APERTURE LIST*
%ADD10O,4.000000X1.700000*%
%ADD11O,1.700000X4.000000*%
%ADD12O,4.000000X1.500000*%
%ADD13C,3.000000*%
%ADD14O,2.000000X4.000000*%
%ADD15O,4.000000X2.000000*%
G04 APERTURE END LIST*
D10*
%TO.C,D5*%
X37204750Y-47757000D03*
X37204750Y-45217000D03*
%TD*%
%TO.C,C37*%
X55746750Y-55699151D03*
X55746750Y-53199151D03*
%TD*%
D11*
%TO.C,C7*%
X159110901Y-69215000D03*
X161610901Y-69215000D03*
%TD*%
D10*
%TO.C,C5*%
X163379250Y-102957000D03*
X163379250Y-100457000D03*
%TD*%
D12*
%TO.C,Q1*%
X153579250Y-87947500D03*
X153579250Y-85407500D03*
X153579250Y-82867500D03*
%TD*%
D13*
%TO.C,L1*%
X145733250Y-105664000D03*
X130733250Y-105664000D03*
%TD*%
D14*
%TO.C,J11*%
X82480250Y-68008500D03*
X85020250Y-68008500D03*
%TD*%
D11*
%TO.C,C27*%
X83011250Y-47863500D03*
X80511250Y-47863500D03*
%TD*%
%TO.C,C16*%
X80361250Y-82804000D03*
X82861250Y-82804000D03*
%TD*%
D15*
%TO.C,J14*%
X157156250Y-44069000D03*
X157156250Y-46609000D03*
%TD*%
%TO.C,J3*%
X149155250Y-95186500D03*
X149155250Y-92646500D03*
%TD*%
D11*
%TO.C,RV1*%
X166310250Y-81851500D03*
X163770250Y-81851500D03*
X161230250Y-81851500D03*
%TD*%
D14*
%TO.C,D4*%
X130001250Y-47673000D03*
X119841250Y-47673000D03*
%TD*%
D15*
%TO.C,J20*%
X120961250Y-67754500D03*
%TD*%
D11*
%TO.C,D3*%
X87964250Y-47736500D03*
X98124250Y-47736500D03*
%TD*%
D15*
%TO.C,J12*%
X126612750Y-62151000D03*
X126612750Y-59611000D03*
%TD*%
D10*
%TO.C,RV5*%
X45078750Y-64144651D03*
X45078750Y-61604651D03*
X45078750Y-59064651D03*
%TD*%
D15*
%TO.C,J19*%
X27362250Y-52768500D03*
X27362250Y-55308500D03*
X27362250Y-57848500D03*
%TD*%
%TO.C,J1*%
X148139250Y-76644500D03*
X148139250Y-79184500D03*
%TD*%
%TO.C,D2*%
X30219750Y-106426000D03*
X30219750Y-96266000D03*
%TD*%
D12*
%TO.C,Q3*%
X104422750Y-64497500D03*
X104422750Y-67037500D03*
X104422750Y-69577500D03*
%TD*%
D13*
%TO.C,T2*%
X108411250Y-93139000D03*
X95411250Y-93139000D03*
X108411250Y-99139000D03*
X95411250Y-99139000D03*
%TD*%
D10*
%TO.C,U1*%
X62551250Y-61614651D03*
X62551250Y-64154651D03*
X62551250Y-66694651D03*
X62551250Y-69234651D03*
X54931250Y-69234651D03*
X54931250Y-66694651D03*
X54931250Y-64154651D03*
X54931250Y-61614651D03*
%TD*%
D14*
%TO.C,Q2*%
X69272250Y-108514000D03*
X71812250Y-108514000D03*
X74352250Y-108514000D03*
%TD*%
D15*
%TO.C,J15*%
X137979250Y-75120500D03*
%TD*%
D10*
%TO.C,D6*%
X32442250Y-45339000D03*
X32442250Y-55499000D03*
%TD*%
%TO.C,RV4*%
X135144750Y-53969500D03*
X135144750Y-51429500D03*
X135144750Y-48889500D03*
%TD*%
D12*
%TO.C,Q4*%
X135208250Y-64564000D03*
X135208250Y-67104000D03*
X135208250Y-69644000D03*
%TD*%
D10*
%TO.C,C12*%
X125152250Y-95337000D03*
D15*
X125152250Y-92837000D03*
%TD*%
%TO.C,J10*%
X102038250Y-43937000D03*
X102038250Y-46477000D03*
%TD*%
D14*
%TO.C,J7*%
X73399750Y-93218000D03*
%TD*%
%TO.C,J18*%
X72828250Y-58801000D03*
%TD*%
D13*
%TO.C,T4*%
X147575250Y-51142500D03*
X147575250Y-64142500D03*
X153575250Y-51142500D03*
X153575250Y-64142500D03*
%TD*%
D14*
%TO.C,J4*%
X131438750Y-81978500D03*
X128898750Y-81978500D03*
%TD*%
%TO.C,J9*%
X95688250Y-62039500D03*
%TD*%
%TO.C,J6*%
X92010250Y-108521500D03*
X94550250Y-108521500D03*
%TD*%
D11*
%TO.C,C34*%
X140405599Y-46085500D03*
X142905599Y-46085500D03*
%TD*%
%TO.C,RV3*%
X89043750Y-55356500D03*
X86503750Y-55356500D03*
X83963750Y-55356500D03*
%TD*%
D10*
%TO.C,RV6*%
X67557750Y-71310500D03*
X67557750Y-73850500D03*
X67557750Y-76390500D03*
%TD*%
D13*
%TO.C,T1*%
X131542750Y-95837000D03*
X144542750Y-95837000D03*
X131542750Y-89837000D03*
X144542750Y-89837000D03*
%TD*%
D14*
%TO.C,J5*%
X66033750Y-89535000D03*
%TD*%
%TO.C,J17*%
X53587750Y-75193651D03*
%TD*%
D10*
%TO.C,RV2*%
X35299750Y-99812000D03*
X35299750Y-102352000D03*
X35299750Y-104892000D03*
%TD*%
D14*
%TO.C,J2*%
X158616750Y-91630500D03*
%TD*%
%TO.C,J13*%
X123206750Y-73581000D03*
%TD*%
D13*
%TO.C,L2*%
X109601750Y-84518500D03*
X94601750Y-84518500D03*
%TD*%
D10*
%TO.C,C17*%
X42411750Y-107378500D03*
X42411750Y-104878500D03*
%TD*%
D13*
%TO.C,T3*%
X101657250Y-57912000D03*
X114657250Y-57912000D03*
X101657250Y-51912000D03*
X114657250Y-51912000D03*
%TD*%
D14*
%TO.C,D1*%
X166808250Y-76517500D03*
X156648250Y-76517500D03*
%TD*%
M02*
