%TF.GenerationSoftware,KiCad,Pcbnew,(6.0.7)*%
%TF.CreationDate,2023-01-27T14:31:18-05:00*%
%TF.ProjectId,Phoenix612_All_Stages_PA_Testing_v2,50686f65-6e69-4783-9631-325f416c6c5f,rev?*%
%TF.SameCoordinates,Original*%
%TF.FileFunction,Soldermask,Top*%
%TF.FilePolarity,Negative*%
%FSLAX46Y46*%
G04 Gerber Fmt 4.6, Leading zero omitted, Abs format (unit mm)*
G04 Created by KiCad (PCBNEW (6.0.7)) date 2023-01-27 14:31:18*
%MOMM*%
%LPD*%
G01*
G04 APERTURE LIST*
G04 Aperture macros list*
%AMRoundRect*
0 Rectangle with rounded corners*
0 $1 Rounding radius*
0 $2 $3 $4 $5 $6 $7 $8 $9 X,Y pos of 4 corners*
0 Add a 4 corners polygon primitive as box body*
4,1,4,$2,$3,$4,$5,$6,$7,$8,$9,$2,$3,0*
0 Add four circle primitives for the rounded corners*
1,1,$1+$1,$2,$3*
1,1,$1+$1,$4,$5*
1,1,$1+$1,$6,$7*
1,1,$1+$1,$8,$9*
0 Add four rect primitives between the rounded corners*
20,1,$1+$1,$2,$3,$4,$5,0*
20,1,$1+$1,$4,$5,$6,$7,0*
20,1,$1+$1,$6,$7,$8,$9,0*
20,1,$1+$1,$8,$9,$2,$3,0*%
G04 Aperture macros list end*
%ADD10RoundRect,0.250000X0.650000X-0.325000X0.650000X0.325000X-0.650000X0.325000X-0.650000X-0.325000X0*%
%ADD11RoundRect,0.250000X-0.625000X0.312500X-0.625000X-0.312500X0.625000X-0.312500X0.625000X0.312500X0*%
%ADD12O,4.000000X1.700000*%
%ADD13RoundRect,0.250000X-0.325000X-0.650000X0.325000X-0.650000X0.325000X0.650000X-0.325000X0.650000X0*%
%ADD14RoundRect,0.250000X0.625000X-0.312500X0.625000X0.312500X-0.625000X0.312500X-0.625000X-0.312500X0*%
%ADD15O,1.700000X4.000000*%
%ADD16C,2.500000*%
%ADD17O,4.000000X1.500000*%
%ADD18RoundRect,0.250000X-0.650000X0.325000X-0.650000X-0.325000X0.650000X-0.325000X0.650000X0.325000X0*%
%ADD19RoundRect,0.250000X-0.312500X-0.625000X0.312500X-0.625000X0.312500X0.625000X-0.312500X0.625000X0*%
%ADD20C,3.000000*%
%ADD21O,2.000000X4.000000*%
%ADD22RoundRect,0.250000X0.312500X0.625000X-0.312500X0.625000X-0.312500X-0.625000X0.312500X-0.625000X0*%
%ADD23O,4.000000X2.000000*%
%ADD24RoundRect,0.250000X0.325000X0.650000X-0.325000X0.650000X-0.325000X-0.650000X0.325000X-0.650000X0*%
G04 APERTURE END LIST*
D10*
%TO.C,C36*%
X66478250Y-58952151D03*
X66478250Y-56002151D03*
%TD*%
D11*
%TO.C,R8*%
X87900750Y-41702000D03*
X87900750Y-44627000D03*
%TD*%
D12*
%TO.C,D5*%
X37204750Y-47757000D03*
X37204750Y-45217000D03*
%TD*%
D10*
%TO.C,C19*%
X86925250Y-81993000D03*
X86925250Y-79043000D03*
%TD*%
%TO.C,C18*%
X89909750Y-99201500D03*
X89909750Y-96251500D03*
%TD*%
D13*
%TO.C,C40*%
X39349250Y-80083151D03*
X42299250Y-80083151D03*
%TD*%
D12*
%TO.C,C37*%
X55746750Y-55699151D03*
X55746750Y-53199151D03*
%TD*%
D14*
%TO.C,R10*%
X119079250Y-62851500D03*
X119079250Y-59926500D03*
%TD*%
D15*
%TO.C,C7*%
X159110901Y-69215000D03*
X161610901Y-69215000D03*
%TD*%
D16*
%TO.C,J16*%
X32251750Y-80083151D03*
X34791750Y-77543151D03*
X34791750Y-82623151D03*
X29711750Y-82623151D03*
X29711750Y-77543151D03*
%TD*%
D12*
%TO.C,C5*%
X163379250Y-102957000D03*
X163379250Y-100457000D03*
%TD*%
D17*
%TO.C,Q1*%
X153579250Y-87947500D03*
X153579250Y-85407500D03*
X153579250Y-82867500D03*
%TD*%
D18*
%TO.C,C39*%
X37966750Y-70988151D03*
X37966750Y-73938151D03*
%TD*%
D19*
%TO.C,R3*%
X121340250Y-82105500D03*
X124265250Y-82105500D03*
%TD*%
D10*
%TO.C,C38*%
X62731750Y-59015651D03*
X62731750Y-56065651D03*
%TD*%
D20*
%TO.C,L1*%
X145733250Y-105664000D03*
X130733250Y-105664000D03*
%TD*%
D11*
%TO.C,R13*%
X140859750Y-51544500D03*
X140859750Y-54469500D03*
%TD*%
D21*
%TO.C,J11*%
X82480250Y-68008500D03*
X85020250Y-68008500D03*
%TD*%
D15*
%TO.C,C27*%
X83011250Y-47863500D03*
X80511250Y-47863500D03*
%TD*%
%TO.C,C16*%
X80361250Y-82804000D03*
X82861250Y-82804000D03*
%TD*%
D22*
%TO.C,R21*%
X34920750Y-68970651D03*
X31995750Y-68970651D03*
%TD*%
D11*
%TO.C,R9*%
X148901250Y-41654000D03*
X148901250Y-44579000D03*
%TD*%
D23*
%TO.C,J14*%
X157156250Y-44069000D03*
X157156250Y-46609000D03*
%TD*%
%TO.C,J3*%
X149155250Y-95186500D03*
X149155250Y-92646500D03*
%TD*%
D10*
%TO.C,C8*%
X156394250Y-103026000D03*
X156394250Y-100076000D03*
%TD*%
D14*
%TO.C,R23*%
X41395750Y-74116151D03*
X41395750Y-71191151D03*
%TD*%
D15*
%TO.C,RV1*%
X166310250Y-81851500D03*
X163770250Y-81851500D03*
X161230250Y-81851500D03*
%TD*%
D16*
%TO.C,J8*%
X82734250Y-93154500D03*
X85274250Y-95694500D03*
X80194250Y-90614500D03*
X80194250Y-95694500D03*
X85274250Y-90614500D03*
%TD*%
D21*
%TO.C,D4*%
X130001250Y-47673000D03*
X119841250Y-47673000D03*
%TD*%
D23*
%TO.C,J20*%
X120961250Y-67754500D03*
%TD*%
D19*
%TO.C,R17*%
X140644250Y-69913500D03*
X143569250Y-69913500D03*
%TD*%
D14*
%TO.C,R19*%
X44951750Y-73989151D03*
X44951750Y-71064151D03*
%TD*%
D18*
%TO.C,C41*%
X38728750Y-61590151D03*
X38728750Y-64540151D03*
%TD*%
D22*
%TO.C,R16*%
X148522250Y-68453000D03*
X145597250Y-68453000D03*
%TD*%
D18*
%TO.C,C42*%
X34601250Y-71115151D03*
X34601250Y-74065151D03*
%TD*%
D10*
%TO.C,C29*%
X119904750Y-54482000D03*
X119904750Y-51532000D03*
%TD*%
D15*
%TO.C,D3*%
X87964250Y-47736500D03*
X98124250Y-47736500D03*
%TD*%
D23*
%TO.C,J12*%
X126612750Y-62151000D03*
X126612750Y-59611000D03*
%TD*%
D11*
%TO.C,R20*%
X34982250Y-62555151D03*
X34982250Y-65480151D03*
%TD*%
D24*
%TO.C,C20*%
X95893250Y-68008500D03*
X92943250Y-68008500D03*
%TD*%
D18*
%TO.C,C4*%
X169602250Y-74661500D03*
X169602250Y-77611500D03*
%TD*%
D19*
%TO.C,R4*%
X61777250Y-109855000D03*
X64702250Y-109855000D03*
%TD*%
D12*
%TO.C,RV5*%
X45078750Y-64144651D03*
X45078750Y-61604651D03*
X45078750Y-59064651D03*
%TD*%
D23*
%TO.C,J19*%
X27362250Y-52768500D03*
X27362250Y-55308500D03*
X27362250Y-57848500D03*
%TD*%
D18*
%TO.C,C43*%
X76130250Y-70988151D03*
X76130250Y-73938151D03*
%TD*%
%TO.C,C21*%
X83328750Y-60803000D03*
X83328750Y-63753000D03*
%TD*%
D11*
%TO.C,R29*%
X37331750Y-50544000D03*
X37331750Y-53469000D03*
%TD*%
D18*
%TO.C,C24*%
X105784750Y-43356000D03*
X105784750Y-46306000D03*
%TD*%
D11*
%TO.C,R6*%
X108959750Y-41717500D03*
X108959750Y-44642500D03*
%TD*%
D19*
%TO.C,R25*%
X57522750Y-74876151D03*
X60447750Y-74876151D03*
%TD*%
D18*
%TO.C,C28*%
X153409750Y-43737000D03*
X153409750Y-46687000D03*
%TD*%
D22*
%TO.C,R22*%
X41143750Y-58874151D03*
X38218750Y-58874151D03*
%TD*%
D14*
%TO.C,R5*%
X48571250Y-111381000D03*
X48571250Y-108456000D03*
%TD*%
D10*
%TO.C,C15*%
X90925750Y-82247000D03*
X90925750Y-79297000D03*
%TD*%
D23*
%TO.C,J1*%
X148139250Y-76644500D03*
X148139250Y-79184500D03*
%TD*%
%TO.C,D2*%
X30219750Y-106426000D03*
X30219750Y-96266000D03*
%TD*%
D17*
%TO.C,Q3*%
X104422750Y-64497500D03*
X104422750Y-67037500D03*
X104422750Y-69577500D03*
%TD*%
D20*
%TO.C,T2*%
X108411250Y-93139000D03*
X95411250Y-93139000D03*
X108411250Y-99139000D03*
X95411250Y-99139000D03*
%TD*%
D12*
%TO.C,U1*%
X62551250Y-61614651D03*
X62551250Y-64154651D03*
X62551250Y-66694651D03*
X62551250Y-69234651D03*
X54931250Y-69234651D03*
X54931250Y-66694651D03*
X54931250Y-64154651D03*
X54931250Y-61614651D03*
%TD*%
D21*
%TO.C,Q2*%
X69272250Y-108514000D03*
X71812250Y-108514000D03*
X74352250Y-108514000D03*
%TD*%
D23*
%TO.C,J15*%
X137979250Y-75120500D03*
%TD*%
D13*
%TO.C,C1*%
X164761750Y-89725500D03*
X167711750Y-89725500D03*
%TD*%
D12*
%TO.C,D6*%
X32442250Y-45339000D03*
X32442250Y-55499000D03*
%TD*%
%TO.C,RV4*%
X135144750Y-53969500D03*
X135144750Y-51429500D03*
X135144750Y-48889500D03*
%TD*%
D11*
%TO.C,R14*%
X130064750Y-41765500D03*
X130064750Y-44690500D03*
%TD*%
D19*
%TO.C,R11*%
X119331250Y-57134500D03*
X122256250Y-57134500D03*
%TD*%
D24*
%TO.C,C22*%
X98242750Y-43751500D03*
X95292750Y-43751500D03*
%TD*%
D17*
%TO.C,Q4*%
X135208250Y-64564000D03*
X135208250Y-67104000D03*
X135208250Y-69644000D03*
%TD*%
D12*
%TO.C,C12*%
X125152250Y-95337000D03*
D23*
X125152250Y-92837000D03*
%TD*%
D22*
%TO.C,R15*%
X153729250Y-71882000D03*
X150804250Y-71882000D03*
%TD*%
D23*
%TO.C,J10*%
X102038250Y-43937000D03*
X102038250Y-46477000D03*
%TD*%
D18*
%TO.C,C31*%
X126572250Y-51341500D03*
X126572250Y-54291500D03*
%TD*%
D21*
%TO.C,J7*%
X73399750Y-93218000D03*
%TD*%
D13*
%TO.C,C3*%
X164825250Y-86550500D03*
X167775250Y-86550500D03*
%TD*%
%TO.C,C10*%
X61701250Y-106235500D03*
X64651250Y-106235500D03*
%TD*%
D21*
%TO.C,J18*%
X72828250Y-58801000D03*
%TD*%
D18*
%TO.C,C2*%
X148139250Y-83234000D03*
X148139250Y-86184000D03*
%TD*%
D19*
%TO.C,R7*%
X86440250Y-61389000D03*
X89365250Y-61389000D03*
%TD*%
D20*
%TO.C,T4*%
X147575250Y-51142500D03*
X147575250Y-64142500D03*
X153575250Y-51142500D03*
X153575250Y-64142500D03*
%TD*%
D13*
%TO.C,C11*%
X61891750Y-102425500D03*
X64841750Y-102425500D03*
%TD*%
D24*
%TO.C,C25*%
X80422250Y-55229500D03*
X77472250Y-55229500D03*
%TD*%
D21*
%TO.C,J4*%
X131438750Y-81978500D03*
X128898750Y-81978500D03*
%TD*%
D18*
%TO.C,C32*%
X130318750Y-51278000D03*
X130318750Y-54228000D03*
%TD*%
D24*
%TO.C,C30*%
X128379250Y-66596000D03*
X125429250Y-66596000D03*
%TD*%
D21*
%TO.C,J9*%
X95688250Y-62039500D03*
%TD*%
%TO.C,J6*%
X92010250Y-108521500D03*
X94550250Y-108521500D03*
%TD*%
D24*
%TO.C,C13*%
X128087750Y-105600500D03*
X125137750Y-105600500D03*
%TD*%
D13*
%TO.C,C35*%
X153629250Y-68326000D03*
X150679250Y-68326000D03*
%TD*%
D15*
%TO.C,C34*%
X140405599Y-46085500D03*
X142905599Y-46085500D03*
%TD*%
%TO.C,RV3*%
X89043750Y-55356500D03*
X86503750Y-55356500D03*
X83963750Y-55356500D03*
%TD*%
D14*
%TO.C,R24*%
X51301750Y-64264000D03*
X51301750Y-61339000D03*
%TD*%
D24*
%TO.C,C9*%
X128024250Y-102044500D03*
X125074250Y-102044500D03*
%TD*%
D12*
%TO.C,RV6*%
X67557750Y-71310500D03*
X67557750Y-73850500D03*
X67557750Y-76390500D03*
%TD*%
D11*
%TO.C,R18*%
X49015750Y-55755000D03*
X49015750Y-52830000D03*
%TD*%
D24*
%TO.C,C14*%
X37028750Y-108902500D03*
X34078750Y-108902500D03*
%TD*%
D20*
%TO.C,T1*%
X131542750Y-95837000D03*
X144542750Y-95837000D03*
X131542750Y-89837000D03*
X144542750Y-89837000D03*
%TD*%
D21*
%TO.C,J5*%
X66033750Y-89535000D03*
%TD*%
%TO.C,J17*%
X53587750Y-75193651D03*
%TD*%
D11*
%TO.C,R27*%
X66795750Y-64017651D03*
X66795750Y-66942651D03*
%TD*%
D12*
%TO.C,RV2*%
X35299750Y-99812000D03*
X35299750Y-102352000D03*
X35299750Y-104892000D03*
%TD*%
D14*
%TO.C,R26*%
X72320250Y-73862151D03*
X72320250Y-70937151D03*
%TD*%
D19*
%TO.C,R28*%
X69907250Y-64208151D03*
X72832250Y-64208151D03*
%TD*%
D24*
%TO.C,C6*%
X141168750Y-83820000D03*
X138218750Y-83820000D03*
%TD*%
D21*
%TO.C,J2*%
X158616750Y-91630500D03*
%TD*%
D18*
%TO.C,C23*%
X79709250Y-61008000D03*
X79709250Y-63958000D03*
%TD*%
%TO.C,C26*%
X160775750Y-43673500D03*
X160775750Y-46623500D03*
%TD*%
D21*
%TO.C,J13*%
X123206750Y-73581000D03*
%TD*%
D20*
%TO.C,L2*%
X109601750Y-84518500D03*
X94601750Y-84518500D03*
%TD*%
D10*
%TO.C,C33*%
X134890750Y-45274500D03*
X134890750Y-42324500D03*
%TD*%
D11*
%TO.C,R2*%
X166744750Y-70292500D03*
X166744750Y-73217500D03*
%TD*%
D22*
%TO.C,R1*%
X162809750Y-86487000D03*
X159884750Y-86487000D03*
%TD*%
D12*
%TO.C,C17*%
X42411750Y-107378500D03*
X42411750Y-104878500D03*
%TD*%
D20*
%TO.C,T3*%
X101657250Y-57912000D03*
X114657250Y-57912000D03*
X101657250Y-51912000D03*
X114657250Y-51912000D03*
%TD*%
D21*
%TO.C,D1*%
X166808250Y-76517500D03*
X156648250Y-76517500D03*
%TD*%
D14*
%TO.C,R12*%
X122635250Y-62915000D03*
X122635250Y-59990000D03*
%TD*%
M02*
