%TF.GenerationSoftware,KiCad,Pcbnew,(6.0.7)*%
%TF.CreationDate,2023-01-27T14:31:18-05:00*%
%TF.ProjectId,Phoenix612_All_Stages_PA_Testing_v2,50686f65-6e69-4783-9631-325f416c6c5f,rev?*%
%TF.SameCoordinates,Original*%
%TF.FileFunction,Copper,L2,Bot*%
%TF.FilePolarity,Positive*%
%FSLAX46Y46*%
G04 Gerber Fmt 4.6, Leading zero omitted, Abs format (unit mm)*
G04 Created by KiCad (PCBNEW (6.0.7)) date 2023-01-27 14:31:18*
%MOMM*%
%LPD*%
G01*
G04 APERTURE LIST*
%TA.AperFunction,ComponentPad*%
%ADD10O,4.000000X1.700000*%
%TD*%
%TA.AperFunction,ComponentPad*%
%ADD11O,1.700000X4.000000*%
%TD*%
%TA.AperFunction,ComponentPad*%
%ADD12O,4.000000X1.500000*%
%TD*%
%TA.AperFunction,ComponentPad*%
%ADD13C,3.000000*%
%TD*%
%TA.AperFunction,ComponentPad*%
%ADD14O,2.000000X4.000000*%
%TD*%
%TA.AperFunction,ComponentPad*%
%ADD15O,4.000000X2.000000*%
%TD*%
G04 APERTURE END LIST*
D10*
%TO.P,D5,1,K*%
%TO.N,Net-(D5-Pad1)*%
X37204750Y-47757000D03*
%TO.P,D5,2,A*%
%TO.N,TX12V*%
X37204750Y-45217000D03*
%TD*%
%TO.P,C37,1*%
%TO.N,Net-(C36-Pad1)*%
X55746750Y-55699151D03*
%TO.P,C37,2*%
%TO.N,GND*%
X55746750Y-53199151D03*
%TD*%
D11*
%TO.P,C7,2*%
%TO.N,GND*%
X159110901Y-69215000D03*
%TO.P,C7,1*%
%TO.N,Net-(C4-Pad1)*%
X161610901Y-69215000D03*
%TD*%
D10*
%TO.P,C5,1*%
%TO.N,TX12V*%
X163379250Y-102957000D03*
%TO.P,C5,2*%
%TO.N,GND*%
X163379250Y-100457000D03*
%TD*%
D12*
%TO.P,Q1,1,D*%
%TO.N,Net-(J3-Pad2)*%
X153579250Y-87947500D03*
%TO.P,Q1,2,G*%
%TO.N,Net-(C2-Pad2)*%
X153579250Y-85407500D03*
%TO.P,Q1,3,S*%
%TO.N,GND*%
X153579250Y-82867500D03*
%TD*%
D13*
%TO.P,L1,1,1*%
%TO.N,TX12V*%
X145733250Y-105664000D03*
%TO.P,L1,2,2*%
%TO.N,M1_12V*%
X130733250Y-105664000D03*
%TD*%
D14*
%TO.P,J11,1,Pin_1*%
%TO.N,DRIVER_IN*%
X82480250Y-68008500D03*
%TO.P,J11,2,Pin_2*%
%TO.N,Net-(C20-Pad2)*%
X85020250Y-68008500D03*
%TD*%
D11*
%TO.P,C27,1*%
%TO.N,Net-(C25-Pad1)*%
X83011250Y-47863500D03*
%TO.P,C27,2*%
%TO.N,GND*%
X80511250Y-47863500D03*
%TD*%
%TO.P,C16,2*%
%TO.N,GND*%
X80361250Y-82804000D03*
%TO.P,C16,1*%
%TO.N,M2_12V*%
X82861250Y-82804000D03*
%TD*%
D15*
%TO.P,J14,1,Pin_1*%
%TO.N,Q2_12V*%
X157156250Y-44069000D03*
%TO.P,J14,2,Pin_2*%
%TO.N,Net-(J14-Pad2)*%
X157156250Y-46609000D03*
%TD*%
%TO.P,J3,1,Pin_1*%
%TO.N,Net-(J3-Pad1)*%
X149155250Y-95186500D03*
%TO.P,J3,2,Pin_2*%
%TO.N,Net-(J3-Pad2)*%
X149155250Y-92646500D03*
%TD*%
D11*
%TO.P,RV1,1,1*%
%TO.N,GND*%
X166310250Y-81851500D03*
%TO.P,RV1,2,2*%
%TO.N,Net-(C1-Pad1)*%
X163770250Y-81851500D03*
%TO.P,RV1,3,3*%
%TO.N,Net-(C4-Pad1)*%
X161230250Y-81851500D03*
%TD*%
D14*
%TO.P,D4,1,K*%
%TO.N,Net-(C33-Pad1)*%
X130001250Y-47673000D03*
%TO.P,D4,2,A*%
%TO.N,GND*%
X119841250Y-47673000D03*
%TD*%
D15*
%TO.P,J20,1,Pin_1*%
%TO.N,Net-(C30-Pad2)*%
X120961250Y-67754500D03*
%TD*%
D11*
%TO.P,D3,1,K*%
%TO.N,Net-(C25-Pad1)*%
X87964250Y-47736500D03*
%TO.P,D3,2,A*%
%TO.N,GND*%
X98124250Y-47736500D03*
%TD*%
D15*
%TO.P,J12,1,Pin_1*%
%TO.N,Net-(C30-Pad2)*%
X126612750Y-62151000D03*
%TO.P,J12,2,Pin_2*%
%TO.N,Net-(J12-Pad2)*%
X126612750Y-59611000D03*
%TD*%
D10*
%TO.P,RV5,1,1*%
%TO.N,Net-(R24-Pad1)*%
X45078750Y-64144651D03*
%TO.P,RV5,2,2*%
%TO.N,Net-(R22-Pad1)*%
X45078750Y-61604651D03*
%TO.P,RV5,3,3*%
X45078750Y-59064651D03*
%TD*%
D15*
%TO.P,J19,1,Pin_1*%
%TO.N,GND*%
X27362250Y-52768500D03*
%TO.P,J19,2,Pin_2*%
%TO.N,Net-(D6-Pad2)*%
X27362250Y-55308500D03*
%TO.P,J19,3,Pin_3*%
%TO.N,GND*%
X27362250Y-57848500D03*
%TD*%
%TO.P,J1,1,Pin_1*%
%TO.N,PA_IN*%
X148139250Y-76644500D03*
%TO.P,J1,2,Pin_2*%
%TO.N,Net-(C2-Pad1)*%
X148139250Y-79184500D03*
%TD*%
%TO.P,D2,1,K*%
%TO.N,Net-(C14-Pad1)*%
X30219750Y-106426000D03*
%TO.P,D2,2,A*%
%TO.N,GND*%
X30219750Y-96266000D03*
%TD*%
D12*
%TO.P,Q3,1,D*%
%TO.N,Net-(Q3-Pad1)*%
X104422750Y-64497500D03*
%TO.P,Q3,2,G*%
%TO.N,Net-(J9-Pad1)*%
X104422750Y-67037500D03*
%TO.P,Q3,3,S*%
%TO.N,GND*%
X104422750Y-69577500D03*
%TD*%
D13*
%TO.P,T2,1,AA*%
%TO.N,M2_12V*%
X108411250Y-93139000D03*
%TO.P,T2,2,AB*%
%TO.N,Net-(J6-Pad1)*%
X95411250Y-93139000D03*
%TO.P,T2,3,SB*%
%TO.N,GND*%
X108411250Y-99139000D03*
%TO.P,T2,4,SA*%
%TO.N,Net-(C18-Pad1)*%
X95411250Y-99139000D03*
%TD*%
D10*
%TO.P,U1,8,V+*%
%TO.N,Net-(C36-Pad1)*%
X62551250Y-61614651D03*
%TO.P,U1,7,OutB*%
%TO.N,Net-(R27-Pad1)*%
X62551250Y-64154651D03*
%TO.P,U1,6,InB-*%
%TO.N,Net-(R27-Pad2)*%
X62551250Y-66694651D03*
%TO.P,U1,5,InB+*%
%TO.N,Net-(R25-Pad2)*%
X62551250Y-69234651D03*
%TO.P,U1,4,V-*%
%TO.N,GND*%
X54931250Y-69234651D03*
%TO.P,U1,3,InA+*%
%TO.N,Net-(R19-Pad2)*%
X54931250Y-66694651D03*
%TO.P,U1,2,InA-*%
%TO.N,Net-(R24-Pad1)*%
X54931250Y-64154651D03*
%TO.P,U1,1,OutA*%
%TO.N,Net-(J17-Pad1)*%
X54931250Y-61614651D03*
%TD*%
D14*
%TO.P,Q2,1*%
%TO.N,Net-(J5-Pad1)*%
X69272250Y-108514000D03*
%TO.P,Q2,2*%
%TO.N,GND*%
X71812250Y-108514000D03*
%TO.P,Q2,3*%
%TO.N,Net-(J6-Pad2)*%
X74352250Y-108514000D03*
%TD*%
D15*
%TO.P,J15,1,Pin_1*%
%TO.N,PA_IN*%
X137979250Y-75120500D03*
%TD*%
D10*
%TO.P,D6,1,K*%
%TO.N,TX12V*%
X32442250Y-45339000D03*
%TO.P,D6,2,A*%
%TO.N,Net-(D6-Pad2)*%
X32442250Y-55499000D03*
%TD*%
%TO.P,RV4,1,1*%
%TO.N,GND*%
X135144750Y-53969500D03*
%TO.P,RV4,2,2*%
%TO.N,Net-(C31-Pad1)*%
X135144750Y-51429500D03*
%TO.P,RV4,3,3*%
%TO.N,Net-(C33-Pad1)*%
X135144750Y-48889500D03*
%TD*%
D12*
%TO.P,Q4,1,D*%
%TO.N,Net-(Q4-Pad1)*%
X135208250Y-64564000D03*
%TO.P,Q4,2,G*%
%TO.N,Net-(C30-Pad1)*%
X135208250Y-67104000D03*
%TO.P,Q4,3,S*%
%TO.N,GND*%
X135208250Y-69644000D03*
%TD*%
D10*
%TO.P,C12,1*%
%TO.N,M1_12V*%
X125152250Y-95337000D03*
D15*
%TO.P,C12,2*%
%TO.N,GND*%
X125152250Y-92837000D03*
%TD*%
%TO.P,J10,1,Pin_1*%
%TO.N,Q1_12V*%
X102038250Y-43937000D03*
%TO.P,J10,2,Pin_2*%
%TO.N,Net-(J10-Pad2)*%
X102038250Y-46477000D03*
%TD*%
D14*
%TO.P,J7,1,Pin_1*%
%TO.N,Net-(C18-Pad2)*%
X73399750Y-93218000D03*
%TD*%
%TO.P,J18,1,Pin_1*%
%TO.N,DRIVER_IN*%
X72828250Y-58801000D03*
%TD*%
D13*
%TO.P,T4,1,AA*%
%TO.N,Net-(C35-Pad2)*%
X147575250Y-51142500D03*
%TO.P,T4,2,AB*%
%TO.N,Net-(Q4-Pad1)*%
X147575250Y-64142500D03*
%TO.P,T4,3,SB*%
%TO.N,Net-(J14-Pad2)*%
X153575250Y-51142500D03*
%TO.P,T4,4,SA*%
%TO.N,Net-(C35-Pad2)*%
X153575250Y-64142500D03*
%TD*%
D14*
%TO.P,J4,1,Pin_1*%
%TO.N,Net-(C6-Pad2)*%
X131438750Y-81978500D03*
%TO.P,J4,2,Pin_2*%
%TO.N,Net-(J4-Pad2)*%
X128898750Y-81978500D03*
%TD*%
%TO.P,J9,1,Pin_1*%
%TO.N,Net-(J9-Pad1)*%
X95688250Y-62039500D03*
%TD*%
%TO.P,J6,2,Pin_2*%
%TO.N,Net-(J6-Pad2)*%
X92010250Y-108521500D03*
%TO.P,J6,1,Pin_1*%
%TO.N,Net-(J6-Pad1)*%
X94550250Y-108521500D03*
%TD*%
D11*
%TO.P,C34,1*%
%TO.N,Net-(C33-Pad1)*%
X140405599Y-46085500D03*
%TO.P,C34,2*%
%TO.N,GND*%
X142905599Y-46085500D03*
%TD*%
%TO.P,RV3,1,1*%
%TO.N,GND*%
X89043750Y-55356500D03*
%TO.P,RV3,2,2*%
%TO.N,Net-(C21-Pad1)*%
X86503750Y-55356500D03*
%TO.P,RV3,3,3*%
%TO.N,Net-(C25-Pad1)*%
X83963750Y-55356500D03*
%TD*%
D10*
%TO.P,RV6,1,1*%
%TO.N,Net-(R27-Pad2)*%
X67557750Y-71310500D03*
%TO.P,RV6,2,2*%
%TO.N,Net-(R26-Pad1)*%
X67557750Y-73850500D03*
%TO.P,RV6,3,3*%
X67557750Y-76390500D03*
%TD*%
D13*
%TO.P,T1,1,AA*%
%TO.N,M1_12V*%
X131542750Y-95837000D03*
%TO.P,T1,2,AB*%
%TO.N,Net-(J3-Pad1)*%
X144542750Y-95837000D03*
%TO.P,T1,3,SB*%
%TO.N,GND*%
X131542750Y-89837000D03*
%TO.P,T1,4,SA*%
%TO.N,Net-(C6-Pad1)*%
X144542750Y-89837000D03*
%TD*%
D14*
%TO.P,J5,1,Pin_1*%
%TO.N,Net-(J5-Pad1)*%
X66033750Y-89535000D03*
%TD*%
%TO.P,J17,1,Pin_1*%
%TO.N,Net-(J17-Pad1)*%
X53587750Y-75193651D03*
%TD*%
D10*
%TO.P,RV2,1,1*%
%TO.N,GND*%
X35299750Y-99812000D03*
%TO.P,RV2,2,2*%
%TO.N,Net-(C10-Pad1)*%
X35299750Y-102352000D03*
%TO.P,RV2,3,3*%
%TO.N,Net-(C14-Pad1)*%
X35299750Y-104892000D03*
%TD*%
D14*
%TO.P,J2,1,Pin_1*%
%TO.N,Net-(C2-Pad2)*%
X158616750Y-91630500D03*
%TD*%
%TO.P,J13,1,Pin_1*%
%TO.N,Net-(C30-Pad1)*%
X123206750Y-73581000D03*
%TD*%
D13*
%TO.P,L2,1,1*%
%TO.N,TX12V*%
X109601750Y-84518500D03*
%TO.P,L2,2,2*%
%TO.N,M2_12V*%
X94601750Y-84518500D03*
%TD*%
D10*
%TO.P,C17,1*%
%TO.N,Net-(C14-Pad1)*%
X42411750Y-107378500D03*
%TO.P,C17,2*%
%TO.N,GND*%
X42411750Y-104878500D03*
%TD*%
D13*
%TO.P,T3,1,AA*%
%TO.N,Net-(C29-Pad2)*%
X101657250Y-57912000D03*
%TO.P,T3,2,AB*%
%TO.N,Net-(Q3-Pad1)*%
X114657250Y-57912000D03*
%TO.P,T3,3,SB*%
%TO.N,Net-(J10-Pad2)*%
X101657250Y-51912000D03*
%TO.P,T3,4,SA*%
%TO.N,Net-(C29-Pad2)*%
X114657250Y-51912000D03*
%TD*%
D14*
%TO.P,D1,1,K*%
%TO.N,Net-(C4-Pad1)*%
X166808250Y-76517500D03*
%TO.P,D1,2,A*%
%TO.N,GND*%
X156648250Y-76517500D03*
%TD*%
M02*
