%TF.GenerationSoftware,KiCad,Pcbnew,(6.0.7)*%
%TF.CreationDate,2023-01-27T14:33:48-05:00*%
%TF.ProjectId,Phoenix612_All_Stages_PA_Testing_v2,50686f65-6e69-4783-9631-325f416c6c5f,rev?*%
%TF.SameCoordinates,Original*%
%TF.FileFunction,Drillmap*%
%TF.FilePolarity,Positive*%
%FSLAX45Y45*%
G04 Gerber Fmt 4.5, Leading zero omitted, Abs format (unit mm)*
G04 Created by KiCad (PCBNEW (6.0.7)) date 2023-01-27 14:33:48*
%MOMM*%
%LPD*%
G01*
G04 APERTURE LIST*
%ADD10C,0.100000*%
%ADD11C,0.200000*%
G04 APERTURE END LIST*
D10*
X2141175Y-3683000D02*
X17307625Y-3683000D01*
X17307625Y-3683000D02*
X17307625Y-11538550D01*
X17307625Y-11538550D02*
X2141175Y-11538550D01*
X2141175Y-11538550D02*
X2141175Y-3683000D01*
D11*
D10*
X2686225Y-5226850D02*
X2786225Y-5326850D01*
X2786225Y-5226850D02*
X2686225Y-5326850D01*
X2686225Y-5480850D02*
X2786225Y-5580850D01*
X2786225Y-5480850D02*
X2686225Y-5580850D01*
X2686225Y-5734850D02*
X2786225Y-5834850D01*
X2786225Y-5734850D02*
X2686225Y-5834850D01*
X2971975Y-9576600D02*
X3071975Y-9676600D01*
X3071975Y-9576600D02*
X2971975Y-9676600D01*
X2971975Y-10592600D02*
X3071975Y-10692600D01*
X3071975Y-10592600D02*
X2971975Y-10692600D01*
X3194225Y-4483900D02*
X3294225Y-4583900D01*
X3294225Y-4483900D02*
X3194225Y-4583900D01*
X3194225Y-5499900D02*
X3294225Y-5599900D01*
X3294225Y-5499900D02*
X3194225Y-5599900D01*
X3479975Y-9931200D02*
X3579975Y-10031200D01*
X3579975Y-9931200D02*
X3479975Y-10031200D01*
X3479975Y-10185200D02*
X3579975Y-10285200D01*
X3579975Y-10185200D02*
X3479975Y-10285200D01*
X3479975Y-10439200D02*
X3579975Y-10539200D01*
X3579975Y-10439200D02*
X3479975Y-10539200D01*
X3670475Y-4471700D02*
X3770475Y-4571700D01*
X3770475Y-4471700D02*
X3670475Y-4571700D01*
X3670475Y-4725700D02*
X3770475Y-4825700D01*
X3770475Y-4725700D02*
X3670475Y-4825700D01*
X4191175Y-10437850D02*
X4291175Y-10537850D01*
X4291175Y-10437850D02*
X4191175Y-10537850D01*
X4191175Y-10687850D02*
X4291175Y-10787850D01*
X4291175Y-10687850D02*
X4191175Y-10787850D01*
X4457875Y-5856465D02*
X4557875Y-5956465D01*
X4557875Y-5856465D02*
X4457875Y-5956465D01*
X4457875Y-6110465D02*
X4557875Y-6210465D01*
X4557875Y-6110465D02*
X4457875Y-6210465D01*
X4457875Y-6364465D02*
X4557875Y-6464465D01*
X4557875Y-6364465D02*
X4457875Y-6464465D01*
X5308775Y-7469365D02*
X5408775Y-7569365D01*
X5408775Y-7469365D02*
X5308775Y-7569365D01*
X5443125Y-6111465D02*
X5543125Y-6211465D01*
X5543125Y-6111465D02*
X5443125Y-6211465D01*
X5443125Y-6365465D02*
X5543125Y-6465465D01*
X5543125Y-6365465D02*
X5443125Y-6465465D01*
X5443125Y-6619465D02*
X5543125Y-6719465D01*
X5543125Y-6619465D02*
X5443125Y-6719465D01*
X5443125Y-6873465D02*
X5543125Y-6973465D01*
X5543125Y-6873465D02*
X5443125Y-6973465D01*
X5524675Y-5269915D02*
X5624675Y-5369915D01*
X5624675Y-5269915D02*
X5524675Y-5369915D01*
X5524675Y-5519915D02*
X5624675Y-5619915D01*
X5624675Y-5519915D02*
X5524675Y-5619915D01*
X6205125Y-6111465D02*
X6305125Y-6211465D01*
X6305125Y-6111465D02*
X6205125Y-6211465D01*
X6205125Y-6365465D02*
X6305125Y-6465465D01*
X6305125Y-6365465D02*
X6205125Y-6465465D01*
X6205125Y-6619465D02*
X6305125Y-6719465D01*
X6305125Y-6619465D02*
X6205125Y-6719465D01*
X6205125Y-6873465D02*
X6305125Y-6973465D01*
X6305125Y-6873465D02*
X6205125Y-6973465D01*
X6553375Y-8903500D02*
X6653375Y-9003500D01*
X6653375Y-8903500D02*
X6553375Y-9003500D01*
X6705775Y-7081050D02*
X6805775Y-7181050D01*
X6805775Y-7081050D02*
X6705775Y-7181050D01*
X6705775Y-7335050D02*
X6805775Y-7435050D01*
X6805775Y-7335050D02*
X6705775Y-7435050D01*
X6705775Y-7589050D02*
X6805775Y-7689050D01*
X6805775Y-7589050D02*
X6705775Y-7689050D01*
X6877225Y-10801400D02*
X6977225Y-10901400D01*
X6977225Y-10801400D02*
X6877225Y-10901400D01*
X7131225Y-10801400D02*
X7231225Y-10901400D01*
X7231225Y-10801400D02*
X7131225Y-10901400D01*
X7232825Y-5830100D02*
X7332825Y-5930100D01*
X7332825Y-5830100D02*
X7232825Y-5930100D01*
X7289975Y-9271800D02*
X7389975Y-9371800D01*
X7389975Y-9271800D02*
X7289975Y-9371800D01*
X7385225Y-10801400D02*
X7485225Y-10901400D01*
X7485225Y-10801400D02*
X7385225Y-10901400D01*
X7986125Y-8230400D02*
X8086125Y-8330400D01*
X8086125Y-8230400D02*
X7986125Y-8330400D01*
X8001125Y-4736350D02*
X8101125Y-4836350D01*
X8101125Y-4736350D02*
X8001125Y-4836350D01*
X8198025Y-6750850D02*
X8298025Y-6850850D01*
X8298025Y-6750850D02*
X8198025Y-6850850D01*
X8236125Y-8230400D02*
X8336125Y-8330400D01*
X8336125Y-8230400D02*
X8236125Y-8330400D01*
X8251125Y-4736350D02*
X8351125Y-4836350D01*
X8351125Y-4736350D02*
X8251125Y-4836350D01*
X8346375Y-5485650D02*
X8446375Y-5585650D01*
X8446375Y-5485650D02*
X8346375Y-5585650D01*
X8452025Y-6750850D02*
X8552025Y-6850850D01*
X8552025Y-6750850D02*
X8452025Y-6850850D01*
X8600375Y-5485650D02*
X8700375Y-5585650D01*
X8700375Y-5485650D02*
X8600375Y-5585650D01*
X8746425Y-4723650D02*
X8846425Y-4823650D01*
X8846425Y-4723650D02*
X8746425Y-4823650D01*
X8854375Y-5485650D02*
X8954375Y-5585650D01*
X8954375Y-5485650D02*
X8854375Y-5585650D01*
X9151025Y-10802150D02*
X9251025Y-10902150D01*
X9251025Y-10802150D02*
X9151025Y-10902150D01*
X9405025Y-10802150D02*
X9505025Y-10902150D01*
X9505025Y-10802150D02*
X9405025Y-10902150D01*
X9410175Y-8401850D02*
X9510175Y-8501850D01*
X9510175Y-8401850D02*
X9410175Y-8501850D01*
X9491125Y-9263900D02*
X9591125Y-9363900D01*
X9591125Y-9263900D02*
X9491125Y-9363900D01*
X9491125Y-9863900D02*
X9591125Y-9963900D01*
X9591125Y-9863900D02*
X9491125Y-9963900D01*
X9518825Y-6153950D02*
X9618825Y-6253950D01*
X9618825Y-6153950D02*
X9518825Y-6253950D01*
X9762425Y-4723650D02*
X9862425Y-4823650D01*
X9862425Y-4723650D02*
X9762425Y-4823650D01*
X10115725Y-5141200D02*
X10215725Y-5241200D01*
X10215725Y-5141200D02*
X10115725Y-5241200D01*
X10115725Y-5741200D02*
X10215725Y-5841200D01*
X10215725Y-5741200D02*
X10115725Y-5841200D01*
X10153825Y-4343700D02*
X10253825Y-4443700D01*
X10253825Y-4343700D02*
X10153825Y-4443700D01*
X10153825Y-4597700D02*
X10253825Y-4697700D01*
X10253825Y-4597700D02*
X10153825Y-4697700D01*
X10392275Y-6399750D02*
X10492275Y-6499750D01*
X10492275Y-6399750D02*
X10392275Y-6499750D01*
X10392275Y-6653750D02*
X10492275Y-6753750D01*
X10492275Y-6653750D02*
X10392275Y-6753750D01*
X10392275Y-6907750D02*
X10492275Y-7007750D01*
X10492275Y-6907750D02*
X10392275Y-7007750D01*
X10791125Y-9263900D02*
X10891125Y-9363900D01*
X10891125Y-9263900D02*
X10791125Y-9363900D01*
X10791125Y-9863900D02*
X10891125Y-9963900D01*
X10891125Y-9863900D02*
X10791125Y-9963900D01*
X10910175Y-8401850D02*
X11010175Y-8501850D01*
X11010175Y-8401850D02*
X10910175Y-8501850D01*
X11415725Y-5141200D02*
X11515725Y-5241200D01*
X11515725Y-5141200D02*
X11415725Y-5241200D01*
X11415725Y-5741200D02*
X11515725Y-5841200D01*
X11515725Y-5741200D02*
X11415725Y-5841200D01*
X11934125Y-4717300D02*
X12034125Y-4817300D01*
X12034125Y-4717300D02*
X11934125Y-4817300D01*
X12046125Y-6725450D02*
X12146125Y-6825450D01*
X12146125Y-6725450D02*
X12046125Y-6825450D01*
X12270675Y-7308100D02*
X12370675Y-7408100D01*
X12370675Y-7308100D02*
X12270675Y-7408100D01*
X12465225Y-9233700D02*
X12565225Y-9333700D01*
X12565225Y-9233700D02*
X12465225Y-9333700D01*
X12465225Y-9483700D02*
X12565225Y-9583700D01*
X12565225Y-9483700D02*
X12465225Y-9583700D01*
X12611275Y-5911100D02*
X12711275Y-6011100D01*
X12711275Y-5911100D02*
X12611275Y-6011100D01*
X12611275Y-6165100D02*
X12711275Y-6265100D01*
X12711275Y-6165100D02*
X12611275Y-6265100D01*
X12839875Y-8147850D02*
X12939875Y-8247850D01*
X12939875Y-8147850D02*
X12839875Y-8247850D01*
X12950125Y-4717300D02*
X13050125Y-4817300D01*
X13050125Y-4717300D02*
X12950125Y-4817300D01*
X13023325Y-10516400D02*
X13123325Y-10616400D01*
X13123325Y-10516400D02*
X13023325Y-10616400D01*
X13093875Y-8147850D02*
X13193875Y-8247850D01*
X13193875Y-8147850D02*
X13093875Y-8247850D01*
X13104275Y-8933700D02*
X13204275Y-9033700D01*
X13204275Y-8933700D02*
X13104275Y-9033700D01*
X13104275Y-9533700D02*
X13204275Y-9633700D01*
X13204275Y-9533700D02*
X13104275Y-9633700D01*
X13464475Y-4838950D02*
X13564475Y-4938950D01*
X13564475Y-4838950D02*
X13464475Y-4938950D01*
X13464475Y-5092950D02*
X13564475Y-5192950D01*
X13564475Y-5092950D02*
X13464475Y-5192950D01*
X13464475Y-5346950D02*
X13564475Y-5446950D01*
X13564475Y-5346950D02*
X13464475Y-5446950D01*
X13470825Y-6406400D02*
X13570825Y-6506400D01*
X13570825Y-6406400D02*
X13470825Y-6506400D01*
X13470825Y-6660400D02*
X13570825Y-6760400D01*
X13570825Y-6660400D02*
X13470825Y-6760400D01*
X13470825Y-6914400D02*
X13570825Y-7014400D01*
X13570825Y-6914400D02*
X13470825Y-7014400D01*
X13747925Y-7462050D02*
X13847925Y-7562050D01*
X13847925Y-7462050D02*
X13747925Y-7562050D01*
X13990560Y-4558550D02*
X14090560Y-4658550D01*
X14090560Y-4558550D02*
X13990560Y-4658550D01*
X14240560Y-4558550D02*
X14340560Y-4658550D01*
X14340560Y-4558550D02*
X14240560Y-4658550D01*
X14404275Y-8933700D02*
X14504275Y-9033700D01*
X14504275Y-8933700D02*
X14404275Y-9033700D01*
X14404275Y-9533700D02*
X14504275Y-9633700D01*
X14504275Y-9533700D02*
X14404275Y-9633700D01*
X14523325Y-10516400D02*
X14623325Y-10616400D01*
X14623325Y-10516400D02*
X14523325Y-10616400D01*
X14707525Y-5064250D02*
X14807525Y-5164250D01*
X14807525Y-5064250D02*
X14707525Y-5164250D01*
X14707525Y-6364250D02*
X14807525Y-6464250D01*
X14807525Y-6364250D02*
X14707525Y-6464250D01*
X14763925Y-7614450D02*
X14863925Y-7714450D01*
X14863925Y-7614450D02*
X14763925Y-7714450D01*
X14763925Y-7868450D02*
X14863925Y-7968450D01*
X14863925Y-7868450D02*
X14763925Y-7968450D01*
X14865525Y-9214650D02*
X14965525Y-9314650D01*
X14965525Y-9214650D02*
X14865525Y-9314650D01*
X14865525Y-9468650D02*
X14965525Y-9568650D01*
X14965525Y-9468650D02*
X14865525Y-9568650D01*
X15307525Y-5064250D02*
X15407525Y-5164250D01*
X15407525Y-5064250D02*
X15307525Y-5164250D01*
X15307525Y-6364250D02*
X15407525Y-6464250D01*
X15407525Y-6364250D02*
X15307525Y-6464250D01*
X15307925Y-8236750D02*
X15407925Y-8336750D01*
X15407925Y-8236750D02*
X15307925Y-8336750D01*
X15307925Y-8490750D02*
X15407925Y-8590750D01*
X15407925Y-8490750D02*
X15307925Y-8590750D01*
X15307925Y-8744750D02*
X15407925Y-8844750D01*
X15407925Y-8744750D02*
X15307925Y-8844750D01*
X15614825Y-7601750D02*
X15714825Y-7701750D01*
X15714825Y-7601750D02*
X15614825Y-7701750D01*
X15665625Y-4356900D02*
X15765625Y-4456900D01*
X15765625Y-4356900D02*
X15665625Y-4456900D01*
X15665625Y-4610900D02*
X15765625Y-4710900D01*
X15765625Y-4610900D02*
X15665625Y-4710900D01*
X15811675Y-9113050D02*
X15911675Y-9213050D01*
X15911675Y-9113050D02*
X15811675Y-9213050D01*
X15861090Y-6871500D02*
X15961090Y-6971500D01*
X15961090Y-6871500D02*
X15861090Y-6971500D01*
X16073025Y-8135150D02*
X16173025Y-8235150D01*
X16173025Y-8135150D02*
X16073025Y-8235150D01*
X16111090Y-6871500D02*
X16211090Y-6971500D01*
X16211090Y-6871500D02*
X16111090Y-6971500D01*
X16287925Y-9995700D02*
X16387925Y-10095700D01*
X16387925Y-9995700D02*
X16287925Y-10095700D01*
X16287925Y-10245700D02*
X16387925Y-10345700D01*
X16387925Y-10245700D02*
X16287925Y-10345700D01*
X16327025Y-8135150D02*
X16427025Y-8235150D01*
X16427025Y-8135150D02*
X16327025Y-8235150D01*
X16581025Y-8135150D02*
X16681025Y-8235150D01*
X16681025Y-8135150D02*
X16581025Y-8235150D01*
X16630825Y-7601750D02*
X16730825Y-7701750D01*
X16730825Y-7601750D02*
X16630825Y-7701750D01*
D11*
X2393794Y-11854026D02*
X2393794Y-11654026D01*
X2441413Y-11654026D01*
X2469985Y-11663550D01*
X2489032Y-11682598D01*
X2498556Y-11701645D01*
X2508080Y-11739740D01*
X2508080Y-11768312D01*
X2498556Y-11806407D01*
X2489032Y-11825455D01*
X2469985Y-11844502D01*
X2441413Y-11854026D01*
X2393794Y-11854026D01*
X2593794Y-11854026D02*
X2593794Y-11720693D01*
X2593794Y-11758788D02*
X2603318Y-11739740D01*
X2612842Y-11730217D01*
X2631889Y-11720693D01*
X2650937Y-11720693D01*
X2717604Y-11854026D02*
X2717604Y-11720693D01*
X2717604Y-11654026D02*
X2708080Y-11663550D01*
X2717604Y-11673074D01*
X2727127Y-11663550D01*
X2717604Y-11654026D01*
X2717604Y-11673074D01*
X2841413Y-11854026D02*
X2822365Y-11844502D01*
X2812842Y-11825455D01*
X2812842Y-11654026D01*
X2946175Y-11854026D02*
X2927127Y-11844502D01*
X2917603Y-11825455D01*
X2917603Y-11654026D01*
X3174746Y-11854026D02*
X3174746Y-11654026D01*
X3241413Y-11796883D01*
X3308080Y-11654026D01*
X3308080Y-11854026D01*
X3489032Y-11854026D02*
X3489032Y-11749264D01*
X3479508Y-11730217D01*
X3460461Y-11720693D01*
X3422365Y-11720693D01*
X3403318Y-11730217D01*
X3489032Y-11844502D02*
X3469984Y-11854026D01*
X3422365Y-11854026D01*
X3403318Y-11844502D01*
X3393794Y-11825455D01*
X3393794Y-11806407D01*
X3403318Y-11787359D01*
X3422365Y-11777836D01*
X3469984Y-11777836D01*
X3489032Y-11768312D01*
X3584270Y-11720693D02*
X3584270Y-11920693D01*
X3584270Y-11730217D02*
X3603318Y-11720693D01*
X3641413Y-11720693D01*
X3660461Y-11730217D01*
X3669984Y-11739740D01*
X3679508Y-11758788D01*
X3679508Y-11815931D01*
X3669984Y-11834978D01*
X3660461Y-11844502D01*
X3641413Y-11854026D01*
X3603318Y-11854026D01*
X3584270Y-11844502D01*
X3765223Y-11834978D02*
X3774746Y-11844502D01*
X3765223Y-11854026D01*
X3755699Y-11844502D01*
X3765223Y-11834978D01*
X3765223Y-11854026D01*
X3765223Y-11730217D02*
X3774746Y-11739740D01*
X3765223Y-11749264D01*
X3755699Y-11739740D01*
X3765223Y-11730217D01*
X3765223Y-11749264D01*
D10*
X2036175Y-12133550D02*
X2136175Y-12233550D01*
X2136175Y-12133550D02*
X2036175Y-12233550D01*
D11*
X2498556Y-12274026D02*
X2384270Y-12274026D01*
X2441413Y-12274026D02*
X2441413Y-12074026D01*
X2422365Y-12102598D01*
X2403318Y-12121645D01*
X2384270Y-12131169D01*
X2584270Y-12254978D02*
X2593794Y-12264502D01*
X2584270Y-12274026D01*
X2574746Y-12264502D01*
X2584270Y-12254978D01*
X2584270Y-12274026D01*
X2717604Y-12074026D02*
X2736651Y-12074026D01*
X2755699Y-12083550D01*
X2765223Y-12093074D01*
X2774746Y-12112121D01*
X2784270Y-12150217D01*
X2784270Y-12197836D01*
X2774746Y-12235931D01*
X2765223Y-12254978D01*
X2755699Y-12264502D01*
X2736651Y-12274026D01*
X2717604Y-12274026D01*
X2698556Y-12264502D01*
X2689032Y-12254978D01*
X2679508Y-12235931D01*
X2669985Y-12197836D01*
X2669985Y-12150217D01*
X2679508Y-12112121D01*
X2689032Y-12093074D01*
X2698556Y-12083550D01*
X2717604Y-12074026D01*
X2908080Y-12074026D02*
X2927127Y-12074026D01*
X2946175Y-12083550D01*
X2955699Y-12093074D01*
X2965223Y-12112121D01*
X2974746Y-12150217D01*
X2974746Y-12197836D01*
X2965223Y-12235931D01*
X2955699Y-12254978D01*
X2946175Y-12264502D01*
X2927127Y-12274026D01*
X2908080Y-12274026D01*
X2889032Y-12264502D01*
X2879508Y-12254978D01*
X2869984Y-12235931D01*
X2860461Y-12197836D01*
X2860461Y-12150217D01*
X2869984Y-12112121D01*
X2879508Y-12093074D01*
X2889032Y-12083550D01*
X2908080Y-12074026D01*
X3098556Y-12074026D02*
X3117603Y-12074026D01*
X3136651Y-12083550D01*
X3146175Y-12093074D01*
X3155699Y-12112121D01*
X3165223Y-12150217D01*
X3165223Y-12197836D01*
X3155699Y-12235931D01*
X3146175Y-12254978D01*
X3136651Y-12264502D01*
X3117603Y-12274026D01*
X3098556Y-12274026D01*
X3079508Y-12264502D01*
X3069984Y-12254978D01*
X3060461Y-12235931D01*
X3050937Y-12197836D01*
X3050937Y-12150217D01*
X3060461Y-12112121D01*
X3069984Y-12093074D01*
X3079508Y-12083550D01*
X3098556Y-12074026D01*
X3250937Y-12274026D02*
X3250937Y-12140693D01*
X3250937Y-12159740D02*
X3260461Y-12150217D01*
X3279508Y-12140693D01*
X3308080Y-12140693D01*
X3327127Y-12150217D01*
X3336651Y-12169264D01*
X3336651Y-12274026D01*
X3336651Y-12169264D02*
X3346175Y-12150217D01*
X3365223Y-12140693D01*
X3393794Y-12140693D01*
X3412842Y-12150217D01*
X3422365Y-12169264D01*
X3422365Y-12274026D01*
X3517603Y-12274026D02*
X3517603Y-12140693D01*
X3517603Y-12159740D02*
X3527127Y-12150217D01*
X3546175Y-12140693D01*
X3574746Y-12140693D01*
X3593794Y-12150217D01*
X3603318Y-12169264D01*
X3603318Y-12274026D01*
X3603318Y-12169264D02*
X3612842Y-12150217D01*
X3631889Y-12140693D01*
X3660461Y-12140693D01*
X3679508Y-12150217D01*
X3689032Y-12169264D01*
X3689032Y-12274026D01*
X4079508Y-12064502D02*
X3908080Y-12321645D01*
X4336651Y-12074026D02*
X4355699Y-12074026D01*
X4374746Y-12083550D01*
X4384270Y-12093074D01*
X4393794Y-12112121D01*
X4403318Y-12150217D01*
X4403318Y-12197836D01*
X4393794Y-12235931D01*
X4384270Y-12254978D01*
X4374746Y-12264502D01*
X4355699Y-12274026D01*
X4336651Y-12274026D01*
X4317604Y-12264502D01*
X4308080Y-12254978D01*
X4298556Y-12235931D01*
X4289032Y-12197836D01*
X4289032Y-12150217D01*
X4298556Y-12112121D01*
X4308080Y-12093074D01*
X4317604Y-12083550D01*
X4336651Y-12074026D01*
X4489032Y-12254978D02*
X4498556Y-12264502D01*
X4489032Y-12274026D01*
X4479508Y-12264502D01*
X4489032Y-12254978D01*
X4489032Y-12274026D01*
X4622365Y-12074026D02*
X4641413Y-12074026D01*
X4660461Y-12083550D01*
X4669985Y-12093074D01*
X4679508Y-12112121D01*
X4689032Y-12150217D01*
X4689032Y-12197836D01*
X4679508Y-12235931D01*
X4669985Y-12254978D01*
X4660461Y-12264502D01*
X4641413Y-12274026D01*
X4622365Y-12274026D01*
X4603318Y-12264502D01*
X4593794Y-12254978D01*
X4584270Y-12235931D01*
X4574746Y-12197836D01*
X4574746Y-12150217D01*
X4584270Y-12112121D01*
X4593794Y-12093074D01*
X4603318Y-12083550D01*
X4622365Y-12074026D01*
X4755699Y-12074026D02*
X4879508Y-12074026D01*
X4812842Y-12150217D01*
X4841413Y-12150217D01*
X4860461Y-12159740D01*
X4869985Y-12169264D01*
X4879508Y-12188312D01*
X4879508Y-12235931D01*
X4869985Y-12254978D01*
X4860461Y-12264502D01*
X4841413Y-12274026D01*
X4784270Y-12274026D01*
X4765223Y-12264502D01*
X4755699Y-12254978D01*
X4974746Y-12274026D02*
X5012842Y-12274026D01*
X5031889Y-12264502D01*
X5041413Y-12254978D01*
X5060461Y-12226407D01*
X5069985Y-12188312D01*
X5069985Y-12112121D01*
X5060461Y-12093074D01*
X5050937Y-12083550D01*
X5031889Y-12074026D01*
X4993794Y-12074026D01*
X4974746Y-12083550D01*
X4965223Y-12093074D01*
X4955699Y-12112121D01*
X4955699Y-12159740D01*
X4965223Y-12178788D01*
X4974746Y-12188312D01*
X4993794Y-12197836D01*
X5031889Y-12197836D01*
X5050937Y-12188312D01*
X5060461Y-12178788D01*
X5069985Y-12159740D01*
X5241413Y-12140693D02*
X5241413Y-12274026D01*
X5193794Y-12064502D02*
X5146175Y-12207359D01*
X5269985Y-12207359D01*
X5336651Y-12074026D02*
X5336651Y-12112121D01*
X5412842Y-12074026D02*
X5412842Y-12112121D01*
X5708080Y-12350217D02*
X5698556Y-12340693D01*
X5679508Y-12312121D01*
X5669984Y-12293074D01*
X5660461Y-12264502D01*
X5650937Y-12216883D01*
X5650937Y-12178788D01*
X5660461Y-12131169D01*
X5669984Y-12102598D01*
X5679508Y-12083550D01*
X5698556Y-12054978D01*
X5708080Y-12045455D01*
X5889032Y-12274026D02*
X5774746Y-12274026D01*
X5831889Y-12274026D02*
X5831889Y-12074026D01*
X5812842Y-12102598D01*
X5793794Y-12121645D01*
X5774746Y-12131169D01*
X6079508Y-12274026D02*
X5965223Y-12274026D01*
X6022365Y-12274026D02*
X6022365Y-12074026D01*
X6003318Y-12102598D01*
X5984270Y-12121645D01*
X5965223Y-12131169D01*
X6250937Y-12140693D02*
X6250937Y-12274026D01*
X6203318Y-12064502D02*
X6155699Y-12207359D01*
X6279508Y-12207359D01*
X6508080Y-12274026D02*
X6508080Y-12074026D01*
X6593794Y-12274026D02*
X6593794Y-12169264D01*
X6584270Y-12150217D01*
X6565223Y-12140693D01*
X6536651Y-12140693D01*
X6517603Y-12150217D01*
X6508080Y-12159740D01*
X6717603Y-12274026D02*
X6698556Y-12264502D01*
X6689032Y-12254978D01*
X6679508Y-12235931D01*
X6679508Y-12178788D01*
X6689032Y-12159740D01*
X6698556Y-12150217D01*
X6717603Y-12140693D01*
X6746175Y-12140693D01*
X6765223Y-12150217D01*
X6774746Y-12159740D01*
X6784270Y-12178788D01*
X6784270Y-12235931D01*
X6774746Y-12254978D01*
X6765223Y-12264502D01*
X6746175Y-12274026D01*
X6717603Y-12274026D01*
X6898556Y-12274026D02*
X6879508Y-12264502D01*
X6869984Y-12245455D01*
X6869984Y-12074026D01*
X7050937Y-12264502D02*
X7031889Y-12274026D01*
X6993794Y-12274026D01*
X6974746Y-12264502D01*
X6965223Y-12245455D01*
X6965223Y-12169264D01*
X6974746Y-12150217D01*
X6993794Y-12140693D01*
X7031889Y-12140693D01*
X7050937Y-12150217D01*
X7060461Y-12169264D01*
X7060461Y-12188312D01*
X6965223Y-12207359D01*
X7136651Y-12264502D02*
X7155699Y-12274026D01*
X7193794Y-12274026D01*
X7212842Y-12264502D01*
X7222365Y-12245455D01*
X7222365Y-12235931D01*
X7212842Y-12216883D01*
X7193794Y-12207359D01*
X7165223Y-12207359D01*
X7146175Y-12197836D01*
X7136651Y-12178788D01*
X7136651Y-12169264D01*
X7146175Y-12150217D01*
X7165223Y-12140693D01*
X7193794Y-12140693D01*
X7212842Y-12150217D01*
X7289032Y-12350217D02*
X7298556Y-12340693D01*
X7317603Y-12312121D01*
X7327127Y-12293074D01*
X7336651Y-12264502D01*
X7346175Y-12216883D01*
X7346175Y-12178788D01*
X7336651Y-12131169D01*
X7327127Y-12102598D01*
X7317603Y-12083550D01*
X7298556Y-12054978D01*
X7289032Y-12045455D01*
M02*
