G04 DipTrace 3.0.0.2*
G04 Bottom.gbr*
%MOMM*%
G04 #@! TF.FileFunction,Copper,L2,Bot*
G04 #@! TF.Part,Single*
G04 #@! TA.AperFunction,CopperBalancing*
%ADD16C,0.6*%
G04 #@! TA.AperFunction,ComponentPad*
%ADD29C,1.5*%
G04 #@! TA.AperFunction,ViaPad*
%ADD36C,1.0*%
%FSLAX35Y35*%
G04*
G71*
G90*
G75*
G01*
G04 Bottom*
%LPD*%
D36*
X3892800Y11482800D3*
X3682800Y11889300D3*
X2527800Y11457300D3*
X2508300Y10284300D3*
X3837300Y10299300D3*
X5971800Y8179800D3*
X17797800Y12544800D3*
X14971800Y4149300D3*
X11058300Y4174800D3*
X13771800Y5110800D3*
X13752300Y3937800D3*
X13099800Y3571800D3*
X1032300Y13208133D2*
D16*
X22129813D1*
X1032300Y13148467D2*
X22129813D1*
X1032300Y13088800D2*
X22129813D1*
X1032300Y13029133D2*
X22129813D1*
X1032300Y12969467D2*
X22129813D1*
X1032300Y12909800D2*
X22129813D1*
X1032300Y12850133D2*
X22129813D1*
X1032300Y12790467D2*
X22129813D1*
X1032300Y12730800D2*
X22129813D1*
X1032300Y12671133D2*
X22129813D1*
X1032300Y12611467D2*
X22129813D1*
X1032300Y12551800D2*
X22129813D1*
X1032300Y12492133D2*
X22129813D1*
X1032300Y12432467D2*
X22129813D1*
X1032300Y12372800D2*
X22129813D1*
X1032300Y12313133D2*
X22129813D1*
X1032300Y12253467D2*
X22129813D1*
X1032300Y12193800D2*
X22129813D1*
X1032300Y12134133D2*
X22129813D1*
X1032300Y12074467D2*
X22129813D1*
X1032300Y12014800D2*
X22129813D1*
X1032300Y11955133D2*
X22129813D1*
X1032300Y11895467D2*
X22129813D1*
X1032300Y11835800D2*
X22129813D1*
X1032300Y11776133D2*
X22129813D1*
X1032300Y11716467D2*
X22129813D1*
X1032300Y11656800D2*
X22129813D1*
X1032300Y11597133D2*
X22129813D1*
X1032300Y11537467D2*
X22129813D1*
X1032300Y11477800D2*
X22129813D1*
X1032300Y11418133D2*
X22129813D1*
X1032300Y11358467D2*
X22129813D1*
X1032300Y11298800D2*
X22129813D1*
X1032300Y11239133D2*
X22129813D1*
X1032300Y11179467D2*
X22129813D1*
X1032300Y11119800D2*
X22129813D1*
X1032300Y11060133D2*
X22129813D1*
X1032300Y11000467D2*
X22129813D1*
X1032300Y10940800D2*
X22129813D1*
X1032300Y10881133D2*
X22129813D1*
X1032300Y10821467D2*
X22129813D1*
X1032300Y10761800D2*
X22129813D1*
X1032300Y10702133D2*
X22129813D1*
X1032300Y10642467D2*
X22129813D1*
X1032300Y10582800D2*
X22129813D1*
X1032300Y10523133D2*
X22129813D1*
X1032300Y10463467D2*
X22129813D1*
X1032300Y10403800D2*
X22129813D1*
X1032300Y10344133D2*
X22129813D1*
X1032300Y10284467D2*
X22129813D1*
X1032300Y10224800D2*
X22129813D1*
X1032300Y10165133D2*
X22129813D1*
X1032300Y10105467D2*
X22129813D1*
X1032300Y10045800D2*
X22129813D1*
X1032300Y9986133D2*
X22129813D1*
X1032300Y9926467D2*
X22129813D1*
X1032300Y9866800D2*
X22129813D1*
X1032300Y9807133D2*
X22129813D1*
X1032300Y9747467D2*
X22129813D1*
X1032300Y9687800D2*
X22129813D1*
X1032300Y9628133D2*
X22129813D1*
X1032300Y9568467D2*
X22129813D1*
X1032300Y9508800D2*
X22129813D1*
X1032300Y9449133D2*
X22129813D1*
X1032300Y9389467D2*
X22129813D1*
X1032300Y9329800D2*
X22129813D1*
X1032300Y9270133D2*
X22129813D1*
X1032300Y9210467D2*
X22129813D1*
X1032300Y9150800D2*
X22129813D1*
X1032300Y9091133D2*
X22129813D1*
X1032300Y9031467D2*
X22129813D1*
X1032300Y8971800D2*
X22129813D1*
X1032300Y8912133D2*
X22129813D1*
X1032300Y8852467D2*
X22129813D1*
X1032300Y8792800D2*
X22129813D1*
X1032300Y8733133D2*
X22129813D1*
X1032300Y8673467D2*
X22129813D1*
X1032300Y8613800D2*
X22129813D1*
X1032300Y8554133D2*
X22129813D1*
X1032300Y8494467D2*
X22129813D1*
X1032300Y8434800D2*
X22129813D1*
X1032300Y8375133D2*
X22129813D1*
X1032300Y8315467D2*
X22129813D1*
X1032300Y8255800D2*
X22129813D1*
X1032300Y8196133D2*
X22129813D1*
X1032300Y8136467D2*
X22129813D1*
X1032300Y8076800D2*
X22129813D1*
X1032300Y8017133D2*
X22129813D1*
X1032300Y7957467D2*
X22129813D1*
X1032300Y7897800D2*
X22129813D1*
X1032300Y7838133D2*
X22129813D1*
X1032300Y7778467D2*
X22129813D1*
X1032300Y7718800D2*
X22129813D1*
X1032300Y7659133D2*
X22129813D1*
X1032300Y7599467D2*
X22129813D1*
X1032300Y7539800D2*
X22129813D1*
X1032300Y7480133D2*
X22129813D1*
X1032300Y7420467D2*
X22129813D1*
X1032300Y7360800D2*
X22129813D1*
X1032300Y7301133D2*
X22129813D1*
X1032300Y7241467D2*
X22129813D1*
X1032300Y7181800D2*
X22129813D1*
X1032300Y7122133D2*
X22129813D1*
X1032300Y7062467D2*
X22129813D1*
X1032300Y7002800D2*
X22129813D1*
X1032300Y6943133D2*
X22129813D1*
X1032300Y6883467D2*
X22129813D1*
X1032300Y6823800D2*
X22129813D1*
X1032300Y6764133D2*
X22129813D1*
X1032300Y6704467D2*
X22129813D1*
X1032300Y6644800D2*
X22129813D1*
X1032300Y6585133D2*
X22129813D1*
X1032300Y6525467D2*
X22129813D1*
X1032300Y6465800D2*
X22129813D1*
X1032300Y6406133D2*
X22129813D1*
X1032300Y6346467D2*
X22129813D1*
X1032300Y6286800D2*
X22129813D1*
X1032300Y6227133D2*
X22129813D1*
X1032300Y6167467D2*
X22129813D1*
X1032300Y6107800D2*
X22129813D1*
X1032300Y6048133D2*
X22129813D1*
X1032300Y5988467D2*
X22129813D1*
X1032300Y5928800D2*
X22129813D1*
X1032300Y5869133D2*
X22129813D1*
X1032300Y5809467D2*
X22129813D1*
X1032300Y5749800D2*
X22129813D1*
X1032300Y5690133D2*
X22129813D1*
X1032300Y5630467D2*
X22129813D1*
X1032300Y5570800D2*
X22129813D1*
X1032300Y5511133D2*
X22129813D1*
X1032300Y5451467D2*
X22129813D1*
X1032300Y5391800D2*
X22129813D1*
X1032300Y5332133D2*
X22129813D1*
X1032300Y5272467D2*
X22129813D1*
X1032300Y5212800D2*
X22129813D1*
X1032300Y5153133D2*
X22129813D1*
X1032300Y5093467D2*
X22129813D1*
X1032300Y5033800D2*
X22129813D1*
X1032300Y4974133D2*
X22129813D1*
X1032300Y4914467D2*
X22129813D1*
X1032300Y4854800D2*
X22129813D1*
X1032300Y4795133D2*
X22129813D1*
X1032300Y4735467D2*
X22129813D1*
X1032300Y4675800D2*
X22129813D1*
X1032300Y4616133D2*
X22129813D1*
X1032300Y4556467D2*
X22129813D1*
X1032300Y4496800D2*
X22129813D1*
X1032300Y4437133D2*
X22129813D1*
X1032300Y4377467D2*
X22129813D1*
X1032300Y4317800D2*
X22129813D1*
X1032300Y4258133D2*
X22129813D1*
X1032300Y4198467D2*
X22129813D1*
X1032300Y4138800D2*
X22129813D1*
X1032300Y4079133D2*
X22129813D1*
X1032300Y4019467D2*
X22129813D1*
X1032300Y3959800D2*
X22129813D1*
X1032300Y3900133D2*
X22129813D1*
X1032300Y3840467D2*
X22129813D1*
X1032300Y3780800D2*
X22129813D1*
X1032300Y3721133D2*
X22129813D1*
X1032300Y3661467D2*
X22129813D1*
X1032300Y3601800D2*
X22129813D1*
X1032300Y3542133D2*
X22129813D1*
X1032300Y3482467D2*
X22129813D1*
X1032300Y3422800D2*
X22129813D1*
X1032300Y3363133D2*
X22129813D1*
X1032300Y3303467D2*
X22129813D1*
X1032300Y3243800D2*
X22129813D1*
X1032300Y3184133D2*
X22129813D1*
X1032300Y3124467D2*
X22129813D1*
X1032300Y3064800D2*
X22129813D1*
X1032300Y3005133D2*
X22129813D1*
X1032300Y2945467D2*
X22129813D1*
X1032300Y2885800D2*
X22129813D1*
X1032300Y2826133D2*
X22129813D1*
X1032300Y2766467D2*
X22129813D1*
X1032300Y2706800D2*
X22129813D1*
X1032300Y2647133D2*
X22129813D1*
X1032300Y2587467D2*
X22129813D1*
X1032300Y2527800D2*
X22129813D1*
X1032300Y2468133D2*
X22129813D1*
X1032300Y2408467D2*
X22129813D1*
X1032300Y2348800D2*
X22129813D1*
X1032300Y2289133D2*
X22129813D1*
X1032300Y2229467D2*
X22129813D1*
X1032300Y2169800D2*
X22129813D1*
X1032300Y2110133D2*
X22129813D1*
X1032300Y2050467D2*
X22129813D1*
X1032300Y1990800D2*
X22129813D1*
X1032300Y1931133D2*
X22129813D1*
X1032300Y1871467D2*
X22129813D1*
X1032300Y1811800D2*
X22129813D1*
X1032300Y1752133D2*
X22129813D1*
X1032300Y1692467D2*
X22129813D1*
X1032300Y1632800D2*
X22129813D1*
X1032300Y1573133D2*
X22129813D1*
X1032300Y1513467D2*
X22129813D1*
X1032300Y1453800D2*
X22129813D1*
X1032300Y1394133D2*
X22129813D1*
X1032300Y1334467D2*
X22129813D1*
X1032300Y1274800D2*
X22129813D1*
X1032300Y1215133D2*
X22129813D1*
X1032300Y1155467D2*
X22129813D1*
X1032300Y1095800D2*
X22129813D1*
X1032300Y1036133D2*
X22129813D1*
X22105800Y13267800D2*
X1026300D1*
Y1023300D1*
X22135800D1*
Y13267800D1*
X22105800D1*
D29*
X7198800Y1603800D3*
X19666800Y4297800D3*
X4137300Y6970800D3*
X20275800Y2428800D3*
X18903300Y5644800D3*
X21600300Y6762300D3*
X15400800Y6171300D3*
X16899300Y8829300D3*
X16338300Y10549800D3*
X20707800Y9916800D3*
X20263800Y12123300D3*
X15705300Y11796300D3*
X13771800Y8877300D3*
X12994800Y10311300D3*
X8241300Y9396300D3*
X12126300Y8886300D3*
X9829800Y8776800D3*
X9697800Y6807300D3*
X12351300Y6942300D3*
X5977800Y7216800D3*
X5262300Y4881300D3*
X10927800Y2362800D3*
X15351300Y1965300D3*
X16809300Y1878300D3*
X18504300Y3019800D3*
X8943300Y10974300D3*
X5506800Y11748300D3*
X3271800Y9070800D3*
X4756800Y10201800D3*
X14905800Y12291300D3*
X11730300Y12342300D3*
X10078800Y12253800D3*
X2769300Y5287800D3*
X1279800Y10267800D3*
X18229800Y6447300D3*
X4054800Y2605800D3*
X5415300Y3093300D3*
X1533300Y7407300D3*
X18319800Y9993300D3*
M02*
