G04 DipTrace 3.0.0.2*
G04 Top.gbr*
%MOMM*%
G04 #@! TF.FileFunction,Copper,L1,Top*
G04 #@! TF.Part,Single*
%AMOUTLINE0*
4,1,4,
-0.88713,0.81423,
0.91263,0.78557,
0.88713,-0.81423,
-0.91263,-0.78557,
-0.88713,0.81423,
0*%
G04 #@! TA.AperFunction,Conductor*
%ADD14C,0.9*%
%ADD15C,0.508*%
G04 #@! TA.AperFunction,CopperBalancing*
%ADD16C,0.6*%
%ADD17R,1.8X1.6*%
%ADD18R,1.6X1.8*%
%ADD19R,1.6X1.2*%
%ADD20R,3.556X2.4638*%
%ADD21R,2.4638X1.6764*%
%ADD22O,3.6X1.5*%
%ADD23O,1.62X3.25*%
%ADD24R,1.2X1.6*%
%ADD25O,3.6X1.4*%
%ADD26O,3.25X1.62*%
%ADD27O,1.4X3.6*%
%ADD28O,2.6X1.4*%
G04 #@! TA.AperFunction,ComponentPad*
%ADD29C,1.5*%
%ADD30R,2.0X0.6*%
%ADD31O,1.4X2.6*%
%ADD32O,3.25X1.62*%
%ADD33O,3.0X1.5*%
%ADD34O,1.5X3.6*%
%ADD35O,3.6X1.2*%
G04 #@! TA.AperFunction,ViaPad*
%ADD36C,1.0*%
%ADD81OUTLINE0*%
%FSLAX35Y35*%
G04*
G71*
G90*
G75*
G01*
G04 Top*
%LPD*%
X5250300Y4299300D2*
D14*
X4374713D1*
X4366780Y4307233D1*
X3842367D1*
X3791800Y4357800D1*
X14169300Y1443800D2*
X14701177D1*
Y1455300D1*
X16078800D1*
X16260300Y1636800D1*
Y2473300D1*
X17986767Y2143250D2*
Y1515207D1*
X17926860Y1455300D1*
X16078800D1*
X18012300Y2594550D2*
Y2372300D1*
Y2168783D1*
X17986767Y2143250D1*
X16583300Y6023800D2*
Y5706300D1*
X18869550Y2308800D2*
Y1594050D1*
X18730800Y1455300D1*
X17926860D1*
X16264800Y6024300D2*
X16582800D1*
X16583300Y6023800D1*
X21213300Y2277300D2*
Y1507800D1*
X21160800Y1455300D1*
X18730800D1*
X12847800Y1801800D2*
Y1480800D1*
X14132300D1*
X14169300Y1443800D1*
X2086800Y1524300D2*
X2883427D1*
X4854800D1*
X4905300Y1574800D1*
X5250300Y4299300D2*
X5498470D1*
X5908800D1*
X8727300Y1480800D1*
X12847800D1*
X4905300Y1574800D2*
X6310800D1*
Y3486970D1*
X5498470Y4299300D1*
X21412300Y1860300D2*
X20992300D1*
X20989300Y1863300D1*
X13387213Y12906343D2*
X13799853D1*
X13819840Y12886357D1*
X14548357D1*
X14562300Y12900300D1*
X15250800Y12907800D2*
X14569800D1*
X14562300Y12900300D1*
X2091800Y2519427D2*
X2872527D1*
X2888450Y2535350D1*
Y2645450D1*
X3487800Y3244800D1*
X3709800D1*
X3738300Y3216300D1*
X4369800D1*
X4392300Y3193800D1*
X3752300Y3720300D2*
X3615603D1*
X3539800D1*
X3532300Y3712800D1*
X3738300Y3216300D2*
Y3597603D1*
X3615603Y3720300D1*
X13353213Y12188843D2*
X13630403D1*
X13819840Y12378280D1*
X13105713Y12178343D2*
X12739213D1*
X12667713Y12106843D1*
X13105713Y12178343D2*
X13342713D1*
X13353213Y12188843D1*
X9706800Y10871800D2*
X10452800D1*
X10936800Y10387800D1*
Y9855300D1*
X10900800Y9819300D1*
X11938800D1*
X12093300Y9664800D1*
X12318300D1*
X12328800Y9675300D1*
X7930800Y9961800D2*
X8758800D1*
X8904300Y9816300D1*
X10897800D1*
X10900800Y9819300D1*
X6594300Y8514800D2*
X6297300D1*
X6249300Y8466800D1*
X11688300Y7685300D2*
X12046800D1*
X12081300Y7719800D1*
X19410300Y11067800D2*
D15*
X19138300D1*
X18871800Y11334300D1*
Y11751300D1*
X18891300Y11770800D1*
X19410300Y11067800D2*
X19567300D1*
X19636800Y10998300D1*
Y10861800D1*
X19642800Y10855800D1*
Y10830300D1*
X19609800Y10797300D1*
X19426800D1*
X19410300Y10813800D1*
X1698800Y5704800D2*
D14*
Y5665300D1*
X2098800Y5265300D1*
Y5085260D1*
X2094313Y5080773D1*
X6661800Y7680300D2*
Y7553300D1*
X7677800Y6537300D1*
X8119800Y7246800D2*
X7993800D1*
X7701300Y6954300D1*
Y6560800D1*
X7677800Y6537300D1*
X1912533Y10856303D2*
X2268090D1*
X2272713Y10851680D1*
X2757853Y10854220D2*
X3030617D1*
X3040533Y10844303D1*
Y11030303D1*
X3015033Y11055803D1*
Y11355803D2*
Y11822567D1*
X3000800Y11836800D1*
Y12247570D1*
X3007533Y12254303D1*
X7667300Y9583800D2*
Y9318300D1*
X7671800Y9313800D1*
Y9045300D1*
X7677800Y9039300D1*
X7372800D1*
X7356300Y9022800D1*
X7667300Y9583800D2*
X7443300D1*
X7417800Y9609300D1*
X4429267Y10548307D2*
Y10508767D1*
X3585300Y9664800D1*
X1629800D1*
Y9410800D1*
X6594300Y8768800D2*
X6271300D1*
X6249300Y8746800D1*
X7356300Y8260800D2*
Y8018800D1*
X7372800Y8002300D1*
X6594300Y9022800D2*
Y9132300D1*
X6445800Y9280800D1*
X10981800Y7283300D2*
Y7200800D1*
X11112800Y7069800D1*
X10096800Y5926800D2*
Y6053800D1*
X11112800Y7069800D1*
X8119800Y7526800D2*
X8555800D1*
X8619300Y7590300D1*
Y8072900D2*
X9286400D1*
X9286800Y8073300D1*
X9288300Y8688300D2*
Y8074800D1*
X9286800Y7590700D2*
X9866200D1*
X9867300Y7591800D1*
X9286800Y7590700D2*
Y7054800D1*
X9268800Y7036800D1*
X8584800Y12721800D2*
X8149800D1*
X8139300Y12732300D1*
X1288800Y10869800D2*
X1619037D1*
X1632533Y10856303D1*
X12843300Y7719800D2*
X13383300D1*
X13386800Y7716300D1*
X7372800Y7722300D2*
X7635800D1*
X7677800Y7680300D1*
X8020800Y8506800D2*
X8264300D1*
X8605800Y8848300D1*
X14049300Y7910800D2*
X13861300D1*
X13666800Y7716300D1*
X9867300Y8074400D2*
X10475200D1*
X10476300Y8073300D1*
Y8637300D1*
X10480800Y8641800D1*
X7356300Y8514800D2*
X7732800D1*
X7740800Y8506800D1*
X3192300Y8225800D2*
X3421300D1*
X3429300Y8233800D1*
X11688300Y7965300D2*
X12072800D1*
X12081300Y7973800D1*
X12843300Y8227800D2*
Y8556800D1*
X12827300Y8572800D1*
Y8815800D1*
X12831800Y8820300D1*
Y9079800D1*
X12836300Y9084300D1*
X12579300D1*
X12574800Y9088800D1*
X3646713Y10868180D2*
X3376410D1*
X3369033Y10860803D1*
X11112800Y5926800D2*
Y6333800D1*
X11428800Y6649800D1*
Y8269300D1*
X11430800Y8271300D1*
X11710800D2*
X12037800D1*
X12081300Y8227800D1*
X4131853Y10870720D2*
X4386853D1*
X4429267Y10828307D1*
X4420267Y11039807D2*
Y10837307D1*
X4429267Y10828307D1*
X4443300Y12244800D2*
Y11842300D1*
X4421300Y11820300D1*
Y11340840D1*
X4420267Y11339807D1*
X10476300Y7590700D2*
X10954400D1*
X10981800Y7563300D1*
X12574800Y9368800D2*
X12335300D1*
X12328800Y9375300D1*
X15287880Y9637140D2*
Y9249720D1*
X15297300Y9240300D1*
X5029800Y9664800D2*
Y9410800D1*
Y9664800D2*
X5269800D1*
X5764800Y10159800D1*
X5970300D1*
X6016800Y10206300D1*
X5000800Y11349300D2*
Y11222300D1*
X6016800Y10206300D1*
X7417800Y9889300D2*
Y9904800D1*
X7507800Y9994800D1*
X7597800D1*
X7630800Y9961800D1*
X7016427Y10908547D2*
X7646547D1*
X7639800Y10901800D1*
X8362800Y10918300D2*
X8133300D1*
X8124300Y10909300D1*
X7882800D1*
X7873800Y10900300D1*
X7641300D1*
X7639800Y10901800D1*
X7875300Y11147300D2*
Y10901800D1*
X7873800Y10900300D1*
X5028053Y7735427D2*
Y7306047D1*
X5093300Y7240800D1*
Y6990300D1*
X5088800Y6985800D1*
Y6706800D1*
X5105300Y6690300D1*
Y6409800D1*
X5091800Y6396300D1*
X4864300Y6703800D2*
X5091800D1*
X4468800Y7777800D2*
X4736680D1*
X4778053Y7736427D1*
X4468800Y7777800D2*
X4279800D1*
X4180800Y7876800D1*
X3040533Y10564303D2*
X3365533D1*
X3369033Y10560803D1*
X7875300Y11427300D2*
X8083800D1*
X8088300Y11431800D1*
X4584300Y6703800D2*
Y6477300D1*
X4576800Y6469800D1*
X12831300Y4770300D2*
Y4516300D1*
Y4770300D2*
X13205800D1*
X13222800Y4753300D1*
X16362300Y8582800D2*
X16419300D1*
Y7957800D1*
X16668300Y7708800D1*
X16842600D1*
X16855150Y7696250D1*
X14385300Y10155800D2*
Y9910300D1*
X14383800Y9908800D1*
X14149800Y9910300D2*
X14382300D1*
X14383800Y9908800D2*
X14625300D1*
X14634300Y9917800D1*
X14848747D1*
X14872853Y9893693D1*
X15279327D1*
X15288880Y9884140D1*
X5826300Y8967300D2*
Y8737800D1*
X5278800Y8190300D1*
Y7738173D1*
X5275053Y7734427D1*
X12732213Y12921343D2*
X13092213D1*
X13107213Y12906343D1*
X14391353Y10684693D2*
Y10441853D1*
X14385300Y10435800D1*
X6165800Y9280800D2*
X5839800D1*
X5826300Y9267300D1*
X6165800Y9280800D2*
Y9617300D1*
X6975300Y10426800D1*
Y10621420D1*
X7015427Y10661547D1*
X15289880Y10134140D2*
Y10494380D1*
X15312300Y10516800D1*
X16567800Y11274300D2*
X15825300D1*
X15300300Y10749300D1*
Y10528800D1*
X15312300Y10516800D1*
X17760707Y11408487D2*
Y11552207D1*
X17841300Y11632800D1*
Y11753800D1*
X17839300Y11755800D1*
X18104300D1*
X18114800Y11766300D1*
X2704800Y7976300D2*
X3192300D1*
Y7945800D1*
X3900800Y7876800D2*
Y7938300D1*
X3199800D1*
X3192300Y7945800D1*
X6507300Y11104800D2*
X6750300D1*
X6813300Y11167800D1*
X7008173D1*
X7017427Y11158547D1*
X6991800Y11493300D2*
Y11184173D1*
X7017427Y11158547D1*
X2704800Y7726300D2*
Y7442800D1*
X2686800Y7424800D1*
X2511787Y6657827D2*
X2906827D1*
X2962800Y6713800D1*
Y7027800D1*
X2979300Y7044300D1*
Y7144800D1*
X2686800D1*
X13109727Y5882947D2*
X12860653D1*
X12601800Y6141800D1*
X12387300D1*
X12375300Y6153800D1*
X12157800D1*
X12150300Y6146300D1*
X11914800D1*
X11905800Y6155300D1*
X11704300D1*
X11682300Y6133300D1*
X3513300Y6126300D2*
X3265800D1*
X3244800Y6147300D1*
X3210300D1*
X2989800Y5926800D1*
X3244800Y6427300D2*
X2969300D1*
X2962800Y6433800D1*
X2533760D1*
X2510787Y6410827D1*
X3511800Y4357800D2*
Y4477800D1*
X3264300Y4725300D1*
X11682300Y5853300D2*
X11662800D1*
Y5292300D1*
X13108727Y5632947D2*
X13452447D1*
X13461300Y5641800D1*
X9431300Y4770300D2*
Y4516300D1*
X13108727Y5632947D2*
X12697947D1*
X11835300Y4770300D1*
X9431300D1*
X16855150Y7188250D2*
X17635877D1*
X17651800Y7204173D1*
X18208427D1*
X18252300Y7160300D1*
X16392300Y7489800D2*
Y7426800D1*
X16623300Y7195800D1*
X16847600D1*
X16855150Y7188250D1*
X16008873Y4211153D2*
X15723197D1*
X15688800Y4245550D1*
X15435300Y4240300D2*
X15683550D1*
X15688800Y4245550D1*
X14563300Y4513800D2*
X15412800D1*
X15480300Y4446300D1*
Y4285300D1*
X15435300Y4240300D1*
X18576300Y10911800D2*
D15*
X19220300D1*
X19257300Y10948800D1*
X19402300D1*
X19410300Y10940800D1*
X19950300Y11194800D2*
X19846800D1*
X19812300Y11229300D1*
Y11548300D1*
X19817300Y11553300D1*
X19410300Y11194800D2*
X19521300D1*
X19549800Y11223300D1*
Y11539800D1*
X19563300Y11553300D1*
X13184800Y7177800D2*
D14*
Y6204020D1*
X13110727Y6129947D1*
X13184800Y7177800D2*
X14278800D1*
X14670300Y7569300D1*
Y9040800D1*
X14874300Y9244800D1*
X14992800D1*
X14997300Y9240300D1*
X19950300Y11067800D2*
D15*
X20172800D1*
X20241300Y11136300D1*
X18394800Y11766300D2*
D14*
X18606800D1*
X18611300Y11770800D1*
Y11196800D1*
X18576300Y11161800D1*
X18394800Y11766300D2*
Y12024300D1*
X18393300Y12025800D1*
X19950300Y10813800D2*
D15*
Y10501800D1*
X19932300Y10483800D1*
X19914800Y9823800D2*
D14*
Y10466300D1*
X19932300Y10483800D1*
X19660800Y9823800D2*
X19082300D1*
X19071800Y9813300D1*
X19633800Y10225800D2*
Y10465300D1*
X19652300Y10483800D1*
X17154300Y11273300D2*
Y11047800D1*
X17134800Y11028300D1*
X16847800Y11274300D2*
X17153300D1*
X17154300Y11273300D1*
X17336800D1*
X17458800Y11151300D1*
X17749520D1*
X17759707Y11161487D1*
X17758707Y10911487D2*
Y10575393D1*
X17767800Y10566300D1*
Y10189800D1*
X17793300Y10164300D1*
X16882800Y11832300D2*
Y12241300D1*
X16865800Y12258300D1*
X16882800Y11832300D2*
Y11824800D1*
X17154300Y11553300D1*
X16882800Y11832300D2*
X17311800D1*
X17383800Y11760300D1*
X17554800D1*
X17559300Y11755800D1*
X16014277Y3605040D2*
X16284540D1*
X16381800Y3702300D1*
Y3928300D1*
X16387300Y3933800D1*
X16609550D1*
X15205750Y2741333D2*
Y2796513D1*
X16014277Y3605040D1*
X16007873Y3964153D2*
X15690197D1*
X15688800Y3965550D1*
X15213730Y3593073D2*
X15549573D1*
X15681300Y3724800D1*
Y3958050D1*
X15688800Y3965550D1*
X15911050Y4727550D2*
X16165050D1*
X15911050D2*
Y4559977D1*
X16009873Y4461153D1*
X16006300Y2753300D2*
X15885050D1*
X15784050Y2652300D1*
X16006300Y2753300D2*
X16260300D1*
X16508550D1*
X16514300Y2747550D1*
X16387300Y4213800D2*
Y4478043D1*
X16414590Y4505333D1*
X16387300Y4213800D2*
X16609550D1*
X16831800D1*
X17165127D1*
X17196927Y4245600D1*
X17387427Y4452000D2*
Y4604923D1*
X17238800Y4753550D1*
Y5039300D2*
Y4753550D1*
X17111800Y3642300D2*
Y2963037D1*
X17123060Y2951777D1*
X17111800Y3642300D2*
X17179800D1*
X17469300Y3931800D1*
Y3989050D1*
X17403300Y4055050D1*
X18006550Y3324800D2*
Y2975550D1*
X17974800Y2943800D1*
X17927597D1*
X17135027Y2151230D1*
X18990800Y4848800D2*
X20266300D1*
X20397300Y4717800D1*
Y4477300D1*
X20387800Y4467800D1*
Y4420597D1*
X21180370Y3628027D1*
X20191550Y3737550D2*
X20258333D1*
X20379823Y3616060D1*
Y3097380D1*
X20359007Y3076563D1*
X18286550Y3324800D2*
Y3640550D1*
X18778800Y4132800D1*
X18947300D1*
X18959050Y4144550D1*
X18990800Y4594800D2*
Y4176300D1*
X18959050Y4144550D1*
X19689300Y2400050D2*
Y2854300D1*
X19663300Y2880300D1*
X18959050Y3864550D2*
Y3610550D1*
X19227550D1*
X19648800Y3189300D1*
Y2894800D1*
X19663300Y2880300D1*
X20927550Y4436050D2*
X21144633D1*
X21188350Y4479767D1*
X19149550Y2626300D2*
Y2308800D1*
Y2912050D2*
Y2626300D1*
Y2308800D2*
X19348050D1*
X19439300Y2400050D1*
X15930300Y6982800D2*
Y6979800D1*
Y6762800D1*
X15805300Y6637800D1*
X16132800Y6979800D2*
X15930300D1*
X13222800Y4473300D2*
X13484833D1*
X13516713Y4505180D1*
X20880300Y5174300D2*
X21134300D1*
X20880300D2*
Y4763300D1*
X20927550Y4716050D1*
X16831800Y3933800D2*
Y3642300D1*
X15369800Y7362300D2*
Y7047300D1*
X15222300Y6899800D1*
X14999800D1*
X14764800Y6664800D1*
X15619800Y7362300D2*
Y7013300D1*
X15650300Y6982800D1*
X17656800Y8199300D2*
X20797800D1*
X20872800Y8274300D1*
Y8566800D1*
X20880300Y8574300D1*
X21134300D1*
X16858150Y6426550D2*
Y6028950D1*
X16863300Y6023800D1*
X17085550D1*
X14001853Y4507720D2*
X14277220D1*
X14283300Y4513800D1*
Y4348800D1*
X14295300Y4336800D1*
Y4036800D2*
Y3784300D1*
X14305300Y3774300D1*
Y3476800D1*
X14293800Y3465300D1*
X6016800Y11349300D2*
Y11038800D1*
X6235800Y10819800D1*
X6502300D1*
X6507300Y10824800D1*
X12843300Y7465800D2*
Y7239300D1*
X12904800Y7177800D1*
X3007533Y12534303D2*
X3240033D1*
X3256533Y12517803D1*
X3498033D1*
X3507033Y12526803D1*
X3736533D1*
X3745533Y12535803D1*
X3921533D1*
X3936033Y12521303D1*
X9706800Y10617800D2*
Y10255800D1*
X9693300Y10242300D1*
X20902800Y11129300D2*
Y10779300D1*
X20926800Y10755300D1*
X20618300D1*
X20602800Y10739800D1*
X20353800D1*
X20347800Y10733800D1*
D15*
X20331800D1*
X20128800Y10936800D1*
X19954300D1*
X19950300Y10940800D1*
X2093313Y4830773D2*
D14*
X1470773D1*
X1470300Y4830300D1*
Y5110300D2*
Y5679300D1*
X1444800Y5704800D1*
X16132800Y7259800D2*
Y7469300D1*
X16112300Y7489800D1*
X2808300Y3792300D2*
X2848800D1*
X2959800Y3681300D1*
Y3371400D1*
X2885450Y3297050D1*
X3252300Y3712800D2*
X2944480D1*
X2959800Y3681300D1*
X2092313Y4583773D2*
X2018773D1*
X1761300Y4326300D1*
Y4098300D1*
X1737300Y4074300D1*
Y3489300D1*
X1899300Y3327300D1*
X2058550D1*
X2088800Y3297050D1*
X2528300Y3792300D2*
X2302800D1*
X2145300Y3634800D1*
Y3275613D1*
X2088800Y3297050D1*
X9217927Y12715313D2*
X8871287D1*
X8864800Y12721800D1*
X9217927Y12715313D2*
X9368813D1*
X9544800Y12891300D1*
X9933300D1*
X9934800Y12892800D1*
X10381800D1*
X10383300Y12891300D1*
X20902800Y11409300D2*
Y12522300D1*
X20331300Y13093800D1*
X16288730D1*
X15453230Y12258300D1*
X14533730Y11338800D1*
X11493300D1*
X10993800Y11838300D1*
Y12586800D1*
X10672800Y12907800D1*
X10399800D1*
X10383300Y12891300D1*
X16585800Y12258300D2*
X15453230D1*
X2888450Y2027350D2*
X2107723D1*
X2091800Y2011427D1*
X2888450Y2027350D2*
X2901850D1*
X2934300Y2059800D1*
X3623300D1*
X3649800Y2086300D1*
X4236033Y12521303D2*
X4439803D1*
X4443300Y12524800D1*
X4686300D1*
X4687800Y12526300D1*
X4938300D1*
X5181300D1*
X9217927Y12207237D2*
X9217880Y12013800D1*
Y11742220D1*
X9228300Y11731800D1*
X5181300Y12526300D2*
X7233800D1*
X7746300Y12013800D1*
X9217880D1*
X8388300Y11431800D2*
X8625300D1*
X8940300Y11746800D1*
X9213300D1*
X9228300Y11731800D1*
X14391353Y10984693D2*
X10909907D1*
X10159800Y11734800D1*
X9448153D1*
X9231300D1*
X9228300Y11731800D1*
X9706800Y11125800D2*
Y11476153D1*
X9448153Y11734800D1*
X18393300Y12305800D2*
X18562300D1*
X18732300Y12475800D1*
X18874800D1*
X19017300Y12333300D1*
X3259300Y7044300D2*
X3482167D1*
X3498933Y7027533D1*
X3492800Y7282800D2*
Y7033667D1*
X3498933Y7027533D1*
X14293800Y3185300D2*
X14077800D1*
X14073300Y3180800D1*
X13864800D1*
X13855800Y3189800D1*
X13627800D1*
X13623300Y3185300D1*
X4576800Y6169800D2*
Y5916300D1*
X4206300Y5545800D1*
Y5413227D1*
X4120227D1*
X4084800Y5377800D1*
X11362800Y5292300D2*
X5500800D1*
X5236800Y5556300D1*
X4941300D1*
X4798227Y5413227D1*
X4206300D1*
X4084800Y5377800D2*
Y5097290D1*
X4366780Y4815310D1*
X13623300Y3185300D2*
X7804300D1*
X5787300Y5202300D1*
X4260300D1*
X4084800Y5377800D1*
X3498933Y7027533D2*
Y6677667D1*
X3774300Y6402300D1*
Y6145300D1*
X3793300Y6126300D1*
Y5982800D1*
X4081800Y5694300D1*
Y5380800D1*
X4084800Y5377800D1*
D36*
X3892800Y11482800D3*
X3682800Y11889300D3*
X2527800Y11457300D3*
X2508300Y10284300D3*
X3837300Y10299300D3*
X5971800Y8179800D3*
X17797800Y12544800D3*
X14971800Y4149300D3*
X11058300Y4174800D3*
X13771800Y5110800D3*
X13752300Y3937800D3*
X13099800Y3571800D3*
X1038300Y13238133D2*
D16*
X10150110D1*
X10694373D2*
X14995110D1*
X15510313D2*
X16198037D1*
X20421990D2*
X22138860D1*
X1038300Y13178467D2*
X10150110D1*
X10694373D2*
X14995110D1*
X15510313D2*
X16130657D1*
X20489373D2*
X22138860D1*
X1038300Y13118800D2*
X10150110D1*
X10694373D2*
X14995110D1*
X15510313D2*
X16071007D1*
X20549023D2*
X22138860D1*
X1038300Y13059133D2*
X9722140D1*
X10750273D2*
X12479913D1*
X14026367D2*
X14337687D1*
X15510313D2*
X16011360D1*
X20608670D2*
X22138860D1*
X1038300Y12999467D2*
X9410303D1*
X10823867D2*
X12439953D1*
X15536680D2*
X15951710D1*
X20668320D2*
X22138860D1*
X1038300Y12939800D2*
X9350657D1*
X10883513D2*
X12424717D1*
X15556600D2*
X15892063D1*
X20727967D2*
X22138860D1*
X1038300Y12880133D2*
X7897530D1*
X10943163D2*
X12428117D1*
X15557303D2*
X15832413D1*
X16317733D2*
X20302297D1*
X20787617D2*
X22138860D1*
X1038300Y12820467D2*
X7851710D1*
X11002813D2*
X12451553D1*
X15538787D2*
X15772647D1*
X16258087D2*
X20361943D1*
X20847383D2*
X22138860D1*
X1038300Y12760800D2*
X7832960D1*
X11062460D2*
X12506397D1*
X15493553D2*
X15713000D1*
X16198437D2*
X20421593D1*
X20907030D2*
X22138860D1*
X1038300Y12701133D2*
X2789093D1*
X5399727D2*
X7833430D1*
X9597383D2*
X9802063D1*
X10067537D2*
X10219367D1*
X10547303D2*
X10636787D1*
X11121990D2*
X12898860D1*
X13595587D2*
X13640537D1*
X13999063D2*
X15653350D1*
X16138787D2*
X18023587D1*
X18633123D2*
X20481240D1*
X20966680D2*
X22138860D1*
X1038300Y12641467D2*
X2789093D1*
X7361327D2*
X7853000D1*
X9537617D2*
X10696437D1*
X11157967D2*
X15593703D1*
X16079140D2*
X18023587D1*
X18937813D2*
X20540890D1*
X21026327D2*
X22138860D1*
X1038300Y12581800D2*
X2789093D1*
X7420977D2*
X7900577D1*
X9475740D2*
X10756087D1*
X11167110D2*
X15534053D1*
X16019373D2*
X18023587D1*
X19011523D2*
X20600657D1*
X21065233D2*
X22138860D1*
X1038300Y12522133D2*
X2789093D1*
X7480623D2*
X8376360D1*
X9369570D2*
X10815733D1*
X11167110D2*
X13573623D1*
X14065977D2*
X15474407D1*
X15959727D2*
X18023587D1*
X19225740D2*
X20660303D1*
X21076133D2*
X22138860D1*
X1038300Y12462467D2*
X2789093D1*
X7540273D2*
X10820420D1*
X11167110D2*
X13530263D1*
X14109337D2*
X15414757D1*
X15900077D2*
X16377453D1*
X17074180D2*
X18023587D1*
X19225740D2*
X20719953D1*
X21076133D2*
X22138860D1*
X1038300Y12402800D2*
X2789093D1*
X7600037D2*
X9080070D1*
X9355740D2*
X10820420D1*
X11167110D2*
X13512920D1*
X14126680D2*
X15354990D1*
X17074180D2*
X18023587D1*
X19225740D2*
X20729443D1*
X21076133D2*
X22138860D1*
X1038300Y12343133D2*
X2789093D1*
X5399727D2*
X7174250D1*
X7659687D2*
X8963703D1*
X9472110D2*
X10820420D1*
X11167110D2*
X12703977D1*
X14125037D2*
X15295343D1*
X17074180D2*
X18023587D1*
X19225740D2*
X20729443D1*
X21076133D2*
X22138860D1*
X1038300Y12283467D2*
X2789093D1*
X3225897D2*
X4224873D1*
X4661680D2*
X7233897D1*
X7719337D2*
X8924797D1*
X9511013D2*
X10820420D1*
X11167110D2*
X12468547D1*
X14103943D2*
X15235693D1*
X17074180D2*
X18174873D1*
X19225740D2*
X20729443D1*
X21076133D2*
X22138860D1*
X1038300Y12223800D2*
X2789093D1*
X3225897D2*
X4224873D1*
X4661680D2*
X7293663D1*
X7778983D2*
X8910263D1*
X9525663D2*
X10820420D1*
X11167110D2*
X12397647D1*
X14053787D2*
X15176047D1*
X17074180D2*
X18174873D1*
X18723007D2*
X18808860D1*
X19225740D2*
X20729443D1*
X21076133D2*
X22138860D1*
X1038300Y12164133D2*
X2789093D1*
X3225897D2*
X4224873D1*
X4661680D2*
X7353313D1*
X9521563D2*
X10820420D1*
X11167110D2*
X12367763D1*
X13848360D2*
X15116397D1*
X17074180D2*
X18174873D1*
X18657383D2*
X18808860D1*
X19225740D2*
X20729443D1*
X21076133D2*
X22138860D1*
X1038300Y12104467D2*
X2789093D1*
X3225897D2*
X4224873D1*
X4661680D2*
X7412960D1*
X9497420D2*
X10820420D1*
X11167110D2*
X12359327D1*
X13788710D2*
X15056750D1*
X17074180D2*
X18174873D1*
X18611680D2*
X20729443D1*
X21076133D2*
X22138860D1*
X1038300Y12044800D2*
X2827413D1*
X3174217D2*
X4224873D1*
X4661680D2*
X7472610D1*
X9441053D2*
X10820420D1*
X11167110D2*
X12369287D1*
X13721680D2*
X14996983D1*
X15482420D2*
X16709443D1*
X17056133D2*
X18174873D1*
X18611680D2*
X20729443D1*
X21076133D2*
X22138860D1*
X1038300Y11985133D2*
X2806203D1*
X3195313D2*
X4230850D1*
X4616680D2*
X7532257D1*
X9391250D2*
X10820420D1*
X11167110D2*
X12401280D1*
X13324063D2*
X14937337D1*
X15422773D2*
X16708273D1*
X17386013D2*
X18174873D1*
X18611680D2*
X20729443D1*
X21076133D2*
X22138860D1*
X1038300Y11925467D2*
X2802453D1*
X3199180D2*
X4222883D1*
X4619727D2*
X7591907D1*
X9391250D2*
X10820420D1*
X11167110D2*
X12478860D1*
X12856600D2*
X14877687D1*
X15363123D2*
X16687297D1*
X18819687D2*
X20729443D1*
X21076133D2*
X22138860D1*
X1038300Y11865800D2*
X2802453D1*
X3199180D2*
X4222883D1*
X4619727D2*
X7662100D1*
X10269920D2*
X10820420D1*
X11208943D2*
X14818037D1*
X15303477D2*
X16684367D1*
X18819687D2*
X20729443D1*
X21076133D2*
X22138860D1*
X1038300Y11806133D2*
X2802453D1*
X3199180D2*
X4222883D1*
X4619727D2*
X8756983D1*
X10331210D2*
X10823587D1*
X11268710D2*
X14758390D1*
X15243710D2*
X16684367D1*
X18819687D2*
X20729443D1*
X21076133D2*
X22138860D1*
X1038300Y11746467D2*
X2802453D1*
X3199180D2*
X4222883D1*
X4619727D2*
X8697217D1*
X10390860D2*
X10847843D1*
X11328360D2*
X14698740D1*
X15184063D2*
X16686123D1*
X18819687D2*
X19418467D1*
X19962147D2*
X20729443D1*
X21076133D2*
X22138860D1*
X1038300Y11686800D2*
X2806553D1*
X3194960D2*
X4224287D1*
X4618203D2*
X6783430D1*
X7200193D2*
X8637570D1*
X10450507D2*
X10902570D1*
X11388007D2*
X14639093D1*
X15124413D2*
X16704407D1*
X18819687D2*
X19379443D1*
X20001053D2*
X20729443D1*
X21076133D2*
X22138860D1*
X1038300Y11627133D2*
X2830227D1*
X3188397D2*
X4241750D1*
X4600740D2*
X4941710D1*
X5060000D2*
X5957610D1*
X6075897D2*
X6783430D1*
X7200193D2*
X7656943D1*
X10510157D2*
X10962217D1*
X11447657D2*
X14579327D1*
X15064763D2*
X16750577D1*
X18819687D2*
X19365383D1*
X20015233D2*
X20729443D1*
X21076133D2*
X22138860D1*
X1038300Y11567467D2*
X2841710D1*
X3188397D2*
X4247960D1*
X4594647D2*
X4844210D1*
X5157500D2*
X5860110D1*
X6173397D2*
X6783430D1*
X7200193D2*
X7656943D1*
X10569803D2*
X11021983D1*
X11507303D2*
X14519680D1*
X15005117D2*
X16897413D1*
X18819687D2*
X19364913D1*
X20015703D2*
X20684443D1*
X21121250D2*
X22138860D1*
X1038300Y11507800D2*
X2806670D1*
X3223437D2*
X4211867D1*
X4628633D2*
X4806593D1*
X5195117D2*
X5822490D1*
X6211013D2*
X6783430D1*
X7200193D2*
X7656943D1*
X8943943D2*
X9432453D1*
X9877110D2*
X10144133D1*
X10629453D2*
X11081633D1*
X11566953D2*
X14460030D1*
X14945467D2*
X16935850D1*
X17372657D2*
X17529873D1*
X17991523D2*
X18437960D1*
X18784647D2*
X19364913D1*
X20015703D2*
X20684443D1*
X21121250D2*
X22138860D1*
X1038300Y11448133D2*
X2806670D1*
X3223437D2*
X4211867D1*
X4628633D2*
X4792180D1*
X5209413D2*
X5808193D1*
X6225430D2*
X6783430D1*
X7200193D2*
X7656943D1*
X8884297D2*
X9492100D1*
X9880157D2*
X10203780D1*
X10689100D2*
X11141280D1*
X14885703D2*
X16359407D1*
X17372657D2*
X17506437D1*
X18014960D2*
X18437960D1*
X18784647D2*
X19370303D1*
X20010313D2*
X20684443D1*
X21121250D2*
X22138860D1*
X1038300Y11388467D2*
X2806670D1*
X3223437D2*
X4211867D1*
X4628633D2*
X4791360D1*
X5210233D2*
X5807373D1*
X6226250D2*
X6783430D1*
X7200193D2*
X7656943D1*
X8824647D2*
X9533467D1*
X9880157D2*
X10263430D1*
X10748867D2*
X11200930D1*
X14826053D2*
X15696827D1*
X17464297D2*
X17503390D1*
X18018007D2*
X18437960D1*
X18784647D2*
X19395967D1*
X19984647D2*
X20684443D1*
X21121250D2*
X22138860D1*
X1038300Y11328800D2*
X1069133D1*
X1494570D2*
X2806670D1*
X3223437D2*
X4211867D1*
X4628633D2*
X4791360D1*
X5210233D2*
X5807373D1*
X6226250D2*
X6761633D1*
X7223047D2*
X7656943D1*
X8765000D2*
X9533467D1*
X9880157D2*
X10323077D1*
X10808513D2*
X11260577D1*
X14766407D2*
X15637063D1*
X18001837D2*
X18414757D1*
X18784647D2*
X19181867D1*
X20459727D2*
X20684443D1*
X21121250D2*
X22138860D1*
X1038300Y11269133D2*
X1069133D1*
X1494570D2*
X2806670D1*
X3223437D2*
X4211867D1*
X4628633D2*
X4791360D1*
X5210233D2*
X5807373D1*
X6226250D2*
X6288897D1*
X7290897D2*
X7656943D1*
X8670663D2*
X9460110D1*
X9953513D2*
X10382727D1*
X10868163D2*
X11320227D1*
X14706757D2*
X15577413D1*
X17985193D2*
X18350657D1*
X18801990D2*
X19181867D1*
X20459727D2*
X20684443D1*
X21121250D2*
X22138860D1*
X1038300Y11209467D2*
X1069133D1*
X1494570D2*
X2806670D1*
X3223437D2*
X4211867D1*
X4628633D2*
X4799913D1*
X5256287D2*
X5815930D1*
X6217693D2*
X6288897D1*
X7319023D2*
X7656943D1*
X8093750D2*
X9416983D1*
X9996640D2*
X10442490D1*
X10927813D2*
X11381047D1*
X14645937D2*
X15517763D1*
X18012030D2*
X18323937D1*
X18828710D2*
X19181867D1*
X20459727D2*
X20684443D1*
X21121250D2*
X22138860D1*
X1038300Y11149800D2*
X1069133D1*
X1494570D2*
X2344133D1*
X2688593D2*
X2806670D1*
X3223437D2*
X3718037D1*
X4062617D2*
X4211867D1*
X4628633D2*
X4829093D1*
X5315937D2*
X5843467D1*
X6190157D2*
X6288897D1*
X7325587D2*
X7656943D1*
X8093750D2*
X9399873D1*
X10013750D2*
X10502140D1*
X14599763D2*
X15458117D1*
X18017773D2*
X18318313D1*
X18834337D2*
X19181867D1*
X20459727D2*
X20684443D1*
X21121250D2*
X22138860D1*
X1038300Y11090133D2*
X1069133D1*
X1494570D2*
X2344133D1*
X2688593D2*
X2806670D1*
X3223437D2*
X3718037D1*
X4062617D2*
X4211867D1*
X4628633D2*
X4890263D1*
X5375703D2*
X5843467D1*
X6208203D2*
X6288897D1*
X7313280D2*
X7421397D1*
X8581250D2*
X9401633D1*
X10011990D2*
X10561787D1*
X14599763D2*
X15398467D1*
X15883787D2*
X16359407D1*
X18004413D2*
X18331787D1*
X18820860D2*
X19181867D1*
X19638710D2*
X19721867D1*
X20459727D2*
X20684443D1*
X21121250D2*
X22138860D1*
X1038300Y11030467D2*
X1063157D1*
X4647617D2*
X4949913D1*
X5435350D2*
X5843587D1*
X6267850D2*
X6288860D1*
X8581250D2*
X9422960D1*
X10512030D2*
X10621437D1*
X14599763D2*
X15338820D1*
X15824140D2*
X16916397D1*
X17975937D2*
X18358860D1*
X19638710D2*
X19721867D1*
X20459727D2*
X20684443D1*
X21121250D2*
X22138860D1*
X4647617Y10970800D2*
X5009563D1*
X5495000D2*
X5857883D1*
X8581250D2*
X9425070D1*
X10596523D2*
X10681087D1*
X14599763D2*
X15279053D1*
X15764490D2*
X16916397D1*
X17353203D2*
X17509717D1*
X18007693D2*
X18327217D1*
X19638710D2*
X19721867D1*
X20459727D2*
X20684443D1*
X21121250D2*
X22138860D1*
X4647617Y10911133D2*
X5069327D1*
X5554647D2*
X5901827D1*
X8581250D2*
X9402337D1*
X10656170D2*
X10740733D1*
X14599763D2*
X15219407D1*
X15704843D2*
X16916397D1*
X17353203D2*
X17500343D1*
X18017070D2*
X18317843D1*
X19638710D2*
X19721867D1*
X21105663D2*
X22138860D1*
X4647617Y10851467D2*
X5128977D1*
X5614297D2*
X5961477D1*
X8581250D2*
X9399407D1*
X10715820D2*
X10802610D1*
X14599763D2*
X15161750D1*
X15645193D2*
X16916397D1*
X17353203D2*
X17509953D1*
X18007460D2*
X18327570D1*
X19638710D2*
X19721867D1*
X21159453D2*
X22138860D1*
X4647617Y10791800D2*
X5188623D1*
X5673943D2*
X6021123D1*
X8581250D2*
X9415343D1*
X10775467D2*
X14183000D1*
X14599763D2*
X15132453D1*
X15585547D2*
X17542063D1*
X17975350D2*
X18359913D1*
X19638710D2*
X19721867D1*
X21181717D2*
X22138860D1*
X4647617Y10732133D2*
X5248273D1*
X5733710D2*
X6080773D1*
X7310467D2*
X7421397D1*
X8581250D2*
X9434913D1*
X10835117D2*
X14183000D1*
X14599763D2*
X15126943D1*
X15525780D2*
X17559407D1*
X17976170D2*
X18441477D1*
X18711170D2*
X19721867D1*
X21183827D2*
X22138860D1*
X1038300Y10672467D2*
X1172727D1*
X1404920D2*
X1424093D1*
X4647617D2*
X5307920D1*
X5793360D2*
X6150383D1*
X7323477D2*
X9406087D1*
X10007420D2*
X10409443D1*
X10894883D2*
X14183000D1*
X14599763D2*
X15103860D1*
X15520740D2*
X17559407D1*
X17976170D2*
X19443897D1*
X21166483D2*
X22138860D1*
X1038300Y10612800D2*
X2344133D1*
X2688593D2*
X2822140D1*
X3577460D2*
X3718037D1*
X4062617D2*
X4210813D1*
X4647617D2*
X5367570D1*
X5853007D2*
X6713350D1*
X7317500D2*
X9398467D1*
X10015157D2*
X10469093D1*
X10954530D2*
X14166943D1*
X14603750D2*
X15103860D1*
X15520740D2*
X17559407D1*
X17976170D2*
X19443897D1*
X21122070D2*
X22138860D1*
X1038300Y10553133D2*
X2344133D1*
X2688593D2*
X2822140D1*
X3577460D2*
X4210813D1*
X4647617D2*
X5427217D1*
X5912657D2*
X6740420D1*
X7290430D2*
X9409250D1*
X10004257D2*
X10528740D1*
X11014180D2*
X14166943D1*
X14603750D2*
X15103860D1*
X15520740D2*
X17559407D1*
X17976170D2*
X19443897D1*
X20821250D2*
X22138860D1*
X1038300Y10493467D2*
X2822140D1*
X3577460D2*
X4171320D1*
X4647617D2*
X5486983D1*
X5972303D2*
X6799250D1*
X7225037D2*
X9442530D1*
X9971093D2*
X10588390D1*
X11072537D2*
X14166943D1*
X14603750D2*
X15103860D1*
X15520740D2*
X17559407D1*
X17976170D2*
X19443897D1*
X20140740D2*
X22138860D1*
X1038300Y10433800D2*
X2822140D1*
X3577460D2*
X4111553D1*
X4647617D2*
X5546633D1*
X6164373D2*
X6739600D1*
X7148633D2*
X9524327D1*
X9889297D2*
X10648157D1*
X11103710D2*
X14166943D1*
X14603750D2*
X15103860D1*
X15520740D2*
X17559407D1*
X17976170D2*
X19425383D1*
X20140740D2*
X22138860D1*
X1038300Y10374133D2*
X2822140D1*
X3258943D2*
X4051907D1*
X4647617D2*
X5606280D1*
X6206913D2*
X6679953D1*
X7140193D2*
X9435383D1*
X9951170D2*
X10707803D1*
X11110157D2*
X14166943D1*
X14603750D2*
X15103860D1*
X15520740D2*
X17559407D1*
X17976170D2*
X19425383D1*
X20140740D2*
X22138860D1*
X1038300Y10314467D2*
X3992257D1*
X4477693D2*
X5665930D1*
X6224490D2*
X6620303D1*
X7105390D2*
X9398587D1*
X9988087D2*
X10763467D1*
X11110157D2*
X14166943D1*
X14603750D2*
X15103860D1*
X15520740D2*
X17594443D1*
X17969257D2*
X19425383D1*
X20140740D2*
X22138860D1*
X1038300Y10254800D2*
X3932610D1*
X4418047D2*
X5617063D1*
X6226250D2*
X6560657D1*
X7045977D2*
X9385343D1*
X10001327D2*
X10763467D1*
X11110157D2*
X14166943D1*
X14603750D2*
X15024053D1*
X15555780D2*
X17594443D1*
X17989297D2*
X19425383D1*
X20088123D2*
X22138860D1*
X1038300Y10195133D2*
X3872960D1*
X4358280D2*
X5557413D1*
X6226250D2*
X6500890D1*
X6986327D2*
X9390617D1*
X9995937D2*
X10763467D1*
X11110157D2*
X14166943D1*
X14603750D2*
X14991360D1*
X15588360D2*
X17594443D1*
X17991757D2*
X19425383D1*
X20088123D2*
X22138860D1*
X1038300Y10135467D2*
X3813313D1*
X4298633D2*
X5497763D1*
X6226250D2*
X6441240D1*
X6926680D2*
X7411087D1*
X8119180D2*
X9416280D1*
X9970273D2*
X10763467D1*
X11110157D2*
X14166943D1*
X14603750D2*
X14981513D1*
X15598320D2*
X17594913D1*
X17991757D2*
X19425383D1*
X20088123D2*
X22138860D1*
X1038300Y10075800D2*
X3753663D1*
X4238983D2*
X5438117D1*
X6220157D2*
X6381593D1*
X6867030D2*
X7199443D1*
X8887460D2*
X9476280D1*
X9910390D2*
X10763467D1*
X11110157D2*
X13931397D1*
X15589180D2*
X17597023D1*
X17989530D2*
X18973037D1*
X19170547D2*
X19425383D1*
X20088123D2*
X22138860D1*
X1038300Y10016133D2*
X3693897D1*
X4179337D2*
X5378467D1*
X6194727D2*
X6321943D1*
X6807383D2*
X7199443D1*
X8947110D2*
X10763467D1*
X11110157D2*
X13931397D1*
X15557890D2*
X17616240D1*
X17970313D2*
X18902610D1*
X19241093D2*
X19425383D1*
X20088123D2*
X22138860D1*
X1038300Y9956467D2*
X3634250D1*
X4119687D2*
X5318820D1*
X5804140D2*
X5896670D1*
X6136953D2*
X6262297D1*
X6747617D2*
X7199443D1*
X12040740D2*
X13931397D1*
X15583203D2*
X17664170D1*
X17922383D2*
X18872023D1*
X20098907D2*
X22138860D1*
X1038300Y9896800D2*
X3574600D1*
X4060037D2*
X5259053D1*
X5744490D2*
X6202647D1*
X6687967D2*
X7199443D1*
X12104023D2*
X13931397D1*
X15596913D2*
X18862413D1*
X20112733D2*
X22138860D1*
X1038300Y9837133D2*
X1434287D1*
X1825390D2*
X3514953D1*
X4000273D2*
X4834250D1*
X5684843D2*
X6143000D1*
X6628320D2*
X7199443D1*
X12537147D2*
X13931397D1*
X15591407D2*
X18862413D1*
X20113203D2*
X22138860D1*
X1038300Y9777467D2*
X1373000D1*
X3940623D2*
X4772960D1*
X5625193D2*
X6083233D1*
X6568670D2*
X7199443D1*
X8119180D2*
X8700500D1*
X12537147D2*
X13931397D1*
X15565037D2*
X18862413D1*
X20113203D2*
X22138860D1*
X1038300Y9717800D2*
X1345930D1*
X3880977D2*
X4745890D1*
X5565547D2*
X6025930D1*
X6509023D2*
X7199443D1*
X7875663D2*
X8760147D1*
X12537147D2*
X13931397D1*
X15578513D2*
X18862883D1*
X20107577D2*
X22138860D1*
X1038300Y9658133D2*
X1339013D1*
X3821327D2*
X4738977D1*
X5505780D2*
X5997453D1*
X6449373D2*
X7199443D1*
X7875663D2*
X8843587D1*
X12537147D2*
X14980577D1*
X15595157D2*
X18876240D1*
X20081563D2*
X22138860D1*
X1038300Y9598467D2*
X1350030D1*
X3761680D2*
X4749990D1*
X5446133D2*
X5992413D1*
X6389610D2*
X7199443D1*
X7875663D2*
X11916943D1*
X12537147D2*
X14983390D1*
X15592343D2*
X18912217D1*
X19518593D2*
X19556387D1*
X19765157D2*
X19810343D1*
X20019217D2*
X22138860D1*
X1038300Y9538800D2*
X1382610D1*
X3701443D2*
X4782570D1*
X5386013D2*
X5992413D1*
X6339217D2*
X7199443D1*
X7875663D2*
X11977180D1*
X12793203D2*
X15006477D1*
X15569257D2*
X18979133D1*
X19518593D2*
X22138860D1*
X1038300Y9479133D2*
X1350733D1*
X1908827D2*
X4750693D1*
X5308907D2*
X5957373D1*
X6654217D2*
X7199443D1*
X7880233D2*
X12120383D1*
X12793203D2*
X15062140D1*
X15513710D2*
X18979133D1*
X19518593D2*
X22138860D1*
X1038300Y9419467D2*
X1339133D1*
X1920547D2*
X4739093D1*
X5320507D2*
X5617883D1*
X6654217D2*
X7199443D1*
X7880233D2*
X12120383D1*
X12793203D2*
X14808897D1*
X15485703D2*
X18979133D1*
X19518593D2*
X22138860D1*
X1038300Y9359800D2*
X1345343D1*
X1914217D2*
X4745420D1*
X5314180D2*
X5617883D1*
X6654217D2*
X7463350D1*
X7880233D2*
X12120383D1*
X12793203D2*
X14746553D1*
X15485703D2*
X18979133D1*
X19518593D2*
X22138860D1*
X1038300Y9300133D2*
X1371593D1*
X1887967D2*
X4771670D1*
X5287930D2*
X5617883D1*
X6669100D2*
X7463350D1*
X7880233D2*
X12120383D1*
X12793203D2*
X14686907D1*
X15485703D2*
X18979133D1*
X19518593D2*
X22138860D1*
X1038300Y9240467D2*
X1431123D1*
X1828437D2*
X4831087D1*
X5228513D2*
X5617883D1*
X6728047D2*
X7463350D1*
X7886210D2*
X12120383D1*
X13044687D2*
X14627257D1*
X15485703D2*
X22138860D1*
X1038300Y9180800D2*
X5617883D1*
X6823670D2*
X7127023D1*
X7886210D2*
X12356397D1*
X13044687D2*
X14567610D1*
X15485703D2*
X22138860D1*
X1038300Y9121133D2*
X5617883D1*
X6876523D2*
X7074170D1*
X7886210D2*
X12356397D1*
X13044687D2*
X14517453D1*
X15485703D2*
X22138860D1*
X1038300Y9061467D2*
X5617883D1*
X6034647D2*
X6289717D1*
X6898907D2*
X7051670D1*
X7886210D2*
X12356397D1*
X13044687D2*
X14498233D1*
X15485703D2*
X22138860D1*
X1038300Y9001800D2*
X5617883D1*
X6034647D2*
X6287023D1*
X6901600D2*
X7048977D1*
X7886210D2*
X8370733D1*
X8840937D2*
X12356397D1*
X13044687D2*
X14496943D1*
X14873983D2*
X22138860D1*
X1038300Y8942133D2*
X5617883D1*
X6885430D2*
X7065147D1*
X7886210D2*
X8321163D1*
X8890507D2*
X12356397D1*
X13044687D2*
X14496943D1*
X14843633D2*
X22138860D1*
X1038300Y8882467D2*
X5617883D1*
X6866680D2*
X7083897D1*
X7886210D2*
X8300420D1*
X8911250D2*
X9069873D1*
X9506680D2*
X12623350D1*
X13044687D2*
X14496943D1*
X14843633D2*
X22138860D1*
X1038300Y8822800D2*
X5617883D1*
X6895157D2*
X7055420D1*
X7657227D2*
X8299013D1*
X8912537D2*
X9069873D1*
X9506680D2*
X10262373D1*
X10699180D2*
X12623350D1*
X13040233D2*
X14496943D1*
X14843633D2*
X20758157D1*
X21256367D2*
X22138860D1*
X1038300Y8763133D2*
X5608977D1*
X5999610D2*
X6030880D1*
X6902657D2*
X7048037D1*
X7664610D2*
X8277920D1*
X8894843D2*
X9069873D1*
X9506680D2*
X10262373D1*
X10699180D2*
X12618897D1*
X13040233D2*
X14496943D1*
X14843633D2*
X16170967D1*
X16553633D2*
X20701553D1*
X21313087D2*
X22138860D1*
X1038300Y8703467D2*
X5549327D1*
X5996093D2*
X6030897D1*
X6891523D2*
X7059053D1*
X8850897D2*
X9069873D1*
X9506680D2*
X10262373D1*
X10699180D2*
X12618897D1*
X13040233D2*
X14496943D1*
X14843633D2*
X16095030D1*
X16629570D2*
X20676593D1*
X21338047D2*
X22138860D1*
X1038300Y8643800D2*
X5489563D1*
X5970780D2*
X6030850D1*
X6858123D2*
X7092570D1*
X8643943D2*
X9069873D1*
X9506680D2*
X10262373D1*
X10699180D2*
X12618897D1*
X13040233D2*
X14496943D1*
X14843633D2*
X16063507D1*
X16661093D2*
X20670850D1*
X21343670D2*
X22138860D1*
X1038300Y8584133D2*
X5429913D1*
X5915350D2*
X6030850D1*
X6775037D2*
X7060460D1*
X8584297D2*
X9069873D1*
X9506680D2*
X10262373D1*
X10699180D2*
X12618897D1*
X13035663D2*
X14496943D1*
X14843633D2*
X16053897D1*
X16670703D2*
X20670850D1*
X21343670D2*
X22138860D1*
X1038300Y8524467D2*
X5370263D1*
X5855703D2*
X7048157D1*
X8524647D2*
X9069873D1*
X9506680D2*
X10262373D1*
X10699180D2*
X12618897D1*
X13035663D2*
X14496943D1*
X14843633D2*
X16062687D1*
X16661913D2*
X20670850D1*
X21343670D2*
X22138860D1*
X1038300Y8464800D2*
X5310617D1*
X5795937D2*
X7054367D1*
X8465000D2*
X9114990D1*
X9461680D2*
X10262373D1*
X10699180D2*
X11222373D1*
X11919217D2*
X12618897D1*
X13035663D2*
X14496943D1*
X14843633D2*
X16093037D1*
X16631563D2*
X20672843D1*
X21341797D2*
X22138860D1*
X1038300Y8405133D2*
X2973897D1*
X3647657D2*
X5250967D1*
X5736287D2*
X6348663D1*
X6839960D2*
X7081203D1*
X8405350D2*
X9114990D1*
X9461680D2*
X10302920D1*
X10649610D2*
X11222373D1*
X12278983D2*
X12618897D1*
X13041053D2*
X14496943D1*
X14843633D2*
X16165227D1*
X16592657D2*
X20690773D1*
X21323867D2*
X22138860D1*
X1038300Y8345467D2*
X2973897D1*
X3647657D2*
X5191320D1*
X5676640D2*
X6304953D1*
X6883670D2*
X7067023D1*
X8314883D2*
X9114990D1*
X9461680D2*
X10302920D1*
X10649610D2*
X11222373D1*
X12350820D2*
X12573780D1*
X13112773D2*
X14496943D1*
X14843633D2*
X16245967D1*
X16592657D2*
X16646513D1*
X17073827D2*
X17443157D1*
X21280507D2*
X22138860D1*
X1038300Y8285800D2*
X2973897D1*
X3647657D2*
X5135303D1*
X5616990D2*
X6287490D1*
X6901133D2*
X7049443D1*
X7663087D2*
X9114990D1*
X9461680D2*
X10302920D1*
X10649610D2*
X11222373D1*
X12380937D2*
X12543663D1*
X13143007D2*
X14496943D1*
X14843633D2*
X15607180D1*
X16032500D2*
X16245967D1*
X17118593D2*
X17398390D1*
X21046133D2*
X22138860D1*
X1038300Y8226133D2*
X2973897D1*
X3647657D2*
X5109287D1*
X5557343D2*
X6289013D1*
X6899610D2*
X7050967D1*
X7661680D2*
X8383860D1*
X9522733D2*
X9630030D1*
X10712187D2*
X11222373D1*
X12389727D2*
X12534873D1*
X13151680D2*
X14496943D1*
X14843633D2*
X15607180D1*
X16032500D2*
X16245967D1*
X17136757D2*
X17380227D1*
X21039100D2*
X22138860D1*
X1038300Y8166467D2*
X2609563D1*
X2800037D2*
X2973897D1*
X3647657D2*
X5105420D1*
X5497693D2*
X6309873D1*
X6878750D2*
X7071943D1*
X7640703D2*
X8334523D1*
X10761287D2*
X11222373D1*
X12379883D2*
X12544717D1*
X13141953D2*
X14496943D1*
X14843633D2*
X15607180D1*
X16032500D2*
X16245967D1*
X17135820D2*
X17381163D1*
X21006757D2*
X22138860D1*
X1038300Y8106800D2*
X2497413D1*
X3647657D2*
X5105420D1*
X5452110D2*
X6359797D1*
X6828827D2*
X7121750D1*
X7591250D2*
X8313780D1*
X10781797D2*
X11222373D1*
X12348240D2*
X12576360D1*
X13110313D2*
X13914873D1*
X14183750D2*
X14496943D1*
X14843633D2*
X15607180D1*
X16032500D2*
X16245967D1*
X17115547D2*
X17401437D1*
X20948047D2*
X22138860D1*
X1038300Y8047133D2*
X2459913D1*
X4389217D2*
X5105420D1*
X5452110D2*
X7154443D1*
X7591250D2*
X8312610D1*
X10782967D2*
X11255420D1*
X12375547D2*
X12549053D1*
X13137617D2*
X13758193D1*
X14303047D2*
X14496943D1*
X14843633D2*
X15607180D1*
X16032500D2*
X16245967D1*
X16592657D2*
X16653430D1*
X17066913D2*
X17450070D1*
X20873513D2*
X22138860D1*
X1038300Y7987467D2*
X2446670D1*
X4389217D2*
X4641240D1*
X5452110D2*
X7154443D1*
X7591250D2*
X8330303D1*
X10765037D2*
X11255420D1*
X12389257D2*
X12535343D1*
X13151210D2*
X13695263D1*
X14342187D2*
X14496943D1*
X14843633D2*
X15607180D1*
X16032500D2*
X16245967D1*
X16632383D2*
X22138860D1*
X1038300Y7927800D2*
X2452647D1*
X5454453D2*
X6538273D1*
X6785350D2*
X7154443D1*
X7801367D2*
X8374483D1*
X9531170D2*
X9624053D1*
X10720740D2*
X11255420D1*
X12384217D2*
X12540383D1*
X13146287D2*
X13178350D1*
X14356953D2*
X14496943D1*
X14843633D2*
X15607180D1*
X16032500D2*
X16248663D1*
X16692030D2*
X22138860D1*
X1038300Y7868133D2*
X2479717D1*
X5472030D2*
X6482373D1*
X6841250D2*
X7154443D1*
X7857147D2*
X11255420D1*
X12359023D2*
X12565577D1*
X14353087D2*
X14496943D1*
X14843633D2*
X15607180D1*
X16032500D2*
X16271983D1*
X17033163D2*
X17449837D1*
X17853827D2*
X22138860D1*
X1038300Y7808467D2*
X2464837D1*
X2944763D2*
X2973833D1*
X5473437D2*
X6457883D1*
X6865740D2*
X7154443D1*
X7881757D2*
X11255420D1*
X12300193D2*
X12555967D1*
X14329063D2*
X14496943D1*
X14843633D2*
X16325890D1*
X17098553D2*
X17398507D1*
X17905157D2*
X22138860D1*
X1038300Y7748800D2*
X2447727D1*
X3410703D2*
X3692373D1*
X5473437D2*
X6452373D1*
X6871250D2*
X7154443D1*
X7887147D2*
X8390657D1*
X8847967D2*
X9057570D1*
X10098007D2*
X10247140D1*
X11200157D2*
X11255420D1*
X11602110D2*
X12536983D1*
X14273047D2*
X14496943D1*
X14843633D2*
X16385657D1*
X17126443D2*
X17376827D1*
X17926717D2*
X22138860D1*
X1038300Y7689133D2*
X2450070D1*
X2959530D2*
X3692373D1*
X5473437D2*
X6452373D1*
X6871250D2*
X7154443D1*
X8901170D2*
X9004717D1*
X10150037D2*
X10194170D1*
X11200157D2*
X11255420D1*
X11602110D2*
X12537337D1*
X13882343D2*
X14496943D1*
X14843633D2*
X15903897D1*
X17133477D2*
X17374717D1*
X17928827D2*
X22138860D1*
X1038300Y7629467D2*
X2472570D1*
X2937030D2*
X4196280D1*
X5473437D2*
X6452373D1*
X6871250D2*
X7154443D1*
X8923787D2*
X8982217D1*
X11200157D2*
X11255420D1*
X11602110D2*
X11859990D1*
X12302657D2*
X12556787D1*
X13875193D2*
X14487803D1*
X14843633D2*
X15030733D1*
X15208907D2*
X15280693D1*
X15458867D2*
X15530773D1*
X15708827D2*
X15903897D1*
X17121873D2*
X17391593D1*
X17912070D2*
X17975657D1*
X18524843D2*
X22138860D1*
X1038300Y7569800D2*
X2468350D1*
X2905157D2*
X4588157D1*
X5465587D2*
X6454483D1*
X6888007D2*
X7154443D1*
X8926600D2*
X8979523D1*
X11200157D2*
X11255420D1*
X11602110D2*
X11802570D1*
X12360077D2*
X12564523D1*
X13875193D2*
X14428157D1*
X14843633D2*
X14954093D1*
X15785467D2*
X15903897D1*
X17087773D2*
X17434013D1*
X17869530D2*
X17975657D1*
X18524843D2*
X22138860D1*
X1038300Y7510133D2*
X2468350D1*
X2905157D2*
X4618740D1*
X5435820D2*
X6472763D1*
X6947657D2*
X7488780D1*
X7866873D2*
X7901397D1*
X8910663D2*
X8995577D1*
X10158007D2*
X10185147D1*
X11200157D2*
X11255420D1*
X11602110D2*
X11777960D1*
X12384687D2*
X12539913D1*
X13146640D2*
X13178350D1*
X13875193D2*
X14368390D1*
X14832850D2*
X14921513D1*
X15818047D2*
X15903897D1*
X16600740D2*
X16708390D1*
X17001873D2*
X17975657D1*
X18524843D2*
X22138860D1*
X1038300Y7450467D2*
X2468350D1*
X2905157D2*
X3284443D1*
X3701210D2*
X4694210D1*
X5363280D2*
X6516593D1*
X7007303D2*
X7532610D1*
X7822930D2*
X7901397D1*
X8869647D2*
X9036827D1*
X10116053D2*
X10226397D1*
X11200157D2*
X11255420D1*
X11602110D2*
X11773507D1*
X12389140D2*
X12535460D1*
X13151093D2*
X14308740D1*
X14794180D2*
X14910500D1*
X15829063D2*
X15903897D1*
X16611287D2*
X17975657D1*
X18524843D2*
X22138860D1*
X1038300Y7390800D2*
X2468350D1*
X2905157D2*
X3284443D1*
X3701210D2*
X4854640D1*
X5301757D2*
X6581633D1*
X7066953D2*
X7901397D1*
X8659297D2*
X9113467D1*
X9460157D2*
X10763350D1*
X11200157D2*
X11255420D1*
X11602110D2*
X11787687D1*
X12374843D2*
X12549757D1*
X13136913D2*
X14249093D1*
X14734530D2*
X14910383D1*
X15829180D2*
X15903897D1*
X16670937D2*
X17506437D1*
X17797110D2*
X17975657D1*
X18524843D2*
X22138860D1*
X1038300Y7331133D2*
X2468350D1*
X2905157D2*
X3284443D1*
X3701210D2*
X4854640D1*
X5301757D2*
X6641280D1*
X7126600D2*
X7835420D1*
X8338203D2*
X9113467D1*
X9460157D2*
X10763350D1*
X11213867D2*
X11255343D1*
X11602110D2*
X11826007D1*
X12336640D2*
X12587960D1*
X14674883D2*
X14910383D1*
X15829180D2*
X15903897D1*
X18524843D2*
X22138860D1*
X1038300Y7271467D2*
X2468350D1*
X3094647D2*
X3284443D1*
X3701210D2*
X4858273D1*
X5301757D2*
X6700930D1*
X7186367D2*
X7775773D1*
X8338203D2*
X9113467D1*
X9460157D2*
X10763350D1*
X11602110D2*
X11935693D1*
X12226953D2*
X12669990D1*
X14615117D2*
X14910617D1*
X15828943D2*
X15914443D1*
X18526367D2*
X22138860D1*
X1038300Y7211800D2*
X2468350D1*
X3707303D2*
X4883703D1*
X5301757D2*
X6760577D1*
X7246013D2*
X7716123D1*
X8338203D2*
X9050420D1*
X9487227D2*
X10763350D1*
X11602110D2*
X12672217D1*
X14555467D2*
X14922453D1*
X15817110D2*
X15914443D1*
X18553907D2*
X22138860D1*
X1038300Y7152133D2*
X2468350D1*
X3707303D2*
X4880420D1*
X5301757D2*
X6820227D1*
X7305663D2*
X7656477D1*
X8338203D2*
X9050420D1*
X9487227D2*
X10763350D1*
X11602110D2*
X12694367D1*
X14495820D2*
X14956320D1*
X16351250D2*
X16424327D1*
X18560587D2*
X22138860D1*
X1038300Y7092467D2*
X2468350D1*
X3707303D2*
X4880420D1*
X5301757D2*
X6879990D1*
X7365313D2*
X7596827D1*
X8338203D2*
X9050420D1*
X9487227D2*
X10763350D1*
X11602110D2*
X12696360D1*
X14436170D2*
X15003897D1*
X16351250D2*
X16483977D1*
X18548633D2*
X22138860D1*
X1038300Y7032800D2*
X2468350D1*
X3707303D2*
X4880420D1*
X5301757D2*
X6939640D1*
X7424960D2*
X7547490D1*
X8022500D2*
X9050420D1*
X9487227D2*
X10833077D1*
X11602110D2*
X12696360D1*
X14368437D2*
X14892217D1*
X16351250D2*
X16579367D1*
X17830740D2*
X17990657D1*
X18513943D2*
X22138860D1*
X1038300Y6973133D2*
X2468350D1*
X3707303D2*
X4880420D1*
X5297187D2*
X6999287D1*
X7484610D2*
X7528977D1*
X7962850D2*
X9050420D1*
X9487227D2*
X10773430D1*
X11602110D2*
X12696360D1*
X13393203D2*
X14830460D1*
X16351250D2*
X18078547D1*
X18426053D2*
X22138860D1*
X1038300Y6913467D2*
X2744443D1*
X3707303D2*
X4375930D1*
X5297187D2*
X7058937D1*
X7903203D2*
X9050420D1*
X9487227D2*
X10713780D1*
X11602110D2*
X13011477D1*
X13358163D2*
X14770813D1*
X16351250D2*
X22138860D1*
X1038300Y6853800D2*
X2744443D1*
X3707303D2*
X4375930D1*
X5313710D2*
X7118587D1*
X7874610D2*
X9050420D1*
X9487227D2*
X10654133D1*
X11602110D2*
X13011477D1*
X13358163D2*
X14132610D1*
X16351250D2*
X22138860D1*
X1038300Y6794133D2*
X2310030D1*
X3181250D2*
X3325577D1*
X3672263D2*
X4375930D1*
X5313710D2*
X7178233D1*
X7874610D2*
X10594483D1*
X11179413D2*
X11255420D1*
X11602110D2*
X13011477D1*
X13358163D2*
X14132610D1*
X16351250D2*
X22138860D1*
X1038300Y6734467D2*
X2269367D1*
X3181250D2*
X3325577D1*
X3684803D2*
X4375930D1*
X5313710D2*
X7238000D1*
X7874610D2*
X10534717D1*
X11020157D2*
X11255420D1*
X11602110D2*
X13011477D1*
X13358163D2*
X14132610D1*
X15440703D2*
X15596867D1*
X16101287D2*
X22138860D1*
X1038300Y6674800D2*
X2254133D1*
X3181250D2*
X3325577D1*
X3744453D2*
X4375930D1*
X5313710D2*
X7297647D1*
X7879297D2*
X10475070D1*
X10960507D2*
X11211123D1*
X11602110D2*
X13011477D1*
X13358163D2*
X14132610D1*
X15055507D2*
X15596867D1*
X16078670D2*
X22138860D1*
X1038300Y6615133D2*
X2258233D1*
X3804100D2*
X4368430D1*
X5313710D2*
X7357297D1*
X7887147D2*
X10415420D1*
X10900860D2*
X11151477D1*
X11598593D2*
X13011477D1*
X13358163D2*
X14132610D1*
X15049530D2*
X15596867D1*
X16025350D2*
X16718820D1*
X16997537D2*
X22138860D1*
X1038300Y6555467D2*
X2282843D1*
X3863867D2*
X4368430D1*
X5313710D2*
X7416943D1*
X7887147D2*
X10355773D1*
X10841210D2*
X11091827D1*
X11573047D2*
X13011477D1*
X13358163D2*
X14132610D1*
X15023867D2*
X15596867D1*
X16013750D2*
X16627647D1*
X17088593D2*
X22138860D1*
X1038300Y6495800D2*
X2272180D1*
X3919063D2*
X4368430D1*
X5313710D2*
X7468390D1*
X7887147D2*
X10296123D1*
X10781443D2*
X11032063D1*
X11517500D2*
X13011477D1*
X13358163D2*
X14132610D1*
X14965507D2*
X15596867D1*
X16013750D2*
X16592257D1*
X17123983D2*
X22138860D1*
X1038300Y6436133D2*
X2254013D1*
X3463203D2*
X3497727D1*
X3944257D2*
X4368430D1*
X4785193D2*
X4883350D1*
X5300233D2*
X7469327D1*
X7886210D2*
X10236477D1*
X10721797D2*
X10974407D1*
X11457850D2*
X13011477D1*
X13358163D2*
X15596867D1*
X16013750D2*
X16579953D1*
X17136287D2*
X22138860D1*
X1038300Y6376467D2*
X2255420D1*
X3463203D2*
X3557490D1*
X3947657D2*
X4368430D1*
X4785193D2*
X4883350D1*
X5300233D2*
X7484563D1*
X7871093D2*
X10176827D1*
X10662147D2*
X10944990D1*
X11398203D2*
X13011477D1*
X13358163D2*
X16586163D1*
X17130077D2*
X22138860D1*
X1038300Y6316800D2*
X2276983D1*
X4001680D2*
X4368430D1*
X4785193D2*
X4883350D1*
X5300233D2*
X7523350D1*
X7832303D2*
X10117063D1*
X10602500D2*
X10939483D1*
X11338437D2*
X11463897D1*
X12820157D2*
X12948897D1*
X13358163D2*
X16613117D1*
X17103240D2*
X22138860D1*
X1038300Y6257133D2*
X1112610D1*
X1542850D2*
X2329013D1*
X2692577D2*
X2744443D1*
X4001680D2*
X4368430D1*
X4785193D2*
X4883350D1*
X5300233D2*
X7628233D1*
X7727420D2*
X10057413D1*
X10542850D2*
X10939483D1*
X11286170D2*
X11463897D1*
X12820157D2*
X12850343D1*
X13371053D2*
X16675813D1*
X17040430D2*
X22138860D1*
X1038300Y6197467D2*
X1112610D1*
X1542850D2*
X3017727D1*
X4001680D2*
X4368430D1*
X4785193D2*
X4883350D1*
X5300233D2*
X9997763D1*
X10483203D2*
X10939483D1*
X11286170D2*
X11463897D1*
X13406913D2*
X15716633D1*
X17293907D2*
X22138860D1*
X1038300Y6137800D2*
X1112610D1*
X1542850D2*
X2958077D1*
X4001680D2*
X4368430D1*
X4785193D2*
X9933897D1*
X10423437D2*
X10939483D1*
X11286170D2*
X11463897D1*
X13418983D2*
X15716633D1*
X17293907D2*
X22138860D1*
X1038300Y6078133D2*
X1112610D1*
X1542850D2*
X2766360D1*
X4001680D2*
X4368430D1*
X4785193D2*
X9899797D1*
X10363787D2*
X10915813D1*
X11309843D2*
X11463897D1*
X13412070D2*
X15716633D1*
X17293907D2*
X22138860D1*
X1038300Y6018467D2*
X1112610D1*
X1542850D2*
X2720773D1*
X4001680D2*
X4368430D1*
X4785193D2*
X9887610D1*
X10305897D2*
X10903623D1*
X11321913D2*
X11463897D1*
X13383593D2*
X15716633D1*
X17293907D2*
X22138860D1*
X1038300Y5958800D2*
X1112610D1*
X1580233D2*
X2701437D1*
X4060037D2*
X4376633D1*
X4750157D2*
X9887373D1*
X10306250D2*
X10903390D1*
X11322147D2*
X11463897D1*
X13402577D2*
X15716633D1*
X17293907D2*
X22138860D1*
X1038300Y5899133D2*
X1112610D1*
X1626873D2*
X2700733D1*
X3569257D2*
X3642337D1*
X4119687D2*
X4316983D1*
X4749337D2*
X9887373D1*
X10306250D2*
X10903390D1*
X11322147D2*
X11463897D1*
X11900703D2*
X12601787D1*
X13417460D2*
X15716633D1*
X17293907D2*
X22138860D1*
X1038300Y5839467D2*
X1112610D1*
X1645977D2*
X2718547D1*
X3569257D2*
X3693897D1*
X4179337D2*
X4257217D1*
X4731523D2*
X9887490D1*
X10306133D2*
X10903507D1*
X11322147D2*
X11463897D1*
X11900703D2*
X12661437D1*
X13669647D2*
X15716633D1*
X16142070D2*
X16374873D1*
X17293907D2*
X22138860D1*
X1038300Y5779800D2*
X1241397D1*
X1648203D2*
X2761670D1*
X3569257D2*
X3753663D1*
X4683007D2*
X9898273D1*
X10295350D2*
X10914287D1*
X11311367D2*
X11463897D1*
X11900703D2*
X12611633D1*
X13669647D2*
X16374873D1*
X16791757D2*
X22138860D1*
X1038300Y5720133D2*
X1241397D1*
X1648203D2*
X3088157D1*
X3569257D2*
X3813313D1*
X4623360D2*
X4901047D1*
X5277030D2*
X9930500D1*
X10263123D2*
X10946513D1*
X11279140D2*
X11463897D1*
X11900703D2*
X12542490D1*
X13669647D2*
X16374873D1*
X16791757D2*
X22138860D1*
X1038300Y5660467D2*
X1241397D1*
X1648203D2*
X3872960D1*
X4563710D2*
X4802727D1*
X5375350D2*
X10005850D1*
X10187657D2*
X11021867D1*
X11203670D2*
X11463897D1*
X11900703D2*
X12482727D1*
X13669647D2*
X16374873D1*
X16791757D2*
X22138860D1*
X1038300Y5600800D2*
X1241397D1*
X1648203D2*
X3908467D1*
X4503943D2*
X4743077D1*
X5435000D2*
X11489443D1*
X11836133D2*
X12423077D1*
X13669647D2*
X16374873D1*
X16791757D2*
X22138860D1*
X1038300Y5541133D2*
X1250303D1*
X1643633D2*
X3893937D1*
X5494647D2*
X11489443D1*
X11836133D2*
X12363430D1*
X13669647D2*
X16374873D1*
X16791757D2*
X22138860D1*
X1038300Y5481467D2*
X1280773D1*
X1643633D2*
X3886437D1*
X5554297D2*
X11174443D1*
X11851250D2*
X12303780D1*
X13669647D2*
X22138860D1*
X1038300Y5421800D2*
X1296943D1*
X1643633D2*
X3886437D1*
X11851250D2*
X12244133D1*
X12729453D2*
X20756750D1*
X21257890D2*
X22138860D1*
X1038300Y5362133D2*
X1296943D1*
X1643633D2*
X3886437D1*
X11851250D2*
X12184483D1*
X12669803D2*
X20700850D1*
X21313670D2*
X22138860D1*
X1038300Y5302467D2*
X1251943D1*
X1688750D2*
X3886437D1*
X11851250D2*
X12124717D1*
X12610157D2*
X20676360D1*
X21338280D2*
X22138860D1*
X1038300Y5242800D2*
X1251943D1*
X1688750D2*
X3888077D1*
X11851250D2*
X12065070D1*
X12550507D2*
X17030420D1*
X17447187D2*
X20670850D1*
X21343670D2*
X22138860D1*
X1038300Y5183133D2*
X1251943D1*
X1688750D2*
X3906007D1*
X11851250D2*
X12005420D1*
X12490860D2*
X17030420D1*
X17447187D2*
X20670850D1*
X21343670D2*
X22138860D1*
X1038300Y5123467D2*
X1251943D1*
X1688750D2*
X3911397D1*
X6108827D2*
X11174443D1*
X11851250D2*
X11945773D1*
X12431210D2*
X17030420D1*
X17447187D2*
X20670850D1*
X21343670D2*
X22138860D1*
X1038300Y5063800D2*
X1251943D1*
X1688750D2*
X3914797D1*
X6168477D2*
X11886123D1*
X12371443D2*
X17030420D1*
X17447187D2*
X20672960D1*
X21341680D2*
X22138860D1*
X1038300Y5004133D2*
X1251943D1*
X1688750D2*
X1887920D1*
X2298710D2*
X3939757D1*
X4535350D2*
X5742803D1*
X6228123D2*
X11826477D1*
X12311797D2*
X17030420D1*
X17447187D2*
X18771943D1*
X20334570D2*
X20691240D1*
X21323397D2*
X22138860D1*
X1038300Y4944467D2*
X1251943D1*
X2365740D2*
X3994953D1*
X4627110D2*
X5802453D1*
X6287773D2*
X9238740D1*
X9623867D2*
X11766827D1*
X12252147D2*
X12638703D1*
X13441250D2*
X17030420D1*
X17447187D2*
X18723780D1*
X20413320D2*
X20706943D1*
X21279453D2*
X22138860D1*
X1038300Y4884800D2*
X1251943D1*
X2394217D2*
X3036943D1*
X3491563D2*
X4054600D1*
X4662500D2*
X5862100D1*
X6347537D2*
X9175693D1*
X12192500D2*
X12575657D1*
X13441250D2*
X15692610D1*
X16383477D2*
X17030420D1*
X17447187D2*
X18703157D1*
X20472967D2*
X20706943D1*
X21145977D2*
X22138860D1*
X1038300Y4825133D2*
X1251943D1*
X2401600D2*
X2983037D1*
X3545587D2*
X4058587D1*
X4674920D2*
X5921750D1*
X6407187D2*
X9147920D1*
X12132850D2*
X12547883D1*
X13441250D2*
X15692610D1*
X16383477D2*
X17030420D1*
X17447187D2*
X18701280D1*
X20531680D2*
X20706943D1*
X21145977D2*
X22138860D1*
X1038300Y4765467D2*
X1251943D1*
X2390587D2*
X2960070D1*
X3568553D2*
X4064797D1*
X4668827D2*
X5981397D1*
X6466837D2*
X9140420D1*
X12073203D2*
X12540500D1*
X13441250D2*
X13588037D1*
X13932617D2*
X15692610D1*
X16383477D2*
X17030420D1*
X17469570D2*
X18717803D1*
X20563787D2*
X20706943D1*
X21145977D2*
X22138860D1*
X1038300Y4705800D2*
X1251943D1*
X2358477D2*
X2956907D1*
X3571717D2*
X4091513D1*
X4641990D2*
X6041163D1*
X6526483D2*
X9150850D1*
X12013437D2*
X12550930D1*
X14771680D2*
X15692610D1*
X16522460D2*
X17030420D1*
X17526990D2*
X18732803D1*
X20570703D2*
X20709170D1*
X21337460D2*
X22138860D1*
X1038300Y4646133D2*
X1251943D1*
X1688750D2*
X1794053D1*
X2390587D2*
X2972490D1*
X3586133D2*
X4154093D1*
X4579530D2*
X6100813D1*
X6586133D2*
X9182727D1*
X11953553D2*
X12582687D1*
X15521210D2*
X15692610D1*
X16617263D2*
X17030420D1*
X17555587D2*
X18706437D1*
X19275077D2*
X20202920D1*
X20572693D2*
X20709170D1*
X21379180D2*
X22138860D1*
X1038300Y4586467D2*
X1778820D1*
X2400663D2*
X3012920D1*
X3645077D2*
X6160460D1*
X6645780D2*
X9152843D1*
X9709763D2*
X12552920D1*
X15582850D2*
X15692610D1*
X16634140D2*
X17030420D1*
X17627537D2*
X18700110D1*
X19281523D2*
X20181827D1*
X20593787D2*
X20709170D1*
X21396170D2*
X22138860D1*
X1038300Y4526800D2*
X1719053D1*
X2392343D2*
X3220110D1*
X4000157D2*
X6220110D1*
X6705547D2*
X9140657D1*
X9721953D2*
X12540617D1*
X15633007D2*
X15692610D1*
X16633320D2*
X17110813D1*
X17664100D2*
X18711593D1*
X19270037D2*
X20178430D1*
X20597187D2*
X20709170D1*
X21397693D2*
X22138860D1*
X1038300Y4467133D2*
X1659407D1*
X2362577D2*
X3279757D1*
X4593477D2*
X5040263D1*
X5460430D2*
X6279757D1*
X6765193D2*
X9146397D1*
X9716210D2*
X12546477D1*
X15652343D2*
X15751553D1*
X16632383D2*
X17097100D1*
X17677813D2*
X18744990D1*
X19236640D2*
X20178430D1*
X20597187D2*
X20709170D1*
X21397693D2*
X22138860D1*
X1038300Y4407467D2*
X1608897D1*
X2292147D2*
X3303430D1*
X6043320D2*
X6339407D1*
X6824843D2*
X9171943D1*
X9690663D2*
X12572023D1*
X17673360D2*
X18817413D1*
X19164217D2*
X20178430D1*
X20643593D2*
X20709170D1*
X21397693D2*
X22138860D1*
X1038300Y4347800D2*
X1589327D1*
X2025547D2*
X3303430D1*
X6102967D2*
X6399053D1*
X6884490D2*
X9159287D1*
X9703320D2*
X12559250D1*
X17649570D2*
X18817413D1*
X19164217D2*
X20182063D1*
X21391367D2*
X22138860D1*
X1038300Y4288133D2*
X1566593D1*
X2333047D2*
X3303430D1*
X6162617D2*
X6458820D1*
X6944140D2*
X9142063D1*
X9720547D2*
X12542023D1*
X13441250D2*
X13588037D1*
X13932617D2*
X14086907D1*
X14503670D2*
X15216943D1*
X17595430D2*
X18710537D1*
X19177460D2*
X20203623D1*
X21365350D2*
X22138860D1*
X1038300Y4228467D2*
X1540110D1*
X2333047D2*
X3303430D1*
X6222383D2*
X6518467D1*
X7003787D2*
X9143233D1*
X9719373D2*
X12543193D1*
X13119337D2*
X13588037D1*
X13932617D2*
X14086907D1*
X14503670D2*
X15216943D1*
X17597070D2*
X18631787D1*
X19177460D2*
X20253547D1*
X20822657D2*
X21070343D1*
X21306287D2*
X22138860D1*
X1038300Y4168800D2*
X1533897D1*
X2333047D2*
X3303430D1*
X6282030D2*
X6578117D1*
X7063437D2*
X9163157D1*
X9699453D2*
X12563117D1*
X13099413D2*
X14086907D1*
X14503670D2*
X15216943D1*
X17659413D2*
X18572140D1*
X19177460D2*
X20396867D1*
X20882303D2*
X22138860D1*
X1038300Y4109133D2*
X1533897D1*
X2333047D2*
X5105070D1*
X5395507D2*
X5445967D1*
X6341680D2*
X6637763D1*
X7123203D2*
X9167140D1*
X9695467D2*
X12567100D1*
X13095430D2*
X14086907D1*
X14503670D2*
X15216943D1*
X17686837D2*
X18512490D1*
X19177460D2*
X20456513D1*
X20941953D2*
X22138860D1*
X1038300Y4049467D2*
X1533897D1*
X2333047D2*
X5505617D1*
X6401327D2*
X6697413D1*
X7182850D2*
X9144640D1*
X9717967D2*
X12544600D1*
X13118047D2*
X14086907D1*
X14503670D2*
X15216943D1*
X17694100D2*
X18452727D1*
X19177460D2*
X20516280D1*
X21001600D2*
X22138860D1*
X1038300Y3989800D2*
X1533897D1*
X3016717D2*
X5565263D1*
X6460977D2*
X6757063D1*
X7242500D2*
X9141240D1*
X9721367D2*
X12541203D1*
X13121327D2*
X14086907D1*
X14503670D2*
X15470420D1*
X17050157D2*
X17123117D1*
X17683437D2*
X18393077D1*
X19177460D2*
X20575930D1*
X21061250D2*
X22138860D1*
X1038300Y3930133D2*
X1537883D1*
X3016717D2*
X3543897D1*
X3960663D2*
X5624913D1*
X6520623D2*
X6816827D1*
X7302147D2*
X9156007D1*
X9706600D2*
X12555967D1*
X13106563D2*
X14086907D1*
X14503670D2*
X15470420D1*
X17050157D2*
X17155227D1*
X17651327D2*
X18333430D1*
X19177460D2*
X19983193D1*
X20399960D2*
X20635577D1*
X21120897D2*
X22138860D1*
X1038300Y3870467D2*
X1560383D1*
X1914217D2*
X2138233D1*
X3960663D2*
X5684563D1*
X6580273D2*
X6876477D1*
X7361797D2*
X9194210D1*
X9668397D2*
X12594170D1*
X13068360D2*
X14086907D1*
X14503670D2*
X15152960D1*
X15274530D2*
X15470420D1*
X17050157D2*
X17165303D1*
X17631053D2*
X18273780D1*
X19177460D2*
X19983193D1*
X20492890D2*
X20695227D1*
X21310740D2*
X22138860D1*
X1038300Y3810800D2*
X1563897D1*
X1910703D2*
X2078587D1*
X3960663D2*
X5744327D1*
X6640037D2*
X6936123D1*
X7421443D2*
X9295110D1*
X9567383D2*
X12695187D1*
X12967460D2*
X14106943D1*
X14503670D2*
X15056633D1*
X15370740D2*
X15470420D1*
X17590977D2*
X18214133D1*
X18699453D2*
X18740657D1*
X19177460D2*
X19983193D1*
X20554763D2*
X20754873D1*
X21362773D2*
X22138860D1*
X1038300Y3751133D2*
X1563897D1*
X1910703D2*
X2018937D1*
X3960663D2*
X5803977D1*
X6699687D2*
X6995773D1*
X7481210D2*
X14106943D1*
X14503670D2*
X15019250D1*
X17531327D2*
X18154953D1*
X18639803D2*
X18740657D1*
X19324413D2*
X19983193D1*
X20582070D2*
X20814523D1*
X21385507D2*
X22138860D1*
X1038300Y3691467D2*
X1563897D1*
X1910703D2*
X1981787D1*
X3960663D2*
X5863623D1*
X6759337D2*
X7055420D1*
X7540860D2*
X14106943D1*
X14503670D2*
X15005070D1*
X16554803D2*
X16623430D1*
X17471680D2*
X18121087D1*
X18580157D2*
X18740657D1*
X19389337D2*
X19983193D1*
X20589217D2*
X20874287D1*
X21389727D2*
X22138860D1*
X1038300Y3631800D2*
X1563897D1*
X1910703D2*
X1971943D1*
X3960663D2*
X5923273D1*
X6818983D2*
X7115070D1*
X7600507D2*
X14075420D1*
X14512227D2*
X15004367D1*
X16539570D2*
X16623430D1*
X17412030D2*
X18113233D1*
X18520507D2*
X18740657D1*
X19448983D2*
X19983193D1*
X20589217D2*
X20933937D1*
X21389727D2*
X22138860D1*
X1038300Y3572133D2*
X1563897D1*
X1910703D2*
X1971943D1*
X2325313D2*
X2786397D1*
X3960663D2*
X5982920D1*
X6878633D2*
X7174717D1*
X7660157D2*
X14075420D1*
X14512227D2*
X15004367D1*
X16494337D2*
X16623430D1*
X17352383D2*
X18113233D1*
X18460860D2*
X18740657D1*
X19508633D2*
X19983193D1*
X20589217D2*
X20970967D1*
X21389727D2*
X22138860D1*
X1038300Y3512467D2*
X1563897D1*
X2318633D2*
X2786397D1*
X3960663D2*
X6042570D1*
X6938280D2*
X7234483D1*
X7719803D2*
X14075420D1*
X14512227D2*
X15004367D1*
X16434687D2*
X16623430D1*
X17320157D2*
X17798117D1*
X18494960D2*
X18740657D1*
X19568280D2*
X20171633D1*
X20588047D2*
X20973897D1*
X21386913D2*
X22138860D1*
X1038300Y3452800D2*
X1568000D1*
X2318633D2*
X2683157D1*
X3133203D2*
X3564990D1*
X3911680D2*
X6102337D1*
X6484180D2*
X6512593D1*
X6998047D2*
X7294133D1*
X7779453D2*
X14075420D1*
X14512227D2*
X15013037D1*
X16360037D2*
X16623430D1*
X17320157D2*
X17798117D1*
X18494960D2*
X18740657D1*
X19628047D2*
X20187570D1*
X20572110D2*
X20993820D1*
X21366873D2*
X22138860D1*
X1038300Y3393133D2*
X1594367D1*
X2342187D2*
X2632063D1*
X3138943D2*
X3404327D1*
X3936990D2*
X4538587D1*
X5107227D2*
X6137490D1*
X6484180D2*
X6572257D1*
X7057693D2*
X7353780D1*
X7839100D2*
X14075420D1*
X14512227D2*
X15042337D1*
X15385037D2*
X15559717D1*
X16176407D2*
X16938430D1*
X17285117D2*
X17798117D1*
X18494960D2*
X19202257D1*
X19687693D2*
X20206437D1*
X20553240D2*
X21040813D1*
X21320000D2*
X22138860D1*
X1038300Y3333467D2*
X1650500D1*
X2363867D2*
X2610383D1*
X3160507D2*
X3333780D1*
X5107227D2*
X6137490D1*
X6484180D2*
X6631907D1*
X7117343D2*
X7413430D1*
X14512227D2*
X15109483D1*
X15318007D2*
X15500070D1*
X16092733D2*
X16938430D1*
X17285117D2*
X17798117D1*
X18494960D2*
X19261907D1*
X19747343D2*
X20206437D1*
X20553240D2*
X22138860D1*
X1038300Y3273800D2*
X1710147D1*
X2365860D2*
X2608390D1*
X3162500D2*
X3274133D1*
X5107227D2*
X6137490D1*
X6484180D2*
X6691553D1*
X7176990D2*
X7473077D1*
X14512227D2*
X15440303D1*
X15925740D2*
X16938430D1*
X17285117D2*
X17798117D1*
X18494960D2*
X19321553D1*
X19799257D2*
X20206437D1*
X20553240D2*
X22138860D1*
X1038300Y3214133D2*
X1769797D1*
X2348983D2*
X2625263D1*
X3145623D2*
X3214483D1*
X5107227D2*
X6137490D1*
X6484180D2*
X6751320D1*
X7236640D2*
X7532727D1*
X14512227D2*
X15380657D1*
X15866093D2*
X16938430D1*
X17285117D2*
X17798117D1*
X18494960D2*
X19381320D1*
X19820350D2*
X20121710D1*
X20596367D2*
X22138860D1*
X1038300Y3154467D2*
X1871280D1*
X2306327D2*
X2667920D1*
X3102967D2*
X3154717D1*
X5107227D2*
X6137490D1*
X6484180D2*
X6810967D1*
X7296287D2*
X7592490D1*
X14512227D2*
X15321007D1*
X15806443D2*
X16938430D1*
X17285117D2*
X17798117D1*
X18494960D2*
X19440967D1*
X19822110D2*
X20083623D1*
X20634453D2*
X22138860D1*
X1038300Y3094800D2*
X3095070D1*
X5107227D2*
X6137490D1*
X6484180D2*
X6870617D1*
X7355937D2*
X7652140D1*
X14512227D2*
X15261360D1*
X15746680D2*
X16890967D1*
X17355193D2*
X17751007D1*
X18198593D2*
X18941163D1*
X19357930D2*
X19475420D1*
X19822110D2*
X20068977D1*
X20649100D2*
X22138860D1*
X1038300Y3035133D2*
X3035420D1*
X4032733D2*
X4163820D1*
X5107227D2*
X6137490D1*
X6484180D2*
X6930263D1*
X7415703D2*
X7724443D1*
X14512227D2*
X15201710D1*
X15687030D2*
X15965070D1*
X16047500D2*
X16850070D1*
X17396093D2*
X17705537D1*
X18244063D2*
X18941163D1*
X19357930D2*
X19454913D1*
X19871680D2*
X20072373D1*
X20645587D2*
X22138860D1*
X1038300Y2975467D2*
X2975773D1*
X4046210D2*
X4538587D1*
X5107227D2*
X6137490D1*
X6484180D2*
X6989913D1*
X7475350D2*
X15065303D1*
X15627383D2*
X15853390D1*
X16159180D2*
X16833547D1*
X17412617D2*
X17686437D1*
X18263163D2*
X18941163D1*
X19357930D2*
X19454913D1*
X19871680D2*
X20094990D1*
X20622967D2*
X22138860D1*
X1038300Y2915800D2*
X2916123D1*
X3401443D2*
X3435500D1*
X4041170D2*
X6137490D1*
X6484180D2*
X7049563D1*
X7535000D2*
X15018897D1*
X15567733D2*
X15813780D1*
X16732693D2*
X16835420D1*
X17410740D2*
X17656907D1*
X18263750D2*
X18941163D1*
X19357930D2*
X19454913D1*
X19871680D2*
X20146907D1*
X20571053D2*
X22138860D1*
X1038300Y2856133D2*
X2856477D1*
X3341797D2*
X3460930D1*
X4015740D2*
X6137490D1*
X6484180D2*
X7109327D1*
X7594647D2*
X14999093D1*
X15508087D2*
X15745227D1*
X16732693D2*
X16856047D1*
X17390117D2*
X17597257D1*
X18245820D2*
X18941163D1*
X19357930D2*
X19454913D1*
X19871680D2*
X22138860D1*
X1038300Y2796467D2*
X2796827D1*
X3282147D2*
X3520227D1*
X3956327D2*
X6137490D1*
X6484180D2*
X7168977D1*
X7654297D2*
X14996397D1*
X15448437D2*
X15565693D1*
X16732693D2*
X16904210D1*
X17341953D2*
X17537610D1*
X18220740D2*
X18941163D1*
X19357930D2*
X19454913D1*
X19871680D2*
X22138860D1*
X1038300Y2736800D2*
X2742217D1*
X3222500D2*
X6137490D1*
X6484180D2*
X7228623D1*
X7713943D2*
X14996397D1*
X15415157D2*
X15565693D1*
X16732693D2*
X17477960D1*
X18220740D2*
X18941163D1*
X19357930D2*
X19454913D1*
X19871680D2*
X22138860D1*
X1038300Y2677133D2*
X1892023D1*
X3162850D2*
X6137490D1*
X6484180D2*
X7288273D1*
X7773710D2*
X14996397D1*
X15415157D2*
X15565693D1*
X16732693D2*
X17418193D1*
X18220740D2*
X18941163D1*
X19871680D2*
X22138860D1*
X1038300Y2617467D2*
X1839523D1*
X3148907D2*
X6137490D1*
X6484180D2*
X7347920D1*
X7833360D2*
X15000850D1*
X15410703D2*
X15565693D1*
X16732693D2*
X17358547D1*
X18220740D2*
X18941163D1*
X19862657D2*
X22138860D1*
X1038300Y2557800D2*
X1817140D1*
X3165547D2*
X6137490D1*
X6484180D2*
X7407570D1*
X7893007D2*
X15023820D1*
X15387733D2*
X15565693D1*
X16732693D2*
X17298897D1*
X17784337D2*
X17803850D1*
X18220740D2*
X18941163D1*
X19885507D2*
X22138860D1*
X1038300Y2498133D2*
X1814563D1*
X3163320D2*
X6137490D1*
X6484180D2*
X7467217D1*
X7952657D2*
X15076320D1*
X15335117D2*
X15565693D1*
X16478750D2*
X17239250D1*
X17724570D2*
X17803860D1*
X18220740D2*
X18661203D1*
X19892657D2*
X22138860D1*
X1038300Y2438467D2*
X1830733D1*
X3141407D2*
X6137490D1*
X6484180D2*
X7526983D1*
X8012303D2*
X16041943D1*
X16478750D2*
X17179600D1*
X17664920D2*
X17803860D1*
X18220740D2*
X18661203D1*
X19892657D2*
X21001670D1*
X21424883D2*
X22138860D1*
X1038300Y2378800D2*
X1872217D1*
X3089727D2*
X6137490D1*
X6484180D2*
X7586633D1*
X8071953D2*
X16041943D1*
X16478750D2*
X17119953D1*
X17605273D2*
X17803860D1*
X18220740D2*
X18661203D1*
X19892657D2*
X20949523D1*
X21477030D2*
X22138860D1*
X1038300Y2319133D2*
X6137490D1*
X6484180D2*
X7646280D1*
X8131600D2*
X16041943D1*
X16478750D2*
X16932687D1*
X17545623D2*
X17797063D1*
X18220740D2*
X18661203D1*
X19892657D2*
X20926787D1*
X21499883D2*
X22138860D1*
X1038300Y2259467D2*
X3444053D1*
X3855547D2*
X6137490D1*
X6484180D2*
X7705930D1*
X8191367D2*
X16086943D1*
X16433633D2*
X16875263D1*
X17485977D2*
X17732373D1*
X18241250D2*
X18661203D1*
X19889490D2*
X20923157D1*
X21503397D2*
X22138860D1*
X1038300Y2199800D2*
X1951787D1*
X2231797D2*
X2711397D1*
X4319373D2*
X6137490D1*
X6484180D2*
X7765577D1*
X8251013D2*
X16086943D1*
X16433633D2*
X16850070D1*
X17426327D2*
X17703897D1*
X18269610D2*
X18661203D1*
X19868163D2*
X20937687D1*
X21488867D2*
X22138860D1*
X1038300Y2140133D2*
X1861087D1*
X4319373D2*
X6137490D1*
X6484180D2*
X7825227D1*
X8310663D2*
X16086943D1*
X16433633D2*
X16844443D1*
X17425623D2*
X17695930D1*
X18277693D2*
X18661203D1*
X19817657D2*
X20975657D1*
X21509960D2*
X22138860D1*
X1038300Y2080467D2*
X1825813D1*
X4319373D2*
X6137490D1*
X6484180D2*
X7884990D1*
X8370313D2*
X16086943D1*
X16433633D2*
X16856867D1*
X17413203D2*
X17705773D1*
X18267733D2*
X18696240D1*
X19574373D2*
X21039990D1*
X21578633D2*
X22138860D1*
X1038300Y2020800D2*
X1813623D1*
X4319373D2*
X6137490D1*
X6484180D2*
X7944640D1*
X8429960D2*
X16086943D1*
X16433633D2*
X16891437D1*
X17378633D2*
X17736827D1*
X18236680D2*
X18696240D1*
X19574373D2*
X20780890D1*
X21607693D2*
X22138860D1*
X1038300Y1961133D2*
X1819953D1*
X4319373D2*
X6137490D1*
X6484180D2*
X8004287D1*
X8489610D2*
X12632960D1*
X13062617D2*
X16086943D1*
X16433633D2*
X16975227D1*
X17294843D2*
X17808663D1*
X18164843D2*
X18696240D1*
X19574373D2*
X20780890D1*
X21615663D2*
X22138860D1*
X1038300Y1901467D2*
X1846907D1*
X4319373D2*
X6137490D1*
X6484180D2*
X8063937D1*
X8549373D2*
X12569093D1*
X13126600D2*
X16086943D1*
X16433633D2*
X17813350D1*
X18160157D2*
X18696240D1*
X19574373D2*
X20780890D1*
X21615663D2*
X22138860D1*
X1038300Y1841800D2*
X1909837D1*
X2273750D2*
X2740110D1*
X3036757D2*
X3775110D1*
X4319373D2*
X6137490D1*
X6484180D2*
X8123587D1*
X8609023D2*
X12543897D1*
X13151797D2*
X16086943D1*
X16433633D2*
X17813350D1*
X18160157D2*
X18696240D1*
X19574373D2*
X20780890D1*
X21615663D2*
X22138860D1*
X1038300Y1782133D2*
X3775110D1*
X4319373D2*
X6137490D1*
X6484180D2*
X8183233D1*
X8668670D2*
X12540500D1*
X13155193D2*
X16086943D1*
X16433633D2*
X17813350D1*
X18160157D2*
X18696240D1*
X19574373D2*
X20780890D1*
X21615663D2*
X22138860D1*
X1038300Y1722467D2*
X4663273D1*
X6484180D2*
X8243000D1*
X8728320D2*
X12557610D1*
X13138087D2*
X16086943D1*
X16433633D2*
X17813350D1*
X18160157D2*
X18696240D1*
X19574373D2*
X20780890D1*
X21612967D2*
X22138860D1*
X1038300Y1662800D2*
X1865187D1*
X6484180D2*
X8302647D1*
X8787967D2*
X12603663D1*
X13091913D2*
X16043587D1*
X16433633D2*
X17813350D1*
X18160157D2*
X18695657D1*
X19042930D2*
X20780890D1*
X21592693D2*
X22138860D1*
X1038300Y1603133D2*
X1824873D1*
X6484180D2*
X8362297D1*
X21544063D2*
X22138860D1*
X1038300Y1543467D2*
X1809287D1*
X6481250D2*
X8421943D1*
X21386680D2*
X22138860D1*
X1038300Y1483800D2*
X1812570D1*
X6457227D2*
X8481593D1*
X21384920D2*
X22138860D1*
X1038300Y1424133D2*
X1835657D1*
X6389727D2*
X8541240D1*
X21364297D2*
X22138860D1*
X1038300Y1364467D2*
X1889913D1*
X5165117D2*
X8600890D1*
X21312617D2*
X22138860D1*
X1038300Y1304800D2*
X4620850D1*
X5165117D2*
X13950850D1*
X21240077D2*
X22138860D1*
X1038300Y1245133D2*
X4620850D1*
X5165117D2*
X13950850D1*
X14387657D2*
X22138860D1*
X1038300Y1185467D2*
X4620850D1*
X5165117D2*
X22138860D1*
X1038300Y1125800D2*
X4620850D1*
X5165117D2*
X22138860D1*
X1038300Y1066133D2*
X4620850D1*
X5165117D2*
X22138860D1*
X3217547Y11046703D2*
X3252933D1*
Y11043303D1*
X3401127Y11043203D1*
X3401123Y11074400D1*
X3723977D1*
X3724083Y11175873D1*
X4056620D1*
Y11076850D1*
X4217787Y11076940D1*
X4217867Y11522207D1*
X4253843D1*
X4253900Y11615410D1*
X4243547Y11636673D1*
X4234217Y11665387D1*
X4229493Y11695203D1*
X4228900Y11770300D1*
Y11930300D1*
X4231270Y11960397D1*
X4238317Y11989753D1*
X4249870Y12017647D1*
X4264957Y12042360D1*
X4230900Y12042400D1*
Y12318843D1*
X3753633Y12318903D1*
Y12333317D1*
X3719457Y12333403D1*
X3719433Y12324403D1*
X3469003D1*
X3468933Y12315403D1*
X3219910D1*
X3219933Y12051903D1*
X3168253D1*
X3172230Y12034147D1*
X3183783Y12006253D1*
X3190830Y11976897D1*
X3193200Y11946800D1*
Y11726800D1*
X3190830Y11696703D1*
X3183783Y11667347D1*
X3182413Y11663637D1*
X3182433Y11538153D1*
X3217433Y11538203D1*
Y11046600D1*
X2828153Y10641903D2*
X2828133Y10648113D1*
X2682700Y10648000D1*
X2682620Y10542133D1*
X2350083D1*
Y10645377D1*
X2114827Y10645460D1*
X2114933Y10643903D1*
X1430133D1*
Y10675660D1*
X1409287Y10673010D1*
X1333800Y10672400D1*
X1183800D1*
X1152920Y10674830D1*
X1122800Y10682060D1*
X1094183Y10693917D1*
X1067770Y10710100D1*
X1044217Y10730217D1*
X1032233Y10743453D1*
X1032327Y1042773D1*
X22144800Y1023300D1*
X22144773Y13278327D1*
X15504347Y13284443D1*
X15504283Y13037813D1*
X15515500Y13023830D1*
X15531683Y12997417D1*
X15543540Y12968800D1*
X15550770Y12938680D1*
X15553200Y12907800D1*
X15550770Y12876920D1*
X15543540Y12846800D1*
X15531683Y12818183D1*
X15515500Y12791770D1*
X15495383Y12768217D1*
X15471830Y12748100D1*
X15445417Y12731917D1*
X15416800Y12720060D1*
X15386680Y12712830D1*
X15355800Y12710400D1*
X15145800D1*
X15114920Y12712830D1*
X15084800Y12720060D1*
X15056183Y12731917D1*
X15040800Y12740400D1*
X14779353D1*
X14759647Y12728870D1*
X14731753Y12717317D1*
X14702397Y12710270D1*
X14672300Y12707900D1*
X14452300D1*
X14422203Y12710270D1*
X14392847Y12717317D1*
X14388360Y12718970D1*
X14029567Y12718957D1*
X14000380Y12703983D1*
X13970920Y12694410D1*
X13940327Y12689563D1*
X13864840Y12688957D1*
X13714840D1*
X13683960Y12691387D1*
X13653840Y12698617D1*
X13625220Y12710470D1*
X13598810Y12726657D1*
X13589633Y12733890D1*
X13589613Y12693943D1*
X12904813D1*
Y12735780D1*
X12883297Y12729397D1*
X12852700Y12724553D1*
X12777213Y12723943D1*
X12627213D1*
X12596333Y12726373D1*
X12566213Y12733603D1*
X12537597Y12745460D1*
X12511183Y12761643D1*
X12487630Y12781760D1*
X12467513Y12805313D1*
X12451330Y12831727D1*
X12439473Y12860343D1*
X12432243Y12890463D1*
X12429813Y12921343D1*
X12432243Y12952223D1*
X12439473Y12982343D1*
X12451330Y13010960D1*
X12467513Y13037373D1*
X12487630Y13060927D1*
X12511183Y13081043D1*
X12537597Y13097227D1*
X12566213Y13109083D1*
X12596333Y13116313D1*
X12627273Y13118740D1*
X12852700Y13118133D1*
X12883297Y13113290D1*
X12904860Y13106630D1*
X12904813Y13118743D1*
X13589613D1*
Y13073627D1*
X13653840Y13074093D1*
X13683960Y13081327D1*
X13714900Y13083753D1*
X13940327Y13083147D1*
X13970920Y13078303D1*
X14000380Y13068730D1*
X14027980Y13054667D1*
X14029840Y13053757D1*
X14336283D1*
X14351770Y13064347D1*
X14378673Y13078053D1*
X14407387Y13087383D1*
X14437203Y13092107D1*
X14512300Y13092700D1*
X14687397Y13092107D1*
X14717213Y13087383D1*
X14745927Y13078053D1*
X14752200Y13075163D1*
X15001167Y13075200D1*
X15001137Y13285000D1*
X10688410Y13288880D1*
X10688373Y13074330D1*
X10711880Y13070577D1*
X10736860Y13062457D1*
X10760267Y13050533D1*
X10781517Y13035093D1*
X10854810Y12962530D1*
X11121093Y12695517D1*
X11136533Y12674267D1*
X11148457Y12650860D1*
X11156577Y12625880D1*
X11160683Y12599933D1*
X11161200Y12526800D1*
Y11907700D1*
X11562703Y11506137D1*
X14464353Y11506200D1*
X16180013Y13221093D1*
X16201263Y13236533D1*
X16224670Y13248457D1*
X16249650Y13256573D1*
X16275597Y13260683D1*
X16348730Y13261200D1*
X20344433Y13260683D1*
X20370380Y13256573D1*
X20395360Y13248457D1*
X20418767Y13236533D1*
X20440017Y13221093D1*
X20492097Y13169743D1*
X21030093Y12631017D1*
X21045533Y12609767D1*
X21057457Y12586360D1*
X21065573Y12561380D1*
X21069683Y12535433D1*
X21070200Y12462300D1*
Y11611637D1*
X21115200Y11611700D1*
Y10926900D1*
X21074147Y10926730D1*
X21099890Y10910953D1*
X21122847Y10891347D1*
X21142453Y10868390D1*
X21158230Y10842647D1*
X21169783Y10814753D1*
X21176830Y10785397D1*
X21179200Y10755300D1*
X21176830Y10725203D1*
X21169783Y10695847D1*
X21158230Y10667953D1*
X21142453Y10642210D1*
X21122847Y10619253D1*
X21099890Y10599647D1*
X21074147Y10583870D1*
X21046253Y10572317D1*
X21016897Y10565270D1*
X20986800Y10562900D1*
X20866800D1*
X20836703Y10565270D1*
X20815240Y10570090D1*
X20815200Y10537400D1*
X20560083D1*
X20560200Y10531400D1*
X20135400D1*
Y10661360D1*
X20134700Y10576200D1*
Y10271400D1*
X20082083D1*
X20082200Y9978683D1*
X20092553Y9957427D1*
X20101883Y9928713D1*
X20106607Y9898897D1*
X20107200Y9823800D1*
X20106607Y9748703D1*
X20101883Y9718887D1*
X20092553Y9690173D1*
X20078847Y9663270D1*
X20061103Y9638847D1*
X20039753Y9617497D1*
X20015330Y9599753D1*
X19988427Y9586047D1*
X19959713Y9576717D1*
X19929897Y9571993D1*
X19899703D1*
X19869887Y9576717D1*
X19841173Y9586047D1*
X19814270Y9599753D1*
X19789847Y9617497D1*
X19787897Y9619300D1*
X19773890Y9608147D1*
X19748147Y9592370D1*
X19720253Y9580817D1*
X19690897Y9573770D1*
X19660800Y9571400D1*
X19630703Y9573770D1*
X19601347Y9580817D1*
X19573453Y9592370D1*
X19547710Y9608147D1*
X19524753Y9627753D1*
X19512560Y9641303D1*
X19512543Y9261413D1*
X18985137D1*
Y9547703D1*
X18965523Y9558373D1*
X18939703Y9577133D1*
X18917133Y9599703D1*
X18898373Y9625523D1*
X18883883Y9653963D1*
X18874020Y9684317D1*
X18869027Y9715840D1*
X18868400Y9791800D1*
Y9894800D1*
X18870903Y9926620D1*
X18878357Y9957653D1*
X18890570Y9987143D1*
X18907247Y10014357D1*
X18927973Y10038627D1*
X18952243Y10059353D1*
X18979457Y10076030D1*
X19008947Y10088243D1*
X19039980Y10095697D1*
X19071800Y10098200D1*
X19103620Y10095697D1*
X19134653Y10088243D1*
X19164143Y10076030D1*
X19191357Y10059353D1*
X19215627Y10038627D1*
X19236353Y10014357D1*
X19250807Y9991117D1*
X19501247Y9991200D1*
X19514497Y10008753D1*
X19518783Y10013390D1*
X19431400Y10013400D1*
Y10438200D1*
X19449800D1*
X19449900Y10696200D1*
X19727987D1*
X19727900Y11104627D1*
X19699913Y11133310D1*
X19686280Y11152073D1*
X19681490Y11156200D1*
X19669373Y11136427D1*
X19654310Y11118790D1*
X19632677Y11097153D1*
X19632700Y10788400D1*
X19301647D1*
X19287400Y10780110D1*
X19265973Y10771233D1*
X19243420Y10765820D1*
X19220300Y10764000D1*
X18759400D1*
X18736830Y10747753D1*
X18709927Y10734047D1*
X18681213Y10724717D1*
X18651397Y10719993D1*
X18576300Y10719400D1*
X18501203Y10719993D1*
X18471387Y10724717D1*
X18442673Y10734047D1*
X18415770Y10747753D1*
X18391347Y10765497D1*
X18369997Y10786847D1*
X18352253Y10811270D1*
X18338547Y10838173D1*
X18329217Y10866887D1*
X18324493Y10896703D1*
Y10926897D1*
X18329217Y10956713D1*
X18338547Y10985427D1*
X18352253Y11012330D1*
X18369997Y11036847D1*
X18352253Y11061270D1*
X18338547Y11088173D1*
X18329217Y11116887D1*
X18324493Y11146703D1*
Y11176897D1*
X18329217Y11206713D1*
X18338547Y11235427D1*
X18352253Y11262330D1*
X18369997Y11286753D1*
X18391347Y11308103D1*
X18415770Y11325847D1*
X18443947Y11340023D1*
X18443900Y11553870D1*
X18041693Y11553900D1*
X18041700Y11543400D1*
X17982757D1*
X17976190Y11533720D1*
X17976360Y11521577D1*
X17992137Y11495837D1*
X18003690Y11467943D1*
X18010737Y11438587D1*
X18013107Y11408487D1*
X18010737Y11378390D1*
X18003690Y11349033D1*
X17992137Y11321140D1*
X17976360Y11295397D1*
X17967703Y11284413D1*
X17983753Y11262017D1*
X17997460Y11235117D1*
X18006790Y11206403D1*
X18011513Y11176583D1*
Y11146393D1*
X18006790Y11116573D1*
X17997460Y11087860D1*
X17983753Y11060960D1*
X17965407Y11035883D1*
X17982753Y11012017D1*
X17996460Y10985117D1*
X18005790Y10956403D1*
X18010513Y10926583D1*
Y10896393D1*
X18005790Y10866573D1*
X17996460Y10837860D1*
X17982753Y10810960D1*
X17965007Y10786533D1*
X17957757Y10778690D1*
X17970200Y10778700D1*
Y10353900D1*
X17935397D1*
X17948953Y10337390D1*
X17964730Y10311647D1*
X17976283Y10283753D1*
X17983330Y10254397D1*
X17985700Y10224300D1*
Y10104300D1*
X17983330Y10074203D1*
X17976283Y10044847D1*
X17964730Y10016953D1*
X17948953Y9991210D1*
X17929347Y9968253D1*
X17906390Y9948647D1*
X17880647Y9932870D1*
X17852753Y9921317D1*
X17823397Y9914270D1*
X17793300Y9911900D1*
X17763203Y9914270D1*
X17733847Y9921317D1*
X17705953Y9932870D1*
X17680210Y9948647D1*
X17657253Y9968253D1*
X17637647Y9991210D1*
X17621870Y10016953D1*
X17610317Y10044847D1*
X17603270Y10074203D1*
X17600900Y10104300D1*
X17600400Y10279800D1*
Y10353980D1*
X17565400Y10353900D1*
Y10772843D1*
X17552403Y10786533D1*
X17534657Y10810960D1*
X17520950Y10837860D1*
X17511623Y10866573D1*
X17506900Y10896393D1*
Y10926583D1*
X17511623Y10956403D1*
X17520523Y10983953D1*
X17445667Y10984417D1*
X17419720Y10988527D1*
X17394740Y10996643D1*
X17371333Y11008567D1*
X17350083Y11024007D1*
X17349440Y11024600D1*
X17347200Y11020700D1*
Y10825900D1*
X16922400D1*
Y11061797D1*
X16365400Y11061900D1*
Y11107017D1*
X15894557Y11106900D1*
X15514683Y10726943D1*
X15514700Y10304400D1*
X15489507D1*
X15512970Y10289793D1*
X15535927Y10270187D1*
X15555537Y10247230D1*
X15571310Y10221487D1*
X15582863Y10193593D1*
X15589913Y10164237D1*
X15592280Y10134140D1*
X15589913Y10104040D1*
X15582863Y10074683D1*
X15571310Y10046790D1*
X15555537Y10021050D1*
X15545583Y10008537D1*
X15562930Y9984667D1*
X15576637Y9957767D1*
X15585963Y9929053D1*
X15590687Y9899233D1*
Y9869043D1*
X15585963Y9839223D1*
X15576637Y9810510D1*
X15562930Y9783610D1*
X15545877Y9760067D1*
X15561930Y9737667D1*
X15575637Y9710767D1*
X15584963Y9682053D1*
X15589687Y9652233D1*
Y9622043D1*
X15584963Y9592223D1*
X15575637Y9563510D1*
X15561930Y9536610D1*
X15544183Y9512187D1*
X15522833Y9490837D1*
X15498410Y9473090D1*
X15471510Y9459383D1*
X15455233Y9453563D1*
X15474900Y9442700D1*
X15479700D1*
Y9037900D1*
X14904193D1*
X14837630Y8971390D1*
X14837700Y7569300D1*
X14835640Y7543113D1*
X14829507Y7517570D1*
X14819453Y7493303D1*
X14805730Y7470903D1*
X14788670Y7450930D1*
X14387517Y7050507D1*
X14366267Y7035067D1*
X14342860Y7023143D1*
X14317880Y7015023D1*
X14291933Y7010917D1*
X14218800Y7010400D1*
X13387120D1*
X13387200Y6965400D1*
X13352160D1*
X13352200Y6270417D1*
X13367027Y6254900D1*
X13384773Y6230477D1*
X13398480Y6203577D1*
X13407810Y6174863D1*
X13412533Y6145043D1*
Y6114853D1*
X13407810Y6085033D1*
X13398480Y6056320D1*
X13384773Y6029420D1*
X13367723Y6005873D1*
X13383773Y5983477D1*
X13397480Y5956577D1*
X13406810Y5927863D1*
X13411533Y5898043D1*
Y5867853D1*
X13409917Y5854197D1*
X13663700Y5854200D1*
Y5429400D1*
X13258900D1*
Y5444750D1*
X13233820Y5441140D1*
X13158727Y5440547D1*
X12998727D1*
X12968627Y5442917D1*
X12939270Y5449963D1*
X12911377Y5461517D1*
X12904120Y5465583D1*
X12767123Y5465547D1*
X11953670Y4651930D1*
X11933697Y4634870D1*
X11911297Y4621147D1*
X11887030Y4611093D1*
X11861487Y4604960D1*
X11835300Y4602900D1*
X9696747D1*
X9706243Y4579153D1*
X9713697Y4548120D1*
X9716200Y4516300D1*
X9713697Y4484480D1*
X9706243Y4453447D1*
X9694030Y4423957D1*
X9677353Y4396743D1*
X9671600Y4389443D1*
X9686227Y4368577D1*
X9700717Y4340137D1*
X9710580Y4309783D1*
X9715573Y4278260D1*
Y4246340D1*
X9710580Y4214817D1*
X9700717Y4184463D1*
X9686227Y4156023D1*
X9671600Y4135443D1*
X9686227Y4114577D1*
X9700717Y4086137D1*
X9710580Y4055783D1*
X9715573Y4024260D1*
Y3992340D1*
X9710580Y3960817D1*
X9700717Y3930463D1*
X9686227Y3902023D1*
X9667467Y3876203D1*
X9644897Y3853633D1*
X9619077Y3834873D1*
X9590637Y3820383D1*
X9560283Y3810520D1*
X9528760Y3805527D1*
X9452800Y3804900D1*
X9349800D1*
X9317980Y3807403D1*
X9286947Y3814857D1*
X9257457Y3827070D1*
X9230243Y3843747D1*
X9205973Y3864473D1*
X9185247Y3888743D1*
X9168570Y3915957D1*
X9156357Y3945447D1*
X9148903Y3976480D1*
X9146400Y4008300D1*
X9148903Y4040120D1*
X9156357Y4071153D1*
X9168570Y4100643D1*
X9185247Y4127857D1*
X9191000Y4135157D1*
X9176373Y4156023D1*
X9161883Y4184463D1*
X9152020Y4214817D1*
X9147027Y4246340D1*
Y4278260D1*
X9152020Y4309783D1*
X9161883Y4340137D1*
X9176373Y4368577D1*
X9191000Y4389157D1*
X9176373Y4410023D1*
X9161883Y4438463D1*
X9152020Y4468817D1*
X9147027Y4500340D1*
Y4532260D1*
X9152020Y4563783D1*
X9161883Y4594137D1*
X9176373Y4622577D1*
X9191000Y4643157D1*
X9176373Y4664023D1*
X9161883Y4692463D1*
X9152020Y4722817D1*
X9147027Y4754340D1*
Y4786260D1*
X9152020Y4817783D1*
X9161883Y4848137D1*
X9176373Y4876577D1*
X9195133Y4902397D1*
X9217703Y4924967D1*
X9243523Y4943727D1*
X9271963Y4958217D1*
X9302317Y4968080D1*
X9333840Y4973073D1*
X9409800Y4973700D1*
X9528760Y4973073D1*
X9560283Y4968080D1*
X9590637Y4958217D1*
X9619077Y4943727D1*
X9628153Y4937660D1*
X11766027Y4937700D1*
X12589230Y5760240D1*
X12610480Y5775680D1*
X12633887Y5787607D1*
X12658870Y5795723D1*
X12684813Y5799833D1*
X12706503Y5800347D1*
X12567523Y5939337D1*
X12389400Y5939400D1*
Y5951470D1*
X12362583Y5951400D1*
X12362700Y5943900D1*
X11937900D1*
Y5952923D1*
X11894723Y5952900D1*
X11894700Y5650900D1*
X11830130D1*
X11830200Y5494590D1*
X11845200Y5494700D1*
Y5089900D1*
X11180400D1*
Y5124940D1*
X6101433Y5124900D1*
X7873610Y3352730D1*
X13410900Y3352700D1*
Y3387700D1*
X13643517D1*
X13643400Y3392200D1*
X14068200D1*
Y3383177D1*
X14081330Y3383200D1*
X14081400Y3667700D1*
X14112923D1*
X14112900Y3854493D1*
X14092900Y3854400D1*
Y4301470D1*
X13926700Y4301500D1*
X13926620Y4195633D1*
X13594083D1*
Y4298877D1*
X13435233Y4298960D1*
X13435200Y4270900D1*
X13116100D1*
X13115573Y4246340D1*
X13110580Y4214817D1*
X13100717Y4184463D1*
X13086227Y4156023D1*
X13071600Y4135443D1*
X13086227Y4114577D1*
X13100717Y4086137D1*
X13110580Y4055783D1*
X13115573Y4024260D1*
Y3992340D1*
X13110580Y3960817D1*
X13100717Y3930463D1*
X13086227Y3902023D1*
X13067467Y3876203D1*
X13044897Y3853633D1*
X13019077Y3834873D1*
X12990637Y3820383D1*
X12960283Y3810520D1*
X12928760Y3805527D1*
X12852800Y3804900D1*
X12749800D1*
X12717980Y3807403D1*
X12686947Y3814857D1*
X12657457Y3827070D1*
X12630243Y3843747D1*
X12605973Y3864473D1*
X12585247Y3888743D1*
X12568570Y3915957D1*
X12556357Y3945447D1*
X12548903Y3976480D1*
X12546400Y4008300D1*
X12548903Y4040120D1*
X12556357Y4071153D1*
X12568570Y4100643D1*
X12585247Y4127857D1*
X12591000Y4135157D1*
X12576373Y4156023D1*
X12561883Y4184463D1*
X12552020Y4214817D1*
X12547027Y4246340D1*
Y4278260D1*
X12552020Y4309783D1*
X12561883Y4340137D1*
X12576373Y4368577D1*
X12591000Y4389157D1*
X12576373Y4410023D1*
X12561883Y4438463D1*
X12552020Y4468817D1*
X12547027Y4500340D1*
Y4532260D1*
X12552020Y4563783D1*
X12561883Y4594137D1*
X12576373Y4622577D1*
X12591000Y4643157D1*
X12576373Y4664023D1*
X12561883Y4692463D1*
X12552020Y4722817D1*
X12547027Y4754340D1*
Y4786260D1*
X12552020Y4817783D1*
X12561883Y4848137D1*
X12576373Y4876577D1*
X12595133Y4902397D1*
X12617703Y4924967D1*
X12643523Y4943727D1*
X12671963Y4958217D1*
X12702317Y4968080D1*
X12733840Y4973073D1*
X12809800Y4973700D1*
X12928760Y4973073D1*
X12960283Y4968080D1*
X12990637Y4958217D1*
X13010420Y4948573D1*
X13010400Y4955700D1*
X13435200D1*
Y4711363D1*
X13593977Y4711400D1*
X13594083Y4812873D1*
X13926620D1*
Y4713850D1*
X14080990Y4713940D1*
X14080900Y4726200D1*
X14765700D1*
Y4681083D1*
X15412800Y4681200D1*
X15438987Y4679140D1*
X15464530Y4673007D1*
X15488797Y4662953D1*
X15511197Y4649230D1*
X15531170Y4632170D1*
X15607593Y4555017D1*
X15623033Y4533767D1*
X15634957Y4510360D1*
X15643073Y4485380D1*
X15647183Y4459433D1*
X15656400Y4447950D1*
X15758003D1*
X15758067Y4476247D1*
X15759560Y4488847D1*
X15751843Y4508247D1*
X15748103Y4521753D1*
X15733450Y4525150D1*
X15698650D1*
Y4929950D1*
X16377450D1*
Y4708347D1*
X16517400Y4705743D1*
X16536320Y4702437D1*
X16554490Y4696213D1*
X16571460Y4687220D1*
X16586817Y4675687D1*
X16600180Y4661890D1*
X16611223Y4646173D1*
X16619667Y4628923D1*
X16625313Y4610563D1*
X16628013Y4591550D1*
X16626803Y4491950D1*
X16625637Y4421023D1*
X16637150Y4416200D1*
X17004597D1*
X17023083Y4426830D1*
X17052573Y4439043D1*
X17083607Y4446497D1*
X17102523Y4448493D1*
X17103153Y4467960D1*
X17108147Y4499483D1*
X17118010Y4529837D1*
X17123207Y4541113D1*
X17036400Y4541150D1*
Y5251700D1*
X17441200D1*
Y4787943D1*
X17514720Y4713640D1*
X17530160Y4692390D1*
X17542083Y4668983D1*
X17550200Y4644003D1*
X17561270Y4633230D1*
X17588483Y4616553D1*
X17612753Y4595827D1*
X17633480Y4571557D1*
X17650157Y4544343D1*
X17662370Y4514853D1*
X17669823Y4483820D1*
X17672327Y4452000D1*
X17669823Y4420180D1*
X17662370Y4389147D1*
X17650157Y4359657D1*
X17633480Y4332443D1*
X17612753Y4308173D1*
X17588483Y4287447D1*
X17561270Y4270770D1*
X17531780Y4258557D1*
X17520313Y4255320D1*
X17547653Y4248493D1*
X17577143Y4236280D1*
X17604357Y4219603D1*
X17628627Y4198877D1*
X17649353Y4174607D1*
X17666030Y4147393D1*
X17678243Y4117903D1*
X17685697Y4086870D1*
X17688200Y4055050D1*
X17685697Y4023230D1*
X17678243Y3992197D1*
X17666030Y3962707D1*
X17649353Y3935493D1*
X17636183Y3918667D1*
X17632073Y3892720D1*
X17623957Y3867740D1*
X17612033Y3844333D1*
X17596593Y3823083D1*
X17524030Y3749790D1*
X17314137Y3539897D1*
X17314200Y3429900D1*
X17279160D1*
X17279200Y3141090D1*
X17296903Y3133007D1*
X17324117Y3116330D1*
X17348387Y3095603D1*
X17369113Y3071333D1*
X17385790Y3044120D1*
X17398003Y3014630D1*
X17405457Y2983597D1*
X17407960Y2951777D1*
X17405457Y2919957D1*
X17398003Y2888923D1*
X17385790Y2859433D1*
X17369113Y2832220D1*
X17348387Y2807950D1*
X17324117Y2787223D1*
X17296903Y2770547D1*
X17267413Y2758333D1*
X17236380Y2750880D1*
X17204560Y2748377D1*
X17041560D1*
X17009740Y2750880D1*
X16978707Y2758333D1*
X16949217Y2770547D1*
X16922003Y2787223D1*
X16897733Y2807950D1*
X16877007Y2832220D1*
X16860330Y2859433D1*
X16848117Y2888923D1*
X16840663Y2919957D1*
X16838160Y2951777D1*
X16840663Y2983597D1*
X16848117Y3014630D1*
X16860330Y3044120D1*
X16877007Y3071333D1*
X16897733Y3095603D1*
X16922003Y3116330D1*
X16944483Y3130357D1*
X16944200Y3429900D1*
X16629400D1*
Y3731423D1*
X16549257Y3731400D1*
X16548683Y3689167D1*
X16544577Y3663220D1*
X16536457Y3638240D1*
X16524533Y3614833D1*
X16509093Y3593583D1*
X16457743Y3541503D1*
X16393257Y3477747D1*
X16372007Y3462307D1*
X16348600Y3450383D1*
X16323620Y3442263D1*
X16297673Y3438157D1*
X16224540Y3437640D1*
X16198640D1*
X16187703Y3417263D1*
X16168943Y3391443D1*
X16146373Y3368873D1*
X16120553Y3350113D1*
X16092113Y3335623D1*
X16061760Y3325760D1*
X16030237Y3320767D1*
X15998317D1*
X15970893Y3324943D1*
X15409150Y2762833D1*
X15408523Y2643873D1*
X15403530Y2612350D1*
X15393667Y2581997D1*
X15379177Y2553557D1*
X15360417Y2527737D1*
X15337847Y2505167D1*
X15312027Y2486407D1*
X15283587Y2471917D1*
X15253233Y2462053D1*
X15221710Y2457060D1*
X15189790D1*
X15158267Y2462053D1*
X15127913Y2471917D1*
X15099473Y2486407D1*
X15073653Y2505167D1*
X15051083Y2527737D1*
X15032323Y2553557D1*
X15017833Y2581997D1*
X15007970Y2612350D1*
X15002977Y2643873D1*
X15002350Y2719833D1*
X15002977Y2838793D1*
X15007970Y2870317D1*
X15017833Y2900670D1*
X15032323Y2929110D1*
X15051083Y2954930D1*
X15073653Y2977500D1*
X15099473Y2996260D1*
X15127913Y3010750D1*
X15158267Y3020613D1*
X15189790Y3025607D1*
X15198457Y3025947D1*
X15609177Y3436677D1*
X15588653Y3430300D1*
X15562707Y3426190D1*
X15459573Y3425673D1*
X15398050D1*
X15387157Y3405297D1*
X15368397Y3379477D1*
X15345827Y3356907D1*
X15320007Y3338147D1*
X15291567Y3323657D1*
X15261213Y3313793D1*
X15229690Y3308800D1*
X15197770D1*
X15166247Y3313793D1*
X15135893Y3323657D1*
X15107453Y3338147D1*
X15081633Y3356907D1*
X15059063Y3379477D1*
X15040303Y3405297D1*
X15025813Y3433737D1*
X15015950Y3464090D1*
X15010957Y3495613D1*
X15010330Y3571573D1*
X15010957Y3690533D1*
X15015950Y3722057D1*
X15025813Y3752410D1*
X15040303Y3780850D1*
X15059063Y3806670D1*
X15081633Y3829240D1*
X15107453Y3848000D1*
X15135893Y3862490D1*
X15166247Y3872353D1*
X15197770Y3877347D1*
X15229690D1*
X15261213Y3872353D1*
X15291567Y3862490D1*
X15320007Y3848000D1*
X15345827Y3829240D1*
X15368397Y3806670D1*
X15387157Y3780850D1*
X15397963Y3760400D1*
X15480330Y3760473D1*
X15481200Y3763150D1*
X15476400D1*
Y4037953D1*
X15222900Y4037900D1*
Y4346453D1*
X14765807Y4346400D1*
X14765700Y4301400D1*
X14497693D1*
X14497700Y3667697D1*
X14506200Y3667700D1*
Y2982900D1*
X14285770D1*
X14285700Y2978400D1*
X13860900D1*
Y2987423D1*
X13835583Y2987400D1*
X13835700Y2982900D1*
X13410900D1*
Y3017940D1*
X7791167Y3018417D1*
X7765220Y3022527D1*
X7740240Y3030643D1*
X7716833Y3042567D1*
X7695583Y3058007D1*
X7643503Y3109357D1*
X5717990Y5034870D1*
X4383980Y5034900D1*
X4406103Y5012727D1*
X4487270Y5012103D1*
X4517863Y5007257D1*
X4547323Y4997683D1*
X4574923Y4983620D1*
X4599983Y4965413D1*
X4621883Y4943510D1*
X4640093Y4918450D1*
X4654153Y4890853D1*
X4663727Y4861393D1*
X4668573Y4830797D1*
Y4799823D1*
X4663727Y4769227D1*
X4654153Y4739770D1*
X4640093Y4712170D1*
X4621883Y4687110D1*
X4599983Y4665207D1*
X4574923Y4647000D1*
X4547323Y4632937D1*
X4517863Y4623363D1*
X4487270Y4618520D1*
X4411780Y4617910D1*
X4261780D1*
X4230900Y4620340D1*
X4200780Y4627573D1*
X4172163Y4639427D1*
X4145753Y4655610D1*
X4122197Y4675727D1*
X4102080Y4699280D1*
X4085897Y4725693D1*
X4074043Y4754310D1*
X4066810Y4784430D1*
X4064380Y4815310D1*
X4066810Y4846190D1*
X4072940Y4872407D1*
X3957507Y4988573D1*
X3942067Y5009823D1*
X3930143Y5033230D1*
X3922027Y5058213D1*
X3917917Y5084157D1*
X3917400Y5157290D1*
Y5172877D1*
X3907047Y5194173D1*
X3897717Y5222887D1*
X3892993Y5252703D1*
X3892400Y5327800D1*
X3892993Y5502897D1*
X3897717Y5532713D1*
X3907047Y5561427D1*
X3914437Y5577053D1*
X3914400Y5624900D1*
X3666007Y5874083D1*
X3650567Y5895333D1*
X3643780Y5907593D1*
X3635700Y5913900D1*
X3563240D1*
X3563257Y5680913D1*
X3094137D1*
Y5724623D1*
X3071300Y5723400D1*
X2908300D1*
X2876480Y5725903D1*
X2845447Y5733357D1*
X2815957Y5745570D1*
X2788743Y5762247D1*
X2764473Y5782973D1*
X2743747Y5807243D1*
X2727070Y5834457D1*
X2714857Y5863947D1*
X2707403Y5894980D1*
X2704900Y5926800D1*
X2707403Y5958620D1*
X2714857Y5989653D1*
X2727070Y6019143D1*
X2743747Y6046357D1*
X2764473Y6070627D1*
X2788743Y6091353D1*
X2815957Y6108030D1*
X2845447Y6120243D1*
X2876480Y6127697D1*
X2908300Y6130200D1*
X2956463D1*
X3032437Y6206173D1*
X3032400Y6231343D1*
X2750400Y6231400D1*
Y6266440D1*
X2697840Y6266400D1*
X2683877Y6255173D1*
X2658133Y6239397D1*
X2630240Y6227843D1*
X2600883Y6220797D1*
X2570787Y6218427D1*
X2450787D1*
X2420687Y6220797D1*
X2391330Y6227843D1*
X2363437Y6239397D1*
X2337697Y6255173D1*
X2314740Y6274780D1*
X2295130Y6297737D1*
X2279357Y6323480D1*
X2267803Y6351373D1*
X2260753Y6380730D1*
X2258387Y6410827D1*
X2260753Y6440927D1*
X2267803Y6470283D1*
X2279357Y6498177D1*
X2295130Y6523917D1*
X2303790Y6534900D1*
X2287737Y6557300D1*
X2274030Y6584200D1*
X2264703Y6612913D1*
X2259980Y6642733D1*
Y6672923D1*
X2264703Y6702743D1*
X2274030Y6731457D1*
X2287737Y6758357D1*
X2305483Y6782780D1*
X2326833Y6804130D1*
X2351257Y6821877D1*
X2378157Y6835583D1*
X2406870Y6844910D1*
X2436690Y6849633D1*
X2511787Y6850227D1*
X2586880Y6849633D1*
X2616700Y6844910D1*
X2645413Y6835583D1*
X2666393Y6825190D1*
X2750497Y6825227D1*
X2750400Y6916200D1*
X2777003D1*
X2776900Y6942407D1*
X2474400Y6942400D1*
Y7627200D1*
X2479907D1*
X2467047Y7652673D1*
X2457717Y7681387D1*
X2452993Y7711203D1*
Y7741397D1*
X2457717Y7771213D1*
X2467047Y7799927D1*
X2480753Y7826830D1*
X2498497Y7851347D1*
X2480753Y7875770D1*
X2467047Y7902673D1*
X2457717Y7931387D1*
X2452993Y7961203D1*
Y7991397D1*
X2457717Y8021213D1*
X2467047Y8049927D1*
X2480753Y8076830D1*
X2498497Y8101253D1*
X2519847Y8122603D1*
X2544270Y8140347D1*
X2571173Y8154053D1*
X2599887Y8163383D1*
X2629703Y8168107D1*
X2704800Y8168700D1*
X2779897Y8168107D1*
X2809713Y8163383D1*
X2838427Y8154053D1*
X2859407Y8143663D1*
X2979840Y8143700D1*
X2979900Y8428200D1*
X3216970D1*
X3216900Y8436200D1*
X3641700D1*
Y8105613D1*
X3913933Y8105183D1*
X3939880Y8101073D1*
X3964860Y8092957D1*
X3978400Y8089200D1*
X4383200D1*
Y7980097D1*
X4639720Y7980200D1*
X4653100Y7992730D1*
X4677527Y8010477D1*
X4704427Y8024183D1*
X4733140Y8033510D1*
X4762960Y8038233D1*
X4793150D1*
X4822970Y8033510D1*
X4851683Y8024183D1*
X4878583Y8010477D1*
X4903657Y7992130D1*
X4927527Y8009477D1*
X4954427Y8023183D1*
X4983140Y8032510D1*
X5012960Y8037233D1*
X5043150D1*
X5072970Y8032510D1*
X5101683Y8023183D1*
X5111383Y8018710D1*
X5111917Y8203433D1*
X5116027Y8229380D1*
X5124143Y8254360D1*
X5136067Y8277767D1*
X5151507Y8299017D1*
X5202857Y8351097D1*
X5636650Y8784890D1*
X5623900Y8784900D1*
Y9449700D1*
X5963393D1*
X5963400Y9493200D1*
X5998440D1*
X5998917Y9630433D1*
X6003027Y9656380D1*
X6011143Y9681360D1*
X6023067Y9704767D1*
X6038507Y9726017D1*
X6089857Y9778097D1*
X6807543Y10495783D1*
X6780473Y10515243D1*
X6759127Y10536593D1*
X6741380Y10561017D1*
X6727673Y10587917D1*
X6718343Y10616630D1*
X6717203Y10622360D1*
X6294900Y10622400D1*
Y10652517D1*
X6222667Y10652917D1*
X6196720Y10657023D1*
X6171740Y10665143D1*
X6148333Y10677067D1*
X6127083Y10692507D1*
X6075003Y10743857D1*
X5889507Y10930083D1*
X5874067Y10951333D1*
X5862143Y10974740D1*
X5854023Y10999720D1*
X5849917Y11025667D1*
X5849400Y11098800D1*
Y11152353D1*
X5835570Y11175457D1*
X5823357Y11204947D1*
X5815903Y11235980D1*
X5813403Y11267863D1*
X5814027Y11446760D1*
X5819020Y11478283D1*
X5828883Y11508637D1*
X5843373Y11537077D1*
X5862133Y11562897D1*
X5884703Y11585467D1*
X5910523Y11604227D1*
X5938963Y11618717D1*
X5969317Y11628580D1*
X6000840Y11633573D1*
X6032760D1*
X6064283Y11628580D1*
X6094637Y11618717D1*
X6123077Y11604227D1*
X6148897Y11585467D1*
X6171467Y11562897D1*
X6190227Y11537077D1*
X6204717Y11508637D1*
X6214580Y11478283D1*
X6219573Y11446760D1*
X6220200Y11370800D1*
X6219573Y11251840D1*
X6214580Y11220317D1*
X6204717Y11189963D1*
X6190227Y11161523D1*
X6184160Y11152447D1*
X6184200Y11108010D1*
X6294850Y10997490D1*
X6294900Y11307200D1*
X6719700Y11306613D1*
X6737303Y11316953D1*
X6761570Y11327007D1*
X6787113Y11333140D1*
X6787980Y11333243D1*
X6789400Y11340900D1*
Y11705700D1*
X7194200D1*
Y11339020D1*
X7214777Y11329977D1*
X7240517Y11314200D1*
X7263473Y11294593D1*
X7283083Y11271637D1*
X7298857Y11245893D1*
X7310410Y11218000D1*
X7317460Y11188643D1*
X7319827Y11158547D1*
X7317460Y11128447D1*
X7310410Y11099090D1*
X7301007Y11075860D1*
X7427403Y11075947D1*
X7427400Y11104200D1*
X7662830D1*
X7662900Y11629700D1*
X7905830D1*
X7905900Y11634200D1*
X8570700D1*
Y11613927D1*
X8803170Y11846410D1*
X7733167Y11846917D1*
X7707220Y11851023D1*
X7682240Y11859143D1*
X7658833Y11871067D1*
X7637583Y11886507D1*
X7585503Y11937857D1*
X7164470Y12358890D1*
X5393603Y12358900D1*
X5393700Y12323900D1*
X4655630D1*
X4655700Y12042400D1*
X4610583D1*
X4610700Y11964137D1*
X4613107Y11945397D1*
X4613700Y11870300D1*
Y11710300D1*
X4611330Y11680203D1*
X4604283Y11650847D1*
X4592730Y11622953D1*
X4588663Y11615693D1*
X4588700Y11522293D1*
X4622667Y11522207D1*
Y11030603D1*
X4641667Y11030707D1*
Y10345907D1*
X4503033D1*
X3703670Y9546430D1*
X3683697Y9529370D1*
X3661297Y9515647D1*
X3637030Y9505593D1*
X3611487Y9499460D1*
X3585300Y9497400D1*
X1895340D1*
X1904743Y9473653D1*
X1912197Y9442620D1*
X1914700Y9410800D1*
X1912197Y9378980D1*
X1904743Y9347947D1*
X1892530Y9318457D1*
X1875853Y9291243D1*
X1855127Y9266973D1*
X1830857Y9246247D1*
X1803643Y9229570D1*
X1774153Y9217357D1*
X1743120Y9209903D1*
X1711300Y9207400D1*
X1548300D1*
X1516480Y9209903D1*
X1485447Y9217357D1*
X1455957Y9229570D1*
X1428743Y9246247D1*
X1404473Y9266973D1*
X1383747Y9291243D1*
X1367070Y9318457D1*
X1354857Y9347947D1*
X1347403Y9378980D1*
X1344900Y9410800D1*
X1347403Y9442620D1*
X1354857Y9473653D1*
X1367070Y9503143D1*
X1383747Y9530357D1*
X1389500Y9537657D1*
X1374873Y9558523D1*
X1360383Y9586963D1*
X1350520Y9617317D1*
X1345527Y9648840D1*
Y9680760D1*
X1350520Y9712283D1*
X1360383Y9742637D1*
X1374873Y9771077D1*
X1393633Y9796897D1*
X1416203Y9819467D1*
X1442023Y9838227D1*
X1470463Y9852717D1*
X1500817Y9862580D1*
X1532340Y9867573D1*
X1608300Y9868200D1*
X1727260Y9867573D1*
X1758783Y9862580D1*
X1789137Y9852717D1*
X1817577Y9838227D1*
X1826653Y9832160D1*
X3515933Y9832200D1*
X4216933Y10533173D1*
X4216867Y10664460D1*
X4056703Y10664500D1*
X4056620Y10558633D1*
X3724083D1*
Y10661877D1*
X3571327Y10661960D1*
X3571433Y10378403D1*
X3253037D1*
X3252933Y10361903D1*
X2828133D1*
Y10647957D1*
X1740133Y11068703D2*
X2114933D1*
Y11057803D1*
X2349977Y11057900D1*
X2350083Y11159373D1*
X2682620D1*
Y11060350D1*
X2812617Y11060440D1*
X2812633Y11538203D1*
X2847673D1*
X2847633Y11610453D1*
X2836753Y11626270D1*
X2823047Y11653173D1*
X2813717Y11681887D1*
X2808993Y11711703D1*
X2808400Y11786800D1*
Y11946800D1*
X2810770Y11976897D1*
X2817817Y12006253D1*
X2829370Y12034147D1*
X2833437Y12041407D1*
X2833400Y12051840D1*
X2795133Y12051903D1*
Y12736703D1*
X3219933D1*
Y12720180D1*
X3294563Y12720203D1*
X3294633Y12729203D1*
X3533110D1*
X3533133Y12738203D1*
X3957933D1*
Y12723790D1*
X4230937Y12723703D1*
X4230900Y12727200D1*
X4475470D1*
X4475400Y12728700D1*
X5393700D1*
Y12693660D1*
X7246933Y12693183D1*
X7272880Y12689073D1*
X7297860Y12680957D1*
X7321267Y12669033D1*
X7342517Y12653593D1*
X7394597Y12602243D1*
X7815630Y12181210D1*
X8917353Y12181200D1*
X8915527Y12207237D1*
X8917957Y12238117D1*
X8925187Y12268237D1*
X8937040Y12296853D1*
X8953227Y12323267D1*
X8973343Y12346820D1*
X8996897Y12366937D1*
X9023307Y12383120D1*
X9051927Y12394973D1*
X9082047Y12402207D1*
X9112987Y12404633D1*
X9338413Y12404027D1*
X9369007Y12399183D1*
X9398467Y12389610D1*
X9426067Y12375547D1*
X9451127Y12357340D1*
X9473030Y12335437D1*
X9491237Y12310377D1*
X9505300Y12282777D1*
X9514873Y12253320D1*
X9519717Y12222723D1*
Y12191750D1*
X9514873Y12161153D1*
X9505300Y12131693D1*
X9491237Y12104097D1*
X9473030Y12079037D1*
X9451127Y12057133D1*
X9426067Y12038927D1*
X9398467Y12024863D1*
X9385233Y12019980D1*
X9385280Y11918293D1*
X9411927Y11909553D1*
X9427553Y11902163D1*
X10172933Y11901683D1*
X10198880Y11897573D1*
X10223860Y11889457D1*
X10247267Y11877533D1*
X10268517Y11862093D1*
X10320597Y11810743D1*
X10979283Y11152057D1*
X14188930Y11152093D1*
X14188953Y11167093D1*
X14593753D1*
Y10638227D1*
X14597700Y10638200D1*
Y10120190D1*
X14846700Y10120200D1*
Y10096177D1*
X14991273Y10096093D1*
X14988073Y10119043D1*
Y10149233D1*
X14992797Y10179053D1*
X15002127Y10207767D1*
X15015833Y10234667D1*
X15033580Y10259093D1*
X15054927Y10280440D1*
X15079353Y10298187D1*
X15106253Y10311893D1*
X15109850Y10313220D1*
X15109900Y10729200D1*
X15132987D1*
X15133417Y10762433D1*
X15137523Y10788380D1*
X15145643Y10813360D1*
X15157567Y10836767D1*
X15173007Y10858017D1*
X15224357Y10910097D1*
X15716583Y11401593D1*
X15737833Y11417033D1*
X15761240Y11428957D1*
X15786220Y11437077D1*
X15812167Y11441183D1*
X15885300Y11441700D1*
X16365417D1*
X16365400Y11486700D1*
X16942003D1*
X16941900Y11528907D1*
X16890837Y11580027D1*
X16867703Y11580493D1*
X16837887Y11585217D1*
X16809173Y11594547D1*
X16782270Y11608253D1*
X16757847Y11625997D1*
X16736497Y11647347D1*
X16718753Y11671770D1*
X16705047Y11698673D1*
X16695717Y11727387D1*
X16690993Y11757203D1*
X16690400Y11832300D1*
X16690993Y11907397D1*
X16695717Y11937213D1*
X16705047Y11965927D1*
X16715437Y11986907D1*
X16715400Y12045933D1*
X16383400Y12045900D1*
Y12091017D1*
X15522557Y12090900D1*
X14642447Y11211507D1*
X14621197Y11196067D1*
X14597790Y11184143D1*
X14572810Y11176027D1*
X14546863Y11171917D1*
X14473730Y11171400D1*
X11480167Y11171917D1*
X11454220Y11176027D1*
X11429240Y11184143D1*
X11405833Y11196067D1*
X11384583Y11211507D1*
X11332503Y11262857D1*
X10866507Y11729583D1*
X10851067Y11750833D1*
X10839143Y11774240D1*
X10831027Y11799220D1*
X10826917Y11825167D1*
X10826400Y11898300D1*
Y12517400D1*
X10608857Y12735003D1*
X10591440Y12722990D1*
X10563843Y12708927D1*
X10534383Y12699353D1*
X10503787Y12694510D1*
X10428300Y12693900D1*
X10278300D1*
X10247420Y12696330D1*
X10217300Y12703560D1*
X10188683Y12715417D1*
X10171483Y12725443D1*
X10139573Y12725400D1*
X10118427Y12715047D1*
X10089713Y12705717D1*
X10059897Y12700993D1*
X9984800Y12700400D1*
X9824800D1*
X9794703Y12702770D1*
X9765347Y12709817D1*
X9737453Y12721370D1*
X9732870Y12723937D1*
X9614200Y12723900D1*
X9477530Y12588020D1*
X9462510Y12575730D1*
X9438953Y12555613D1*
X9412543Y12539427D1*
X9383927Y12527573D1*
X9353807Y12520343D1*
X9322927Y12517913D1*
X9112927D1*
X9082047Y12520343D1*
X9067260Y12523283D1*
X9067200Y12509400D1*
X8382400D1*
Y12554517D1*
X8329917Y12554400D1*
X8305300Y12544560D1*
X8275180Y12537330D1*
X8244300Y12534900D1*
X8034300D1*
X8003420Y12537330D1*
X7973300Y12544560D1*
X7944683Y12556417D1*
X7918270Y12572600D1*
X7894717Y12592717D1*
X7874600Y12616270D1*
X7858417Y12642683D1*
X7846560Y12671300D1*
X7839330Y12701420D1*
X7836900Y12732300D1*
X7839330Y12763180D1*
X7846560Y12793300D1*
X7858417Y12821917D1*
X7874600Y12848330D1*
X7894717Y12871883D1*
X7918270Y12892000D1*
X7944683Y12908183D1*
X7973300Y12920040D1*
X8003420Y12927270D1*
X8034360Y12929697D1*
X8259787Y12929090D1*
X8290383Y12924247D1*
X8319843Y12914673D1*
X8347440Y12900610D1*
X8363893Y12889190D1*
X8382400Y12899400D1*
Y12934200D1*
X9067200D1*
Y12907363D1*
X9097437Y12912103D1*
X9172927Y12912713D1*
X9329280Y12912463D1*
X9436083Y13018593D1*
X9457333Y13034033D1*
X9480740Y13045957D1*
X9505720Y13054073D1*
X9531667Y13058183D1*
X9604800Y13058700D1*
X9727260D1*
X9751173Y13070553D1*
X9779887Y13079883D1*
X9809703Y13084607D1*
X9884800Y13085200D1*
X10044800D1*
X10074897Y13082830D1*
X10104253Y13075783D1*
X10132147Y13064230D1*
X10139407Y13060163D1*
X10156167Y13060200D1*
X10156137Y13289407D1*
X1032300Y13297800D1*
Y10996353D1*
X1044217Y11009383D1*
X1067770Y11029500D1*
X1075170Y11034443D1*
X1075137Y11385963D1*
X1488513D1*
Y11068737D1*
X1834933Y11068587D1*
X13944360Y7713403D2*
X13913420Y7715830D1*
X13904690Y7717567D1*
X13869213Y7681973D1*
X13869200Y7503900D1*
X13184400D1*
Y7552533D1*
X13125603Y7552400D1*
X13136040Y7526800D1*
X13143270Y7496680D1*
X13145700Y7465800D1*
X13143270Y7434920D1*
X13136040Y7404800D1*
X13130650Y7390203D1*
X13387200Y7390200D1*
Y7345083D1*
X14209603Y7345200D1*
X14502907Y7638647D1*
X14503417Y9053933D1*
X14507523Y9079880D1*
X14515643Y9104860D1*
X14527567Y9128267D1*
X14543007Y9149517D1*
X14594357Y9201597D1*
X14765583Y9372093D1*
X14786833Y9387533D1*
X14810240Y9399457D1*
X14811057Y9399760D1*
X14814900Y9427900D1*
Y9442700D1*
X15120407D1*
X15118427Y9454157D1*
X15090533Y9465710D1*
X15064790Y9481483D1*
X15041833Y9501093D1*
X15022227Y9524050D1*
X15006450Y9549790D1*
X14994897Y9577683D1*
X14987850Y9607040D1*
X14985480Y9637140D1*
X14987850Y9667237D1*
X14993407Y9691313D1*
X14660453Y9691293D1*
Y9715317D1*
X14596270Y9715400D1*
X14596200Y9706400D1*
X14171400D1*
Y9707923D1*
X13937400Y9707900D1*
Y10112700D1*
X14172830D1*
X14172900Y10638200D1*
X14188957D1*
X14188953Y10817410D1*
X10909907Y10817293D1*
X10883720Y10819353D1*
X10858177Y10825487D1*
X10833910Y10835540D1*
X10811510Y10849263D1*
X10791537Y10866323D1*
X10090423Y11567437D1*
X9847027Y11567400D1*
X9855953Y11552150D1*
X9866007Y11527883D1*
X9872140Y11502340D1*
X9874200Y11476153D1*
Y11313147D1*
X9901417Y11301683D1*
X9927830Y11285500D1*
X9951383Y11265383D1*
X9971500Y11241830D1*
X9987683Y11215417D1*
X9999540Y11186800D1*
X10006770Y11156680D1*
X10009200Y11125800D1*
X10006770Y11094920D1*
X9999540Y11064800D1*
X9989080Y11039207D1*
X10465933Y11038683D1*
X10491880Y11034577D1*
X10516860Y11026457D1*
X10540267Y11014533D1*
X10561517Y10999093D1*
X10613597Y10947743D1*
X11064093Y10496517D1*
X11079533Y10475267D1*
X11091457Y10451860D1*
X11099577Y10426880D1*
X11103683Y10400933D1*
X11104200Y10327800D1*
Y9987603D1*
X11140800Y9986700D1*
X11951933Y9986183D1*
X11977880Y9982073D1*
X12002860Y9973957D1*
X12026267Y9962033D1*
X12047517Y9946593D1*
X12099597Y9895243D1*
X12137133Y9857707D1*
X12531200Y9857700D1*
Y9571177D1*
X12787200Y9571200D1*
Y9296630D1*
X13038700Y9296700D1*
Y8871900D1*
X13034130D1*
X13034200Y8607900D1*
X13029630D1*
X13029700Y8407740D1*
X13051440Y8396110D1*
X13076500Y8377903D1*
X13098403Y8356000D1*
X13116610Y8330940D1*
X13130673Y8303343D1*
X13140247Y8273883D1*
X13145090Y8243287D1*
Y8212313D1*
X13140247Y8181717D1*
X13130673Y8152257D1*
X13116610Y8124660D1*
X13099417Y8100883D1*
X13116610Y8076940D1*
X13130673Y8049343D1*
X13140247Y8019883D1*
X13145090Y7989287D1*
Y7958313D1*
X13140247Y7927717D1*
X13130673Y7898257D1*
X13125580Y7887207D1*
X13184433Y7887200D1*
X13184400Y7928700D1*
X13642407D1*
X13752583Y8038093D1*
X13773833Y8053533D1*
X13797240Y8065457D1*
X13822220Y8073573D1*
X13835980Y8076243D1*
X13868757Y8093173D1*
X13898217Y8102747D1*
X13928813Y8107590D1*
X14004300Y8108200D1*
X14169787Y8107590D1*
X14200383Y8102747D1*
X14229843Y8093173D1*
X14257440Y8079110D1*
X14282500Y8060903D1*
X14304403Y8039000D1*
X14322610Y8013940D1*
X14336673Y7986343D1*
X14346247Y7956883D1*
X14351090Y7926287D1*
Y7895313D1*
X14346247Y7864717D1*
X14336673Y7835257D1*
X14322610Y7807660D1*
X14304403Y7782600D1*
X14282500Y7760697D1*
X14257440Y7742490D1*
X14229843Y7728427D1*
X14200383Y7718853D1*
X14169787Y7714010D1*
X14094300Y7713400D1*
X13944300Y7713517D1*
X6306193Y8949247D2*
X6297353Y8976717D1*
X6292510Y9007313D1*
Y9038287D1*
X6297247Y9068347D1*
X6028707Y9068400D1*
X6028700Y8784900D1*
X5993660D1*
X5993183Y8724667D1*
X5989077Y8698720D1*
X5980957Y8673740D1*
X5969033Y8650333D1*
X5953593Y8629083D1*
X5902243Y8577003D1*
X5446243Y8121003D1*
X5446483Y7931777D1*
X5458037Y7903883D1*
X5465087Y7874527D1*
X5467457Y7844427D1*
X5466860Y7609333D1*
X5462137Y7579513D1*
X5452810Y7550800D1*
X5439103Y7523900D1*
X5421357Y7499473D1*
X5400007Y7478127D1*
X5375583Y7460380D1*
X5348683Y7446673D1*
X5319970Y7437343D1*
X5295717Y7433280D1*
X5295700Y7028400D1*
X5291130D1*
X5291200Y6902770D1*
X5307700Y6902700D1*
Y6477900D1*
X5294223D1*
X5294200Y6183900D1*
X4889400D1*
Y6491517D1*
X4779083Y6491400D1*
X4779200Y5987400D1*
X4744160D1*
X4743683Y5903167D1*
X4739573Y5877220D1*
X4731457Y5852240D1*
X4719533Y5828833D1*
X4704093Y5807583D1*
X4652743Y5755503D1*
X4477817Y5580577D1*
X4728840Y5580627D1*
X4832583Y5683593D1*
X4853833Y5699033D1*
X4877240Y5710957D1*
X4902220Y5719073D1*
X4928167Y5723183D1*
X5001300Y5723700D1*
X5249933Y5723183D1*
X5275880Y5719073D1*
X5300860Y5710957D1*
X5324267Y5699033D1*
X5345517Y5683593D1*
X5397597Y5632243D1*
X5570203Y5459637D1*
X11180293Y5459700D1*
X11180400Y5494700D1*
X11495517D1*
X11495400Y5651010D1*
X11469900Y5650900D1*
Y6335700D1*
X11693377D1*
X11693400Y6357700D1*
X12118200D1*
Y6348677D1*
X12163017Y6348700D1*
X12162900Y6356200D1*
X12587700D1*
Y6344130D1*
X12814200Y6344200D1*
Y6177207D1*
X12822970Y6203577D1*
X12836677Y6230477D1*
X12854423Y6254900D1*
X12875773Y6276250D1*
X12900197Y6293997D1*
X12927097Y6307703D1*
X12955810Y6317030D1*
X12985630Y6321753D1*
X13017400Y6324020D1*
X13017200Y6965400D1*
X12702400D1*
Y7149033D1*
X12694147Y7163303D1*
X12684093Y7187570D1*
X12677960Y7213113D1*
X12675900Y7239300D1*
Y7278557D1*
X12648683Y7289917D1*
X12622270Y7306100D1*
X12598717Y7326217D1*
X12578600Y7349770D1*
X12562417Y7376183D1*
X12550560Y7404800D1*
X12543330Y7434920D1*
X12540900Y7465800D1*
X12543330Y7496680D1*
X12550560Y7526800D1*
X12562417Y7555417D1*
X12578600Y7581830D1*
X12587183Y7592717D1*
X12569990Y7616660D1*
X12555927Y7644257D1*
X12546353Y7673717D1*
X12541510Y7704313D1*
Y7735287D1*
X12546353Y7765883D1*
X12555927Y7795343D1*
X12569990Y7822940D1*
X12587183Y7846717D1*
X12569990Y7870660D1*
X12555927Y7898257D1*
X12546353Y7927717D1*
X12541510Y7958313D1*
Y7989287D1*
X12546353Y8019883D1*
X12555927Y8049343D1*
X12569990Y8076940D1*
X12587183Y8100717D1*
X12569990Y8124660D1*
X12555927Y8152257D1*
X12546353Y8181717D1*
X12541510Y8212313D1*
Y8243287D1*
X12546353Y8273883D1*
X12555927Y8303343D1*
X12569990Y8330940D1*
X12588197Y8356000D1*
X12610100Y8377903D1*
X12624940Y8389283D1*
X12624900Y8785200D1*
X12629470D1*
X12629400Y8886453D1*
X12362400Y8886400D1*
Y9192843D1*
X12126400Y9192900D1*
Y9497470D1*
X12080167Y9497917D1*
X12054220Y9502027D1*
X12029240Y9510143D1*
X12005833Y9522067D1*
X11984583Y9537507D1*
X11932503Y9588857D1*
X11869443Y9651917D1*
X11105713Y9651900D1*
X11084427Y9641547D1*
X11055713Y9632217D1*
X11025897Y9627493D1*
X10950800Y9626900D1*
X10790800D1*
X10760703Y9629270D1*
X10731347Y9636317D1*
X10703453Y9647870D1*
X10701547Y9648937D1*
X8891167Y9649417D1*
X8865220Y9653527D1*
X8840240Y9661643D1*
X8816833Y9673567D1*
X8795583Y9689007D1*
X8743503Y9740357D1*
X8689393Y9794467D1*
X8113213Y9794400D1*
X8113200Y9759400D1*
X7869803D1*
X7869700Y9526083D1*
X7874200Y9526200D1*
Y9251630D1*
X7880200Y9251700D1*
Y8826900D1*
X7649927D1*
X7656270Y8799680D1*
X7658700Y8768800D1*
X7656270Y8737920D1*
X7652243Y8719163D1*
X8223200Y8719200D1*
Y8702443D1*
X8311907Y8791147D1*
X8305830Y8817420D1*
X8303400Y8848300D1*
X8305830Y8879180D1*
X8313060Y8909300D1*
X8324917Y8937917D1*
X8341100Y8964330D1*
X8361217Y8987883D1*
X8384770Y9008000D1*
X8411183Y9024183D1*
X8439800Y9036040D1*
X8469920Y9043270D1*
X8500800Y9045700D1*
X8710800D1*
X8741680Y9043270D1*
X8771800Y9036040D1*
X8800417Y9024183D1*
X8826830Y9008000D1*
X8850383Y8987883D1*
X8870500Y8964330D1*
X8886683Y8937917D1*
X8898540Y8909300D1*
X8905770Y8879180D1*
X8908200Y8848300D1*
X8905770Y8817420D1*
X8898540Y8787300D1*
X8886683Y8758683D1*
X8870500Y8732270D1*
X8850383Y8708717D1*
X8826830Y8688600D1*
X8800417Y8672417D1*
X8771800Y8660560D1*
X8741680Y8653330D1*
X8710800Y8650900D1*
X8645057D1*
X8373017Y8379507D1*
X8351767Y8364067D1*
X8328360Y8352143D1*
X8303380Y8344027D1*
X8277433Y8339917D1*
X8223167Y8339400D1*
X8223200Y8294400D1*
X7655740D1*
X7658090Y8276287D1*
Y8245313D1*
X7653247Y8214717D1*
X7643673Y8185257D1*
X7629610Y8157660D1*
X7611403Y8132600D1*
X7589500Y8110697D1*
X7585173Y8107283D1*
X7585457Y7943030D1*
X7614947Y7955243D1*
X7645980Y7962697D1*
X7677800Y7965200D1*
X7709620Y7962697D1*
X7740653Y7955243D1*
X7770143Y7943030D1*
X7797357Y7926353D1*
X7821627Y7905627D1*
X7842353Y7881357D1*
X7859030Y7854143D1*
X7871243Y7824653D1*
X7878697Y7793620D1*
X7881200Y7761800D1*
Y7598800D1*
X7878697Y7566980D1*
X7871243Y7535947D1*
X7859030Y7506457D1*
X7842353Y7479243D1*
X7821627Y7454973D1*
X7797357Y7434247D1*
X7770143Y7417570D1*
X7740653Y7405357D1*
X7709620Y7397903D1*
X7677800Y7395400D1*
X7645980Y7397903D1*
X7614947Y7405357D1*
X7585457Y7417570D1*
X7558243Y7434247D1*
X7533973Y7454973D1*
X7513247Y7479243D1*
X7496570Y7506457D1*
X7490380Y7519887D1*
X7160400Y7519900D1*
Y8085487D1*
X7135270Y8101100D1*
X7111717Y8121217D1*
X7091600Y8144770D1*
X7075417Y8171183D1*
X7063560Y8199800D1*
X7056330Y8229920D1*
X7053900Y8260800D1*
X7056330Y8291680D1*
X7063560Y8321800D1*
X7075417Y8350417D1*
X7091600Y8376830D1*
X7100183Y8387717D1*
X7082990Y8411660D1*
X7068927Y8439257D1*
X7059353Y8468717D1*
X7054510Y8499313D1*
Y8530287D1*
X7059353Y8560883D1*
X7068927Y8590343D1*
X7082990Y8617940D1*
X7100183Y8641717D1*
X7082990Y8665660D1*
X7068927Y8693257D1*
X7059353Y8722717D1*
X7054510Y8753313D1*
Y8784287D1*
X7059353Y8814883D1*
X7068927Y8844343D1*
X7082990Y8871940D1*
X7100183Y8895717D1*
X7082990Y8919660D1*
X7068927Y8947257D1*
X7059353Y8976717D1*
X7054510Y9007313D1*
Y9038287D1*
X7059353Y9068883D1*
X7068927Y9098343D1*
X7082990Y9125940D1*
X7101197Y9151000D1*
X7123100Y9172903D1*
X7148160Y9191110D1*
X7175757Y9205173D1*
X7205217Y9214747D1*
X7235813Y9219590D1*
X7311300Y9220200D1*
X7469347Y9219883D1*
X7469400Y9371517D1*
X7464900Y9371400D1*
Y9406907D1*
X7205400Y9406900D1*
Y10091700D1*
X7367940D1*
X7399083Y10122093D1*
X7420333Y10137533D1*
X7443740Y10149457D1*
X7448400Y10164200D1*
X8113200D1*
Y10129160D1*
X8771933Y10128683D1*
X8797880Y10124573D1*
X8822860Y10116457D1*
X8846267Y10104533D1*
X8867517Y10089093D1*
X8919597Y10037743D1*
X8973707Y9983633D1*
X10690823Y9983700D1*
X10717173Y9997053D1*
X10745887Y10006383D1*
X10769433Y10010363D1*
X10769400Y10318543D1*
X10383477Y10704383D1*
X9989090Y10704400D1*
X9999540Y10678800D1*
X10006770Y10648680D1*
X10009200Y10617800D1*
X10006770Y10586920D1*
X9999540Y10556800D1*
X9987683Y10528183D1*
X9971500Y10501770D1*
X9951383Y10478217D1*
X9927830Y10458100D1*
X9901417Y10441917D1*
X9874220Y10430587D1*
X9887917Y10418183D1*
X9914330Y10402000D1*
X9937883Y10381883D1*
X9958000Y10358330D1*
X9974183Y10331917D1*
X9986040Y10303300D1*
X9993270Y10273180D1*
X9995700Y10242300D1*
X9993270Y10211420D1*
X9986040Y10181300D1*
X9974183Y10152683D1*
X9958000Y10126270D1*
X9937883Y10102717D1*
X9914330Y10082600D1*
X9887917Y10066417D1*
X9859300Y10054560D1*
X9829180Y10047330D1*
X9798300Y10044900D1*
X9588300D1*
X9557420Y10047330D1*
X9527300Y10054560D1*
X9498683Y10066417D1*
X9472270Y10082600D1*
X9448717Y10102717D1*
X9428600Y10126270D1*
X9412417Y10152683D1*
X9400560Y10181300D1*
X9393330Y10211420D1*
X9390900Y10242300D1*
X9393330Y10273180D1*
X9400560Y10303300D1*
X9412417Y10331917D1*
X9428600Y10358330D1*
X9448717Y10381883D1*
X9472270Y10402000D1*
X9498683Y10418183D1*
X9527300Y10430040D1*
X9534700Y10432127D1*
X9512183Y10441917D1*
X9485770Y10458100D1*
X9462217Y10478217D1*
X9442100Y10501770D1*
X9425917Y10528183D1*
X9414060Y10556800D1*
X9406830Y10586920D1*
X9404400Y10617800D1*
X9406830Y10648680D1*
X9414060Y10678800D1*
X9425917Y10707417D1*
X9442100Y10733830D1*
X9450683Y10744717D1*
X9433490Y10768660D1*
X9419427Y10796257D1*
X9409853Y10825717D1*
X9405010Y10856313D1*
Y10887287D1*
X9409853Y10917883D1*
X9419427Y10947343D1*
X9433490Y10974940D1*
X9450683Y10998717D1*
X9433490Y11022660D1*
X9419427Y11050257D1*
X9409853Y11079717D1*
X9405010Y11110313D1*
Y11141287D1*
X9409853Y11171883D1*
X9419427Y11201343D1*
X9433490Y11228940D1*
X9451697Y11254000D1*
X9473600Y11275903D1*
X9498660Y11294110D1*
X9526257Y11308173D1*
X9539380Y11313013D1*
X9539400Y11406933D1*
X9397430Y11548787D1*
X9368397Y11541770D1*
X9338300Y11539400D1*
X9118300D1*
X9088203Y11541770D1*
X9058847Y11548817D1*
X9030953Y11560370D1*
X9005847Y11575720D1*
X8734017Y11304507D1*
X8712767Y11289067D1*
X8689360Y11277143D1*
X8664380Y11269023D1*
X8638433Y11264917D1*
X8570807Y11264400D1*
X8570700Y11229400D1*
X8087770D1*
X8087700Y11111690D1*
X8150377Y11111700D1*
X8150400Y11120700D1*
X8575200D1*
Y10715900D1*
X8336723D1*
X8336700Y10706900D1*
X8086270D1*
X8086200Y10697900D1*
X7661400D1*
Y10699423D1*
X7427400Y10699400D1*
Y10741237D1*
X7300490Y10741147D1*
X7308410Y10721000D1*
X7315460Y10691643D1*
X7317827Y10661547D1*
X7315460Y10631447D1*
X7308410Y10602090D1*
X7296857Y10574197D1*
X7281083Y10548457D1*
X7261473Y10525500D1*
X7238517Y10505890D1*
X7212777Y10490117D1*
X7184883Y10478563D1*
X7155527Y10471513D1*
X7142690Y10469997D1*
X7142183Y10413667D1*
X7138073Y10387720D1*
X7129957Y10362740D1*
X7118033Y10339333D1*
X7102593Y10318083D1*
X7051243Y10266003D1*
X6333227Y9547987D1*
X6333400Y9493200D1*
X6648200D1*
Y9315193D1*
X6721593Y9241017D1*
X6737033Y9219767D1*
X6745383Y9214747D1*
X6774843Y9205173D1*
X6802440Y9191110D1*
X6827500Y9172903D1*
X6849403Y9151000D1*
X6867610Y9125940D1*
X6881673Y9098343D1*
X6891247Y9068883D1*
X6896090Y9038287D1*
Y9007313D1*
X6891247Y8976717D1*
X6881673Y8947257D1*
X6867610Y8919660D1*
X6850417Y8895883D1*
X6867610Y8871940D1*
X6881673Y8844343D1*
X6891247Y8814883D1*
X6896090Y8784287D1*
Y8753313D1*
X6891247Y8722717D1*
X6881673Y8693257D1*
X6867610Y8665660D1*
X6849403Y8640600D1*
X6827500Y8618697D1*
X6802440Y8600490D1*
X6774843Y8586427D1*
X6745383Y8576853D1*
X6714787Y8572010D1*
X6639300Y8571400D1*
X6489300D1*
X6461727Y8573440D1*
X6461700Y8544400D1*
X6036900D1*
Y8949200D1*
X6306080D1*
X6489360Y8063403D2*
X6458420Y8065830D1*
X6428300Y8073060D1*
X6399683Y8084917D1*
X6373270Y8101100D1*
X6349717Y8121217D1*
X6329600Y8144770D1*
X6313417Y8171183D1*
X6301560Y8199800D1*
X6294330Y8229920D1*
X6291900Y8260800D1*
X6294330Y8291680D1*
X6301560Y8321800D1*
X6313417Y8350417D1*
X6329600Y8376830D1*
X6349717Y8400383D1*
X6373270Y8420500D1*
X6399683Y8436683D1*
X6428300Y8448540D1*
X6458420Y8455770D1*
X6489360Y8458197D1*
X6714787Y8457590D1*
X6745383Y8452747D1*
X6774843Y8443173D1*
X6802440Y8429110D1*
X6827500Y8410903D1*
X6849403Y8389000D1*
X6867610Y8363940D1*
X6881673Y8336343D1*
X6891247Y8306883D1*
X6896090Y8276287D1*
Y8245313D1*
X6891247Y8214717D1*
X6881673Y8185257D1*
X6867610Y8157660D1*
X6849403Y8132600D1*
X6827500Y8110697D1*
X6802440Y8092490D1*
X6774843Y8078427D1*
X6745383Y8068853D1*
X6714787Y8064010D1*
X6639300Y8063400D1*
X6489300Y8063517D1*
X6458403Y7761737D2*
X6460903Y7793620D1*
X6468357Y7824653D1*
X6480570Y7854143D1*
X6497247Y7881357D1*
X6517973Y7905627D1*
X6542243Y7926353D1*
X6569457Y7943030D1*
X6598947Y7955243D1*
X6629980Y7962697D1*
X6661800Y7965200D1*
X6693620Y7962697D1*
X6724653Y7955243D1*
X6754143Y7943030D1*
X6781357Y7926353D1*
X6805627Y7905627D1*
X6826353Y7881357D1*
X6843030Y7854143D1*
X6855243Y7824653D1*
X6862697Y7793620D1*
X6865200Y7761800D1*
X6865023Y7586817D1*
X7533983Y6917857D1*
X7534417Y6967433D1*
X7538527Y6993380D1*
X7546643Y7018360D1*
X7558567Y7041767D1*
X7574007Y7063017D1*
X7625357Y7115097D1*
X7885083Y7374093D1*
X7906333Y7389533D1*
X7907400Y7404400D1*
Y7729200D1*
X8332200D1*
Y7694160D1*
X8354600Y7706330D1*
X8374717Y7729883D1*
X8398270Y7750000D1*
X8424683Y7766183D1*
X8453300Y7778040D1*
X8483420Y7785270D1*
X8514300Y7787700D1*
X8724300D1*
X8755180Y7785270D1*
X8785300Y7778040D1*
X8813917Y7766183D1*
X8840330Y7750000D1*
X8863883Y7729883D1*
X8884000Y7706330D1*
X8900183Y7679917D1*
X8912040Y7651300D1*
X8919270Y7621180D1*
X8921700Y7590300D1*
X8919270Y7559420D1*
X8912040Y7529300D1*
X8900183Y7500683D1*
X8884000Y7474270D1*
X8863883Y7450717D1*
X8840330Y7430600D1*
X8813917Y7414417D1*
X8785300Y7402560D1*
X8755180Y7395330D1*
X8724300Y7392900D1*
X8656213D1*
X8643267Y7384067D1*
X8619860Y7372143D1*
X8594880Y7364027D1*
X8568933Y7359917D1*
X8465800Y7359400D1*
X8332200Y7359200D1*
Y7044400D1*
X8028100D1*
X7868633Y6884893D1*
X7868700Y6689103D1*
X7875580Y6666283D1*
X7880573Y6634760D1*
X7881200Y6558800D1*
Y6455800D1*
X7878697Y6423980D1*
X7871243Y6392947D1*
X7859030Y6363457D1*
X7842353Y6336243D1*
X7821627Y6311973D1*
X7797357Y6291247D1*
X7770143Y6274570D1*
X7740653Y6262357D1*
X7709620Y6254903D1*
X7677800Y6252400D1*
X7645980Y6254903D1*
X7614947Y6262357D1*
X7585457Y6274570D1*
X7558243Y6291247D1*
X7533973Y6311973D1*
X7513247Y6336243D1*
X7496570Y6363457D1*
X7484357Y6392947D1*
X7476903Y6423980D1*
X7474400Y6455800D1*
Y6503963D1*
X6548397Y7429963D1*
X6529703Y7444133D1*
X6507133Y7466703D1*
X6488373Y7492523D1*
X6473883Y7520963D1*
X6464020Y7551317D1*
X6459027Y7582840D1*
X6458400Y7658800D1*
Y7761343D1*
X9105900Y8890700D2*
X9500700D1*
Y8485900D1*
X9455583D1*
X9455700Y8259980D1*
X9481417Y8249183D1*
X9507830Y8233000D1*
X9531383Y8212883D1*
X9551500Y8189330D1*
X9567683Y8162917D1*
X9576750Y8141853D1*
X9586417Y8164017D1*
X9602600Y8190430D1*
X9622717Y8213983D1*
X9646270Y8234100D1*
X9672683Y8250283D1*
X9701300Y8262140D1*
X9731420Y8269370D1*
X9762300Y8271800D1*
X9972300D1*
X10003180Y8269370D1*
X10033300Y8262140D1*
X10061917Y8250283D1*
X10077300Y8241800D1*
X10268433D1*
X10295757Y8255673D1*
X10308880Y8260513D1*
X10308900Y8439510D1*
X10268400Y8439400D1*
Y8844200D1*
X10693200D1*
Y8439400D1*
X10643630D1*
X10643700Y8260543D1*
X10670917Y8249183D1*
X10697330Y8233000D1*
X10720883Y8212883D1*
X10741000Y8189330D1*
X10757183Y8162917D1*
X10769040Y8134300D1*
X10776270Y8104180D1*
X10778700Y8073300D1*
X10776270Y8042420D1*
X10769040Y8012300D1*
X10757183Y7983683D1*
X10741000Y7957270D1*
X10720883Y7933717D1*
X10697330Y7913600D1*
X10670917Y7897417D1*
X10642300Y7885560D1*
X10612180Y7878330D1*
X10581300Y7875900D1*
X10371300D1*
X10340420Y7878330D1*
X10310300Y7885560D1*
X10281683Y7897417D1*
X10265087Y7907040D1*
X10076880Y7907000D1*
X10061917Y7898517D1*
X10033300Y7886660D1*
X10003180Y7879430D1*
X9972300Y7877000D1*
X9762300D1*
X9731420Y7879430D1*
X9701300Y7886660D1*
X9672683Y7898517D1*
X9646270Y7914700D1*
X9622717Y7934817D1*
X9602600Y7958370D1*
X9586417Y7984783D1*
X9577350Y8005847D1*
X9567683Y7983683D1*
X9551500Y7957270D1*
X9531383Y7933717D1*
X9507830Y7913600D1*
X9481417Y7897417D1*
X9452800Y7885560D1*
X9422680Y7878330D1*
X9391800Y7875900D1*
X9181800D1*
X9150920Y7878330D1*
X9120800Y7885560D1*
X9092183Y7897417D1*
X9077803Y7905560D1*
X8829017Y7905500D1*
X8799843Y7890527D1*
X8770383Y7880953D1*
X8739787Y7876110D1*
X8664300Y7875500D1*
X8514300D1*
X8483420Y7877930D1*
X8453300Y7885160D1*
X8424683Y7897017D1*
X8398270Y7913200D1*
X8374717Y7933317D1*
X8354600Y7956870D1*
X8338417Y7983283D1*
X8326560Y8011900D1*
X8319330Y8042020D1*
X8316900Y8072900D1*
X8319330Y8103780D1*
X8326560Y8133900D1*
X8338417Y8162517D1*
X8354600Y8188930D1*
X8374717Y8212483D1*
X8398270Y8232600D1*
X8424683Y8248783D1*
X8453300Y8260640D1*
X8483420Y8267870D1*
X8514300Y8270300D1*
X8724300D1*
X8755180Y8267870D1*
X8785300Y8260640D1*
X8813917Y8248783D1*
X8829300Y8240300D1*
X9076450D1*
X9106257Y8255673D1*
X9120973Y8261087D1*
X9120900Y8486010D1*
X9075900Y8485900D1*
Y8890700D1*
X9105900D1*
X9086400Y7239200D2*
X9119330D1*
X9119400Y7403433D1*
X9092183Y7414817D1*
X9065770Y7431000D1*
X9042217Y7451117D1*
X9022100Y7474670D1*
X9005917Y7501083D1*
X8994060Y7529700D1*
X8986830Y7559820D1*
X8984400Y7590700D1*
X8986830Y7621580D1*
X8994060Y7651700D1*
X9005917Y7680317D1*
X9022100Y7706730D1*
X9042217Y7730283D1*
X9065770Y7750400D1*
X9092183Y7766583D1*
X9120800Y7778440D1*
X9150920Y7785670D1*
X9181800Y7788100D1*
X9391800D1*
X9422680Y7785670D1*
X9452800Y7778440D1*
X9481417Y7766583D1*
X9496800Y7758100D1*
X9656057D1*
X9672683Y7767683D1*
X9701300Y7779540D1*
X9731420Y7786770D1*
X9762300Y7789200D1*
X9972300D1*
X10003180Y7786770D1*
X10033300Y7779540D1*
X10061917Y7767683D1*
X10088330Y7751500D1*
X10111883Y7731383D1*
X10132000Y7707830D1*
X10148183Y7681417D1*
X10160040Y7652800D1*
X10167270Y7622680D1*
X10169700Y7591800D1*
X10167270Y7560920D1*
X10160040Y7530800D1*
X10148183Y7502183D1*
X10132000Y7475770D1*
X10111883Y7452217D1*
X10088330Y7432100D1*
X10061917Y7415917D1*
X10033300Y7404060D1*
X10003180Y7396830D1*
X9972300Y7394400D1*
X9762300D1*
X9731420Y7396830D1*
X9701300Y7404060D1*
X9672683Y7415917D1*
X9659423Y7423340D1*
X9496473Y7423300D1*
X9467343Y7408327D1*
X9454220Y7403487D1*
X9454200Y7239253D1*
X9481200Y7239200D1*
Y6834400D1*
X9056400D1*
Y7239200D1*
X9086400D1*
X10371360Y7393303D2*
X10340420Y7395730D1*
X10310300Y7402960D1*
X10281683Y7414817D1*
X10255270Y7431000D1*
X10231717Y7451117D1*
X10211600Y7474670D1*
X10195417Y7501083D1*
X10183560Y7529700D1*
X10176330Y7559820D1*
X10173900Y7590700D1*
X10176330Y7621580D1*
X10183560Y7651700D1*
X10195417Y7680317D1*
X10211600Y7706730D1*
X10231717Y7730283D1*
X10255270Y7750400D1*
X10281683Y7766583D1*
X10310300Y7778440D1*
X10340420Y7785670D1*
X10371300Y7788100D1*
X10581300D1*
X10612180Y7785670D1*
X10642300Y7778440D1*
X10670917Y7766583D1*
X10686300Y7758100D1*
X10769387D1*
X10769400Y7765700D1*
X11194200D1*
Y7337693D1*
X11219077Y7324727D1*
X11244897Y7305967D1*
X11261410Y7289950D1*
X11261400Y8058980D1*
X11228400Y8058900D1*
Y8483700D1*
X11913200D1*
Y8438583D1*
X12050933Y8438183D1*
X12076880Y8434073D1*
X12101860Y8425957D1*
X12126300Y8425200D1*
X12201787Y8424590D1*
X12232383Y8419747D1*
X12261843Y8410173D1*
X12289440Y8396110D1*
X12314500Y8377903D1*
X12336403Y8356000D1*
X12354610Y8330940D1*
X12368673Y8303343D1*
X12378247Y8273883D1*
X12383090Y8243287D1*
Y8212313D1*
X12378247Y8181717D1*
X12368673Y8152257D1*
X12354610Y8124660D1*
X12337417Y8100883D1*
X12354610Y8076940D1*
X12368673Y8049343D1*
X12378247Y8019883D1*
X12383090Y7989287D1*
Y7958313D1*
X12378247Y7927717D1*
X12368673Y7898257D1*
X12354610Y7870660D1*
X12336403Y7845600D1*
X12314500Y7823697D1*
X12289440Y7805490D1*
X12261843Y7791427D1*
X12232383Y7781853D1*
X12201787Y7777010D1*
X12126300Y7776400D1*
X11976300D1*
X11945420Y7778830D1*
X11915300Y7786060D1*
X11900703Y7791450D1*
X11900700Y7762900D1*
X11596130D1*
X11596200Y6649800D1*
X11594140Y6623613D1*
X11588007Y6598070D1*
X11577953Y6573803D1*
X11564230Y6551403D1*
X11547170Y6531430D1*
X11280100Y6264360D1*
X11280200Y6123917D1*
X11294030Y6100643D1*
X11306243Y6071153D1*
X11313697Y6040120D1*
X11316200Y6008300D1*
X11315573Y5829340D1*
X11310580Y5797817D1*
X11300717Y5767463D1*
X11286227Y5739023D1*
X11267467Y5713203D1*
X11244897Y5690633D1*
X11219077Y5671873D1*
X11190637Y5657383D1*
X11160283Y5647520D1*
X11128760Y5642527D1*
X11096840D1*
X11065317Y5647520D1*
X11034963Y5657383D1*
X11006523Y5671873D1*
X10980703Y5690633D1*
X10958133Y5713203D1*
X10939373Y5739023D1*
X10924883Y5767463D1*
X10915020Y5797817D1*
X10910027Y5829340D1*
X10909400Y5905300D1*
X10910027Y6024260D1*
X10915020Y6055783D1*
X10924883Y6086137D1*
X10939373Y6114577D1*
X10945440Y6123653D1*
X10945917Y6346933D1*
X10950027Y6372880D1*
X10958143Y6397860D1*
X10970067Y6421267D1*
X10985507Y6442517D1*
X11036857Y6494597D1*
X11261500Y6719240D1*
X11261400Y6849370D1*
X11244897Y6833633D1*
X11219077Y6814873D1*
X11190637Y6800383D1*
X11160283Y6790520D1*
X11128760Y6785527D1*
X11096840D1*
X11069417Y6789703D1*
X10299860Y6020120D1*
X10300200Y5845300D1*
X10297697Y5813480D1*
X10290243Y5782447D1*
X10278030Y5752957D1*
X10261353Y5725743D1*
X10240627Y5701473D1*
X10216357Y5680747D1*
X10189143Y5664070D1*
X10159653Y5651857D1*
X10128620Y5644403D1*
X10096800Y5641900D1*
X10064980Y5644403D1*
X10033947Y5651857D1*
X10004457Y5664070D1*
X9977243Y5680747D1*
X9952973Y5701473D1*
X9932247Y5725743D1*
X9915570Y5752957D1*
X9903357Y5782447D1*
X9895903Y5813480D1*
X9893403Y5845363D1*
X9894027Y6024260D1*
X9899020Y6055783D1*
X9908883Y6086137D1*
X9923373Y6114577D1*
X9942133Y6140397D1*
X9964703Y6162967D1*
X9983003Y6176700D1*
X10876097Y7069837D1*
X10864200Y7080900D1*
X10769400D1*
Y7423360D1*
X10685923Y7423300D1*
X10656843Y7408327D1*
X10627383Y7398753D1*
X10596787Y7393910D1*
X10521300Y7393300D1*
X10371300Y7393417D1*
X11976360Y7268403D2*
X11945420Y7270830D1*
X11915300Y7278060D1*
X11886683Y7289917D1*
X11860270Y7306100D1*
X11836717Y7326217D1*
X11816600Y7349770D1*
X11800417Y7376183D1*
X11788560Y7404800D1*
X11781330Y7434920D1*
X11778900Y7465800D1*
X11781330Y7496680D1*
X11788560Y7526800D1*
X11800417Y7555417D1*
X11816600Y7581830D1*
X11836717Y7605383D1*
X11860270Y7625500D1*
X11886683Y7641683D1*
X11915300Y7653540D1*
X11945420Y7660770D1*
X11976360Y7663197D1*
X12201787Y7662590D1*
X12232383Y7657747D1*
X12261843Y7648173D1*
X12289440Y7634110D1*
X12314500Y7615903D1*
X12336403Y7594000D1*
X12354610Y7568940D1*
X12368673Y7541343D1*
X12378247Y7511883D1*
X12383090Y7481287D1*
Y7450313D1*
X12378247Y7419717D1*
X12368673Y7390257D1*
X12354610Y7362660D1*
X12336403Y7337600D1*
X12314500Y7315697D1*
X12289440Y7297490D1*
X12261843Y7283427D1*
X12232383Y7273853D1*
X12201787Y7269010D1*
X12126300Y7268400D1*
X11976300Y7268517D1*
X4156443Y7664400D2*
X3698400D1*
Y7770923D1*
X3404747Y7770900D1*
X3404700Y7743400D1*
X2979900D1*
Y7808907D1*
X2938590Y7808900D1*
X2947783Y7785753D1*
X2954830Y7756397D1*
X2957200Y7726300D1*
X2954830Y7696203D1*
X2947783Y7666847D1*
X2936230Y7638953D1*
X2920453Y7613210D1*
X2900847Y7590253D1*
X2899157Y7588690D1*
X2899200Y7312160D1*
X2992433Y7311683D1*
X3018380Y7307573D1*
X3043360Y7299457D1*
X3066767Y7287533D1*
X3088017Y7272093D1*
X3098263Y7262530D1*
X3106900Y7256700D1*
X3290453D1*
X3290400Y7495200D1*
X3695200D1*
Y7239847D1*
X3701333Y7239933D1*
Y6815133D1*
X3666293D1*
X3666333Y6746870D1*
X3901593Y6511017D1*
X3917033Y6489767D1*
X3928957Y6466360D1*
X3937077Y6441380D1*
X3941183Y6415433D1*
X3941700Y6338667D1*
X3995700Y6338700D1*
Y6017020D1*
X4209093Y5803017D1*
X4209633Y5802333D1*
X4209093Y5803017D1*
X4209633Y5802333D1*
X4236423Y5812663D1*
X4409360Y5985600D1*
X4389200Y5987400D1*
X4374400D1*
Y6652200D1*
X4382017D1*
X4381900Y6916200D1*
X4886313D1*
X4886400Y7198200D1*
X4890970D1*
X4890900Y7210157D1*
X4878900Y7230047D1*
X4868847Y7254317D1*
X4862717Y7279860D1*
X4860653Y7306047D1*
Y7452647D1*
X4837510Y7443443D1*
X4808153Y7436397D1*
X4778053Y7434027D1*
X4747957Y7436397D1*
X4718600Y7443443D1*
X4690707Y7454997D1*
X4664963Y7470773D1*
X4642007Y7490380D1*
X4622400Y7513337D1*
X4606623Y7539080D1*
X4595070Y7566973D1*
X4592683Y7575437D1*
X4256400Y7575400D1*
Y7612080D1*
X4240720Y7615023D1*
X4215740Y7623143D1*
X4192333Y7635067D1*
X4171083Y7650507D1*
X4156540Y7664320D1*
X4948363Y9207403D2*
X4916480Y9209903D1*
X4885447Y9217357D1*
X4855957Y9229570D1*
X4828743Y9246247D1*
X4804473Y9266973D1*
X4783747Y9291243D1*
X4767070Y9318457D1*
X4754857Y9347947D1*
X4747403Y9378980D1*
X4744900Y9410800D1*
X4747403Y9442620D1*
X4754857Y9473653D1*
X4767070Y9503143D1*
X4783747Y9530357D1*
X4789500Y9537657D1*
X4774873Y9558523D1*
X4760383Y9586963D1*
X4750520Y9617317D1*
X4745527Y9648840D1*
Y9680760D1*
X4750520Y9712283D1*
X4760383Y9742637D1*
X4774873Y9771077D1*
X4793633Y9796897D1*
X4816203Y9819467D1*
X4842023Y9838227D1*
X4870463Y9852717D1*
X4900817Y9862580D1*
X4932340Y9867573D1*
X5008300Y9868200D1*
X5127260Y9867573D1*
X5158783Y9862580D1*
X5189137Y9852717D1*
X5210447Y9842220D1*
X5656083Y10287093D1*
X5677333Y10302533D1*
X5678097Y10302960D1*
X5665083Y10321277D1*
X4887397Y11098963D1*
X4868703Y11113133D1*
X4846133Y11135703D1*
X4827373Y11161523D1*
X4812883Y11189963D1*
X4803020Y11220317D1*
X4798027Y11251840D1*
X4797400Y11327800D1*
X4798027Y11446760D1*
X4803020Y11478283D1*
X4812883Y11508637D1*
X4827373Y11537077D1*
X4846133Y11562897D1*
X4868703Y11585467D1*
X4894523Y11604227D1*
X4922963Y11618717D1*
X4953317Y11628580D1*
X4984840Y11633573D1*
X5016760D1*
X5048283Y11628580D1*
X5078637Y11618717D1*
X5107077Y11604227D1*
X5132897Y11585467D1*
X5155467Y11562897D1*
X5174227Y11537077D1*
X5188717Y11508637D1*
X5198580Y11478283D1*
X5203573Y11446760D1*
X5204200Y11370800D1*
X5204023Y11255817D1*
X5973417Y10486423D1*
X6000840Y10490573D1*
X6032760D1*
X6064283Y10485580D1*
X6094637Y10475717D1*
X6123077Y10461227D1*
X6148897Y10442467D1*
X6171467Y10419897D1*
X6190227Y10394077D1*
X6204717Y10365637D1*
X6214580Y10335283D1*
X6219573Y10303760D1*
X6220200Y10227800D1*
X6219573Y10108840D1*
X6214580Y10077317D1*
X6204717Y10046963D1*
X6190227Y10018523D1*
X6171467Y9992703D1*
X6148897Y9970133D1*
X6123077Y9951373D1*
X6094637Y9936883D1*
X6064283Y9927020D1*
X6032760Y9922027D1*
X6000840D1*
X5969317Y9927020D1*
X5938963Y9936883D1*
X5910523Y9951373D1*
X5884703Y9970133D1*
X5862347Y9992473D1*
X5834010Y9992400D1*
X5388170Y9546430D1*
X5368197Y9529370D1*
X5345797Y9515647D1*
X5321530Y9505593D1*
X5295987Y9499460D1*
X5295120Y9499357D1*
X5304743Y9473653D1*
X5312197Y9442620D1*
X5314700Y9410800D1*
X5312197Y9378980D1*
X5304743Y9347947D1*
X5292530Y9318457D1*
X5275853Y9291243D1*
X5255127Y9266973D1*
X5230857Y9246247D1*
X5203643Y9229570D1*
X5174153Y9217357D1*
X5143120Y9209903D1*
X5111300Y9207400D1*
X4948300Y9207517D1*
X12923313Y12380743D2*
X13140930D1*
X13140813Y12391243D1*
X13517807D1*
X13522893Y12424363D1*
X13532467Y12453820D1*
X13546527Y12481420D1*
X13564737Y12506480D1*
X13586637Y12528383D1*
X13611697Y12546590D1*
X13639297Y12560653D1*
X13668757Y12570227D1*
X13699350Y12575070D1*
X13774840Y12575680D1*
X13940327Y12575070D1*
X13970920Y12570227D1*
X14000380Y12560653D1*
X14027980Y12546590D1*
X14053040Y12528383D1*
X14074943Y12506480D1*
X14093150Y12481420D1*
X14107213Y12453820D1*
X14116787Y12424363D1*
X14121630Y12393767D1*
Y12362793D1*
X14116787Y12332197D1*
X14107213Y12302737D1*
X14093150Y12275140D1*
X14074943Y12250080D1*
X14053040Y12228177D1*
X14027980Y12209970D1*
X14000380Y12195907D1*
X13970920Y12186333D1*
X13940327Y12181487D1*
X13859097Y12180880D1*
X13739120Y12061550D1*
X13717870Y12046110D1*
X13694463Y12034187D1*
X13669483Y12026070D1*
X13643537Y12021960D1*
X13565597Y12021443D1*
X13565613Y11986443D1*
X13317997D1*
X13318113Y11975943D1*
X12920497D1*
X12900913Y11956740D1*
X12875853Y11938533D1*
X12848257Y11924470D1*
X12818797Y11914897D1*
X12788200Y11910053D1*
X12712713Y11909443D1*
X12562713D1*
X12531833Y11911873D1*
X12501713Y11919103D1*
X12473097Y11930960D1*
X12446683Y11947143D1*
X12423130Y11967260D1*
X12403013Y11990813D1*
X12386830Y12017227D1*
X12374973Y12045843D1*
X12367743Y12075963D1*
X12365313Y12106843D1*
X12367743Y12137723D1*
X12374973Y12167843D1*
X12386830Y12196460D1*
X12403013Y12222873D1*
X12423130Y12246427D1*
X12446683Y12266543D1*
X12473097Y12282727D1*
X12501713Y12294583D1*
X12531833Y12301813D1*
X12562773Y12304240D1*
X12628927Y12304243D1*
X12651747Y12321077D1*
X12675153Y12333000D1*
X12700133Y12341117D1*
X12726080Y12345227D1*
X12829213Y12345743D1*
X12893313D1*
Y12380743D1*
X12923313D1*
X3457183Y6349700D2*
X3457200Y6338800D1*
X3601097Y6338700D1*
X3457140Y6482720D1*
X3457200Y6338723D1*
X3175253Y6629700D2*
X3338613D1*
X3333593Y6651480D1*
X3331533Y6677667D1*
Y6815127D1*
X3296533Y6815133D1*
Y6831890D1*
X3175177Y6831900D1*
X3175200Y6629753D1*
X4261840Y4109837D2*
X4230900Y4112263D1*
X4200780Y4119497D1*
X4172163Y4131350D1*
X4156780Y4139833D1*
X3829233Y4140350D1*
X3803287Y4144460D1*
X3784200Y4145400D1*
X3309400D1*
Y4443407D1*
X3224967Y4527893D1*
X3143813Y4528510D1*
X3113217Y4533353D1*
X3083757Y4542927D1*
X3056160Y4556990D1*
X3031100Y4575197D1*
X3009197Y4597100D1*
X2990990Y4622160D1*
X2976927Y4649757D1*
X2967353Y4679217D1*
X2962510Y4709813D1*
Y4740787D1*
X2967353Y4771383D1*
X2976927Y4800843D1*
X2990990Y4828440D1*
X3009197Y4853500D1*
X3031100Y4875403D1*
X3056160Y4893610D1*
X3083757Y4907673D1*
X3113217Y4917247D1*
X3143813Y4922090D1*
X3219300Y4922700D1*
X3369300D1*
X3400180Y4920270D1*
X3430300Y4913040D1*
X3458917Y4901183D1*
X3485330Y4885000D1*
X3508883Y4864883D1*
X3529000Y4841330D1*
X3545183Y4814917D1*
X3557040Y4786300D1*
X3564270Y4756180D1*
X3566700Y4725300D1*
X3564270Y4694420D1*
X3558140Y4668203D1*
X3639093Y4586517D1*
X3647713Y4575470D1*
X3669400Y4570200D1*
X3994200D1*
Y4474693D1*
X4157250Y4474633D1*
X4172163Y4483120D1*
X4200780Y4494973D1*
X4230900Y4502203D1*
X4261780Y4504633D1*
X4471780D1*
X4502660Y4502203D1*
X4532780Y4494973D1*
X4561400Y4483120D1*
X4588143Y4466670D1*
X5045380Y4466700D1*
X5066673Y4477053D1*
X5095387Y4486383D1*
X5125203Y4491107D1*
X5200300Y4491700D1*
X5360300D1*
X5390397Y4489330D1*
X5419753Y4482283D1*
X5447647Y4470730D1*
X5454907Y4466663D1*
X5921933Y4466183D1*
X5947880Y4462073D1*
X5972860Y4453957D1*
X5996267Y4442033D1*
X6017517Y4426593D1*
X6069597Y4375243D1*
X8796737Y1648103D1*
X12629527Y1648200D1*
X12609340Y1663103D1*
X12589103Y1683340D1*
X12572280Y1706497D1*
X12559283Y1732000D1*
X12550440Y1759220D1*
X12545963Y1787490D1*
Y1816110D1*
X12550440Y1844380D1*
X12559283Y1871600D1*
X12572280Y1897103D1*
X12589103Y1920260D1*
X12609340Y1940497D1*
X12632497Y1957320D1*
X12658000Y1970317D1*
X12685220Y1979160D1*
X12713490Y1983637D1*
X12787800Y1984200D1*
X12967800D1*
X12996333Y1981953D1*
X13024163Y1975273D1*
X13050607Y1964320D1*
X13075013Y1949363D1*
X13096777Y1930777D1*
X13115363Y1909013D1*
X13130320Y1884607D1*
X13141273Y1858163D1*
X13147953Y1830333D1*
X13150200Y1801800D1*
X13147953Y1773267D1*
X13141273Y1745437D1*
X13130320Y1718993D1*
X13115363Y1694587D1*
X13096777Y1672823D1*
X13075013Y1654237D1*
X13065940Y1648173D1*
X14146300Y1647580D1*
X14145433Y1647683D1*
X14166900Y1646200D1*
X14381700D1*
Y1611160D1*
X14640277Y1611200D1*
X14660957Y1617797D1*
X14683590Y1621773D1*
X14701177Y1622700D1*
X16009577D1*
X16092930Y1706170D1*
X16092900Y2270900D1*
X16047900D1*
Y2472813D1*
X16022260Y2469027D1*
X15996387Y2468790D1*
X15996450Y2449900D1*
X15571650D1*
Y2854700D1*
X15749657D1*
X15776333Y2880593D1*
X15797583Y2896033D1*
X15809843Y2902820D1*
X15818383Y2912637D1*
X15832873Y2941077D1*
X15851633Y2966897D1*
X15874203Y2989467D1*
X15900023Y3008227D1*
X15928463Y3022717D1*
X15958817Y3032580D1*
X15990340Y3037573D1*
X16022260D1*
X16053783Y3032580D1*
X16084137Y3022717D1*
X16112577Y3008227D1*
X16138397Y2989467D1*
X16160967Y2966897D1*
X16169810Y2955677D1*
X16472700Y2955700D1*
Y2949957D1*
X16726700Y2949950D1*
Y2545150D1*
X16472757D1*
X16472700Y2270900D1*
X16427583D1*
X16427700Y1636800D1*
X16427080Y1622800D1*
X17819387Y1622700D1*
X17819367Y1958997D1*
X17798990Y1969823D1*
X17773170Y1988583D1*
X17750600Y2011153D1*
X17731840Y2036973D1*
X17717350Y2065413D1*
X17707487Y2095767D1*
X17702493Y2127290D1*
Y2159210D1*
X17707487Y2190733D1*
X17717350Y2221087D1*
X17731840Y2249527D1*
X17750600Y2275347D1*
X17773170Y2297917D1*
X17798990Y2316677D1*
X17809930Y2322803D1*
X17809900Y2589453D1*
X17415287Y2194750D1*
X17419300Y2167190D1*
Y2135270D1*
X17414307Y2103747D1*
X17404443Y2073393D1*
X17389953Y2044953D1*
X17371193Y2019133D1*
X17348623Y1996563D1*
X17322803Y1977803D1*
X17294363Y1963313D1*
X17264010Y1953450D1*
X17232487Y1948457D1*
X17156527Y1947830D1*
X17053527D1*
X17021707Y1950333D1*
X16990673Y1957787D1*
X16961183Y1970000D1*
X16933970Y1986677D1*
X16909700Y2007403D1*
X16888973Y2031673D1*
X16872297Y2058887D1*
X16860083Y2088377D1*
X16852630Y2119410D1*
X16850127Y2151230D1*
X16852630Y2183050D1*
X16860083Y2214083D1*
X16872297Y2243573D1*
X16888973Y2270787D1*
X16909700Y2295057D1*
X16933970Y2315783D1*
X16961183Y2332460D1*
X16990673Y2344673D1*
X17021707Y2352127D1*
X17053590Y2354627D1*
X17101690Y2354630D1*
X17689900Y2943800D1*
X17692403Y2975620D1*
X17699857Y3006653D1*
X17712070Y3036143D1*
X17728747Y3063357D1*
X17749473Y3087627D1*
X17773743Y3108353D1*
X17800957Y3125030D1*
X17804187Y3126520D1*
X17804150Y3537200D1*
X18119190D1*
X18119667Y3653683D1*
X18123777Y3679630D1*
X18131893Y3704610D1*
X18143817Y3728017D1*
X18159257Y3749267D1*
X18210607Y3801347D1*
X18670083Y4260093D1*
X18691333Y4275533D1*
X18714740Y4287457D1*
X18739720Y4295573D1*
X18746650Y4302150D1*
Y4346950D1*
X18823407D1*
X18823400Y4410323D1*
X18803023Y4421373D1*
X18777203Y4440133D1*
X18754633Y4462703D1*
X18735873Y4488523D1*
X18721383Y4516963D1*
X18711520Y4547317D1*
X18706527Y4578840D1*
Y4610760D1*
X18711520Y4642283D1*
X18721383Y4672637D1*
X18735873Y4701077D1*
X18750500Y4721657D1*
X18735873Y4742523D1*
X18721383Y4770963D1*
X18711520Y4801317D1*
X18706527Y4832840D1*
Y4864760D1*
X18711520Y4896283D1*
X18721383Y4926637D1*
X18735873Y4955077D1*
X18754633Y4980897D1*
X18777203Y5003467D1*
X18803023Y5022227D1*
X18831463Y5036717D1*
X18861817Y5046580D1*
X18893340Y5051573D1*
X18969300Y5052200D1*
X19072300D1*
X19104120Y5049697D1*
X19135153Y5042243D1*
X19164643Y5030030D1*
X19187653Y5016160D1*
X20279433Y5015683D1*
X20305380Y5011577D1*
X20330360Y5003457D1*
X20353767Y4991533D1*
X20375017Y4976093D1*
X20427097Y4924743D1*
X20524593Y4826517D1*
X20540033Y4805267D1*
X20551957Y4781860D1*
X20560077Y4756880D1*
X20564183Y4730933D1*
X20564700Y4657800D1*
Y4649713D1*
X20575717Y4627137D1*
X20585580Y4596783D1*
X20590573Y4565260D1*
X20591200Y4489300D1*
Y4453790D1*
X20715070Y4330067D1*
X20714960Y4737113D1*
X20712900Y4763300D1*
Y4977167D1*
X20699070Y5000457D1*
X20686857Y5029947D1*
X20679403Y5060980D1*
X20676903Y5092863D1*
X20677527Y5271760D1*
X20682520Y5303283D1*
X20692383Y5333637D1*
X20706873Y5362077D1*
X20725633Y5387897D1*
X20748203Y5410467D1*
X20774023Y5429227D1*
X20802463Y5443717D1*
X20832817Y5453580D1*
X20864340Y5458573D1*
X20896260D1*
X20927783Y5453580D1*
X20958137Y5443717D1*
X20986577Y5429227D1*
X21007157Y5414600D1*
X21028023Y5429227D1*
X21056463Y5443717D1*
X21086817Y5453580D1*
X21118340Y5458573D1*
X21150260D1*
X21181783Y5453580D1*
X21212137Y5443717D1*
X21240577Y5429227D1*
X21266397Y5410467D1*
X21288967Y5387897D1*
X21307727Y5362077D1*
X21322217Y5333637D1*
X21332080Y5303283D1*
X21337073Y5271760D1*
X21337700Y5195800D1*
X21337073Y5076840D1*
X21332080Y5045317D1*
X21322217Y5014963D1*
X21307727Y4986523D1*
X21288967Y4960703D1*
X21266397Y4938133D1*
X21240577Y4919373D1*
X21212137Y4904883D1*
X21181783Y4895020D1*
X21150260Y4890027D1*
X21139973Y4889623D1*
X21139950Y4758723D1*
X21156530Y4762163D1*
X21188350Y4764667D1*
X21220170Y4762163D1*
X21251203Y4754710D1*
X21280693Y4742497D1*
X21307907Y4725820D1*
X21332177Y4705093D1*
X21352903Y4680823D1*
X21369580Y4653610D1*
X21381793Y4624120D1*
X21389247Y4593087D1*
X21391750Y4561267D1*
X21391123Y4382307D1*
X21386130Y4350783D1*
X21376267Y4320430D1*
X21361777Y4291990D1*
X21343017Y4266170D1*
X21320447Y4243600D1*
X21294627Y4224840D1*
X21266187Y4210350D1*
X21235833Y4200487D1*
X21204310Y4195493D1*
X21172390D1*
X21140867Y4200487D1*
X21110513Y4210350D1*
X21082073Y4224840D1*
X21068847Y4233677D1*
X20811473Y4233650D1*
X21136847Y3908287D1*
X21164410Y3912300D1*
X21196330D1*
X21227853Y3907307D1*
X21258207Y3897443D1*
X21286647Y3882953D1*
X21312467Y3864193D1*
X21335037Y3841623D1*
X21353797Y3815803D1*
X21368287Y3787363D1*
X21378150Y3757010D1*
X21383143Y3725487D1*
X21383770Y3649527D1*
X21383143Y3530567D1*
X21378150Y3499043D1*
X21368287Y3468690D1*
X21353797Y3440250D1*
X21335037Y3414430D1*
X21312467Y3391860D1*
X21286647Y3373100D1*
X21258207Y3358610D1*
X21227853Y3348747D1*
X21196330Y3343753D1*
X21164410D1*
X21132887Y3348747D1*
X21102533Y3358610D1*
X21074093Y3373100D1*
X21048273Y3391860D1*
X21025703Y3414430D1*
X21006943Y3440250D1*
X20992453Y3468690D1*
X20982590Y3499043D1*
X20977597Y3530567D1*
X20976970Y3594690D1*
X20387800Y4182900D1*
X20355980Y4185403D1*
X20324947Y4192857D1*
X20295457Y4205070D1*
X20268243Y4221747D1*
X20243973Y4242473D1*
X20223247Y4266743D1*
X20206570Y4293957D1*
X20194357Y4323447D1*
X20186903Y4354480D1*
X20184403Y4386363D1*
X20185027Y4565260D1*
X20190020Y4596783D1*
X20199883Y4627137D1*
X20214373Y4655577D1*
X20217737Y4660607D1*
X20196977Y4681383D1*
X19256260Y4681400D1*
X19265743Y4657653D1*
X19273197Y4626620D1*
X19275700Y4594800D1*
X19273197Y4562980D1*
X19265743Y4531947D1*
X19253530Y4502457D1*
X19236853Y4475243D1*
X19216127Y4450973D1*
X19191857Y4430247D1*
X19164643Y4413570D1*
X19158127Y4410567D1*
X19158200Y4346950D1*
X19171450D1*
Y3777910D1*
X19240683Y3777433D1*
X19266630Y3773323D1*
X19291610Y3765207D1*
X19315017Y3753283D1*
X19336267Y3737843D1*
X19388347Y3686493D1*
X19776093Y3298017D1*
X19791533Y3276767D1*
X19803457Y3253360D1*
X19811577Y3228380D1*
X19815683Y3202433D1*
X19816200Y3129300D1*
Y3092620D1*
X19865700Y3092700D1*
Y2667900D1*
X19856677D1*
X19856700Y2609730D1*
X19871673Y2580593D1*
X19881247Y2551133D1*
X19886090Y2520537D1*
X19886700Y2445050D1*
Y2295050D1*
X19884270Y2264170D1*
X19877040Y2234050D1*
X19865183Y2205433D1*
X19849000Y2179020D1*
X19828883Y2155467D1*
X19805330Y2135350D1*
X19778917Y2119167D1*
X19750300Y2107310D1*
X19720180Y2100080D1*
X19689300Y2097650D1*
X19658420Y2100080D1*
X19628300Y2107310D1*
X19599683Y2119167D1*
X19573270Y2135350D1*
X19564380Y2142360D1*
X19544303Y2127983D1*
X19568317Y2127963D1*
Y1699913D1*
X19036873D1*
X19036950Y1622667D1*
X21045840Y1622700D1*
X21045900Y1650887D1*
X20786900Y1650900D1*
Y2075700D1*
X21046003D1*
X21045900Y2092917D1*
X21025523Y2103873D1*
X20999703Y2122633D1*
X20977133Y2145203D1*
X20958373Y2171023D1*
X20943883Y2199463D1*
X20934020Y2229817D1*
X20929027Y2261340D1*
Y2293260D1*
X20934020Y2324783D1*
X20943883Y2355137D1*
X20958373Y2383577D1*
X20977133Y2409397D1*
X20999703Y2431967D1*
X21025523Y2450727D1*
X21053963Y2465217D1*
X21084317Y2475080D1*
X21115840Y2480073D1*
X21191800Y2480700D1*
X21310760Y2480073D1*
X21342283Y2475080D1*
X21372637Y2465217D1*
X21401077Y2450727D1*
X21426897Y2431967D1*
X21449467Y2409397D1*
X21468227Y2383577D1*
X21482717Y2355137D1*
X21492580Y2324783D1*
X21497573Y2293260D1*
Y2261340D1*
X21492580Y2229817D1*
X21482717Y2199463D1*
X21468227Y2171023D1*
X21458853Y2157107D1*
X21487843Y2147673D1*
X21515440Y2133610D1*
X21540500Y2115403D1*
X21562403Y2093500D1*
X21580610Y2068440D1*
X21594673Y2040843D1*
X21604247Y2011383D1*
X21609090Y1980787D1*
X21609700Y1905300D1*
X21609090Y1739813D1*
X21604247Y1709217D1*
X21594673Y1679757D1*
X21580610Y1652160D1*
X21562403Y1627100D1*
X21540500Y1605197D1*
X21515440Y1586990D1*
X21487843Y1572927D1*
X21458383Y1563353D1*
X21427787Y1558510D1*
X21396813D1*
X21380647Y1560483D1*
X21380183Y1494667D1*
X21376077Y1468720D1*
X21367957Y1443740D1*
X21356033Y1420333D1*
X21340593Y1399083D1*
X21289243Y1347003D1*
X21269517Y1328007D1*
X21248267Y1312567D1*
X21224860Y1300643D1*
X21199880Y1292523D1*
X21173933Y1288417D1*
X21100800Y1287900D1*
X14761963D1*
X14741397Y1281303D1*
X14718763Y1277327D1*
X14701177Y1276400D1*
X14381607D1*
X14381700Y1241400D1*
X13956900D1*
Y1313470D1*
X8727300Y1313400D1*
X8701113Y1315460D1*
X8675570Y1321593D1*
X8651303Y1331647D1*
X8628903Y1345370D1*
X8608930Y1362430D1*
X6478080Y3493280D1*
X6478200Y1574800D1*
X6476140Y1548613D1*
X6470007Y1523070D1*
X6459953Y1498803D1*
X6446230Y1476403D1*
X6429170Y1456430D1*
X6409197Y1439370D1*
X6386797Y1425647D1*
X6362530Y1415593D1*
X6336987Y1409460D1*
X6310800Y1407400D1*
X5159200D1*
X5159137Y1039913D1*
X4626900D1*
Y1356907D1*
X3063120Y1356900D1*
X3033970Y1341927D1*
X3004510Y1332353D1*
X2973913Y1327510D1*
X2898427Y1326900D1*
X2808427D1*
X2777547Y1329330D1*
X2747427Y1336560D1*
X2718810Y1348417D1*
X2703427Y1356900D1*
X2266433D1*
X2237343Y1341927D1*
X2207883Y1332353D1*
X2177287Y1327510D1*
X2101800Y1326900D1*
X2011800D1*
X1980920Y1329330D1*
X1950800Y1336560D1*
X1922183Y1348417D1*
X1895770Y1364600D1*
X1872217Y1384717D1*
X1852100Y1408270D1*
X1835917Y1434683D1*
X1824060Y1463300D1*
X1816830Y1493420D1*
X1814400Y1524300D1*
X1816830Y1555180D1*
X1824060Y1585300D1*
X1835917Y1613917D1*
X1852100Y1640330D1*
X1872217Y1663883D1*
X1895770Y1684000D1*
X1922183Y1700183D1*
X1950800Y1712040D1*
X1980920Y1719270D1*
X2011860Y1721697D1*
X2177287Y1721090D1*
X2207883Y1716247D1*
X2237343Y1706673D1*
X2264940Y1692610D1*
X2266800Y1691700D1*
X2703793D1*
X2732883Y1706673D1*
X2762343Y1716247D1*
X2792940Y1721090D1*
X2868427Y1721700D1*
X2973913Y1721090D1*
X3004510Y1716247D1*
X3033970Y1706673D1*
X3061567Y1692610D1*
X3063427Y1691700D1*
X4641123D1*
X4660717Y1714383D1*
X4684270Y1734500D1*
X4710683Y1750683D1*
X4739300Y1762540D1*
X4769420Y1769770D1*
X4800300Y1772200D1*
X5010300D1*
X5041180Y1769770D1*
X5071300Y1762540D1*
X5099917Y1750683D1*
X5115300Y1742200D1*
X6143387D1*
X6143400Y3417573D1*
X5437787Y4123243D1*
X5419753Y4116317D1*
X5390397Y4109270D1*
X5360300Y4106900D1*
X5140300D1*
X5110203Y4109270D1*
X5080847Y4116317D1*
X5052953Y4127870D1*
X5045693Y4131937D1*
X4561400Y4131350D1*
X4532780Y4119497D1*
X4502660Y4112263D1*
X4471780Y4109833D1*
X4261780Y4109950D1*
X18147360Y6962903D2*
X18116420Y6965330D1*
X18086300Y6972560D1*
X18057683Y6984417D1*
X18031270Y7000600D1*
X18007717Y7020717D1*
X17993483Y7036807D1*
X17831433Y7036773D1*
X17802343Y7021800D1*
X17772883Y7012227D1*
X17742287Y7007383D1*
X17666800Y7006773D1*
X17576800D1*
X17545920Y7009203D1*
X17515800Y7016433D1*
X17503700Y7020900D1*
X17034823Y7020850D1*
X17005693Y7005877D1*
X16976233Y6996303D1*
X16945637Y6991460D1*
X16870150Y6990850D1*
X16780150D1*
X16749270Y6993280D1*
X16719150Y7000510D1*
X16690533Y7012367D1*
X16664273Y7028450D1*
X16610167Y7028917D1*
X16584220Y7033023D1*
X16559240Y7041143D1*
X16535833Y7053067D1*
X16514583Y7068507D1*
X16462503Y7119857D1*
X16345250Y7237110D1*
X16345200Y6777400D1*
X16132740D1*
X16132700Y6770400D1*
X16097700Y6769800D1*
X16097183Y6749667D1*
X16093073Y6723720D1*
X16084957Y6698740D1*
X16073033Y6675333D1*
X16057593Y6654083D1*
X16007653Y6603413D1*
X16007700Y6425400D1*
X15602900D1*
Y6770517D1*
X15447900Y6770400D1*
Y6888643D1*
X15434723Y6875483D1*
X15434700Y6697400D1*
X15047160D1*
X15049700Y6664800D1*
X15047197Y6632980D1*
X15039743Y6601947D1*
X15027530Y6572457D1*
X15010853Y6545243D1*
X14990127Y6520973D1*
X14965857Y6500247D1*
X14938643Y6483570D1*
X14909153Y6471357D1*
X14878120Y6463903D1*
X14846300Y6461400D1*
X14683300D1*
X14651420Y6463917D1*
X14138637Y6463913D1*
Y6891963D1*
X14677873D1*
Y6868173D1*
X14731463Y6868200D1*
X14891083Y7027093D1*
X14912333Y7042533D1*
X14935740Y7054457D1*
X14960720Y7062577D1*
X14986667Y7066683D1*
X15009997Y7067200D1*
X15009900Y7102200D1*
X15022440D1*
X15000243Y7116247D1*
X14975973Y7136973D1*
X14955247Y7161243D1*
X14938570Y7188457D1*
X14926357Y7217947D1*
X14918903Y7248980D1*
X14916403Y7280863D1*
X14917027Y7459760D1*
X14922020Y7491283D1*
X14931883Y7521637D1*
X14946373Y7550077D1*
X14965133Y7575897D1*
X14987703Y7598467D1*
X15013523Y7617227D1*
X15041963Y7631717D1*
X15072317Y7641580D1*
X15103840Y7646573D1*
X15135760D1*
X15167283Y7641580D1*
X15197637Y7631717D1*
X15226077Y7617227D1*
X15244697Y7604143D1*
X15263523Y7617227D1*
X15291963Y7631717D1*
X15322317Y7641580D1*
X15353840Y7646573D1*
X15385760D1*
X15417283Y7641580D1*
X15447637Y7631717D1*
X15476077Y7617227D1*
X15494697Y7604143D1*
X15513523Y7617227D1*
X15541963Y7631717D1*
X15572317Y7641580D1*
X15603840Y7646573D1*
X15635760D1*
X15667283Y7641580D1*
X15697637Y7631717D1*
X15726077Y7617227D1*
X15751897Y7598467D1*
X15774467Y7575897D1*
X15793227Y7550077D1*
X15807717Y7521637D1*
X15817580Y7491283D1*
X15822573Y7459760D1*
X15823200Y7383800D1*
Y7280800D1*
X15820697Y7248980D1*
X15813243Y7217947D1*
X15804140Y7195200D1*
X15920440D1*
X15920400Y7277360D1*
X15909900Y7277400D1*
Y7702200D1*
X16438220D1*
X16292007Y7849083D1*
X16276567Y7870333D1*
X16264643Y7893740D1*
X16256527Y7918720D1*
X16252417Y7944667D1*
X16251900Y8017800D1*
Y8385417D1*
X16226420Y8387830D1*
X16196300Y8395060D1*
X16167683Y8406917D1*
X16141270Y8423100D1*
X16117717Y8443217D1*
X16097600Y8466770D1*
X16081417Y8493183D1*
X16069560Y8521800D1*
X16062330Y8551920D1*
X16059900Y8582800D1*
X16062330Y8613680D1*
X16069560Y8643800D1*
X16081417Y8672417D1*
X16097600Y8698830D1*
X16117717Y8722383D1*
X16141270Y8742500D1*
X16167683Y8758683D1*
X16196300Y8770540D1*
X16226420Y8777770D1*
X16257360Y8780197D1*
X16482787Y8779590D1*
X16513383Y8774747D1*
X16542843Y8765173D1*
X16570440Y8751110D1*
X16595500Y8732903D1*
X16617403Y8711000D1*
X16635610Y8685940D1*
X16649673Y8658343D1*
X16659247Y8628883D1*
X16664090Y8598287D1*
Y8567313D1*
X16659247Y8536717D1*
X16649673Y8507257D1*
X16635610Y8479660D1*
X16617403Y8454600D1*
X16595500Y8432697D1*
X16586703Y8425760D1*
X16586700Y8026980D1*
X16727347Y7886493D1*
X16749270Y7891220D1*
X16780150Y7893650D1*
X16930150D1*
X16961030Y7891220D1*
X16991150Y7883990D1*
X17019767Y7872133D1*
X17046180Y7855950D1*
X17069733Y7835833D1*
X17089850Y7812280D1*
X17106033Y7785867D1*
X17117890Y7757250D1*
X17125120Y7727130D1*
X17127550Y7696250D1*
X17125120Y7665370D1*
X17117890Y7635250D1*
X17106033Y7606633D1*
X17089850Y7580220D1*
X17069733Y7556667D1*
X17046180Y7536550D1*
X17019767Y7520367D1*
X16991150Y7508510D1*
X16961030Y7501280D1*
X16930150Y7498850D1*
X16780150D1*
X16749270Y7501280D1*
X16719150Y7508510D1*
X16690533Y7520367D1*
X16664120Y7536550D1*
X16657513Y7541760D1*
X16629220Y7546027D1*
X16604240Y7554143D1*
X16594700Y7552200D1*
Y7461143D1*
X16691230Y7364610D1*
X16719150Y7375990D1*
X16749270Y7383220D1*
X16780150Y7385650D1*
X16930150D1*
X16961030Y7383220D1*
X16991150Y7375990D1*
X17019767Y7364133D1*
X17035150Y7355650D1*
X17450110D1*
X17473660Y7372483D1*
X17501257Y7386547D1*
X17530717Y7396120D1*
X17561313Y7400963D1*
X17636800Y7401573D1*
X17726800D1*
X17757680Y7399143D1*
X17787800Y7391913D1*
X17816417Y7380057D1*
X17831800Y7371573D1*
X17981683D1*
X17981637Y7685463D1*
X18518813D1*
Y7273783D1*
X18533183Y7249917D1*
X18545040Y7221300D1*
X18552270Y7191180D1*
X18554700Y7160300D1*
X18552270Y7129420D1*
X18545040Y7099300D1*
X18533183Y7070683D1*
X18517000Y7044270D1*
X18496883Y7020717D1*
X18473330Y7000600D1*
X18446917Y6984417D1*
X18418300Y6972560D1*
X18388180Y6965330D1*
X18357300Y6962900D1*
X18147300Y6963017D1*
X19217900Y11347200D2*
X19402003D1*
X19402000Y11388417D1*
X19391870Y11405953D1*
X19380317Y11433847D1*
X19373270Y11463203D1*
X19370903Y11493360D1*
X19371493Y11628397D1*
X19376217Y11658213D1*
X19385547Y11686927D1*
X19399253Y11713830D1*
X19416997Y11738253D1*
X19438347Y11759603D1*
X19462770Y11777347D1*
X19489673Y11791053D1*
X19518387Y11800383D1*
X19548203Y11805107D1*
X19578397D1*
X19608213Y11800383D1*
X19636927Y11791053D1*
X19663830Y11777347D1*
X19688253Y11759603D1*
X19690203Y11757800D1*
X19704210Y11768953D1*
X19729953Y11784730D1*
X19757847Y11796283D1*
X19787203Y11803330D1*
X19817300Y11805700D1*
X19847397Y11803330D1*
X19876753Y11796283D1*
X19904647Y11784730D1*
X19930390Y11768953D1*
X19953347Y11749347D1*
X19972953Y11726390D1*
X19988730Y11700647D1*
X20000283Y11672753D1*
X20007330Y11643397D1*
X20009700Y11613300D1*
X20009107Y11478203D1*
X20004383Y11448387D1*
X19995053Y11419673D1*
X19981347Y11392770D1*
X19963603Y11368347D1*
X19960037Y11364490D1*
X19967900Y11347200D1*
X20172700D1*
Y11338643D1*
X20453700Y11338700D1*
Y10942167D1*
X20690517Y10942200D1*
X20690400Y11611700D1*
X20735517D1*
X20735400Y12453090D1*
X20261973Y12926387D1*
X16358057Y12926400D1*
X15857297Y12425627D1*
X16383347Y12425700D1*
X16383400Y12470700D1*
X17068200D1*
Y12045900D1*
X17050270D1*
X17050200Y11999777D1*
X17324933Y11999183D1*
X17350880Y11995073D1*
X17375860Y11986957D1*
X17399267Y11975033D1*
X17416900Y11968200D1*
X17912410D1*
X17912400Y11978700D1*
X18180877D1*
X18180900Y12316797D1*
X18029637Y12316913D1*
Y12744963D1*
X18627163D1*
Y12677813D1*
X18650800Y12679200D1*
X18813800D1*
X18845620Y12676697D1*
X18876653Y12669243D1*
X18906143Y12657030D1*
X18933357Y12640353D1*
X18953367Y12623563D1*
X18973197Y12611230D1*
X18993170Y12594170D1*
X19041647Y12545693D1*
X19219700Y12545700D1*
Y12120900D1*
X18814900D1*
Y12272423D1*
X18765637Y12272400D1*
X18671017Y12178507D1*
X18649767Y12163067D1*
X18626360Y12151143D1*
X18613190Y12146357D1*
X18605700Y12138200D1*
Y11983160D1*
X18813700Y11983200D1*
Y11558400D1*
X18778660D1*
X18778700Y11291150D1*
X18791953Y11274890D1*
X18807730Y11249147D1*
X18819283Y11221253D1*
X18826330Y11191897D1*
X18828700Y11161800D1*
X18826330Y11131703D1*
X18819283Y11102347D1*
X18807730Y11074453D1*
X18799200Y11059553D1*
X19159543Y11059600D1*
X19180073Y11074820D1*
X19180907Y11075287D1*
X19180073Y11074820D1*
X19187900Y11088400D1*
Y11347200D1*
X19217900D1*
X17530690Y11318617D2*
X17522950Y11334860D1*
X17513623Y11363573D1*
X17508900Y11393393D1*
Y11423583D1*
X17513623Y11453403D1*
X17522950Y11482117D1*
X17536657Y11509017D1*
X17554403Y11533440D1*
X17563577Y11543363D1*
X17366670Y11543400D1*
X17366700Y11438083D1*
X17388530Y11432507D1*
X17412797Y11422453D1*
X17435197Y11408730D1*
X17455170Y11391670D1*
X17528173Y11318667D1*
X17044283Y3854700D2*
X17155610D1*
X17195920Y3895157D1*
X17177973Y3911223D1*
X17157247Y3935493D1*
X17140570Y3962707D1*
X17128357Y3992197D1*
X17120903Y4023230D1*
X17118907Y4042147D1*
X17099467Y4042827D1*
X17074857Y4046443D1*
X17044200Y4046200D1*
Y3854597D1*
X18746670Y3662150D2*
X18746650Y3864063D1*
X18453930Y3571190D1*
X18453950Y3537307D1*
X18488950Y3537200D1*
Y3112400D1*
X18173833D1*
X18175857Y3108353D1*
X18200127Y3087627D1*
X18220853Y3063357D1*
X18237530Y3036143D1*
X18249743Y3006653D1*
X18257197Y2975620D1*
X18259700Y2943800D1*
X18257197Y2911980D1*
X18249743Y2880947D1*
X18237530Y2851457D1*
X18220853Y2824243D1*
X18206603Y2806983D1*
X18214700Y2806950D1*
Y2284347D1*
X18232820Y2262807D1*
X18249497Y2235593D1*
X18261710Y2206103D1*
X18269163Y2175070D1*
X18271667Y2143250D1*
X18269163Y2111430D1*
X18261710Y2080397D1*
X18249497Y2050907D1*
X18232820Y2023693D1*
X18212093Y1999423D1*
X18187823Y1978697D1*
X18160610Y1962020D1*
X18154093Y1959017D1*
X18154167Y1622587D1*
X18661510Y1622700D1*
X18702173Y1663413D1*
X18702150Y2096433D1*
X18667150Y2096400D1*
Y2521200D1*
X18947267D1*
X18947150Y3124450D1*
X19351950D1*
Y2682020D1*
X19378300Y2692790D1*
X19408420Y2700020D1*
X19439300Y2702450D1*
X19460860Y2701123D1*
X19460900Y3092700D1*
X19481410D1*
X19481400Y3119917D1*
X19171380Y3429980D1*
X19171450Y3408150D1*
X18746650D1*
X18746767Y3812950D1*
X20019150Y3949950D2*
X20393950D1*
Y3900380D1*
X20411643Y3898457D1*
X20442677Y3891003D1*
X20472167Y3878790D1*
X20499380Y3862113D1*
X20523650Y3841387D1*
X20544377Y3817117D1*
X20561053Y3789903D1*
X20573267Y3760413D1*
X20580720Y3729380D1*
X20583223Y3697560D1*
X20582597Y3518600D1*
X20577603Y3487077D1*
X20567740Y3456723D1*
X20553250Y3428283D1*
X20547183Y3419207D1*
X20547223Y3249613D1*
X20572603Y3231230D1*
X20595173Y3208660D1*
X20613933Y3182840D1*
X20628423Y3154400D1*
X20638287Y3124047D1*
X20643280Y3092523D1*
Y3060603D1*
X20638287Y3029080D1*
X20628423Y2998727D1*
X20613933Y2970287D1*
X20595173Y2944467D1*
X20572603Y2921897D1*
X20546783Y2903137D1*
X20518343Y2888647D1*
X20487990Y2878783D1*
X20456467Y2873790D1*
X20380507Y2873163D1*
X20277507D1*
X20245687Y2875667D1*
X20214653Y2883120D1*
X20185163Y2895333D1*
X20157950Y2912010D1*
X20133680Y2932737D1*
X20112953Y2957007D1*
X20096277Y2984220D1*
X20084063Y3013710D1*
X20076610Y3044743D1*
X20074107Y3076563D1*
X20076610Y3108383D1*
X20084063Y3139417D1*
X20096277Y3168907D1*
X20112953Y3196120D1*
X20133680Y3220390D1*
X20157950Y3241117D1*
X20185163Y3257793D1*
X20212487Y3269210D1*
X20212423Y3419060D1*
X20198593Y3442217D1*
X20186380Y3471707D1*
X20178927Y3502740D1*
X20176793Y3525147D1*
X19989150Y3525150D1*
Y3949950D1*
X20019150D1*
X17581860Y8001903D2*
X17550920Y8004330D1*
X17520800Y8011560D1*
X17492183Y8023417D1*
X17465770Y8039600D1*
X17442217Y8059717D1*
X17422100Y8083270D1*
X17405917Y8109683D1*
X17394060Y8138300D1*
X17386830Y8168420D1*
X17384400Y8199300D1*
X17386830Y8230180D1*
X17394060Y8260300D1*
X17405917Y8288917D1*
X17422100Y8315330D1*
X17442217Y8338883D1*
X17465770Y8359000D1*
X17492183Y8375183D1*
X17520800Y8387040D1*
X17550920Y8394270D1*
X17581800Y8396700D1*
X17731800D1*
X17762680Y8394270D1*
X17792800Y8387040D1*
X17821417Y8375183D1*
X17836800Y8366700D1*
X20705433D1*
X20699070Y8400457D1*
X20686857Y8429947D1*
X20679403Y8460980D1*
X20676903Y8492863D1*
X20677527Y8671760D1*
X20682520Y8703283D1*
X20692383Y8733637D1*
X20706873Y8762077D1*
X20725633Y8787897D1*
X20748203Y8810467D1*
X20774023Y8829227D1*
X20802463Y8843717D1*
X20832817Y8853580D1*
X20864340Y8858573D1*
X20896260D1*
X20927783Y8853580D1*
X20958137Y8843717D1*
X20986577Y8829227D1*
X21007157Y8814600D1*
X21028023Y8829227D1*
X21056463Y8843717D1*
X21086817Y8853580D1*
X21118340Y8858573D1*
X21150260D1*
X21181783Y8853580D1*
X21212137Y8843717D1*
X21240577Y8829227D1*
X21266397Y8810467D1*
X21288967Y8787897D1*
X21307727Y8762077D1*
X21322217Y8733637D1*
X21332080Y8703283D1*
X21337073Y8671760D1*
X21337700Y8595800D1*
X21337073Y8476840D1*
X21332080Y8445317D1*
X21322217Y8414963D1*
X21307727Y8386523D1*
X21288967Y8360703D1*
X21266397Y8338133D1*
X21240577Y8319373D1*
X21212137Y8304883D1*
X21181783Y8295020D1*
X21150260Y8290027D1*
X21118340D1*
X21086817Y8295020D1*
X21056463Y8304883D1*
X21040163Y8312577D1*
X21039683Y8261167D1*
X21035573Y8235220D1*
X21027457Y8210240D1*
X21015533Y8186833D1*
X21000093Y8165583D1*
X20948743Y8113503D1*
X20906517Y8072007D1*
X20885267Y8056567D1*
X20861860Y8044643D1*
X20836880Y8036523D1*
X20810933Y8032417D1*
X20737800Y8031900D1*
X17836353D1*
X17821417Y8023417D1*
X17792800Y8011560D1*
X17762680Y8004330D1*
X17731800Y8001900D1*
X17581800Y8002017D1*
X16785233Y8001903D2*
X16754293Y8004330D1*
X16724173Y8011560D1*
X16695557Y8023417D1*
X16669143Y8039600D1*
X16645590Y8059717D1*
X16625473Y8083270D1*
X16609290Y8109683D1*
X16597433Y8138300D1*
X16590203Y8168420D1*
X16587773Y8199300D1*
X16590203Y8230180D1*
X16597433Y8260300D1*
X16609290Y8288917D1*
X16625473Y8315330D1*
X16645590Y8338883D1*
X16669143Y8359000D1*
X16695557Y8375183D1*
X16724173Y8387040D1*
X16754293Y8394270D1*
X16785173Y8396700D1*
X16935173D1*
X16966053Y8394270D1*
X16996173Y8387040D1*
X17024790Y8375183D1*
X17051203Y8359000D1*
X17074757Y8338883D1*
X17094873Y8315330D1*
X17111057Y8288917D1*
X17122913Y8260300D1*
X17130143Y8230180D1*
X17132573Y8199300D1*
X17130143Y8168420D1*
X17122913Y8138300D1*
X17111057Y8109683D1*
X17094873Y8083270D1*
X17074757Y8059717D1*
X17051203Y8039600D1*
X17024790Y8023417D1*
X16996173Y8011560D1*
X16966053Y8004330D1*
X16935173Y8001900D1*
X16785173Y8002017D1*
X17576860Y7514777D2*
X17545920Y7517203D1*
X17515800Y7524433D1*
X17487183Y7536290D1*
X17460770Y7552473D1*
X17437217Y7572590D1*
X17417100Y7596143D1*
X17400917Y7622557D1*
X17389060Y7651173D1*
X17381830Y7681293D1*
X17379400Y7712173D1*
X17381830Y7743053D1*
X17389060Y7773173D1*
X17400917Y7801790D1*
X17417100Y7828203D1*
X17437217Y7851757D1*
X17460770Y7871873D1*
X17487183Y7888057D1*
X17515800Y7899913D1*
X17545920Y7907143D1*
X17576800Y7909573D1*
X17726800D1*
X17757680Y7907143D1*
X17787800Y7899913D1*
X17816417Y7888057D1*
X17842830Y7871873D1*
X17866383Y7851757D1*
X17886500Y7828203D1*
X17902683Y7801790D1*
X17914540Y7773173D1*
X17921770Y7743053D1*
X17924200Y7712173D1*
X17921770Y7681293D1*
X17914540Y7651173D1*
X17902683Y7622557D1*
X17886500Y7596143D1*
X17866383Y7572590D1*
X17842830Y7552473D1*
X17816417Y7536290D1*
X17787800Y7524433D1*
X17757680Y7517203D1*
X17726800Y7514773D1*
X17576800Y7514890D1*
X16690733Y6252233D2*
X16667120Y6266850D1*
X16643567Y6286967D1*
X16623450Y6310520D1*
X16607267Y6336933D1*
X16595410Y6365550D1*
X16588180Y6395670D1*
X16585750Y6426550D1*
X16588180Y6457430D1*
X16595410Y6487550D1*
X16607267Y6516167D1*
X16623450Y6542580D1*
X16643567Y6566133D1*
X16667120Y6586250D1*
X16693533Y6602433D1*
X16722150Y6614290D1*
X16752270Y6621520D1*
X16783150Y6623950D1*
X16933150D1*
X16964030Y6621520D1*
X16994150Y6614290D1*
X17022767Y6602433D1*
X17049180Y6586250D1*
X17072733Y6566133D1*
X17092850Y6542580D1*
X17109033Y6516167D1*
X17120890Y6487550D1*
X17128120Y6457430D1*
X17130550Y6426550D1*
X17128120Y6395670D1*
X17120890Y6365550D1*
X17109033Y6336933D1*
X17092850Y6310520D1*
X17072733Y6286967D1*
X17049180Y6266850D1*
X17025567Y6252233D1*
X17025550Y6236120D1*
X17287950Y6236200D1*
Y5811400D1*
X16785583D1*
X16785700Y5493900D1*
X16380900D1*
Y5841987D1*
X16136023Y5842243D1*
X16136013Y5791913D1*
X15722637D1*
Y6219963D1*
X16136013D1*
Y6206487D1*
X16380933Y6206700D1*
X16380900Y6236200D1*
X16690860D1*
X16690750Y6252193D1*
X16660900Y6236200D1*
X16690783D1*
X2813510Y1829953D2*
X2782570Y1832380D1*
X2752450Y1839610D1*
X2723833Y1851467D1*
X2708450Y1859950D1*
X2293490D1*
X2269940Y1843117D1*
X2242343Y1829053D1*
X2212883Y1819480D1*
X2182287Y1814637D1*
X2106800Y1814027D1*
X2016800D1*
X1985920Y1816457D1*
X1955800Y1823687D1*
X1927183Y1835543D1*
X1900770Y1851727D1*
X1877217Y1871843D1*
X1857100Y1895397D1*
X1840917Y1921810D1*
X1829060Y1950427D1*
X1821830Y1980547D1*
X1819400Y2011427D1*
X1821830Y2042307D1*
X1829060Y2072427D1*
X1840917Y2101043D1*
X1857100Y2127457D1*
X1877217Y2151010D1*
X1900770Y2171127D1*
X1927183Y2187310D1*
X1955800Y2199167D1*
X1985920Y2206397D1*
X2016860Y2208823D1*
X2182287Y2208217D1*
X2212883Y2203373D1*
X2239900Y2194700D1*
X2708777Y2194750D1*
X2737907Y2209723D1*
X2767367Y2219297D1*
X2797963Y2224140D1*
X2873450Y2224750D1*
X2908113Y2225140D1*
X2934300Y2227200D1*
X3406450D1*
X3428770Y2246000D1*
X3455183Y2262183D1*
X3483800Y2274040D1*
X3513920Y2281270D1*
X3544860Y2283697D1*
X3770287Y2283090D1*
X3800883Y2278247D1*
X3830343Y2268673D1*
X3857940Y2254610D1*
X3883000Y2236403D1*
X3904903Y2214500D1*
X3914013Y2202947D1*
X4313373Y2202963D1*
Y1774913D1*
X3781137D1*
Y1890577D1*
X3754800Y1888900D1*
X3544800D1*
X3513920Y1891330D1*
X3503300Y1892400D1*
X3107557D1*
X3091650Y1877247D1*
X3066590Y1859040D1*
X3038993Y1844977D1*
X3009533Y1835403D1*
X2978937Y1830560D1*
X2903450Y1829950D1*
X2813450Y1830067D1*
X2013860Y3099653D2*
X1982920Y3102080D1*
X1952800Y3109310D1*
X1924183Y3121167D1*
X1897770Y3137350D1*
X1874217Y3157467D1*
X1869490Y3162580D1*
X1847570Y3168093D1*
X1823303Y3178147D1*
X1800903Y3191870D1*
X1780930Y3208930D1*
X1610007Y3380583D1*
X1594567Y3401833D1*
X1582643Y3425240D1*
X1574527Y3450220D1*
X1570417Y3476167D1*
X1569900Y3549300D1*
Y3864650D1*
X1554927Y3893757D1*
X1545353Y3923217D1*
X1540510Y3953813D1*
X1539900Y4029300D1*
X1540510Y4194787D1*
X1545353Y4225383D1*
X1554927Y4254843D1*
X1568990Y4282440D1*
X1587197Y4307500D1*
X1593893Y4314747D1*
X1594417Y4339433D1*
X1598527Y4365380D1*
X1606643Y4390360D1*
X1618567Y4413767D1*
X1634007Y4435017D1*
X1685357Y4487097D1*
X1790013Y4591753D1*
X1792343Y4614653D1*
X1799577Y4644773D1*
X1806840Y4663437D1*
X1682807Y4663373D1*
X1682700Y4627900D1*
X1257900D1*
Y5312700D1*
X1303017D1*
X1302900Y5462683D1*
X1285100Y5483770D1*
X1268917Y5510183D1*
X1257060Y5538800D1*
X1249830Y5568920D1*
X1247403Y5599860D1*
X1248010Y5825287D1*
X1248857Y5832443D1*
X1118637Y5832413D1*
Y6260463D1*
X1536840D1*
Y5984487D1*
X1560830Y5969500D1*
X1584383Y5949383D1*
X1604500Y5925830D1*
X1620683Y5899417D1*
X1632540Y5870800D1*
X1639770Y5840680D1*
X1642200Y5809800D1*
X1641590Y5584313D1*
X1637657Y5558290D1*
X1637700Y5312620D1*
X1682700Y5312700D1*
Y4998130D1*
X1883623Y4998173D1*
X1912773Y5013147D1*
X1942233Y5022717D1*
X1972827Y5027563D1*
X2048313Y5028173D1*
X2213803Y5027563D1*
X2244397Y5022717D1*
X2273857Y5013147D1*
X2301457Y4999083D1*
X2326517Y4980877D1*
X2348417Y4958973D1*
X2366627Y4933913D1*
X2380687Y4906313D1*
X2390260Y4876853D1*
X2395107Y4846260D1*
Y4815283D1*
X2390260Y4784690D1*
X2380687Y4755230D1*
X2366627Y4727630D1*
X2351753Y4706803D1*
X2365627Y4686913D1*
X2379687Y4659313D1*
X2389260Y4629853D1*
X2394107Y4599260D1*
Y4568283D1*
X2389260Y4537690D1*
X2379687Y4508230D1*
X2365627Y4480630D1*
X2347417Y4455570D1*
X2325517Y4433667D1*
X2300457Y4415460D1*
X2272857Y4401400D1*
X2243397Y4391827D1*
X2212803Y4386980D1*
X2137313Y4386373D1*
X2057980D1*
X1986743Y4315003D1*
X2327043Y4314963D1*
Y4004767D1*
X3010700Y4004700D1*
Y3880130D1*
X3049830Y3880200D1*
X3049900Y3925200D1*
X3549860D1*
X3549900Y3932700D1*
X3954700D1*
Y3507900D1*
X3905700Y3507603D1*
Y3403657D1*
X3932917Y3392183D1*
X3948300Y3383700D1*
X4233417D1*
X4256420Y3388770D1*
X4287300Y3391200D1*
X4497300D1*
X4528180Y3388770D1*
X4544607Y3385400D1*
X4544637Y3401463D1*
X5101243D1*
Y2973417D1*
X4544637D1*
Y3002127D1*
X4512787Y2997010D1*
X4437300Y2996400D1*
X4287300D1*
X4256420Y2998830D1*
X4226300Y3006060D1*
X4197683Y3017917D1*
X4171270Y3034100D1*
X4153453Y3048917D1*
X4020700Y3048900D1*
X4031040Y3023300D1*
X4038270Y2993180D1*
X4040700Y2962300D1*
X4038270Y2931420D1*
X4031040Y2901300D1*
X4019183Y2872683D1*
X4003000Y2846270D1*
X3982883Y2822717D1*
X3959330Y2802600D1*
X3932917Y2786417D1*
X3904300Y2774560D1*
X3874180Y2767330D1*
X3843300Y2764900D1*
X3633300D1*
X3602420Y2767330D1*
X3572300Y2774560D1*
X3543683Y2786417D1*
X3517270Y2802600D1*
X3493717Y2822717D1*
X3473600Y2846270D1*
X3457417Y2872683D1*
X3445560Y2901300D1*
X3438330Y2931420D1*
X3436130Y2956430D1*
X3126470Y2646730D1*
X3139333Y2624967D1*
X3151190Y2596350D1*
X3158420Y2566230D1*
X3160850Y2535350D1*
X3158420Y2504470D1*
X3151190Y2474350D1*
X3139333Y2445733D1*
X3123150Y2419320D1*
X3103033Y2395767D1*
X3079480Y2375650D1*
X3053067Y2359467D1*
X3024450Y2347610D1*
X2994330Y2340380D1*
X2963450Y2337950D1*
X2813450D1*
X2782570Y2340380D1*
X2752450Y2347610D1*
X2740350Y2352077D1*
X2271473Y2352027D1*
X2242343Y2337053D1*
X2212883Y2327480D1*
X2182287Y2322637D1*
X2106800Y2322027D1*
X2016800D1*
X1985920Y2324457D1*
X1955800Y2331687D1*
X1927183Y2343543D1*
X1900770Y2359727D1*
X1877217Y2379843D1*
X1857100Y2403397D1*
X1840917Y2429810D1*
X1829060Y2458427D1*
X1821830Y2488547D1*
X1819400Y2519427D1*
X1821830Y2550307D1*
X1829060Y2580427D1*
X1840917Y2609043D1*
X1857100Y2635457D1*
X1877217Y2659010D1*
X1900770Y2679127D1*
X1927183Y2695310D1*
X1955800Y2707167D1*
X1985920Y2714397D1*
X2016800Y2716827D1*
X2166800D1*
X2197680Y2714397D1*
X2227800Y2707167D1*
X2256417Y2695310D1*
X2271800Y2686827D1*
X2686760D1*
X2710310Y2703660D1*
X2737413Y2717497D1*
X2745717Y2732917D1*
X2761157Y2754167D1*
X2812507Y2806247D1*
X3379083Y3372093D1*
X3400333Y3387533D1*
X3423740Y3399457D1*
X3448720Y3407573D1*
X3474667Y3411683D1*
X3547800Y3412200D1*
X3570887D1*
X3570900Y3500480D1*
X3127160Y3500400D1*
X3127200Y3402747D1*
X3136333Y3386667D1*
X3148190Y3358050D1*
X3155420Y3327930D1*
X3157850Y3297050D1*
X3155420Y3266170D1*
X3148190Y3236050D1*
X3136333Y3207433D1*
X3120150Y3181020D1*
X3100033Y3157467D1*
X3076480Y3137350D1*
X3050067Y3121167D1*
X3021450Y3109310D1*
X2991330Y3102080D1*
X2960450Y3099650D1*
X2810450D1*
X2779570Y3102080D1*
X2749450Y3109310D1*
X2720833Y3121167D1*
X2694420Y3137350D1*
X2670867Y3157467D1*
X2650750Y3181020D1*
X2634567Y3207433D1*
X2622710Y3236050D1*
X2615480Y3266170D1*
X2613050Y3297050D1*
X2615480Y3327930D1*
X2622710Y3358050D1*
X2634567Y3386667D1*
X2650750Y3413080D1*
X2670867Y3436633D1*
X2694420Y3456750D1*
X2720833Y3472933D1*
X2749450Y3484790D1*
X2779570Y3492020D1*
X2792377Y3493537D1*
X2792400Y3579877D1*
X2327113Y3579900D1*
X2312700Y3565460D1*
Y3426557D1*
X2323500Y3413080D1*
X2339683Y3386667D1*
X2351540Y3358050D1*
X2358770Y3327930D1*
X2361200Y3297050D1*
X2358770Y3266170D1*
X2351540Y3236050D1*
X2339683Y3207433D1*
X2323500Y3181020D1*
X2303383Y3157467D1*
X2279830Y3137350D1*
X2253417Y3121167D1*
X2224800Y3109310D1*
X2194680Y3102080D1*
X2163800Y3099650D1*
X2013800Y3099767D1*
X1916507Y3886887D2*
X1904637Y3864700D1*
X1904700Y3558557D1*
X1968613Y3494727D1*
X1977900Y3515613D1*
X1978417Y3647933D1*
X1982523Y3673880D1*
X1990643Y3698860D1*
X2002567Y3722267D1*
X2018007Y3743517D1*
X2069357Y3795597D1*
X2160757Y3886997D1*
X1916770Y3886913D1*
X15643137Y8286963D2*
X16026513D1*
Y7858913D1*
X15613137D1*
Y8286963D1*
X15643137D1*
D17*
X3040533Y10844303D3*
Y10564303D3*
D18*
X1912533Y10856303D3*
X1632533D3*
D19*
X3015033Y11055803D3*
Y11355803D3*
D17*
X3007533Y12254303D3*
Y12534303D3*
D20*
X2511300Y11127300D3*
X2509647Y10580747D3*
D21*
X2272713Y10851680D3*
X2757853Y10854220D3*
D22*
X1288800Y10615800D3*
Y10869800D3*
X14049300Y8164800D3*
Y7910800D3*
X6594300Y9022800D3*
Y8768800D3*
Y8514800D3*
Y8260800D3*
X7356300D3*
Y8514800D3*
Y8768800D3*
Y9022800D3*
D23*
X6661800Y7680300D3*
X7677800D3*
X6661800Y6537300D3*
X7677800D3*
D22*
X10383300Y12891300D3*
Y12637300D3*
D24*
X7930800Y9961800D3*
X7630800D3*
D22*
X8605800Y9102300D3*
Y8848300D3*
D25*
X9228300Y11731800D3*
Y11477800D3*
D18*
X7957800Y9039300D3*
X7677800D3*
D17*
X3256533Y12237803D3*
Y12517803D3*
D18*
X7947300Y9583800D3*
X7667300D3*
X7951800Y9313800D3*
X7671800D3*
D22*
X9217933Y12207233D3*
Y12461333D3*
Y12715310D3*
X8139300Y12732300D3*
Y12478300D3*
D18*
X8584800Y12721800D3*
X8864800D3*
D17*
X6249300Y8746800D3*
Y8466800D3*
X7372800Y7722300D3*
Y8002300D3*
X9288300Y8688300D3*
Y8968300D3*
X9268800Y7036800D3*
Y6756800D3*
X10480800Y8641800D3*
Y8921800D3*
D22*
X8619300Y7590300D3*
Y8072900D3*
X9286800Y8073300D3*
Y7590700D3*
X9867300Y7591800D3*
Y8074400D3*
X10476300Y8073300D3*
Y7590700D3*
D17*
X10981800Y7563300D3*
Y7283300D3*
X8119800Y7246800D3*
Y7526800D3*
D23*
X10096800Y7069800D3*
X11112800D3*
X10096800Y5926800D3*
X11112800D3*
D18*
X11710800Y8271300D3*
X11430800D3*
D22*
X12081300Y8227800D3*
Y7973800D3*
Y7719800D3*
Y7465800D3*
X12843300D3*
Y7719800D3*
Y7973800D3*
Y8227800D3*
D19*
X12328800Y9375300D3*
Y9675300D3*
D18*
X13107300Y8572800D3*
X12827300D3*
X13111800Y8820300D3*
X12831800D3*
X13116300Y9084300D3*
X12836300D3*
D17*
X11688300Y7965300D3*
Y7685300D3*
D24*
X15297300Y9240300D3*
X14997300D3*
D18*
X4180800Y7876800D3*
X3900800D3*
D26*
X5029800Y8902800D3*
Y9156800D3*
Y9410800D3*
Y9664800D3*
X1629800D3*
Y9410800D3*
Y9156800D3*
Y8902800D3*
D23*
X6016800Y10206300D3*
X5000800D3*
X6016800Y11349300D3*
X5000800D3*
D17*
X3507033Y12246803D3*
Y12526803D3*
X3745533Y12255803D3*
Y12535803D3*
D18*
X6445800Y9280800D3*
X6165800D3*
D25*
X9934800Y12892800D3*
Y12638800D3*
D27*
X2746800Y11836800D3*
X3000800D3*
D18*
X8020800Y8506800D3*
X7740800D3*
X13666800Y7716300D3*
X13386800D3*
D17*
X4429267Y10828307D3*
Y10548307D3*
D19*
X3369033Y10860803D3*
Y10560803D3*
X4420267Y11039807D3*
Y11339807D3*
D17*
X4443300Y12244800D3*
Y12524800D3*
D20*
X3885300Y11143800D3*
X3883647Y10597247D3*
D21*
X3646713Y10868180D3*
X4131853Y10870720D3*
D17*
X4687800Y12246300D3*
Y12526300D3*
X4938300Y12246300D3*
Y12526300D3*
X5181300Y12246300D3*
Y12526300D3*
D27*
X4167300Y11820300D3*
X4421300D3*
D24*
X3936033Y12521303D3*
X4236033D3*
D25*
X7017434Y11158532D3*
X7016434Y10908532D3*
X7015434Y10661532D3*
D17*
X7639800Y10621800D3*
Y10901800D3*
X7873800Y10620300D3*
Y10900300D3*
X8124300Y10629300D3*
Y10909300D3*
X8362800Y10638300D3*
Y10918300D3*
D24*
X8088300Y11431800D3*
X8388300D3*
D18*
X6991800Y11493300D3*
X7271800D3*
D17*
X7875300Y11427300D3*
Y11147300D3*
D27*
X4778068Y7736434D3*
X5028068Y7735434D3*
X5275068Y7734434D3*
D18*
X5373300Y7240800D3*
X5093300D3*
X5371800Y6396300D3*
X5091800D3*
X5385300Y6690300D3*
X5105300D3*
X5368800Y6985800D3*
X5088800D3*
D19*
X4576800Y6469800D3*
Y6169800D3*
D17*
X4468800Y7777800D3*
Y7497800D3*
D18*
X4584300Y6703800D3*
X4864300D3*
D19*
X5826300Y9267300D3*
Y8967300D3*
D22*
X15250800Y12907800D3*
Y12653800D3*
D17*
X13105713Y11898343D3*
Y12178343D3*
D22*
X13819846Y12378276D3*
Y12632376D3*
Y12886353D3*
X12732213Y12921343D3*
Y12667343D3*
D18*
X13107213Y12906343D3*
X13387213D3*
D25*
X14562300Y12900300D3*
Y12646300D3*
D17*
X3244800Y6147300D3*
Y6427300D3*
D28*
X2509779Y6160841D3*
X2510779Y6410841D3*
X2511779Y6657841D3*
D18*
X3513300Y6126300D3*
X3793300D3*
D17*
X2686800Y7144800D3*
Y7424800D3*
D18*
X2979300Y7044300D3*
X3259300D3*
X3772800Y7282800D3*
X3492800D3*
D26*
X2989800Y5926800D3*
Y5672800D3*
D17*
X3192300Y7945800D3*
Y8225800D3*
D18*
X3778933Y7027533D3*
X3498933D3*
D28*
X2704800Y8226300D3*
Y7976300D3*
Y7726300D3*
D17*
X3429300Y8233800D3*
Y8513800D3*
X2962800Y6433800D3*
Y6713800D3*
X6507300Y11104800D3*
Y10824800D3*
D29*
X7198800Y1603800D3*
D27*
X4084800Y5377800D3*
X3830800D3*
D22*
X4366774Y4815314D3*
Y4561214D3*
Y4307237D3*
X3264300Y4725300D3*
Y4979300D3*
D18*
X3511800Y4357800D3*
X3791800D3*
D25*
X5250300Y4299300D3*
Y4045300D3*
X15289887Y10134126D3*
X15288887Y9884126D3*
X15287887Y9637126D3*
D17*
X14149800Y9630300D3*
Y9910300D3*
X14383800Y9628800D3*
Y9908800D3*
X14634300Y9637800D3*
Y9917800D3*
X14872853Y9613693D3*
Y9893693D3*
D19*
X14391353Y10684693D3*
Y10984693D3*
D18*
X15312300Y10516800D3*
X15592300D3*
D17*
X14385300Y10435800D3*
Y10155800D3*
D25*
X13108719Y5632961D3*
X13109719Y5882961D3*
X13110719Y6129961D3*
D17*
X12601800Y6421800D3*
Y6141800D3*
X12375300Y6433800D3*
Y6153800D3*
X12150300Y6426300D3*
Y6146300D3*
X11905800Y6435300D3*
Y6155300D3*
D24*
X11662800Y5292300D3*
X11362800D3*
D18*
X13461300Y5641800D3*
X13741300D3*
D17*
X11682300Y5853300D3*
Y6133300D3*
D22*
X18252300Y6906300D3*
Y7160300D3*
D30*
X19410300Y11194800D3*
Y11067800D3*
Y10940800D3*
Y10813800D3*
X19950300D3*
Y10940800D3*
Y11067800D3*
Y11194800D3*
D31*
X19563300Y11553300D3*
X19817300D3*
D17*
X20241300Y11136300D3*
Y11416300D3*
D28*
X18576300Y11161800D3*
Y10911800D3*
Y10661800D3*
D18*
X18394800Y11766300D3*
X18114800D3*
X18891300Y11770800D3*
X18611300D3*
D17*
X20602800Y10459800D3*
Y10739800D3*
D23*
X18817800Y9813300D3*
X19071800D3*
D18*
X19932300Y10483800D3*
X19652300D3*
X19633800Y10225800D3*
X19353800D3*
D31*
X19660800Y9823800D3*
X19914800D3*
D17*
X20347800Y10453800D3*
Y10733800D3*
D28*
X17758699Y10911501D3*
X17759699Y11161501D3*
X17760699Y11408501D3*
D18*
X17559300Y11755800D3*
X17839300D3*
D17*
X17154300Y11553300D3*
Y11273300D3*
X17134800Y11028300D3*
Y10748300D3*
D18*
X17767800Y10566300D3*
X17487800D3*
X16567800Y11274300D3*
X16847800D3*
D31*
X17793300Y10164300D3*
X17539300D3*
X16882800Y11832300D3*
X16628800D3*
D18*
X16585800Y12258300D3*
X16865800D3*
D17*
X18393300Y12025800D3*
Y12305800D3*
D18*
X19017300Y12333300D3*
X19297300D3*
D26*
X18732300Y12475800D3*
Y12729800D3*
D17*
X15688800Y4245550D3*
Y3965550D3*
X15435300Y3960300D3*
Y4240300D3*
X16165050Y5007550D3*
Y4727550D3*
X16260300Y2753300D3*
Y2473300D3*
X16387300Y4213800D3*
Y3933800D3*
D81*
X16419050Y4785300D3*
X16414590Y4505333D3*
D18*
X16831800Y3642300D3*
X17111800D3*
X16958800Y5039300D3*
X17238800D3*
X16958800Y4753550D3*
X17238800D3*
D17*
X18959050Y3864550D3*
Y4144550D3*
D18*
X14283300Y4513800D3*
X14563300D3*
D17*
X15911050Y5007550D3*
Y4727550D3*
X16514300Y2467550D3*
Y2747550D3*
X16609550Y4213800D3*
Y3933800D3*
D18*
X18292300Y2372300D3*
X18012300D3*
X18006550Y3324800D3*
X18286550D3*
X20709300Y1863300D3*
X20989300D3*
X19911550Y3737550D3*
X20191550D3*
X19943300Y2880300D3*
X19663300D3*
D17*
X20927550Y4436050D3*
Y4716050D3*
D18*
X19149550Y2626300D3*
X18869550D3*
D32*
X17403300Y4055050D3*
X17196927Y4245600D3*
X17387427Y4452000D3*
D29*
X19666800Y4297800D3*
D26*
X18990800Y4594800D3*
Y4848800D3*
Y5102800D3*
D18*
X19149550Y2308800D3*
X18869550D3*
D23*
X16006300Y2753300D3*
X15205750Y2741333D3*
X16014277Y3605040D3*
X15213730Y3593073D3*
D26*
X17974800Y2943800D3*
X17986767Y2143250D3*
X17123060Y2951777D3*
X17135027Y2151230D3*
D23*
X20387800Y4467800D3*
X21188350Y4479767D3*
X20379823Y3616060D3*
X21180370Y3628027D3*
D26*
X21213300Y2277300D3*
X20359007Y3076563D3*
D33*
X17656800Y8199300D3*
X16860173D3*
X16855150Y7696250D3*
X17651800Y7712173D3*
X17654800Y6426550D3*
X16858150D3*
X16855150Y7188250D3*
X17651800Y7204173D3*
D34*
X19939300Y2400050D3*
X19689300D3*
X19439300D3*
X21666300Y1860300D3*
X21412300D3*
D17*
X16831800Y4213800D3*
Y3933800D3*
X18959050Y3610550D3*
Y3330550D3*
D18*
X16863300Y6023800D3*
X16583300D3*
X17085550D3*
X17365550D3*
D23*
X21642300Y8574300D3*
X21388300D3*
X21134300D3*
X20880300D3*
Y5174300D3*
X21134300D3*
X21388300D3*
X21642300D3*
D35*
X16264800Y6024300D3*
D17*
X16132800Y6979800D3*
Y7259800D3*
X15222300Y6619800D3*
Y6899800D3*
D18*
X15525300Y6637800D3*
X15805300D3*
X15930300Y6982800D3*
X15650300D3*
D23*
X15619800Y7362300D3*
X15369800D3*
X15119800D3*
D18*
X19149550Y2912050D3*
X18869550D3*
X18292300Y2594550D3*
X18012300D3*
D17*
X15784050Y2372300D3*
Y2652300D3*
X14169300Y1723800D3*
Y1443800D3*
D18*
X16863300Y5706300D3*
X16583300D3*
D26*
X14764800Y6664800D3*
Y6410800D3*
D22*
X16362300Y8836800D3*
Y8582800D3*
X9706800Y11125800D3*
Y10871800D3*
Y10617800D3*
X12667713Y12106843D3*
X9693300Y10242300D3*
D29*
X4137300Y6970800D3*
D28*
X16009881Y4461139D3*
X16008881Y4211139D3*
X16007881Y3964139D3*
D29*
X20275800Y2428800D3*
X18903300Y5644800D3*
X21600300Y6762300D3*
D35*
X12847800Y1801800D3*
D29*
X15400800Y6171300D3*
X16899300Y8829300D3*
X16338300Y10549800D3*
X20707800Y9916800D3*
X20263800Y12123300D3*
X15705300Y11796300D3*
X13771800Y8877300D3*
X12994800Y10311300D3*
X8241300Y9396300D3*
X12126300Y8886300D3*
X9829800Y8776800D3*
X9697800Y6807300D3*
X12351300Y6942300D3*
X5977800Y7216800D3*
X5262300Y4881300D3*
X10927800Y2362800D3*
X15351300Y1965300D3*
X16809300Y1878300D3*
X18504300Y3019800D3*
X8943300Y10974300D3*
X5506800Y11748300D3*
X3271800Y9070800D3*
X4756800Y10201800D3*
D18*
X12904800Y7177800D3*
X13184800D3*
D17*
X7417800Y9609300D3*
Y9889300D3*
X12574800Y9088800D3*
Y9368800D3*
D25*
X10900800Y9819300D3*
Y9565300D3*
D17*
X13353213Y11908843D3*
Y12188843D3*
D29*
X14905800Y12291300D3*
X11730300Y12342300D3*
X10078800Y12253800D3*
D28*
X20926800Y10755300D3*
Y10501300D3*
D17*
X20902800Y11409300D3*
Y11129300D3*
D26*
X12831300Y4008300D3*
Y4262300D3*
Y4516300D3*
Y4770300D3*
X9431300D3*
Y4516300D3*
Y4262300D3*
Y4008300D3*
D29*
X2769300Y5287800D3*
D17*
X13222800Y4473300D3*
Y4753300D3*
D19*
X14295300Y4336800D3*
Y4036800D3*
D17*
X14293800Y3465300D3*
Y3185300D3*
D20*
X13755300Y4780800D3*
X13753647Y4234247D3*
D21*
X13516713Y4505180D3*
X14001853Y4507720D3*
D17*
X14073300Y3460800D3*
Y3180800D3*
X13855800Y3469800D3*
Y3189800D3*
X13623300Y3465300D3*
Y3185300D3*
D27*
X14559300Y3774300D3*
X14305300D3*
D29*
X1279800Y10267800D3*
X18229800Y6447300D3*
D33*
X2086800Y1524300D3*
X2883427D3*
X2888450Y2027350D3*
X2091800Y2011427D3*
X2088800Y3297050D3*
X2885450D3*
X2888450Y2535350D3*
X2091800Y2519427D3*
D18*
X3252300Y3712800D3*
X3532300D3*
X2808300Y3792300D3*
X2528300D3*
X4032300Y3720300D3*
X3752300D3*
D22*
X4392300Y3193800D3*
Y2939800D3*
X4905300Y1828800D3*
Y1574800D3*
D29*
X4054800Y2605800D3*
D22*
X3649800Y2340300D3*
Y2086300D3*
X3738300Y3216300D3*
Y2962300D3*
D29*
X5415300Y3093300D3*
D22*
X2094321Y5080759D3*
X2093321Y4830759D3*
X2092321Y4583759D3*
D34*
X1737300Y4074300D3*
X1483300D3*
D17*
X1470300Y4830300D3*
Y5110300D3*
D34*
X1444800Y5704800D3*
X1698800D3*
D29*
X1533300Y7407300D3*
D18*
X16392300Y7489800D3*
X16112300D3*
D29*
X18319800Y9993300D3*
G36*
X2472482Y11036975D2*
X2560218D1*
Y10664536D1*
X2472482D1*
Y11036975D1*
G37*
G36*
X3846482Y11053475D2*
X3934218D1*
Y10681036D1*
X3846482D1*
Y11053475D1*
G37*
G36*
X13716482Y4690475D2*
X13804218D1*
Y4318036D1*
X13716482D1*
Y4690475D1*
G37*
M02*
