G04 DipTrace 3.0.0.2*
G04 TopPaste.gbr*
%MOMM*%
G04 #@! TF.FileFunction,Paste,Top*
G04 #@! TF.Part,Single*
%AMOUTLINE2*
4,1,4,
-0.78677,0.71062,
0.80902,0.6852,
0.78677,-0.71062,
-0.80902,-0.6852,
-0.78677,0.71062,
0*%
%ADD42O,3.396X0.996*%
%ADD44O,1.296X3.396*%
%ADD46O,2.796X1.296*%
%ADD48O,3.046X1.416*%
%ADD50O,1.196X2.396*%
%ADD52R,1.796X0.396*%
%ADD56O,2.396X1.196*%
%ADD58O,1.196X3.396*%
%ADD60O,3.046X1.416*%
%ADD62O,3.396X1.196*%
%ADD64R,0.996X1.396*%
%ADD66O,1.416X3.046*%
%ADD68O,3.396X1.296*%
%ADD70R,2.2598X1.4724*%
%ADD72R,3.352X2.2598*%
%ADD74R,1.396X0.996*%
%ADD76R,1.396X1.596*%
%ADD78R,1.596X1.396*%
%ADD83OUTLINE2*%
%FSLAX35Y35*%
G04*
G71*
G90*
G75*
G01*
G04 TopPaste*
%LPD*%
D78*
X3040533Y10844303D3*
Y10564303D3*
D76*
X1912533Y10856303D3*
X1632533D3*
D74*
X3015033Y11055803D3*
Y11355803D3*
D78*
X3007533Y12254303D3*
Y12534303D3*
D72*
X2511300Y11127300D3*
X2509647Y10580747D3*
D70*
X2272713Y10851680D3*
X2757853Y10854220D3*
D68*
X1288800Y10615800D3*
Y10869800D3*
X14049300Y8164800D3*
Y7910800D3*
X6594300Y9022800D3*
Y8768800D3*
Y8514800D3*
Y8260800D3*
X7356300D3*
Y8514800D3*
Y8768800D3*
Y9022800D3*
D66*
X6661800Y7680300D3*
X7677800D3*
X6661800Y6537300D3*
X7677800D3*
D68*
X10383300Y12891300D3*
Y12637300D3*
D64*
X7930800Y9961800D3*
X7630800D3*
D68*
X8605800Y9102300D3*
Y8848300D3*
D62*
X9228300Y11731800D3*
Y11477800D3*
D76*
X7957800Y9039300D3*
X7677800D3*
D78*
X3256533Y12237803D3*
Y12517803D3*
D76*
X7947300Y9583800D3*
X7667300D3*
X7951800Y9313800D3*
X7671800D3*
D68*
X9217933Y12207233D3*
Y12461333D3*
Y12715310D3*
X8139300Y12732300D3*
Y12478300D3*
D76*
X8584800Y12721800D3*
X8864800D3*
D78*
X6249300Y8746800D3*
Y8466800D3*
X7372800Y7722300D3*
Y8002300D3*
X9288300Y8688300D3*
Y8968300D3*
X9268800Y7036800D3*
Y6756800D3*
X10480800Y8641800D3*
Y8921800D3*
D68*
X8619300Y7590300D3*
Y8072900D3*
X9286800Y8073300D3*
Y7590700D3*
X9867300Y7591800D3*
Y8074400D3*
X10476300Y8073300D3*
Y7590700D3*
D78*
X10981800Y7563300D3*
Y7283300D3*
X8119800Y7246800D3*
Y7526800D3*
D66*
X10096800Y7069800D3*
X11112800D3*
X10096800Y5926800D3*
X11112800D3*
D76*
X11710800Y8271300D3*
X11430800D3*
D68*
X12081300Y8227800D3*
Y7973800D3*
Y7719800D3*
Y7465800D3*
X12843300D3*
Y7719800D3*
Y7973800D3*
Y8227800D3*
D74*
X12328800Y9375300D3*
Y9675300D3*
D76*
X13107300Y8572800D3*
X12827300D3*
X13111800Y8820300D3*
X12831800D3*
X13116300Y9084300D3*
X12836300D3*
D78*
X11688300Y7965300D3*
Y7685300D3*
D64*
X15297300Y9240300D3*
X14997300D3*
D76*
X4180800Y7876800D3*
X3900800D3*
D60*
X5029800Y8902800D3*
Y9156800D3*
Y9410800D3*
Y9664800D3*
X1629800D3*
Y9410800D3*
Y9156800D3*
Y8902800D3*
D66*
X6016800Y10206300D3*
X5000800D3*
X6016800Y11349300D3*
X5000800D3*
D78*
X3507033Y12246803D3*
Y12526803D3*
X3745533Y12255803D3*
Y12535803D3*
D76*
X6445800Y9280800D3*
X6165800D3*
D62*
X9934800Y12892800D3*
Y12638800D3*
D58*
X2746800Y11836800D3*
X3000800D3*
D76*
X8020800Y8506800D3*
X7740800D3*
X13666800Y7716300D3*
X13386800D3*
D78*
X4429267Y10828307D3*
Y10548307D3*
D74*
X3369033Y10860803D3*
Y10560803D3*
X4420267Y11039807D3*
Y11339807D3*
D78*
X4443300Y12244800D3*
Y12524800D3*
D72*
X3885300Y11143800D3*
X3883647Y10597247D3*
D70*
X3646713Y10868180D3*
X4131853Y10870720D3*
D78*
X4687800Y12246300D3*
Y12526300D3*
X4938300Y12246300D3*
Y12526300D3*
X5181300Y12246300D3*
Y12526300D3*
D58*
X4167300Y11820300D3*
X4421300D3*
D64*
X3936033Y12521303D3*
X4236033D3*
D62*
X7017434Y11158532D3*
X7016434Y10908532D3*
X7015434Y10661532D3*
D78*
X7639800Y10621800D3*
Y10901800D3*
X7873800Y10620300D3*
Y10900300D3*
X8124300Y10629300D3*
Y10909300D3*
X8362800Y10638300D3*
Y10918300D3*
D64*
X8088300Y11431800D3*
X8388300D3*
D76*
X6991800Y11493300D3*
X7271800D3*
D78*
X7875300Y11427300D3*
Y11147300D3*
D58*
X4778068Y7736434D3*
X5028068Y7735434D3*
X5275068Y7734434D3*
D76*
X5373300Y7240800D3*
X5093300D3*
X5371800Y6396300D3*
X5091800D3*
X5385300Y6690300D3*
X5105300D3*
X5368800Y6985800D3*
X5088800D3*
D74*
X4576800Y6469800D3*
Y6169800D3*
D78*
X4468800Y7777800D3*
Y7497800D3*
D76*
X4584300Y6703800D3*
X4864300D3*
D74*
X5826300Y9267300D3*
Y8967300D3*
D68*
X15250800Y12907800D3*
Y12653800D3*
D78*
X13105713Y11898343D3*
Y12178343D3*
D68*
X13819846Y12378276D3*
Y12632376D3*
Y12886353D3*
X12732213Y12921343D3*
Y12667343D3*
D76*
X13107213Y12906343D3*
X13387213D3*
D62*
X14562300Y12900300D3*
Y12646300D3*
D78*
X3244800Y6147300D3*
Y6427300D3*
D56*
X2509779Y6160841D3*
X2510779Y6410841D3*
X2511779Y6657841D3*
D76*
X3513300Y6126300D3*
X3793300D3*
D78*
X2686800Y7144800D3*
Y7424800D3*
D76*
X2979300Y7044300D3*
X3259300D3*
X3772800Y7282800D3*
X3492800D3*
D60*
X2989800Y5926800D3*
Y5672800D3*
D78*
X3192300Y7945800D3*
Y8225800D3*
D76*
X3778933Y7027533D3*
X3498933D3*
D56*
X2704800Y8226300D3*
Y7976300D3*
Y7726300D3*
D78*
X3429300Y8233800D3*
Y8513800D3*
X2962800Y6433800D3*
Y6713800D3*
X6507300Y11104800D3*
Y10824800D3*
D58*
X4084800Y5377800D3*
X3830800D3*
D68*
X4366774Y4815314D3*
Y4561214D3*
Y4307237D3*
X3264300Y4725300D3*
Y4979300D3*
D76*
X3511800Y4357800D3*
X3791800D3*
D62*
X5250300Y4299300D3*
Y4045300D3*
X15289887Y10134126D3*
X15288887Y9884126D3*
X15287887Y9637126D3*
D78*
X14149800Y9630300D3*
Y9910300D3*
X14383800Y9628800D3*
Y9908800D3*
X14634300Y9637800D3*
Y9917800D3*
X14872853Y9613693D3*
Y9893693D3*
D74*
X14391353Y10684693D3*
Y10984693D3*
D76*
X15312300Y10516800D3*
X15592300D3*
D78*
X14385300Y10435800D3*
Y10155800D3*
D62*
X13108719Y5632961D3*
X13109719Y5882961D3*
X13110719Y6129961D3*
D78*
X12601800Y6421800D3*
Y6141800D3*
X12375300Y6433800D3*
Y6153800D3*
X12150300Y6426300D3*
Y6146300D3*
X11905800Y6435300D3*
Y6155300D3*
D64*
X11662800Y5292300D3*
X11362800D3*
D76*
X13461300Y5641800D3*
X13741300D3*
D78*
X11682300Y5853300D3*
Y6133300D3*
D68*
X18252300Y6906300D3*
Y7160300D3*
D52*
X19410300Y11194800D3*
Y11067800D3*
Y10940800D3*
Y10813800D3*
X19950300D3*
Y10940800D3*
Y11067800D3*
Y11194800D3*
D50*
X19563300Y11553300D3*
X19817300D3*
D78*
X20241300Y11136300D3*
Y11416300D3*
D56*
X18576300Y11161800D3*
Y10911800D3*
Y10661800D3*
D76*
X18394800Y11766300D3*
X18114800D3*
X18891300Y11770800D3*
X18611300D3*
D78*
X20602800Y10459800D3*
Y10739800D3*
D66*
X18817800Y9813300D3*
X19071800D3*
D76*
X19932300Y10483800D3*
X19652300D3*
X19633800Y10225800D3*
X19353800D3*
D50*
X19660800Y9823800D3*
X19914800D3*
D78*
X20347800Y10453800D3*
Y10733800D3*
D56*
X17758699Y10911501D3*
X17759699Y11161501D3*
X17760699Y11408501D3*
D76*
X17559300Y11755800D3*
X17839300D3*
D78*
X17154300Y11553300D3*
Y11273300D3*
X17134800Y11028300D3*
Y10748300D3*
D76*
X17767800Y10566300D3*
X17487800D3*
X16567800Y11274300D3*
X16847800D3*
D50*
X17793300Y10164300D3*
X17539300D3*
X16882800Y11832300D3*
X16628800D3*
D76*
X16585800Y12258300D3*
X16865800D3*
D78*
X18393300Y12025800D3*
Y12305800D3*
D76*
X19017300Y12333300D3*
X19297300D3*
D60*
X18732300Y12475800D3*
Y12729800D3*
D78*
X15688800Y4245550D3*
Y3965550D3*
X15435300Y3960300D3*
Y4240300D3*
X16165050Y5007550D3*
Y4727550D3*
X16260300Y2753300D3*
Y2473300D3*
X16387300Y4213800D3*
Y3933800D3*
D83*
X16419050Y4785300D3*
X16414590Y4505333D3*
D76*
X16831800Y3642300D3*
X17111800D3*
X16958800Y5039300D3*
X17238800D3*
X16958800Y4753550D3*
X17238800D3*
D78*
X18959050Y3864550D3*
Y4144550D3*
D76*
X14283300Y4513800D3*
X14563300D3*
D78*
X15911050Y5007550D3*
Y4727550D3*
X16514300Y2467550D3*
Y2747550D3*
X16609550Y4213800D3*
Y3933800D3*
D76*
X18292300Y2372300D3*
X18012300D3*
X18006550Y3324800D3*
X18286550D3*
X20709300Y1863300D3*
X20989300D3*
X19911550Y3737550D3*
X20191550D3*
X19943300Y2880300D3*
X19663300D3*
D78*
X20927550Y4436050D3*
Y4716050D3*
D76*
X19149550Y2626300D3*
X18869550D3*
D48*
X17403300Y4055050D3*
X17196927Y4245600D3*
X17387427Y4452000D3*
D60*
X18990800Y4594800D3*
Y4848800D3*
Y5102800D3*
D76*
X19149550Y2308800D3*
X18869550D3*
D66*
X16006300Y2753300D3*
X15205750Y2741333D3*
X16014277Y3605040D3*
X15213730Y3593073D3*
D60*
X17974800Y2943800D3*
X17986767Y2143250D3*
X17123060Y2951777D3*
X17135027Y2151230D3*
D66*
X20387800Y4467800D3*
X21188350Y4479767D3*
X20379823Y3616060D3*
X21180370Y3628027D3*
D60*
X21213300Y2277300D3*
X20359007Y3076563D3*
D46*
X17656800Y8199300D3*
X16860173D3*
X16855150Y7696250D3*
X17651800Y7712173D3*
X17654800Y6426550D3*
X16858150D3*
X16855150Y7188250D3*
X17651800Y7204173D3*
D44*
X19939300Y2400050D3*
X19689300D3*
X19439300D3*
X21666300Y1860300D3*
X21412300D3*
D78*
X16831800Y4213800D3*
Y3933800D3*
X18959050Y3610550D3*
Y3330550D3*
D76*
X16863300Y6023800D3*
X16583300D3*
X17085550D3*
X17365550D3*
D66*
X21642300Y8574300D3*
X21388300D3*
X21134300D3*
X20880300D3*
Y5174300D3*
X21134300D3*
X21388300D3*
X21642300D3*
D42*
X16264800Y6024300D3*
D78*
X16132800Y6979800D3*
Y7259800D3*
X15222300Y6619800D3*
Y6899800D3*
D76*
X15525300Y6637800D3*
X15805300D3*
X15930300Y6982800D3*
X15650300D3*
D66*
X15619800Y7362300D3*
X15369800D3*
X15119800D3*
D76*
X19149550Y2912050D3*
X18869550D3*
X18292300Y2594550D3*
X18012300D3*
D78*
X15784050Y2372300D3*
Y2652300D3*
X14169300Y1723800D3*
Y1443800D3*
D76*
X16863300Y5706300D3*
X16583300D3*
D60*
X14764800Y6664800D3*
Y6410800D3*
D68*
X16362300Y8836800D3*
Y8582800D3*
X9706800Y11125800D3*
Y10871800D3*
Y10617800D3*
X12667713Y12106843D3*
X9693300Y10242300D3*
D56*
X16009881Y4461139D3*
X16008881Y4211139D3*
X16007881Y3964139D3*
D42*
X12847800Y1801800D3*
D76*
X12904800Y7177800D3*
X13184800D3*
D78*
X7417800Y9609300D3*
Y9889300D3*
X12574800Y9088800D3*
Y9368800D3*
D62*
X10900800Y9819300D3*
Y9565300D3*
D78*
X13353213Y11908843D3*
Y12188843D3*
D56*
X20926800Y10755300D3*
Y10501300D3*
D78*
X20902800Y11409300D3*
Y11129300D3*
D60*
X12831300Y4008300D3*
Y4262300D3*
Y4516300D3*
Y4770300D3*
X9431300D3*
Y4516300D3*
Y4262300D3*
Y4008300D3*
D78*
X13222800Y4473300D3*
Y4753300D3*
D74*
X14295300Y4336800D3*
Y4036800D3*
D78*
X14293800Y3465300D3*
Y3185300D3*
D72*
X13755300Y4780800D3*
X13753647Y4234247D3*
D70*
X13516713Y4505180D3*
X14001853Y4507720D3*
D78*
X14073300Y3460800D3*
Y3180800D3*
X13855800Y3469800D3*
Y3189800D3*
X13623300Y3465300D3*
Y3185300D3*
D58*
X14559300Y3774300D3*
X14305300D3*
D46*
X2086800Y1524300D3*
X2883427D3*
X2888450Y2027350D3*
X2091800Y2011427D3*
X2088800Y3297050D3*
X2885450D3*
X2888450Y2535350D3*
X2091800Y2519427D3*
D76*
X3252300Y3712800D3*
X3532300D3*
X2808300Y3792300D3*
X2528300D3*
X4032300Y3720300D3*
X3752300D3*
D68*
X4392300Y3193800D3*
Y2939800D3*
X4905300Y1828800D3*
Y1574800D3*
X3649800Y2340300D3*
Y2086300D3*
X3738300Y3216300D3*
Y2962300D3*
X2094321Y5080759D3*
X2093321Y4830759D3*
X2092321Y4583759D3*
D44*
X1737300Y4074300D3*
X1483300D3*
D78*
X1470300Y4830300D3*
Y5110300D3*
D44*
X1444800Y5704800D3*
X1698800D3*
D76*
X16392300Y7489800D3*
X16112300D3*
M02*
