G04 DipTrace 3.0.0.2*
G04 TopSilk.gbr*
%MOMM*%
G04 #@! TF.FileFunction,Legend,Top*
G04 #@! TF.Part,Single*
%ADD10C,0.25*%
%FSLAX35Y35*%
G04*
G71*
G90*
G75*
G01*
G04 TopSilk*
%LPD*%
X2960613Y10715303D2*
D10*
X3120453D1*
X2960613Y10734223D2*
X3120453D1*
X2960613D2*
Y10674383D1*
X3120453Y10734223D2*
Y10674383D1*
X1783533Y10936223D2*
Y10776383D1*
X1802453Y10936223D2*
Y10776383D1*
Y10936223D2*
X1742613D1*
X1802453Y10776383D2*
X1742613D1*
X3085113Y11165735D2*
Y11245745D1*
X2945113Y11165735D2*
Y11245745D1*
X3087453Y12364383D2*
Y12424223D1*
X2927613Y12364383D2*
Y12424223D1*
X2620404Y10993120D2*
X2407060D1*
Y10711922D1*
X2620404D1*
Y10993120D1*
X2895528Y11264135D2*
X2136565D1*
Y10442878D1*
X2895528D1*
Y11264135D1*
X2411158Y10855396D2*
X2411418Y10862001D1*
X2412197Y10868574D1*
X2413491Y10875083D1*
X2415295Y10881496D1*
X2417598Y10887782D1*
X2420390Y10893910D1*
X2423658Y10899850D1*
X2427384Y10905574D1*
X2431552Y10911053D1*
X2436141Y10916262D1*
X2441129Y10921173D1*
X2446490Y10925765D1*
X2452200Y10930013D1*
X2458230Y10933898D1*
X2464551Y10937400D1*
X2471132Y10940503D1*
X2477941Y10943191D1*
X2484945Y10945452D1*
X2492110Y10947274D1*
X2499401Y10948648D1*
X2506782Y10949568D1*
X2514217Y10950029D1*
X2521671D1*
X2529106Y10949568D1*
X2536487Y10948648D1*
X2543778Y10947274D1*
X2550943Y10945452D1*
X2557947Y10943191D1*
X2564756Y10940503D1*
X2571337Y10937400D1*
X2577658Y10933898D1*
X2583688Y10930013D1*
X2589398Y10925765D1*
X2594760Y10921173D1*
X2599747Y10916262D1*
X2604336Y10911053D1*
X2608504Y10905574D1*
X2612231Y10899850D1*
X2615498Y10893910D1*
X2618290Y10887782D1*
X2620594Y10881496D1*
X2622397Y10875083D1*
X2623691Y10868574D1*
X2624470Y10862001D1*
X2624730Y10855396D1*
X2624470Y10848790D1*
X2623691Y10842217D1*
X2622397Y10835708D1*
X2620594Y10829295D1*
X2618290Y10823009D1*
X2615498Y10816881D1*
X2612231Y10810941D1*
X2608504Y10805217D1*
X2604336Y10799738D1*
X2599747Y10794529D1*
X2594760Y10789618D1*
X2589398Y10785027D1*
X2583688Y10780778D1*
X2577658Y10776893D1*
X2571337Y10773391D1*
X2564756Y10770288D1*
X2557947Y10767600D1*
X2550943Y10765339D1*
X2543778Y10763517D1*
X2536487Y10762143D1*
X2529106Y10761223D1*
X2521671Y10760762D1*
X2514217D1*
X2506782Y10761223D1*
X2499401Y10762143D1*
X2492110Y10763517D1*
X2484945Y10765339D1*
X2477941Y10767600D1*
X2471132Y10770288D1*
X2464551Y10773391D1*
X2458230Y10776893D1*
X2452200Y10780778D1*
X2446490Y10785027D1*
X2441129Y10789618D1*
X2436141Y10794529D1*
X2431552Y10799738D1*
X2427384Y10805217D1*
X2423658Y10810941D1*
X2420390Y10816881D1*
X2417598Y10823009D1*
X2415295Y10829295D1*
X2413491Y10835708D1*
X2412197Y10842217D1*
X2411418Y10848790D1*
X2411158Y10855396D1*
X1415808Y10996800D2*
X1161792D1*
X1415808Y10488800D2*
Y10996800D1*
Y10488800D2*
X1161792D1*
Y10996800D1*
X13922292Y7783800D2*
X14176308D1*
X13922292Y8291800D2*
Y7783800D1*
Y8291800D2*
X14176308D1*
Y7783800D1*
X6717464Y9134426D2*
Y8148483D1*
X7233136Y9134426D2*
Y8148483D1*
X6717464D2*
X7233136D1*
X6717464Y9134426D2*
X6862763D1*
X7087837D2*
X7233136D1*
X6863437Y9135117D2*
G03X7087163Y9135117I111863J13970D01*
G01*
X6534800Y7426328D2*
X7804800D1*
Y6791272D1*
X6534800D1*
Y7426328D1*
X10256292Y12510300D2*
X10510308D1*
X10256292Y13018300D2*
Y12510300D1*
Y13018300D2*
X10510308D1*
Y12510300D1*
X7820868Y10031880D2*
X7740858D1*
X7820868Y9891880D2*
X7740858D1*
X8478792Y8721300D2*
X8732808D1*
X8478792Y9229300D2*
Y8721300D1*
Y9229300D2*
X8732808D1*
Y8721300D1*
X9380688Y11427152D2*
Y11782448D1*
X9075912Y11427152D2*
Y11782448D1*
X9380688D2*
G03X9075912Y11782448I-152388J164D01*
G01*
Y11427152D2*
G03X9380688Y11427152I152388J-164D01*
G01*
X7828800Y9119220D2*
Y8959380D1*
X7847720Y9119220D2*
Y8959380D1*
Y9119220D2*
X7787880D1*
X7847720Y8959380D2*
X7787880D1*
X3336453Y12366803D2*
X3176613D1*
X3336453Y12347883D2*
X3176613D1*
X3336453D2*
Y12407723D1*
X3176613Y12347883D2*
Y12407723D1*
X7818300Y9663720D2*
Y9503880D1*
X7837220Y9663720D2*
Y9503880D1*
Y9663720D2*
X7777380D1*
X7837220Y9503880D2*
X7777380D1*
X7822800Y9393720D2*
Y9233880D1*
X7841720Y9393720D2*
Y9233880D1*
Y9393720D2*
X7781880D1*
X7841720Y9233880D2*
X7781880D1*
X9392573Y12096074D2*
G02X9408454Y12826737I-132744J368390D01*
G01*
Y12096074D1*
X8329642Y12351317D2*
X7948958D1*
X8330404Y12351888D2*
G03X7948196Y12351888I-191104J253481D01*
G01*
X8694880Y12641880D2*
X8754720D1*
X8694880Y12801720D2*
X8754720D1*
X6169380Y8617800D2*
X6329220D1*
X6169380Y8636720D2*
X6329220D1*
X6169380D2*
Y8576880D1*
X6329220Y8636720D2*
Y8576880D1*
X7452720Y7851300D2*
X7292880D1*
X7452720Y7832380D2*
X7292880D1*
X7452720D2*
Y7892220D1*
X7292880Y7832380D2*
Y7892220D1*
X9368220Y8817300D2*
X9208380D1*
X9368220Y8798380D2*
X9208380D1*
X9368220D2*
Y8858220D1*
X9208380Y8798380D2*
Y8858220D1*
X9188880Y6907800D2*
X9348720D1*
X9188880Y6926720D2*
X9348720D1*
X9188880D2*
Y6866880D1*
X9348720Y6926720D2*
Y6866880D1*
X10560720Y8770800D2*
X10400880D1*
X10560720Y8751880D2*
X10400880D1*
X10560720D2*
Y8811720D1*
X10400880Y8751880D2*
Y8811720D1*
X8847900Y7539487D2*
Y8123713D1*
X8390700Y7539487D2*
Y8123713D1*
X8797105Y7539487D2*
Y8123713D1*
X8441495D2*
Y7539487D1*
Y8123713D2*
G02X8797105Y8123713I177805J-38D01*
G01*
X8390700D2*
G02X8847900Y8123713I228600J-13D01*
G01*
X8390700Y7539487D2*
G03X8847900Y7539487I228600J13D01*
G01*
X8441495D2*
G03X8797105Y7539487I177805J38D01*
G01*
X8530420Y7806190D2*
Y7857010D1*
X8708180D1*
Y7806190D1*
X8530420D1*
Y7895125D2*
X8619300D1*
X8708180D1*
X8530420Y7768075D2*
X8619300D1*
X8708180D1*
X8619300Y7895125D2*
Y7958651D1*
Y7768075D2*
Y7704549D1*
X9058200Y8124113D2*
Y7539887D1*
X9515400Y8124113D2*
Y7539887D1*
X9108995Y8124113D2*
Y7539887D1*
X9464605D2*
Y8124113D1*
Y7539887D2*
G02X9108995Y7539887I-177805J38D01*
G01*
X9515400D2*
G02X9058200Y7539887I-228600J13D01*
G01*
X9515400Y8124113D2*
G03X9058200Y8124113I-228600J-13D01*
G01*
X9464605D2*
G03X9108995Y8124113I-177805J-38D01*
G01*
X9375680Y7857410D2*
Y7806590D1*
X9197920D1*
Y7857410D1*
X9375680D1*
Y7768475D2*
X9286800D1*
X9197920D1*
X9375680Y7895525D2*
X9286800D1*
X9197920D1*
X9286800Y7768475D2*
Y7704949D1*
Y7895525D2*
Y7959051D1*
X10095900Y7540987D2*
Y8125213D1*
X9638700Y7540987D2*
Y8125213D1*
X10045105Y7540987D2*
Y8125213D1*
X9689495D2*
Y7540987D1*
Y8125213D2*
G02X10045105Y8125213I177805J-38D01*
G01*
X9638700D2*
G02X10095900Y8125213I228600J-13D01*
G01*
X9638700Y7540987D2*
G03X10095900Y7540987I228600J13D01*
G01*
X9689495D2*
G03X10045105Y7540987I177805J38D01*
G01*
X9778420Y7807690D2*
Y7858510D1*
X9956180D1*
Y7807690D1*
X9778420D1*
Y7896625D2*
X9867300D1*
X9956180D1*
X9778420Y7769575D2*
X9867300D1*
X9956180D1*
X9867300Y7896625D2*
Y7960151D1*
Y7769575D2*
Y7706049D1*
X10247700Y8124113D2*
Y7539887D1*
X10704900Y8124113D2*
Y7539887D1*
X10298495Y8124113D2*
Y7539887D1*
X10654105D2*
Y8124113D1*
Y7539887D2*
G02X10298495Y7539887I-177805J38D01*
G01*
X10704900D2*
G02X10247700Y7539887I-228600J13D01*
G01*
X10704900Y8124113D2*
G03X10247700Y8124113I-228600J-13D01*
G01*
X10654105D2*
G03X10298495Y8124113I-177805J-38D01*
G01*
X10565180Y7857410D2*
Y7806590D1*
X10387420D1*
Y7857410D1*
X10565180D1*
Y7768475D2*
X10476300D1*
X10387420D1*
X10565180Y7895525D2*
X10476300D1*
X10387420D1*
X10476300Y7768475D2*
Y7704949D1*
Y7895525D2*
Y7959051D1*
X10901880Y7434300D2*
X11061720D1*
X10901880Y7453220D2*
X11061720D1*
X10901880D2*
Y7393380D1*
X11061720Y7453220D2*
Y7393380D1*
X8199720Y7356880D2*
Y7416720D1*
X8039880Y7356880D2*
Y7416720D1*
X9969800Y6815828D2*
X11239800D1*
Y6180772D1*
X9969800D1*
Y6815828D1*
X11581800Y8351220D2*
Y8191380D1*
X11600720Y8351220D2*
Y8191380D1*
Y8351220D2*
X11540880D1*
X11600720Y8191380D2*
X11540880D1*
X12204464Y8339426D2*
Y7353483D1*
X12720136Y8339426D2*
Y7353483D1*
X12204464D2*
X12720136D1*
X12204464Y8339426D2*
X12349763D1*
X12574837D2*
X12720136D1*
X12350437Y8340117D2*
G03X12574163Y8340117I111863J13970D01*
G01*
X12398880Y9485232D2*
Y9565242D1*
X12258880Y9485232D2*
Y9565242D1*
X12978300Y8652720D2*
Y8492880D1*
X12997220Y8652720D2*
Y8492880D1*
Y8652720D2*
X12937380D1*
X12997220Y8492880D2*
X12937380D1*
X12982800Y8900220D2*
Y8740380D1*
X13001720Y8900220D2*
Y8740380D1*
Y8900220D2*
X12941880D1*
X13001720Y8740380D2*
X12941880D1*
X12987300Y9164220D2*
Y9004380D1*
X13006220Y9164220D2*
Y9004380D1*
Y9164220D2*
X12946380D1*
X13006220Y9004380D2*
X12946380D1*
X11608380Y7836300D2*
X11768220D1*
X11608380Y7855220D2*
X11768220D1*
X11608380D2*
Y7795380D1*
X11768220Y7855220D2*
Y7795380D1*
X15187368Y9310380D2*
X15107358D1*
X15187368Y9170380D2*
X15107358D1*
X4051800Y7956720D2*
Y7796880D1*
X4070720Y7956720D2*
Y7796880D1*
Y7956720D2*
X4010880D1*
X4070720Y7796880D2*
X4010880D1*
X1407302Y8623960D2*
X5237032D1*
Y9928380D1*
X1407302D1*
Y8623960D1*
X6143800Y10460272D2*
X4873800D1*
Y11095328D1*
X6143800D1*
Y10460272D1*
X3586953Y12375803D2*
X3427113D1*
X3586953Y12356883D2*
X3427113D1*
X3586953D2*
Y12416723D1*
X3427113Y12356883D2*
Y12416723D1*
X3825453Y12384803D2*
X3665613D1*
X3825453Y12365883D2*
X3665613D1*
X3825453D2*
Y12425723D1*
X3665613Y12365883D2*
Y12425723D1*
X6316800Y9360720D2*
Y9200880D1*
X6335720Y9360720D2*
Y9200880D1*
Y9360720D2*
X6275880D1*
X6335720Y9200880D2*
X6275880D1*
X10087188Y12588152D2*
Y12943448D1*
X9782412Y12588152D2*
Y12943448D1*
X10087188D2*
G03X9782412Y12943448I-152388J164D01*
G01*
Y12588152D2*
G03X10087188Y12588152I152388J-164D01*
G01*
X3051448Y11989188D2*
X2696152D1*
X3051448Y11684412D2*
X2696152D1*
Y11989188D2*
G03X2696152Y11684412I-164J-152388D01*
G01*
X3051448D2*
G03X3051448Y11989188I164J152388D01*
G01*
X7891800Y8586720D2*
Y8426880D1*
X7910720Y8586720D2*
Y8426880D1*
Y8586720D2*
X7850880D1*
X7910720Y8426880D2*
X7850880D1*
X13537800Y7796220D2*
Y7636380D1*
X13556720Y7796220D2*
Y7636380D1*
Y7796220D2*
X13496880D1*
X13556720Y7636380D2*
X13496880D1*
X4349347Y10699307D2*
X4509187D1*
X4349347Y10718227D2*
X4509187D1*
X4349347D2*
Y10658387D1*
X4509187Y10718227D2*
Y10658387D1*
X3298953Y10750871D2*
Y10670861D1*
X3438953Y10750871D2*
Y10670861D1*
X4490347Y11149739D2*
Y11229749D1*
X4350347Y11149739D2*
Y11229749D1*
X4523220Y12354880D2*
Y12414720D1*
X4363380Y12354880D2*
Y12414720D1*
X3994404Y11009620D2*
X3781060D1*
Y10728422D1*
X3994404D1*
Y11009620D1*
X4269528Y11280635D2*
X3510565D1*
Y10459378D1*
X4269528D1*
Y11280635D1*
X3785158Y10871896D2*
X3785418Y10878501D1*
X3786197Y10885074D1*
X3787491Y10891583D1*
X3789295Y10897996D1*
X3791598Y10904282D1*
X3794390Y10910410D1*
X3797658Y10916350D1*
X3801384Y10922074D1*
X3805552Y10927553D1*
X3810141Y10932762D1*
X3815129Y10937673D1*
X3820490Y10942265D1*
X3826200Y10946513D1*
X3832230Y10950398D1*
X3838551Y10953900D1*
X3845132Y10957003D1*
X3851941Y10959691D1*
X3858945Y10961952D1*
X3866110Y10963774D1*
X3873401Y10965148D1*
X3880782Y10966068D1*
X3888217Y10966529D1*
X3895671D1*
X3903106Y10966068D1*
X3910487Y10965148D1*
X3917778Y10963774D1*
X3924943Y10961952D1*
X3931947Y10959691D1*
X3938756Y10957003D1*
X3945337Y10953900D1*
X3951658Y10950398D1*
X3957688Y10946513D1*
X3963398Y10942265D1*
X3968760Y10937673D1*
X3973747Y10932762D1*
X3978336Y10927553D1*
X3982504Y10922074D1*
X3986231Y10916350D1*
X3989498Y10910410D1*
X3992290Y10904282D1*
X3994594Y10897996D1*
X3996397Y10891583D1*
X3997691Y10885074D1*
X3998470Y10878501D1*
X3998730Y10871896D1*
X3998470Y10865290D1*
X3997691Y10858717D1*
X3996397Y10852208D1*
X3994594Y10845795D1*
X3992290Y10839509D1*
X3989498Y10833381D1*
X3986231Y10827441D1*
X3982504Y10821717D1*
X3978336Y10816238D1*
X3973747Y10811029D1*
X3968760Y10806118D1*
X3963398Y10801527D1*
X3957688Y10797278D1*
X3951658Y10793393D1*
X3945337Y10789891D1*
X3938756Y10786788D1*
X3931947Y10784100D1*
X3924943Y10781839D1*
X3917778Y10780017D1*
X3910487Y10778643D1*
X3903106Y10777723D1*
X3895671Y10777262D1*
X3888217D1*
X3880782Y10777723D1*
X3873401Y10778643D1*
X3866110Y10780017D1*
X3858945Y10781839D1*
X3851941Y10784100D1*
X3845132Y10786788D1*
X3838551Y10789891D1*
X3832230Y10793393D1*
X3826200Y10797278D1*
X3820490Y10801527D1*
X3815129Y10806118D1*
X3810141Y10811029D1*
X3805552Y10816238D1*
X3801384Y10821717D1*
X3797658Y10827441D1*
X3794390Y10833381D1*
X3791598Y10839509D1*
X3789295Y10845795D1*
X3787491Y10852208D1*
X3786197Y10858717D1*
X3785418Y10865290D1*
X3785158Y10871896D1*
X4767720Y12375300D2*
X4607880D1*
X4767720Y12356380D2*
X4607880D1*
X4767720D2*
Y12416220D1*
X4607880Y12356380D2*
Y12416220D1*
X5018220Y12375300D2*
X4858380D1*
X5018220Y12356380D2*
X4858380D1*
X5018220D2*
Y12416220D1*
X4858380Y12356380D2*
Y12416220D1*
X5261220Y12375300D2*
X5101380D1*
X5261220Y12356380D2*
X5101380D1*
X5261220D2*
Y12416220D1*
X5101380Y12356380D2*
Y12416220D1*
X4471948Y11972688D2*
X4116652D1*
X4471948Y11667912D2*
X4116652D1*
Y11972688D2*
G03X4116652Y11667912I-164J-152388D01*
G01*
X4471948D2*
G03X4471948Y11972688I164J152388D01*
G01*
X4045965Y12451223D2*
X4125975D1*
X4045965Y12591223D2*
X4125975D1*
X6843470Y11215707D2*
G02X6833449Y10567964I258652J-327951D01*
G01*
X6836469Y10571974D2*
Y11204680D1*
X7719720Y10731880D2*
Y10791720D1*
X7559880Y10731880D2*
Y10791720D1*
X7953720Y10749300D2*
X7793880D1*
X7953720Y10730380D2*
X7793880D1*
X7953720D2*
Y10790220D1*
X7793880Y10730380D2*
Y10790220D1*
X8204220Y10758300D2*
X8044380D1*
X8204220Y10739380D2*
X8044380D1*
X8204220D2*
Y10799220D1*
X8044380Y10739380D2*
Y10799220D1*
X8442720Y10767300D2*
X8282880D1*
X8442720Y10748380D2*
X8282880D1*
X8442720D2*
Y10808220D1*
X8282880Y10748380D2*
Y10808220D1*
X8198232Y11361720D2*
X8278242D1*
X8198232Y11501720D2*
X8278242D1*
X7101880Y11413380D2*
X7161720D1*
X7101880Y11573220D2*
X7161720D1*
X7795380Y11317220D2*
Y11257380D1*
X7955220Y11317220D2*
Y11257380D1*
X4720893Y7562470D2*
G02X5368636Y7552449I327951J258652D01*
G01*
X5364626Y7555469D2*
X4731920D1*
X5263220Y7320720D2*
X5203380D1*
X5263220Y7160880D2*
X5203380D1*
X5242800Y6476220D2*
Y6316380D1*
X5261720Y6476220D2*
Y6316380D1*
Y6476220D2*
X5201880D1*
X5261720Y6316380D2*
X5201880D1*
X5256300Y6770220D2*
Y6610380D1*
X5275220Y6770220D2*
Y6610380D1*
Y6770220D2*
X5215380D1*
X5275220Y6610380D2*
X5215380D1*
X5239800Y7065720D2*
Y6905880D1*
X5258720Y7065720D2*
Y6905880D1*
Y7065720D2*
X5198880D1*
X5258720Y6905880D2*
X5198880D1*
X4506720Y6359868D2*
Y6279858D1*
X4646720Y6359868D2*
Y6279858D1*
X4388880Y7667720D2*
Y7607880D1*
X4548720Y7667720D2*
Y7607880D1*
X4694380Y6623880D2*
X4754220D1*
X4694380Y6783720D2*
X4754220D1*
X5756220Y9157368D2*
Y9077358D1*
X5896220Y9157368D2*
Y9077358D1*
X15123792Y12526800D2*
X15377808D1*
X15123792Y13034800D2*
Y12526800D1*
Y13034800D2*
X15377808D1*
Y12526800D1*
X13185633Y12027343D2*
X13025793D1*
X13185633Y12008423D2*
X13025793D1*
X13185633D2*
Y12068263D1*
X13025793Y12008423D2*
Y12068263D1*
X13994486Y12267117D2*
G02X14010368Y12997780I-132744J368390D01*
G01*
Y12267117D1*
X12922555Y12540360D2*
X12541871D1*
X12923317Y12540931D2*
G03X12541109Y12540931I-191104J253481D01*
G01*
X13217293Y12826423D2*
X13277133D1*
X13217293Y12986263D2*
X13277133D1*
X14714688Y12595652D2*
Y12950948D1*
X14409912Y12595652D2*
Y12950948D1*
X14714688D2*
G03X14409912Y12950948I-152388J164D01*
G01*
Y12595652D2*
G03X14714688Y12595652I152388J-164D01*
G01*
X3324720Y6276300D2*
X3164880D1*
X3324720Y6257380D2*
X3164880D1*
X3324720D2*
Y6317220D1*
X3164880Y6257380D2*
Y6317220D1*
X2683735Y6103533D2*
G02X2693751Y6750986I-258537J327804D01*
G01*
X2690732Y6746978D2*
Y6114554D1*
X3623380Y6046380D2*
X3683220D1*
X3623380Y6206220D2*
X3683220D1*
X2766720Y7273800D2*
X2606880D1*
X2766720Y7254880D2*
X2606880D1*
X2766720D2*
Y7314720D1*
X2606880Y7254880D2*
Y7314720D1*
X3089380Y6964380D2*
X3149220D1*
X3089380Y7124220D2*
X3149220D1*
X3662720Y7362720D2*
X3602880D1*
X3662720Y7202880D2*
X3602880D1*
X2862790Y5545800D2*
X3116810D1*
X2862790Y6053800D2*
Y5545800D1*
Y6053800D2*
X3116810D1*
Y5545800D1*
X3272220Y8074800D2*
X3112380D1*
X3272220Y8055880D2*
X3112380D1*
X3272220D2*
Y8115720D1*
X3112380Y8055880D2*
Y8115720D1*
X3649933Y7107453D2*
Y6947613D1*
X3668853Y7107453D2*
Y6947613D1*
Y7107453D2*
X3609013D1*
X3668853Y6947613D2*
X3609013D1*
X2594790Y7656290D2*
X2419800D1*
X2989800Y8296310D2*
X2824785D1*
X2989800Y7656290D2*
X2814810D1*
X2989800D2*
Y8296310D1*
X2584815D2*
X2419800D1*
Y7656290D2*
Y7976300D1*
Y8296310D2*
Y7976300D1*
X3509220Y8343880D2*
Y8403720D1*
X3349380Y8343880D2*
Y8403720D1*
X3042720Y6543880D2*
Y6603720D1*
X2882880Y6543880D2*
Y6603720D1*
X6427380Y10975800D2*
X6587220D1*
X6427380Y10994720D2*
X6587220D1*
X6427380D2*
Y10934880D1*
X6587220Y10994720D2*
Y10934880D1*
X3780152Y5225412D2*
X4135448D1*
X3780152Y5530188D2*
X4135448D1*
Y5225412D2*
G03X4135448Y5530188I164J152388D01*
G01*
X3780152D2*
G03X3780152Y5225412I-164J-152388D01*
G01*
X4192134Y4926479D2*
G02X4176252Y4195797I132747J-368399D01*
G01*
Y4926479D1*
X3073958Y5106283D2*
X3454642D1*
X3073196Y5105712D2*
G03X3455404Y5105712I191104J-253481D01*
G01*
X3621880Y4277880D2*
X3681720D1*
X3621880Y4437720D2*
X3681720D1*
X5402688Y3994652D2*
Y4349948D1*
X5097912Y3994652D2*
Y4349948D1*
X5402688D2*
G03X5097912Y4349948I-152388J164D01*
G01*
Y3994652D2*
G03X5402688Y3994652I152388J-164D01*
G01*
X15115923Y10191307D2*
G02X15105902Y9543577I258647J-327944D01*
G01*
X15108922Y9547587D2*
Y10180281D1*
X14229720Y9740380D2*
Y9800220D1*
X14069880Y9740380D2*
Y9800220D1*
X14463720Y9757800D2*
X14303880D1*
X14463720Y9738880D2*
X14303880D1*
X14463720D2*
Y9798720D1*
X14303880Y9738880D2*
Y9798720D1*
X14714220Y9766800D2*
X14554380D1*
X14714220Y9747880D2*
X14554380D1*
X14714220D2*
Y9807720D1*
X14554380Y9747880D2*
Y9807720D1*
X14952773Y9742693D2*
X14792933D1*
X14952773Y9723773D2*
X14792933D1*
X14952773D2*
Y9783613D1*
X14792933Y9723773D2*
Y9783613D1*
X14461433Y10794625D2*
Y10874635D1*
X14321433Y10794625D2*
Y10874635D1*
X15422380Y10436880D2*
X15482220D1*
X15422380Y10596720D2*
X15482220D1*
X14305380Y10325720D2*
Y10265880D1*
X14465220Y10325720D2*
Y10265880D1*
X13282684Y5575779D2*
G02X13292704Y6223510I-258647J327944D01*
G01*
X13289684Y6219500D2*
Y5586806D1*
X12521880Y6311720D2*
Y6251880D1*
X12681720Y6311720D2*
Y6251880D1*
X12295380Y6304800D2*
X12455220D1*
X12295380Y6323720D2*
X12455220D1*
X12295380D2*
Y6263880D1*
X12455220Y6323720D2*
Y6263880D1*
X12070380Y6297300D2*
X12230220D1*
X12070380Y6316220D2*
X12230220D1*
X12070380D2*
Y6256380D1*
X12230220Y6316220D2*
Y6256380D1*
X11825880Y6306300D2*
X11985720D1*
X11825880Y6325220D2*
X11985720D1*
X11825880D2*
Y6265380D1*
X11985720Y6325220D2*
Y6265380D1*
X11552868Y5362380D2*
X11472858D1*
X11552868Y5222380D2*
X11472858D1*
X13571380Y5561880D2*
X13631220D1*
X13571380Y5721720D2*
X13631220D1*
X11762220Y5963380D2*
Y6023220D1*
X11602380Y5963380D2*
Y6023220D1*
X18379308Y7287300D2*
X18125292D1*
X18379308Y6779300D2*
Y7287300D1*
Y6779300D2*
X18125292D1*
Y7287300D1*
X19550282Y11254305D2*
Y10754295D1*
X19810318Y11254305D2*
Y10754295D1*
X19550282D2*
X19810318D1*
X19630276Y11254305D2*
X19550282D1*
X19730324D2*
X19810318D1*
X19630276D2*
G03X19730324Y11254305I50024J23D01*
G01*
X19867948Y11705693D2*
X19512652D1*
X19867948Y11400907D2*
X19512652D1*
Y11705693D2*
G03X19512652Y11400907I-159J-152393D01*
G01*
X19867948D2*
G03X19867948Y11705693I159J152393D01*
G01*
X20321220Y11265300D2*
X20161380D1*
X20321220Y11246380D2*
X20161380D1*
X20321220D2*
Y11306220D1*
X20161380Y11246380D2*
Y11306220D1*
X18466290Y10591790D2*
X18291300D1*
X18861300Y11231810D2*
X18696285D1*
X18861300Y10591790D2*
X18686310D1*
X18861300D2*
Y11231810D1*
X18456315D2*
X18291300D1*
Y10591790D2*
Y10911800D1*
Y11231810D2*
Y10911800D1*
X18265800Y11846220D2*
Y11686380D1*
X18284720Y11846220D2*
Y11686380D1*
Y11846220D2*
X18224880D1*
X18284720Y11686380D2*
X18224880D1*
X18762300Y11850720D2*
Y11690880D1*
X18781220Y11850720D2*
Y11690880D1*
Y11850720D2*
X18721380D1*
X18781220Y11690880D2*
X18721380D1*
X20682720Y10588800D2*
X20522880D1*
X20682720Y10569880D2*
X20522880D1*
X20682720D2*
Y10629720D1*
X20522880Y10569880D2*
Y10629720D1*
X19198800Y9686290D2*
Y9940310D1*
X18690800Y9686290D2*
X19198800D1*
X18690800D2*
Y9940310D1*
X19198800D1*
X19803300Y10563720D2*
Y10403880D1*
X19822220Y10563720D2*
Y10403880D1*
Y10563720D2*
X19762380D1*
X19822220Y10403880D2*
X19762380D1*
X19523720Y10305720D2*
X19463880D1*
X19523720Y10145880D2*
X19463880D1*
X19965448Y9976193D2*
X19610152D1*
X19965448Y9671407D2*
X19610152D1*
Y9976193D2*
G03X19610152Y9671407I-159J-152393D01*
G01*
X19965448D2*
G03X19965448Y9976193I159J152393D01*
G01*
X20427720Y10582800D2*
X20267880D1*
X20427720Y10563880D2*
X20267880D1*
X20427720D2*
Y10623720D1*
X20267880Y10563880D2*
Y10623720D1*
X17932641Y10854212D2*
G02X17942658Y11501653I-258532J327798D01*
G01*
X17939639Y11497645D2*
Y10865234D1*
X17669380Y11675880D2*
X17729220D1*
X17669380Y11835720D2*
X17729220D1*
X17074380Y11443220D2*
Y11383380D1*
X17234220Y11443220D2*
Y11383380D1*
X17054880Y10918220D2*
Y10858380D1*
X17214720Y10918220D2*
Y10858380D1*
X17657720Y10646220D2*
X17597880D1*
X17657720Y10486380D2*
X17597880D1*
X16677880Y11194380D2*
X16737720D1*
X16677880Y11354220D2*
X16737720D1*
X17488652Y10011907D2*
X17843948D1*
X17488652Y10316693D2*
X17843948D1*
Y10011907D2*
G03X17843948Y10316693I159J152393D01*
G01*
X17488652D2*
G03X17488652Y10011907I-159J-152393D01*
G01*
X16578152Y11679900D2*
X16933448D1*
X16578152Y11984700D2*
X16933448D1*
Y11679900D2*
G03X16933448Y11984700I152J152400D01*
G01*
X16578152D2*
G03X16578152Y11679900I-152J-152400D01*
G01*
X16695880Y12178380D2*
X16755720D1*
X16695880Y12338220D2*
X16755720D1*
X18313380Y12135880D2*
Y12195720D1*
X18473220Y12135880D2*
Y12195720D1*
Y12154712D2*
X18313380D1*
X18473220Y12135792D2*
X18313380D1*
X19146300Y12253380D2*
Y12413220D1*
X19127380Y12253380D2*
Y12413220D1*
Y12253380D2*
X19187220D1*
X19127380Y12413220D2*
X19187220D1*
X18859310Y12856800D2*
X18605290D1*
X18859310Y12348800D2*
Y12856800D1*
Y12348800D2*
X18605290D1*
Y12856800D1*
X15608880Y4135470D2*
Y4075630D1*
X15768720Y4135470D2*
Y4075630D1*
X15515220Y4070380D2*
Y4130220D1*
X15355380Y4070380D2*
Y4130220D1*
X16085130Y4897470D2*
Y4837630D1*
X16244970Y4897470D2*
Y4837630D1*
X16180380Y2643220D2*
Y2583380D1*
X16340220Y2643220D2*
Y2583380D1*
X16307380Y4103720D2*
Y4043880D1*
X16467220Y4103720D2*
Y4043880D1*
X16337388Y4676491D2*
X16336434Y4616667D1*
X16497206Y4673967D2*
X16496252Y4614143D1*
X16941880Y3562380D2*
X17001720D1*
X16941880Y3722220D2*
X17001720D1*
X17068880Y4959380D2*
X17128720D1*
X17068880Y5119220D2*
X17128720D1*
X17068880Y4673630D2*
X17128720D1*
X17068880Y4833470D2*
X17128720D1*
X19038970Y3974630D2*
Y4034470D1*
X18879130Y3974630D2*
Y4034470D1*
X14412300Y4433880D2*
Y4593720D1*
X14393380Y4433880D2*
Y4593720D1*
Y4433880D2*
X14453220D1*
X14393380Y4593720D2*
X14453220D1*
X15831130Y4878550D2*
X15990970D1*
X15831130Y4897470D2*
X15990970D1*
X15831130D2*
Y4837630D1*
X15990970Y4897470D2*
Y4837630D1*
X16594220Y2596550D2*
X16434380D1*
X16594220Y2577630D2*
X16434380D1*
X16594220D2*
Y2637470D1*
X16434380Y2577630D2*
Y2637470D1*
X16529630Y4084800D2*
X16689470D1*
X16529630Y4103720D2*
X16689470D1*
X16529630D2*
Y4043880D1*
X16689470Y4103720D2*
Y4043880D1*
X18163300Y2452220D2*
Y2292380D1*
X18182220Y2452220D2*
Y2292380D1*
Y2452220D2*
X18122380D1*
X18182220Y2292380D2*
X18122380D1*
X18135550Y3244880D2*
Y3404720D1*
X18116630Y3244880D2*
Y3404720D1*
Y3244880D2*
X18176470D1*
X18116630Y3404720D2*
X18176470D1*
X20838300Y1783380D2*
Y1943220D1*
X20819380Y1783380D2*
Y1943220D1*
Y1783380D2*
X20879220D1*
X20819380Y1943220D2*
X20879220D1*
X20040550Y3657630D2*
Y3817470D1*
X20021630Y3657630D2*
Y3817470D1*
Y3657630D2*
X20081470D1*
X20021630Y3817470D2*
X20081470D1*
X19814300Y2960220D2*
Y2800380D1*
X19833220Y2960220D2*
Y2800380D1*
Y2960220D2*
X19773380D1*
X19833220Y2800380D2*
X19773380D1*
X21007470Y4565050D2*
X20847630D1*
X21007470Y4546130D2*
X20847630D1*
X21007470D2*
Y4605970D1*
X20847630Y4546130D2*
Y4605970D1*
X19039470Y2546380D2*
X18979630D1*
X19039470Y2706220D2*
X18979630D1*
X19020638D2*
Y2546380D1*
X19039558Y2706220D2*
Y2546380D1*
X17551014Y4460930D2*
X17601020Y4510943D1*
Y4410916D2*
X17651027Y4460930D1*
X17601020Y4510943D1*
X17066120Y4245477D2*
G02X17066120Y4245477I289432J0D01*
G01*
X18720800Y4348800D2*
X19170800D1*
Y5348800D1*
X18720800D1*
Y4348800D1*
X18810800D2*
Y5348800D1*
X19039470Y2388720D2*
X18979630D1*
X19039470Y2228880D2*
X18979630D1*
X16138493Y2963974D2*
X15106680D1*
Y3370987D1*
X16138493D1*
Y2963974D1*
X17764126Y3075993D2*
X17357113D1*
Y2044180D1*
X17764126D1*
Y3075993D1*
X20255607Y4257126D2*
X21287420D1*
Y3850113D1*
X20255607D1*
Y4257126D1*
X21027201Y3151676D2*
X20536379D1*
Y2159717D1*
X21027201D1*
Y3151676D1*
X17910177Y6197423D2*
X16592550D1*
Y8340550D1*
X17910177D1*
Y6197423D1*
X17420547Y6222927D2*
X17143450D1*
Y6371017D1*
X17420547D1*
Y6222927D1*
X19369305Y2720050D2*
Y2540082D1*
X20009295Y2260082D2*
Y2080050D1*
X19369305D2*
Y2280050D1*
Y2720050D2*
X20009295D1*
Y2530034D1*
X19369305Y2080050D2*
X19569310D1*
X19999285D2*
X19799280D1*
X21361652Y1707912D2*
X21716948D1*
X21361652Y2012688D2*
X21716948D1*
Y1707912D2*
G03X21716948Y2012688I164J152388D01*
G01*
X21361652D2*
G03X21361652Y1707912I-164J-152388D01*
G01*
X16751880Y4084800D2*
X16911720D1*
X16751880Y4103720D2*
X16911720D1*
X16751880D2*
Y4043880D1*
X16911720Y4103720D2*
Y4043880D1*
X18879130Y3481550D2*
X19038970D1*
X18879130Y3500470D2*
X19038970D1*
X18879130D2*
Y3440630D1*
X19038970Y3500470D2*
Y3440630D1*
X16753220Y6103720D2*
X16693380D1*
X16753220Y5943880D2*
X16693380D1*
X17195630Y6103720D2*
X17255470D1*
X17195630Y5943880D2*
X17255470D1*
X17214462D2*
Y6103720D1*
X17195542Y5943880D2*
Y6103720D1*
X21921140Y4951802D2*
X20616720D1*
Y8781532D1*
X21921140D1*
Y4951802D1*
X16052880Y7089880D2*
Y7149720D1*
X16212720Y7089880D2*
Y7149720D1*
Y7108712D2*
X16052880D1*
X16212720Y7089792D2*
X16052880D1*
X15302220Y6748800D2*
X15142380D1*
X15302220Y6729880D2*
X15142380D1*
X15302220D2*
Y6789720D1*
X15142380Y6729880D2*
Y6789720D1*
X15654300Y6557880D2*
Y6717720D1*
X15635380Y6557880D2*
Y6717720D1*
Y6557880D2*
X15695220D1*
X15635380Y6717720D2*
X15695220D1*
X15820220Y7062720D2*
X15760380D1*
X15820220Y6902880D2*
X15760380D1*
X15049789Y7472310D2*
Y7647300D1*
X15689811Y7077300D2*
Y7242315D1*
X15049789Y7077300D2*
Y7252290D1*
Y7077300D2*
X15689811D1*
Y7482285D2*
Y7647300D1*
X15049789D2*
X15369800D1*
X15689811D2*
X15369800D1*
X19020550Y2991970D2*
Y2832130D1*
X19039470Y2991970D2*
Y2832130D1*
Y2991970D2*
X18979630D1*
X19039470Y2832130D2*
X18979630D1*
X18163300Y2674470D2*
Y2514630D1*
X18182220Y2674470D2*
Y2514630D1*
Y2674470D2*
X18122380D1*
X18182220Y2514630D2*
X18122380D1*
X15863970Y2501300D2*
X15704130D1*
X15863970Y2482380D2*
X15704130D1*
X15863970D2*
Y2542220D1*
X15704130Y2482380D2*
Y2542220D1*
X14089380Y1594800D2*
X14249220D1*
X14089380Y1613720D2*
X14249220D1*
X14089380D2*
Y1553880D1*
X14249220Y1613720D2*
Y1553880D1*
X16734300Y5786220D2*
Y5626380D1*
X16753220Y5786220D2*
Y5626380D1*
Y5786220D2*
X16693380D1*
X16753220Y5626380D2*
X16693380D1*
X14637790Y6283800D2*
X14891810D1*
X14637790Y6791800D2*
Y6283800D1*
Y6791800D2*
X14891810D1*
Y6283800D1*
X16235292Y8455800D2*
X16489308D1*
X16235292Y8963800D2*
Y8455800D1*
Y8963800D2*
X16489308D1*
Y8455800D1*
X9579792Y11252800D2*
X9833808D1*
Y10490800D1*
X9579792D2*
X9833808D1*
X9579792Y11252800D2*
Y10490800D1*
X15835925Y4518447D2*
G02X15825909Y3870994I258537J-327804D01*
G01*
X15828928Y3875002D2*
Y4507426D1*
X13033800Y7097880D2*
Y7257720D1*
X13014880Y7097880D2*
Y7257720D1*
Y7097880D2*
X13074720D1*
X13014880Y7257720D2*
X13074720D1*
X7497720Y9719380D2*
Y9779220D1*
X7337880Y9719380D2*
Y9779220D1*
X12654720Y9198880D2*
Y9258720D1*
X12494880Y9198880D2*
Y9258720D1*
X11053188Y9514652D2*
Y9869948D1*
X10748412Y9514652D2*
Y9869948D1*
X11053188D2*
G03X10748412Y9869948I-152388J164D01*
G01*
Y9514652D2*
G03X11053188Y9514652I152388J-164D01*
G01*
X13433133Y12037843D2*
X13273293D1*
X13433133Y12018923D2*
X13273293D1*
X13433133D2*
Y12078763D1*
X13273293Y12018923D2*
Y12078763D1*
X21079200Y10450652D2*
Y10805948D1*
X20774400Y10450652D2*
Y10805948D1*
X21079200D2*
G03X20774400Y10805948I-152400J152D01*
G01*
Y10450652D2*
G03X21079200Y10450652I152400J-152D01*
G01*
X20822880Y11299220D2*
Y11239380D1*
X20982720Y11299220D2*
Y11239380D1*
X9208802Y3729460D2*
X13038532D1*
Y5033880D1*
X9208802D1*
Y3729460D1*
X13302720Y4602300D2*
X13142880D1*
X13302720Y4583380D2*
X13142880D1*
X13302720D2*
Y4643220D1*
X13142880Y4583380D2*
Y4643220D1*
X14225220Y4226868D2*
Y4146858D1*
X14365220Y4226868D2*
Y4146858D1*
X14213880Y3355220D2*
Y3295380D1*
X14373720Y3355220D2*
Y3295380D1*
X13864404Y4646620D2*
X13651060D1*
Y4365422D1*
X13864404D1*
Y4646620D1*
X14139528Y4917635D2*
X13380565D1*
Y4096378D1*
X14139528D1*
Y4917635D1*
X13655158Y4508896D2*
X13655418Y4515501D1*
X13656197Y4522074D1*
X13657491Y4528583D1*
X13659295Y4534996D1*
X13661598Y4541282D1*
X13664390Y4547410D1*
X13667658Y4553350D1*
X13671384Y4559074D1*
X13675552Y4564553D1*
X13680141Y4569762D1*
X13685129Y4574673D1*
X13690490Y4579265D1*
X13696200Y4583513D1*
X13702230Y4587398D1*
X13708551Y4590900D1*
X13715132Y4594003D1*
X13721941Y4596691D1*
X13728945Y4598952D1*
X13736110Y4600774D1*
X13743401Y4602148D1*
X13750782Y4603068D1*
X13758217Y4603529D1*
X13765671D1*
X13773106Y4603068D1*
X13780487Y4602148D1*
X13787778Y4600774D1*
X13794943Y4598952D1*
X13801947Y4596691D1*
X13808756Y4594003D1*
X13815337Y4590900D1*
X13821658Y4587398D1*
X13827688Y4583513D1*
X13833398Y4579265D1*
X13838760Y4574673D1*
X13843747Y4569762D1*
X13848336Y4564553D1*
X13852504Y4559074D1*
X13856231Y4553350D1*
X13859498Y4547410D1*
X13862290Y4541282D1*
X13864594Y4534996D1*
X13866397Y4528583D1*
X13867691Y4522074D1*
X13868470Y4515501D1*
X13868730Y4508896D1*
X13868470Y4502290D1*
X13867691Y4495717D1*
X13866397Y4489208D1*
X13864594Y4482795D1*
X13862290Y4476509D1*
X13859498Y4470381D1*
X13856231Y4464441D1*
X13852504Y4458717D1*
X13848336Y4453238D1*
X13843747Y4448029D1*
X13838760Y4443118D1*
X13833398Y4438527D1*
X13827688Y4434278D1*
X13821658Y4430393D1*
X13815337Y4426891D1*
X13808756Y4423788D1*
X13801947Y4421100D1*
X13794943Y4418839D1*
X13787778Y4417017D1*
X13780487Y4415643D1*
X13773106Y4414723D1*
X13765671Y4414262D1*
X13758217D1*
X13750782Y4414723D1*
X13743401Y4415643D1*
X13736110Y4417017D1*
X13728945Y4418839D1*
X13721941Y4421100D1*
X13715132Y4423788D1*
X13708551Y4426891D1*
X13702230Y4430393D1*
X13696200Y4434278D1*
X13690490Y4438527D1*
X13685129Y4443118D1*
X13680141Y4448029D1*
X13675552Y4453238D1*
X13671384Y4458717D1*
X13667658Y4464441D1*
X13664390Y4470381D1*
X13661598Y4476509D1*
X13659295Y4482795D1*
X13657491Y4489208D1*
X13656197Y4495717D1*
X13655418Y4502290D1*
X13655158Y4508896D1*
X13993380Y3331800D2*
X14153220D1*
X13993380Y3350720D2*
X14153220D1*
X13993380D2*
Y3290880D1*
X14153220Y3350720D2*
Y3290880D1*
X13775880Y3340800D2*
X13935720D1*
X13775880Y3359720D2*
X13935720D1*
X13775880D2*
Y3299880D1*
X13935720Y3359720D2*
Y3299880D1*
X13543380Y3336300D2*
X13703220D1*
X13543380Y3355220D2*
X13703220D1*
X13543380D2*
Y3295380D1*
X13703220Y3355220D2*
Y3295380D1*
X14254652Y3621912D2*
X14609948D1*
X14254652Y3926688D2*
X14609948D1*
Y3621912D2*
G03X14609948Y3926688I164J152388D01*
G01*
X14254652D2*
G03X14254652Y3621912I-164J-152388D01*
G01*
X1833423Y3526177D2*
X3151050D1*
Y1383050D1*
X1833423D1*
Y3526177D1*
X2323053Y3500673D2*
X2600150D1*
Y3352583D1*
X2323053D1*
Y3500673D1*
X3362380Y3632880D2*
X3422220D1*
X3362380Y3792720D2*
X3422220D1*
X2698220Y3712380D2*
X2638380D1*
X2698220Y3872220D2*
X2638380D1*
X2679388D2*
Y3712380D1*
X2698308Y3872220D2*
Y3712380D1*
X3903300Y3800220D2*
Y3640380D1*
X3922220Y3800220D2*
Y3640380D1*
Y3800220D2*
X3862380D1*
X3922220Y3640380D2*
X3862380D1*
X4265292Y2812800D2*
X4519308D1*
X4265292Y3320800D2*
Y2812800D1*
Y3320800D2*
X4519308D1*
Y2812800D1*
X4778292Y1447800D2*
X5032308D1*
X4778292Y1955800D2*
Y1447800D1*
Y1955800D2*
X5032308D1*
Y1447800D1*
X3522792Y1959300D2*
X3776808D1*
X3522792Y2467300D2*
Y1959300D1*
Y2467300D2*
X3776808D1*
Y1959300D1*
X3611292Y2835300D2*
X3865308D1*
X3611292Y3343300D2*
Y2835300D1*
Y3343300D2*
X3865308D1*
Y2835300D1*
X1920382Y5137908D2*
G02X1910362Y4490216I258633J-327925D01*
G01*
X1913382Y4494226D2*
Y5126882D1*
X1356300Y4201308D2*
Y3947292D1*
X1864300Y4201308D2*
X1356300D1*
X1864300D2*
Y3947292D1*
X1356300D1*
X1550220Y4940380D2*
Y5000220D1*
X1390380Y4940380D2*
Y5000220D1*
X1825800Y5577792D2*
Y5831808D1*
X1317800Y5577792D2*
X1825800D1*
X1317800D2*
Y5831808D1*
X1825800D1*
X16282220Y7569720D2*
X16222380D1*
X16282220Y7409880D2*
X16222380D1*
M02*
