M48
; DRILL file {KiCad (6.0.7)} date Wed Jan 18 17:05:46 2023
; FORMAT={-:-/ absolute / metric / decimal}
; #@! TF.CreationDate,2023-01-18T17:05:46-05:00
; #@! TF.GenerationSoftware,Kicad,Pcbnew,(6.0.7)
; #@! TF.FileFunction,MixedPlating,1,2
FMAT,2
METRIC
; #@! TA.AperFunction,Plated,PTH,ComponentDrill
T1C1.000
%
G90
G05
T1
X94.361Y-30.035
X94.361Y-90.995
X103.632Y-80.581
X107.95Y-42.545
X107.95Y-47.625
X113.088Y-42.672
X115.628Y-42.672
X115.887Y-35.496
X117.538Y-68.389
X117.538Y-78.549
X121.539Y-42.458
X121.539Y-47.458
X126.159Y-66.969
X126.159Y-79.969
X127.317Y-89.027
X127.317Y-91.567
X127.317Y-94.107
X127.381Y-32.067
X127.381Y-42.227
X132.159Y-66.969
X132.159Y-79.969
X134.938Y-42.091
X134.938Y-44.591
X135.763Y-29.639
X135.763Y-32.179
X135.763Y-34.719
X137.668Y-88.582
X137.668Y-93.662
X138.874Y-80.2
X139.001Y-67.31
T0
M30
