%TF.GenerationSoftware,KiCad,Pcbnew,(6.0.7)*%
%TF.CreationDate,2023-01-18T17:05:45-05:00*%
%TF.ProjectId,Inductor Saturation Test,496e6475-6374-46f7-9220-536174757261,rev?*%
%TF.SameCoordinates,Original*%
%TF.FileFunction,Drillmap*%
%TF.FilePolarity,Positive*%
%FSLAX45Y45*%
G04 Gerber Fmt 4.5, Leading zero omitted, Abs format (unit mm)*
G04 Created by KiCad (PCBNEW (6.0.7)) date 2023-01-18 17:05:45*
%MOMM*%
%LPD*%
G01*
G04 APERTURE LIST*
%ADD10C,0.100000*%
%ADD11C,0.200000*%
G04 APERTURE END LIST*
D10*
X14401800Y-2635250D02*
X8851900Y-2635250D01*
X8851900Y-2635250D02*
X8851900Y-9842500D01*
X8851900Y-9842500D02*
X14401800Y-9842500D01*
X14401800Y-9842500D02*
X14401800Y-2635250D01*
D11*
D10*
X9386100Y-2953550D02*
X9486100Y-3053550D01*
X9486100Y-2953550D02*
X9386100Y-3053550D01*
X9386100Y-9049550D02*
X9486100Y-9149550D01*
X9486100Y-9049550D02*
X9386100Y-9149550D01*
X10313200Y-8008150D02*
X10413200Y-8108150D01*
X10413200Y-8008150D02*
X10313200Y-8108150D01*
X10745000Y-4204500D02*
X10845000Y-4304500D01*
X10845000Y-4204500D02*
X10745000Y-4304500D01*
X10745000Y-4712500D02*
X10845000Y-4812500D01*
X10845000Y-4712500D02*
X10745000Y-4812500D01*
X11258850Y-4217200D02*
X11358850Y-4317200D01*
X11358850Y-4217200D02*
X11258850Y-4317200D01*
X11512850Y-4217200D02*
X11612850Y-4317200D01*
X11612850Y-4217200D02*
X11512850Y-4317200D01*
X11538750Y-3499650D02*
X11638750Y-3599650D01*
X11638750Y-3499650D02*
X11538750Y-3599650D01*
X11703850Y-6788950D02*
X11803850Y-6888950D01*
X11803850Y-6788950D02*
X11703850Y-6888950D01*
X11703850Y-7804950D02*
X11803850Y-7904950D01*
X11803850Y-7804950D02*
X11703850Y-7904950D01*
X12103900Y-4195800D02*
X12203900Y-4295800D01*
X12203900Y-4195800D02*
X12103900Y-4295800D01*
X12103900Y-4695800D02*
X12203900Y-4795800D01*
X12203900Y-4695800D02*
X12103900Y-4795800D01*
X12565900Y-6646950D02*
X12665900Y-6746950D01*
X12665900Y-6646950D02*
X12565900Y-6746950D01*
X12565900Y-7946950D02*
X12665900Y-8046950D01*
X12665900Y-7946950D02*
X12565900Y-8046950D01*
X12681750Y-8852700D02*
X12781750Y-8952700D01*
X12781750Y-8852700D02*
X12681750Y-8952700D01*
X12681750Y-9106700D02*
X12781750Y-9206700D01*
X12781750Y-9106700D02*
X12681750Y-9206700D01*
X12681750Y-9360700D02*
X12781750Y-9460700D01*
X12781750Y-9360700D02*
X12681750Y-9460700D01*
X12688100Y-3156750D02*
X12788100Y-3256750D01*
X12788100Y-3156750D02*
X12688100Y-3256750D01*
X12688100Y-4172750D02*
X12788100Y-4272750D01*
X12788100Y-4172750D02*
X12688100Y-4272750D01*
X13165900Y-6646950D02*
X13265900Y-6746950D01*
X13265900Y-6646950D02*
X13165900Y-6746950D01*
X13165900Y-7946950D02*
X13265900Y-8046950D01*
X13265900Y-7946950D02*
X13165900Y-8046950D01*
X13443750Y-4159085D02*
X13543750Y-4259085D01*
X13543750Y-4159085D02*
X13443750Y-4259085D01*
X13443750Y-4409085D02*
X13543750Y-4509085D01*
X13543750Y-4409085D02*
X13443750Y-4509085D01*
X13526300Y-2913950D02*
X13626300Y-3013950D01*
X13626300Y-2913950D02*
X13526300Y-3013950D01*
X13526300Y-3167950D02*
X13626300Y-3267950D01*
X13626300Y-3167950D02*
X13526300Y-3267950D01*
X13526300Y-3421950D02*
X13626300Y-3521950D01*
X13626300Y-3421950D02*
X13526300Y-3521950D01*
X13716800Y-8808250D02*
X13816800Y-8908250D01*
X13816800Y-8808250D02*
X13716800Y-8908250D01*
X13716800Y-9316250D02*
X13816800Y-9416250D01*
X13816800Y-9316250D02*
X13716800Y-9416250D01*
X13837450Y-7970050D02*
X13937450Y-8070050D01*
X13937450Y-7970050D02*
X13837450Y-8070050D01*
X13850150Y-6681000D02*
X13950150Y-6781000D01*
X13950150Y-6681000D02*
X13850150Y-6781000D01*
D11*
X9104519Y-10157976D02*
X9104519Y-9957976D01*
X9152138Y-9957976D01*
X9180710Y-9967500D01*
X9199757Y-9986548D01*
X9209281Y-10005595D01*
X9218805Y-10043690D01*
X9218805Y-10072262D01*
X9209281Y-10110357D01*
X9199757Y-10129405D01*
X9180710Y-10148452D01*
X9152138Y-10157976D01*
X9104519Y-10157976D01*
X9304519Y-10157976D02*
X9304519Y-10024643D01*
X9304519Y-10062738D02*
X9314043Y-10043690D01*
X9323567Y-10034167D01*
X9342614Y-10024643D01*
X9361662Y-10024643D01*
X9428329Y-10157976D02*
X9428329Y-10024643D01*
X9428329Y-9957976D02*
X9418805Y-9967500D01*
X9428329Y-9977024D01*
X9437852Y-9967500D01*
X9428329Y-9957976D01*
X9428329Y-9977024D01*
X9552138Y-10157976D02*
X9533090Y-10148452D01*
X9523567Y-10129405D01*
X9523567Y-9957976D01*
X9656900Y-10157976D02*
X9637852Y-10148452D01*
X9628329Y-10129405D01*
X9628329Y-9957976D01*
X9885471Y-10157976D02*
X9885471Y-9957976D01*
X9952138Y-10100833D01*
X10018805Y-9957976D01*
X10018805Y-10157976D01*
X10199757Y-10157976D02*
X10199757Y-10053214D01*
X10190233Y-10034167D01*
X10171186Y-10024643D01*
X10133090Y-10024643D01*
X10114043Y-10034167D01*
X10199757Y-10148452D02*
X10180710Y-10157976D01*
X10133090Y-10157976D01*
X10114043Y-10148452D01*
X10104519Y-10129405D01*
X10104519Y-10110357D01*
X10114043Y-10091310D01*
X10133090Y-10081786D01*
X10180710Y-10081786D01*
X10199757Y-10072262D01*
X10294995Y-10024643D02*
X10294995Y-10224643D01*
X10294995Y-10034167D02*
X10314043Y-10024643D01*
X10352138Y-10024643D01*
X10371186Y-10034167D01*
X10380710Y-10043690D01*
X10390233Y-10062738D01*
X10390233Y-10119881D01*
X10380710Y-10138929D01*
X10371186Y-10148452D01*
X10352138Y-10157976D01*
X10314043Y-10157976D01*
X10294995Y-10148452D01*
X10475948Y-10138929D02*
X10485471Y-10148452D01*
X10475948Y-10157976D01*
X10466424Y-10148452D01*
X10475948Y-10138929D01*
X10475948Y-10157976D01*
X10475948Y-10034167D02*
X10485471Y-10043690D01*
X10475948Y-10053214D01*
X10466424Y-10043690D01*
X10475948Y-10034167D01*
X10475948Y-10053214D01*
D10*
X8746900Y-10437500D02*
X8846900Y-10537500D01*
X8846900Y-10437500D02*
X8746900Y-10537500D01*
D11*
X9209281Y-10577976D02*
X9094995Y-10577976D01*
X9152138Y-10577976D02*
X9152138Y-10377976D01*
X9133090Y-10406548D01*
X9114043Y-10425595D01*
X9094995Y-10435119D01*
X9294995Y-10558929D02*
X9304519Y-10568452D01*
X9294995Y-10577976D01*
X9285471Y-10568452D01*
X9294995Y-10558929D01*
X9294995Y-10577976D01*
X9428329Y-10377976D02*
X9447376Y-10377976D01*
X9466424Y-10387500D01*
X9475948Y-10397024D01*
X9485471Y-10416071D01*
X9494995Y-10454167D01*
X9494995Y-10501786D01*
X9485471Y-10539881D01*
X9475948Y-10558929D01*
X9466424Y-10568452D01*
X9447376Y-10577976D01*
X9428329Y-10577976D01*
X9409281Y-10568452D01*
X9399757Y-10558929D01*
X9390233Y-10539881D01*
X9380710Y-10501786D01*
X9380710Y-10454167D01*
X9390233Y-10416071D01*
X9399757Y-10397024D01*
X9409281Y-10387500D01*
X9428329Y-10377976D01*
X9618805Y-10377976D02*
X9637852Y-10377976D01*
X9656900Y-10387500D01*
X9666424Y-10397024D01*
X9675948Y-10416071D01*
X9685471Y-10454167D01*
X9685471Y-10501786D01*
X9675948Y-10539881D01*
X9666424Y-10558929D01*
X9656900Y-10568452D01*
X9637852Y-10577976D01*
X9618805Y-10577976D01*
X9599757Y-10568452D01*
X9590233Y-10558929D01*
X9580710Y-10539881D01*
X9571186Y-10501786D01*
X9571186Y-10454167D01*
X9580710Y-10416071D01*
X9590233Y-10397024D01*
X9599757Y-10387500D01*
X9618805Y-10377976D01*
X9809281Y-10377976D02*
X9828329Y-10377976D01*
X9847376Y-10387500D01*
X9856900Y-10397024D01*
X9866424Y-10416071D01*
X9875948Y-10454167D01*
X9875948Y-10501786D01*
X9866424Y-10539881D01*
X9856900Y-10558929D01*
X9847376Y-10568452D01*
X9828329Y-10577976D01*
X9809281Y-10577976D01*
X9790233Y-10568452D01*
X9780710Y-10558929D01*
X9771186Y-10539881D01*
X9761662Y-10501786D01*
X9761662Y-10454167D01*
X9771186Y-10416071D01*
X9780710Y-10397024D01*
X9790233Y-10387500D01*
X9809281Y-10377976D01*
X9961662Y-10577976D02*
X9961662Y-10444643D01*
X9961662Y-10463690D02*
X9971186Y-10454167D01*
X9990233Y-10444643D01*
X10018805Y-10444643D01*
X10037852Y-10454167D01*
X10047376Y-10473214D01*
X10047376Y-10577976D01*
X10047376Y-10473214D02*
X10056900Y-10454167D01*
X10075948Y-10444643D01*
X10104519Y-10444643D01*
X10123567Y-10454167D01*
X10133090Y-10473214D01*
X10133090Y-10577976D01*
X10228329Y-10577976D02*
X10228329Y-10444643D01*
X10228329Y-10463690D02*
X10237852Y-10454167D01*
X10256900Y-10444643D01*
X10285471Y-10444643D01*
X10304519Y-10454167D01*
X10314043Y-10473214D01*
X10314043Y-10577976D01*
X10314043Y-10473214D02*
X10323567Y-10454167D01*
X10342614Y-10444643D01*
X10371186Y-10444643D01*
X10390233Y-10454167D01*
X10399757Y-10473214D01*
X10399757Y-10577976D01*
X10790233Y-10368452D02*
X10618805Y-10625595D01*
X11047376Y-10377976D02*
X11066424Y-10377976D01*
X11085471Y-10387500D01*
X11094995Y-10397024D01*
X11104519Y-10416071D01*
X11114043Y-10454167D01*
X11114043Y-10501786D01*
X11104519Y-10539881D01*
X11094995Y-10558929D01*
X11085471Y-10568452D01*
X11066424Y-10577976D01*
X11047376Y-10577976D01*
X11028329Y-10568452D01*
X11018805Y-10558929D01*
X11009281Y-10539881D01*
X10999757Y-10501786D01*
X10999757Y-10454167D01*
X11009281Y-10416071D01*
X11018805Y-10397024D01*
X11028329Y-10387500D01*
X11047376Y-10377976D01*
X11199757Y-10558929D02*
X11209281Y-10568452D01*
X11199757Y-10577976D01*
X11190233Y-10568452D01*
X11199757Y-10558929D01*
X11199757Y-10577976D01*
X11333090Y-10377976D02*
X11352138Y-10377976D01*
X11371186Y-10387500D01*
X11380709Y-10397024D01*
X11390233Y-10416071D01*
X11399757Y-10454167D01*
X11399757Y-10501786D01*
X11390233Y-10539881D01*
X11380709Y-10558929D01*
X11371186Y-10568452D01*
X11352138Y-10577976D01*
X11333090Y-10577976D01*
X11314043Y-10568452D01*
X11304519Y-10558929D01*
X11294995Y-10539881D01*
X11285471Y-10501786D01*
X11285471Y-10454167D01*
X11294995Y-10416071D01*
X11304519Y-10397024D01*
X11314043Y-10387500D01*
X11333090Y-10377976D01*
X11466424Y-10377976D02*
X11590233Y-10377976D01*
X11523567Y-10454167D01*
X11552138Y-10454167D01*
X11571186Y-10463690D01*
X11580709Y-10473214D01*
X11590233Y-10492262D01*
X11590233Y-10539881D01*
X11580709Y-10558929D01*
X11571186Y-10568452D01*
X11552138Y-10577976D01*
X11494995Y-10577976D01*
X11475948Y-10568452D01*
X11466424Y-10558929D01*
X11685471Y-10577976D02*
X11723567Y-10577976D01*
X11742614Y-10568452D01*
X11752138Y-10558929D01*
X11771186Y-10530357D01*
X11780709Y-10492262D01*
X11780709Y-10416071D01*
X11771186Y-10397024D01*
X11761662Y-10387500D01*
X11742614Y-10377976D01*
X11704519Y-10377976D01*
X11685471Y-10387500D01*
X11675948Y-10397024D01*
X11666424Y-10416071D01*
X11666424Y-10463690D01*
X11675948Y-10482738D01*
X11685471Y-10492262D01*
X11704519Y-10501786D01*
X11742614Y-10501786D01*
X11761662Y-10492262D01*
X11771186Y-10482738D01*
X11780709Y-10463690D01*
X11952138Y-10444643D02*
X11952138Y-10577976D01*
X11904519Y-10368452D02*
X11856900Y-10511310D01*
X11980709Y-10511310D01*
X12047376Y-10377976D02*
X12047376Y-10416071D01*
X12123567Y-10377976D02*
X12123567Y-10416071D01*
X12418805Y-10654167D02*
X12409281Y-10644643D01*
X12390233Y-10616071D01*
X12380709Y-10597024D01*
X12371186Y-10568452D01*
X12361662Y-10520833D01*
X12361662Y-10482738D01*
X12371186Y-10435119D01*
X12380709Y-10406548D01*
X12390233Y-10387500D01*
X12409281Y-10358929D01*
X12418805Y-10349405D01*
X12475948Y-10377976D02*
X12599757Y-10377976D01*
X12533090Y-10454167D01*
X12561662Y-10454167D01*
X12580709Y-10463690D01*
X12590233Y-10473214D01*
X12599757Y-10492262D01*
X12599757Y-10539881D01*
X12590233Y-10558929D01*
X12580709Y-10568452D01*
X12561662Y-10577976D01*
X12504519Y-10577976D01*
X12485471Y-10568452D01*
X12475948Y-10558929D01*
X12723567Y-10377976D02*
X12742614Y-10377976D01*
X12761662Y-10387500D01*
X12771186Y-10397024D01*
X12780709Y-10416071D01*
X12790233Y-10454167D01*
X12790233Y-10501786D01*
X12780709Y-10539881D01*
X12771186Y-10558929D01*
X12761662Y-10568452D01*
X12742614Y-10577976D01*
X12723567Y-10577976D01*
X12704519Y-10568452D01*
X12694995Y-10558929D01*
X12685471Y-10539881D01*
X12675948Y-10501786D01*
X12675948Y-10454167D01*
X12685471Y-10416071D01*
X12694995Y-10397024D01*
X12704519Y-10387500D01*
X12723567Y-10377976D01*
X13028328Y-10577976D02*
X13028328Y-10377976D01*
X13114043Y-10577976D02*
X13114043Y-10473214D01*
X13104519Y-10454167D01*
X13085471Y-10444643D01*
X13056900Y-10444643D01*
X13037852Y-10454167D01*
X13028328Y-10463690D01*
X13237852Y-10577976D02*
X13218805Y-10568452D01*
X13209281Y-10558929D01*
X13199757Y-10539881D01*
X13199757Y-10482738D01*
X13209281Y-10463690D01*
X13218805Y-10454167D01*
X13237852Y-10444643D01*
X13266424Y-10444643D01*
X13285471Y-10454167D01*
X13294995Y-10463690D01*
X13304519Y-10482738D01*
X13304519Y-10539881D01*
X13294995Y-10558929D01*
X13285471Y-10568452D01*
X13266424Y-10577976D01*
X13237852Y-10577976D01*
X13418805Y-10577976D02*
X13399757Y-10568452D01*
X13390233Y-10549405D01*
X13390233Y-10377976D01*
X13571186Y-10568452D02*
X13552138Y-10577976D01*
X13514043Y-10577976D01*
X13494995Y-10568452D01*
X13485471Y-10549405D01*
X13485471Y-10473214D01*
X13494995Y-10454167D01*
X13514043Y-10444643D01*
X13552138Y-10444643D01*
X13571186Y-10454167D01*
X13580709Y-10473214D01*
X13580709Y-10492262D01*
X13485471Y-10511310D01*
X13656900Y-10568452D02*
X13675948Y-10577976D01*
X13714043Y-10577976D01*
X13733090Y-10568452D01*
X13742614Y-10549405D01*
X13742614Y-10539881D01*
X13733090Y-10520833D01*
X13714043Y-10511310D01*
X13685471Y-10511310D01*
X13666424Y-10501786D01*
X13656900Y-10482738D01*
X13656900Y-10473214D01*
X13666424Y-10454167D01*
X13685471Y-10444643D01*
X13714043Y-10444643D01*
X13733090Y-10454167D01*
X13809281Y-10654167D02*
X13818805Y-10644643D01*
X13837852Y-10616071D01*
X13847376Y-10597024D01*
X13856900Y-10568452D01*
X13866424Y-10520833D01*
X13866424Y-10482738D01*
X13856900Y-10435119D01*
X13847376Y-10406548D01*
X13837852Y-10387500D01*
X13818805Y-10358929D01*
X13809281Y-10349405D01*
M02*
