%TF.GenerationSoftware,KiCad,Pcbnew,(6.0.7)*%
%TF.CreationDate,2023-01-12T16:49:01-05:00*%
%TF.ProjectId,Phoenix612_Stage_3_PA_Testing_v1,50686f65-6e69-4783-9631-325f53746167,rev?*%
%TF.SameCoordinates,Original*%
%TF.FileFunction,Copper,L2,Bot*%
%TF.FilePolarity,Positive*%
%FSLAX46Y46*%
G04 Gerber Fmt 4.6, Leading zero omitted, Abs format (unit mm)*
G04 Created by KiCad (PCBNEW (6.0.7)) date 2023-01-12 16:49:01*
%MOMM*%
%LPD*%
G01*
G04 APERTURE LIST*
%TA.AperFunction,ComponentPad*%
%ADD10C,2.250000*%
%TD*%
%TA.AperFunction,ComponentPad*%
%ADD11C,2.050000*%
%TD*%
%TA.AperFunction,ComponentPad*%
%ADD12C,2.400000*%
%TD*%
%TA.AperFunction,ComponentPad*%
%ADD13O,2.200000X2.200000*%
%TD*%
%TA.AperFunction,ComponentPad*%
%ADD14R,2.200000X2.200000*%
%TD*%
%TA.AperFunction,ComponentPad*%
%ADD15O,1.050000X1.500000*%
%TD*%
%TA.AperFunction,ComponentPad*%
%ADD16R,1.050000X1.500000*%
%TD*%
%TA.AperFunction,ComponentPad*%
%ADD17C,1.600000*%
%TD*%
%TA.AperFunction,ComponentPad*%
%ADD18R,1.600000X1.600000*%
%TD*%
%TA.AperFunction,ComponentPad*%
%ADD19C,1.800000*%
%TD*%
%TA.AperFunction,ComponentPad*%
%ADD20R,1.800000X1.800000*%
%TD*%
%TA.AperFunction,ComponentPad*%
%ADD21C,1.400000*%
%TD*%
%TA.AperFunction,ComponentPad*%
%ADD22O,1.905000X2.000000*%
%TD*%
%TA.AperFunction,ComponentPad*%
%ADD23R,1.905000X2.000000*%
%TD*%
%TA.AperFunction,ComponentPad*%
%ADD24C,1.440000*%
%TD*%
%TA.AperFunction,ComponentPad*%
%ADD25O,1.700000X1.700000*%
%TD*%
%TA.AperFunction,ComponentPad*%
%ADD26R,1.700000X1.700000*%
%TD*%
%TA.AperFunction,ComponentPad*%
%ADD27C,3.000000*%
%TD*%
%TA.AperFunction,Conductor*%
%ADD28C,0.500000*%
%TD*%
G04 APERTURE END LIST*
D10*
%TO.P,J4,2,Ext*%
%TO.N,GND*%
X124333000Y-42672000D03*
X124333000Y-37592000D03*
X119253000Y-42672000D03*
X119253000Y-37592000D03*
D11*
%TO.P,J4,1,In*%
%TO.N,Net-(C18-Pad2)*%
X121793000Y-40132000D03*
%TD*%
D12*
%TO.P,L2,2,2*%
%TO.N,M2_12V*%
X92075000Y-72560800D03*
%TO.P,L2,1,1*%
%TO.N,TX12V*%
X92075000Y-87560800D03*
%TD*%
D13*
%TO.P,D1,2,A*%
%TO.N,GND*%
X138887200Y-85598000D03*
D14*
%TO.P,D1,1,K*%
%TO.N,Net-(C4-Pad1)*%
X128727200Y-85598000D03*
%TD*%
D15*
%TO.P,Q1,3,S*%
%TO.N,GND*%
X122631200Y-103992000D03*
%TO.P,Q1,2,G*%
%TO.N,Net-(C2-Pad2)*%
X121361200Y-103992000D03*
D16*
%TO.P,Q1,1,D*%
%TO.N,Net-(J2-Pad2)*%
X120091200Y-103992000D03*
%TD*%
D17*
%TO.P,C17,2*%
%TO.N,GND*%
X136154800Y-49453800D03*
D18*
%TO.P,C17,1*%
%TO.N,Net-(C14-Pad1)*%
X133654800Y-49453800D03*
%TD*%
D10*
%TO.P,J1,2,Ext*%
%TO.N,GND*%
X118922800Y-115544600D03*
X124002800Y-120624600D03*
X124002800Y-115544600D03*
X118922800Y-120624600D03*
D11*
%TO.P,J1,1,In*%
%TO.N,Net-(C2-Pad1)*%
X121462800Y-118084600D03*
%TD*%
D12*
%TO.P,L1,2,2*%
%TO.N,M1_12V*%
X91922600Y-110758000D03*
%TO.P,L1,1,1*%
%TO.N,TX12V*%
X91922600Y-95758000D03*
%TD*%
D19*
%TO.P,D4,2,A*%
%TO.N,TX12V*%
X83591400Y-73248600D03*
D20*
%TO.P,D4,1,K*%
%TO.N,Net-(D4-Pad1)*%
X83591400Y-70708600D03*
%TD*%
D21*
%TO.P,TP1,1,1*%
%TO.N,TX12V*%
X121716800Y-88773000D03*
%TD*%
D17*
%TO.P,C6,2*%
%TO.N,GND*%
X135840349Y-76784200D03*
D18*
%TO.P,C6,1*%
%TO.N,Net-(C4-Pad1)*%
X133340349Y-76784200D03*
%TD*%
D22*
%TO.P,Q2,3*%
%TO.N,Net-(J3-Pad2)*%
X108737400Y-59486800D03*
%TO.P,Q2,2*%
%TO.N,GND*%
X111277400Y-59486800D03*
D23*
%TO.P,Q2,1*%
%TO.N,Net-(Q2-Pad1)*%
X113817400Y-59486800D03*
%TD*%
D24*
%TO.P,RV2,3,3*%
%TO.N,Net-(C14-Pad1)*%
X128346200Y-58023600D03*
%TO.P,RV2,2,2*%
%TO.N,Net-(C10-Pad1)*%
X128346200Y-60563600D03*
%TO.P,RV2,1,1*%
%TO.N,GND*%
X128346200Y-63103600D03*
%TD*%
D25*
%TO.P,J5,3,Pin_3*%
%TO.N,GND*%
X93243400Y-119303800D03*
%TO.P,J5,2,Pin_2*%
%TO.N,Net-(D3-Pad2)*%
X90703400Y-119303800D03*
D26*
%TO.P,J5,1,Pin_1*%
%TO.N,GND*%
X88163400Y-119303800D03*
%TD*%
D21*
%TO.P,TP4,1,1*%
%TO.N,Net-(Q2-Pad1)*%
X109905800Y-70129400D03*
%TD*%
D25*
%TO.P,J6,4,Pin_4*%
%TO.N,Net-(J6-Pad3)*%
X105557400Y-77449600D03*
%TO.P,J6,3,Pin_3*%
X105557400Y-79989600D03*
%TO.P,J6,2,Pin_2*%
%TO.N,Net-(J6-Pad2)*%
X103017400Y-77449600D03*
D26*
%TO.P,J6,1,Pin_1*%
%TO.N,Net-(C8-Pad2)*%
X103017400Y-79989600D03*
%TD*%
D21*
%TO.P,TP2,1,1*%
%TO.N,TX12V*%
X118973600Y-48971200D03*
%TD*%
D13*
%TO.P,D2,2,A*%
%TO.N,GND*%
X134696200Y-67183000D03*
D14*
%TO.P,D2,1,K*%
%TO.N,Net-(C14-Pad1)*%
X134696200Y-57023000D03*
%TD*%
D25*
%TO.P,J3,2,Pin_2*%
%TO.N,Net-(J3-Pad2)*%
X112669400Y-44577000D03*
D26*
%TO.P,J3,1,Pin_1*%
%TO.N,Net-(J3-Pad1)*%
X110129400Y-44577000D03*
%TD*%
D24*
%TO.P,RV1,3,3*%
%TO.N,Net-(C4-Pad1)*%
X128473200Y-93446600D03*
%TO.P,RV1,2,2*%
%TO.N,Net-(C1-Pad1)*%
X131013200Y-93446600D03*
%TO.P,RV1,1,1*%
%TO.N,GND*%
X133553200Y-93446600D03*
%TD*%
D13*
%TO.P,D3,2,A*%
%TO.N,Net-(D3-Pad2)*%
X82423000Y-109118400D03*
D14*
%TO.P,D3,1,K*%
%TO.N,TX12V*%
X82423000Y-98958400D03*
%TD*%
D21*
%TO.P,TP3,1,1*%
%TO.N,TX12V*%
X85013800Y-81254600D03*
%TD*%
D27*
%TO.P,T2,4,SA*%
%TO.N,Net-(C18-Pad1)*%
X105534600Y-38249600D03*
%TO.P,T2,3,SB*%
%TO.N,GND*%
X92534600Y-38249600D03*
%TO.P,T2,2,AB*%
%TO.N,Net-(J3-Pad1)*%
X105534600Y-44249600D03*
%TO.P,T2,1,AA*%
%TO.N,M2_12V*%
X92534600Y-44249600D03*
%TD*%
%TO.P,T1,4,SA*%
%TO.N,Net-(C8-Pad1)*%
X103045000Y-99011600D03*
%TO.P,T1,3,SB*%
%TO.N,GND*%
X103045000Y-112011600D03*
%TO.P,T1,2,AB*%
%TO.N,Net-(J2-Pad1)*%
X109045000Y-99011600D03*
%TO.P,T1,1,AA*%
%TO.N,M1_12V*%
X109045000Y-112011600D03*
%TD*%
D17*
%TO.P,C5,2*%
%TO.N,GND*%
X81940400Y-92939749D03*
D18*
%TO.P,C5,1*%
%TO.N,TX12V*%
X81940400Y-90439749D03*
%TD*%
D25*
%TO.P,J2,2,Pin_2*%
%TO.N,Net-(J2-Pad2)*%
X117495400Y-95961200D03*
D26*
%TO.P,J2,1,Pin_1*%
%TO.N,Net-(J2-Pad1)*%
X114955400Y-95961200D03*
%TD*%
D17*
%TO.P,C12,2*%
%TO.N,GND*%
X103225600Y-117931051D03*
D18*
%TO.P,C12,1*%
%TO.N,M1_12V*%
X103225600Y-120431051D03*
%TD*%
D17*
%TO.P,C16,2*%
%TO.N,GND*%
X94793949Y-65405000D03*
D18*
%TO.P,C16,1*%
%TO.N,M2_12V*%
X92293949Y-65405000D03*
%TD*%
D28*
%TO.N,TX12V*%
X118770400Y-50444400D02*
X118973600Y-50241200D01*
X103555800Y-50444400D02*
X118770400Y-50444400D01*
X118973600Y-50241200D02*
X118973600Y-48971200D01*
X120504600Y-87560800D02*
X121716800Y-88773000D01*
X92075000Y-87560800D02*
X120504600Y-87560800D01*
X95573200Y-87560800D02*
X98856800Y-84277200D01*
X98856800Y-84277200D02*
X98856800Y-55143400D01*
X92075000Y-87560800D02*
X95573200Y-87560800D01*
X98856800Y-55143400D02*
X103555800Y-50444400D01*
%TD*%
M02*
