%TF.GenerationSoftware,KiCad,Pcbnew,(6.0.7)*%
%TF.CreationDate,2023-01-12T16:48:56-05:00*%
%TF.ProjectId,Phoenix612_Stage_3_PA_Testing_v1,50686f65-6e69-4783-9631-325f53746167,rev?*%
%TF.SameCoordinates,Original*%
%TF.FileFunction,Drillmap*%
%TF.FilePolarity,Positive*%
%FSLAX45Y45*%
G04 Gerber Fmt 4.5, Leading zero omitted, Abs format (unit mm)*
G04 Created by KiCad (PCBNEW (6.0.7)) date 2023-01-12 16:48:56*
%MOMM*%
%LPD*%
G01*
G04 APERTURE LIST*
%ADD10C,0.100000*%
%ADD11C,0.200000*%
%ADD12C,0.070000*%
%ADD13C,0.075000*%
%ADD14C,0.080000*%
%ADD15C,0.090000*%
%ADD16C,0.110000*%
%ADD17C,0.120000*%
%ADD18C,0.150000*%
%ADD19C,0.170000*%
G04 APERTURE END LIST*
D10*
X14168120Y-3263900D02*
X7663180Y-3263900D01*
X7663180Y-3263900D02*
X7663180Y-12562840D01*
X7663180Y-12562840D02*
X14168120Y-12562840D01*
X14168120Y-12562840D02*
X14168120Y-3263900D01*
D11*
D12*
X8466380Y-8090460D02*
X8536380Y-8160460D01*
X8536380Y-8090460D02*
X8466380Y-8160460D01*
X10955580Y-6977940D02*
X11025580Y-7047940D01*
X11025580Y-6977940D02*
X10955580Y-7047940D01*
X11862360Y-4862120D02*
X11932360Y-4932120D01*
X11932360Y-4862120D02*
X11862360Y-4932120D01*
X12136680Y-8842300D02*
X12206680Y-8912300D01*
X12206680Y-8842300D02*
X12136680Y-8912300D01*
D13*
X12046620Y-10399200D02*
G75*
G03*
X12046620Y-10399200I-37500J0D01*
G01*
X12173620Y-10399200D02*
G75*
G03*
X12173620Y-10399200I-37500J0D01*
G01*
X12300620Y-10399200D02*
G75*
G03*
X12300620Y-10399200I-37500J0D01*
G01*
D14*
X8194040Y-9003975D02*
X8194040Y-9083975D01*
X8154040Y-9043975D02*
X8234040Y-9043975D01*
X8194040Y-9253975D02*
X8194040Y-9333975D01*
X8154040Y-9293975D02*
X8234040Y-9293975D01*
X9229395Y-6500500D02*
X9229395Y-6580500D01*
X9189395Y-6540500D02*
X9269395Y-6540500D01*
X9479395Y-6500500D02*
X9479395Y-6580500D01*
X9439395Y-6540500D02*
X9519395Y-6540500D01*
X10322560Y-11753105D02*
X10322560Y-11833105D01*
X10282560Y-11793105D02*
X10362560Y-11793105D01*
X10322560Y-12003105D02*
X10322560Y-12083105D01*
X10282560Y-12043105D02*
X10362560Y-12043105D01*
X12834620Y-5762360D02*
X12834620Y-5842360D01*
X12794620Y-5802360D02*
X12874620Y-5802360D01*
X12834620Y-6016360D02*
X12834620Y-6096360D01*
X12794620Y-6056360D02*
X12874620Y-6056360D01*
X12834620Y-6270360D02*
X12834620Y-6350360D01*
X12794620Y-6310360D02*
X12874620Y-6310360D01*
X12847320Y-9304660D02*
X12847320Y-9384660D01*
X12807320Y-9344660D02*
X12887320Y-9344660D01*
X13101320Y-9304660D02*
X13101320Y-9384660D01*
X13061320Y-9344660D02*
X13141320Y-9344660D01*
X13334035Y-7638420D02*
X13334035Y-7718420D01*
X13294035Y-7678420D02*
X13374035Y-7678420D01*
X13355320Y-9304660D02*
X13355320Y-9384660D01*
X13315320Y-9344660D02*
X13395320Y-9344660D01*
X13365480Y-4905380D02*
X13365480Y-4985380D01*
X13325480Y-4945380D02*
X13405480Y-4945380D01*
X13584035Y-7638420D02*
X13584035Y-7718420D01*
X13544035Y-7678420D02*
X13624035Y-7678420D01*
X13615480Y-4905380D02*
X13615480Y-4985380D01*
X13575480Y-4945380D02*
X13655480Y-4945380D01*
D15*
X8390960Y-7102680D02*
X8390960Y-7039040D01*
X8327320Y-7039040D01*
X8327320Y-7102680D01*
X8390960Y-7102680D01*
X8390960Y-7356680D02*
X8390960Y-7293040D01*
X8327320Y-7293040D01*
X8327320Y-7356680D01*
X8390960Y-7356680D01*
D10*
X8816340Y-11980380D02*
X8866340Y-11930380D01*
X8816340Y-11880380D01*
X8766340Y-11930380D01*
X8816340Y-11980380D01*
X9070340Y-11980380D02*
X9120340Y-11930380D01*
X9070340Y-11880380D01*
X9020340Y-11930380D01*
X9070340Y-11980380D01*
X9324340Y-11980380D02*
X9374340Y-11930380D01*
X9324340Y-11880380D01*
X9274340Y-11930380D01*
X9324340Y-11980380D01*
X10301740Y-7794960D02*
X10351740Y-7744960D01*
X10301740Y-7694960D01*
X10251740Y-7744960D01*
X10301740Y-7794960D01*
X10301740Y-8048960D02*
X10351740Y-7998960D01*
X10301740Y-7948960D01*
X10251740Y-7998960D01*
X10301740Y-8048960D01*
X10555740Y-7794960D02*
X10605740Y-7744960D01*
X10555740Y-7694960D01*
X10505740Y-7744960D01*
X10555740Y-7794960D01*
X10555740Y-8048960D02*
X10605740Y-7998960D01*
X10555740Y-7948960D01*
X10505740Y-7998960D01*
X10555740Y-8048960D01*
X11012940Y-4507700D02*
X11062940Y-4457700D01*
X11012940Y-4407700D01*
X10962940Y-4457700D01*
X11012940Y-4507700D01*
X11266940Y-4507700D02*
X11316940Y-4457700D01*
X11266940Y-4407700D01*
X11216940Y-4457700D01*
X11266940Y-4507700D01*
X11495540Y-9646120D02*
X11545540Y-9596120D01*
X11495540Y-9546120D01*
X11445540Y-9596120D01*
X11495540Y-9646120D01*
X11749540Y-9646120D02*
X11799540Y-9596120D01*
X11749540Y-9546120D01*
X11699540Y-9596120D01*
X11749540Y-9646120D01*
D16*
X8187300Y-9840840D02*
X8297300Y-9950840D01*
X8297300Y-9840840D02*
X8187300Y-9950840D01*
X8297300Y-9895840D02*
G75*
G03*
X8297300Y-9895840I-55000J0D01*
G01*
X8187300Y-10856840D02*
X8297300Y-10966840D01*
X8297300Y-10856840D02*
X8187300Y-10966840D01*
X8297300Y-10911840D02*
G75*
G03*
X8297300Y-10911840I-55000J0D01*
G01*
X10818740Y-5893680D02*
X10928740Y-6003680D01*
X10928740Y-5893680D02*
X10818740Y-6003680D01*
X10928740Y-5948680D02*
G75*
G03*
X10928740Y-5948680I-55000J0D01*
G01*
X11072740Y-5893680D02*
X11182740Y-6003680D01*
X11182740Y-5893680D02*
X11072740Y-6003680D01*
X11182740Y-5948680D02*
G75*
G03*
X11182740Y-5948680I-55000J0D01*
G01*
X11326740Y-5893680D02*
X11436740Y-6003680D01*
X11436740Y-5893680D02*
X11326740Y-6003680D01*
X11436740Y-5948680D02*
G75*
G03*
X11436740Y-5948680I-55000J0D01*
G01*
X12817720Y-8504800D02*
X12927720Y-8614800D01*
X12927720Y-8504800D02*
X12817720Y-8614800D01*
X12927720Y-8559800D02*
G75*
G03*
X12927720Y-8559800I-55000J0D01*
G01*
X13414620Y-5647300D02*
X13524620Y-5757300D01*
X13524620Y-5647300D02*
X13414620Y-5757300D01*
X13524620Y-5702300D02*
G75*
G03*
X13524620Y-5702300I-55000J0D01*
G01*
X13414620Y-6663300D02*
X13524620Y-6773300D01*
X13524620Y-6663300D02*
X13414620Y-6773300D01*
X13524620Y-6718300D02*
G75*
G03*
X13524620Y-6718300I-55000J0D01*
G01*
X13833720Y-8504800D02*
X13943720Y-8614800D01*
X13943720Y-8504800D02*
X13833720Y-8614800D01*
X13943720Y-8559800D02*
G75*
G03*
X13943720Y-8559800I-55000J0D01*
G01*
D17*
X9132260Y-9515800D02*
X9252260Y-9635800D01*
X9252260Y-9515800D02*
X9132260Y-9635800D01*
X9192260Y-9515800D02*
X9192260Y-9635800D01*
X9132260Y-9575800D02*
X9252260Y-9575800D01*
X9132260Y-11015800D02*
X9252260Y-11135800D01*
X9252260Y-11015800D02*
X9132260Y-11135800D01*
X9192260Y-11015800D02*
X9192260Y-11135800D01*
X9132260Y-11075800D02*
X9252260Y-11075800D01*
X9147500Y-7196080D02*
X9267500Y-7316080D01*
X9267500Y-7196080D02*
X9147500Y-7316080D01*
X9207500Y-7196080D02*
X9207500Y-7316080D01*
X9147500Y-7256080D02*
X9267500Y-7256080D01*
X9147500Y-8696080D02*
X9267500Y-8816080D01*
X9267500Y-8696080D02*
X9147500Y-8816080D01*
X9207500Y-8696080D02*
X9207500Y-8816080D01*
X9147500Y-8756080D02*
X9267500Y-8756080D01*
X9193460Y-3764960D02*
X9313460Y-3884960D01*
X9313460Y-3764960D02*
X9193460Y-3884960D01*
X9253460Y-3764960D02*
X9253460Y-3884960D01*
X9193460Y-3824960D02*
X9313460Y-3824960D01*
X9193460Y-4364960D02*
X9313460Y-4484960D01*
X9313460Y-4364960D02*
X9193460Y-4484960D01*
X9253460Y-4364960D02*
X9253460Y-4484960D01*
X9193460Y-4424960D02*
X9313460Y-4424960D01*
X10244500Y-9841160D02*
X10364500Y-9961160D01*
X10364500Y-9841160D02*
X10244500Y-9961160D01*
X10304500Y-9841160D02*
X10304500Y-9961160D01*
X10244500Y-9901160D02*
X10364500Y-9901160D01*
X10244500Y-11141160D02*
X10364500Y-11261160D01*
X10364500Y-11141160D02*
X10244500Y-11261160D01*
X10304500Y-11141160D02*
X10304500Y-11261160D01*
X10244500Y-11201160D02*
X10364500Y-11201160D01*
X10493460Y-3764960D02*
X10613460Y-3884960D01*
X10613460Y-3764960D02*
X10493460Y-3884960D01*
X10553460Y-3764960D02*
X10553460Y-3884960D01*
X10493460Y-3824960D02*
X10613460Y-3824960D01*
X10493460Y-4364960D02*
X10613460Y-4484960D01*
X10613460Y-4364960D02*
X10493460Y-4484960D01*
X10553460Y-4364960D02*
X10553460Y-4484960D01*
X10493460Y-4424960D02*
X10613460Y-4424960D01*
X10844500Y-9841160D02*
X10964500Y-9961160D01*
X10964500Y-9841160D02*
X10844500Y-9961160D01*
X10904500Y-9841160D02*
X10904500Y-9961160D01*
X10844500Y-9901160D02*
X10964500Y-9901160D01*
X10844500Y-11141160D02*
X10964500Y-11261160D01*
X10964500Y-11141160D02*
X10844500Y-11261160D01*
X10904500Y-11141160D02*
X10904500Y-11261160D01*
X10844500Y-11201160D02*
X10964500Y-11201160D01*
D18*
X12071280Y-11733460D02*
X12221280Y-11883460D01*
X12221280Y-11733460D02*
X12071280Y-11883460D01*
X12199313Y-11861493D02*
X12199313Y-11755426D01*
X12093246Y-11755426D01*
X12093246Y-11861493D01*
X12199313Y-11861493D01*
X12104300Y-3938200D02*
X12254300Y-4088200D01*
X12254300Y-3938200D02*
X12104300Y-4088200D01*
X12232333Y-4066233D02*
X12232333Y-3960166D01*
X12126266Y-3960166D01*
X12126266Y-4066233D01*
X12232333Y-4066233D01*
D19*
X11807280Y-11469460D02*
X11977280Y-11639460D01*
X11977280Y-11469460D02*
X11807280Y-11639460D01*
X11892280Y-11639460D02*
X11977280Y-11554460D01*
X11892280Y-11469460D01*
X11807280Y-11554460D01*
X11892280Y-11639460D01*
X11807280Y-11977460D02*
X11977280Y-12147460D01*
X11977280Y-11977460D02*
X11807280Y-12147460D01*
X11892280Y-12147460D02*
X11977280Y-12062460D01*
X11892280Y-11977460D01*
X11807280Y-12062460D01*
X11892280Y-12147460D01*
X11840300Y-3674200D02*
X12010300Y-3844200D01*
X12010300Y-3674200D02*
X11840300Y-3844200D01*
X11925300Y-3844200D02*
X12010300Y-3759200D01*
X11925300Y-3674200D01*
X11840300Y-3759200D01*
X11925300Y-3844200D01*
X11840300Y-4182200D02*
X12010300Y-4352200D01*
X12010300Y-4182200D02*
X11840300Y-4352200D01*
X11925300Y-4352200D02*
X12010300Y-4267200D01*
X11925300Y-4182200D01*
X11840300Y-4267200D01*
X11925300Y-4352200D01*
X12315280Y-11469460D02*
X12485280Y-11639460D01*
X12485280Y-11469460D02*
X12315280Y-11639460D01*
X12400280Y-11639460D02*
X12485280Y-11554460D01*
X12400280Y-11469460D01*
X12315280Y-11554460D01*
X12400280Y-11639460D01*
X12315280Y-11977460D02*
X12485280Y-12147460D01*
X12485280Y-11977460D02*
X12315280Y-12147460D01*
X12400280Y-12147460D02*
X12485280Y-12062460D01*
X12400280Y-11977460D01*
X12315280Y-12062460D01*
X12400280Y-12147460D01*
X12348300Y-3674200D02*
X12518300Y-3844200D01*
X12518300Y-3674200D02*
X12348300Y-3844200D01*
X12433300Y-3844200D02*
X12518300Y-3759200D01*
X12433300Y-3674200D01*
X12348300Y-3759200D01*
X12433300Y-3844200D01*
X12348300Y-4182200D02*
X12518300Y-4352200D01*
X12518300Y-4182200D02*
X12348300Y-4352200D01*
X12433300Y-4352200D02*
X12518300Y-4267200D01*
X12433300Y-4182200D01*
X12348300Y-4267200D01*
X12433300Y-4352200D01*
D11*
X7915799Y-12878316D02*
X7915799Y-12678316D01*
X7963418Y-12678316D01*
X7991989Y-12687840D01*
X8011037Y-12706888D01*
X8020561Y-12725935D01*
X8030085Y-12764030D01*
X8030085Y-12792602D01*
X8020561Y-12830697D01*
X8011037Y-12849745D01*
X7991989Y-12868792D01*
X7963418Y-12878316D01*
X7915799Y-12878316D01*
X8115799Y-12878316D02*
X8115799Y-12744983D01*
X8115799Y-12783078D02*
X8125323Y-12764030D01*
X8134847Y-12754507D01*
X8153894Y-12744983D01*
X8172942Y-12744983D01*
X8239608Y-12878316D02*
X8239608Y-12744983D01*
X8239608Y-12678316D02*
X8230085Y-12687840D01*
X8239608Y-12697364D01*
X8249132Y-12687840D01*
X8239608Y-12678316D01*
X8239608Y-12697364D01*
X8363418Y-12878316D02*
X8344370Y-12868792D01*
X8334847Y-12849745D01*
X8334847Y-12678316D01*
X8468180Y-12878316D02*
X8449132Y-12868792D01*
X8439609Y-12849745D01*
X8439609Y-12678316D01*
X8696751Y-12878316D02*
X8696751Y-12678316D01*
X8763418Y-12821173D01*
X8830085Y-12678316D01*
X8830085Y-12878316D01*
X9011037Y-12878316D02*
X9011037Y-12773554D01*
X9001513Y-12754507D01*
X8982466Y-12744983D01*
X8944370Y-12744983D01*
X8925323Y-12754507D01*
X9011037Y-12868792D02*
X8991990Y-12878316D01*
X8944370Y-12878316D01*
X8925323Y-12868792D01*
X8915799Y-12849745D01*
X8915799Y-12830697D01*
X8925323Y-12811649D01*
X8944370Y-12802126D01*
X8991990Y-12802126D01*
X9011037Y-12792602D01*
X9106275Y-12744983D02*
X9106275Y-12944983D01*
X9106275Y-12754507D02*
X9125323Y-12744983D01*
X9163418Y-12744983D01*
X9182466Y-12754507D01*
X9191990Y-12764030D01*
X9201513Y-12783078D01*
X9201513Y-12840221D01*
X9191990Y-12859268D01*
X9182466Y-12868792D01*
X9163418Y-12878316D01*
X9125323Y-12878316D01*
X9106275Y-12868792D01*
X9287228Y-12859268D02*
X9296751Y-12868792D01*
X9287228Y-12878316D01*
X9277704Y-12868792D01*
X9287228Y-12859268D01*
X9287228Y-12878316D01*
X9287228Y-12754507D02*
X9296751Y-12764030D01*
X9287228Y-12773554D01*
X9277704Y-12764030D01*
X9287228Y-12754507D01*
X9287228Y-12773554D01*
D12*
X7588180Y-13172840D02*
X7658180Y-13242840D01*
X7658180Y-13172840D02*
X7588180Y-13242840D01*
D11*
X7953894Y-13098316D02*
X7972942Y-13098316D01*
X7991989Y-13107840D01*
X8001513Y-13117364D01*
X8011037Y-13136411D01*
X8020561Y-13174507D01*
X8020561Y-13222126D01*
X8011037Y-13260221D01*
X8001513Y-13279268D01*
X7991989Y-13288792D01*
X7972942Y-13298316D01*
X7953894Y-13298316D01*
X7934847Y-13288792D01*
X7925323Y-13279268D01*
X7915799Y-13260221D01*
X7906275Y-13222126D01*
X7906275Y-13174507D01*
X7915799Y-13136411D01*
X7925323Y-13117364D01*
X7934847Y-13107840D01*
X7953894Y-13098316D01*
X8106275Y-13279268D02*
X8115799Y-13288792D01*
X8106275Y-13298316D01*
X8096751Y-13288792D01*
X8106275Y-13279268D01*
X8106275Y-13298316D01*
X8182466Y-13098316D02*
X8315799Y-13098316D01*
X8230085Y-13298316D01*
X8430085Y-13098316D02*
X8449132Y-13098316D01*
X8468180Y-13107840D01*
X8477704Y-13117364D01*
X8487228Y-13136411D01*
X8496751Y-13174507D01*
X8496751Y-13222126D01*
X8487228Y-13260221D01*
X8477704Y-13279268D01*
X8468180Y-13288792D01*
X8449132Y-13298316D01*
X8430085Y-13298316D01*
X8411037Y-13288792D01*
X8401513Y-13279268D01*
X8391990Y-13260221D01*
X8382466Y-13222126D01*
X8382466Y-13174507D01*
X8391990Y-13136411D01*
X8401513Y-13117364D01*
X8411037Y-13107840D01*
X8430085Y-13098316D01*
X8620561Y-13098316D02*
X8639609Y-13098316D01*
X8658656Y-13107840D01*
X8668180Y-13117364D01*
X8677704Y-13136411D01*
X8687228Y-13174507D01*
X8687228Y-13222126D01*
X8677704Y-13260221D01*
X8668180Y-13279268D01*
X8658656Y-13288792D01*
X8639609Y-13298316D01*
X8620561Y-13298316D01*
X8601513Y-13288792D01*
X8591990Y-13279268D01*
X8582466Y-13260221D01*
X8572942Y-13222126D01*
X8572942Y-13174507D01*
X8582466Y-13136411D01*
X8591990Y-13117364D01*
X8601513Y-13107840D01*
X8620561Y-13098316D01*
X8772942Y-13298316D02*
X8772942Y-13164983D01*
X8772942Y-13184030D02*
X8782466Y-13174507D01*
X8801513Y-13164983D01*
X8830085Y-13164983D01*
X8849132Y-13174507D01*
X8858656Y-13193554D01*
X8858656Y-13298316D01*
X8858656Y-13193554D02*
X8868180Y-13174507D01*
X8887228Y-13164983D01*
X8915799Y-13164983D01*
X8934847Y-13174507D01*
X8944370Y-13193554D01*
X8944370Y-13298316D01*
X9039609Y-13298316D02*
X9039609Y-13164983D01*
X9039609Y-13184030D02*
X9049132Y-13174507D01*
X9068180Y-13164983D01*
X9096751Y-13164983D01*
X9115799Y-13174507D01*
X9125323Y-13193554D01*
X9125323Y-13298316D01*
X9125323Y-13193554D02*
X9134847Y-13174507D01*
X9153894Y-13164983D01*
X9182466Y-13164983D01*
X9201513Y-13174507D01*
X9211037Y-13193554D01*
X9211037Y-13298316D01*
X9601513Y-13088792D02*
X9430085Y-13345935D01*
X9858656Y-13098316D02*
X9877704Y-13098316D01*
X9896751Y-13107840D01*
X9906275Y-13117364D01*
X9915799Y-13136411D01*
X9925323Y-13174507D01*
X9925323Y-13222126D01*
X9915799Y-13260221D01*
X9906275Y-13279268D01*
X9896751Y-13288792D01*
X9877704Y-13298316D01*
X9858656Y-13298316D01*
X9839609Y-13288792D01*
X9830085Y-13279268D01*
X9820561Y-13260221D01*
X9811037Y-13222126D01*
X9811037Y-13174507D01*
X9820561Y-13136411D01*
X9830085Y-13117364D01*
X9839609Y-13107840D01*
X9858656Y-13098316D01*
X10011037Y-13279268D02*
X10020561Y-13288792D01*
X10011037Y-13298316D01*
X10001513Y-13288792D01*
X10011037Y-13279268D01*
X10011037Y-13298316D01*
X10144370Y-13098316D02*
X10163418Y-13098316D01*
X10182466Y-13107840D01*
X10191990Y-13117364D01*
X10201513Y-13136411D01*
X10211037Y-13174507D01*
X10211037Y-13222126D01*
X10201513Y-13260221D01*
X10191990Y-13279268D01*
X10182466Y-13288792D01*
X10163418Y-13298316D01*
X10144370Y-13298316D01*
X10125323Y-13288792D01*
X10115799Y-13279268D01*
X10106275Y-13260221D01*
X10096751Y-13222126D01*
X10096751Y-13174507D01*
X10106275Y-13136411D01*
X10115799Y-13117364D01*
X10125323Y-13107840D01*
X10144370Y-13098316D01*
X10287228Y-13117364D02*
X10296751Y-13107840D01*
X10315799Y-13098316D01*
X10363418Y-13098316D01*
X10382466Y-13107840D01*
X10391990Y-13117364D01*
X10401513Y-13136411D01*
X10401513Y-13155459D01*
X10391990Y-13184030D01*
X10277704Y-13298316D01*
X10401513Y-13298316D01*
X10468180Y-13098316D02*
X10601513Y-13098316D01*
X10515799Y-13298316D01*
X10763418Y-13098316D02*
X10725323Y-13098316D01*
X10706275Y-13107840D01*
X10696751Y-13117364D01*
X10677704Y-13145935D01*
X10668180Y-13184030D01*
X10668180Y-13260221D01*
X10677704Y-13279268D01*
X10687228Y-13288792D01*
X10706275Y-13298316D01*
X10744370Y-13298316D01*
X10763418Y-13288792D01*
X10772942Y-13279268D01*
X10782466Y-13260221D01*
X10782466Y-13212602D01*
X10772942Y-13193554D01*
X10763418Y-13184030D01*
X10744370Y-13174507D01*
X10706275Y-13174507D01*
X10687228Y-13184030D01*
X10677704Y-13193554D01*
X10668180Y-13212602D01*
X10858656Y-13098316D02*
X10858656Y-13136411D01*
X10934847Y-13098316D02*
X10934847Y-13136411D01*
X11230085Y-13374507D02*
X11220561Y-13364983D01*
X11201513Y-13336411D01*
X11191989Y-13317364D01*
X11182466Y-13288792D01*
X11172942Y-13241173D01*
X11172942Y-13203078D01*
X11182466Y-13155459D01*
X11191989Y-13126888D01*
X11201513Y-13107840D01*
X11220561Y-13079268D01*
X11230085Y-13069745D01*
X11391989Y-13164983D02*
X11391989Y-13298316D01*
X11344370Y-13088792D02*
X11296751Y-13231649D01*
X11420561Y-13231649D01*
X11649132Y-13298316D02*
X11649132Y-13098316D01*
X11734847Y-13298316D02*
X11734847Y-13193554D01*
X11725323Y-13174507D01*
X11706275Y-13164983D01*
X11677704Y-13164983D01*
X11658656Y-13174507D01*
X11649132Y-13184030D01*
X11858656Y-13298316D02*
X11839608Y-13288792D01*
X11830085Y-13279268D01*
X11820561Y-13260221D01*
X11820561Y-13203078D01*
X11830085Y-13184030D01*
X11839608Y-13174507D01*
X11858656Y-13164983D01*
X11887228Y-13164983D01*
X11906275Y-13174507D01*
X11915799Y-13184030D01*
X11925323Y-13203078D01*
X11925323Y-13260221D01*
X11915799Y-13279268D01*
X11906275Y-13288792D01*
X11887228Y-13298316D01*
X11858656Y-13298316D01*
X12039608Y-13298316D02*
X12020561Y-13288792D01*
X12011037Y-13269745D01*
X12011037Y-13098316D01*
X12191989Y-13288792D02*
X12172942Y-13298316D01*
X12134847Y-13298316D01*
X12115799Y-13288792D01*
X12106275Y-13269745D01*
X12106275Y-13193554D01*
X12115799Y-13174507D01*
X12134847Y-13164983D01*
X12172942Y-13164983D01*
X12191989Y-13174507D01*
X12201513Y-13193554D01*
X12201513Y-13212602D01*
X12106275Y-13231649D01*
X12277704Y-13288792D02*
X12296751Y-13298316D01*
X12334847Y-13298316D01*
X12353894Y-13288792D01*
X12363418Y-13269745D01*
X12363418Y-13260221D01*
X12353894Y-13241173D01*
X12334847Y-13231649D01*
X12306275Y-13231649D01*
X12287228Y-13222126D01*
X12277704Y-13203078D01*
X12277704Y-13193554D01*
X12287228Y-13174507D01*
X12306275Y-13164983D01*
X12334847Y-13164983D01*
X12353894Y-13174507D01*
X12430085Y-13374507D02*
X12439608Y-13364983D01*
X12458656Y-13336411D01*
X12468180Y-13317364D01*
X12477704Y-13288792D01*
X12487228Y-13241173D01*
X12487228Y-13203078D01*
X12477704Y-13155459D01*
X12468180Y-13126888D01*
X12458656Y-13107840D01*
X12439608Y-13079268D01*
X12430085Y-13069745D01*
D13*
X7658180Y-13471840D02*
G75*
G03*
X7658180Y-13471840I-37500J0D01*
G01*
D11*
X7953894Y-13362316D02*
X7972942Y-13362316D01*
X7991989Y-13371840D01*
X8001513Y-13381364D01*
X8011037Y-13400411D01*
X8020561Y-13438507D01*
X8020561Y-13486126D01*
X8011037Y-13524221D01*
X8001513Y-13543268D01*
X7991989Y-13552792D01*
X7972942Y-13562316D01*
X7953894Y-13562316D01*
X7934847Y-13552792D01*
X7925323Y-13543268D01*
X7915799Y-13524221D01*
X7906275Y-13486126D01*
X7906275Y-13438507D01*
X7915799Y-13400411D01*
X7925323Y-13381364D01*
X7934847Y-13371840D01*
X7953894Y-13362316D01*
X8106275Y-13543268D02*
X8115799Y-13552792D01*
X8106275Y-13562316D01*
X8096751Y-13552792D01*
X8106275Y-13543268D01*
X8106275Y-13562316D01*
X8182466Y-13362316D02*
X8315799Y-13362316D01*
X8230085Y-13562316D01*
X8487228Y-13362316D02*
X8391990Y-13362316D01*
X8382466Y-13457554D01*
X8391990Y-13448030D01*
X8411037Y-13438507D01*
X8458656Y-13438507D01*
X8477704Y-13448030D01*
X8487228Y-13457554D01*
X8496751Y-13476602D01*
X8496751Y-13524221D01*
X8487228Y-13543268D01*
X8477704Y-13552792D01*
X8458656Y-13562316D01*
X8411037Y-13562316D01*
X8391990Y-13552792D01*
X8382466Y-13543268D01*
X8620561Y-13362316D02*
X8639609Y-13362316D01*
X8658656Y-13371840D01*
X8668180Y-13381364D01*
X8677704Y-13400411D01*
X8687228Y-13438507D01*
X8687228Y-13486126D01*
X8677704Y-13524221D01*
X8668180Y-13543268D01*
X8658656Y-13552792D01*
X8639609Y-13562316D01*
X8620561Y-13562316D01*
X8601513Y-13552792D01*
X8591990Y-13543268D01*
X8582466Y-13524221D01*
X8572942Y-13486126D01*
X8572942Y-13438507D01*
X8582466Y-13400411D01*
X8591990Y-13381364D01*
X8601513Y-13371840D01*
X8620561Y-13362316D01*
X8772942Y-13562316D02*
X8772942Y-13428983D01*
X8772942Y-13448030D02*
X8782466Y-13438507D01*
X8801513Y-13428983D01*
X8830085Y-13428983D01*
X8849132Y-13438507D01*
X8858656Y-13457554D01*
X8858656Y-13562316D01*
X8858656Y-13457554D02*
X8868180Y-13438507D01*
X8887228Y-13428983D01*
X8915799Y-13428983D01*
X8934847Y-13438507D01*
X8944370Y-13457554D01*
X8944370Y-13562316D01*
X9039609Y-13562316D02*
X9039609Y-13428983D01*
X9039609Y-13448030D02*
X9049132Y-13438507D01*
X9068180Y-13428983D01*
X9096751Y-13428983D01*
X9115799Y-13438507D01*
X9125323Y-13457554D01*
X9125323Y-13562316D01*
X9125323Y-13457554D02*
X9134847Y-13438507D01*
X9153894Y-13428983D01*
X9182466Y-13428983D01*
X9201513Y-13438507D01*
X9211037Y-13457554D01*
X9211037Y-13562316D01*
X9601513Y-13352792D02*
X9430085Y-13609935D01*
X9858656Y-13362316D02*
X9877704Y-13362316D01*
X9896751Y-13371840D01*
X9906275Y-13381364D01*
X9915799Y-13400411D01*
X9925323Y-13438507D01*
X9925323Y-13486126D01*
X9915799Y-13524221D01*
X9906275Y-13543268D01*
X9896751Y-13552792D01*
X9877704Y-13562316D01*
X9858656Y-13562316D01*
X9839609Y-13552792D01*
X9830085Y-13543268D01*
X9820561Y-13524221D01*
X9811037Y-13486126D01*
X9811037Y-13438507D01*
X9820561Y-13400411D01*
X9830085Y-13381364D01*
X9839609Y-13371840D01*
X9858656Y-13362316D01*
X10011037Y-13543268D02*
X10020561Y-13552792D01*
X10011037Y-13562316D01*
X10001513Y-13552792D01*
X10011037Y-13543268D01*
X10011037Y-13562316D01*
X10144370Y-13362316D02*
X10163418Y-13362316D01*
X10182466Y-13371840D01*
X10191990Y-13381364D01*
X10201513Y-13400411D01*
X10211037Y-13438507D01*
X10211037Y-13486126D01*
X10201513Y-13524221D01*
X10191990Y-13543268D01*
X10182466Y-13552792D01*
X10163418Y-13562316D01*
X10144370Y-13562316D01*
X10125323Y-13552792D01*
X10115799Y-13543268D01*
X10106275Y-13524221D01*
X10096751Y-13486126D01*
X10096751Y-13438507D01*
X10106275Y-13400411D01*
X10115799Y-13381364D01*
X10125323Y-13371840D01*
X10144370Y-13362316D01*
X10287228Y-13381364D02*
X10296751Y-13371840D01*
X10315799Y-13362316D01*
X10363418Y-13362316D01*
X10382466Y-13371840D01*
X10391990Y-13381364D01*
X10401513Y-13400411D01*
X10401513Y-13419459D01*
X10391990Y-13448030D01*
X10277704Y-13562316D01*
X10401513Y-13562316D01*
X10496751Y-13562316D02*
X10534847Y-13562316D01*
X10553894Y-13552792D01*
X10563418Y-13543268D01*
X10582466Y-13514697D01*
X10591990Y-13476602D01*
X10591990Y-13400411D01*
X10582466Y-13381364D01*
X10572942Y-13371840D01*
X10553894Y-13362316D01*
X10515799Y-13362316D01*
X10496751Y-13371840D01*
X10487228Y-13381364D01*
X10477704Y-13400411D01*
X10477704Y-13448030D01*
X10487228Y-13467078D01*
X10496751Y-13476602D01*
X10515799Y-13486126D01*
X10553894Y-13486126D01*
X10572942Y-13476602D01*
X10582466Y-13467078D01*
X10591990Y-13448030D01*
X10772942Y-13362316D02*
X10677704Y-13362316D01*
X10668180Y-13457554D01*
X10677704Y-13448030D01*
X10696751Y-13438507D01*
X10744370Y-13438507D01*
X10763418Y-13448030D01*
X10772942Y-13457554D01*
X10782466Y-13476602D01*
X10782466Y-13524221D01*
X10772942Y-13543268D01*
X10763418Y-13552792D01*
X10744370Y-13562316D01*
X10696751Y-13562316D01*
X10677704Y-13552792D01*
X10668180Y-13543268D01*
X10858656Y-13362316D02*
X10858656Y-13400411D01*
X10934847Y-13362316D02*
X10934847Y-13400411D01*
X11230085Y-13638507D02*
X11220561Y-13628983D01*
X11201513Y-13600411D01*
X11191989Y-13581364D01*
X11182466Y-13552792D01*
X11172942Y-13505173D01*
X11172942Y-13467078D01*
X11182466Y-13419459D01*
X11191989Y-13390888D01*
X11201513Y-13371840D01*
X11220561Y-13343268D01*
X11230085Y-13333745D01*
X11287228Y-13362316D02*
X11411037Y-13362316D01*
X11344370Y-13438507D01*
X11372942Y-13438507D01*
X11391989Y-13448030D01*
X11401513Y-13457554D01*
X11411037Y-13476602D01*
X11411037Y-13524221D01*
X11401513Y-13543268D01*
X11391989Y-13552792D01*
X11372942Y-13562316D01*
X11315799Y-13562316D01*
X11296751Y-13552792D01*
X11287228Y-13543268D01*
X11649132Y-13562316D02*
X11649132Y-13362316D01*
X11734847Y-13562316D02*
X11734847Y-13457554D01*
X11725323Y-13438507D01*
X11706275Y-13428983D01*
X11677704Y-13428983D01*
X11658656Y-13438507D01*
X11649132Y-13448030D01*
X11858656Y-13562316D02*
X11839608Y-13552792D01*
X11830085Y-13543268D01*
X11820561Y-13524221D01*
X11820561Y-13467078D01*
X11830085Y-13448030D01*
X11839608Y-13438507D01*
X11858656Y-13428983D01*
X11887228Y-13428983D01*
X11906275Y-13438507D01*
X11915799Y-13448030D01*
X11925323Y-13467078D01*
X11925323Y-13524221D01*
X11915799Y-13543268D01*
X11906275Y-13552792D01*
X11887228Y-13562316D01*
X11858656Y-13562316D01*
X12039608Y-13562316D02*
X12020561Y-13552792D01*
X12011037Y-13533745D01*
X12011037Y-13362316D01*
X12191989Y-13552792D02*
X12172942Y-13562316D01*
X12134847Y-13562316D01*
X12115799Y-13552792D01*
X12106275Y-13533745D01*
X12106275Y-13457554D01*
X12115799Y-13438507D01*
X12134847Y-13428983D01*
X12172942Y-13428983D01*
X12191989Y-13438507D01*
X12201513Y-13457554D01*
X12201513Y-13476602D01*
X12106275Y-13495649D01*
X12277704Y-13552792D02*
X12296751Y-13562316D01*
X12334847Y-13562316D01*
X12353894Y-13552792D01*
X12363418Y-13533745D01*
X12363418Y-13524221D01*
X12353894Y-13505173D01*
X12334847Y-13495649D01*
X12306275Y-13495649D01*
X12287228Y-13486126D01*
X12277704Y-13467078D01*
X12277704Y-13457554D01*
X12287228Y-13438507D01*
X12306275Y-13428983D01*
X12334847Y-13428983D01*
X12353894Y-13438507D01*
X12430085Y-13638507D02*
X12439608Y-13628983D01*
X12458656Y-13600411D01*
X12468180Y-13581364D01*
X12477704Y-13552792D01*
X12487228Y-13505173D01*
X12487228Y-13467078D01*
X12477704Y-13419459D01*
X12468180Y-13390888D01*
X12458656Y-13371840D01*
X12439608Y-13343268D01*
X12430085Y-13333745D01*
D14*
X7618180Y-13695840D02*
X7618180Y-13775840D01*
X7578180Y-13735840D02*
X7658180Y-13735840D01*
D11*
X7953894Y-13626316D02*
X7972942Y-13626316D01*
X7991989Y-13635840D01*
X8001513Y-13645364D01*
X8011037Y-13664411D01*
X8020561Y-13702507D01*
X8020561Y-13750126D01*
X8011037Y-13788221D01*
X8001513Y-13807268D01*
X7991989Y-13816792D01*
X7972942Y-13826316D01*
X7953894Y-13826316D01*
X7934847Y-13816792D01*
X7925323Y-13807268D01*
X7915799Y-13788221D01*
X7906275Y-13750126D01*
X7906275Y-13702507D01*
X7915799Y-13664411D01*
X7925323Y-13645364D01*
X7934847Y-13635840D01*
X7953894Y-13626316D01*
X8106275Y-13807268D02*
X8115799Y-13816792D01*
X8106275Y-13826316D01*
X8096751Y-13816792D01*
X8106275Y-13807268D01*
X8106275Y-13826316D01*
X8230085Y-13712030D02*
X8211037Y-13702507D01*
X8201513Y-13692983D01*
X8191989Y-13673935D01*
X8191989Y-13664411D01*
X8201513Y-13645364D01*
X8211037Y-13635840D01*
X8230085Y-13626316D01*
X8268180Y-13626316D01*
X8287228Y-13635840D01*
X8296751Y-13645364D01*
X8306275Y-13664411D01*
X8306275Y-13673935D01*
X8296751Y-13692983D01*
X8287228Y-13702507D01*
X8268180Y-13712030D01*
X8230085Y-13712030D01*
X8211037Y-13721554D01*
X8201513Y-13731078D01*
X8191989Y-13750126D01*
X8191989Y-13788221D01*
X8201513Y-13807268D01*
X8211037Y-13816792D01*
X8230085Y-13826316D01*
X8268180Y-13826316D01*
X8287228Y-13816792D01*
X8296751Y-13807268D01*
X8306275Y-13788221D01*
X8306275Y-13750126D01*
X8296751Y-13731078D01*
X8287228Y-13721554D01*
X8268180Y-13712030D01*
X8430085Y-13626316D02*
X8449132Y-13626316D01*
X8468180Y-13635840D01*
X8477704Y-13645364D01*
X8487228Y-13664411D01*
X8496751Y-13702507D01*
X8496751Y-13750126D01*
X8487228Y-13788221D01*
X8477704Y-13807268D01*
X8468180Y-13816792D01*
X8449132Y-13826316D01*
X8430085Y-13826316D01*
X8411037Y-13816792D01*
X8401513Y-13807268D01*
X8391990Y-13788221D01*
X8382466Y-13750126D01*
X8382466Y-13702507D01*
X8391990Y-13664411D01*
X8401513Y-13645364D01*
X8411037Y-13635840D01*
X8430085Y-13626316D01*
X8620561Y-13626316D02*
X8639609Y-13626316D01*
X8658656Y-13635840D01*
X8668180Y-13645364D01*
X8677704Y-13664411D01*
X8687228Y-13702507D01*
X8687228Y-13750126D01*
X8677704Y-13788221D01*
X8668180Y-13807268D01*
X8658656Y-13816792D01*
X8639609Y-13826316D01*
X8620561Y-13826316D01*
X8601513Y-13816792D01*
X8591990Y-13807268D01*
X8582466Y-13788221D01*
X8572942Y-13750126D01*
X8572942Y-13702507D01*
X8582466Y-13664411D01*
X8591990Y-13645364D01*
X8601513Y-13635840D01*
X8620561Y-13626316D01*
X8772942Y-13826316D02*
X8772942Y-13692983D01*
X8772942Y-13712030D02*
X8782466Y-13702507D01*
X8801513Y-13692983D01*
X8830085Y-13692983D01*
X8849132Y-13702507D01*
X8858656Y-13721554D01*
X8858656Y-13826316D01*
X8858656Y-13721554D02*
X8868180Y-13702507D01*
X8887228Y-13692983D01*
X8915799Y-13692983D01*
X8934847Y-13702507D01*
X8944370Y-13721554D01*
X8944370Y-13826316D01*
X9039609Y-13826316D02*
X9039609Y-13692983D01*
X9039609Y-13712030D02*
X9049132Y-13702507D01*
X9068180Y-13692983D01*
X9096751Y-13692983D01*
X9115799Y-13702507D01*
X9125323Y-13721554D01*
X9125323Y-13826316D01*
X9125323Y-13721554D02*
X9134847Y-13702507D01*
X9153894Y-13692983D01*
X9182466Y-13692983D01*
X9201513Y-13702507D01*
X9211037Y-13721554D01*
X9211037Y-13826316D01*
X9601513Y-13616792D02*
X9430085Y-13873935D01*
X9858656Y-13626316D02*
X9877704Y-13626316D01*
X9896751Y-13635840D01*
X9906275Y-13645364D01*
X9915799Y-13664411D01*
X9925323Y-13702507D01*
X9925323Y-13750126D01*
X9915799Y-13788221D01*
X9906275Y-13807268D01*
X9896751Y-13816792D01*
X9877704Y-13826316D01*
X9858656Y-13826316D01*
X9839609Y-13816792D01*
X9830085Y-13807268D01*
X9820561Y-13788221D01*
X9811037Y-13750126D01*
X9811037Y-13702507D01*
X9820561Y-13664411D01*
X9830085Y-13645364D01*
X9839609Y-13635840D01*
X9858656Y-13626316D01*
X10011037Y-13807268D02*
X10020561Y-13816792D01*
X10011037Y-13826316D01*
X10001513Y-13816792D01*
X10011037Y-13807268D01*
X10011037Y-13826316D01*
X10144370Y-13626316D02*
X10163418Y-13626316D01*
X10182466Y-13635840D01*
X10191990Y-13645364D01*
X10201513Y-13664411D01*
X10211037Y-13702507D01*
X10211037Y-13750126D01*
X10201513Y-13788221D01*
X10191990Y-13807268D01*
X10182466Y-13816792D01*
X10163418Y-13826316D01*
X10144370Y-13826316D01*
X10125323Y-13816792D01*
X10115799Y-13807268D01*
X10106275Y-13788221D01*
X10096751Y-13750126D01*
X10096751Y-13702507D01*
X10106275Y-13664411D01*
X10115799Y-13645364D01*
X10125323Y-13635840D01*
X10144370Y-13626316D01*
X10277704Y-13626316D02*
X10401513Y-13626316D01*
X10334847Y-13702507D01*
X10363418Y-13702507D01*
X10382466Y-13712030D01*
X10391990Y-13721554D01*
X10401513Y-13740602D01*
X10401513Y-13788221D01*
X10391990Y-13807268D01*
X10382466Y-13816792D01*
X10363418Y-13826316D01*
X10306275Y-13826316D01*
X10287228Y-13816792D01*
X10277704Y-13807268D01*
X10591990Y-13826316D02*
X10477704Y-13826316D01*
X10534847Y-13826316D02*
X10534847Y-13626316D01*
X10515799Y-13654888D01*
X10496751Y-13673935D01*
X10477704Y-13683459D01*
X10772942Y-13626316D02*
X10677704Y-13626316D01*
X10668180Y-13721554D01*
X10677704Y-13712030D01*
X10696751Y-13702507D01*
X10744370Y-13702507D01*
X10763418Y-13712030D01*
X10772942Y-13721554D01*
X10782466Y-13740602D01*
X10782466Y-13788221D01*
X10772942Y-13807268D01*
X10763418Y-13816792D01*
X10744370Y-13826316D01*
X10696751Y-13826316D01*
X10677704Y-13816792D01*
X10668180Y-13807268D01*
X10858656Y-13626316D02*
X10858656Y-13664411D01*
X10934847Y-13626316D02*
X10934847Y-13664411D01*
X11230085Y-13902507D02*
X11220561Y-13892983D01*
X11201513Y-13864411D01*
X11191989Y-13845364D01*
X11182466Y-13816792D01*
X11172942Y-13769173D01*
X11172942Y-13731078D01*
X11182466Y-13683459D01*
X11191989Y-13654888D01*
X11201513Y-13635840D01*
X11220561Y-13607268D01*
X11230085Y-13597745D01*
X11411037Y-13826316D02*
X11296751Y-13826316D01*
X11353894Y-13826316D02*
X11353894Y-13626316D01*
X11334847Y-13654888D01*
X11315799Y-13673935D01*
X11296751Y-13683459D01*
X11582466Y-13626316D02*
X11544370Y-13626316D01*
X11525323Y-13635840D01*
X11515799Y-13645364D01*
X11496751Y-13673935D01*
X11487228Y-13712030D01*
X11487228Y-13788221D01*
X11496751Y-13807268D01*
X11506275Y-13816792D01*
X11525323Y-13826316D01*
X11563418Y-13826316D01*
X11582466Y-13816792D01*
X11591989Y-13807268D01*
X11601513Y-13788221D01*
X11601513Y-13740602D01*
X11591989Y-13721554D01*
X11582466Y-13712030D01*
X11563418Y-13702507D01*
X11525323Y-13702507D01*
X11506275Y-13712030D01*
X11496751Y-13721554D01*
X11487228Y-13740602D01*
X11839608Y-13826316D02*
X11839608Y-13626316D01*
X11925323Y-13826316D02*
X11925323Y-13721554D01*
X11915799Y-13702507D01*
X11896751Y-13692983D01*
X11868180Y-13692983D01*
X11849132Y-13702507D01*
X11839608Y-13712030D01*
X12049132Y-13826316D02*
X12030085Y-13816792D01*
X12020561Y-13807268D01*
X12011037Y-13788221D01*
X12011037Y-13731078D01*
X12020561Y-13712030D01*
X12030085Y-13702507D01*
X12049132Y-13692983D01*
X12077704Y-13692983D01*
X12096751Y-13702507D01*
X12106275Y-13712030D01*
X12115799Y-13731078D01*
X12115799Y-13788221D01*
X12106275Y-13807268D01*
X12096751Y-13816792D01*
X12077704Y-13826316D01*
X12049132Y-13826316D01*
X12230085Y-13826316D02*
X12211037Y-13816792D01*
X12201513Y-13797745D01*
X12201513Y-13626316D01*
X12382466Y-13816792D02*
X12363418Y-13826316D01*
X12325323Y-13826316D01*
X12306275Y-13816792D01*
X12296751Y-13797745D01*
X12296751Y-13721554D01*
X12306275Y-13702507D01*
X12325323Y-13692983D01*
X12363418Y-13692983D01*
X12382466Y-13702507D01*
X12391989Y-13721554D01*
X12391989Y-13740602D01*
X12296751Y-13759649D01*
X12468180Y-13816792D02*
X12487228Y-13826316D01*
X12525323Y-13826316D01*
X12544370Y-13816792D01*
X12553894Y-13797745D01*
X12553894Y-13788221D01*
X12544370Y-13769173D01*
X12525323Y-13759649D01*
X12496751Y-13759649D01*
X12477704Y-13750126D01*
X12468180Y-13731078D01*
X12468180Y-13721554D01*
X12477704Y-13702507D01*
X12496751Y-13692983D01*
X12525323Y-13692983D01*
X12544370Y-13702507D01*
X12620561Y-13902507D02*
X12630085Y-13892983D01*
X12649132Y-13864411D01*
X12658656Y-13845364D01*
X12668180Y-13816792D01*
X12677704Y-13769173D01*
X12677704Y-13731078D01*
X12668180Y-13683459D01*
X12658656Y-13654888D01*
X12649132Y-13635840D01*
X12630085Y-13607268D01*
X12620561Y-13597745D01*
D15*
X7645000Y-14031660D02*
X7645000Y-13968020D01*
X7581360Y-13968020D01*
X7581360Y-14031660D01*
X7645000Y-14031660D01*
D11*
X7953894Y-13890316D02*
X7972942Y-13890316D01*
X7991989Y-13899840D01*
X8001513Y-13909364D01*
X8011037Y-13928411D01*
X8020561Y-13966507D01*
X8020561Y-14014126D01*
X8011037Y-14052221D01*
X8001513Y-14071268D01*
X7991989Y-14080792D01*
X7972942Y-14090316D01*
X7953894Y-14090316D01*
X7934847Y-14080792D01*
X7925323Y-14071268D01*
X7915799Y-14052221D01*
X7906275Y-14014126D01*
X7906275Y-13966507D01*
X7915799Y-13928411D01*
X7925323Y-13909364D01*
X7934847Y-13899840D01*
X7953894Y-13890316D01*
X8106275Y-14071268D02*
X8115799Y-14080792D01*
X8106275Y-14090316D01*
X8096751Y-14080792D01*
X8106275Y-14071268D01*
X8106275Y-14090316D01*
X8211037Y-14090316D02*
X8249132Y-14090316D01*
X8268180Y-14080792D01*
X8277704Y-14071268D01*
X8296751Y-14042697D01*
X8306275Y-14004602D01*
X8306275Y-13928411D01*
X8296751Y-13909364D01*
X8287228Y-13899840D01*
X8268180Y-13890316D01*
X8230085Y-13890316D01*
X8211037Y-13899840D01*
X8201513Y-13909364D01*
X8191989Y-13928411D01*
X8191989Y-13976030D01*
X8201513Y-13995078D01*
X8211037Y-14004602D01*
X8230085Y-14014126D01*
X8268180Y-14014126D01*
X8287228Y-14004602D01*
X8296751Y-13995078D01*
X8306275Y-13976030D01*
X8430085Y-13890316D02*
X8449132Y-13890316D01*
X8468180Y-13899840D01*
X8477704Y-13909364D01*
X8487228Y-13928411D01*
X8496751Y-13966507D01*
X8496751Y-14014126D01*
X8487228Y-14052221D01*
X8477704Y-14071268D01*
X8468180Y-14080792D01*
X8449132Y-14090316D01*
X8430085Y-14090316D01*
X8411037Y-14080792D01*
X8401513Y-14071268D01*
X8391990Y-14052221D01*
X8382466Y-14014126D01*
X8382466Y-13966507D01*
X8391990Y-13928411D01*
X8401513Y-13909364D01*
X8411037Y-13899840D01*
X8430085Y-13890316D01*
X8620561Y-13890316D02*
X8639609Y-13890316D01*
X8658656Y-13899840D01*
X8668180Y-13909364D01*
X8677704Y-13928411D01*
X8687228Y-13966507D01*
X8687228Y-14014126D01*
X8677704Y-14052221D01*
X8668180Y-14071268D01*
X8658656Y-14080792D01*
X8639609Y-14090316D01*
X8620561Y-14090316D01*
X8601513Y-14080792D01*
X8591990Y-14071268D01*
X8582466Y-14052221D01*
X8572942Y-14014126D01*
X8572942Y-13966507D01*
X8582466Y-13928411D01*
X8591990Y-13909364D01*
X8601513Y-13899840D01*
X8620561Y-13890316D01*
X8772942Y-14090316D02*
X8772942Y-13956983D01*
X8772942Y-13976030D02*
X8782466Y-13966507D01*
X8801513Y-13956983D01*
X8830085Y-13956983D01*
X8849132Y-13966507D01*
X8858656Y-13985554D01*
X8858656Y-14090316D01*
X8858656Y-13985554D02*
X8868180Y-13966507D01*
X8887228Y-13956983D01*
X8915799Y-13956983D01*
X8934847Y-13966507D01*
X8944370Y-13985554D01*
X8944370Y-14090316D01*
X9039609Y-14090316D02*
X9039609Y-13956983D01*
X9039609Y-13976030D02*
X9049132Y-13966507D01*
X9068180Y-13956983D01*
X9096751Y-13956983D01*
X9115799Y-13966507D01*
X9125323Y-13985554D01*
X9125323Y-14090316D01*
X9125323Y-13985554D02*
X9134847Y-13966507D01*
X9153894Y-13956983D01*
X9182466Y-13956983D01*
X9201513Y-13966507D01*
X9211037Y-13985554D01*
X9211037Y-14090316D01*
X9601513Y-13880792D02*
X9430085Y-14137935D01*
X9858656Y-13890316D02*
X9877704Y-13890316D01*
X9896751Y-13899840D01*
X9906275Y-13909364D01*
X9915799Y-13928411D01*
X9925323Y-13966507D01*
X9925323Y-14014126D01*
X9915799Y-14052221D01*
X9906275Y-14071268D01*
X9896751Y-14080792D01*
X9877704Y-14090316D01*
X9858656Y-14090316D01*
X9839609Y-14080792D01*
X9830085Y-14071268D01*
X9820561Y-14052221D01*
X9811037Y-14014126D01*
X9811037Y-13966507D01*
X9820561Y-13928411D01*
X9830085Y-13909364D01*
X9839609Y-13899840D01*
X9858656Y-13890316D01*
X10011037Y-14071268D02*
X10020561Y-14080792D01*
X10011037Y-14090316D01*
X10001513Y-14080792D01*
X10011037Y-14071268D01*
X10011037Y-14090316D01*
X10144370Y-13890316D02*
X10163418Y-13890316D01*
X10182466Y-13899840D01*
X10191990Y-13909364D01*
X10201513Y-13928411D01*
X10211037Y-13966507D01*
X10211037Y-14014126D01*
X10201513Y-14052221D01*
X10191990Y-14071268D01*
X10182466Y-14080792D01*
X10163418Y-14090316D01*
X10144370Y-14090316D01*
X10125323Y-14080792D01*
X10115799Y-14071268D01*
X10106275Y-14052221D01*
X10096751Y-14014126D01*
X10096751Y-13966507D01*
X10106275Y-13928411D01*
X10115799Y-13909364D01*
X10125323Y-13899840D01*
X10144370Y-13890316D01*
X10277704Y-13890316D02*
X10401513Y-13890316D01*
X10334847Y-13966507D01*
X10363418Y-13966507D01*
X10382466Y-13976030D01*
X10391990Y-13985554D01*
X10401513Y-14004602D01*
X10401513Y-14052221D01*
X10391990Y-14071268D01*
X10382466Y-14080792D01*
X10363418Y-14090316D01*
X10306275Y-14090316D01*
X10287228Y-14080792D01*
X10277704Y-14071268D01*
X10582466Y-13890316D02*
X10487228Y-13890316D01*
X10477704Y-13985554D01*
X10487228Y-13976030D01*
X10506275Y-13966507D01*
X10553894Y-13966507D01*
X10572942Y-13976030D01*
X10582466Y-13985554D01*
X10591990Y-14004602D01*
X10591990Y-14052221D01*
X10582466Y-14071268D01*
X10572942Y-14080792D01*
X10553894Y-14090316D01*
X10506275Y-14090316D01*
X10487228Y-14080792D01*
X10477704Y-14071268D01*
X10763418Y-13956983D02*
X10763418Y-14090316D01*
X10715799Y-13880792D02*
X10668180Y-14023649D01*
X10791990Y-14023649D01*
X10858656Y-13890316D02*
X10858656Y-13928411D01*
X10934847Y-13890316D02*
X10934847Y-13928411D01*
X11230085Y-14166507D02*
X11220561Y-14156983D01*
X11201513Y-14128411D01*
X11191989Y-14109364D01*
X11182466Y-14080792D01*
X11172942Y-14033173D01*
X11172942Y-13995078D01*
X11182466Y-13947459D01*
X11191989Y-13918888D01*
X11201513Y-13899840D01*
X11220561Y-13871268D01*
X11230085Y-13861745D01*
X11296751Y-13909364D02*
X11306275Y-13899840D01*
X11325323Y-13890316D01*
X11372942Y-13890316D01*
X11391989Y-13899840D01*
X11401513Y-13909364D01*
X11411037Y-13928411D01*
X11411037Y-13947459D01*
X11401513Y-13976030D01*
X11287228Y-14090316D01*
X11411037Y-14090316D01*
X11649132Y-14090316D02*
X11649132Y-13890316D01*
X11734847Y-14090316D02*
X11734847Y-13985554D01*
X11725323Y-13966507D01*
X11706275Y-13956983D01*
X11677704Y-13956983D01*
X11658656Y-13966507D01*
X11649132Y-13976030D01*
X11858656Y-14090316D02*
X11839608Y-14080792D01*
X11830085Y-14071268D01*
X11820561Y-14052221D01*
X11820561Y-13995078D01*
X11830085Y-13976030D01*
X11839608Y-13966507D01*
X11858656Y-13956983D01*
X11887228Y-13956983D01*
X11906275Y-13966507D01*
X11915799Y-13976030D01*
X11925323Y-13995078D01*
X11925323Y-14052221D01*
X11915799Y-14071268D01*
X11906275Y-14080792D01*
X11887228Y-14090316D01*
X11858656Y-14090316D01*
X12039608Y-14090316D02*
X12020561Y-14080792D01*
X12011037Y-14061745D01*
X12011037Y-13890316D01*
X12191989Y-14080792D02*
X12172942Y-14090316D01*
X12134847Y-14090316D01*
X12115799Y-14080792D01*
X12106275Y-14061745D01*
X12106275Y-13985554D01*
X12115799Y-13966507D01*
X12134847Y-13956983D01*
X12172942Y-13956983D01*
X12191989Y-13966507D01*
X12201513Y-13985554D01*
X12201513Y-14004602D01*
X12106275Y-14023649D01*
X12277704Y-14080792D02*
X12296751Y-14090316D01*
X12334847Y-14090316D01*
X12353894Y-14080792D01*
X12363418Y-14061745D01*
X12363418Y-14052221D01*
X12353894Y-14033173D01*
X12334847Y-14023649D01*
X12306275Y-14023649D01*
X12287228Y-14014126D01*
X12277704Y-13995078D01*
X12277704Y-13985554D01*
X12287228Y-13966507D01*
X12306275Y-13956983D01*
X12334847Y-13956983D01*
X12353894Y-13966507D01*
X12430085Y-14166507D02*
X12439608Y-14156983D01*
X12458656Y-14128411D01*
X12468180Y-14109364D01*
X12477704Y-14080792D01*
X12487228Y-14033173D01*
X12487228Y-13995078D01*
X12477704Y-13947459D01*
X12468180Y-13918888D01*
X12458656Y-13899840D01*
X12439608Y-13871268D01*
X12430085Y-13861745D01*
D10*
X7608180Y-14313840D02*
X7658180Y-14263840D01*
X7608180Y-14213840D01*
X7558180Y-14263840D01*
X7608180Y-14313840D01*
D11*
X8020561Y-14354316D02*
X7906275Y-14354316D01*
X7963418Y-14354316D02*
X7963418Y-14154316D01*
X7944370Y-14182888D01*
X7925323Y-14201935D01*
X7906275Y-14211459D01*
X8106275Y-14335268D02*
X8115799Y-14344792D01*
X8106275Y-14354316D01*
X8096751Y-14344792D01*
X8106275Y-14335268D01*
X8106275Y-14354316D01*
X8239608Y-14154316D02*
X8258656Y-14154316D01*
X8277704Y-14163840D01*
X8287228Y-14173364D01*
X8296751Y-14192411D01*
X8306275Y-14230507D01*
X8306275Y-14278126D01*
X8296751Y-14316221D01*
X8287228Y-14335268D01*
X8277704Y-14344792D01*
X8258656Y-14354316D01*
X8239608Y-14354316D01*
X8220561Y-14344792D01*
X8211037Y-14335268D01*
X8201513Y-14316221D01*
X8191989Y-14278126D01*
X8191989Y-14230507D01*
X8201513Y-14192411D01*
X8211037Y-14173364D01*
X8220561Y-14163840D01*
X8239608Y-14154316D01*
X8430085Y-14154316D02*
X8449132Y-14154316D01*
X8468180Y-14163840D01*
X8477704Y-14173364D01*
X8487228Y-14192411D01*
X8496751Y-14230507D01*
X8496751Y-14278126D01*
X8487228Y-14316221D01*
X8477704Y-14335268D01*
X8468180Y-14344792D01*
X8449132Y-14354316D01*
X8430085Y-14354316D01*
X8411037Y-14344792D01*
X8401513Y-14335268D01*
X8391990Y-14316221D01*
X8382466Y-14278126D01*
X8382466Y-14230507D01*
X8391990Y-14192411D01*
X8401513Y-14173364D01*
X8411037Y-14163840D01*
X8430085Y-14154316D01*
X8620561Y-14154316D02*
X8639609Y-14154316D01*
X8658656Y-14163840D01*
X8668180Y-14173364D01*
X8677704Y-14192411D01*
X8687228Y-14230507D01*
X8687228Y-14278126D01*
X8677704Y-14316221D01*
X8668180Y-14335268D01*
X8658656Y-14344792D01*
X8639609Y-14354316D01*
X8620561Y-14354316D01*
X8601513Y-14344792D01*
X8591990Y-14335268D01*
X8582466Y-14316221D01*
X8572942Y-14278126D01*
X8572942Y-14230507D01*
X8582466Y-14192411D01*
X8591990Y-14173364D01*
X8601513Y-14163840D01*
X8620561Y-14154316D01*
X8772942Y-14354316D02*
X8772942Y-14220983D01*
X8772942Y-14240030D02*
X8782466Y-14230507D01*
X8801513Y-14220983D01*
X8830085Y-14220983D01*
X8849132Y-14230507D01*
X8858656Y-14249554D01*
X8858656Y-14354316D01*
X8858656Y-14249554D02*
X8868180Y-14230507D01*
X8887228Y-14220983D01*
X8915799Y-14220983D01*
X8934847Y-14230507D01*
X8944370Y-14249554D01*
X8944370Y-14354316D01*
X9039609Y-14354316D02*
X9039609Y-14220983D01*
X9039609Y-14240030D02*
X9049132Y-14230507D01*
X9068180Y-14220983D01*
X9096751Y-14220983D01*
X9115799Y-14230507D01*
X9125323Y-14249554D01*
X9125323Y-14354316D01*
X9125323Y-14249554D02*
X9134847Y-14230507D01*
X9153894Y-14220983D01*
X9182466Y-14220983D01*
X9201513Y-14230507D01*
X9211037Y-14249554D01*
X9211037Y-14354316D01*
X9601513Y-14144792D02*
X9430085Y-14401935D01*
X9858656Y-14154316D02*
X9877704Y-14154316D01*
X9896751Y-14163840D01*
X9906275Y-14173364D01*
X9915799Y-14192411D01*
X9925323Y-14230507D01*
X9925323Y-14278126D01*
X9915799Y-14316221D01*
X9906275Y-14335268D01*
X9896751Y-14344792D01*
X9877704Y-14354316D01*
X9858656Y-14354316D01*
X9839609Y-14344792D01*
X9830085Y-14335268D01*
X9820561Y-14316221D01*
X9811037Y-14278126D01*
X9811037Y-14230507D01*
X9820561Y-14192411D01*
X9830085Y-14173364D01*
X9839609Y-14163840D01*
X9858656Y-14154316D01*
X10011037Y-14335268D02*
X10020561Y-14344792D01*
X10011037Y-14354316D01*
X10001513Y-14344792D01*
X10011037Y-14335268D01*
X10011037Y-14354316D01*
X10144370Y-14154316D02*
X10163418Y-14154316D01*
X10182466Y-14163840D01*
X10191990Y-14173364D01*
X10201513Y-14192411D01*
X10211037Y-14230507D01*
X10211037Y-14278126D01*
X10201513Y-14316221D01*
X10191990Y-14335268D01*
X10182466Y-14344792D01*
X10163418Y-14354316D01*
X10144370Y-14354316D01*
X10125323Y-14344792D01*
X10115799Y-14335268D01*
X10106275Y-14316221D01*
X10096751Y-14278126D01*
X10096751Y-14230507D01*
X10106275Y-14192411D01*
X10115799Y-14173364D01*
X10125323Y-14163840D01*
X10144370Y-14154316D01*
X10277704Y-14154316D02*
X10401513Y-14154316D01*
X10334847Y-14230507D01*
X10363418Y-14230507D01*
X10382466Y-14240030D01*
X10391990Y-14249554D01*
X10401513Y-14268602D01*
X10401513Y-14316221D01*
X10391990Y-14335268D01*
X10382466Y-14344792D01*
X10363418Y-14354316D01*
X10306275Y-14354316D01*
X10287228Y-14344792D01*
X10277704Y-14335268D01*
X10496751Y-14354316D02*
X10534847Y-14354316D01*
X10553894Y-14344792D01*
X10563418Y-14335268D01*
X10582466Y-14306697D01*
X10591990Y-14268602D01*
X10591990Y-14192411D01*
X10582466Y-14173364D01*
X10572942Y-14163840D01*
X10553894Y-14154316D01*
X10515799Y-14154316D01*
X10496751Y-14163840D01*
X10487228Y-14173364D01*
X10477704Y-14192411D01*
X10477704Y-14240030D01*
X10487228Y-14259078D01*
X10496751Y-14268602D01*
X10515799Y-14278126D01*
X10553894Y-14278126D01*
X10572942Y-14268602D01*
X10582466Y-14259078D01*
X10591990Y-14240030D01*
X10763418Y-14220983D02*
X10763418Y-14354316D01*
X10715799Y-14144792D02*
X10668180Y-14287649D01*
X10791990Y-14287649D01*
X10858656Y-14154316D02*
X10858656Y-14192411D01*
X10934847Y-14154316D02*
X10934847Y-14192411D01*
X11230085Y-14430507D02*
X11220561Y-14420983D01*
X11201513Y-14392411D01*
X11191989Y-14373364D01*
X11182466Y-14344792D01*
X11172942Y-14297173D01*
X11172942Y-14259078D01*
X11182466Y-14211459D01*
X11191989Y-14182888D01*
X11201513Y-14163840D01*
X11220561Y-14135268D01*
X11230085Y-14125745D01*
X11411037Y-14354316D02*
X11296751Y-14354316D01*
X11353894Y-14354316D02*
X11353894Y-14154316D01*
X11334847Y-14182888D01*
X11315799Y-14201935D01*
X11296751Y-14211459D01*
X11601513Y-14354316D02*
X11487228Y-14354316D01*
X11544370Y-14354316D02*
X11544370Y-14154316D01*
X11525323Y-14182888D01*
X11506275Y-14201935D01*
X11487228Y-14211459D01*
X11839608Y-14354316D02*
X11839608Y-14154316D01*
X11925323Y-14354316D02*
X11925323Y-14249554D01*
X11915799Y-14230507D01*
X11896751Y-14220983D01*
X11868180Y-14220983D01*
X11849132Y-14230507D01*
X11839608Y-14240030D01*
X12049132Y-14354316D02*
X12030085Y-14344792D01*
X12020561Y-14335268D01*
X12011037Y-14316221D01*
X12011037Y-14259078D01*
X12020561Y-14240030D01*
X12030085Y-14230507D01*
X12049132Y-14220983D01*
X12077704Y-14220983D01*
X12096751Y-14230507D01*
X12106275Y-14240030D01*
X12115799Y-14259078D01*
X12115799Y-14316221D01*
X12106275Y-14335268D01*
X12096751Y-14344792D01*
X12077704Y-14354316D01*
X12049132Y-14354316D01*
X12230085Y-14354316D02*
X12211037Y-14344792D01*
X12201513Y-14325745D01*
X12201513Y-14154316D01*
X12382466Y-14344792D02*
X12363418Y-14354316D01*
X12325323Y-14354316D01*
X12306275Y-14344792D01*
X12296751Y-14325745D01*
X12296751Y-14249554D01*
X12306275Y-14230507D01*
X12325323Y-14220983D01*
X12363418Y-14220983D01*
X12382466Y-14230507D01*
X12391989Y-14249554D01*
X12391989Y-14268602D01*
X12296751Y-14287649D01*
X12468180Y-14344792D02*
X12487228Y-14354316D01*
X12525323Y-14354316D01*
X12544370Y-14344792D01*
X12553894Y-14325745D01*
X12553894Y-14316221D01*
X12544370Y-14297173D01*
X12525323Y-14287649D01*
X12496751Y-14287649D01*
X12477704Y-14278126D01*
X12468180Y-14259078D01*
X12468180Y-14249554D01*
X12477704Y-14230507D01*
X12496751Y-14220983D01*
X12525323Y-14220983D01*
X12544370Y-14230507D01*
X12620561Y-14430507D02*
X12630085Y-14420983D01*
X12649132Y-14392411D01*
X12658656Y-14373364D01*
X12668180Y-14344792D01*
X12677704Y-14297173D01*
X12677704Y-14259078D01*
X12668180Y-14211459D01*
X12658656Y-14182888D01*
X12649132Y-14163840D01*
X12630085Y-14135268D01*
X12620561Y-14125745D01*
D16*
X7548180Y-14472840D02*
X7658180Y-14582840D01*
X7658180Y-14472840D02*
X7548180Y-14582840D01*
X7658180Y-14527840D02*
G75*
G03*
X7658180Y-14527840I-55000J0D01*
G01*
D11*
X8020561Y-14618316D02*
X7906275Y-14618316D01*
X7963418Y-14618316D02*
X7963418Y-14418316D01*
X7944370Y-14446888D01*
X7925323Y-14465935D01*
X7906275Y-14475459D01*
X8106275Y-14599268D02*
X8115799Y-14608792D01*
X8106275Y-14618316D01*
X8096751Y-14608792D01*
X8106275Y-14599268D01*
X8106275Y-14618316D01*
X8306275Y-14618316D02*
X8191989Y-14618316D01*
X8249132Y-14618316D02*
X8249132Y-14418316D01*
X8230085Y-14446888D01*
X8211037Y-14465935D01*
X8191989Y-14475459D01*
X8430085Y-14418316D02*
X8449132Y-14418316D01*
X8468180Y-14427840D01*
X8477704Y-14437364D01*
X8487228Y-14456411D01*
X8496751Y-14494507D01*
X8496751Y-14542126D01*
X8487228Y-14580221D01*
X8477704Y-14599268D01*
X8468180Y-14608792D01*
X8449132Y-14618316D01*
X8430085Y-14618316D01*
X8411037Y-14608792D01*
X8401513Y-14599268D01*
X8391990Y-14580221D01*
X8382466Y-14542126D01*
X8382466Y-14494507D01*
X8391990Y-14456411D01*
X8401513Y-14437364D01*
X8411037Y-14427840D01*
X8430085Y-14418316D01*
X8620561Y-14418316D02*
X8639609Y-14418316D01*
X8658656Y-14427840D01*
X8668180Y-14437364D01*
X8677704Y-14456411D01*
X8687228Y-14494507D01*
X8687228Y-14542126D01*
X8677704Y-14580221D01*
X8668180Y-14599268D01*
X8658656Y-14608792D01*
X8639609Y-14618316D01*
X8620561Y-14618316D01*
X8601513Y-14608792D01*
X8591990Y-14599268D01*
X8582466Y-14580221D01*
X8572942Y-14542126D01*
X8572942Y-14494507D01*
X8582466Y-14456411D01*
X8591990Y-14437364D01*
X8601513Y-14427840D01*
X8620561Y-14418316D01*
X8772942Y-14618316D02*
X8772942Y-14484983D01*
X8772942Y-14504030D02*
X8782466Y-14494507D01*
X8801513Y-14484983D01*
X8830085Y-14484983D01*
X8849132Y-14494507D01*
X8858656Y-14513554D01*
X8858656Y-14618316D01*
X8858656Y-14513554D02*
X8868180Y-14494507D01*
X8887228Y-14484983D01*
X8915799Y-14484983D01*
X8934847Y-14494507D01*
X8944370Y-14513554D01*
X8944370Y-14618316D01*
X9039609Y-14618316D02*
X9039609Y-14484983D01*
X9039609Y-14504030D02*
X9049132Y-14494507D01*
X9068180Y-14484983D01*
X9096751Y-14484983D01*
X9115799Y-14494507D01*
X9125323Y-14513554D01*
X9125323Y-14618316D01*
X9125323Y-14513554D02*
X9134847Y-14494507D01*
X9153894Y-14484983D01*
X9182466Y-14484983D01*
X9201513Y-14494507D01*
X9211037Y-14513554D01*
X9211037Y-14618316D01*
X9601513Y-14408792D02*
X9430085Y-14665935D01*
X9858656Y-14418316D02*
X9877704Y-14418316D01*
X9896751Y-14427840D01*
X9906275Y-14437364D01*
X9915799Y-14456411D01*
X9925323Y-14494507D01*
X9925323Y-14542126D01*
X9915799Y-14580221D01*
X9906275Y-14599268D01*
X9896751Y-14608792D01*
X9877704Y-14618316D01*
X9858656Y-14618316D01*
X9839609Y-14608792D01*
X9830085Y-14599268D01*
X9820561Y-14580221D01*
X9811037Y-14542126D01*
X9811037Y-14494507D01*
X9820561Y-14456411D01*
X9830085Y-14437364D01*
X9839609Y-14427840D01*
X9858656Y-14418316D01*
X10011037Y-14599268D02*
X10020561Y-14608792D01*
X10011037Y-14618316D01*
X10001513Y-14608792D01*
X10011037Y-14599268D01*
X10011037Y-14618316D01*
X10144370Y-14418316D02*
X10163418Y-14418316D01*
X10182466Y-14427840D01*
X10191990Y-14437364D01*
X10201513Y-14456411D01*
X10211037Y-14494507D01*
X10211037Y-14542126D01*
X10201513Y-14580221D01*
X10191990Y-14599268D01*
X10182466Y-14608792D01*
X10163418Y-14618316D01*
X10144370Y-14618316D01*
X10125323Y-14608792D01*
X10115799Y-14599268D01*
X10106275Y-14580221D01*
X10096751Y-14542126D01*
X10096751Y-14494507D01*
X10106275Y-14456411D01*
X10115799Y-14437364D01*
X10125323Y-14427840D01*
X10144370Y-14418316D01*
X10382466Y-14484983D02*
X10382466Y-14618316D01*
X10334847Y-14408792D02*
X10287228Y-14551649D01*
X10411037Y-14551649D01*
X10468180Y-14418316D02*
X10591990Y-14418316D01*
X10525323Y-14494507D01*
X10553894Y-14494507D01*
X10572942Y-14504030D01*
X10582466Y-14513554D01*
X10591990Y-14532602D01*
X10591990Y-14580221D01*
X10582466Y-14599268D01*
X10572942Y-14608792D01*
X10553894Y-14618316D01*
X10496751Y-14618316D01*
X10477704Y-14608792D01*
X10468180Y-14599268D01*
X10658656Y-14418316D02*
X10782466Y-14418316D01*
X10715799Y-14494507D01*
X10744370Y-14494507D01*
X10763418Y-14504030D01*
X10772942Y-14513554D01*
X10782466Y-14532602D01*
X10782466Y-14580221D01*
X10772942Y-14599268D01*
X10763418Y-14608792D01*
X10744370Y-14618316D01*
X10687228Y-14618316D01*
X10668180Y-14608792D01*
X10658656Y-14599268D01*
X10858656Y-14418316D02*
X10858656Y-14456411D01*
X10934847Y-14418316D02*
X10934847Y-14456411D01*
X11230085Y-14694507D02*
X11220561Y-14684983D01*
X11201513Y-14656411D01*
X11191989Y-14637364D01*
X11182466Y-14608792D01*
X11172942Y-14561173D01*
X11172942Y-14523078D01*
X11182466Y-14475459D01*
X11191989Y-14446888D01*
X11201513Y-14427840D01*
X11220561Y-14399268D01*
X11230085Y-14389745D01*
X11315799Y-14618316D02*
X11353894Y-14618316D01*
X11372942Y-14608792D01*
X11382466Y-14599268D01*
X11401513Y-14570697D01*
X11411037Y-14532602D01*
X11411037Y-14456411D01*
X11401513Y-14437364D01*
X11391989Y-14427840D01*
X11372942Y-14418316D01*
X11334847Y-14418316D01*
X11315799Y-14427840D01*
X11306275Y-14437364D01*
X11296751Y-14456411D01*
X11296751Y-14504030D01*
X11306275Y-14523078D01*
X11315799Y-14532602D01*
X11334847Y-14542126D01*
X11372942Y-14542126D01*
X11391989Y-14532602D01*
X11401513Y-14523078D01*
X11411037Y-14504030D01*
X11649132Y-14618316D02*
X11649132Y-14418316D01*
X11734847Y-14618316D02*
X11734847Y-14513554D01*
X11725323Y-14494507D01*
X11706275Y-14484983D01*
X11677704Y-14484983D01*
X11658656Y-14494507D01*
X11649132Y-14504030D01*
X11858656Y-14618316D02*
X11839608Y-14608792D01*
X11830085Y-14599268D01*
X11820561Y-14580221D01*
X11820561Y-14523078D01*
X11830085Y-14504030D01*
X11839608Y-14494507D01*
X11858656Y-14484983D01*
X11887228Y-14484983D01*
X11906275Y-14494507D01*
X11915799Y-14504030D01*
X11925323Y-14523078D01*
X11925323Y-14580221D01*
X11915799Y-14599268D01*
X11906275Y-14608792D01*
X11887228Y-14618316D01*
X11858656Y-14618316D01*
X12039608Y-14618316D02*
X12020561Y-14608792D01*
X12011037Y-14589745D01*
X12011037Y-14418316D01*
X12191989Y-14608792D02*
X12172942Y-14618316D01*
X12134847Y-14618316D01*
X12115799Y-14608792D01*
X12106275Y-14589745D01*
X12106275Y-14513554D01*
X12115799Y-14494507D01*
X12134847Y-14484983D01*
X12172942Y-14484983D01*
X12191989Y-14494507D01*
X12201513Y-14513554D01*
X12201513Y-14532602D01*
X12106275Y-14551649D01*
X12277704Y-14608792D02*
X12296751Y-14618316D01*
X12334847Y-14618316D01*
X12353894Y-14608792D01*
X12363418Y-14589745D01*
X12363418Y-14580221D01*
X12353894Y-14561173D01*
X12334847Y-14551649D01*
X12306275Y-14551649D01*
X12287228Y-14542126D01*
X12277704Y-14523078D01*
X12277704Y-14513554D01*
X12287228Y-14494507D01*
X12306275Y-14484983D01*
X12334847Y-14484983D01*
X12353894Y-14494507D01*
X12430085Y-14694507D02*
X12439608Y-14684983D01*
X12458656Y-14656411D01*
X12468180Y-14637364D01*
X12477704Y-14608792D01*
X12487228Y-14561173D01*
X12487228Y-14523078D01*
X12477704Y-14475459D01*
X12468180Y-14446888D01*
X12458656Y-14427840D01*
X12439608Y-14399268D01*
X12430085Y-14389745D01*
D17*
X7538180Y-14731840D02*
X7658180Y-14851840D01*
X7658180Y-14731840D02*
X7538180Y-14851840D01*
X7598180Y-14731840D02*
X7598180Y-14851840D01*
X7538180Y-14791840D02*
X7658180Y-14791840D01*
D11*
X8020561Y-14882316D02*
X7906275Y-14882316D01*
X7963418Y-14882316D02*
X7963418Y-14682316D01*
X7944370Y-14710888D01*
X7925323Y-14729935D01*
X7906275Y-14739459D01*
X8106275Y-14863268D02*
X8115799Y-14872792D01*
X8106275Y-14882316D01*
X8096751Y-14872792D01*
X8106275Y-14863268D01*
X8106275Y-14882316D01*
X8191989Y-14701364D02*
X8201513Y-14691840D01*
X8220561Y-14682316D01*
X8268180Y-14682316D01*
X8287228Y-14691840D01*
X8296751Y-14701364D01*
X8306275Y-14720411D01*
X8306275Y-14739459D01*
X8296751Y-14768030D01*
X8182466Y-14882316D01*
X8306275Y-14882316D01*
X8430085Y-14682316D02*
X8449132Y-14682316D01*
X8468180Y-14691840D01*
X8477704Y-14701364D01*
X8487228Y-14720411D01*
X8496751Y-14758507D01*
X8496751Y-14806126D01*
X8487228Y-14844221D01*
X8477704Y-14863268D01*
X8468180Y-14872792D01*
X8449132Y-14882316D01*
X8430085Y-14882316D01*
X8411037Y-14872792D01*
X8401513Y-14863268D01*
X8391990Y-14844221D01*
X8382466Y-14806126D01*
X8382466Y-14758507D01*
X8391990Y-14720411D01*
X8401513Y-14701364D01*
X8411037Y-14691840D01*
X8430085Y-14682316D01*
X8620561Y-14682316D02*
X8639609Y-14682316D01*
X8658656Y-14691840D01*
X8668180Y-14701364D01*
X8677704Y-14720411D01*
X8687228Y-14758507D01*
X8687228Y-14806126D01*
X8677704Y-14844221D01*
X8668180Y-14863268D01*
X8658656Y-14872792D01*
X8639609Y-14882316D01*
X8620561Y-14882316D01*
X8601513Y-14872792D01*
X8591990Y-14863268D01*
X8582466Y-14844221D01*
X8572942Y-14806126D01*
X8572942Y-14758507D01*
X8582466Y-14720411D01*
X8591990Y-14701364D01*
X8601513Y-14691840D01*
X8620561Y-14682316D01*
X8772942Y-14882316D02*
X8772942Y-14748983D01*
X8772942Y-14768030D02*
X8782466Y-14758507D01*
X8801513Y-14748983D01*
X8830085Y-14748983D01*
X8849132Y-14758507D01*
X8858656Y-14777554D01*
X8858656Y-14882316D01*
X8858656Y-14777554D02*
X8868180Y-14758507D01*
X8887228Y-14748983D01*
X8915799Y-14748983D01*
X8934847Y-14758507D01*
X8944370Y-14777554D01*
X8944370Y-14882316D01*
X9039609Y-14882316D02*
X9039609Y-14748983D01*
X9039609Y-14768030D02*
X9049132Y-14758507D01*
X9068180Y-14748983D01*
X9096751Y-14748983D01*
X9115799Y-14758507D01*
X9125323Y-14777554D01*
X9125323Y-14882316D01*
X9125323Y-14777554D02*
X9134847Y-14758507D01*
X9153894Y-14748983D01*
X9182466Y-14748983D01*
X9201513Y-14758507D01*
X9211037Y-14777554D01*
X9211037Y-14882316D01*
X9601513Y-14672792D02*
X9430085Y-14929935D01*
X9858656Y-14682316D02*
X9877704Y-14682316D01*
X9896751Y-14691840D01*
X9906275Y-14701364D01*
X9915799Y-14720411D01*
X9925323Y-14758507D01*
X9925323Y-14806126D01*
X9915799Y-14844221D01*
X9906275Y-14863268D01*
X9896751Y-14872792D01*
X9877704Y-14882316D01*
X9858656Y-14882316D01*
X9839609Y-14872792D01*
X9830085Y-14863268D01*
X9820561Y-14844221D01*
X9811037Y-14806126D01*
X9811037Y-14758507D01*
X9820561Y-14720411D01*
X9830085Y-14701364D01*
X9839609Y-14691840D01*
X9858656Y-14682316D01*
X10011037Y-14863268D02*
X10020561Y-14872792D01*
X10011037Y-14882316D01*
X10001513Y-14872792D01*
X10011037Y-14863268D01*
X10011037Y-14882316D01*
X10144370Y-14682316D02*
X10163418Y-14682316D01*
X10182466Y-14691840D01*
X10191990Y-14701364D01*
X10201513Y-14720411D01*
X10211037Y-14758507D01*
X10211037Y-14806126D01*
X10201513Y-14844221D01*
X10191990Y-14863268D01*
X10182466Y-14872792D01*
X10163418Y-14882316D01*
X10144370Y-14882316D01*
X10125323Y-14872792D01*
X10115799Y-14863268D01*
X10106275Y-14844221D01*
X10096751Y-14806126D01*
X10096751Y-14758507D01*
X10106275Y-14720411D01*
X10115799Y-14701364D01*
X10125323Y-14691840D01*
X10144370Y-14682316D01*
X10382466Y-14748983D02*
X10382466Y-14882316D01*
X10334847Y-14672792D02*
X10287228Y-14815649D01*
X10411037Y-14815649D01*
X10468180Y-14682316D02*
X10601513Y-14682316D01*
X10515799Y-14882316D01*
X10668180Y-14701364D02*
X10677704Y-14691840D01*
X10696751Y-14682316D01*
X10744370Y-14682316D01*
X10763418Y-14691840D01*
X10772942Y-14701364D01*
X10782466Y-14720411D01*
X10782466Y-14739459D01*
X10772942Y-14768030D01*
X10658656Y-14882316D01*
X10782466Y-14882316D01*
X10858656Y-14682316D02*
X10858656Y-14720411D01*
X10934847Y-14682316D02*
X10934847Y-14720411D01*
X11230085Y-14958507D02*
X11220561Y-14948983D01*
X11201513Y-14920411D01*
X11191989Y-14901364D01*
X11182466Y-14872792D01*
X11172942Y-14825173D01*
X11172942Y-14787078D01*
X11182466Y-14739459D01*
X11191989Y-14710888D01*
X11201513Y-14691840D01*
X11220561Y-14663268D01*
X11230085Y-14653745D01*
X11411037Y-14882316D02*
X11296751Y-14882316D01*
X11353894Y-14882316D02*
X11353894Y-14682316D01*
X11334847Y-14710888D01*
X11315799Y-14729935D01*
X11296751Y-14739459D01*
X11487228Y-14701364D02*
X11496751Y-14691840D01*
X11515799Y-14682316D01*
X11563418Y-14682316D01*
X11582466Y-14691840D01*
X11591989Y-14701364D01*
X11601513Y-14720411D01*
X11601513Y-14739459D01*
X11591989Y-14768030D01*
X11477704Y-14882316D01*
X11601513Y-14882316D01*
X11839608Y-14882316D02*
X11839608Y-14682316D01*
X11925323Y-14882316D02*
X11925323Y-14777554D01*
X11915799Y-14758507D01*
X11896751Y-14748983D01*
X11868180Y-14748983D01*
X11849132Y-14758507D01*
X11839608Y-14768030D01*
X12049132Y-14882316D02*
X12030085Y-14872792D01*
X12020561Y-14863268D01*
X12011037Y-14844221D01*
X12011037Y-14787078D01*
X12020561Y-14768030D01*
X12030085Y-14758507D01*
X12049132Y-14748983D01*
X12077704Y-14748983D01*
X12096751Y-14758507D01*
X12106275Y-14768030D01*
X12115799Y-14787078D01*
X12115799Y-14844221D01*
X12106275Y-14863268D01*
X12096751Y-14872792D01*
X12077704Y-14882316D01*
X12049132Y-14882316D01*
X12230085Y-14882316D02*
X12211037Y-14872792D01*
X12201513Y-14853745D01*
X12201513Y-14682316D01*
X12382466Y-14872792D02*
X12363418Y-14882316D01*
X12325323Y-14882316D01*
X12306275Y-14872792D01*
X12296751Y-14853745D01*
X12296751Y-14777554D01*
X12306275Y-14758507D01*
X12325323Y-14748983D01*
X12363418Y-14748983D01*
X12382466Y-14758507D01*
X12391989Y-14777554D01*
X12391989Y-14796602D01*
X12296751Y-14815649D01*
X12468180Y-14872792D02*
X12487228Y-14882316D01*
X12525323Y-14882316D01*
X12544370Y-14872792D01*
X12553894Y-14853745D01*
X12553894Y-14844221D01*
X12544370Y-14825173D01*
X12525323Y-14815649D01*
X12496751Y-14815649D01*
X12477704Y-14806126D01*
X12468180Y-14787078D01*
X12468180Y-14777554D01*
X12477704Y-14758507D01*
X12496751Y-14748983D01*
X12525323Y-14748983D01*
X12544370Y-14758507D01*
X12620561Y-14958507D02*
X12630085Y-14948983D01*
X12649132Y-14920411D01*
X12658656Y-14901364D01*
X12668180Y-14872792D01*
X12677704Y-14825173D01*
X12677704Y-14787078D01*
X12668180Y-14739459D01*
X12658656Y-14710888D01*
X12649132Y-14691840D01*
X12630085Y-14663268D01*
X12620561Y-14653745D01*
D18*
X7508180Y-14980840D02*
X7658180Y-15130840D01*
X7658180Y-14980840D02*
X7508180Y-15130840D01*
X7636213Y-15108873D02*
X7636213Y-15002806D01*
X7530146Y-15002806D01*
X7530146Y-15108873D01*
X7636213Y-15108873D01*
D11*
X8020561Y-15146316D02*
X7906275Y-15146316D01*
X7963418Y-15146316D02*
X7963418Y-14946316D01*
X7944370Y-14974888D01*
X7925323Y-14993935D01*
X7906275Y-15003459D01*
X8106275Y-15127268D02*
X8115799Y-15136792D01*
X8106275Y-15146316D01*
X8096751Y-15136792D01*
X8106275Y-15127268D01*
X8106275Y-15146316D01*
X8296751Y-14946316D02*
X8201513Y-14946316D01*
X8191989Y-15041554D01*
X8201513Y-15032030D01*
X8220561Y-15022507D01*
X8268180Y-15022507D01*
X8287228Y-15032030D01*
X8296751Y-15041554D01*
X8306275Y-15060602D01*
X8306275Y-15108221D01*
X8296751Y-15127268D01*
X8287228Y-15136792D01*
X8268180Y-15146316D01*
X8220561Y-15146316D01*
X8201513Y-15136792D01*
X8191989Y-15127268D01*
X8430085Y-14946316D02*
X8449132Y-14946316D01*
X8468180Y-14955840D01*
X8477704Y-14965364D01*
X8487228Y-14984411D01*
X8496751Y-15022507D01*
X8496751Y-15070126D01*
X8487228Y-15108221D01*
X8477704Y-15127268D01*
X8468180Y-15136792D01*
X8449132Y-15146316D01*
X8430085Y-15146316D01*
X8411037Y-15136792D01*
X8401513Y-15127268D01*
X8391990Y-15108221D01*
X8382466Y-15070126D01*
X8382466Y-15022507D01*
X8391990Y-14984411D01*
X8401513Y-14965364D01*
X8411037Y-14955840D01*
X8430085Y-14946316D01*
X8620561Y-14946316D02*
X8639609Y-14946316D01*
X8658656Y-14955840D01*
X8668180Y-14965364D01*
X8677704Y-14984411D01*
X8687228Y-15022507D01*
X8687228Y-15070126D01*
X8677704Y-15108221D01*
X8668180Y-15127268D01*
X8658656Y-15136792D01*
X8639609Y-15146316D01*
X8620561Y-15146316D01*
X8601513Y-15136792D01*
X8591990Y-15127268D01*
X8582466Y-15108221D01*
X8572942Y-15070126D01*
X8572942Y-15022507D01*
X8582466Y-14984411D01*
X8591990Y-14965364D01*
X8601513Y-14955840D01*
X8620561Y-14946316D01*
X8772942Y-15146316D02*
X8772942Y-15012983D01*
X8772942Y-15032030D02*
X8782466Y-15022507D01*
X8801513Y-15012983D01*
X8830085Y-15012983D01*
X8849132Y-15022507D01*
X8858656Y-15041554D01*
X8858656Y-15146316D01*
X8858656Y-15041554D02*
X8868180Y-15022507D01*
X8887228Y-15012983D01*
X8915799Y-15012983D01*
X8934847Y-15022507D01*
X8944370Y-15041554D01*
X8944370Y-15146316D01*
X9039609Y-15146316D02*
X9039609Y-15012983D01*
X9039609Y-15032030D02*
X9049132Y-15022507D01*
X9068180Y-15012983D01*
X9096751Y-15012983D01*
X9115799Y-15022507D01*
X9125323Y-15041554D01*
X9125323Y-15146316D01*
X9125323Y-15041554D02*
X9134847Y-15022507D01*
X9153894Y-15012983D01*
X9182466Y-15012983D01*
X9201513Y-15022507D01*
X9211037Y-15041554D01*
X9211037Y-15146316D01*
X9601513Y-14936792D02*
X9430085Y-15193935D01*
X9858656Y-14946316D02*
X9877704Y-14946316D01*
X9896751Y-14955840D01*
X9906275Y-14965364D01*
X9915799Y-14984411D01*
X9925323Y-15022507D01*
X9925323Y-15070126D01*
X9915799Y-15108221D01*
X9906275Y-15127268D01*
X9896751Y-15136792D01*
X9877704Y-15146316D01*
X9858656Y-15146316D01*
X9839609Y-15136792D01*
X9830085Y-15127268D01*
X9820561Y-15108221D01*
X9811037Y-15070126D01*
X9811037Y-15022507D01*
X9820561Y-14984411D01*
X9830085Y-14965364D01*
X9839609Y-14955840D01*
X9858656Y-14946316D01*
X10011037Y-15127268D02*
X10020561Y-15136792D01*
X10011037Y-15146316D01*
X10001513Y-15136792D01*
X10011037Y-15127268D01*
X10011037Y-15146316D01*
X10144370Y-14946316D02*
X10163418Y-14946316D01*
X10182466Y-14955840D01*
X10191990Y-14965364D01*
X10201513Y-14984411D01*
X10211037Y-15022507D01*
X10211037Y-15070126D01*
X10201513Y-15108221D01*
X10191990Y-15127268D01*
X10182466Y-15136792D01*
X10163418Y-15146316D01*
X10144370Y-15146316D01*
X10125323Y-15136792D01*
X10115799Y-15127268D01*
X10106275Y-15108221D01*
X10096751Y-15070126D01*
X10096751Y-15022507D01*
X10106275Y-14984411D01*
X10115799Y-14965364D01*
X10125323Y-14955840D01*
X10144370Y-14946316D01*
X10391990Y-14946316D02*
X10296751Y-14946316D01*
X10287228Y-15041554D01*
X10296751Y-15032030D01*
X10315799Y-15022507D01*
X10363418Y-15022507D01*
X10382466Y-15032030D01*
X10391990Y-15041554D01*
X10401513Y-15060602D01*
X10401513Y-15108221D01*
X10391990Y-15127268D01*
X10382466Y-15136792D01*
X10363418Y-15146316D01*
X10315799Y-15146316D01*
X10296751Y-15136792D01*
X10287228Y-15127268D01*
X10496751Y-15146316D02*
X10534847Y-15146316D01*
X10553894Y-15136792D01*
X10563418Y-15127268D01*
X10582466Y-15098697D01*
X10591990Y-15060602D01*
X10591990Y-14984411D01*
X10582466Y-14965364D01*
X10572942Y-14955840D01*
X10553894Y-14946316D01*
X10515799Y-14946316D01*
X10496751Y-14955840D01*
X10487228Y-14965364D01*
X10477704Y-14984411D01*
X10477704Y-15032030D01*
X10487228Y-15051078D01*
X10496751Y-15060602D01*
X10515799Y-15070126D01*
X10553894Y-15070126D01*
X10572942Y-15060602D01*
X10582466Y-15051078D01*
X10591990Y-15032030D01*
X10782466Y-15146316D02*
X10668180Y-15146316D01*
X10725323Y-15146316D02*
X10725323Y-14946316D01*
X10706275Y-14974888D01*
X10687228Y-14993935D01*
X10668180Y-15003459D01*
X10858656Y-14946316D02*
X10858656Y-14984411D01*
X10934847Y-14946316D02*
X10934847Y-14984411D01*
X11230085Y-15222507D02*
X11220561Y-15212983D01*
X11201513Y-15184411D01*
X11191989Y-15165364D01*
X11182466Y-15136792D01*
X11172942Y-15089173D01*
X11172942Y-15051078D01*
X11182466Y-15003459D01*
X11191989Y-14974888D01*
X11201513Y-14955840D01*
X11220561Y-14927268D01*
X11230085Y-14917745D01*
X11296751Y-14965364D02*
X11306275Y-14955840D01*
X11325323Y-14946316D01*
X11372942Y-14946316D01*
X11391989Y-14955840D01*
X11401513Y-14965364D01*
X11411037Y-14984411D01*
X11411037Y-15003459D01*
X11401513Y-15032030D01*
X11287228Y-15146316D01*
X11411037Y-15146316D01*
X11649132Y-15146316D02*
X11649132Y-14946316D01*
X11734847Y-15146316D02*
X11734847Y-15041554D01*
X11725323Y-15022507D01*
X11706275Y-15012983D01*
X11677704Y-15012983D01*
X11658656Y-15022507D01*
X11649132Y-15032030D01*
X11858656Y-15146316D02*
X11839608Y-15136792D01*
X11830085Y-15127268D01*
X11820561Y-15108221D01*
X11820561Y-15051078D01*
X11830085Y-15032030D01*
X11839608Y-15022507D01*
X11858656Y-15012983D01*
X11887228Y-15012983D01*
X11906275Y-15022507D01*
X11915799Y-15032030D01*
X11925323Y-15051078D01*
X11925323Y-15108221D01*
X11915799Y-15127268D01*
X11906275Y-15136792D01*
X11887228Y-15146316D01*
X11858656Y-15146316D01*
X12039608Y-15146316D02*
X12020561Y-15136792D01*
X12011037Y-15117745D01*
X12011037Y-14946316D01*
X12191989Y-15136792D02*
X12172942Y-15146316D01*
X12134847Y-15146316D01*
X12115799Y-15136792D01*
X12106275Y-15117745D01*
X12106275Y-15041554D01*
X12115799Y-15022507D01*
X12134847Y-15012983D01*
X12172942Y-15012983D01*
X12191989Y-15022507D01*
X12201513Y-15041554D01*
X12201513Y-15060602D01*
X12106275Y-15079649D01*
X12277704Y-15136792D02*
X12296751Y-15146316D01*
X12334847Y-15146316D01*
X12353894Y-15136792D01*
X12363418Y-15117745D01*
X12363418Y-15108221D01*
X12353894Y-15089173D01*
X12334847Y-15079649D01*
X12306275Y-15079649D01*
X12287228Y-15070126D01*
X12277704Y-15051078D01*
X12277704Y-15041554D01*
X12287228Y-15022507D01*
X12306275Y-15012983D01*
X12334847Y-15012983D01*
X12353894Y-15022507D01*
X12430085Y-15222507D02*
X12439608Y-15212983D01*
X12458656Y-15184411D01*
X12468180Y-15165364D01*
X12477704Y-15136792D01*
X12487228Y-15089173D01*
X12487228Y-15051078D01*
X12477704Y-15003459D01*
X12468180Y-14974888D01*
X12458656Y-14955840D01*
X12439608Y-14927268D01*
X12430085Y-14917745D01*
D19*
X7488180Y-15240840D02*
X7658180Y-15410840D01*
X7658180Y-15240840D02*
X7488180Y-15410840D01*
X7573180Y-15410840D02*
X7658180Y-15325840D01*
X7573180Y-15240840D01*
X7488180Y-15325840D01*
X7573180Y-15410840D01*
D11*
X8020561Y-15416316D02*
X7906275Y-15416316D01*
X7963418Y-15416316D02*
X7963418Y-15216316D01*
X7944370Y-15244888D01*
X7925323Y-15263935D01*
X7906275Y-15273459D01*
X8106275Y-15397268D02*
X8115799Y-15406792D01*
X8106275Y-15416316D01*
X8096751Y-15406792D01*
X8106275Y-15397268D01*
X8106275Y-15416316D01*
X8182466Y-15216316D02*
X8315799Y-15216316D01*
X8230085Y-15416316D01*
X8430085Y-15216316D02*
X8449132Y-15216316D01*
X8468180Y-15225840D01*
X8477704Y-15235364D01*
X8487228Y-15254411D01*
X8496751Y-15292507D01*
X8496751Y-15340126D01*
X8487228Y-15378221D01*
X8477704Y-15397268D01*
X8468180Y-15406792D01*
X8449132Y-15416316D01*
X8430085Y-15416316D01*
X8411037Y-15406792D01*
X8401513Y-15397268D01*
X8391990Y-15378221D01*
X8382466Y-15340126D01*
X8382466Y-15292507D01*
X8391990Y-15254411D01*
X8401513Y-15235364D01*
X8411037Y-15225840D01*
X8430085Y-15216316D01*
X8620561Y-15216316D02*
X8639609Y-15216316D01*
X8658656Y-15225840D01*
X8668180Y-15235364D01*
X8677704Y-15254411D01*
X8687228Y-15292507D01*
X8687228Y-15340126D01*
X8677704Y-15378221D01*
X8668180Y-15397268D01*
X8658656Y-15406792D01*
X8639609Y-15416316D01*
X8620561Y-15416316D01*
X8601513Y-15406792D01*
X8591990Y-15397268D01*
X8582466Y-15378221D01*
X8572942Y-15340126D01*
X8572942Y-15292507D01*
X8582466Y-15254411D01*
X8591990Y-15235364D01*
X8601513Y-15225840D01*
X8620561Y-15216316D01*
X8772942Y-15416316D02*
X8772942Y-15282983D01*
X8772942Y-15302030D02*
X8782466Y-15292507D01*
X8801513Y-15282983D01*
X8830085Y-15282983D01*
X8849132Y-15292507D01*
X8858656Y-15311554D01*
X8858656Y-15416316D01*
X8858656Y-15311554D02*
X8868180Y-15292507D01*
X8887228Y-15282983D01*
X8915799Y-15282983D01*
X8934847Y-15292507D01*
X8944370Y-15311554D01*
X8944370Y-15416316D01*
X9039609Y-15416316D02*
X9039609Y-15282983D01*
X9039609Y-15302030D02*
X9049132Y-15292507D01*
X9068180Y-15282983D01*
X9096751Y-15282983D01*
X9115799Y-15292507D01*
X9125323Y-15311554D01*
X9125323Y-15416316D01*
X9125323Y-15311554D02*
X9134847Y-15292507D01*
X9153894Y-15282983D01*
X9182466Y-15282983D01*
X9201513Y-15292507D01*
X9211037Y-15311554D01*
X9211037Y-15416316D01*
X9601513Y-15206792D02*
X9430085Y-15463935D01*
X9858656Y-15216316D02*
X9877704Y-15216316D01*
X9896751Y-15225840D01*
X9906275Y-15235364D01*
X9915799Y-15254411D01*
X9925323Y-15292507D01*
X9925323Y-15340126D01*
X9915799Y-15378221D01*
X9906275Y-15397268D01*
X9896751Y-15406792D01*
X9877704Y-15416316D01*
X9858656Y-15416316D01*
X9839609Y-15406792D01*
X9830085Y-15397268D01*
X9820561Y-15378221D01*
X9811037Y-15340126D01*
X9811037Y-15292507D01*
X9820561Y-15254411D01*
X9830085Y-15235364D01*
X9839609Y-15225840D01*
X9858656Y-15216316D01*
X10011037Y-15397268D02*
X10020561Y-15406792D01*
X10011037Y-15416316D01*
X10001513Y-15406792D01*
X10011037Y-15397268D01*
X10011037Y-15416316D01*
X10144370Y-15216316D02*
X10163418Y-15216316D01*
X10182466Y-15225840D01*
X10191990Y-15235364D01*
X10201513Y-15254411D01*
X10211037Y-15292507D01*
X10211037Y-15340126D01*
X10201513Y-15378221D01*
X10191990Y-15397268D01*
X10182466Y-15406792D01*
X10163418Y-15416316D01*
X10144370Y-15416316D01*
X10125323Y-15406792D01*
X10115799Y-15397268D01*
X10106275Y-15378221D01*
X10096751Y-15340126D01*
X10096751Y-15292507D01*
X10106275Y-15254411D01*
X10115799Y-15235364D01*
X10125323Y-15225840D01*
X10144370Y-15216316D01*
X10382466Y-15216316D02*
X10344370Y-15216316D01*
X10325323Y-15225840D01*
X10315799Y-15235364D01*
X10296751Y-15263935D01*
X10287228Y-15302030D01*
X10287228Y-15378221D01*
X10296751Y-15397268D01*
X10306275Y-15406792D01*
X10325323Y-15416316D01*
X10363418Y-15416316D01*
X10382466Y-15406792D01*
X10391990Y-15397268D01*
X10401513Y-15378221D01*
X10401513Y-15330602D01*
X10391990Y-15311554D01*
X10382466Y-15302030D01*
X10363418Y-15292507D01*
X10325323Y-15292507D01*
X10306275Y-15302030D01*
X10296751Y-15311554D01*
X10287228Y-15330602D01*
X10572942Y-15216316D02*
X10534847Y-15216316D01*
X10515799Y-15225840D01*
X10506275Y-15235364D01*
X10487228Y-15263935D01*
X10477704Y-15302030D01*
X10477704Y-15378221D01*
X10487228Y-15397268D01*
X10496751Y-15406792D01*
X10515799Y-15416316D01*
X10553894Y-15416316D01*
X10572942Y-15406792D01*
X10582466Y-15397268D01*
X10591990Y-15378221D01*
X10591990Y-15330602D01*
X10582466Y-15311554D01*
X10572942Y-15302030D01*
X10553894Y-15292507D01*
X10515799Y-15292507D01*
X10496751Y-15302030D01*
X10487228Y-15311554D01*
X10477704Y-15330602D01*
X10687228Y-15416316D02*
X10725323Y-15416316D01*
X10744370Y-15406792D01*
X10753894Y-15397268D01*
X10772942Y-15368697D01*
X10782466Y-15330602D01*
X10782466Y-15254411D01*
X10772942Y-15235364D01*
X10763418Y-15225840D01*
X10744370Y-15216316D01*
X10706275Y-15216316D01*
X10687228Y-15225840D01*
X10677704Y-15235364D01*
X10668180Y-15254411D01*
X10668180Y-15302030D01*
X10677704Y-15321078D01*
X10687228Y-15330602D01*
X10706275Y-15340126D01*
X10744370Y-15340126D01*
X10763418Y-15330602D01*
X10772942Y-15321078D01*
X10782466Y-15302030D01*
X10858656Y-15216316D02*
X10858656Y-15254411D01*
X10934847Y-15216316D02*
X10934847Y-15254411D01*
X11230085Y-15492507D02*
X11220561Y-15482983D01*
X11201513Y-15454411D01*
X11191989Y-15435364D01*
X11182466Y-15406792D01*
X11172942Y-15359173D01*
X11172942Y-15321078D01*
X11182466Y-15273459D01*
X11191989Y-15244888D01*
X11201513Y-15225840D01*
X11220561Y-15197268D01*
X11230085Y-15187745D01*
X11334847Y-15302030D02*
X11315799Y-15292507D01*
X11306275Y-15282983D01*
X11296751Y-15263935D01*
X11296751Y-15254411D01*
X11306275Y-15235364D01*
X11315799Y-15225840D01*
X11334847Y-15216316D01*
X11372942Y-15216316D01*
X11391989Y-15225840D01*
X11401513Y-15235364D01*
X11411037Y-15254411D01*
X11411037Y-15263935D01*
X11401513Y-15282983D01*
X11391989Y-15292507D01*
X11372942Y-15302030D01*
X11334847Y-15302030D01*
X11315799Y-15311554D01*
X11306275Y-15321078D01*
X11296751Y-15340126D01*
X11296751Y-15378221D01*
X11306275Y-15397268D01*
X11315799Y-15406792D01*
X11334847Y-15416316D01*
X11372942Y-15416316D01*
X11391989Y-15406792D01*
X11401513Y-15397268D01*
X11411037Y-15378221D01*
X11411037Y-15340126D01*
X11401513Y-15321078D01*
X11391989Y-15311554D01*
X11372942Y-15302030D01*
X11649132Y-15416316D02*
X11649132Y-15216316D01*
X11734847Y-15416316D02*
X11734847Y-15311554D01*
X11725323Y-15292507D01*
X11706275Y-15282983D01*
X11677704Y-15282983D01*
X11658656Y-15292507D01*
X11649132Y-15302030D01*
X11858656Y-15416316D02*
X11839608Y-15406792D01*
X11830085Y-15397268D01*
X11820561Y-15378221D01*
X11820561Y-15321078D01*
X11830085Y-15302030D01*
X11839608Y-15292507D01*
X11858656Y-15282983D01*
X11887228Y-15282983D01*
X11906275Y-15292507D01*
X11915799Y-15302030D01*
X11925323Y-15321078D01*
X11925323Y-15378221D01*
X11915799Y-15397268D01*
X11906275Y-15406792D01*
X11887228Y-15416316D01*
X11858656Y-15416316D01*
X12039608Y-15416316D02*
X12020561Y-15406792D01*
X12011037Y-15387745D01*
X12011037Y-15216316D01*
X12191989Y-15406792D02*
X12172942Y-15416316D01*
X12134847Y-15416316D01*
X12115799Y-15406792D01*
X12106275Y-15387745D01*
X12106275Y-15311554D01*
X12115799Y-15292507D01*
X12134847Y-15282983D01*
X12172942Y-15282983D01*
X12191989Y-15292507D01*
X12201513Y-15311554D01*
X12201513Y-15330602D01*
X12106275Y-15349649D01*
X12277704Y-15406792D02*
X12296751Y-15416316D01*
X12334847Y-15416316D01*
X12353894Y-15406792D01*
X12363418Y-15387745D01*
X12363418Y-15378221D01*
X12353894Y-15359173D01*
X12334847Y-15349649D01*
X12306275Y-15349649D01*
X12287228Y-15340126D01*
X12277704Y-15321078D01*
X12277704Y-15311554D01*
X12287228Y-15292507D01*
X12306275Y-15282983D01*
X12334847Y-15282983D01*
X12353894Y-15292507D01*
X12430085Y-15492507D02*
X12439608Y-15482983D01*
X12458656Y-15454411D01*
X12468180Y-15435364D01*
X12477704Y-15406792D01*
X12487228Y-15359173D01*
X12487228Y-15321078D01*
X12477704Y-15273459D01*
X12468180Y-15244888D01*
X12458656Y-15225840D01*
X12439608Y-15197268D01*
X12430085Y-15187745D01*
M02*
