%TF.GenerationSoftware,KiCad,Pcbnew,(6.0.7)*%
%TF.CreationDate,2023-01-12T16:49:01-05:00*%
%TF.ProjectId,Phoenix612_Stage_3_PA_Testing_v1,50686f65-6e69-4783-9631-325f53746167,rev?*%
%TF.SameCoordinates,Original*%
%TF.FileFunction,Legend,Top*%
%TF.FilePolarity,Positive*%
%FSLAX46Y46*%
G04 Gerber Fmt 4.6, Leading zero omitted, Abs format (unit mm)*
G04 Created by KiCad (PCBNEW (6.0.7)) date 2023-01-12 16:49:01*
%MOMM*%
%LPD*%
G01*
G04 APERTURE LIST*
%ADD10C,0.300000*%
%ADD11C,0.150000*%
%ADD12C,0.120000*%
%ADD13C,0.127000*%
G04 APERTURE END LIST*
D10*
X83023371Y-56800628D02*
X81523371Y-56800628D01*
X81523371Y-56229200D01*
X81594800Y-56086342D01*
X81666228Y-56014914D01*
X81809085Y-55943485D01*
X82023371Y-55943485D01*
X82166228Y-56014914D01*
X82237657Y-56086342D01*
X82309085Y-56229200D01*
X82309085Y-56800628D01*
X83023371Y-55300628D02*
X81523371Y-55300628D01*
X83023371Y-54657771D02*
X82237657Y-54657771D01*
X82094800Y-54729200D01*
X82023371Y-54872057D01*
X82023371Y-55086342D01*
X82094800Y-55229200D01*
X82166228Y-55300628D01*
X83023371Y-53729200D02*
X82951942Y-53872057D01*
X82880514Y-53943485D01*
X82737657Y-54014914D01*
X82309085Y-54014914D01*
X82166228Y-53943485D01*
X82094800Y-53872057D01*
X82023371Y-53729200D01*
X82023371Y-53514914D01*
X82094800Y-53372057D01*
X82166228Y-53300628D01*
X82309085Y-53229200D01*
X82737657Y-53229200D01*
X82880514Y-53300628D01*
X82951942Y-53372057D01*
X83023371Y-53514914D01*
X83023371Y-53729200D01*
X82951942Y-52014914D02*
X83023371Y-52157771D01*
X83023371Y-52443485D01*
X82951942Y-52586342D01*
X82809085Y-52657771D01*
X82237657Y-52657771D01*
X82094800Y-52586342D01*
X82023371Y-52443485D01*
X82023371Y-52157771D01*
X82094800Y-52014914D01*
X82237657Y-51943485D01*
X82380514Y-51943485D01*
X82523371Y-52657771D01*
X82023371Y-51300628D02*
X83023371Y-51300628D01*
X82166228Y-51300628D02*
X82094800Y-51229200D01*
X82023371Y-51086342D01*
X82023371Y-50872057D01*
X82094800Y-50729200D01*
X82237657Y-50657771D01*
X83023371Y-50657771D01*
X83023371Y-49943485D02*
X82023371Y-49943485D01*
X81523371Y-49943485D02*
X81594800Y-50014914D01*
X81666228Y-49943485D01*
X81594800Y-49872057D01*
X81523371Y-49943485D01*
X81666228Y-49943485D01*
X83023371Y-49372057D02*
X82023371Y-48586342D01*
X82023371Y-49372057D02*
X83023371Y-48586342D01*
X81523371Y-46229200D02*
X81523371Y-46514914D01*
X81594800Y-46657771D01*
X81666228Y-46729200D01*
X81880514Y-46872057D01*
X82166228Y-46943485D01*
X82737657Y-46943485D01*
X82880514Y-46872057D01*
X82951942Y-46800628D01*
X83023371Y-46657771D01*
X83023371Y-46372057D01*
X82951942Y-46229200D01*
X82880514Y-46157771D01*
X82737657Y-46086342D01*
X82380514Y-46086342D01*
X82237657Y-46157771D01*
X82166228Y-46229200D01*
X82094800Y-46372057D01*
X82094800Y-46657771D01*
X82166228Y-46800628D01*
X82237657Y-46872057D01*
X82380514Y-46943485D01*
X83023371Y-44657771D02*
X83023371Y-45514914D01*
X83023371Y-45086342D02*
X81523371Y-45086342D01*
X81737657Y-45229200D01*
X81880514Y-45372057D01*
X81951942Y-45514914D01*
X81666228Y-44086342D02*
X81594800Y-44014914D01*
X81523371Y-43872057D01*
X81523371Y-43514914D01*
X81594800Y-43372057D01*
X81666228Y-43300628D01*
X81809085Y-43229200D01*
X81951942Y-43229200D01*
X82166228Y-43300628D01*
X83023371Y-44157771D01*
X83023371Y-43229200D01*
X85438371Y-60086342D02*
X83938371Y-60086342D01*
X83938371Y-59514914D01*
X84009800Y-59372057D01*
X84081228Y-59300628D01*
X84224085Y-59229200D01*
X84438371Y-59229200D01*
X84581228Y-59300628D01*
X84652657Y-59372057D01*
X84724085Y-59514914D01*
X84724085Y-60086342D01*
X85438371Y-58372057D02*
X85366942Y-58514914D01*
X85295514Y-58586342D01*
X85152657Y-58657771D01*
X84724085Y-58657771D01*
X84581228Y-58586342D01*
X84509800Y-58514914D01*
X84438371Y-58372057D01*
X84438371Y-58157771D01*
X84509800Y-58014914D01*
X84581228Y-57943485D01*
X84724085Y-57872057D01*
X85152657Y-57872057D01*
X85295514Y-57943485D01*
X85366942Y-58014914D01*
X85438371Y-58157771D01*
X85438371Y-58372057D01*
X84438371Y-57372057D02*
X85438371Y-57086342D01*
X84724085Y-56800628D01*
X85438371Y-56514914D01*
X84438371Y-56229200D01*
X85366942Y-55086342D02*
X85438371Y-55229200D01*
X85438371Y-55514914D01*
X85366942Y-55657771D01*
X85224085Y-55729200D01*
X84652657Y-55729200D01*
X84509800Y-55657771D01*
X84438371Y-55514914D01*
X84438371Y-55229200D01*
X84509800Y-55086342D01*
X84652657Y-55014914D01*
X84795514Y-55014914D01*
X84938371Y-55729200D01*
X85438371Y-54372057D02*
X84438371Y-54372057D01*
X84724085Y-54372057D02*
X84581228Y-54300628D01*
X84509800Y-54229200D01*
X84438371Y-54086342D01*
X84438371Y-53943485D01*
X85009800Y-52372057D02*
X85009800Y-51657771D01*
X85438371Y-52514914D02*
X83938371Y-52014914D01*
X85438371Y-51514914D01*
X85438371Y-51014914D02*
X84438371Y-51014914D01*
X84581228Y-51014914D02*
X84509800Y-50943485D01*
X84438371Y-50800628D01*
X84438371Y-50586342D01*
X84509800Y-50443485D01*
X84652657Y-50372057D01*
X85438371Y-50372057D01*
X84652657Y-50372057D02*
X84509800Y-50300628D01*
X84438371Y-50157771D01*
X84438371Y-49943485D01*
X84509800Y-49800628D01*
X84652657Y-49729200D01*
X85438371Y-49729200D01*
X84438371Y-49014914D02*
X85938371Y-49014914D01*
X84509800Y-49014914D02*
X84438371Y-48872057D01*
X84438371Y-48586342D01*
X84509800Y-48443485D01*
X84581228Y-48372057D01*
X84724085Y-48300628D01*
X85152657Y-48300628D01*
X85295514Y-48372057D01*
X85366942Y-48443485D01*
X85438371Y-48586342D01*
X85438371Y-48872057D01*
X85366942Y-49014914D01*
X83938371Y-46729200D02*
X83938371Y-45872057D01*
X85438371Y-46300628D02*
X83938371Y-46300628D01*
X85366942Y-44800628D02*
X85438371Y-44943485D01*
X85438371Y-45229200D01*
X85366942Y-45372057D01*
X85224085Y-45443485D01*
X84652657Y-45443485D01*
X84509800Y-45372057D01*
X84438371Y-45229200D01*
X84438371Y-44943485D01*
X84509800Y-44800628D01*
X84652657Y-44729200D01*
X84795514Y-44729200D01*
X84938371Y-45443485D01*
X85366942Y-44157771D02*
X85438371Y-44014914D01*
X85438371Y-43729200D01*
X85366942Y-43586342D01*
X85224085Y-43514914D01*
X85152657Y-43514914D01*
X85009800Y-43586342D01*
X84938371Y-43729200D01*
X84938371Y-43943485D01*
X84866942Y-44086342D01*
X84724085Y-44157771D01*
X84652657Y-44157771D01*
X84509800Y-44086342D01*
X84438371Y-43943485D01*
X84438371Y-43729200D01*
X84509800Y-43586342D01*
X84438371Y-43086342D02*
X84438371Y-42514914D01*
X83938371Y-42872057D02*
X85224085Y-42872057D01*
X85366942Y-42800628D01*
X85438371Y-42657771D01*
X85438371Y-42514914D01*
X83938371Y-41086342D02*
X85438371Y-40586342D01*
X83938371Y-40086342D01*
X85438371Y-38800628D02*
X85438371Y-39657771D01*
X85438371Y-39229200D02*
X83938371Y-39229200D01*
X84152657Y-39372057D01*
X84295514Y-39514914D01*
X84366942Y-39657771D01*
X86353371Y-53300628D02*
X87853371Y-52800628D01*
X86353371Y-52300628D01*
X87067657Y-51800628D02*
X87067657Y-51300628D01*
X87853371Y-51086342D02*
X87853371Y-51800628D01*
X86353371Y-51800628D01*
X86353371Y-51086342D01*
X86353371Y-50586342D02*
X86353371Y-49657771D01*
X86924800Y-50157771D01*
X86924800Y-49943485D01*
X86996228Y-49800628D01*
X87067657Y-49729200D01*
X87210514Y-49657771D01*
X87567657Y-49657771D01*
X87710514Y-49729200D01*
X87781942Y-49800628D01*
X87853371Y-49943485D01*
X87853371Y-50372057D01*
X87781942Y-50514914D01*
X87710514Y-50586342D01*
X86353371Y-48729200D02*
X86353371Y-48443485D01*
X86424800Y-48300628D01*
X86567657Y-48157771D01*
X86853371Y-48086342D01*
X87353371Y-48086342D01*
X87639085Y-48157771D01*
X87781942Y-48300628D01*
X87853371Y-48443485D01*
X87853371Y-48729200D01*
X87781942Y-48872057D01*
X87639085Y-49014914D01*
X87353371Y-49086342D01*
X86853371Y-49086342D01*
X86567657Y-49014914D01*
X86424800Y-48872057D01*
X86353371Y-48729200D01*
X86353371Y-47157771D02*
X86353371Y-46872057D01*
X86424800Y-46729200D01*
X86567657Y-46586342D01*
X86853371Y-46514914D01*
X87353371Y-46514914D01*
X87639085Y-46586342D01*
X87781942Y-46729200D01*
X87853371Y-46872057D01*
X87853371Y-47157771D01*
X87781942Y-47300628D01*
X87639085Y-47443485D01*
X87353371Y-47514914D01*
X86853371Y-47514914D01*
X86567657Y-47443485D01*
X86424800Y-47300628D01*
X86353371Y-47157771D01*
X87853371Y-45872057D02*
X86353371Y-45872057D01*
D11*
%TO.C,R5*%
X122159733Y-48229780D02*
X121826400Y-47753590D01*
X121588304Y-48229780D02*
X121588304Y-47229780D01*
X121969257Y-47229780D01*
X122064495Y-47277400D01*
X122112114Y-47325019D01*
X122159733Y-47420257D01*
X122159733Y-47563114D01*
X122112114Y-47658352D01*
X122064495Y-47705971D01*
X121969257Y-47753590D01*
X121588304Y-47753590D01*
X123064495Y-47229780D02*
X122588304Y-47229780D01*
X122540685Y-47705971D01*
X122588304Y-47658352D01*
X122683542Y-47610733D01*
X122921638Y-47610733D01*
X123016876Y-47658352D01*
X123064495Y-47705971D01*
X123112114Y-47801209D01*
X123112114Y-48039304D01*
X123064495Y-48134542D01*
X123016876Y-48182161D01*
X122921638Y-48229780D01*
X122683542Y-48229780D01*
X122588304Y-48182161D01*
X122540685Y-48134542D01*
X122213714Y-50185580D02*
X121642285Y-50185580D01*
X121928000Y-50185580D02*
X121928000Y-49185580D01*
X121832761Y-49328438D01*
X121737523Y-49423676D01*
X121642285Y-49471295D01*
X122642285Y-50185580D02*
X122642285Y-49185580D01*
X123213714Y-50185580D02*
X122785142Y-49614152D01*
X123213714Y-49185580D02*
X122642285Y-49757009D01*
%TO.C,J4*%
X116343180Y-43437133D02*
X117057466Y-43437133D01*
X117200323Y-43484752D01*
X117295561Y-43579990D01*
X117343180Y-43722847D01*
X117343180Y-43818085D01*
X116676514Y-42532371D02*
X117343180Y-42532371D01*
X116295561Y-42770466D02*
X117009847Y-43008561D01*
X117009847Y-42389514D01*
X127299980Y-45133971D02*
X126823790Y-45467304D01*
X127299980Y-45705400D02*
X126299980Y-45705400D01*
X126299980Y-45324447D01*
X126347600Y-45229209D01*
X126395219Y-45181590D01*
X126490457Y-45133971D01*
X126633314Y-45133971D01*
X126728552Y-45181590D01*
X126776171Y-45229209D01*
X126823790Y-45324447D01*
X126823790Y-45705400D01*
X126776171Y-44372066D02*
X126776171Y-44705400D01*
X127299980Y-44705400D02*
X126299980Y-44705400D01*
X126299980Y-44229209D01*
X127395219Y-44086352D02*
X127395219Y-43324447D01*
X126299980Y-42895876D02*
X126299980Y-42705400D01*
X126347600Y-42610161D01*
X126442838Y-42514923D01*
X126633314Y-42467304D01*
X126966647Y-42467304D01*
X127157123Y-42514923D01*
X127252361Y-42610161D01*
X127299980Y-42705400D01*
X127299980Y-42895876D01*
X127252361Y-42991114D01*
X127157123Y-43086352D01*
X126966647Y-43133971D01*
X126633314Y-43133971D01*
X126442838Y-43086352D01*
X126347600Y-42991114D01*
X126299980Y-42895876D01*
X126299980Y-42038733D02*
X127109504Y-42038733D01*
X127204742Y-41991114D01*
X127252361Y-41943495D01*
X127299980Y-41848257D01*
X127299980Y-41657780D01*
X127252361Y-41562542D01*
X127204742Y-41514923D01*
X127109504Y-41467304D01*
X126299980Y-41467304D01*
X126299980Y-41133971D02*
X126299980Y-40562542D01*
X127299980Y-40848257D02*
X126299980Y-40848257D01*
%TO.C,C7*%
X97013733Y-91339942D02*
X96966114Y-91387561D01*
X96823257Y-91435180D01*
X96728019Y-91435180D01*
X96585161Y-91387561D01*
X96489923Y-91292323D01*
X96442304Y-91197085D01*
X96394685Y-91006609D01*
X96394685Y-90863752D01*
X96442304Y-90673276D01*
X96489923Y-90578038D01*
X96585161Y-90482800D01*
X96728019Y-90435180D01*
X96823257Y-90435180D01*
X96966114Y-90482800D01*
X97013733Y-90530419D01*
X97347066Y-90435180D02*
X98013733Y-90435180D01*
X97585161Y-91435180D01*
X97001152Y-92933780D02*
X96429723Y-92933780D01*
X96715438Y-92933780D02*
X96715438Y-91933780D01*
X96620200Y-92076638D01*
X96524961Y-92171876D01*
X96429723Y-92219495D01*
X97620200Y-91933780D02*
X97715438Y-91933780D01*
X97810676Y-91981400D01*
X97858295Y-92029019D01*
X97905914Y-92124257D01*
X97953533Y-92314733D01*
X97953533Y-92552828D01*
X97905914Y-92743304D01*
X97858295Y-92838542D01*
X97810676Y-92886161D01*
X97715438Y-92933780D01*
X97620200Y-92933780D01*
X97524961Y-92886161D01*
X97477342Y-92838542D01*
X97429723Y-92743304D01*
X97382104Y-92552828D01*
X97382104Y-92314733D01*
X97429723Y-92124257D01*
X97477342Y-92029019D01*
X97524961Y-91981400D01*
X97620200Y-91933780D01*
X98572580Y-91933780D02*
X98667819Y-91933780D01*
X98763057Y-91981400D01*
X98810676Y-92029019D01*
X98858295Y-92124257D01*
X98905914Y-92314733D01*
X98905914Y-92552828D01*
X98858295Y-92743304D01*
X98810676Y-92838542D01*
X98763057Y-92886161D01*
X98667819Y-92933780D01*
X98572580Y-92933780D01*
X98477342Y-92886161D01*
X98429723Y-92838542D01*
X98382104Y-92743304D01*
X98334485Y-92552828D01*
X98334485Y-92314733D01*
X98382104Y-92124257D01*
X98429723Y-92029019D01*
X98477342Y-91981400D01*
X98572580Y-91933780D01*
X99334485Y-92267114D02*
X99334485Y-92933780D01*
X99334485Y-92362352D02*
X99382104Y-92314733D01*
X99477342Y-92267114D01*
X99620200Y-92267114D01*
X99715438Y-92314733D01*
X99763057Y-92409971D01*
X99763057Y-92933780D01*
%TO.C,L2*%
X88488780Y-70423066D02*
X88488780Y-70899257D01*
X87488780Y-70899257D01*
X87584019Y-70137352D02*
X87536400Y-70089733D01*
X87488780Y-69994495D01*
X87488780Y-69756400D01*
X87536400Y-69661161D01*
X87584019Y-69613542D01*
X87679257Y-69565923D01*
X87774495Y-69565923D01*
X87917352Y-69613542D01*
X88488780Y-70184971D01*
X88488780Y-69565923D01*
X98201171Y-87646495D02*
X98201171Y-87979828D01*
X98724980Y-87979828D02*
X97724980Y-87979828D01*
X97724980Y-87503638D01*
X97724980Y-87265542D02*
X97724980Y-86694114D01*
X98724980Y-86979828D02*
X97724980Y-86979828D01*
X98344028Y-86360780D02*
X98344028Y-85598876D01*
X97724980Y-85217923D02*
X97724980Y-84598876D01*
X98105933Y-84932209D01*
X98105933Y-84789352D01*
X98153552Y-84694114D01*
X98201171Y-84646495D01*
X98296409Y-84598876D01*
X98534504Y-84598876D01*
X98629742Y-84646495D01*
X98677361Y-84694114D01*
X98724980Y-84789352D01*
X98724980Y-85075066D01*
X98677361Y-85170304D01*
X98629742Y-85217923D01*
X97724980Y-84265542D02*
X97724980Y-83598876D01*
X98724980Y-84027447D01*
X98344028Y-83217923D02*
X98344028Y-82456019D01*
X98058314Y-81551257D02*
X98724980Y-81551257D01*
X97677361Y-81789352D02*
X98391647Y-82027447D01*
X98391647Y-81408400D01*
X97724980Y-81122685D02*
X97724980Y-80503638D01*
X98105933Y-80836971D01*
X98105933Y-80694114D01*
X98153552Y-80598876D01*
X98201171Y-80551257D01*
X98296409Y-80503638D01*
X98534504Y-80503638D01*
X98629742Y-80551257D01*
X98677361Y-80598876D01*
X98724980Y-80694114D01*
X98724980Y-80979828D01*
X98677361Y-81075066D01*
X98629742Y-81122685D01*
X99105933Y-79027447D02*
X99058314Y-79075066D01*
X98915457Y-79170304D01*
X98820219Y-79217923D01*
X98677361Y-79265542D01*
X98439266Y-79313161D01*
X98248790Y-79313161D01*
X98010695Y-79265542D01*
X97867838Y-79217923D01*
X97772600Y-79170304D01*
X97629742Y-79075066D01*
X97582123Y-79027447D01*
X98153552Y-78503638D02*
X98105933Y-78598876D01*
X98058314Y-78646495D01*
X97963076Y-78694114D01*
X97915457Y-78694114D01*
X97820219Y-78646495D01*
X97772600Y-78598876D01*
X97724980Y-78503638D01*
X97724980Y-78313161D01*
X97772600Y-78217923D01*
X97820219Y-78170304D01*
X97915457Y-78122685D01*
X97963076Y-78122685D01*
X98058314Y-78170304D01*
X98105933Y-78217923D01*
X98153552Y-78313161D01*
X98153552Y-78503638D01*
X98201171Y-78598876D01*
X98248790Y-78646495D01*
X98344028Y-78694114D01*
X98534504Y-78694114D01*
X98629742Y-78646495D01*
X98677361Y-78598876D01*
X98724980Y-78503638D01*
X98724980Y-78313161D01*
X98677361Y-78217923D01*
X98629742Y-78170304D01*
X98534504Y-78122685D01*
X98344028Y-78122685D01*
X98248790Y-78170304D01*
X98201171Y-78217923D01*
X98153552Y-78313161D01*
X97724980Y-77836971D02*
X97724980Y-77265542D01*
X98724980Y-77551257D02*
X97724980Y-77551257D01*
X97677361Y-76217923D02*
X98963076Y-77075066D01*
X97724980Y-75456019D02*
X97724980Y-75646495D01*
X97772600Y-75741733D01*
X97820219Y-75789352D01*
X97963076Y-75884590D01*
X98153552Y-75932209D01*
X98534504Y-75932209D01*
X98629742Y-75884590D01*
X98677361Y-75836971D01*
X98724980Y-75741733D01*
X98724980Y-75551257D01*
X98677361Y-75456019D01*
X98629742Y-75408400D01*
X98534504Y-75360780D01*
X98296409Y-75360780D01*
X98201171Y-75408400D01*
X98153552Y-75456019D01*
X98105933Y-75551257D01*
X98105933Y-75741733D01*
X98153552Y-75836971D01*
X98201171Y-75884590D01*
X98296409Y-75932209D01*
X97724980Y-74741733D02*
X97724980Y-74646495D01*
X97772600Y-74551257D01*
X97820219Y-74503638D01*
X97915457Y-74456019D01*
X98105933Y-74408400D01*
X98344028Y-74408400D01*
X98534504Y-74456019D01*
X98629742Y-74503638D01*
X98677361Y-74551257D01*
X98724980Y-74646495D01*
X98724980Y-74741733D01*
X98677361Y-74836971D01*
X98629742Y-74884590D01*
X98534504Y-74932209D01*
X98344028Y-74979828D01*
X98105933Y-74979828D01*
X97915457Y-74932209D01*
X97820219Y-74884590D01*
X97772600Y-74836971D01*
X97724980Y-74741733D01*
X98058314Y-73551257D02*
X98724980Y-73551257D01*
X98058314Y-73979828D02*
X98582123Y-73979828D01*
X98677361Y-73932209D01*
X98724980Y-73836971D01*
X98724980Y-73694114D01*
X98677361Y-73598876D01*
X98629742Y-73551257D01*
X98724980Y-73075066D02*
X97724980Y-73075066D01*
X98201171Y-73075066D02*
X98201171Y-72503638D01*
X98724980Y-72503638D02*
X97724980Y-72503638D01*
X99105933Y-72122685D02*
X99058314Y-72075066D01*
X98915457Y-71979828D01*
X98820219Y-71932209D01*
X98677361Y-71884590D01*
X98439266Y-71836971D01*
X98248790Y-71836971D01*
X98010695Y-71884590D01*
X97867838Y-71932209D01*
X97772600Y-71979828D01*
X97629742Y-72075066D01*
X97582123Y-72122685D01*
%TO.C,U2*%
X129743803Y-115941325D02*
X130381224Y-115941325D01*
X130456215Y-115903830D01*
X130493710Y-115866334D01*
X130531205Y-115791344D01*
X130531205Y-115641362D01*
X130493710Y-115566372D01*
X130456215Y-115528876D01*
X130381224Y-115491381D01*
X129743803Y-115491381D01*
X129818794Y-115153923D02*
X129781299Y-115116428D01*
X129743803Y-115041437D01*
X129743803Y-114853960D01*
X129781299Y-114778970D01*
X129818794Y-114741474D01*
X129893785Y-114703979D01*
X129968775Y-114703979D01*
X130081261Y-114741474D01*
X130531205Y-115191418D01*
X130531205Y-114703979D01*
X137770205Y-115725426D02*
X137395252Y-115987893D01*
X137770205Y-116175370D02*
X136982803Y-116175370D01*
X136982803Y-115875407D01*
X137020299Y-115800417D01*
X137057794Y-115762921D01*
X137132785Y-115725426D01*
X137245271Y-115725426D01*
X137320261Y-115762921D01*
X137357757Y-115800417D01*
X137395252Y-115875407D01*
X137395252Y-116175370D01*
X137357757Y-115125501D02*
X137357757Y-115387968D01*
X137770205Y-115387968D02*
X136982803Y-115387968D01*
X136982803Y-115013015D01*
X137845196Y-114900529D02*
X137845196Y-114300603D01*
X137770205Y-114113127D02*
X136982803Y-114113127D01*
X137770205Y-113738173D02*
X136982803Y-113738173D01*
X137770205Y-113288229D01*
X136982803Y-113288229D01*
%TO.C,D1*%
X138377704Y-88463380D02*
X138377704Y-87463380D01*
X138615800Y-87463380D01*
X138758657Y-87511000D01*
X138853895Y-87606238D01*
X138901514Y-87701476D01*
X138949133Y-87891952D01*
X138949133Y-88034809D01*
X138901514Y-88225285D01*
X138853895Y-88320523D01*
X138758657Y-88415761D01*
X138615800Y-88463380D01*
X138377704Y-88463380D01*
X139901514Y-88463380D02*
X139330085Y-88463380D01*
X139615800Y-88463380D02*
X139615800Y-87463380D01*
X139520561Y-87606238D01*
X139425323Y-87701476D01*
X139330085Y-87749095D01*
X131692971Y-88463380D02*
X131121542Y-88463380D01*
X131407257Y-88463380D02*
X131407257Y-87463380D01*
X131312019Y-87606238D01*
X131216780Y-87701476D01*
X131121542Y-87749095D01*
X132121542Y-88463380D02*
X132121542Y-87463380D01*
X132692971Y-88463380D01*
X132692971Y-87463380D01*
X133597733Y-87796714D02*
X133597733Y-88463380D01*
X133359638Y-87415761D02*
X133121542Y-88130047D01*
X133740590Y-88130047D01*
X134026304Y-87463380D02*
X134692971Y-87463380D01*
X134264400Y-88463380D01*
X134978685Y-87463380D02*
X135597733Y-87463380D01*
X135264400Y-87844333D01*
X135407257Y-87844333D01*
X135502495Y-87891952D01*
X135550114Y-87939571D01*
X135597733Y-88034809D01*
X135597733Y-88272904D01*
X135550114Y-88368142D01*
X135502495Y-88415761D01*
X135407257Y-88463380D01*
X135121542Y-88463380D01*
X135026304Y-88415761D01*
X134978685Y-88368142D01*
X135931066Y-87463380D02*
X136550114Y-87463380D01*
X136216780Y-87844333D01*
X136359638Y-87844333D01*
X136454876Y-87891952D01*
X136502495Y-87939571D01*
X136550114Y-88034809D01*
X136550114Y-88272904D01*
X136502495Y-88368142D01*
X136454876Y-88415761D01*
X136359638Y-88463380D01*
X136073923Y-88463380D01*
X135978685Y-88415761D01*
X135931066Y-88368142D01*
X136931066Y-88177666D02*
X137407257Y-88177666D01*
X136835828Y-88463380D02*
X137169161Y-87463380D01*
X137502495Y-88463380D01*
%TO.C,U3*%
X129616803Y-38801525D02*
X130254224Y-38801525D01*
X130329215Y-38764030D01*
X130366710Y-38726534D01*
X130404205Y-38651544D01*
X130404205Y-38501562D01*
X130366710Y-38426572D01*
X130329215Y-38389076D01*
X130254224Y-38351581D01*
X129616803Y-38351581D01*
X129616803Y-38051618D02*
X129616803Y-37564179D01*
X129916766Y-37826646D01*
X129916766Y-37714160D01*
X129954261Y-37639170D01*
X129991757Y-37601674D01*
X130066747Y-37564179D01*
X130254224Y-37564179D01*
X130329215Y-37601674D01*
X130366710Y-37639170D01*
X130404205Y-37714160D01*
X130404205Y-37939132D01*
X130366710Y-38014123D01*
X130329215Y-38051618D01*
X137541605Y-39618561D02*
X137166652Y-39881028D01*
X137541605Y-40068505D02*
X136754203Y-40068505D01*
X136754203Y-39768542D01*
X136791699Y-39693551D01*
X136829194Y-39656056D01*
X136904185Y-39618561D01*
X137016671Y-39618561D01*
X137091661Y-39656056D01*
X137129157Y-39693551D01*
X137166652Y-39768542D01*
X137166652Y-40068505D01*
X137129157Y-39018635D02*
X137129157Y-39281103D01*
X137541605Y-39281103D02*
X136754203Y-39281103D01*
X136754203Y-38906149D01*
X137616596Y-38793663D02*
X137616596Y-38193738D01*
X136754203Y-37856280D02*
X136754203Y-37706299D01*
X136791699Y-37631308D01*
X136866689Y-37556317D01*
X137016671Y-37518822D01*
X137279138Y-37518822D01*
X137429119Y-37556317D01*
X137504110Y-37631308D01*
X137541605Y-37706299D01*
X137541605Y-37856280D01*
X137504110Y-37931271D01*
X137429119Y-38006261D01*
X137279138Y-38043757D01*
X137016671Y-38043757D01*
X136866689Y-38006261D01*
X136791699Y-37931271D01*
X136754203Y-37856280D01*
X136754203Y-37181364D02*
X137391624Y-37181364D01*
X137466615Y-37143869D01*
X137504110Y-37106373D01*
X137541605Y-37031383D01*
X137541605Y-36881401D01*
X137504110Y-36806411D01*
X137466615Y-36768915D01*
X137391624Y-36731420D01*
X136754203Y-36731420D01*
X136754203Y-36468953D02*
X136754203Y-36019009D01*
X137541605Y-36243981D02*
X136754203Y-36243981D01*
%TO.C,R1*%
X123388380Y-93994266D02*
X122912190Y-94327600D01*
X123388380Y-94565695D02*
X122388380Y-94565695D01*
X122388380Y-94184742D01*
X122436000Y-94089504D01*
X122483619Y-94041885D01*
X122578857Y-93994266D01*
X122721714Y-93994266D01*
X122816952Y-94041885D01*
X122864571Y-94089504D01*
X122912190Y-94184742D01*
X122912190Y-94565695D01*
X123388380Y-93041885D02*
X123388380Y-93613314D01*
X123388380Y-93327600D02*
X122388380Y-93327600D01*
X122531238Y-93422838D01*
X122626476Y-93518076D01*
X122674095Y-93613314D01*
X122670914Y-99871114D02*
X123337580Y-99871114D01*
X122289961Y-100109209D02*
X123004247Y-100347304D01*
X123004247Y-99728257D01*
X122337580Y-99442542D02*
X122337580Y-98775876D01*
X123337580Y-99204447D01*
X123337580Y-97823495D02*
X122861390Y-98156828D01*
X123337580Y-98394923D02*
X122337580Y-98394923D01*
X122337580Y-98013971D01*
X122385200Y-97918733D01*
X122432819Y-97871114D01*
X122528057Y-97823495D01*
X122670914Y-97823495D01*
X122766152Y-97871114D01*
X122813771Y-97918733D01*
X122861390Y-98013971D01*
X122861390Y-98394923D01*
%TO.C,R2*%
X124988580Y-86577466D02*
X124512390Y-86910800D01*
X124988580Y-87148895D02*
X123988580Y-87148895D01*
X123988580Y-86767942D01*
X124036200Y-86672704D01*
X124083819Y-86625085D01*
X124179057Y-86577466D01*
X124321914Y-86577466D01*
X124417152Y-86625085D01*
X124464771Y-86672704D01*
X124512390Y-86767942D01*
X124512390Y-87148895D01*
X124083819Y-86196514D02*
X124036200Y-86148895D01*
X123988580Y-86053657D01*
X123988580Y-85815561D01*
X124036200Y-85720323D01*
X124083819Y-85672704D01*
X124179057Y-85625085D01*
X124274295Y-85625085D01*
X124417152Y-85672704D01*
X124988580Y-86244133D01*
X124988580Y-85625085D01*
X126385580Y-86726685D02*
X126385580Y-87298114D01*
X126385580Y-87012400D02*
X125385580Y-87012400D01*
X125528438Y-87107638D01*
X125623676Y-87202876D01*
X125671295Y-87298114D01*
X126385580Y-86298114D02*
X125385580Y-86298114D01*
X126385580Y-85726685D02*
X125814152Y-86155257D01*
X125385580Y-85726685D02*
X125957009Y-86298114D01*
%TO.C,Q1*%
X125693419Y-103676438D02*
X125645800Y-103771676D01*
X125550561Y-103866914D01*
X125407704Y-104009771D01*
X125360085Y-104105009D01*
X125360085Y-104200247D01*
X125598180Y-104152628D02*
X125550561Y-104247866D01*
X125455323Y-104343104D01*
X125264847Y-104390723D01*
X124931514Y-104390723D01*
X124741038Y-104343104D01*
X124645800Y-104247866D01*
X124598180Y-104152628D01*
X124598180Y-103962152D01*
X124645800Y-103866914D01*
X124741038Y-103771676D01*
X124931514Y-103724057D01*
X125264847Y-103724057D01*
X125455323Y-103771676D01*
X125550561Y-103866914D01*
X125598180Y-103962152D01*
X125598180Y-104152628D01*
X125598180Y-102771676D02*
X125598180Y-103343104D01*
X125598180Y-103057390D02*
X124598180Y-103057390D01*
X124741038Y-103152628D01*
X124836276Y-103247866D01*
X124883895Y-103343104D01*
X115971866Y-106760971D02*
X116114723Y-106808590D01*
X116162342Y-106856209D01*
X116209961Y-106951447D01*
X116209961Y-107094304D01*
X116162342Y-107189542D01*
X116114723Y-107237161D01*
X116019485Y-107284780D01*
X115638533Y-107284780D01*
X115638533Y-106284780D01*
X115971866Y-106284780D01*
X116067104Y-106332400D01*
X116114723Y-106380019D01*
X116162342Y-106475257D01*
X116162342Y-106570495D01*
X116114723Y-106665733D01*
X116067104Y-106713352D01*
X115971866Y-106760971D01*
X115638533Y-106760971D01*
X116590914Y-107237161D02*
X116733771Y-107284780D01*
X116971866Y-107284780D01*
X117067104Y-107237161D01*
X117114723Y-107189542D01*
X117162342Y-107094304D01*
X117162342Y-106999066D01*
X117114723Y-106903828D01*
X117067104Y-106856209D01*
X116971866Y-106808590D01*
X116781390Y-106760971D01*
X116686152Y-106713352D01*
X116638533Y-106665733D01*
X116590914Y-106570495D01*
X116590914Y-106475257D01*
X116638533Y-106380019D01*
X116686152Y-106332400D01*
X116781390Y-106284780D01*
X117019485Y-106284780D01*
X117162342Y-106332400D01*
X118114723Y-107284780D02*
X117543295Y-107284780D01*
X117829009Y-107284780D02*
X117829009Y-106284780D01*
X117733771Y-106427638D01*
X117638533Y-106522876D01*
X117543295Y-106570495D01*
X118448057Y-106284780D02*
X119114723Y-106284780D01*
X118686152Y-107284780D01*
X119686152Y-106284780D02*
X119781390Y-106284780D01*
X119876628Y-106332400D01*
X119924247Y-106380019D01*
X119971866Y-106475257D01*
X120019485Y-106665733D01*
X120019485Y-106903828D01*
X119971866Y-107094304D01*
X119924247Y-107189542D01*
X119876628Y-107237161D01*
X119781390Y-107284780D01*
X119686152Y-107284780D01*
X119590914Y-107237161D01*
X119543295Y-107189542D01*
X119495676Y-107094304D01*
X119448057Y-106903828D01*
X119448057Y-106665733D01*
X119495676Y-106475257D01*
X119543295Y-106380019D01*
X119590914Y-106332400D01*
X119686152Y-106284780D01*
%TO.C,C17*%
X131583193Y-45499257D02*
X131630812Y-45546876D01*
X131678431Y-45689733D01*
X131678431Y-45784971D01*
X131630812Y-45927828D01*
X131535574Y-46023066D01*
X131440336Y-46070685D01*
X131249860Y-46118304D01*
X131107003Y-46118304D01*
X130916527Y-46070685D01*
X130821289Y-46023066D01*
X130726051Y-45927828D01*
X130678431Y-45784971D01*
X130678431Y-45689733D01*
X130726051Y-45546876D01*
X130773670Y-45499257D01*
X131678431Y-44546876D02*
X131678431Y-45118304D01*
X131678431Y-44832590D02*
X130678431Y-44832590D01*
X130821289Y-44927828D01*
X130916527Y-45023066D01*
X130964146Y-45118304D01*
X130678431Y-44213542D02*
X130678431Y-43546876D01*
X131678431Y-43975447D01*
X133354831Y-44184866D02*
X133354831Y-44756295D01*
X133354831Y-44470580D02*
X132354831Y-44470580D01*
X132497689Y-44565819D01*
X132592927Y-44661057D01*
X132640546Y-44756295D01*
X132688165Y-43327723D02*
X133354831Y-43327723D01*
X132688165Y-43756295D02*
X133211974Y-43756295D01*
X133307212Y-43708676D01*
X133354831Y-43613438D01*
X133354831Y-43470580D01*
X133307212Y-43375342D01*
X133259593Y-43327723D01*
%TO.C,J1*%
X115835180Y-118138533D02*
X116549466Y-118138533D01*
X116692323Y-118186152D01*
X116787561Y-118281390D01*
X116835180Y-118424247D01*
X116835180Y-118519485D01*
X116835180Y-117138533D02*
X116835180Y-117709961D01*
X116835180Y-117424247D02*
X115835180Y-117424247D01*
X115978038Y-117519485D01*
X116073276Y-117614723D01*
X116120895Y-117709961D01*
X127147580Y-119346504D02*
X126671390Y-119679838D01*
X127147580Y-119917933D02*
X126147580Y-119917933D01*
X126147580Y-119536980D01*
X126195200Y-119441742D01*
X126242819Y-119394123D01*
X126338057Y-119346504D01*
X126480914Y-119346504D01*
X126576152Y-119394123D01*
X126623771Y-119441742D01*
X126671390Y-119536980D01*
X126671390Y-119917933D01*
X126623771Y-118584600D02*
X126623771Y-118917933D01*
X127147580Y-118917933D02*
X126147580Y-118917933D01*
X126147580Y-118441742D01*
X127242819Y-118298885D02*
X127242819Y-117536980D01*
X127147580Y-117298885D02*
X126147580Y-117298885D01*
X127147580Y-116822695D02*
X126147580Y-116822695D01*
X127147580Y-116251266D01*
X126147580Y-116251266D01*
%TO.C,C8*%
X101504142Y-93283066D02*
X101551761Y-93330685D01*
X101599380Y-93473542D01*
X101599380Y-93568780D01*
X101551761Y-93711638D01*
X101456523Y-93806876D01*
X101361285Y-93854495D01*
X101170809Y-93902114D01*
X101027952Y-93902114D01*
X100837476Y-93854495D01*
X100742238Y-93806876D01*
X100647000Y-93711638D01*
X100599380Y-93568780D01*
X100599380Y-93473542D01*
X100647000Y-93330685D01*
X100694619Y-93283066D01*
X101027952Y-92711638D02*
X100980333Y-92806876D01*
X100932714Y-92854495D01*
X100837476Y-92902114D01*
X100789857Y-92902114D01*
X100694619Y-92854495D01*
X100647000Y-92806876D01*
X100599380Y-92711638D01*
X100599380Y-92521161D01*
X100647000Y-92425923D01*
X100694619Y-92378304D01*
X100789857Y-92330685D01*
X100837476Y-92330685D01*
X100932714Y-92378304D01*
X100980333Y-92425923D01*
X101027952Y-92521161D01*
X101027952Y-92711638D01*
X101075571Y-92806876D01*
X101123190Y-92854495D01*
X101218428Y-92902114D01*
X101408904Y-92902114D01*
X101504142Y-92854495D01*
X101551761Y-92806876D01*
X101599380Y-92711638D01*
X101599380Y-92521161D01*
X101551761Y-92425923D01*
X101504142Y-92378304D01*
X101408904Y-92330685D01*
X101218428Y-92330685D01*
X101123190Y-92378304D01*
X101075571Y-92425923D01*
X101027952Y-92521161D01*
X105989380Y-94057647D02*
X105989380Y-94629076D01*
X105989380Y-94343361D02*
X104989380Y-94343361D01*
X105132238Y-94438600D01*
X105227476Y-94533838D01*
X105275095Y-94629076D01*
X104989380Y-93438600D02*
X104989380Y-93343361D01*
X105037000Y-93248123D01*
X105084619Y-93200504D01*
X105179857Y-93152885D01*
X105370333Y-93105266D01*
X105608428Y-93105266D01*
X105798904Y-93152885D01*
X105894142Y-93200504D01*
X105941761Y-93248123D01*
X105989380Y-93343361D01*
X105989380Y-93438600D01*
X105941761Y-93533838D01*
X105894142Y-93581457D01*
X105798904Y-93629076D01*
X105608428Y-93676695D01*
X105370333Y-93676695D01*
X105179857Y-93629076D01*
X105084619Y-93581457D01*
X105037000Y-93533838D01*
X104989380Y-93438600D01*
X104989380Y-92486219D02*
X104989380Y-92390980D01*
X105037000Y-92295742D01*
X105084619Y-92248123D01*
X105179857Y-92200504D01*
X105370333Y-92152885D01*
X105608428Y-92152885D01*
X105798904Y-92200504D01*
X105894142Y-92248123D01*
X105941761Y-92295742D01*
X105989380Y-92390980D01*
X105989380Y-92486219D01*
X105941761Y-92581457D01*
X105894142Y-92629076D01*
X105798904Y-92676695D01*
X105608428Y-92724314D01*
X105370333Y-92724314D01*
X105179857Y-92676695D01*
X105084619Y-92629076D01*
X105037000Y-92581457D01*
X104989380Y-92486219D01*
X105322714Y-91724314D02*
X105989380Y-91724314D01*
X105417952Y-91724314D02*
X105370333Y-91676695D01*
X105322714Y-91581457D01*
X105322714Y-91438600D01*
X105370333Y-91343361D01*
X105465571Y-91295742D01*
X105989380Y-91295742D01*
%TO.C,C13*%
X107976942Y-116162057D02*
X108024561Y-116209676D01*
X108072180Y-116352533D01*
X108072180Y-116447771D01*
X108024561Y-116590628D01*
X107929323Y-116685866D01*
X107834085Y-116733485D01*
X107643609Y-116781104D01*
X107500752Y-116781104D01*
X107310276Y-116733485D01*
X107215038Y-116685866D01*
X107119800Y-116590628D01*
X107072180Y-116447771D01*
X107072180Y-116352533D01*
X107119800Y-116209676D01*
X107167419Y-116162057D01*
X108072180Y-115209676D02*
X108072180Y-115781104D01*
X108072180Y-115495390D02*
X107072180Y-115495390D01*
X107215038Y-115590628D01*
X107310276Y-115685866D01*
X107357895Y-115781104D01*
X107072180Y-114876342D02*
X107072180Y-114257295D01*
X107453133Y-114590628D01*
X107453133Y-114447771D01*
X107500752Y-114352533D01*
X107548371Y-114304914D01*
X107643609Y-114257295D01*
X107881704Y-114257295D01*
X107976942Y-114304914D01*
X108024561Y-114352533D01*
X108072180Y-114447771D01*
X108072180Y-114733485D01*
X108024561Y-114828723D01*
X107976942Y-114876342D01*
X114396780Y-115546047D02*
X114396780Y-116117476D01*
X114396780Y-115831761D02*
X113396780Y-115831761D01*
X113539638Y-115927000D01*
X113634876Y-116022238D01*
X113682495Y-116117476D01*
X113396780Y-114927000D02*
X113396780Y-114831761D01*
X113444400Y-114736523D01*
X113492019Y-114688904D01*
X113587257Y-114641285D01*
X113777733Y-114593666D01*
X114015828Y-114593666D01*
X114206304Y-114641285D01*
X114301542Y-114688904D01*
X114349161Y-114736523D01*
X114396780Y-114831761D01*
X114396780Y-114927000D01*
X114349161Y-115022238D01*
X114301542Y-115069857D01*
X114206304Y-115117476D01*
X114015828Y-115165095D01*
X113777733Y-115165095D01*
X113587257Y-115117476D01*
X113492019Y-115069857D01*
X113444400Y-115022238D01*
X113396780Y-114927000D01*
X113396780Y-113974619D02*
X113396780Y-113879380D01*
X113444400Y-113784142D01*
X113492019Y-113736523D01*
X113587257Y-113688904D01*
X113777733Y-113641285D01*
X114015828Y-113641285D01*
X114206304Y-113688904D01*
X114301542Y-113736523D01*
X114349161Y-113784142D01*
X114396780Y-113879380D01*
X114396780Y-113974619D01*
X114349161Y-114069857D01*
X114301542Y-114117476D01*
X114206304Y-114165095D01*
X114015828Y-114212714D01*
X113777733Y-114212714D01*
X113587257Y-114165095D01*
X113492019Y-114117476D01*
X113444400Y-114069857D01*
X113396780Y-113974619D01*
X113730114Y-113212714D02*
X114396780Y-113212714D01*
X113825352Y-113212714D02*
X113777733Y-113165095D01*
X113730114Y-113069857D01*
X113730114Y-112927000D01*
X113777733Y-112831761D01*
X113872971Y-112784142D01*
X114396780Y-112784142D01*
%TO.C,L1*%
X87548980Y-113780866D02*
X87548980Y-114257057D01*
X86548980Y-114257057D01*
X87548980Y-112923723D02*
X87548980Y-113495152D01*
X87548980Y-113209438D02*
X86548980Y-113209438D01*
X86691838Y-113304676D01*
X86787076Y-113399914D01*
X86834695Y-113495152D01*
X85838671Y-110996095D02*
X85838671Y-111329428D01*
X86362480Y-111329428D02*
X85362480Y-111329428D01*
X85362480Y-110853238D01*
X85362480Y-110615142D02*
X85362480Y-110043714D01*
X86362480Y-110329428D02*
X85362480Y-110329428D01*
X85981528Y-109710380D02*
X85981528Y-108948476D01*
X85362480Y-108567523D02*
X85362480Y-107948476D01*
X85743433Y-108281809D01*
X85743433Y-108138952D01*
X85791052Y-108043714D01*
X85838671Y-107996095D01*
X85933909Y-107948476D01*
X86172004Y-107948476D01*
X86267242Y-107996095D01*
X86314861Y-108043714D01*
X86362480Y-108138952D01*
X86362480Y-108424666D01*
X86314861Y-108519904D01*
X86267242Y-108567523D01*
X85362480Y-107615142D02*
X85362480Y-106948476D01*
X86362480Y-107377047D01*
X85981528Y-106567523D02*
X85981528Y-105805619D01*
X85695814Y-104900857D02*
X86362480Y-104900857D01*
X85314861Y-105138952D02*
X86029147Y-105377047D01*
X86029147Y-104758000D01*
X85362480Y-104472285D02*
X85362480Y-103853238D01*
X85743433Y-104186571D01*
X85743433Y-104043714D01*
X85791052Y-103948476D01*
X85838671Y-103900857D01*
X85933909Y-103853238D01*
X86172004Y-103853238D01*
X86267242Y-103900857D01*
X86314861Y-103948476D01*
X86362480Y-104043714D01*
X86362480Y-104329428D01*
X86314861Y-104424666D01*
X86267242Y-104472285D01*
X86743433Y-102377047D02*
X86695814Y-102424666D01*
X86552957Y-102519904D01*
X86457719Y-102567523D01*
X86314861Y-102615142D01*
X86076766Y-102662761D01*
X85886290Y-102662761D01*
X85648195Y-102615142D01*
X85505338Y-102567523D01*
X85410100Y-102519904D01*
X85267242Y-102424666D01*
X85219623Y-102377047D01*
X85791052Y-101853238D02*
X85743433Y-101948476D01*
X85695814Y-101996095D01*
X85600576Y-102043714D01*
X85552957Y-102043714D01*
X85457719Y-101996095D01*
X85410100Y-101948476D01*
X85362480Y-101853238D01*
X85362480Y-101662761D01*
X85410100Y-101567523D01*
X85457719Y-101519904D01*
X85552957Y-101472285D01*
X85600576Y-101472285D01*
X85695814Y-101519904D01*
X85743433Y-101567523D01*
X85791052Y-101662761D01*
X85791052Y-101853238D01*
X85838671Y-101948476D01*
X85886290Y-101996095D01*
X85981528Y-102043714D01*
X86172004Y-102043714D01*
X86267242Y-101996095D01*
X86314861Y-101948476D01*
X86362480Y-101853238D01*
X86362480Y-101662761D01*
X86314861Y-101567523D01*
X86267242Y-101519904D01*
X86172004Y-101472285D01*
X85981528Y-101472285D01*
X85886290Y-101519904D01*
X85838671Y-101567523D01*
X85791052Y-101662761D01*
X85362480Y-101186571D02*
X85362480Y-100615142D01*
X86362480Y-100900857D02*
X85362480Y-100900857D01*
X85314861Y-99567523D02*
X86600576Y-100424666D01*
X85362480Y-98805619D02*
X85362480Y-98996095D01*
X85410100Y-99091333D01*
X85457719Y-99138952D01*
X85600576Y-99234190D01*
X85791052Y-99281809D01*
X86172004Y-99281809D01*
X86267242Y-99234190D01*
X86314861Y-99186571D01*
X86362480Y-99091333D01*
X86362480Y-98900857D01*
X86314861Y-98805619D01*
X86267242Y-98758000D01*
X86172004Y-98710380D01*
X85933909Y-98710380D01*
X85838671Y-98758000D01*
X85791052Y-98805619D01*
X85743433Y-98900857D01*
X85743433Y-99091333D01*
X85791052Y-99186571D01*
X85838671Y-99234190D01*
X85933909Y-99281809D01*
X85362480Y-98091333D02*
X85362480Y-97996095D01*
X85410100Y-97900857D01*
X85457719Y-97853238D01*
X85552957Y-97805619D01*
X85743433Y-97758000D01*
X85981528Y-97758000D01*
X86172004Y-97805619D01*
X86267242Y-97853238D01*
X86314861Y-97900857D01*
X86362480Y-97996095D01*
X86362480Y-98091333D01*
X86314861Y-98186571D01*
X86267242Y-98234190D01*
X86172004Y-98281809D01*
X85981528Y-98329428D01*
X85743433Y-98329428D01*
X85552957Y-98281809D01*
X85457719Y-98234190D01*
X85410100Y-98186571D01*
X85362480Y-98091333D01*
X85695814Y-96900857D02*
X86362480Y-96900857D01*
X85695814Y-97329428D02*
X86219623Y-97329428D01*
X86314861Y-97281809D01*
X86362480Y-97186571D01*
X86362480Y-97043714D01*
X86314861Y-96948476D01*
X86267242Y-96900857D01*
X86362480Y-96424666D02*
X85362480Y-96424666D01*
X85838671Y-96424666D02*
X85838671Y-95853238D01*
X86362480Y-95853238D02*
X85362480Y-95853238D01*
X86743433Y-95472285D02*
X86695814Y-95424666D01*
X86552957Y-95329428D01*
X86457719Y-95281809D01*
X86314861Y-95234190D01*
X86076766Y-95186571D01*
X85886290Y-95186571D01*
X85648195Y-95234190D01*
X85505338Y-95281809D01*
X85410100Y-95329428D01*
X85267242Y-95424666D01*
X85219623Y-95472285D01*
%TO.C,C18*%
X111244142Y-36988142D02*
X111196523Y-37035761D01*
X111053666Y-37083380D01*
X110958428Y-37083380D01*
X110815571Y-37035761D01*
X110720333Y-36940523D01*
X110672714Y-36845285D01*
X110625095Y-36654809D01*
X110625095Y-36511952D01*
X110672714Y-36321476D01*
X110720333Y-36226238D01*
X110815571Y-36131000D01*
X110958428Y-36083380D01*
X111053666Y-36083380D01*
X111196523Y-36131000D01*
X111244142Y-36178619D01*
X112196523Y-37083380D02*
X111625095Y-37083380D01*
X111910809Y-37083380D02*
X111910809Y-36083380D01*
X111815571Y-36226238D01*
X111720333Y-36321476D01*
X111625095Y-36369095D01*
X112767952Y-36511952D02*
X112672714Y-36464333D01*
X112625095Y-36416714D01*
X112577476Y-36321476D01*
X112577476Y-36273857D01*
X112625095Y-36178619D01*
X112672714Y-36131000D01*
X112767952Y-36083380D01*
X112958428Y-36083380D01*
X113053666Y-36131000D01*
X113101285Y-36178619D01*
X113148904Y-36273857D01*
X113148904Y-36321476D01*
X113101285Y-36416714D01*
X113053666Y-36464333D01*
X112958428Y-36511952D01*
X112767952Y-36511952D01*
X112672714Y-36559571D01*
X112625095Y-36607190D01*
X112577476Y-36702428D01*
X112577476Y-36892904D01*
X112625095Y-36988142D01*
X112672714Y-37035761D01*
X112767952Y-37083380D01*
X112958428Y-37083380D01*
X113053666Y-37035761D01*
X113101285Y-36988142D01*
X113148904Y-36892904D01*
X113148904Y-36702428D01*
X113101285Y-36607190D01*
X113053666Y-36559571D01*
X112958428Y-36511952D01*
X110767952Y-40783380D02*
X110196523Y-40783380D01*
X110482238Y-40783380D02*
X110482238Y-39783380D01*
X110387000Y-39926238D01*
X110291761Y-40021476D01*
X110196523Y-40069095D01*
X111387000Y-39783380D02*
X111482238Y-39783380D01*
X111577476Y-39831000D01*
X111625095Y-39878619D01*
X111672714Y-39973857D01*
X111720333Y-40164333D01*
X111720333Y-40402428D01*
X111672714Y-40592904D01*
X111625095Y-40688142D01*
X111577476Y-40735761D01*
X111482238Y-40783380D01*
X111387000Y-40783380D01*
X111291761Y-40735761D01*
X111244142Y-40688142D01*
X111196523Y-40592904D01*
X111148904Y-40402428D01*
X111148904Y-40164333D01*
X111196523Y-39973857D01*
X111244142Y-39878619D01*
X111291761Y-39831000D01*
X111387000Y-39783380D01*
X112339380Y-39783380D02*
X112434619Y-39783380D01*
X112529857Y-39831000D01*
X112577476Y-39878619D01*
X112625095Y-39973857D01*
X112672714Y-40164333D01*
X112672714Y-40402428D01*
X112625095Y-40592904D01*
X112577476Y-40688142D01*
X112529857Y-40735761D01*
X112434619Y-40783380D01*
X112339380Y-40783380D01*
X112244142Y-40735761D01*
X112196523Y-40688142D01*
X112148904Y-40592904D01*
X112101285Y-40402428D01*
X112101285Y-40164333D01*
X112148904Y-39973857D01*
X112196523Y-39878619D01*
X112244142Y-39831000D01*
X112339380Y-39783380D01*
X113101285Y-40116714D02*
X113101285Y-40783380D01*
X113101285Y-40211952D02*
X113148904Y-40164333D01*
X113244142Y-40116714D01*
X113387000Y-40116714D01*
X113482238Y-40164333D01*
X113529857Y-40259571D01*
X113529857Y-40783380D01*
%TO.C,D4*%
X82367380Y-69140295D02*
X81367380Y-69140295D01*
X81367380Y-68902200D01*
X81415000Y-68759342D01*
X81510238Y-68664104D01*
X81605476Y-68616485D01*
X81795952Y-68568866D01*
X81938809Y-68568866D01*
X82129285Y-68616485D01*
X82224523Y-68664104D01*
X82319761Y-68759342D01*
X82367380Y-68902200D01*
X82367380Y-69140295D01*
X81700714Y-67711723D02*
X82367380Y-67711723D01*
X81319761Y-67949819D02*
X82034047Y-68187914D01*
X82034047Y-67568866D01*
X82443580Y-76461857D02*
X82443580Y-76938047D01*
X81443580Y-76938047D01*
X81919771Y-76128523D02*
X81919771Y-75795190D01*
X82443580Y-75652333D02*
X82443580Y-76128523D01*
X81443580Y-76128523D01*
X81443580Y-75652333D01*
X82443580Y-75223761D02*
X81443580Y-75223761D01*
X81443580Y-74985666D01*
X81491200Y-74842809D01*
X81586438Y-74747571D01*
X81681676Y-74699952D01*
X81872152Y-74652333D01*
X82015009Y-74652333D01*
X82205485Y-74699952D01*
X82300723Y-74747571D01*
X82395961Y-74842809D01*
X82443580Y-74985666D01*
X82443580Y-75223761D01*
%TO.C,C2*%
X118654533Y-111685342D02*
X118606914Y-111732961D01*
X118464057Y-111780580D01*
X118368819Y-111780580D01*
X118225961Y-111732961D01*
X118130723Y-111637723D01*
X118083104Y-111542485D01*
X118035485Y-111352009D01*
X118035485Y-111209152D01*
X118083104Y-111018676D01*
X118130723Y-110923438D01*
X118225961Y-110828200D01*
X118368819Y-110780580D01*
X118464057Y-110780580D01*
X118606914Y-110828200D01*
X118654533Y-110875819D01*
X119035485Y-110875819D02*
X119083104Y-110828200D01*
X119178342Y-110780580D01*
X119416438Y-110780580D01*
X119511676Y-110828200D01*
X119559295Y-110875819D01*
X119606914Y-110971057D01*
X119606914Y-111066295D01*
X119559295Y-111209152D01*
X118987866Y-111780580D01*
X119606914Y-111780580D01*
X116965552Y-110281980D02*
X116394123Y-110281980D01*
X116679838Y-110281980D02*
X116679838Y-109281980D01*
X116584600Y-109424838D01*
X116489361Y-109520076D01*
X116394123Y-109567695D01*
X117584600Y-109281980D02*
X117679838Y-109281980D01*
X117775076Y-109329600D01*
X117822695Y-109377219D01*
X117870314Y-109472457D01*
X117917933Y-109662933D01*
X117917933Y-109901028D01*
X117870314Y-110091504D01*
X117822695Y-110186742D01*
X117775076Y-110234361D01*
X117679838Y-110281980D01*
X117584600Y-110281980D01*
X117489361Y-110234361D01*
X117441742Y-110186742D01*
X117394123Y-110091504D01*
X117346504Y-109901028D01*
X117346504Y-109662933D01*
X117394123Y-109472457D01*
X117441742Y-109377219D01*
X117489361Y-109329600D01*
X117584600Y-109281980D01*
X118536980Y-109281980D02*
X118632219Y-109281980D01*
X118727457Y-109329600D01*
X118775076Y-109377219D01*
X118822695Y-109472457D01*
X118870314Y-109662933D01*
X118870314Y-109901028D01*
X118822695Y-110091504D01*
X118775076Y-110186742D01*
X118727457Y-110234361D01*
X118632219Y-110281980D01*
X118536980Y-110281980D01*
X118441742Y-110234361D01*
X118394123Y-110186742D01*
X118346504Y-110091504D01*
X118298885Y-109901028D01*
X118298885Y-109662933D01*
X118346504Y-109472457D01*
X118394123Y-109377219D01*
X118441742Y-109329600D01*
X118536980Y-109281980D01*
X119298885Y-109615314D02*
X119298885Y-110281980D01*
X119298885Y-109710552D02*
X119346504Y-109662933D01*
X119441742Y-109615314D01*
X119584600Y-109615314D01*
X119679838Y-109662933D01*
X119727457Y-109758171D01*
X119727457Y-110281980D01*
%TO.C,TP1*%
X120508780Y-86859904D02*
X120508780Y-86288476D01*
X121508780Y-86574190D02*
X120508780Y-86574190D01*
X121508780Y-85955142D02*
X120508780Y-85955142D01*
X120508780Y-85574190D01*
X120556400Y-85478952D01*
X120604019Y-85431333D01*
X120699257Y-85383714D01*
X120842114Y-85383714D01*
X120937352Y-85431333D01*
X120984971Y-85478952D01*
X121032590Y-85574190D01*
X121032590Y-85955142D01*
X121508780Y-84431333D02*
X121508780Y-85002761D01*
X121508780Y-84717047D02*
X120508780Y-84717047D01*
X120651638Y-84812285D01*
X120746876Y-84907523D01*
X120794495Y-85002761D01*
%TO.C,C6*%
X131014742Y-72582066D02*
X131062361Y-72629685D01*
X131109980Y-72772542D01*
X131109980Y-72867780D01*
X131062361Y-73010638D01*
X130967123Y-73105876D01*
X130871885Y-73153495D01*
X130681409Y-73201114D01*
X130538552Y-73201114D01*
X130348076Y-73153495D01*
X130252838Y-73105876D01*
X130157600Y-73010638D01*
X130109980Y-72867780D01*
X130109980Y-72772542D01*
X130157600Y-72629685D01*
X130205219Y-72582066D01*
X130109980Y-71724923D02*
X130109980Y-71915400D01*
X130157600Y-72010638D01*
X130205219Y-72058257D01*
X130348076Y-72153495D01*
X130538552Y-72201114D01*
X130919504Y-72201114D01*
X131014742Y-72153495D01*
X131062361Y-72105876D01*
X131109980Y-72010638D01*
X131109980Y-71820161D01*
X131062361Y-71724923D01*
X131014742Y-71677304D01*
X130919504Y-71629685D01*
X130681409Y-71629685D01*
X130586171Y-71677304D01*
X130538552Y-71724923D01*
X130490933Y-71820161D01*
X130490933Y-72010638D01*
X130538552Y-72105876D01*
X130586171Y-72153495D01*
X130681409Y-72201114D01*
X132786380Y-71820066D02*
X132786380Y-72391495D01*
X132786380Y-72105780D02*
X131786380Y-72105780D01*
X131929238Y-72201019D01*
X132024476Y-72296257D01*
X132072095Y-72391495D01*
X132119714Y-70962923D02*
X132786380Y-70962923D01*
X132119714Y-71391495D02*
X132643523Y-71391495D01*
X132738761Y-71343876D01*
X132786380Y-71248638D01*
X132786380Y-71105780D01*
X132738761Y-71010542D01*
X132691142Y-70962923D01*
%TO.C,C4*%
X126087142Y-78881266D02*
X126134761Y-78928885D01*
X126182380Y-79071742D01*
X126182380Y-79166980D01*
X126134761Y-79309838D01*
X126039523Y-79405076D01*
X125944285Y-79452695D01*
X125753809Y-79500314D01*
X125610952Y-79500314D01*
X125420476Y-79452695D01*
X125325238Y-79405076D01*
X125230000Y-79309838D01*
X125182380Y-79166980D01*
X125182380Y-79071742D01*
X125230000Y-78928885D01*
X125277619Y-78881266D01*
X125515714Y-78024123D02*
X126182380Y-78024123D01*
X125134761Y-78262219D02*
X125849047Y-78500314D01*
X125849047Y-77881266D01*
X124632980Y-81967247D02*
X124632980Y-82538676D01*
X124632980Y-82252961D02*
X123632980Y-82252961D01*
X123775838Y-82348200D01*
X123871076Y-82443438D01*
X123918695Y-82538676D01*
X123632980Y-81348200D02*
X123632980Y-81252961D01*
X123680600Y-81157723D01*
X123728219Y-81110104D01*
X123823457Y-81062485D01*
X124013933Y-81014866D01*
X124252028Y-81014866D01*
X124442504Y-81062485D01*
X124537742Y-81110104D01*
X124585361Y-81157723D01*
X124632980Y-81252961D01*
X124632980Y-81348200D01*
X124585361Y-81443438D01*
X124537742Y-81491057D01*
X124442504Y-81538676D01*
X124252028Y-81586295D01*
X124013933Y-81586295D01*
X123823457Y-81538676D01*
X123728219Y-81491057D01*
X123680600Y-81443438D01*
X123632980Y-81348200D01*
X123632980Y-80395819D02*
X123632980Y-80300580D01*
X123680600Y-80205342D01*
X123728219Y-80157723D01*
X123823457Y-80110104D01*
X124013933Y-80062485D01*
X124252028Y-80062485D01*
X124442504Y-80110104D01*
X124537742Y-80157723D01*
X124585361Y-80205342D01*
X124632980Y-80300580D01*
X124632980Y-80395819D01*
X124585361Y-80491057D01*
X124537742Y-80538676D01*
X124442504Y-80586295D01*
X124252028Y-80633914D01*
X124013933Y-80633914D01*
X123823457Y-80586295D01*
X123728219Y-80538676D01*
X123680600Y-80491057D01*
X123632980Y-80395819D01*
X123966314Y-79633914D02*
X124632980Y-79633914D01*
X124061552Y-79633914D02*
X124013933Y-79586295D01*
X123966314Y-79491057D01*
X123966314Y-79348200D01*
X124013933Y-79252961D01*
X124109171Y-79205342D01*
X124632980Y-79205342D01*
%TO.C,C19*%
X90501742Y-51442857D02*
X90549361Y-51490476D01*
X90596980Y-51633333D01*
X90596980Y-51728571D01*
X90549361Y-51871428D01*
X90454123Y-51966666D01*
X90358885Y-52014285D01*
X90168409Y-52061904D01*
X90025552Y-52061904D01*
X89835076Y-52014285D01*
X89739838Y-51966666D01*
X89644600Y-51871428D01*
X89596980Y-51728571D01*
X89596980Y-51633333D01*
X89644600Y-51490476D01*
X89692219Y-51442857D01*
X90596980Y-50490476D02*
X90596980Y-51061904D01*
X90596980Y-50776190D02*
X89596980Y-50776190D01*
X89739838Y-50871428D01*
X89835076Y-50966666D01*
X89882695Y-51061904D01*
X90596980Y-50014285D02*
X90596980Y-49823809D01*
X90549361Y-49728571D01*
X90501742Y-49680952D01*
X90358885Y-49585714D01*
X90168409Y-49538095D01*
X89787457Y-49538095D01*
X89692219Y-49585714D01*
X89644600Y-49633333D01*
X89596980Y-49728571D01*
X89596980Y-49919047D01*
X89644600Y-50014285D01*
X89692219Y-50061904D01*
X89787457Y-50109523D01*
X90025552Y-50109523D01*
X90120790Y-50061904D01*
X90168409Y-50014285D01*
X90216028Y-49919047D01*
X90216028Y-49728571D01*
X90168409Y-49633333D01*
X90120790Y-49585714D01*
X90025552Y-49538095D01*
X97353380Y-52554047D02*
X97353380Y-53125476D01*
X97353380Y-52839761D02*
X96353380Y-52839761D01*
X96496238Y-52935000D01*
X96591476Y-53030238D01*
X96639095Y-53125476D01*
X96353380Y-51935000D02*
X96353380Y-51839761D01*
X96401000Y-51744523D01*
X96448619Y-51696904D01*
X96543857Y-51649285D01*
X96734333Y-51601666D01*
X96972428Y-51601666D01*
X97162904Y-51649285D01*
X97258142Y-51696904D01*
X97305761Y-51744523D01*
X97353380Y-51839761D01*
X97353380Y-51935000D01*
X97305761Y-52030238D01*
X97258142Y-52077857D01*
X97162904Y-52125476D01*
X96972428Y-52173095D01*
X96734333Y-52173095D01*
X96543857Y-52125476D01*
X96448619Y-52077857D01*
X96401000Y-52030238D01*
X96353380Y-51935000D01*
X96353380Y-50982619D02*
X96353380Y-50887380D01*
X96401000Y-50792142D01*
X96448619Y-50744523D01*
X96543857Y-50696904D01*
X96734333Y-50649285D01*
X96972428Y-50649285D01*
X97162904Y-50696904D01*
X97258142Y-50744523D01*
X97305761Y-50792142D01*
X97353380Y-50887380D01*
X97353380Y-50982619D01*
X97305761Y-51077857D01*
X97258142Y-51125476D01*
X97162904Y-51173095D01*
X96972428Y-51220714D01*
X96734333Y-51220714D01*
X96543857Y-51173095D01*
X96448619Y-51125476D01*
X96401000Y-51077857D01*
X96353380Y-50982619D01*
X96686714Y-50220714D02*
X97353380Y-50220714D01*
X96781952Y-50220714D02*
X96734333Y-50173095D01*
X96686714Y-50077857D01*
X96686714Y-49935000D01*
X96734333Y-49839761D01*
X96829571Y-49792142D01*
X97353380Y-49792142D01*
%TO.C,Q2*%
X111182161Y-64304419D02*
X111086923Y-64256800D01*
X110991685Y-64161561D01*
X110848828Y-64018704D01*
X110753590Y-63971085D01*
X110658352Y-63971085D01*
X110705971Y-64209180D02*
X110610733Y-64161561D01*
X110515495Y-64066323D01*
X110467876Y-63875847D01*
X110467876Y-63542514D01*
X110515495Y-63352038D01*
X110610733Y-63256800D01*
X110705971Y-63209180D01*
X110896447Y-63209180D01*
X110991685Y-63256800D01*
X111086923Y-63352038D01*
X111134542Y-63542514D01*
X111134542Y-63875847D01*
X111086923Y-64066323D01*
X110991685Y-64161561D01*
X110896447Y-64209180D01*
X110705971Y-64209180D01*
X111515495Y-63304419D02*
X111563114Y-63256800D01*
X111658352Y-63209180D01*
X111896447Y-63209180D01*
X111991685Y-63256800D01*
X112039304Y-63304419D01*
X112086923Y-63399657D01*
X112086923Y-63494895D01*
X112039304Y-63637752D01*
X111467876Y-64209180D01*
X112086923Y-64209180D01*
X110290361Y-57475380D02*
X109957028Y-56999190D01*
X109718933Y-57475380D02*
X109718933Y-56475380D01*
X110099885Y-56475380D01*
X110195123Y-56523000D01*
X110242742Y-56570619D01*
X110290361Y-56665857D01*
X110290361Y-56808714D01*
X110242742Y-56903952D01*
X110195123Y-56951571D01*
X110099885Y-56999190D01*
X109718933Y-56999190D01*
X110718933Y-57475380D02*
X110718933Y-56475380D01*
X110957028Y-56475380D01*
X111099885Y-56523000D01*
X111195123Y-56618238D01*
X111242742Y-56713476D01*
X111290361Y-56903952D01*
X111290361Y-57046809D01*
X111242742Y-57237285D01*
X111195123Y-57332523D01*
X111099885Y-57427761D01*
X110957028Y-57475380D01*
X110718933Y-57475380D01*
X112242742Y-57475380D02*
X111671314Y-57475380D01*
X111957028Y-57475380D02*
X111957028Y-56475380D01*
X111861790Y-56618238D01*
X111766552Y-56713476D01*
X111671314Y-56761095D01*
X113099885Y-56475380D02*
X112909409Y-56475380D01*
X112814171Y-56523000D01*
X112766552Y-56570619D01*
X112671314Y-56713476D01*
X112623695Y-56903952D01*
X112623695Y-57284904D01*
X112671314Y-57380142D01*
X112718933Y-57427761D01*
X112814171Y-57475380D01*
X113004647Y-57475380D01*
X113099885Y-57427761D01*
X113147504Y-57380142D01*
X113195123Y-57284904D01*
X113195123Y-57046809D01*
X113147504Y-56951571D01*
X113099885Y-56903952D01*
X113004647Y-56856333D01*
X112814171Y-56856333D01*
X112718933Y-56903952D01*
X112671314Y-56951571D01*
X112623695Y-57046809D01*
X113623695Y-57475380D02*
X113623695Y-56475380D01*
X113623695Y-56951571D02*
X114195123Y-56951571D01*
X114195123Y-57475380D02*
X114195123Y-56475380D01*
X114671314Y-57475380D02*
X114671314Y-56475380D01*
X114671314Y-56951571D02*
X115242742Y-56951571D01*
X115242742Y-57475380D02*
X115242742Y-56475380D01*
X116052266Y-56951571D02*
X115718933Y-56951571D01*
X115718933Y-57475380D02*
X115718933Y-56475380D01*
X116195123Y-56475380D01*
X117099885Y-57475380D02*
X116528457Y-57475380D01*
X116814171Y-57475380D02*
X116814171Y-56475380D01*
X116718933Y-56618238D01*
X116623695Y-56713476D01*
X116528457Y-56761095D01*
%TO.C,RV2*%
X130093980Y-68032238D02*
X129617790Y-68365571D01*
X130093980Y-68603666D02*
X129093980Y-68603666D01*
X129093980Y-68222714D01*
X129141600Y-68127476D01*
X129189219Y-68079857D01*
X129284457Y-68032238D01*
X129427314Y-68032238D01*
X129522552Y-68079857D01*
X129570171Y-68127476D01*
X129617790Y-68222714D01*
X129617790Y-68603666D01*
X129093980Y-67746523D02*
X130093980Y-67413190D01*
X129093980Y-67079857D01*
X129189219Y-66794142D02*
X129141600Y-66746523D01*
X129093980Y-66651285D01*
X129093980Y-66413190D01*
X129141600Y-66317952D01*
X129189219Y-66270333D01*
X129284457Y-66222714D01*
X129379695Y-66222714D01*
X129522552Y-66270333D01*
X130093980Y-66841761D01*
X130093980Y-66222714D01*
X128290580Y-68051276D02*
X128290580Y-68622704D01*
X128290580Y-68336990D02*
X127290580Y-68336990D01*
X127433438Y-68432228D01*
X127528676Y-68527466D01*
X127576295Y-68622704D01*
X127290580Y-67432228D02*
X127290580Y-67336990D01*
X127338200Y-67241752D01*
X127385819Y-67194133D01*
X127481057Y-67146514D01*
X127671533Y-67098895D01*
X127909628Y-67098895D01*
X128100104Y-67146514D01*
X128195342Y-67194133D01*
X128242961Y-67241752D01*
X128290580Y-67336990D01*
X128290580Y-67432228D01*
X128242961Y-67527466D01*
X128195342Y-67575085D01*
X128100104Y-67622704D01*
X127909628Y-67670323D01*
X127671533Y-67670323D01*
X127481057Y-67622704D01*
X127385819Y-67575085D01*
X127338200Y-67527466D01*
X127290580Y-67432228D01*
X128290580Y-66670323D02*
X127290580Y-66670323D01*
X128290580Y-66098895D02*
X127719152Y-66527466D01*
X127290580Y-66098895D02*
X127862009Y-66670323D01*
%TO.C,C9*%
X111280742Y-120562666D02*
X111328361Y-120610285D01*
X111375980Y-120753142D01*
X111375980Y-120848380D01*
X111328361Y-120991238D01*
X111233123Y-121086476D01*
X111137885Y-121134095D01*
X110947409Y-121181714D01*
X110804552Y-121181714D01*
X110614076Y-121134095D01*
X110518838Y-121086476D01*
X110423600Y-120991238D01*
X110375980Y-120848380D01*
X110375980Y-120753142D01*
X110423600Y-120610285D01*
X110471219Y-120562666D01*
X111375980Y-120086476D02*
X111375980Y-119896000D01*
X111328361Y-119800761D01*
X111280742Y-119753142D01*
X111137885Y-119657904D01*
X110947409Y-119610285D01*
X110566457Y-119610285D01*
X110471219Y-119657904D01*
X110423600Y-119705523D01*
X110375980Y-119800761D01*
X110375980Y-119991238D01*
X110423600Y-120086476D01*
X110471219Y-120134095D01*
X110566457Y-120181714D01*
X110804552Y-120181714D01*
X110899790Y-120134095D01*
X110947409Y-120086476D01*
X110995028Y-119991238D01*
X110995028Y-119800761D01*
X110947409Y-119705523D01*
X110899790Y-119657904D01*
X110804552Y-119610285D01*
X112696780Y-120435666D02*
X112696780Y-121007095D01*
X112696780Y-120721380D02*
X111696780Y-120721380D01*
X111839638Y-120816619D01*
X111934876Y-120911857D01*
X111982495Y-121007095D01*
X112030114Y-119578523D02*
X112696780Y-119578523D01*
X112030114Y-120007095D02*
X112553923Y-120007095D01*
X112649161Y-119959476D01*
X112696780Y-119864238D01*
X112696780Y-119721380D01*
X112649161Y-119626142D01*
X112601542Y-119578523D01*
%TO.C,C14*%
X121505742Y-54967142D02*
X121458123Y-55014761D01*
X121315266Y-55062380D01*
X121220028Y-55062380D01*
X121077171Y-55014761D01*
X120981933Y-54919523D01*
X120934314Y-54824285D01*
X120886695Y-54633809D01*
X120886695Y-54490952D01*
X120934314Y-54300476D01*
X120981933Y-54205238D01*
X121077171Y-54110000D01*
X121220028Y-54062380D01*
X121315266Y-54062380D01*
X121458123Y-54110000D01*
X121505742Y-54157619D01*
X122458123Y-55062380D02*
X121886695Y-55062380D01*
X122172409Y-55062380D02*
X122172409Y-54062380D01*
X122077171Y-54205238D01*
X121981933Y-54300476D01*
X121886695Y-54348095D01*
X123315266Y-54395714D02*
X123315266Y-55062380D01*
X123077171Y-54014761D02*
X122839076Y-54729047D01*
X123458123Y-54729047D01*
X120724752Y-53563780D02*
X120153323Y-53563780D01*
X120439038Y-53563780D02*
X120439038Y-52563780D01*
X120343800Y-52706638D01*
X120248561Y-52801876D01*
X120153323Y-52849495D01*
X121343800Y-52563780D02*
X121439038Y-52563780D01*
X121534276Y-52611400D01*
X121581895Y-52659019D01*
X121629514Y-52754257D01*
X121677133Y-52944733D01*
X121677133Y-53182828D01*
X121629514Y-53373304D01*
X121581895Y-53468542D01*
X121534276Y-53516161D01*
X121439038Y-53563780D01*
X121343800Y-53563780D01*
X121248561Y-53516161D01*
X121200942Y-53468542D01*
X121153323Y-53373304D01*
X121105704Y-53182828D01*
X121105704Y-52944733D01*
X121153323Y-52754257D01*
X121200942Y-52659019D01*
X121248561Y-52611400D01*
X121343800Y-52563780D01*
X122296180Y-52563780D02*
X122391419Y-52563780D01*
X122486657Y-52611400D01*
X122534276Y-52659019D01*
X122581895Y-52754257D01*
X122629514Y-52944733D01*
X122629514Y-53182828D01*
X122581895Y-53373304D01*
X122534276Y-53468542D01*
X122486657Y-53516161D01*
X122391419Y-53563780D01*
X122296180Y-53563780D01*
X122200942Y-53516161D01*
X122153323Y-53468542D01*
X122105704Y-53373304D01*
X122058085Y-53182828D01*
X122058085Y-52944733D01*
X122105704Y-52754257D01*
X122153323Y-52659019D01*
X122200942Y-52611400D01*
X122296180Y-52563780D01*
X123058085Y-52897114D02*
X123058085Y-53563780D01*
X123058085Y-52992352D02*
X123105704Y-52944733D01*
X123200942Y-52897114D01*
X123343800Y-52897114D01*
X123439038Y-52944733D01*
X123486657Y-53039971D01*
X123486657Y-53563780D01*
%TO.C,C15*%
X90247742Y-57030857D02*
X90295361Y-57078476D01*
X90342980Y-57221333D01*
X90342980Y-57316571D01*
X90295361Y-57459428D01*
X90200123Y-57554666D01*
X90104885Y-57602285D01*
X89914409Y-57649904D01*
X89771552Y-57649904D01*
X89581076Y-57602285D01*
X89485838Y-57554666D01*
X89390600Y-57459428D01*
X89342980Y-57316571D01*
X89342980Y-57221333D01*
X89390600Y-57078476D01*
X89438219Y-57030857D01*
X90342980Y-56078476D02*
X90342980Y-56649904D01*
X90342980Y-56364190D02*
X89342980Y-56364190D01*
X89485838Y-56459428D01*
X89581076Y-56554666D01*
X89628695Y-56649904D01*
X89342980Y-55173714D02*
X89342980Y-55649904D01*
X89819171Y-55697523D01*
X89771552Y-55649904D01*
X89723933Y-55554666D01*
X89723933Y-55316571D01*
X89771552Y-55221333D01*
X89819171Y-55173714D01*
X89914409Y-55126095D01*
X90152504Y-55126095D01*
X90247742Y-55173714D01*
X90295361Y-55221333D01*
X90342980Y-55316571D01*
X90342980Y-55554666D01*
X90295361Y-55649904D01*
X90247742Y-55697523D01*
X97175580Y-55767266D02*
X97175580Y-56338695D01*
X97175580Y-56052980D02*
X96175580Y-56052980D01*
X96318438Y-56148219D01*
X96413676Y-56243457D01*
X96461295Y-56338695D01*
X96508914Y-54910123D02*
X97175580Y-54910123D01*
X96508914Y-55338695D02*
X97032723Y-55338695D01*
X97127961Y-55291076D01*
X97175580Y-55195838D01*
X97175580Y-55052980D01*
X97127961Y-54957742D01*
X97080342Y-54910123D01*
%TO.C,J5*%
X93950780Y-122456533D02*
X94665066Y-122456533D01*
X94807923Y-122504152D01*
X94903161Y-122599390D01*
X94950780Y-122742247D01*
X94950780Y-122837485D01*
X93950780Y-121504152D02*
X93950780Y-121980342D01*
X94426971Y-122027961D01*
X94379352Y-121980342D01*
X94331733Y-121885104D01*
X94331733Y-121647009D01*
X94379352Y-121551771D01*
X94426971Y-121504152D01*
X94522209Y-121456533D01*
X94760304Y-121456533D01*
X94855542Y-121504152D01*
X94903161Y-121551771D01*
X94950780Y-121647009D01*
X94950780Y-121885104D01*
X94903161Y-121980342D01*
X94855542Y-122027961D01*
X96025780Y-120637133D02*
X95025780Y-120637133D01*
X95025780Y-120256180D01*
X95073400Y-120160942D01*
X95121019Y-120113323D01*
X95216257Y-120065704D01*
X95359114Y-120065704D01*
X95454352Y-120113323D01*
X95501971Y-120160942D01*
X95549590Y-120256180D01*
X95549590Y-120637133D01*
X95025780Y-119732371D02*
X96025780Y-119494276D01*
X95311495Y-119303800D01*
X96025780Y-119113323D01*
X95025780Y-118875228D01*
X96025780Y-117922847D02*
X95549590Y-118256180D01*
X96025780Y-118494276D02*
X95025780Y-118494276D01*
X95025780Y-118113323D01*
X95073400Y-118018085D01*
X95121019Y-117970466D01*
X95216257Y-117922847D01*
X95359114Y-117922847D01*
X95454352Y-117970466D01*
X95501971Y-118018085D01*
X95549590Y-118113323D01*
X95549590Y-118494276D01*
%TO.C,TP4*%
X109307380Y-74413904D02*
X109307380Y-73842476D01*
X110307380Y-74128190D02*
X109307380Y-74128190D01*
X110307380Y-73509142D02*
X109307380Y-73509142D01*
X109307380Y-73128190D01*
X109355000Y-73032952D01*
X109402619Y-72985333D01*
X109497857Y-72937714D01*
X109640714Y-72937714D01*
X109735952Y-72985333D01*
X109783571Y-73032952D01*
X109831190Y-73128190D01*
X109831190Y-73509142D01*
X109640714Y-72080571D02*
X110307380Y-72080571D01*
X109259761Y-72318666D02*
X109974047Y-72556761D01*
X109974047Y-71937714D01*
%TO.C,R3*%
X105532180Y-71032666D02*
X105055990Y-71366000D01*
X105532180Y-71604095D02*
X104532180Y-71604095D01*
X104532180Y-71223142D01*
X104579800Y-71127904D01*
X104627419Y-71080285D01*
X104722657Y-71032666D01*
X104865514Y-71032666D01*
X104960752Y-71080285D01*
X105008371Y-71127904D01*
X105055990Y-71223142D01*
X105055990Y-71604095D01*
X104532180Y-70699333D02*
X104532180Y-70080285D01*
X104913133Y-70413619D01*
X104913133Y-70270761D01*
X104960752Y-70175523D01*
X105008371Y-70127904D01*
X105103609Y-70080285D01*
X105341704Y-70080285D01*
X105436942Y-70127904D01*
X105484561Y-70175523D01*
X105532180Y-70270761D01*
X105532180Y-70556476D01*
X105484561Y-70651714D01*
X105436942Y-70699333D01*
X103008180Y-71172295D02*
X103008180Y-71648485D01*
X103484371Y-71696104D01*
X103436752Y-71648485D01*
X103389133Y-71553247D01*
X103389133Y-71315152D01*
X103436752Y-71219914D01*
X103484371Y-71172295D01*
X103579609Y-71124676D01*
X103817704Y-71124676D01*
X103912942Y-71172295D01*
X103960561Y-71219914D01*
X104008180Y-71315152D01*
X104008180Y-71553247D01*
X103960561Y-71648485D01*
X103912942Y-71696104D01*
X103008180Y-70267533D02*
X103008180Y-70458009D01*
X103055800Y-70553247D01*
X103103419Y-70600866D01*
X103246276Y-70696104D01*
X103436752Y-70743723D01*
X103817704Y-70743723D01*
X103912942Y-70696104D01*
X103960561Y-70648485D01*
X104008180Y-70553247D01*
X104008180Y-70362771D01*
X103960561Y-70267533D01*
X103912942Y-70219914D01*
X103817704Y-70172295D01*
X103579609Y-70172295D01*
X103484371Y-70219914D01*
X103436752Y-70267533D01*
X103389133Y-70362771D01*
X103389133Y-70553247D01*
X103436752Y-70648485D01*
X103484371Y-70696104D01*
X103579609Y-70743723D01*
X104008180Y-69172295D02*
X103531990Y-69505628D01*
X104008180Y-69743723D02*
X103008180Y-69743723D01*
X103008180Y-69362771D01*
X103055800Y-69267533D01*
X103103419Y-69219914D01*
X103198657Y-69172295D01*
X103341514Y-69172295D01*
X103436752Y-69219914D01*
X103484371Y-69267533D01*
X103531990Y-69362771D01*
X103531990Y-69743723D01*
%TO.C,J6*%
X107910380Y-76609533D02*
X108624666Y-76609533D01*
X108767523Y-76657152D01*
X108862761Y-76752390D01*
X108910380Y-76895247D01*
X108910380Y-76990485D01*
X107910380Y-75704771D02*
X107910380Y-75895247D01*
X107958000Y-75990485D01*
X108005619Y-76038104D01*
X108148476Y-76133342D01*
X108338952Y-76180961D01*
X108719904Y-76180961D01*
X108815142Y-76133342D01*
X108862761Y-76085723D01*
X108910380Y-75990485D01*
X108910380Y-75800009D01*
X108862761Y-75704771D01*
X108815142Y-75657152D01*
X108719904Y-75609533D01*
X108481809Y-75609533D01*
X108386571Y-75657152D01*
X108338952Y-75704771D01*
X108291333Y-75800009D01*
X108291333Y-75990485D01*
X108338952Y-76085723D01*
X108386571Y-76133342D01*
X108481809Y-76180961D01*
%TO.C,C10*%
X121683542Y-72620142D02*
X121635923Y-72667761D01*
X121493066Y-72715380D01*
X121397828Y-72715380D01*
X121254971Y-72667761D01*
X121159733Y-72572523D01*
X121112114Y-72477285D01*
X121064495Y-72286809D01*
X121064495Y-72143952D01*
X121112114Y-71953476D01*
X121159733Y-71858238D01*
X121254971Y-71763000D01*
X121397828Y-71715380D01*
X121493066Y-71715380D01*
X121635923Y-71763000D01*
X121683542Y-71810619D01*
X122635923Y-72715380D02*
X122064495Y-72715380D01*
X122350209Y-72715380D02*
X122350209Y-71715380D01*
X122254971Y-71858238D01*
X122159733Y-71953476D01*
X122064495Y-72001095D01*
X123254971Y-71715380D02*
X123350209Y-71715380D01*
X123445447Y-71763000D01*
X123493066Y-71810619D01*
X123540685Y-71905857D01*
X123588304Y-72096333D01*
X123588304Y-72334428D01*
X123540685Y-72524904D01*
X123493066Y-72620142D01*
X123445447Y-72667761D01*
X123350209Y-72715380D01*
X123254971Y-72715380D01*
X123159733Y-72667761D01*
X123112114Y-72620142D01*
X123064495Y-72524904D01*
X123016876Y-72334428D01*
X123016876Y-72096333D01*
X123064495Y-71905857D01*
X123112114Y-71810619D01*
X123159733Y-71763000D01*
X123254971Y-71715380D01*
X121613752Y-71216780D02*
X121042323Y-71216780D01*
X121328038Y-71216780D02*
X121328038Y-70216780D01*
X121232800Y-70359638D01*
X121137561Y-70454876D01*
X121042323Y-70502495D01*
X122232800Y-70216780D02*
X122328038Y-70216780D01*
X122423276Y-70264400D01*
X122470895Y-70312019D01*
X122518514Y-70407257D01*
X122566133Y-70597733D01*
X122566133Y-70835828D01*
X122518514Y-71026304D01*
X122470895Y-71121542D01*
X122423276Y-71169161D01*
X122328038Y-71216780D01*
X122232800Y-71216780D01*
X122137561Y-71169161D01*
X122089942Y-71121542D01*
X122042323Y-71026304D01*
X121994704Y-70835828D01*
X121994704Y-70597733D01*
X122042323Y-70407257D01*
X122089942Y-70312019D01*
X122137561Y-70264400D01*
X122232800Y-70216780D01*
X123185180Y-70216780D02*
X123280419Y-70216780D01*
X123375657Y-70264400D01*
X123423276Y-70312019D01*
X123470895Y-70407257D01*
X123518514Y-70597733D01*
X123518514Y-70835828D01*
X123470895Y-71026304D01*
X123423276Y-71121542D01*
X123375657Y-71169161D01*
X123280419Y-71216780D01*
X123185180Y-71216780D01*
X123089942Y-71169161D01*
X123042323Y-71121542D01*
X122994704Y-71026304D01*
X122947085Y-70835828D01*
X122947085Y-70597733D01*
X122994704Y-70407257D01*
X123042323Y-70312019D01*
X123089942Y-70264400D01*
X123185180Y-70216780D01*
X123947085Y-70550114D02*
X123947085Y-71216780D01*
X123947085Y-70645352D02*
X123994704Y-70597733D01*
X124089942Y-70550114D01*
X124232800Y-70550114D01*
X124328038Y-70597733D01*
X124375657Y-70692971D01*
X124375657Y-71216780D01*
%TO.C,TP2*%
X116190780Y-50360104D02*
X116190780Y-49788676D01*
X117190780Y-50074390D02*
X116190780Y-50074390D01*
X117190780Y-49455342D02*
X116190780Y-49455342D01*
X116190780Y-49074390D01*
X116238400Y-48979152D01*
X116286019Y-48931533D01*
X116381257Y-48883914D01*
X116524114Y-48883914D01*
X116619352Y-48931533D01*
X116666971Y-48979152D01*
X116714590Y-49074390D01*
X116714590Y-49455342D01*
X116286019Y-48502961D02*
X116238400Y-48455342D01*
X116190780Y-48360104D01*
X116190780Y-48122009D01*
X116238400Y-48026771D01*
X116286019Y-47979152D01*
X116381257Y-47931533D01*
X116476495Y-47931533D01*
X116619352Y-47979152D01*
X117190780Y-48550580D01*
X117190780Y-47931533D01*
%TO.C,D2*%
X137866380Y-57456295D02*
X136866380Y-57456295D01*
X136866380Y-57218200D01*
X136914000Y-57075342D01*
X137009238Y-56980104D01*
X137104476Y-56932485D01*
X137294952Y-56884866D01*
X137437809Y-56884866D01*
X137628285Y-56932485D01*
X137723523Y-56980104D01*
X137818761Y-57075342D01*
X137866380Y-57218200D01*
X137866380Y-57456295D01*
X136961619Y-56503914D02*
X136914000Y-56456295D01*
X136866380Y-56361057D01*
X136866380Y-56122961D01*
X136914000Y-56027723D01*
X136961619Y-55980104D01*
X137056857Y-55932485D01*
X137152095Y-55932485D01*
X137294952Y-55980104D01*
X137866380Y-56551533D01*
X137866380Y-55932485D01*
X137967980Y-67265228D02*
X137967980Y-67836657D01*
X137967980Y-67550942D02*
X136967980Y-67550942D01*
X137110838Y-67646180D01*
X137206076Y-67741419D01*
X137253695Y-67836657D01*
X137967980Y-66836657D02*
X136967980Y-66836657D01*
X137967980Y-66265228D01*
X136967980Y-66265228D01*
X137301314Y-65360466D02*
X137967980Y-65360466D01*
X136920361Y-65598561D02*
X137634647Y-65836657D01*
X137634647Y-65217609D01*
X136967980Y-64931895D02*
X136967980Y-64265228D01*
X137967980Y-64693800D01*
X136967980Y-63979514D02*
X136967980Y-63360466D01*
X137348933Y-63693800D01*
X137348933Y-63550942D01*
X137396552Y-63455704D01*
X137444171Y-63408085D01*
X137539409Y-63360466D01*
X137777504Y-63360466D01*
X137872742Y-63408085D01*
X137920361Y-63455704D01*
X137967980Y-63550942D01*
X137967980Y-63836657D01*
X137920361Y-63931895D01*
X137872742Y-63979514D01*
X136967980Y-63027133D02*
X136967980Y-62408085D01*
X137348933Y-62741419D01*
X137348933Y-62598561D01*
X137396552Y-62503323D01*
X137444171Y-62455704D01*
X137539409Y-62408085D01*
X137777504Y-62408085D01*
X137872742Y-62455704D01*
X137920361Y-62503323D01*
X137967980Y-62598561D01*
X137967980Y-62884276D01*
X137920361Y-62979514D01*
X137872742Y-63027133D01*
X137682266Y-62027133D02*
X137682266Y-61550942D01*
X137967980Y-62122371D02*
X136967980Y-61789038D01*
X137967980Y-61455704D01*
%TO.C,J3*%
X109104180Y-42090933D02*
X109818466Y-42090933D01*
X109961323Y-42138552D01*
X110056561Y-42233790D01*
X110104180Y-42376647D01*
X110104180Y-42471885D01*
X109104180Y-41709980D02*
X109104180Y-41090933D01*
X109485133Y-41424266D01*
X109485133Y-41281409D01*
X109532752Y-41186171D01*
X109580371Y-41138552D01*
X109675609Y-41090933D01*
X109913704Y-41090933D01*
X110008942Y-41138552D01*
X110056561Y-41186171D01*
X110104180Y-41281409D01*
X110104180Y-41567123D01*
X110056561Y-41662361D01*
X110008942Y-41709980D01*
X115047780Y-45632571D02*
X115762066Y-45632571D01*
X115904923Y-45680190D01*
X116000161Y-45775428D01*
X116047780Y-45918285D01*
X116047780Y-46013523D01*
X116047780Y-45156380D02*
X115047780Y-45156380D01*
X115762066Y-44823047D01*
X115047780Y-44489714D01*
X116047780Y-44489714D01*
X116047780Y-44013523D02*
X115047780Y-44013523D01*
X115047780Y-43632571D01*
X115095400Y-43537333D01*
X115143019Y-43489714D01*
X115238257Y-43442095D01*
X115381114Y-43442095D01*
X115476352Y-43489714D01*
X115523971Y-43537333D01*
X115571590Y-43632571D01*
X115571590Y-44013523D01*
%TO.C,RV1*%
X137485380Y-92213038D02*
X137009190Y-92546371D01*
X137485380Y-92784466D02*
X136485380Y-92784466D01*
X136485380Y-92403514D01*
X136533000Y-92308276D01*
X136580619Y-92260657D01*
X136675857Y-92213038D01*
X136818714Y-92213038D01*
X136913952Y-92260657D01*
X136961571Y-92308276D01*
X137009190Y-92403514D01*
X137009190Y-92784466D01*
X136485380Y-91927323D02*
X137485380Y-91593990D01*
X136485380Y-91260657D01*
X137485380Y-90403514D02*
X137485380Y-90974942D01*
X137485380Y-90689228D02*
X136485380Y-90689228D01*
X136628238Y-90784466D01*
X136723476Y-90879704D01*
X136771095Y-90974942D01*
X137586980Y-95762676D02*
X137586980Y-96334104D01*
X137586980Y-96048390D02*
X136586980Y-96048390D01*
X136729838Y-96143628D01*
X136825076Y-96238866D01*
X136872695Y-96334104D01*
X136586980Y-95143628D02*
X136586980Y-95048390D01*
X136634600Y-94953152D01*
X136682219Y-94905533D01*
X136777457Y-94857914D01*
X136967933Y-94810295D01*
X137206028Y-94810295D01*
X137396504Y-94857914D01*
X137491742Y-94905533D01*
X137539361Y-94953152D01*
X137586980Y-95048390D01*
X137586980Y-95143628D01*
X137539361Y-95238866D01*
X137491742Y-95286485D01*
X137396504Y-95334104D01*
X137206028Y-95381723D01*
X136967933Y-95381723D01*
X136777457Y-95334104D01*
X136682219Y-95286485D01*
X136634600Y-95238866D01*
X136586980Y-95143628D01*
X137586980Y-94381723D02*
X136586980Y-94381723D01*
X137586980Y-93810295D02*
X137015552Y-94238866D01*
X136586980Y-93810295D02*
X137158409Y-94381723D01*
%TO.C,R6*%
X82037180Y-65546266D02*
X81560990Y-65879600D01*
X82037180Y-66117695D02*
X81037180Y-66117695D01*
X81037180Y-65736742D01*
X81084800Y-65641504D01*
X81132419Y-65593885D01*
X81227657Y-65546266D01*
X81370514Y-65546266D01*
X81465752Y-65593885D01*
X81513371Y-65641504D01*
X81560990Y-65736742D01*
X81560990Y-66117695D01*
X81037180Y-64689123D02*
X81037180Y-64879600D01*
X81084800Y-64974838D01*
X81132419Y-65022457D01*
X81275276Y-65117695D01*
X81465752Y-65165314D01*
X81846704Y-65165314D01*
X81941942Y-65117695D01*
X81989561Y-65070076D01*
X82037180Y-64974838D01*
X82037180Y-64784361D01*
X81989561Y-64689123D01*
X81941942Y-64641504D01*
X81846704Y-64593885D01*
X81608609Y-64593885D01*
X81513371Y-64641504D01*
X81465752Y-64689123D01*
X81418133Y-64784361D01*
X81418133Y-64974838D01*
X81465752Y-65070076D01*
X81513371Y-65117695D01*
X81608609Y-65165314D01*
X82437504Y-63174619D02*
X82485123Y-63127000D01*
X82580361Y-63079380D01*
X82818457Y-63079380D01*
X82913695Y-63127000D01*
X82961314Y-63174619D01*
X83008933Y-63269857D01*
X83008933Y-63365095D01*
X82961314Y-63507952D01*
X82389885Y-64079380D01*
X83008933Y-64079380D01*
X83627980Y-63079380D02*
X83723219Y-63079380D01*
X83818457Y-63127000D01*
X83866076Y-63174619D01*
X83913695Y-63269857D01*
X83961314Y-63460333D01*
X83961314Y-63698428D01*
X83913695Y-63888904D01*
X83866076Y-63984142D01*
X83818457Y-64031761D01*
X83723219Y-64079380D01*
X83627980Y-64079380D01*
X83532742Y-64031761D01*
X83485123Y-63984142D01*
X83437504Y-63888904D01*
X83389885Y-63698428D01*
X83389885Y-63460333D01*
X83437504Y-63269857D01*
X83485123Y-63174619D01*
X83532742Y-63127000D01*
X83627980Y-63079380D01*
X84580361Y-63079380D02*
X84675600Y-63079380D01*
X84770838Y-63127000D01*
X84818457Y-63174619D01*
X84866076Y-63269857D01*
X84913695Y-63460333D01*
X84913695Y-63698428D01*
X84866076Y-63888904D01*
X84818457Y-63984142D01*
X84770838Y-64031761D01*
X84675600Y-64079380D01*
X84580361Y-64079380D01*
X84485123Y-64031761D01*
X84437504Y-63984142D01*
X84389885Y-63888904D01*
X84342266Y-63698428D01*
X84342266Y-63460333D01*
X84389885Y-63269857D01*
X84437504Y-63174619D01*
X84485123Y-63127000D01*
X84580361Y-63079380D01*
X85913695Y-64079380D02*
X85580361Y-63603190D01*
X85342266Y-64079380D02*
X85342266Y-63079380D01*
X85723219Y-63079380D01*
X85818457Y-63127000D01*
X85866076Y-63174619D01*
X85913695Y-63269857D01*
X85913695Y-63412714D01*
X85866076Y-63507952D01*
X85818457Y-63555571D01*
X85723219Y-63603190D01*
X85342266Y-63603190D01*
%TO.C,C11*%
X119000542Y-77376257D02*
X119048161Y-77423876D01*
X119095780Y-77566733D01*
X119095780Y-77661971D01*
X119048161Y-77804828D01*
X118952923Y-77900066D01*
X118857685Y-77947685D01*
X118667209Y-77995304D01*
X118524352Y-77995304D01*
X118333876Y-77947685D01*
X118238638Y-77900066D01*
X118143400Y-77804828D01*
X118095780Y-77661971D01*
X118095780Y-77566733D01*
X118143400Y-77423876D01*
X118191019Y-77376257D01*
X119095780Y-76423876D02*
X119095780Y-76995304D01*
X119095780Y-76709590D02*
X118095780Y-76709590D01*
X118238638Y-76804828D01*
X118333876Y-76900066D01*
X118381495Y-76995304D01*
X119095780Y-75471495D02*
X119095780Y-76042923D01*
X119095780Y-75757209D02*
X118095780Y-75757209D01*
X118238638Y-75852447D01*
X118333876Y-75947685D01*
X118381495Y-76042923D01*
X117520980Y-76823866D02*
X117520980Y-77395295D01*
X117520980Y-77109580D02*
X116520980Y-77109580D01*
X116663838Y-77204819D01*
X116759076Y-77300057D01*
X116806695Y-77395295D01*
X116854314Y-75966723D02*
X117520980Y-75966723D01*
X116854314Y-76395295D02*
X117378123Y-76395295D01*
X117473361Y-76347676D01*
X117520980Y-76252438D01*
X117520980Y-76109580D01*
X117473361Y-76014342D01*
X117425742Y-75966723D01*
%TO.C,C1*%
X129566942Y-102604866D02*
X129614561Y-102652485D01*
X129662180Y-102795342D01*
X129662180Y-102890580D01*
X129614561Y-103033438D01*
X129519323Y-103128676D01*
X129424085Y-103176295D01*
X129233609Y-103223914D01*
X129090752Y-103223914D01*
X128900276Y-103176295D01*
X128805038Y-103128676D01*
X128709800Y-103033438D01*
X128662180Y-102890580D01*
X128662180Y-102795342D01*
X128709800Y-102652485D01*
X128757419Y-102604866D01*
X129662180Y-101652485D02*
X129662180Y-102223914D01*
X129662180Y-101938200D02*
X128662180Y-101938200D01*
X128805038Y-102033438D01*
X128900276Y-102128676D01*
X128947895Y-102223914D01*
X128087380Y-104674847D02*
X128087380Y-105246276D01*
X128087380Y-104960561D02*
X127087380Y-104960561D01*
X127230238Y-105055800D01*
X127325476Y-105151038D01*
X127373095Y-105246276D01*
X127087380Y-104055800D02*
X127087380Y-103960561D01*
X127135000Y-103865323D01*
X127182619Y-103817704D01*
X127277857Y-103770085D01*
X127468333Y-103722466D01*
X127706428Y-103722466D01*
X127896904Y-103770085D01*
X127992142Y-103817704D01*
X128039761Y-103865323D01*
X128087380Y-103960561D01*
X128087380Y-104055800D01*
X128039761Y-104151038D01*
X127992142Y-104198657D01*
X127896904Y-104246276D01*
X127706428Y-104293895D01*
X127468333Y-104293895D01*
X127277857Y-104246276D01*
X127182619Y-104198657D01*
X127135000Y-104151038D01*
X127087380Y-104055800D01*
X127087380Y-103103419D02*
X127087380Y-103008180D01*
X127135000Y-102912942D01*
X127182619Y-102865323D01*
X127277857Y-102817704D01*
X127468333Y-102770085D01*
X127706428Y-102770085D01*
X127896904Y-102817704D01*
X127992142Y-102865323D01*
X128039761Y-102912942D01*
X128087380Y-103008180D01*
X128087380Y-103103419D01*
X128039761Y-103198657D01*
X127992142Y-103246276D01*
X127896904Y-103293895D01*
X127706428Y-103341514D01*
X127468333Y-103341514D01*
X127277857Y-103293895D01*
X127182619Y-103246276D01*
X127135000Y-103198657D01*
X127087380Y-103103419D01*
X127420714Y-102341514D02*
X128087380Y-102341514D01*
X127515952Y-102341514D02*
X127468333Y-102293895D01*
X127420714Y-102198657D01*
X127420714Y-102055800D01*
X127468333Y-101960561D01*
X127563571Y-101912942D01*
X128087380Y-101912942D01*
%TO.C,R4*%
X118603733Y-69210180D02*
X118270400Y-68733990D01*
X118032304Y-69210180D02*
X118032304Y-68210180D01*
X118413257Y-68210180D01*
X118508495Y-68257800D01*
X118556114Y-68305419D01*
X118603733Y-68400657D01*
X118603733Y-68543514D01*
X118556114Y-68638752D01*
X118508495Y-68686371D01*
X118413257Y-68733990D01*
X118032304Y-68733990D01*
X119460876Y-68543514D02*
X119460876Y-69210180D01*
X119222780Y-68162561D02*
X118984685Y-68876847D01*
X119603733Y-68876847D01*
X118333923Y-67609980D02*
X117762495Y-67609980D01*
X118048209Y-67609980D02*
X118048209Y-66609980D01*
X117952971Y-66752838D01*
X117857733Y-66848076D01*
X117762495Y-66895695D01*
X118952971Y-66609980D02*
X119048209Y-66609980D01*
X119143447Y-66657600D01*
X119191066Y-66705219D01*
X119238685Y-66800457D01*
X119286304Y-66990933D01*
X119286304Y-67229028D01*
X119238685Y-67419504D01*
X119191066Y-67514742D01*
X119143447Y-67562361D01*
X119048209Y-67609980D01*
X118952971Y-67609980D01*
X118857733Y-67562361D01*
X118810114Y-67514742D01*
X118762495Y-67419504D01*
X118714876Y-67229028D01*
X118714876Y-66990933D01*
X118762495Y-66800457D01*
X118810114Y-66705219D01*
X118857733Y-66657600D01*
X118952971Y-66609980D01*
X119714876Y-67609980D02*
X119714876Y-66609980D01*
X120286304Y-67609980D02*
X119857733Y-67038552D01*
X120286304Y-66609980D02*
X119714876Y-67181409D01*
%TO.C,D3*%
X81630780Y-112396495D02*
X80630780Y-112396495D01*
X80630780Y-112158400D01*
X80678400Y-112015542D01*
X80773638Y-111920304D01*
X80868876Y-111872685D01*
X81059352Y-111825066D01*
X81202209Y-111825066D01*
X81392685Y-111872685D01*
X81487923Y-111920304D01*
X81583161Y-112015542D01*
X81630780Y-112158400D01*
X81630780Y-112396495D01*
X80630780Y-111491733D02*
X80630780Y-110872685D01*
X81011733Y-111206019D01*
X81011733Y-111063161D01*
X81059352Y-110967923D01*
X81106971Y-110920304D01*
X81202209Y-110872685D01*
X81440304Y-110872685D01*
X81535542Y-110920304D01*
X81583161Y-110967923D01*
X81630780Y-111063161D01*
X81630780Y-111348876D01*
X81583161Y-111444114D01*
X81535542Y-111491733D01*
X80157580Y-102777657D02*
X80157580Y-103349085D01*
X80157580Y-103063371D02*
X79157580Y-103063371D01*
X79300438Y-103158609D01*
X79395676Y-103253847D01*
X79443295Y-103349085D01*
X80157580Y-102349085D02*
X79157580Y-102349085D01*
X80157580Y-101777657D01*
X79157580Y-101777657D01*
X79490914Y-100872895D02*
X80157580Y-100872895D01*
X79109961Y-101110990D02*
X79824247Y-101349085D01*
X79824247Y-100730038D01*
X79157580Y-100158609D02*
X79157580Y-100063371D01*
X79205200Y-99968133D01*
X79252819Y-99920514D01*
X79348057Y-99872895D01*
X79538533Y-99825276D01*
X79776628Y-99825276D01*
X79967104Y-99872895D01*
X80062342Y-99920514D01*
X80109961Y-99968133D01*
X80157580Y-100063371D01*
X80157580Y-100158609D01*
X80109961Y-100253847D01*
X80062342Y-100301466D01*
X79967104Y-100349085D01*
X79776628Y-100396704D01*
X79538533Y-100396704D01*
X79348057Y-100349085D01*
X79252819Y-100301466D01*
X79205200Y-100253847D01*
X79157580Y-100158609D01*
X79157580Y-99206228D02*
X79157580Y-99110990D01*
X79205200Y-99015752D01*
X79252819Y-98968133D01*
X79348057Y-98920514D01*
X79538533Y-98872895D01*
X79776628Y-98872895D01*
X79967104Y-98920514D01*
X80062342Y-98968133D01*
X80109961Y-99015752D01*
X80157580Y-99110990D01*
X80157580Y-99206228D01*
X80109961Y-99301466D01*
X80062342Y-99349085D01*
X79967104Y-99396704D01*
X79776628Y-99444323D01*
X79538533Y-99444323D01*
X79348057Y-99396704D01*
X79252819Y-99349085D01*
X79205200Y-99301466D01*
X79157580Y-99206228D01*
X80157580Y-97920514D02*
X80157580Y-98491942D01*
X80157580Y-98206228D02*
X79157580Y-98206228D01*
X79300438Y-98301466D01*
X79395676Y-98396704D01*
X79443295Y-98491942D01*
%TO.C,TP3*%
X82561180Y-82110104D02*
X82561180Y-81538676D01*
X83561180Y-81824390D02*
X82561180Y-81824390D01*
X83561180Y-81205342D02*
X82561180Y-81205342D01*
X82561180Y-80824390D01*
X82608800Y-80729152D01*
X82656419Y-80681533D01*
X82751657Y-80633914D01*
X82894514Y-80633914D01*
X82989752Y-80681533D01*
X83037371Y-80729152D01*
X83084990Y-80824390D01*
X83084990Y-81205342D01*
X82561180Y-80300580D02*
X82561180Y-79681533D01*
X82942133Y-80014866D01*
X82942133Y-79872009D01*
X82989752Y-79776771D01*
X83037371Y-79729152D01*
X83132609Y-79681533D01*
X83370704Y-79681533D01*
X83465942Y-79729152D01*
X83513561Y-79776771D01*
X83561180Y-79872009D01*
X83561180Y-80157723D01*
X83513561Y-80252961D01*
X83465942Y-80300580D01*
%TO.C,T2*%
X89673180Y-42138504D02*
X89673180Y-41567076D01*
X90673180Y-41852790D02*
X89673180Y-41852790D01*
X89768419Y-41281361D02*
X89720800Y-41233742D01*
X89673180Y-41138504D01*
X89673180Y-40900409D01*
X89720800Y-40805171D01*
X89768419Y-40757552D01*
X89863657Y-40709933D01*
X89958895Y-40709933D01*
X90101752Y-40757552D01*
X90673180Y-41328980D01*
X90673180Y-40709933D01*
X96022066Y-47502771D02*
X95688733Y-47502771D01*
X95688733Y-48026580D02*
X95688733Y-47026580D01*
X96164923Y-47026580D01*
X96403019Y-47026580D02*
X96974447Y-47026580D01*
X96688733Y-48026580D02*
X96688733Y-47026580D01*
X97212542Y-47026580D02*
X97831590Y-47026580D01*
X97498257Y-47407533D01*
X97641114Y-47407533D01*
X97736352Y-47455152D01*
X97783971Y-47502771D01*
X97831590Y-47598009D01*
X97831590Y-47836104D01*
X97783971Y-47931342D01*
X97736352Y-47978961D01*
X97641114Y-48026580D01*
X97355400Y-48026580D01*
X97260161Y-47978961D01*
X97212542Y-47931342D01*
X98164923Y-47026580D02*
X98831590Y-47026580D01*
X98403019Y-48026580D01*
X99212542Y-47645628D02*
X99974447Y-47645628D01*
X100879209Y-47359914D02*
X100879209Y-48026580D01*
X100641114Y-46978961D02*
X100403019Y-47693247D01*
X101022066Y-47693247D01*
X101307780Y-47026580D02*
X101974447Y-47026580D01*
X101545876Y-48026580D01*
X103641114Y-48026580D02*
X103069685Y-48026580D01*
X103355400Y-48026580D02*
X103355400Y-47026580D01*
X103260161Y-47169438D01*
X103164923Y-47264676D01*
X103069685Y-47312295D01*
X104069685Y-47931342D02*
X104117304Y-47978961D01*
X104069685Y-48026580D01*
X104022066Y-47978961D01*
X104069685Y-47931342D01*
X104069685Y-48026580D01*
X104069685Y-47407533D02*
X104117304Y-47455152D01*
X104069685Y-47502771D01*
X104022066Y-47455152D01*
X104069685Y-47407533D01*
X104069685Y-47502771D01*
X104974447Y-47359914D02*
X104974447Y-48026580D01*
X104736352Y-46978961D02*
X104498257Y-47693247D01*
X105117304Y-47693247D01*
%TO.C,T1*%
X99096580Y-113309304D02*
X99096580Y-112737876D01*
X100096580Y-113023590D02*
X99096580Y-113023590D01*
X100096580Y-111880733D02*
X100096580Y-112452161D01*
X100096580Y-112166447D02*
X99096580Y-112166447D01*
X99239438Y-112261685D01*
X99334676Y-112356923D01*
X99382295Y-112452161D01*
X99623571Y-110263914D02*
X99623571Y-110597247D01*
X100147380Y-110597247D02*
X99147380Y-110597247D01*
X99147380Y-110121057D01*
X99147380Y-109882961D02*
X99147380Y-109311533D01*
X100147380Y-109597247D02*
X99147380Y-109597247D01*
X99147380Y-109073438D02*
X99147380Y-108454390D01*
X99528333Y-108787723D01*
X99528333Y-108644866D01*
X99575952Y-108549628D01*
X99623571Y-108502009D01*
X99718809Y-108454390D01*
X99956904Y-108454390D01*
X100052142Y-108502009D01*
X100099761Y-108549628D01*
X100147380Y-108644866D01*
X100147380Y-108930580D01*
X100099761Y-109025819D01*
X100052142Y-109073438D01*
X99147380Y-108121057D02*
X99147380Y-107454390D01*
X100147380Y-107882961D01*
X99766428Y-107073438D02*
X99766428Y-106311533D01*
X99480714Y-105406771D02*
X100147380Y-105406771D01*
X99099761Y-105644866D02*
X99814047Y-105882961D01*
X99814047Y-105263914D01*
X99147380Y-104978200D02*
X99147380Y-104311533D01*
X100147380Y-104740104D01*
X100147380Y-102644866D02*
X100147380Y-103216295D01*
X100147380Y-102930580D02*
X99147380Y-102930580D01*
X99290238Y-103025819D01*
X99385476Y-103121057D01*
X99433095Y-103216295D01*
X99147380Y-102025819D02*
X99147380Y-101930580D01*
X99195000Y-101835342D01*
X99242619Y-101787723D01*
X99337857Y-101740104D01*
X99528333Y-101692485D01*
X99766428Y-101692485D01*
X99956904Y-101740104D01*
X100052142Y-101787723D01*
X100099761Y-101835342D01*
X100147380Y-101930580D01*
X100147380Y-102025819D01*
X100099761Y-102121057D01*
X100052142Y-102168676D01*
X99956904Y-102216295D01*
X99766428Y-102263914D01*
X99528333Y-102263914D01*
X99337857Y-102216295D01*
X99242619Y-102168676D01*
X99195000Y-102121057D01*
X99147380Y-102025819D01*
X100052142Y-101263914D02*
X100099761Y-101216295D01*
X100147380Y-101263914D01*
X100099761Y-101311533D01*
X100052142Y-101263914D01*
X100147380Y-101263914D01*
X99528333Y-101263914D02*
X99575952Y-101216295D01*
X99623571Y-101263914D01*
X99575952Y-101311533D01*
X99528333Y-101263914D01*
X99623571Y-101263914D01*
X100147380Y-100263914D02*
X100147380Y-100835342D01*
X100147380Y-100549628D02*
X99147380Y-100549628D01*
X99290238Y-100644866D01*
X99385476Y-100740104D01*
X99433095Y-100835342D01*
X99147380Y-99644866D02*
X99147380Y-99549628D01*
X99195000Y-99454390D01*
X99242619Y-99406771D01*
X99337857Y-99359152D01*
X99528333Y-99311533D01*
X99766428Y-99311533D01*
X99956904Y-99359152D01*
X100052142Y-99406771D01*
X100099761Y-99454390D01*
X100147380Y-99549628D01*
X100147380Y-99644866D01*
X100099761Y-99740104D01*
X100052142Y-99787723D01*
X99956904Y-99835342D01*
X99766428Y-99882961D01*
X99528333Y-99882961D01*
X99337857Y-99835342D01*
X99242619Y-99787723D01*
X99195000Y-99740104D01*
X99147380Y-99644866D01*
%TO.C,C5*%
X84278742Y-85459866D02*
X84326361Y-85507485D01*
X84373980Y-85650342D01*
X84373980Y-85745580D01*
X84326361Y-85888438D01*
X84231123Y-85983676D01*
X84135885Y-86031295D01*
X83945409Y-86078914D01*
X83802552Y-86078914D01*
X83612076Y-86031295D01*
X83516838Y-85983676D01*
X83421600Y-85888438D01*
X83373980Y-85745580D01*
X83373980Y-85650342D01*
X83421600Y-85507485D01*
X83469219Y-85459866D01*
X83373980Y-84555104D02*
X83373980Y-85031295D01*
X83850171Y-85078914D01*
X83802552Y-85031295D01*
X83754933Y-84936057D01*
X83754933Y-84697961D01*
X83802552Y-84602723D01*
X83850171Y-84555104D01*
X83945409Y-84507485D01*
X84183504Y-84507485D01*
X84278742Y-84555104D01*
X84326361Y-84602723D01*
X84373980Y-84697961D01*
X84373980Y-84936057D01*
X84326361Y-85031295D01*
X84278742Y-85078914D01*
X82418180Y-85904247D02*
X82418180Y-86475676D01*
X82418180Y-86189961D02*
X81418180Y-86189961D01*
X81561038Y-86285200D01*
X81656276Y-86380438D01*
X81703895Y-86475676D01*
X81418180Y-85285200D02*
X81418180Y-85189961D01*
X81465800Y-85094723D01*
X81513419Y-85047104D01*
X81608657Y-84999485D01*
X81799133Y-84951866D01*
X82037228Y-84951866D01*
X82227704Y-84999485D01*
X82322942Y-85047104D01*
X82370561Y-85094723D01*
X82418180Y-85189961D01*
X82418180Y-85285200D01*
X82370561Y-85380438D01*
X82322942Y-85428057D01*
X82227704Y-85475676D01*
X82037228Y-85523295D01*
X81799133Y-85523295D01*
X81608657Y-85475676D01*
X81513419Y-85428057D01*
X81465800Y-85380438D01*
X81418180Y-85285200D01*
X81418180Y-84332819D02*
X81418180Y-84237580D01*
X81465800Y-84142342D01*
X81513419Y-84094723D01*
X81608657Y-84047104D01*
X81799133Y-83999485D01*
X82037228Y-83999485D01*
X82227704Y-84047104D01*
X82322942Y-84094723D01*
X82370561Y-84142342D01*
X82418180Y-84237580D01*
X82418180Y-84332819D01*
X82370561Y-84428057D01*
X82322942Y-84475676D01*
X82227704Y-84523295D01*
X82037228Y-84570914D01*
X81799133Y-84570914D01*
X81608657Y-84523295D01*
X81513419Y-84475676D01*
X81465800Y-84428057D01*
X81418180Y-84332819D01*
X81751514Y-83142342D02*
X82418180Y-83142342D01*
X81751514Y-83570914D02*
X82275323Y-83570914D01*
X82370561Y-83523295D01*
X82418180Y-83428057D01*
X82418180Y-83285200D01*
X82370561Y-83189961D01*
X82322942Y-83142342D01*
%TO.C,J2*%
X114539780Y-99317133D02*
X115254066Y-99317133D01*
X115396923Y-99364752D01*
X115492161Y-99459990D01*
X115539780Y-99602847D01*
X115539780Y-99698085D01*
X114635019Y-98888561D02*
X114587400Y-98840942D01*
X114539780Y-98745704D01*
X114539780Y-98507609D01*
X114587400Y-98412371D01*
X114635019Y-98364752D01*
X114730257Y-98317133D01*
X114825495Y-98317133D01*
X114968352Y-98364752D01*
X115539780Y-98936180D01*
X115539780Y-98317133D01*
X112939580Y-100648971D02*
X113653866Y-100648971D01*
X113796723Y-100696590D01*
X113891961Y-100791828D01*
X113939580Y-100934685D01*
X113939580Y-101029923D01*
X113939580Y-100172780D02*
X112939580Y-100172780D01*
X113653866Y-99839447D01*
X112939580Y-99506114D01*
X113939580Y-99506114D01*
X113939580Y-99029923D02*
X112939580Y-99029923D01*
X112939580Y-98648971D01*
X112987200Y-98553733D01*
X113034819Y-98506114D01*
X113130057Y-98458495D01*
X113272914Y-98458495D01*
X113368152Y-98506114D01*
X113415771Y-98553733D01*
X113463390Y-98648971D01*
X113463390Y-99029923D01*
%TO.C,C12*%
X98985342Y-123477257D02*
X99032961Y-123524876D01*
X99080580Y-123667733D01*
X99080580Y-123762971D01*
X99032961Y-123905828D01*
X98937723Y-124001066D01*
X98842485Y-124048685D01*
X98652009Y-124096304D01*
X98509152Y-124096304D01*
X98318676Y-124048685D01*
X98223438Y-124001066D01*
X98128200Y-123905828D01*
X98080580Y-123762971D01*
X98080580Y-123667733D01*
X98128200Y-123524876D01*
X98175819Y-123477257D01*
X99080580Y-122524876D02*
X99080580Y-123096304D01*
X99080580Y-122810590D02*
X98080580Y-122810590D01*
X98223438Y-122905828D01*
X98318676Y-123001066D01*
X98366295Y-123096304D01*
X98175819Y-122143923D02*
X98128200Y-122096304D01*
X98080580Y-122001066D01*
X98080580Y-121762971D01*
X98128200Y-121667733D01*
X98175819Y-121620114D01*
X98271057Y-121572495D01*
X98366295Y-121572495D01*
X98509152Y-121620114D01*
X99080580Y-122191542D01*
X99080580Y-121572495D01*
X98023419Y-117089085D02*
X97975800Y-117041466D01*
X97928180Y-116946228D01*
X97928180Y-116708133D01*
X97975800Y-116612895D01*
X98023419Y-116565276D01*
X98118657Y-116517657D01*
X98213895Y-116517657D01*
X98356752Y-116565276D01*
X98928180Y-117136704D01*
X98928180Y-116517657D01*
X98023419Y-116136704D02*
X97975800Y-116089085D01*
X97928180Y-115993847D01*
X97928180Y-115755752D01*
X97975800Y-115660514D01*
X98023419Y-115612895D01*
X98118657Y-115565276D01*
X98213895Y-115565276D01*
X98356752Y-115612895D01*
X98928180Y-116184323D01*
X98928180Y-115565276D01*
X98261514Y-114708133D02*
X98928180Y-114708133D01*
X98261514Y-115136704D02*
X98785323Y-115136704D01*
X98880561Y-115089085D01*
X98928180Y-114993847D01*
X98928180Y-114850990D01*
X98880561Y-114755752D01*
X98832942Y-114708133D01*
%TO.C,U1*%
X113919603Y-80762325D02*
X114557024Y-80762325D01*
X114632015Y-80724830D01*
X114669510Y-80687334D01*
X114707005Y-80612344D01*
X114707005Y-80462362D01*
X114669510Y-80387372D01*
X114632015Y-80349876D01*
X114557024Y-80312381D01*
X113919603Y-80312381D01*
X114707005Y-79524979D02*
X114707005Y-79974923D01*
X114707005Y-79749951D02*
X113919603Y-79749951D01*
X114032089Y-79824942D01*
X114107080Y-79899932D01*
X114144575Y-79974923D01*
%TO.C,C16*%
X98197942Y-62263257D02*
X98245561Y-62310876D01*
X98293180Y-62453733D01*
X98293180Y-62548971D01*
X98245561Y-62691828D01*
X98150323Y-62787066D01*
X98055085Y-62834685D01*
X97864609Y-62882304D01*
X97721752Y-62882304D01*
X97531276Y-62834685D01*
X97436038Y-62787066D01*
X97340800Y-62691828D01*
X97293180Y-62548971D01*
X97293180Y-62453733D01*
X97340800Y-62310876D01*
X97388419Y-62263257D01*
X98293180Y-61310876D02*
X98293180Y-61882304D01*
X98293180Y-61596590D02*
X97293180Y-61596590D01*
X97436038Y-61691828D01*
X97531276Y-61787066D01*
X97578895Y-61882304D01*
X97293180Y-60453733D02*
X97293180Y-60644209D01*
X97340800Y-60739447D01*
X97388419Y-60787066D01*
X97531276Y-60882304D01*
X97721752Y-60929923D01*
X98102704Y-60929923D01*
X98197942Y-60882304D01*
X98245561Y-60834685D01*
X98293180Y-60739447D01*
X98293180Y-60548971D01*
X98245561Y-60453733D01*
X98197942Y-60406114D01*
X98102704Y-60358495D01*
X97864609Y-60358495D01*
X97769371Y-60406114D01*
X97721752Y-60453733D01*
X97674133Y-60548971D01*
X97674133Y-60739447D01*
X97721752Y-60834685D01*
X97769371Y-60882304D01*
X97864609Y-60929923D01*
X96331114Y-60955085D02*
X96997780Y-60955085D01*
X95950161Y-61193180D02*
X96664447Y-61431276D01*
X96664447Y-60812228D01*
X95997780Y-60526514D02*
X95997780Y-59859847D01*
X96997780Y-60288419D01*
X95997780Y-59288419D02*
X95997780Y-59193180D01*
X96045400Y-59097942D01*
X96093019Y-59050323D01*
X96188257Y-59002704D01*
X96378733Y-58955085D01*
X96616828Y-58955085D01*
X96807304Y-59002704D01*
X96902542Y-59050323D01*
X96950161Y-59097942D01*
X96997780Y-59193180D01*
X96997780Y-59288419D01*
X96950161Y-59383657D01*
X96902542Y-59431276D01*
X96807304Y-59478895D01*
X96616828Y-59526514D01*
X96378733Y-59526514D01*
X96188257Y-59478895D01*
X96093019Y-59431276D01*
X96045400Y-59383657D01*
X95997780Y-59288419D01*
X96331114Y-58097942D02*
X96997780Y-58097942D01*
X96331114Y-58526514D02*
X96854923Y-58526514D01*
X96950161Y-58478895D01*
X96997780Y-58383657D01*
X96997780Y-58240800D01*
X96950161Y-58145561D01*
X96902542Y-58097942D01*
%TO.C,C3*%
X134265942Y-102884266D02*
X134313561Y-102931885D01*
X134361180Y-103074742D01*
X134361180Y-103169980D01*
X134313561Y-103312838D01*
X134218323Y-103408076D01*
X134123085Y-103455695D01*
X133932609Y-103503314D01*
X133789752Y-103503314D01*
X133599276Y-103455695D01*
X133504038Y-103408076D01*
X133408800Y-103312838D01*
X133361180Y-103169980D01*
X133361180Y-103074742D01*
X133408800Y-102931885D01*
X133456419Y-102884266D01*
X133361180Y-102550933D02*
X133361180Y-101931885D01*
X133742133Y-102265219D01*
X133742133Y-102122361D01*
X133789752Y-102027123D01*
X133837371Y-101979504D01*
X133932609Y-101931885D01*
X134170704Y-101931885D01*
X134265942Y-101979504D01*
X134313561Y-102027123D01*
X134361180Y-102122361D01*
X134361180Y-102408076D01*
X134313561Y-102503314D01*
X134265942Y-102550933D01*
X132583180Y-102884266D02*
X132583180Y-103455695D01*
X132583180Y-103169980D02*
X131583180Y-103169980D01*
X131726038Y-103265219D01*
X131821276Y-103360457D01*
X131868895Y-103455695D01*
X131916514Y-102027123D02*
X132583180Y-102027123D01*
X131916514Y-102455695D02*
X132440323Y-102455695D01*
X132535561Y-102408076D01*
X132583180Y-102312838D01*
X132583180Y-102169980D01*
X132535561Y-102074742D01*
X132487942Y-102027123D01*
D12*
%TO.C,R5*%
X125307736Y-47832600D02*
X126761864Y-47832600D01*
X125307736Y-49652600D02*
X126761864Y-49652600D01*
%TO.C,J4*%
X118438000Y-41582000D02*
X118438000Y-38682000D01*
X120343000Y-36777000D02*
X123243000Y-36777000D01*
X120343000Y-43487000D02*
X123243000Y-43487000D01*
X125148000Y-41582000D02*
X125148000Y-38682000D01*
%TO.C,C7*%
X92786148Y-90784000D02*
X94208652Y-90784000D01*
X92786148Y-92604000D02*
X94208652Y-92604000D01*
%TO.C,L2*%
X94558500Y-80060800D02*
G75*
G03*
X94558500Y-80060800I-2483500J0D01*
G01*
X90615000Y-75401701D02*
G75*
G03*
X90615000Y-84719899I1460000J-4659099D01*
G01*
X93535000Y-84719899D02*
G75*
G03*
X93535000Y-75401701I-1460000J4659099D01*
G01*
D13*
%TO.C,U2*%
X131114800Y-112801400D02*
X136194800Y-112801400D01*
X131114800Y-116865400D02*
X131114800Y-112801400D01*
X136194800Y-112801400D02*
X136194800Y-116865400D01*
X136194800Y-116865400D02*
X131114800Y-116865400D01*
D12*
%TO.C,D1*%
X132107200Y-84128000D02*
X132107200Y-87068000D01*
X136527200Y-84128000D02*
X131087200Y-84128000D01*
X137547200Y-85598000D02*
X136527200Y-85598000D01*
X131087200Y-84128000D02*
X131087200Y-87068000D01*
X131987200Y-84128000D02*
X131987200Y-87068000D01*
X131867200Y-84128000D02*
X131867200Y-87068000D01*
X131087200Y-87068000D02*
X136527200Y-87068000D01*
X130067200Y-85598000D02*
X131087200Y-85598000D01*
X136527200Y-87068000D02*
X136527200Y-84128000D01*
D13*
%TO.C,U3*%
X130911600Y-36322000D02*
X135991600Y-36322000D01*
X135991600Y-36322000D02*
X135991600Y-40386000D01*
X130911600Y-40386000D02*
X130911600Y-36322000D01*
X135991600Y-40386000D02*
X130911600Y-40386000D01*
D12*
%TO.C,R1*%
X124109564Y-96871200D02*
X122655436Y-96871200D01*
X124109564Y-95051200D02*
X122655436Y-95051200D01*
%TO.C,R2*%
X125764936Y-87888400D02*
X127219064Y-87888400D01*
X125764936Y-89708400D02*
X127219064Y-89708400D01*
%TO.C,Q1*%
X123199678Y-105830478D02*
G75*
G03*
X121361200Y-101392000I-1838478J1838478D01*
G01*
X121361200Y-101391999D02*
G75*
G03*
X119522722Y-105830478I0J-2600001D01*
G01*
X119561200Y-105842000D02*
X123161200Y-105842000D01*
%TO.C,C17*%
X139024800Y-49453800D02*
G75*
G03*
X139024800Y-49453800I-4120000J0D01*
G01*
X134984800Y-45373800D02*
X134984800Y-53533800D01*
X137425800Y-46233800D02*
X137425800Y-52673800D01*
X138505800Y-47489800D02*
X138505800Y-51417800D01*
X136065800Y-50493800D02*
X136065800Y-53367800D01*
X135865800Y-50493800D02*
X135865800Y-53420800D01*
X136025800Y-45528800D02*
X136025800Y-48413800D01*
X136185800Y-45576800D02*
X136185800Y-48413800D01*
X135745800Y-50493800D02*
X135745800Y-53447800D01*
X137105800Y-46009800D02*
X137105800Y-48413800D01*
X136625800Y-45749800D02*
X136625800Y-48413800D01*
X135104800Y-45377800D02*
X135104800Y-53529800D01*
X136425800Y-50493800D02*
X136425800Y-53243800D01*
X137945800Y-46712800D02*
X137945800Y-52194800D01*
X138265800Y-47108800D02*
X138265800Y-51798800D01*
X137905800Y-46669800D02*
X137905800Y-52237800D01*
X138225800Y-47053800D02*
X138225800Y-51853800D01*
X137025800Y-45960800D02*
X137025800Y-48413800D01*
X137345800Y-46173800D02*
X137345800Y-52733800D01*
X136585800Y-50493800D02*
X136585800Y-53175800D01*
X137065800Y-50493800D02*
X137065800Y-52922800D01*
X136105800Y-50493800D02*
X136105800Y-53355800D01*
X136985800Y-45936800D02*
X136985800Y-48413800D01*
X136825800Y-50493800D02*
X136825800Y-53059800D01*
X135785800Y-45468800D02*
X135785800Y-48413800D01*
X136065800Y-45539800D02*
X136065800Y-48413800D01*
X135384800Y-45401800D02*
X135384800Y-48413800D01*
X138065800Y-46849800D02*
X138065800Y-52057800D01*
X135424800Y-50493800D02*
X135424800Y-53501800D01*
X136785800Y-50493800D02*
X136785800Y-53080800D01*
X135264800Y-50493800D02*
X135264800Y-53518800D01*
X135504800Y-50493800D02*
X135504800Y-53490800D01*
X135224800Y-50493800D02*
X135224800Y-53521800D01*
X135144800Y-45379800D02*
X135144800Y-48413800D01*
X136905800Y-50493800D02*
X136905800Y-53015800D01*
X138785800Y-48107800D02*
X138785800Y-50799800D01*
X136145800Y-50493800D02*
X136145800Y-53342800D01*
X138705800Y-47901800D02*
X138705800Y-51005800D01*
X135625800Y-50493800D02*
X135625800Y-53470800D01*
X135584800Y-45429800D02*
X135584800Y-48413800D01*
X135464800Y-45411800D02*
X135464800Y-48413800D01*
X135464800Y-50493800D02*
X135464800Y-53495800D01*
X135064800Y-45376800D02*
X135064800Y-53530800D01*
X136465800Y-45679800D02*
X136465800Y-48413800D01*
X134904800Y-45373800D02*
X134904800Y-53533800D01*
X136945800Y-45913800D02*
X136945800Y-48413800D01*
X137305800Y-46144800D02*
X137305800Y-52762800D01*
X138145800Y-46948800D02*
X138145800Y-51958800D01*
X135665800Y-50493800D02*
X135665800Y-53463800D01*
X136905800Y-45891800D02*
X136905800Y-48413800D01*
X137465800Y-46264800D02*
X137465800Y-52642800D01*
X138825800Y-48224800D02*
X138825800Y-50682800D01*
X135945800Y-45506800D02*
X135945800Y-48413800D01*
X136985800Y-50493800D02*
X136985800Y-52970800D01*
X136545800Y-45713800D02*
X136545800Y-48413800D01*
X136465800Y-50493800D02*
X136465800Y-53227800D01*
X137825800Y-46586800D02*
X137825800Y-52320800D01*
X137985800Y-46756800D02*
X137985800Y-52150800D01*
X138465800Y-47419800D02*
X138465800Y-51487800D01*
X138945800Y-48685800D02*
X138945800Y-50221800D01*
X135544800Y-45423800D02*
X135544800Y-48413800D01*
X136305800Y-50493800D02*
X136305800Y-53288800D01*
X136105800Y-45551800D02*
X136105800Y-48413800D01*
X135985800Y-45517800D02*
X135985800Y-48413800D01*
X136145800Y-45564800D02*
X136145800Y-48413800D01*
X135745800Y-45459800D02*
X135745800Y-48413800D01*
X135344800Y-50493800D02*
X135344800Y-53510800D01*
X136625800Y-50493800D02*
X136625800Y-53157800D01*
X136705800Y-50493800D02*
X136705800Y-53119800D01*
X135584800Y-50493800D02*
X135584800Y-53477800D01*
X138185800Y-46999800D02*
X138185800Y-51907800D01*
X137185800Y-46061800D02*
X137185800Y-48413800D01*
X136665800Y-45767800D02*
X136665800Y-48413800D01*
X136505800Y-45696800D02*
X136505800Y-48413800D01*
X137145800Y-46035800D02*
X137145800Y-48413800D01*
X137585800Y-46363800D02*
X137585800Y-52543800D01*
X138665800Y-47808800D02*
X138665800Y-51098800D01*
X137505800Y-46297800D02*
X137505800Y-52609800D01*
X135144800Y-50493800D02*
X135144800Y-53527800D01*
X137145800Y-50493800D02*
X137145800Y-52871800D01*
X136945800Y-50493800D02*
X136945800Y-52993800D01*
X135825800Y-45477800D02*
X135825800Y-48413800D01*
X136825800Y-45847800D02*
X136825800Y-48413800D01*
X137225800Y-46088800D02*
X137225800Y-52818800D01*
X136345800Y-50493800D02*
X136345800Y-53274800D01*
X135184800Y-50493800D02*
X135184800Y-53524800D01*
X130495102Y-47138800D02*
X131295102Y-47138800D01*
X135705800Y-45451800D02*
X135705800Y-48413800D01*
X135384800Y-50493800D02*
X135384800Y-53505800D01*
X137105800Y-50493800D02*
X137105800Y-52897800D01*
X136545800Y-50493800D02*
X136545800Y-53193800D01*
X138385800Y-47287800D02*
X138385800Y-51619800D01*
X135264800Y-45388800D02*
X135264800Y-48413800D01*
X137385800Y-46203800D02*
X137385800Y-52703800D01*
X138545800Y-47563800D02*
X138545800Y-51343800D01*
X138585800Y-47640800D02*
X138585800Y-51266800D01*
X135504800Y-45416800D02*
X135504800Y-48413800D01*
X134944800Y-45373800D02*
X134944800Y-53533800D01*
X135625800Y-45436800D02*
X135625800Y-48413800D01*
X138105800Y-46897800D02*
X138105800Y-52009800D01*
X136585800Y-45731800D02*
X136585800Y-48413800D01*
X135905800Y-50493800D02*
X135905800Y-53410800D01*
X136305800Y-45618800D02*
X136305800Y-48413800D01*
X135544800Y-50493800D02*
X135544800Y-53483800D01*
X136385800Y-50493800D02*
X136385800Y-53258800D01*
X136025800Y-50493800D02*
X136025800Y-53378800D01*
X137705800Y-46470800D02*
X137705800Y-52436800D01*
X137665800Y-46434800D02*
X137665800Y-52472800D01*
X138625800Y-47722800D02*
X138625800Y-51184800D01*
X137625800Y-46398800D02*
X137625800Y-52508800D01*
X135224800Y-45385800D02*
X135224800Y-48413800D01*
X135665800Y-45443800D02*
X135665800Y-48413800D01*
X135985800Y-50493800D02*
X135985800Y-53389800D01*
X137025800Y-50493800D02*
X137025800Y-52946800D01*
X136425800Y-45663800D02*
X136425800Y-48413800D01*
X137065800Y-45984800D02*
X137065800Y-48413800D01*
X136705800Y-45787800D02*
X136705800Y-48413800D01*
X137745800Y-46508800D02*
X137745800Y-52398800D01*
X138985800Y-48920800D02*
X138985800Y-49986800D01*
X135304800Y-45392800D02*
X135304800Y-48413800D01*
X135024800Y-45374800D02*
X135024800Y-53532800D01*
X135865800Y-45486800D02*
X135865800Y-48413800D01*
X138345800Y-47225800D02*
X138345800Y-51681800D01*
X138905800Y-48505800D02*
X138905800Y-50401800D01*
X137545800Y-46329800D02*
X137545800Y-52577800D01*
X136225800Y-50493800D02*
X136225800Y-53316800D01*
X136505800Y-50493800D02*
X136505800Y-53210800D01*
X137785800Y-46546800D02*
X137785800Y-52360800D01*
X136785800Y-45826800D02*
X136785800Y-48413800D01*
X136185800Y-50493800D02*
X136185800Y-53330800D01*
X135304800Y-50493800D02*
X135304800Y-53514800D01*
X136265800Y-50493800D02*
X136265800Y-53303800D01*
X136385800Y-45648800D02*
X136385800Y-48413800D01*
X138025800Y-46802800D02*
X138025800Y-52104800D01*
X135705800Y-50493800D02*
X135705800Y-53455800D01*
X135344800Y-45396800D02*
X135344800Y-48413800D01*
X136665800Y-50493800D02*
X136665800Y-53139800D01*
X138745800Y-48000800D02*
X138745800Y-50906800D01*
X138865800Y-48355800D02*
X138865800Y-50551800D01*
X136345800Y-45632800D02*
X136345800Y-48413800D01*
X136865800Y-50493800D02*
X136865800Y-53037800D01*
X136745800Y-45806800D02*
X136745800Y-48413800D01*
X136265800Y-45603800D02*
X136265800Y-48413800D01*
X135424800Y-45405800D02*
X135424800Y-48413800D01*
X135905800Y-45496800D02*
X135905800Y-48413800D01*
X136865800Y-45869800D02*
X136865800Y-48413800D01*
X135945800Y-50493800D02*
X135945800Y-53400800D01*
X135785800Y-50493800D02*
X135785800Y-53438800D01*
X136225800Y-45590800D02*
X136225800Y-48413800D01*
X137865800Y-46627800D02*
X137865800Y-52279800D01*
X130895102Y-46738800D02*
X130895102Y-47538800D01*
X135184800Y-45382800D02*
X135184800Y-48413800D01*
X137185800Y-50493800D02*
X137185800Y-52845800D01*
X135825800Y-50493800D02*
X135825800Y-53429800D01*
X138305800Y-47166800D02*
X138305800Y-51740800D01*
X136745800Y-50493800D02*
X136745800Y-53100800D01*
X138425800Y-47351800D02*
X138425800Y-51555800D01*
X137265800Y-46115800D02*
X137265800Y-52791800D01*
%TO.C,J1*%
X120012800Y-121439600D02*
X122912800Y-121439600D01*
X120012800Y-114729600D02*
X122912800Y-114729600D01*
X124817800Y-119534600D02*
X124817800Y-116634600D01*
X118107800Y-119534600D02*
X118107800Y-116634600D01*
%TO.C,C8*%
X103907000Y-93827652D02*
X103907000Y-92405148D01*
X102087000Y-93827652D02*
X102087000Y-92405148D01*
%TO.C,C13*%
X110032748Y-114482200D02*
X111455252Y-114482200D01*
X110032748Y-116302200D02*
X111455252Y-116302200D01*
%TO.C,L1*%
X94406100Y-103258000D02*
G75*
G03*
X94406100Y-103258000I-2483500J0D01*
G01*
X93382600Y-107917099D02*
G75*
G03*
X93382600Y-98598901I-1460000J4659099D01*
G01*
X90462600Y-98598901D02*
G75*
G03*
X90462600Y-107917099I1460000J-4659099D01*
G01*
%TO.C,C18*%
X111175748Y-37571000D02*
X112598252Y-37571000D01*
X111175748Y-39391000D02*
X112598252Y-39391000D01*
%TO.C,D4*%
X84670008Y-73650935D02*
G75*
G03*
X84826916Y-70418600I-1078608J1672335D01*
G01*
X82355884Y-70418600D02*
G75*
G03*
X82512792Y-73650935I1235516J-1560000D01*
G01*
X82511400Y-70937639D02*
G75*
G03*
X82511563Y-73019730I1080000J-1040961D01*
G01*
X84671237Y-73019730D02*
G75*
G03*
X84671400Y-70937639I-1079837J1041130D01*
G01*
X82511400Y-70418600D02*
X82355400Y-70418600D01*
X84827400Y-70418600D02*
X84671400Y-70418600D01*
%TO.C,C2*%
X120375000Y-111580452D02*
X120375000Y-110157948D01*
X122195000Y-111580452D02*
X122195000Y-110157948D01*
%TO.C,TP1*%
X120816800Y-87873000D02*
X120766800Y-87873000D01*
X120766800Y-89723000D02*
X122666800Y-89723000D01*
X120766800Y-87873000D02*
X120766800Y-89723000D01*
X122666800Y-89723000D02*
X122666800Y-87873000D01*
X122666800Y-87873000D02*
X120816800Y-87873000D01*
%TO.C,C6*%
X138710349Y-76784200D02*
G75*
G03*
X138710349Y-76784200I-4120000J0D01*
G01*
X135030349Y-77824200D02*
X135030349Y-80841200D01*
X134710349Y-72705200D02*
X134710349Y-80863200D01*
X136671349Y-73267200D02*
X136671349Y-75744200D01*
X136351349Y-73098200D02*
X136351349Y-75744200D01*
X136031349Y-77824200D02*
X136031349Y-80605200D01*
X135431349Y-72790200D02*
X135431349Y-75744200D01*
X135030349Y-72727200D02*
X135030349Y-75744200D01*
X137791349Y-74228200D02*
X137791349Y-79340200D01*
X136231349Y-77824200D02*
X136231349Y-80524200D01*
X135591349Y-72827200D02*
X135591349Y-75744200D01*
X135831349Y-77824200D02*
X135831349Y-80673200D01*
X136711349Y-77824200D02*
X136711349Y-80277200D01*
X135831349Y-72895200D02*
X135831349Y-75744200D01*
X137111349Y-73564200D02*
X137111349Y-80004200D01*
X136751349Y-77824200D02*
X136751349Y-80253200D01*
X134990349Y-77824200D02*
X134990349Y-80845200D01*
X134950349Y-77824200D02*
X134950349Y-80849200D01*
X137191349Y-73628200D02*
X137191349Y-79940200D01*
X136991349Y-73475200D02*
X136991349Y-80093200D01*
X134910349Y-77824200D02*
X134910349Y-80852200D01*
X137831349Y-74279200D02*
X137831349Y-79289200D01*
X138431349Y-75331200D02*
X138431349Y-78237200D01*
X138631349Y-76016200D02*
X138631349Y-77552200D01*
X136191349Y-77824200D02*
X136191349Y-80541200D01*
X136591349Y-73222200D02*
X136591349Y-75744200D01*
X138391349Y-75232200D02*
X138391349Y-78336200D01*
X137311349Y-73729200D02*
X137311349Y-79839200D01*
X136271349Y-77824200D02*
X136271349Y-80506200D01*
X135791349Y-72882200D02*
X135791349Y-75744200D01*
X137271349Y-73694200D02*
X137271349Y-79874200D01*
X138351349Y-75139200D02*
X138351349Y-78429200D01*
X136751349Y-73315200D02*
X136751349Y-75744200D01*
X137711349Y-74133200D02*
X137711349Y-79435200D01*
X136511349Y-77824200D02*
X136511349Y-80390200D01*
X130580651Y-74069200D02*
X130580651Y-74869200D01*
X136111349Y-72994200D02*
X136111349Y-75744200D01*
X134630349Y-72704200D02*
X134630349Y-80864200D01*
X138191349Y-74820200D02*
X138191349Y-78748200D01*
X135951349Y-77824200D02*
X135951349Y-80634200D01*
X138231349Y-74894200D02*
X138231349Y-78674200D01*
X136031349Y-72963200D02*
X136031349Y-75744200D01*
X136071349Y-72979200D02*
X136071349Y-75744200D01*
X135511349Y-72808200D02*
X135511349Y-75744200D01*
X135951349Y-72934200D02*
X135951349Y-75744200D01*
X135511349Y-77824200D02*
X135511349Y-80760200D01*
X135551349Y-72817200D02*
X135551349Y-75744200D01*
X134590349Y-72704200D02*
X134590349Y-80864200D01*
X135230349Y-72754200D02*
X135230349Y-75744200D01*
X138111349Y-74682200D02*
X138111349Y-78886200D01*
X137551349Y-73958200D02*
X137551349Y-79610200D01*
X134950349Y-72719200D02*
X134950349Y-75744200D01*
X137871349Y-74330200D02*
X137871349Y-79238200D01*
X135751349Y-72870200D02*
X135751349Y-75744200D01*
X135311349Y-72767200D02*
X135311349Y-75744200D01*
X135671349Y-77824200D02*
X135671349Y-80720200D01*
X137351349Y-73765200D02*
X137351349Y-79803200D01*
X136351349Y-77824200D02*
X136351349Y-80470200D01*
X135270349Y-77824200D02*
X135270349Y-80808200D01*
X136391349Y-77824200D02*
X136391349Y-80450200D01*
X136911349Y-73419200D02*
X136911349Y-80149200D01*
X135391349Y-77824200D02*
X135391349Y-80786200D01*
X135311349Y-77824200D02*
X135311349Y-80801200D01*
X137591349Y-74000200D02*
X137591349Y-79568200D01*
X136951349Y-73446200D02*
X136951349Y-80122200D01*
X137991349Y-74497200D02*
X137991349Y-79071200D01*
X137151349Y-73595200D02*
X137151349Y-79973200D01*
X135471349Y-72799200D02*
X135471349Y-75744200D01*
X135871349Y-77824200D02*
X135871349Y-80661200D01*
X135150349Y-77824200D02*
X135150349Y-80826200D01*
X136831349Y-73366200D02*
X136831349Y-75744200D01*
X135070349Y-77824200D02*
X135070349Y-80836200D01*
X135190349Y-77824200D02*
X135190349Y-80821200D01*
X137431349Y-73839200D02*
X137431349Y-79729200D01*
X136471349Y-77824200D02*
X136471349Y-80411200D01*
X135671349Y-72848200D02*
X135671349Y-75744200D01*
X135991349Y-77824200D02*
X135991349Y-80619200D01*
X135991349Y-72949200D02*
X135991349Y-75744200D01*
X138551349Y-75686200D02*
X138551349Y-77882200D01*
X136631349Y-77824200D02*
X136631349Y-80324200D01*
X136591349Y-77824200D02*
X136591349Y-80346200D01*
X137951349Y-74439200D02*
X137951349Y-79129200D01*
X138151349Y-74750200D02*
X138151349Y-78818200D01*
X138471349Y-75438200D02*
X138471349Y-78130200D01*
X138031349Y-74556200D02*
X138031349Y-79012200D01*
X137671349Y-74087200D02*
X137671349Y-79481200D01*
X135871349Y-72907200D02*
X135871349Y-75744200D01*
X136631349Y-73244200D02*
X136631349Y-75744200D01*
X136511349Y-73178200D02*
X136511349Y-75744200D01*
X138511349Y-75555200D02*
X138511349Y-78013200D01*
X136231349Y-73044200D02*
X136231349Y-75744200D01*
X137071349Y-73534200D02*
X137071349Y-80034200D01*
X136871349Y-77824200D02*
X136871349Y-80176200D01*
X135110349Y-77824200D02*
X135110349Y-80832200D01*
X135711349Y-72859200D02*
X135711349Y-75744200D01*
X136311349Y-77824200D02*
X136311349Y-80488200D01*
X136831349Y-77824200D02*
X136831349Y-80202200D01*
X138591349Y-75836200D02*
X138591349Y-77732200D01*
X136431349Y-77824200D02*
X136431349Y-80431200D01*
X134670349Y-72704200D02*
X134670349Y-80864200D01*
X135190349Y-72747200D02*
X135190349Y-75744200D01*
X135591349Y-77824200D02*
X135591349Y-80741200D01*
X135351349Y-77824200D02*
X135351349Y-80794200D01*
X135391349Y-72782200D02*
X135391349Y-75744200D01*
X135351349Y-72774200D02*
X135351349Y-75744200D01*
X135911349Y-77824200D02*
X135911349Y-80647200D01*
X134910349Y-72716200D02*
X134910349Y-75744200D01*
X137231349Y-73660200D02*
X137231349Y-79908200D01*
X138311349Y-75053200D02*
X138311349Y-78515200D01*
X136151349Y-77824200D02*
X136151349Y-80558200D01*
X134870349Y-77824200D02*
X134870349Y-80855200D01*
X135631349Y-77824200D02*
X135631349Y-80731200D01*
X135711349Y-77824200D02*
X135711349Y-80709200D01*
X136111349Y-77824200D02*
X136111349Y-80574200D01*
X134790349Y-72708200D02*
X134790349Y-80860200D01*
X135551349Y-77824200D02*
X135551349Y-80751200D01*
X136471349Y-73157200D02*
X136471349Y-75744200D01*
X136551349Y-77824200D02*
X136551349Y-80368200D01*
X137511349Y-73917200D02*
X137511349Y-79651200D01*
X136791349Y-77824200D02*
X136791349Y-80228200D01*
X134990349Y-72723200D02*
X134990349Y-75744200D01*
X138271349Y-74971200D02*
X138271349Y-78597200D01*
X136311349Y-73080200D02*
X136311349Y-75744200D01*
X135150349Y-72742200D02*
X135150349Y-75744200D01*
X134830349Y-77824200D02*
X134830349Y-80858200D01*
X137031349Y-73504200D02*
X137031349Y-80064200D01*
X136711349Y-73291200D02*
X136711349Y-75744200D01*
X136871349Y-73392200D02*
X136871349Y-75744200D01*
X135110349Y-72736200D02*
X135110349Y-75744200D01*
X137911349Y-74384200D02*
X137911349Y-79184200D01*
X136271349Y-73062200D02*
X136271349Y-75744200D01*
X135631349Y-72837200D02*
X135631349Y-75744200D01*
X135270349Y-72760200D02*
X135270349Y-75744200D01*
X136391349Y-73118200D02*
X136391349Y-75744200D01*
X136151349Y-73010200D02*
X136151349Y-75744200D01*
X134870349Y-72713200D02*
X134870349Y-75744200D01*
X137471349Y-73877200D02*
X137471349Y-79691200D01*
X137751349Y-74180200D02*
X137751349Y-79388200D01*
X137391349Y-73801200D02*
X137391349Y-79767200D01*
X136671349Y-77824200D02*
X136671349Y-80301200D01*
X138071349Y-74618200D02*
X138071349Y-78950200D01*
X134750349Y-72707200D02*
X134750349Y-80861200D01*
X135751349Y-77824200D02*
X135751349Y-80698200D01*
X136551349Y-73200200D02*
X136551349Y-75744200D01*
X135791349Y-77824200D02*
X135791349Y-80686200D01*
X135471349Y-77824200D02*
X135471349Y-80769200D01*
X136431349Y-73137200D02*
X136431349Y-75744200D01*
X134830349Y-72710200D02*
X134830349Y-75744200D01*
X130180651Y-74469200D02*
X130980651Y-74469200D01*
X136791349Y-73340200D02*
X136791349Y-75744200D01*
X136191349Y-73027200D02*
X136191349Y-75744200D01*
X138671349Y-76251200D02*
X138671349Y-77317200D01*
X136071349Y-77824200D02*
X136071349Y-80589200D01*
X135230349Y-77824200D02*
X135230349Y-80814200D01*
X135070349Y-72732200D02*
X135070349Y-75744200D01*
X135911349Y-72921200D02*
X135911349Y-75744200D01*
X135431349Y-77824200D02*
X135431349Y-80778200D01*
X137631349Y-74043200D02*
X137631349Y-79525200D01*
%TO.C,C4*%
X128016052Y-81885200D02*
X126593548Y-81885200D01*
X128016052Y-80065200D02*
X126593548Y-80065200D01*
%TO.C,C19*%
X92836948Y-49839200D02*
X94259452Y-49839200D01*
X92836948Y-51659200D02*
X94259452Y-51659200D01*
%TO.C,Q2*%
X116397400Y-62756800D02*
X106157400Y-62756800D01*
X109426400Y-62756800D02*
X109426400Y-61246800D01*
X116397400Y-62756800D02*
X116397400Y-58115800D01*
X113127400Y-62756800D02*
X113127400Y-61246800D01*
X106157400Y-62756800D02*
X106157400Y-58115800D01*
X116397400Y-61246800D02*
X106157400Y-61246800D01*
X116397400Y-58115800D02*
X106157400Y-58115800D01*
%TO.C,RV2*%
X130876200Y-65448600D02*
X125806200Y-65448600D01*
X130876200Y-55678600D02*
X130876200Y-65448600D01*
X130876200Y-55678600D02*
X125806200Y-55678600D01*
X125806200Y-55678600D02*
X125806200Y-65448600D01*
%TO.C,C9*%
X110110748Y-118943800D02*
X111533252Y-118943800D01*
X110110748Y-117123800D02*
X111533252Y-117123800D01*
%TO.C,C14*%
X126947452Y-54504000D02*
X125524948Y-54504000D01*
X126947452Y-52684000D02*
X125524948Y-52684000D01*
%TO.C,C15*%
X92659148Y-55478000D02*
X94081652Y-55478000D01*
X92659148Y-57298000D02*
X94081652Y-57298000D01*
%TO.C,J5*%
X88163400Y-120633800D02*
X86833400Y-120633800D01*
X94573400Y-120633800D02*
X94573400Y-117973800D01*
X86833400Y-120633800D02*
X86833400Y-119303800D01*
X89433400Y-120633800D02*
X89433400Y-117973800D01*
X89433400Y-117973800D02*
X94573400Y-117973800D01*
X89433400Y-120633800D02*
X94573400Y-120633800D01*
%TO.C,TP4*%
X109005800Y-69229400D02*
X108955800Y-69229400D01*
X110855800Y-71079400D02*
X110855800Y-69229400D01*
X110855800Y-69229400D02*
X109005800Y-69229400D01*
X108955800Y-71079400D02*
X110855800Y-71079400D01*
X108955800Y-69229400D02*
X108955800Y-71079400D01*
%TO.C,R3*%
X105197264Y-74138200D02*
X103743136Y-74138200D01*
X105197264Y-72318200D02*
X103743136Y-72318200D01*
%TO.C,J6*%
X104287400Y-78719600D02*
X101687400Y-78719600D01*
X103017400Y-81319600D02*
X101687400Y-81319600D01*
X106887400Y-81319600D02*
X106887400Y-76119600D01*
X104287400Y-81319600D02*
X106887400Y-81319600D01*
X104287400Y-81319600D02*
X104287400Y-78719600D01*
X101687400Y-78719600D02*
X101687400Y-76119600D01*
X101687400Y-76119600D02*
X106887400Y-76119600D01*
X101687400Y-81319600D02*
X101687400Y-79989600D01*
%TO.C,C10*%
X117678148Y-70413200D02*
X119100652Y-70413200D01*
X117678148Y-72233200D02*
X119100652Y-72233200D01*
%TO.C,TP2*%
X118023600Y-48071200D02*
X118023600Y-49921200D01*
X119923600Y-48071200D02*
X118073600Y-48071200D01*
X119923600Y-49921200D02*
X119923600Y-48071200D01*
X118073600Y-48071200D02*
X118023600Y-48071200D01*
X118023600Y-49921200D02*
X119923600Y-49921200D01*
%TO.C,D2*%
X136166200Y-64823000D02*
X136166200Y-59383000D01*
X136166200Y-60163000D02*
X133226200Y-60163000D01*
X134696200Y-65843000D02*
X134696200Y-64823000D01*
X133226200Y-64823000D02*
X136166200Y-64823000D01*
X136166200Y-60283000D02*
X133226200Y-60283000D01*
X136166200Y-60403000D02*
X133226200Y-60403000D01*
X133226200Y-59383000D02*
X133226200Y-64823000D01*
X136166200Y-59383000D02*
X133226200Y-59383000D01*
X134696200Y-58363000D02*
X134696200Y-59383000D01*
%TO.C,J3*%
X111399400Y-45907000D02*
X113999400Y-45907000D01*
X111399400Y-43247000D02*
X113999400Y-43247000D01*
X108799400Y-45907000D02*
X108799400Y-44577000D01*
X111399400Y-45907000D02*
X111399400Y-43247000D01*
X110129400Y-45907000D02*
X108799400Y-45907000D01*
X113999400Y-45907000D02*
X113999400Y-43247000D01*
%TO.C,RV1*%
X126128200Y-90916600D02*
X126128200Y-95986600D01*
X126128200Y-95986600D02*
X135898200Y-95986600D01*
X126128200Y-90916600D02*
X135898200Y-90916600D01*
X135898200Y-90916600D02*
X135898200Y-95986600D01*
%TO.C,R6*%
X84032736Y-66416600D02*
X85486864Y-66416600D01*
X84032736Y-64596600D02*
X85486864Y-64596600D01*
%TO.C,C11*%
X117728948Y-75205000D02*
X119151452Y-75205000D01*
X117728948Y-73385000D02*
X119151452Y-73385000D01*
%TO.C,C1*%
X129662600Y-98321548D02*
X129662600Y-99744052D01*
X127842600Y-98321548D02*
X127842600Y-99744052D01*
%TO.C,R4*%
X115941464Y-67263600D02*
X114487336Y-67263600D01*
X115941464Y-69083600D02*
X114487336Y-69083600D01*
%TO.C,D3*%
X82423000Y-100298400D02*
X82423000Y-101318400D01*
X83893000Y-101318400D02*
X80953000Y-101318400D01*
X83893000Y-106758400D02*
X83893000Y-101318400D01*
X83893000Y-102098400D02*
X80953000Y-102098400D01*
X82423000Y-107778400D02*
X82423000Y-106758400D01*
X80953000Y-106758400D02*
X83893000Y-106758400D01*
X83893000Y-102218400D02*
X80953000Y-102218400D01*
X83893000Y-102338400D02*
X80953000Y-102338400D01*
X80953000Y-101318400D02*
X80953000Y-106758400D01*
%TO.C,TP3*%
X85963800Y-82204600D02*
X85963800Y-80354600D01*
X85963800Y-80354600D02*
X84113800Y-80354600D01*
X84113800Y-80354600D02*
X84063800Y-80354600D01*
X84063800Y-80354600D02*
X84063800Y-82204600D01*
X84063800Y-82204600D02*
X85963800Y-82204600D01*
%TO.C,T2*%
X104438302Y-41249600D02*
G75*
G03*
X104438302Y-41249600I-5403702J0D01*
G01*
X101037098Y-41249600D02*
G75*
G03*
X101037098Y-41249600I-2002498J0D01*
G01*
%TO.C,T1*%
X111448702Y-105511600D02*
G75*
G03*
X111448702Y-105511600I-5403702J0D01*
G01*
X108047498Y-105511600D02*
G75*
G03*
X108047498Y-105511600I-2002498J0D01*
G01*
%TO.C,C5*%
X86060400Y-91689749D02*
G75*
G03*
X86060400Y-91689749I-4120000J0D01*
G01*
X85730400Y-93210749D02*
X82980400Y-93210749D01*
X85697400Y-93290749D02*
X82980400Y-93290749D01*
X85897400Y-92690749D02*
X82980400Y-92690749D01*
X80900400Y-92810749D02*
X78015400Y-92810749D01*
X85524400Y-93650749D02*
X82980400Y-93650749D01*
X85278400Y-94050749D02*
X78602400Y-94050749D01*
X83671400Y-95410749D02*
X80209400Y-95410749D01*
X80900400Y-92129749D02*
X77883400Y-92129749D01*
X84959400Y-94450749D02*
X78921400Y-94450749D01*
X80900400Y-93050749D02*
X78090400Y-93050749D01*
X86011400Y-91969749D02*
X82980400Y-91969749D01*
X80900400Y-92009749D02*
X77872400Y-92009749D01*
X83585400Y-95450749D02*
X80295400Y-95450749D01*
X84885400Y-94530749D02*
X78995400Y-94530749D01*
X80900400Y-92970749D02*
X78063400Y-92970749D01*
X85680400Y-93330749D02*
X82980400Y-93330749D01*
X80900400Y-93090749D02*
X78105400Y-93090749D01*
X86020400Y-91729749D02*
X77860400Y-91729749D01*
X86005400Y-92049749D02*
X82980400Y-92049749D01*
X85606400Y-93490749D02*
X82980400Y-93490749D01*
X83286400Y-95570749D02*
X80594400Y-95570749D01*
X85957400Y-92410749D02*
X82980400Y-92410749D01*
X84106400Y-95170749D02*
X79774400Y-95170749D01*
X85829400Y-92930749D02*
X82980400Y-92930749D01*
X84847400Y-94570749D02*
X79033400Y-94570749D01*
X84227400Y-95090749D02*
X79653400Y-95090749D01*
X85662400Y-93370749D02*
X82980400Y-93370749D01*
X85761400Y-93130749D02*
X82980400Y-93130749D01*
X82888400Y-95690749D02*
X80992400Y-95690749D01*
X85249400Y-94090749D02*
X78631400Y-94090749D01*
X85745400Y-93170749D02*
X82980400Y-93170749D01*
X85480400Y-93730749D02*
X82980400Y-93730749D01*
X85817400Y-92970749D02*
X82980400Y-92970749D01*
X80900400Y-92410749D02*
X77923400Y-92410749D01*
X85626400Y-93450749D02*
X82980400Y-93450749D01*
X80900400Y-92329749D02*
X77910400Y-92329749D01*
X80900400Y-92530749D02*
X77946400Y-92530749D01*
X85409400Y-93850749D02*
X82980400Y-93850749D01*
X80900400Y-93450749D02*
X78254400Y-93450749D01*
X85457400Y-93770749D02*
X82980400Y-93770749D01*
X85934400Y-92530749D02*
X82980400Y-92530749D01*
X80900400Y-93010749D02*
X78077400Y-93010749D01*
X80900400Y-93570749D02*
X78313400Y-93570749D01*
X80900400Y-92490749D02*
X77938400Y-92490749D01*
X85433400Y-93810749D02*
X82980400Y-93810749D01*
X86019400Y-91809749D02*
X77861400Y-91809749D01*
X80900400Y-93250749D02*
X78166400Y-93250749D01*
X84724400Y-94690749D02*
X79156400Y-94690749D01*
X85942400Y-92490749D02*
X82980400Y-92490749D01*
X80900400Y-92049749D02*
X77875400Y-92049749D01*
X84394400Y-94970749D02*
X79486400Y-94970749D01*
X85030400Y-94370749D02*
X78850400Y-94370749D01*
X80900400Y-93930749D02*
X78522400Y-93930749D01*
X85842400Y-92890749D02*
X82980400Y-92890749D01*
X85988400Y-92209749D02*
X82980400Y-92209749D01*
X84255400Y-87280051D02*
X84255400Y-88080051D01*
X83393400Y-95530749D02*
X80487400Y-95530749D01*
X86020400Y-91689749D02*
X77860400Y-91689749D01*
X83492400Y-95490749D02*
X80388400Y-95490749D01*
X85587400Y-93530749D02*
X82980400Y-93530749D01*
X80900400Y-92369749D02*
X77916400Y-92369749D01*
X86017400Y-91849749D02*
X77863400Y-91849749D01*
X86014400Y-91929749D02*
X82980400Y-91929749D01*
X80900400Y-93490749D02*
X78274400Y-93490749D01*
X80900400Y-92930749D02*
X78051400Y-92930749D01*
X80900400Y-92610749D02*
X77964400Y-92610749D01*
X84168400Y-95130749D02*
X79712400Y-95130749D01*
X80900400Y-93170749D02*
X78135400Y-93170749D01*
X83830400Y-95330749D02*
X80050400Y-95330749D01*
X80900400Y-92169749D02*
X77888400Y-92169749D01*
X80900400Y-93850749D02*
X78471400Y-93850749D01*
X86001400Y-92089749D02*
X82980400Y-92089749D01*
X80900400Y-91929749D02*
X77866400Y-91929749D01*
X84923400Y-94490749D02*
X78957400Y-94490749D01*
X80900400Y-93330749D02*
X78200400Y-93330749D01*
X85970400Y-92329749D02*
X82980400Y-92329749D01*
X82708400Y-95730749D02*
X81172400Y-95730749D01*
X80900400Y-92850749D02*
X78026400Y-92850749D01*
X85096400Y-94290749D02*
X78784400Y-94290749D01*
X85997400Y-92129749D02*
X82980400Y-92129749D01*
X84637400Y-94770749D02*
X79243400Y-94770749D01*
X84995400Y-94410749D02*
X78885400Y-94410749D01*
X85714400Y-93250749D02*
X82980400Y-93250749D01*
X83038400Y-95650749D02*
X80842400Y-95650749D01*
X84285400Y-95050749D02*
X79595400Y-95050749D01*
X85992400Y-92169749D02*
X82980400Y-92169749D01*
X85567400Y-93570749D02*
X82980400Y-93570749D01*
X80900400Y-93610749D02*
X78334400Y-93610749D01*
X84042400Y-95210749D02*
X79838400Y-95210749D01*
X85916400Y-92610749D02*
X82980400Y-92610749D01*
X85160400Y-94210749D02*
X78720400Y-94210749D01*
X80900400Y-92450749D02*
X77930400Y-92450749D01*
X80900400Y-93730749D02*
X78400400Y-93730749D01*
X80900400Y-93130749D02*
X78119400Y-93130749D01*
X85305400Y-94010749D02*
X78575400Y-94010749D01*
X84591400Y-94810749D02*
X79289400Y-94810749D01*
X80900400Y-93290749D02*
X78183400Y-93290749D01*
X85064400Y-94330749D02*
X78816400Y-94330749D01*
X80900400Y-92770749D02*
X78004400Y-92770749D01*
X85358400Y-93930749D02*
X82980400Y-93930749D01*
X86016400Y-91889749D02*
X77864400Y-91889749D01*
X84544400Y-94850749D02*
X79336400Y-94850749D01*
X80900400Y-93210749D02*
X78150400Y-93210749D01*
X85887400Y-92730749D02*
X82980400Y-92730749D01*
X85546400Y-93610749D02*
X82980400Y-93610749D01*
X86008400Y-92009749D02*
X82980400Y-92009749D01*
X85876400Y-92770749D02*
X82980400Y-92770749D01*
X80900400Y-92730749D02*
X77993400Y-92730749D01*
X85865400Y-92810749D02*
X82980400Y-92810749D01*
X84807400Y-94610749D02*
X79073400Y-94610749D01*
X80900400Y-93890749D02*
X78496400Y-93890749D01*
X80900400Y-93770749D02*
X78423400Y-93770749D01*
X80900400Y-92089749D02*
X77879400Y-92089749D01*
X85775400Y-93090749D02*
X82980400Y-93090749D01*
X83169400Y-95610749D02*
X80711400Y-95610749D01*
X84681400Y-94730749D02*
X79199400Y-94730749D01*
X85190400Y-94170749D02*
X78690400Y-94170749D01*
X85790400Y-93050749D02*
X82980400Y-93050749D01*
X80900400Y-93970749D02*
X78548400Y-93970749D01*
X85854400Y-92850749D02*
X82980400Y-92850749D01*
X82473400Y-95770749D02*
X81407400Y-95770749D01*
X85384400Y-93890749D02*
X82980400Y-93890749D01*
X83974400Y-95250749D02*
X79906400Y-95250749D01*
X85803400Y-93010749D02*
X82980400Y-93010749D01*
X80900400Y-92209749D02*
X77892400Y-92209749D01*
X85925400Y-92570749D02*
X82980400Y-92570749D01*
X80900400Y-93530749D02*
X78293400Y-93530749D01*
X85502400Y-93690749D02*
X82980400Y-93690749D01*
X80900400Y-93370749D02*
X78218400Y-93370749D01*
X84496400Y-94890749D02*
X79384400Y-94890749D01*
X85982400Y-92249749D02*
X82980400Y-92249749D01*
X80900400Y-92890749D02*
X78038400Y-92890749D01*
X80900400Y-92570749D02*
X77955400Y-92570749D01*
X80900400Y-93690749D02*
X78378400Y-93690749D01*
X80900400Y-92249749D02*
X77898400Y-92249749D01*
X85644400Y-93410749D02*
X82980400Y-93410749D01*
X84655400Y-87680051D02*
X83855400Y-87680051D01*
X80900400Y-93410749D02*
X78236400Y-93410749D01*
X80900400Y-92289749D02*
X77903400Y-92289749D01*
X85220400Y-94130749D02*
X78660400Y-94130749D01*
X86020400Y-91769749D02*
X77860400Y-91769749D01*
X85129400Y-94250749D02*
X78751400Y-94250749D01*
X84445400Y-94930749D02*
X79435400Y-94930749D01*
X80900400Y-93650749D02*
X78356400Y-93650749D01*
X80900400Y-91969749D02*
X77869400Y-91969749D01*
X85332400Y-93970749D02*
X82980400Y-93970749D01*
X80900400Y-93810749D02*
X78447400Y-93810749D01*
X85950400Y-92450749D02*
X82980400Y-92450749D01*
X80900400Y-92650749D02*
X77973400Y-92650749D01*
X83753400Y-95370749D02*
X80127400Y-95370749D01*
X85907400Y-92650749D02*
X82980400Y-92650749D01*
X85964400Y-92369749D02*
X82980400Y-92369749D01*
X80900400Y-92690749D02*
X77983400Y-92690749D01*
X85977400Y-92289749D02*
X82980400Y-92289749D01*
X84766400Y-94650749D02*
X79114400Y-94650749D01*
X84340400Y-95010749D02*
X79540400Y-95010749D01*
X83904400Y-95290749D02*
X79976400Y-95290749D01*
%TO.C,J2*%
X114955400Y-97291200D02*
X113625400Y-97291200D01*
X116225400Y-97291200D02*
X118825400Y-97291200D01*
X113625400Y-97291200D02*
X113625400Y-95961200D01*
X116225400Y-94631200D02*
X118825400Y-94631200D01*
X116225400Y-97291200D02*
X116225400Y-94631200D01*
X118825400Y-97291200D02*
X118825400Y-94631200D01*
%TO.C,C12*%
X107345600Y-119181051D02*
G75*
G03*
X107345600Y-119181051I-4120000J0D01*
G01*
X99151600Y-118941051D02*
X102185600Y-118941051D01*
X99149600Y-118981051D02*
X107301600Y-118981051D01*
X99164600Y-118781051D02*
X102185600Y-118781051D01*
X104265600Y-117180051D02*
X106787600Y-117180051D01*
X104265600Y-117260051D02*
X106831600Y-117260051D01*
X100621600Y-116020051D02*
X105829600Y-116020051D01*
X99663600Y-117180051D02*
X102185600Y-117180051D01*
X104265600Y-118781051D02*
X107286600Y-118781051D01*
X104265600Y-118060051D02*
X107150600Y-118060051D01*
X104265600Y-117420051D02*
X106911600Y-117420051D01*
X99323600Y-117980051D02*
X102185600Y-117980051D01*
X99781600Y-116980051D02*
X102185600Y-116980051D01*
X104265600Y-118020051D02*
X107139600Y-118020051D01*
X99732600Y-117060051D02*
X102185600Y-117060051D01*
X99188600Y-118581051D02*
X102185600Y-118581051D01*
X104265600Y-117860051D02*
X107088600Y-117860051D01*
X101772600Y-115340051D02*
X104678600Y-115340051D01*
X100484600Y-116140051D02*
X105966600Y-116140051D01*
X104265600Y-118901051D02*
X107296600Y-118901051D01*
X104265600Y-118460051D02*
X107242600Y-118460051D01*
X99916600Y-116780051D02*
X106534600Y-116780051D01*
X100318600Y-116300051D02*
X106132600Y-116300051D01*
X99336600Y-117940051D02*
X102185600Y-117940051D01*
X99154600Y-118901051D02*
X102185600Y-118901051D01*
X99641600Y-117220051D02*
X102185600Y-117220051D01*
X104265600Y-118260051D02*
X107201600Y-118260051D01*
X102457600Y-115140051D02*
X103993600Y-115140051D01*
X99887600Y-116820051D02*
X106563600Y-116820051D01*
X101059600Y-115700051D02*
X105391600Y-115700051D01*
X104265600Y-117380051D02*
X106891600Y-117380051D01*
X100528600Y-116100051D02*
X105922600Y-116100051D01*
X104265600Y-117220051D02*
X106809600Y-117220051D01*
X99148600Y-119021051D02*
X107302600Y-119021051D01*
X99183600Y-118621051D02*
X102185600Y-118621051D01*
X101494600Y-115460051D02*
X104956600Y-115460051D01*
X99807600Y-116940051D02*
X102185600Y-116940051D01*
X100825600Y-115860051D02*
X105625600Y-115860051D01*
X100997600Y-115740051D02*
X105453600Y-115740051D01*
X101123600Y-115660051D02*
X105327600Y-115660051D01*
X100036600Y-116620051D02*
X106414600Y-116620051D01*
X100206600Y-116420051D02*
X106244600Y-116420051D01*
X104265600Y-118821051D02*
X107290600Y-118821051D01*
X104265600Y-117580051D02*
X106982600Y-117580051D01*
X100510600Y-123190749D02*
X101310600Y-123190749D01*
X104265600Y-118300051D02*
X107210600Y-118300051D01*
X104265600Y-117780051D02*
X107060600Y-117780051D01*
X104265600Y-117460051D02*
X106929600Y-117460051D01*
X99215600Y-118420051D02*
X102185600Y-118420051D01*
X104265600Y-117500051D02*
X106947600Y-117500051D01*
X99177600Y-118661051D02*
X102185600Y-118661051D01*
X104265600Y-118140051D02*
X107172600Y-118140051D01*
X104265600Y-118541051D02*
X107255600Y-118541051D01*
X99160600Y-118821051D02*
X102185600Y-118821051D01*
X99258600Y-118220051D02*
X102185600Y-118220051D01*
X99362600Y-117860051D02*
X102185600Y-117860051D01*
X101412600Y-115500051D02*
X105038600Y-115500051D01*
X100101600Y-116540051D02*
X106349600Y-116540051D01*
X104265600Y-118501051D02*
X107249600Y-118501051D01*
X99598600Y-117300051D02*
X102185600Y-117300051D01*
X99860600Y-116860051D02*
X106590600Y-116860051D01*
X104265600Y-118380051D02*
X107227600Y-118380051D01*
X99521600Y-117460051D02*
X102185600Y-117460051D01*
X99685600Y-117140051D02*
X102185600Y-117140051D01*
X100669600Y-115980051D02*
X105781600Y-115980051D01*
X104265600Y-116900051D02*
X106617600Y-116900051D01*
X104265600Y-118340051D02*
X107219600Y-118340051D01*
X104265600Y-117820051D02*
X107075600Y-117820051D01*
X101673600Y-115380051D02*
X104777600Y-115380051D01*
X100938600Y-115780051D02*
X105512600Y-115780051D01*
X99289600Y-118100051D02*
X102185600Y-118100051D01*
X99145600Y-119181051D02*
X107305600Y-119181051D01*
X104265600Y-117020051D02*
X106694600Y-117020051D01*
X101879600Y-115300051D02*
X104571600Y-115300051D01*
X101261600Y-115580051D02*
X105189600Y-115580051D01*
X101335600Y-115540051D02*
X105115600Y-115540051D01*
X100720600Y-115940051D02*
X105730600Y-115940051D01*
X99578600Y-117340051D02*
X102185600Y-117340051D01*
X104265600Y-117060051D02*
X106718600Y-117060051D01*
X104265600Y-118581051D02*
X107262600Y-118581051D01*
X104265600Y-118100051D02*
X107161600Y-118100051D01*
X104265600Y-118941051D02*
X107299600Y-118941051D01*
X104265600Y-118180051D02*
X107182600Y-118180051D01*
X99311600Y-118020051D02*
X102185600Y-118020051D01*
X101580600Y-115420051D02*
X104870600Y-115420051D01*
X99503600Y-117500051D02*
X102185600Y-117500051D01*
X99195600Y-118541051D02*
X102185600Y-118541051D01*
X100358600Y-116260051D02*
X106092600Y-116260051D01*
X99468600Y-117580051D02*
X102185600Y-117580051D01*
X99268600Y-118180051D02*
X102185600Y-118180051D01*
X104265600Y-117100051D02*
X106742600Y-117100051D01*
X99756600Y-117020051D02*
X102185600Y-117020051D01*
X99390600Y-117780051D02*
X102185600Y-117780051D01*
X100880600Y-115820051D02*
X105570600Y-115820051D01*
X100069600Y-116580051D02*
X106381600Y-116580051D01*
X99201600Y-118501051D02*
X102185600Y-118501051D01*
X104265600Y-117340051D02*
X106872600Y-117340051D01*
X100910600Y-123590749D02*
X100910600Y-122790749D01*
X102277600Y-115180051D02*
X104173600Y-115180051D01*
X104265600Y-117740051D02*
X107046600Y-117740051D01*
X99300600Y-118060051D02*
X102185600Y-118060051D01*
X99240600Y-118300051D02*
X102185600Y-118300051D01*
X99945600Y-116740051D02*
X106505600Y-116740051D01*
X100242600Y-116380051D02*
X106208600Y-116380051D01*
X104265600Y-117940051D02*
X107114600Y-117940051D01*
X104265600Y-117660051D02*
X107015600Y-117660051D01*
X104265600Y-118661051D02*
X107273600Y-118661051D01*
X104265600Y-117300051D02*
X106852600Y-117300051D01*
X99157600Y-118861051D02*
X102185600Y-118861051D01*
X100280600Y-116340051D02*
X106170600Y-116340051D01*
X104265600Y-117620051D02*
X106999600Y-117620051D01*
X100574600Y-116060051D02*
X105876600Y-116060051D01*
X104265600Y-118701051D02*
X107277600Y-118701051D01*
X102692600Y-115100051D02*
X103758600Y-115100051D01*
X99420600Y-117700051D02*
X102185600Y-117700051D01*
X99485600Y-117540051D02*
X102185600Y-117540051D01*
X104265600Y-118420051D02*
X107235600Y-118420051D01*
X99249600Y-118260051D02*
X102185600Y-118260051D01*
X104265600Y-117140051D02*
X106765600Y-117140051D01*
X99975600Y-116700051D02*
X106475600Y-116700051D01*
X104265600Y-117900051D02*
X107102600Y-117900051D01*
X99708600Y-117100051D02*
X102185600Y-117100051D01*
X104265600Y-117540051D02*
X106965600Y-117540051D01*
X99146600Y-119061051D02*
X107304600Y-119061051D01*
X99833600Y-116900051D02*
X102185600Y-116900051D01*
X104265600Y-118861051D02*
X107293600Y-118861051D01*
X104265600Y-116940051D02*
X106643600Y-116940051D01*
X104265600Y-118621051D02*
X107267600Y-118621051D01*
X100170600Y-116460051D02*
X106280600Y-116460051D01*
X99231600Y-118340051D02*
X102185600Y-118340051D01*
X99145600Y-119141051D02*
X107305600Y-119141051D01*
X100399600Y-116220051D02*
X106051600Y-116220051D01*
X99539600Y-117420051D02*
X102185600Y-117420051D01*
X99145600Y-119101051D02*
X107305600Y-119101051D01*
X100135600Y-116500051D02*
X106315600Y-116500051D01*
X99208600Y-118460051D02*
X102185600Y-118460051D01*
X104265600Y-118220051D02*
X107192600Y-118220051D01*
X99559600Y-117380051D02*
X102185600Y-117380051D01*
X99375600Y-117820051D02*
X102185600Y-117820051D01*
X99619600Y-117260051D02*
X102185600Y-117260051D01*
X99435600Y-117660051D02*
X102185600Y-117660051D01*
X100005600Y-116660051D02*
X106445600Y-116660051D01*
X101191600Y-115620051D02*
X105259600Y-115620051D01*
X104265600Y-118741051D02*
X107282600Y-118741051D01*
X99173600Y-118701051D02*
X102185600Y-118701051D01*
X104265600Y-117980051D02*
X107127600Y-117980051D01*
X104265600Y-117700051D02*
X107030600Y-117700051D01*
X99168600Y-118741051D02*
X102185600Y-118741051D01*
X99223600Y-118380051D02*
X102185600Y-118380051D01*
X99451600Y-117620051D02*
X102185600Y-117620051D01*
X101996600Y-115260051D02*
X104454600Y-115260051D01*
X99278600Y-118140051D02*
X102185600Y-118140051D01*
X100771600Y-115900051D02*
X105679600Y-115900051D01*
X100441600Y-116180051D02*
X106009600Y-116180051D01*
X99404600Y-117740051D02*
X102185600Y-117740051D01*
X102127600Y-115220051D02*
X104323600Y-115220051D01*
X104265600Y-116980051D02*
X106669600Y-116980051D01*
X99348600Y-117900051D02*
X102185600Y-117900051D01*
D13*
%TO.C,U1*%
X113424050Y-82448400D02*
X109360050Y-82448400D01*
X109360050Y-82448400D02*
X109360050Y-77368400D01*
X113424050Y-77368400D02*
X113424050Y-82448400D01*
X109360050Y-77368400D02*
X113424050Y-77368400D01*
D12*
%TO.C,C16*%
X97663949Y-65405000D02*
G75*
G03*
X97663949Y-65405000I-4120000J0D01*
G01*
X93983949Y-61348000D02*
X93983949Y-64365000D01*
X95024949Y-61600000D02*
X95024949Y-64365000D01*
X97424949Y-64059000D02*
X97424949Y-66751000D01*
X94744949Y-66445000D02*
X94744949Y-69307000D01*
X94744949Y-61503000D02*
X94744949Y-64365000D01*
X96104949Y-62216000D02*
X96104949Y-68594000D01*
X95704949Y-61936000D02*
X95704949Y-64365000D01*
X97464949Y-64176000D02*
X97464949Y-66634000D01*
X93743949Y-61329000D02*
X93743949Y-69481000D01*
X93583949Y-61325000D02*
X93583949Y-69485000D01*
X94424949Y-61420000D02*
X94424949Y-64365000D01*
X96904949Y-63060000D02*
X96904949Y-67750000D01*
X94103949Y-61363000D02*
X94103949Y-64365000D01*
X95864949Y-62040000D02*
X95864949Y-68770000D01*
X94304949Y-61395000D02*
X94304949Y-64365000D01*
X94584949Y-66445000D02*
X94584949Y-69352000D01*
X94264949Y-66445000D02*
X94264949Y-69422000D01*
X95544949Y-66445000D02*
X95544949Y-68967000D01*
X93703949Y-61328000D02*
X93703949Y-69482000D01*
X97624949Y-64872000D02*
X97624949Y-65938000D01*
X96784949Y-62900000D02*
X96784949Y-67910000D01*
X96664949Y-62754000D02*
X96664949Y-68056000D01*
X94904949Y-66445000D02*
X94904949Y-69255000D01*
X94544949Y-61448000D02*
X94544949Y-64365000D01*
X95784949Y-66445000D02*
X95784949Y-68823000D01*
X95184949Y-66445000D02*
X95184949Y-69145000D01*
X96504949Y-62579000D02*
X96504949Y-68231000D01*
X93863949Y-61337000D02*
X93863949Y-64365000D01*
X93943949Y-61344000D02*
X93943949Y-64365000D01*
X95584949Y-66445000D02*
X95584949Y-68945000D01*
X93823949Y-66445000D02*
X93823949Y-69476000D01*
X93543949Y-61325000D02*
X93543949Y-69485000D01*
X96064949Y-62185000D02*
X96064949Y-68625000D01*
X96704949Y-62801000D02*
X96704949Y-68009000D01*
X96864949Y-63005000D02*
X96864949Y-67805000D01*
X95624949Y-66445000D02*
X95624949Y-68922000D01*
X95544949Y-61843000D02*
X95544949Y-64365000D01*
X95224949Y-61683000D02*
X95224949Y-64365000D01*
X94864949Y-61542000D02*
X94864949Y-64365000D01*
X96184949Y-62281000D02*
X96184949Y-68529000D01*
X94824949Y-61528000D02*
X94824949Y-64365000D01*
X94704949Y-61491000D02*
X94704949Y-64365000D01*
X94784949Y-66445000D02*
X94784949Y-69294000D01*
X94784949Y-61516000D02*
X94784949Y-64365000D01*
X93943949Y-66445000D02*
X93943949Y-69466000D01*
X94984949Y-66445000D02*
X94984949Y-69226000D01*
X95264949Y-61701000D02*
X95264949Y-64365000D01*
X96344949Y-62422000D02*
X96344949Y-68388000D01*
X95344949Y-61739000D02*
X95344949Y-64365000D01*
X95464949Y-61799000D02*
X95464949Y-64365000D01*
X95464949Y-66445000D02*
X95464949Y-69011000D01*
X93983949Y-66445000D02*
X93983949Y-69462000D01*
X96744949Y-62849000D02*
X96744949Y-67961000D01*
X94864949Y-66445000D02*
X94864949Y-69268000D01*
X95104949Y-61631000D02*
X95104949Y-64365000D01*
X95824949Y-62013000D02*
X95824949Y-64365000D01*
X94264949Y-61388000D02*
X94264949Y-64365000D01*
X96024949Y-62155000D02*
X96024949Y-68655000D01*
X97064949Y-63303000D02*
X97064949Y-67507000D01*
X93623949Y-61325000D02*
X93623949Y-69485000D01*
X96984949Y-63177000D02*
X96984949Y-67633000D01*
X94143949Y-61368000D02*
X94143949Y-64365000D01*
X94944949Y-66445000D02*
X94944949Y-69240000D01*
X95744949Y-66445000D02*
X95744949Y-68849000D01*
X94584949Y-61458000D02*
X94584949Y-64365000D01*
X95024949Y-66445000D02*
X95024949Y-69210000D01*
X94344949Y-66445000D02*
X94344949Y-69407000D01*
X95224949Y-66445000D02*
X95224949Y-69127000D01*
X94223949Y-61381000D02*
X94223949Y-64365000D01*
X97144949Y-63441000D02*
X97144949Y-67369000D01*
X97104949Y-63371000D02*
X97104949Y-67439000D01*
X95304949Y-66445000D02*
X95304949Y-69091000D01*
X89134251Y-63090000D02*
X89934251Y-63090000D01*
X97584949Y-64637000D02*
X97584949Y-66173000D01*
X95344949Y-66445000D02*
X95344949Y-69071000D01*
X93663949Y-61326000D02*
X93663949Y-69484000D01*
X95624949Y-61888000D02*
X95624949Y-64365000D01*
X96384949Y-62460000D02*
X96384949Y-68350000D01*
X95144949Y-61648000D02*
X95144949Y-64365000D01*
X94624949Y-61469000D02*
X94624949Y-64365000D01*
X96304949Y-62386000D02*
X96304949Y-68424000D01*
X94464949Y-66445000D02*
X94464949Y-69381000D01*
X94824949Y-66445000D02*
X94824949Y-69282000D01*
X94704949Y-66445000D02*
X94704949Y-69319000D01*
X94544949Y-66445000D02*
X94544949Y-69362000D01*
X93783949Y-66445000D02*
X93783949Y-69479000D01*
X95064949Y-66445000D02*
X95064949Y-69195000D01*
X95384949Y-61758000D02*
X95384949Y-64365000D01*
X95904949Y-62067000D02*
X95904949Y-68743000D01*
X93863949Y-66445000D02*
X93863949Y-69473000D01*
X97224949Y-63592000D02*
X97224949Y-67218000D01*
X94183949Y-66445000D02*
X94183949Y-69435000D01*
X97024949Y-63239000D02*
X97024949Y-67571000D01*
X96224949Y-62315000D02*
X96224949Y-68495000D01*
X94984949Y-61584000D02*
X94984949Y-64365000D01*
X94424949Y-66445000D02*
X94424949Y-69390000D01*
X96824949Y-62951000D02*
X96824949Y-67859000D01*
X94063949Y-66445000D02*
X94063949Y-69453000D01*
X95064949Y-61615000D02*
X95064949Y-64365000D01*
X95984949Y-62125000D02*
X95984949Y-68685000D01*
X93903949Y-66445000D02*
X93903949Y-69470000D01*
X93823949Y-61334000D02*
X93823949Y-64365000D01*
X95264949Y-66445000D02*
X95264949Y-69109000D01*
X94023949Y-61353000D02*
X94023949Y-64365000D01*
X95424949Y-61778000D02*
X95424949Y-64365000D01*
X94664949Y-66445000D02*
X94664949Y-69330000D01*
X97344949Y-63853000D02*
X97344949Y-66957000D01*
X93783949Y-61331000D02*
X93783949Y-64365000D01*
X95824949Y-66445000D02*
X95824949Y-68797000D01*
X94904949Y-61555000D02*
X94904949Y-64365000D01*
X94223949Y-66445000D02*
X94223949Y-69429000D01*
X94183949Y-61375000D02*
X94183949Y-64365000D01*
X94143949Y-66445000D02*
X94143949Y-69442000D01*
X95424949Y-66445000D02*
X95424949Y-69032000D01*
X96424949Y-62498000D02*
X96424949Y-68312000D01*
X95504949Y-61821000D02*
X95504949Y-64365000D01*
X94304949Y-66445000D02*
X94304949Y-69415000D01*
X95704949Y-66445000D02*
X95704949Y-68874000D01*
X94344949Y-61403000D02*
X94344949Y-64365000D01*
X96144949Y-62249000D02*
X96144949Y-68561000D01*
X94944949Y-61570000D02*
X94944949Y-64365000D01*
X94103949Y-66445000D02*
X94103949Y-69447000D01*
X97184949Y-63515000D02*
X97184949Y-67295000D01*
X95664949Y-61912000D02*
X95664949Y-64365000D01*
X95304949Y-61719000D02*
X95304949Y-64365000D01*
X96544949Y-62621000D02*
X96544949Y-68189000D01*
X95384949Y-66445000D02*
X95384949Y-69052000D01*
X94464949Y-61429000D02*
X94464949Y-64365000D01*
X94023949Y-66445000D02*
X94023949Y-69457000D01*
X94624949Y-66445000D02*
X94624949Y-69341000D01*
X94384949Y-61411000D02*
X94384949Y-64365000D01*
X97504949Y-64307000D02*
X97504949Y-66503000D01*
X94063949Y-61357000D02*
X94063949Y-64365000D01*
X96464949Y-62538000D02*
X96464949Y-68272000D01*
X97304949Y-63760000D02*
X97304949Y-67050000D01*
X97384949Y-63952000D02*
X97384949Y-66858000D01*
X95784949Y-61987000D02*
X95784949Y-64365000D01*
X95504949Y-66445000D02*
X95504949Y-68989000D01*
X97544949Y-64457000D02*
X97544949Y-66353000D01*
X89534251Y-62690000D02*
X89534251Y-63490000D01*
X95184949Y-61665000D02*
X95184949Y-64365000D01*
X95144949Y-66445000D02*
X95144949Y-69162000D01*
X97264949Y-63674000D02*
X97264949Y-67136000D01*
X94384949Y-66445000D02*
X94384949Y-69399000D01*
X96584949Y-62664000D02*
X96584949Y-68146000D01*
X95944949Y-62096000D02*
X95944949Y-68714000D01*
X93903949Y-61340000D02*
X93903949Y-64365000D01*
X96944949Y-63118000D02*
X96944949Y-67692000D01*
X96264949Y-62350000D02*
X96264949Y-68460000D01*
X95104949Y-66445000D02*
X95104949Y-69179000D01*
X94664949Y-61480000D02*
X94664949Y-64365000D01*
X94504949Y-66445000D02*
X94504949Y-69372000D01*
X95664949Y-66445000D02*
X95664949Y-68898000D01*
X95744949Y-61961000D02*
X95744949Y-64365000D01*
X94504949Y-61438000D02*
X94504949Y-64365000D01*
X95584949Y-61865000D02*
X95584949Y-64365000D01*
X96624949Y-62708000D02*
X96624949Y-68102000D01*
%TO.C,C3*%
X134514000Y-98424948D02*
X134514000Y-99847452D01*
X132694000Y-98424948D02*
X132694000Y-99847452D01*
%TD*%
M02*
