%TF.GenerationSoftware,KiCad,Pcbnew,(6.0.7)*%
%TF.CreationDate,2023-01-12T16:49:01-05:00*%
%TF.ProjectId,Phoenix612_Stage_3_PA_Testing_v1,50686f65-6e69-4783-9631-325f53746167,rev?*%
%TF.SameCoordinates,Original*%
%TF.FileFunction,Paste,Top*%
%TF.FilePolarity,Positive*%
%FSLAX46Y46*%
G04 Gerber Fmt 4.6, Leading zero omitted, Abs format (unit mm)*
G04 Created by KiCad (PCBNEW (6.0.7)) date 2023-01-12 16:49:01*
%MOMM*%
%LPD*%
G01*
G04 APERTURE LIST*
G04 Aperture macros list*
%AMRoundRect*
0 Rectangle with rounded corners*
0 $1 Rounding radius*
0 $2 $3 $4 $5 $6 $7 $8 $9 X,Y pos of 4 corners*
0 Add a 4 corners polygon primitive as box body*
4,1,4,$2,$3,$4,$5,$6,$7,$8,$9,$2,$3,0*
0 Add four circle primitives for the rounded corners*
1,1,$1+$1,$2,$3*
1,1,$1+$1,$4,$5*
1,1,$1+$1,$6,$7*
1,1,$1+$1,$8,$9*
0 Add four rect primitives between the rounded corners*
20,1,$1+$1,$2,$3,$4,$5,0*
20,1,$1+$1,$4,$5,$6,$7,0*
20,1,$1+$1,$6,$7,$8,$9,0*
20,1,$1+$1,$8,$9,$2,$3,0*%
G04 Aperture macros list end*
%ADD10RoundRect,0.250000X-0.312500X-0.625000X0.312500X-0.625000X0.312500X0.625000X-0.312500X0.625000X0*%
%ADD11RoundRect,0.250000X-0.325000X-0.650000X0.325000X-0.650000X0.325000X0.650000X-0.325000X0.650000X0*%
%ADD12R,1.050000X2.200000*%
%ADD13R,1.000000X1.050000*%
%ADD14RoundRect,0.250000X0.312500X0.625000X-0.312500X0.625000X-0.312500X-0.625000X0.312500X-0.625000X0*%
%ADD15RoundRect,0.250000X0.650000X-0.325000X0.650000X0.325000X-0.650000X0.325000X-0.650000X-0.325000X0*%
%ADD16RoundRect,0.250000X0.325000X0.650000X-0.325000X0.650000X-0.325000X-0.650000X0.325000X-0.650000X0*%
%ADD17RoundRect,0.250000X-0.650000X0.325000X-0.650000X-0.325000X0.650000X-0.325000X0.650000X0.325000X0*%
%ADD18R,2.200000X1.050000*%
%ADD19R,1.050000X1.000000*%
G04 APERTURE END LIST*
D10*
%TO.C,R5*%
X127497300Y-48742600D03*
X124572300Y-48742600D03*
%TD*%
D11*
%TO.C,C7*%
X94972400Y-91694000D03*
X92022400Y-91694000D03*
%TD*%
D12*
%TO.C,U2*%
X135129800Y-115341400D03*
X132179800Y-115341400D03*
D13*
X133654800Y-113816400D03*
%TD*%
D12*
%TO.C,U3*%
X131976600Y-37846000D03*
X134926600Y-37846000D03*
D13*
X133451600Y-39371000D03*
%TD*%
D14*
%TO.C,R1*%
X121920000Y-95961200D03*
X124845000Y-95961200D03*
%TD*%
D10*
%TO.C,R2*%
X127954500Y-88798400D03*
X125029500Y-88798400D03*
%TD*%
D15*
%TO.C,C8*%
X102997000Y-91641400D03*
X102997000Y-94591400D03*
%TD*%
D11*
%TO.C,C13*%
X112219000Y-115392200D03*
X109269000Y-115392200D03*
%TD*%
%TO.C,C18*%
X113362000Y-38481000D03*
X110412000Y-38481000D03*
%TD*%
D15*
%TO.C,C2*%
X121285000Y-109394200D03*
X121285000Y-112344200D03*
%TD*%
D16*
%TO.C,C4*%
X125829800Y-80975200D03*
X128779800Y-80975200D03*
%TD*%
D11*
%TO.C,C19*%
X95023200Y-50749200D03*
X92073200Y-50749200D03*
%TD*%
%TO.C,C9*%
X112297000Y-118033800D03*
X109347000Y-118033800D03*
%TD*%
D16*
%TO.C,C14*%
X124761200Y-53594000D03*
X127711200Y-53594000D03*
%TD*%
D11*
%TO.C,C15*%
X94845400Y-56388000D03*
X91895400Y-56388000D03*
%TD*%
D14*
%TO.C,R3*%
X103007700Y-73228200D03*
X105932700Y-73228200D03*
%TD*%
D11*
%TO.C,C10*%
X119864400Y-71323200D03*
X116914400Y-71323200D03*
%TD*%
D10*
%TO.C,R6*%
X86222300Y-65506600D03*
X83297300Y-65506600D03*
%TD*%
D11*
%TO.C,C11*%
X119915200Y-74295000D03*
X116965200Y-74295000D03*
%TD*%
D17*
%TO.C,C1*%
X128752600Y-100507800D03*
X128752600Y-97557800D03*
%TD*%
D14*
%TO.C,R4*%
X113751900Y-68173600D03*
X116676900Y-68173600D03*
%TD*%
D18*
%TO.C,U1*%
X111900050Y-78433400D03*
X111900050Y-81383400D03*
D19*
X110375050Y-79908400D03*
%TD*%
D17*
%TO.C,C3*%
X133604000Y-100611200D03*
X133604000Y-97661200D03*
%TD*%
M02*
