%TF.GenerationSoftware,KiCad,Pcbnew,(6.0.7)*%
%TF.CreationDate,2023-01-12T16:49:01-05:00*%
%TF.ProjectId,Phoenix612_Stage_3_PA_Testing_v1,50686f65-6e69-4783-9631-325f53746167,rev?*%
%TF.SameCoordinates,Original*%
%TF.FileFunction,Soldermask,Bot*%
%TF.FilePolarity,Negative*%
%FSLAX46Y46*%
G04 Gerber Fmt 4.6, Leading zero omitted, Abs format (unit mm)*
G04 Created by KiCad (PCBNEW (6.0.7)) date 2023-01-12 16:49:01*
%MOMM*%
%LPD*%
G01*
G04 APERTURE LIST*
%ADD10C,2.250000*%
%ADD11C,2.050000*%
%ADD12C,2.400000*%
%ADD13O,2.200000X2.200000*%
%ADD14R,2.200000X2.200000*%
%ADD15O,1.050000X1.500000*%
%ADD16R,1.050000X1.500000*%
%ADD17C,1.600000*%
%ADD18R,1.600000X1.600000*%
%ADD19C,1.800000*%
%ADD20R,1.800000X1.800000*%
%ADD21C,1.400000*%
%ADD22O,1.905000X2.000000*%
%ADD23R,1.905000X2.000000*%
%ADD24C,1.440000*%
%ADD25O,1.700000X1.700000*%
%ADD26R,1.700000X1.700000*%
%ADD27C,3.000000*%
G04 APERTURE END LIST*
D10*
%TO.C,J4*%
X124333000Y-42672000D03*
X124333000Y-37592000D03*
X119253000Y-42672000D03*
X119253000Y-37592000D03*
D11*
X121793000Y-40132000D03*
%TD*%
D12*
%TO.C,L2*%
X92075000Y-72560800D03*
X92075000Y-87560800D03*
%TD*%
D13*
%TO.C,D1*%
X138887200Y-85598000D03*
D14*
X128727200Y-85598000D03*
%TD*%
D15*
%TO.C,Q1*%
X122631200Y-103992000D03*
X121361200Y-103992000D03*
D16*
X120091200Y-103992000D03*
%TD*%
D17*
%TO.C,C17*%
X136154800Y-49453800D03*
D18*
X133654800Y-49453800D03*
%TD*%
D10*
%TO.C,J1*%
X118922800Y-115544600D03*
X124002800Y-120624600D03*
X124002800Y-115544600D03*
X118922800Y-120624600D03*
D11*
X121462800Y-118084600D03*
%TD*%
D12*
%TO.C,L1*%
X91922600Y-110758000D03*
X91922600Y-95758000D03*
%TD*%
D19*
%TO.C,D4*%
X83591400Y-73248600D03*
D20*
X83591400Y-70708600D03*
%TD*%
D21*
%TO.C,TP1*%
X121716800Y-88773000D03*
%TD*%
D17*
%TO.C,C6*%
X135840349Y-76784200D03*
D18*
X133340349Y-76784200D03*
%TD*%
D22*
%TO.C,Q2*%
X108737400Y-59486800D03*
X111277400Y-59486800D03*
D23*
X113817400Y-59486800D03*
%TD*%
D24*
%TO.C,RV2*%
X128346200Y-58023600D03*
X128346200Y-60563600D03*
X128346200Y-63103600D03*
%TD*%
D25*
%TO.C,J5*%
X93243400Y-119303800D03*
X90703400Y-119303800D03*
D26*
X88163400Y-119303800D03*
%TD*%
D21*
%TO.C,TP4*%
X109905800Y-70129400D03*
%TD*%
D25*
%TO.C,J6*%
X105557400Y-77449600D03*
X105557400Y-79989600D03*
X103017400Y-77449600D03*
D26*
X103017400Y-79989600D03*
%TD*%
D21*
%TO.C,TP2*%
X118973600Y-48971200D03*
%TD*%
D13*
%TO.C,D2*%
X134696200Y-67183000D03*
D14*
X134696200Y-57023000D03*
%TD*%
D25*
%TO.C,J3*%
X112669400Y-44577000D03*
D26*
X110129400Y-44577000D03*
%TD*%
D24*
%TO.C,RV1*%
X128473200Y-93446600D03*
X131013200Y-93446600D03*
X133553200Y-93446600D03*
%TD*%
D13*
%TO.C,D3*%
X82423000Y-109118400D03*
D14*
X82423000Y-98958400D03*
%TD*%
D21*
%TO.C,TP3*%
X85013800Y-81254600D03*
%TD*%
D27*
%TO.C,T2*%
X105534600Y-38249600D03*
X92534600Y-38249600D03*
X105534600Y-44249600D03*
X92534600Y-44249600D03*
%TD*%
%TO.C,T1*%
X103045000Y-99011600D03*
X103045000Y-112011600D03*
X109045000Y-99011600D03*
X109045000Y-112011600D03*
%TD*%
D17*
%TO.C,C5*%
X81940400Y-92939749D03*
D18*
X81940400Y-90439749D03*
%TD*%
D25*
%TO.C,J2*%
X117495400Y-95961200D03*
D26*
X114955400Y-95961200D03*
%TD*%
D17*
%TO.C,C12*%
X103225600Y-117931051D03*
D18*
X103225600Y-120431051D03*
%TD*%
D17*
%TO.C,C16*%
X94793949Y-65405000D03*
D18*
X92293949Y-65405000D03*
%TD*%
M02*
