M48
; DRILL file {KiCad (6.0.7)} date Thu Jan 12 16:48:58 2023
; FORMAT={-:-/ absolute / metric / decimal}
; #@! TF.CreationDate,2023-01-12T16:48:58-05:00
; #@! TF.GenerationSoftware,Kicad,Pcbnew,(6.0.7)
; #@! TF.FileFunction,MixedPlating,1,2
FMAT,2
METRIC
; #@! TA.AperFunction,Plated,PTH,ComponentDrill
T1C0.700
; #@! TA.AperFunction,Plated,PTH,ComponentDrill
T2C0.750
; #@! TA.AperFunction,Plated,PTH,ComponentDrill
T3C0.800
; #@! TA.AperFunction,Plated,PTH,ComponentDrill
T4C0.900
; #@! TA.AperFunction,Plated,PTH,ComponentDrill
T5C1.000
; #@! TA.AperFunction,Plated,PTH,ComponentDrill
T6C1.100
; #@! TA.AperFunction,Plated,PTH,ComponentDrill
T7C1.200
; #@! TA.AperFunction,Plated,PTH,ComponentDrill
T8C1.500
; #@! TA.AperFunction,Plated,PTH,ComponentDrill
T9C1.700
%
G90
G05
T1
X85.014Y-81.255
X109.906Y-70.129
X118.974Y-48.971
X121.717Y-88.773
T2
X120.091Y-103.992
X121.361Y-103.992
X122.631Y-103.992
T3
X81.94Y-90.44
X81.94Y-92.94
X92.294Y-65.405
X94.794Y-65.405
X103.226Y-117.931
X103.226Y-120.431
X128.346Y-58.024
X128.346Y-60.564
X128.346Y-63.104
X128.473Y-93.447
X131.013Y-93.447
X133.34Y-76.784
X133.553Y-93.447
X133.655Y-49.454
X135.84Y-76.784
X136.155Y-49.454
T4
X83.591Y-70.709
X83.591Y-73.249
T5
X88.163Y-119.304
X90.703Y-119.304
X93.243Y-119.304
X103.017Y-77.45
X103.017Y-79.99
X105.557Y-77.45
X105.557Y-79.99
X110.129Y-44.577
X112.669Y-44.577
X114.955Y-95.961
X117.495Y-95.961
T6
X82.423Y-98.958
X82.423Y-109.118
X108.737Y-59.487
X111.277Y-59.487
X113.817Y-59.487
X128.727Y-85.598
X134.696Y-57.023
X134.696Y-67.183
X138.887Y-85.598
T7
X91.923Y-95.758
X91.923Y-110.758
X92.075Y-72.561
X92.075Y-87.561
X92.535Y-38.25
X92.535Y-44.25
X103.045Y-99.012
X103.045Y-112.012
X105.535Y-38.25
X105.535Y-44.25
X109.045Y-99.012
X109.045Y-112.012
T8
X121.463Y-118.085
X121.793Y-40.132
T9
X118.923Y-115.545
X118.923Y-120.625
X119.253Y-37.592
X119.253Y-42.672
X124.003Y-115.545
X124.003Y-120.625
X124.333Y-37.592
X124.333Y-42.672
T0
M30
