%TF.GenerationSoftware,KiCad,Pcbnew,(6.0.7)*%
%TF.CreationDate,2023-01-12T16:49:01-05:00*%
%TF.ProjectId,Phoenix612_Stage_3_PA_Testing_v1,50686f65-6e69-4783-9631-325f53746167,rev?*%
%TF.SameCoordinates,Original*%
%TF.FileFunction,Soldermask,Top*%
%TF.FilePolarity,Negative*%
%FSLAX46Y46*%
G04 Gerber Fmt 4.6, Leading zero omitted, Abs format (unit mm)*
G04 Created by KiCad (PCBNEW (6.0.7)) date 2023-01-12 16:49:01*
%MOMM*%
%LPD*%
G01*
G04 APERTURE LIST*
G04 Aperture macros list*
%AMRoundRect*
0 Rectangle with rounded corners*
0 $1 Rounding radius*
0 $2 $3 $4 $5 $6 $7 $8 $9 X,Y pos of 4 corners*
0 Add a 4 corners polygon primitive as box body*
4,1,4,$2,$3,$4,$5,$6,$7,$8,$9,$2,$3,0*
0 Add four circle primitives for the rounded corners*
1,1,$1+$1,$2,$3*
1,1,$1+$1,$4,$5*
1,1,$1+$1,$6,$7*
1,1,$1+$1,$8,$9*
0 Add four rect primitives between the rounded corners*
20,1,$1+$1,$2,$3,$4,$5,0*
20,1,$1+$1,$4,$5,$6,$7,0*
20,1,$1+$1,$6,$7,$8,$9,0*
20,1,$1+$1,$8,$9,$2,$3,0*%
G04 Aperture macros list end*
%ADD10RoundRect,0.250000X-0.312500X-0.625000X0.312500X-0.625000X0.312500X0.625000X-0.312500X0.625000X0*%
%ADD11C,2.250000*%
%ADD12C,2.050000*%
%ADD13RoundRect,0.250000X-0.325000X-0.650000X0.325000X-0.650000X0.325000X0.650000X-0.325000X0.650000X0*%
%ADD14C,2.400000*%
%ADD15R,1.050000X2.200000*%
%ADD16R,1.000000X1.050000*%
%ADD17O,2.200000X2.200000*%
%ADD18R,2.200000X2.200000*%
%ADD19RoundRect,0.250000X0.312500X0.625000X-0.312500X0.625000X-0.312500X-0.625000X0.312500X-0.625000X0*%
%ADD20O,1.050000X1.500000*%
%ADD21R,1.050000X1.500000*%
%ADD22C,1.600000*%
%ADD23R,1.600000X1.600000*%
%ADD24RoundRect,0.250000X0.650000X-0.325000X0.650000X0.325000X-0.650000X0.325000X-0.650000X-0.325000X0*%
%ADD25C,1.800000*%
%ADD26R,1.800000X1.800000*%
%ADD27C,1.400000*%
%ADD28RoundRect,0.250000X0.325000X0.650000X-0.325000X0.650000X-0.325000X-0.650000X0.325000X-0.650000X0*%
%ADD29O,1.905000X2.000000*%
%ADD30R,1.905000X2.000000*%
%ADD31C,1.440000*%
%ADD32O,1.700000X1.700000*%
%ADD33R,1.700000X1.700000*%
%ADD34RoundRect,0.250000X-0.650000X0.325000X-0.650000X-0.325000X0.650000X-0.325000X0.650000X0.325000X0*%
%ADD35C,3.000000*%
%ADD36R,2.200000X1.050000*%
%ADD37R,1.050000X1.000000*%
G04 APERTURE END LIST*
D10*
%TO.C,R5*%
X127497300Y-48742600D03*
X124572300Y-48742600D03*
%TD*%
D11*
%TO.C,J4*%
X124333000Y-42672000D03*
X124333000Y-37592000D03*
X119253000Y-42672000D03*
X119253000Y-37592000D03*
D12*
X121793000Y-40132000D03*
%TD*%
D13*
%TO.C,C7*%
X94972400Y-91694000D03*
X92022400Y-91694000D03*
%TD*%
D14*
%TO.C,L2*%
X92075000Y-72560800D03*
X92075000Y-87560800D03*
%TD*%
D15*
%TO.C,U2*%
X135129800Y-115341400D03*
X132179800Y-115341400D03*
D16*
X133654800Y-113816400D03*
%TD*%
D17*
%TO.C,D1*%
X138887200Y-85598000D03*
D18*
X128727200Y-85598000D03*
%TD*%
D15*
%TO.C,U3*%
X131976600Y-37846000D03*
X134926600Y-37846000D03*
D16*
X133451600Y-39371000D03*
%TD*%
D19*
%TO.C,R1*%
X121920000Y-95961200D03*
X124845000Y-95961200D03*
%TD*%
D10*
%TO.C,R2*%
X127954500Y-88798400D03*
X125029500Y-88798400D03*
%TD*%
D20*
%TO.C,Q1*%
X122631200Y-103992000D03*
X121361200Y-103992000D03*
D21*
X120091200Y-103992000D03*
%TD*%
D22*
%TO.C,C17*%
X136154800Y-49453800D03*
D23*
X133654800Y-49453800D03*
%TD*%
D11*
%TO.C,J1*%
X118922800Y-115544600D03*
X124002800Y-120624600D03*
X124002800Y-115544600D03*
X118922800Y-120624600D03*
D12*
X121462800Y-118084600D03*
%TD*%
D24*
%TO.C,C8*%
X102997000Y-91641400D03*
X102997000Y-94591400D03*
%TD*%
D13*
%TO.C,C13*%
X112219000Y-115392200D03*
X109269000Y-115392200D03*
%TD*%
D14*
%TO.C,L1*%
X91922600Y-110758000D03*
X91922600Y-95758000D03*
%TD*%
D13*
%TO.C,C18*%
X113362000Y-38481000D03*
X110412000Y-38481000D03*
%TD*%
D25*
%TO.C,D4*%
X83591400Y-73248600D03*
D26*
X83591400Y-70708600D03*
%TD*%
D24*
%TO.C,C2*%
X121285000Y-109394200D03*
X121285000Y-112344200D03*
%TD*%
D27*
%TO.C,TP1*%
X121716800Y-88773000D03*
%TD*%
D22*
%TO.C,C6*%
X135840349Y-76784200D03*
D23*
X133340349Y-76784200D03*
%TD*%
D28*
%TO.C,C4*%
X125829800Y-80975200D03*
X128779800Y-80975200D03*
%TD*%
D13*
%TO.C,C19*%
X95023200Y-50749200D03*
X92073200Y-50749200D03*
%TD*%
D29*
%TO.C,Q2*%
X108737400Y-59486800D03*
X111277400Y-59486800D03*
D30*
X113817400Y-59486800D03*
%TD*%
D31*
%TO.C,RV2*%
X128346200Y-58023600D03*
X128346200Y-60563600D03*
X128346200Y-63103600D03*
%TD*%
D13*
%TO.C,C9*%
X112297000Y-118033800D03*
X109347000Y-118033800D03*
%TD*%
D28*
%TO.C,C14*%
X124761200Y-53594000D03*
X127711200Y-53594000D03*
%TD*%
D13*
%TO.C,C15*%
X94845400Y-56388000D03*
X91895400Y-56388000D03*
%TD*%
D32*
%TO.C,J5*%
X93243400Y-119303800D03*
X90703400Y-119303800D03*
D33*
X88163400Y-119303800D03*
%TD*%
D27*
%TO.C,TP4*%
X109905800Y-70129400D03*
%TD*%
D19*
%TO.C,R3*%
X103007700Y-73228200D03*
X105932700Y-73228200D03*
%TD*%
D32*
%TO.C,J6*%
X105557400Y-77449600D03*
X105557400Y-79989600D03*
X103017400Y-77449600D03*
D33*
X103017400Y-79989600D03*
%TD*%
D13*
%TO.C,C10*%
X119864400Y-71323200D03*
X116914400Y-71323200D03*
%TD*%
D27*
%TO.C,TP2*%
X118973600Y-48971200D03*
%TD*%
D17*
%TO.C,D2*%
X134696200Y-67183000D03*
D18*
X134696200Y-57023000D03*
%TD*%
D32*
%TO.C,J3*%
X112669400Y-44577000D03*
D33*
X110129400Y-44577000D03*
%TD*%
D31*
%TO.C,RV1*%
X128473200Y-93446600D03*
X131013200Y-93446600D03*
X133553200Y-93446600D03*
%TD*%
D10*
%TO.C,R6*%
X86222300Y-65506600D03*
X83297300Y-65506600D03*
%TD*%
D13*
%TO.C,C11*%
X119915200Y-74295000D03*
X116965200Y-74295000D03*
%TD*%
D34*
%TO.C,C1*%
X128752600Y-100507800D03*
X128752600Y-97557800D03*
%TD*%
D19*
%TO.C,R4*%
X113751900Y-68173600D03*
X116676900Y-68173600D03*
%TD*%
D17*
%TO.C,D3*%
X82423000Y-109118400D03*
D18*
X82423000Y-98958400D03*
%TD*%
D27*
%TO.C,TP3*%
X85013800Y-81254600D03*
%TD*%
D35*
%TO.C,T2*%
X105534600Y-38249600D03*
X92534600Y-38249600D03*
X105534600Y-44249600D03*
X92534600Y-44249600D03*
%TD*%
%TO.C,T1*%
X103045000Y-99011600D03*
X103045000Y-112011600D03*
X109045000Y-99011600D03*
X109045000Y-112011600D03*
%TD*%
D22*
%TO.C,C5*%
X81940400Y-92939749D03*
D23*
X81940400Y-90439749D03*
%TD*%
D32*
%TO.C,J2*%
X117495400Y-95961200D03*
D33*
X114955400Y-95961200D03*
%TD*%
D22*
%TO.C,C12*%
X103225600Y-117931051D03*
D23*
X103225600Y-120431051D03*
%TD*%
D36*
%TO.C,U1*%
X111900050Y-78433400D03*
X111900050Y-81383400D03*
D37*
X110375050Y-79908400D03*
%TD*%
D22*
%TO.C,C16*%
X94793949Y-65405000D03*
D23*
X92293949Y-65405000D03*
%TD*%
D34*
%TO.C,C3*%
X133604000Y-100611200D03*
X133604000Y-97661200D03*
%TD*%
M02*
