M48
; DRILL file {KiCad (6.0.7)} date Wed Feb 22 17:07:41 2023
; FORMAT={-:-/ absolute / metric / decimal}
; #@! TF.CreationDate,2023-02-22T17:07:41-05:00
; #@! TF.GenerationSoftware,Kicad,Pcbnew,(6.0.7)
; #@! TF.FileFunction,MixedPlating,1,2
FMAT,2
METRIC
; #@! TA.AperFunction,Plated,PTH,ViaDrill
T1C0.400
; #@! TA.AperFunction,Plated,PTH,ComponentDrill
T2C0.500
; #@! TA.AperFunction,Plated,PTH,ComponentDrill
T3C0.700
; #@! TA.AperFunction,Plated,PTH,ComponentDrill
T4C0.750
; #@! TA.AperFunction,Plated,PTH,ComponentDrill
T5C0.800
; #@! TA.AperFunction,Plated,PTH,ComponentDrill
T6C0.900
; #@! TA.AperFunction,Plated,PTH,ComponentDrill
T7C1.000
; #@! TA.AperFunction,Plated,PTH,ComponentDrill
T8C1.100
; #@! TA.AperFunction,Plated,PTH,ComponentDrill
T9C1.200
; #@! TA.AperFunction,Plated,PTH,ComponentDrill
T10C1.500
; #@! TA.AperFunction,Plated,PTH,ComponentDrill
T11C1.700
%
G90
G05
T1
X23.05Y-125.349
X56.822Y-126.733
X56.896Y-45.316
X107.886Y-76.644
X130.81Y-54.546
X145.351Y-177.101
X150.569Y-102.039
X180.975Y-121.158
X201.761Y-121.793
X210.957Y-60.97
X217.678Y-120.015
X227.584Y-94.996
X234.823Y-84.645
X246.761Y-121.285
X249.809Y-105.093
X260.858Y-115.125
T2
X61.14Y-145.606
X114.236Y-60.515
X116.459Y-79.121
X133.858Y-69.088
X186.521Y-101.155
X192.722Y-74.993
X215.519Y-80.709
X222.44Y-154.686
X236.664Y-95.885
X255.016Y-120.904
X270.192Y-126.809
X278.384Y-144.844
X285.252Y-125.412
T3
X51.529Y-71.421
X51.529Y-79.041
X56.609Y-71.421
X56.609Y-79.041
X61.689Y-71.421
X61.689Y-79.041
X69.309Y-71.421
X69.309Y-79.041
X94.678Y-57.912
X94.678Y-62.992
X94.678Y-68.072
X94.678Y-75.692
X102.298Y-57.912
X102.298Y-62.992
X102.298Y-68.072
X102.298Y-75.692
X129.937Y-158.654
X129.937Y-163.734
X129.937Y-168.814
X129.937Y-176.434
X137.557Y-158.654
X137.557Y-163.734
X137.557Y-168.814
X137.557Y-176.434
X226.076Y-60.356
X226.076Y-65.436
X226.076Y-70.516
X226.076Y-78.136
X233.696Y-60.356
X233.696Y-65.436
X233.696Y-70.516
X233.696Y-78.136
T4
X49.636Y-57.317
X49.636Y-58.587
X49.636Y-59.857
X74.072Y-82.555
X75.342Y-82.555
X76.612Y-82.555
T5
X26.67Y-92.827
X26.67Y-95.327
X37.338Y-92.322
X37.338Y-94.822
X40.567Y-58.904
X42.852Y-130.734
X42.852Y-133.274
X42.852Y-135.814
X43.067Y-58.904
X50.736Y-134.871
X50.736Y-137.411
X50.736Y-139.951
X50.736Y-142.492
X52.06Y-122.91
X52.06Y-125.41
X58.356Y-134.871
X58.356Y-137.411
X58.356Y-139.951
X58.356Y-142.492
X58.991Y-49.189
X58.991Y-51.689
X67.882Y-53.126
X67.882Y-55.626
X68.263Y-44.426
X68.824Y-139.763
X70.802Y-44.426
X71.364Y-139.763
X73.343Y-44.426
X73.904Y-139.763
X74.072Y-71.485
X74.072Y-79.105
X94.805Y-79.248
X102.425Y-79.248
X111.506Y-67.754
X114.006Y-67.754
X123.2Y-68.526
X123.2Y-71.066
X123.2Y-73.606
X123.2Y-76.147
X125.476Y-59.486
X125.476Y-61.986
X129.921Y-180.467
X130.82Y-68.526
X130.82Y-71.066
X130.82Y-73.606
X130.82Y-76.147
X135.392Y-109.015
X135.392Y-111.515
X137.541Y-180.467
X142.314Y-108.008
X142.314Y-110.548
X142.314Y-113.088
X142.314Y-115.628
X142.314Y-118.168
X142.314Y-120.709
X142.314Y-123.248
X148.844Y-171.45
X148.844Y-179.07
X149.933Y-108.008
X149.933Y-110.548
X149.933Y-113.088
X149.933Y-115.628
X149.933Y-118.168
X149.933Y-120.709
X149.933Y-123.248
X151.765Y-74.703
X151.765Y-79.582
X153.202Y-85.344
X158.202Y-85.344
X158.758Y-124.709
X158.877Y-74.722
X158.877Y-79.602
X160.728Y-108.262
X160.728Y-110.762
X162.258Y-124.709
X163.171Y-66.929
X166.243Y-74.766
X166.243Y-79.646
X167.299Y-85.534
X168.171Y-66.929
X172.299Y-85.534
X173.228Y-74.786
X173.228Y-79.666
X173.998Y-117.665
X176.498Y-117.665
X176.815Y-105.093
X179.355Y-105.093
X179.705Y-173.418
X181.895Y-105.093
X187.325Y-173.418
X188.236Y-122.609
X188.236Y-125.109
X204.035Y-75.638
X204.035Y-78.178
X204.035Y-80.718
X204.035Y-83.258
X204.416Y-66.662
X204.416Y-69.162
X210.778Y-113.473
X210.778Y-116.973
X211.655Y-75.638
X211.655Y-78.178
X211.655Y-80.718
X211.655Y-83.258
X221.488Y-107.378
X224.028Y-107.378
X226.123Y-81.597
X226.568Y-107.378
X233.489Y-107.315
X233.489Y-109.855
X233.489Y-112.395
X233.489Y-114.935
X233.743Y-81.597
X241.109Y-107.315
X241.109Y-109.855
X241.109Y-112.395
X241.109Y-114.935
X250.254Y-112.014
X250.254Y-114.514
X254.0Y-155.565
X254.0Y-158.065
X256.858Y-136.408
X256.858Y-144.028
X263.892Y-121.285
X266.392Y-121.285
X267.272Y-137.414
X267.272Y-139.954
X267.272Y-142.494
X283.323Y-119.761
X283.909Y-174.048
X283.909Y-177.548
X285.823Y-119.761
T6
X50.863Y-102.484
X50.863Y-105.024
X57.394Y-102.42
X57.394Y-104.96
X62.357Y-102.425
X62.357Y-104.965
T7
X25.845Y-60.497
X25.845Y-63.037
X48.275Y-90.233
X50.815Y-90.233
X53.355Y-90.233
X70.838Y-89.281
X73.379Y-89.281
X85.171Y-127.254
X85.217Y-94.234
X87.711Y-127.254
X87.757Y-94.234
X90.251Y-127.254
X90.297Y-94.234
X92.791Y-127.254
X92.837Y-94.234
X152.209Y-175.709
X152.209Y-178.249
X167.269Y-122.174
X167.269Y-124.714
X191.008Y-173.863
X191.008Y-176.403
X222.25Y-167.386
X222.25Y-169.926
X222.25Y-172.466
X222.25Y-175.006
X243.078Y-98.171
X243.124Y-65.151
X245.618Y-98.171
X245.664Y-65.151
X248.158Y-98.171
X248.204Y-65.151
X250.698Y-98.171
X250.744Y-65.151
X255.27Y-167.432
X255.27Y-169.972
X255.27Y-172.512
X255.27Y-175.052
X275.839Y-168.148
X278.379Y-168.148
T8
X29.21Y-86.67
X31.75Y-86.67
X34.29Y-86.67
X51.308Y-84.836
X61.468Y-84.836
X287.726Y-148.399
X287.726Y-150.939
X287.726Y-153.48
T9
X99.251Y-95.236
X103.569Y-91.934
X108.902Y-91.68
X129.986Y-82.63
X129.986Y-92.63
X145.986Y-82.63
X145.986Y-92.63
X147.543Y-151.831
X147.543Y-167.831
X157.543Y-151.831
X157.543Y-167.831
X163.513Y-157.433
X163.513Y-167.433
X178.754Y-82.185
X178.754Y-92.185
X179.513Y-157.433
X179.513Y-167.433
X194.754Y-82.185
X194.754Y-92.185
X253.061Y-46.418
X256.363Y-50.736
X256.618Y-56.07
X261.613Y-156.781
X262.366Y-166.347
X262.366Y-179.347
X268.366Y-166.347
X268.366Y-179.347
X276.613Y-156.781
T10
X116.332Y-179.26
X150.368Y-58.737
X217.995Y-95.504
T11
X113.792Y-176.72
X113.792Y-181.8
X118.872Y-176.72
X118.872Y-181.8
X147.828Y-56.197
X147.828Y-61.277
X152.908Y-56.197
X152.908Y-61.277
X215.456Y-92.964
X215.456Y-98.044
X220.535Y-92.964
X220.535Y-98.044
T0
M30
