%TF.GenerationSoftware,KiCad,Pcbnew,(6.0.7)*%
%TF.CreationDate,2023-01-23T16:12:41-05:00*%
%TF.ProjectId,Phoenix612_Stage_2_PA_Testing_v2.kicad_pro,50686f65-6e69-4783-9631-325f53746167,rev?*%
%TF.SameCoordinates,Original*%
%TF.FileFunction,Soldermask,Top*%
%TF.FilePolarity,Negative*%
%FSLAX46Y46*%
G04 Gerber Fmt 4.6, Leading zero omitted, Abs format (unit mm)*
G04 Created by KiCad (PCBNEW (6.0.7)) date 2023-01-23 16:12:41*
%MOMM*%
%LPD*%
G01*
G04 APERTURE LIST*
G04 Aperture macros list*
%AMRoundRect*
0 Rectangle with rounded corners*
0 $1 Rounding radius*
0 $2 $3 $4 $5 $6 $7 $8 $9 X,Y pos of 4 corners*
0 Add a 4 corners polygon primitive as box body*
4,1,4,$2,$3,$4,$5,$6,$7,$8,$9,$2,$3,0*
0 Add four circle primitives for the rounded corners*
1,1,$1+$1,$2,$3*
1,1,$1+$1,$4,$5*
1,1,$1+$1,$6,$7*
1,1,$1+$1,$8,$9*
0 Add four rect primitives between the rounded corners*
20,1,$1+$1,$2,$3,$4,$5,0*
20,1,$1+$1,$4,$5,$6,$7,0*
20,1,$1+$1,$6,$7,$8,$9,0*
20,1,$1+$1,$8,$9,$2,$3,0*%
G04 Aperture macros list end*
%ADD10C,3.000000*%
%ADD11O,2.000000X4.000000*%
%ADD12RoundRect,0.250000X-0.312500X-0.625000X0.312500X-0.625000X0.312500X0.625000X-0.312500X0.625000X0*%
%ADD13RoundRect,0.250000X0.625000X-0.312500X0.625000X0.312500X-0.625000X0.312500X-0.625000X-0.312500X0*%
%ADD14RoundRect,0.250000X0.312500X0.625000X-0.312500X0.625000X-0.312500X-0.625000X0.312500X-0.625000X0*%
%ADD15O,4.000000X2.000000*%
%ADD16RoundRect,0.250000X-0.325000X-0.650000X0.325000X-0.650000X0.325000X0.650000X-0.325000X0.650000X0*%
%ADD17RoundRect,0.250000X-0.650000X0.325000X-0.650000X-0.325000X0.650000X-0.325000X0.650000X0.325000X0*%
%ADD18RoundRect,0.250000X0.650000X-0.325000X0.650000X0.325000X-0.650000X0.325000X-0.650000X-0.325000X0*%
%ADD19RoundRect,0.250000X0.325000X0.650000X-0.325000X0.650000X-0.325000X-0.650000X0.325000X-0.650000X0*%
G04 APERTURE END LIST*
D10*
%TO.C,T2*%
X92740849Y-88979000D03*
X105740849Y-88979000D03*
X92740849Y-82979000D03*
X105740849Y-82979000D03*
%TD*%
%TO.C,T1*%
X102565849Y-118666000D03*
X89565849Y-118666000D03*
X102565849Y-124666000D03*
X89565849Y-124666000D03*
%TD*%
D11*
%TO.C,RV2*%
X91493849Y-98742500D03*
X88953849Y-98742500D03*
X86413849Y-98742500D03*
%TD*%
%TO.C,RV1*%
X96647349Y-135191500D03*
X94107349Y-135191500D03*
X91567349Y-135191500D03*
%TD*%
D12*
%TO.C,R6*%
X82728849Y-64833500D03*
X85653849Y-64833500D03*
%TD*%
%TO.C,R13*%
X100445349Y-75438000D03*
X103370349Y-75438000D03*
%TD*%
D13*
%TO.C,R12*%
X106860849Y-78740000D03*
X106860849Y-75815000D03*
%TD*%
D12*
%TO.C,R11*%
X100318349Y-78549500D03*
X103243349Y-78549500D03*
%TD*%
D14*
%TO.C,R8*%
X103751349Y-110744000D03*
X100826349Y-110744000D03*
%TD*%
D13*
%TO.C,R7*%
X98161349Y-113794000D03*
X98161349Y-110869000D03*
%TD*%
D12*
%TO.C,R5*%
X91618849Y-113792000D03*
X94543849Y-113792000D03*
%TD*%
%TO.C,R4*%
X84250849Y-91059000D03*
X87175849Y-91059000D03*
%TD*%
%TO.C,R10*%
X76505849Y-107188000D03*
X79430849Y-107188000D03*
%TD*%
%TO.C,R1*%
X82411349Y-124714000D03*
X85336349Y-124714000D03*
%TD*%
%TO.C,R9*%
X110541849Y-100774500D03*
X113466849Y-100774500D03*
%TD*%
%TO.C,R3*%
X74727849Y-140843000D03*
X77652849Y-140843000D03*
%TD*%
%TO.C,R2*%
X110287849Y-125412500D03*
X113212849Y-125412500D03*
%TD*%
D11*
%TO.C,Q2*%
X110416849Y-88625000D03*
X112956849Y-88625000D03*
X115496849Y-88625000D03*
%TD*%
%TO.C,Q1*%
X110797849Y-115104500D03*
X113337849Y-115104500D03*
X115877849Y-115104500D03*
%TD*%
D15*
%TO.C,J8*%
X88128349Y-85788500D03*
X88128349Y-83248500D03*
%TD*%
D11*
%TO.C,J6*%
X114988849Y-95313500D03*
%TD*%
%TO.C,J5*%
X101849349Y-106235500D03*
X99309349Y-106235500D03*
%TD*%
%TO.C,J4*%
X99362849Y-100901500D03*
X101902849Y-100901500D03*
%TD*%
D15*
%TO.C,J3*%
X85143849Y-120591500D03*
X85143849Y-118051500D03*
%TD*%
D11*
%TO.C,J2*%
X115242849Y-122301000D03*
%TD*%
%TO.C,J7*%
X85222349Y-69786500D03*
X87762349Y-69786500D03*
X90302349Y-69786500D03*
%TD*%
D10*
%TO.C,J9*%
X104320849Y-68072000D03*
X101780849Y-70612000D03*
X106860849Y-70612000D03*
X106860849Y-65532000D03*
X101780849Y-65532000D03*
%TD*%
%TO.C,J1*%
X110924849Y-138176000D03*
X108384849Y-140716000D03*
X113464849Y-140716000D03*
X113464849Y-135636000D03*
X108384849Y-135636000D03*
%TD*%
D11*
%TO.C,D4*%
X79492349Y-102933500D03*
X79492349Y-92773500D03*
%TD*%
%TO.C,D1*%
X77206349Y-136779000D03*
X77206349Y-126619000D03*
%TD*%
D15*
%TO.C,D2*%
X78158849Y-67368500D03*
X78158849Y-64828500D03*
%TD*%
%TO.C,D3*%
X77587349Y-73914000D03*
X87747349Y-73914000D03*
%TD*%
D11*
%TO.C,C15*%
X84445349Y-109410500D03*
X86945349Y-109410500D03*
%TD*%
D16*
%TO.C,C14*%
X85764349Y-103441500D03*
X88714349Y-103441500D03*
%TD*%
D17*
%TO.C,C17*%
X110924849Y-72805500D03*
X110924849Y-75755500D03*
%TD*%
%TO.C,C16*%
X110797849Y-79932000D03*
X110797849Y-82882000D03*
%TD*%
D18*
%TO.C,C13*%
X107368849Y-98185500D03*
X107368849Y-95235500D03*
%TD*%
%TO.C,C12*%
X110734349Y-97995000D03*
X110734349Y-95045000D03*
%TD*%
D19*
%TO.C,C9*%
X84572349Y-86487000D03*
X81622349Y-86487000D03*
%TD*%
%TO.C,C11*%
X113415849Y-105918000D03*
X110465849Y-105918000D03*
%TD*%
D15*
%TO.C,C8*%
X84572349Y-137541000D03*
X84572349Y-140041000D03*
%TD*%
D19*
%TO.C,C7*%
X84586849Y-82550000D03*
X81636849Y-82550000D03*
%TD*%
D16*
%TO.C,C10*%
X100940849Y-113792000D03*
X103890849Y-113792000D03*
%TD*%
D18*
%TO.C,C5*%
X80952849Y-120791500D03*
X80952849Y-117841500D03*
%TD*%
D16*
%TO.C,C6*%
X91733349Y-140144500D03*
X94683349Y-140144500D03*
%TD*%
D18*
%TO.C,C4*%
X108511849Y-123268000D03*
X108511849Y-120318000D03*
%TD*%
D19*
%TO.C,C3*%
X85348849Y-127825500D03*
X82398849Y-127825500D03*
%TD*%
D18*
%TO.C,C2*%
X111432849Y-123204500D03*
X111432849Y-120254500D03*
%TD*%
%TO.C,C1*%
X113274349Y-131762500D03*
X113274349Y-128812500D03*
%TD*%
M02*
