%TF.GenerationSoftware,KiCad,Pcbnew,(6.0.7)*%
%TF.CreationDate,2023-01-23T16:12:41-05:00*%
%TF.ProjectId,Phoenix612_Stage_2_PA_Testing_v2.kicad_pro,50686f65-6e69-4783-9631-325f53746167,rev?*%
%TF.SameCoordinates,Original*%
%TF.FileFunction,Soldermask,Bot*%
%TF.FilePolarity,Negative*%
%FSLAX46Y46*%
G04 Gerber Fmt 4.6, Leading zero omitted, Abs format (unit mm)*
G04 Created by KiCad (PCBNEW (6.0.7)) date 2023-01-23 16:12:41*
%MOMM*%
%LPD*%
G01*
G04 APERTURE LIST*
%ADD10C,3.000000*%
%ADD11O,2.000000X4.000000*%
%ADD12O,4.000000X2.000000*%
G04 APERTURE END LIST*
D10*
%TO.C,T2*%
X92740849Y-88979000D03*
X105740849Y-88979000D03*
X92740849Y-82979000D03*
X105740849Y-82979000D03*
%TD*%
%TO.C,T1*%
X102565849Y-118666000D03*
X89565849Y-118666000D03*
X102565849Y-124666000D03*
X89565849Y-124666000D03*
%TD*%
D11*
%TO.C,RV2*%
X91493849Y-98742500D03*
X88953849Y-98742500D03*
X86413849Y-98742500D03*
%TD*%
%TO.C,RV1*%
X96647349Y-135191500D03*
X94107349Y-135191500D03*
X91567349Y-135191500D03*
%TD*%
%TO.C,Q2*%
X110416849Y-88625000D03*
X112956849Y-88625000D03*
X115496849Y-88625000D03*
%TD*%
%TO.C,Q1*%
X110797849Y-115104500D03*
X113337849Y-115104500D03*
X115877849Y-115104500D03*
%TD*%
D12*
%TO.C,J8*%
X88128349Y-85788500D03*
X88128349Y-83248500D03*
%TD*%
D11*
%TO.C,J6*%
X114988849Y-95313500D03*
%TD*%
%TO.C,J5*%
X101849349Y-106235500D03*
X99309349Y-106235500D03*
%TD*%
D12*
%TO.C,J3*%
X85143849Y-120591500D03*
X85143849Y-118051500D03*
%TD*%
D11*
%TO.C,J2*%
X115242849Y-122301000D03*
%TD*%
%TO.C,J7*%
X85222349Y-69786500D03*
X87762349Y-69786500D03*
X90302349Y-69786500D03*
%TD*%
%TO.C,D4*%
X79492349Y-102933500D03*
X79492349Y-92773500D03*
%TD*%
%TO.C,D1*%
X77206349Y-136779000D03*
X77206349Y-126619000D03*
%TD*%
D12*
%TO.C,D2*%
X78158849Y-67368500D03*
X78158849Y-64828500D03*
%TD*%
%TO.C,D3*%
X77587349Y-73914000D03*
X87747349Y-73914000D03*
%TD*%
D11*
%TO.C,C15*%
X84445349Y-109410500D03*
X86945349Y-109410500D03*
%TD*%
D12*
%TO.C,C8*%
X84572349Y-137541000D03*
X84572349Y-140041000D03*
%TD*%
M02*
