M48
; DRILL file {KiCad (6.0.7)} date Mon Jan 23 16:12:35 2023
; FORMAT={-:-/ absolute / metric / decimal}
; #@! TF.CreationDate,2023-01-23T16:12:35-05:00
; #@! TF.GenerationSoftware,Kicad,Pcbnew,(6.0.7)
; #@! TF.FileFunction,MixedPlating,1,2
FMAT,2
METRIC
; #@! TA.AperFunction,Plated,PTH,ComponentDrill
T1C1.000
%
G90
G05
T1
X77.206Y-126.619
X77.206Y-136.779
X77.587Y-73.914
X78.159Y-64.828
X78.159Y-67.368
X79.492Y-92.773
X79.492Y-102.933
X84.445Y-109.41
X84.572Y-137.541
X84.572Y-140.041
X85.144Y-118.051
X85.144Y-120.591
X85.222Y-69.787
X86.414Y-98.742
X86.945Y-109.41
X87.747Y-73.914
X87.762Y-69.787
X88.128Y-83.248
X88.128Y-85.788
X88.954Y-98.742
X89.566Y-118.666
X89.566Y-124.666
X90.302Y-69.787
X91.494Y-98.742
X91.567Y-135.191
X92.741Y-82.979
X92.741Y-88.979
X94.107Y-135.191
X96.647Y-135.191
X99.309Y-106.236
X101.849Y-106.236
X102.566Y-118.666
X102.566Y-124.666
X105.741Y-82.979
X105.741Y-88.979
X110.417Y-88.625
X110.798Y-115.105
X112.957Y-88.625
X113.338Y-115.105
X114.989Y-95.313
X115.243Y-122.301
X115.497Y-88.625
X115.878Y-115.105
T0
M30
