%TF.GenerationSoftware,KiCad,Pcbnew,(6.0.7)*%
%TF.CreationDate,2023-01-23T16:12:41-05:00*%
%TF.ProjectId,Phoenix612_Stage_2_PA_Testing_v2.kicad_pro,50686f65-6e69-4783-9631-325f53746167,rev?*%
%TF.SameCoordinates,Original*%
%TF.FileFunction,Copper,L2,Bot*%
%TF.FilePolarity,Positive*%
%FSLAX46Y46*%
G04 Gerber Fmt 4.6, Leading zero omitted, Abs format (unit mm)*
G04 Created by KiCad (PCBNEW (6.0.7)) date 2023-01-23 16:12:41*
%MOMM*%
%LPD*%
G01*
G04 APERTURE LIST*
%TA.AperFunction,ComponentPad*%
%ADD10C,3.000000*%
%TD*%
%TA.AperFunction,ComponentPad*%
%ADD11O,2.000000X4.000000*%
%TD*%
%TA.AperFunction,ComponentPad*%
%ADD12O,4.000000X2.000000*%
%TD*%
G04 APERTURE END LIST*
D10*
%TO.P,T2,1,AA*%
%TO.N,Net-(C16-Pad2)*%
X92740849Y-88979000D03*
%TO.P,T2,2,AB*%
%TO.N,Net-(Q2-Pad1)*%
X105740849Y-88979000D03*
%TO.P,T2,3,SB*%
%TO.N,Net-(J8-Pad2)*%
X92740849Y-82979000D03*
%TO.P,T2,4,SA*%
%TO.N,Net-(C16-Pad2)*%
X105740849Y-82979000D03*
%TD*%
%TO.P,T1,4,SA*%
%TO.N,Net-(C10-Pad2)*%
X102565849Y-118666000D03*
%TO.P,T1,3,SB*%
%TO.N,Net-(J3-Pad2)*%
X89565849Y-118666000D03*
%TO.P,T1,2,AB*%
%TO.N,Net-(Q1-Pad1)*%
X102565849Y-124666000D03*
%TO.P,T1,1,AA*%
%TO.N,Net-(C10-Pad2)*%
X89565849Y-124666000D03*
%TD*%
D11*
%TO.P,RV2,1,1*%
%TO.N,GND*%
X91493849Y-98742500D03*
%TO.P,RV2,2,2*%
%TO.N,Net-(C12-Pad1)*%
X88953849Y-98742500D03*
%TO.P,RV2,3,3*%
%TO.N,Net-(C14-Pad1)*%
X86413849Y-98742500D03*
%TD*%
%TO.P,RV1,1,1*%
%TO.N,GND*%
X96647349Y-135191500D03*
%TO.P,RV1,2,2*%
%TO.N,Net-(C2-Pad1)*%
X94107349Y-135191500D03*
%TO.P,RV1,3,3*%
%TO.N,Net-(C6-Pad1)*%
X91567349Y-135191500D03*
%TD*%
%TO.P,Q2,1,D*%
%TO.N,Net-(Q2-Pad1)*%
X110416849Y-88625000D03*
%TO.P,Q2,2,G*%
%TO.N,Net-(C11-Pad1)*%
X112956849Y-88625000D03*
%TO.P,Q2,3,S*%
%TO.N,GND*%
X115496849Y-88625000D03*
%TD*%
%TO.P,Q1,1,D*%
%TO.N,Net-(Q1-Pad1)*%
X110797849Y-115104500D03*
%TO.P,Q1,2,G*%
%TO.N,Net-(C1-Pad2)*%
X113337849Y-115104500D03*
%TO.P,Q1,3,S*%
%TO.N,GND*%
X115877849Y-115104500D03*
%TD*%
D12*
%TO.P,J8,1,Pin_1*%
%TO.N,Q2_12V*%
X88128349Y-85788500D03*
%TO.P,J8,2,Pin_2*%
%TO.N,Net-(J8-Pad2)*%
X88128349Y-83248500D03*
%TD*%
D11*
%TO.P,J6,1,Pin_1*%
%TO.N,Net-(C11-Pad1)*%
X114988849Y-95313500D03*
%TD*%
%TO.P,J5,1,Pin_1*%
%TO.N,Net-(C11-Pad2)*%
X101849349Y-106235500D03*
%TO.P,J5,2,Pin_2*%
%TO.N,Net-(J5-Pad2)*%
X99309349Y-106235500D03*
%TD*%
D12*
%TO.P,J3,1,Pin_1*%
%TO.N,Q1_12V*%
X85143849Y-120591500D03*
%TO.P,J3,2,Pin_2*%
%TO.N,Net-(J3-Pad2)*%
X85143849Y-118051500D03*
%TD*%
D11*
%TO.P,J2,1,Pin_1*%
%TO.N,Net-(C1-Pad2)*%
X115242849Y-122301000D03*
%TD*%
%TO.P,J7,1,Pin_1*%
%TO.N,GND*%
X85222349Y-69786500D03*
%TO.P,J7,2,Pin_2*%
%TO.N,Net-(D3-Pad2)*%
X87762349Y-69786500D03*
%TO.P,J7,3,Pin_3*%
%TO.N,GND*%
X90302349Y-69786500D03*
%TD*%
%TO.P,D4,1,K*%
%TO.N,Net-(C14-Pad1)*%
X79492349Y-102933500D03*
%TO.P,D4,2,A*%
%TO.N,GND*%
X79492349Y-92773500D03*
%TD*%
%TO.P,D1,1,K*%
%TO.N,Net-(C6-Pad1)*%
X77206349Y-136779000D03*
%TO.P,D1,2,A*%
%TO.N,GND*%
X77206349Y-126619000D03*
%TD*%
D12*
%TO.P,D2,2,A*%
%TO.N,TX12V*%
X78158849Y-67368500D03*
%TO.P,D2,1,K*%
%TO.N,Net-(D2-Pad1)*%
X78158849Y-64828500D03*
%TD*%
%TO.P,D3,1,K*%
%TO.N,TX12V*%
X77587349Y-73914000D03*
%TO.P,D3,2,A*%
%TO.N,Net-(D3-Pad2)*%
X87747349Y-73914000D03*
%TD*%
D11*
%TO.P,C15,1*%
%TO.N,Net-(C14-Pad1)*%
X84445349Y-109410500D03*
%TO.P,C15,2*%
%TO.N,GND*%
X86945349Y-109410500D03*
%TD*%
D12*
%TO.P,C8,1*%
%TO.N,Net-(C6-Pad1)*%
X84572349Y-137541000D03*
%TO.P,C8,2*%
%TO.N,GND*%
X84572349Y-140041000D03*
%TD*%
M02*
