%TF.GenerationSoftware,KiCad,Pcbnew,(6.0.7)*%
%TF.CreationDate,2023-02-10T17:21:08-05:00*%
%TF.ProjectId,Phoenix612_MultiStage_PA_Testing_v3,50686f65-6e69-4783-9631-325f4d756c74,rev?*%
%TF.SameCoordinates,Original*%
%TF.FileFunction,Soldermask,Top*%
%TF.FilePolarity,Negative*%
%FSLAX46Y46*%
G04 Gerber Fmt 4.6, Leading zero omitted, Abs format (unit mm)*
G04 Created by KiCad (PCBNEW (6.0.7)) date 2023-02-10 17:21:08*
%MOMM*%
%LPD*%
G01*
G04 APERTURE LIST*
G04 Aperture macros list*
%AMRoundRect*
0 Rectangle with rounded corners*
0 $1 Rounding radius*
0 $2 $3 $4 $5 $6 $7 $8 $9 X,Y pos of 4 corners*
0 Add a 4 corners polygon primitive as box body*
4,1,4,$2,$3,$4,$5,$6,$7,$8,$9,$2,$3,0*
0 Add four circle primitives for the rounded corners*
1,1,$1+$1,$2,$3*
1,1,$1+$1,$4,$5*
1,1,$1+$1,$6,$7*
1,1,$1+$1,$8,$9*
0 Add four rect primitives between the rounded corners*
20,1,$1+$1,$2,$3,$4,$5,0*
20,1,$1+$1,$4,$5,$6,$7,0*
20,1,$1+$1,$6,$7,$8,$9,0*
20,1,$1+$1,$8,$9,$2,$3,0*%
G04 Aperture macros list end*
%ADD10O,4.400000X1.600000*%
%ADD11RoundRect,0.250000X-0.625000X0.312500X-0.625000X-0.312500X0.625000X-0.312500X0.625000X0.312500X0*%
%ADD12C,3.000000*%
%ADD13RoundRect,0.250000X-0.312500X-0.625000X0.312500X-0.625000X0.312500X0.625000X-0.312500X0.625000X0*%
%ADD14RoundRect,0.250001X-0.462499X-0.624999X0.462499X-0.624999X0.462499X0.624999X-0.462499X0.624999X0*%
%ADD15RoundRect,0.250000X0.312500X0.625000X-0.312500X0.625000X-0.312500X-0.625000X0.312500X-0.625000X0*%
%ADD16C,2.750000*%
%ADD17RoundRect,0.250000X-0.650000X0.325000X-0.650000X-0.325000X0.650000X-0.325000X0.650000X0.325000X0*%
%ADD18RoundRect,0.250000X-0.325000X-0.650000X0.325000X-0.650000X0.325000X0.650000X-0.325000X0.650000X0*%
%ADD19RoundRect,0.250001X0.624999X-0.462499X0.624999X0.462499X-0.624999X0.462499X-0.624999X-0.462499X0*%
%ADD20O,1.600000X4.400000*%
%ADD21RoundRect,0.250000X0.650000X-0.325000X0.650000X0.325000X-0.650000X0.325000X-0.650000X-0.325000X0*%
%ADD22RoundRect,0.250000X0.325000X0.650000X-0.325000X0.650000X-0.325000X-0.650000X0.325000X-0.650000X0*%
G04 APERTURE END LIST*
D10*
%TO.C,C31*%
X91186000Y-25083888D03*
X91186000Y-27583888D03*
%TD*%
D11*
%TO.C,R14*%
X50355500Y-25896349D03*
X50355500Y-28821349D03*
%TD*%
D12*
%TO.C,D5*%
X145669000Y-23296849D03*
X145669000Y-33456849D03*
%TD*%
D13*
%TO.C,R6*%
X57211500Y-76621000D03*
X60136500Y-76621000D03*
%TD*%
D10*
%TO.C,J6*%
X76136500Y-84373000D03*
X76136500Y-81833000D03*
%TD*%
D14*
%TO.C,L5*%
X87222000Y-21844000D03*
X90197000Y-21844000D03*
%TD*%
D10*
%TO.C,C8*%
X88201500Y-39042849D03*
X88201500Y-41542849D03*
%TD*%
D13*
%TO.C,R17*%
X80262000Y-49329849D03*
X83187000Y-49329849D03*
%TD*%
D15*
%TO.C,R2*%
X105287000Y-57584849D03*
X102362000Y-57584849D03*
%TD*%
D10*
%TO.C,J11*%
X81915000Y-26792349D03*
X81915000Y-24252349D03*
%TD*%
D11*
%TO.C,R4*%
X94742000Y-35294349D03*
X94742000Y-38219349D03*
%TD*%
D16*
%TO.C,J8*%
X142367000Y-65903349D03*
X144907000Y-63363349D03*
X144907000Y-68443349D03*
X139827000Y-63363349D03*
X139827000Y-68443349D03*
%TD*%
D17*
%TO.C,C11*%
X57467500Y-79083000D03*
X57467500Y-82033000D03*
%TD*%
D18*
%TO.C,C15*%
X120191000Y-24374349D03*
X123141000Y-24374349D03*
%TD*%
D10*
%TO.C,J3*%
X114935000Y-49197849D03*
X114935000Y-51737849D03*
%TD*%
%TO.C,RV3*%
X45720000Y-35115849D03*
X45720000Y-32575849D03*
X45720000Y-30035849D03*
%TD*%
D17*
%TO.C,C17*%
X104267000Y-88875849D03*
X104267000Y-91825849D03*
%TD*%
D10*
%TO.C,C29*%
X60071000Y-31272349D03*
X60071000Y-33772349D03*
%TD*%
%TO.C,C18*%
X110807500Y-89080849D03*
X110807500Y-91580849D03*
%TD*%
D13*
%TO.C,R11*%
X49464500Y-39995349D03*
X52389500Y-39995349D03*
%TD*%
D19*
%TO.C,L1*%
X94551500Y-32465849D03*
X94551500Y-29490849D03*
%TD*%
D17*
%TO.C,C21*%
X99314000Y-88607349D03*
X99314000Y-91557349D03*
%TD*%
D10*
%TO.C,RV2*%
X53149500Y-82082000D03*
X53149500Y-79542000D03*
X53149500Y-77002000D03*
%TD*%
D16*
%TO.C,J9*%
X33972500Y-44567349D03*
X31432500Y-47107349D03*
X31432500Y-42027349D03*
X36512500Y-42027349D03*
X36512500Y-47107349D03*
%TD*%
D17*
%TO.C,C23*%
X45974000Y-39790349D03*
X45974000Y-42740349D03*
%TD*%
D15*
%TO.C,R13*%
X62740000Y-39360349D03*
X59815000Y-39360349D03*
%TD*%
D17*
%TO.C,C28*%
X52133500Y-31027349D03*
X52133500Y-33977349D03*
%TD*%
%TO.C,C26*%
X85915500Y-30328849D03*
X85915500Y-33278849D03*
%TD*%
%TO.C,C3*%
X87376000Y-45695849D03*
X87376000Y-48645849D03*
%TD*%
%TO.C,C24*%
X83121500Y-30343349D03*
X83121500Y-33293349D03*
%TD*%
D20*
%TO.C,Q2*%
X70358000Y-76754349D03*
X72898000Y-76754349D03*
X75438000Y-76754349D03*
%TD*%
D10*
%TO.C,U2*%
X31813500Y-53601849D03*
X31813500Y-56141849D03*
X31813500Y-58681849D03*
X31813500Y-61221849D03*
X64833500Y-61267849D03*
X64833500Y-58727849D03*
X64833500Y-56187849D03*
X64833500Y-53647849D03*
%TD*%
%TO.C,J2*%
X83121500Y-61404500D03*
%TD*%
%TO.C,J5*%
X54546500Y-67691000D03*
%TD*%
%TO.C,RV1*%
X95440500Y-47815849D03*
X95440500Y-45275849D03*
X95440500Y-42735849D03*
%TD*%
D12*
%TO.C,T2*%
X105623500Y-74470000D03*
X92623500Y-74470000D03*
X105623500Y-80470000D03*
X92623500Y-80470000D03*
%TD*%
D19*
%TO.C,L4*%
X45720000Y-73536500D03*
X45720000Y-70561500D03*
%TD*%
D10*
%TO.C,D4*%
X139382500Y-26090849D03*
X139382500Y-23550849D03*
%TD*%
D17*
%TO.C,C2*%
X87630000Y-57252849D03*
X87630000Y-60202849D03*
%TD*%
%TO.C,C5*%
X82740500Y-38901349D03*
X82740500Y-41851349D03*
%TD*%
D11*
%TO.C,R18*%
X139573000Y-29708349D03*
X139573000Y-32633349D03*
%TD*%
D10*
%TO.C,Q3*%
X67712000Y-39931849D03*
X67712000Y-42471849D03*
X67712000Y-45011849D03*
%TD*%
D17*
%TO.C,C1*%
X91122500Y-45490849D03*
X91122500Y-48440849D03*
%TD*%
D10*
%TO.C,J10*%
X54927500Y-45656500D03*
%TD*%
D11*
%TO.C,R9*%
X42862500Y-73761500D03*
X42862500Y-76686500D03*
%TD*%
D10*
%TO.C,C19*%
X36703000Y-80929349D03*
X36703000Y-83429349D03*
%TD*%
%TO.C,U1*%
X118173500Y-73985349D03*
X118173500Y-76525349D03*
X118173500Y-79065349D03*
X118173500Y-81605349D03*
X151193500Y-81651349D03*
X151193500Y-79111349D03*
X151193500Y-76571349D03*
X151193500Y-74031349D03*
%TD*%
D13*
%TO.C,R15*%
X74737500Y-47043849D03*
X77662500Y-47043849D03*
%TD*%
D18*
%TO.C,C20*%
X110158000Y-73332849D03*
X113108000Y-73332849D03*
%TD*%
D17*
%TO.C,C7*%
X127127000Y-47854849D03*
X127127000Y-50804849D03*
%TD*%
%TO.C,C25*%
X42227500Y-39775849D03*
X42227500Y-42725849D03*
%TD*%
D18*
%TO.C,C10*%
X120381500Y-27993849D03*
X123331500Y-27993849D03*
%TD*%
D12*
%TO.C,D2*%
X48006000Y-75986000D03*
X48006000Y-86146000D03*
%TD*%
D13*
%TO.C,R5*%
X62547500Y-67500500D03*
X65472500Y-67500500D03*
%TD*%
D21*
%TO.C,C30*%
X77152500Y-43121349D03*
X77152500Y-40171349D03*
%TD*%
D15*
%TO.C,R7*%
X65786000Y-76621000D03*
X62861000Y-76621000D03*
%TD*%
D14*
%TO.C,L6*%
X54011500Y-26152349D03*
X56986500Y-26152349D03*
%TD*%
D22*
%TO.C,C27*%
X57609000Y-39487349D03*
X54659000Y-39487349D03*
%TD*%
D15*
%TO.C,R3*%
X110746000Y-52949349D03*
X107821000Y-52949349D03*
%TD*%
D12*
%TO.C,T1*%
X120650000Y-31232349D03*
X120650000Y-44232349D03*
X126650000Y-31232349D03*
X126650000Y-44232349D03*
%TD*%
D10*
%TO.C,Q1*%
X112860500Y-56314849D03*
X112860500Y-58854849D03*
X112860500Y-61394849D03*
%TD*%
D15*
%TO.C,R12*%
X63375000Y-43170349D03*
X60450000Y-43170349D03*
%TD*%
D12*
%TO.C,T3*%
X71104500Y-23398849D03*
X71104500Y-36398849D03*
X77104500Y-23398849D03*
X77104500Y-36398849D03*
%TD*%
D18*
%TO.C,C22*%
X58659500Y-53901849D03*
X61609500Y-53901849D03*
%TD*%
D17*
%TO.C,C9*%
X29527500Y-70397349D03*
X29527500Y-73347349D03*
%TD*%
%TO.C,C16*%
X43497500Y-82942000D03*
X43497500Y-85892000D03*
%TD*%
%TO.C,C13*%
X60007500Y-79210000D03*
X60007500Y-82160000D03*
%TD*%
D10*
%TO.C,J12*%
X150368000Y-27185349D03*
X150368000Y-29725349D03*
X150368000Y-32265349D03*
%TD*%
D15*
%TO.C,R8*%
X71185500Y-82590000D03*
X68260500Y-82590000D03*
%TD*%
D22*
%TO.C,C4*%
X105629500Y-52822349D03*
X102679500Y-52822349D03*
%TD*%
D12*
%TO.C,D3*%
X41084500Y-29263849D03*
X30924500Y-29263849D03*
%TD*%
D10*
%TO.C,J1*%
X83058000Y-54595349D03*
X83058000Y-57135349D03*
%TD*%
D11*
%TO.C,R10*%
X86931500Y-24890000D03*
X86931500Y-27815000D03*
%TD*%
D13*
%TO.C,R16*%
X80327500Y-45392849D03*
X83252500Y-45392849D03*
%TD*%
D12*
%TO.C,D1*%
X100901500Y-41709849D03*
X100901500Y-31549849D03*
%TD*%
D11*
%TO.C,R1*%
X102933500Y-45581349D03*
X102933500Y-48506349D03*
%TD*%
D10*
%TO.C,C6*%
X36258500Y-70628500D03*
X36258500Y-73128500D03*
%TD*%
D12*
%TO.C,L2*%
X111188500Y-28812349D03*
X111188500Y-43812349D03*
%TD*%
D20*
%TO.C,J4*%
X72834500Y-67437000D03*
X70294500Y-67437000D03*
%TD*%
D22*
%TO.C,C12*%
X66118000Y-82653500D03*
X63168000Y-82653500D03*
%TD*%
D12*
%TO.C,L3*%
X80193500Y-88953849D03*
X95193500Y-88953849D03*
%TD*%
D20*
%TO.C,C14*%
X132588000Y-38788849D03*
X135088000Y-38788849D03*
%TD*%
M02*
