M48
; DRILL file {KiCad (6.0.7)} date Fri Feb 10 17:21:06 2023
; FORMAT={-:-/ absolute / metric / decimal}
; #@! TF.CreationDate,2023-02-10T17:21:06-05:00
; #@! TF.GenerationSoftware,Kicad,Pcbnew,(6.0.7)
; #@! TF.FileFunction,MixedPlating,1,2
FMAT,2
METRIC
; #@! TA.AperFunction,Plated,PTH,ComponentDrill
T1C1.000
%
G90
G05
T1
X30.924Y-29.264
X31.813Y-53.602
X31.813Y-56.142
X31.813Y-58.682
X31.813Y-61.222
X36.258Y-70.629
X36.258Y-73.129
X36.703Y-80.929
X36.703Y-83.429
X41.084Y-29.264
X45.72Y-30.036
X45.72Y-32.576
X45.72Y-35.116
X48.006Y-75.986
X48.006Y-86.146
X53.149Y-77.002
X53.149Y-79.542
X53.149Y-82.082
X54.546Y-67.691
X54.927Y-45.657
X60.071Y-31.272
X60.071Y-33.772
X64.834Y-53.648
X64.834Y-56.188
X64.834Y-58.728
X64.834Y-61.268
X67.712Y-39.932
X67.712Y-42.472
X67.712Y-45.012
X70.294Y-67.437
X70.358Y-76.754
X71.105Y-23.399
X71.105Y-36.399
X72.834Y-67.437
X72.898Y-76.754
X75.438Y-76.754
X76.136Y-81.833
X76.136Y-84.373
X77.105Y-23.399
X77.105Y-36.399
X80.194Y-88.954
X81.915Y-24.252
X81.915Y-26.792
X83.058Y-54.595
X83.058Y-57.135
X83.121Y-61.404
X88.201Y-39.043
X88.201Y-41.543
X91.186Y-25.084
X91.186Y-27.584
X92.623Y-74.47
X92.623Y-80.47
X95.194Y-88.954
X95.441Y-42.736
X95.441Y-45.276
X95.441Y-47.816
X100.901Y-31.55
X100.901Y-41.71
X105.623Y-74.47
X105.623Y-80.47
X110.807Y-89.081
X110.807Y-91.581
X111.188Y-28.812
X111.188Y-43.812
X112.861Y-56.315
X112.861Y-58.855
X112.861Y-61.395
X114.935Y-49.198
X114.935Y-51.738
X118.173Y-73.985
X118.173Y-76.525
X118.173Y-79.065
X118.173Y-81.605
X120.65Y-31.232
X120.65Y-44.232
X126.65Y-31.232
X126.65Y-44.232
X132.588Y-38.789
X135.088Y-38.789
X139.382Y-23.551
X139.382Y-26.091
X145.669Y-23.297
X145.669Y-33.457
X150.368Y-27.185
X150.368Y-29.725
X150.368Y-32.265
X151.194Y-74.031
X151.194Y-76.571
X151.194Y-79.111
X151.194Y-81.651
T0
M30
