%TF.GenerationSoftware,KiCad,Pcbnew,(6.0.7)*%
%TF.CreationDate,2023-02-10T17:21:08-05:00*%
%TF.ProjectId,Phoenix612_MultiStage_PA_Testing_v3,50686f65-6e69-4783-9631-325f4d756c74,rev?*%
%TF.SameCoordinates,Original*%
%TF.FileFunction,Legend,Top*%
%TF.FilePolarity,Positive*%
%FSLAX46Y46*%
G04 Gerber Fmt 4.6, Leading zero omitted, Abs format (unit mm)*
G04 Created by KiCad (PCBNEW (6.0.7)) date 2023-02-10 17:21:08*
%MOMM*%
%LPD*%
G01*
G04 APERTURE LIST*
%ADD10C,0.120000*%
G04 APERTURE END LIST*
D10*
%TO.C,C31*%
X90146000Y-27414888D02*
X88838000Y-27414888D01*
X92885000Y-28294888D02*
X92226000Y-28294888D01*
X92505000Y-28574888D02*
X92226000Y-28574888D01*
X92569000Y-28534888D02*
X92226000Y-28534888D01*
X90146000Y-26813888D02*
X88650000Y-26813888D01*
X93433000Y-27614888D02*
X92226000Y-27614888D01*
X93766000Y-26333888D02*
X88606000Y-26333888D01*
X90146000Y-27494888D02*
X88876000Y-27494888D01*
X90146000Y-28174888D02*
X89360000Y-28174888D01*
X90146000Y-27774888D02*
X89037000Y-27774888D01*
X90146000Y-27054888D02*
X88706000Y-27054888D01*
X90146000Y-27814888D02*
X89064000Y-27814888D01*
X92629000Y-28494888D02*
X92226000Y-28494888D01*
X93765000Y-26413888D02*
X88607000Y-26413888D01*
X93221000Y-27934888D02*
X92226000Y-27934888D01*
X91704000Y-28894888D02*
X90668000Y-28894888D01*
X93641000Y-27134888D02*
X92226000Y-27134888D01*
X93410000Y-27654888D02*
X92226000Y-27654888D01*
X90146000Y-27454888D02*
X88857000Y-27454888D01*
X90146000Y-28254888D02*
X89443000Y-28254888D01*
X90146000Y-27974888D02*
X89182000Y-27974888D01*
X90146000Y-28574888D02*
X89867000Y-28574888D01*
X90146000Y-28614888D02*
X89935000Y-28614888D01*
X90146000Y-28134888D02*
X89322000Y-28134888D01*
X90146000Y-26893888D02*
X88666000Y-26893888D01*
X93722000Y-26813888D02*
X92226000Y-26813888D01*
X93666000Y-27054888D02*
X92226000Y-27054888D01*
X93600000Y-27254888D02*
X92226000Y-27254888D01*
X90146000Y-27013888D02*
X88695000Y-27013888D01*
X91863000Y-28854888D02*
X90509000Y-28854888D01*
X93361000Y-27734888D02*
X92226000Y-27734888D01*
X90146000Y-27094888D02*
X88718000Y-27094888D01*
X92971000Y-28214888D02*
X92226000Y-28214888D01*
X90146000Y-28494888D02*
X89743000Y-28494888D01*
X93123000Y-28054888D02*
X92226000Y-28054888D01*
X93335000Y-27774888D02*
X92226000Y-27774888D01*
X93515000Y-27454888D02*
X92226000Y-27454888D01*
X90146000Y-26693888D02*
X88630000Y-26693888D01*
X90146000Y-28534888D02*
X89803000Y-28534888D01*
X93697000Y-26933888D02*
X92226000Y-26933888D01*
X92284000Y-28694888D02*
X90088000Y-28694888D01*
X92929000Y-28254888D02*
X92226000Y-28254888D01*
X90146000Y-26573888D02*
X88617000Y-26573888D01*
X90146000Y-26853888D02*
X88658000Y-26853888D01*
X93729000Y-26773888D02*
X92226000Y-26773888D01*
X93762000Y-26493888D02*
X88610000Y-26493888D01*
X93281000Y-27854888D02*
X92226000Y-27854888D01*
X90146000Y-27574888D02*
X88918000Y-27574888D01*
X93568000Y-27334888D02*
X92226000Y-27334888D01*
X90146000Y-26973888D02*
X88685000Y-26973888D01*
X93714000Y-26853888D02*
X92226000Y-26853888D01*
X93766000Y-26373888D02*
X88606000Y-26373888D01*
X93551000Y-27374888D02*
X92226000Y-27374888D01*
X90146000Y-28334888D02*
X89533000Y-28334888D01*
X93687000Y-26973888D02*
X92226000Y-26973888D01*
X93747000Y-26653888D02*
X92226000Y-26653888D01*
X93386000Y-27694888D02*
X92226000Y-27694888D01*
X90146000Y-27934888D02*
X89151000Y-27934888D01*
X93012000Y-28174888D02*
X92226000Y-28174888D01*
X90146000Y-26733888D02*
X88636000Y-26733888D01*
X93628000Y-27174888D02*
X92226000Y-27174888D01*
X93706000Y-26893888D02*
X92226000Y-26893888D01*
X93736000Y-26733888D02*
X92226000Y-26733888D01*
X90146000Y-27734888D02*
X89011000Y-27734888D01*
X90146000Y-27294888D02*
X88788000Y-27294888D01*
X93764000Y-26453888D02*
X88608000Y-26453888D01*
X93759000Y-26533888D02*
X88613000Y-26533888D01*
X93755000Y-26573888D02*
X92226000Y-26573888D01*
X90146000Y-26933888D02*
X88675000Y-26933888D01*
X90146000Y-28214888D02*
X89401000Y-28214888D01*
X93476000Y-27534888D02*
X92226000Y-27534888D01*
X93251000Y-27894888D02*
X92226000Y-27894888D01*
X90146000Y-27374888D02*
X88821000Y-27374888D01*
X92839000Y-28334888D02*
X92226000Y-28334888D01*
X93742000Y-26693888D02*
X92226000Y-26693888D01*
X90146000Y-28054888D02*
X89249000Y-28054888D01*
X90146000Y-27174888D02*
X88744000Y-27174888D01*
X90146000Y-27894888D02*
X89121000Y-27894888D01*
X90146000Y-27614888D02*
X88939000Y-27614888D01*
X90146000Y-28094888D02*
X89285000Y-28094888D01*
X90146000Y-27134888D02*
X88731000Y-27134888D01*
X90146000Y-27654888D02*
X88962000Y-27654888D01*
X93584000Y-27294888D02*
X92226000Y-27294888D01*
X92661000Y-23529113D02*
X92661000Y-24029113D01*
X90146000Y-28374888D02*
X89581000Y-28374888D01*
X91991000Y-28814888D02*
X90381000Y-28814888D01*
X92437000Y-28614888D02*
X92226000Y-28614888D01*
X90146000Y-27214888D02*
X88758000Y-27214888D01*
X90146000Y-26613888D02*
X88621000Y-26613888D01*
X91470000Y-28934888D02*
X90902000Y-28934888D01*
X93614000Y-27214888D02*
X92226000Y-27214888D01*
X92197000Y-28734888D02*
X90175000Y-28734888D01*
X90146000Y-27334888D02*
X88804000Y-27334888D01*
X93190000Y-27974888D02*
X92226000Y-27974888D01*
X92686000Y-28454888D02*
X92226000Y-28454888D01*
X92364000Y-28654888D02*
X90008000Y-28654888D01*
X93308000Y-27814888D02*
X92226000Y-27814888D01*
X90146000Y-27694888D02*
X88986000Y-27694888D01*
X90146000Y-27254888D02*
X88772000Y-27254888D01*
X92911000Y-23779113D02*
X92411000Y-23779113D01*
X93534000Y-27414888D02*
X92226000Y-27414888D01*
X93157000Y-28014888D02*
X92226000Y-28014888D01*
X93677000Y-27013888D02*
X92226000Y-27013888D01*
X90146000Y-27854888D02*
X89091000Y-27854888D01*
X90146000Y-26653888D02*
X88625000Y-26653888D01*
X90146000Y-27534888D02*
X88896000Y-27534888D01*
X93454000Y-27574888D02*
X92226000Y-27574888D01*
X92740000Y-28414888D02*
X92226000Y-28414888D01*
X93496000Y-27494888D02*
X92226000Y-27494888D01*
X90146000Y-28414888D02*
X89632000Y-28414888D01*
X92101000Y-28774888D02*
X90271000Y-28774888D01*
X90146000Y-28014888D02*
X89215000Y-28014888D01*
X93751000Y-26613888D02*
X92226000Y-26613888D01*
X90146000Y-28454888D02*
X89686000Y-28454888D01*
X93087000Y-28094888D02*
X92226000Y-28094888D01*
X90146000Y-26773888D02*
X88643000Y-26773888D01*
X92791000Y-28374888D02*
X92226000Y-28374888D01*
X93654000Y-27094888D02*
X92226000Y-27094888D01*
X90146000Y-28294888D02*
X89487000Y-28294888D01*
X93050000Y-28134888D02*
X92226000Y-28134888D01*
X93806000Y-26333888D02*
G75*
G03*
X93806000Y-26333888I-2620000J0D01*
G01*
%TO.C,R14*%
X49445500Y-26631785D02*
X49445500Y-28085913D01*
X51265500Y-26631785D02*
X51265500Y-28085913D01*
%TO.C,D5*%
X147139000Y-26676849D02*
X144199000Y-26676849D01*
X147139000Y-25656849D02*
X144199000Y-25656849D01*
X147139000Y-26436849D02*
X144199000Y-26436849D01*
X147139000Y-31096849D02*
X147139000Y-25656849D01*
X144199000Y-25656849D02*
X144199000Y-31096849D01*
X147139000Y-26556849D02*
X144199000Y-26556849D01*
X144199000Y-31096849D02*
X147139000Y-31096849D01*
X145669000Y-24636849D02*
X145669000Y-25656849D01*
X145669000Y-32116849D02*
X145669000Y-31096849D01*
%TO.C,R6*%
X57946936Y-77531000D02*
X59401064Y-77531000D01*
X57946936Y-75711000D02*
X59401064Y-75711000D01*
%TO.C,J6*%
X77466500Y-83103000D02*
X74806500Y-83103000D01*
X77466500Y-83103000D02*
X77466500Y-80503000D01*
X74806500Y-83103000D02*
X74806500Y-80503000D01*
X77466500Y-80503000D02*
X74806500Y-80503000D01*
X77466500Y-85703000D02*
X76136500Y-85703000D01*
X77466500Y-84373000D02*
X77466500Y-85703000D01*
%TO.C,L5*%
X88107436Y-20934000D02*
X89311564Y-20934000D01*
X88107436Y-22754000D02*
X89311564Y-22754000D01*
%TO.C,C8*%
X87161500Y-42133849D02*
X84554500Y-42133849D01*
X87161500Y-42173849D02*
X84574500Y-42173849D01*
X92275500Y-40532849D02*
X89241500Y-40532849D01*
X90235500Y-43853849D02*
X86167500Y-43853849D01*
X91905500Y-42013849D02*
X89241500Y-42013849D01*
X87161500Y-40852849D02*
X84159500Y-40852849D01*
X91807500Y-42213849D02*
X89241500Y-42213849D01*
X87161500Y-41333849D02*
X84254500Y-41333849D01*
X88969500Y-44333849D02*
X87433500Y-44333849D01*
X90601500Y-43613849D02*
X85801500Y-43613849D01*
X92064500Y-41613849D02*
X89241500Y-41613849D01*
X91068500Y-43213849D02*
X85334500Y-43213849D01*
X87161500Y-41413849D02*
X84276500Y-41413849D01*
X91481500Y-42733849D02*
X84921500Y-42733849D01*
X87161500Y-41013849D02*
X84184500Y-41013849D01*
X91510500Y-42693849D02*
X84892500Y-42693849D01*
X90091500Y-43933849D02*
X86311500Y-43933849D01*
X92262500Y-40692849D02*
X89241500Y-40692849D01*
X91694500Y-42413849D02*
X89241500Y-42413849D01*
X91670500Y-42453849D02*
X89241500Y-42453849D01*
X87161500Y-41533849D02*
X84312500Y-41533849D01*
X89846500Y-44053849D02*
X86556500Y-44053849D01*
X91923500Y-41973849D02*
X89241500Y-41973849D01*
X92177500Y-41213849D02*
X89241500Y-41213849D01*
X87161500Y-42053849D02*
X84515500Y-42053849D01*
X87161500Y-41053849D02*
X84191500Y-41053849D01*
X91027500Y-43253849D02*
X85375500Y-43253849D01*
X92051500Y-41653849D02*
X89241500Y-41653849D01*
X92090500Y-41533849D02*
X89241500Y-41533849D01*
X87161500Y-41373849D02*
X84265500Y-41373849D01*
X87161500Y-42573849D02*
X84809500Y-42573849D01*
X92036500Y-41693849D02*
X89241500Y-41693849D01*
X87161500Y-41613849D02*
X84338500Y-41613849D01*
X91451500Y-42773849D02*
X84951500Y-42773849D01*
X91146500Y-43133849D02*
X85256500Y-43133849D01*
X89654500Y-44133849D02*
X86748500Y-44133849D01*
X87161500Y-40652849D02*
X84136500Y-40652849D01*
X92186500Y-41173849D02*
X89241500Y-41173849D01*
X87161500Y-42413849D02*
X84708500Y-42413849D01*
X91763500Y-42293849D02*
X89241500Y-42293849D01*
X92137500Y-41373849D02*
X89241500Y-41373849D01*
X92126500Y-41413849D02*
X89241500Y-41413849D01*
X91785500Y-42253849D02*
X89241500Y-42253849D01*
X87161500Y-42013849D02*
X84497500Y-42013849D01*
X87161500Y-40732849D02*
X84144500Y-40732849D01*
X92269500Y-40612849D02*
X89241500Y-40612849D01*
X87161500Y-40532849D02*
X84127500Y-40532849D01*
X91941500Y-41933849D02*
X89241500Y-41933849D01*
X90985500Y-43293849D02*
X85417500Y-43293849D01*
X87161500Y-41093849D02*
X84199500Y-41093849D01*
X90014500Y-43973849D02*
X86388500Y-43973849D01*
X91421500Y-42813849D02*
X84981500Y-42813849D01*
X87161500Y-41933849D02*
X84461500Y-41933849D01*
X92258500Y-40732849D02*
X89241500Y-40732849D01*
X87161500Y-41573849D02*
X84324500Y-41573849D01*
X88734500Y-44373849D02*
X87668500Y-44373849D01*
X89149500Y-44293849D02*
X87253500Y-44293849D01*
X90546500Y-43653849D02*
X85856500Y-43653849D01*
X92266500Y-40652849D02*
X89241500Y-40652849D01*
X90942500Y-43333849D02*
X85460500Y-43333849D01*
X90655500Y-43573849D02*
X85747500Y-43573849D01*
X87161500Y-41453849D02*
X84287500Y-41453849D01*
X89753500Y-44093849D02*
X86649500Y-44093849D01*
X87161500Y-41213849D02*
X84225500Y-41213849D01*
X91848500Y-42133849D02*
X89241500Y-42133849D01*
X91828500Y-42173849D02*
X89241500Y-42173849D01*
X91593500Y-42573849D02*
X89241500Y-42573849D01*
X90488500Y-43693849D02*
X85914500Y-43693849D01*
X90165500Y-43893849D02*
X86237500Y-43893849D01*
X87161500Y-40612849D02*
X84133500Y-40612849D01*
X87161500Y-42493849D02*
X84757500Y-42493849D01*
X91220500Y-43053849D02*
X85182500Y-43053849D01*
X92249500Y-40812849D02*
X89241500Y-40812849D01*
X92243500Y-40852849D02*
X89241500Y-40852849D01*
X89430500Y-44213849D02*
X86972500Y-44213849D01*
X92195500Y-41133849D02*
X89241500Y-41133849D01*
X90516500Y-35883151D02*
X90516500Y-36683151D01*
X87161500Y-42253849D02*
X84617500Y-42253849D01*
X90852500Y-43413849D02*
X85550500Y-43413849D01*
X91539500Y-42653849D02*
X84863500Y-42653849D01*
X87161500Y-42533849D02*
X84783500Y-42533849D01*
X91619500Y-42533849D02*
X89241500Y-42533849D01*
X87161500Y-42293849D02*
X84639500Y-42293849D01*
X87161500Y-41813849D02*
X84411500Y-41813849D01*
X87161500Y-41853849D02*
X84427500Y-41853849D01*
X90757500Y-43493849D02*
X85645500Y-43493849D01*
X92115500Y-41453849D02*
X89241500Y-41453849D01*
X92103500Y-41493849D02*
X89241500Y-41493849D01*
X89299500Y-44253849D02*
X87103500Y-44253849D01*
X87161500Y-42213849D02*
X84595500Y-42213849D01*
X87161500Y-40892849D02*
X84164500Y-40892849D01*
X90805500Y-43453849D02*
X85597500Y-43453849D01*
X91325500Y-42933849D02*
X85077500Y-42933849D01*
X87161500Y-41133849D02*
X84207500Y-41133849D01*
X92280500Y-40412849D02*
X84122500Y-40412849D01*
X90706500Y-43533849D02*
X85696500Y-43533849D01*
X92006500Y-41773849D02*
X89241500Y-41773849D01*
X92168500Y-41253849D02*
X89241500Y-41253849D01*
X91184500Y-43093849D02*
X85218500Y-43093849D01*
X91357500Y-42893849D02*
X85045500Y-42893849D01*
X91108500Y-43173849D02*
X85294500Y-43173849D01*
X87161500Y-41293849D02*
X84244500Y-41293849D01*
X92277500Y-40492849D02*
X84125500Y-40492849D01*
X87161500Y-40812849D02*
X84153500Y-40812849D01*
X90916500Y-36283151D02*
X90116500Y-36283151D01*
X87161500Y-40772849D02*
X84149500Y-40772849D01*
X87161500Y-41253849D02*
X84234500Y-41253849D01*
X91975500Y-41853849D02*
X89241500Y-41853849D01*
X87161500Y-40572849D02*
X84130500Y-40572849D01*
X87161500Y-40692849D02*
X84140500Y-40692849D01*
X91566500Y-42613849D02*
X84836500Y-42613849D01*
X92281500Y-40332849D02*
X84121500Y-40332849D01*
X92225500Y-40972849D02*
X89241500Y-40972849D01*
X92218500Y-41013849D02*
X89241500Y-41013849D01*
X91991500Y-41813849D02*
X89241500Y-41813849D01*
X87161500Y-42333849D02*
X84661500Y-42333849D01*
X91256500Y-43013849D02*
X85146500Y-43013849D01*
X87161500Y-42093849D02*
X84535500Y-42093849D01*
X92281500Y-40372849D02*
X84121500Y-40372849D01*
X89547500Y-44173849D02*
X86855500Y-44173849D01*
X92203500Y-41093849D02*
X89241500Y-41093849D01*
X92148500Y-41333849D02*
X89241500Y-41333849D01*
X91390500Y-42853849D02*
X85012500Y-42853849D01*
X92272500Y-40572849D02*
X89241500Y-40572849D01*
X91718500Y-42373849D02*
X89241500Y-42373849D01*
X90303500Y-43813849D02*
X86099500Y-43813849D01*
X87161500Y-40972849D02*
X84177500Y-40972849D01*
X91741500Y-42333849D02*
X89241500Y-42333849D01*
X87161500Y-41733849D02*
X84380500Y-41733849D01*
X87161500Y-41493849D02*
X84299500Y-41493849D01*
X92022500Y-41733849D02*
X89241500Y-41733849D01*
X90429500Y-43733849D02*
X85973500Y-43733849D01*
X87161500Y-42373849D02*
X84684500Y-42373849D01*
X87161500Y-41773849D02*
X84396500Y-41773849D01*
X89932500Y-44013849D02*
X86470500Y-44013849D01*
X91645500Y-42493849D02*
X89241500Y-42493849D01*
X90898500Y-43373849D02*
X85504500Y-43373849D01*
X87161500Y-40932849D02*
X84171500Y-40932849D01*
X92158500Y-41293849D02*
X89241500Y-41293849D01*
X87161500Y-41173849D02*
X84216500Y-41173849D01*
X91958500Y-41893849D02*
X89241500Y-41893849D01*
X87161500Y-41973849D02*
X84479500Y-41973849D01*
X91887500Y-42053849D02*
X89241500Y-42053849D01*
X92238500Y-40892849D02*
X89241500Y-40892849D01*
X92278500Y-40452849D02*
X84124500Y-40452849D01*
X92211500Y-41053849D02*
X89241500Y-41053849D01*
X92231500Y-40932849D02*
X89241500Y-40932849D01*
X92078500Y-41573849D02*
X89241500Y-41573849D01*
X92281500Y-40292849D02*
X84121500Y-40292849D01*
X87161500Y-41893849D02*
X84444500Y-41893849D01*
X90367500Y-43773849D02*
X86035500Y-43773849D01*
X87161500Y-41693849D02*
X84366500Y-41693849D01*
X91291500Y-42973849D02*
X85111500Y-42973849D01*
X92253500Y-40772849D02*
X89241500Y-40772849D01*
X87161500Y-41653849D02*
X84351500Y-41653849D01*
X87161500Y-42453849D02*
X84732500Y-42453849D01*
X91867500Y-42093849D02*
X89241500Y-42093849D01*
X92321500Y-40292849D02*
G75*
G03*
X92321500Y-40292849I-4120000J0D01*
G01*
%TO.C,R17*%
X80997436Y-48419849D02*
X82451564Y-48419849D01*
X80997436Y-50239849D02*
X82451564Y-50239849D01*
%TO.C,R2*%
X104551564Y-58494849D02*
X103097436Y-58494849D01*
X104551564Y-56674849D02*
X103097436Y-56674849D01*
%TO.C,J11*%
X83245000Y-28122349D02*
X81915000Y-28122349D01*
X83245000Y-25522349D02*
X83245000Y-22922349D01*
X80585000Y-25522349D02*
X80585000Y-22922349D01*
X83245000Y-26792349D02*
X83245000Y-28122349D01*
X83245000Y-25522349D02*
X80585000Y-25522349D01*
X83245000Y-22922349D02*
X80585000Y-22922349D01*
%TO.C,R4*%
X93832000Y-36029785D02*
X93832000Y-37483913D01*
X95652000Y-36029785D02*
X95652000Y-37483913D01*
%TO.C,J8*%
X139012000Y-67353349D02*
X139012000Y-64453349D01*
X145722000Y-67353349D02*
X145722000Y-64453349D01*
X140917000Y-69258349D02*
X143817000Y-69258349D01*
X140917000Y-62548349D02*
X143817000Y-62548349D01*
%TO.C,C11*%
X56557500Y-79846748D02*
X56557500Y-81269252D01*
X58377500Y-79846748D02*
X58377500Y-81269252D01*
%TO.C,C15*%
X120954748Y-23464349D02*
X122377252Y-23464349D01*
X120954748Y-25284349D02*
X122377252Y-25284349D01*
%TO.C,J3*%
X113605000Y-53067849D02*
X116265000Y-53067849D01*
X113605000Y-50467849D02*
X116265000Y-50467849D01*
X116265000Y-50467849D02*
X116265000Y-53067849D01*
X113605000Y-50467849D02*
X113605000Y-53067849D01*
X113605000Y-49197849D02*
X113605000Y-47867849D01*
X113605000Y-47867849D02*
X114935000Y-47867849D01*
%TO.C,RV3*%
X48250000Y-27690849D02*
X48250000Y-37460849D01*
X48250000Y-27690849D02*
X43180000Y-27690849D01*
X43180000Y-27690849D02*
X43180000Y-37460849D01*
X48250000Y-37460849D02*
X43180000Y-37460849D01*
%TO.C,C17*%
X105177000Y-89639597D02*
X105177000Y-91062101D01*
X103357000Y-89639597D02*
X103357000Y-91062101D01*
%TO.C,C29*%
X63463000Y-34803349D02*
X61111000Y-34803349D01*
X63698000Y-34403349D02*
X61111000Y-34403349D01*
X62358000Y-35923349D02*
X57784000Y-35923349D01*
X64007000Y-33603349D02*
X61111000Y-33603349D01*
X63655000Y-34483349D02*
X61111000Y-34483349D01*
X59031000Y-34443349D02*
X56465000Y-34443349D01*
X59031000Y-32842349D02*
X56003000Y-32842349D01*
X64073000Y-33323349D02*
X61111000Y-33323349D01*
X59031000Y-33243349D02*
X56054000Y-33243349D01*
X63973000Y-33723349D02*
X61111000Y-33723349D01*
X64123000Y-33002349D02*
X61111000Y-33002349D01*
X62675000Y-35683349D02*
X57467000Y-35683349D01*
X59031000Y-33523349D02*
X56114000Y-33523349D01*
X63380000Y-34923349D02*
X56762000Y-34923349D01*
X62173000Y-36043349D02*
X57969000Y-36043349D01*
X63811000Y-34163349D02*
X61111000Y-34163349D01*
X59031000Y-34043349D02*
X56281000Y-34043349D01*
X59031000Y-33283349D02*
X56061000Y-33283349D01*
X59031000Y-34603349D02*
X56554000Y-34603349D01*
X59031000Y-33403349D02*
X56086000Y-33403349D01*
X64151000Y-32522349D02*
X55991000Y-32522349D01*
X59031000Y-33883349D02*
X56221000Y-33883349D01*
X63321000Y-35003349D02*
X56821000Y-35003349D01*
X62525000Y-35803349D02*
X57617000Y-35803349D01*
X59031000Y-33843349D02*
X56208000Y-33843349D01*
X63260000Y-35083349D02*
X56882000Y-35083349D01*
X62035000Y-36123349D02*
X58107000Y-36123349D01*
X64136000Y-32882349D02*
X61111000Y-32882349D01*
X59031000Y-33363349D02*
X56077000Y-33363349D01*
X63588000Y-34603349D02*
X61111000Y-34603349D01*
X63515000Y-34723349D02*
X61111000Y-34723349D01*
X59031000Y-34203349D02*
X56349000Y-34203349D01*
X59031000Y-32962349D02*
X56014000Y-32962349D01*
X59031000Y-34163349D02*
X56331000Y-34163349D01*
X64047000Y-33443349D02*
X61111000Y-33443349D01*
X63934000Y-33843349D02*
X61111000Y-33843349D01*
X61019000Y-36523349D02*
X59123000Y-36523349D01*
X59031000Y-34763349D02*
X56653000Y-34763349D01*
X62471000Y-35843349D02*
X57671000Y-35843349D01*
X59031000Y-33483349D02*
X56104000Y-33483349D01*
X64151000Y-32562349D02*
X55991000Y-32562349D01*
X63489000Y-34763349D02*
X61111000Y-34763349D01*
X63016000Y-35363349D02*
X57126000Y-35363349D01*
X63948000Y-33803349D02*
X61111000Y-33803349D01*
X63409000Y-34883349D02*
X56733000Y-34883349D01*
X63351000Y-34963349D02*
X56791000Y-34963349D01*
X59031000Y-34243349D02*
X56367000Y-34243349D01*
X59031000Y-34083349D02*
X56297000Y-34083349D01*
X59031000Y-33763349D02*
X56182000Y-33763349D01*
X62855000Y-35523349D02*
X57287000Y-35523349D01*
X63892000Y-33963349D02*
X61111000Y-33963349D01*
X62576000Y-35763349D02*
X57566000Y-35763349D01*
X61623000Y-36323349D02*
X58519000Y-36323349D01*
X61169000Y-36483349D02*
X58973000Y-36483349D01*
X63793000Y-34203349D02*
X61111000Y-34203349D01*
X63564000Y-34643349D02*
X61111000Y-34643349D01*
X59031000Y-34403349D02*
X56444000Y-34403349D01*
X63828000Y-34123349D02*
X61111000Y-34123349D01*
X63876000Y-34003349D02*
X61111000Y-34003349D01*
X62299000Y-35963349D02*
X57843000Y-35963349D01*
X59031000Y-32802349D02*
X56000000Y-32802349D01*
X59031000Y-33683349D02*
X56157000Y-33683349D01*
X59031000Y-32882349D02*
X56006000Y-32882349D01*
X64088000Y-33243349D02*
X61111000Y-33243349D01*
X61524000Y-36363349D02*
X58618000Y-36363349D01*
X64108000Y-33122349D02*
X61111000Y-33122349D01*
X63775000Y-34243349D02*
X61111000Y-34243349D01*
X59031000Y-33002349D02*
X56019000Y-33002349D01*
X59031000Y-33923349D02*
X56236000Y-33923349D01*
X61884000Y-36203349D02*
X58258000Y-36203349D01*
X59031000Y-34643349D02*
X56578000Y-34643349D01*
X64132000Y-32922349D02*
X61111000Y-32922349D01*
X63436000Y-34843349D02*
X56706000Y-34843349D01*
X60839000Y-36563349D02*
X59303000Y-36563349D01*
X59031000Y-34803349D02*
X56679000Y-34803349D01*
X59031000Y-32762349D02*
X55997000Y-32762349D01*
X63921000Y-33883349D02*
X61111000Y-33883349D01*
X61802000Y-36243349D02*
X58340000Y-36243349D01*
X63633000Y-34523349D02*
X61111000Y-34523349D01*
X63126000Y-35243349D02*
X57016000Y-35243349D01*
X60604000Y-36603349D02*
X59538000Y-36603349D01*
X63960000Y-33763349D02*
X61111000Y-33763349D01*
X63906000Y-33923349D02*
X61111000Y-33923349D01*
X62978000Y-35403349D02*
X57164000Y-35403349D01*
X62237000Y-36003349D02*
X57905000Y-36003349D01*
X62722000Y-35643349D02*
X57420000Y-35643349D01*
X64028000Y-33523349D02*
X61111000Y-33523349D01*
X62105000Y-36083349D02*
X58037000Y-36083349D01*
X63861000Y-34043349D02*
X61111000Y-34043349D01*
X64113000Y-33082349D02*
X61111000Y-33082349D01*
X59031000Y-33162349D02*
X56041000Y-33162349D01*
X59031000Y-34123349D02*
X56314000Y-34123349D01*
X59031000Y-32922349D02*
X56010000Y-32922349D01*
X64119000Y-33042349D02*
X61111000Y-33042349D01*
X63227000Y-35123349D02*
X56915000Y-35123349D01*
X63677000Y-34443349D02*
X61111000Y-34443349D01*
X59031000Y-33122349D02*
X56034000Y-33122349D01*
X62386000Y-28112651D02*
X62386000Y-28912651D01*
X63090000Y-35283349D02*
X57052000Y-35283349D01*
X64081000Y-33283349D02*
X61111000Y-33283349D01*
X59031000Y-33082349D02*
X56029000Y-33082349D01*
X59031000Y-33643349D02*
X56146000Y-33643349D01*
X59031000Y-34683349D02*
X56602000Y-34683349D01*
X59031000Y-33563349D02*
X56124000Y-33563349D01*
X61716000Y-36283349D02*
X58426000Y-36283349D01*
X59031000Y-34003349D02*
X56266000Y-34003349D01*
X61961000Y-36163349D02*
X58181000Y-36163349D01*
X62768000Y-35603349D02*
X57374000Y-35603349D01*
X59031000Y-34363349D02*
X56424000Y-34363349D01*
X63757000Y-34283349D02*
X61111000Y-34283349D01*
X59031000Y-33042349D02*
X56023000Y-33042349D01*
X59031000Y-34723349D02*
X56627000Y-34723349D01*
X64147000Y-32722349D02*
X55995000Y-32722349D01*
X59031000Y-33963349D02*
X56250000Y-33963349D01*
X63718000Y-34363349D02*
X61111000Y-34363349D01*
X63996000Y-33643349D02*
X61111000Y-33643349D01*
X64101000Y-33162349D02*
X61111000Y-33162349D01*
X64148000Y-32682349D02*
X55994000Y-32682349D01*
X64139000Y-32842349D02*
X61111000Y-32842349D01*
X63291000Y-35043349D02*
X56851000Y-35043349D01*
X63054000Y-35323349D02*
X57088000Y-35323349D01*
X62627000Y-35723349D02*
X57515000Y-35723349D01*
X59031000Y-33323349D02*
X56069000Y-33323349D01*
X64142000Y-32802349D02*
X61111000Y-32802349D01*
X63737000Y-34323349D02*
X61111000Y-34323349D01*
X62416000Y-35883349D02*
X57726000Y-35883349D01*
X64150000Y-32642349D02*
X55992000Y-32642349D01*
X59031000Y-33803349D02*
X56194000Y-33803349D01*
X59031000Y-34483349D02*
X56487000Y-34483349D01*
X64145000Y-32762349D02*
X61111000Y-32762349D01*
X59031000Y-34323349D02*
X56405000Y-34323349D01*
X61300000Y-36443349D02*
X58842000Y-36443349D01*
X62897000Y-35483349D02*
X57245000Y-35483349D01*
X59031000Y-33443349D02*
X56095000Y-33443349D01*
X62938000Y-35443349D02*
X57204000Y-35443349D01*
X63611000Y-34563349D02*
X61111000Y-34563349D01*
X63195000Y-35163349D02*
X56947000Y-35163349D01*
X64065000Y-33363349D02*
X61111000Y-33363349D01*
X64095000Y-33202349D02*
X61111000Y-33202349D01*
X61417000Y-36403349D02*
X58725000Y-36403349D01*
X64038000Y-33483349D02*
X61111000Y-33483349D01*
X63985000Y-33683349D02*
X61111000Y-33683349D01*
X63540000Y-34683349D02*
X61111000Y-34683349D01*
X63161000Y-35203349D02*
X56981000Y-35203349D01*
X64128000Y-32962349D02*
X61111000Y-32962349D01*
X63845000Y-34083349D02*
X61111000Y-34083349D01*
X59031000Y-33603349D02*
X56135000Y-33603349D01*
X64018000Y-33563349D02*
X61111000Y-33563349D01*
X59031000Y-34283349D02*
X56385000Y-34283349D01*
X59031000Y-33723349D02*
X56169000Y-33723349D01*
X62812000Y-35563349D02*
X57330000Y-35563349D01*
X59031000Y-34523349D02*
X56509000Y-34523349D01*
X64151000Y-32602349D02*
X55991000Y-32602349D01*
X64056000Y-33403349D02*
X61111000Y-33403349D01*
X59031000Y-34563349D02*
X56531000Y-34563349D01*
X62786000Y-28512651D02*
X61986000Y-28512651D01*
X59031000Y-33202349D02*
X56047000Y-33202349D01*
X64191000Y-32522349D02*
G75*
G03*
X64191000Y-32522349I-4120000J0D01*
G01*
%TO.C,C18*%
X114696500Y-91571849D02*
X111847500Y-91571849D01*
X109767500Y-91931849D02*
X107050500Y-91931849D01*
X109767500Y-91771849D02*
X106986500Y-91771849D01*
X113591500Y-93331849D02*
X108023500Y-93331849D01*
X109767500Y-92051849D02*
X107103500Y-92051849D01*
X114872500Y-90690849D02*
X111847500Y-90690849D01*
X114774500Y-91291849D02*
X111847500Y-91291849D01*
X109767500Y-91491849D02*
X106893500Y-91491849D01*
X114057500Y-92811849D02*
X107557500Y-92811849D01*
X114657500Y-91691849D02*
X111847500Y-91691849D01*
X112538500Y-94051849D02*
X109076500Y-94051849D01*
X109767500Y-91691849D02*
X106957500Y-91691849D01*
X112452500Y-94091849D02*
X109162500Y-94091849D01*
X109767500Y-92411849D02*
X107290500Y-92411849D01*
X113458500Y-93451849D02*
X108156500Y-93451849D01*
X113897500Y-93011849D02*
X107717500Y-93011849D01*
X114251500Y-92531849D02*
X111847500Y-92531849D01*
X114824500Y-91051849D02*
X111847500Y-91051849D01*
X114642500Y-91731849D02*
X111847500Y-91731849D01*
X114628500Y-91771849D02*
X111847500Y-91771849D01*
X114454500Y-92171849D02*
X111847500Y-92171849D01*
X113548500Y-93371849D02*
X108066500Y-93371849D01*
X114581500Y-91891849D02*
X111847500Y-91891849D01*
X114783500Y-91251849D02*
X111847500Y-91251849D01*
X114886500Y-90450849D02*
X106728500Y-90450849D01*
X113633500Y-93291849D02*
X107981500Y-93291849D01*
X112909500Y-93851849D02*
X108705500Y-93851849D01*
X114817500Y-91091849D02*
X111847500Y-91091849D01*
X114324500Y-92411849D02*
X111847500Y-92411849D01*
X114875500Y-90650849D02*
X111847500Y-90650849D01*
X114564500Y-91931849D02*
X111847500Y-91931849D01*
X109767500Y-90650849D02*
X106739500Y-90650849D01*
X114413500Y-92251849D02*
X111847500Y-92251849D01*
X113261500Y-93611849D02*
X108353500Y-93611849D01*
X109767500Y-91971849D02*
X107067500Y-91971849D01*
X113931500Y-92971849D02*
X107683500Y-92971849D01*
X114199500Y-92611849D02*
X111847500Y-92611849D01*
X114369500Y-92331849D02*
X111847500Y-92331849D01*
X109767500Y-91851849D02*
X107017500Y-91851849D01*
X113963500Y-92931849D02*
X107651500Y-92931849D01*
X113996500Y-92891849D02*
X107618500Y-92891849D01*
X114116500Y-92731849D02*
X107498500Y-92731849D01*
X114225500Y-92571849D02*
X111847500Y-92571849D01*
X114837500Y-90970849D02*
X111847500Y-90970849D01*
X109767500Y-91531849D02*
X106905500Y-91531849D01*
X114764500Y-91331849D02*
X111847500Y-91331849D01*
X114849500Y-90890849D02*
X111847500Y-90890849D01*
X114864500Y-90770849D02*
X111847500Y-90770849D01*
X109767500Y-92251849D02*
X107201500Y-92251849D01*
X114883500Y-90530849D02*
X106731500Y-90530849D01*
X109767500Y-91451849D02*
X106882500Y-91451849D01*
X109767500Y-91371849D02*
X106860500Y-91371849D01*
X113504500Y-93411849D02*
X108110500Y-93411849D01*
X112771500Y-93931849D02*
X108843500Y-93931849D01*
X109767500Y-92211849D02*
X107180500Y-92211849D01*
X109767500Y-90850849D02*
X106759500Y-90850849D01*
X109767500Y-91331849D02*
X106850500Y-91331849D01*
X114801500Y-91171849D02*
X111847500Y-91171849D01*
X111340500Y-94411849D02*
X110274500Y-94411849D01*
X114743500Y-91411849D02*
X111847500Y-91411849D01*
X113790500Y-93131849D02*
X107824500Y-93131849D01*
X112973500Y-93811849D02*
X108641500Y-93811849D01*
X109767500Y-92291849D02*
X107223500Y-92291849D01*
X113522500Y-86321151D02*
X112722500Y-86321151D01*
X114300500Y-92451849D02*
X111847500Y-92451849D01*
X109767500Y-90970849D02*
X106777500Y-90970849D01*
X109767500Y-92611849D02*
X107415500Y-92611849D01*
X112153500Y-94211849D02*
X109461500Y-94211849D01*
X109767500Y-91051849D02*
X106790500Y-91051849D01*
X109767500Y-92491849D02*
X107338500Y-92491849D01*
X113122500Y-85921151D02*
X113122500Y-86721151D01*
X114754500Y-91371849D02*
X111847500Y-91371849D01*
X109767500Y-92531849D02*
X107363500Y-92531849D01*
X109767500Y-92091849D02*
X107121500Y-92091849D01*
X114391500Y-92291849D02*
X111847500Y-92291849D01*
X114172500Y-92651849D02*
X107442500Y-92651849D01*
X109767500Y-90570849D02*
X106733500Y-90570849D01*
X109767500Y-91010849D02*
X106783500Y-91010849D01*
X114844500Y-90930849D02*
X111847500Y-90930849D01*
X113363500Y-93531849D02*
X108251500Y-93531849D01*
X109767500Y-91211849D02*
X106822500Y-91211849D01*
X114878500Y-90610849D02*
X111847500Y-90610849D01*
X109767500Y-91291849D02*
X106840500Y-91291849D01*
X109767500Y-90730849D02*
X106746500Y-90730849D01*
X114511500Y-92051849D02*
X111847500Y-92051849D01*
X113152500Y-93691849D02*
X108462500Y-93691849D01*
X113714500Y-93211849D02*
X107900500Y-93211849D01*
X114547500Y-91971849D02*
X111847500Y-91971849D01*
X114612500Y-91811849D02*
X111847500Y-91811849D01*
X111755500Y-94331849D02*
X109859500Y-94331849D01*
X111905500Y-94291849D02*
X109709500Y-94291849D01*
X114434500Y-92211849D02*
X111847500Y-92211849D01*
X114087500Y-92771849D02*
X107527500Y-92771849D01*
X114881500Y-90570849D02*
X111847500Y-90570849D01*
X114709500Y-91531849D02*
X111847500Y-91531849D01*
X114887500Y-90330849D02*
X106727500Y-90330849D01*
X112359500Y-94131849D02*
X109255500Y-94131849D01*
X109767500Y-90770849D02*
X106750500Y-90770849D01*
X109767500Y-90930849D02*
X106770500Y-90930849D01*
X109767500Y-90690849D02*
X106742500Y-90690849D01*
X109767500Y-91091849D02*
X106797500Y-91091849D01*
X112036500Y-94251849D02*
X109578500Y-94251849D01*
X114732500Y-91451849D02*
X111847500Y-91451849D01*
X114855500Y-90850849D02*
X111847500Y-90850849D01*
X114027500Y-92851849D02*
X107587500Y-92851849D01*
X109767500Y-92131849D02*
X107141500Y-92131849D01*
X114347500Y-92371849D02*
X111847500Y-92371849D01*
X112841500Y-93891849D02*
X108773500Y-93891849D01*
X109767500Y-91571849D02*
X106918500Y-91571849D01*
X113207500Y-93651849D02*
X108407500Y-93651849D01*
X109767500Y-90610849D02*
X106736500Y-90610849D01*
X114859500Y-90810849D02*
X111847500Y-90810849D01*
X114684500Y-91611849D02*
X111847500Y-91611849D01*
X114493500Y-92091849D02*
X111847500Y-92091849D01*
X113752500Y-93171849D02*
X107862500Y-93171849D01*
X109767500Y-90810849D02*
X106755500Y-90810849D01*
X114887500Y-90370849D02*
X106727500Y-90370849D01*
X109767500Y-92451849D02*
X107314500Y-92451849D01*
X111575500Y-94371849D02*
X110039500Y-94371849D01*
X114831500Y-91010849D02*
X111847500Y-91010849D01*
X109767500Y-91891849D02*
X107033500Y-91891849D01*
X109767500Y-92571849D02*
X107389500Y-92571849D01*
X114887500Y-90410849D02*
X106727500Y-90410849D01*
X114868500Y-90730849D02*
X111847500Y-90730849D01*
X113094500Y-93731849D02*
X108520500Y-93731849D01*
X109767500Y-92171849D02*
X107160500Y-92171849D01*
X113411500Y-93491849D02*
X108203500Y-93491849D01*
X109767500Y-92371849D02*
X107267500Y-92371849D01*
X112260500Y-94171849D02*
X109354500Y-94171849D01*
X114529500Y-92011849D02*
X111847500Y-92011849D01*
X109767500Y-92011849D02*
X107085500Y-92011849D01*
X113862500Y-93051849D02*
X107752500Y-93051849D01*
X113674500Y-93251849D02*
X107940500Y-93251849D01*
X109767500Y-91731849D02*
X106972500Y-91731849D01*
X113312500Y-93571849D02*
X108302500Y-93571849D01*
X114792500Y-91211849D02*
X111847500Y-91211849D01*
X109767500Y-91611849D02*
X106930500Y-91611849D01*
X112697500Y-93971849D02*
X108917500Y-93971849D01*
X114721500Y-91491849D02*
X111847500Y-91491849D01*
X109767500Y-91131849D02*
X106805500Y-91131849D01*
X114597500Y-91851849D02*
X111847500Y-91851849D01*
X112620500Y-94011849D02*
X108994500Y-94011849D01*
X114670500Y-91651849D02*
X111847500Y-91651849D01*
X114473500Y-92131849D02*
X111847500Y-92131849D01*
X113035500Y-93771849D02*
X108579500Y-93771849D01*
X114145500Y-92691849D02*
X107469500Y-92691849D01*
X109767500Y-91811849D02*
X107002500Y-91811849D01*
X114809500Y-91131849D02*
X111847500Y-91131849D01*
X109767500Y-91411849D02*
X106871500Y-91411849D01*
X109767500Y-91651849D02*
X106944500Y-91651849D01*
X113826500Y-93091849D02*
X107788500Y-93091849D01*
X114276500Y-92491849D02*
X111847500Y-92491849D01*
X114884500Y-90490849D02*
X106730500Y-90490849D01*
X109767500Y-91251849D02*
X106831500Y-91251849D01*
X109767500Y-90890849D02*
X106765500Y-90890849D01*
X109767500Y-92331849D02*
X107245500Y-92331849D01*
X109767500Y-91171849D02*
X106813500Y-91171849D01*
X114927500Y-90330849D02*
G75*
G03*
X114927500Y-90330849I-4120000J0D01*
G01*
%TO.C,R11*%
X50199936Y-40905349D02*
X51654064Y-40905349D01*
X50199936Y-39085349D02*
X51654064Y-39085349D01*
%TO.C,L1*%
X93641500Y-31580413D02*
X93641500Y-30376285D01*
X95461500Y-31580413D02*
X95461500Y-30376285D01*
%TO.C,C21*%
X98404000Y-89371097D02*
X98404000Y-90793601D01*
X100224000Y-89371097D02*
X100224000Y-90793601D01*
%TO.C,RV2*%
X55679500Y-84427000D02*
X50609500Y-84427000D01*
X50609500Y-74657000D02*
X50609500Y-84427000D01*
X55679500Y-74657000D02*
X50609500Y-74657000D01*
X55679500Y-74657000D02*
X55679500Y-84427000D01*
%TO.C,J9*%
X30617500Y-46017349D02*
X30617500Y-43117349D01*
X37327500Y-46017349D02*
X37327500Y-43117349D01*
X32522500Y-47922349D02*
X35422500Y-47922349D01*
X32522500Y-41212349D02*
X35422500Y-41212349D01*
%TO.C,C23*%
X46884000Y-40554097D02*
X46884000Y-41976601D01*
X45064000Y-40554097D02*
X45064000Y-41976601D01*
%TO.C,R13*%
X62004564Y-38450349D02*
X60550436Y-38450349D01*
X62004564Y-40270349D02*
X60550436Y-40270349D01*
%TO.C,C28*%
X53043500Y-31791097D02*
X53043500Y-33213601D01*
X51223500Y-31791097D02*
X51223500Y-33213601D01*
%TO.C,C26*%
X85005500Y-31092597D02*
X85005500Y-32515101D01*
X86825500Y-31092597D02*
X86825500Y-32515101D01*
%TO.C,C3*%
X88286000Y-46459597D02*
X88286000Y-47882101D01*
X86466000Y-46459597D02*
X86466000Y-47882101D01*
%TO.C,C24*%
X82211500Y-31107097D02*
X82211500Y-32529601D01*
X84031500Y-31107097D02*
X84031500Y-32529601D01*
%TO.C,Q2*%
X67778000Y-73484349D02*
X78018000Y-73484349D01*
X67778000Y-73484349D02*
X67778000Y-78125349D01*
X67778000Y-74994349D02*
X78018000Y-74994349D01*
X67778000Y-78125349D02*
X78018000Y-78125349D01*
X74749000Y-73484349D02*
X74749000Y-74994349D01*
X78018000Y-73484349D02*
X78018000Y-78125349D01*
X71048000Y-73484349D02*
X71048000Y-74994349D01*
%TO.C,U2*%
X31813500Y-52271849D02*
X32923500Y-52271849D01*
X32923500Y-52271849D02*
X32923500Y-53601849D01*
X64833500Y-52317849D02*
X65943500Y-52317849D01*
X65943500Y-52317849D02*
X65943500Y-53647849D01*
X67881500Y-64061849D02*
X29781500Y-64061849D01*
X29781500Y-64061849D02*
X29781500Y-50091849D01*
X29781500Y-50091849D02*
X67881500Y-50091849D01*
X67881500Y-50091849D02*
X67881500Y-64061849D01*
%TO.C,J2*%
X82426500Y-62089500D02*
X82426500Y-61964500D01*
X82426500Y-62089500D02*
X82513224Y-62089500D01*
X82426500Y-61404500D02*
X82426500Y-60719500D01*
X82426500Y-60719500D02*
X83121500Y-60719500D01*
X82426500Y-62089500D02*
X83816500Y-62089500D01*
X83816500Y-62089500D02*
X83816500Y-61964500D01*
X83729776Y-62089500D02*
X83816500Y-62089500D01*
%TO.C,J5*%
X53851500Y-67691000D02*
X53851500Y-67006000D01*
X55241500Y-68376000D02*
X55241500Y-68251000D01*
X55154776Y-68376000D02*
X55241500Y-68376000D01*
X53851500Y-68376000D02*
X53851500Y-68251000D01*
X53851500Y-68376000D02*
X53938224Y-68376000D01*
X53851500Y-68376000D02*
X55241500Y-68376000D01*
X53851500Y-67006000D02*
X54546500Y-67006000D01*
%TO.C,RV1*%
X97970500Y-40390849D02*
X97970500Y-50160849D01*
X97970500Y-40390849D02*
X92900500Y-40390849D01*
X92900500Y-40390849D02*
X92900500Y-50160849D01*
X97970500Y-50160849D02*
X92900500Y-50160849D01*
%TO.C,T2*%
X101125998Y-77470000D02*
G75*
G03*
X101125998Y-77470000I-2002498J0D01*
G01*
X104527202Y-77470000D02*
G75*
G03*
X104527202Y-77470000I-5403702J0D01*
G01*
%TO.C,L4*%
X44810000Y-72651064D02*
X44810000Y-71446936D01*
X46630000Y-72651064D02*
X46630000Y-71446936D01*
%TO.C,D4*%
X138146500Y-26380849D02*
X138302500Y-26380849D01*
X140462500Y-26380849D02*
X140618500Y-26380849D01*
X140618016Y-26380849D02*
G75*
G03*
X140461108Y-23148514I-1235516J1560000D01*
G01*
X138303892Y-23148514D02*
G75*
G03*
X138146984Y-26380849I1078608J-1672335D01*
G01*
X140462500Y-25861810D02*
G75*
G03*
X140462337Y-23779719I-1080000J1040961D01*
G01*
X138302663Y-23779719D02*
G75*
G03*
X138302500Y-25861810I1079837J-1041130D01*
G01*
%TO.C,C2*%
X86720000Y-58016597D02*
X86720000Y-59439101D01*
X88540000Y-58016597D02*
X88540000Y-59439101D01*
%TO.C,C5*%
X81830500Y-39665097D02*
X81830500Y-41087601D01*
X83650500Y-39665097D02*
X83650500Y-41087601D01*
%TO.C,R18*%
X140483000Y-30443785D02*
X140483000Y-31897913D01*
X138663000Y-30443785D02*
X138663000Y-31897913D01*
%TO.C,Q3*%
X65862000Y-40671849D02*
X65862000Y-44271849D01*
X65862000Y-44271849D02*
G75*
G03*
X66589205Y-44796033I1850000J1800000D01*
G01*
X70312000Y-42471849D02*
G75*
G03*
X68810807Y-40115449I-2600000J0D01*
G01*
X68810807Y-44828249D02*
G75*
G03*
X70312000Y-42471849I-1098807J2356400D01*
G01*
X66589205Y-40147665D02*
G75*
G03*
X65862000Y-40671849I1122795J-2324184D01*
G01*
%TO.C,C1*%
X90212500Y-46254597D02*
X90212500Y-47677101D01*
X92032500Y-46254597D02*
X92032500Y-47677101D01*
%TO.C,J10*%
X54232500Y-45656500D02*
X54232500Y-44971500D01*
X54232500Y-46341500D02*
X55622500Y-46341500D01*
X54232500Y-44971500D02*
X54927500Y-44971500D01*
X55535776Y-46341500D02*
X55622500Y-46341500D01*
X54232500Y-46341500D02*
X54319224Y-46341500D01*
X55622500Y-46341500D02*
X55622500Y-46216500D01*
X54232500Y-46341500D02*
X54232500Y-46216500D01*
%TO.C,R9*%
X43772500Y-74496936D02*
X43772500Y-75951064D01*
X41952500Y-74496936D02*
X41952500Y-75951064D01*
%TO.C,C19*%
X39892000Y-84740349D02*
X33514000Y-84740349D01*
X39354000Y-85300349D02*
X34052000Y-85300349D01*
X39953000Y-84660349D02*
X33453000Y-84660349D01*
X38667000Y-85780349D02*
X34739000Y-85780349D01*
X40605000Y-83380349D02*
X37743000Y-83380349D01*
X39259000Y-85380349D02*
X34147000Y-85380349D01*
X35663000Y-82499349D02*
X32635000Y-82499349D01*
X38990000Y-85580349D02*
X34416000Y-85580349D01*
X35663000Y-82619349D02*
X32646000Y-82619349D01*
X37932000Y-86100349D02*
X35474000Y-86100349D01*
X39827000Y-84820349D02*
X33579000Y-84820349D01*
X40733000Y-82819349D02*
X37743000Y-82819349D01*
X35663000Y-82419349D02*
X32629000Y-82419349D01*
X35663000Y-84180349D02*
X33141000Y-84180349D01*
X35663000Y-83300349D02*
X32778000Y-83300349D01*
X40783000Y-82179349D02*
X32623000Y-82179349D01*
X37471000Y-86220349D02*
X35935000Y-86220349D01*
X39648000Y-85020349D02*
X33758000Y-85020349D01*
X35663000Y-83380349D02*
X32801000Y-83380349D01*
X39686000Y-84980349D02*
X33720000Y-84980349D01*
X39529000Y-85140349D02*
X33877000Y-85140349D01*
X40774000Y-82459349D02*
X37743000Y-82459349D01*
X39983000Y-84620349D02*
X33423000Y-84620349D01*
X40041000Y-84540349D02*
X33365000Y-84540349D01*
X40771000Y-82499349D02*
X37743000Y-82499349D01*
X35663000Y-83740349D02*
X32929000Y-83740349D01*
X40407000Y-83900349D02*
X37743000Y-83900349D01*
X35663000Y-83820349D02*
X32963000Y-83820349D01*
X40660000Y-83180349D02*
X37743000Y-83180349D01*
X40508000Y-83660349D02*
X37743000Y-83660349D01*
X35663000Y-82900349D02*
X32686000Y-82900349D01*
X40172000Y-84340349D02*
X37743000Y-84340349D01*
X35663000Y-83940349D02*
X33017000Y-83940349D01*
X38737000Y-85740349D02*
X34669000Y-85740349D01*
X38049000Y-86060349D02*
X35357000Y-86060349D01*
X40780000Y-82339349D02*
X32626000Y-82339349D01*
X35663000Y-83180349D02*
X32746000Y-83180349D01*
X35663000Y-83580349D02*
X32868000Y-83580349D01*
X35663000Y-83260349D02*
X32767000Y-83260349D01*
X40460000Y-83780349D02*
X37743000Y-83780349D01*
X35663000Y-84260349D02*
X33186000Y-84260349D01*
X35663000Y-82699349D02*
X32655000Y-82699349D01*
X39923000Y-84700349D02*
X33483000Y-84700349D01*
X40783000Y-82259349D02*
X32623000Y-82259349D01*
X40639000Y-83260349D02*
X37743000Y-83260349D01*
X39859000Y-84780349D02*
X33547000Y-84780349D01*
X35663000Y-82779349D02*
X32666000Y-82779349D01*
X35663000Y-84340349D02*
X33234000Y-84340349D01*
X40768000Y-82539349D02*
X37743000Y-82539349D01*
X38255000Y-85980349D02*
X35151000Y-85980349D01*
X35663000Y-84300349D02*
X33210000Y-84300349D01*
X40389000Y-83940349D02*
X37743000Y-83940349D01*
X40196000Y-84300349D02*
X37743000Y-84300349D01*
X35663000Y-83020349D02*
X32709000Y-83020349D01*
X38348000Y-85940349D02*
X35058000Y-85940349D01*
X40777000Y-82419349D02*
X37743000Y-82419349D01*
X39610000Y-85060349D02*
X33796000Y-85060349D01*
X39103000Y-85500349D02*
X34303000Y-85500349D01*
X40755000Y-82659349D02*
X37743000Y-82659349D01*
X40783000Y-82219349D02*
X32623000Y-82219349D01*
X40727000Y-82859349D02*
X37743000Y-82859349D01*
X38434000Y-85900349D02*
X34972000Y-85900349D01*
X40095000Y-84460349D02*
X37743000Y-84460349D01*
X35663000Y-83900349D02*
X32999000Y-83900349D01*
X40012000Y-84580349D02*
X33394000Y-84580349D01*
X40287000Y-84140349D02*
X37743000Y-84140349D01*
X35663000Y-83060349D02*
X32718000Y-83060349D01*
X38805000Y-85700349D02*
X34601000Y-85700349D01*
X35663000Y-83340349D02*
X32789000Y-83340349D01*
X35663000Y-83660349D02*
X32898000Y-83660349D01*
X39758000Y-84900349D02*
X33648000Y-84900349D01*
X35663000Y-82739349D02*
X32661000Y-82739349D01*
X40764000Y-82579349D02*
X37743000Y-82579349D01*
X35663000Y-83540349D02*
X32853000Y-83540349D01*
X38869000Y-85660349D02*
X34537000Y-85660349D01*
X40493000Y-83700349D02*
X37743000Y-83700349D01*
X40782000Y-82299349D02*
X32624000Y-82299349D01*
X35663000Y-82940349D02*
X32693000Y-82940349D01*
X40566000Y-83500349D02*
X37743000Y-83500349D01*
X39793000Y-84860349D02*
X33613000Y-84860349D01*
X35663000Y-84460349D02*
X33311000Y-84460349D01*
X40350000Y-84020349D02*
X37743000Y-84020349D01*
X40713000Y-82940349D02*
X37743000Y-82940349D01*
X40720000Y-82900349D02*
X37743000Y-82900349D01*
X40147000Y-84380349D02*
X37743000Y-84380349D01*
X39208000Y-85420349D02*
X34198000Y-85420349D01*
X35663000Y-83860349D02*
X32981000Y-83860349D01*
X40443000Y-83820349D02*
X37743000Y-83820349D01*
X38931000Y-85620349D02*
X34475000Y-85620349D01*
X35663000Y-83460349D02*
X32826000Y-83460349D01*
X35663000Y-83980349D02*
X33037000Y-83980349D01*
X40425000Y-83860349D02*
X37743000Y-83860349D01*
X40617000Y-83340349D02*
X37743000Y-83340349D01*
X40650000Y-83220349D02*
X37743000Y-83220349D01*
X35663000Y-82859349D02*
X32679000Y-82859349D01*
X35663000Y-83700349D02*
X32913000Y-83700349D01*
X35663000Y-84380349D02*
X33259000Y-84380349D01*
X39018000Y-77769651D02*
X39018000Y-78569651D01*
X35663000Y-84060349D02*
X33076000Y-84060349D01*
X39570000Y-85100349D02*
X33836000Y-85100349D01*
X40369000Y-83980349D02*
X37743000Y-83980349D01*
X40679000Y-83100349D02*
X37743000Y-83100349D01*
X40745000Y-82739349D02*
X37743000Y-82739349D01*
X40068000Y-84500349D02*
X33338000Y-84500349D01*
X40265000Y-84180349D02*
X37743000Y-84180349D01*
X40592000Y-83420349D02*
X37743000Y-83420349D01*
X40705000Y-82980349D02*
X37743000Y-82980349D01*
X39307000Y-85340349D02*
X34099000Y-85340349D01*
X35663000Y-84020349D02*
X33056000Y-84020349D01*
X40697000Y-83020349D02*
X37743000Y-83020349D01*
X40538000Y-83580349D02*
X37743000Y-83580349D01*
X39444000Y-85220349D02*
X33962000Y-85220349D01*
X39400000Y-85260349D02*
X34006000Y-85260349D01*
X35663000Y-83780349D02*
X32946000Y-83780349D01*
X40628000Y-83300349D02*
X37743000Y-83300349D01*
X35663000Y-84100349D02*
X33097000Y-84100349D01*
X40330000Y-84060349D02*
X37743000Y-84060349D01*
X37236000Y-86260349D02*
X36170000Y-86260349D01*
X40220000Y-84260349D02*
X37743000Y-84260349D01*
X40553000Y-83540349D02*
X37743000Y-83540349D01*
X40760000Y-82619349D02*
X37743000Y-82619349D01*
X40121000Y-84420349D02*
X37743000Y-84420349D01*
X35663000Y-83420349D02*
X32814000Y-83420349D01*
X40670000Y-83140349D02*
X37743000Y-83140349D01*
X40688000Y-83060349D02*
X37743000Y-83060349D01*
X39157000Y-85460349D02*
X34249000Y-85460349D01*
X35663000Y-84420349D02*
X33285000Y-84420349D01*
X39048000Y-85540349D02*
X34358000Y-85540349D01*
X35663000Y-82980349D02*
X32701000Y-82980349D01*
X35663000Y-82819349D02*
X32673000Y-82819349D01*
X40779000Y-82379349D02*
X32627000Y-82379349D01*
X37651000Y-86180349D02*
X35755000Y-86180349D01*
X35663000Y-84220349D02*
X33163000Y-84220349D01*
X35663000Y-83100349D02*
X32727000Y-83100349D01*
X38516000Y-85860349D02*
X34890000Y-85860349D01*
X38156000Y-86020349D02*
X35250000Y-86020349D01*
X40309000Y-84100349D02*
X37743000Y-84100349D01*
X40740000Y-82779349D02*
X37743000Y-82779349D01*
X35663000Y-82459349D02*
X32632000Y-82459349D01*
X35663000Y-83620349D02*
X32882000Y-83620349D01*
X40580000Y-83460349D02*
X37743000Y-83460349D01*
X35663000Y-82579349D02*
X32642000Y-82579349D01*
X35663000Y-83220349D02*
X32756000Y-83220349D01*
X35663000Y-82659349D02*
X32651000Y-82659349D01*
X40751000Y-82699349D02*
X37743000Y-82699349D01*
X35663000Y-83500349D02*
X32840000Y-83500349D01*
X35663000Y-83140349D02*
X32736000Y-83140349D01*
X40243000Y-84220349D02*
X37743000Y-84220349D01*
X38593000Y-85820349D02*
X34813000Y-85820349D01*
X35663000Y-84140349D02*
X33119000Y-84140349D01*
X37801000Y-86140349D02*
X35605000Y-86140349D01*
X35663000Y-82539349D02*
X32638000Y-82539349D01*
X39722000Y-84940349D02*
X33684000Y-84940349D01*
X39487000Y-85180349D02*
X33919000Y-85180349D01*
X39418000Y-78169651D02*
X38618000Y-78169651D01*
X40524000Y-83620349D02*
X37743000Y-83620349D01*
X40477000Y-83740349D02*
X37743000Y-83740349D01*
X40823000Y-82179349D02*
G75*
G03*
X40823000Y-82179349I-4120000J0D01*
G01*
%TO.C,U1*%
X118173500Y-72655349D02*
X119283500Y-72655349D01*
X151193500Y-72701349D02*
X152303500Y-72701349D01*
X119283500Y-72655349D02*
X119283500Y-73985349D01*
X152303500Y-72701349D02*
X152303500Y-74031349D01*
X154241500Y-84445349D02*
X116141500Y-84445349D01*
X116141500Y-84445349D02*
X116141500Y-70475349D01*
X116141500Y-70475349D02*
X154241500Y-70475349D01*
X154241500Y-70475349D02*
X154241500Y-84445349D01*
%TO.C,R15*%
X75472936Y-46133849D02*
X76927064Y-46133849D01*
X75472936Y-47953849D02*
X76927064Y-47953849D01*
%TO.C,C20*%
X110921748Y-72422849D02*
X112344252Y-72422849D01*
X110921748Y-74242849D02*
X112344252Y-74242849D01*
%TO.C,C7*%
X128037000Y-48618597D02*
X128037000Y-50041101D01*
X126217000Y-48618597D02*
X126217000Y-50041101D01*
%TO.C,C25*%
X41317500Y-40539597D02*
X41317500Y-41962101D01*
X43137500Y-40539597D02*
X43137500Y-41962101D01*
%TO.C,C10*%
X121145248Y-27083849D02*
X122567752Y-27083849D01*
X121145248Y-28903849D02*
X122567752Y-28903849D01*
%TO.C,D2*%
X49476000Y-83786000D02*
X49476000Y-78346000D01*
X49476000Y-79126000D02*
X46536000Y-79126000D01*
X46536000Y-83786000D02*
X49476000Y-83786000D01*
X46536000Y-78346000D02*
X46536000Y-83786000D01*
X49476000Y-78346000D02*
X46536000Y-78346000D01*
X48006000Y-84806000D02*
X48006000Y-83786000D01*
X48006000Y-77326000D02*
X48006000Y-78346000D01*
X49476000Y-79246000D02*
X46536000Y-79246000D01*
X49476000Y-79366000D02*
X46536000Y-79366000D01*
%TO.C,R5*%
X63282936Y-66590500D02*
X64737064Y-66590500D01*
X63282936Y-68410500D02*
X64737064Y-68410500D01*
%TO.C,C30*%
X78062500Y-42357601D02*
X78062500Y-40935097D01*
X76242500Y-42357601D02*
X76242500Y-40935097D01*
%TO.C,R7*%
X65050564Y-77531000D02*
X63596436Y-77531000D01*
X65050564Y-75711000D02*
X63596436Y-75711000D01*
%TO.C,L6*%
X54896936Y-27062349D02*
X56101064Y-27062349D01*
X54896936Y-25242349D02*
X56101064Y-25242349D01*
%TO.C,C27*%
X56845252Y-38577349D02*
X55422748Y-38577349D01*
X56845252Y-40397349D02*
X55422748Y-40397349D01*
%TO.C,R3*%
X110010564Y-53859349D02*
X108556436Y-53859349D01*
X110010564Y-52039349D02*
X108556436Y-52039349D01*
%TO.C,T1*%
X125652498Y-37732349D02*
G75*
G03*
X125652498Y-37732349I-2002498J0D01*
G01*
X129053702Y-37732349D02*
G75*
G03*
X129053702Y-37732349I-5403702J0D01*
G01*
%TO.C,Q1*%
X111010500Y-57054849D02*
X111010500Y-60654849D01*
X111010500Y-60654849D02*
G75*
G03*
X111737705Y-61179033I1850000J1800000D01*
G01*
X113959307Y-61211249D02*
G75*
G03*
X115460500Y-58854849I-1098807J2356400D01*
G01*
X115460500Y-58854849D02*
G75*
G03*
X113959307Y-56498449I-2600000J0D01*
G01*
X111737705Y-56530665D02*
G75*
G03*
X111010500Y-57054849I1122795J-2324184D01*
G01*
%TO.C,R12*%
X62639564Y-42260349D02*
X61185436Y-42260349D01*
X62639564Y-44080349D02*
X61185436Y-44080349D01*
%TO.C,T3*%
X79508202Y-29898849D02*
G75*
G03*
X79508202Y-29898849I-5403702J0D01*
G01*
X76106998Y-29898849D02*
G75*
G03*
X76106998Y-29898849I-2002498J0D01*
G01*
%TO.C,C22*%
X59423248Y-52991849D02*
X60845752Y-52991849D01*
X59423248Y-54811849D02*
X60845752Y-54811849D01*
%TO.C,C9*%
X28617500Y-71161097D02*
X28617500Y-72583601D01*
X30437500Y-71161097D02*
X30437500Y-72583601D01*
%TO.C,C16*%
X44407500Y-83705748D02*
X44407500Y-85128252D01*
X42587500Y-83705748D02*
X42587500Y-85128252D01*
%TO.C,C13*%
X60917500Y-79973748D02*
X60917500Y-81396252D01*
X59097500Y-79973748D02*
X59097500Y-81396252D01*
%TO.C,J12*%
X149038000Y-25855349D02*
X150368000Y-25855349D01*
X149038000Y-27185349D02*
X149038000Y-25855349D01*
X151698000Y-28455349D02*
X151698000Y-33595349D01*
X149038000Y-28455349D02*
X151698000Y-28455349D01*
X149038000Y-28455349D02*
X149038000Y-33595349D01*
X149038000Y-33595349D02*
X151698000Y-33595349D01*
%TO.C,R8*%
X70450064Y-83500000D02*
X68995936Y-83500000D01*
X70450064Y-81680000D02*
X68995936Y-81680000D01*
%TO.C,C4*%
X104865752Y-51912349D02*
X103443248Y-51912349D01*
X104865752Y-53732349D02*
X103443248Y-53732349D01*
%TO.C,D3*%
X33284500Y-30733849D02*
X38724500Y-30733849D01*
X39744500Y-29263849D02*
X38724500Y-29263849D01*
X37704500Y-30733849D02*
X37704500Y-27793849D01*
X38724500Y-27793849D02*
X33284500Y-27793849D01*
X33284500Y-27793849D02*
X33284500Y-30733849D01*
X38724500Y-30733849D02*
X38724500Y-27793849D01*
X32264500Y-29263849D02*
X33284500Y-29263849D01*
X37824500Y-30733849D02*
X37824500Y-27793849D01*
X37944500Y-30733849D02*
X37944500Y-27793849D01*
%TO.C,J1*%
X81728000Y-58465349D02*
X84388000Y-58465349D01*
X81728000Y-55865349D02*
X84388000Y-55865349D01*
X81728000Y-53265349D02*
X83058000Y-53265349D01*
X84388000Y-55865349D02*
X84388000Y-58465349D01*
X81728000Y-55865349D02*
X81728000Y-58465349D01*
X81728000Y-54595349D02*
X81728000Y-53265349D01*
%TO.C,R10*%
X87841500Y-25625436D02*
X87841500Y-27079564D01*
X86021500Y-25625436D02*
X86021500Y-27079564D01*
%TO.C,R16*%
X81062936Y-46302849D02*
X82517064Y-46302849D01*
X81062936Y-44482849D02*
X82517064Y-44482849D01*
%TO.C,D1*%
X99431500Y-38449849D02*
X102371500Y-38449849D01*
X102371500Y-39349849D02*
X102371500Y-33909849D01*
X99431500Y-38329849D02*
X102371500Y-38329849D01*
X100901500Y-32889849D02*
X100901500Y-33909849D01*
X99431500Y-33909849D02*
X99431500Y-39349849D01*
X99431500Y-38569849D02*
X102371500Y-38569849D01*
X100901500Y-40369849D02*
X100901500Y-39349849D01*
X99431500Y-39349849D02*
X102371500Y-39349849D01*
X102371500Y-33909849D02*
X99431500Y-33909849D01*
%TO.C,R1*%
X102023500Y-46316785D02*
X102023500Y-47770913D01*
X103843500Y-46316785D02*
X103843500Y-47770913D01*
%TO.C,C6*%
X39905500Y-73719500D02*
X37298500Y-73719500D01*
X39842500Y-73839500D02*
X37298500Y-73839500D01*
X35218500Y-72679500D02*
X32256500Y-72679500D01*
X35218500Y-73839500D02*
X32674500Y-73839500D01*
X35218500Y-72639500D02*
X32248500Y-72639500D01*
X39414500Y-74479500D02*
X33102500Y-74479500D01*
X38973500Y-67868802D02*
X38173500Y-67868802D01*
X39277500Y-74639500D02*
X33239500Y-74639500D01*
X40234500Y-72799500D02*
X37298500Y-72799500D01*
X35218500Y-72839500D02*
X32291500Y-72839500D01*
X40306500Y-72398500D02*
X37298500Y-72398500D01*
X40332500Y-72118500D02*
X37298500Y-72118500D01*
X40205500Y-72919500D02*
X37298500Y-72919500D01*
X37903500Y-75639500D02*
X34613500Y-75639500D01*
X39885500Y-73759500D02*
X37298500Y-73759500D01*
X37487500Y-75799500D02*
X35029500Y-75799500D01*
X39980500Y-73559500D02*
X37298500Y-73559500D01*
X40323500Y-72238500D02*
X37298500Y-72238500D01*
X40032500Y-73439500D02*
X37298500Y-73439500D01*
X38814500Y-75079500D02*
X33702500Y-75079500D01*
X37810500Y-75679500D02*
X34706500Y-75679500D01*
X40079500Y-73319500D02*
X37298500Y-73319500D01*
X35218500Y-72118500D02*
X32184500Y-72118500D01*
X35218500Y-72999500D02*
X32333500Y-72999500D01*
X39798500Y-73919500D02*
X37298500Y-73919500D01*
X40183500Y-72999500D02*
X37298500Y-72999500D01*
X40338500Y-71958500D02*
X32178500Y-71958500D01*
X39348500Y-74559500D02*
X33168500Y-74559500D01*
X39864500Y-73799500D02*
X37298500Y-73799500D01*
X40334500Y-72078500D02*
X32182500Y-72078500D01*
X40215500Y-72879500D02*
X37298500Y-72879500D01*
X35218500Y-72238500D02*
X32193500Y-72238500D01*
X38573500Y-67468802D02*
X38573500Y-68268802D01*
X39820500Y-73879500D02*
X37298500Y-73879500D01*
X35218500Y-72719500D02*
X32264500Y-72719500D01*
X35218500Y-74079500D02*
X32814500Y-74079500D01*
X40338500Y-71878500D02*
X32178500Y-71878500D01*
X35218500Y-72478500D02*
X32221500Y-72478500D01*
X40063500Y-73359500D02*
X37298500Y-73359500D01*
X35218500Y-72879500D02*
X32301500Y-72879500D01*
X35218500Y-72398500D02*
X32210500Y-72398500D01*
X39727500Y-74039500D02*
X37298500Y-74039500D01*
X38292500Y-75439500D02*
X34224500Y-75439500D01*
X40260500Y-72679500D02*
X37298500Y-72679500D01*
X37711500Y-75719500D02*
X34805500Y-75719500D01*
X40310500Y-72358500D02*
X37298500Y-72358500D01*
X35218500Y-73199500D02*
X32395500Y-73199500D01*
X39042500Y-74879500D02*
X33474500Y-74879500D01*
X40338500Y-71918500D02*
X32178500Y-71918500D01*
X35218500Y-72158500D02*
X32187500Y-72158500D01*
X35218500Y-73359500D02*
X32453500Y-73359500D01*
X39944500Y-73639500D02*
X37298500Y-73639500D01*
X39962500Y-73599500D02*
X37298500Y-73599500D01*
X39508500Y-74359500D02*
X33008500Y-74359500D01*
X39676500Y-74119500D02*
X37298500Y-74119500D01*
X35218500Y-73879500D02*
X32696500Y-73879500D01*
X35218500Y-73399500D02*
X32468500Y-73399500D01*
X35218500Y-74119500D02*
X32840500Y-74119500D01*
X40108500Y-73239500D02*
X37298500Y-73239500D01*
X37206500Y-75879500D02*
X35310500Y-75879500D01*
X39478500Y-74399500D02*
X33038500Y-74399500D01*
X39203500Y-74719500D02*
X33313500Y-74719500D01*
X35218500Y-73599500D02*
X32554500Y-73599500D01*
X35218500Y-74159500D02*
X32866500Y-74159500D01*
X38603500Y-75239500D02*
X33913500Y-75239500D01*
X40225500Y-72839500D02*
X37298500Y-72839500D01*
X37026500Y-75919500D02*
X35490500Y-75919500D01*
X39751500Y-73999500D02*
X37298500Y-73999500D01*
X40326500Y-72198500D02*
X37298500Y-72198500D01*
X35218500Y-72558500D02*
X32234500Y-72558500D01*
X39165500Y-74759500D02*
X33351500Y-74759500D01*
X35218500Y-73319500D02*
X32437500Y-73319500D01*
X38222500Y-75479500D02*
X34294500Y-75479500D01*
X39313500Y-74599500D02*
X33203500Y-74599500D01*
X35218500Y-73999500D02*
X32765500Y-73999500D01*
X39447500Y-74439500D02*
X33069500Y-74439500D01*
X38763500Y-75119500D02*
X33753500Y-75119500D01*
X40335500Y-72038500D02*
X32181500Y-72038500D01*
X35218500Y-73039500D02*
X32344500Y-73039500D01*
X36791500Y-75959500D02*
X35725500Y-75959500D01*
X35218500Y-73559500D02*
X32536500Y-73559500D01*
X39084500Y-74839500D02*
X33432500Y-74839500D01*
X35218500Y-73239500D02*
X32408500Y-73239500D01*
X38486500Y-75319500D02*
X34030500Y-75319500D01*
X40300500Y-72438500D02*
X37298500Y-72438500D01*
X35218500Y-72799500D02*
X32282500Y-72799500D01*
X35218500Y-73959500D02*
X32741500Y-73959500D01*
X40319500Y-72278500D02*
X37298500Y-72278500D01*
X38712500Y-75159500D02*
X33804500Y-75159500D01*
X35218500Y-72438500D02*
X32216500Y-72438500D01*
X40135500Y-73159500D02*
X37298500Y-73159500D01*
X35218500Y-72318500D02*
X32201500Y-72318500D01*
X38862500Y-75039500D02*
X33654500Y-75039500D01*
X38545500Y-75279500D02*
X33971500Y-75279500D01*
X40194500Y-72959500D02*
X37298500Y-72959500D01*
X38148500Y-75519500D02*
X34368500Y-75519500D01*
X35218500Y-74039500D02*
X32789500Y-74039500D01*
X40048500Y-73399500D02*
X37298500Y-73399500D01*
X40243500Y-72759500D02*
X37298500Y-72759500D01*
X40160500Y-73079500D02*
X37298500Y-73079500D01*
X35218500Y-73119500D02*
X32369500Y-73119500D01*
X40275500Y-72599500D02*
X37298500Y-72599500D01*
X35218500Y-73439500D02*
X32484500Y-73439500D01*
X39382500Y-74519500D02*
X33134500Y-74519500D01*
X38999500Y-74919500D02*
X33517500Y-74919500D01*
X40329500Y-72158500D02*
X37298500Y-72158500D01*
X37356500Y-75839500D02*
X35160500Y-75839500D01*
X35218500Y-73759500D02*
X32631500Y-73759500D01*
X35218500Y-73679500D02*
X32592500Y-73679500D01*
X39702500Y-74079500D02*
X37298500Y-74079500D01*
X40315500Y-72318500D02*
X37298500Y-72318500D01*
X39924500Y-73679500D02*
X37298500Y-73679500D01*
X35218500Y-73519500D02*
X32518500Y-73519500D01*
X35218500Y-72518500D02*
X32228500Y-72518500D01*
X37604500Y-75759500D02*
X34912500Y-75759500D01*
X35218500Y-72198500D02*
X32190500Y-72198500D01*
X40295500Y-72478500D02*
X37298500Y-72478500D01*
X35218500Y-72358500D02*
X32206500Y-72358500D01*
X35218500Y-73719500D02*
X32611500Y-73719500D01*
X35218500Y-73799500D02*
X32652500Y-73799500D01*
X35218500Y-72599500D02*
X32241500Y-72599500D01*
X39775500Y-73959500D02*
X37298500Y-73959500D01*
X39650500Y-74159500D02*
X37298500Y-74159500D01*
X37989500Y-75599500D02*
X34527500Y-75599500D01*
X39125500Y-74799500D02*
X33391500Y-74799500D01*
X38360500Y-75399500D02*
X34156500Y-75399500D01*
X40268500Y-72639500D02*
X37298500Y-72639500D01*
X40288500Y-72518500D02*
X37298500Y-72518500D01*
X35218500Y-73279500D02*
X32423500Y-73279500D01*
X39596500Y-74239500D02*
X32920500Y-74239500D01*
X35218500Y-73079500D02*
X32356500Y-73079500D01*
X35218500Y-72959500D02*
X32322500Y-72959500D01*
X38424500Y-75359500D02*
X34092500Y-75359500D01*
X40093500Y-73279500D02*
X37298500Y-73279500D01*
X38955500Y-74959500D02*
X33561500Y-74959500D01*
X40121500Y-73199500D02*
X37298500Y-73199500D01*
X39241500Y-74679500D02*
X33275500Y-74679500D01*
X35218500Y-73919500D02*
X32718500Y-73919500D01*
X38658500Y-75199500D02*
X33858500Y-75199500D01*
X39567500Y-74279500D02*
X32949500Y-74279500D01*
X35218500Y-73159500D02*
X32381500Y-73159500D01*
X35218500Y-72278500D02*
X32197500Y-72278500D01*
X40172500Y-73039500D02*
X37298500Y-73039500D01*
X35218500Y-72759500D02*
X32273500Y-72759500D01*
X40147500Y-73119500D02*
X37298500Y-73119500D01*
X35218500Y-73479500D02*
X32501500Y-73479500D01*
X39998500Y-73519500D02*
X37298500Y-73519500D01*
X40282500Y-72558500D02*
X37298500Y-72558500D01*
X35218500Y-72919500D02*
X32311500Y-72919500D01*
X40337500Y-71998500D02*
X32179500Y-71998500D01*
X38071500Y-75559500D02*
X34445500Y-75559500D01*
X40252500Y-72719500D02*
X37298500Y-72719500D01*
X38909500Y-74999500D02*
X33607500Y-74999500D01*
X40015500Y-73479500D02*
X37298500Y-73479500D01*
X39538500Y-74319500D02*
X32978500Y-74319500D01*
X35218500Y-73639500D02*
X32572500Y-73639500D01*
X39623500Y-74199500D02*
X32893500Y-74199500D01*
X40378500Y-71878500D02*
G75*
G03*
X40378500Y-71878500I-4120000J0D01*
G01*
%TO.C,L2*%
X109728500Y-31653250D02*
G75*
G03*
X109728500Y-40971448I1460000J-4659099D01*
G01*
X112648500Y-40971448D02*
G75*
G03*
X112648500Y-31653250I-1460000J4659099D01*
G01*
X113672000Y-36312349D02*
G75*
G03*
X113672000Y-36312349I-2483500J0D01*
G01*
%TO.C,J4*%
X68964500Y-66107000D02*
X68964500Y-68767000D01*
X72834500Y-66107000D02*
X74164500Y-66107000D01*
X74164500Y-66107000D02*
X74164500Y-67437000D01*
X71564500Y-68767000D02*
X68964500Y-68767000D01*
X71564500Y-66107000D02*
X71564500Y-68767000D01*
X71564500Y-66107000D02*
X68964500Y-66107000D01*
%TO.C,C12*%
X65354252Y-81743500D02*
X63931748Y-81743500D01*
X65354252Y-83563500D02*
X63931748Y-83563500D01*
%TO.C,L3*%
X92352599Y-87493849D02*
G75*
G03*
X83034401Y-87493849I-4659099J-1460000D01*
G01*
X83034401Y-90413849D02*
G75*
G03*
X92352599Y-90413849I4659099J1460000D01*
G01*
X90177000Y-88953849D02*
G75*
G03*
X90177000Y-88953849I-2483500J0D01*
G01*
%TO.C,C14*%
X135159000Y-34925849D02*
X135159000Y-37748849D01*
X134959000Y-34863849D02*
X134959000Y-37748849D01*
X135919000Y-35271849D02*
X135919000Y-37748849D01*
X135119000Y-39828849D02*
X135119000Y-42665849D01*
X135799000Y-35204849D02*
X135799000Y-37748849D01*
X134879000Y-39828849D02*
X134879000Y-42735849D01*
X135239000Y-34953849D02*
X135239000Y-37748849D01*
X136119000Y-39828849D02*
X136119000Y-42180849D01*
X136719000Y-35881849D02*
X136719000Y-41695849D01*
X135959000Y-35295849D02*
X135959000Y-37748849D01*
X135679000Y-39828849D02*
X135679000Y-42435849D01*
X136879000Y-36047849D02*
X136879000Y-41529849D01*
X135479000Y-39828849D02*
X135479000Y-42528849D01*
X134639000Y-34786849D02*
X134639000Y-37748849D01*
X137439000Y-36824849D02*
X137439000Y-40752849D01*
X134759000Y-39828849D02*
X134759000Y-42764849D01*
X129428302Y-36473849D02*
X130228302Y-36473849D01*
X134919000Y-34852849D02*
X134919000Y-37748849D01*
X135359000Y-34998849D02*
X135359000Y-37748849D01*
X134639000Y-39828849D02*
X134639000Y-42790849D01*
X129828302Y-36073849D02*
X129828302Y-36873849D01*
X136919000Y-36091849D02*
X136919000Y-41485849D01*
X137479000Y-36898849D02*
X137479000Y-40678849D01*
X134518000Y-39828849D02*
X134518000Y-42812849D01*
X136359000Y-35568849D02*
X136359000Y-42008849D01*
X136839000Y-36004849D02*
X136839000Y-41572849D01*
X136079000Y-35370849D02*
X136079000Y-37748849D01*
X135519000Y-39828849D02*
X135519000Y-42510849D01*
X134238000Y-39828849D02*
X134238000Y-42849849D01*
X135799000Y-39828849D02*
X135799000Y-42372849D01*
X134559000Y-39828849D02*
X134559000Y-42805849D01*
X135719000Y-35161849D02*
X135719000Y-37748849D01*
X135959000Y-39828849D02*
X135959000Y-42281849D01*
X135879000Y-35248849D02*
X135879000Y-37748849D01*
X134158000Y-39828849D02*
X134158000Y-42856849D01*
X136279000Y-35508849D02*
X136279000Y-42068849D01*
X137319000Y-36622849D02*
X137319000Y-40954849D01*
X136599000Y-35769849D02*
X136599000Y-41807849D01*
X136479000Y-35664849D02*
X136479000Y-41912849D01*
X137639000Y-37236849D02*
X137639000Y-40340849D01*
X135239000Y-39828849D02*
X135239000Y-42623849D01*
X137039000Y-36232849D02*
X137039000Y-41344849D01*
X135319000Y-34983849D02*
X135319000Y-37748849D01*
X135439000Y-35031849D02*
X135439000Y-37748849D01*
X134599000Y-39828849D02*
X134599000Y-42798849D01*
X137279000Y-36560849D02*
X137279000Y-41016849D01*
X135719000Y-39828849D02*
X135719000Y-42415849D01*
X134999000Y-39828849D02*
X134999000Y-42702849D01*
X135759000Y-39828849D02*
X135759000Y-42394849D01*
X137239000Y-36501849D02*
X137239000Y-41075849D01*
X135399000Y-39828849D02*
X135399000Y-42562849D01*
X135839000Y-35226849D02*
X135839000Y-37748849D01*
X136559000Y-35733849D02*
X136559000Y-41843849D01*
X134318000Y-39828849D02*
X134318000Y-42840849D01*
X135479000Y-35048849D02*
X135479000Y-37748849D01*
X137719000Y-37442849D02*
X137719000Y-40134849D01*
X134158000Y-34720849D02*
X134158000Y-37748849D01*
X136799000Y-35962849D02*
X136799000Y-41614849D01*
X137519000Y-36975849D02*
X137519000Y-40601849D01*
X136159000Y-35423849D02*
X136159000Y-42153849D01*
X137119000Y-36334849D02*
X137119000Y-41242849D01*
X135679000Y-35141849D02*
X135679000Y-37748849D01*
X135279000Y-39828849D02*
X135279000Y-42609849D01*
X136999000Y-36184849D02*
X136999000Y-41392849D01*
X134118000Y-39828849D02*
X134118000Y-42859849D01*
X134238000Y-34727849D02*
X134238000Y-37748849D01*
X135759000Y-35182849D02*
X135759000Y-37748849D01*
X134358000Y-34740849D02*
X134358000Y-37748849D01*
X136399000Y-35599849D02*
X136399000Y-41977849D01*
X133958000Y-34709849D02*
X133958000Y-42867849D01*
X134438000Y-34751849D02*
X134438000Y-37748849D01*
X135639000Y-39828849D02*
X135639000Y-42454849D01*
X135999000Y-35319849D02*
X135999000Y-37748849D01*
X134559000Y-34771849D02*
X134559000Y-37748849D01*
X134518000Y-34764849D02*
X134518000Y-37748849D01*
X133998000Y-34711849D02*
X133998000Y-42865849D01*
X134278000Y-39828849D02*
X134278000Y-42845849D01*
X133918000Y-34708849D02*
X133918000Y-42868849D01*
X137599000Y-37143849D02*
X137599000Y-40433849D01*
X134198000Y-39828849D02*
X134198000Y-42853849D01*
X134679000Y-34794849D02*
X134679000Y-37748849D01*
X135599000Y-35102849D02*
X135599000Y-37748849D01*
X135399000Y-35014849D02*
X135399000Y-37748849D01*
X134478000Y-39828849D02*
X134478000Y-42818849D01*
X137079000Y-36283849D02*
X137079000Y-41293849D01*
X137359000Y-36686849D02*
X137359000Y-40890849D01*
X134799000Y-39828849D02*
X134799000Y-42755849D01*
X134358000Y-39828849D02*
X134358000Y-42836849D01*
X134919000Y-39828849D02*
X134919000Y-42724849D01*
X135319000Y-39828849D02*
X135319000Y-42593849D01*
X135279000Y-34967849D02*
X135279000Y-37748849D01*
X135639000Y-35122849D02*
X135639000Y-37748849D01*
X134839000Y-39828849D02*
X134839000Y-42745849D01*
X136199000Y-35450849D02*
X136199000Y-42126849D01*
X135879000Y-39828849D02*
X135879000Y-42328849D01*
X135359000Y-39828849D02*
X135359000Y-42578849D01*
X135039000Y-39828849D02*
X135039000Y-42690849D01*
X133838000Y-34708849D02*
X133838000Y-42868849D01*
X137199000Y-36443849D02*
X137199000Y-41133849D01*
X135079000Y-39828849D02*
X135079000Y-42677849D01*
X136079000Y-39828849D02*
X136079000Y-42206849D01*
X135839000Y-39828849D02*
X135839000Y-42350849D01*
X134959000Y-39828849D02*
X134959000Y-42713849D01*
X137559000Y-37057849D02*
X137559000Y-40519849D01*
X135519000Y-35066849D02*
X135519000Y-37748849D01*
X135559000Y-35084849D02*
X135559000Y-37748849D01*
X136439000Y-35632849D02*
X136439000Y-41944849D01*
X135159000Y-39828849D02*
X135159000Y-42651849D01*
X135439000Y-39828849D02*
X135439000Y-42545849D01*
X136039000Y-39828849D02*
X136039000Y-42232849D01*
X134278000Y-34731849D02*
X134278000Y-37748849D01*
X134478000Y-34758849D02*
X134478000Y-37748849D01*
X134879000Y-34841849D02*
X134879000Y-37748849D01*
X135559000Y-39828849D02*
X135559000Y-42492849D01*
X134038000Y-34712849D02*
X134038000Y-42864849D01*
X136679000Y-35843849D02*
X136679000Y-41733849D01*
X136239000Y-35479849D02*
X136239000Y-42097849D01*
X134438000Y-39828849D02*
X134438000Y-42825849D01*
X137159000Y-36388849D02*
X137159000Y-41188849D01*
X137679000Y-37335849D02*
X137679000Y-40241849D01*
X134398000Y-39828849D02*
X134398000Y-42830849D01*
X134398000Y-34746849D02*
X134398000Y-37748849D01*
X134999000Y-34874849D02*
X134999000Y-37748849D01*
X134118000Y-34717849D02*
X134118000Y-37748849D01*
X134679000Y-39828849D02*
X134679000Y-42782849D01*
X137879000Y-38020849D02*
X137879000Y-39556849D01*
X136119000Y-35396849D02*
X136119000Y-37748849D01*
X135079000Y-34899849D02*
X135079000Y-37748849D01*
X135919000Y-39828849D02*
X135919000Y-42305849D01*
X134759000Y-34812849D02*
X134759000Y-37748849D01*
X137919000Y-38255849D02*
X137919000Y-39321849D01*
X136039000Y-35344849D02*
X136039000Y-37748849D01*
X136519000Y-35698849D02*
X136519000Y-41878849D01*
X137799000Y-37690849D02*
X137799000Y-39886849D01*
X136959000Y-36137849D02*
X136959000Y-41439849D01*
X135119000Y-34911849D02*
X135119000Y-37748849D01*
X135599000Y-39828849D02*
X135599000Y-42474849D01*
X137759000Y-37559849D02*
X137759000Y-40017849D01*
X134719000Y-39828849D02*
X134719000Y-42773849D01*
X135199000Y-34938849D02*
X135199000Y-37748849D01*
X137399000Y-36754849D02*
X137399000Y-40822849D01*
X134078000Y-39828849D02*
X134078000Y-42862849D01*
X134719000Y-34803849D02*
X134719000Y-37748849D01*
X135199000Y-39828849D02*
X135199000Y-42638849D01*
X137839000Y-37840849D02*
X137839000Y-39736849D01*
X136319000Y-35538849D02*
X136319000Y-42038849D01*
X134839000Y-34831849D02*
X134839000Y-37748849D01*
X134799000Y-34821849D02*
X134799000Y-37748849D01*
X135999000Y-39828849D02*
X135999000Y-42257849D01*
X134198000Y-34723849D02*
X134198000Y-37748849D01*
X134599000Y-34778849D02*
X134599000Y-37748849D01*
X133878000Y-34708849D02*
X133878000Y-42868849D01*
X134078000Y-34714849D02*
X134078000Y-37748849D01*
X134318000Y-34736849D02*
X134318000Y-37748849D01*
X136639000Y-35805849D02*
X136639000Y-41771849D01*
X136759000Y-35921849D02*
X136759000Y-41655849D01*
X135039000Y-34886849D02*
X135039000Y-37748849D01*
X137958000Y-38788849D02*
G75*
G03*
X137958000Y-38788849I-4120000J0D01*
G01*
%TD*%
M02*
