%TF.GenerationSoftware,KiCad,Pcbnew,(6.0.7)*%
%TF.CreationDate,2023-02-10T17:21:08-05:00*%
%TF.ProjectId,Phoenix612_MultiStage_PA_Testing_v3,50686f65-6e69-4783-9631-325f4d756c74,rev?*%
%TF.SameCoordinates,Original*%
%TF.FileFunction,Paste,Top*%
%TF.FilePolarity,Positive*%
%FSLAX46Y46*%
G04 Gerber Fmt 4.6, Leading zero omitted, Abs format (unit mm)*
G04 Created by KiCad (PCBNEW (6.0.7)) date 2023-02-10 17:21:08*
%MOMM*%
%LPD*%
G01*
G04 APERTURE LIST*
G04 Aperture macros list*
%AMRoundRect*
0 Rectangle with rounded corners*
0 $1 Rounding radius*
0 $2 $3 $4 $5 $6 $7 $8 $9 X,Y pos of 4 corners*
0 Add a 4 corners polygon primitive as box body*
4,1,4,$2,$3,$4,$5,$6,$7,$8,$9,$2,$3,0*
0 Add four circle primitives for the rounded corners*
1,1,$1+$1,$2,$3*
1,1,$1+$1,$4,$5*
1,1,$1+$1,$6,$7*
1,1,$1+$1,$8,$9*
0 Add four rect primitives between the rounded corners*
20,1,$1+$1,$2,$3,$4,$5,0*
20,1,$1+$1,$4,$5,$6,$7,0*
20,1,$1+$1,$6,$7,$8,$9,0*
20,1,$1+$1,$8,$9,$2,$3,0*%
G04 Aperture macros list end*
%ADD10RoundRect,0.250000X-0.625000X0.312500X-0.625000X-0.312500X0.625000X-0.312500X0.625000X0.312500X0*%
%ADD11RoundRect,0.250000X-0.312500X-0.625000X0.312500X-0.625000X0.312500X0.625000X-0.312500X0.625000X0*%
%ADD12RoundRect,0.250001X-0.462499X-0.624999X0.462499X-0.624999X0.462499X0.624999X-0.462499X0.624999X0*%
%ADD13RoundRect,0.250000X0.312500X0.625000X-0.312500X0.625000X-0.312500X-0.625000X0.312500X-0.625000X0*%
%ADD14C,2.750000*%
%ADD15RoundRect,0.250000X-0.650000X0.325000X-0.650000X-0.325000X0.650000X-0.325000X0.650000X0.325000X0*%
%ADD16RoundRect,0.250000X-0.325000X-0.650000X0.325000X-0.650000X0.325000X0.650000X-0.325000X0.650000X0*%
%ADD17RoundRect,0.250001X0.624999X-0.462499X0.624999X0.462499X-0.624999X0.462499X-0.624999X-0.462499X0*%
%ADD18RoundRect,0.250000X0.650000X-0.325000X0.650000X0.325000X-0.650000X0.325000X-0.650000X-0.325000X0*%
%ADD19RoundRect,0.250000X0.325000X0.650000X-0.325000X0.650000X-0.325000X-0.650000X0.325000X-0.650000X0*%
G04 APERTURE END LIST*
D10*
%TO.C,R14*%
X50355500Y-25896349D03*
X50355500Y-28821349D03*
%TD*%
D11*
%TO.C,R6*%
X57211500Y-76621000D03*
X60136500Y-76621000D03*
%TD*%
D12*
%TO.C,L5*%
X87222000Y-21844000D03*
X90197000Y-21844000D03*
%TD*%
D11*
%TO.C,R17*%
X80262000Y-49329849D03*
X83187000Y-49329849D03*
%TD*%
D13*
%TO.C,R2*%
X105287000Y-57584849D03*
X102362000Y-57584849D03*
%TD*%
D10*
%TO.C,R4*%
X94742000Y-35294349D03*
X94742000Y-38219349D03*
%TD*%
D14*
%TO.C,J8*%
X142367000Y-65903349D03*
X144907000Y-63363349D03*
X144907000Y-68443349D03*
X139827000Y-63363349D03*
X139827000Y-68443349D03*
%TD*%
D15*
%TO.C,C11*%
X57467500Y-79083000D03*
X57467500Y-82033000D03*
%TD*%
D16*
%TO.C,C15*%
X120191000Y-24374349D03*
X123141000Y-24374349D03*
%TD*%
D15*
%TO.C,C17*%
X104267000Y-88875849D03*
X104267000Y-91825849D03*
%TD*%
D11*
%TO.C,R11*%
X49464500Y-39995349D03*
X52389500Y-39995349D03*
%TD*%
D17*
%TO.C,L1*%
X94551500Y-32465849D03*
X94551500Y-29490849D03*
%TD*%
D15*
%TO.C,C21*%
X99314000Y-88607349D03*
X99314000Y-91557349D03*
%TD*%
D14*
%TO.C,J9*%
X33972500Y-44567349D03*
X31432500Y-47107349D03*
X31432500Y-42027349D03*
X36512500Y-42027349D03*
X36512500Y-47107349D03*
%TD*%
D15*
%TO.C,C23*%
X45974000Y-39790349D03*
X45974000Y-42740349D03*
%TD*%
D13*
%TO.C,R13*%
X62740000Y-39360349D03*
X59815000Y-39360349D03*
%TD*%
D15*
%TO.C,C28*%
X52133500Y-31027349D03*
X52133500Y-33977349D03*
%TD*%
%TO.C,C26*%
X85915500Y-30328849D03*
X85915500Y-33278849D03*
%TD*%
%TO.C,C3*%
X87376000Y-45695849D03*
X87376000Y-48645849D03*
%TD*%
%TO.C,C24*%
X83121500Y-30343349D03*
X83121500Y-33293349D03*
%TD*%
D17*
%TO.C,L4*%
X45720000Y-73536500D03*
X45720000Y-70561500D03*
%TD*%
D15*
%TO.C,C2*%
X87630000Y-57252849D03*
X87630000Y-60202849D03*
%TD*%
%TO.C,C5*%
X82740500Y-38901349D03*
X82740500Y-41851349D03*
%TD*%
D10*
%TO.C,R18*%
X139573000Y-29708349D03*
X139573000Y-32633349D03*
%TD*%
D15*
%TO.C,C1*%
X91122500Y-45490849D03*
X91122500Y-48440849D03*
%TD*%
D10*
%TO.C,R9*%
X42862500Y-73761500D03*
X42862500Y-76686500D03*
%TD*%
D11*
%TO.C,R15*%
X74737500Y-47043849D03*
X77662500Y-47043849D03*
%TD*%
D16*
%TO.C,C20*%
X110158000Y-73332849D03*
X113108000Y-73332849D03*
%TD*%
D15*
%TO.C,C7*%
X127127000Y-47854849D03*
X127127000Y-50804849D03*
%TD*%
%TO.C,C25*%
X42227500Y-39775849D03*
X42227500Y-42725849D03*
%TD*%
D16*
%TO.C,C10*%
X120381500Y-27993849D03*
X123331500Y-27993849D03*
%TD*%
D11*
%TO.C,R5*%
X62547500Y-67500500D03*
X65472500Y-67500500D03*
%TD*%
D18*
%TO.C,C30*%
X77152500Y-43121349D03*
X77152500Y-40171349D03*
%TD*%
D13*
%TO.C,R7*%
X65786000Y-76621000D03*
X62861000Y-76621000D03*
%TD*%
D12*
%TO.C,L6*%
X54011500Y-26152349D03*
X56986500Y-26152349D03*
%TD*%
D19*
%TO.C,C27*%
X57609000Y-39487349D03*
X54659000Y-39487349D03*
%TD*%
D13*
%TO.C,R3*%
X110746000Y-52949349D03*
X107821000Y-52949349D03*
%TD*%
%TO.C,R12*%
X63375000Y-43170349D03*
X60450000Y-43170349D03*
%TD*%
D16*
%TO.C,C22*%
X58659500Y-53901849D03*
X61609500Y-53901849D03*
%TD*%
D15*
%TO.C,C9*%
X29527500Y-70397349D03*
X29527500Y-73347349D03*
%TD*%
%TO.C,C16*%
X43497500Y-82942000D03*
X43497500Y-85892000D03*
%TD*%
%TO.C,C13*%
X60007500Y-79210000D03*
X60007500Y-82160000D03*
%TD*%
D13*
%TO.C,R8*%
X71185500Y-82590000D03*
X68260500Y-82590000D03*
%TD*%
D19*
%TO.C,C4*%
X105629500Y-52822349D03*
X102679500Y-52822349D03*
%TD*%
D10*
%TO.C,R10*%
X86931500Y-24890000D03*
X86931500Y-27815000D03*
%TD*%
D11*
%TO.C,R16*%
X80327500Y-45392849D03*
X83252500Y-45392849D03*
%TD*%
D10*
%TO.C,R1*%
X102933500Y-45581349D03*
X102933500Y-48506349D03*
%TD*%
D19*
%TO.C,C12*%
X66118000Y-82653500D03*
X63168000Y-82653500D03*
%TD*%
M02*
