%TF.GenerationSoftware,KiCad,Pcbnew,(6.0.7)*%
%TF.CreationDate,2022-09-22T17:08:06-04:00*%
%TF.ProjectId,Receiver_POC,52656365-6976-4657-925f-504f432e6b69,rev?*%
%TF.SameCoordinates,Original*%
%TF.FileFunction,Drillmap*%
%TF.FilePolarity,Positive*%
%FSLAX45Y45*%
G04 Gerber Fmt 4.5, Leading zero omitted, Abs format (unit mm)*
G04 Created by KiCad (PCBNEW (6.0.7)) date 2022-09-22 17:08:06*
%MOMM*%
%LPD*%
G01*
G04 APERTURE LIST*
%ADD10C,0.100000*%
%ADD11C,0.200000*%
%ADD12C,0.040000*%
%ADD13C,0.080000*%
%ADD14C,0.090000*%
%ADD15C,0.110000*%
%ADD16C,0.120000*%
%ADD17C,0.150000*%
%ADD18C,0.170000*%
G04 APERTURE END LIST*
D10*
X2463800Y-1803400D02*
X12471400Y-1803400D01*
X12471400Y-1803400D02*
X12471400Y-11811000D01*
X12471400Y-11811000D02*
X2463800Y-11811000D01*
X2463800Y-11811000D02*
X2463800Y-1803400D01*
D11*
D12*
X3536000Y-3967800D02*
X3576000Y-4007800D01*
X3576000Y-3967800D02*
X3536000Y-4007800D01*
X6787200Y-11398265D02*
X6827200Y-11438265D01*
X6827200Y-11398265D02*
X6787200Y-11438265D01*
X10673400Y-3536000D02*
X10713400Y-3576000D01*
X10713400Y-3536000D02*
X10673400Y-3576000D01*
X10749600Y-8057200D02*
X10789600Y-8097200D01*
X10789600Y-8057200D02*
X10749600Y-8097200D01*
D13*
X4053200Y-10927935D02*
G75*
G03*
X4053200Y-10927935I-40000J0D01*
G01*
X4053200Y-11177935D02*
G75*
G03*
X4053200Y-11177935I-40000J0D01*
G01*
X4154800Y-7039800D02*
G75*
G03*
X4154800Y-7039800I-40000J0D01*
G01*
X4154800Y-7289800D02*
G75*
G03*
X4154800Y-7289800I-40000J0D01*
G01*
X4154800Y-7620000D02*
G75*
G03*
X4154800Y-7620000I-40000J0D01*
G01*
X4154800Y-7870000D02*
G75*
G03*
X4154800Y-7870000I-40000J0D01*
G01*
X4333600Y-3937000D02*
G75*
G03*
X4333600Y-3937000I-40000J0D01*
G01*
X4587600Y-3937000D02*
G75*
G03*
X4587600Y-3937000I-40000J0D01*
G01*
X4739000Y-7079200D02*
G75*
G03*
X4739000Y-7079200I-40000J0D01*
G01*
X4739000Y-7567200D02*
G75*
G03*
X4739000Y-7567200I-40000J0D01*
G01*
X4841600Y-3937000D02*
G75*
G03*
X4841600Y-3937000I-40000J0D01*
G01*
X4943200Y-4471400D02*
G75*
G03*
X4943200Y-4471400I-40000J0D01*
G01*
X4943200Y-4725400D02*
G75*
G03*
X4943200Y-4725400I-40000J0D01*
G01*
X4943200Y-4979400D02*
G75*
G03*
X4943200Y-4979400I-40000J0D01*
G01*
X4943200Y-5233400D02*
G75*
G03*
X4943200Y-5233400I-40000J0D01*
G01*
X5385730Y-3124200D02*
G75*
G03*
X5385730Y-3124200I-40000J0D01*
G01*
X5475600Y-7072200D02*
G75*
G03*
X5475600Y-7072200I-40000J0D01*
G01*
X5475600Y-7560200D02*
G75*
G03*
X5475600Y-7560200I-40000J0D01*
G01*
X5635730Y-3124200D02*
G75*
G03*
X5635730Y-3124200I-40000J0D01*
G01*
X5705200Y-4471400D02*
G75*
G03*
X5705200Y-4471400I-40000J0D01*
G01*
X5705200Y-4725400D02*
G75*
G03*
X5705200Y-4725400I-40000J0D01*
G01*
X5705200Y-4979400D02*
G75*
G03*
X5705200Y-4979400I-40000J0D01*
G01*
X5705200Y-5233400D02*
G75*
G03*
X5705200Y-5233400I-40000J0D01*
G01*
X6110600Y-10939665D02*
G75*
G03*
X6110600Y-10939665I-40000J0D01*
G01*
X6110600Y-11189665D02*
G75*
G03*
X6110600Y-11189665I-40000J0D01*
G01*
X6136000Y-5410200D02*
G75*
G03*
X6136000Y-5410200I-40000J0D01*
G01*
X6136000Y-5664200D02*
G75*
G03*
X6136000Y-5664200I-40000J0D01*
G01*
X6136000Y-5918200D02*
G75*
G03*
X6136000Y-5918200I-40000J0D01*
G01*
X6188800Y-8128000D02*
G75*
G03*
X6188800Y-8128000I-40000J0D01*
G01*
X6212200Y-7070200D02*
G75*
G03*
X6212200Y-7070200I-40000J0D01*
G01*
X6212200Y-7558200D02*
G75*
G03*
X6212200Y-7558200I-40000J0D01*
G01*
X6438800Y-8128000D02*
G75*
G03*
X6438800Y-8128000I-40000J0D01*
G01*
X6747600Y-8102600D02*
G75*
G03*
X6747600Y-8102600I-40000J0D01*
G01*
X6923400Y-7070200D02*
G75*
G03*
X6923400Y-7070200I-40000J0D01*
G01*
X6923400Y-7558200D02*
G75*
G03*
X6923400Y-7558200I-40000J0D01*
G01*
X6997600Y-8102600D02*
G75*
G03*
X6997600Y-8102600I-40000J0D01*
G01*
X7406000Y-6809200D02*
G75*
G03*
X7406000Y-6809200I-40000J0D01*
G01*
X7406000Y-7059200D02*
G75*
G03*
X7406000Y-7059200I-40000J0D01*
G01*
X9195730Y-4775200D02*
G75*
G03*
X9195730Y-4775200I-40000J0D01*
G01*
X9445730Y-4775200D02*
G75*
G03*
X9445730Y-4775200I-40000J0D01*
G01*
X9845400Y-9348200D02*
G75*
G03*
X9845400Y-9348200I-40000J0D01*
G01*
X9845400Y-9602200D02*
G75*
G03*
X9845400Y-9602200I-40000J0D01*
G01*
X9845400Y-9856200D02*
G75*
G03*
X9845400Y-9856200I-40000J0D01*
G01*
X9845400Y-10110200D02*
G75*
G03*
X9845400Y-10110200I-40000J0D01*
G01*
X10074000Y-4877800D02*
G75*
G03*
X10074000Y-4877800I-40000J0D01*
G01*
X10074000Y-5131800D02*
G75*
G03*
X10074000Y-5131800I-40000J0D01*
G01*
X10074000Y-5385800D02*
G75*
G03*
X10074000Y-5385800I-40000J0D01*
G01*
X10074000Y-5639800D02*
G75*
G03*
X10074000Y-5639800I-40000J0D01*
G01*
X10592730Y-11023600D02*
G75*
G03*
X10592730Y-11023600I-40000J0D01*
G01*
X10607400Y-9348200D02*
G75*
G03*
X10607400Y-9348200I-40000J0D01*
G01*
X10607400Y-9602200D02*
G75*
G03*
X10607400Y-9602200I-40000J0D01*
G01*
X10607400Y-9856200D02*
G75*
G03*
X10607400Y-9856200I-40000J0D01*
G01*
X10607400Y-10110200D02*
G75*
G03*
X10607400Y-10110200I-40000J0D01*
G01*
X10836000Y-4877800D02*
G75*
G03*
X10836000Y-4877800I-40000J0D01*
G01*
X10836000Y-5131800D02*
G75*
G03*
X10836000Y-5131800I-40000J0D01*
G01*
X10836000Y-5385800D02*
G75*
G03*
X10836000Y-5385800I-40000J0D01*
G01*
X10836000Y-5639800D02*
G75*
G03*
X10836000Y-5639800I-40000J0D01*
G01*
X10842730Y-11023600D02*
G75*
G03*
X10842730Y-11023600I-40000J0D01*
G01*
X11165200Y-9525000D02*
G75*
G03*
X11165200Y-9525000I-40000J0D01*
G01*
X11165200Y-9779000D02*
G75*
G03*
X11165200Y-9779000I-40000J0D01*
G01*
X11165200Y-10033000D02*
G75*
G03*
X11165200Y-10033000I-40000J0D01*
G01*
X11317600Y-5028200D02*
G75*
G03*
X11317600Y-5028200I-40000J0D01*
G01*
X11317600Y-5282200D02*
G75*
G03*
X11317600Y-5282200I-40000J0D01*
G01*
X11317600Y-5536200D02*
G75*
G03*
X11317600Y-5536200I-40000J0D01*
G01*
D14*
X4749800Y-10305965D02*
X4749800Y-10395965D01*
X4704800Y-10350965D02*
X4794800Y-10350965D01*
X4749800Y-10559965D02*
X4749800Y-10649965D01*
X4704800Y-10604965D02*
X4794800Y-10604965D01*
D10*
X2905556Y-10056621D02*
X2905556Y-9985909D01*
X2834844Y-9985909D01*
X2834844Y-10056621D01*
X2905556Y-10056621D01*
X2905556Y-10310621D02*
X2905556Y-10239909D01*
X2834844Y-10239909D01*
X2834844Y-10310621D01*
X2905556Y-10310621D01*
X2905556Y-10564621D02*
X2905556Y-10493909D01*
X2834844Y-10493909D01*
X2834844Y-10564621D01*
X2905556Y-10564621D01*
X6690156Y-3154956D02*
X6690156Y-3084244D01*
X6619444Y-3084244D01*
X6619444Y-3154956D01*
X6690156Y-3154956D01*
X6690156Y-3408956D02*
X6690156Y-3338244D01*
X6619444Y-3338244D01*
X6619444Y-3408956D01*
X6690156Y-3408956D01*
X6690156Y-3662956D02*
X6690156Y-3592244D01*
X6619444Y-3592244D01*
X6619444Y-3662956D01*
X6690156Y-3662956D01*
X6690156Y-3916956D02*
X6690156Y-3846244D01*
X6619444Y-3846244D01*
X6619444Y-3916956D01*
X6690156Y-3916956D01*
X9992156Y-3159556D02*
X9992156Y-3088844D01*
X9921444Y-3088844D01*
X9921444Y-3159556D01*
X9992156Y-3159556D01*
X9992156Y-3413556D02*
X9992156Y-3342844D01*
X9921444Y-3342844D01*
X9921444Y-3413556D01*
X9992156Y-3413556D01*
X9992156Y-3667556D02*
X9992156Y-3596844D01*
X9921444Y-3596844D01*
X9921444Y-3667556D01*
X9992156Y-3667556D01*
X9992156Y-3921556D02*
X9992156Y-3850844D01*
X9921444Y-3850844D01*
X9921444Y-3921556D01*
X9992156Y-3921556D01*
X11414556Y-10856256D02*
X11414556Y-10785544D01*
X11343844Y-10785544D01*
X11343844Y-10856256D01*
X11414556Y-10856256D01*
X11414556Y-11110256D02*
X11414556Y-11039544D01*
X11343844Y-11039544D01*
X11343844Y-11110256D01*
X11414556Y-11110256D01*
X11947956Y-5648756D02*
X11947956Y-5578044D01*
X11877244Y-5578044D01*
X11877244Y-5648756D01*
X11947956Y-5648756D01*
X11947956Y-5902756D02*
X11947956Y-5832044D01*
X11877244Y-5832044D01*
X11877244Y-5902756D01*
X11947956Y-5902756D01*
X12024156Y-9077756D02*
X12024156Y-9007044D01*
X11953444Y-9007044D01*
X11953444Y-9077756D01*
X12024156Y-9077756D01*
X12024156Y-9331756D02*
X12024156Y-9261044D01*
X11953444Y-9261044D01*
X11953444Y-9331756D01*
X12024156Y-9331756D01*
D15*
X3327400Y-10254065D02*
X3382400Y-10199065D01*
X3327400Y-10144065D01*
X3272400Y-10199065D01*
X3327400Y-10254065D01*
X3327400Y-11270065D02*
X3382400Y-11215065D01*
X3327400Y-11160065D01*
X3272400Y-11215065D01*
X3327400Y-11270065D01*
X4800600Y-11270065D02*
X4855600Y-11215065D01*
X4800600Y-11160065D01*
X4745600Y-11215065D01*
X4800600Y-11270065D01*
X5054600Y-11270065D02*
X5109600Y-11215065D01*
X5054600Y-11160065D01*
X4999600Y-11215065D01*
X5054600Y-11270065D01*
X5308600Y-11270065D02*
X5363600Y-11215065D01*
X5308600Y-11160065D01*
X5253600Y-11215065D01*
X5308600Y-11270065D01*
D16*
X6315400Y-9084000D02*
X6435400Y-9204000D01*
X6435400Y-9084000D02*
X6315400Y-9204000D01*
X6435400Y-9144000D02*
G75*
G03*
X6435400Y-9144000I-60000J0D01*
G01*
X6340800Y-9617400D02*
X6460800Y-9737400D01*
X6460800Y-9617400D02*
X6340800Y-9737400D01*
X6460800Y-9677400D02*
G75*
G03*
X6460800Y-9677400I-60000J0D01*
G01*
X6671000Y-10049200D02*
X6791000Y-10169200D01*
X6791000Y-10049200D02*
X6671000Y-10169200D01*
X6791000Y-10109200D02*
G75*
G03*
X6791000Y-10109200I-60000J0D01*
G01*
X7993200Y-4397700D02*
X8113200Y-4517700D01*
X8113200Y-4397700D02*
X7993200Y-4517700D01*
X8113200Y-4457700D02*
G75*
G03*
X8113200Y-4457700I-60000J0D01*
G01*
X8323400Y-4829500D02*
X8443400Y-4949500D01*
X8443400Y-4829500D02*
X8323400Y-4949500D01*
X8443400Y-4889500D02*
G75*
G03*
X8443400Y-4889500I-60000J0D01*
G01*
X8348800Y-5362900D02*
X8468800Y-5482900D01*
X8468800Y-5362900D02*
X8348800Y-5482900D01*
X8468800Y-5422900D02*
G75*
G03*
X8468800Y-5422900I-60000J0D01*
G01*
X9110800Y-6328100D02*
X9230800Y-6448100D01*
X9230800Y-6328100D02*
X9110800Y-6448100D01*
X9230800Y-6388100D02*
G75*
G03*
X9230800Y-6388100I-60000J0D01*
G01*
X9441000Y-6759900D02*
X9561000Y-6879900D01*
X9561000Y-6759900D02*
X9441000Y-6879900D01*
X9561000Y-6819900D02*
G75*
G03*
X9561000Y-6819900I-60000J0D01*
G01*
X9466400Y-7293300D02*
X9586400Y-7413300D01*
X9586400Y-7293300D02*
X9466400Y-7413300D01*
X9586400Y-7353300D02*
G75*
G03*
X9586400Y-7353300I-60000J0D01*
G01*
D17*
X3150800Y-5259000D02*
X3300800Y-5409000D01*
X3300800Y-5259000D02*
X3150800Y-5409000D01*
X3225800Y-5259000D02*
X3225800Y-5409000D01*
X3150800Y-5334000D02*
X3300800Y-5334000D01*
D18*
X2886800Y-4995000D02*
X3056800Y-5165000D01*
X3056800Y-4995000D02*
X2886800Y-5165000D01*
X3031905Y-5140105D02*
X3031905Y-5019895D01*
X2911695Y-5019895D01*
X2911695Y-5140105D01*
X3031905Y-5140105D01*
X2886800Y-5503000D02*
X3056800Y-5673000D01*
X3056800Y-5503000D02*
X2886800Y-5673000D01*
X3031905Y-5648105D02*
X3031905Y-5527895D01*
X2911695Y-5527895D01*
X2911695Y-5648105D01*
X3031905Y-5648105D01*
X3394800Y-4995000D02*
X3564800Y-5165000D01*
X3564800Y-4995000D02*
X3394800Y-5165000D01*
X3539905Y-5140105D02*
X3539905Y-5019895D01*
X3419695Y-5019895D01*
X3419695Y-5140105D01*
X3539905Y-5140105D01*
X3394800Y-5503000D02*
X3564800Y-5673000D01*
X3564800Y-5503000D02*
X3394800Y-5673000D01*
X3539905Y-5648105D02*
X3539905Y-5527895D01*
X3419695Y-5527895D01*
X3419695Y-5648105D01*
X3539905Y-5648105D01*
D11*
X2716419Y-12126476D02*
X2716419Y-11926476D01*
X2764038Y-11926476D01*
X2792610Y-11936000D01*
X2811657Y-11955048D01*
X2821181Y-11974095D01*
X2830705Y-12012190D01*
X2830705Y-12040762D01*
X2821181Y-12078857D01*
X2811657Y-12097905D01*
X2792610Y-12116952D01*
X2764038Y-12126476D01*
X2716419Y-12126476D01*
X2916419Y-12126476D02*
X2916419Y-11993143D01*
X2916419Y-12031238D02*
X2925943Y-12012190D01*
X2935467Y-12002667D01*
X2954514Y-11993143D01*
X2973562Y-11993143D01*
X3040228Y-12126476D02*
X3040228Y-11993143D01*
X3040228Y-11926476D02*
X3030705Y-11936000D01*
X3040228Y-11945524D01*
X3049752Y-11936000D01*
X3040228Y-11926476D01*
X3040228Y-11945524D01*
X3164038Y-12126476D02*
X3144990Y-12116952D01*
X3135467Y-12097905D01*
X3135467Y-11926476D01*
X3268800Y-12126476D02*
X3249752Y-12116952D01*
X3240228Y-12097905D01*
X3240228Y-11926476D01*
X3497371Y-12126476D02*
X3497371Y-11926476D01*
X3564038Y-12069333D01*
X3630705Y-11926476D01*
X3630705Y-12126476D01*
X3811657Y-12126476D02*
X3811657Y-12021714D01*
X3802133Y-12002667D01*
X3783086Y-11993143D01*
X3744990Y-11993143D01*
X3725943Y-12002667D01*
X3811657Y-12116952D02*
X3792609Y-12126476D01*
X3744990Y-12126476D01*
X3725943Y-12116952D01*
X3716419Y-12097905D01*
X3716419Y-12078857D01*
X3725943Y-12059809D01*
X3744990Y-12050286D01*
X3792609Y-12050286D01*
X3811657Y-12040762D01*
X3906895Y-11993143D02*
X3906895Y-12193143D01*
X3906895Y-12002667D02*
X3925943Y-11993143D01*
X3964038Y-11993143D01*
X3983086Y-12002667D01*
X3992609Y-12012190D01*
X4002133Y-12031238D01*
X4002133Y-12088381D01*
X3992609Y-12107428D01*
X3983086Y-12116952D01*
X3964038Y-12126476D01*
X3925943Y-12126476D01*
X3906895Y-12116952D01*
X4087848Y-12107428D02*
X4097371Y-12116952D01*
X4087848Y-12126476D01*
X4078324Y-12116952D01*
X4087848Y-12107428D01*
X4087848Y-12126476D01*
X4087848Y-12002667D02*
X4097371Y-12012190D01*
X4087848Y-12021714D01*
X4078324Y-12012190D01*
X4087848Y-12002667D01*
X4087848Y-12021714D01*
D12*
X2418800Y-12436000D02*
X2458800Y-12476000D01*
X2458800Y-12436000D02*
X2418800Y-12476000D01*
D11*
X2754514Y-12346476D02*
X2773562Y-12346476D01*
X2792610Y-12356000D01*
X2802133Y-12365524D01*
X2811657Y-12384571D01*
X2821181Y-12422667D01*
X2821181Y-12470286D01*
X2811657Y-12508381D01*
X2802133Y-12527428D01*
X2792610Y-12536952D01*
X2773562Y-12546476D01*
X2754514Y-12546476D01*
X2735467Y-12536952D01*
X2725943Y-12527428D01*
X2716419Y-12508381D01*
X2706895Y-12470286D01*
X2706895Y-12422667D01*
X2716419Y-12384571D01*
X2725943Y-12365524D01*
X2735467Y-12356000D01*
X2754514Y-12346476D01*
X2906895Y-12527428D02*
X2916419Y-12536952D01*
X2906895Y-12546476D01*
X2897371Y-12536952D01*
X2906895Y-12527428D01*
X2906895Y-12546476D01*
X3087848Y-12413143D02*
X3087848Y-12546476D01*
X3040228Y-12336952D02*
X2992609Y-12479809D01*
X3116419Y-12479809D01*
X3230705Y-12346476D02*
X3249752Y-12346476D01*
X3268800Y-12356000D01*
X3278324Y-12365524D01*
X3287848Y-12384571D01*
X3297371Y-12422667D01*
X3297371Y-12470286D01*
X3287848Y-12508381D01*
X3278324Y-12527428D01*
X3268800Y-12536952D01*
X3249752Y-12546476D01*
X3230705Y-12546476D01*
X3211657Y-12536952D01*
X3202133Y-12527428D01*
X3192609Y-12508381D01*
X3183086Y-12470286D01*
X3183086Y-12422667D01*
X3192609Y-12384571D01*
X3202133Y-12365524D01*
X3211657Y-12356000D01*
X3230705Y-12346476D01*
X3421181Y-12346476D02*
X3440228Y-12346476D01*
X3459276Y-12356000D01*
X3468800Y-12365524D01*
X3478324Y-12384571D01*
X3487848Y-12422667D01*
X3487848Y-12470286D01*
X3478324Y-12508381D01*
X3468800Y-12527428D01*
X3459276Y-12536952D01*
X3440228Y-12546476D01*
X3421181Y-12546476D01*
X3402133Y-12536952D01*
X3392609Y-12527428D01*
X3383086Y-12508381D01*
X3373562Y-12470286D01*
X3373562Y-12422667D01*
X3383086Y-12384571D01*
X3392609Y-12365524D01*
X3402133Y-12356000D01*
X3421181Y-12346476D01*
X3573562Y-12546476D02*
X3573562Y-12413143D01*
X3573562Y-12432190D02*
X3583086Y-12422667D01*
X3602133Y-12413143D01*
X3630705Y-12413143D01*
X3649752Y-12422667D01*
X3659276Y-12441714D01*
X3659276Y-12546476D01*
X3659276Y-12441714D02*
X3668800Y-12422667D01*
X3687848Y-12413143D01*
X3716419Y-12413143D01*
X3735467Y-12422667D01*
X3744990Y-12441714D01*
X3744990Y-12546476D01*
X3840228Y-12546476D02*
X3840228Y-12413143D01*
X3840228Y-12432190D02*
X3849752Y-12422667D01*
X3868800Y-12413143D01*
X3897371Y-12413143D01*
X3916419Y-12422667D01*
X3925943Y-12441714D01*
X3925943Y-12546476D01*
X3925943Y-12441714D02*
X3935467Y-12422667D01*
X3954514Y-12413143D01*
X3983086Y-12413143D01*
X4002133Y-12422667D01*
X4011657Y-12441714D01*
X4011657Y-12546476D01*
X4402133Y-12336952D02*
X4230705Y-12594095D01*
X4659276Y-12346476D02*
X4678324Y-12346476D01*
X4697371Y-12356000D01*
X4706895Y-12365524D01*
X4716419Y-12384571D01*
X4725943Y-12422667D01*
X4725943Y-12470286D01*
X4716419Y-12508381D01*
X4706895Y-12527428D01*
X4697371Y-12536952D01*
X4678324Y-12546476D01*
X4659276Y-12546476D01*
X4640229Y-12536952D01*
X4630705Y-12527428D01*
X4621181Y-12508381D01*
X4611657Y-12470286D01*
X4611657Y-12422667D01*
X4621181Y-12384571D01*
X4630705Y-12365524D01*
X4640229Y-12356000D01*
X4659276Y-12346476D01*
X4811657Y-12527428D02*
X4821181Y-12536952D01*
X4811657Y-12546476D01*
X4802133Y-12536952D01*
X4811657Y-12527428D01*
X4811657Y-12546476D01*
X4944990Y-12346476D02*
X4964038Y-12346476D01*
X4983086Y-12356000D01*
X4992610Y-12365524D01*
X5002133Y-12384571D01*
X5011657Y-12422667D01*
X5011657Y-12470286D01*
X5002133Y-12508381D01*
X4992610Y-12527428D01*
X4983086Y-12536952D01*
X4964038Y-12546476D01*
X4944990Y-12546476D01*
X4925943Y-12536952D01*
X4916419Y-12527428D01*
X4906895Y-12508381D01*
X4897371Y-12470286D01*
X4897371Y-12422667D01*
X4906895Y-12384571D01*
X4916419Y-12365524D01*
X4925943Y-12356000D01*
X4944990Y-12346476D01*
X5202133Y-12546476D02*
X5087848Y-12546476D01*
X5144990Y-12546476D02*
X5144990Y-12346476D01*
X5125943Y-12375048D01*
X5106895Y-12394095D01*
X5087848Y-12403619D01*
X5383086Y-12346476D02*
X5287848Y-12346476D01*
X5278324Y-12441714D01*
X5287848Y-12432190D01*
X5306895Y-12422667D01*
X5354514Y-12422667D01*
X5373562Y-12432190D01*
X5383086Y-12441714D01*
X5392610Y-12460762D01*
X5392610Y-12508381D01*
X5383086Y-12527428D01*
X5373562Y-12536952D01*
X5354514Y-12546476D01*
X5306895Y-12546476D01*
X5287848Y-12536952D01*
X5278324Y-12527428D01*
X5459276Y-12346476D02*
X5592609Y-12346476D01*
X5506895Y-12546476D01*
X5659276Y-12346476D02*
X5659276Y-12384571D01*
X5735467Y-12346476D02*
X5735467Y-12384571D01*
X6030705Y-12622667D02*
X6021181Y-12613143D01*
X6002133Y-12584571D01*
X5992609Y-12565524D01*
X5983086Y-12536952D01*
X5973562Y-12489333D01*
X5973562Y-12451238D01*
X5983086Y-12403619D01*
X5992609Y-12375048D01*
X6002133Y-12356000D01*
X6021181Y-12327428D01*
X6030705Y-12317905D01*
X6192609Y-12413143D02*
X6192609Y-12546476D01*
X6144990Y-12336952D02*
X6097371Y-12479809D01*
X6221181Y-12479809D01*
X6449752Y-12546476D02*
X6449752Y-12346476D01*
X6535467Y-12546476D02*
X6535467Y-12441714D01*
X6525943Y-12422667D01*
X6506895Y-12413143D01*
X6478324Y-12413143D01*
X6459276Y-12422667D01*
X6449752Y-12432190D01*
X6659276Y-12546476D02*
X6640228Y-12536952D01*
X6630705Y-12527428D01*
X6621181Y-12508381D01*
X6621181Y-12451238D01*
X6630705Y-12432190D01*
X6640228Y-12422667D01*
X6659276Y-12413143D01*
X6687848Y-12413143D01*
X6706895Y-12422667D01*
X6716419Y-12432190D01*
X6725943Y-12451238D01*
X6725943Y-12508381D01*
X6716419Y-12527428D01*
X6706895Y-12536952D01*
X6687848Y-12546476D01*
X6659276Y-12546476D01*
X6840228Y-12546476D02*
X6821181Y-12536952D01*
X6811657Y-12517905D01*
X6811657Y-12346476D01*
X6992609Y-12536952D02*
X6973562Y-12546476D01*
X6935467Y-12546476D01*
X6916419Y-12536952D01*
X6906895Y-12517905D01*
X6906895Y-12441714D01*
X6916419Y-12422667D01*
X6935467Y-12413143D01*
X6973562Y-12413143D01*
X6992609Y-12422667D01*
X7002133Y-12441714D01*
X7002133Y-12460762D01*
X6906895Y-12479809D01*
X7078324Y-12536952D02*
X7097371Y-12546476D01*
X7135467Y-12546476D01*
X7154514Y-12536952D01*
X7164038Y-12517905D01*
X7164038Y-12508381D01*
X7154514Y-12489333D01*
X7135467Y-12479809D01*
X7106895Y-12479809D01*
X7087848Y-12470286D01*
X7078324Y-12451238D01*
X7078324Y-12441714D01*
X7087848Y-12422667D01*
X7106895Y-12413143D01*
X7135467Y-12413143D01*
X7154514Y-12422667D01*
X7230705Y-12622667D02*
X7240228Y-12613143D01*
X7259276Y-12584571D01*
X7268800Y-12565524D01*
X7278324Y-12536952D01*
X7287848Y-12489333D01*
X7287848Y-12451238D01*
X7278324Y-12403619D01*
X7268800Y-12375048D01*
X7259276Y-12356000D01*
X7240228Y-12327428D01*
X7230705Y-12317905D01*
D13*
X2458800Y-12720000D02*
G75*
G03*
X2458800Y-12720000I-40000J0D01*
G01*
D11*
X2754514Y-12610476D02*
X2773562Y-12610476D01*
X2792610Y-12620000D01*
X2802133Y-12629524D01*
X2811657Y-12648571D01*
X2821181Y-12686667D01*
X2821181Y-12734286D01*
X2811657Y-12772381D01*
X2802133Y-12791428D01*
X2792610Y-12800952D01*
X2773562Y-12810476D01*
X2754514Y-12810476D01*
X2735467Y-12800952D01*
X2725943Y-12791428D01*
X2716419Y-12772381D01*
X2706895Y-12734286D01*
X2706895Y-12686667D01*
X2716419Y-12648571D01*
X2725943Y-12629524D01*
X2735467Y-12620000D01*
X2754514Y-12610476D01*
X2906895Y-12791428D02*
X2916419Y-12800952D01*
X2906895Y-12810476D01*
X2897371Y-12800952D01*
X2906895Y-12791428D01*
X2906895Y-12810476D01*
X3030705Y-12696190D02*
X3011657Y-12686667D01*
X3002133Y-12677143D01*
X2992609Y-12658095D01*
X2992609Y-12648571D01*
X3002133Y-12629524D01*
X3011657Y-12620000D01*
X3030705Y-12610476D01*
X3068800Y-12610476D01*
X3087848Y-12620000D01*
X3097371Y-12629524D01*
X3106895Y-12648571D01*
X3106895Y-12658095D01*
X3097371Y-12677143D01*
X3087848Y-12686667D01*
X3068800Y-12696190D01*
X3030705Y-12696190D01*
X3011657Y-12705714D01*
X3002133Y-12715238D01*
X2992609Y-12734286D01*
X2992609Y-12772381D01*
X3002133Y-12791428D01*
X3011657Y-12800952D01*
X3030705Y-12810476D01*
X3068800Y-12810476D01*
X3087848Y-12800952D01*
X3097371Y-12791428D01*
X3106895Y-12772381D01*
X3106895Y-12734286D01*
X3097371Y-12715238D01*
X3087848Y-12705714D01*
X3068800Y-12696190D01*
X3230705Y-12610476D02*
X3249752Y-12610476D01*
X3268800Y-12620000D01*
X3278324Y-12629524D01*
X3287848Y-12648571D01*
X3297371Y-12686667D01*
X3297371Y-12734286D01*
X3287848Y-12772381D01*
X3278324Y-12791428D01*
X3268800Y-12800952D01*
X3249752Y-12810476D01*
X3230705Y-12810476D01*
X3211657Y-12800952D01*
X3202133Y-12791428D01*
X3192609Y-12772381D01*
X3183086Y-12734286D01*
X3183086Y-12686667D01*
X3192609Y-12648571D01*
X3202133Y-12629524D01*
X3211657Y-12620000D01*
X3230705Y-12610476D01*
X3421181Y-12610476D02*
X3440228Y-12610476D01*
X3459276Y-12620000D01*
X3468800Y-12629524D01*
X3478324Y-12648571D01*
X3487848Y-12686667D01*
X3487848Y-12734286D01*
X3478324Y-12772381D01*
X3468800Y-12791428D01*
X3459276Y-12800952D01*
X3440228Y-12810476D01*
X3421181Y-12810476D01*
X3402133Y-12800952D01*
X3392609Y-12791428D01*
X3383086Y-12772381D01*
X3373562Y-12734286D01*
X3373562Y-12686667D01*
X3383086Y-12648571D01*
X3392609Y-12629524D01*
X3402133Y-12620000D01*
X3421181Y-12610476D01*
X3573562Y-12810476D02*
X3573562Y-12677143D01*
X3573562Y-12696190D02*
X3583086Y-12686667D01*
X3602133Y-12677143D01*
X3630705Y-12677143D01*
X3649752Y-12686667D01*
X3659276Y-12705714D01*
X3659276Y-12810476D01*
X3659276Y-12705714D02*
X3668800Y-12686667D01*
X3687848Y-12677143D01*
X3716419Y-12677143D01*
X3735467Y-12686667D01*
X3744990Y-12705714D01*
X3744990Y-12810476D01*
X3840228Y-12810476D02*
X3840228Y-12677143D01*
X3840228Y-12696190D02*
X3849752Y-12686667D01*
X3868800Y-12677143D01*
X3897371Y-12677143D01*
X3916419Y-12686667D01*
X3925943Y-12705714D01*
X3925943Y-12810476D01*
X3925943Y-12705714D02*
X3935467Y-12686667D01*
X3954514Y-12677143D01*
X3983086Y-12677143D01*
X4002133Y-12686667D01*
X4011657Y-12705714D01*
X4011657Y-12810476D01*
X4402133Y-12600952D02*
X4230705Y-12858095D01*
X4659276Y-12610476D02*
X4678324Y-12610476D01*
X4697371Y-12620000D01*
X4706895Y-12629524D01*
X4716419Y-12648571D01*
X4725943Y-12686667D01*
X4725943Y-12734286D01*
X4716419Y-12772381D01*
X4706895Y-12791428D01*
X4697371Y-12800952D01*
X4678324Y-12810476D01*
X4659276Y-12810476D01*
X4640229Y-12800952D01*
X4630705Y-12791428D01*
X4621181Y-12772381D01*
X4611657Y-12734286D01*
X4611657Y-12686667D01*
X4621181Y-12648571D01*
X4630705Y-12629524D01*
X4640229Y-12620000D01*
X4659276Y-12610476D01*
X4811657Y-12791428D02*
X4821181Y-12800952D01*
X4811657Y-12810476D01*
X4802133Y-12800952D01*
X4811657Y-12791428D01*
X4811657Y-12810476D01*
X4944990Y-12610476D02*
X4964038Y-12610476D01*
X4983086Y-12620000D01*
X4992610Y-12629524D01*
X5002133Y-12648571D01*
X5011657Y-12686667D01*
X5011657Y-12734286D01*
X5002133Y-12772381D01*
X4992610Y-12791428D01*
X4983086Y-12800952D01*
X4964038Y-12810476D01*
X4944990Y-12810476D01*
X4925943Y-12800952D01*
X4916419Y-12791428D01*
X4906895Y-12772381D01*
X4897371Y-12734286D01*
X4897371Y-12686667D01*
X4906895Y-12648571D01*
X4916419Y-12629524D01*
X4925943Y-12620000D01*
X4944990Y-12610476D01*
X5078324Y-12610476D02*
X5202133Y-12610476D01*
X5135467Y-12686667D01*
X5164038Y-12686667D01*
X5183086Y-12696190D01*
X5192610Y-12705714D01*
X5202133Y-12724762D01*
X5202133Y-12772381D01*
X5192610Y-12791428D01*
X5183086Y-12800952D01*
X5164038Y-12810476D01*
X5106895Y-12810476D01*
X5087848Y-12800952D01*
X5078324Y-12791428D01*
X5392610Y-12810476D02*
X5278324Y-12810476D01*
X5335467Y-12810476D02*
X5335467Y-12610476D01*
X5316419Y-12639048D01*
X5297371Y-12658095D01*
X5278324Y-12667619D01*
X5573562Y-12610476D02*
X5478324Y-12610476D01*
X5468800Y-12705714D01*
X5478324Y-12696190D01*
X5497371Y-12686667D01*
X5544990Y-12686667D01*
X5564038Y-12696190D01*
X5573562Y-12705714D01*
X5583086Y-12724762D01*
X5583086Y-12772381D01*
X5573562Y-12791428D01*
X5564038Y-12800952D01*
X5544990Y-12810476D01*
X5497371Y-12810476D01*
X5478324Y-12800952D01*
X5468800Y-12791428D01*
X5659276Y-12610476D02*
X5659276Y-12648571D01*
X5735467Y-12610476D02*
X5735467Y-12648571D01*
X6030705Y-12886667D02*
X6021181Y-12877143D01*
X6002133Y-12848571D01*
X5992609Y-12829524D01*
X5983086Y-12800952D01*
X5973562Y-12753333D01*
X5973562Y-12715238D01*
X5983086Y-12667619D01*
X5992609Y-12639048D01*
X6002133Y-12620000D01*
X6021181Y-12591428D01*
X6030705Y-12581905D01*
X6192609Y-12610476D02*
X6154514Y-12610476D01*
X6135467Y-12620000D01*
X6125943Y-12629524D01*
X6106895Y-12658095D01*
X6097371Y-12696190D01*
X6097371Y-12772381D01*
X6106895Y-12791428D01*
X6116419Y-12800952D01*
X6135467Y-12810476D01*
X6173562Y-12810476D01*
X6192609Y-12800952D01*
X6202133Y-12791428D01*
X6211657Y-12772381D01*
X6211657Y-12724762D01*
X6202133Y-12705714D01*
X6192609Y-12696190D01*
X6173562Y-12686667D01*
X6135467Y-12686667D01*
X6116419Y-12696190D01*
X6106895Y-12705714D01*
X6097371Y-12724762D01*
X6383086Y-12677143D02*
X6383086Y-12810476D01*
X6335467Y-12600952D02*
X6287848Y-12743809D01*
X6411657Y-12743809D01*
X6640228Y-12810476D02*
X6640228Y-12610476D01*
X6725943Y-12810476D02*
X6725943Y-12705714D01*
X6716419Y-12686667D01*
X6697371Y-12677143D01*
X6668800Y-12677143D01*
X6649752Y-12686667D01*
X6640228Y-12696190D01*
X6849752Y-12810476D02*
X6830705Y-12800952D01*
X6821181Y-12791428D01*
X6811657Y-12772381D01*
X6811657Y-12715238D01*
X6821181Y-12696190D01*
X6830705Y-12686667D01*
X6849752Y-12677143D01*
X6878324Y-12677143D01*
X6897371Y-12686667D01*
X6906895Y-12696190D01*
X6916419Y-12715238D01*
X6916419Y-12772381D01*
X6906895Y-12791428D01*
X6897371Y-12800952D01*
X6878324Y-12810476D01*
X6849752Y-12810476D01*
X7030705Y-12810476D02*
X7011657Y-12800952D01*
X7002133Y-12781905D01*
X7002133Y-12610476D01*
X7183086Y-12800952D02*
X7164038Y-12810476D01*
X7125943Y-12810476D01*
X7106895Y-12800952D01*
X7097371Y-12781905D01*
X7097371Y-12705714D01*
X7106895Y-12686667D01*
X7125943Y-12677143D01*
X7164038Y-12677143D01*
X7183086Y-12686667D01*
X7192609Y-12705714D01*
X7192609Y-12724762D01*
X7097371Y-12743809D01*
X7268800Y-12800952D02*
X7287848Y-12810476D01*
X7325943Y-12810476D01*
X7344990Y-12800952D01*
X7354514Y-12781905D01*
X7354514Y-12772381D01*
X7344990Y-12753333D01*
X7325943Y-12743809D01*
X7297371Y-12743809D01*
X7278324Y-12734286D01*
X7268800Y-12715238D01*
X7268800Y-12705714D01*
X7278324Y-12686667D01*
X7297371Y-12677143D01*
X7325943Y-12677143D01*
X7344990Y-12686667D01*
X7421181Y-12886667D02*
X7430705Y-12877143D01*
X7449752Y-12848571D01*
X7459276Y-12829524D01*
X7468800Y-12800952D01*
X7478324Y-12753333D01*
X7478324Y-12715238D01*
X7468800Y-12667619D01*
X7459276Y-12639048D01*
X7449752Y-12620000D01*
X7430705Y-12591428D01*
X7421181Y-12581905D01*
D14*
X2413800Y-12939000D02*
X2413800Y-13029000D01*
X2368800Y-12984000D02*
X2458800Y-12984000D01*
D11*
X2754514Y-12874476D02*
X2773562Y-12874476D01*
X2792610Y-12884000D01*
X2802133Y-12893524D01*
X2811657Y-12912571D01*
X2821181Y-12950667D01*
X2821181Y-12998286D01*
X2811657Y-13036381D01*
X2802133Y-13055428D01*
X2792610Y-13064952D01*
X2773562Y-13074476D01*
X2754514Y-13074476D01*
X2735467Y-13064952D01*
X2725943Y-13055428D01*
X2716419Y-13036381D01*
X2706895Y-12998286D01*
X2706895Y-12950667D01*
X2716419Y-12912571D01*
X2725943Y-12893524D01*
X2735467Y-12884000D01*
X2754514Y-12874476D01*
X2906895Y-13055428D02*
X2916419Y-13064952D01*
X2906895Y-13074476D01*
X2897371Y-13064952D01*
X2906895Y-13055428D01*
X2906895Y-13074476D01*
X3011657Y-13074476D02*
X3049752Y-13074476D01*
X3068800Y-13064952D01*
X3078324Y-13055428D01*
X3097371Y-13026857D01*
X3106895Y-12988762D01*
X3106895Y-12912571D01*
X3097371Y-12893524D01*
X3087848Y-12884000D01*
X3068800Y-12874476D01*
X3030705Y-12874476D01*
X3011657Y-12884000D01*
X3002133Y-12893524D01*
X2992609Y-12912571D01*
X2992609Y-12960190D01*
X3002133Y-12979238D01*
X3011657Y-12988762D01*
X3030705Y-12998286D01*
X3068800Y-12998286D01*
X3087848Y-12988762D01*
X3097371Y-12979238D01*
X3106895Y-12960190D01*
X3230705Y-12874476D02*
X3249752Y-12874476D01*
X3268800Y-12884000D01*
X3278324Y-12893524D01*
X3287848Y-12912571D01*
X3297371Y-12950667D01*
X3297371Y-12998286D01*
X3287848Y-13036381D01*
X3278324Y-13055428D01*
X3268800Y-13064952D01*
X3249752Y-13074476D01*
X3230705Y-13074476D01*
X3211657Y-13064952D01*
X3202133Y-13055428D01*
X3192609Y-13036381D01*
X3183086Y-12998286D01*
X3183086Y-12950667D01*
X3192609Y-12912571D01*
X3202133Y-12893524D01*
X3211657Y-12884000D01*
X3230705Y-12874476D01*
X3421181Y-12874476D02*
X3440228Y-12874476D01*
X3459276Y-12884000D01*
X3468800Y-12893524D01*
X3478324Y-12912571D01*
X3487848Y-12950667D01*
X3487848Y-12998286D01*
X3478324Y-13036381D01*
X3468800Y-13055428D01*
X3459276Y-13064952D01*
X3440228Y-13074476D01*
X3421181Y-13074476D01*
X3402133Y-13064952D01*
X3392609Y-13055428D01*
X3383086Y-13036381D01*
X3373562Y-12998286D01*
X3373562Y-12950667D01*
X3383086Y-12912571D01*
X3392609Y-12893524D01*
X3402133Y-12884000D01*
X3421181Y-12874476D01*
X3573562Y-13074476D02*
X3573562Y-12941143D01*
X3573562Y-12960190D02*
X3583086Y-12950667D01*
X3602133Y-12941143D01*
X3630705Y-12941143D01*
X3649752Y-12950667D01*
X3659276Y-12969714D01*
X3659276Y-13074476D01*
X3659276Y-12969714D02*
X3668800Y-12950667D01*
X3687848Y-12941143D01*
X3716419Y-12941143D01*
X3735467Y-12950667D01*
X3744990Y-12969714D01*
X3744990Y-13074476D01*
X3840228Y-13074476D02*
X3840228Y-12941143D01*
X3840228Y-12960190D02*
X3849752Y-12950667D01*
X3868800Y-12941143D01*
X3897371Y-12941143D01*
X3916419Y-12950667D01*
X3925943Y-12969714D01*
X3925943Y-13074476D01*
X3925943Y-12969714D02*
X3935467Y-12950667D01*
X3954514Y-12941143D01*
X3983086Y-12941143D01*
X4002133Y-12950667D01*
X4011657Y-12969714D01*
X4011657Y-13074476D01*
X4402133Y-12864952D02*
X4230705Y-13122095D01*
X4659276Y-12874476D02*
X4678324Y-12874476D01*
X4697371Y-12884000D01*
X4706895Y-12893524D01*
X4716419Y-12912571D01*
X4725943Y-12950667D01*
X4725943Y-12998286D01*
X4716419Y-13036381D01*
X4706895Y-13055428D01*
X4697371Y-13064952D01*
X4678324Y-13074476D01*
X4659276Y-13074476D01*
X4640229Y-13064952D01*
X4630705Y-13055428D01*
X4621181Y-13036381D01*
X4611657Y-12998286D01*
X4611657Y-12950667D01*
X4621181Y-12912571D01*
X4630705Y-12893524D01*
X4640229Y-12884000D01*
X4659276Y-12874476D01*
X4811657Y-13055428D02*
X4821181Y-13064952D01*
X4811657Y-13074476D01*
X4802133Y-13064952D01*
X4811657Y-13055428D01*
X4811657Y-13074476D01*
X4944990Y-12874476D02*
X4964038Y-12874476D01*
X4983086Y-12884000D01*
X4992610Y-12893524D01*
X5002133Y-12912571D01*
X5011657Y-12950667D01*
X5011657Y-12998286D01*
X5002133Y-13036381D01*
X4992610Y-13055428D01*
X4983086Y-13064952D01*
X4964038Y-13074476D01*
X4944990Y-13074476D01*
X4925943Y-13064952D01*
X4916419Y-13055428D01*
X4906895Y-13036381D01*
X4897371Y-12998286D01*
X4897371Y-12950667D01*
X4906895Y-12912571D01*
X4916419Y-12893524D01*
X4925943Y-12884000D01*
X4944990Y-12874476D01*
X5078324Y-12874476D02*
X5202133Y-12874476D01*
X5135467Y-12950667D01*
X5164038Y-12950667D01*
X5183086Y-12960190D01*
X5192610Y-12969714D01*
X5202133Y-12988762D01*
X5202133Y-13036381D01*
X5192610Y-13055428D01*
X5183086Y-13064952D01*
X5164038Y-13074476D01*
X5106895Y-13074476D01*
X5087848Y-13064952D01*
X5078324Y-13055428D01*
X5383086Y-12874476D02*
X5287848Y-12874476D01*
X5278324Y-12969714D01*
X5287848Y-12960190D01*
X5306895Y-12950667D01*
X5354514Y-12950667D01*
X5373562Y-12960190D01*
X5383086Y-12969714D01*
X5392610Y-12988762D01*
X5392610Y-13036381D01*
X5383086Y-13055428D01*
X5373562Y-13064952D01*
X5354514Y-13074476D01*
X5306895Y-13074476D01*
X5287848Y-13064952D01*
X5278324Y-13055428D01*
X5564038Y-12941143D02*
X5564038Y-13074476D01*
X5516419Y-12864952D02*
X5468800Y-13007809D01*
X5592609Y-13007809D01*
X5659276Y-12874476D02*
X5659276Y-12912571D01*
X5735467Y-12874476D02*
X5735467Y-12912571D01*
X6030705Y-13150667D02*
X6021181Y-13141143D01*
X6002133Y-13112571D01*
X5992609Y-13093524D01*
X5983086Y-13064952D01*
X5973562Y-13017333D01*
X5973562Y-12979238D01*
X5983086Y-12931619D01*
X5992609Y-12903048D01*
X6002133Y-12884000D01*
X6021181Y-12855428D01*
X6030705Y-12845905D01*
X6097371Y-12893524D02*
X6106895Y-12884000D01*
X6125943Y-12874476D01*
X6173562Y-12874476D01*
X6192609Y-12884000D01*
X6202133Y-12893524D01*
X6211657Y-12912571D01*
X6211657Y-12931619D01*
X6202133Y-12960190D01*
X6087848Y-13074476D01*
X6211657Y-13074476D01*
X6449752Y-13074476D02*
X6449752Y-12874476D01*
X6535467Y-13074476D02*
X6535467Y-12969714D01*
X6525943Y-12950667D01*
X6506895Y-12941143D01*
X6478324Y-12941143D01*
X6459276Y-12950667D01*
X6449752Y-12960190D01*
X6659276Y-13074476D02*
X6640228Y-13064952D01*
X6630705Y-13055428D01*
X6621181Y-13036381D01*
X6621181Y-12979238D01*
X6630705Y-12960190D01*
X6640228Y-12950667D01*
X6659276Y-12941143D01*
X6687848Y-12941143D01*
X6706895Y-12950667D01*
X6716419Y-12960190D01*
X6725943Y-12979238D01*
X6725943Y-13036381D01*
X6716419Y-13055428D01*
X6706895Y-13064952D01*
X6687848Y-13074476D01*
X6659276Y-13074476D01*
X6840228Y-13074476D02*
X6821181Y-13064952D01*
X6811657Y-13045905D01*
X6811657Y-12874476D01*
X6992609Y-13064952D02*
X6973562Y-13074476D01*
X6935467Y-13074476D01*
X6916419Y-13064952D01*
X6906895Y-13045905D01*
X6906895Y-12969714D01*
X6916419Y-12950667D01*
X6935467Y-12941143D01*
X6973562Y-12941143D01*
X6992609Y-12950667D01*
X7002133Y-12969714D01*
X7002133Y-12988762D01*
X6906895Y-13007809D01*
X7078324Y-13064952D02*
X7097371Y-13074476D01*
X7135467Y-13074476D01*
X7154514Y-13064952D01*
X7164038Y-13045905D01*
X7164038Y-13036381D01*
X7154514Y-13017333D01*
X7135467Y-13007809D01*
X7106895Y-13007809D01*
X7087848Y-12998286D01*
X7078324Y-12979238D01*
X7078324Y-12969714D01*
X7087848Y-12950667D01*
X7106895Y-12941143D01*
X7135467Y-12941143D01*
X7154514Y-12950667D01*
X7230705Y-13150667D02*
X7240228Y-13141143D01*
X7259276Y-13112571D01*
X7268800Y-13093524D01*
X7278324Y-13064952D01*
X7287848Y-13017333D01*
X7287848Y-12979238D01*
X7278324Y-12931619D01*
X7268800Y-12903048D01*
X7259276Y-12884000D01*
X7240228Y-12855428D01*
X7230705Y-12845905D01*
D10*
X2444156Y-13283356D02*
X2444156Y-13212644D01*
X2373444Y-13212644D01*
X2373444Y-13283356D01*
X2444156Y-13283356D01*
D11*
X2821181Y-13338476D02*
X2706895Y-13338476D01*
X2764038Y-13338476D02*
X2764038Y-13138476D01*
X2744990Y-13167048D01*
X2725943Y-13186095D01*
X2706895Y-13195619D01*
X2906895Y-13319428D02*
X2916419Y-13328952D01*
X2906895Y-13338476D01*
X2897371Y-13328952D01*
X2906895Y-13319428D01*
X2906895Y-13338476D01*
X3040228Y-13138476D02*
X3059276Y-13138476D01*
X3078324Y-13148000D01*
X3087848Y-13157524D01*
X3097371Y-13176571D01*
X3106895Y-13214667D01*
X3106895Y-13262286D01*
X3097371Y-13300381D01*
X3087848Y-13319428D01*
X3078324Y-13328952D01*
X3059276Y-13338476D01*
X3040228Y-13338476D01*
X3021181Y-13328952D01*
X3011657Y-13319428D01*
X3002133Y-13300381D01*
X2992609Y-13262286D01*
X2992609Y-13214667D01*
X3002133Y-13176571D01*
X3011657Y-13157524D01*
X3021181Y-13148000D01*
X3040228Y-13138476D01*
X3230705Y-13138476D02*
X3249752Y-13138476D01*
X3268800Y-13148000D01*
X3278324Y-13157524D01*
X3287848Y-13176571D01*
X3297371Y-13214667D01*
X3297371Y-13262286D01*
X3287848Y-13300381D01*
X3278324Y-13319428D01*
X3268800Y-13328952D01*
X3249752Y-13338476D01*
X3230705Y-13338476D01*
X3211657Y-13328952D01*
X3202133Y-13319428D01*
X3192609Y-13300381D01*
X3183086Y-13262286D01*
X3183086Y-13214667D01*
X3192609Y-13176571D01*
X3202133Y-13157524D01*
X3211657Y-13148000D01*
X3230705Y-13138476D01*
X3421181Y-13138476D02*
X3440228Y-13138476D01*
X3459276Y-13148000D01*
X3468800Y-13157524D01*
X3478324Y-13176571D01*
X3487848Y-13214667D01*
X3487848Y-13262286D01*
X3478324Y-13300381D01*
X3468800Y-13319428D01*
X3459276Y-13328952D01*
X3440228Y-13338476D01*
X3421181Y-13338476D01*
X3402133Y-13328952D01*
X3392609Y-13319428D01*
X3383086Y-13300381D01*
X3373562Y-13262286D01*
X3373562Y-13214667D01*
X3383086Y-13176571D01*
X3392609Y-13157524D01*
X3402133Y-13148000D01*
X3421181Y-13138476D01*
X3573562Y-13338476D02*
X3573562Y-13205143D01*
X3573562Y-13224190D02*
X3583086Y-13214667D01*
X3602133Y-13205143D01*
X3630705Y-13205143D01*
X3649752Y-13214667D01*
X3659276Y-13233714D01*
X3659276Y-13338476D01*
X3659276Y-13233714D02*
X3668800Y-13214667D01*
X3687848Y-13205143D01*
X3716419Y-13205143D01*
X3735467Y-13214667D01*
X3744990Y-13233714D01*
X3744990Y-13338476D01*
X3840228Y-13338476D02*
X3840228Y-13205143D01*
X3840228Y-13224190D02*
X3849752Y-13214667D01*
X3868800Y-13205143D01*
X3897371Y-13205143D01*
X3916419Y-13214667D01*
X3925943Y-13233714D01*
X3925943Y-13338476D01*
X3925943Y-13233714D02*
X3935467Y-13214667D01*
X3954514Y-13205143D01*
X3983086Y-13205143D01*
X4002133Y-13214667D01*
X4011657Y-13233714D01*
X4011657Y-13338476D01*
X4402133Y-13128952D02*
X4230705Y-13386095D01*
X4659276Y-13138476D02*
X4678324Y-13138476D01*
X4697371Y-13148000D01*
X4706895Y-13157524D01*
X4716419Y-13176571D01*
X4725943Y-13214667D01*
X4725943Y-13262286D01*
X4716419Y-13300381D01*
X4706895Y-13319428D01*
X4697371Y-13328952D01*
X4678324Y-13338476D01*
X4659276Y-13338476D01*
X4640229Y-13328952D01*
X4630705Y-13319428D01*
X4621181Y-13300381D01*
X4611657Y-13262286D01*
X4611657Y-13214667D01*
X4621181Y-13176571D01*
X4630705Y-13157524D01*
X4640229Y-13148000D01*
X4659276Y-13138476D01*
X4811657Y-13319428D02*
X4821181Y-13328952D01*
X4811657Y-13338476D01*
X4802133Y-13328952D01*
X4811657Y-13319428D01*
X4811657Y-13338476D01*
X4944990Y-13138476D02*
X4964038Y-13138476D01*
X4983086Y-13148000D01*
X4992610Y-13157524D01*
X5002133Y-13176571D01*
X5011657Y-13214667D01*
X5011657Y-13262286D01*
X5002133Y-13300381D01*
X4992610Y-13319428D01*
X4983086Y-13328952D01*
X4964038Y-13338476D01*
X4944990Y-13338476D01*
X4925943Y-13328952D01*
X4916419Y-13319428D01*
X4906895Y-13300381D01*
X4897371Y-13262286D01*
X4897371Y-13214667D01*
X4906895Y-13176571D01*
X4916419Y-13157524D01*
X4925943Y-13148000D01*
X4944990Y-13138476D01*
X5078324Y-13138476D02*
X5202133Y-13138476D01*
X5135467Y-13214667D01*
X5164038Y-13214667D01*
X5183086Y-13224190D01*
X5192610Y-13233714D01*
X5202133Y-13252762D01*
X5202133Y-13300381D01*
X5192610Y-13319428D01*
X5183086Y-13328952D01*
X5164038Y-13338476D01*
X5106895Y-13338476D01*
X5087848Y-13328952D01*
X5078324Y-13319428D01*
X5297371Y-13338476D02*
X5335467Y-13338476D01*
X5354514Y-13328952D01*
X5364038Y-13319428D01*
X5383086Y-13290857D01*
X5392610Y-13252762D01*
X5392610Y-13176571D01*
X5383086Y-13157524D01*
X5373562Y-13148000D01*
X5354514Y-13138476D01*
X5316419Y-13138476D01*
X5297371Y-13148000D01*
X5287848Y-13157524D01*
X5278324Y-13176571D01*
X5278324Y-13224190D01*
X5287848Y-13243238D01*
X5297371Y-13252762D01*
X5316419Y-13262286D01*
X5354514Y-13262286D01*
X5373562Y-13252762D01*
X5383086Y-13243238D01*
X5392610Y-13224190D01*
X5564038Y-13205143D02*
X5564038Y-13338476D01*
X5516419Y-13128952D02*
X5468800Y-13271809D01*
X5592609Y-13271809D01*
X5659276Y-13138476D02*
X5659276Y-13176571D01*
X5735467Y-13138476D02*
X5735467Y-13176571D01*
X6030705Y-13414667D02*
X6021181Y-13405143D01*
X6002133Y-13376571D01*
X5992609Y-13357524D01*
X5983086Y-13328952D01*
X5973562Y-13281333D01*
X5973562Y-13243238D01*
X5983086Y-13195619D01*
X5992609Y-13167048D01*
X6002133Y-13148000D01*
X6021181Y-13119428D01*
X6030705Y-13109905D01*
X6211657Y-13338476D02*
X6097371Y-13338476D01*
X6154514Y-13338476D02*
X6154514Y-13138476D01*
X6135467Y-13167048D01*
X6116419Y-13186095D01*
X6097371Y-13195619D01*
X6278324Y-13138476D02*
X6411657Y-13138476D01*
X6325943Y-13338476D01*
X6640228Y-13338476D02*
X6640228Y-13138476D01*
X6725943Y-13338476D02*
X6725943Y-13233714D01*
X6716419Y-13214667D01*
X6697371Y-13205143D01*
X6668800Y-13205143D01*
X6649752Y-13214667D01*
X6640228Y-13224190D01*
X6849752Y-13338476D02*
X6830705Y-13328952D01*
X6821181Y-13319428D01*
X6811657Y-13300381D01*
X6811657Y-13243238D01*
X6821181Y-13224190D01*
X6830705Y-13214667D01*
X6849752Y-13205143D01*
X6878324Y-13205143D01*
X6897371Y-13214667D01*
X6906895Y-13224190D01*
X6916419Y-13243238D01*
X6916419Y-13300381D01*
X6906895Y-13319428D01*
X6897371Y-13328952D01*
X6878324Y-13338476D01*
X6849752Y-13338476D01*
X7030705Y-13338476D02*
X7011657Y-13328952D01*
X7002133Y-13309905D01*
X7002133Y-13138476D01*
X7183086Y-13328952D02*
X7164038Y-13338476D01*
X7125943Y-13338476D01*
X7106895Y-13328952D01*
X7097371Y-13309905D01*
X7097371Y-13233714D01*
X7106895Y-13214667D01*
X7125943Y-13205143D01*
X7164038Y-13205143D01*
X7183086Y-13214667D01*
X7192609Y-13233714D01*
X7192609Y-13252762D01*
X7097371Y-13271809D01*
X7268800Y-13328952D02*
X7287848Y-13338476D01*
X7325943Y-13338476D01*
X7344990Y-13328952D01*
X7354514Y-13309905D01*
X7354514Y-13300381D01*
X7344990Y-13281333D01*
X7325943Y-13271809D01*
X7297371Y-13271809D01*
X7278324Y-13262286D01*
X7268800Y-13243238D01*
X7268800Y-13233714D01*
X7278324Y-13214667D01*
X7297371Y-13205143D01*
X7325943Y-13205143D01*
X7344990Y-13214667D01*
X7421181Y-13414667D02*
X7430705Y-13405143D01*
X7449752Y-13376571D01*
X7459276Y-13357524D01*
X7468800Y-13328952D01*
X7478324Y-13281333D01*
X7478324Y-13243238D01*
X7468800Y-13195619D01*
X7459276Y-13167048D01*
X7449752Y-13148000D01*
X7430705Y-13119428D01*
X7421181Y-13109905D01*
D15*
X2403800Y-13567000D02*
X2458800Y-13512000D01*
X2403800Y-13457000D01*
X2348800Y-13512000D01*
X2403800Y-13567000D01*
D11*
X2821181Y-13602476D02*
X2706895Y-13602476D01*
X2764038Y-13602476D02*
X2764038Y-13402476D01*
X2744990Y-13431048D01*
X2725943Y-13450095D01*
X2706895Y-13459619D01*
X2906895Y-13583428D02*
X2916419Y-13592952D01*
X2906895Y-13602476D01*
X2897371Y-13592952D01*
X2906895Y-13583428D01*
X2906895Y-13602476D01*
X3106895Y-13602476D02*
X2992609Y-13602476D01*
X3049752Y-13602476D02*
X3049752Y-13402476D01*
X3030705Y-13431048D01*
X3011657Y-13450095D01*
X2992609Y-13459619D01*
X3230705Y-13402476D02*
X3249752Y-13402476D01*
X3268800Y-13412000D01*
X3278324Y-13421524D01*
X3287848Y-13440571D01*
X3297371Y-13478667D01*
X3297371Y-13526286D01*
X3287848Y-13564381D01*
X3278324Y-13583428D01*
X3268800Y-13592952D01*
X3249752Y-13602476D01*
X3230705Y-13602476D01*
X3211657Y-13592952D01*
X3202133Y-13583428D01*
X3192609Y-13564381D01*
X3183086Y-13526286D01*
X3183086Y-13478667D01*
X3192609Y-13440571D01*
X3202133Y-13421524D01*
X3211657Y-13412000D01*
X3230705Y-13402476D01*
X3421181Y-13402476D02*
X3440228Y-13402476D01*
X3459276Y-13412000D01*
X3468800Y-13421524D01*
X3478324Y-13440571D01*
X3487848Y-13478667D01*
X3487848Y-13526286D01*
X3478324Y-13564381D01*
X3468800Y-13583428D01*
X3459276Y-13592952D01*
X3440228Y-13602476D01*
X3421181Y-13602476D01*
X3402133Y-13592952D01*
X3392609Y-13583428D01*
X3383086Y-13564381D01*
X3373562Y-13526286D01*
X3373562Y-13478667D01*
X3383086Y-13440571D01*
X3392609Y-13421524D01*
X3402133Y-13412000D01*
X3421181Y-13402476D01*
X3573562Y-13602476D02*
X3573562Y-13469143D01*
X3573562Y-13488190D02*
X3583086Y-13478667D01*
X3602133Y-13469143D01*
X3630705Y-13469143D01*
X3649752Y-13478667D01*
X3659276Y-13497714D01*
X3659276Y-13602476D01*
X3659276Y-13497714D02*
X3668800Y-13478667D01*
X3687848Y-13469143D01*
X3716419Y-13469143D01*
X3735467Y-13478667D01*
X3744990Y-13497714D01*
X3744990Y-13602476D01*
X3840228Y-13602476D02*
X3840228Y-13469143D01*
X3840228Y-13488190D02*
X3849752Y-13478667D01*
X3868800Y-13469143D01*
X3897371Y-13469143D01*
X3916419Y-13478667D01*
X3925943Y-13497714D01*
X3925943Y-13602476D01*
X3925943Y-13497714D02*
X3935467Y-13478667D01*
X3954514Y-13469143D01*
X3983086Y-13469143D01*
X4002133Y-13478667D01*
X4011657Y-13497714D01*
X4011657Y-13602476D01*
X4402133Y-13392952D02*
X4230705Y-13650095D01*
X4659276Y-13402476D02*
X4678324Y-13402476D01*
X4697371Y-13412000D01*
X4706895Y-13421524D01*
X4716419Y-13440571D01*
X4725943Y-13478667D01*
X4725943Y-13526286D01*
X4716419Y-13564381D01*
X4706895Y-13583428D01*
X4697371Y-13592952D01*
X4678324Y-13602476D01*
X4659276Y-13602476D01*
X4640229Y-13592952D01*
X4630705Y-13583428D01*
X4621181Y-13564381D01*
X4611657Y-13526286D01*
X4611657Y-13478667D01*
X4621181Y-13440571D01*
X4630705Y-13421524D01*
X4640229Y-13412000D01*
X4659276Y-13402476D01*
X4811657Y-13583428D02*
X4821181Y-13592952D01*
X4811657Y-13602476D01*
X4802133Y-13592952D01*
X4811657Y-13583428D01*
X4811657Y-13602476D01*
X4944990Y-13402476D02*
X4964038Y-13402476D01*
X4983086Y-13412000D01*
X4992610Y-13421524D01*
X5002133Y-13440571D01*
X5011657Y-13478667D01*
X5011657Y-13526286D01*
X5002133Y-13564381D01*
X4992610Y-13583428D01*
X4983086Y-13592952D01*
X4964038Y-13602476D01*
X4944990Y-13602476D01*
X4925943Y-13592952D01*
X4916419Y-13583428D01*
X4906895Y-13564381D01*
X4897371Y-13526286D01*
X4897371Y-13478667D01*
X4906895Y-13440571D01*
X4916419Y-13421524D01*
X4925943Y-13412000D01*
X4944990Y-13402476D01*
X5183086Y-13469143D02*
X5183086Y-13602476D01*
X5135467Y-13392952D02*
X5087848Y-13535809D01*
X5211657Y-13535809D01*
X5268800Y-13402476D02*
X5392610Y-13402476D01*
X5325943Y-13478667D01*
X5354514Y-13478667D01*
X5373562Y-13488190D01*
X5383086Y-13497714D01*
X5392610Y-13516762D01*
X5392610Y-13564381D01*
X5383086Y-13583428D01*
X5373562Y-13592952D01*
X5354514Y-13602476D01*
X5297371Y-13602476D01*
X5278324Y-13592952D01*
X5268800Y-13583428D01*
X5459276Y-13402476D02*
X5583086Y-13402476D01*
X5516419Y-13478667D01*
X5544990Y-13478667D01*
X5564038Y-13488190D01*
X5573562Y-13497714D01*
X5583086Y-13516762D01*
X5583086Y-13564381D01*
X5573562Y-13583428D01*
X5564038Y-13592952D01*
X5544990Y-13602476D01*
X5487848Y-13602476D01*
X5468800Y-13592952D01*
X5459276Y-13583428D01*
X5659276Y-13402476D02*
X5659276Y-13440571D01*
X5735467Y-13402476D02*
X5735467Y-13440571D01*
X6030705Y-13678667D02*
X6021181Y-13669143D01*
X6002133Y-13640571D01*
X5992609Y-13621524D01*
X5983086Y-13592952D01*
X5973562Y-13545333D01*
X5973562Y-13507238D01*
X5983086Y-13459619D01*
X5992609Y-13431048D01*
X6002133Y-13412000D01*
X6021181Y-13383428D01*
X6030705Y-13373905D01*
X6202133Y-13402476D02*
X6106895Y-13402476D01*
X6097371Y-13497714D01*
X6106895Y-13488190D01*
X6125943Y-13478667D01*
X6173562Y-13478667D01*
X6192609Y-13488190D01*
X6202133Y-13497714D01*
X6211657Y-13516762D01*
X6211657Y-13564381D01*
X6202133Y-13583428D01*
X6192609Y-13592952D01*
X6173562Y-13602476D01*
X6125943Y-13602476D01*
X6106895Y-13592952D01*
X6097371Y-13583428D01*
X6449752Y-13602476D02*
X6449752Y-13402476D01*
X6535467Y-13602476D02*
X6535467Y-13497714D01*
X6525943Y-13478667D01*
X6506895Y-13469143D01*
X6478324Y-13469143D01*
X6459276Y-13478667D01*
X6449752Y-13488190D01*
X6659276Y-13602476D02*
X6640228Y-13592952D01*
X6630705Y-13583428D01*
X6621181Y-13564381D01*
X6621181Y-13507238D01*
X6630705Y-13488190D01*
X6640228Y-13478667D01*
X6659276Y-13469143D01*
X6687848Y-13469143D01*
X6706895Y-13478667D01*
X6716419Y-13488190D01*
X6725943Y-13507238D01*
X6725943Y-13564381D01*
X6716419Y-13583428D01*
X6706895Y-13592952D01*
X6687848Y-13602476D01*
X6659276Y-13602476D01*
X6840228Y-13602476D02*
X6821181Y-13592952D01*
X6811657Y-13573905D01*
X6811657Y-13402476D01*
X6992609Y-13592952D02*
X6973562Y-13602476D01*
X6935467Y-13602476D01*
X6916419Y-13592952D01*
X6906895Y-13573905D01*
X6906895Y-13497714D01*
X6916419Y-13478667D01*
X6935467Y-13469143D01*
X6973562Y-13469143D01*
X6992609Y-13478667D01*
X7002133Y-13497714D01*
X7002133Y-13516762D01*
X6906895Y-13535809D01*
X7078324Y-13592952D02*
X7097371Y-13602476D01*
X7135467Y-13602476D01*
X7154514Y-13592952D01*
X7164038Y-13573905D01*
X7164038Y-13564381D01*
X7154514Y-13545333D01*
X7135467Y-13535809D01*
X7106895Y-13535809D01*
X7087848Y-13526286D01*
X7078324Y-13507238D01*
X7078324Y-13497714D01*
X7087848Y-13478667D01*
X7106895Y-13469143D01*
X7135467Y-13469143D01*
X7154514Y-13478667D01*
X7230705Y-13678667D02*
X7240228Y-13669143D01*
X7259276Y-13640571D01*
X7268800Y-13621524D01*
X7278324Y-13592952D01*
X7287848Y-13545333D01*
X7287848Y-13507238D01*
X7278324Y-13459619D01*
X7268800Y-13431048D01*
X7259276Y-13412000D01*
X7240228Y-13383428D01*
X7230705Y-13373905D01*
D16*
X2338800Y-13716000D02*
X2458800Y-13836000D01*
X2458800Y-13716000D02*
X2338800Y-13836000D01*
X2458800Y-13776000D02*
G75*
G03*
X2458800Y-13776000I-60000J0D01*
G01*
D11*
X2821181Y-13866476D02*
X2706895Y-13866476D01*
X2764038Y-13866476D02*
X2764038Y-13666476D01*
X2744990Y-13695048D01*
X2725943Y-13714095D01*
X2706895Y-13723619D01*
X2906895Y-13847428D02*
X2916419Y-13856952D01*
X2906895Y-13866476D01*
X2897371Y-13856952D01*
X2906895Y-13847428D01*
X2906895Y-13866476D01*
X2992609Y-13685524D02*
X3002133Y-13676000D01*
X3021181Y-13666476D01*
X3068800Y-13666476D01*
X3087848Y-13676000D01*
X3097371Y-13685524D01*
X3106895Y-13704571D01*
X3106895Y-13723619D01*
X3097371Y-13752190D01*
X2983086Y-13866476D01*
X3106895Y-13866476D01*
X3230705Y-13666476D02*
X3249752Y-13666476D01*
X3268800Y-13676000D01*
X3278324Y-13685524D01*
X3287848Y-13704571D01*
X3297371Y-13742667D01*
X3297371Y-13790286D01*
X3287848Y-13828381D01*
X3278324Y-13847428D01*
X3268800Y-13856952D01*
X3249752Y-13866476D01*
X3230705Y-13866476D01*
X3211657Y-13856952D01*
X3202133Y-13847428D01*
X3192609Y-13828381D01*
X3183086Y-13790286D01*
X3183086Y-13742667D01*
X3192609Y-13704571D01*
X3202133Y-13685524D01*
X3211657Y-13676000D01*
X3230705Y-13666476D01*
X3421181Y-13666476D02*
X3440228Y-13666476D01*
X3459276Y-13676000D01*
X3468800Y-13685524D01*
X3478324Y-13704571D01*
X3487848Y-13742667D01*
X3487848Y-13790286D01*
X3478324Y-13828381D01*
X3468800Y-13847428D01*
X3459276Y-13856952D01*
X3440228Y-13866476D01*
X3421181Y-13866476D01*
X3402133Y-13856952D01*
X3392609Y-13847428D01*
X3383086Y-13828381D01*
X3373562Y-13790286D01*
X3373562Y-13742667D01*
X3383086Y-13704571D01*
X3392609Y-13685524D01*
X3402133Y-13676000D01*
X3421181Y-13666476D01*
X3573562Y-13866476D02*
X3573562Y-13733143D01*
X3573562Y-13752190D02*
X3583086Y-13742667D01*
X3602133Y-13733143D01*
X3630705Y-13733143D01*
X3649752Y-13742667D01*
X3659276Y-13761714D01*
X3659276Y-13866476D01*
X3659276Y-13761714D02*
X3668800Y-13742667D01*
X3687848Y-13733143D01*
X3716419Y-13733143D01*
X3735467Y-13742667D01*
X3744990Y-13761714D01*
X3744990Y-13866476D01*
X3840228Y-13866476D02*
X3840228Y-13733143D01*
X3840228Y-13752190D02*
X3849752Y-13742667D01*
X3868800Y-13733143D01*
X3897371Y-13733143D01*
X3916419Y-13742667D01*
X3925943Y-13761714D01*
X3925943Y-13866476D01*
X3925943Y-13761714D02*
X3935467Y-13742667D01*
X3954514Y-13733143D01*
X3983086Y-13733143D01*
X4002133Y-13742667D01*
X4011657Y-13761714D01*
X4011657Y-13866476D01*
X4402133Y-13656952D02*
X4230705Y-13914095D01*
X4659276Y-13666476D02*
X4678324Y-13666476D01*
X4697371Y-13676000D01*
X4706895Y-13685524D01*
X4716419Y-13704571D01*
X4725943Y-13742667D01*
X4725943Y-13790286D01*
X4716419Y-13828381D01*
X4706895Y-13847428D01*
X4697371Y-13856952D01*
X4678324Y-13866476D01*
X4659276Y-13866476D01*
X4640229Y-13856952D01*
X4630705Y-13847428D01*
X4621181Y-13828381D01*
X4611657Y-13790286D01*
X4611657Y-13742667D01*
X4621181Y-13704571D01*
X4630705Y-13685524D01*
X4640229Y-13676000D01*
X4659276Y-13666476D01*
X4811657Y-13847428D02*
X4821181Y-13856952D01*
X4811657Y-13866476D01*
X4802133Y-13856952D01*
X4811657Y-13847428D01*
X4811657Y-13866476D01*
X4944990Y-13666476D02*
X4964038Y-13666476D01*
X4983086Y-13676000D01*
X4992610Y-13685524D01*
X5002133Y-13704571D01*
X5011657Y-13742667D01*
X5011657Y-13790286D01*
X5002133Y-13828381D01*
X4992610Y-13847428D01*
X4983086Y-13856952D01*
X4964038Y-13866476D01*
X4944990Y-13866476D01*
X4925943Y-13856952D01*
X4916419Y-13847428D01*
X4906895Y-13828381D01*
X4897371Y-13790286D01*
X4897371Y-13742667D01*
X4906895Y-13704571D01*
X4916419Y-13685524D01*
X4925943Y-13676000D01*
X4944990Y-13666476D01*
X5183086Y-13733143D02*
X5183086Y-13866476D01*
X5135467Y-13656952D02*
X5087848Y-13799809D01*
X5211657Y-13799809D01*
X5268800Y-13666476D02*
X5402133Y-13666476D01*
X5316419Y-13866476D01*
X5468800Y-13685524D02*
X5478324Y-13676000D01*
X5497371Y-13666476D01*
X5544990Y-13666476D01*
X5564038Y-13676000D01*
X5573562Y-13685524D01*
X5583086Y-13704571D01*
X5583086Y-13723619D01*
X5573562Y-13752190D01*
X5459276Y-13866476D01*
X5583086Y-13866476D01*
X5659276Y-13666476D02*
X5659276Y-13704571D01*
X5735467Y-13666476D02*
X5735467Y-13704571D01*
X6030705Y-13942667D02*
X6021181Y-13933143D01*
X6002133Y-13904571D01*
X5992609Y-13885524D01*
X5983086Y-13856952D01*
X5973562Y-13809333D01*
X5973562Y-13771238D01*
X5983086Y-13723619D01*
X5992609Y-13695048D01*
X6002133Y-13676000D01*
X6021181Y-13647428D01*
X6030705Y-13637905D01*
X6116419Y-13866476D02*
X6154514Y-13866476D01*
X6173562Y-13856952D01*
X6183086Y-13847428D01*
X6202133Y-13818857D01*
X6211657Y-13780762D01*
X6211657Y-13704571D01*
X6202133Y-13685524D01*
X6192609Y-13676000D01*
X6173562Y-13666476D01*
X6135467Y-13666476D01*
X6116419Y-13676000D01*
X6106895Y-13685524D01*
X6097371Y-13704571D01*
X6097371Y-13752190D01*
X6106895Y-13771238D01*
X6116419Y-13780762D01*
X6135467Y-13790286D01*
X6173562Y-13790286D01*
X6192609Y-13780762D01*
X6202133Y-13771238D01*
X6211657Y-13752190D01*
X6449752Y-13866476D02*
X6449752Y-13666476D01*
X6535467Y-13866476D02*
X6535467Y-13761714D01*
X6525943Y-13742667D01*
X6506895Y-13733143D01*
X6478324Y-13733143D01*
X6459276Y-13742667D01*
X6449752Y-13752190D01*
X6659276Y-13866476D02*
X6640228Y-13856952D01*
X6630705Y-13847428D01*
X6621181Y-13828381D01*
X6621181Y-13771238D01*
X6630705Y-13752190D01*
X6640228Y-13742667D01*
X6659276Y-13733143D01*
X6687848Y-13733143D01*
X6706895Y-13742667D01*
X6716419Y-13752190D01*
X6725943Y-13771238D01*
X6725943Y-13828381D01*
X6716419Y-13847428D01*
X6706895Y-13856952D01*
X6687848Y-13866476D01*
X6659276Y-13866476D01*
X6840228Y-13866476D02*
X6821181Y-13856952D01*
X6811657Y-13837905D01*
X6811657Y-13666476D01*
X6992609Y-13856952D02*
X6973562Y-13866476D01*
X6935467Y-13866476D01*
X6916419Y-13856952D01*
X6906895Y-13837905D01*
X6906895Y-13761714D01*
X6916419Y-13742667D01*
X6935467Y-13733143D01*
X6973562Y-13733143D01*
X6992609Y-13742667D01*
X7002133Y-13761714D01*
X7002133Y-13780762D01*
X6906895Y-13799809D01*
X7078324Y-13856952D02*
X7097371Y-13866476D01*
X7135467Y-13866476D01*
X7154514Y-13856952D01*
X7164038Y-13837905D01*
X7164038Y-13828381D01*
X7154514Y-13809333D01*
X7135467Y-13799809D01*
X7106895Y-13799809D01*
X7087848Y-13790286D01*
X7078324Y-13771238D01*
X7078324Y-13761714D01*
X7087848Y-13742667D01*
X7106895Y-13733143D01*
X7135467Y-13733143D01*
X7154514Y-13742667D01*
X7230705Y-13942667D02*
X7240228Y-13933143D01*
X7259276Y-13904571D01*
X7268800Y-13885524D01*
X7278324Y-13856952D01*
X7287848Y-13809333D01*
X7287848Y-13771238D01*
X7278324Y-13723619D01*
X7268800Y-13695048D01*
X7259276Y-13676000D01*
X7240228Y-13647428D01*
X7230705Y-13637905D01*
D17*
X2308800Y-13965000D02*
X2458800Y-14115000D01*
X2458800Y-13965000D02*
X2308800Y-14115000D01*
X2383800Y-13965000D02*
X2383800Y-14115000D01*
X2308800Y-14040000D02*
X2458800Y-14040000D01*
D11*
X2821181Y-14130476D02*
X2706895Y-14130476D01*
X2764038Y-14130476D02*
X2764038Y-13930476D01*
X2744990Y-13959048D01*
X2725943Y-13978095D01*
X2706895Y-13987619D01*
X2906895Y-14111428D02*
X2916419Y-14120952D01*
X2906895Y-14130476D01*
X2897371Y-14120952D01*
X2906895Y-14111428D01*
X2906895Y-14130476D01*
X3097371Y-13930476D02*
X3002133Y-13930476D01*
X2992609Y-14025714D01*
X3002133Y-14016190D01*
X3021181Y-14006667D01*
X3068800Y-14006667D01*
X3087848Y-14016190D01*
X3097371Y-14025714D01*
X3106895Y-14044762D01*
X3106895Y-14092381D01*
X3097371Y-14111428D01*
X3087848Y-14120952D01*
X3068800Y-14130476D01*
X3021181Y-14130476D01*
X3002133Y-14120952D01*
X2992609Y-14111428D01*
X3230705Y-13930476D02*
X3249752Y-13930476D01*
X3268800Y-13940000D01*
X3278324Y-13949524D01*
X3287848Y-13968571D01*
X3297371Y-14006667D01*
X3297371Y-14054286D01*
X3287848Y-14092381D01*
X3278324Y-14111428D01*
X3268800Y-14120952D01*
X3249752Y-14130476D01*
X3230705Y-14130476D01*
X3211657Y-14120952D01*
X3202133Y-14111428D01*
X3192609Y-14092381D01*
X3183086Y-14054286D01*
X3183086Y-14006667D01*
X3192609Y-13968571D01*
X3202133Y-13949524D01*
X3211657Y-13940000D01*
X3230705Y-13930476D01*
X3421181Y-13930476D02*
X3440228Y-13930476D01*
X3459276Y-13940000D01*
X3468800Y-13949524D01*
X3478324Y-13968571D01*
X3487848Y-14006667D01*
X3487848Y-14054286D01*
X3478324Y-14092381D01*
X3468800Y-14111428D01*
X3459276Y-14120952D01*
X3440228Y-14130476D01*
X3421181Y-14130476D01*
X3402133Y-14120952D01*
X3392609Y-14111428D01*
X3383086Y-14092381D01*
X3373562Y-14054286D01*
X3373562Y-14006667D01*
X3383086Y-13968571D01*
X3392609Y-13949524D01*
X3402133Y-13940000D01*
X3421181Y-13930476D01*
X3573562Y-14130476D02*
X3573562Y-13997143D01*
X3573562Y-14016190D02*
X3583086Y-14006667D01*
X3602133Y-13997143D01*
X3630705Y-13997143D01*
X3649752Y-14006667D01*
X3659276Y-14025714D01*
X3659276Y-14130476D01*
X3659276Y-14025714D02*
X3668800Y-14006667D01*
X3687848Y-13997143D01*
X3716419Y-13997143D01*
X3735467Y-14006667D01*
X3744990Y-14025714D01*
X3744990Y-14130476D01*
X3840228Y-14130476D02*
X3840228Y-13997143D01*
X3840228Y-14016190D02*
X3849752Y-14006667D01*
X3868800Y-13997143D01*
X3897371Y-13997143D01*
X3916419Y-14006667D01*
X3925943Y-14025714D01*
X3925943Y-14130476D01*
X3925943Y-14025714D02*
X3935467Y-14006667D01*
X3954514Y-13997143D01*
X3983086Y-13997143D01*
X4002133Y-14006667D01*
X4011657Y-14025714D01*
X4011657Y-14130476D01*
X4402133Y-13920952D02*
X4230705Y-14178095D01*
X4659276Y-13930476D02*
X4678324Y-13930476D01*
X4697371Y-13940000D01*
X4706895Y-13949524D01*
X4716419Y-13968571D01*
X4725943Y-14006667D01*
X4725943Y-14054286D01*
X4716419Y-14092381D01*
X4706895Y-14111428D01*
X4697371Y-14120952D01*
X4678324Y-14130476D01*
X4659276Y-14130476D01*
X4640229Y-14120952D01*
X4630705Y-14111428D01*
X4621181Y-14092381D01*
X4611657Y-14054286D01*
X4611657Y-14006667D01*
X4621181Y-13968571D01*
X4630705Y-13949524D01*
X4640229Y-13940000D01*
X4659276Y-13930476D01*
X4811657Y-14111428D02*
X4821181Y-14120952D01*
X4811657Y-14130476D01*
X4802133Y-14120952D01*
X4811657Y-14111428D01*
X4811657Y-14130476D01*
X4944990Y-13930476D02*
X4964038Y-13930476D01*
X4983086Y-13940000D01*
X4992610Y-13949524D01*
X5002133Y-13968571D01*
X5011657Y-14006667D01*
X5011657Y-14054286D01*
X5002133Y-14092381D01*
X4992610Y-14111428D01*
X4983086Y-14120952D01*
X4964038Y-14130476D01*
X4944990Y-14130476D01*
X4925943Y-14120952D01*
X4916419Y-14111428D01*
X4906895Y-14092381D01*
X4897371Y-14054286D01*
X4897371Y-14006667D01*
X4906895Y-13968571D01*
X4916419Y-13949524D01*
X4925943Y-13940000D01*
X4944990Y-13930476D01*
X5192610Y-13930476D02*
X5097371Y-13930476D01*
X5087848Y-14025714D01*
X5097371Y-14016190D01*
X5116419Y-14006667D01*
X5164038Y-14006667D01*
X5183086Y-14016190D01*
X5192610Y-14025714D01*
X5202133Y-14044762D01*
X5202133Y-14092381D01*
X5192610Y-14111428D01*
X5183086Y-14120952D01*
X5164038Y-14130476D01*
X5116419Y-14130476D01*
X5097371Y-14120952D01*
X5087848Y-14111428D01*
X5297371Y-14130476D02*
X5335467Y-14130476D01*
X5354514Y-14120952D01*
X5364038Y-14111428D01*
X5383086Y-14082857D01*
X5392610Y-14044762D01*
X5392610Y-13968571D01*
X5383086Y-13949524D01*
X5373562Y-13940000D01*
X5354514Y-13930476D01*
X5316419Y-13930476D01*
X5297371Y-13940000D01*
X5287848Y-13949524D01*
X5278324Y-13968571D01*
X5278324Y-14016190D01*
X5287848Y-14035238D01*
X5297371Y-14044762D01*
X5316419Y-14054286D01*
X5354514Y-14054286D01*
X5373562Y-14044762D01*
X5383086Y-14035238D01*
X5392610Y-14016190D01*
X5583086Y-14130476D02*
X5468800Y-14130476D01*
X5525943Y-14130476D02*
X5525943Y-13930476D01*
X5506895Y-13959048D01*
X5487848Y-13978095D01*
X5468800Y-13987619D01*
X5659276Y-13930476D02*
X5659276Y-13968571D01*
X5735467Y-13930476D02*
X5735467Y-13968571D01*
X6030705Y-14206667D02*
X6021181Y-14197143D01*
X6002133Y-14168571D01*
X5992609Y-14149524D01*
X5983086Y-14120952D01*
X5973562Y-14073333D01*
X5973562Y-14035238D01*
X5983086Y-13987619D01*
X5992609Y-13959048D01*
X6002133Y-13940000D01*
X6021181Y-13911428D01*
X6030705Y-13901905D01*
X6211657Y-14130476D02*
X6097371Y-14130476D01*
X6154514Y-14130476D02*
X6154514Y-13930476D01*
X6135467Y-13959048D01*
X6116419Y-13978095D01*
X6097371Y-13987619D01*
X6449752Y-14130476D02*
X6449752Y-13930476D01*
X6535467Y-14130476D02*
X6535467Y-14025714D01*
X6525943Y-14006667D01*
X6506895Y-13997143D01*
X6478324Y-13997143D01*
X6459276Y-14006667D01*
X6449752Y-14016190D01*
X6659276Y-14130476D02*
X6640228Y-14120952D01*
X6630705Y-14111428D01*
X6621181Y-14092381D01*
X6621181Y-14035238D01*
X6630705Y-14016190D01*
X6640228Y-14006667D01*
X6659276Y-13997143D01*
X6687848Y-13997143D01*
X6706895Y-14006667D01*
X6716419Y-14016190D01*
X6725943Y-14035238D01*
X6725943Y-14092381D01*
X6716419Y-14111428D01*
X6706895Y-14120952D01*
X6687848Y-14130476D01*
X6659276Y-14130476D01*
X6840228Y-14130476D02*
X6821181Y-14120952D01*
X6811657Y-14101905D01*
X6811657Y-13930476D01*
X6992609Y-14120952D02*
X6973562Y-14130476D01*
X6935467Y-14130476D01*
X6916419Y-14120952D01*
X6906895Y-14101905D01*
X6906895Y-14025714D01*
X6916419Y-14006667D01*
X6935467Y-13997143D01*
X6973562Y-13997143D01*
X6992609Y-14006667D01*
X7002133Y-14025714D01*
X7002133Y-14044762D01*
X6906895Y-14063809D01*
X7068800Y-14206667D02*
X7078324Y-14197143D01*
X7097371Y-14168571D01*
X7106895Y-14149524D01*
X7116419Y-14120952D01*
X7125943Y-14073333D01*
X7125943Y-14035238D01*
X7116419Y-13987619D01*
X7106895Y-13959048D01*
X7097371Y-13940000D01*
X7078324Y-13911428D01*
X7068800Y-13901905D01*
D18*
X2288800Y-14225000D02*
X2458800Y-14395000D01*
X2458800Y-14225000D02*
X2288800Y-14395000D01*
X2433905Y-14370105D02*
X2433905Y-14249895D01*
X2313695Y-14249895D01*
X2313695Y-14370105D01*
X2433905Y-14370105D01*
D11*
X2821181Y-14400476D02*
X2706895Y-14400476D01*
X2764038Y-14400476D02*
X2764038Y-14200476D01*
X2744990Y-14229048D01*
X2725943Y-14248095D01*
X2706895Y-14257619D01*
X2906895Y-14381428D02*
X2916419Y-14390952D01*
X2906895Y-14400476D01*
X2897371Y-14390952D01*
X2906895Y-14381428D01*
X2906895Y-14400476D01*
X2983086Y-14200476D02*
X3116419Y-14200476D01*
X3030705Y-14400476D01*
X3230705Y-14200476D02*
X3249752Y-14200476D01*
X3268800Y-14210000D01*
X3278324Y-14219524D01*
X3287848Y-14238571D01*
X3297371Y-14276667D01*
X3297371Y-14324286D01*
X3287848Y-14362381D01*
X3278324Y-14381428D01*
X3268800Y-14390952D01*
X3249752Y-14400476D01*
X3230705Y-14400476D01*
X3211657Y-14390952D01*
X3202133Y-14381428D01*
X3192609Y-14362381D01*
X3183086Y-14324286D01*
X3183086Y-14276667D01*
X3192609Y-14238571D01*
X3202133Y-14219524D01*
X3211657Y-14210000D01*
X3230705Y-14200476D01*
X3421181Y-14200476D02*
X3440228Y-14200476D01*
X3459276Y-14210000D01*
X3468800Y-14219524D01*
X3478324Y-14238571D01*
X3487848Y-14276667D01*
X3487848Y-14324286D01*
X3478324Y-14362381D01*
X3468800Y-14381428D01*
X3459276Y-14390952D01*
X3440228Y-14400476D01*
X3421181Y-14400476D01*
X3402133Y-14390952D01*
X3392609Y-14381428D01*
X3383086Y-14362381D01*
X3373562Y-14324286D01*
X3373562Y-14276667D01*
X3383086Y-14238571D01*
X3392609Y-14219524D01*
X3402133Y-14210000D01*
X3421181Y-14200476D01*
X3573562Y-14400476D02*
X3573562Y-14267143D01*
X3573562Y-14286190D02*
X3583086Y-14276667D01*
X3602133Y-14267143D01*
X3630705Y-14267143D01*
X3649752Y-14276667D01*
X3659276Y-14295714D01*
X3659276Y-14400476D01*
X3659276Y-14295714D02*
X3668800Y-14276667D01*
X3687848Y-14267143D01*
X3716419Y-14267143D01*
X3735467Y-14276667D01*
X3744990Y-14295714D01*
X3744990Y-14400476D01*
X3840228Y-14400476D02*
X3840228Y-14267143D01*
X3840228Y-14286190D02*
X3849752Y-14276667D01*
X3868800Y-14267143D01*
X3897371Y-14267143D01*
X3916419Y-14276667D01*
X3925943Y-14295714D01*
X3925943Y-14400476D01*
X3925943Y-14295714D02*
X3935467Y-14276667D01*
X3954514Y-14267143D01*
X3983086Y-14267143D01*
X4002133Y-14276667D01*
X4011657Y-14295714D01*
X4011657Y-14400476D01*
X4402133Y-14190952D02*
X4230705Y-14448095D01*
X4659276Y-14200476D02*
X4678324Y-14200476D01*
X4697371Y-14210000D01*
X4706895Y-14219524D01*
X4716419Y-14238571D01*
X4725943Y-14276667D01*
X4725943Y-14324286D01*
X4716419Y-14362381D01*
X4706895Y-14381428D01*
X4697371Y-14390952D01*
X4678324Y-14400476D01*
X4659276Y-14400476D01*
X4640229Y-14390952D01*
X4630705Y-14381428D01*
X4621181Y-14362381D01*
X4611657Y-14324286D01*
X4611657Y-14276667D01*
X4621181Y-14238571D01*
X4630705Y-14219524D01*
X4640229Y-14210000D01*
X4659276Y-14200476D01*
X4811657Y-14381428D02*
X4821181Y-14390952D01*
X4811657Y-14400476D01*
X4802133Y-14390952D01*
X4811657Y-14381428D01*
X4811657Y-14400476D01*
X4944990Y-14200476D02*
X4964038Y-14200476D01*
X4983086Y-14210000D01*
X4992610Y-14219524D01*
X5002133Y-14238571D01*
X5011657Y-14276667D01*
X5011657Y-14324286D01*
X5002133Y-14362381D01*
X4992610Y-14381428D01*
X4983086Y-14390952D01*
X4964038Y-14400476D01*
X4944990Y-14400476D01*
X4925943Y-14390952D01*
X4916419Y-14381428D01*
X4906895Y-14362381D01*
X4897371Y-14324286D01*
X4897371Y-14276667D01*
X4906895Y-14238571D01*
X4916419Y-14219524D01*
X4925943Y-14210000D01*
X4944990Y-14200476D01*
X5183086Y-14200476D02*
X5144990Y-14200476D01*
X5125943Y-14210000D01*
X5116419Y-14219524D01*
X5097371Y-14248095D01*
X5087848Y-14286190D01*
X5087848Y-14362381D01*
X5097371Y-14381428D01*
X5106895Y-14390952D01*
X5125943Y-14400476D01*
X5164038Y-14400476D01*
X5183086Y-14390952D01*
X5192610Y-14381428D01*
X5202133Y-14362381D01*
X5202133Y-14314762D01*
X5192610Y-14295714D01*
X5183086Y-14286190D01*
X5164038Y-14276667D01*
X5125943Y-14276667D01*
X5106895Y-14286190D01*
X5097371Y-14295714D01*
X5087848Y-14314762D01*
X5373562Y-14200476D02*
X5335467Y-14200476D01*
X5316419Y-14210000D01*
X5306895Y-14219524D01*
X5287848Y-14248095D01*
X5278324Y-14286190D01*
X5278324Y-14362381D01*
X5287848Y-14381428D01*
X5297371Y-14390952D01*
X5316419Y-14400476D01*
X5354514Y-14400476D01*
X5373562Y-14390952D01*
X5383086Y-14381428D01*
X5392610Y-14362381D01*
X5392610Y-14314762D01*
X5383086Y-14295714D01*
X5373562Y-14286190D01*
X5354514Y-14276667D01*
X5316419Y-14276667D01*
X5297371Y-14286190D01*
X5287848Y-14295714D01*
X5278324Y-14314762D01*
X5487848Y-14400476D02*
X5525943Y-14400476D01*
X5544990Y-14390952D01*
X5554514Y-14381428D01*
X5573562Y-14352857D01*
X5583086Y-14314762D01*
X5583086Y-14238571D01*
X5573562Y-14219524D01*
X5564038Y-14210000D01*
X5544990Y-14200476D01*
X5506895Y-14200476D01*
X5487848Y-14210000D01*
X5478324Y-14219524D01*
X5468800Y-14238571D01*
X5468800Y-14286190D01*
X5478324Y-14305238D01*
X5487848Y-14314762D01*
X5506895Y-14324286D01*
X5544990Y-14324286D01*
X5564038Y-14314762D01*
X5573562Y-14305238D01*
X5583086Y-14286190D01*
X5659276Y-14200476D02*
X5659276Y-14238571D01*
X5735467Y-14200476D02*
X5735467Y-14238571D01*
X6030705Y-14476667D02*
X6021181Y-14467143D01*
X6002133Y-14438571D01*
X5992609Y-14419524D01*
X5983086Y-14390952D01*
X5973562Y-14343333D01*
X5973562Y-14305238D01*
X5983086Y-14257619D01*
X5992609Y-14229048D01*
X6002133Y-14210000D01*
X6021181Y-14181428D01*
X6030705Y-14171905D01*
X6192609Y-14267143D02*
X6192609Y-14400476D01*
X6144990Y-14190952D02*
X6097371Y-14333809D01*
X6221181Y-14333809D01*
X6449752Y-14400476D02*
X6449752Y-14200476D01*
X6535467Y-14400476D02*
X6535467Y-14295714D01*
X6525943Y-14276667D01*
X6506895Y-14267143D01*
X6478324Y-14267143D01*
X6459276Y-14276667D01*
X6449752Y-14286190D01*
X6659276Y-14400476D02*
X6640228Y-14390952D01*
X6630705Y-14381428D01*
X6621181Y-14362381D01*
X6621181Y-14305238D01*
X6630705Y-14286190D01*
X6640228Y-14276667D01*
X6659276Y-14267143D01*
X6687848Y-14267143D01*
X6706895Y-14276667D01*
X6716419Y-14286190D01*
X6725943Y-14305238D01*
X6725943Y-14362381D01*
X6716419Y-14381428D01*
X6706895Y-14390952D01*
X6687848Y-14400476D01*
X6659276Y-14400476D01*
X6840228Y-14400476D02*
X6821181Y-14390952D01*
X6811657Y-14371905D01*
X6811657Y-14200476D01*
X6992609Y-14390952D02*
X6973562Y-14400476D01*
X6935467Y-14400476D01*
X6916419Y-14390952D01*
X6906895Y-14371905D01*
X6906895Y-14295714D01*
X6916419Y-14276667D01*
X6935467Y-14267143D01*
X6973562Y-14267143D01*
X6992609Y-14276667D01*
X7002133Y-14295714D01*
X7002133Y-14314762D01*
X6906895Y-14333809D01*
X7078324Y-14390952D02*
X7097371Y-14400476D01*
X7135467Y-14400476D01*
X7154514Y-14390952D01*
X7164038Y-14371905D01*
X7164038Y-14362381D01*
X7154514Y-14343333D01*
X7135467Y-14333809D01*
X7106895Y-14333809D01*
X7087848Y-14324286D01*
X7078324Y-14305238D01*
X7078324Y-14295714D01*
X7087848Y-14276667D01*
X7106895Y-14267143D01*
X7135467Y-14267143D01*
X7154514Y-14276667D01*
X7230705Y-14476667D02*
X7240228Y-14467143D01*
X7259276Y-14438571D01*
X7268800Y-14419524D01*
X7278324Y-14390952D01*
X7287848Y-14343333D01*
X7287848Y-14305238D01*
X7278324Y-14257619D01*
X7268800Y-14229048D01*
X7259276Y-14210000D01*
X7240228Y-14181428D01*
X7230705Y-14171905D01*
M02*
