M48
; DRILL file {KiCad (6.0.7)} date Thu Sep 22 17:08:05 2022
; FORMAT={-:-/ absolute / metric / decimal}
; #@! TF.CreationDate,2022-09-22T17:08:05-04:00
; #@! TF.GenerationSoftware,Kicad,Pcbnew,(6.0.7)
; #@! TF.FileFunction,MixedPlating,1,2
FMAT,2
METRIC
; #@! TA.AperFunction,Plated,PTH,ViaDrill
T1C0.400
; #@! TA.AperFunction,Plated,PTH,ComponentDrill
T2C0.800
; #@! TA.AperFunction,Plated,PTH,ComponentDrill
T3C0.900
; #@! TA.AperFunction,Plated,PTH,ComponentDrill
T4C1.000
; #@! TA.AperFunction,Plated,PTH,ComponentDrill
T5C1.100
; #@! TA.AperFunction,Plated,PTH,ComponentDrill
T6C1.200
; #@! TA.AperFunction,Plated,PTH,ComponentDrill
T7C1.500
; #@! TA.AperFunction,Plated,PTH,ComponentDrill
T8C1.700
%
G90
G05
T1
X35.56Y-39.878
X68.072Y-114.183
X106.934Y-35.56
X107.696Y-80.772
T2
X40.132Y-109.279
X40.132Y-111.779
X41.148Y-70.398
X41.148Y-72.898
X41.148Y-76.2
X41.148Y-78.7
X42.936Y-39.37
X45.476Y-39.37
X46.99Y-70.792
X46.99Y-75.672
X48.016Y-39.37
X49.032Y-44.714
X49.032Y-47.254
X49.032Y-49.794
X49.032Y-52.334
X53.457Y-31.242
X54.356Y-70.722
X54.356Y-75.602
X55.957Y-31.242
X56.652Y-44.714
X56.652Y-47.254
X56.652Y-49.794
X56.652Y-52.334
X60.706Y-109.397
X60.706Y-111.897
X60.96Y-54.102
X60.96Y-56.642
X60.96Y-59.182
X61.488Y-81.28
X61.722Y-70.702
X61.722Y-75.582
X63.988Y-81.28
X67.076Y-81.026
X68.834Y-70.702
X68.834Y-75.582
X69.576Y-81.026
X73.66Y-68.092
X73.66Y-70.592
X91.557Y-47.752
X94.057Y-47.752
X98.054Y-93.482
X98.054Y-96.022
X98.054Y-98.562
X98.054Y-101.102
X100.34Y-48.778
X100.34Y-51.318
X100.34Y-53.858
X100.34Y-56.398
X105.527Y-110.236
X105.674Y-93.482
X105.674Y-96.022
X105.674Y-98.562
X105.674Y-101.102
X107.96Y-48.778
X107.96Y-51.318
X107.96Y-53.858
X107.96Y-56.398
X108.027Y-110.236
X111.252Y-95.25
X111.252Y-97.79
X111.252Y-100.33
X112.776Y-50.282
X112.776Y-52.822
X112.776Y-55.362
T3
X47.498Y-103.51
X47.498Y-106.05
T4
X28.702Y-100.213
X28.702Y-102.753
X28.702Y-105.293
X66.548Y-31.196
X66.548Y-33.736
X66.548Y-36.276
X66.548Y-38.816
X99.568Y-31.242
X99.568Y-33.782
X99.568Y-36.322
X99.568Y-38.862
X113.792Y-108.209
X113.792Y-110.749
X119.126Y-56.134
X119.126Y-58.674
X119.888Y-90.424
X119.888Y-92.964
T5
X33.274Y-101.991
X33.274Y-112.151
X48.006Y-112.151
X50.546Y-112.151
X53.086Y-112.151
T6
X63.754Y-91.44
X64.008Y-96.774
X67.31Y-101.092
X80.532Y-44.577
X83.834Y-48.895
X84.088Y-54.229
X91.708Y-63.881
X95.01Y-68.199
X95.264Y-73.533
T7
X32.258Y-53.34
T8
X29.718Y-50.8
X29.718Y-55.88
X34.798Y-50.8
X34.798Y-55.88
T0
M30
